<?xml version="1.0" standalone="no"?>
<!DOCTYPE svg PUBLIC "-//W3C//DTD SVG 1.1//EN" "http://www.w3.org/Graphics/SVG/1.1/DTD/svg11.dtd" >
<svg xmlns="http://www.w3.org/2000/svg">
<metadata></metadata>
<defs>
<font id="lavanderia_sturdysturdy" horiz-adv-x="2708" >
<font-face units-per-em="2048" ascent="1536" descent="-512" />
<missing-glyph horiz-adv-x="414" />
<glyph horiz-adv-x="0" />
<glyph horiz-adv-x="0" />
<glyph horiz-adv-x="682" />
<glyph unicode=" "  horiz-adv-x="414" />
<glyph unicode="&#x09;" horiz-adv-x="414" />
<glyph unicode="&#xa0;" horiz-adv-x="414" />
<glyph unicode="!" horiz-adv-x="364" d="M32 94q0 68 45 125t116 57q54 0 80.5 -34t26.5 -86q0 -68 -44.5 -123t-115.5 -55q-53 0 -80.5 33t-27.5 83zM168 411q77 375 150.5 661t174.5 602l211 -54q-128 -310 -222 -592t-186 -638z" />
<glyph unicode="&#x22;" horiz-adv-x="458" d="M105 1348q7 36 13.5 73t10.5 68t7 60t5 51.5t3.5 39.5t1.5 26l1 8l153 -28q-55 -139 -92 -315zM324 1348q9 49 17 100t12.5 90t7 71t3.5 49l1 16l154 -28q-55 -139 -92 -315z" />
<glyph unicode="#" horiz-adv-x="884" d="M30 427l20 118h173l27 157h-176l20 119h179l51 284h173q-22 -141 -50 -284h94l50 284h175q-22 -141 -50 -284h167l-21 -119h-166q-16 -88 -31 -157h175l-21 -118h-177l-48 -250h-174l48 250h-94l-48 -250h-175l48 250h-169zM396 545h95l28 157h-92q-15 -88 -31 -157z" />
<glyph unicode="$" horiz-adv-x="726" d="M-22 243q0 57 11 103l206 -34q-14 -42 -14 -80q0 -53 26.5 -86.5t79.5 -33.5q55 0 85.5 36.5t30.5 101.5q0 32 -12.5 64.5t-32.5 60.5t-46 58.5t-53 58.5t-53 61t-46.5 65.5t-33 72t-12.5 80.5q0 56 15.5 106t48.5 93t91.5 69t135.5 29l31 168h120l-31 -181 q84 -27 133 -95t49 -168q0 -40 -11 -102l-199 44q17 52 17 94q0 26 -6.5 48t-19.5 37t-31.5 23.5t-40.5 8.5q-20 0 -36.5 -5.5t-28 -15t-20 -22.5t-12.5 -29t-4 -33q0 -35 13.5 -69.5t35.5 -63t50 -59.5t57.5 -59t57.5 -61.5t50 -66t35.5 -73.5t13.5 -83q0 -136 -76.5 -222 t-216.5 -101l-33 -188h-142l33 190q-98 18 -156.5 82t-58.5 177z" />
<glyph unicode="%" horiz-adv-x="1040" d="M30 729q0 34 6.5 68.5t19.5 68t31 63.5t43 55.5t53.5 44t64 29t73.5 10.5q32 0 88.5 -6.5t83.5 -6.5q98 0 184 33.5t185 119.5l106 -57q-116 -263 -349 -610.5t-449 -566.5l-108 85q77 82 151 169t134.5 165t117 156.5t100 145t81.5 127t65 107.5t46 81.5t28 52.5l9 18 q-4 -3 -12 -8.5t-36 -19.5t-59.5 -24.5t-82.5 -19.5t-104 -9h-30q49 -61 49 -156q0 -59 -20 -118t-55.5 -108t-91.5 -80t-122 -31q-98 0 -149 63t-51 159zM165 720q0 -53 19 -87t57 -34q41 0 76 41t53 99t18 114q0 55 -19 89.5t-57 34.5q-41 0 -76 -41.5t-53 -100 t-18 -115.5zM545 211q0 47 12.5 95.5t38 92.5t60 78t81.5 54t101 20q98 0 148.5 -63.5t50.5 -159.5q0 -60 -20 -119.5t-56 -109t-92.5 -80t-122.5 -30.5q-98 0 -149.5 63t-51.5 159zM681 202q0 -53 19.5 -87t56.5 -34q31 0 59.5 24t47 61.5t29.5 82t11 86.5q0 54 -19.5 89 t-56.5 35q-42 0 -76.5 -41.5t-52.5 -100t-18 -115.5z" />
<glyph unicode="&#x26;" horiz-adv-x="1167" d="M44 401q0 143 67.5 283t188.5 233q-22 125 -22 250q0 109 20 198t60.5 157.5t107.5 105.5t156 37q66 0 118 -22.5t83 -61.5t47 -87.5t16 -103.5q0 -73 -27.5 -142.5t-76.5 -118.5l-132 103q70 87 70 188q0 58 -26.5 94t-74.5 36q-74 0 -110 -79t-36 -217q0 -141 35 -320 t100 -362.5t147 -330.5q32 76 43.5 192t13.5 296q-64 0 -99 2l18 113h416l-18 -113q-49 -2 -113 -2q-7 -188 -55.5 -342.5t-137.5 -255.5q164 -236 326 -236q94 0 154 92l96 -99q-36 -37 -72 -60t-79 -33.5t-97 -10.5q-119 0 -234 65t-217 181q-100 -52 -214 -52 q-90 0 -163.5 22.5t-125 61.5t-86.5 93t-51 115.5t-16 130.5zM250 482q0 -106 28.5 -193.5t89 -143t142.5 -55.5q73 0 123 22q-105 140 -184 318t-123 364q-76 -133 -76 -312z" />
<glyph unicode="'" horiz-adv-x="309" d="M160 1348q10 49 18 100t12 90t7 71t4 49l1 16l153 -28q-54 -139 -91 -315z" />
<glyph unicode="(" horiz-adv-x="464" d="M44 337q0 381 119 773t319 691l112 -67q-159 -331 -261.5 -824.5t-102.5 -911.5q0 -100 6 -193l-114 -23q-78 256 -78 555z" />
<glyph unicode=")" horiz-adv-x="499" d="M-87 -151q158 331 261.5 824.5t103.5 909.5q0 102 -7 194l114 24q79 -260 79 -556q0 -382 -119.5 -773t-318.5 -690z" />
<glyph unicode="*" horiz-adv-x="421" d="M-11 1411q77 24 158 36q-52 27 -136 101l79 78q62 -55 109 -118q0 70 22 173l112 -18q-14 -71 -46 -166q68 34 155 68l28 -113q-66 -22 -163 -36q56 -32 142 -104l-77 -78q-57 46 -116 121q0 -82 -15 -171l-112 27q8 49 46 154q-86 -41 -155 -65z" />
<glyph unicode="+" horiz-adv-x="451" d="M9 530l21 120h149l32 175l115 -13l-30 -162h144l-20 -120h-147l-30 -173l-114 15l27 158h-147z" />
<glyph unicode="," horiz-adv-x="348" d="M-66 -227q86 134 86 356h170q0 -131 -45.5 -241.5t-126.5 -189.5z" />
<glyph unicode="-" horiz-adv-x="501" d="M32 530l21 120h411l-22 -120h-410z" />
<glyph unicode="." horiz-adv-x="458" d="M32 94q0 68 45 125t116 57q54 0 80.5 -34t26.5 -86q0 -68 -44.5 -123t-115.5 -55q-53 0 -80.5 33t-27.5 83z" />
<glyph unicode="/" horiz-adv-x="435" d="M46 20q74 234 142 489t111.5 452t77 360.5t48.5 251.5l15 88l140 -21q-5 -35 -16 -97t-48.5 -252t-81 -378.5t-113.5 -447.5t-146 -487z" />
<glyph unicode="0" horiz-adv-x="770" d="M50 363q0 129 31 255t85 226.5t135 162t174 61.5q69 0 120 -29.5t80 -83t42.5 -120.5t13.5 -150q0 -186 -53.5 -348t-150 -259.5t-212.5 -97.5q-70 0 -122 29.5t-82.5 82.5t-45.5 121t-15 150zM254 289q0 -92 17.5 -132.5t54.5 -40.5q30 0 66 58t66.5 147.5t51 211 t20.5 238.5q0 160 -75 160q-49 0 -97 -105.5t-76 -255t-28 -281.5z" />
<glyph unicode="1" horiz-adv-x="561" d="M35 0l15 116h134q19 124 40 239.5t37 191.5t30 134.5t21 85.5l7 27q-49 -70 -161 -175l-64 131q68 45 151.5 120.5t132.5 129.5l49 53l116 -37q-1 -9 -24.5 -127t-61.5 -331t-74 -442h138l-16 -116h-470z" />
<glyph unicode="2" horiz-adv-x="692" d="M-48 44q54 94 131.5 190t143 166.5t125.5 140.5t95 140t35 138q0 51 -27 84t-70 33q-52 0 -85 -43t-33 -109q0 -49 15 -94l-166 -77q-29 59 -29 133q0 60 22 117t60.5 103t98.5 74t131 28q134 0 202.5 -74.5t68.5 -201.5q0 -71 -23 -136t-59 -114.5t-88.5 -103.5 t-102.5 -97.5t-111 -103t-105 -113.5q14 3 46 3h73q168 0 239 70l108 -133q-73 -86 -181 -86q-54 0 -154 21t-137 21q-28 0 -60 -12t-32 -34z" />
<glyph unicode="3" horiz-adv-x="762" d="M26 13q0 74 31.5 143.5t91.5 119.5l129 -129q-37 -32 -58 -75t-21 -85q0 -31 11.5 -55t36.5 -39t62 -15q43 0 80.5 30t62.5 77.5t39 106t14 116.5q0 93 -35 157q-59 -19 -113 -19q-20 0 -31 2l31 166q48 -3 104 -14q30 36 52 83t33.5 96.5t11.5 95.5q0 75 -30.5 121.5 t-91.5 46.5q-53 0 -92 -46t-39 -117q0 -38 19 -97l-162 -59q-26 62 -26 138q0 58 18.5 111.5t55 98t96.5 70.5t136 26q75 0 133.5 -24t94 -66.5t53.5 -95.5t18 -114q0 -93 -39.5 -183.5t-110.5 -151.5q54 -46 81.5 -114t27.5 -144q0 -63 -17.5 -125t-52 -117.5t-82.5 -98.5 t-113 -68t-139 -25q-65 0 -117.5 22.5t-85.5 60.5t-50 86.5t-17 102.5z" />
<glyph unicode="4" horiz-adv-x="775" d="M4 348q104 137 153.5 320t55.5 378h175q-5 -375 -149 -650q53 22 177 22q28 155 60.5 312t50.5 236l18 80h173q-2 -12 -19 -91.5t-46.5 -228t-56.5 -302.5q61 8 113 37l57 -137q-81 -53 -195 -53l-26 -155h157l-17 -116h-469l16 116h133l27 175q-69 11 -116 11 q-87 0 -127 -46z" />
<glyph unicode="5" horiz-adv-x="710" d="M-26 -2q0 77 36.5 151.5t105.5 130.5l123 -136q-81 -86 -81 -166q0 -46 26 -75.5t66 -29.5q58 0 107 65t73.5 154t24.5 175q0 95 -39.5 143.5t-100.5 48.5q-12 0 -21 -1t-15.5 -4t-11.5 -6t-10 -8.5t-8.5 -10.5t-9.5 -13.5t-12 -14.5l-111 54q8 15 26 33q16 49 32.5 112 t38.5 192.5t32 264.5q121 -20 216 -20q43 0 83.5 3t68 7.5t49.5 8.5t32 7l10 3l16 -188q-10 -3 -28.5 -8.5t-78.5 -14t-125 -8.5q-69 0 -131 9q-6 -35 -17 -96.5t-20 -106.5t-18 -82q31 7 65 7q49 0 90.5 -12t72.5 -33.5t55.5 -52t40 -68t23 -80t7.5 -89.5 q0 -73 -15.5 -144.5t-49 -137t-80.5 -116t-114 -80t-145 -29.5q-68 0 -121.5 21.5t-87.5 58t-51.5 83t-17.5 99.5z" />
<glyph unicode="6" horiz-adv-x="742" d="M37 357q0 94 18.5 185.5t52.5 172t80.5 155t102.5 136.5t119 113t130.5 88t135.5 59l72 -156q-114 -41 -202.5 -97.5t-157 -137.5t-110.5 -183q88 100 183 100q71 0 120.5 -44.5t71 -112.5t21.5 -151q0 -69 -15 -139t-45.5 -134t-73 -113.5t-101.5 -79t-127 -29.5 q-69 0 -123 29.5t-86.5 81.5t-49 117t-16.5 140zM213 346q0 -100 26.5 -159.5t77.5 -59.5q46 0 83 58t56 140t19 163q0 79 -20.5 129.5t-60.5 50.5q-68 0 -122 -90t-59 -232z" />
<glyph unicode="7" horiz-adv-x="644" d="M48 757q5 26 9 88t5.5 115.5t1.5 87.5q154 -25 339 -25q155 0 258 23l4 -156q-285 -390 -372 -1096h-217q55 310 167 614.5t252 499.5q-62 -9 -151 -9q-59 0 -128 7q0 -9 1 -26t1 -24q0 -18 -1 -36t-3.5 -38t-2.5 -32z" />
<glyph unicode="8" horiz-adv-x="720" d="M9 289q0 81 28 160t85 147t134 104q-46 39 -71 101t-25 133q0 53 13 103.5t41.5 96.5t68.5 81t98 55.5t126 20.5q49 0 88.5 -13t66.5 -35.5t45.5 -54t27.5 -67.5t9 -77q0 -102 -51 -201.5t-137 -150.5q60 -40 91.5 -110.5t31.5 -157.5q0 -61 -16 -123t-49.5 -118 t-79.5 -99.5t-110.5 -69t-139.5 -25.5q-68 0 -121.5 24t-86.5 66t-50 95.5t-17 114.5zM208 271q0 -75 23 -121.5t69 -46.5q49 0 92 60.5t66.5 144.5t23.5 162q0 70 -21 113t-62 43q-54 0 -99.5 -57.5t-68.5 -138t-23 -159.5zM342 901.5q0 -64.5 18.5 -105.5t55.5 -41 q41 0 77 47t55 114t19 130q0 38 -8 67t-25 46.5t-41 17.5q-47 0 -82.5 -44t-52 -105.5t-16.5 -126z" />
<glyph unicode="9" horiz-adv-x="717" d="M44 587q0 69 14.5 138.5t45 133t73 112.5t103 78.5t129.5 29.5q73 0 128.5 -30t89.5 -83.5t51.5 -123.5t17.5 -154q0 -126 -37.5 -265t-103.5 -266.5t-166 -232.5t-217 -156l-89 154q119 60 209.5 176.5t147.5 262.5q-36 -47 -79 -73.5t-88 -26.5q-75 0 -128 46t-77 118 t-24 162zM243 564q0 -73 21 -119t62 -46q33 0 68 25t63 67.5t46 105t18 130.5q0 98 -27 156t-78 58q-47 0 -88 -61.5t-63 -148t-22 -167.5z" />
<glyph unicode=":" horiz-adv-x="295" d="M32 94q0 68 45 125t116 57q54 0 80.5 -34t26.5 -86q0 -68 -44.5 -123t-115.5 -55q-53 0 -80.5 33t-27.5 83zM168 908q0 25 7 51t20.5 49t32.5 41.5t45 29.5t55 11q54 0 81 -34t27 -86q0 -68 -44.5 -123t-115.5 -55q-36 0 -61 16.5t-36 42t-11 57.5z" />
<glyph unicode=";" horiz-adv-x="315" d="M-116 -227q86 134 86 356h170q0 -131 -45.5 -241.5t-126.5 -189.5zM168 908q0 25 7 51t20.5 49t32.5 41.5t45 29.5t55 11q54 0 81 -34t27 -86q0 -68 -44.5 -123t-115.5 -55q-36 0 -61 16.5t-36 42t-11 57.5z" />
<glyph unicode="&#x3c;" horiz-adv-x="584" d="M22 828l17 94q26 12 69.5 34.5t156 90t199.5 132.5l72 -122q-53 -34 -113 -66.5t-106 -54t-85 -38.5t-60 -25l-21 -8q68 -50 140 -110.5t109 -95.5l38 -35l-110 -117q-5 8 -15.5 21t-43.5 52.5t-67 76.5t-83.5 85t-96.5 86z" />
<glyph unicode="=" horiz-adv-x="508" d="M30 394l20 120h411l-21 -120h-410zM71 633l21 120h411l-21 -120h-411z" />
<glyph unicode="&#x3e;" horiz-adv-x="552" d="M22 628q86 55 182.5 103t150.5 69l54 21q-68 50 -140 110t-109 95l-38 36l110 117q3 -4 8 -10.5t22.5 -28.5t36.5 -44.5t47 -54t56.5 -60.5t64 -62t69.5 -61l-15 -94q-26 -12 -69.5 -34.5t-156 -89.5t-199.5 -133z" />
<glyph unicode="?" horiz-adv-x="623" d="M138 1254q0 52 11.5 103t34 98t57 87t77.5 69.5t99 46t119 16.5q168 0 271.5 -90t103.5 -249q0 -81 -22 -153.5t-58.5 -129.5t-81 -111.5t-92 -112.5t-89.5 -119.5t-75.5 -144.5t-47.5 -176l-161 23q13 94 43 180.5t66.5 152.5t78 128.5t80.5 118.5t70.5 110.5 t50.5 117.5t19 127q0 96 -41 150t-121 54q-78 0 -132 -74.5t-54 -172.5q0 -130 96 -213l-142 -151q-78 49 -119 133t-41 182zM175 94q0 68 44.5 125t115.5 57q54 0 80.5 -34t26.5 -86q0 -68 -44 -123t-116 -55q-52 0 -79.5 33t-27.5 83z" />
<glyph unicode="@" horiz-adv-x="1313" d="M-26 266.5q0 121.5 18.5 248t55 248t87 234t118.5 207t145.5 164.5t171.5 109t194 39q98 0 177 -32.5t131.5 -88.5t87.5 -135t50 -167t15 -189q0 -157 -37.5 -322t-97.5 -295.5t-141.5 -214t-164.5 -83.5q-123 0 -123 227v23q-98 -261 -267 -261q-80 0 -119 78.5 t-39 212.5q0 96 20 206.5t56.5 215t84.5 189.5t109 136.5t125 51.5q125 0 149 -153l25 129h163q-92 -407 -145 -780q-4 -44 -4 -56q0 -55 21 -55q31 0 67.5 45t70.5 122.5t62.5 173t45.5 206.5t17 213q0 80 -11 150t-36.5 133t-65 108t-99.5 71t-136 26q-94 0 -183 -49 t-160.5 -132.5t-131 -195.5t-99.5 -237.5t-62.5 -258.5t-22.5 -259q0 -104 15 -195.5t47.5 -171t80 -136t117.5 -89t156 -32.5q104 0 200 44t177 121t157.5 193t140.5 247.5t128 297.5q12 0 38 -11.5t26 -20.5q-40 -103 -66.5 -170t-68 -160.5t-74.5 -154.5t-80 -136.5 t-91 -123.5t-102 -98.5t-118.5 -78.5t-134.5 -46t-156 -18q-105 0 -191.5 38.5t-145.5 106t-99.5 161.5t-59 201.5t-18.5 229zM429 291q0 -119 48 -119q50 0 106.5 102.5t93 241t36.5 243.5q0 67 -17.5 106t-53.5 39q-46 0 -97 -110t-83.5 -254.5t-32.5 -248.5z" />
<glyph unicode="A" d="M76 326q0 122 27 241.5t77.5 230t130 204.5t179 164t229.5 109.5t277 39.5q120 0 221 -29.5t173.5 -82t122.5 -120t79 -149.5q205 -13 389 -102q21 53 58.5 149t59 150.5t57 142t59 141.5t58 129.5t62 125t62.5 109t67 100.5t68.5 80.5t73.5 67.5l158 -70 q-117 -612 -184.5 -1109.5t-67.5 -863.5q0 -800 353 -800q177 0 261 212l196 -68q-64 -160 -171.5 -242t-255.5 -82q-111 0 -201.5 30.5t-157.5 89.5t-116 142t-79 192.5t-44 236t-14 277.5q0 58 4 177q-5 152 -61.5 269.5t-152.5 198.5q-46 -121 -90.5 -223t-99.5 -211.5 t-114 -197.5t-128 -173t-148 -147.5t-168.5 -110.5t-194 -72.5t-219.5 -24.5q-166 0 -304.5 47.5t-235 130t-164 193.5t-99.5 236.5t-32 261.5zM284 312q0 -97 17 -188t50.5 -174t86.5 -152t122 -120t161 -79t199 -28q80 0 156 20t141.5 55.5t129.5 90t117.5 115.5 t108 141.5t99 159t92 176.5t86 185.5t81.5 194.5q-134 62 -307 73q2 -20 2 -60q0 -101 -29.5 -200t-84.5 -185t-140.5 -152.5t-189.5 -99.5l-79 186q100 31 172 105t106.5 166.5t34.5 193.5v32q-103 -17 -196.5 -56.5t-171 -98.5t-132 -140.5t-76.5 -176.5l-200 61 q22 97 73 181t122 148.5t159.5 114t187 80t203.5 43.5q-12 34 -28.5 65t-38.5 59.5t-48 52t-57.5 43t-66.5 33t-76 20.5t-86 7q-108 0 -206 -36t-174 -99.5t-137 -149t-100.5 -185t-61 -207t-21.5 -215.5zM2119 744q125 -97 195 -247q53 503 225 1304h-2q-45 -74 -89 -167 t-86.5 -206t-77 -210.5t-83.5 -239.5t-82 -234z" />
<glyph unicode="B" horiz-adv-x="2051" d="M-2 1138q0 93 19.5 185t60.5 182t100.5 170.5t144 149t186 118t231.5 77.5t276 28q131 0 250.5 -24.5t223 -76t179.5 -124.5t119.5 -176.5t43.5 -226.5q0 -106 -33 -204.5t-105 -184.5t-175 -141q106 -44 189.5 -115t135.5 -157t79 -183t27 -199q0 -115 -33 -225.5 t-101 -209t-163 -172.5t-228 -117.5t-287 -43.5q-308 0 -534 94q-158 -105 -354 -105l39 295q37 9 90 9q120 0 225 -54q115 114 193 387t142 722q31 225 57 386t55 293.5t59 222.5l214 -53q-101 -286 -157 -706q110 -4 198 -20q86 42 145.5 116t86.5 160t27 182 q0 104 -34.5 192.5t-93.5 151t-138.5 106.5t-169.5 65t-186 21q-116 0 -220 -23.5t-185.5 -65t-149.5 -99t-115.5 -124t-81 -141t-49 -150.5t-15.5 -151q0 -95 26.5 -180t75.5 -150.5t125.5 -103.5t171.5 -38q46 0 96 11l37 -197q-66 -24 -142 -24q-92 0 -173.5 24 t-144 67.5t-112.5 103t-82 130.5t-49 151t-17 165zM718 -346q192 -72 420 -72q112 0 208.5 37.5t165.5 102t118 149.5t73 180.5t24 196.5q0 124 -37 237t-116.5 207t-192.5 142q-102 -30 -232 -33q-106 -826 -431 -1147z" />
<glyph unicode="C" horiz-adv-x="2237" d="M37 972q0 82 17 158t47.5 138.5t73 116t94.5 93t110.5 67.5t122 42.5t129.5 14.5q128 0 259 -61l-96 -178q-75 38 -168 38q-62 0 -120.5 -20t-108 -58.5t-87.5 -92t-59 -124t-21 -150.5q0 -120 41 -222t120 -179.5t203.5 -122t281.5 -44.5q1 138 19 283.5t51.5 287.5 t84 277.5t112.5 256t140.5 221.5t165.5 173.5t189.5 113.5t210.5 41q100 0 178 -36.5t126.5 -101t73.5 -150.5t25 -189q0 -104 -24.5 -217t-74.5 -228.5t-121 -226t-169 -210.5t-213 -180t-259 -137t-301 -79q0 -139 14 -253t44.5 -209.5t84 -158t127.5 -84.5 q-14 83 -14 170q0 86 13.5 168.5t38.5 158t64 139.5t87 111t110 73.5t132 26.5q94 0 161.5 -48t99 -125.5t31.5 -174.5q0 -76 -19.5 -153t-61.5 -151t-100.5 -135.5t-143 -107t-182.5 -64.5q90 -204 273 -247l-65 -162q-146 32 -245.5 138t-148.5 262q-97 10 -178 56 t-139.5 120t-100.5 174t-65 215.5t-29 246.5q-159 0 -296 37.5t-236 102.5t-169.5 153.5t-105 191.5t-34.5 214zM1094 409q133 25 254 83t215.5 136t174.5 174t136.5 198.5t96.5 209t58.5 206t18.5 188.5q0 147 -51 234.5t-148 87.5q-95 0 -188.5 -65.5t-171.5 -177.5 t-147 -262t-119 -318.5t-83.5 -346.5t-45.5 -347zM1508 -184q0 -124 29 -234q59 15 112 47t93.5 74.5t73.5 94t54 105.5t32 108t11 103q0 58 -15 102t-47 71.5t-78 27.5q-81 0 -142.5 -72t-92 -184t-30.5 -243z" />
<glyph unicode="D" horiz-adv-x="2151" d="M68 1081q0 157 38.5 295.5t106 244.5t159.5 190.5t200.5 138t227 82t239.5 28.5q118 0 229 -22.5t213.5 -69t191 -114.5t161.5 -164t124.5 -213t79.5 -265t28 -317q0 -170 -32 -341.5t-91 -330t-149 -296.5t-200 -240t-250.5 -160.5t-292.5 -58.5q-323 0 -567 96 q-163 -107 -368 -107l59 332q48 0 102 -12.5t91 -26.5t102 -41q145 141 241 562q-127 17 -233 69.5t-181 129.5t-127 175.5t-77 208.5t-25 227zM269 1071q0 -97 18 -188t56 -174t92 -148.5t130.5 -111t168.5 -61.5q35 177 71 428q31 225 57.5 386t55.5 293.5t59 222.5 l214 -53q-108 -304 -173 -849q-32 -257 -73 -426q56 12 106.5 37t90 59t71.5 76t53 88.5t32 96.5t11 100q0 137 -77 241l169 151q120 -150 120 -344q0 -88 -26 -174.5t-77.5 -163.5t-123.5 -138t-170.5 -101.5t-210.5 -50.5q-116 -403 -314 -609q210 -76 452 -76 q121 0 229.5 51t191.5 140.5t149.5 210t109.5 261t65.5 292t22.5 303.5q0 228 -40 413t-110 312.5t-168.5 214t-213 126t-245.5 39.5q-157 0 -299 -65t-246.5 -178.5t-166 -278t-61.5 -352.5z" />
<glyph unicode="E" horiz-adv-x="1802" d="M30 1512q0 73 27 141t74 120.5t118 83.5t154 31q123 0 213 -50.5t157 -167.5l-158 -120q-35 76 -84.5 114t-127.5 38q-86 0 -139 -58.5t-53 -141.5q0 -48 18 -95.5t59 -93t100.5 -79.5t150 -55t199.5 -21q37 0 106 5q-34 109 -34 229q0 95 21 187.5t64 174.5t103 144 t143 98.5t178 36.5q83 0 149 -26t108 -71.5t64.5 -105.5t22.5 -129.5t-21.5 -141t-68 -143t-112.5 -133.5t-161 -113.5t-208 -81.5q25 -59 62 -99q82 13 179 13h22l-22 -188h-14q-143 0 -251 62q-86 -27 -161 -74t-132 -106.5t-102 -129.5t-73.5 -146t-43.5 -154.5 t-15 -155.5q0 -87 18 -166.5t55 -147.5t89.5 -118t125.5 -78.5t160 -28.5q100 0 184 34.5t141 91t96.5 130t57.5 150.5t18 154q0 87 -22 156.5t-67.5 112t-107.5 42.5q-83 0 -138 -74.5t-55 -181.5q0 -106 53 -197l-210 -103q-63 122 -63 247q0 89 29 169.5t82.5 142.5 t134.5 98.5t178 36.5q95 0 171 -35t123.5 -95.5t72.5 -138t25 -167.5q0 -80 -20 -161t-59 -158t-101 -143.5t-139 -117t-180 -79t-219 -28.5q-130 0 -239 34t-186 93t-131 140t-80 174.5t-26 195.5q0 86 19 172.5t55.5 170.5t93 161.5t128 144t165 120t199.5 87.5 q-49 49 -77 101q-76 -7 -157 -7q-148 0 -269 27t-201 72.5t-135 106.5t-79 126.5t-24 135.5zM1030 1406q0 -105 21 -198q69 25 128 61t102 78t76.5 89t53.5 96t30.5 95.5t10.5 90.5q0 56 -17 101t-49.5 71.5t-76.5 26.5q-66 0 -120.5 -43.5t-88 -116.5t-52 -163.5 t-18.5 -187.5z" />
<glyph unicode="F" horiz-adv-x="2490" d="M9 1206q0 99 25.5 196t74.5 188t125.5 168.5t172.5 135.5t223 91t269 33q138 0 283 -19t265 -46.5t230.5 -54.5t215.5 -46.5t182 -19.5q42 0 102 5q96 128 206 152l81 -104q-64 -104 -179 -147q-99 -272 -166 -908q78 12 164 44q13 36 28 71.5t26.5 60t21 44t15.5 28.5 l5 10l125 -65q-18 -138 -136 -222q-26 -248 -26 -464h-165q0 186 60 399q-74 -21 -131 -29q-28 -212 -72.5 -388.5t-99 -303.5t-122.5 -225.5t-138 -160.5t-149.5 -101.5t-153.5 -55t-154 -15.5q-108 0 -198 24t-150.5 65t-102 96.5t-60 116t-18.5 125.5q0 75 25.5 145.5 t70.5 126t114 89.5t150 35l7 -209q-49 0 -87 -30t-58 -78t-20 -103q0 -52 19.5 -100t57.5 -89.5t105 -66t153 -24.5q56 0 105 10.5t105.5 41.5t105 81.5t98.5 135.5t90.5 199t78 277.5t64.5 364.5q-270 -36 -270 -224q0 -43 18 -105l-177 -70q-37 69 -37 147q0 71 33 136.5 t94 118t153 87t202 41.5q68 592 211 886h-51q-92 0 -201.5 14.5t-216.5 35t-220 41t-249.5 35t-267.5 14.5q-128 0 -237.5 -39t-186.5 -105t-132 -152.5t-81 -181.5t-26 -192q0 -81 18 -155.5t56 -139.5t92.5 -113t132 -76t169.5 -28t165.5 26.5t122.5 71t81 108t46 134 t14 151.5q0 50 -8 126l207 37q9 -91 9 -137q0 -105 -20 -195t-67 -171.5t-119 -139t-181.5 -91.5t-247.5 -34q-135 0 -249.5 35.5t-194.5 97.5t-136.5 145t-83.5 178.5t-27 198.5z" />
<glyph unicode="G" horiz-adv-x="2095" d="M-22 1007q0 85 23.5 166t71 151.5t113.5 123.5t156.5 83.5t193.5 30.5q110 0 200 -52l-75 -155q-84 48 -175 48q-77 0 -145 -35t-114 -93t-72 -133.5t-26 -154.5q0 -73 21 -141.5t69.5 -131.5t119 -109.5t177 -74t237.5 -27.5q53 0 79 2q-18 118 -18 236q0 126 18.5 255 t55.5 255.5t90 241.5t125.5 213t157.5 170t190.5 112.5t220.5 40.5q78 0 142 -22t109.5 -62.5t77 -96.5t46.5 -123.5t15 -144.5q0 -80 -16.5 -165.5t-48 -173.5t-80.5 -175.5t-110.5 -169.5t-141.5 -156.5t-171 -136t-201 -109t-229 -74.5q22 -100 62 -170.5t102 -110.5 t142 -40q54 0 99.5 14t80 39.5t62 59t49 76.5t38.5 86t32 93t28 93.5t29.5 91t32.5 82.5l184 -80l-97 -212q-3 -12 -10.5 -63.5t-17 -120.5t-28 -181.5t-40.5 -223.5q-25 -125 -55.5 -221.5t-76 -181t-103.5 -139t-138.5 -85.5t-179.5 -31q-81 0 -146.5 27t-106 72.5 t-61.5 101t-21 116.5q0 58 20 112.5t58 98.5t97.5 71t132.5 29l27 -202q-67 -9 -104.5 -56t-37.5 -104q0 -62 41.5 -106.5t114.5 -44.5q51 0 91.5 17.5t70 40t56 75t42.5 92t35.5 123t30 135t30.5 160.5q22 120 34 185q-125 -151 -358 -151q-86 0 -159 30t-127.5 85 t-94.5 127.5t-66 162.5q-70 -4 -105 -4q-157 0 -287.5 35t-219 95t-150.5 140t-90 168t-28 181zM1035 711q0 -102 9 -172q115 30 218.5 86t183.5 126.5t147 155.5t113.5 174t79.5 181t48 178t15 164q0 140 -48.5 225.5t-137.5 85.5q-93 0 -179.5 -52.5t-154.5 -142.5 t-124 -209.5t-93 -253.5t-57 -274t-20 -272z" />
<glyph unicode="H" horiz-adv-x="2194" d="M-147 110q0 109 28.5 216t86.5 201.5t138.5 167t191.5 114.5t238 42q101 0 182.5 -33.5t134 -91.5t80.5 -135t28 -164q0 -102 -38 -206t-113 -199l-168 129q66 86 99.5 173t33.5 164q0 111 -66 179.5t-186 68.5q-85 0 -161.5 -36t-133 -97.5t-97.5 -142t-62 -171 t-21 -181.5q0 -85 18 -162t56.5 -146t95 -119.5t139.5 -80t184 -29.5q92 0 173 31.5t145.5 84.5t121 132.5t99 167.5t80.5 197.5t65.5 213t52.5 224.5l7 34q-105 -26 -177 -78l-66 163q108 56 273 60q1 6 15.5 79t17 85.5t15.5 78.5t17 86.5t16.5 79t19 86.5t18 79t20 86 t19.5 78t22 83q-44 -16 -105 -34.5t-106.5 -32t-97.5 -31.5t-88 -38t-67.5 -46t-47 -62t-15.5 -80q0 -41 17 -70.5t48 -46t69 -24.5t86 -8l-21 -193q-92 0 -168 25t-124 68t-74 98t-26 116q0 90 55 175.5t161 144.5q52 28 125.5 55t137.5 45t148 41.5t137 41.5 q46 147 92 257l225 -36q-25 -147 -133 -241q-26 -96 -48.5 -194.5t-41.5 -198.5t-33 -180t-33.5 -194t-32.5 -185q20 -1 113.5 -7.5t141.5 -6.5q29 0 85 4q36 180 69.5 322t73.5 276t81 233t91.5 182.5t106 135.5t123 80.5t144.5 28.5q152 0 228 -91.5t76 -252.5 q0 -40 -2 -61h-223q7 63 7 103q0 49 -8 81t-23.5 47.5t-33 21t-40.5 5.5q-54 0 -104 -44t-94 -129t-84 -190.5t-75.5 -249t-66 -283t-59 -313t-50 -318t-43.5 -320.5t-36 -298t-30 -271h-265q30 160 104.5 582t112.5 618q-74 -5 -114 -5q-38 0 -113 2.5t-113 2.5l-17 -83 q-25 -132 -53.5 -241.5t-72.5 -230.5t-96 -214.5t-126.5 -181t-163.5 -145.5t-206.5 -92t-255.5 -34q-134 0 -246 36t-189.5 98t-131 145.5t-78.5 177.5t-25 196z" />
<glyph unicode="I" horiz-adv-x="1295" d="M-85 624q0 86 25.5 165.5t61 141t105 126.5t123 107t152 100t155.5 87.5t167 85.5q289 147 406 228q72 300 87 358l250 -16q-31 -144 -135 -275q-45 -205 -83 -412.5t-73 -443t-59.5 -415t-64.5 -485.5t-67 -497h-224q25 161 67.5 449t66.5 443.5t59 373t70 402.5t75 367 q-67 -48 -154 -102t-162 -96t-158 -92.5t-150 -94.5t-129.5 -98.5t-104.5 -108.5t-67 -120t-25 -137q0 -129 74.5 -207.5t188.5 -78.5q94 0 153 61t59 142q0 54 -31.5 104t-90.5 80l94 156q121 -54 183 -149.5t62 -208.5q0 -74 -28.5 -144t-81 -125.5t-135 -89t-182.5 -33.5 q-131 0 -241 59t-174 163t-64 230z" />
<glyph unicode="J" horiz-adv-x="1208" d="M-50 459q0 132 60 266.5t152 233.5q103 108 243.5 224.5t258 201t251 185.5t212.5 173q42 121 75.5 195t70.5 108l121 -76q-28 -153 -155 -305q-14 -99 -33.5 -277.5t-38 -339.5t-44.5 -360.5t-60.5 -378t-79 -352.5t-107.5 -324t-138 -255q-139 -197 -396 -197 q-125 0 -193 72t-68 187q0 58 22.5 113t64 99t107 70.5t145.5 27.5l4 -181q-97 -13 -145.5 -61.5t-48.5 -106.5q0 -49 31 -77t78 -28q48 0 91 17t77.5 47.5t70.5 77.5q61 81 110 220t80.5 296t64.5 356.5t59 383.5t65.5 396.5t84.5 377.5q-73 -65 -210 -177t-241.5 -205.5 t-174.5 -179.5q-73 -88 -120 -168.5t-72 -164t-25 -170.5q0 -53 12.5 -99t34 -80t51 -58.5t64 -37t72.5 -12.5q61 0 109 31.5t71.5 78t23.5 95.5q0 33 -10.5 61t-34.5 50.5t-60 33.5l69 140q88 -27 134.5 -102t46.5 -171q0 -64 -22 -124t-63 -110t-108 -80t-149 -30 q-75 0 -145 18t-133 56t-110 92.5t-74.5 132.5t-27.5 171z" />
<glyph unicode="K" horiz-adv-x="2097" d="M-57 112q0 111 29 219.5t88.5 204.5t141 169.5t194.5 116.5t241 43q105 0 190 -37.5t139 -102t83.5 -148.5t29.5 -181q0 -190 -111 -374l-184 105q96 162 96 313q0 130 -68 210.5t-190 80.5q-86 0 -163 -36t-134 -98t-99.5 -142.5t-64 -171.5t-21.5 -182q0 -70 13 -134.5 t38.5 -124.5t67 -109t96 -85.5t128 -56.5t159.5 -20q518 0 741 977q-32 0 -66 3l34 193q18 -4 69 -19q8 41 66.5 387.5t100.5 522.5q-47 -19 -110.5 -38.5t-113 -34t-104 -32.5t-94 -38.5t-73 -47.5t-50.5 -63.5t-17 -82.5q0 -41 17 -70.5t48 -46t69.5 -24.5t85.5 -8 l-20 -193q-92 0 -168 25.5t-124.5 68t-74.5 97.5t-26 116q0 59 23 115.5t72.5 110t120.5 94.5q69 38 171 71t221 66t184 57q45 148 85 246l204 -36q-24 -143 -131 -239q-40 -164 -69 -344t-56 -381.5t-51 -332.5q47 25 89 63.5t79 96.5t64.5 107.5t61 133.5t52 134t52.5 147 q29 83 44.5 125.5t45 118.5t49.5 117.5t53 103t61.5 96t68 76t79 62.5t88.5 35.5t103 14.5q118 0 179.5 -61t61.5 -158q0 -5 -1 -15.5t-1 -14.5h-167v11q0 48 -25.5 84t-70.5 36q-29 0 -54.5 -9.5t-49 -32.5t-42 -44.5t-39.5 -64.5t-35 -73t-35 -88.5t-32.5 -92.5 l-34.5 -102q-33 -101 -51.5 -154.5t-56.5 -151t-68 -156t-78.5 -137.5t-97 -129.5t-114 -98.5t-138.5 -75q70 -64 126 -154t93 -186.5t67.5 -204.5t53.5 -210.5t46 -201t49.5 -181t59.5 -145t81 -97.5t109 -35q42 0 77.5 9.5t62 26.5t49.5 44.5t40 59t34 73.5l177 -64 q-44 -84 -93.5 -141t-107 -89t-117 -45.5t-133.5 -13.5q-65 0 -122 19.5t-101.5 47t-85 81t-69 98.5t-58 123.5t-47 131t-39.5 147t-33 146t-31 150.5q-29 147 -46 222.5t-48.5 174.5t-65.5 156q-24 -111 -49 -202.5t-59.5 -194t-76.5 -184t-95.5 -162t-121 -139 t-148.5 -104.5t-182.5 -69.5t-217.5 -23.5q-137 0 -251 36t-192.5 98t-133 146t-79.5 178.5t-25 196.5z" />
<glyph unicode="L" horiz-adv-x="1921" d="M0 926q0 93 27.5 183t81 168t127 138t172.5 94t209 34q80 0 140.5 -15.5t125.5 -52.5l-89 -184q-78 49 -179 49q-98 0 -180.5 -37t-136.5 -98t-84 -139t-30 -162q0 -54 12 -105.5t38.5 -102t65 -94.5t94 -81.5t123.5 -64.5t155.5 -42t187.5 -15q154 0 287 39 q27 151 53 378q23 218 53.5 392.5t65 301.5t77 221t86.5 153t98 95t106.5 49.5t116.5 13.5q82 0 146.5 -35.5t105 -99t62 -149t21.5 -187.5q0 -124 -30.5 -258.5t-95 -272t-155 -260t-220.5 -227.5t-282 -170q-68 -317 -186 -530q49 -22 128.5 -61t131.5 -62.5t120 -50 t135 -39t135 -12.5q44 0 84 14t69 37t52.5 53t37.5 61t21 63l185 -49q-46 -161 -162 -255.5t-283 -94.5q-77 0 -153.5 16t-154 49t-136.5 63t-146.5 77.5t-138.5 73.5q-210 -279 -541 -279q-74 0 -135 20.5t-99 56t-58 79.5t-20 94q0 52 23 100t66.5 87.5t114.5 63.5t159 24 q207 0 396 -65q66 148 119 392q-127 -25 -259 -25q-127 0 -238.5 19t-198 52.5t-157 81t-119.5 103t-82.5 120t-49 131t-15.5 135.5zM409 -298q0 -55 45.5 -95t127.5 -40q219 0 361 238q-160 64 -319 64q-101 0 -158 -50.5t-57 -116.5zM1388 553q93 61 174.5 144t141 174.5 t106 191t75.5 199t43.5 192t14.5 174.5q0 135 -37.5 216.5t-104.5 81.5q-30 0 -55.5 -9t-56 -38.5t-57 -78t-55.5 -133t-54 -199t-50.5 -280t-47.5 -372.5q-9 -85 -37 -263z" />
<glyph unicode="M" horiz-adv-x="2598" d="M-62 136q0 110 29.5 218.5t88.5 204.5t140.5 169.5t194.5 116.5t242 43q84 0 155.5 -24t123.5 -67.5t88.5 -102t54.5 -128t18 -146.5q0 -193 -110 -374l-192 105q98 164 98 322q0 61 -16.5 112.5t-47.5 89t-79 59t-109 21.5q-83 0 -158 -36t-131.5 -97.5t-98.5 -141 t-63.5 -169.5t-21.5 -180q0 -82 18 -156t57 -140t96 -114t141 -76t186 -28q162 0 320.5 98t292.5 274t242 428.5t173 552.5q-44 389 -44 682q0 50 5 160h208q-3 -288 -36 -582q5 -34 21 -137.5t21.5 -141t18 -123.5t18.5 -133t15 -116t15.5 -126.5t11.5 -115.5 q55 121 165.5 344t149.5 306q64 508 177 1036h213q0 -128 -30 -281.5t-76.5 -299t-114.5 -318.5q-36 -360 -36 -702q0 -167 9 -318t28.5 -292t51 -254t74.5 -197.5t102.5 -130.5t131.5 -46q164 0 247 212l195 -68q-64 -159 -172 -241.5t-255 -82.5q-128 0 -229 56.5 t-169.5 159t-113.5 252.5t-65.5 329.5t-20.5 397.5q0 198 18 451q-176 -391 -261 -597v-88q0 -227 -32 -462l-225 18q0 178 82 426q-10 249 -63 729q-148 -572 -432 -884.5t-654 -312.5q-114 0 -213 25.5t-172.5 70.5t-130.5 106.5t-92.5 135t-54 154t-18.5 165.5z" />
<glyph unicode="N" horiz-adv-x="2283" d="M-59 122q0 112 29 222t88 208t140.5 173t194 119t240.5 44q84 0 155.5 -24t123.5 -67.5t88.5 -102t54.5 -128t18 -146.5q0 -193 -110 -374l-192 105q98 164 98 322q0 61 -16.5 112.5t-47.5 89t-79 59t-109 21.5q-83 0 -158 -37.5t-131.5 -101.5t-98.5 -146.5t-63.5 -175 t-21.5 -184.5q0 -79 16 -150t51.5 -134.5t87 -109.5t128 -72.5t169.5 -26.5q122 0 236 52t208 144.5t174 219.5t139 278t98.5 318.5t56.5 342.5q-153 473 -153 845l195 37q85 -281 85 -685q29 -71 89.5 -212.5t111.5 -265t93 -236.5q55 340 154.5 635t225.5 509t280 336 t313 122q217 0 337 -131l-120 -188q-34 51 -95.5 77.5t-142.5 26.5q-87 0 -177 -51t-176 -147t-166.5 -241.5t-147 -325t-118.5 -407.5t-80 -480q72 -266 72 -621v-90h-197q-22 167 -22 326q0 103 7 202q-40 110 -136 347.5t-142 358.5q-22 -139 -56 -268.5t-84 -254 t-112 -230.5t-142.5 -195.5t-173 -152.5t-206.5 -98t-239 -35q-130 0 -237.5 35.5t-182 96t-126 142.5t-75 175t-23.5 194z" />
<glyph unicode="O" horiz-adv-x="2598" d="M-16 956q0 95 27 184t82 167t131.5 136.5t182.5 92t228 33.5q27 0 49 -2t42.5 -6t40 -11t38.5 -16t39 -22l-122 -200q-74 51 -179 51q-88 0 -161 -33.5t-119.5 -90t-72 -129.5t-25.5 -154q0 -78 23.5 -153.5t75 -146.5t126 -125.5t183.5 -89t239 -38.5q3 137 24 280 t57.5 282.5t90.5 273.5t119 251.5t145.5 217t168 171t189 111t206.5 39.5q190 0 287 -141l41 57q124 -61 210.5 -197t127.5 -314.5t41 -387.5q0 -135 -17.5 -274t-51.5 -275.5t-86.5 -265.5t-118.5 -243.5t-152 -209.5t-183 -164t-215 -107.5t-246 -38.5q-103 0 -191 28 t-155 80.5t-119 124.5t-87 162t-55.5 190.5t-27.5 213.5q-165 3 -304 44.5t-234.5 108t-162.5 154.5t-98 184.5t-31 197.5zM1033 278q2 -99 15 -186.5t36 -166t58.5 -141t81 -108t106 -70t132.5 -24.5q108 0 210.5 49.5t186 137t156 206t126.5 258t93 290.5t58.5 306.5 t19.5 303.5q0 228 -46.5 413.5t-139.5 298.5q58 -114 58 -278q0 -105 -24.5 -218.5t-74 -231t-120 -229.5t-168 -213t-211 -182t-256 -137.5t-297.5 -77.5zM1033 422q123 27 239 87.5t209 142.5t174 182t139.5 207t100.5 215t63 208.5t21 185.5q0 122 -44.5 193.5 t-131.5 71.5q-88 0 -173.5 -47.5t-158.5 -131.5t-138.5 -197.5t-117 -248t-91 -279.5t-62.5 -295.5t-29 -293.5z" />
<glyph unicode="P" horiz-adv-x="1889" d="M-2 1147q0 92 19 183.5t59 180.5t97.5 169t139.5 147.5t180 116.5t223.5 76.5t265.5 27.5q132 0 247.5 -22.5t205 -63.5t163 -98t125 -125t86 -146.5t51 -160.5t16.5 -169q0 -124 -33 -245t-97.5 -228t-153.5 -190t-208.5 -133.5t-254.5 -55.5q-17 -118 -35 -212 t-45.5 -195.5t-60 -177.5t-79 -146.5t-102.5 -115.5t-130.5 -71.5t-162.5 -26.5q-131 0 -225 48t-141 135t-47 204q0 71 24 137t68.5 119t114 86.5t153.5 36.5v-188q-85 -10 -139.5 -80.5t-54.5 -153.5q0 -108 69.5 -170t170.5 -62q86 0 152 41.5t108.5 114t74 176t49 222.5 t33.5 257t27 277t30 286.5t42.5 280t64.5 262.5t96 230l208 -71q-32 -56 -58.5 -122.5t-48 -149.5t-36.5 -150.5t-31 -173.5t-24.5 -168t-24 -184.5t-22.5 -175.5q114 15 212.5 84t165.5 171t105 227.5t38 253.5q0 104 -25 199t-80.5 181t-136.5 149.5t-202.5 100.5 t-269.5 37q-109 0 -207.5 -23t-175 -64t-140 -97t-108.5 -121.5t-76.5 -138.5t-46 -147.5t-14.5 -148.5q0 -98 26.5 -185.5t75.5 -154.5t125.5 -106.5t171.5 -39.5q46 0 96 11l37 -197q-66 -24 -142 -24q-110 0 -204.5 35t-162.5 96t-116 143t-71.5 177.5t-23.5 198.5z" />
<glyph unicode="Q" horiz-adv-x="1692" d="M-20 847q0 117 20.5 236.5t62.5 235.5t102 221.5t143.5 194.5t182.5 154.5t223 102.5t260 37q123 0 226.5 -26.5t181 -75.5t136.5 -117.5t96 -155t55.5 -184t18.5 -207.5q0 -210 -66 -445t-183.5 -457.5t-291 -424t-376.5 -337.5q93 -19 193 -48t176.5 -56t163 -55.5 t160 -49t160.5 -33.5t170 -13q270 0 298 264l266 -35q-2 -91 -34 -165t-94.5 -128.5t-161 -84t-226.5 -29.5q-97 0 -217 28.5t-241.5 73t-243.5 91.5t-260.5 91t-253.5 64q-50 -28 -80.5 -43t-78 -28.5t-91.5 -13.5q-28 0 -39 2l33 212q122 -4 234 -17q177 122 335 325 t267 432t173 472.5t64 451.5q0 106 -17 197t-54 167.5t-91 130t-132 83.5t-175 30q-103 0 -197.5 -36t-169.5 -100t-138.5 -150.5t-109 -187.5t-78 -211t-48 -221t-15.5 -217q0 -121 20.5 -224t59.5 -182.5t102 -124.5t143 -45q64 0 119.5 24t96.5 66.5t70.5 99.5t44 123 t14.5 136q0 128 -47.5 246.5t-140.5 202.5l178 177q74 -67 124 -154t73.5 -180t23.5 -191q0 -101 -24.5 -198.5t-72 -181.5t-113.5 -148t-154.5 -100.5t-189.5 -36.5q-111 0 -204.5 39t-159 108.5t-111.5 163.5t-68 204t-22 231z" />
<glyph unicode="R" horiz-adv-x="1823" d="M0 1147q0 92 19 183.5t58.5 180.5t97 169t139 147.5t179.5 116.5t223.5 76.5t265.5 27.5q132 0 247.5 -22.5t205 -63.5t163 -98t125 -125t86 -146.5t51 -160.5t16.5 -169q0 -112 -28.5 -224.5t-84.5 -214t-132 -184t-176.5 -139.5t-213.5 -77q56 -40 103.5 -109.5 t82.5 -151t67.5 -176t60.5 -188.5t58.5 -185t66 -169t77 -138t98.5 -94t124 -34q103 0 162.5 52.5t101.5 160.5l177 -64q-43 -84 -93 -141t-107.5 -89t-117.5 -45.5t-134 -13.5q-86 0 -161 28.5t-132.5 78t-108.5 118t-89 147t-73.5 167t-62.5 175t-55.5 174t-53 162 t-54 140.5t-59.5 108q-18 -109 -37 -197.5t-47 -181t-61 -163.5t-78.5 -134.5t-100.5 -105t-126 -65.5t-155 -24q-131 0 -225 48t-141 135t-47 204q0 71 24 137t68.5 119t114 86.5t153.5 36.5v-188q-85 -10 -139.5 -80.5t-54.5 -153.5q0 -108 69.5 -170t170.5 -62 q86 0 152 41.5t108.5 114t74 176t49 222.5t33.5 257t27 277t30 286.5t42.5 280t64.5 262.5t96 230l208 -71q-32 -56 -58.5 -122.5t-48 -149.5t-36.5 -150.5t-31 -173.5t-24.5 -168t-24 -184.5t-22.5 -175.5q114 15 212.5 84t165.5 171t105 227.5t38 253.5q0 104 -25 199 t-80.5 181t-136.5 149.5t-202.5 100.5t-269.5 37q-109 0 -207.5 -23t-175 -64t-140 -97t-108.5 -121.5t-76.5 -138.5t-46 -147.5t-14.5 -148.5q0 -98 26.5 -185.5t75.5 -154.5t125.5 -106.5t171.5 -39.5q46 0 96 11l37 -177q-74 -16 -149 -16q-129 0 -236.5 48.5t-180 132.5 t-112.5 197.5t-40 243.5z" />
<glyph unicode="S" horiz-adv-x="2428" d="M11 254l46 182q180 -37 374 -44v30q0 115 22 226t64 212t107 186t147.5 147.5t190 97.5t229.5 35q111 0 203.5 -32t158.5 -87.5t113.5 -133t73 -165.5t33.5 -188q153 96 271 204q-7 131 -7 241q0 188 17 335.5t47 246.5t74 164t96 93.5t115 28.5q53 0 93 -21t63.5 -56.5 t35 -78t11.5 -91.5q0 -92 -21 -190t-62 -196.5t-101 -197.5t-137 -193l8 -158q0 -15 1 -44.5t1 -44.5q0 -147 -20 -286.5t-61.5 -268t-101 -240.5t-142 -204t-181.5 -157.5t-223 -101.5t-262 -36q-144 0 -269.5 40t-218.5 109t-166 164.5t-117.5 204.5t-66.5 230 q-214 0 -438 38zM631 436q0 -7 1 -22.5t1 -23.5q548 16 1002 254v44q0 70 -12.5 136.5t-37 126.5t-62.5 110.5t-86.5 87t-111.5 56.5t-134 20q-106 0 -197.5 -43.5t-157 -119.5t-112.5 -176.5t-70 -215t-23 -234.5zM652 221q19 -104 56.5 -196t97 -173t135 -139.5t177 -92 t217.5 -33.5q166 0 301.5 83t226.5 230.5t140.5 352.5t49.5 447q0 14 -1 42.5t-1 43.5q-138 -119 -278 -208q-8 -151 -53.5 -291.5t-127.5 -255t-189 -173.5l-114 181q126 74 208 191t116 258q-440 -230 -961 -267zM2246 1552q0 -158 13 -385q214 304 214 622q0 49 -22 82 t-61 33q-82 0 -113 -84.5t-31 -267.5z" />
<glyph unicode="T" horiz-adv-x="2279" d="M9 1206q0 99 25.5 196t74.5 188t125.5 168.5t172.5 135.5t223 91t269 33q138 0 283 -19t265 -46.5t230.5 -54.5t215.5 -46.5t182 -19.5q42 0 102 5q96 128 206 152l81 -104q-64 -104 -179 -147q-99 -278 -166 -922q-21 -203 -56.5 -376t-82 -304t-101 -236.5 t-117.5 -178.5t-128 -125.5t-137 -82.5t-139.5 -43t-140.5 -13q-108 0 -198 24t-150.5 65t-102 96.5t-60 116t-18.5 125.5q0 75 25.5 145.5t70.5 126t114 89.5t150 35l7 -209q-49 0 -87 -30t-58 -78t-20 -103q0 -52 19.5 -100t57.5 -89.5t105 -66t153 -24.5q51 0 96.5 9 t97 32t96.5 66t91.5 106t86.5 158.5t76.5 216.5t67 286t51.5 362q64 589 211 891h-51q-92 0 -201.5 14.5t-216.5 35t-220 41t-249.5 35t-267.5 14.5q-128 0 -237.5 -39t-186.5 -105t-132 -152.5t-81 -181.5t-26 -192q0 -81 18 -155.5t56 -139.5t92.5 -113t132 -76t169.5 -28 t165.5 26.5t122.5 71t81 108t46 134t14 151.5q0 50 -8 126l207 37q9 -91 9 -137q0 -105 -20 -195t-67 -171.5t-119 -139t-181.5 -91.5t-247.5 -34q-135 0 -249.5 35.5t-194.5 97.5t-136.5 145t-83.5 178.5t-27 198.5z" />
<glyph unicode="U" horiz-adv-x="2526" d="M41 1119q0 198 73.5 367.5t201.5 287.5t307 184.5t384 66.5q165 0 298.5 -47.5t230 -140t148.5 -237t52 -331.5q0 -116 -30.5 -269t-74.5 -303.5t-88 -300.5t-74.5 -302.5t-30.5 -268.5q0 -29 6 -57.5t18.5 -56t37.5 -45t58 -17.5q65 0 130 63t116 160t97.5 222.5 t77.5 239.5t54 224q94 595 339 1475l200 -26q-25 -160 -71 -335.5t-79 -271.5l-34 -95q-72 -242 -144 -697t-72 -700q0 -86 13.5 -151.5t45.5 -107t81 -41.5q69 0 110 84.5t44 226.5l193 -4q-21 -226 -117 -337.5t-250 -111.5q-171 0 -243 118.5t-72 380.5q0 60 2 92 q-35 -97 -73 -180t-84.5 -160t-95.5 -131t-107 -86t-117 -32q-141 0 -211 92t-70 270q0 78 17.5 180t45 208t61.5 220t67.5 227.5t61.5 219t45.5 206.5t17.5 178q0 297 -146.5 462.5t-397.5 165.5q-154 0 -290.5 -61t-233.5 -166t-153.5 -252.5t-56.5 -314.5 q0 -78 12.5 -147t35.5 -123.5t54.5 -99.5t69.5 -76.5t81 -53.5t88 -32.5t92 -10.5q181 0 303.5 127.5t160.5 363.5l214 -51q-27 -143 -88.5 -254t-149 -181.5t-196.5 -106.5t-236 -36q-143 0 -264.5 49.5t-208.5 139t-136.5 220.5t-49.5 288z" />
<glyph unicode="V" horiz-adv-x="2355" d="M-7 899q0 200 66.5 368t185.5 287t291 185t377 66q125 0 233.5 -27t193.5 -76t155.5 -120.5t122 -155t91.5 -186t66 -208.5t42.5 -226t23 -234.5t6.5 -238.5q0 -291 -37 -640q66 336 154.5 643t193 569t226.5 475t251.5 362.5t271.5 231t284 81.5q217 0 337 -131 l-140 -162q-69 103 -239 103q-126 0 -253 -83t-245.5 -237t-232 -372t-216.5 -490.5t-195 -589.5t-170 -671l-239 30q0 71 11 335.5t11 435.5q0 120 -4.5 227.5t-15.5 226.5t-29 222t-47.5 206.5t-68 186.5t-93 156.5t-121 122.5t-153.5 77.5t-189 28.5q-153 0 -283 -61 t-218.5 -167t-137.5 -252t-49 -314q0 -109 24 -199.5t65.5 -153t97.5 -106.5t118 -64.5t128 -20.5q181 0 303.5 128t160.5 363l214 -50q-28 -144 -89 -255t-148.5 -181.5t-196.5 -106t-236 -35.5q-143 0 -264.5 49.5t-208.5 139.5t-136.5 221t-49.5 287z" />
<glyph unicode="W" horiz-adv-x="2992" d="M-30 899q0 200 66.5 368t186 286.5t291.5 185t376 66.5q157 0 289 -40.5t230.5 -115.5t168 -178t110.5 -232q27 -87 45.5 -186t27.5 -204t12.5 -198.5t3.5 -203.5q0 -58 -0.5 -130.5t-1 -141t-0.5 -116.5q0 -212 21 -300q55 282 114 549t135.5 573t162.5 561t166 403 l172 -40q-108 -752 -108 -1468q0 -83 1.5 -164t4 -143t5.5 -117.5t6 -95t5.5 -68t4.5 -42.5l1 -14q59 299 119.5 556t133 501t149 439.5t166.5 360t186.5 274.5t209 170.5t234.5 60.5q216 0 337 -131l-140 -162q-70 103 -239 103q-108 0 -207.5 -63.5t-185 -172.5 t-168.5 -283.5t-153 -368t-144 -456t-136.5 -517.5t-134.5 -582l-229 30q-49 213 -49 594q0 176 10.5 382.5t25 376t29 314t24.5 225.5l10 81q-31 -79 -62 -171.5t-66.5 -221.5t-61 -220.5t-67.5 -267.5t-61 -255.5t-66.5 -292t-60.5 -269.5t-64 -289l-181 41 q-45 162 -60.5 329t-15.5 373q0 52 1 155.5t1 156.5q0 98 -3.5 184.5t-13.5 184.5t-26 181t-43.5 167.5t-63 152t-87 128t-114 100t-145 63t-178.5 23.5q-154 0 -283.5 -61t-217.5 -167t-137.5 -252t-49.5 -314q0 -109 24.5 -199.5t66 -153t97 -106.5t118 -64.5t128.5 -20.5 q180 0 303 128t160 363l213 -50q-27 -144 -88.5 -255t-149 -181.5t-196.5 -106t-236 -35.5q-142 0 -264 49.5t-209 139.5t-136 221t-49 287z" />
<glyph unicode="X" horiz-adv-x="2215" d="M13 124q0 113 29.5 222.5t88.5 207.5t141 172.5t194.5 118t240.5 43.5q104 0 189 -37t139 -101.5t83 -149t29 -180.5q0 -193 -110 -374l-193 105q99 164 99 322q0 125 -66.5 203.5t-186.5 78.5q-83 0 -158 -36.5t-131 -99.5t-98 -143.5t-63.5 -171.5t-21.5 -182 q0 -77 16 -146.5t51.5 -131.5t87 -107t128 -71.5t169.5 -26.5q79 0 152 17t136.5 46t123.5 75t110.5 98t100.5 120.5t91 136.5t84.5 153.5t78.5 163t75 173.5l-7 61q-20 142 -37.5 253.5t-37.5 222.5t-40 195t-44.5 163.5t-50.5 136t-57 104t-66.5 76t-77.5 44t-90 15.5 q-61 0 -110.5 -20t-79.5 -54t-46 -75.5t-16 -87t16 -88.5t46 -79t78.5 -60t109.5 -28l-52 -236q-79 0 -147.5 23.5t-117 64.5t-83 94.5t-51.5 114.5t-17 125q0 91 32 170t94 140.5t161.5 96.5t226.5 35q74 0 139 -18.5t118.5 -55t100 -86t84.5 -115.5t69.5 -138t58 -160 t47 -175t39.5 -189q41 96 75 173t76.5 163.5t81.5 153.5t86.5 136.5t94.5 121t102.5 98t113 75.5t124 45.5t137.5 16.5q49 0 94.5 -10t83 -28t70 -42t57.5 -52.5t43.5 -58t29.5 -61.5l-165 -98q-66 177 -257 177q-61 0 -119 -18t-108.5 -47.5t-100.5 -78t-91.5 -100.5 t-86 -125.5t-80.5 -141.5t-78 -160t-74 -168.5t-74 -179.5q6 -39 73 -543q63 -479 133 -709q106 -350 295 -428q58 -24 125 -24q56 0 97.5 14t72 43.5t51.5 65.5t42 90l208 -75q-43 -83 -98 -139t-118.5 -85.5t-126.5 -41.5t-139 -12q-357 0 -544 304q-133 215 -208 648 q-25 143 -62 422q-50 -115 -95 -207t-104 -192t-118 -175.5t-133.5 -145.5t-154.5 -115t-177.5 -72t-204.5 -27q-130 0 -238.5 35.5t-183.5 96.5t-127 143.5t-76.5 175.5t-24.5 194z" />
<glyph unicode="Y" horiz-adv-x="2384" d="M-32 1119q0 132 33 253t94 220.5t148.5 180.5t194 136.5t233 85.5t263.5 30q166 0 299 -47.5t229.5 -140t148.5 -237t52 -331.5q0 -109 -18 -247.5t-39.5 -247.5t-39.5 -233t-18 -206q0 -29 5.5 -58t18.5 -57t37.5 -45t58.5 -17q67 0 128 52.5t110 149.5t88.5 220.5 t71.5 277.5q8 56 24 170t24.5 171.5t23 156t24.5 154t24.5 134t27.5 127t29 102.5t33 90.5t36 61.5l186 -34q-7 -69 -18.5 -140t-25 -128.5t-28 -111.5t-28 -94t-24 -70.5t-17.5 -45.5l-6 -16q-17 -112 -49 -358q-72 -550 -127 -813q-126 -605 -344 -844 q-161 -175 -382 -175q-83 0 -142.5 34t-89 92t-29.5 134q0 58 22.5 112.5t64 98t107.5 70.5t146 28l4 -182q-97 -12 -146 -60.5t-49 -106.5q0 -48 31.5 -76.5t78.5 -28.5q58 0 111.5 27.5t97 75.5t84 120t73 154.5t63 186t54.5 207t47 224.5q-74 -152 -167 -239.5 t-197 -87.5q-142 0 -212 92t-70 269q0 90 20.5 215.5t45.5 233t46 242t21 239.5q0 297 -147 462.5t-397 165.5q-155 0 -291 -61t-233.5 -166t-153.5 -252.5t-56 -314.5q0 -108 24.5 -198.5t66 -153.5t97 -106.5t117.5 -64t128 -20.5q181 0 304 127.5t160 363.5l213 -51 q-27 -143 -88.5 -254t-149 -181.5t-196.5 -106.5t-236 -36q-143 0 -264.5 49.5t-208.5 139t-136 220.5t-49 288z" />
<glyph unicode="Z" horiz-adv-x="1473" d="M37 1184q0 74 13 149.5t38 149t64 142t89 129.5t115.5 111.5t140 87t166 56.5t190.5 20q173 0 310 -53.5t223 -147t131 -216.5t45 -266t-45 -292t-131.5 -293.5t-223.5 -279t-311 -236.5q86 -45 143.5 -116t83 -152t25.5 -172q0 -63 -12.5 -127t-37.5 -123.5t-59 -113.5 t-79.5 -99t-97.5 -78t-114 -51t-127 -18q-73 0 -131 24.5t-94.5 66.5t-55.5 97t-19 117q0 123 68.5 244t194.5 199l105 -182q-75 -50 -124.5 -105t-70 -103t-20.5 -94q0 -65 42 -107t105 -42q61 0 115 28t93 75.5t67.5 110t42.5 133.5t14 144q0 124 -42 228t-125 157 q-52 -26 -77.5 -38t-72 -25t-88.5 -13q-28 0 -39 2l31 212h10q109 0 211 -26q120 71 221.5 167.5t173.5 203t122.5 223t75 231t24.5 223.5q0 121 -30.5 223.5t-88.5 180t-150.5 121.5t-210.5 44q-95 0 -180.5 -33.5t-150.5 -92t-117.5 -135t-86 -164t-51 -178t-17.5 -176.5 q0 -88 17.5 -163t52 -133t90 -91t126.5 -33q79 0 144 47.5t99.5 121.5t34.5 154q0 92 -48.5 169t-146.5 116l136 192q71 -27 123.5 -92.5t78 -150.5t25.5 -179q0 -74 -16.5 -144.5t-52 -134t-86.5 -111t-125.5 -75.5t-162.5 -28q-99 0 -181.5 31.5t-141 85.5t-99.5 128 t-60.5 159.5t-19.5 178.5z" />
<glyph unicode="[" horiz-adv-x="418" d="M-53 -223q56 256 112 557t95.5 548t71 457.5t47.5 328.5l16 118q100 -24 195 -24q117 0 212 37l24 -134q-75 -45 -188 -45q-64 0 -140 15q-20 -162 -46 -343.5t-52.5 -341t-54 -315t-50.5 -278t-41.5 -217.5t-29.5 -146l-10 -51q64 9 96 9q104 0 205 -39l-46 -145 q-86 35 -201 35q-88 0 -215 -26z" />
<glyph unicode="\" horiz-adv-x="364" d="M78 1365q0 81 1.5 154.5t2.5 106.5l1 33l142 -7q-4 -108 -4 -287q0 -717 75 -1358l-136 -18q-82 642 -82 1376z" />
<glyph unicode="]" horiz-adv-x="453" d="M-326 -99q76 46 186 46q66 0 142 -15q43 354 114 777t121 669l50 246q-44 -9 -97 -9q-103 0 -203 39l45 145q92 -37 198 -37q80 0 217 27q-56 -256 -111.5 -557t-95.5 -548t-71.5 -457.5t-47.5 -328.5l-16 -119q-105 26 -195 26q-115 0 -210 -37z" />
<glyph unicode="^" horiz-adv-x="529" d="M13 1160q41 29 77.5 57.5t62.5 51t48 42.5t36 34.5t24 25.5t15 16l4 5l94 -11q42 -64 79 -135t54 -111l16 -39l-140 -66q-1 4 -2 11t-7.5 30.5t-15 49.5t-24.5 66t-36 82q-3 -5 -9 -14t-26 -35t-41 -51t-53 -57t-64 -57z" />
<glyph unicode="_" horiz-adv-x="387" d="M-20 -175l20 120h411l-21 -120h-410z" />
<glyph unicode="`" horiz-adv-x="398" d="M37 1381l142 99q44 -95 98 -174t95 -124l-83 -74q-6 3 -16 10.5t-40 32.5t-59 54t-67.5 77t-69.5 99z" />
<glyph unicode="a" horiz-adv-x="795" d="M-37 269q0 96 19.5 206.5t56.5 215t84.5 189.5t109 136.5t124.5 51.5q127 0 150 -153l25 129h164q-92 -407 -145 -780q-6 -32 -6 -60q0 -51 19 -51q9 0 24 13.5t38 44.5t48.5 74.5t58 112t63.5 150.5q13 0 38.5 -11.5t25.5 -20.5q-104 -273 -190.5 -400t-166.5 -127 q-115 0 -115 224v26q-99 -261 -266 -261q-80 0 -119.5 79t-39.5 212zM156 291q0 -119 48 -119q50 0 106.5 102.5t93 241t36.5 243.5q0 145 -70 145q-35 0 -74.5 -66.5t-69.5 -161.5t-50 -201.5t-20 -183.5z" />
<glyph unicode="b" horiz-adv-x="729" d="M-9 376q0 194 57 500q81 442 121 593q69 255 165 326q46 35 104 35q68 0 101.5 -35.5t33.5 -99.5q0 -74 -41 -177.5t-116 -222t-175 -238.5l-7 -39l-9 -44q79 79 171 79q61 0 104 -28.5t67.5 -83t36 -125t11.5 -162.5q0 -149 -62 -317q114 51 176 211q7 0 22.5 -5 t29 -12.5t13.5 -14.5q-40 -106 -118 -180.5t-169 -101.5q-61 -110 -135.5 -177.5t-150.5 -67.5q-63 0 -108 27t-71.5 79t-38.5 121.5t-12 159.5zM158 381q0 -54 3 -92t10 -69t20.5 -46.5t33.5 -15.5q55 0 103 76q-115 27 -170 147zM179 619q0 -69 19 -130.5t63 -108.5 t106 -61q31 82 48.5 184t17.5 197q0 97 -21.5 150.5t-65.5 53.5q-50 0 -88.5 -41.5t-58.5 -105.5t-20 -138zM278 1225q153 223 190 406q0 3 0.5 6.5l1 7t0.5 5.5q0 14 -6 22.5t-15 8.5q-6 0 -13.5 -5t-23.5 -31t-34 -71t-44.5 -135.5t-55.5 -213.5z" />
<glyph unicode="c" horiz-adv-x="666" d="M-13 379q0 94 18 191.5t54.5 186.5t85.5 158.5t115.5 111t140.5 41.5q93 0 138.5 -65.5t45.5 -172.5q0 -148 -75 -309l-147 78q34 58 54.5 127t20.5 121q0 79 -46 79q-57 0 -109.5 -77t-82.5 -190.5t-30 -222.5q0 -76 16 -133t53.5 -94t93.5 -37q85 0 173 96t162 280 q12 0 37.5 -11.5t25.5 -20.5q-16 -43 -35.5 -87.5t-48.5 -99t-60 -102.5t-71 -94.5t-81.5 -80t-91.5 -54t-100 -20.5q-65 0 -115 31.5t-80.5 87t-45.5 127t-15 155.5z" />
<glyph unicode="d" horiz-adv-x="814" d="M-35 269q0 97 19.5 207t56 214.5t84 189.5t108.5 136.5t124 51.5q127 0 150 -153l161 890h181q-7 -149 -62.5 -457.5t-127.5 -588.5q-63 -352 -63 -466q0 -66 23 -66q71 0 195 321q7 0 22.5 -5t28.5 -12.5t13 -14.5q-102 -267 -197.5 -397t-177.5 -130q-115 0 -115 224 v26q-99 -261 -264 -261q-54 0 -90.5 39t-52.5 103t-16 149zM158 291q0 -119 46 -119q50 0 106.5 102.5t93 241t36.5 243.5q0 145 -70 145q-47 0 -98 -110.5t-82.5 -254.5t-31.5 -248z" />
<glyph unicode="e" horiz-adv-x="655" d="M-16 376q0 94 20 192t58 187t89 159.5t119.5 112t142.5 41.5q83 0 127.5 -52.5t44.5 -135.5q0 -49 -16 -102t-50 -105t-81 -96t-115 -77t-146 -45v-35q0 -72 13.5 -125.5t47 -88t83.5 -34.5q100 0 184 97.5t151 278.5q13 0 38.5 -11.5t25.5 -20.5q-23 -62 -43 -109.5 t-44 -100.5t-47 -92.5t-50.5 -79t-56.5 -66t-62 -48.5t-71 -32t-79 -10q-59 0 -106.5 20.5t-80 57t-54.5 87t-32 109t-10 124.5zM184 541q61 30 110.5 74.5t78 90t43.5 88t15 75.5q0 26 -10 41.5t-27 15.5q-45 0 -89.5 -57t-75.5 -144t-45 -184z" />
<glyph unicode="f" horiz-adv-x="488" d="M-94 -218q0 235 64 642t149 765t148 499q31 69 81 105.5t103 36.5q64 0 109.5 -48.5t45.5 -131.5q0 -99 -17.5 -203.5t-45 -195.5t-67 -185.5t-77.5 -169t-82 -148.5t-76 -121.5t-64 -92.5q-36 -188 -58 -339q133 19 221.5 107t147.5 246q13 0 39 -11.5t26 -20.5 q-31 -80 -64 -142.5t-76.5 -118t-98 -94.5t-119.5 -60q66 -69 98.5 -155t32.5 -173q0 -82 -26 -151.5t-74 -111.5t-107 -42q-21 0 -39.5 2.5t-38.5 9t-36 17.5t-32 27.5t-27.5 40.5t-21 55t-14 72t-4.5 90zM81 -241q0 -177 55 -177q35 0 56 45t21 112q0 78 -28.5 157 t-85.5 136q-18 -168 -18 -273zM223 768q36 68 72 143.5t74 170.5t67 185.5t47.5 187t19.5 176.5q0 16 -3 27.5t-8.5 17t-12.5 5.5q-32 0 -105 -267.5t-151 -645.5z" />
<glyph unicode="g" horiz-adv-x="768" d="M-37 269q0 96 19.5 206.5t56.5 215t84.5 189.5t109 136.5t124.5 51.5q103 0 127 -120l21 98h187q-6 -21 -14.5 -60t-20 -99t-22.5 -117.5t-27 -145t-27 -150t-29.5 -164t-28.5 -157.5q168 192 245 395q17 0 40.5 -10t23.5 -19v-3q-108 -279 -337 -516l-50 -296 q-15 -89 -39 -160.5t-57 -126.5t-78 -85t-99 -30q-80 0 -128 46.5t-48 135.5q0 31 8.5 63.5t20.5 60t37 62t44 58t56 62t59.5 60l67.5 64.5q16 15 23 22q6 29 12 67t12.5 77.5t11.5 68.5q-95 -171 -226 -171q-80 0 -119.5 79t-39.5 212zM124 -514q0 -31 13.5 -46.5 t32.5 -15.5q28 0 44 29.5t27 87.5l46 246q-53 -55 -86 -99t-55 -96.5t-22 -105.5zM156 291q0 -119 48 -119q50 0 106.5 102.5t93 241t36.5 243.5q0 145 -70 145q-35 0 -74.5 -66.5t-69.5 -161.5t-50 -201.5t-20 -183.5z" />
<glyph unicode="h" horiz-adv-x="775" d="M-92 62q0 80 18 172.5t36 144.5l18 52q48 292 87 503t91 432.5t96 321.5q21 47 54 80t68 47.5t71 14.5q159 0 159 -144q0 -67 -32.5 -158.5t-84.5 -184.5t-109 -177.5t-113 -154.5q-3 -18 -7.5 -38.5t-10 -46t-8.5 -40.5q58 88 127 136.5t142 48.5q62 0 97 -41t35 -122 q0 -71 -23.5 -168.5t-51.5 -178t-51 -172.5t-23 -155q0 -78 46 -78q87 0 236 392q12 0 38.5 -11.5t26.5 -20.5q-28 -73 -44 -112.5t-44.5 -104.5t-49.5 -101.5t-52.5 -82t-60.5 -69t-66 -40.5t-76 -17q-66 0 -111 52t-45 152q0 83 23.5 185t51.5 180t51 163t23 139 q0 21 -9 33.5t-28 12.5q-31 0 -61.5 -28t-64.5 -95t-64.5 -168.5t-61 -258.5t-55.5 -356h-186q-2 20 -2 62zM309 1204q36 71 55.5 110.5t51.5 111t47.5 127.5t15.5 97q0 14 -5.5 22.5t-14.5 8.5q-14 0 -27 -20t-30.5 -76.5t-39 -144.5t-53.5 -236z" />
<glyph unicode="i" horiz-adv-x="437" d="M-32 261q0 72 9.5 157.5t29.5 187t33 160.5t39.5 165.5t28.5 114.5h194q-9 -40 -26 -114.5t-25 -111.5t-22 -100t-21 -99t-17 -87.5t-15.5 -86t-10.5 -75t-7 -74t-2 -64.5q0 -78 46 -78q86 0 236 392q11 0 38 -10.5t27 -18.5v-3q-10 -25 -29 -75q-25 -67 -38 -100.5 t-38 -90.5t-42.5 -87t-44.5 -69t-52 -58t-57.5 -33t-68.5 -14q-165 0 -165 272zM136 1296q0 68 44.5 124.5t115.5 56.5q54 0 80.5 -34t26.5 -86q0 -42 -18.5 -82t-56 -68t-85.5 -28q-53 0 -80 33.5t-27 83.5z" />
<glyph unicode="j" horiz-adv-x="458" d="M-315 -516q0 31 9 63.5t20.5 60t36.5 62t44 58t56.5 62t60 60l67.5 64.5q16 15 23 22q40 226 125 738l-63 -158q-64 12 -64 29v3q9 23 84 209.5t111 288.5h188q-25 -90 -170 -893q170 194 246 395q17 0 40.5 -10t23.5 -19v-3q-108 -279 -337 -516l-50 -296 q-21 -120 -56 -207.5t-91 -141t-127 -53.5q-52 0 -91.5 19.5t-62.5 61t-23 101.5zM-186 -514q0 -31 13.5 -46.5t32.5 -15.5q14 0 26 11t22 33.5t17.5 47.5t15 62t12.5 66.5t12.5 72.5t12.5 70q-82 -87 -123 -156t-41 -145zM204 1263q0 68 45 125t116 57q54 0 81 -33.5 t27 -85.5q0 -68 -44.5 -123.5t-116.5 -55.5q-52 0 -80 33.5t-28 82.5z" />
<glyph unicode="k" horiz-adv-x="712" d="M-92 62q0 80 18 172.5t36 144.5l18 52q48 292 87 503t91 432.5t96 321.5q21 47 54 80t68 47.5t71 14.5q159 0 159 -144q0 -67 -32.5 -158.5t-84.5 -184.5t-109 -177.5t-113 -154.5l-37 -190q57 118 124 182.5t141 64.5q46 0 77 -20t45 -54t14 -81q0 -77 -36 -167 t-104.5 -174.5t-153.5 -131.5q16 -24 29 -56t20 -60t14.5 -56.5t14.5 -49t18 -33.5t26 -13q46 0 115 95.5t139 280.5q13 0 38.5 -11.5t25.5 -20.5q-20 -53 -33.5 -87t-34.5 -83.5t-36.5 -82.5t-37.5 -73.5t-40.5 -67t-41.5 -54.5t-45 -43.5t-47.5 -25.5t-51.5 -10 q-45 0 -78.5 21t-53 51.5t-35 77t-22 86t-16 90t-16.5 77.5h-35q-45 -293 -57 -392h-186q-2 20 -2 62zM177 525q32 0 73 -13q37 30 74.5 76.5t66.5 94.5t47.5 95.5t18.5 79.5q0 40 -28 46h-11q-98 0 -230 -308zM309 1204q131 246 168 427q0 3 0.5 6.5l1 7t0.5 5.5 q0 14 -5.5 22.5t-14.5 8.5q-14 0 -27 -20t-30.5 -76.5t-39 -144.5t-53.5 -236z" />
<glyph unicode="l" horiz-adv-x="517" d="M-9 351q0 235 73 649q38 211 84 372.5t95 261.5t100 150.5t102 50.5q154 0 154 -213q0 -151 -69 -370q-44 -139 -110.5 -273.5t-120.5 -216t-109 -147.5q-18 -158 -18 -262q0 -110 22.5 -156t64.5 -46q106 0 260 397q9 0 31.5 -11t22.5 -18v-3q-105 -286 -193 -412 t-196 -126q-101 0 -147 94t-46 279zM211 759q47 87 93 187.5t91 219.5t73 242t29 223q0 23 -6.5 36.5t-15.5 13.5q-30 0 -80.5 -141t-101 -355.5t-82.5 -425.5z" />
<glyph unicode="m" horiz-adv-x="1171" d="M-114 0q2 23 7 62.5t26.5 140.5t50.5 178q67 377 113 665h197l-30 -172q54 92 117 144.5t130 52.5q64 0 95.5 -44t31.5 -114q0 -17 -5 -57q41 67 86.5 114.5t96.5 74t104 26.5q62 0 97.5 -41t35.5 -122q0 -71 -23 -168.5t-51 -178t-51.5 -172.5t-23.5 -155q0 -78 46 -78 q87 0 237 392q7 0 22 -5t28 -12.5t13 -14.5q-28 -74 -43.5 -112.5t-44.5 -104.5t-49.5 -101.5t-52 -81.5t-60 -69.5t-65.5 -40.5t-77 -17q-65 0 -110.5 52.5t-45.5 151.5q0 83 23.5 185t51.5 180t51.5 163t23.5 139q0 21 -9.5 33.5t-27.5 12.5q-23 0 -51 -23.5t-60 -72.5 t-66 -140t-62 -211q-54 -293 -94 -459h-209q161 741 161 842q0 48 -30 48q-38 0 -79 -57t-82 -174t-71 -276l-73 -383h-199z" />
<glyph unicode="n" horiz-adv-x="781" d="M-114 0q2 23 7 62.5t26.5 140.5t50.5 178q67 377 113 665h197l-26 -153q28 41 59 74t64 56t68.5 35.5t70.5 12.5q63 0 98.5 -41t35.5 -122q0 -71 -23.5 -168.5t-52 -178t-51.5 -172.5t-23 -155q0 -78 45 -78q87 0 237 392q12 0 38.5 -11.5t26.5 -20.5 q-29 -74 -44.5 -112.5t-44.5 -104.5t-49.5 -101.5t-52 -81.5t-60 -69.5t-65.5 -40.5t-76 -17q-66 0 -111.5 52.5t-45.5 151.5q0 83 23 185t51 180t51.5 163t23.5 139q0 46 -36 46q-23 0 -50.5 -23t-59 -70.5t-64.5 -135t-60 -202.5l-92 -475h-199z" />
<glyph unicode="o" horiz-adv-x="751" d="M-18 351q0 200 71 408l83 -21q13 92 48 164.5t96.5 119t139.5 46.5q74 0 128 -53t80 -138.5t26 -191.5q0 -136 -58 -330q101 48 157 193q12 0 37.5 -11.5t25.5 -20.5q-25 -67 -67 -122.5t-92 -93t-106 -57.5q-60 -128 -147 -196.5t-196 -68.5q-76 0 -128 50.5t-75 132.5 t-23 190zM144 381q0 -51 7 -93.5t19 -72.5t29.5 -47t39.5 -17q11 0 17 2q39 12 86 88q-70 26 -117.5 89t-73.5 149q-7 -52 -7 -98zM250 610q0 -65 13 -119t45 -96.5t82 -57.5q25 61 44 131.5t30 141.5t11 131q0 54 -9 93.5t-29.5 63.5t-51.5 24q-2 0 -7.5 -1t-7.5 -1 q-49 -10 -84.5 -104t-35.5 -206z" />
<glyph unicode="p" horiz-adv-x="781" d="M-199 -663q0 123 27.5 276.5t66.5 290.5q158 970 173 1142h173l-18 -124q95 146 201 146q63 0 105 -41.5t60.5 -109.5t18.5 -160q0 -170 -61 -362.5t-157 -316.5q58 14 109 46t90 74t75.5 101t63 117t54.5 132q12 0 38.5 -11.5t26.5 -20.5q-25 -64 -48 -117t-53.5 -110.5 t-62 -101.5t-71.5 -84.5t-83.5 -67t-97 -42t-112.5 -15.5q-50 0 -93 13t-79.5 42.5t-59.5 74.5l-133 -793h-153v22zM-190 -628q0 1 4 32q-4 -27 -4 -32zM-181 -567q0 6 4 28q-4 -22 -4 -28zM127 315q0 -143 79 -143q50 0 98.5 103.5t76.5 240t28 243.5q0 145 -51.5 145 t-103 -91t-94.5 -260l-31 -196q-2 -13 -2 -42z" />
<glyph unicode="q" horiz-adv-x="827" d="M-37 269q0 96 19.5 206.5t56.5 215t84.5 189.5t109 136.5t124.5 51.5q114 0 131 -153q5 26 16 70.5t15 60.5h194q-121 -520 -194 -927q109 62 174 156t135 273q12 0 38.5 -11.5t26.5 -20.5q-35 -90 -67.5 -155t-76.5 -128t-101 -112t-129 -86q90 -69 133.5 -169.5 t43.5 -211.5q0 -92 -28 -171.5t-79.5 -129t-113.5 -49.5q-35 0 -61.5 7t-53 27.5t-44 54.5t-28 91.5t-10.5 134.5q0 165 55 505q-90 -146 -211 -146q-80 0 -119.5 79t-39.5 212zM156 291q0 -119 48 -119q50 0 106.5 102.5t93 241t36.5 243.5q0 145 -70 145 q-35 0 -74.5 -66.5t-69.5 -161.5t-50 -201.5t-20 -183.5zM445 -442q0 -138 46 -138q39 0 65 64.5t26 154.5q0 83 -23.5 162t-72.5 135q-41 -247 -41 -378z" />
<glyph unicode="r" horiz-adv-x="549" d="M0 545v3q56 148 94 335q-41 93 -41 193q0 115 52 284l173 -51q-13 -212 -65 -381q2 -1 23 -22.5t25 -26t22.5 -25t24 -28.5t20.5 -27.5t20.5 -31t15.5 -31t13.5 -35t7 -34.5t3.5 -39q0 -49 -16.5 -115t-36.5 -118.5t-36.5 -105t-16.5 -78.5q0 -49 37 -49q39 0 99 97 t133 289q4 0 14.5 -3t21.5 -7t19.5 -9.5t8.5 -9.5v-3q-10 -25 -29 -75q-25 -67 -38 -100.5t-38 -90.5t-42.5 -87t-44.5 -69t-52 -58t-57.5 -33t-68.5 -14q-149 0 -149 171q0 50 16.5 113.5t36.5 113.5t36.5 107t16.5 95q0 85 -46 170l-92 -243q-64 12 -64 29z" />
<glyph unicode="s" horiz-adv-x="575" d="M-68 133l139 101q22 -38 45.5 -53.5t55.5 -15.5q89 0 89 124q0 64 -15 128.5t-53 172t-49 141.5q-11 -34 -24.5 -70t-30.5 -80t-25 -65q-64 12 -64 29v3q13 34 31.5 80.5t44 109.5t40.5 102q-26 117 -26 220q0 146 52 305l156 -30q-27 -185 -68 -335q1 -39 14.5 -85 t34 -91t45 -94t49 -100.5t44.5 -102t32 -106.5t12 -109v-10q52 83 115 246q12 0 38 -11.5t26 -20.5q-26 -65 -47.5 -116.5t-51 -110t-58 -101.5t-65 -84.5t-75 -68t-86 -42t-99.5 -15.5q-53 0 -99 19t-78.5 54t-48.5 82z" />
<glyph unicode="t" horiz-adv-x="416" d="M-39 939l17 107q3 0 39 -1t64 -1q61 319 112 543h162q-17 -283 -73 -545q50 0 90 4l-21 -107q-9 -3 -95 -3q-34 -151 -70 -271q-35 -244 -35 -363q0 -146 46 -146q22 0 50 34.5t59 97t56.5 122.5t55.5 138q11 0 37.5 -12t26.5 -20q-29 -77 -49 -128.5t-43 -108t-41 -92 t-39.5 -72t-41 -57.5t-42.5 -38t-47.5 -24t-51.5 -7q-143 0 -143 318q0 286 78 629q-92 0 -101 3z" />
<glyph unicode="u" horiz-adv-x="799" d="M-35 252q0 113 37 315q26 132 51.5 252t38.5 173l13 54h195q-46 -191 -103 -484q-46 -229 -46 -328q0 -78 46 -78q29 0 74 95t80 240l14 76q33 182 105 479h195q-9 -40 -26 -114.5t-25 -111.5t-22 -100t-21 -99t-17.5 -87.5t-15.5 -86t-10 -75t-7 -74t-2 -64.5 q0 -78 45 -78q87 0 237 392q4 0 14.5 -3t21.5 -7t19.5 -9.5t8.5 -9.5v-3q-10 -25 -29 -75q-22 -59 -33.5 -88t-33 -80.5t-36 -79t-37 -66t-43 -58.5t-45.5 -41.5t-53.5 -30t-59.5 -8.5q-138 0 -160 188q-85 -188 -206 -188q-164 0 -164 263z" />
<glyph unicode="v" horiz-adv-x="747" d="M0 548l53 137q-3 44 -3 127q0 149 12 234h163q5 -18 5 -39q0 -31 -7 -65.5t-20.5 -74.5t-37.5 -103q13 -252 41 -548q66 96 120 206q-46 119 -46 276q0 125 28 238.5t84 189.5t129 76q70 0 114 -53.5t44 -148.5q0 -147 -56.5 -321t-149.5 -340q31 -15 63 -15 q73 0 122.5 58t89.5 166q12 0 38 -11.5t26 -20.5q-45 -124 -114 -193t-175 -69q-49 0 -87 24q-103 -174 -215 -278h-125q-32 452 -34 516q-17 3 -39.5 12t-22.5 20zM363 674q0 -68 11 -144q68 158 106.5 311t38.5 221q0 39 -26 39q-34 0 -64.5 -63.5t-48 -162t-17.5 -201.5z " />
<glyph unicode="w" horiz-adv-x="1146" d="M-26 278q0 30 2 66t4.5 66t8.5 76.5t9.5 73t13 81.5t13 77t15.5 85t15 78.5t16.5 85t15.5 79.5h195q-5 -28 -16 -83q-39 -206 -57.5 -309.5t-37 -229t-18.5 -188.5q0 -80 28 -80q41 0 96.5 108t96.5 300q21 176 83 482h193q-38 -200 -58 -311t-38 -244.5t-18 -208.5 q0 -129 49 -129q32 0 75.5 61t89.5 165q-54 116 -54 291q0 129 27.5 250t80 201.5t116.5 80.5q133 0 133 -202q0 -88 -21 -201.5t-60 -235.5t-89 -228q26 -11 53 -11q38 0 69.5 16t57 47t45.5 69.5t39 91.5q12 0 38 -11.5t26 -20.5q-45 -124 -114.5 -193t-174.5 -69 q-38 0 -71 15q-70 -129 -149.5 -204.5t-160.5 -75.5q-166 0 -180 272q-49 -126 -106.5 -199t-118.5 -73q-162 0 -162 289zM775 652q0 -95 17 -170q35 96 62.5 195t45 200t17.5 178q0 46 -34 46q-24 0 -49.5 -67t-42 -173t-16.5 -209z" />
<glyph unicode="x" horiz-adv-x="891" d="M-20 124q0 97 64 215l126 -52q-37 -76 -37 -122q0 -41 29 -41q41 0 85 75.5t97 216.5q-2 42 -2.5 99t-1 98t-1.5 87.5t-4.5 78.5t-10 59.5t-17.5 41t-27 13.5q-19 0 -38 -16t-44.5 -57t-58 -115.5t-75.5 -188.5q-64 12 -64 29v3q34 88 61 151t56 125.5t54.5 103.5 t53 73.5t55.5 47.5t57 15q35 0 62.5 -13.5t46 -40.5t32 -60t21.5 -78.5t12.5 -89.5t7.5 -99q15 48 29 86t33.5 84.5t41.5 80.5t48 64t57.5 46t65.5 16q54 0 105 -40l-69 -173q-41 18 -71 18q-76 0 -129 -87.5t-108 -282.5q0 -54 1 -92t4.5 -81.5t10.5 -72t17.5 -53.5 t26.5 -37t37 -12q64 0 130 97.5t144 303.5q12 0 37.5 -11.5t25.5 -20.5q-106 -279 -209.5 -405.5t-207.5 -126.5q-152 0 -184 272q-27 -62 -53.5 -109.5t-57 -87t-64.5 -60.5t-70 -21q-130 0 -130 146z" />
<glyph unicode="y" horiz-adv-x="714" d="M-57 -516q0 31 9 64t20.5 60.5t36.5 62t44.5 58.5t57 62.5t60 60.5t68.5 65q13 13 20 19l28 154q-72 -101 -158 -101q-164 0 -164 263q0 113 37 315q26 132 51.5 252t38.5 173l13 54h195q-46 -191 -103 -484q-46 -229 -46 -328q0 -78 46 -78q32 0 65 69t61.5 186 t50.5 226.5t45 237.5t32 171h189q-6 -18 -13.5 -53t-16 -76.5t-20 -102t-21.5 -114.5t-24 -131.5t-24 -135t-25.5 -142.5t-25.5 -138q168 192 246 395q16 0 40 -10t24 -19v-3q-109 -279 -338 -516l-50 -296q-15 -89 -39 -160.5t-57 -126.5t-78.5 -85t-98.5 -30 q-80 0 -128 46.5t-48 135.5zM71 -514q0 -31 13.5 -46.5t31.5 -15.5q28 0 44.5 29.5t27.5 87.5l46 246q-81 -85 -122 -155t-41 -146z" />
<glyph unicode="z" horiz-adv-x="669" d="M-59 -536q0 48 14.5 96.5t35 87t57 84.5t65 76.5t75.5 77.5q-13 61 -41 105q-38 -11 -73 -11q-38 0 -65 9l7 94q53 7 74 7q23 0 34 -3q49 62 97 195t76.5 272.5t28.5 231.5q0 102 -57 102q-17 0 -31.5 -6.5t-28.5 -25t-24.5 -36.5t-26 -55.5t-26.5 -66t-32 -85.5t-36 -97 q-64 12 -64 29v3q16 43 34 97t30.5 94t28.5 85.5t30 77.5t33.5 63t40 50t48 30.5t60.5 11.5q39 0 72 -11t58 -32t43.5 -50t30 -65t17.5 -77t6 -86q0 -122 -35.5 -255.5t-101.5 -251t-147 -183.5q33 -22 57 -46q55 57 99.5 108.5t94.5 119t93 148.5t78 172q6 0 16.5 -2.5 t21 -6t18.5 -8.5t8 -10q-36 -92 -81.5 -175.5t-100.5 -158t-99 -127t-107 -119.5q48 -92 48 -212q0 -78 -21.5 -153t-60 -135t-99 -96.5t-132.5 -36.5q-42 0 -74 19.5t-49 55t-17 81.5zM44 -543q0 -56 43 -56q34 0 62 49t42.5 124t14.5 157q0 9 -1 26.5t-1 26.5 q-48 -53 -83.5 -110t-56 -113.5t-20.5 -103.5z" />
<glyph unicode="{" horiz-adv-x="383" d="M-2 -26q0 66 22.5 145.5t55 152t65 141.5t55 134t22.5 109q0 14 -5 53q-44 -9 -114 -9l28 158q66 0 112 -14q28 55 28 163q0 54 -11 184t-11 197q0 47 3.5 86.5t12 79.5t23 72t37 60t52.5 46.5t72 29.5t94 11q31 0 46 -9l-55 -175q-20 7 -39 7q-31 -1 -52.5 -15 t-32.5 -40.5t-16 -58.5t-5 -76q0 -49 9 -171t9 -187q0 -213 -66 -282q11 -34 11 -66q0 -44 -12 -99.5t-31.5 -111t-43.5 -113t-47.5 -112t-43 -102.5t-31.5 -90t-12 -70t13 -42.5t44 -14.5q20 0 43 7l21 -170q-14 -7 -58 -7q-53 0 -91.5 16t-60 45t-31 63t-9.5 75z" />
<glyph unicode="|" horiz-adv-x="449" d="M16 0q49 282 152.5 838t148.5 816h121q-147 -870 -302 -1654h-120z" />
<glyph unicode="}" horiz-adv-x="446" d="M-39 -216l55 175q20 -7 39 -7q31 0 52 13.5t31.5 41t15 59.5t4.5 76q0 49 -8 170.5t-8 184.5q0 108 15.5 177t50.5 108q-11 22 -11 67q0 60 23 142t56 160t65.5 152.5t55.5 140t23 102.5q0 58 -57 58q-16 0 -44 -8l-21 170q13 7 57 7q53 0 91.5 -16.5t60 -45t31.5 -63 t10 -74.5q0 -66 -23 -145.5t-55 -152t-64.5 -141.5t-55 -133.5t-22.5 -108.5q0 -40 2 -53q41 5 117 9l-27 -159q-63 0 -115 14q-25 -47 -25 -161q0 -55 9 -187.5t9 -199.5q0 -66 -7 -118.5t-26 -103.5t-50.5 -84.5t-84.5 -54t-123 -20.5q-31 0 -46 9z" />
<glyph unicode="~" horiz-adv-x="893" d="M-46 777q58 76 144.5 106t199.5 30q72 0 200.5 -13.5t175.5 -13.5q93 0 143 19t94 58l162 -208q-103 -131 -283 -131q-67 0 -157 23.5t-178.5 47t-152.5 23.5q-42 0 -77 -8.5t-69.5 -30t-65.5 -55.5z" />
<glyph unicode="&#xa1;" horiz-adv-x="577" d="M7 55l211 -55q101 316 175 602t150 661l-127 22q-93 -356 -187 -638t-222 -592zM405 1493q0 68 45.5 124.5t116.5 56.5q54 0 80.5 -33.5t26.5 -84.5q0 -68 -44.5 -124t-115.5 -56q-18 0 -33.5 4.5t-27.5 12.5t-21 18.5t-15 23.5t-9 27.5t-3 30.5z" />
<glyph unicode="&#xa2;" horiz-adv-x="527" d="M-78 427q0 73 15.5 146.5t48 140.5t76.5 120t105.5 85.5t130.5 34.5q7 49 17 92h64l-18 -98q82 -17 127.5 -83.5t45.5 -160.5q0 -91 -46 -188l-151 69q33 70 33 126q0 65 -35 90q-63 -356 -108 -583q58 5 103.5 56.5t72.5 134.5l142 -63q-52 -140 -135.5 -209t-210.5 -69 l-13 -68h-64l14 76q-71 16 -120.5 68.5t-71.5 124t-22 158.5zM85 416q0 -147 77 -186l109 578q-51 -16 -94.5 -80.5t-67.5 -148.5t-24 -163z" />
<glyph unicode="&#xa3;" horiz-adv-x="779" d="M16 81q85 76 123 159.5t45 197.5h-97l16 92h87q5 63 12 116.5t20.5 110t31 101t44.5 85t61 67.5t80.5 42.5t101.5 15.5q128 0 200.5 -74t72.5 -189q0 -132 -96 -264l-138 101q74 83 74 177q0 59 -32 97t-83 38q-20 0 -37.5 -7t-31 -22t-24.5 -31.5t-20 -42.5t-16 -47.5 t-12 -54.5t-8.5 -55t-7 -57.5t-4.5 -53.5t-4 -51v-2h140l-17 -92h-130q-9 -85 -34 -151.5t-85 -144.5q37 16 100 16q26 0 75.5 -3.5t71.5 -3.5q82 0 127 39l91 -137q-14 -16 -39 -30t-61 -24t-74 -10q-54 0 -156.5 27.5t-148.5 27.5q-76 0 -126 -57z" />
<glyph unicode="&#xa5;" horiz-adv-x="621" d="M13 302l17 97h123q4 15 19 89q-5 26 -12 68h-105l16 96h73l-70 394h187q6 -31 25 -126.5t30.5 -157t18.5 -110.5l201 394h104l-202 -394h67l-17 -96h-98l-39 -77l-16 -80h129l-17 -97h-128l-58 -302h-178l55 302h-125z" />
<glyph unicode="&#xa6;" horiz-adv-x="425" d="M39 0q71 401 145 794h123q-90 -491 -149 -794h-119zM197 886q23 130 72.5 384t72.5 384h119q-90 -512 -137 -768h-127z" />
<glyph unicode="&#xa7;" horiz-adv-x="818" d="M64 300l192 28q7 -112 35 -166t81 -54q40 0 59.5 24.5t19.5 69.5q0 35 -16.5 69t-43 63.5t-58.5 60.5t-64 66.5t-58.5 74t-43 90.5t-16.5 110q0 66 21 125t60.5 105.5t103 74t141.5 27.5q126 0 199.5 -75t73.5 -194q2 -32 -16 -114l-186 65q30 52 30 101q0 37 -20.5 63.5 t-57.5 26.5q-31 0 -52 -24.5t-21 -63.5q0 -41 17.5 -80t45.5 -71.5t62 -65t68 -67.5t62.5 -72.5t46 -87t17.5 -104.5q0 -62 -26 -119.5t-72 -101.5t-114 -70.5t-146 -26.5q-145 0 -226.5 75.5t-97.5 237.5zM259 782q0 -49 13.5 -94.5t35.5 -81.5t50.5 -72t58 -65.5 t57.5 -61.5t50 -61t35.5 -63.5t13.5 -69.5q0 -47 -15 -86q79 38 79 151q0 45 -17 88t-44 78t-60 69.5t-66 70t-60.5 73t-44.5 84.5t-17 99q0 68 35 119q-45 -16 -74.5 -64t-29.5 -113z" />
<glyph unicode="&#xa8;" horiz-adv-x="545" d="M32 1213q0 50 34 92.5t87 42.5q28 0 47 -12.5t27.5 -32t8.5 -44.5q0 -32 -14 -62.5t-43 -51.5t-65 -21q-40 0 -61 25t-21 64zM291 1213q0 32 14.5 62.5t43 51.5t64.5 21q28 0 47 -12.5t27 -32t8 -44.5q0 -51 -33.5 -93t-87.5 -42q-26 0 -45.5 12.5t-28.5 32t-9 44.5z" />
<glyph unicode="&#xa9;" horiz-adv-x="898" d="M13 945q0 101 21 201t64.5 191t103.5 161.5t145 112t183 41.5q84 0 150.5 -39.5t107.5 -108t62 -155t21 -184.5q0 -100 -21 -200t-64.5 -191t-103.5 -161.5t-145 -112t-182 -41.5q-84 0 -150.5 39.5t-107.5 107.5t-62.5 154.5t-21.5 184.5zM92 948q0 -86 17 -160.5 t49 -133t84.5 -92.5t118.5 -34q81 0 151.5 37.5t121 101t87 145.5t54 171.5t17.5 179.5q0 86 -16.5 160.5t-48.5 133t-84.5 92.5t-119.5 34q-68 0 -129 -27t-107.5 -73t-84 -108t-61.5 -132.5t-36.5 -146t-12.5 -148.5zM218 977q0 -55 11 -100.5t33.5 -82.5t60 -57.5 t86.5 -20.5q40 0 81 24.5t76.5 71.5t57.5 108l-71 30q-12 -42 -30.5 -77.5t-47 -62t-59.5 -26.5q-54 0 -79 47t-25 125q0 82 24 171t64 151t82 62q46 0 46 -71q0 -70 -51 -173l81 -28q46 91 46 182q0 70 -29.5 114t-86.5 44q-58 0 -110 -39.5t-86 -102.5t-54 -139t-20 -150z " />
<glyph unicode="&#xaa;" horiz-adv-x="784" d="M26 608q0 86 18 182t52.5 185.5t79.5 162t103.5 116.5t119.5 44q125 0 149 -153l25 133h163q-13 -56 -24 -108t-18.5 -90.5t-16 -87t-13 -73.5t-12 -76t-10.5 -70t-11.5 -78.5t-11.5 -79.5q-4 -26 -4 -59q0 -51 18 -51q12 2 31.5 20t39.5 53l16 28l55 -39 q-23 -49 -49 -90t-52 -72t-52.5 -48.5t-50.5 -17.5q-114 0 -114 225v25q-98 -261 -267 -261q-56 0 -93.5 38t-54 99t-16.5 143zM221 642q0 -54 13 -86.5t39 -32.5q37 0 76.5 48.5t69 119.5t48.5 154.5t19 150.5q0 137 -75 137q-44 0 -90 -85.5t-73 -200.5t-27 -205z" />
<glyph unicode="&#xab;" horiz-adv-x="935" d="M35 828l15 94q26 12 69.5 34.5t156 90t199.5 132.5l73 -122q-86 -54 -182.5 -102t-149.5 -69l-54 -21q69 -50 140.5 -110.5t109.5 -95.5l37 -35l-110 -117q-5 8 -15.5 21t-43 52.5t-66 76.5t-83 85t-96.5 86zM401 828l17 94q26 12 69.5 34.5t156 90t198.5 132.5l73 -122 q-86 -54 -182 -102t-150 -69l-53 -21q68 -50 139.5 -110.5t109.5 -95.5l37 -35l-109 -117q-6 8 -16 21t-43 52.5t-67 76.5t-83.5 85t-96.5 86z" />
<glyph unicode="&#xad;" horiz-adv-x="501" d="M32 530l21 120h411l-22 -120h-410z" />
<glyph unicode="&#xae;" horiz-adv-x="869" d="M13 945q0 101 21 201t64.5 191t103.5 161.5t145 112t183 41.5q84 0 150.5 -39.5t107.5 -108t62 -155t21 -184.5q0 -100 -21 -200t-64.5 -191t-103.5 -161.5t-145 -112t-182 -41.5q-84 0 -150.5 39.5t-107.5 107.5t-62.5 154.5t-21.5 184.5zM92 948q0 -86 17 -160.5 t49 -133t84.5 -92.5t118.5 -34q81 0 151.5 37.5t121 101t87 145.5t54 171.5t17.5 179.5q0 86 -16.5 160.5t-48.5 133t-84.5 92.5t-119.5 34q-68 0 -129 -27t-107.5 -73t-84 -108t-61.5 -132.5t-36.5 -146t-12.5 -148.5zM230 736h82l39 218q20 -23 57.5 -84t71 -102.5 t63.5 -49.5l58 76q-23 9 -51.5 40t-63.5 72t-66 64q68 21 120.5 67.5t78 101.5t25.5 109q0 70 -43.5 114t-130.5 44q-64 0 -110 -22t-89 -65l41 -53l25 21q-45 -256 -107 -551zM363 1002l59 331q36 9 51 9q42 0 64.5 -26.5t22.5 -67.5q0 -45 -23 -94.5t-69.5 -92 t-104.5 -59.5z" />
<glyph unicode="&#xaf;" horiz-adv-x="464" d="M39 1145l20 118h365l-21 -118h-364z" />
<glyph unicode="&#xb0;" horiz-adv-x="348" d="M20 1060q0 68 50.5 123.5t131.5 55.5q43 0 73 -17.5t44 -45t14 -62.5q0 -67 -50.5 -121t-131.5 -54q-64 0 -97.5 34.5t-33.5 86.5zM103 1066q0 -26 14 -42.5t41 -16.5q20 0 37 9.5t27.5 24.5t16.5 33t6 36q0 26 -13 42.5t-39 16.5q-39 0 -64.5 -32.5t-25.5 -70.5z" />
<glyph unicode="&#xb2;" horiz-adv-x="532" d="M37 1099q19 48 55 89t75.5 68t81.5 56t75.5 53t55 59t21.5 76q0 32 -18.5 53t-49.5 21q-36 0 -58.5 -25t-22.5 -65q0 -25 15 -62l-118 -34q-9 30 -9 71q0 40 11 75.5t34.5 65.5t65 47.5t97.5 17.5q75 0 119.5 -42.5t44.5 -120.5q0 -53 -21 -96.5t-58 -76.5t-76.5 -60.5 t-89.5 -64t-83 -71.5q24 4 76 3.5t92 9.5t75 40l50 -107q-22 -24 -46 -34t-64 -10q-31 0 -89.5 20.5t-84.5 20.5q-49 0 -83 -43z" />
<glyph unicode="&#xb3;" horiz-adv-x="471" d="M32 1197q0 30 12 76l109 -34q-11 -30 -11 -53q0 -38 22.5 -60.5t58.5 -22.5q42 0 64 37t22 90q0 61 -27 103q-30 -9 -69 -9h-5l8 82h2q35 0 62 -7q44 44 44 105q0 19 -6 34.5t-18.5 25.5t-30.5 10q-26 0 -43.5 -19.5t-17.5 -46.5q0 -15 3 -20l-117 -22q-2 9 -2 27 q0 51 21 90t61.5 60.5t94.5 21.5q85 0 129 -38.5t44 -101.5q0 -43 -23 -85.5t-64 -71.5q25 -19 42 -43t25.5 -50t8.5 -54q0 -75 -55.5 -130.5t-154.5 -55.5q-88 0 -138.5 43.5t-50.5 118.5z" />
<glyph unicode="&#xb4;" horiz-adv-x="431" d="M59 1182q41 45 95 124t98 174l142 -99q-31 -51 -68.5 -98.5t-68.5 -77.5t-58 -53.5t-42 -33.5l-15 -10z" />
<glyph unicode="&#xb6;" horiz-adv-x="1270" d="M-35 1044q0 91 29.5 179t91 167.5t147.5 139.5t208.5 95.5t265.5 35.5q104 0 190 -24q-60 -532 -138 -997q322 97 322 631l197 23q0 -10 1 -32t1 -32q0 -110 -20.5 -208t-63.5 -183.5t-106 -151.5t-153 -111t-199 -62q-65 -344 -101 -514h-123q73 361 99 505h-9 q-52 0 -74 2q-32 -181 -99 -507h-124q70 347 102 525q-108 24 -193.5 76.5t-139.5 122t-82.5 151.5t-28.5 169zM156 1044q0 -88 29 -166.5t92 -141t152 -92.5q69 394 133 895q-97 -20 -176 -70.5t-128.5 -118.5t-75.5 -146.5t-26 -159.5zM551 622q16 -3 50 -3h32 q85 481 140 929q-28 4 -77 4h-13q-68 -566 -132 -930z" />
<glyph unicode="&#xb7;" horiz-adv-x="240" d="M108 782q0 67 45 124t116 57q54 0 80.5 -33.5t26.5 -85.5q0 -67 -44.5 -123t-115.5 -56q-35 0 -60.5 16.5t-36.5 42.5t-11 58z" />
<glyph unicode="&#xb8;" horiz-adv-x="948" d="M259 -346l104 53q8 -25 23 -43.5t37.5 -29t49.5 -10.5q29 0 52 14.5t34.5 37t11.5 46.5q0 22 -9 40t-30 30.5t-50 12.5q-18 0 -31.5 -2t-23.5 -7t-17 -9.5t-18 -12t-20 -13.5l-35 49q36 36 51.5 79.5t27.5 119.5l68 -11q-9 -85 -29 -134q15 3 45 3q84 0 129 -43t45 -106 q0 -34 -14 -67.5t-40 -60.5t-67.5 -43.5t-91.5 -16.5t-94.5 18t-72 46.5t-35.5 59.5z" />
<glyph unicode="&#xb9;" horiz-adv-x="291" d="M11 1493q44 31 84 71.5t57 65.5l18 24h110q-1 -9 -15.5 -60.5t-42.5 -191.5t-62 -356h-110q64 370 94 491q-25 -50 -70 -101z" />
<glyph unicode="&#xba;" horiz-adv-x="904" d="M62 674q0 139 60 315l101 -24q-2 12 -2 33q0 59 17 112t49 95.5t84 67.5t117 25q66 0 117 -28t81.5 -77t46 -111.5t15.5 -136.5q0 -72 -19 -165q49 25 94 94l53 -51q-79 -111 -180 -155q-26 -69 -62.5 -127t-83 -102.5t-105 -69.5t-121.5 -25q-128 0 -195 89t-67 241z M230 702q0 -89 31 -137.5t81 -48.5q40 0 76.5 33.5t65.5 92.5q-85 16 -145 71.5t-91 135.5q-18 -73 -18 -147zM344 972q0 -39 10 -75.5t31 -69t57 -54t83 -27.5q33 114 33 215q0 87 -26.5 141t-82.5 54q-45 0 -75 -55t-30 -129z" />
<glyph unicode="&#xbb;" horiz-adv-x="850" d="M22 628q86 55 182.5 103t150.5 69l54 21q-68 50 -140 110t-109 95l-38 36l110 117q3 -4 8 -10.5t22.5 -28.5t36.5 -44.5t47 -54t56.5 -60.5t64 -62t69.5 -61l-15 -94q-26 -12 -69.5 -34.5t-156 -89.5t-199.5 -133zM321 628q54 35 113.5 67t106 54t85.5 39t60 25l21 8 q-32 23 -64.5 48.5t-60 48t-53 45t-45 40t-34.5 31t-22 20.5l-8 8l110 117q3 -4 8 -10.5t22.5 -28.5t36.5 -44.5t47 -54t56.5 -60.5t64 -62t69.5 -61l-15 -94q-26 -12 -69.5 -34.5t-156 -89.5t-199.5 -133z" />
<glyph unicode="&#xbc;" horiz-adv-x="904" d="M11 886q28 20 54.5 43.5t44.5 43.5t32.5 37t20.5 26l7 10h110q-1 -9 -15.5 -60.5t-42.5 -191.5t-62 -356h-110q64 370 94 490q-25 -50 -70 -100zM76 28q109 222 265 543t246 505l94 -37q-59 -119 -229 -470t-284 -576zM438 218q61 80 98 186t37 222h110 q-2 -76 -32 -178.5t-80 -186.5q14 3 30 3q12 0 26.5 -2t30 -4.5t27.5 -3.5q17 105 29 171.5t23 121.5t16 79h107q-2 -10 -6 -29t-9.5 -45.5t-19 -103.5t-31.5 -192q34 11 59 40l51 -75q-36 -39 -122 -46l-16 -104h78l-12 -71h-259l12 71h76q2 23 8 60.5t7 49.5 q-10 3 -29 7.5t-29.5 6.5t-25 4.5t-25.5 2.5q-41 0 -62 -27z" />
<glyph unicode="&#xbd;" horiz-adv-x="919" d="M18 886q44 31 83.5 71t57.5 65l18 24h110q-2 -10 -15.5 -61t-41.5 -191t-62 -356h-111q64 370 94 490q-25 -50 -70 -100zM76 28q109 222 265 543t246 505l94 -37q-59 -119 -229 -470t-284 -576zM427 53q16 41 45 77.5t62.5 62.5t70 50t69.5 46.5t59.5 46t42.5 54t16 65.5 q0 32 -19 52.5t-51 20.5q-36 0 -58 -25t-22 -65q0 -25 14 -62l-117 -34q-9 29 -9 71q0 40 11 75.5t34 65.5t65 47.5t98 17.5q75 0 119.5 -42t44.5 -120q0 -53 -21 -96.5t-58 -77t-76.5 -60.5t-89.5 -64t-84 -72q24 4 76.5 3.5t92 9t74.5 40.5l51 -108q-22 -23 -46 -33 t-64 -10q-32 0 -90 20.5t-85 20.5q-48 0 -82 -43z" />
<glyph unicode="&#xbe;" horiz-adv-x="889" d="M16 886q43 31 83 71t58 65l18 24h109q-1 -9 -15 -60.5t-42.5 -191.5t-61.5 -356h-110q64 370 94 490q-25 -50 -71 -100zM76 28q109 222 265 543t246 505l94 -37q-59 -119 -229 -470t-284 -576zM457 151q0 30 11 76l110 -34q-11 -30 -11 -53q0 -38 22 -60.5t58 -22.5 q42 0 64.5 37t22.5 90q0 61 -27 103q-30 -9 -70 -9h-4l7 83h2q31 0 62 -8q44 43 44 106q0 29 -14.5 49t-41.5 20q-17 0 -30.5 -9t-21 -24t-7.5 -34q0 -14 2 -19l-116 -22q-3 9 -3 27q0 78 47.5 125t128.5 47q86 0 130.5 -39t44.5 -101q0 -21 -6 -43t-17 -42.5t-27.5 -39 t-36.5 -33.5q37 -27 56.5 -65.5t19.5 -80.5q0 -75 -56.5 -130.5t-155.5 -55.5q-87 0 -137 43.5t-50 118.5z" />
<glyph unicode="&#xbf;" horiz-adv-x="814" d="M11 317q0 -159 103.5 -249t270.5 -90q76 0 141 23.5t111.5 64t80 94.5t50 114t16.5 122q0 65 -17.5 123.5t-54 109.5t-88.5 84l-142 -151q48 -42 72 -98.5t24 -115.5q0 -98 -55 -172.5t-131 -74.5q-80 0 -121 54t-41 150q0 57 14.5 112.5t39.5 102.5t58 99t67.5 99.5 t70.5 106.5t66.5 118.5t55 137t35.5 160.5l-160 22q-14 -93 -47.5 -176t-75.5 -144.5t-89.5 -119.5t-92 -112t-81 -111t-58.5 -129.5t-22 -153.5zM491 1493q0 68 45 124.5t116 56.5q54 0 80.5 -33.5t26.5 -84.5q0 -68 -44.5 -124t-115.5 -56q-52 0 -80 33.5t-28 83.5z" />
<glyph unicode="&#xc0;" d="M76 326q0 122 27 241.5t77.5 230t130 204.5t179 164t229.5 109.5t277 39.5q120 0 221 -29.5t173.5 -82t122.5 -120t79 -149.5q205 -13 389 -102q21 53 58.5 149t59 150.5t57 142t59 141.5t58 129.5t62 125t62.5 109t67 100.5t68.5 80.5t73.5 67.5l158 -70 q-117 -612 -184.5 -1109.5t-67.5 -863.5q0 -800 353 -800q177 0 261 212l196 -68q-64 -160 -171.5 -242t-255.5 -82q-111 0 -201.5 30.5t-157.5 89.5t-116 142t-79 192.5t-44 236t-14 277.5q0 58 4 177q-5 152 -61.5 269.5t-152.5 198.5q-46 -121 -90.5 -223t-99.5 -211.5 t-114 -197.5t-128 -173t-148 -147.5t-168.5 -110.5t-194 -72.5t-219.5 -24.5q-166 0 -304.5 47.5t-235 130t-164 193.5t-99.5 236.5t-32 261.5zM284 312q0 -97 17 -188t50.5 -174t86.5 -152t122 -120t161 -79t199 -28q80 0 156 20t141.5 55.5t129.5 90t117.5 115.5 t108 141.5t99 159t92 176.5t86 185.5t81.5 194.5q-134 62 -307 73q2 -20 2 -60q0 -101 -29.5 -200t-84.5 -185t-140.5 -152.5t-189.5 -99.5l-79 186q100 31 172 105t106.5 166.5t34.5 193.5v32q-103 -17 -196.5 -56.5t-171 -98.5t-132 -140.5t-76.5 -176.5l-200 61 q22 97 73 181t122 148.5t159.5 114t187 80t203.5 43.5q-12 34 -28.5 65t-38.5 59.5t-48 52t-57.5 43t-66.5 33t-76 20.5t-86 7q-108 0 -206 -36t-174 -99.5t-137 -149t-100.5 -185t-61 -207t-21.5 -215.5zM2119 744q125 -97 195 -247q53 503 225 1304h-2q-45 -74 -89 -167 t-86.5 -206t-77 -210.5t-83.5 -239.5t-82 -234zM2383 2344l143 99q30 -66 70.5 -131t69 -102.5t52.5 -64.5l-83 -74q-5 4 -15.5 11t-40.5 32.5t-59 54.5t-67 76.5t-70 98.5z" />
<glyph unicode="&#xc1;" d="M76 326q0 122 27 241.5t77.5 230t130 204.5t179 164t229.5 109.5t277 39.5q120 0 221 -29.5t173.5 -82t122.5 -120t79 -149.5q205 -13 389 -102q21 53 58.5 149t59 150.5t57 142t59 141.5t58 129.5t62 125t62.5 109t67 100.5t68.5 80.5t73.5 67.5l158 -70 q-117 -612 -184.5 -1109.5t-67.5 -863.5q0 -800 353 -800q177 0 261 212l196 -68q-64 -160 -171.5 -242t-255.5 -82q-111 0 -201.5 30.5t-157.5 89.5t-116 142t-79 192.5t-44 236t-14 277.5q0 58 4 177q-5 152 -61.5 269.5t-152.5 198.5q-46 -121 -90.5 -223t-99.5 -211.5 t-114 -197.5t-128 -173t-148 -147.5t-168.5 -110.5t-194 -72.5t-219.5 -24.5q-166 0 -304.5 47.5t-235 130t-164 193.5t-99.5 236.5t-32 261.5zM284 312q0 -97 17 -188t50.5 -174t86.5 -152t122 -120t161 -79t199 -28q80 0 156 20t141.5 55.5t129.5 90t117.5 115.5 t108 141.5t99 159t92 176.5t86 185.5t81.5 194.5q-134 62 -307 73q2 -20 2 -60q0 -101 -29.5 -200t-84.5 -185t-140.5 -152.5t-189.5 -99.5l-79 186q100 31 172 105t106.5 166.5t34.5 193.5v32q-103 -17 -196.5 -56.5t-171 -98.5t-132 -140.5t-76.5 -176.5l-200 61 q22 97 73 181t122 148.5t159.5 114t187 80t203.5 43.5q-12 34 -28.5 65t-38.5 59.5t-48 52t-57.5 43t-66.5 33t-76 20.5t-86 7q-108 0 -206 -36t-174 -99.5t-137 -149t-100.5 -185t-61 -207t-21.5 -215.5zM2119 744q125 -97 195 -247q53 503 225 1304h-2q-45 -74 -89 -167 t-86.5 -206t-77 -210.5t-83.5 -239.5t-82 -234zM2633 2167q40 45 94.5 125t98.5 174l142 -98q-31 -52 -68.5 -99t-69 -77.5t-58 -53.5t-41.5 -33l-15 -11z" />
<glyph unicode="&#xc2;" d="M76 326q0 122 27 241.5t77.5 230t130 204.5t179 164t229.5 109.5t277 39.5q120 0 221 -29.5t173.5 -82t122.5 -120t79 -149.5q205 -13 389 -102q21 53 58.5 149t59 150.5t57 142t59 141.5t58 129.5t62 125t62.5 109t67 100.5t68.5 80.5t73.5 67.5l158 -70 q-117 -612 -184.5 -1109.5t-67.5 -863.5q0 -800 353 -800q177 0 261 212l196 -68q-64 -160 -171.5 -242t-255.5 -82q-111 0 -201.5 30.5t-157.5 89.5t-116 142t-79 192.5t-44 236t-14 277.5q0 58 4 177q-5 152 -61.5 269.5t-152.5 198.5q-46 -121 -90.5 -223t-99.5 -211.5 t-114 -197.5t-128 -173t-148 -147.5t-168.5 -110.5t-194 -72.5t-219.5 -24.5q-166 0 -304.5 47.5t-235 130t-164 193.5t-99.5 236.5t-32 261.5zM284 312q0 -97 17 -188t50.5 -174t86.5 -152t122 -120t161 -79t199 -28q80 0 156 20t141.5 55.5t129.5 90t117.5 115.5 t108 141.5t99 159t92 176.5t86 185.5t81.5 194.5q-134 62 -307 73q2 -20 2 -60q0 -101 -29.5 -200t-84.5 -185t-140.5 -152.5t-189.5 -99.5l-79 186q100 31 172 105t106.5 166.5t34.5 193.5v32q-103 -17 -196.5 -56.5t-171 -98.5t-132 -140.5t-76.5 -176.5l-200 61 q22 97 73 181t122 148.5t159.5 114t187 80t203.5 43.5q-12 34 -28.5 65t-38.5 59.5t-48 52t-57.5 43t-66.5 33t-76 20.5t-86 7q-108 0 -206 -36t-174 -99.5t-137 -149t-100.5 -185t-61 -207t-21.5 -215.5zM2119 744q125 -97 195 -247q53 503 225 1304h-2q-45 -74 -89 -167 t-86.5 -206t-77 -210.5t-83.5 -239.5t-82 -234zM2401 2180q55 39 103 77.5t76.5 65t49.5 47t30 30.5l8 10l94 -11q42 -64 79 -135t54 -110l16 -39l-140 -67q-2 11 -6 30t-26 81t-53 128q-3 -5 -9 -14t-26 -35t-41 -51t-53 -57t-64 -57z" />
<glyph unicode="&#xc3;" d="M76 326q0 122 27 241.5t77.5 230t130 204.5t179 164t229.5 109.5t277 39.5q120 0 221 -29.5t173.5 -82t122.5 -120t79 -149.5q205 -13 389 -102q21 53 58.5 149t59 150.5t57 142t59 141.5t58 129.5t62 125t62.5 109t67 100.5t68.5 80.5t73.5 67.5l158 -70 q-117 -612 -184.5 -1109.5t-67.5 -863.5q0 -800 353 -800q177 0 261 212l196 -68q-64 -160 -171.5 -242t-255.5 -82q-111 0 -201.5 30.5t-157.5 89.5t-116 142t-79 192.5t-44 236t-14 277.5q0 58 4 177q-5 152 -61.5 269.5t-152.5 198.5q-46 -121 -90.5 -223t-99.5 -211.5 t-114 -197.5t-128 -173t-148 -147.5t-168.5 -110.5t-194 -72.5t-219.5 -24.5q-166 0 -304.5 47.5t-235 130t-164 193.5t-99.5 236.5t-32 261.5zM284 312q0 -97 17 -188t50.5 -174t86.5 -152t122 -120t161 -79t199 -28q80 0 156 20t141.5 55.5t129.5 90t117.5 115.5 t108 141.5t99 159t92 176.5t86 185.5t81.5 194.5q-134 62 -307 73q2 -20 2 -60q0 -101 -29.5 -200t-84.5 -185t-140.5 -152.5t-189.5 -99.5l-79 186q100 31 172 105t106.5 166.5t34.5 193.5v32q-103 -17 -196.5 -56.5t-171 -98.5t-132 -140.5t-76.5 -176.5l-200 61 q22 97 73 181t122 148.5t159.5 114t187 80t203.5 43.5q-12 34 -28.5 65t-38.5 59.5t-48 52t-57.5 43t-66.5 33t-76 20.5t-86 7q-108 0 -206 -36t-174 -99.5t-137 -149t-100.5 -185t-61 -207t-21.5 -215.5zM2119 744q125 -97 195 -247q53 503 225 1304h-2q-45 -74 -89 -167 t-86.5 -206t-77 -210.5t-83.5 -239.5t-82 -234zM2418 2167q53 67 169 67q35 0 99 -7t87 -7q45 0 69.5 9.5t47.5 29.5l80 -103q-49 -64 -140 -64q-41 0 -122 23t-119 23q-62 0 -105 -46z" />
<glyph unicode="&#xc4;" d="M76 326q0 122 27 241.5t77.5 230t130 204.5t179 164t229.5 109.5t277 39.5q120 0 221 -29.5t173.5 -82t122.5 -120t79 -149.5q205 -13 389 -102q21 53 58.5 149t59 150.5t57 142t59 141.5t58 129.5t62 125t62.5 109t67 100.5t68.5 80.5t73.5 67.5l158 -70 q-117 -612 -184.5 -1109.5t-67.5 -863.5q0 -800 353 -800q177 0 261 212l196 -68q-64 -160 -171.5 -242t-255.5 -82q-111 0 -201.5 30.5t-157.5 89.5t-116 142t-79 192.5t-44 236t-14 277.5q0 58 4 177q-5 152 -61.5 269.5t-152.5 198.5q-46 -121 -90.5 -223t-99.5 -211.5 t-114 -197.5t-128 -173t-148 -147.5t-168.5 -110.5t-194 -72.5t-219.5 -24.5q-166 0 -304.5 47.5t-235 130t-164 193.5t-99.5 236.5t-32 261.5zM284 312q0 -97 17 -188t50.5 -174t86.5 -152t122 -120t161 -79t199 -28q80 0 156 20t141.5 55.5t129.5 90t117.5 115.5 t108 141.5t99 159t92 176.5t86 185.5t81.5 194.5q-134 62 -307 73q2 -20 2 -60q0 -101 -29.5 -200t-84.5 -185t-140.5 -152.5t-189.5 -99.5l-79 186q100 31 172 105t106.5 166.5t34.5 193.5v32q-103 -17 -196.5 -56.5t-171 -98.5t-132 -140.5t-76.5 -176.5l-200 61 q22 97 73 181t122 148.5t159.5 114t187 80t203.5 43.5q-12 34 -28.5 65t-38.5 59.5t-48 52t-57.5 43t-66.5 33t-76 20.5t-86 7q-108 0 -206 -36t-174 -99.5t-137 -149t-100.5 -185t-61 -207t-21.5 -215.5zM2119 744q125 -97 195 -247q53 503 225 1304h-2q-45 -74 -89 -167 t-86.5 -206t-77 -210.5t-83.5 -239.5t-82 -234zM2418 2200q0 50 33.5 92.5t87.5 42.5q41 0 62 -25.5t21 -63.5q0 -51 -34 -93.5t-88 -42.5q-41 0 -61.5 25.5t-20.5 64.5zM2677 2200q0 31 14 62t43 52t65 21q40 0 61 -25.5t21 -63.5q0 -51 -34 -93.5t-87 -42.5 q-40 0 -61.5 25.5t-21.5 64.5z" />
<glyph unicode="&#xc5;" d="M76 326q0 122 27 241.5t77.5 230t130 204.5t179 164t229.5 109.5t277 39.5q120 0 221 -29.5t173.5 -82t122.5 -120t79 -149.5q205 -13 389 -102q22 55 61 155.5t61.5 157.5t59 147.5t62.5 147.5t61 132.5t65 128t65 109t71 100.5t73 79q-39 39 -39 105q0 38 15.5 75 t44 67.5t73 49.5t97.5 19q84 0 130 -45.5t46 -110.5q0 -67 -44 -124t-121 -77q-116 -603 -183 -1102t-67 -864q0 -798 353 -798q177 0 261 212l196 -68q-64 -160 -171.5 -242t-255.5 -82q-111 0 -201.5 30.5t-157.5 89.5t-116 142t-79 192.5t-44 236t-14 277.5q0 58 4 177 q-5 152 -61.5 269.5t-152.5 198.5q-46 -121 -90.5 -223t-99.5 -211.5t-114 -197.5t-128 -173t-148 -147.5t-168.5 -110.5t-194 -72.5t-219.5 -24.5q-166 0 -304.5 47.5t-235 130t-164 193.5t-99.5 236.5t-32 261.5zM284 312q0 -97 17 -188t50.5 -174t86.5 -152t122 -120 t161 -79t199 -28q80 0 156 20t141.5 55.5t129.5 90t117.5 115.5t108 141.5t99 159t92 176.5t86 185.5t81.5 194.5q-134 62 -307 73q2 -20 2 -60q0 -101 -29.5 -200t-84.5 -185t-140.5 -152.5t-189.5 -99.5l-79 186q100 31 172 105t106.5 166.5t34.5 193.5v32 q-103 -17 -196.5 -56.5t-171 -98.5t-132 -140.5t-76.5 -176.5l-200 61q22 97 73 181t122 148.5t159.5 114t187 80t203.5 43.5q-12 34 -28.5 65t-38.5 59.5t-48 52t-57.5 43t-66.5 33t-76 20.5t-86 7q-108 0 -206 -36t-174 -99.5t-137 -149t-100.5 -185t-61 -207 t-21.5 -215.5zM2119 744q125 -97 195 -247q53 503 225 1304h-2q-45 -74 -89 -167t-86.5 -206t-77 -210.5t-83.5 -239.5t-82 -234zM2608 2099q0 -39 24.5 -65.5t70.5 -26.5q60 0 97 43t37 95q0 25 -10 45t-31.5 33.5t-52.5 13.5q-42 0 -73.5 -21.5t-46.5 -52.5t-15 -64z" />
<glyph unicode="&#xc6;" horiz-adv-x="4029" d="M30 326q0 122 27 241.5t77.5 230t130 204.5t179 164t229.5 109.5t277 39.5q105 0 196.5 -23t159.5 -63.5t121 -96t86.5 -121.5t50 -138t16.5 -148q0 -103 -29.5 -202t-84.5 -185t-140.5 -152.5t-189.5 -100.5l-79 186q101 32 173.5 107t107 168.5t34.5 197.5 q0 70 -17 136.5t-52 125.5t-85.5 103t-122.5 69.5t-156 25.5q-109 0 -207 -36t-174 -99.5t-137 -149t-100.5 -185t-60.5 -207t-21 -215.5q0 -117 23.5 -224t74 -202t124 -164.5t179.5 -110t234 -40.5q113 0 219 42t190 105.5t168.5 173.5t146 210.5t133.5 254t119 266.5 t113 283q-184 34 -286 71l57 168q139 -60 286 -90q37 94 62.5 157t61 148.5t63.5 145.5t63.5 131t68 123.5t69 104.5t75 92t77.5 70l158 -70q-96 -505 -160 -941q288 20 539 108q-42 126 -42 270q0 99 19.5 192t60 176t97.5 145t136.5 98.5t172.5 36.5q67 0 122.5 -18.5 t94.5 -50t66 -74t39.5 -91.5t12.5 -101q0 -103 -39 -198t-112 -175t-170.5 -146.5t-219.5 -121.5q34 -90 88 -146q91 11 178 11h23l-23 -187h-14q-141 0 -249 64q-105 -32 -193.5 -89.5t-151.5 -130.5t-107 -158.5t-65.5 -175t-21.5 -178.5q0 -82 18 -156.5t55 -139 t90.5 -111.5t129 -73.5t165.5 -26.5q84 0 157 24t126.5 65.5t95.5 96.5t67.5 118t38.5 127.5t13 128.5q0 86 -22 156t-68 112.5t-108 42.5q-83 0 -138 -75t-55 -181q0 -105 54 -197l-211 -103q-62 119 -62 247q0 89 29.5 169.5t82.5 142.5t134 98.5t178 36.5q95 0 171 -35 t123.5 -95.5t72.5 -138.5t25 -167q0 -96 -28 -192.5t-87.5 -186t-142.5 -158t-202 -109.5t-257 -41q-130 0 -239.5 32t-187 88.5t-131.5 134t-80 167t-26 187.5t26.5 197t81.5 193.5t132 175.5t185.5 146.5t235.5 103.5q-54 55 -87 116q-295 -96 -617 -116 q-71 -537 -71 -893q0 -803 353 -803q177 0 261 212l196 -68q-64 -160 -171.5 -242t-255.5 -82q-133 0 -236.5 44.5t-174.5 126t-117 202.5t-66.5 268t-20.5 329q0 364 86 902q-53 0 -196 10q-47 -134 -83.5 -232.5t-89.5 -226t-101 -221t-113 -200.5t-130.5 -182.5 t-149 -149t-172 -118.5t-196 -72t-224.5 -27q-166 0 -304.5 47.5t-235 130t-164 193.5t-99.5 236.5t-32 261.5zM2172 1028q100 -12 170 -14q51 310 151 787h-2q-56 -92 -115.5 -230t-99 -245.5t-104.5 -297.5zM3276 1416q0 -100 18 -205q188 99 294.5 229t106.5 274 q0 89 -39.5 145t-123.5 56q-62 0 -112 -42t-81 -112.5t-47 -159t-16 -185.5z" />
<glyph unicode="&#xc7;" horiz-adv-x="2136" d="M37 972q0 82 17 158t47.5 138.5t73 116t94.5 93t110.5 67.5t122 42.5t129.5 14.5q128 0 259 -61l-96 -178q-75 38 -168 38q-62 0 -120.5 -20t-108 -58.5t-87.5 -92t-59 -124t-21 -150.5q0 -120 41 -222t120 -179.5t203.5 -122t281.5 -44.5q1 138 19 283.5t51.5 287.5 t84 277.5t112.5 256t140.5 221.5t165.5 173.5t189.5 113.5t210.5 41q100 0 178 -36.5t126.5 -101t73.5 -150.5t25 -189q0 -104 -24.5 -217t-74.5 -228.5t-121 -226t-169 -210.5t-213 -180t-259 -137t-301 -79q0 -111 9 -206t29.5 -180.5t51.5 -149.5t78.5 -108.5 t106.5 -60.5q5 41 12 128q8 96 13.5 146.5t19.5 139.5t31 138.5t48 114t70.5 98t98.5 58t133 24.5q94 0 161.5 -48t99 -125.5t31.5 -174.5q0 -86 -25 -172.5t-77.5 -168t-127 -144.5t-181.5 -101t-232 -38q-12 -46 -37 -97q12 3 37 3q43 0 77.5 -12.5t55 -33t31.5 -47 t11 -56.5q0 -73 -58 -130.5t-156 -57.5q-75 0 -132 37t-69 86l103 52q12 -37 41 -59t69 -22q44 0 71.5 30t27.5 68q0 34 -23 58t-67 24q-26 0 -42 -5t-39.5 -20t-28.5 -19l-34 48q32 33 45.5 66.5t24.5 95.5q-110 21 -197 91.5t-144 179t-89 243.5t-40 293q-159 0 -296 37.5 t-236 102.5t-169.5 153.5t-105 191.5t-34.5 214zM1094 409q133 25 254 83t215.5 136t174.5 174t136.5 198.5t96.5 209t58.5 206t18.5 188.5q0 147 -51 234.5t-148 87.5q-95 0 -188.5 -65.5t-171.5 -177.5t-147 -262t-119 -318.5t-83.5 -346.5t-45.5 -347zM1466 -427 q83 5 156 42.5t125 94.5t89.5 127t56 141t18.5 136q0 58 -14.5 102t-46.5 71.5t-77 27.5q-29 0 -54.5 -10.5t-46 -28t-38.5 -47.5t-31.5 -60.5t-27.5 -76t-23.5 -86t-21.5 -98.5t-20.5 -105t-21 -113.5t-22.5 -116.5z" />
<glyph unicode="&#xc8;" horiz-adv-x="1802" d="M30 1512q0 -70 24 -135.5t79 -126.5t135 -106.5t201 -72.5t269 -27q81 0 157 7q28 -52 77 -101q-106 -34 -199.5 -87.5t-165 -120t-128 -144t-93 -161.5t-55.5 -170.5t-19 -172.5q0 -102 26 -195.5t80 -174.5t131 -140t186 -93t239 -34q139 0 258 41t202 109.5t142.5 158 t87.5 186t28 192.5q0 71 -15.5 135.5t-47.5 119.5t-78 95t-110 63t-141 23q-97 0 -178 -36.5t-134.5 -98.5t-82.5 -142.5t-29 -169.5q0 -125 63 -247l210 103q-53 91 -53 197q0 107 55 181.5t138 74.5q62 0 107.5 -42.5t67.5 -112t22 -156.5q0 -54 -9 -109.5t-29 -110.5 t-48.5 -105t-69.5 -93t-90.5 -74.5t-114 -49.5t-136.5 -18q-87 0 -160 28.5t-125.5 78.5t-89.5 118t-55 147.5t-18 166.5q0 93 20.5 186.5t64 183.5t104.5 166t148.5 136.5t189.5 93.5q108 -62 251 -62h14l22 188h-22q-97 0 -179 -13q-37 40 -62 99q94 25 176.5 65.5 t144 89.5t110 105t79 115.5t46 119.5t15.5 117q0 70 -22.5 130t-64.5 105.5t-108 71.5t-149 26q-95 0 -178 -36.5t-143 -98.5t-103 -144t-64 -174.5t-21 -187.5q0 -120 34 -229q-69 -5 -106 -5q-92 0 -170.5 14.5t-135 40t-100 59t-69.5 72.5t-39 78.5t-13 79.5 q0 83 53 141.5t139 58.5q78 0 127.5 -38t84.5 -114l158 120q-67 117 -157 167.5t-213 50.5q-83 0 -154 -31t-118 -83.5t-74 -120.5t-27 -141zM1030 1406q0 97 18.5 187.5t52 163.5t88 116.5t120.5 43.5t104.5 -56t38.5 -143q0 -53 -14.5 -109.5t-45.5 -115.5t-77 -111 t-114 -98t-150 -76q-21 93 -21 198zM1030 2344l143 99q43 -95 97.5 -174t94.5 -124l-83 -74q-5 4 -15.5 11t-40.5 32.5t-59 54.5t-67 76.5t-70 98.5z" />
<glyph unicode="&#xc9;" horiz-adv-x="1802" d="M30 1512q0 73 27 141t74 120.5t118 83.5t154 31q123 0 213 -50.5t157 -167.5l-158 -120q-35 76 -84.5 114t-127.5 38q-86 0 -139 -58.5t-53 -141.5q0 -48 18 -95.5t59 -93t100.5 -79.5t150 -55t199.5 -21q37 0 106 5q-34 109 -34 229q0 95 21 187.5t64 174.5t103 144 t143 98.5t178 36.5q83 0 149 -26t108 -71.5t64.5 -105.5t22.5 -129.5t-21.5 -141t-68 -143t-112.5 -133.5t-161 -113.5t-208 -81.5q25 -59 62 -99q82 13 179 13h22l-22 -188h-14q-143 0 -251 62q-86 -27 -161 -74t-132 -106.5t-102 -129.5t-73.5 -146t-43.5 -154.5 t-15 -155.5q0 -87 18 -166.5t55 -147.5t89.5 -118t125.5 -78.5t160 -28.5q100 0 184 34.5t141 91t96.5 130t57.5 150.5t18 154q0 87 -22 156.5t-67.5 112t-107.5 42.5q-83 0 -138 -74.5t-55 -181.5q0 -106 53 -197l-210 -103q-63 122 -63 247q0 89 29 169.5t82.5 142.5 t134.5 98.5t178 36.5q95 0 171 -35t123.5 -95.5t72.5 -138t25 -167.5q0 -80 -20 -161t-59 -158t-101 -143.5t-139 -117t-180 -79t-219 -28.5q-130 0 -239 34t-186 93t-131 140t-80 174.5t-26 195.5q0 86 19 172.5t55.5 170.5t93 161.5t128 144t165 120t199.5 87.5 q-49 49 -77 101q-76 -7 -157 -7q-148 0 -269 27t-201 72.5t-135 106.5t-79 126.5t-24 135.5zM1030 1406q0 -105 21 -198q69 25 128 61t102 78t76.5 89t53.5 96t30.5 95.5t10.5 90.5q0 56 -17 101t-49.5 71.5t-76.5 26.5q-66 0 -120.5 -43.5t-88 -116.5t-52 -163.5 t-18.5 -187.5zM1259 2191q41 45 95 124t98 174l142 -99q-18 -29 -38 -57.5t-39 -51t-38.5 -43.5t-36 -37.5t-32.5 -30.5t-28 -23.5t-21 -16.5t-14 -10l-5 -3z" />
<glyph unicode="&#xca;" horiz-adv-x="1802" d="M30 1512q0 73 27 141t74 120.5t118 83.5t154 31q123 0 213 -50.5t157 -167.5l-158 -120q-35 76 -84.5 114t-127.5 38q-86 0 -139 -58.5t-53 -141.5q0 -48 18 -95.5t59 -93t100.5 -79.5t150 -55t199.5 -21q37 0 106 5q-34 109 -34 229q0 95 21 187.5t64 174.5t103 144 t143 98.5t178 36.5q83 0 149 -26t108 -71.5t64.5 -105.5t22.5 -129.5t-21.5 -141t-68 -143t-112.5 -133.5t-161 -113.5t-208 -81.5q25 -59 62 -99q82 13 179 13h22l-22 -188h-14q-143 0 -251 62q-86 -27 -161 -74t-132 -106.5t-102 -129.5t-73.5 -146t-43.5 -154.5 t-15 -155.5q0 -87 18 -166.5t55 -147.5t89.5 -118t125.5 -78.5t160 -28.5q100 0 184 34.5t141 91t96.5 130t57.5 150.5t18 154q0 87 -22 156.5t-67.5 112t-107.5 42.5q-83 0 -138 -74.5t-55 -181.5q0 -106 53 -197l-210 -103q-63 122 -63 247q0 89 29 169.5t82.5 142.5 t134.5 98.5t178 36.5q95 0 171 -35t123.5 -95.5t72.5 -138t25 -167.5q0 -80 -20 -161t-59 -158t-101 -143.5t-139 -117t-180 -79t-219 -28.5q-130 0 -239 34t-186 93t-131 140t-80 174.5t-26 195.5q0 86 19 172.5t55.5 170.5t93 161.5t128 144t165 120t199.5 87.5 q-49 49 -77 101q-76 -7 -157 -7q-148 0 -269 27t-201 72.5t-135 106.5t-79 126.5t-24 135.5zM1030 1406q0 -105 21 -198q69 25 128 61t102 78t76.5 89t53.5 96t30.5 95.5t10.5 90.5q0 56 -17 101t-49.5 71.5t-76.5 26.5q-66 0 -120.5 -43.5t-88 -116.5t-52 -163.5 t-18.5 -187.5zM1099 2271q87 64 154 121.5t89 83.5l23 26l94 -11q27 -41 52 -85t42 -78t30 -62.5t19 -43.5l6 -16l-140 -66q-1 10 -5.5 29t-26 81.5t-53.5 128.5q-3 -5 -9 -14t-25.5 -35.5t-40.5 -51t-53 -56.5t-64 -57z" />
<glyph unicode="&#xcb;" horiz-adv-x="1813" d="M30 1512q0 -70 24 -135.5t79 -126.5t135 -106.5t201 -72.5t269 -27q81 0 157 7q28 -52 77 -101q-106 -34 -199.5 -87.5t-165 -120t-128 -144t-93 -161.5t-55.5 -170.5t-19 -172.5q0 -102 26 -195.5t80 -174.5t131 -140t186 -93t239 -34q139 0 258 41t202 109.5t142.5 158 t87.5 186t28 192.5q0 71 -15.5 135.5t-47.5 119.5t-78 95t-110 63t-141 23q-97 0 -178 -36.5t-134.5 -98.5t-82.5 -142.5t-29 -169.5q0 -125 63 -247l210 103q-53 91 -53 197q0 107 55 181.5t138 74.5q62 0 107.5 -42.5t67.5 -112t22 -156.5q0 -54 -9 -109.5t-29 -110.5 t-48.5 -105t-69.5 -93t-90.5 -74.5t-114 -49.5t-136.5 -18q-87 0 -160 28.5t-125.5 78.5t-89.5 118t-55 147.5t-18 166.5q0 93 20.5 186.5t64 183.5t104.5 166t148.5 136.5t189.5 93.5q108 -62 251 -62h14l22 188h-22q-97 0 -179 -13q-37 40 -62 99q94 25 176.5 65.5 t144 89.5t110 105t79 115.5t46 119.5t15.5 117q0 70 -22.5 130t-64.5 105.5t-108 71.5t-149 26q-95 0 -178 -36.5t-143 -98.5t-103 -144t-64 -174.5t-21 -187.5q0 -120 34 -229q-69 -5 -106 -5q-92 0 -170.5 14.5t-135 40t-100 59t-69.5 72.5t-39 78.5t-13 79.5 q0 83 53 141.5t139 58.5q78 0 127.5 -38t84.5 -114l158 120q-67 117 -157 167.5t-213 50.5q-83 0 -154 -31t-118 -83.5t-74 -120.5t-27 -141zM1030 1406q0 97 18.5 187.5t52 163.5t88 116.5t120.5 43.5t104.5 -56t38.5 -143q0 -53 -14.5 -109.5t-45.5 -115.5t-77 -111 t-114 -98t-150 -76q-21 93 -21 198zM1105 2200q0 50 34.5 92.5t88.5 42.5q40 0 60.5 -25.5t20.5 -63.5q0 -51 -33.5 -93.5t-87.5 -42.5q-27 0 -46 12.5t-28 32.5t-9 45zM1365 2200q0 50 34 92.5t87 42.5q41 0 62 -25.5t21 -63.5q0 -51 -34 -93.5t-88 -42.5q-39 0 -60.5 25.5 t-21.5 64.5z" />
<glyph unicode="&#xcc;" horiz-adv-x="1235" d="M-144 624q0 -126 63.5 -230t173.5 -163t242 -59q100 0 182.5 33.5t135 89t81 125.5t28.5 144q0 73 -26 139.5t-82 124.5t-138 94l-94 -156q60 -30 90.5 -79.5t30.5 -104.5q0 -81 -58 -142t-152 -61q-114 0 -189.5 79t-75.5 207q0 71 25.5 137t67.5 120t104.5 108.5 t129.5 98.5t150 94.5t158 92.5t161.5 96t153.5 102q-49 -225 -97.5 -498.5t-73 -428.5t-85.5 -565.5t-81 -542.5h225q26 191 66.5 497t65 485.5t59.5 415t72.5 443t82.5 412.5q104 131 136 275l-250 16q-15 -58 -87 -358q-60 -41 -137.5 -85.5t-151.5 -82t-157.5 -81 t-159 -83t-152 -87.5t-140.5 -95.5t-120 -107t-94.5 -121.5t-60.5 -138.5t-22 -159.5zM970 2344l142 99q44 -95 98 -174t95 -124l-82 -74q-3 2 -8.5 5.5t-22 16.5t-34 27.5t-42 39t-47.5 50.5t-49.5 61.5t-49.5 72.5z" />
<glyph unicode="&#xcd;" horiz-adv-x="1304" d="M-85 624q0 86 25.5 165.5t61 141t105 126.5t123 107t152 100t155.5 87.5t167 85.5q289 147 406 228q72 300 87 358l250 -16q-31 -144 -135 -275q-45 -205 -83 -412.5t-73 -443t-59.5 -415t-64.5 -485.5t-67 -497h-224q25 161 67.5 449t66.5 443.5t59 373t70 402.5t75 367 q-67 -48 -154 -102t-162 -96t-158 -92.5t-150 -94.5t-129.5 -98.5t-104.5 -108.5t-67 -120t-25 -137q0 -129 74.5 -207.5t188.5 -78.5q94 0 153 61t59 142q0 54 -31.5 104t-90.5 80l94 156q121 -54 183 -149.5t62 -208.5q0 -74 -28.5 -144t-81 -125.5t-135 -89t-182.5 -33.5 q-131 0 -241 59t-174 163t-64 230zM1266 2145q41 46 95.5 125t97.5 173l143 -99q-32 -51 -69.5 -98t-69 -77.5t-58 -53.5t-41.5 -34l-16 -10z" />
<glyph unicode="&#xce;" horiz-adv-x="1302" d="M-85 624q0 86 25.5 165.5t61 141t105 126.5t123 107t152 100t155.5 87.5t167 85.5q289 147 406 228q72 300 87 358l250 -16q-31 -144 -135 -275q-45 -205 -83 -412.5t-73 -443t-59.5 -415t-64.5 -485.5t-67 -497h-224q25 161 67.5 449t66.5 443.5t59 373t70 402.5t75 367 q-67 -48 -154 -102t-162 -96t-158 -92.5t-150 -94.5t-129.5 -98.5t-104.5 -108.5t-67 -120t-25 -137q0 -129 74.5 -207.5t188.5 -78.5q94 0 153 61t59 142q0 54 -31.5 104t-90.5 80l94 156q121 -54 183 -149.5t62 -208.5q0 -74 -28.5 -144t-81 -125.5t-135 -89t-182.5 -33.5 q-131 0 -241 59t-174 163t-64 230zM1060 2180q55 39 102.5 77.5t76.5 65t49.5 47t29.5 30.5l8 10l94 -11q27 -40 52 -84.5t41.5 -78.5t30 -62.5t19.5 -43.5l6 -15l-140 -67q0 4 -1.5 11t-8 30.5t-15 49.5t-24.5 66t-36 82q-3 -5 -9 -14t-26 -35t-41 -51t-53 -57t-64 -57z " />
<glyph unicode="&#xcf;" horiz-adv-x="1283" d="M-85 624q0 -126 64 -230t174 -163t241 -59q100 0 182.5 33.5t135 89t81 125.5t28.5 144q0 113 -62 208.5t-183 149.5l-94 -156q59 -30 90.5 -80t31.5 -104q0 -81 -59 -142t-153 -61q-114 0 -188.5 78.5t-74.5 207.5q0 71 25 137t67 120t104.5 108.5t129.5 98.5t150 94.5 t158 92.5t162 96t154 102q-40 -182 -75 -367t-70 -402.5t-59 -373t-66.5 -443.5t-67.5 -449h224q25 176 57.5 422.5t53 403t50 363t55 364.5t59.5 342.5t72 357.5q104 131 135 275l-250 16q-15 -58 -87 -358q-59 -41 -137 -85.5t-151.5 -82t-157.5 -81t-159.5 -83 t-152 -87.5t-140 -95.5t-119.5 -107t-95 -121.5t-61 -138.5t-22 -159.5zM1119 2200q0 31 14 62t43 52t65 21q41 0 62 -25.5t21 -63.5q0 -51 -34 -93.5t-88 -42.5q-21 0 -37 7t-26 19.5t-15 28.5t-5 35zM1379 2200q0 50 33.5 92.5t87.5 42.5q40 0 61.5 -25.5t21.5 -63.5 q0 -51 -34 -93.5t-87 -42.5q-40 0 -61.5 25.5t-21.5 64.5z" />
<glyph unicode="&#xd0;" horiz-adv-x="2059" d="M68 1081q0 157 38.5 295.5t106 244.5t159.5 190.5t200.5 138t227 82t239.5 28.5q118 0 229 -22.5t213.5 -69t191 -114.5t161.5 -164t124.5 -213t79.5 -265t28 -317q0 -170 -32 -341.5t-91 -330t-149 -296.5t-200 -240t-250.5 -160.5t-292.5 -58.5q-323 0 -567 96 q-163 -107 -368 -107l59 332q48 0 102 -12.5t91 -26.5t102 -41q145 141 241 562q-127 17 -233 69.5t-181 129.5t-127 175.5t-77 208.5t-25 227zM269 1071q0 -97 18 -188t56 -174t92 -148.5t130.5 -111t168.5 -61.5q35 177 71 428q31 225 57.5 386t55.5 293.5t59 222.5 l214 -53q-108 -304 -173 -849q-32 -257 -73 -426q56 12 106.5 37t90 59t71.5 76t53 88.5t32 96.5t11 100q0 137 -77 241l169 151q120 -150 120 -344q0 -88 -26 -174.5t-77.5 -163.5t-123.5 -138t-170.5 -101.5t-210.5 -50.5q-116 -403 -314 -609q210 -76 452 -76 q121 0 229.5 51t191.5 140.5t149.5 210t109.5 261t65.5 292t22.5 303.5q0 228 -40 413t-110 312.5t-168.5 214t-213 126t-245.5 39.5q-157 0 -299 -65t-246.5 -178.5t-166 -278t-61.5 -352.5zM399 -44l21 120h640l-21 -120h-640z" />
<glyph unicode="&#xd1;" horiz-adv-x="2283" d="M-59 122q0 112 29 222t88 208t140.5 173t194 119t240.5 44q84 0 155.5 -24t123.5 -67.5t88.5 -102t54.5 -128t18 -146.5q0 -193 -110 -374l-192 105q98 164 98 322q0 61 -16.5 112.5t-47.5 89t-79 59t-109 21.5q-83 0 -158 -37.5t-131.5 -101.5t-98.5 -146.5t-63.5 -175 t-21.5 -184.5q0 -79 16 -150t51.5 -134.5t87 -109.5t128 -72.5t169.5 -26.5q122 0 236 52t208 144.5t174 219.5t139 278t98.5 318.5t56.5 342.5q-153 473 -153 845l195 37q85 -281 85 -685q29 -71 89.5 -212.5t111.5 -265t93 -236.5q55 340 154.5 635t225.5 509t280 336 t313 122q217 0 337 -131l-120 -188q-34 51 -95.5 77.5t-142.5 26.5q-87 0 -177 -51t-176 -147t-166.5 -241.5t-147 -325t-118.5 -407.5t-80 -480q72 -266 72 -621v-90h-197q-22 167 -22 326q0 103 7 202q-40 110 -136 347.5t-142 358.5q-22 -139 -56 -268.5t-84 -254 t-112 -230.5t-142.5 -195.5t-173 -152.5t-206.5 -98t-239 -35q-130 0 -237.5 35.5t-182 96t-126 142.5t-75 175t-23.5 194zM1814 1985q52 66 171 66q35 0 98 -7t86 -7q46 0 71 9.5t47 28.5l81 -103q-50 -64 -140 -64q-41 0 -122.5 23t-118.5 23q-64 0 -107 -46z" />
<glyph unicode="&#xd2;" horiz-adv-x="2559" d="M-16 956q0 -84 22.5 -165.5t66 -157.5t113.5 -141t159.5 -114.5t210 -78.5t258.5 -32q8 -136 35.5 -253.5t79 -219t123 -173t173 -112.5t224.5 -41q128 0 246 38.5t215 107.5t183 164t152 209.5t118.5 243.5t86.5 265.5t51.5 275.5t17.5 274q0 209 -41 387.5 t-127.5 314.5t-210.5 197l-41 -57q-97 141 -287 141q-93 0 -184 -31.5t-171 -89t-155 -138t-138 -178.5t-117.5 -209.5t-96.5 -233t-72 -246t-47 -252t-19 -248.5q-82 3 -156.5 17.5t-134.5 39t-111.5 57.5t-90 72.5t-68.5 83.5t-48.5 91.5t-28 95.5t-9.5 96q0 81 25.5 154 t72 129.5t119.5 90t161 33.5q105 0 179 -51l122 200q-51 31 -97.5 44t-111.5 13q-122 0 -228 -33.5t-182.5 -92t-131.5 -136.5t-82 -167t-27 -184zM1033 278q155 21 297.5 77.5t256 137.5t211 182t168 213t120 229.5t74 231t24.5 218.5q0 164 -58 278q93 -113 139.5 -298.5 t46.5 -413.5q0 -115 -12 -235t-35.5 -239.5t-57 -235t-79 -222t-98 -200.5t-117 -170.5t-134.5 -132t-151 -86t-166 -30.5q-86 0 -155.5 35.5t-118.5 98t-83 150.5t-51.5 190.5t-20.5 221.5zM1033 422q6 143 29 293.5t62.5 295.5t91 279.5t117 248t138.5 197.5t158.5 131.5 t173.5 47.5q87 0 131.5 -71.5t44.5 -193.5q0 -85 -21 -185.5t-63 -208.5t-100.5 -215t-139.5 -207t-174 -182t-209 -142.5t-239 -87.5zM1642 2344l142 99q44 -95 98 -174t95 -124l-82 -74q-3 2 -8.5 5.5t-22 16.5t-34 27.5t-42 39t-47.5 50.5t-49.5 61.5t-49.5 72.5z" />
<glyph unicode="&#xd3;" horiz-adv-x="2559" d="M-16 956q0 95 27 184t82 167t131.5 136.5t182.5 92t228 33.5q27 0 49 -2t42.5 -6t40 -11t38.5 -16t39 -22l-122 -200q-74 51 -179 51q-88 0 -161 -33.5t-119.5 -90t-72 -129.5t-25.5 -154q0 -78 23.5 -153.5t75 -146.5t126 -125.5t183.5 -89t239 -38.5q3 137 24 280 t57.5 282.5t90.5 273.5t119 251.5t145.5 217t168 171t189 111t206.5 39.5q190 0 287 -141l41 57q124 -61 210.5 -197t127.5 -314.5t41 -387.5q0 -135 -17.5 -274t-51.5 -275.5t-86.5 -265.5t-118.5 -243.5t-152 -209.5t-183 -164t-215 -107.5t-246 -38.5q-103 0 -191 28 t-155 80.5t-119 124.5t-87 162t-55.5 190.5t-27.5 213.5q-165 3 -304 44.5t-234.5 108t-162.5 154.5t-98 184.5t-31 197.5zM1033 278q2 -99 15 -186.5t36 -166t58.5 -141t81 -108t106 -70t132.5 -24.5q108 0 210.5 49.5t186 137t156 206t126.5 258t93 290.5t58.5 306.5 t19.5 303.5q0 228 -46.5 413.5t-139.5 298.5q58 -114 58 -278q0 -105 -24.5 -218.5t-74 -231t-120 -229.5t-168 -213t-211 -182t-256 -137.5t-297.5 -77.5zM1033 422q123 27 239 87.5t209 142.5t174 182t139.5 207t100.5 215t63 208.5t21 185.5q0 122 -44.5 193.5 t-131.5 71.5q-88 0 -173.5 -47.5t-158.5 -131.5t-138.5 -197.5t-117 -248t-91 -279.5t-62.5 -295.5t-29 -293.5zM1780 2191q40 45 94.5 124t97.5 174l143 -99q-18 -29 -38.5 -57.5t-39 -51t-38 -43.5t-36.5 -37.5t-32.5 -30.5t-27.5 -23.5t-21.5 -16.5t-14.5 -10l-4 -3z" />
<glyph unicode="&#xd4;" horiz-adv-x="2559" d="M-16 956q0 95 27 184t82 167t131.5 136.5t182.5 92t228 33.5q27 0 49 -2t42.5 -6t40 -11t38.5 -16t39 -22l-122 -200q-74 51 -179 51q-88 0 -161 -33.5t-119.5 -90t-72 -129.5t-25.5 -154q0 -78 23.5 -153.5t75 -146.5t126 -125.5t183.5 -89t239 -38.5q3 137 24 280 t57.5 282.5t90.5 273.5t119 251.5t145.5 217t168 171t189 111t206.5 39.5q190 0 287 -141l41 57q124 -61 210.5 -197t127.5 -314.5t41 -387.5q0 -135 -17.5 -274t-51.5 -275.5t-86.5 -265.5t-118.5 -243.5t-152 -209.5t-183 -164t-215 -107.5t-246 -38.5q-103 0 -191 28 t-155 80.5t-119 124.5t-87 162t-55.5 190.5t-27.5 213.5q-165 3 -304 44.5t-234.5 108t-162.5 154.5t-98 184.5t-31 197.5zM1033 278q2 -99 15 -186.5t36 -166t58.5 -141t81 -108t106 -70t132.5 -24.5q108 0 210.5 49.5t186 137t156 206t126.5 258t93 290.5t58.5 306.5 t19.5 303.5q0 228 -46.5 413.5t-139.5 298.5q58 -114 58 -278q0 -105 -24.5 -218.5t-74 -231t-120 -229.5t-168 -213t-211 -182t-256 -137.5t-297.5 -77.5zM1033 422q123 27 239 87.5t209 142.5t174 182t139.5 207t100.5 215t63 208.5t21 185.5q0 122 -44.5 193.5 t-131.5 71.5q-88 0 -173.5 -47.5t-158.5 -131.5t-138.5 -197.5t-117 -248t-91 -279.5t-62.5 -295.5t-29 -293.5zM1620 2248q55 40 102.5 78.5t76 65t49.5 47.5t29 31l8 10l94 -12q42 -64 79.5 -135t54.5 -110l16 -39l-140 -67q-2 10 -6 29t-26 81t-53 128q-3 -5 -9 -13.5 t-26 -34.5t-41 -51t-53 -56.5t-64 -56.5z" />
<glyph unicode="&#xd5;" horiz-adv-x="2559" d="M-16 956q0 95 27 184t82 167t131.5 136.5t182.5 92t228 33.5q27 0 49 -2t42.5 -6t40 -11t38.5 -16t39 -22l-122 -200q-74 51 -179 51q-88 0 -161 -33.5t-119.5 -90t-72 -129.5t-25.5 -154q0 -78 23.5 -153.5t75 -146.5t126 -125.5t183.5 -89t239 -38.5q3 137 24 280 t57.5 282.5t90.5 273.5t119 251.5t145.5 217t168 171t189 111t206.5 39.5q190 0 287 -141l41 57q124 -61 210.5 -197t127.5 -314.5t41 -387.5q0 -135 -17.5 -274t-51.5 -275.5t-86.5 -265.5t-118.5 -243.5t-152 -209.5t-183 -164t-215 -107.5t-246 -38.5q-103 0 -191 28 t-155 80.5t-119 124.5t-87 162t-55.5 190.5t-27.5 213.5q-165 3 -304 44.5t-234.5 108t-162.5 154.5t-98 184.5t-31 197.5zM1033 278q2 -99 15 -186.5t36 -166t58.5 -141t81 -108t106 -70t132.5 -24.5q108 0 210.5 49.5t186 137t156 206t126.5 258t93 290.5t58.5 306.5 t19.5 303.5q0 228 -46.5 413.5t-139.5 298.5q58 -114 58 -278q0 -105 -24.5 -218.5t-74 -231t-120 -229.5t-168 -213t-211 -182t-256 -137.5t-297.5 -77.5zM1033 422q123 27 239 87.5t209 142.5t174 182t139.5 207t100.5 215t63 208.5t21 185.5q0 122 -44.5 193.5 t-131.5 71.5q-88 0 -173.5 -47.5t-158.5 -131.5t-138.5 -197.5t-117 -248t-91 -279.5t-62.5 -295.5t-29 -293.5zM1608 2213q53 67 169 67q35 0 99 -7t87 -7q46 0 70.5 9.5t47.5 29.5l79 -103q-49 -64 -140 -64q-40 0 -121.5 23t-118.5 23q-63 0 -106 -46z" />
<glyph unicode="&#xd6;" horiz-adv-x="2559" d="M-16 956q0 -84 22.5 -165.5t66 -157.5t113.5 -141t159.5 -114.5t210 -78.5t258.5 -32q8 -136 35.5 -253.5t79 -219t123 -173t173 -112.5t224.5 -41q128 0 246 38.5t215 107.5t183 164t152 209.5t118.5 243.5t86.5 265.5t51.5 275.5t17.5 274q0 209 -41 387.5 t-127.5 314.5t-210.5 197l-41 -57q-97 141 -287 141q-93 0 -184 -31.5t-171 -89t-155 -138t-138 -178.5t-117.5 -209.5t-96.5 -233t-72 -246t-47 -252t-19 -248.5q-82 3 -156.5 17.5t-134.5 39t-111.5 57.5t-90 72.5t-68.5 83.5t-48.5 91.5t-28 95.5t-9.5 96q0 81 25.5 154 t72 129.5t119.5 90t161 33.5q105 0 179 -51l122 200q-51 31 -97.5 44t-111.5 13q-122 0 -228 -33.5t-182.5 -92t-131.5 -136.5t-82 -167t-27 -184zM1033 278q155 21 297.5 77.5t256 137.5t211 182t168 213t120 229.5t74 231t24.5 218.5q0 164 -58 278q93 -113 139.5 -298.5 t46.5 -413.5q0 -115 -12 -235t-35.5 -239.5t-57 -235t-79 -222t-98 -200.5t-117 -170.5t-134.5 -132t-151 -86t-166 -30.5q-86 0 -155.5 35.5t-118.5 98t-83 150.5t-51.5 190.5t-20.5 221.5zM1033 422q6 143 29 293.5t62.5 295.5t91 279.5t117 248t138.5 197.5t158.5 131.5 t173.5 47.5q87 0 131.5 -71.5t44.5 -193.5q0 -85 -21 -185.5t-63 -208.5t-100.5 -215t-139.5 -207t-174 -182t-209 -142.5t-239 -87.5zM1637 2200q0 50 34.5 92.5t88.5 42.5q27 0 46 -12.5t27.5 -32t8.5 -44.5q0 -51 -34 -93.5t-88 -42.5q-20 0 -36.5 7t-26.5 19.5t-15 28.5 t-5 35zM1897 2200q0 50 34 92.5t87 42.5q41 0 62 -25.5t21 -63.5q0 -51 -34 -93.5t-88 -42.5q-39 0 -60.5 25.5t-21.5 64.5z" />
<glyph unicode="&#xd7;" horiz-adv-x="508" d="M-2 429l183 181l-126 191l89 59l117 -172l170 168l74 -76l-181 -181l125 -183l-92 -65l-114 170l-167 -168z" />
<glyph unicode="&#xd8;" horiz-adv-x="2559" d="M-16 956q0 95 27 184t82 167t131.5 136.5t182.5 92t228 33.5q27 0 49 -2t42.5 -6t40 -11t38.5 -16t39 -22l-122 -200q-74 51 -179 51q-88 0 -161 -33.5t-119.5 -90t-72 -129.5t-25.5 -154q0 -78 23.5 -153.5t75 -146.5t126 -125.5t183.5 -89t239 -38.5q3 137 24 280 t57.5 282.5t90.5 273.5t119 251.5t145.5 217t168 171t189 111t206.5 39.5q190 0 287 -141l41 57q124 -61 210.5 -197t127.5 -314.5t41 -387.5q0 -135 -17.5 -274t-51.5 -275.5t-86.5 -265.5t-118.5 -243.5t-152 -209.5t-183 -164t-215 -107.5t-246 -38.5q-103 0 -191 28 t-155 80.5t-119 124.5t-87 162t-55.5 190.5t-27.5 213.5q-165 3 -304 44.5t-234.5 108t-162.5 154.5t-98 184.5t-31 197.5zM1033 278q2 -99 15 -186.5t36 -166t58.5 -141t81 -108t106 -70t132.5 -24.5q108 0 210.5 49.5t186 137t156 206t126.5 258t93 290.5t58.5 306.5 t19.5 303.5q0 228 -46.5 413.5t-139.5 298.5q58 -114 58 -278q0 -105 -24.5 -218.5t-74 -231t-120 -229.5t-168 -213t-211 -182t-256 -137.5t-297.5 -77.5zM1033 422q123 27 239 87.5t209 142.5t174 182t139.5 207t100.5 215t63 208.5t21 185.5q0 122 -44.5 193.5 t-131.5 71.5q-88 0 -173.5 -47.5t-158.5 -131.5t-138.5 -197.5t-117 -248t-91 -279.5t-62.5 -295.5t-29 -293.5zM1337 -674q49 277 258 1414t254 1400l142 -4q-74 -437 -248.5 -1403.5t-262.5 -1411.5z" />
<glyph unicode="&#xd9;" horiz-adv-x="1786" d="M-536 1119q0 198 73 367.5t201 287.5t307 184.5t384 66.5q166 0 299 -47.5t229.5 -140t148.5 -237t52 -331.5q0 -99 -22 -224.5t-55 -244t-71.5 -254t-72 -254t-55.5 -244t-22 -223.5q0 -29 5.5 -57.5t18 -56t37 -45t58.5 -17.5q55 0 109 43.5t100 118.5t87.5 166.5 t75.5 196.5t59 199.5t44 184.5q92 585 340 1475l200 -26q-25 -160 -71 -335.5t-79 -271.5l-34 -95q-72 -242 -144 -697t-72 -700q0 -86 13.5 -151.5t45.5 -107t81 -41.5q69 0 110 84.5t44 226.5l193 -4q-20 -226 -116.5 -337.5t-250.5 -111.5q-171 0 -243 118.5t-72 380.5 q0 60 2 92q-35 -97 -73 -180t-84.5 -160t-95.5 -131t-107 -86t-117 -32q-141 0 -211.5 92t-70.5 270q0 106 32.5 258.5t79 308t93 310.5t79.5 306.5t33 255.5q0 148 -38.5 267t-109.5 198t-171.5 121t-223.5 42q-155 0 -291.5 -61t-233.5 -166t-153.5 -252.5t-56.5 -314.5 q0 -108 24.5 -198.5t66 -153.5t97 -106.5t117.5 -64t128 -20.5q181 0 304 127.5t160 363.5l214 -51q-27 -143 -88.5 -254t-149 -181.5t-196.5 -106.5t-236 -36q-143 0 -264.5 49.5t-208.5 139t-136 220.5t-49 288zM1276 2344l142 99q44 -95 98 -174t95 -124l-83 -74 q-3 2 -8.5 5.5t-22 16.5t-33.5 27.5t-42 39t-47.5 50.5t-49 61.5t-49.5 72.5z" />
<glyph unicode="&#xda;" horiz-adv-x="1786" d="M-536 1119q0 198 73 367.5t201 287.5t307 184.5t384 66.5q166 0 299 -47.5t229.5 -140t148.5 -237t52 -331.5q0 -99 -22 -224.5t-55 -244t-71.5 -254t-72 -254t-55.5 -244t-22 -223.5q0 -29 5.5 -57.5t18 -56t37 -45t58.5 -17.5q55 0 109 43.5t100 118.5t87.5 166.5 t75.5 196.5t59 199.5t44 184.5q92 585 340 1475l200 -26q-25 -160 -71 -335.5t-79 -271.5l-34 -95q-72 -242 -144 -697t-72 -700q0 -86 13.5 -151.5t45.5 -107t81 -41.5q69 0 110 84.5t44 226.5l193 -4q-20 -226 -116.5 -337.5t-250.5 -111.5q-171 0 -243 118.5t-72 380.5 q0 60 2 92q-35 -97 -73 -180t-84.5 -160t-95.5 -131t-107 -86t-117 -32q-141 0 -211.5 92t-70.5 270q0 106 32.5 258.5t79 308t93 310.5t79.5 306.5t33 255.5q0 148 -38.5 267t-109.5 198t-171.5 121t-223.5 42q-155 0 -291.5 -61t-233.5 -166t-153.5 -252.5t-56.5 -314.5 q0 -108 24.5 -198.5t66 -153.5t97 -106.5t117.5 -64t128 -20.5q181 0 304 127.5t160 363.5l214 -51q-27 -143 -88.5 -254t-149 -181.5t-196.5 -106.5t-236 -36q-143 0 -264.5 49.5t-208.5 139t-136 220.5t-49 288zM1436 2167q40 45 94.5 125t97.5 174l143 -98 q-32 -52 -69.5 -99t-68.5 -77.5t-57.5 -53.5t-41.5 -33l-15 -11z" />
<glyph unicode="&#xdb;" horiz-adv-x="1786" d="M-536 1119q0 198 73 367.5t201 287.5t307 184.5t384 66.5q166 0 299 -47.5t229.5 -140t148.5 -237t52 -331.5q0 -99 -22 -224.5t-55 -244t-71.5 -254t-72 -254t-55.5 -244t-22 -223.5q0 -29 5.5 -57.5t18 -56t37 -45t58.5 -17.5q55 0 109 43.5t100 118.5t87.5 166.5 t75.5 196.5t59 199.5t44 184.5q92 585 340 1475l200 -26q-25 -160 -71 -335.5t-79 -271.5l-34 -95q-72 -242 -144 -697t-72 -700q0 -86 13.5 -151.5t45.5 -107t81 -41.5q69 0 110 84.5t44 226.5l193 -4q-20 -226 -116.5 -337.5t-250.5 -111.5q-171 0 -243 118.5t-72 380.5 q0 60 2 92q-35 -97 -73 -180t-84.5 -160t-95.5 -131t-107 -86t-117 -32q-141 0 -211.5 92t-70.5 270q0 106 32.5 258.5t79 308t93 310.5t79.5 306.5t33 255.5q0 148 -38.5 267t-109.5 198t-171.5 121t-223.5 42q-155 0 -291.5 -61t-233.5 -166t-153.5 -252.5t-56.5 -314.5 q0 -108 24.5 -198.5t66 -153.5t97 -106.5t117.5 -64t128 -20.5q181 0 304 127.5t160 363.5l214 -51q-27 -143 -88.5 -254t-149 -181.5t-196.5 -106.5t-236 -36q-143 0 -264.5 49.5t-208.5 139t-136 220.5t-49 288zM1252 2180q55 39 103 77.5t76.5 65t49.5 47t29 30.5l9 10 l94 -11q26 -40 51 -84.5t42 -78.5t30 -62.5t20 -43.5l6 -15l-140 -67q-2 11 -6.5 30t-26 81t-52.5 128q-4 -5 -9.5 -14t-25.5 -35t-41 -51t-53 -57t-64 -57z" />
<glyph unicode="&#xdc;" horiz-adv-x="1786" d="M-536 1119q0 198 73 367.5t201 287.5t307 184.5t384 66.5q166 0 299 -47.5t229.5 -140t148.5 -237t52 -331.5q0 -99 -22 -224.5t-55 -244t-71.5 -254t-72 -254t-55.5 -244t-22 -223.5q0 -29 5.5 -57.5t18 -56t37 -45t58.5 -17.5q55 0 109 43.5t100 118.5t87.5 166.5 t75.5 196.5t59 199.5t44 184.5q92 585 340 1475l200 -26q-25 -160 -71 -335.5t-79 -271.5l-34 -95q-72 -242 -144 -697t-72 -700q0 -86 13.5 -151.5t45.5 -107t81 -41.5q69 0 110 84.5t44 226.5l193 -4q-20 -226 -116.5 -337.5t-250.5 -111.5q-171 0 -243 118.5t-72 380.5 q0 60 2 92q-35 -97 -73 -180t-84.5 -160t-95.5 -131t-107 -86t-117 -32q-141 0 -211.5 92t-70.5 270q0 106 32.5 258.5t79 308t93 310.5t79.5 306.5t33 255.5q0 148 -38.5 267t-109.5 198t-171.5 121t-223.5 42q-155 0 -291.5 -61t-233.5 -166t-153.5 -252.5t-56.5 -314.5 q0 -108 24.5 -198.5t66 -153.5t97 -106.5t117.5 -64t128 -20.5q181 0 304 127.5t160 363.5l214 -51q-27 -143 -88.5 -254t-149 -181.5t-196.5 -106.5t-236 -36q-143 0 -264.5 49.5t-208.5 139t-136 220.5t-49 288zM1312 2200q0 50 34 92.5t88 42.5q27 0 46 -12.5t27.5 -32 t8.5 -44.5q0 -24 -8.5 -47.5t-23.5 -43.5t-38.5 -32.5t-51.5 -12.5q-40 0 -61 25.5t-21 64.5zM1571 2200q0 50 34 92.5t87 42.5q41 0 62 -25.5t21 -63.5q0 -51 -33.5 -93.5t-87.5 -42.5q-39 0 -61 25.5t-22 64.5z" />
<glyph unicode="&#xdd;" horiz-adv-x="1841" d="M-576 1119q0 198 73.5 367.5t201.5 287.5t306.5 184.5t384.5 66.5q132 0 244 -29.5t201.5 -90.5t152.5 -150.5t97 -212.5t34 -273q0 -109 -18 -247.5t-39.5 -247.5t-39 -233t-17.5 -206q0 -29 5.5 -58t18.5 -57t37.5 -45t57.5 -17q68 0 129 52.5t110 149.5t88.5 220.5 t71.5 277.5q8 56 21.5 154t21.5 153.5t21 143.5t22 141t22 127t23.5 121t24.5 103t27.5 94t29.5 72.5t32 57.5l186 -34q-9 -95 -27.5 -192t-38 -168.5t-38 -129t-30.5 -86.5l-12 -30q-17 -112 -49 -358q-73 -550 -127 -813q-126 -605 -344 -844q-161 -175 -382 -175 q-62 0 -112.5 19.5t-83 54.5t-49.5 82t-17 104q0 46 14 90.5t42.5 83.5t68.5 69t95.5 47.5t119.5 18.5l5 -182q-97 -12 -146 -60.5t-49 -106.5q0 -48 31 -76.5t79 -28.5q58 0 111 27.5t97 75.5t84.5 120t73 154.5t62.5 186t54 207t48 224.5q-74 -152 -167.5 -239.5 t-198.5 -87.5q-141 0 -211.5 92t-70.5 269q0 90 21 215.5t46 233t46 242t21 239.5q0 297 -146.5 462.5t-397.5 165.5q-154 0 -290 -61t-233.5 -166t-153.5 -252.5t-56 -314.5q0 -108 24 -198.5t66 -153.5t97.5 -106.5t117.5 -64t128 -20.5q181 0 303 127.5t160 363.5 l214 -51q-28 -143 -89 -254t-148.5 -181.5t-196.5 -106.5t-236 -36q-143 0 -264.5 49.5t-208.5 139t-136.5 220.5t-49.5 288zM1390 2145q41 45 95 124t98 174l142 -99q-23 -37 -49.5 -72.5t-50 -62t-47 -50t-42 -39t-33 -27t-22.5 -17.5l-8 -5z" />
<glyph unicode="&#xde;" horiz-adv-x="969" d="M11 307v115q29 0 90 5q66 355 144 821q-65 -37 -133 -94l-86 100q139 104 243 138l43 262h207l-40 -227q112 -1 201.5 -35t145.5 -92t85.5 -133t29.5 -160q0 -81 -25.5 -163t-79 -161.5t-129.5 -147t-183.5 -120.5t-234.5 -80l-62 -335h-214l65 309q-22 -2 -67 -2z M315 475q100 39 181.5 104.5t132.5 141.5t78 157t27 157q0 121 -66.5 199t-190.5 78h-16z" />
<glyph unicode="&#xdf;" horiz-adv-x="760" d="M-87 -218q0 177 39.5 462.5t96 560.5t118.5 514.5t106 345.5q34 78 89 118t120 40q46 0 89.5 -21t78.5 -59.5t56 -98.5t21 -132q0 -92 -20 -170t-49 -133t-57.5 -107t-48.5 -117t-20 -138q0 -53 20 -105t48 -97.5t56.5 -93t48.5 -109t20 -127.5q0 -90 -29 -153.5 t-86 -97.5t-137 -34q-61 0 -110 18t-81 47.5t-53.5 69t-31 82t-9.5 88.5q0 44 11 94l184 -24q-18 -77 -18 -127q0 -54 19 -85t56 -31q28 0 47 18t27.5 45.5t12 49t3.5 40.5q0 54 -15.5 104t-38 91.5t-44.5 87t-37.5 109.5t-15.5 140q0 62 20.5 128.5t49.5 127.5t58.5 127 t50 153t20.5 179q0 62 -18.5 94t-45.5 32q-20 0 -36.5 -18t-22.5 -48q-57 -171 -164.5 -633t-161.5 -824q102 -70 153 -175.5t51 -216.5q0 -82 -26 -151t-73.5 -111.5t-106.5 -42.5q-35 0 -63.5 7t-57.5 27t-48.5 53.5t-32 91t-12.5 135.5zM87 -248q0 -170 55 -170 q36 0 57.5 45t21.5 112q0 49 -12 99t-38 100.5t-63 89.5q-21 -158 -21 -276z" />
<glyph unicode="&#xe0;" horiz-adv-x="795" d="M-37 269q0 -133 39.5 -212t119.5 -79q167 0 266 261v-26q0 -224 115 -224q80 0 166.5 127t190.5 400q0 9 -25.5 20.5t-38.5 11.5q-26 -69 -53 -128t-50 -101t-44 -75t-37.5 -52t-28.5 -29t-19 -10q-19 0 -19 51q0 28 6 60q53 373 145 780h-164l-25 -129q-23 153 -150 153 q-63 0 -124.5 -51.5t-109 -136.5t-84.5 -189.5t-56.5 -215t-19.5 -206.5zM156 291q0 77 20 183.5t50 201.5t69.5 161.5t74.5 66.5q70 0 70 -145q0 -105 -36.5 -243.5t-93 -241t-106.5 -102.5q-48 0 -48 119zM186 1381l142 99q44 -95 98 -174t95 -124l-83 -74q-6 3 -16 10.5 t-40 32.5t-59 54t-67.5 77t-69.5 99z" />
<glyph unicode="&#xe1;" horiz-adv-x="795" d="M-37 269q0 96 19.5 206.5t56.5 215t84.5 189.5t109 136.5t124.5 51.5q127 0 150 -153l25 129h164q-92 -407 -145 -780q-6 -32 -6 -60q0 -51 19 -51q9 0 24 13.5t38 44.5t48.5 74.5t58 112t63.5 150.5q13 0 38.5 -11.5t25.5 -20.5q-104 -273 -190.5 -400t-166.5 -127 q-115 0 -115 224v26q-99 -261 -266 -261q-80 0 -119.5 79t-39.5 212zM156 291q0 -119 48 -119q50 0 106.5 102.5t93 241t36.5 243.5q0 145 -70 145q-35 0 -74.5 -66.5t-69.5 -161.5t-50 -201.5t-20 -183.5zM300 1182q41 45 95 124t98 174l142 -99q-31 -51 -68.5 -98.5 t-69 -77.5t-58 -53.5t-41.5 -33.5l-15 -10z" />
<glyph unicode="&#xe2;" horiz-adv-x="795" d="M-37 269q0 96 19.5 206.5t56.5 215t84.5 189.5t109 136.5t124.5 51.5q127 0 150 -153l25 129h164q-92 -407 -145 -780q-6 -32 -6 -60q0 -51 19 -51q9 0 24 13.5t38 44.5t48.5 74.5t58 112t63.5 150.5q13 0 38.5 -11.5t25.5 -20.5q-104 -273 -190.5 -400t-166.5 -127 q-115 0 -115 224v26q-99 -261 -266 -261q-80 0 -119.5 79t-39.5 212zM156 291q0 -119 48 -119q50 0 106.5 102.5t93 241t36.5 243.5q0 145 -70 145q-35 0 -74.5 -66.5t-69.5 -161.5t-50 -201.5t-20 -183.5zM162 1215q56 40 103.5 78.5t76.5 65t49.5 47.5t29.5 31l8 10 l94 -11q42 -64 79 -135.5t54 -110.5l16 -39l-140 -66q-2 10 -6 29t-26 81.5t-53 128.5q-3 -5 -9 -14t-26 -35.5t-41 -51t-53 -56.5t-64 -57z" />
<glyph unicode="&#xe3;" horiz-adv-x="795" d="M-37 269q0 96 19.5 206.5t56.5 215t84.5 189.5t109 136.5t124.5 51.5q127 0 150 -153l25 129h164q-92 -407 -145 -780q-6 -32 -6 -60q0 -51 19 -51q9 0 24 13.5t38 44.5t48.5 74.5t58 112t63.5 150.5q13 0 38.5 -11.5t25.5 -20.5q-104 -273 -190.5 -400t-166.5 -127 q-115 0 -115 224v26q-99 -261 -266 -261q-80 0 -119.5 79t-39.5 212zM156 291q0 -119 48 -119q50 0 106.5 102.5t93 241t36.5 243.5q0 145 -70 145q-35 0 -74.5 -66.5t-69.5 -161.5t-50 -201.5t-20 -183.5zM175 1228q52 66 169 66q35 0 99 -7t87 -7q45 0 70 10t47 29 l80 -104q-49 -64 -140 -64q-41 0 -122 23t-119 23q-62 0 -105 -46z" />
<glyph unicode="&#xe4;" horiz-adv-x="795" d="M-37 269q0 -133 39.5 -212t119.5 -79q167 0 266 261v-26q0 -224 115 -224q80 0 166.5 127t190.5 400q0 9 -25.5 20.5t-38.5 11.5q-26 -69 -53 -128t-50 -101t-44 -75t-37.5 -52t-28.5 -29t-19 -10q-19 0 -19 51q0 28 6 60q53 373 145 780h-164l-25 -129q-23 153 -150 153 q-63 0 -124.5 -51.5t-109 -136.5t-84.5 -189.5t-56.5 -215t-19.5 -206.5zM156 291q0 77 20 183.5t50 201.5t69.5 161.5t74.5 66.5q70 0 70 -145q0 -105 -36.5 -243.5t-93 -241t-106.5 -102.5q-48 0 -48 119zM204 1213q0 50 34 92.5t88 42.5q41 0 62 -25t21 -64 q0 -32 -14.5 -62.5t-43 -51.5t-64.5 -21q-41 0 -62 25t-21 64zM464 1213q0 50 33.5 92.5t87.5 42.5q40 0 61.5 -25t21.5 -64q0 -50 -34.5 -92.5t-88.5 -42.5q-39 0 -60 25.5t-21 63.5z" />
<glyph unicode="&#xe5;" horiz-adv-x="795" d="M-37 269q0 96 19.5 206.5t56.5 215t84.5 189.5t109 136.5t124.5 51.5q127 0 150 -153l25 129h164q-92 -407 -145 -780q-6 -32 -6 -60q0 -51 19 -51q9 0 24 13.5t38 44.5t48.5 74.5t58 112t63.5 150.5q13 0 38.5 -11.5t25.5 -20.5q-104 -273 -190.5 -400t-166.5 -127 q-115 0 -115 224v26q-99 -261 -266 -261q-80 0 -119.5 79t-39.5 212zM156 291q0 -119 48 -119q50 0 106.5 102.5t93 241t36.5 243.5q0 145 -70 145q-35 0 -74.5 -66.5t-69.5 -161.5t-50 -201.5t-20 -183.5zM186 1177q0 38 15.5 75t44 67.5t73 49.5t97.5 19q86 0 132 -45.5 t46 -110.5q0 -30 -9.5 -59.5t-29.5 -56.5t-47 -48t-65 -33t-82 -12q-85 0 -130 44.5t-45 109.5zM273 1182q0 -25 10 -45.5t32 -33.5t52 -13q61 0 98.5 43t37.5 95q0 38 -24.5 64.5t-69.5 26.5q-62 0 -99 -42.5t-37 -94.5z" />
<glyph unicode="&#xe6;" horiz-adv-x="1024" d="M-37 269q0 96 20 206.5t57 215t84.5 189.5t109 136.5t123.5 51.5q64 0 112 -41t72 -116q100 157 241 157q82 0 127 -52.5t45 -135.5q0 -49 -16 -102t-50 -105t-81.5 -96t-115 -77t-146.5 -45v-35q0 -72 14 -125.5t47 -88t84 -34.5q99 0 183 97.5t152 278.5 q12 0 38.5 -11.5t26.5 -20.5q-27 -71 -49.5 -124.5t-51.5 -112.5t-55.5 -101t-60.5 -82t-69.5 -64.5t-78.5 -39t-90 -14.5q-96 0 -153 53.5t-79 147.5q-49 -104 -107 -152.5t-131 -48.5q-202 0 -202 291zM156 291q0 -119 48 -119q51 0 106 104t89 242.5t34 245.5 q0 140 -63 140q-35 0 -74.5 -66.5t-69.5 -161.5t-50 -201.5t-20 -183.5zM553 541q62 30 111.5 74.5t78 90t43.5 88t15 75.5q0 26 -10 41.5t-27 15.5q-45 0 -89.5 -57t-75.5 -144t-46 -184z" />
<glyph unicode="&#xe7;" horiz-adv-x="666" d="M-13 379q0 94 18 191.5t54.5 186.5t85.5 158.5t115.5 111t140.5 41.5q93 0 138.5 -65.5t45.5 -172.5q0 -148 -75 -309l-147 78q34 58 54.5 127t20.5 121q0 79 -46 79q-57 0 -109.5 -77t-82.5 -190.5t-30 -222.5q0 -76 16 -133t53.5 -94t93.5 -37q85 0 173 96t162 280 q12 0 37.5 -11.5t25.5 -20.5q-16 -43 -35.5 -87.5t-48.5 -99t-60 -102.5t-71 -94.5t-81.5 -80t-91.5 -54t-100 -20.5q-65 0 -115 31.5t-80.5 87t-45.5 127t-15 155.5zM53 -346l103 53q12 -38 41 -60.5t70 -22.5q44 0 71 30t27 68q0 22 -9 40t-30 30.5t-50 12.5 q-22 0 -38.5 -4t-25 -9t-23.5 -15l-24 -16l-34 49q36 36 50.5 78.5t26.5 120.5l70 -11q-9 -81 -30 -134q15 3 45 3q85 0 130 -43t45 -106q0 -73 -58 -130.5t-156 -57.5q-75 0 -132 37.5t-69 86.5z" />
<glyph unicode="&#xe8;" horiz-adv-x="655" d="M-16 376q0 -83 16.5 -153.5t49.5 -126t88.5 -87t128.5 -31.5q47 0 90 14.5t78 39t69 64.5t60.5 82t55.5 101t51 112.5t49 124.5q0 9 -25.5 20.5t-38.5 11.5q-67 -181 -151 -278.5t-184 -97.5q-50 0 -83.5 34.5t-47 88t-13.5 125.5v35q78 12 146 45t115 77t81 96t50 105 t16 102q0 83 -44.5 135.5t-127.5 52.5q-74 0 -142.5 -41.5t-119.5 -112t-89 -159.5t-58 -187t-20 -192zM138 1381l142 99q30 -66 70.5 -131t69 -102.5t53.5 -64.5l-83 -74q-6 3 -16 10.5t-40.5 32.5t-59 54t-67 77t-69.5 99zM184 541q14 97 45 184t75.5 144t89.5 57 q17 0 27 -15.5t10 -41.5t-9 -58.5t-28.5 -69.5t-48 -72t-70.5 -69.5t-91 -58.5z" />
<glyph unicode="&#xe9;" horiz-adv-x="655" d="M-16 376q0 94 20 192t58 187t89 159.5t119.5 112t142.5 41.5q83 0 127.5 -52.5t44.5 -135.5q0 -49 -16 -102t-50 -105t-81 -96t-115 -77t-146 -45v-35q0 -72 13.5 -125.5t47 -88t83.5 -34.5q100 0 184 97.5t151 278.5q13 0 38.5 -11.5t25.5 -20.5q-23 -62 -43 -109.5 t-44 -100.5t-47 -92.5t-50.5 -79t-56.5 -66t-62 -48.5t-71 -32t-79 -10q-59 0 -106.5 20.5t-80 57t-54.5 87t-32 109t-10 124.5zM184 541q61 30 110.5 74.5t78 90t43.5 88t15 75.5q0 26 -10 41.5t-27 15.5q-45 0 -89.5 -57t-75.5 -144t-45 -184zM276 1182q40 45 94 124 t98 174l142 -99q-22 -38 -48.5 -73t-50.5 -61.5t-47.5 -50t-42 -39.5t-33.5 -27.5t-23 -16.5l-8 -5z" />
<glyph unicode="&#xea;" horiz-adv-x="655" d="M-16 376q0 94 20 192t58 187t89 159.5t119.5 112t142.5 41.5q83 0 127.5 -52.5t44.5 -135.5q0 -49 -16 -102t-50 -105t-81 -96t-115 -77t-146 -45v-35q0 -72 13.5 -125.5t47 -88t83.5 -34.5q100 0 184 97.5t151 278.5q13 0 38.5 -11.5t25.5 -20.5q-23 -62 -43 -109.5 t-44 -100.5t-47 -92.5t-50.5 -79t-56.5 -66t-62 -48.5t-71 -32t-79 -10q-59 0 -106.5 20.5t-80 57t-54.5 87t-32 109t-10 124.5zM147 1215q40 29 76.5 57.5t62.5 51t48 42.5t36.5 34.5t24.5 25.5t14 16l4 5l94 -11q42 -64 79.5 -135.5t53.5 -110.5l16 -39l-140 -66 q-1 10 -5.5 29t-26 81.5t-53.5 128.5q-3 -5 -9 -14t-25.5 -35.5t-40.5 -51t-53 -56.5t-64 -57zM184 541q61 30 110.5 74.5t78 90t43.5 88t15 75.5q0 26 -10 41.5t-27 15.5q-45 0 -89.5 -57t-75.5 -144t-45 -184z" />
<glyph unicode="&#xeb;" horiz-adv-x="655" d="M-16 376q0 -83 16.5 -153.5t49.5 -126t88.5 -87t128.5 -31.5q47 0 90 14.5t78 39t69 64.5t60.5 82t55.5 101t51 112.5t49 124.5q0 9 -25.5 20.5t-38.5 11.5q-67 -181 -151 -278.5t-184 -97.5q-50 0 -83.5 34.5t-47 88t-13.5 125.5v35q78 12 146 45t115 77t81 96t50 105 t16 102q0 83 -44.5 135.5t-127.5 52.5q-74 0 -142.5 -41.5t-119.5 -112t-89 -159.5t-58 -187t-20 -192zM184 541q14 97 45 184t75.5 144t89.5 57q17 0 27 -15.5t10 -41.5t-9 -58.5t-28.5 -69.5t-48 -72t-70.5 -69.5t-91 -58.5zM248 1241q0 68 45 124.5t116 56.5 q54 0 80.5 -33.5t26.5 -85.5q0 -68 -45 -123.5t-116 -55.5q-35 0 -60 17t-36 42.5t-11 57.5zM477 1241q0 68 44.5 124.5t115.5 56.5q37 0 62 -17t36 -43t11 -59q0 -68 -45 -123.5t-116 -55.5q-53 0 -80.5 33.5t-27.5 83.5z" />
<glyph unicode="&#xec;" horiz-adv-x="437" d="M-32 261q0 -272 165 -272q36 0 68.5 14t57.5 33t52 58t44.5 69t42.5 87t38 90.5t38 100.5q6 17 9.5 26t9 23.5t10.5 25.5v3q0 8 -27 18.5t-38 10.5q-150 -392 -236 -392q-46 0 -46 78q0 35 3.5 76.5t7.5 77.5t14.5 93.5t17 93.5t22.5 109t24 109t28.5 125t28.5 128h-194 q-2 -8 -28.5 -114.5t-39.5 -165.5t-33 -160.5t-29.5 -187t-9.5 -157.5zM-9 1381l142 99q44 -95 98 -174t95 -124l-83 -74q-3 2 -8 5.5t-22 16.5t-34 27.5t-41.5 38.5t-47.5 50t-49.5 61.5t-49.5 73.5z" />
<glyph unicode="&#xed;" horiz-adv-x="437" d="M-32 261q0 72 9.5 157.5t29.5 187t33 160.5t39.5 165.5t28.5 114.5h194q-9 -40 -26 -114.5t-25 -111.5t-22 -100t-21 -99t-17 -87.5t-15.5 -86t-10.5 -75t-7 -74t-2 -64.5q0 -78 46 -78q86 0 236 392q11 0 38 -10.5t27 -18.5v-3q-10 -25 -29 -75q-25 -67 -38 -100.5 t-38 -90.5t-42.5 -87t-44.5 -69t-52 -58t-57.5 -33t-68.5 -14q-165 0 -165 272zM83 1182q41 45 95 124t98 174l142 -99q-32 -51 -69.5 -98.5t-68.5 -77.5t-58 -53.5t-42 -33.5l-15 -10z" />
<glyph unicode="&#xee;" horiz-adv-x="437" d="M-32 261q0 72 9.5 157.5t29.5 187t33 160.5t39.5 165.5t28.5 114.5h194q-9 -40 -26 -114.5t-25 -111.5t-22 -100t-21 -99t-17 -87.5t-15.5 -86t-10.5 -75t-7 -74t-2 -64.5q0 -78 46 -78q86 0 236 392q11 0 38 -10.5t27 -18.5v-3q-10 -25 -29 -75q-25 -67 -38 -100.5 t-38 -90.5t-42.5 -87t-44.5 -69t-52 -58t-57.5 -33t-68.5 -14q-165 0 -165 272zM-32 1215q55 40 102.5 78.5t76.5 65t49.5 47.5t29.5 31l8 10l94 -11q42 -64 79 -135.5t54 -110.5l16 -39l-140 -66q-2 10 -6 29t-26 81.5t-53 128.5q-3 -5 -9 -14t-26 -35.5t-41 -51t-53 -56.5 t-64 -57z" />
<glyph unicode="&#xef;" horiz-adv-x="334" d="M-32 261q0 -272 165 -272q36 0 68.5 14t57.5 33t52 58t44.5 69t42.5 87t38 90.5t38 100.5q6 17 9.5 26t9 23.5t10.5 25.5v3q0 8 -27 18.5t-38 10.5q-150 -392 -236 -392q-46 0 -46 78q0 35 3.5 76.5t7.5 77.5t14.5 93.5t17 93.5t22.5 109t24 109t28.5 125t28.5 128h-194 q-2 -8 -28.5 -114.5t-39.5 -165.5t-33 -160.5t-29.5 -187t-9.5 -157.5zM13 1213q0 50 34.5 92.5t88.5 42.5q27 0 46 -12.5t27.5 -32t8.5 -44.5q0 -32 -14 -62.5t-42.5 -51.5t-65.5 -21q-40 0 -61.5 25t-21.5 64zM273 1213q0 50 34 92.5t87 42.5q41 0 62 -25t21 -64 q0 -32 -14 -62.5t-43 -51.5t-65 -21q-26 0 -45 12.5t-28 32t-9 44.5z" />
<glyph unicode="&#xf0;" horiz-adv-x="792" d="M-37 269q0 97 19.5 207t56 214.5t84 189.5t108.5 136.5t124 51.5q127 0 150 -153q39 203 48 344q-78 -23 -157 -29l-15 118q89 3 170 26q-6 41 -25 69t-44.5 40t-57.5 12q-38 0 -78.5 -18t-74.5 -52l-99 116q122 92 250 92q92 0 163 -51t103 -151q29 19 53 40t34 33l9 12 l76 -73q-5 -7 -15.5 -19t-49.5 -44t-86 -58q0 -8 1 -24.5t1 -24.5q0 -231 -74 -514q-61 -346 -61 -466q0 -66 23 -66q71 0 195 321q7 0 22 -5t28.5 -12.5t13.5 -14.5q-104 -272 -191.5 -399.5t-166.5 -127.5q-57 0 -86 54t-29 170v26q-98 -261 -263 -261q-54 0 -90.5 39 t-52.5 103t-16 149zM156 291q0 -119 46 -119q50 0 106.5 102.5t93 241t36.5 243.5q0 145 -71 145q-35 0 -74 -67t-68.5 -162t-49 -201t-19.5 -183z" />
<glyph unicode="&#xf1;" horiz-adv-x="781" d="M-114 0q2 23 7 62.5t26.5 140.5t50.5 178q67 377 113 665h197l-26 -153q28 41 59 74t64 56t68.5 35.5t70.5 12.5q63 0 98.5 -41t35.5 -122q0 -71 -23.5 -168.5t-52 -178t-51.5 -172.5t-23 -155q0 -78 45 -78q87 0 237 392q12 0 38.5 -11.5t26.5 -20.5 q-29 -74 -44.5 -112.5t-44.5 -104.5t-49.5 -101.5t-52 -81.5t-60 -69.5t-65.5 -40.5t-76 -17q-66 0 -111.5 52.5t-45.5 151.5q0 83 23 185t51 180t51.5 163t23.5 139q0 46 -36 46q-23 0 -50.5 -23t-59 -70.5t-64.5 -135t-60 -202.5l-92 -475h-199zM162 1228q52 66 171 66 q35 0 98.5 -7t87.5 -7q16 0 29.5 1.5t24 4t19 5.5t16.5 8t14 9.5t13 10.5l81 -104q-50 -64 -140 -64q-41 0 -122.5 23t-118.5 23q-62 0 -105 -46z" />
<glyph unicode="&#xf2;" horiz-adv-x="751" d="M-18 351q0 -108 23 -190t75 -132.5t128 -50.5q109 0 196 68.5t147 196.5q85 30 156 101.5t109 171.5q0 9 -25.5 20.5t-37.5 11.5q-56 -145 -157 -193q58 194 58 330q0 63 -9.5 119.5t-29 105t-47 83.5t-65.5 55t-83 20q-78 0 -139.5 -46.5t-96.5 -119t-48 -164.5l-83 21 q-71 -208 -71 -408zM144 381q0 46 7 98q26 -86 73.5 -149t117.5 -89q-47 -76 -86 -88q-6 -2 -17 -2q-43 0 -69 63.5t-26 166.5zM243 1381l142 99q31 -66 71 -131t69 -102.5t53 -64.5l-83 -74q-6 3 -16 10.5t-40 32.5t-59 54t-67.5 77t-69.5 99zM250 610q0 55 9.5 109 t25.5 96.5t38 71t47 33.5q2 0 7.5 1t7.5 1q46 0 68 -49t22 -132q0 -90 -23.5 -200.5t-61.5 -203.5q-50 15 -82 57.5t-45 96.5t-13 119z" />
<glyph unicode="&#xf3;" horiz-adv-x="740" d="M-41 351q0 197 71 408l82 -21q13 92 48.5 164.5t96.5 119t139 46.5q75 0 129 -53t80 -138.5t26 -191.5q0 -140 -58 -330q100 47 156 193q7 0 22.5 -5t29 -12.5t13.5 -14.5q-38 -100 -109.5 -171.5t-156.5 -101.5q-40 -85 -91 -143.5t-115 -90t-136 -31.5 q-76 0 -128.5 50.5t-75.5 132.5t-23 190zM122 381q0 -68 11.5 -120t33 -81t49.5 -29q11 0 18 2q39 12 85 88q-69 26 -117 89t-73 149q-7 -52 -7 -98zM227 610q0 -65 13 -119t45.5 -96.5t81.5 -57.5q38 92 61 202.5t23 201.5q0 83 -21.5 132t-66.5 49q-2 0 -8.5 -1t-8.5 -1 q-49 -10 -84 -103.5t-35 -206.5zM267 1182q40 45 94 124t98 174l142 -99q-31 -51 -68.5 -98.5t-69 -77.5t-58 -53.5t-41.5 -33.5l-16 -10z" />
<glyph unicode="&#xf4;" horiz-adv-x="751" d="M-18 351q0 200 71 408l83 -21q13 92 48 164.5t96.5 119t139.5 46.5q74 0 128 -53t80 -138.5t26 -191.5q0 -136 -58 -330q101 48 157 193q12 0 37.5 -11.5t25.5 -20.5q-25 -67 -67 -122.5t-92 -93t-106 -57.5q-60 -128 -147 -196.5t-196 -68.5q-76 0 -128 50.5t-75 132.5 t-23 190zM144 381q0 -51 7 -93.5t19 -72.5t29.5 -47t39.5 -17q11 0 17 2q39 12 86 88q-70 26 -117.5 89t-73.5 149q-7 -52 -7 -98zM197 1215q88 63 154.5 121t89.5 85l23 26l94 -11q42 -64 79 -135.5t53 -110.5l17 -39l-140 -66q-2 10 -6.5 29t-26 81.5t-52.5 128.5 q-4 -5 -10 -14t-25.5 -35.5t-40.5 -51t-53 -56.5t-64 -57zM250 610q0 -65 13 -119t45 -96.5t82 -57.5q25 61 44 131.5t30 141.5t11 131q0 54 -9 93.5t-29.5 63.5t-51.5 24q-2 0 -7.5 -1t-7.5 -1q-49 -10 -84.5 -104t-35.5 -206z" />
<glyph unicode="&#xf5;" horiz-adv-x="751" d="M-18 351q0 200 71 408l83 -21q13 92 48 164.5t96.5 119t139.5 46.5q74 0 128 -53t80 -138.5t26 -191.5q0 -136 -58 -330q101 48 157 193q12 0 37.5 -11.5t25.5 -20.5q-25 -67 -67 -122.5t-92 -93t-106 -57.5q-60 -128 -147 -196.5t-196 -68.5q-76 0 -128 50.5t-75 132.5 t-23 190zM144 381q0 -51 7 -93.5t19 -72.5t29.5 -47t39.5 -17q11 0 17 2q39 12 86 88q-70 26 -117.5 89t-73.5 149q-7 -52 -7 -98zM162 1228q52 66 171 66q35 0 98.5 -7t87.5 -7q16 0 29.5 1.5t24 4t19 5.5t16.5 8t14 9.5t13 10.5l81 -104q-50 -64 -140 -64q-41 0 -122.5 23 t-118.5 23q-62 0 -105 -46zM250 610q0 -65 13 -119t45 -96.5t82 -57.5q25 61 44 131.5t30 141.5t11 131q0 54 -9 93.5t-29.5 63.5t-51.5 24q-2 0 -7.5 -1t-7.5 -1q-49 -10 -84.5 -104t-35.5 -206z" />
<glyph unicode="&#xf6;" horiz-adv-x="740" d="M-41 351q0 -108 23 -190t75.5 -132.5t128.5 -50.5q108 0 195 68.5t147 196.5q85 30 156.5 101.5t109.5 171.5q0 9 -26.5 20.5t-38.5 11.5q-56 -146 -156 -193q58 190 58 330q0 79 -15.5 147.5t-44 121.5t-74 83.5t-101.5 30.5q-78 0 -139 -46.5t-96.5 -119t-48.5 -164.5 l-82 21q-71 -211 -71 -408zM122 381q0 46 7 98q25 -86 73 -149t117 -89q-46 -76 -85 -88q-7 -2 -18 -2q-42 0 -68 63.5t-26 166.5zM181 1213q0 50 34 92.5t87 42.5q41 0 62 -25t21 -64q0 -51 -33.5 -93t-87.5 -42q-40 0 -61.5 25t-21.5 64zM227 610q0 113 35 206.5t84 103.5 q2 0 8.5 1t8.5 1q31 0 51 -24.5t28.5 -63.5t8.5 -93q0 -91 -23 -201.5t-61 -202.5q-49 15 -81.5 57.5t-45.5 96.5t-13 119zM440 1213q0 50 34 92.5t88 42.5q41 0 61.5 -25t20.5 -64q0 -32 -14 -62t-42.5 -51.5t-64.5 -21.5q-39 0 -61 25.5t-22 63.5z" />
<glyph unicode="&#xf7;" horiz-adv-x="554" d="M32 530h480l20 120h-479zM136 302q0 51 33.5 93.5t86.5 42.5q41 0 62 -25.5t21 -64.5q0 -50 -33.5 -92.5t-87.5 -42.5q-40 0 -61 25.5t-21 63.5zM227 832q0 51 34 93.5t87 42.5q41 0 62 -25.5t21 -64.5q0 -50 -34 -92t-88 -42q-26 0 -45 12t-28 31.5t-9 44.5z" />
<glyph unicode="&#xf8;" horiz-adv-x="751" d="M-18 351q0 200 71 408l83 -21q13 92 48 164.5t96.5 119t139.5 46.5q74 0 128 -53t80 -138.5t26 -191.5q0 -136 -58 -330q101 48 157 193q12 0 37.5 -11.5t25.5 -20.5q-25 -67 -67 -122.5t-92 -93t-106 -57.5q-60 -128 -147 -196.5t-196 -68.5q-76 0 -128 50.5t-75 132.5 t-23 190zM18 -9q154 244 278 515.5t238 585.5l97 -50q-244 -534 -569 -1072zM144 381q0 -51 7 -93.5t19 -72.5t29.5 -47t39.5 -17q11 0 17 2q39 12 86 88q-70 26 -117.5 89t-73.5 149q-7 -52 -7 -98zM250 610q0 -65 13 -119t45 -96.5t82 -57.5q25 61 44 131.5t30 141.5 t11 131q0 54 -9 93.5t-29.5 63.5t-51.5 24q-2 0 -7.5 -1t-7.5 -1q-49 -10 -84.5 -104t-35.5 -206z" />
<glyph unicode="&#xf9;" horiz-adv-x="799" d="M-35 252q0 -263 164 -263q121 0 206 188q22 -188 160 -188q36 0 68.5 14t57.5 33t52 58t44.5 69t42 87t38 90.5t38.5 100.5q19 50 29 75v3q0 8 -26.5 18.5t-37.5 10.5q-150 -392 -237 -392q-45 0 -45 78q0 35 3 76.5t7.5 77.5t14.5 93.5t17 93.5t23 109t24 109t28.5 125 t28.5 128h-195q-72 -297 -105 -479l-14 -76q-24 -97 -53 -175t-55.5 -119t-45.5 -41q-46 0 -46 78q0 99 46 328q26 131 51.5 252t38.5 176l13 56h-195q-46 -182 -103 -479q-37 -202 -37 -315zM193 1381l142 99q44 -95 98 -174t95 -124l-83 -74q-6 3 -16 10.5t-40.5 32.5 t-59.5 54t-67 77t-69 99z" />
<glyph unicode="&#xfa;" horiz-adv-x="799" d="M-35 252q0 113 37 315q26 132 51.5 252t38.5 173l13 54h195q-46 -191 -103 -484q-46 -229 -46 -328q0 -78 46 -78q29 0 74 95t80 240l14 76q33 182 105 479h195q-9 -40 -26 -114.5t-25 -111.5t-22 -100t-21 -99t-17.5 -87.5t-15.5 -86t-10 -75t-7 -74t-2 -64.5 q0 -78 45 -78q87 0 237 392q4 0 14.5 -3t21.5 -7t19.5 -9.5t8.5 -9.5v-3q-10 -25 -29 -75q-22 -59 -33.5 -88t-33 -80.5t-36 -79t-37 -66t-43 -58.5t-45.5 -41.5t-53.5 -30t-59.5 -8.5q-138 0 -160 188q-85 -188 -206 -188q-164 0 -164 263zM261 1182q42 46 96 125t98 173 l141 -99q-32 -51 -69.5 -98.5t-68.5 -77.5t-57.5 -53.5t-41.5 -33.5l-15 -10z" />
<glyph unicode="&#xfb;" horiz-adv-x="799" d="M-35 252q0 113 37 315q26 132 51.5 252t38.5 173l13 54h195q-46 -191 -103 -484q-46 -229 -46 -328q0 -78 46 -78q29 0 74 95t80 240l14 76q33 182 105 479h195q-9 -40 -26 -114.5t-25 -111.5t-22 -100t-21 -99t-17.5 -87.5t-15.5 -86t-10 -75t-7 -74t-2 -64.5 q0 -78 45 -78q87 0 237 392q4 0 14.5 -3t21.5 -7t19.5 -9.5t8.5 -9.5v-3q-10 -25 -29 -75q-22 -59 -33.5 -88t-33 -80.5t-36 -79t-37 -66t-43 -58.5t-45.5 -41.5t-53.5 -30t-59.5 -8.5q-138 0 -160 188q-85 -188 -206 -188q-164 0 -164 263zM124 1215q88 63 154.5 121 t88.5 85l23 26l94 -11q42 -64 79 -135.5t53 -110.5l17 -39l-140 -66q-2 10 -6 29t-25.5 81.5t-52.5 128.5q-3 -5 -9 -14t-26 -35.5t-41 -51t-53 -56.5t-64 -57z" />
<glyph unicode="&#xfc;" horiz-adv-x="799" d="M-35 252q0 -263 164 -263q121 0 206 188q22 -188 160 -188q36 0 68.5 14t57.5 33t52 58t44.5 69t42 87t38 90.5t38.5 100.5q19 50 29 75v3q0 8 -26.5 18.5t-37.5 10.5q-150 -392 -237 -392q-45 0 -45 78q0 35 3 76.5t7.5 77.5t14.5 93.5t17 93.5t23 109t24 109t28.5 125 t28.5 128h-195q-72 -297 -105 -479l-14 -76q-24 -97 -53 -175t-55.5 -119t-45.5 -41q-46 0 -46 78q0 99 46 328q26 131 51.5 252t38.5 176l13 56h-195q-46 -182 -103 -479q-37 -202 -37 -315zM177 1213q0 50 33.5 92.5t87.5 42.5q41 0 62 -25t21 -64q0 -32 -14.5 -62.5 t-43 -51.5t-64.5 -21q-41 0 -61.5 25t-20.5 64zM436 1213q0 50 34 92.5t88 42.5q40 0 61 -25t21 -64q0 -32 -14 -62t-42.5 -51.5t-64.5 -21.5q-27 0 -46 12.5t-28 32t-9 44.5z" />
<glyph unicode="&#xfd;" horiz-adv-x="714" d="M-57 -516q0 31 9 64t20.5 60.5t36.5 62t44.5 58.5t57 62.5t60 60.5t68.5 65q13 13 20 19l28 154q-72 -101 -158 -101q-164 0 -164 263q0 113 37 315q26 132 51.5 252t38.5 173l13 54h195q-46 -191 -103 -484q-46 -229 -46 -328q0 -78 46 -78q32 0 65 69t61.5 186 t50.5 226.5t45 237.5t32 171h189q-6 -18 -13.5 -53t-16 -76.5t-20 -102t-21.5 -114.5t-24 -131.5t-24 -135t-25.5 -142.5t-25.5 -138q168 192 246 395q16 0 40 -10t24 -19v-3q-109 -279 -338 -516l-50 -296q-15 -89 -39 -160.5t-57 -126.5t-78.5 -85t-98.5 -30 q-80 0 -128 46.5t-48 135.5zM71 -514q0 -31 13.5 -46.5t31.5 -15.5q28 0 44.5 29.5t27.5 87.5l46 246q-81 -85 -122 -155t-41 -146zM282 1182q41 45 95 124t98 174l142 -99q-31 -51 -68.5 -98.5t-68.5 -77.5t-58 -53.5t-42 -33.5l-15 -10z" />
<glyph unicode="&#xfe;" horiz-adv-x="770" d="M-193 -659q0 142 36 322.5t81 316.5l12 -24q-22 -66 -59.5 -243t-51.5 -280q15 105 91.5 588t147.5 956t92 675h172q-18 -182 -105 -748q46 79 101 121.5t112 42.5q62 0 104 -41.5t60.5 -109.5t18.5 -160q0 -170 -60.5 -362.5t-157.5 -316.5q49 12 92.5 35t79.5 57.5 t67 74.5t59 91.5t50 101t45 110.5q7 0 22 -5t28.5 -12.5t13.5 -14.5q-19 -49 -36.5 -91.5t-40 -88t-44.5 -83.5t-49.5 -75.5t-56 -67t-62.5 -55t-70.5 -42t-79 -26t-89.5 -9.5q-79 0 -140.5 34t-93.5 104l-135 -801h-154v26zM-181 -617q0 17 6 50q-6 -30 -6 -50zM68 259 q0 18 10 96l41 61q-10 14 -20 32.5t-16.5 33.5t-6.5 21q54 253 147 401l-79 -486q-6 -42 -6 -99q0 -147 80 -147q50 0 98.5 103.5t76 240t27.5 243.5q0 145 -50 145q-59 0 -117.5 -115t-99.5 -323q-8 -41 -9 -48l-48 -302q-28 66 -28 143z" />
<glyph unicode="&#xff;" horiz-adv-x="714" d="M-57 -516q0 -45 13 -80t36.5 -57t55.5 -33.5t71 -11.5q71 0 127 53.5t91 141t55 207.5l50 296q229 237 338 516v3q0 9 -24 19t-40 10q-78 -203 -246 -395q11 56 29 157.5t29.5 164t27 150t26.5 145t23 117.5t20.5 99t14.5 60h-189q-9 -43 -32 -171t-45 -237.5 t-50.5 -226.5t-61.5 -186t-65 -69q-46 0 -46 78q0 99 46 328q26 131 51.5 252t38.5 176l13 56h-195q-46 -182 -103 -479q-37 -202 -37 -315q0 -263 164 -263q86 0 158 101l-28 -154q-7 -6 -20 -19q-46 -43 -68.5 -65t-60 -60.5t-57 -62.5t-44.5 -58.5t-36.5 -62t-20.5 -60.5 t-9 -64zM71 -514q0 76 41 146t122 155l-46 -246q-7 -38 -15.5 -62.5t-23 -39.5t-33 -15t-32 15.5t-13.5 46.5zM170 1213q0 50 34 92.5t87 42.5q41 0 62 -25t21 -64q0 -32 -14 -62.5t-43 -51.5t-65 -21q-41 0 -61.5 25t-20.5 64zM429 1213q0 50 34 92.5t88 42.5 q41 0 61.5 -25t20.5 -64q0 -32 -14 -62t-42.5 -51.5t-64.5 -21.5q-40 0 -61.5 25.5t-21.5 63.5z" />
<glyph unicode="&#x152;" horiz-adv-x="3025" d="M78 365q0 204 42.5 420t121 418.5t198.5 383t267 304.5l96 -114q-111 -106 -207.5 -273t-163.5 -356.5t-105 -394.5t-38 -390q0 -136 13.5 -251.5t44.5 -217t78.5 -172.5t118.5 -112t160 -41q94 0 180 56.5t155.5 156t128 234t101.5 293t72 329.5t42 346 q-116 30 -212.5 84.5t-162.5 122.5t-112 148t-67 160t-21 160q0 76 20 143.5t58 118t95.5 79.5t128.5 29q99 0 180.5 -44t137.5 -122t94.5 -187.5t56 -236.5t17.5 -272q0 -18 -1 -51.5t-1 -49.5h65q224 0 422 67q-58 137 -58 296q0 93 19.5 181.5t60 167t97.5 137t137 93 t173 34.5q149 0 229 -80t80 -209q0 -81 -32.5 -169.5t-94 -176t-159 -170t-219.5 -143.5q24 -56 72 -107q85 13 183 13h23l-23 -188h-14q-141 0 -252 62q-104 -33 -192 -94t-150.5 -138t-107 -167.5t-66 -184.5t-21.5 -187q0 -86 18 -164.5t55.5 -146t91.5 -117.5t129.5 -78 t164.5 -28q100 0 184.5 34.5t141 90.5t96.5 129.5t58 151t18 154.5q0 87 -22 156.5t-67.5 112t-107.5 42.5q-83 0 -138 -75t-55 -181q0 -107 53 -197l-211 -103q-63 122 -63 247q0 89 29.5 169.5t82.5 142.5t134.5 98.5t178.5 36.5q95 0 171 -35t123.5 -95.5t72.5 -138.5 t25 -167q0 -80 -20.5 -161t-59.5 -158t-100.5 -143.5t-139 -117t-180 -79t-218.5 -28.5q-109 0 -203.5 23.5t-166.5 66.5t-128 102t-92 130t-54.5 150.5t-18.5 164.5q0 103 26 206.5t80.5 202.5t131 183.5t184 153t234.5 107.5q-40 40 -64 78q-226 -71 -481 -71q-50 0 -70 2 q-10 -156 -33 -306.5t-62.5 -300.5t-91 -281t-123.5 -244.5t-157 -194t-193.5 -126.5t-230.5 -46q-125 0 -228 46.5t-175 129.5t-121 198t-72.5 249.5t-23.5 286.5zM948 1659q0 -52 10.5 -105t32.5 -108t58.5 -106.5t84 -96.5t113 -82t143.5 -60q4 110 4 162 q0 116 -10.5 214t-33 179.5t-56.5 138.5t-82.5 88.5t-108.5 31.5q-47 -2 -82.5 -36.5t-54 -91.5t-18.5 -128zM2243 1447q0 -116 28 -226q90 54 162 123t115 139.5t65 138t22 126.5q0 76 -35 121.5t-100 45.5q-63 0 -113 -39t-80.5 -105.5t-47 -149.5t-16.5 -174z" />
<glyph unicode="&#x153;" horiz-adv-x="1112" d="M-18 351q0 200 71 408l87 -21q-2 11 -2 33q0 38 7 74.5t21 69.5t36.5 61t50.5 48.5t64.5 32t78.5 11.5q58 0 101 -27t68 -72.5t36 -108.5q104 208 268 208q83 0 128 -52.5t45 -135.5q0 -49 -16.5 -102t-50.5 -105t-81 -96t-115 -77t-146 -45v-35q0 -72 13.5 -125.5 t47 -88t83.5 -34.5q99 0 183.5 97.5t151.5 278.5q13 0 39 -11.5t26 -20.5q-27 -71 -49.5 -124.5t-51 -112.5t-55.5 -101t-61 -82t-69 -64.5t-78 -39t-91 -14.5q-192 0 -236 221q-100 -221 -278 -221q-76 0 -128 50.5t-75 132.5t-23 190zM144 376q0 -100 26 -162.5t69 -62.5 q48 0 97.5 78.5t87.5 201.5q-89 8 -152 55t-97 120q-31 -124 -31 -230zM261 722q0 -38 10.5 -72.5t31 -64.5t57.5 -49t85 -22q30 132 30 227q0 82 -22 130.5t-68 48.5h-15q-46 -9 -77.5 -67.5t-31.5 -130.5zM640 541q61 30 110.5 74.5t78.5 90t44 88t15 75.5q0 26 -10 41.5 t-27 15.5q-45 0 -89.5 -57t-76 -144t-45.5 -184z" />
<glyph unicode="&#x178;" horiz-adv-x="1841" d="M-576 1119q0 198 73.5 367.5t201.5 287.5t306.5 184.5t384.5 66.5q132 0 244 -29.5t201.5 -90.5t152.5 -150.5t97 -212.5t34 -273q0 -109 -18 -247.5t-39.5 -247.5t-39 -233t-17.5 -206q0 -29 5.5 -58t18.5 -57t37.5 -45t57.5 -17q68 0 129 52.5t110 149.5t88.5 220.5 t71.5 277.5q8 56 21.5 154t21.5 153.5t21 143.5t22 141t22 127t23.5 121t24.5 103t27.5 94t29.5 72.5t32 57.5l186 -34q-9 -95 -27.5 -192t-38 -168.5t-38 -129t-30.5 -86.5l-12 -30q-17 -112 -49 -358q-73 -550 -127 -813q-126 -605 -344 -844q-161 -175 -382 -175 q-62 0 -112.5 19.5t-83 54.5t-49.5 82t-17 104q0 46 14 90.5t42.5 83.5t68.5 69t95.5 47.5t119.5 18.5l5 -182q-97 -12 -146 -60.5t-49 -106.5q0 -48 31 -76.5t79 -28.5q58 0 111 27.5t97 75.5t84.5 120t73 154.5t62.5 186t54 207t48 224.5q-74 -152 -167.5 -239.5 t-198.5 -87.5q-141 0 -211.5 92t-70.5 269q0 90 21 215.5t46 233t46 242t21 239.5q0 297 -146.5 462.5t-397.5 165.5q-154 0 -290 -61t-233.5 -166t-153.5 -252.5t-56 -314.5q0 -108 24 -198.5t66 -153.5t97.5 -106.5t117.5 -64t128 -20.5q181 0 303 127.5t160 363.5 l214 -51q-28 -143 -89 -254t-148.5 -181.5t-196.5 -106.5t-236 -36q-143 0 -264.5 49.5t-208.5 139t-136.5 220.5t-49.5 288zM1408 2250q0 68 45 125t116 57q37 0 61.5 -17.5t35.5 -43.5t11 -59q0 -43 -18.5 -83t-56.5 -67.5t-86 -27.5q-52 0 -80 33.5t-28 82.5zM1637 2250 q0 68 45.5 125t116.5 57q54 0 80.5 -34t26.5 -86q0 -68 -44.5 -123t-115.5 -55q-53 0 -81 33.5t-28 82.5z" />
<glyph unicode="&#x2c6;" horiz-adv-x="453" d="M-32 1215q55 40 102.5 78.5t76.5 65t49.5 47.5t29.5 31l8 10l94 -11q42 -64 79 -135.5t54 -110.5l16 -39l-140 -66q-2 10 -6 29t-26 81.5t-53 128.5q-3 -5 -9 -14t-26 -35.5t-41 -51t-53 -56.5t-64 -57z" />
<glyph unicode="&#x2dc;" horiz-adv-x="565" d="M7 1228q52 66 170 66q35 0 99 -7t87 -7q31 0 54 5.5t35 13t27 20.5l81 -104q-49 -64 -140 -64q-41 0 -122 23t-119 23q-62 0 -105 -46z" />
<glyph unicode="&#x2000;" horiz-adv-x="1251" />
<glyph unicode="&#x2001;" horiz-adv-x="2502" />
<glyph unicode="&#x2002;" horiz-adv-x="1251" />
<glyph unicode="&#x2003;" horiz-adv-x="2502" />
<glyph unicode="&#x2004;" horiz-adv-x="834" />
<glyph unicode="&#x2005;" horiz-adv-x="625" />
<glyph unicode="&#x2006;" horiz-adv-x="417" />
<glyph unicode="&#x2007;" horiz-adv-x="417" />
<glyph unicode="&#x2008;" horiz-adv-x="312" />
<glyph unicode="&#x2009;" horiz-adv-x="500" />
<glyph unicode="&#x200a;" horiz-adv-x="139" />
<glyph unicode="&#x2010;" horiz-adv-x="501" d="M32 530l21 120h411l-22 -120h-410z" />
<glyph unicode="&#x2011;" horiz-adv-x="501" d="M32 530l21 120h411l-22 -120h-410z" />
<glyph unicode="&#x2012;" horiz-adv-x="501" d="M32 530l21 120h411l-22 -120h-410z" />
<glyph unicode="&#x2013;" horiz-adv-x="731" d="M32 530l21 120h639l-20 -120h-640z" />
<glyph unicode="&#x2014;" horiz-adv-x="1029" d="M74 530l20 120h869l-20 -120h-869z" />
<glyph unicode="&#x2018;" horiz-adv-x="370" d="M81 1261q0 111 29.5 216.5t79.5 192.5l110 -55q-48 -112 -48 -223q0 -50 7 -105z" />
<glyph unicode="&#x2019;" horiz-adv-x="383" d="M74 1617l162 75q37 -119 37 -247q0 -84 -19 -174l-121 20q5 45 5 66q0 66 -15.5 125.5t-48.5 134.5z" />
<glyph unicode="&#x201a;" horiz-adv-x="304" d="M-44 -227q88 136 88 356h169q0 -131 -45 -241.5t-127 -189.5z" />
<glyph unicode="&#x201c;" horiz-adv-x="527" d="M116 1307q0 110 30.5 216t80.5 193l110 -55q-48 -112 -48 -223q0 -50 7 -105zM337 1261q0 75 14.5 150t38.5 138.5t57 120.5l111 -55q-48 -112 -48 -223q0 -50 6 -105z" />
<glyph unicode="&#x201d;" horiz-adv-x="309" d="M13 1571l162 85q48 -130 48 -282q0 -60 -12 -140l-121 14v39q0 76 -18.5 140t-58.5 144zM239 1604l157 84q49 -131 49 -280q0 -66 -12 -139l-121 13v40q0 73 -17.5 137t-55.5 145z" />
<glyph unicode="&#x201e;" horiz-adv-x="521" d="M-32 -227q87 136 87 356h170q0 -131 -45.5 -241.5t-126.5 -189.5zM221 -227q86 134 86 356h170q0 -131 -45.5 -241.5t-126.5 -189.5z" />
<glyph unicode="&#x2022;" horiz-adv-x="247" d="M37 663q0 44 28.5 81.5t72.5 37.5q22 0 36.5 -10t21 -25t6.5 -36q0 -44 -28.5 -83t-70.5 -39q-33 0 -49.5 21t-16.5 53z" />
<glyph unicode="&#x2026;" horiz-adv-x="990" d="M32 94q0 68 45 125t116 57q54 0 80.5 -34t26.5 -86q0 -68 -44.5 -123t-115.5 -55q-53 0 -80.5 33t-27.5 83zM353 94q0 68 45 125t116 57q54 0 81 -34t27 -86q0 -68 -44.5 -123t-116.5 -55q-52 0 -80 33.5t-28 82.5zM676 94q0 68 45.5 125t116.5 57q54 0 80.5 -34 t26.5 -86q0 -68 -45 -123t-116 -55q-35 0 -60 16.5t-36.5 42t-11.5 57.5z" />
<glyph unicode="&#x202f;" horiz-adv-x="500" />
<glyph unicode="&#x2039;" horiz-adv-x="499" d="M22 530l17 94q3 1 8.5 3.5t23 11.5t35.5 18.5t46 25t55 30.5t60 35.5t64.5 40.5t66 44t66.5 47l72 -121q-53 -34 -113 -66.5t-106 -54t-85 -38.5t-60 -25l-21 -8q43 -32 88.5 -68t79.5 -65.5t62 -54.5t42 -39l15 -14l-110 -118q-5 8 -15.5 21.5t-43.5 52.5t-67 76.5 t-83.5 85.5t-96.5 86z" />
<glyph unicode="&#x203a;" horiz-adv-x="552" d="M22 330q86 55 182.5 103t150.5 69l54 21q-68 50 -140 110t-109 96l-38 35l110 116q3 -4 8 -10.5t22.5 -28.5t36.5 -44t47 -53.5t56.5 -60.5t64 -62t69.5 -61l-15 -94q-26 -13 -69.5 -35t-156 -89.5t-199.5 -133.5z" />
<glyph unicode="&#x205f;" horiz-adv-x="625" />
<glyph unicode="&#x20ac;" horiz-adv-x="696" d="M-4 379l15 96h60q3 30 10 64h-59l17 96h62q23 86 60.5 161t86 134t111 93t129.5 34q99 0 147 -66t48 -175q0 -146 -70 -297l-149 66q36 57 56.5 122.5t20.5 120.5q0 51 -17.5 83t-50.5 32q-20 0 -41 -16t-39.5 -44.5t-36 -67.5t-32 -84.5t-26.5 -95.5h105l-15 -96h-108 q-9 -46 -11 -64h107l-15 -96h-100q0 -9 -1 -23.5t-1 -20.5q0 -105 25.5 -168.5t78.5 -63.5q61 0 111.5 65t76.5 165l141 -46q-43 -142 -129.5 -220t-218.5 -78q-70 0 -124 31t-87 85.5t-49.5 123t-17.5 150.5h-70z" />
<glyph unicode="&#x2122;" horiz-adv-x="866" d="M4 1580l12 74h319l-11 -74h-99q-51 -363 -92 -534h-107q37 182 88 534h-110zM254 1046q39 130 57.5 196t44.5 186t38 226h129q9 -114 21 -230t20 -175l7 -58q45 113 79 228.5t45 175.5l12 59h137q-23 -203 -23 -391q0 -59 7 -217h-106q-9 64 -9 202q0 147 14 236 q-31 -125 -73.5 -247.5t-80.5 -190.5h-89q-4 25 -8.5 60.5t-9 78.5t-9 86.5t-10.5 100t-11 103.5q-24 -170 -94 -429h-88z" />
<glyph unicode="&#x25fc;" horiz-adv-x="1066" d="M0 0v1066h1066v-1066h-1066z" />
<glyph unicode="&#xfb01;" horiz-adv-x="829" d="M-190 -218q0 235 64 642t149 765t147 499q32 69 81.5 105.5t103.5 36.5q64 0 109.5 -48.5t45.5 -131.5q0 -136 -33.5 -283.5t-80.5 -264.5t-111 -237.5t-110 -192.5t-94 -138q-37 -188 -59 -339q134 19 222 107t148 246q12 0 38.5 -11.5t26.5 -20.5q-31 -80 -64.5 -142.5 t-76.5 -118t-97.5 -94.5t-119.5 -60q66 -69 98.5 -155t32.5 -173q0 -82 -26 -151.5t-74 -111.5t-108 -42q-28 0 -52 5t-49.5 17t-44.5 35t-34.5 56.5t-23.5 84.5t-8 116zM-16 -241q0 -177 55 -177q35 0 56 45t21 112q0 78 -28.5 157t-85.5 136q-18 -168 -18 -273zM127 768 q25 47 50.5 99t53 115t52 126t47.5 132.5t39 134.5t26 131.5t10 124.5q0 50 -22 50q-33 0 -106 -267.5t-150 -645.5zM361 261q0 72 9 156.5t30 189t32.5 158.5t39.5 167l28 114h196q-11 -45 -33.5 -145t-32 -142t-26.5 -120.5t-24 -121t-16.5 -100t-12.5 -101t-3 -82.5 q0 -78 46 -78q86 0 236 392q11 0 38 -10.5t27 -18.5v-3q-10 -25 -29 -75q-25 -67 -38 -100.5t-38 -90.5t-42.5 -87t-44.5 -69t-52 -58t-57.5 -33t-68.5 -14q-164 0 -164 272zM528 1296q0 68 44.5 124.5t115.5 56.5q54 0 81 -34t27 -86q0 -67 -45 -122.5t-116 -55.5 q-53 0 -80 33.5t-27 83.5z" />
<glyph unicode="&#xfb02;" horiz-adv-x="910" d="M-190 -218q0 235 64 642t149 765t147 499q32 69 81.5 105.5t103.5 36.5q64 0 109.5 -48.5t45.5 -131.5q0 -136 -33.5 -283.5t-80.5 -264.5t-111 -237.5t-110 -192.5t-94 -138q-37 -188 -59 -339q134 19 222 107t148 246q12 0 38.5 -11.5t26.5 -20.5q-31 -80 -64.5 -142.5 t-76.5 -118t-97.5 -94.5t-119.5 -60q66 -69 98.5 -155t32.5 -173q0 -82 -26 -151.5t-74 -111.5t-108 -42q-28 0 -52 5t-49.5 17t-44.5 35t-34.5 56.5t-23.5 84.5t-8 116zM-16 -241q0 -177 55 -177q35 0 56 45t21 112q0 78 -28.5 157t-85.5 136q-18 -168 -18 -273zM127 768 q25 47 50.5 99t53 115t52 126t47.5 132.5t39 134.5t26 131.5t10 124.5q0 50 -22 50q-33 0 -106 -267.5t-150 -645.5zM383 351q0 229 74 649q38 211 84 372.5t95.5 261.5t100 150.5t101.5 50.5q153 0 153 -213q0 -151 -69 -370q-34 -106 -79 -208t-92.5 -183t-88 -139.5 t-80.5 -106.5q-18 -158 -18 -262q0 -110 23 -156t65 -46q105 0 259 397q9 0 31.5 -11t22.5 -18v-3q-105 -286 -193 -412t-196 -126q-101 0 -147 94t-46 279zM604 759q47 87 93 187.5t91 219.5t73.5 242t28.5 223q0 23 -7 36.5t-16 13.5q-22 0 -57.5 -84.5t-72.5 -216 t-73 -297.5t-60 -324z" />
</font>
</defs>
</svg>
