<?xml version="1.0" standalone="no"?>
<!DOCTYPE svg PUBLIC "-//W3C//DTD SVG 1.1//EN" "http://www.w3.org/Graphics/SVG/1.1/DTD/svg11.dtd" >
<svg>
<metadata>
Created by FontForge 20090914 at Wed Sep 21 20:30:54 2016
 By www-data
&#194;&#169; Copyright (c) 2010. All rights reserved. Fakt is a design by Thomas Thiemich, published by OurType. www.ourtype.com
</metadata>
<defs>
<font id="FaktSoftPro-Blond" horiz-adv-x="352" >
  <font-face 
    font-family="Fakt Soft Pro Bnd"
    font-weight="350"
    font-stretch="normal"
    units-per-em="1000"
    panose-1="2 0 0 0 0 0 0 0 0 0"
    ascent="800"
    descent="-200"
    x-height="487.999"
    cap-height="688"
    bbox="-159.261 -313 1127 1015"
    underline-thickness="0"
    underline-position="0"
    unicode-range="U+0020-U+FB04"
  />
<missing-glyph horiz-adv-x="680" 
d="M0 36v616c0 12 3 21 9 27s15 9 27 9h608c12 0 21 -3 27 -9s9 -15 9 -27v-616c0 -12 -3 -21 -9 -27s-15 -9 -27 -9h-608c-12 0 -21 3 -27 9s-9 15 -9 27zM189 207l14.999 -14c5.33301 -6 11.166 -8.83301 17.499 -8.5s12.5 3.5 18.5 9.5l101 105l102 -105
c6 -6 12.167 -9.16699 18.5 -9.5s12.5 2.5 18.5 8.5l14 14c6 6.66699 8.83301 13 8.5 19s-3.16602 12.333 -8.49902 19l-103 105l102 105c6 6.66699 9.16699 13 9.5 19s-2.5 11.667 -8.5 17l-14 14c-6.66699 6.66699 -13 10 -19 10s-12.333 -3.33301 -19 -10l-101 -103
l-100 103c-6.66699 6.66699 -13 10 -19 10s-12 -3.33301 -18 -10l-15 -14c-6 -5.33301 -8.83301 -11 -8.5 -17s3.5 -12.333 9.5 -19l101 -105l-102 -105c-5.33301 -6.66699 -8.16602 -13 -8.49902 -19s2.5 -12.333 8.5 -19z" />
    <glyph glyph-name="ff" unicode="ff" horiz-adv-x="583" 
d="M100 28l-0.00195312 404h-74c-8 0 -13.833 1.83301 -17.5 5.5s-5.5 9.5 -5.5 17.5v10c0 8 1.83301 13.833 5.5 17.5s9.5 5.5 17.5 5.5h74v86c0 52.667 13.333 92.167 40 118.5s65 39.5 115 39.5h28c8.66699 0 15 -2 19 -6s6 -10.333 6 -19v-9c0 -8.66699 -2 -15 -6 -19
s-10.333 -6 -19 -6h-22c-33.333 0 -57.166 -8.5 -71.499 -25.5s-21.5 -42.5 -21.5 -76.5v-83h219v86c0 52.667 13.333 92.167 40 118.5s65 39.5 115 39.5h28c8.66699 0 15 -2 19 -6s6 -10.333 6 -19v-9c0 -8.66699 -2 -15 -6 -19s-10.333 -6 -19 -6h-22
c-33.333 0 -57.166 -8.5 -71.499 -25.5s-21.5 -42.5 -21.5 -76.5v-83h101c8 0 13.833 -1.83301 17.5 -5.5s5.5 -9.5 5.5 -17.5v-10c0 -8 -1.83301 -13.833 -5.5 -17.5s-9.5 -5.5 -17.5 -5.5h-101v-404c0 -8.66699 -2.33301 -15.5 -7 -20.5s-11.667 -7.5 -21 -7.5h-12
c-8.66699 0 -15.5 2.5 -20.5 7.5s-7.5 11.833 -7.5 20.5v404h-219v-404c0 -8.66699 -2.5 -15.5 -7.5 -20.5s-11.833 -7.5 -20.5 -7.5h-12c-9.33301 0 -16.333 2.5 -21 7.5s-7 11.833 -7 20.5z" />
    <glyph glyph-name="fi" unicode="fi" horiz-adv-x="535" 
d="M413 636c-9.33301 0 -16.5 2.5 -21.5 7.5s-7.5 12.167 -7.5 21.5v38c0 9.33301 2.5 16.5 7.5 21.5s12.167 7.5 21.5 7.5h17c9.33301 0 16.333 -2.5 21 -7.5s7 -12.167 7 -21.5v-38c0 -9.33301 -2.33301 -16.5 -7 -21.5s-11.667 -7.5 -21 -7.5h-17zM100 28
l-0.000976562 404h-74c-8 0 -13.833 1.83301 -17.5 5.5s-5.5 9.5 -5.5 17.5v10c0 8 1.83301 13.833 5.5 17.5s9.5 5.5 17.5 5.5h74v86c0 52.667 13.333 92.167 40 118.5s65 39.5 115 39.5h25c8.66699 0 15 -2 19 -6s6 -10.333 6 -19v-9c0 -8.66699 -2 -15 -6 -19
s-10.333 -6 -19 -6h-19c-33.333 0 -57.166 -8.5 -71.499 -25.5s-21.5 -42.5 -21.5 -76.5v-83h259c9.33301 0 16.333 -2.5 21 -7.5s7 -11.833 7 -20.5v-432c0 -8.66699 -2.33301 -15.5 -7 -20.5s-11.667 -7.5 -21 -7.5h-12c-8.66699 0 -15.5 2.5 -20.5 7.5
s-7.5 11.833 -7.5 20.5v404h-219v-404c0 -8.66699 -2.5 -15.5 -7.5 -20.5s-11.833 -7.5 -20.5 -7.5h-12c-9.33301 0 -16.333 2.5 -21 7.5s-7 11.833 -7 20.5z" />
    <glyph glyph-name="fl" unicode="fl" horiz-adv-x="535" 
d="M100 28l-0.000976562 404h-74c-8 0 -13.833 1.83301 -17.5 5.5s-5.5 9.5 -5.5 17.5v10c0 8 1.83301 13.833 5.5 17.5s9.5 5.5 17.5 5.5h74v86c0 52.667 13.333 92.167 40 118.5s65 39.5 115 39.5h172c9.33301 0 16.333 -2.5 21 -7.5s7 -11.833 7 -20.5v-676
c0 -8.66699 -2.33301 -15.5 -7 -20.5s-11.667 -7.5 -21 -7.5h-12c-8.66699 0 -15.5 2.5 -20.5 7.5s-7.5 11.833 -7.5 20.5v645h-126c-33.333 0 -57.166 -8.5 -71.499 -25.5s-21.5 -42.5 -21.5 -76.5v-83h88c7.33301 0 12.833 -1.83301 16.5 -5.5s5.5 -9.5 5.5 -17.5v-10
c0 -8 -1.83301 -13.833 -5.5 -17.5s-9.16699 -5.5 -16.5 -5.5h-88v-404c0 -8.66699 -2.5 -15.5 -7.5 -20.5s-11.833 -7.5 -20.5 -7.5h-12c-9.33301 0 -16.333 2.5 -21 7.5s-7 11.833 -7 20.5z" />
    <glyph glyph-name="ffi" unicode="ffi" horiz-adv-x="822" 
d="M671 665v38c0 9.33301 2.5 16.5 7.5 21.5s12.167 7.5 21.5 7.5h17c9.33301 0 16.333 -2.5 21 -7.5s7 -12.167 7 -21.5v-38c0 -9.33301 -2.33301 -16.5 -7 -21.5s-11.667 -7.5 -21 -7.5h-17c-9.33301 0 -16.5 2.5 -21.5 7.5s-7.5 12.167 -7.5 21.5zM100 28
l-0.00195312 404h-74c-8 0 -13.833 1.83301 -17.5 5.5s-5.5 9.5 -5.5 17.5v10c0 8 1.83301 13.833 5.5 17.5s9.5 5.5 17.5 5.5h74v86c0 52.667 13.333 92.167 40 118.5s65 39.5 115 39.5h28c8.66699 0 15 -2 19 -6s6 -10.333 6 -19v-9c0 -8.66699 -2 -15 -6 -19
s-10.333 -6 -19 -6h-22c-33.333 0 -57.166 -8.5 -71.499 -25.5s-21.5 -42.5 -21.5 -76.5v-83h219v86c0 52.667 13.333 92.167 40 118.5s65 39.5 115 39.5h26c8 0 14 -2 18 -6s6 -10.333 6 -19v-9c0 -8.66699 -2 -15 -6 -19s-10 -6 -18 -6h-20
c-33.333 0 -57.166 -8.5 -71.499 -25.5s-21.5 -42.5 -21.5 -76.5v-83h259c9.33301 0 16.333 -2.5 21 -7.5s7 -11.833 7 -20.5v-432c0 -8.66699 -2.33301 -15.5 -7 -20.5s-11.667 -7.5 -21 -7.5h-12c-8.66699 0 -15.5 2.5 -20.5 7.5s-7.5 11.833 -7.5 20.5v404h-219v-404
c0 -8.66699 -2.33301 -15.5 -7 -20.5s-11.667 -7.5 -21 -7.5h-12c-8.66699 0 -15.5 2.5 -20.5 7.5s-7.5 11.833 -7.5 20.5v404h-219v-404c0 -8.66699 -2.5 -15.5 -7.5 -20.5s-11.833 -7.5 -20.5 -7.5h-12c-9.33301 0 -16.333 2.5 -21 7.5s-7 11.833 -7 20.5z" />
    <glyph glyph-name="ffl" unicode="ffl" horiz-adv-x="822" 
d="M100 28l-0.00195312 404h-74c-8 0 -13.833 1.83301 -17.5 5.5s-5.5 9.5 -5.5 17.5v10c0 8 1.83301 13.833 5.5 17.5s9.5 5.5 17.5 5.5h74v86c0 52.667 13.333 92.167 40 118.5s65 39.5 115 39.5h28c8.66699 0 15 -2 19 -6s6 -10.333 6 -19v-9c0 -8.66699 -2 -15 -6 -19
s-10.333 -6 -19 -6h-22c-33.333 0 -57.166 -8.5 -71.499 -25.5s-21.5 -42.5 -21.5 -76.5v-83h219v86c0 52.667 13.333 92.167 40 118.5s65 39.5 115 39.5h172c9.33301 0 16.333 -2.5 21 -7.5s7 -11.833 7 -20.5v-676c0 -8.66699 -2.33301 -15.5 -7 -20.5
s-11.667 -7.5 -21 -7.5h-12c-8.66699 0 -15.5 2.5 -20.5 7.5s-7.5 11.833 -7.5 20.5v645h-126c-33.333 0 -57.166 -8.5 -71.499 -25.5s-21.5 -42.5 -21.5 -76.5v-83h88c7.33301 0 13 -1.83301 17 -5.5s6 -9.5 6 -17.5v-10c0 -8 -2 -13.833 -6 -17.5s-9.66699 -5.5 -17 -5.5
h-88v-404c0 -8.66699 -2.33301 -15.5 -7 -20.5s-11.667 -7.5 -21 -7.5h-12c-8.66699 0 -15.5 2.5 -20.5 7.5s-7.5 11.833 -7.5 20.5v404h-219v-404c0 -8.66699 -2.5 -15.5 -7.5 -20.5s-11.833 -7.5 -20.5 -7.5h-12c-9.33301 0 -16.333 2.5 -21 7.5s-7 11.833 -7 20.5z" />
    <glyph glyph-name="f_b" unicode="fb" horiz-adv-x="883" 
d="M100 28l0.00195312 403.998h-74c-8 0 -13.833 1.83301 -17.5 5.5s-5.5 9.5 -5.5 17.5v10c0 8 1.83301 13.833 5.5 17.5s9.5 5.5 17.5 5.5h74v86c0 52.667 13.333 92.167 40 118.5s65 39.5 115 39.5h172c9.33301 0 16.333 -2.5 21 -7.5s7 -11.833 7 -20.5v-130v-30.5
c0 -14.333 -0.166992 -30 -0.5 -47l-1 -52.5c-0.333008 -18 -0.833008 -33.667 -1.5 -47h3c15.333 34.667 38.5 60.334 69.5 77.001s65.167 25 102.5 25c60 0 110.5 -22.167 151.5 -66.5s61.5 -105.833 61.5 -184.5s-21.333 -141.5 -64 -188.5s-94.334 -70.5 -155.001 -70.5
c-37.333 0 -70.5 8.33301 -99.5 25s-51.167 42.334 -66.5 77.001h-3v-64c0 -8.66699 -2.33301 -15.334 -7 -20.001s-11.334 -7 -20.001 -7h-11c-8.66699 0 -15.334 2.33301 -20.001 7s-7 11.334 -7 20.001v646h-126c-33.333 0 -57.166 -8.5 -71.499 -25.5
s-21.5 -42.5 -21.5 -76.5v-83h88c7.33301 0 12.833 -1.83301 16.5 -5.5s5.5 -9.5 5.5 -17.5v-10c0 -8 -1.83301 -13.833 -5.5 -17.5s-9.16699 -5.5 -16.5 -5.5h-88v-404c0 -8.66699 -2.5 -15.5 -7.5 -20.5s-11.833 -7.5 -20.5 -7.5h-12c-9.33301 0 -16.333 2.5 -21 7.5
s-7 11.833 -7 20.5zM455.002 243.998c0 -62 15.167 -110.166 45.5 -144.499s67.5 -51.5 111.5 -51.5s81.167 18 111.5 54s45.5 84.667 45.5 146s-15.333 108.666 -46 141.999s-67.667 50 -111 50c-44 0 -81.167 -17.167 -111.5 -51.5s-45.5 -82.5 -45.5 -144.5z" />
    <glyph glyph-name="f_h" unicode="fh" horiz-adv-x="865" 
d="M100 28l-0.000976562 403.999h-74c-8 0 -13.833 1.83301 -17.5 5.5s-5.5 9.5 -5.5 17.5v10c0 8 1.83301 13.833 5.5 17.5s9.5 5.5 17.5 5.5h74v86c0 52.667 13.333 92.167 40 118.5s65 39.5 115 39.5h172c9.33301 0 16.333 -2.5 21 -7.5s7 -11.833 7 -20.5v-124v-31
c0 -14.667 -0.166992 -30.667 -0.5 -48l-1 -52.5c-0.333008 -17.667 -0.833008 -32.5 -1.5 -44.5h3c14.667 32 36 55.833 64 71.5s60 23.5 96 23.5c48 0 89.5 -15 124.5 -45s52.5 -81.667 52.5 -155v-271c0 -8.66699 -2.33301 -15.5 -7 -20.5s-11.667 -7.5 -21 -7.5h-12
c-8.66699 0 -15.5 2.5 -20.5 7.5s-7.5 11.833 -7.5 20.5v262c0 54.667 -11.5 93.334 -34.5 116.001s-52.5 34 -88.5 34c-40 0 -74.333 -15.833 -103 -47.5s-43 -77.5 -43 -137.5v-227c0 -8.66699 -2.33301 -15.5 -7 -20.5s-11.667 -7.5 -21 -7.5h-12
c-8.66699 0 -15.5 2.5 -20.5 7.5s-7.5 11.833 -7.5 20.5v645h-126c-33.333 0 -57.166 -8.5 -71.499 -25.5s-21.5 -42.5 -21.5 -76.5v-83h88c7.33301 0 12.833 -1.83301 16.5 -5.5s5.5 -9.5 5.5 -17.5v-10c0 -8 -1.83301 -13.833 -5.5 -17.5s-9.16699 -5.5 -16.5 -5.5h-88
v-404c0 -8.66699 -2.5 -15.5 -7.5 -20.5s-11.833 -7.5 -20.5 -7.5h-12c-9.33301 0 -16.333 2.5 -21 7.5s-7 11.833 -7 20.5z" />
    <glyph glyph-name="f_j" unicode="fj" horiz-adv-x="535" 
d="M413 636c-9.33301 0 -16.5 2.5 -21.5 7.5s-7.5 12.167 -7.5 21.5v38c0 9.33301 2.5 16.5 7.5 21.5s12.167 7.5 21.5 7.5h17c9.33301 0 16.333 -2.5 21 -7.5s7 -12.167 7 -21.5v-38c0 -9.33301 -2.33301 -16.5 -7 -21.5s-11.667 -7.5 -21 -7.5h-17zM100 28
l-0.000976562 404h-74c-8 0 -13.833 1.83301 -17.5 5.5s-5.5 9.5 -5.5 17.5v10c0 8 1.83301 13.833 5.5 17.5s9.5 5.5 17.5 5.5h74v86c0 52.667 13.333 92.167 40 118.5s65 39.5 115 39.5h25c8.66699 0 15 -2 19 -6s6 -10.333 6 -19v-9c0 -8.66699 -2 -15 -6 -19
s-10.333 -6 -19 -6h-19c-33.333 0 -57.166 -8.5 -71.499 -25.5s-21.5 -42.5 -21.5 -76.5v-83h259c9.33301 0 16.333 -2.5 21 -7.5s7 -11.833 7 -20.5v-556c0 -38 -9.83301 -68.167 -29.5 -90.5s-51.5 -33.5 -95.5 -33.5h-11c-8 0 -14 2 -18 6s-6 10 -6 18v11c0 8 2 14 6 18
s10 6 18 6h5c22 0 38 6.16699 48 18.5s15 31.833 15 58.5v516h-219v-404c0 -8.66699 -2.5 -15.5 -7.5 -20.5s-11.833 -7.5 -20.5 -7.5h-12c-9.33301 0 -16.333 2.5 -21 7.5s-7 11.833 -7 20.5z" />
    <glyph glyph-name="f_k" unicode="fk" horiz-adv-x="800" 
d="M100 28l0.00195312 404h-74c-8 0 -13.833 1.83301 -17.5 5.5s-5.5 9.5 -5.5 17.5v10c0 8 1.83301 13.833 5.5 17.5s9.5 5.5 17.5 5.5h74v86c0 52.667 13.333 92.167 40 118.5s65 39.5 115 39.5h172c9.33301 0 16.333 -2.5 21 -7.5s7 -11.833 7 -20.5v-480l213 235
c8.66699 9.33301 16.167 16.5 22.5 21.5s14.166 7.5 23.499 7.5h19c9.33301 0 15.666 -2.83301 18.999 -8.5s1.33301 -12.834 -6 -21.501l-154 -167l179 -258c6.66699 -9.33301 8.5 -17.166 5.5 -23.499s-9.16699 -9.5 -18.5 -9.5h-22c-9.33301 0 -16.833 2.5 -22.5 7.5
s-11.834 12.167 -18.501 21.5l-149 212l-91 -100v-113c0 -8.66699 -2.33301 -15.5 -7 -20.5s-11.667 -7.5 -21 -7.5h-12c-8.66699 0 -15.5 2.5 -20.5 7.5s-7.5 11.833 -7.5 20.5v645h-126c-33.333 0 -57.166 -8.5 -71.499 -25.5s-21.5 -42.5 -21.5 -76.5v-83h88
c7.33301 0 12.833 -1.83301 16.5 -5.5s5.5 -9.5 5.5 -17.5v-10c0 -8 -1.83301 -13.833 -5.5 -17.5s-9.16699 -5.5 -16.5 -5.5h-88v-404c0 -8.66699 -2.5 -15.5 -7.5 -20.5s-11.833 -7.5 -20.5 -7.5h-12c-9.33301 0 -16.333 2.5 -21 7.5s-7 11.833 -7 20.5z" />
    <glyph glyph-name="f_t" unicode="ft" horiz-adv-x="603" 
d="M100 28l-0.00195312 404.001h-74c-8 0 -13.833 1.83301 -17.5 5.5s-5.5 9.5 -5.5 17.5v10c0 8 1.83301 13.833 5.5 17.5s9.5 5.5 17.5 5.5h74v86c0 52.667 13.333 92.167 40 118.5s65 39.5 115 39.5h28c8.66699 0 15 -2 19 -6s6 -10.333 6 -19v-9
c0 -8.66699 -2 -15 -6 -19s-10.333 -6 -19 -6h-22c-33.333 0 -57.166 -8.5 -71.499 -25.5s-21.5 -42.5 -21.5 -76.5v-83h210v120c0 8.66699 2.5 15.5 7.5 20.5s11.833 7.5 20.5 7.5h12c9.33301 0 16.333 -2.5 21 -7.5s7 -11.833 7 -20.5v-120h110
c8 0 13.833 -1.83301 17.5 -5.5s5.5 -9.5 5.5 -17.5v-10c0 -8 -1.83301 -13.833 -5.5 -17.5s-9.5 -5.5 -17.5 -5.5h-110v-289c0 -30.667 6.33301 -52.334 19 -65.001s32.334 -19 59.001 -19h30c8.66699 0 15 -2 19 -6s6 -10.333 6 -19v-9c0 -8.66699 -2 -15 -6 -19
s-10.333 -6 -19 -6h-39c-45.333 -0 -79.5 11.333 -102.5 34s-34.5 58 -34.5 106v292h-210v-404c0 -8.66699 -2.5 -15.5 -7.5 -20.5s-11.833 -7.5 -20.5 -7.5h-12c-9.33301 0 -16.333 2.5 -21 7.5s-7 11.833 -7 20.5z" />
    <glyph glyph-name="f_f_b" unicode="ffb" horiz-adv-x="1170" 
d="M100 28v403.998h-74c-8 0 -13.833 1.83301 -17.5 5.5s-5.5 9.5 -5.5 17.5v10c0 8 1.83301 13.833 5.5 17.5s9.5 5.5 17.5 5.5h74v86c0 52.667 13.333 92.167 40 118.5s65 39.5 115 39.5h28c8.66699 0 15 -2 19 -6s6 -10.333 6 -19v-9c0 -8.66699 -2 -15 -6 -19
s-10.333 -6 -19 -6h-22c-33.333 0 -57.166 -8.5 -71.499 -25.5s-21.5 -42.5 -21.5 -76.5v-83h219v86c0 52.667 13.333 92.167 40 118.5s65 39.5 115 39.5h172c9.33301 0 16.333 -2.5 21 -7.5s7 -11.833 7 -20.5v-130v-30.5c0 -14.333 -0.166992 -30 -0.5 -47l-1 -52.5
c-0.333008 -18 -0.833008 -33.667 -1.5 -47h4c14.667 34.667 37.5 60.334 68.5 77.001s65.167 25 102.5 25c60.667 0 111.334 -22.167 152.001 -66.5s61 -105.833 61 -184.5s-21.333 -141.5 -64 -188.5s-94.334 -70.5 -155.001 -70.5c-37.333 0 -70.5 8.33301 -99.5 25
s-51.167 42.334 -66.5 77.001h-3v-64c0 -8.66699 -2.33301 -15.334 -7 -20.001s-11.334 -7 -20.001 -7h-11c-8.66699 0 -15.334 2.33301 -20.001 7s-7 11.334 -7 20.001v646h-126c-33.333 0 -57.166 -8.5 -71.499 -25.5s-21.5 -42.5 -21.5 -76.5v-83h88
c7.33301 0 13 -1.83301 17 -5.5s6 -9.5 6 -17.5v-10c0 -8 -2 -13.833 -6 -17.5s-9.66699 -5.5 -17 -5.5h-88v-404c0 -8.66699 -2.33301 -15.5 -7 -20.5s-11.667 -7.5 -21 -7.5h-12c-8.66699 0 -15.5 2.5 -20.5 7.5s-7.5 11.833 -7.5 20.5v404h-219v-404
c0 -8.66699 -2.5 -15.5 -7.5 -20.5s-11.833 -7.5 -20.5 -7.5h-12c-9.33301 0 -16.333 2.5 -21 7.5s-7 11.833 -7 20.5zM742 243.998c0 -62 15.333 -110.166 46 -144.499s67.667 -51.5 111 -51.5c44 0 81.167 18 111.5 54s45.5 84.667 45.5 146
s-15.167 108.666 -45.5 141.999s-67.5 50 -111.5 50c-43.333 0 -80.333 -17.167 -111 -51.5s-46 -82.5 -46 -144.5z" />
    <glyph glyph-name="f_f_h" unicode="ffh" horiz-adv-x="1152" 
d="M100 28l-0.000976562 403.999h-74c-8 0 -13.833 1.83301 -17.5 5.5s-5.5 9.5 -5.5 17.5v10c0 8 1.83301 13.833 5.5 17.5s9.5 5.5 17.5 5.5h74v86c0 52.667 13.333 92.167 40 118.5s65 39.5 115 39.5h28c8.66699 0 15 -2 19 -6s6 -10.333 6 -19v-9
c0 -8.66699 -2 -15 -6 -19s-10.333 -6 -19 -6h-22c-33.333 0 -57.166 -8.5 -71.499 -25.5s-21.5 -42.5 -21.5 -76.5v-83h219v86c0 52.667 13.333 92.167 40 118.5s65 39.5 115 39.5h172c9.33301 0 16.333 -2.5 21 -7.5s7 -11.833 7 -20.5v-124v-31
c0 -14.667 -0.166992 -30.667 -0.5 -48l-1 -52.5c-0.333008 -17.667 -0.833008 -32.5 -1.5 -44.5h3c14.667 32 36 55.833 64 71.5s60 23.5 96 23.5c48 0 89.5 -15 124.5 -45s52.5 -81.667 52.5 -155v-271c0 -8.66699 -2.33301 -15.5 -7 -20.5s-11.667 -7.5 -21 -7.5h-12
c-8.66699 0 -15.5 2.5 -20.5 7.5s-7.5 11.833 -7.5 20.5v262c0 54.667 -11.333 93.334 -34 116.001s-52.334 34 -89.001 34c-40 0 -74.333 -16 -103 -48s-43 -77.667 -43 -137v-227c0 -8.66699 -2.33301 -15.5 -7 -20.5s-11.667 -7.5 -21 -7.5h-12
c-8.66699 0 -15.5 2.5 -20.5 7.5s-7.5 11.833 -7.5 20.5v645h-126c-33.333 0 -57.166 -8.5 -71.499 -25.5s-21.5 -42.5 -21.5 -76.5v-83h88c7.33301 0 13 -1.83301 17 -5.5s6 -9.5 6 -17.5v-10c0 -8 -2 -13.833 -6 -17.5s-9.66699 -5.5 -17 -5.5h-88v-404
c0 -8.66699 -2.33301 -15.5 -7 -20.5s-11.667 -7.5 -21 -7.5h-12c-8.66699 0 -15.5 2.5 -20.5 7.5s-7.5 11.833 -7.5 20.5v404h-219v-404c0 -8.66699 -2.5 -15.5 -7.5 -20.5s-11.833 -7.5 -20.5 -7.5h-12c-9.33301 0 -16.333 2.5 -21 7.5s-7 11.833 -7 20.5z" />
    <glyph glyph-name="f_f_j" unicode="ffj" horiz-adv-x="822" 
d="M671 665v38c0 9.33301 2.5 16.5 7.5 21.5s12.167 7.5 21.5 7.5h17c9.33301 0 16.333 -2.5 21 -7.5s7 -12.167 7 -21.5v-38c0 -9.33301 -2.33301 -16.5 -7 -21.5s-11.667 -7.5 -21 -7.5h-17c-9.33301 0 -16.5 2.5 -21.5 7.5s-7.5 12.167 -7.5 21.5zM100 28
l-0.00292969 404h-74c-8 0 -13.833 1.83301 -17.5 5.5s-5.5 9.5 -5.5 17.5v10c0 8 1.83301 13.833 5.5 17.5s9.5 5.5 17.5 5.5h74v86c0 52.667 13.333 92.167 40 118.5s65 39.5 115 39.5h28c8.66699 0 15 -2 19 -6s6 -10.333 6 -19v-9c0 -8.66699 -2 -15 -6 -19
s-10.333 -6 -19 -6h-22c-33.333 0 -57.166 -8.5 -71.499 -25.5s-21.5 -42.5 -21.5 -76.5v-83h219v86c0 52.667 13.333 92.167 40 118.5s65 39.5 115 39.5h26c8 0 14 -2 18 -6s6 -10.333 6 -19v-9c0 -8.66699 -2 -15 -6 -19s-10 -6 -18 -6h-20
c-33.333 0 -57.166 -8.5 -71.499 -25.5s-21.5 -42.5 -21.5 -76.5v-83h259c9.33301 0 16.333 -2.5 21 -7.5s7 -11.833 7 -20.5v-556c0 -38 -9.83301 -68.167 -29.5 -90.5s-51.5 -33.5 -95.5 -33.5h-10c-8.66699 0 -15 2 -19 6s-6 10 -6 18v11c0 8 2 14 6 18s10.333 6 19 6h4
c22.667 0 38.834 6.16699 48.501 18.5s14.5 31.833 14.5 58.5v516h-219v-404c0 -8.66699 -2.33301 -15.5 -7 -20.5s-11.667 -7.5 -21 -7.5h-12c-8.66699 0 -15.5 2.5 -20.5 7.5s-7.5 11.833 -7.5 20.5v404h-219v-404c0 -8.66699 -2.5 -15.5 -7.5 -20.5
s-11.833 -7.5 -20.5 -7.5h-12c-9.33301 0 -16.333 2.5 -21 7.5s-7 11.833 -7 20.5z" />
    <glyph glyph-name="f_f_k" unicode="ffk" horiz-adv-x="1087" 
d="M100 28l-0.000976562 404h-74c-8 0 -13.833 1.83301 -17.5 5.5s-5.5 9.5 -5.5 17.5v10c0 8 1.83301 13.833 5.5 17.5s9.5 5.5 17.5 5.5h74v86c0 52.667 13.333 92.167 40 118.5s65 39.5 115 39.5h28c8.66699 0 15 -2 19 -6s6 -10.333 6 -19v-9c0 -8.66699 -2 -15 -6 -19
s-10.333 -6 -19 -6h-22c-33.333 0 -57.166 -8.5 -71.499 -25.5s-21.5 -42.5 -21.5 -76.5v-83h219v86c0 52.667 13.333 92.167 40 118.5s65 39.5 115 39.5h172c9.33301 0 16.333 -2.5 21 -7.5s7 -11.833 7 -20.5v-480l213 235c8.66699 9.33301 16.167 16.5 22.5 21.5
s14.166 7.5 23.499 7.5h19c9.33301 0 15.666 -2.83301 18.999 -8.5s1.33301 -12.834 -6 -21.501l-154 -167l180 -258c6.66699 -9.33301 8.33398 -17.166 5.00098 -23.499s-9.66602 -9.5 -18.999 -9.5h-22c-9.33301 0 -16.833 2.5 -22.5 7.5s-11.834 12.167 -18.501 21.5
l-149 212l-91 -100v-113c0 -8.66699 -2.33301 -15.5 -7 -20.5s-11.667 -7.5 -21 -7.5h-12c-8.66699 0 -15.5 2.5 -20.5 7.5s-7.5 11.833 -7.5 20.5v645h-126c-33.333 0 -57.166 -8.5 -71.499 -25.5s-21.5 -42.5 -21.5 -76.5v-83h88c7.33301 0 13 -1.83301 17 -5.5
s6 -9.5 6 -17.5v-10c0 -8 -2 -13.833 -6 -17.5s-9.66699 -5.5 -17 -5.5h-88v-404c0 -8.66699 -2.33301 -15.5 -7 -20.5s-11.667 -7.5 -21 -7.5h-12c-8.66699 0 -15.5 2.5 -20.5 7.5s-7.5 11.833 -7.5 20.5v404h-219v-404c0 -8.66699 -2.5 -15.5 -7.5 -20.5
s-11.833 -7.5 -20.5 -7.5h-12c-9.33301 0 -16.333 2.5 -21 7.5s-7 11.833 -7 20.5z" />
    <glyph glyph-name="f_f_t" unicode="fft" horiz-adv-x="890" 
d="M100 28l-0.00292969 404.001h-74c-8 0 -13.833 1.83301 -17.5 5.5s-5.5 9.5 -5.5 17.5v10c0 8 1.83301 13.833 5.5 17.5s9.5 5.5 17.5 5.5h74v86c0 52.667 13.333 92.167 40 118.5s65 39.5 115 39.5h28c8.66699 0 15 -2 19 -6s6 -10.333 6 -19v-9
c0 -8.66699 -2 -15 -6 -19s-10.333 -6 -19 -6h-22c-33.333 0 -57.166 -8.5 -71.499 -25.5s-21.5 -42.5 -21.5 -76.5v-83h219v86c0 52.667 13.333 92.167 40 118.5s65 39.5 115 39.5h28c8.66699 0 15 -2 19 -6s6 -10.333 6 -19v-9c0 -8.66699 -2 -15 -6 -19
s-10.333 -6 -19 -6h-22c-33.333 0 -57.166 -8.5 -71.499 -25.5s-21.5 -42.5 -21.5 -76.5v-83h210v120c0 8.66699 2.5 15.5 7.5 20.5s11.833 7.5 20.5 7.5h12c9.33301 0 16.333 -2.5 21 -7.5s7 -11.833 7 -20.5v-120h111c7.33301 0 13 -1.83301 17 -5.5s6 -9.5 6 -17.5v-10
c0 -8 -2 -13.833 -6 -17.5s-9.66699 -5.5 -17 -5.5h-111v-289c0 -30.667 6.33301 -52.334 19 -65.001s32.334 -19 59.001 -19h31c8 0 14.167 -2 18.5 -6s6.5 -10.333 6.5 -19v-9c0 -8.66699 -2.16699 -15 -6.5 -19s-10.5 -6 -18.5 -6h-40c-45.333 -0 -79.5 11.333 -102.5 34
s-34.5 58 -34.5 106v292h-210v-404c0 -8.66699 -2.33301 -15.5 -7 -20.5s-11.667 -7.5 -21 -7.5h-12c-8.66699 0 -15.5 2.5 -20.5 7.5s-7.5 11.833 -7.5 20.5v404h-219v-404c0 -8.66699 -2.5 -15.5 -7.5 -20.5s-11.833 -7.5 -20.5 -7.5h-12c-9.33301 0 -16.333 2.5 -21 7.5
s-7 11.833 -7 20.5z" />
    <glyph glyph-name=".notdef" horiz-adv-x="680" 
d="M0 36v616c0 12 3 21 9 27s15 9 27 9h608c12 0 21 -3 27 -9s9 -15 9 -27v-616c0 -12 -3 -21 -9 -27s-15 -9 -27 -9h-608c-12 0 -21 3 -27 9s-9 15 -9 27zM189 207l14.999 -14c5.33301 -6 11.166 -8.83301 17.499 -8.5s12.5 3.5 18.5 9.5l101 105l102 -105
c6 -6 12.167 -9.16699 18.5 -9.5s12.5 2.5 18.5 8.5l14 14c6 6.66699 8.83301 13 8.5 19s-3.16602 12.333 -8.49902 19l-103 105l102 105c6 6.66699 9.16699 13 9.5 19s-2.5 11.667 -8.5 17l-14 14c-6.66699 6.66699 -13 10 -19 10s-12.333 -3.33301 -19 -10l-101 -103
l-100 103c-6.66699 6.66699 -13 10 -19 10s-12 -3.33301 -18 -10l-15 -14c-6 -5.33301 -8.83301 -11 -8.5 -17s3.5 -12.333 9.5 -19l101 -105l-102 -105c-5.33301 -6.66699 -8.16602 -13 -8.49902 -19s2.5 -12.333 8.5 -19z" />
    <glyph glyph-name="space" unicode=" " horiz-adv-x="216" 
 />
    <glyph glyph-name="exclam" unicode="!" horiz-adv-x="256" 
d="M125 189c-5.33301 0 -9.49805 1.66895 -12.498 5.00195s-4.5 7.66602 -4.5 12.999l-17 265c-0.666992 10 -1.33398 21.167 -2.00098 33.5s-1 23.5 -1 33.5v118c0 10.667 2.66699 18.5 8 23.5s13 7.5 23 7.5h18c10.667 0 18.5 -2.5 23.5 -7.5s7.5 -12.833 7.5 -23.5v-118
c0 -10 -0.333008 -21.167 -1 -33.5s-1.33398 -23.5 -2.00098 -33.5l-16 -265c-0.666992 -4.66699 -2.5 -8.83398 -5.5 -12.501s-7.16699 -5.5 -12.5 -5.5h-6zM88.002 31.002v40c0 10.667 2.66699 18.5 8 23.5s13 7.5 23 7.5h18c10.667 0 18.5 -2.5 23.5 -7.5
s7.5 -12.833 7.5 -23.5v-40c0 -10 -2.5 -17.667 -7.5 -23s-12.833 -8 -23.5 -8h-18c-10 0 -17.667 2.66699 -23 8s-8 13 -8 23z" />
    <glyph glyph-name="quotedbl" unicode="&#x22;" horiz-adv-x="384" 
d="M277 436c-6 0 -10.998 2.16699 -14.998 6.5s-6 9.16602 -6 14.499l-7 107c-0.666992 8 -1.33398 18.167 -2.00098 30.5s-1 22.833 -1 31.5v39c0 6 2.33301 11.333 7 16s10 7 16 7h22c6.66699 0 12.167 -2.33301 16.5 -7s6.5 -10 6.5 -16v-39
c0 -8.66699 -0.333008 -19.167 -1 -31.5s-1.33398 -22.5 -2.00098 -30.5l-6 -107c-0.666992 -5.33301 -3 -10.166 -7 -14.499s-9 -6.5 -15 -6.5h-6zM101.002 436c-6 0 -10.998 2.16699 -14.998 6.5s-6 9.16602 -6 14.499l-7 107c-0.666992 8 -1.33398 18.167 -2.00098 30.5
s-1 22.833 -1 31.5v39c0 6 2.33301 11.333 7 16s10 7 16 7h22c6.66699 0 12.167 -2.33301 16.5 -7s6.5 -10 6.5 -16v-39c0 -8.66699 -0.333008 -19.167 -1 -31.5s-1.33398 -22.5 -2.00098 -30.5l-6 -107c-0.666992 -5.33301 -3 -10.166 -7 -14.499s-9 -6.5 -15 -6.5h-6z" />
    <glyph glyph-name="numbersign" unicode="#" horiz-adv-x="606" 
d="M102 27l25.0029 148h-88c-6.66699 0 -11.667 1.66699 -15 5s-5 8 -5 14v14c0 6.66699 1.66699 11.667 5 15s8.33301 5 15 5h98l42 237h-97c-6.66699 0 -11.667 1.66699 -15 5s-5 8.33301 -5 15v13c0 6.66699 1.66699 11.667 5 15s8.33301 5 15 5h106l25 143
c1.33301 8.66699 4.33301 15.334 9 20.001s11.334 7 20.001 7h11c8.66699 0 15 -2.33301 19 -7s5 -11.334 3 -20.001l-25 -143h165l25 143c2 8.66699 5.16699 15.334 9.5 20.001s10.833 7 19.5 7h11c8.66699 0 15 -2.33301 19 -7s5.33301 -11.334 4 -20.001l-26 -143h90
c6.66699 0 11.667 -1.66699 15 -5s5 -8.33301 5 -15v-13c0 -6.66699 -1.66699 -11.667 -5 -15s-8.33301 -5 -15 -5h-99l-42 -237h98c6.66699 0 11.667 -1.66699 15 -5s5 -8.33301 5 -15v-14c0 -6 -1.66699 -10.667 -5 -14s-8.33301 -5 -15 -5h-107l-26 -148
c-1.33301 -8.66699 -4.33301 -15.334 -9 -20.001s-11.334 -7 -20.001 -7h-11c-8.66699 0 -14.834 2.33301 -18.501 7s-4.83398 11.334 -3.50098 20.001l25 148h-165l-25 -148c-1.33301 -8.66699 -4.33301 -15.334 -9 -20.001s-11.334 -7 -20.001 -7h-11
c-8.66699 0 -15 2.33301 -19 7s-5 11.334 -3 20.001zM199.003 228h165l42 237h-165z" />
    <glyph glyph-name="dollar" unicode="$" horiz-adv-x="568" 
d="M50 165c-1.33301 9.33301 0.333984 16.332 5.00098 20.999s11.667 7 21 7h11c9.33301 0 16.333 -2.5 21 -7.5s8.33398 -11.833 11.001 -20.5c6.66699 -37.333 25.167 -66.666 55.5 -87.999s65.833 -32 106.5 -32c48 0 86.833 12.333 116.5 37s44.5 58.334 44.5 101.001
c0 36 -11.167 63 -33.5 81s-54.5 33.333 -96.5 46l-98 29c-35.333 10.667 -69.333 29.167 -102 55.5s-49 66.833 -49 121.5c0 49.333 17 90.333 51 123s78 51.667 132 57v80c0 8.66699 2.33301 15.5 7 20.5s11.667 7.5 21 7.5h12c8.66699 0 15.5 -2.5 20.5 -7.5
s7.5 -11.833 7.5 -20.5v-80c44.667 -5.33301 83.667 -21.333 117 -48s54 -61.667 62 -105c2 -9.33301 0.5 -16.333 -4.5 -21s-12.167 -7 -21.5 -7h-10c-8.66699 0 -15.834 2.5 -21.501 7.5s-9.83398 11.833 -12.501 20.5c-8 32.667 -25.333 57.5 -52 74.5s-57 25.5 -91 25.5
c-41.333 0 -76 -10.333 -104 -31s-42 -50.667 -42 -90c0 -37.333 10.833 -64.333 32.5 -81s51.5 -31 89.5 -43l97 -30c54.667 -16.667 95 -39.5 121 -68.5s39 -66.833 39 -113.5c0 -56 -18.5 -101 -55.5 -135s-84.5 -54 -142.5 -60v-83c0 -8.66699 -2.33301 -15.5 -7 -20.5
s-11.667 -7.5 -21 -7.5h-12c-9.33301 0 -16.333 2.5 -21 7.5s-7 11.833 -7 20.5v83c-52.667 6 -97 24.167 -133 54.5s-57.333 70.166 -64 119.499z" />
    <glyph glyph-name="percent" unicode="%" horiz-adv-x="764" 
d="M176 336c-49.333 0 -85.666 17.5 -108.999 52.5s-35 77.5 -35 127.5s11.667 92.5 35 127.5s59.666 52.5 108.999 52.5c50 0 86.5 -17.5 109.5 -52.5s34.5 -77.5 34.5 -127.5s-11.5 -92.5 -34.5 -127.5s-59.5 -52.5 -109.5 -52.5zM176 384c28 0 49.167 11.833 63.5 35.5
s21.5 55.834 21.5 96.501s-7 72.834 -21 96.501s-35.333 35.5 -64 35.5c-28 0 -49.167 -11.833 -63.5 -35.5s-21.5 -55.834 -21.5 -96.501s7.33301 -72.834 22 -96.501s35.667 -35.5 63 -35.5zM246 10c-3.33301 -7.33301 -7.33301 -12.833 -12 -16.5s-10.667 -5.5 -18 -5.5
h-9c-7.33301 0 -12.5 2 -15.5 6s-2.16699 10 2.5 18l325 666c3.33301 7.33301 7.33301 12.833 12 16.5s10.667 5.5 18 5.5h10c6.66699 0 11.5 -2 14.5 -6s2.5 -10 -1.5 -18zM588 -8c-49.333 0 -85.666 17.5 -108.999 52.5s-35 77.5 -35 127.5s11.667 92.5 35 127.5
s59.666 52.5 108.999 52.5c50 0 86.5 -17.5 109.5 -52.5s34.5 -77.5 34.5 -127.5s-11.5 -92.5 -34.5 -127.5s-59.5 -52.5 -109.5 -52.5zM588 40c28 0 49.167 11.833 63.5 35.5s21.5 55.834 21.5 96.501s-7.16699 72.834 -21.5 96.501s-35.5 35.5 -63.5 35.5
s-49.167 -11.833 -63.5 -35.5s-21.5 -55.834 -21.5 -96.501s7.33301 -72.834 22 -96.501s35.667 -35.5 63 -35.5z" />
    <glyph glyph-name="ampersand" unicode="&#x26;" horiz-adv-x="696" 
d="M52 176c0 54 17 95.833 51 125.5s72.333 54.834 115 75.501c-30.667 31.333 -53.5 58.833 -68.5 82.5s-22.5 50.5 -22.5 80.5c0 42 16.167 79 48.5 111s76.833 48 133.5 48c55.333 0 99.166 -14.333 131.499 -43s48.5 -65 48.5 -109c0 -48.667 -18 -86.167 -54 -112.5
s-76 -49.5 -120 -69.5l198 -199c12.667 23.333 22 48.333 28 75s9 52 9 76v4c0 8.66699 2.16699 15.167 6.5 19.5s10.833 6.5 19.5 6.5h10c8.66699 0 15.167 -2.16699 19.5 -6.5s6.5 -10.833 6.5 -19.5v-5c0 -24 -4.16699 -54 -12.5 -90s-22.833 -70.667 -43.5 -104l85 -86
c12.667 -12 16.5 -21 11.5 -27s-12.167 -9 -21.5 -9h-11c-12 0 -21.167 2.33301 -27.5 7s-14.833 12 -25.5 22l-47 47c-23.333 -24.667 -53.166 -45.334 -89.499 -62.001s-80.5 -25 -132.5 -25c-78 0 -138.5 17 -181.5 51s-64.5 79.333 -64.5 136zM276 404
c39.333 18 73.834 37.332 103.501 57.999s44.5 49 44.5 85c0 26.667 -10 49.834 -30 69.501s-48.333 29.5 -85 29.5c-38 0 -67.5 -10.167 -88.5 -30.5s-31.5 -44.5 -31.5 -72.5c0 -23.333 7.66699 -45.333 23 -66s36.666 -45 63.999 -73zM120.001 181.999
c0 -43.333 16.501 -76.999 49.501 -100.999s75.833 -36 128.5 -36c42 0 77.667 6.66699 107 20s53.666 30.666 72.999 51.999l-221 222c-36.667 -18 -68.667 -38.667 -96 -62s-41 -55 -41 -95z" />
    <glyph glyph-name="quotesingle" unicode="'" horiz-adv-x="208" 
d="M101 436c-6 0 -10.998 2.16699 -14.998 6.5s-6 9.16602 -6 14.499l-7 107c-0.666992 8 -1.33398 18.167 -2.00098 30.5s-1 22.833 -1 31.5v39c0 6 2.33301 11.333 7 16s10 7 16 7h22c6.66699 0 12.167 -2.33301 16.5 -7s6.5 -10 6.5 -16v-39
c0 -8.66699 -0.333008 -19.167 -1 -31.5s-1.33398 -22.5 -2.00098 -30.5l-6 -107c-0.666992 -5.33301 -3 -10.166 -7 -14.499s-9 -6.5 -15 -6.5h-6z" />
    <glyph glyph-name="parenleft" unicode="(" horiz-adv-x="275" 
d="M31 260c0 49.333 4.66699 96.832 14 142.499s21.333 88 36 127s31 75.167 49 108.5s35.333 62.333 52 87c4 6 8.16699 10.667 12.5 14s9.83301 5 16.5 5h20c5.33301 0 9.5 -2.16699 12.5 -6.5s2.16699 -9.83301 -2.5 -16.5c-14 -21.333 -29.5 -48.333 -46.5 -81
s-32.833 -68.834 -47.5 -108.501s-26.834 -82.667 -36.501 -129s-14.5 -93.833 -14.5 -142.5s4.83301 -96.167 14.5 -142.5s21.834 -89.666 36.501 -129.999s30.5 -76.833 47.5 -109.5s32.5 -59.667 46.5 -81c4.66699 -6 5.5 -11.167 2.5 -15.5s-7.16699 -6.5 -12.5 -6.5
h-20c-6.66699 0 -12.167 1.66699 -16.5 5s-8.5 8 -12.5 14c-16.667 24.667 -34 53.5 -52 86.5s-34.333 69.333 -49 109s-26.667 82.334 -36 128.001s-14 93.167 -14 142.5z" />
    <glyph glyph-name="parenright" unicode=")" horiz-adv-x="275" 
d="M37 -203c14 21.333 29.5 48.334 46.5 81.001s32.833 69.167 47.5 109.5s26.834 83.666 36.501 129.999s14.5 93.833 14.5 142.5s-4.83301 96.167 -14.5 142.5s-21.834 89.333 -36.501 129s-30.5 75.834 -47.5 108.501s-32.5 59.667 -46.5 81
c-4.66699 6.66699 -5.33398 12.167 -2.00098 16.5s7.33301 6.5 12 6.5h20c6.66699 0 12.334 -1.66699 17.001 -5s8.66699 -8 12 -14c16.667 -24.667 34 -53.667 52 -87s34.333 -69.5 49 -108.5s26.667 -81.333 36 -127s14 -93.167 14 -142.5s-4.66699 -96.833 -14 -142.5
s-21.333 -88.334 -36 -128.001s-31 -76 -49 -109s-35.333 -61.833 -52 -86.5c-3.33301 -6 -7.33301 -10.667 -12 -14s-10.334 -5 -17.001 -5h-20c-4.66699 0 -8.66699 2.16699 -12 6.5s-2.66602 9.5 2.00098 15.5z" />
    <glyph glyph-name="asterisk" unicode="*" horiz-adv-x="450" 
d="M137 404l-8.99805 6c-4.66699 4 -7.33398 9 -8.00098 15s1.33301 11.333 6 16l75 87l-112 26c-6.66699 1.33301 -11.5 4.66602 -14.5 9.99902s-3.83301 10.666 -2.5 15.999l4 11c2 5.33301 5.66699 9.16602 11 11.499s11 2.16602 17 -0.500977l106 -44l-9 115
c-0.666992 6.66699 0.833008 12.167 4.5 16.5s8.5 6.5 14.5 6.5h12c5.33301 0 10 -2.16699 14 -6.5s5.66699 -9.83301 5 -16.5l-10 -115l107 44c6 2.66699 11.667 2.83398 17 0.500977s9 -6.16602 11 -11.499l4 -11c1.33301 -5.33301 0.5 -10.666 -2.5 -15.999
s-7.83301 -8.66602 -14.5 -9.99902l-113 -26l76 -87c4.66699 -4.66699 6.66699 -10 6 -16s-3.33398 -11 -8.00098 -15l-9 -6c-4.66699 -3.33301 -10 -4.5 -16 -3.5s-10.667 4.5 -14 10.5l-59 97l-59 -97c-3.33301 -6 -8 -9.5 -14 -10.5s-11.333 0.166992 -16 3.5z" />
    <glyph glyph-name="plus" unicode="+" horiz-adv-x="568" 
d="M80 224c-7.33301 0 -13 2 -17 6s-6 9.33301 -6 16v15c0 7.33301 2 12.833 6 16.5s9.66699 5.5 17 5.5h173v174c0 7.33301 2 13 6 17s9.66699 6 17 6h17c7.33301 0 12.833 -2 16.5 -6s5.5 -9.66699 5.5 -17v-174h173c7.33301 0 13 -1.83301 17 -5.5s6 -9.16699 6 -16.5
v-15c0 -6.66699 -2 -12 -6 -16s-9.66699 -6 -17 -6h-173v-173c0 -7.33301 -1.83301 -13 -5.5 -17s-9.16699 -6 -16.5 -6h-17c-7.33301 0 -13 2 -17 6s-6 9.66699 -6 17v173h-173z" />
    <glyph glyph-name="comma" unicode="," horiz-adv-x="244" 
d="M80 33l0.000976562 45.999c0 10.667 2.66699 18.834 8 24.501s13.333 8.5 24 8.5h20c10.667 0 18.667 -2.83301 24 -8.5s8 -13.834 8 -24.501v-46c0 -8.66699 -0.5 -17.5 -1.5 -26.5s-2.16699 -16.5 -3.5 -22.5l-31 -122
c-0.666992 -4.66699 -2.83398 -8.83398 -6.50098 -12.501s-8.16699 -5.5 -13.5 -5.5h-6c-4.66699 0 -8.5 1.83301 -11.5 5.5s-4.16699 7.83398 -3.5 12.501l28 138h-4c-10 0 -17.667 2.83301 -23 8.5s-8 13.834 -8 24.501z" />
    <glyph glyph-name="hyphen" unicode="-" horiz-adv-x="396" 
d="M83 221c-7.33301 0 -13 2 -17 6s-6 10 -6 18v15c0 7.33301 2 13 6 17s9.66699 6 17 6h229c8 0 14 -2 18 -6s6 -9.66699 6 -17v-15c0 -8 -2 -14 -6 -18s-10 -6 -18 -6h-229z" />
    <glyph glyph-name="period" unicode="." horiz-adv-x="244" 
d="M80 33v46c0 10.667 2.66699 18.834 8 24.501s13.333 8.5 24 8.5h20c10.667 0 18.667 -2.83301 24 -8.5s8 -13.834 8 -24.501v-46c0 -10.667 -2.66699 -18.834 -8 -24.501s-13.333 -8.5 -24 -8.5h-20c-10.667 0 -18.667 2.83301 -24 8.5s-8 13.834 -8 24.501z" />
    <glyph glyph-name="slash" unicode="/" horiz-adv-x="401" 
d="M30 12l287.001 664c3.33301 8 7.66602 14 12.999 18s11.666 6 18.999 6h11c8.66699 0 14 -2.33301 16 -7s1.66699 -10.334 -1 -17.001l-287 -664c-3.33301 -8 -7.66602 -14 -12.999 -18s-12 -6 -20 -6h-11c-8 0 -13.167 2.33301 -15.5 7s-1.83301 10.334 1.5 17.001z" />
    <glyph glyph-name="zero" unicode="0" horiz-adv-x="568" 
d="M284 -11c-42 0 -78 9.16699 -108 27.5s-54.5 43.333 -73.5 75s-33 69.167 -42 112.5s-13.5 90 -13.5 140s4.5 96.667 13.5 140s23 80.833 42 112.5s43.5 56.667 73.5 75s66 27.5 108 27.5s78 -9.16699 108 -27.5s54.5 -43.333 73.5 -75s33 -69.167 42 -112.5
s13.5 -90 13.5 -140s-4.5 -96.667 -13.5 -140s-23 -80.833 -42 -112.5s-43.5 -56.667 -73.5 -75s-66 -27.5 -108 -27.5zM284 51c56 0 97.667 26.5 125 79.5s41 124.167 41 213.5s-13.667 160.5 -41 213.5s-69 79.5 -125 79.5c-57.333 0 -99.333 -26.5 -126 -79.5
s-40 -124.167 -40 -213.5s13.667 -160.5 41 -213.5s69 -79.5 125 -79.5z" />
    <glyph glyph-name="one" unicode="1" horiz-adv-x="568" 
d="M86 26l0.000976562 7c0 8.66699 2.16699 15.167 6.5 19.5s10.833 6.5 19.5 6.5h160v544l-153 -105c-6.66699 -4.66699 -12.834 -6.5 -18.501 -5.5s-10.5 4.83301 -14.5 11.5l-7 11c-4 6.66699 -5 13 -3 19s6.33301 11.333 13 16l180 125c6 4.66699 11.5 8 16.5 10
s10.833 3 17.5 3h9c9.33301 0 16.333 -2.5 21 -7.5s7 -11.833 7 -20.5v-601h151c8.66699 0 15.334 -2.16699 20.001 -6.5s7 -10.833 7 -19.5v-7c0 -8.66699 -2.33301 -15.167 -7 -19.5s-11.334 -6.5 -20.001 -6.5h-379c-8.66699 0 -15.167 2.16699 -19.5 6.5
s-6.5 10.833 -6.5 19.5z" />
    <glyph glyph-name="two" unicode="2" horiz-adv-x="568" 
d="M64 26c4.66699 67.333 20.668 119.83 48.001 157.497s66 72.834 116 105.501l76 50c36 23.333 66.833 46 92.5 68s38.5 55 38.5 99c0 34.667 -12.333 65.667 -37 93s-61 41 -109 41c-40.667 0 -74.834 -10.667 -102.501 -32s-44.167 -54 -49.5 -98
c-1.33301 -8 -4.66602 -14.167 -9.99902 -18.5s-12 -6.5 -20 -6.5h-10c-8.66699 0 -15 2.16699 -19 6.5s-5.66699 10.5 -5 18.5c8.66699 70 34.334 119 77.001 147s89 42 139 42c61.333 0 112.333 -17.167 153 -51.5s61 -81.5 61 -141.5
c0 -59.333 -16.833 -103.166 -50.5 -131.499s-68.834 -54.5 -105.501 -78.5l-76 -50c-52 -34.667 -86.5 -66.167 -103.5 -94.5s-26.5 -59.166 -28.5 -92.499h350c8.66699 0 15.167 -2.16699 19.5 -6.5s6.5 -10.833 6.5 -19.5v-7c0 -8.66699 -2.16699 -15.167 -6.5 -19.5
s-10.833 -6.5 -19.5 -6.5h-399c-8.66699 0 -15.334 2.16699 -20.001 6.5s-6.66699 10.833 -6 19.5z" />
    <glyph glyph-name="three" unicode="3" horiz-adv-x="568" 
d="M53 180c-0.666992 8 1.67188 14.165 7.00488 18.498s12 6.5 20 6.5h9c8.66699 0 15.5 -2.16699 20.5 -6.5s7.83301 -10.5 8.5 -18.5c4.66699 -44 22.167 -77 52.5 -99s67.166 -33 110.499 -33c48 0 87.667 12.333 119 37s47 59 47 103c0 42 -16.333 75.833 -49 101.5
s-71.667 38.5 -117 38.5h-29c-8.66699 0 -15 1.83301 -19 5.5s-6 9.83398 -6 18.501v10c0 8.66699 2 15 6 19s10.333 6 19 6h29c39.333 0 72.666 11.833 99.999 35.5s41 54.834 41 93.501c0 40 -14 70.667 -42 92s-61 32 -99 32c-34 0 -64.5 -9.33301 -91.5 -28
s-42.833 -47 -47.5 -85c-1.33301 -8.66699 -4.5 -15.167 -9.5 -19.5s-11.5 -6.5 -19.5 -6.5h-10c-8.66699 0 -15 2.16699 -19 6.5s-5.66699 10.833 -5 19.5c6 54 27.5 96.167 64.5 126.5s82.833 45.5 137.5 45.5c60.667 0 110.167 -16.833 148.5 -50.5
s57.5 -77.5 57.5 -131.5c0 -36 -10.833 -68.5 -32.5 -97.5s-46.834 -48.5 -75.501 -58.5v-3c34 -8.66699 65.167 -28.5 93.5 -59.5s42.5 -69.5 42.5 -115.5c0 -60.667 -22.833 -108.167 -68.5 -142.5s-100.834 -51.5 -165.501 -51.5c-64 0 -116.833 15.833 -158.5 47.5
s-64.834 79.5 -69.501 143.5z" />
    <glyph glyph-name="four" unicode="4" horiz-adv-x="568" 
d="M60 182c-8.66699 0 -15.333 2.16699 -20 6.5s-7 10.833 -7 19.5v9c0 6.66699 1.16699 12.167 3.5 16.5s5.83301 9.5 10.5 15.5l312 423c4 5.33301 8.16699 9.5 12.5 12.5s9.83301 4.5 16.5 4.5h13c8.66699 0 15.167 -2.16699 19.5 -6.5s6.5 -10.833 6.5 -19.5v-422h80
c8.66699 0 15.167 -2.16699 19.5 -6.5s6.5 -10.833 6.5 -19.5v-7c0 -8.66699 -2.16699 -15.167 -6.5 -19.5s-10.833 -6.5 -19.5 -6.5h-80v-156c0 -8.66699 -2.16699 -15.167 -6.5 -19.5s-10.833 -6.5 -19.5 -6.5h-16c-8.66699 0 -15.167 2.16699 -19.5 6.5
s-6.5 10.833 -6.5 19.5v156h-299zM105.001 241h254v340z" />
    <glyph glyph-name="five" unicode="5" horiz-adv-x="568" 
d="M62 150c-2.66699 10.667 -1.50098 18.5049 3.49902 23.5049s11.833 7.5 20.5 7.5h16c8.66699 0 15 -2.16699 19 -6.5s7.33301 -10.5 10 -18.5c8.66699 -28.667 25.667 -53.834 51 -75.501s60.666 -32.5 105.999 -32.5c43.333 0 81.5 14.333 114.5 43
s49.5 69.667 49.5 123c0 50.667 -15.333 91.167 -46 121.5s-69.667 45.5 -117 45.5c-26.667 0 -50.667 -5.33301 -72 -16s-40.333 -25.334 -57 -44.001c-7.33301 -8.66699 -13.666 -14.334 -18.999 -17.001s-11.333 -3.66699 -18 -3h-16c-8.66699 0 -15.5 2.5 -20.5 7.5
s-7.16699 12.833 -6.5 23.5l18 329c0 8.66699 2.5 15.334 7.5 20.001s11.833 7 20.5 7h326c8.66699 0 15.5 -2.33301 20.5 -7s7.5 -11.334 7.5 -20.001v-8c0 -8.66699 -2.5 -15.334 -7.5 -20.001s-11.833 -7 -20.5 -7h-293l-15 -249h4
c16.667 19.333 37.834 34.666 63.501 45.999s54.5 17 86.5 17c62 0 114.5 -19.833 157.5 -59.5s64.5 -93.167 64.5 -160.5c0 -38 -6.5 -71.5 -19.5 -100.5s-30.167 -53 -51.5 -72s-46 -33.5 -74 -43.5s-57 -15 -87 -15c-64 0 -115 15.333 -153 46s-62.333 69 -73 115z" />
    <glyph glyph-name="six" unicode="6" horiz-adv-x="568" 
d="M300 -11c-67.333 0 -125.333 25.3301 -174 75.9971s-73 138.334 -73 263.001c0 68.667 7.16699 126.667 21.5 174s33.166 85.5 56.499 114.5s50.333 50 81 63s62.334 19.5 95.001 19.5c60 0 106.333 -14.833 139 -44.5s53.334 -67.167 62.001 -112.5
c2.66699 -10.667 1.33398 -18.5 -3.99902 -23.5s-12 -7.5 -20 -7.5h-13c-8.66699 0 -15.334 2.16699 -20.001 6.5s-8 10.833 -10 19.5c-6.66699 29.333 -20.667 53.833 -42 73.5s-52 29.5 -92 29.5c-46 0 -87.5 -22.167 -124.5 -66.5s-56.5 -120.833 -58.5 -229.5v-12h3
c14 34 38.5 60.5 73.5 79.5s71.5 28.5 109.5 28.5c67.333 0 120.666 -20.5 159.999 -61.5s59 -94.833 59 -161.5c0 -36 -6.33301 -68.167 -19 -96.5s-29.5 -52.166 -50.5 -71.499s-45.333 -34.166 -73 -44.499s-56.5 -15.5 -86.5 -15.5zM140 211.997
c0 -48 15.167 -87.333 45.5 -118s67.5 -46 111.5 -46c46 0 84.833 14.667 116.5 44s47.5 71 47.5 125c0 48 -15.167 87.333 -45.5 118s-67.5 46 -111.5 46c-46 0 -84.833 -14.667 -116.5 -44s-47.5 -71 -47.5 -125z" />
    <glyph glyph-name="seven" unicode="7" horiz-adv-x="568" 
d="M172 31l275 595h-365c-8.66699 0 -15.334 2.33301 -20.001 7s-7 11.334 -7 20.001v8c0 8.66699 2.33301 15.334 7 20.001s11.334 7 20.001 7h411c8.66699 0 15.5 -2.33301 20.5 -7s7.5 -11.334 7.5 -20.001v-7c0 -6.66699 -0.833008 -12.834 -2.5 -18.501
s-3.83398 -11.167 -6.50098 -16.5l-270 -591c-4.66699 -8.66699 -9.66699 -15.5 -15 -20.5s-12.666 -7.5 -21.999 -7.5h-15c-8.66699 0 -15 2.66699 -19 8s-3.66699 13 1 23z" />
    <glyph glyph-name="eight" unicode="8" horiz-adv-x="568" 
d="M47 183c0 44 13.8291 81.667 41.4961 113s60.834 51.666 99.501 60.999v4c-32.667 8.66699 -59.667 27.834 -81 57.501s-32 62.5 -32 98.5c0 54 19.333 97.833 58 131.5s89 50.5 151 50.5s112.333 -16.833 151 -50.5s58 -77.5 58 -131.5c0 -36 -10.667 -68.833 -32 -98.5
s-48.333 -48.834 -81 -57.501v-4c38.667 -9.33301 71.834 -29.666 99.501 -60.999s41.5 -69 41.5 -113c0 -60.667 -22.167 -108.167 -66.5 -142.5s-101.166 -51.5 -170.499 -51.5s-126.166 17.167 -170.499 51.5s-66.5 81.833 -66.5 142.5zM283.996 387
c40.667 0 74.8301 11.833 102.497 35.5s41.5 54.834 41.5 93.501c0 40 -14.167 71.167 -42.5 93.5s-62.166 33.5 -101.499 33.5s-73.166 -11.167 -101.499 -33.5s-42.5 -53.5 -42.5 -93.5c0 -38.667 13.833 -69.834 41.5 -93.501s61.834 -35.5 102.501 -35.5zM114.992 188
c0 -44 16 -78.333 48 -103s72.333 -37 121 -37s89 12.333 121 37s48 59 48 103c0 42 -16.5 75.833 -49.5 101.5s-72.833 38.5 -119.5 38.5s-86.5 -12.833 -119.5 -38.5s-49.5 -59.5 -49.5 -101.5z" />
    <glyph glyph-name="nine" unicode="9" horiz-adv-x="568" 
d="M60 146c-2.66699 10.667 -1.33203 18.5029 4.00098 23.5029s12 7.5 20 7.5h14c8 0 14.333 -2.16699 19 -6.5s8.33398 -10.833 11.001 -19.5c6.66699 -29.333 21.167 -53.833 43.5 -73.5s54.166 -29.5 95.499 -29.5c46 0 86.667 22.167 122 66.5
s53.666 120.833 54.999 229.5v12h-2c-14.667 -34 -39.5 -60.5 -74.5 -79.5s-71.5 -28.5 -109.5 -28.5c-66.667 0 -119.667 20.5 -159 61.5s-59 94.833 -59 161.5c0 36 6.33301 68.167 19 96.5s29.334 52.166 50.001 71.499s44.834 34.166 72.501 44.499s56.5 15.5 86.5 15.5
c67.333 0 125.333 -25.333 174 -76s73 -138.334 73 -263.001c0 -68.667 -6.83301 -126.667 -20.5 -174s-31.834 -85.5 -54.501 -114.5s-49 -50 -79 -63s-61.333 -19.5 -94 -19.5c-62 0 -109.833 14.833 -143.5 44.5s-54.834 67.167 -63.501 112.5zM264.002 307.003
c46 0 84.833 14.667 116.5 44s47.5 71 47.5 125c0 48 -15.167 87.333 -45.5 118s-67.5 46 -111.5 46c-45.333 0 -84 -14.667 -116 -44s-48 -71 -48 -125c0 -48 15.167 -87.333 45.5 -118s67.5 -46 111.5 -46z" />
    <glyph glyph-name="colon" unicode=":" horiz-adv-x="244" 
d="M112 376c-10.667 0 -18.667 2.83301 -24 8.5s-8 13.834 -8 24.501v47c0 10.667 2.66699 18.667 8 24s13.333 8 24 8h20c10.667 0 18.667 -2.66699 24 -8s8 -13.333 8 -24v-47c0 -10.667 -2.66699 -18.834 -8 -24.501s-13.333 -8.5 -24 -8.5h-20zM80 33v46
c0 10.667 2.66699 18.834 8 24.501s13.333 8.5 24 8.5h20c10.667 0 18.667 -2.83301 24 -8.5s8 -13.834 8 -24.501v-46c0 -10.667 -2.66699 -18.834 -8 -24.501s-13.333 -8.5 -24 -8.5h-20c-10.667 0 -18.667 2.83301 -24 8.5s-8 13.834 -8 24.501z" />
    <glyph glyph-name="semicolon" unicode=";" horiz-adv-x="244" 
d="M112 376c-10.667 0 -18.667 2.83301 -24 8.5s-8 13.834 -8 24.501v47c0 10.667 2.66699 18.667 8 24s13.333 8 24 8h20c10.667 0 18.667 -2.66699 24 -8s8 -13.333 8 -24v-47c0 -10.667 -2.66699 -18.834 -8 -24.501s-13.333 -8.5 -24 -8.5h-20zM80 33
l0.000976562 45.999c0 10.667 2.66699 18.834 8 24.501s13.333 8.5 24 8.5h20c10.667 0 18.667 -2.83301 24 -8.5s8 -13.834 8 -24.501v-46c0 -8.66699 -0.5 -17.5 -1.5 -26.5s-2.16699 -16.5 -3.5 -22.5l-31 -122c-0.666992 -4.66699 -2.83398 -8.83398 -6.50098 -12.501
s-8.16699 -5.5 -13.5 -5.5h-6c-4.66699 0 -8.5 1.83301 -11.5 5.5s-4.16699 7.83398 -3.5 12.501l28 138h-4c-10 0 -17.667 2.83301 -23 8.5s-8 13.834 -8 24.501z" />
    <glyph glyph-name="less" unicode="&#x3c;" horiz-adv-x="568" 
d="M95 216c-6.66699 2.66699 -11.999 6.33398 -15.999 11.001s-6 10.334 -6 17.001v21c0 6.66699 2 12.334 6 17.001s9.33301 8.33398 16 11.001l372 159c8.66699 3.33301 15.5 3.5 20.5 0.5s7.5 -7.83301 7.5 -14.5v-20c0 -6.66699 -1.83301 -11.834 -5.5 -15.501
s-8.83398 -6.83398 -15.501 -9.50098l-332 -137l332 -138c6 -2.66699 11 -5.83398 15 -9.50098s6 -8.83398 6 -15.501v-22c0 -6.66699 -2.5 -11.5 -7.5 -14.5s-11.833 -2.83301 -20.5 0.5z" />
    <glyph glyph-name="equal" unicode="=" horiz-adv-x="568" 
d="M80 328c-7.33301 0 -13 2 -17 6s-6 9.33301 -6 16v15c0 7.33301 2 12.833 6 16.5s9.66699 5.5 17 5.5h408c7.33301 0 13 -1.83301 17 -5.5s6 -9.16699 6 -16.5v-15c0 -6.66699 -2 -12 -6 -16s-9.66699 -6 -17 -6h-408zM80 120c-7.33301 0 -13 2 -17 6s-6 9.33301 -6 16
v15c0 7.33301 2 12.833 6 16.5s9.66699 5.5 17 5.5h408c7.33301 0 13 -1.83301 17 -5.5s6 -9.16699 6 -16.5v-15c0 -6.66699 -2 -12 -6 -16s-9.66699 -6 -17 -6h-408z" />
    <glyph glyph-name="greater" unicode="&#x3e;" horiz-adv-x="568" 
d="M73 71l-0.000976562 20.001c0 6.66699 1.83301 11.834 5.5 15.501s8.83398 6.83398 15.501 9.50098l332 137l-332 138c-6 2 -11 4.83301 -15 8.5s-6 8.83398 -6 15.501v23c0 6.66699 2.5 11.5 7.5 14.5s11.833 2.83301 20.5 -0.5l372 -159
c6.66699 -2.66699 12 -6.33398 16 -11.001s6 -10.334 6 -17.001v-21c0 -6.66699 -2 -12.334 -6 -17.001s-9.33301 -8.33398 -16 -11.001l-372 -159c-8.66699 -3.33301 -15.5 -3.5 -20.5 -0.5s-7.5 7.83301 -7.5 14.5z" />
    <glyph glyph-name="question" unicode="?" horiz-adv-x="485" 
d="M206 223l0.000976562 6.00195c0 44 9 78 27 102s37.833 44.833 59.5 62.5s41.5 35.5 59.5 53.5s27 43 27 75c0 34.667 -12 62.834 -36 84.501s-54.667 32.5 -92 32.5c-42 0 -75.167 -11.667 -99.5 -35s-37.833 -52 -40.5 -86c-1.33301 -8.66699 -4.5 -15.167 -9.5 -19.5
s-11.833 -6.5 -20.5 -6.5h-14c-8.66699 0 -15 2.16699 -19 6.5s-5.66699 10.833 -5 19.5c4 48.667 23.333 91 58 127s84.667 54 150 54c57.333 0 104.833 -15.5 142.5 -46.5s56.5 -73.5 56.5 -127.5c0 -40.667 -9.16699 -72.334 -27.5 -95.001s-38.5 -42.834 -60.5 -60.501
s-42.167 -36.334 -60.5 -56.001s-27.5 -46.5 -27.5 -80.5v-10c0 -8.66699 -2.16699 -15.334 -6.5 -20.001s-10.833 -7 -19.5 -7h-15c-8.66699 0 -15.334 2.33301 -20.001 7s-7 11.334 -7 20.001zM200.001 31.002v40c0 10.667 2.66699 18.5 8 23.5s13 7.5 23 7.5h18
c10 0 17.667 -2.5 23 -7.5s8 -12.833 8 -23.5v-40c0 -10 -2.66699 -17.667 -8 -23s-13 -8 -23 -8h-18c-10 0 -17.667 2.66699 -23 8s-8 13 -8 23z" />
    <glyph glyph-name="at" unicode="@" horiz-adv-x="1032" 
d="M52 233c0 66 11.5039 127.497 34.5039 184.497s55 106.333 96 148s90.333 74.334 148 98.001s120.834 35.5 189.501 35.5c64.667 0 125.167 -10.167 181.5 -30.5s105 -48.833 146 -85.5s73.333 -81.5 97 -134.5s35.5 -111.833 35.5 -176.5
c0 -98.667 -20.167 -170 -60.5 -214s-86.166 -66 -137.499 -66c-30.667 0 -59 7 -85 21s-43.333 38 -52 72c-16.667 -32.667 -40.834 -56.834 -72.501 -72.501s-67.5 -23.5 -107.5 -23.5c-50.667 0 -90 12.833 -118 38.5s-42 58.5 -42 98.5c0 38 12.333 69.333 37 94
s64 41.334 118 50.001l106 17c23.333 4 40 8.5 50 13.5s15 13.833 15 26.5c0 38 -9.83301 66.833 -29.5 86.5s-48.5 29.5 -86.5 29.5s-65.833 -7.83301 -83.5 -23.5s-30.834 -35.834 -39.501 -60.501c-2.66699 -6 -6.16699 -11.333 -10.5 -16s-11.5 -7 -21.5 -7h-10
c-10.667 0 -17.334 3.33301 -20.001 10s-3 14 -1 22c9.33301 39.333 30.333 71 63 95s73.667 36 123 36c60.667 0 106.5 -15.667 137.5 -47s46.5 -76 46.5 -134v-167c0 -44 9.16699 -73.5 27.5 -88.5s38.833 -22.5 61.5 -22.5c34 0 64.667 18.333 92 55s41 95.667 41 177
c0 58 -10.333 110.333 -31 157s-48.834 86.167 -84.501 118.5s-78.167 57.333 -127.5 75s-102 26.5 -158 26.5c-60.667 0 -116.167 -10.5 -166.5 -31.5s-93.333 -50 -129 -87s-63.5 -81 -83.5 -132s-30 -106.167 -30 -165.5s9.83301 -114.166 29.5 -164.499
s47 -93.666 82 -129.999s76.833 -64.833 125.5 -85.5s101.667 -31 159 -31c40.667 0 79.667 6 117 18s69 29 95 51c7.33301 6 13.666 10.5 18.999 13.5s11.666 4.5 18.999 4.5h21c9.33301 0 16 -3 20 -9s0.666992 -14.333 -10 -25c-32.667 -32 -72.167 -57.167 -118.5 -75.5
s-100.5 -27.5 -162.5 -27.5c-66 0 -127 11.667 -183 35s-104 55.333 -144 96s-71.333 89.334 -94 146.001s-34 118 -34 184zM373.004 128.997c0 -26.667 9.16699 -47.832 27.5 -63.499s43.833 -23.5 76.5 -23.5c41.333 0 77.333 13.833 108 41.5s46 69.5 46 125.5v53
c-4.66699 -6.66699 -12 -11.834 -22 -15.501s-21.333 -6.83398 -34 -9.50098l-105 -17c-34 -5.33301 -58.667 -15.666 -74 -30.999s-23 -35.333 -23 -60z" />
    <glyph glyph-name="A" unicode="A" horiz-adv-x="617" 
d="M25 35l235 624c3.33301 9.33301 8 16.5 14 21.5s14.333 7.5 25 7.5h25c10.667 0 19.334 -2.5 26.001 -7.5s11.667 -12.167 15 -21.5l234 -625c4.66699 -12 5 -20.667 1 -26s-11.333 -8 -22 -8h-17c-9.33301 -0 -16.333 2.33301 -21 7s-8.66699 12 -12 22l-63 168h-310
l-62 -168c-3.33301 -10 -7.33301 -17.333 -12 -22s-11.334 -7 -20.001 -7h-15c-10.667 -0 -18 2.83301 -22 8.5s-3.66699 14.5 1 26.5zM178 259h265l-130 355h-4z" />
    <glyph glyph-name="B" unicode="B" horiz-adv-x="653" 
d="M91 28l0.000976562 631.998c0 8.66699 2.5 15.5 7.5 20.5s11.833 7.5 20.5 7.5h248c72 0 125.5 -15.5 160.5 -46.5s52.5 -73.5 52.5 -127.5c0 -36 -10.167 -67.167 -30.5 -93.5s-47.833 -44.833 -82.5 -55.5v-3c42 -7.33301 75.667 -25.166 101 -53.499
s38 -64.166 38 -107.499c0 -58 -18.833 -106 -56.5 -144s-92.834 -57 -165.501 -57h-265c-8.66699 0 -15.5 2.5 -20.5 7.5s-7.5 11.833 -7.5 20.5zM162.001 388.998l207 0.000976562c45.333 0 80 12.167 104 36.5s36 54.166 36 89.499c0 34 -11 61 -33 81
s-58.333 30 -109 30h-205v-237zM162.001 61.999h222c50.667 0 88.5 13 113.5 39s37.5 59 37.5 99c0 36 -12.5 66.167 -37.5 90.5s-62.833 36.5 -113.5 36.5h-222v-265z" />
    <glyph glyph-name="C" unicode="C" horiz-adv-x="700" 
d="M47 344c0 50 7.83984 96.666 23.5068 139.999s37.834 80.833 66.501 112.5s63.167 56.667 103.5 75s84.833 27.5 133.5 27.5c72.667 0 133.5 -17.833 182.5 -53.5s81.833 -81.5 98.5 -137.5c3.33301 -12 2.16602 -20.5 -3.50098 -25.5s-12.834 -7.5 -21.501 -7.5h-14
c-9.33301 0 -16.5 2.5 -21.5 7.5s-9.5 11.833 -13.5 20.5c-16.667 42 -42.334 74.333 -77.001 97s-78 34 -130 34c-76 0 -137.167 -27.667 -183.5 -83s-69.5 -124.333 -69.5 -207c0 -40.667 6 -78.667 18 -114s28.833 -66 50.5 -92s48 -46.5 79 -61.5
s65.167 -22.5 102.5 -22.5c52 0 95.667 11.333 131 34s61.666 55 78.999 97c3.33301 8.66699 7.66602 15.5 12.999 20.5s12.333 7.5 21 7.5h14c9.33301 0 16.666 -2.5 21.999 -7.5s6.33301 -13.5 3 -25.5c-16.667 -56 -49.834 -101.833 -99.501 -137.5
s-110.834 -53.5 -183.501 -53.5c-48 0 -92 9 -132 27s-74.167 42.667 -102.5 74s-50.333 68.833 -66 112.5s-23.5 90.834 -23.5 141.501z" />
    <glyph glyph-name="D" unicode="D" horiz-adv-x="696" 
d="M91 28v632c0 8.66699 2.5 15.5 7.5 20.5s11.833 7.5 20.5 7.5h169c118.667 0 208.5 -32.333 269.5 -97s91.5 -147 91.5 -247s-30.5 -182.333 -91.5 -247s-150.833 -97 -269.5 -97h-169c-8.66699 0 -15.5 2.5 -20.5 7.5s-7.5 11.833 -7.5 20.5zM162 62h126
c50.667 0 94.167 7.5 130.5 22.5s66.166 35.167 89.499 60.5s40.333 55.333 51 90s16 71 16 109s-5.33301 74.333 -16 109s-27.667 64.667 -51 90s-53.166 45.5 -89.499 60.5s-79.833 22.5 -130.5 22.5h-126v-564z" />
    <glyph glyph-name="E" unicode="E" horiz-adv-x="595" 
d="M91 28v632c0 8.66699 2.5 15.5 7.5 20.5s11.833 7.5 20.5 7.5h402c8.66699 0 15.167 -2.16699 19.5 -6.5s6.5 -10.833 6.5 -19.5v-10c0 -8.66699 -2.16699 -15.167 -6.5 -19.5s-10.833 -6.5 -19.5 -6.5h-359v-244h283c8.66699 0 15.167 -2.16699 19.5 -6.5
s6.5 -10.833 6.5 -19.5v-10c0 -8.66699 -2.16699 -15.167 -6.5 -19.5s-10.833 -6.5 -19.5 -6.5h-283v-258h367c8.66699 0 15.167 -2.16699 19.5 -6.5s6.5 -10.833 6.5 -19.5v-10c0 -8.66699 -2.16699 -15.167 -6.5 -19.5s-10.833 -6.5 -19.5 -6.5h-410
c-8.66699 0 -15.5 2.5 -20.5 7.5s-7.5 11.833 -7.5 20.5z" />
    <glyph glyph-name="F" unicode="F" horiz-adv-x="568" 
d="M91 28v632c0 8.66699 2.5 15.5 7.5 20.5s11.833 7.5 20.5 7.5h394c8.66699 0 15.167 -2.16699 19.5 -6.5s6.5 -10.833 6.5 -19.5v-10c0 -8.66699 -2.16699 -15.167 -6.5 -19.5s-10.833 -6.5 -19.5 -6.5h-351v-256h275c8.66699 0 15.167 -2.16699 19.5 -6.5
s6.5 -10.833 6.5 -19.5v-10c0 -8.66699 -2.16699 -15.167 -6.5 -19.5s-10.833 -6.5 -19.5 -6.5h-275v-280c0 -8.66699 -2.5 -15.5 -7.5 -20.5s-11.833 -7.5 -20.5 -7.5h-15c-8.66699 0 -15.5 2.5 -20.5 7.5s-7.5 11.833 -7.5 20.5z" />
    <glyph glyph-name="G" unicode="G" horiz-adv-x="755" 
d="M47 344c0 50.667 8.17188 97.832 24.5049 141.499s39.166 81.167 68.499 112.5s64.666 56 105.999 74s86.666 27 135.999 27c74.667 0 136 -17.5 184 -52.5s80.333 -77.167 97 -126.5c5.33301 -14 5.16602 -23.667 -0.500977 -29s-13.167 -8 -22.5 -8h-15
c-9.33301 0 -16.166 2.5 -20.499 7.5s-8.83301 11.833 -13.5 20.5c-14.667 34 -39.334 63 -74.001 87s-79.667 36 -135 36c-78.667 0 -141.834 -27.5 -189.501 -82.5s-71.5 -124.167 -71.5 -207.5c0 -40.667 6.16699 -78.667 18.5 -114s29.833 -66 52.5 -92
s49.667 -46.5 81 -61.5s66 -22.5 104 -22.5c30.667 0 60 4.33301 88 13s52.833 21.834 74.5 39.501s39 39.667 52 66s19.5 56.833 19.5 91.5v34h-205c-8.66699 0 -15 2 -19 6s-6 10.333 -6 19v12c0 8.66699 2 15 6 19s10.333 6 19 6h244c8.66699 0 15.167 -2 19.5 -6
s6.5 -10.333 6.5 -19v-314c0 -6.66699 -1.66699 -11.834 -5 -15.501s-8.66602 -5.5 -15.999 -5.5h-11c-7.33301 0 -12.5 1.83301 -15.5 5.5s-4.83301 8.83398 -5.5 15.501l-6 87h-3c-22.667 -40 -54.5 -69.833 -95.5 -89.5s-88.167 -29.5 -141.5 -29.5
c-48.667 0 -93.334 9.16699 -134.001 27.5s-75.5 43.333 -104.5 75s-51.5 69.167 -67.5 112.5s-24 90 -24 140z" />
    <glyph glyph-name="H" unicode="H" horiz-adv-x="716" 
d="M91 28v632c0 8.66699 2.5 15.5 7.5 20.5s11.833 7.5 20.5 7.5h15c8.66699 0 15.5 -2.5 20.5 -7.5s7.5 -11.833 7.5 -20.5v-280h392v280c0 8.66699 2.5 15.5 7.5 20.5s11.833 7.5 20.5 7.5h15c8.66699 0 15.5 -2.5 20.5 -7.5s7.5 -11.833 7.5 -20.5v-632
c0 -8.66699 -2.5 -15.5 -7.5 -20.5s-11.833 -7.5 -20.5 -7.5h-15c-8.66699 0 -15.5 2.5 -20.5 7.5s-7.5 11.833 -7.5 20.5v290h-392v-290c0 -8.66699 -2.5 -15.5 -7.5 -20.5s-11.833 -7.5 -20.5 -7.5h-15c-8.66699 0 -15.5 2.5 -20.5 7.5s-7.5 11.833 -7.5 20.5z" />
    <glyph glyph-name="I" unicode="I" horiz-adv-x="253" 
d="M91 28v632c0 8.66699 2.5 15.5 7.5 20.5s11.833 7.5 20.5 7.5h15c8.66699 0 15.5 -2.5 20.5 -7.5s7.5 -11.833 7.5 -20.5v-632c0 -8.66699 -2.5 -15.5 -7.5 -20.5s-11.833 -7.5 -20.5 -7.5h-15c-8.66699 0 -15.5 2.5 -20.5 7.5s-7.5 11.833 -7.5 20.5z" />
    <glyph glyph-name="J" unicode="J" horiz-adv-x="513" 
d="M45 190l0.000976562 12.002c0 9.33301 2.5 16.5 7.5 21.5s11.833 7.5 20.5 7.5h15c8.66699 0 15.5 -2.5 20.5 -7.5s7.5 -12.167 7.5 -21.5v-11c0 -49.333 11.667 -85 35 -107s53 -33 89 -33c34 0 63 11.333 87 34s36 59 36 109v466c0 8.66699 2.33301 15.5 7 20.5
s11.667 7.5 21 7.5h14c9.33301 0 16.5 -2.5 21.5 -7.5s7.5 -11.833 7.5 -20.5v-467c0 -72.667 -18.333 -124.834 -55 -156.501s-83 -47.5 -139 -47.5c-56.667 0 -103.334 15.667 -140.001 47s-55 82.666 -55 153.999z" />
    <glyph glyph-name="K" unicode="K" horiz-adv-x="644" 
d="M91 28l-0.000976562 632c0 8.66699 2.5 15.5 7.5 20.5s11.833 7.5 20.5 7.5h15c8.66699 0 15.5 -2.5 20.5 -7.5s7.5 -11.833 7.5 -20.5v-373l343 372c8.66699 9.33301 16.167 16.5 22.5 21.5s14.5 7.5 24.5 7.5h20c10 0 16.833 -3 20.5 -9s0.5 -14.333 -9.5 -25
l-247 -264l268 -355c8 -10 9.83301 -18.333 5.5 -25s-11.166 -10 -20.499 -10h-18c-10 -0 -17.833 2.33301 -23.5 7s-12.5 12 -20.5 22l-238 311l-127 -137v-175c0 -8.66699 -2.5 -15.5 -7.5 -20.5s-11.833 -7.5 -20.5 -7.5h-15c-8.66699 0 -15.5 2.5 -20.5 7.5
s-7.5 11.833 -7.5 20.5z" />
    <glyph glyph-name="L" unicode="L" horiz-adv-x="539" 
d="M91 28v632c0 8.66699 2.5 15.5 7.5 20.5s11.833 7.5 20.5 7.5h15c8.66699 0 15.5 -2.5 20.5 -7.5s7.5 -11.833 7.5 -20.5v-598h324c8.66699 0 15.167 -2.16699 19.5 -6.5s6.5 -10.833 6.5 -19.5v-10c0 -8.66699 -2.16699 -15.167 -6.5 -19.5s-10.833 -6.5 -19.5 -6.5
h-367c-8.66699 0 -15.5 2.5 -20.5 7.5s-7.5 11.833 -7.5 20.5z" />
    <glyph glyph-name="M" unicode="M" horiz-adv-x="888" 
d="M91 28l0.00292969 632c0 8.66699 2.5 15.5 7.5 20.5s11.833 7.5 20.5 7.5h33c9.33301 0 16.833 -2.5 22.5 -7.5s10.5 -11.833 14.5 -20.5l255 -564h2l252 564c4 8.66699 9.33301 15.5 16 20.5s14.667 7.5 24 7.5h30c9.33301 0 16.333 -2.5 21 -7.5s7 -11.833 7 -20.5
v-632c0 -8.66699 -2.33301 -15.5 -7 -20.5s-11.667 -7.5 -21 -7.5h-14c-9.33301 0 -16.333 2.5 -21 7.5s-7 11.833 -7 20.5l6 546h-3l-245 -546c-4 -10 -8.83301 -17.167 -14.5 -21.5s-12.834 -6.5 -21.501 -6.5h-8c-8.66699 0 -15.834 2.16699 -21.501 6.5
s-10.834 11.5 -15.501 21.5l-244 539h-3l6 -539c0 -8.66699 -2.5 -15.5 -7.5 -20.5s-11.833 -7.5 -20.5 -7.5h-15c-8.66699 0 -15.5 2.5 -20.5 7.5s-7.5 11.833 -7.5 20.5z" />
    <glyph glyph-name="N" unicode="N" horiz-adv-x="723" 
d="M91 28v632c0 8.66699 2.5 15.5 7.5 20.5s11.833 7.5 20.5 7.5h19c9.33301 0 16.833 -2.16699 22.5 -6.5s11.834 -11.5 18.501 -21.5l382 -542h3l-3 542c0 8.66699 2.33301 15.5 7 20.5s11.667 7.5 21 7.5h14c9.33301 0 16.5 -2.5 21.5 -7.5s7.5 -11.833 7.5 -20.5v-632
c0 -8.66699 -2.5 -15.5 -7.5 -20.5s-12.167 -7.5 -21.5 -7.5h-18c-9.33301 0 -16.833 2.16699 -22.5 6.5s-11.834 11.5 -18.501 21.5l-382 542h-3l3 -542c0 -8.66699 -2.5 -15.5 -7.5 -20.5s-11.833 -7.5 -20.5 -7.5h-15c-8.66699 0 -15.5 2.5 -20.5 7.5
s-7.5 11.833 -7.5 20.5z" />
    <glyph glyph-name="O" unicode="O" horiz-adv-x="754" 
d="M47 344c0 50.667 8 97.834 24 141.501s38.333 81.167 67 112.5s63.334 56 104.001 74s85.667 27 135 27c48 0 92.333 -9 133 -27s75.5 -42.667 104.5 -74s51.667 -68.833 68 -112.5s24.5 -90.834 24.5 -141.501s-8.16699 -97.834 -24.5 -141.501s-39 -81.167 -68 -112.5
s-63.833 -56 -104.5 -74s-85 -27 -133 -27c-49.333 0 -94.333 9 -135 27s-75.334 42.667 -104.001 74s-51 68.833 -67 112.5s-24 90.834 -24 141.501zM121 344c0 -82.667 23.667 -151.667 71 -207s109 -83 185 -83c75.333 0 136.833 27.667 184.5 83s71.5 124.333 71.5 207
s-23.833 151.667 -71.5 207s-109.167 83 -184.5 83c-76 0 -137.667 -27.667 -185 -83s-71 -124.333 -71 -207z" />
    <glyph glyph-name="P" unicode="P" horiz-adv-x="624" 
d="M91 28v631.998c0 8.66699 2.5 15.5 7.5 20.5s11.833 7.5 20.5 7.5h227c75.333 0 133.333 -20.167 174 -60.5s61 -92.166 61 -155.499s-20.333 -116.166 -61 -158.499s-98.667 -63.5 -174 -63.5h-184v-222c0 -8.66699 -2.5 -15.5 -7.5 -20.5s-11.833 -7.5 -20.5 -7.5h-15
c-8.66699 0 -15.5 2.5 -20.5 7.5s-7.5 11.833 -7.5 20.5zM162 311.998h187c53.333 0 93.5 15.667 120.5 47s40.5 69 40.5 113s-13.5 80.667 -40.5 110s-67.167 44 -120.5 44h-187v-314z" />
    <glyph glyph-name="Q" unicode="Q" horiz-adv-x="754" 
d="M47 344c0 50.667 8 97.8311 24 141.498s38.333 81.167 67 112.5s63.334 56 104.001 74s85.667 27 135 27c48 0 92.333 -9 133 -27s75.5 -42.667 104.5 -74s51.667 -68.833 68 -112.5s24.5 -90.834 24.5 -141.501c0 -55.333 -9.83301 -106.333 -29.5 -153
s-46.5 -86 -80.5 -118l107 -125c6.66699 -7.33301 9.83398 -14.666 9.50098 -21.999s-3.83301 -13.666 -10.5 -18.999l-10 -7c-6.66699 -6 -13.834 -8.16699 -21.501 -6.5s-14.5 6.16699 -20.5 13.5l-109 126c-23.333 -14 -49 -24.833 -77 -32.5s-57.333 -11.5 -88 -11.5
c-49.333 0 -94.333 9 -135 27s-75.334 42.667 -104.001 74s-51 68.833 -67 112.5s-24 90.834 -24 141.501zM121 343.997c0 -82.667 23.667 -151.667 71 -207s109 -83 185 -83c75.333 0 136.833 27.667 184.5 83s71.5 124.333 71.5 207s-23.833 151.667 -71.5 207
s-109.167 83 -184.5 83c-76 0 -137.667 -27.667 -185 -83s-71 -124.333 -71 -207z" />
    <glyph glyph-name="R" unicode="R" horiz-adv-x="643" 
d="M91 28l0.000976562 632.001c0 8.66699 2.5 15.5 7.5 20.5s11.833 7.5 20.5 7.5h230c75.333 0 132.666 -17.5 171.999 -52.5s59 -83.5 59 -145.5c0 -52 -14 -95.833 -42 -131.5s-68.667 -58.834 -122 -69.501l159 -249c8 -12.667 9.33301 -22.5 4 -29.5
s-12.666 -10.5 -21.999 -10.5h-13c-9.33301 -0 -16.833 2.33301 -22.5 7s-11.834 12 -18.501 22l-161 252h-180v-253c0 -8.66699 -2.5 -15.5 -7.5 -20.5s-11.833 -7.5 -20.5 -7.5h-15c-8.66699 0 -15.5 2.5 -20.5 7.5s-7.5 11.833 -7.5 20.5zM162.001 343.001h190
c51.333 0 90.333 14 117 42s40 63 40 105s-13.5 75.167 -40.5 99.5s-65.833 36.5 -116.5 36.5h-190v-283z" />
    <glyph glyph-name="S" unicode="S" horiz-adv-x="625" 
d="M56 166c-2.66699 12 -1.16797 20.667 4.49902 26s13.167 8 22.5 8h11c9.33301 0 16.5 -2.5 21.5 -7.5s8.83301 -11.833 11.5 -20.5c7.33301 -39.333 27.166 -69.666 59.499 -90.999s75.833 -32 130.5 -32c58 0 103.333 12.333 136 37s49 58 49 100
c0 52 -22.5 85.667 -67.5 101s-94.5 28.166 -148.5 38.499s-103.5 26.666 -148.5 48.999s-67.5 66.833 -67.5 133.5c0 54.667 22 100.167 66 136.5s103 54.5 177 54.5c68.667 0 123.834 -14.333 165.501 -43s66.834 -69 75.501 -121c2.66699 -12 1.16699 -20.5 -4.5 -25.5
s-12.834 -7.5 -21.501 -7.5h-13c-8.66699 0 -15.5 2.5 -20.5 7.5s-8.83301 11.833 -11.5 20.5c-8.66699 36 -27.5 63.167 -56.5 81.5s-66.833 27.5 -113.5 27.5c-49.333 0 -90 -11 -122 -33s-48 -52.667 -48 -92c0 -50 22.667 -82 68 -96s94.833 -26.167 148.5 -36.5
s103.167 -27.5 148.5 -51.5s68 -70.667 68 -140c0 -59.333 -22.833 -107.666 -68.5 -144.999s-109.167 -56 -190.5 -56c-78 0 -139.167 16 -183.5 48s-70.166 75 -77.499 129z" />
    <glyph glyph-name="T" unicode="T" horiz-adv-x="579" 
d="M254 28v599h-220c-8.66699 0 -15.167 2.16699 -19.5 6.5s-6.5 10.833 -6.5 19.5v9c0 8.66699 2.16699 15.167 6.5 19.5s10.833 6.5 19.5 6.5h511c8.66699 0 15.167 -2.16699 19.5 -6.5s6.5 -10.833 6.5 -19.5v-9c0 -8.66699 -2.16699 -15.167 -6.5 -19.5
s-10.833 -6.5 -19.5 -6.5h-220v-599c0 -8.66699 -2.5 -15.5 -7.5 -20.5s-11.833 -7.5 -20.5 -7.5h-15c-8.66699 0 -15.5 2.5 -20.5 7.5s-7.5 11.833 -7.5 20.5z" />
    <glyph glyph-name="U" unicode="U" horiz-adv-x="688" 
d="M76 271v389c0 8.66699 2.5 15.5 7.5 20.5s11.833 7.5 20.5 7.5h15c8.66699 0 15.5 -2.5 20.5 -7.5s7.5 -11.833 7.5 -20.5v-389c0 -70 16.833 -123.667 50.5 -161s82.5 -56 146.5 -56s112.833 18.667 146.5 56s50.5 91 50.5 161v389c0 8.66699 2.33301 15.5 7 20.5
s11.667 7.5 21 7.5h14c9.33301 0 16.5 -2.5 21.5 -7.5s7.5 -11.833 7.5 -20.5v-389c0 -99.333 -25 -171.166 -75 -215.499s-114.333 -66.5 -193 -66.5s-143 22.167 -193 66.5s-75 116.166 -75 215.499z" />
    <glyph glyph-name="V" unicode="V" horiz-adv-x="606" 
d="M257 29l-232 624c-4.66699 12.667 -4.5 21.667 0.5 27s12.833 8 23.5 8h15c9.33301 0 16.333 -2.33301 21 -7s8.66699 -12 12 -22l210 -585h3l211 585c3.33301 10 7.33301 17.333 12 22s11.667 7 21 7h12c10.667 0 18.334 -2.66699 23.001 -8s4.66699 -14.333 0 -27
l-232 -624c-3.33301 -10 -7.5 -17.333 -12.5 -22s-12.833 -7 -23.5 -7h-29c-10.667 -0 -18.334 2.33301 -23.001 7s-8.66699 12 -12 22z" />
    <glyph glyph-name="W" unicode="W" horiz-adv-x="913" 
d="M190 29l-169.002 627c-2.66699 11.333 -1.5 19.5 3.5 24.5s12.167 7.5 21.5 7.5h16c8.66699 0 15.5 -2.33301 20.5 -7s8.83301 -12 11.5 -22l149 -584h3l163 584c2.66699 10 7 17.333 13 22s13.667 7 23 7h33c8.66699 0 16 -2.33301 22 -7s10.333 -12 13 -22l164 -584h3
l147 584c2.66699 10 6.33398 17.333 11.001 22s11.334 7 20.001 7h13c9.33301 0 16.5 -2.5 21.5 -7.5s6.16699 -13.167 3.5 -24.5l-167 -627c-2.66699 -10 -7 -17.333 -13 -22s-13.333 -7 -22 -7h-36c-9.33301 -0 -17 2.33301 -23 7s-10.333 12 -13 22l-161 577h-3
l-162 -577c-2.66699 -10 -7 -17.333 -13 -22s-13.333 -7 -22 -7h-35c-9.33301 -0 -17 2.33301 -23 7s-10.333 12 -13 22z" />
    <glyph glyph-name="X" unicode="X" horiz-adv-x="584" 
d="M33 34l220.997 317l-212 303c-6.66699 10 -8.16699 18.167 -4.5 24.5s10.167 9.5 19.5 9.5h23c9.33301 0 16.5 -2.5 21.5 -7.5s10.833 -12.167 17.5 -21.5l175 -252l175 252c6.66699 9.33301 12.5 16.5 17.5 21.5s12.167 7.5 21.5 7.5h21
c9.33301 0 15.666 -3.16699 18.999 -9.5s1.66602 -14.5 -5.00098 -24.5l-210 -301l223 -319c6.66699 -10 8.33398 -18.167 5.00098 -24.5s-9.66602 -9.5 -18.999 -9.5h-23c-9.33301 0 -16.666 2.5 -21.999 7.5s-11 12.167 -17 21.5l-187 268l-186 -268
c-6.66699 -9.33301 -12.5 -16.5 -17.5 -21.5s-12.167 -7.5 -21.5 -7.5h-21c-9.33301 0 -15.666 3 -18.999 9s-1.66602 14.333 5.00098 25z" />
    <glyph glyph-name="Y" unicode="Y" horiz-adv-x="569" 
d="M252 28v246l-226 377c-6.66699 11.333 -8 20.333 -4 27s10.667 10 20 10h21c10.667 0 18.5 -2.33301 23.5 -7s10.167 -12 15.5 -22l185 -312h3l190 312c5.33301 10 10.5 17.333 15.5 22s12.833 7 23.5 7h15c9.33301 0 16 -3.33301 20 -10s2.66699 -15.667 -4 -27
l-228 -373v-250c0 -8.66699 -2.33301 -15.5 -7 -20.5s-11.667 -7.5 -21 -7.5h-14c-9.33301 0 -16.333 2.5 -21 7.5s-7 11.833 -7 20.5z" />
    <glyph glyph-name="Z" unicode="Z" horiz-adv-x="570" 
d="M32 26v10c0 3.33301 0.833008 6.83301 2.5 10.5s3.83398 7.5 6.50098 11.5l403 569h-366c-8.66699 0 -15.167 2.16699 -19.5 6.5s-6.5 10.833 -6.5 19.5v9c0 8.66699 2.16699 15.167 6.5 19.5s10.833 6.5 19.5 6.5h429c8.66699 0 15.167 -2.16699 19.5 -6.5
s6.5 -10.833 6.5 -19.5v-10c0 -3.33301 -0.833008 -6.83301 -2.5 -10.5s-3.83398 -7.5 -6.50098 -11.5l-403 -569h382c8.66699 0 15.167 -2.16699 19.5 -6.5s6.5 -10.833 6.5 -19.5v-9c0 -8.66699 -2.16699 -15.167 -6.5 -19.5s-10.833 -6.5 -19.5 -6.5h-445
c-8.66699 0 -15.167 2.16699 -19.5 6.5s-6.5 10.833 -6.5 19.5z" />
    <glyph glyph-name="bracketleft" unicode="[" horiz-adv-x="318" 
d="M91 -207v930.002c0 6.66699 2 11.834 6 15.501s9.33301 5.5 16 5.5h166c6.66699 0 11.834 -1.83301 15.501 -5.5s5.5 -8.83398 5.5 -15.501v-14c0 -6.66699 -1.83301 -11.834 -5.5 -15.501s-8.83398 -5.5 -15.501 -5.5h-126v-860h126
c6.66699 0 11.834 -1.83301 15.501 -5.5s5.5 -8.83398 5.5 -15.501v-14c0 -6.66699 -1.83301 -11.834 -5.5 -15.501s-8.83398 -5.5 -15.501 -5.5h-166c-6.66699 0 -12 1.83301 -16 5.5s-6 8.83398 -6 15.501z" />
    <glyph glyph-name="backslash" unicode="\" horiz-adv-x="401" 
d="M317 12l-287.001 664c-3.33301 6.66699 -3.83301 12.334 -1.5 17.001s7.5 7 15.5 7h11c8 0 14.667 -2 20 -6s9.66602 -10 12.999 -18l287 -664c2.66699 -6.66699 3 -12.334 1 -17.001s-7.33301 -7 -16 -7h-11c-7.33301 0 -13.666 2 -18.999 6s-9.66602 10 -12.999 18z
" />
    <glyph glyph-name="bracketright" unicode="]" horiz-adv-x="318" 
d="M40 -172l125 -0.00195312v860h-125c-7.33301 0 -12.833 1.83301 -16.5 5.5s-5.5 8.83398 -5.5 15.501v14c0 6.66699 1.83301 11.834 5.5 15.501s9.16699 5.5 16.5 5.5h165c6.66699 0 12 -1.83301 16 -5.5s6 -8.83398 6 -15.501v-930c0 -6.66699 -2 -11.834 -6 -15.501
s-9.33301 -5.5 -16 -5.5h-165c-7.33301 0 -12.833 1.83301 -16.5 5.5s-5.5 8.83398 -5.5 15.501v14c0 6.66699 1.83301 11.834 5.5 15.501s9.16699 5.5 16.5 5.5z" />
    <glyph glyph-name="asciicircum" unicode="^" horiz-adv-x="568" 
d="M87 352c-6 0 -10.1689 2.16699 -12.502 6.5s-1.83301 9.83301 1.5 16.5l163 288c4.66699 8 9.83398 14.167 15.501 18.5s12.5 6.5 20.5 6.5h24c8 0 14.833 -2.16699 20.5 -6.5s10.834 -10.5 15.501 -18.5l163 -288c3.33301 -6.66699 4 -12.167 2 -16.5
s-6.33301 -6.5 -13 -6.5h-29c-6.66699 0 -12 1.83301 -16 5.5s-7.66699 8.5 -11 14.5l-145 262l-145 -262c-3.33301 -6 -7 -10.833 -11 -14.5s-9.33301 -5.5 -16 -5.5h-27z" />
    <glyph glyph-name="underscore" unicode="_" horiz-adv-x="500" 
d="M20 -72h460c6 0 10.833 -1.66699 14.5 -5s5.5 -8.33301 5.5 -15v-13c0 -6.66699 -1.83301 -11.667 -5.5 -15s-8.5 -5 -14.5 -5h-460c-6.66699 0 -11.667 1.66699 -15 5s-5 8.33301 -5 15v13c0 6.66699 1.66699 11.667 5 15s8.33301 5 15 5z" />
    <glyph glyph-name="grave" unicode="`" horiz-adv-x="550" 
d="M274 568c-6.66699 0 -12 1.16699 -16 3.5s-8.66699 6.83301 -14 13.5l-103 124c-4.66699 6 -6.16699 11.333 -4.5 16s5.5 7 11.5 7h39c6.66699 0 12.167 -1.66699 16.5 -5s8.16602 -8 11.499 -14l81 -126c2.66699 -4.66699 2.83398 -9 0.500977 -13s-5.83301 -6 -10.5 -6
h-12z" />
    <glyph glyph-name="a" unicode="a" horiz-adv-x="517" 
d="M50 123c0 40 12.335 72.001 37.002 96.001s64 40.333 118 49l105 18c24.667 4 41.834 8.66699 51.501 14s14.5 14.333 14.5 27c0 37.333 -10.167 66 -30.5 86s-48.833 30 -85.5 30c-38 0 -65.833 -7.83301 -83.5 -23.5s-30.834 -35.834 -39.501 -60.501
c-2.66699 -6 -6.16699 -11.333 -10.5 -16s-11.5 -7 -21.5 -7h-10c-10.667 0 -17.334 3.33301 -20.001 10s-3 14 -1 22c9.33301 39.333 30.333 71 63 95s73.667 36 123 36c60 0 105.667 -15.167 137 -45.5s47 -72.833 47 -127.5v-299c0 -8.66699 -2.33301 -15.334 -7 -20.001
s-11.334 -7 -20.001 -7h-11c-8.66699 0 -15.334 2.33301 -20.001 7s-7 11.334 -7 20.001v51h-3c-13.333 -28.667 -34.666 -50.667 -63.999 -66s-63.333 -23 -102 -23c-50.667 0 -90 12.333 -118 37s-42 57 -42 97zM118.002 129.001c0 -24.667 8.66699 -44.8311 26 -60.498
s43 -23.5 77 -23.5c42 0 78.333 13.167 109 39.5s46 66.833 46 121.5v56c-4.66699 -6.66699 -12 -11.834 -22 -15.501s-21.333 -6.83398 -34 -9.50098l-103 -17c-34 -6 -59 -16.5 -75 -31.5s-24 -34.833 -24 -59.5z" />
    <glyph glyph-name="b" unicode="b" horiz-adv-x="576" 
d="M80 27l0.00195312 676.998c0 8.66699 2.33301 15.5 7 20.5s11.667 7.5 21 7.5h12c8.66699 0 15.5 -2.5 20.5 -7.5s7.5 -11.833 7.5 -20.5v-130v-30.5c0 -14.333 -0.166992 -30 -0.5 -47l-1 -52.5c-0.333008 -18 -0.833008 -33.667 -1.5 -47h3
c15.333 34.667 38.5 60.334 69.5 77.001s65.167 25 102.5 25c60 0 110.5 -22.167 151.5 -66.5s61.5 -105.833 61.5 -184.5s-21.5 -141.5 -64.5 -188.5s-94.5 -70.5 -154.5 -70.5c-37.333 0 -70.5 8.33301 -99.5 25s-51.167 42.334 -66.5 77.001h-3v-64
c0 -8.66699 -2.33301 -15.334 -7 -20.001s-11.334 -7 -20.001 -7h-11c-8.66699 0 -15.334 2.33301 -20.001 7s-7 11.334 -7 20.001zM148.002 243.998c0 -62 15.167 -110.166 45.5 -144.499s67.5 -51.5 111.5 -51.5s81.167 18 111.5 54s45.5 84.667 45.5 146
s-15.333 108.666 -46 141.999s-67.667 50 -111 50c-44 0 -81.167 -17.167 -111.5 -51.5s-45.5 -82.5 -45.5 -144.5z" />
    <glyph glyph-name="c" unicode="c" horiz-adv-x="511" 
d="M43 244c0 76.667 21.668 138.334 65.001 185.001s97 70 161 70c50 0 92 -12.667 126 -38s57.333 -58 70 -98c3.33301 -8.66699 3.66602 -16.834 0.999023 -24.501s-9.66699 -11.5 -21 -11.5h-14c-7.33301 0 -13.5 1.66699 -18.5 5s-9.16699 9.33301 -12.5 18
c-8.66699 26 -23.834 47.5 -45.501 64.5s-49.5 25.5 -83.5 25.5c-43.333 0 -80.333 -18.167 -111 -54.5s-46 -83.5 -46 -141.5s15.167 -105.167 45.5 -141.5s67.5 -54.5 111.5 -54.5c35.333 0 63.5 8.5 84.5 25.5s35.833 38.5 44.5 64.5c3.33301 8.66699 7.5 14.667 12.5 18
s11.167 5 18.5 5h14c11.333 0 18.333 -3.83301 21 -11.5s2.33398 -15.834 -0.999023 -24.501c-12.667 -40 -36 -72.667 -70 -98s-76 -38 -126 -38c-69.333 0 -124.333 23.333 -165 70s-61 108.334 -61 185.001z" />
    <glyph glyph-name="d" unicode="d" horiz-adv-x="576" 
d="M43 240c0 78.667 21.5029 141.502 64.5029 188.502s94.5 70.5 154.5 70.5c37.333 0 70.666 -8.33301 99.999 -25s51.333 -42.334 66 -77.001h3c-0.666992 13.333 -1.16699 29 -1.5 47l-1 52.5c-0.333008 17 -0.5 32.667 -0.5 47v30.5v130c0 8.66699 2.5 15.5 7.5 20.5
s11.833 7.5 20.5 7.5h12c9.33301 0 16.333 -2.5 21 -7.5s7 -11.833 7 -20.5v-677c0 -8.66699 -2.33301 -15.334 -7 -20.001s-11.334 -7 -20.001 -7h-11c-8.66699 -0 -15.334 2.33301 -20.001 7s-7 11.334 -7 20.001v64h-3c-15.333 -34.667 -38.5 -60.334 -69.5 -77.001
s-65.167 -25 -102.5 -25c-60 0 -110.5 22.167 -151.5 66.5s-61.5 105.833 -61.5 184.5zM114.003 240.002c0 -61.333 15.333 -108.667 46 -142s67.667 -50 111 -50c44 0 81.167 17.167 111.5 51.5s45.5 82.5 45.5 144.5s-15.167 110.167 -45.5 144.5s-67.5 51.5 -111.5 51.5
c-43.333 0 -80.333 -18 -111 -54s-46 -84.667 -46 -146z" />
    <glyph glyph-name="e" unicode="e" horiz-adv-x="519" 
d="M43 244c0 75.333 21.667 136.664 65 183.997s96.666 71 159.999 71c60.667 0 110.834 -20.5 150.501 -61.5s59.5 -97.833 59.5 -170.5c0 -9.33301 -2.33301 -16.333 -7 -21s-11.667 -7 -21 -7h-336c0.666992 -58 15.334 -104.333 44.001 -139s66.667 -52 114 -52
c32.667 0 59.834 7.33301 81.501 22s36.834 33.334 45.501 56.001c4 8.66699 8.16699 14.834 12.5 18.501s10.166 5.5 17.499 5.5h17c11.333 0 18.166 -3.5 20.499 -10.5s2.16602 -13.833 -0.500977 -20.5c-12.667 -38.667 -36.667 -70 -72 -94s-76 -36 -122 -36
c-73.333 0 -129.833 23.333 -169.5 70s-59.5 108.334 -59.5 185.001zM118 290.998h291.001c-3.33301 50 -17.833 87.333 -43.5 112s-58.167 37 -97.5 37c-38 0 -70.833 -13.333 -98.5 -40s-44.834 -63 -51.501 -109z" />
    <glyph glyph-name="f" unicode="f" horiz-adv-x="296" 
d="M100 28l-0.000976562 404h-74c-8 0 -13.833 1.83301 -17.5 5.5s-5.5 9.5 -5.5 17.5v10c0 8 1.83301 13.833 5.5 17.5s9.5 5.5 17.5 5.5h74v86c0 52.667 13.333 92.167 40 118.5s65 39.5 115 39.5h28c8.66699 0 15 -2 19 -6s6 -10.333 6 -19v-9c0 -8.66699 -2 -15 -6 -19
s-10.333 -6 -19 -6h-22c-33.333 0 -57.166 -8.5 -71.499 -25.5s-21.5 -42.5 -21.5 -76.5v-83h101c8 0 13.833 -1.83301 17.5 -5.5s5.5 -9.5 5.5 -17.5v-10c0 -8 -1.83301 -13.833 -5.5 -17.5s-9.5 -5.5 -17.5 -5.5h-101v-404c0 -8.66699 -2.5 -15.5 -7.5 -20.5
s-11.833 -7.5 -20.5 -7.5h-12c-9.33301 0 -16.333 2.5 -21 7.5s-7 11.833 -7 20.5z" />
    <glyph glyph-name="g" unicode="g" horiz-adv-x="576" 
d="M79 -60l15 0.00195312c7.33301 0 13.166 -1.33301 17.499 -4s7.83301 -8 10.5 -16c8.66699 -28.667 24.167 -51 46.5 -67s54.5 -24 96.5 -24c46 0 85.167 14.167 117.5 42.5s48.5 78.166 48.5 149.499v70h-3c-15.333 -34.667 -38.5 -60.334 -69.5 -77.001
s-65.167 -25 -102.5 -25c-60 0 -110.5 22.167 -151.5 66.5s-61.5 105.833 -61.5 184.5s21.5 141.5 64.5 188.5s94.5 70.5 154.5 70.5c37.333 0 70.666 -8.33301 99.999 -25s51.333 -42.334 66 -77.001h3v64c0 8.66699 2.33301 15.334 7 20.001s11.334 7 20.001 7h11
c8.66699 0 15.334 -2.33301 20.001 -7s7 -11.334 7 -20.001v-440c0 -91.333 -22.667 -155.666 -68 -192.999s-99.666 -56 -162.999 -56c-54.667 0 -100.334 11.667 -137.001 35s-59.667 57 -69 101c-2 8 -1.33301 15.333 2 22s9.33301 10 18 10zM114 240.002
c0 -61.333 15.333 -108.667 46 -142s67.667 -50 111 -50c44 0 81.167 17.167 111.5 51.5s45.5 82.5 45.5 144.5s-15.167 110.167 -45.5 144.5s-67.5 51.5 -111.5 51.5c-43.333 0 -80.333 -18 -111 -54s-46 -84.667 -46 -146z" />
    <glyph glyph-name="h" unicode="h" horiz-adv-x="558" 
d="M80 28v675.998c0 8.66699 2.33301 15.5 7 20.5s11.667 7.5 21 7.5h12c8.66699 0 15.5 -2.5 20.5 -7.5s7.5 -11.833 7.5 -20.5v-124v-31c0 -14.667 -0.166992 -30.667 -0.5 -48l-1 -52.5c-0.333008 -17.667 -0.833008 -32.5 -1.5 -44.5h3c14.667 32 36 55.833 64 71.5
s60 23.5 96 23.5c48 0 89.5 -15 124.5 -45s52.5 -81.667 52.5 -155v-271c0 -8.66699 -2.5 -15.5 -7.5 -20.5s-11.833 -7.5 -20.5 -7.5h-12c-9.33301 0 -16.333 2.5 -21 7.5s-7 11.833 -7 20.5v262c0 54.667 -11.5 93.334 -34.5 116.001s-52.5 34 -88.5 34
c-40 0 -74.333 -16.167 -103 -48.5s-43 -78.166 -43 -137.499v-226c0 -8.66699 -2.5 -15.5 -7.5 -20.5s-11.833 -7.5 -20.5 -7.5h-12c-9.33301 0 -16.333 2.5 -21 7.5s-7 11.833 -7 20.5z" />
    <glyph glyph-name="i" unicode="i" horiz-adv-x="228" 
d="M106 636c-10 0 -17.333 2.5 -22 7.5s-7 12.167 -7 21.5v38c0 9.33301 2.33301 16.5 7 21.5s12 7.5 22 7.5h16c9.33301 0 16.5 -2.5 21.5 -7.5s7.5 -12.167 7.5 -21.5v-38c0 -9.33301 -2.5 -16.5 -7.5 -21.5s-12.167 -7.5 -21.5 -7.5h-16zM80 28v432
c0 8.66699 2.33301 15.5 7 20.5s11.667 7.5 21 7.5h12c8.66699 0 15.5 -2.5 20.5 -7.5s7.5 -11.833 7.5 -20.5v-432c0 -8.66699 -2.5 -15.5 -7.5 -20.5s-11.833 -7.5 -20.5 -7.5h-12c-9.33301 0 -16.333 2.5 -21 7.5s-7 11.833 -7 20.5z" />
    <glyph glyph-name="j" unicode="j" horiz-adv-x="228" 
d="M106 636c-10 0 -17.333 2.5 -22 7.5s-7 12.167 -7 21.5v38c0 9.33301 2.33301 16.5 7 21.5s12 7.5 22 7.5h16c9.33301 0 16.5 -2.5 21.5 -7.5s7.5 -12.167 7.5 -21.5v-38c0 -9.33301 -2.5 -16.5 -7.5 -21.5s-12.167 -7.5 -21.5 -7.5h-16zM80 -84v544
c0 8.66699 2.33301 15.5 7 20.5s11.667 7.5 21 7.5h12c8.66699 0 15.5 -2.5 20.5 -7.5s7.5 -11.833 7.5 -20.5v-556c0 -38 -9.83301 -68.167 -29.5 -90.5s-51.5 -33.5 -95.5 -33.5h-11c-8 0 -14 2 -18 6s-6 10 -6 18v11c0 8 2 14 6 18s10 6 18 6h5c22 0 38 6.16699 48 18.5
s15 31.833 15 58.5z" />
    <glyph glyph-name="k" unicode="k" horiz-adv-x="493" 
d="M80 28v675.999c0 8.66699 2.33301 15.5 7 20.5s11.667 7.5 21 7.5h12c8.66699 0 15.5 -2.5 20.5 -7.5s7.5 -11.833 7.5 -20.5v-480l212 235c8.66699 9.33301 16.334 16.5 23.001 21.5s14.667 7.5 24 7.5h19c9.33301 0 15.5 -3 18.5 -9s1.16699 -13 -5.5 -21l-154 -167
l179 -258c6.66699 -9.33301 8.5 -17.166 5.5 -23.499s-9.16699 -9.5 -18.5 -9.5h-22c-9.33301 -0 -16.833 2.33301 -22.5 7s-11.834 12 -18.501 22l-149 212l-91 -100v-113c0 -8.66699 -2.5 -15.5 -7.5 -20.5s-11.833 -7.5 -20.5 -7.5h-12c-9.33301 0 -16.333 2.5 -21 7.5
s-7 11.833 -7 20.5z" />
    <glyph glyph-name="l" unicode="l" horiz-adv-x="228" 
d="M80 28v676c0 8.66699 2.33301 15.5 7 20.5s11.667 7.5 21 7.5h12c8.66699 0 15.5 -2.5 20.5 -7.5s7.5 -11.833 7.5 -20.5v-676c0 -8.66699 -2.5 -15.5 -7.5 -20.5s-11.833 -7.5 -20.5 -7.5h-12c-9.33301 0 -16.333 2.5 -21 7.5s-7 11.833 -7 20.5z" />
    <glyph glyph-name="m" unicode="m" horiz-adv-x="863" 
d="M80 28l-0.00292969 433c0 8.66699 2.16699 15.334 6.5 20.001s10.833 7 19.5 7h12c8.66699 0 15.334 -2.33301 20.001 -7s7 -11.334 7 -20.001v-59h3c14 32.667 34.833 57 62.5 73s58.5 24 92.5 24c34.667 0 65.834 -8.66699 93.501 -26s47.834 -45 60.501 -83
c16.667 38.667 39.5 66.5 68.5 83.5s61.833 25.5 98.5 25.5c45.333 0 84.333 -14.833 117 -44.5s49 -79.5 49 -149.5v-277c0 -8.66699 -2.5 -15.5 -7.5 -20.5s-11.833 -7.5 -20.5 -7.5h-12c-9.33301 0 -16.333 2.5 -21 7.5s-7 11.833 -7 20.5v268
c0 52 -9.83301 89 -29.5 111s-47.167 33 -82.5 33c-38 0 -71 -16 -99 -48s-42 -77 -42 -135v-229c0 -8.66699 -2.5 -15.5 -7.5 -20.5s-11.833 -7.5 -20.5 -7.5h-12c-9.33301 0 -16.333 2.5 -21 7.5s-7 11.833 -7 20.5v268c0 52 -10.167 89 -30.5 111s-47.5 33 -81.5 33
c-38 0 -71 -16 -99 -48s-42 -77.333 -42 -136v-228c0 -8.66699 -2.5 -15.5 -7.5 -20.5s-11.833 -7.5 -20.5 -7.5h-12c-9.33301 0 -16.333 2.5 -21 7.5s-7 11.833 -7 20.5z" />
    <glyph glyph-name="n" unicode="n" horiz-adv-x="558" 
d="M80 28l-0.000976562 432.998c0 8.66699 2.16699 15.334 6.5 20.001s10.833 7 19.5 7h12c8.66699 0 15.334 -2.33301 20.001 -7s7 -11.334 7 -20.001v-57h3c14 32 35.167 55.833 63.5 71.5s60.5 23.5 96.5 23.5c48 0 89.5 -15 124.5 -45s52.5 -81.667 52.5 -155v-271
c0 -8.66699 -2.5 -15.5 -7.5 -20.5s-11.833 -7.5 -20.5 -7.5h-12c-9.33301 0 -16.333 2.5 -21 7.5s-7 11.833 -7 20.5v262c0 54.667 -11.5 93.334 -34.5 116.001s-52.5 34 -88.5 34c-40 0 -74.333 -16.167 -103 -48.5s-43 -78.166 -43 -137.499v-226
c0 -8.66699 -2.5 -15.5 -7.5 -20.5s-11.833 -7.5 -20.5 -7.5h-12c-9.33301 0 -16.333 2.5 -21 7.5s-7 11.833 -7 20.5z" />
    <glyph glyph-name="o" unicode="o" horiz-adv-x="550" 
d="M43 244c0 76.667 22.167 138.334 66.5 185.001s99.5 70 165.5 70c70 0 126.167 -23.333 168.5 -70s63.5 -108.334 63.5 -185.001s-22.167 -138.334 -66.5 -185.001s-99.5 -70 -165.5 -70c-70 0 -126.167 23.333 -168.5 70s-63.5 108.334 -63.5 185.001zM114 244
c0 -58 15 -105.167 45 -141.5s68.667 -54.5 116 -54.5c46 0 84.333 18.167 115 54.5s46 83.5 46 141.5c0 60 -15 107.667 -45 143s-68.667 53 -116 53c-46 0 -84.333 -18.167 -115 -54.5s-46 -83.5 -46 -141.5z" />
    <glyph glyph-name="p" unicode="p" horiz-adv-x="576" 
d="M148 -86l-0.000976562 -106.002c0 -8.66699 -2.5 -15.5 -7.5 -20.5s-11.833 -7.5 -20.5 -7.5h-12c-9.33301 0 -16.333 2.5 -21 7.5s-7 11.833 -7 20.5v653c0 8.66699 2.33301 15.334 7 20.001s11.334 7 20.001 7h12c8.66699 0 15.167 -2.33301 19.5 -7
s6.5 -11.334 6.5 -20.001v-64h3c15.333 34.667 38.5 60.334 69.5 77.001s65.167 25 102.5 25c60 0 110.5 -22.167 151.5 -66.5s61.5 -105.833 61.5 -184.5s-21.5 -141.5 -64.5 -188.5s-94.5 -70.5 -154.5 -70.5c-37.333 0 -70.5 8.33301 -99.5 25
s-51.167 42.334 -66.5 77.001h-3c0.666992 -13.333 1.16699 -29 1.5 -47l1 -52.5c0.333008 -17 0.5 -32.667 0.5 -47v-30.5zM147.999 243.998c0 -62 15.167 -110.166 45.5 -144.499s67.5 -51.5 111.5 -51.5s81.167 18 111.5 54s45.5 84.667 45.5 146
s-15.333 108.666 -46 141.999s-67.667 50 -111 50c-44 0 -81.167 -17.167 -111.5 -51.5s-45.5 -82.5 -45.5 -144.5z" />
    <glyph glyph-name="q" unicode="q" horiz-adv-x="573" 
d="M43 240c0 78.667 21.499 141.502 64.499 188.502s94.5 70.5 154.5 70.5c37.333 0 70.666 -8.33301 99.999 -25s51.333 -42.334 66 -77.001h3v64c0 8.66699 2.33301 15.334 7 20.001s11.334 7 20.001 7h11c8.66699 0 15.334 -2.33301 20.001 -7s7 -11.334 7 -20.001v-653
c0 -8.66699 -2.5 -15.5 -7.5 -20.5s-11.833 -7.5 -20.5 -7.5h-12c-9.33301 0 -16.333 2.5 -21 7.5s-7 11.833 -7 20.5v106v30.5c0 14.333 0.166992 30 0.5 47l1 52.5c0.333008 18 0.833008 33.667 1.5 47h-3c-15.333 -34.667 -38.5 -60.334 -69.5 -77.001
s-65.167 -25 -102.5 -25c-60 0 -110.5 22.167 -151.5 66.5s-61.5 105.833 -61.5 184.5zM113.999 240.002c0 -61.333 15.333 -108.667 46 -142s67.667 -50 111 -50c44 0 81.167 17.167 111.5 51.5s45.5 82.5 45.5 144.5s-15.167 110.167 -45.5 144.5s-67.5 51.5 -111.5 51.5
c-43.333 0 -80.333 -18 -111 -54s-46 -84.667 -46 -146z" />
    <glyph glyph-name="r" unicode="r" horiz-adv-x="350" 
d="M80 28v433.002c0 8.66699 2.16699 15.334 6.5 20.001s10.833 7 19.5 7h12c8.66699 0 15.334 -2.33301 20.001 -7s7 -11.334 7 -20.001v-56h2c11.333 28.667 28.333 51.5 51 68.5s50 25.5 82 25.5c6.66699 0 13.667 -0.5 21 -1.5s14.333 -2.5 21 -4.5
c7.33301 -2.66699 12.833 -6.33398 16.5 -11.001s4.5 -11.334 2.5 -20.001l-6 -21c-1.33301 -6.66699 -3.83301 -11.167 -7.5 -13.5s-7.5 -3.16602 -11.5 -2.49902c-8.66699 1.33301 -16.834 3.16602 -24.501 5.49902s-16.5 3.5 -26.5 3.5c-38 0 -67 -17.167 -87 -51.5
s-30 -72.5 -30 -114.5v-240c0 -8.66699 -2.5 -15.5 -7.5 -20.5s-11.833 -7.5 -20.5 -7.5h-12c-9.33301 0 -16.333 2.5 -21 7.5s-7 11.833 -7 20.5z" />
    <glyph glyph-name="s" unicode="s" horiz-adv-x="481" 
d="M42 113c-1.33301 8.66699 0.499023 15.333 5.49902 20s11.833 7 20.5 7h12c6.66699 0 12.334 -1.5 17.001 -4.5s8.33398 -7.5 11.001 -13.5c10.667 -30.667 27.167 -51.5 49.5 -62.5s48.833 -16.5 79.5 -16.5c41.333 0 73.666 7.83301 96.999 23.5s35 38.167 35 67.5
c0 24 -7.33301 41.667 -22 53s-36.334 19.333 -65.001 24l-90 16c-33.333 6 -64.666 17.833 -93.999 35.5s-44 48.5 -44 92.5c0 46 18 81.5 54 106.5s80 37.5 132 37.5c44.667 0 85.334 -9.5 122.001 -28.5s58.334 -49.167 65.001 -90.5
c0.666992 -8.66699 -1.33301 -15.334 -6 -20.001s-11.334 -7 -20.001 -7h-13c-6.66699 0 -12.334 1.83301 -17.001 5.5s-8.33398 8.83398 -11.001 15.501c-7.33301 24.667 -22.166 42.667 -44.499 54s-47.5 17 -75.5 17c-34 0 -62.333 -6.83301 -85 -20.5
s-34 -34.834 -34 -63.501c0 -22.667 7.83301 -39.667 23.5 -51s38.167 -19.333 67.5 -24l91 -16c38.667 -6.66699 70.667 -19.167 96 -37.5s38 -49.166 38 -92.499c0 -50 -18.833 -87.667 -56.5 -113s-85.5 -38 -143.5 -38c-50 0 -93.5 10.333 -130.5 31
s-58.5 51.667 -64.5 93z" />
    <glyph glyph-name="t" unicode="t" horiz-adv-x="317" 
d="M92 140l-0.000976562 292.001h-73c-8 0 -13.833 1.83301 -17.5 5.5s-5.5 9.5 -5.5 17.5v10c0 8 1.83301 13.833 5.5 17.5s9.5 5.5 17.5 5.5h73v120c0 8.66699 2.33301 15.5 7 20.5s11.667 7.5 21 7.5h12c8.66699 0 15.5 -2.5 20.5 -7.5s7.5 -11.833 7.5 -20.5v-120h110
c8 0 13.833 -1.83301 17.5 -5.5s5.5 -9.5 5.5 -17.5v-10c0 -8 -1.83301 -13.833 -5.5 -17.5s-9.5 -5.5 -17.5 -5.5h-110v-289c0 -30.667 6.33301 -52.334 19 -65.001s32.334 -19 59.001 -19h30c8.66699 0 15 -2 19 -6s6 -10.333 6 -19v-9c0 -8.66699 -2 -15 -6 -19
s-10.333 -6 -19 -6h-39c-45.333 -0 -79.5 11.333 -102.5 34s-34.5 58 -34.5 106z" />
    <glyph glyph-name="u" unicode="u" horiz-adv-x="553" 
d="M72 189l0.00195312 271.001c0 8.66699 2.33301 15.5 7 20.5s11.667 7.5 21 7.5h12c8.66699 0 15.5 -2.5 20.5 -7.5s7.5 -11.833 7.5 -20.5v-262c0 -54.667 11.333 -93.334 34 -116.001s52 -34 88 -34c40 0 73.833 16 101.5 48s41.5 77.667 41.5 137v227
c0 8.66699 2.33301 15.5 7 20.5s11.667 7.5 21 7.5h12c8.66699 0 15.5 -2.5 20.5 -7.5s7.5 -11.833 7.5 -20.5v-433c0 -8.66699 -2.33301 -15.334 -7 -20.001s-11.334 -7 -20.001 -7h-11c-8.66699 0 -15.334 2.33301 -20.001 7s-7 11.334 -7 20.001v57h-3
c-14 -32.667 -34.667 -56.667 -62 -72s-59 -23 -95 -23c-48 0 -89.333 15 -124 45s-52 81.667 -52 155z" />
    <glyph glyph-name="v" unicode="v" horiz-adv-x="460" 
d="M186 28l-164.001 429c-3.33301 10 -3.16602 17.667 0.500977 23s9.83398 8 18.501 8h21c9.33301 0 16.166 -2.5 20.499 -7.5s8.16602 -11.833 11.499 -20.5l140 -385h3l140 385c2.66699 8.66699 6.33398 15.5 11.001 20.5s11.667 7.5 21 7.5h14
c8.66699 0 15 -2.83301 19 -8.5s4.33301 -13.167 1 -22.5l-162 -429c-3.33301 -9.33301 -7.33301 -16.333 -12 -21s-11.667 -7 -21 -7h-29c-9.33301 -0 -16.333 2.33301 -21 7s-8.66699 11.667 -12 21z" />
    <glyph glyph-name="w" unicode="w" horiz-adv-x="711" 
d="M143 31l-123.998 426c-2.66699 9.33301 -1.83398 16.833 2.49902 22.5s11.166 8.5 20.499 8.5h16c9.33301 0 16.166 -2.5 20.499 -7.5s7.83301 -12.833 10.5 -23.5l106 -386h3l112 387c2.66699 10.667 6.33398 18.334 11.001 23.001s11.334 7 20.001 7h37
c9.33301 0 16.333 -2.33301 21 -7s8.33398 -12.334 11.001 -23.001l111 -387h4l105 386c2.66699 10.667 6.33398 18.5 11.001 23.5s11.667 7.5 21 7.5h13c9.33301 0 16 -2.83301 20 -8.5s4.66699 -13.167 2 -22.5l-123 -426c-2.66699 -10.667 -6.33398 -18.5 -11.001 -23.5
s-11.667 -7.5 -21 -7.5h-38c-10.667 0 -18.334 2.5 -23.001 7.5s-8.33398 12.5 -11.001 22.5l-110 390h-3l-110 -390c-2.66699 -10 -6.33398 -17.5 -11.001 -22.5s-12.334 -7.5 -23.001 -7.5h-38c-9.33301 0 -16.166 2.5 -20.499 7.5s-8.16602 12.833 -11.499 23.5z" />
    <glyph glyph-name="x" unicode="x" horiz-adv-x="452" 
d="M38 31l153.999 215l-149 211c-6.66699 9.33301 -8 16.833 -4 22.5s10.667 8.5 20 8.5h18c9.33301 0 16.5 -1.83301 21.5 -5.5s9.83301 -8.83398 14.5 -15.501l121 -170l121 170c4.66699 6.66699 9.5 11.834 14.5 15.501s12.167 5.5 21.5 5.5h12
c9.33301 0 16 -2.83301 20 -8.5s2.66699 -13.167 -4 -22.5l-150 -209l153 -217c6.66699 -9.33301 8 -16.833 4 -22.5s-10.667 -8.5 -20 -8.5h-17c-9.33301 -0 -16.666 1.83301 -21.999 5.5s-10.333 8.83398 -15 15.501l-125 175l-125 -175
c-4.66699 -6.66699 -9.5 -11.834 -14.5 -15.501s-12.167 -5.5 -21.5 -5.5h-12c-9.33301 -0 -16 2.83301 -20 8.5s-2.66699 13.167 4 22.5z" />
    <glyph glyph-name="y" unicode="y" horiz-adv-x="460" 
d="M186 -64l17 48.999l-180 471c-3.33301 10 -3 17.833 1 23.5s10.333 8.5 19 8.5h17c9.33301 0 16.5 -2 21.5 -6s9.5 -11.333 13.5 -22l140 -386h3l140 386c2.66699 8.66699 6.33398 15.5 11.001 20.5s11.667 7.5 21 7.5h14c8.66699 0 15 -2.83301 19 -8.5s4 -13.5 0 -23.5
l-202 -539c-13.333 -36 -32.666 -69 -57.999 -99s-61.333 -45 -108 -45h-12c-8.66699 0 -15.334 1.83301 -20.001 5.5s-7 9.83398 -7 18.501v10c0 8.66699 2 15 6 19s10.333 6 19 6h4c29.333 0 53.666 8.5 72.999 25.5s35.333 43.167 48 78.5z" />
    <glyph glyph-name="z" unicode="z" horiz-adv-x="433" 
d="M36 23v8c0 5.33301 0.666992 10.166 2 14.499s4 9.5 8 15.5l270 371h-260c-7.33301 0 -13 1.83301 -17 5.5s-6 9.5 -6 17.5v10c0 8 2 13.833 6 17.5s9.66699 5.5 17 5.5h319c8 0 13.833 -1.83301 17.5 -5.5s5.5 -9.5 5.5 -17.5v-8
c0 -5.33301 -0.666992 -10.166 -2 -14.499s-4.33301 -9.5 -9 -15.5l-269 -371h261c8 0 13.833 -1.83301 17.5 -5.5s5.5 -9.5 5.5 -17.5v-10c0 -8 -1.83301 -13.833 -5.5 -17.5s-9.5 -5.5 -17.5 -5.5h-320c-8 -0 -13.833 1.83301 -17.5 5.5s-5.5 9.5 -5.5 17.5z" />
    <glyph glyph-name="braceleft" unicode="{" horiz-adv-x="358" 
d="M142 -78l-0.000976562 188.005c0 40 -6 70 -18 90s-34 32 -66 36l-10 2c-6.66699 0.666992 -11.5 2.5 -14.5 5.5s-4.5 7.16699 -4.5 12.5v11c0 6 1.5 10.5 4.5 13.5s7.83301 4.83301 14.5 5.5l10 1c32.667 4.66699 54.834 16.834 66.501 36.501s17.5 49.5 17.5 89.5v181
c0 47.333 11.167 84.166 33.5 110.499s60.5 39.5 114.5 39.5h28c6.66699 0 12 -1.83301 16 -5.5s6 -8.83398 6 -15.501v-14c0 -6.66699 -2 -11.834 -6 -15.501s-9.33301 -5.5 -16 -5.5h-24c-32.667 0 -55.834 -7.66699 -69.501 -23s-20.5 -39 -20.5 -71v-199
c0 -36.667 -7.66699 -65.667 -23 -87s-39.666 -36.333 -72.999 -45v-3c33.333 -8.66699 57.666 -23.5 72.999 -44.5s23 -50.167 23 -87.5v-206c0 -32 6.83301 -55.667 20.5 -71s36.834 -23 69.501 -23h24c6.66699 0 12 -1.83301 16 -5.5s6 -8.83398 6 -15.501v-14
c0 -6.66699 -2 -11.834 -6 -15.501s-9.33301 -5.5 -16 -5.5h-28c-54 0 -92.167 13.167 -114.5 39.5s-33.5 63.166 -33.5 110.499z" />
    <glyph glyph-name="bar" unicode="|" horiz-adv-x="256" 
d="M97 -214v948c0 8.66699 2.16699 15.167 6.5 19.5s10.833 6.5 19.5 6.5h10c8.66699 0 15.167 -2.16699 19.5 -6.5s6.5 -10.833 6.5 -19.5v-948c0 -8.66699 -2.16699 -15.167 -6.5 -19.5s-10.833 -6.5 -19.5 -6.5h-10c-8.66699 0 -15.167 2.16699 -19.5 6.5
s-6.5 10.833 -6.5 19.5z" />
    <glyph glyph-name="braceright" unicode="}" horiz-adv-x="358" 
d="M154 -78l0.000976562 205.995c0 37.333 7.5 66.5 22.5 87.5s39.5 35.833 73.5 44.5v3c-34 8.66699 -58.5 23.667 -73.5 45s-22.5 50.333 -22.5 87v199c0 32 -7 55.667 -21 71s-37 23 -69 23h-24c-7.33301 0 -12.833 1.83301 -16.5 5.5s-5.5 8.83398 -5.5 15.501v14
c0 6.66699 1.83301 11.834 5.5 15.501s9.16699 5.5 16.5 5.5h28c54 0 92.167 -13.167 114.5 -39.5s33.5 -63.166 33.5 -110.499v-181c0 -40 6 -69.833 18 -89.5s34 -31.834 66 -36.501l10 -1c6 -0.666992 10.667 -2.5 14 -5.5s5 -7.5 5 -13.5v-11
c0 -5.33301 -1.66699 -9.5 -5 -12.5s-8 -4.83301 -14 -5.5l-10 -2c-32.667 -4 -54.834 -16 -66.501 -36s-17.5 -50 -17.5 -90v-188c0 -47.333 -11.167 -84.166 -33.5 -110.499s-60.5 -39.5 -114.5 -39.5h-28c-7.33301 0 -12.833 1.83301 -16.5 5.5s-5.5 8.83398 -5.5 15.501
v14c0 6.66699 1.83301 11.834 5.5 15.501s9.16699 5.5 16.5 5.5h24c32 0 55 7.66699 69 23s21 39 21 71z" />
    <glyph glyph-name="asciitilde" unicode="~" horiz-adv-x="568" 
d="M83 186c-5.33301 0 -9.83398 2.16699 -13.501 6.5s-5.16699 9.5 -4.5 15.5c3.33301 40.667 16.333 71 39 91s49 30 79 30c22 0 42 -4.33301 60 -13s35 -18 51 -28l46.5 -28c15 -8.66699 30.5 -13 46.5 -13c16.667 0 30 5 40 15s16.333 25.667 19 47
c0.666992 7.33301 3 13 7 17s9.33301 6 16 6h18c5.33301 0 9.83301 -2.33301 13.5 -7s5.16699 -10 4.5 -16c-3.33301 -40.667 -16.166 -71 -38.499 -91s-48.166 -30 -77.499 -30c-22 0 -42.167 4.5 -60.5 13.5s-35.5 18.667 -51.5 29l-47 29c-15.333 9 -31 13.5 -47 13.5
c-16.667 0 -30 -5.16699 -40 -15.5s-16.333 -26.833 -19 -49.5c-0.666992 -7.33301 -3.33398 -12.833 -8.00098 -16.5s-10.667 -5.5 -18 -5.5h-15z" />
    <glyph glyph-name="uni00A0" unicode="&#xa0;" horiz-adv-x="232" 
 />
    <glyph glyph-name="exclamdown" unicode="&#xa1;" horiz-adv-x="256" 
d="M119 386c-10 0 -17.667 2.5 -23 7.5s-8 12.833 -8 23.5v40c0 10 2.66699 17.667 8 23s13 8 23 8h18c10.667 0 18.5 -2.66699 23.5 -8s7.5 -13 7.5 -23v-40c0 -10.667 -2.5 -18.5 -7.5 -23.5s-12.833 -7.5 -23.5 -7.5h-18zM91 16l16.998 265.002
c0 5.33301 1.5 9.66602 4.5 12.999s7.16699 5 12.5 5h6c5.33301 0 9.5 -1.83301 12.5 -5.5s4.83301 -7.83398 5.5 -12.501l16 -265c0.666992 -10 1.33398 -21.167 2.00098 -33.5s1 -23.5 1 -33.5v-118c0 -10.667 -2.5 -18.5 -7.5 -23.5s-12.833 -7.5 -23.5 -7.5h-18
c-10 0 -17.667 2.5 -23 7.5s-8 12.833 -8 23.5v118c0 10 0.333008 21.167 1 33.5s1.33398 23.5 2.00098 33.5z" />
    <glyph glyph-name="cent" unicode="&#xa2;" horiz-adv-x="568" 
d="M262 18l0.00292969 76.998c-62.667 6.66699 -111.834 32.834 -147.501 78.501s-53.5 103.834 -53.5 174.501s19.167 128.834 57.5 174.501s87.166 71.834 146.499 78.501v70c0 8.66699 2.33301 15.5 7 20.5s11.667 7.5 21 7.5h12c8.66699 0 15.5 -2.5 20.5 -7.5
s7.5 -11.833 7.5 -20.5v-71c43.333 -4.66699 79.333 -19 108 -43s49 -54 61 -90c2.66699 -8.66699 2.66699 -16.834 0 -24.501s-9.66699 -11.5 -21 -11.5h-14c-7.33301 0 -13.5 1.66699 -18.5 5s-9.16699 9.33301 -12.5 18c-8.66699 26 -24.334 47.5 -47.001 64.5
s-53 25.5 -91 25.5c-47.333 0 -87 -18.167 -119 -54.5s-48 -83.5 -48 -141.5s15.833 -105.167 47.5 -141.5s71.5 -54.5 119.5 -54.5c39.333 0 70 8.5 92 25.5s37.333 38.5 46 64.5c3.33301 8.66699 7.5 14.667 12.5 18s11.167 5 18.5 5h14
c11.333 0 18.333 -3.83301 21 -11.5s2.66699 -15.834 0 -24.501c-12 -36 -32.667 -66.167 -62 -90.5s-66 -38.833 -110 -43.5v-77c0 -9.33301 -2.33301 -16.5 -7 -21.5s-11.667 -7.5 -21 -7.5h-12c-9.33301 0 -16.333 2.5 -21 7.5s-7 12.167 -7 21.5z" />
    <glyph glyph-name="sterling" unicode="&#xa3;" horiz-adv-x="568" 
d="M7 80c0 32 10.5049 57.335 31.5049 76.002s47.5 28 79.5 28c14.667 0 28.5 -2.16699 41.5 -6.5s25.833 -9.83301 38.5 -16.5l2 20.5c0.666992 7 1 13.833 1 20.5c0 22.667 -3 44.834 -9 66.501s-12.667 43.167 -20 64.5h-88c-6.66699 0 -11.667 1.5 -15 4.5
s-5 7.5 -5 13.5v12c0 6 1.66699 10.5 5 13.5s8.33301 4.5 15 4.5h70c-8.66699 22.667 -16.334 46 -23.001 70s-10 48.333 -10 73c0 52.667 16.667 95 50 127s77.666 48 132.999 48c50 0 90.667 -13.5 122 -40.5s49.666 -65.833 54.999 -116.5
c0.666992 -8.66699 -1.5 -15.167 -6.5 -19.5s-11.833 -6.5 -20.5 -6.5h-13c-8 0 -14.5 2.16699 -19.5 6.5s-8.16699 10.833 -9.5 19.5c-4 34 -15.5 59.333 -34.5 76s-44.5 25 -76.5 25c-32.667 0 -59.5 -10.167 -80.5 -30.5s-31.5 -47.833 -31.5 -82.5
c0 -25.333 4 -50.333 12 -75s16.667 -49.334 26 -74.001h152c6 0 10.667 -1.5 14 -4.5s5 -7.5 5 -13.5v-12c0 -6 -1.66699 -10.5 -5 -13.5s-8 -4.5 -14 -4.5h-134c6 -17.333 11 -34.833 15 -52.5s6 -35.834 6 -54.501c0 -16.667 -1 -33.334 -3 -50.001s-5.33301 -33 -10 -49
l75.5 -53.5c24.333 -17 49.833 -25.5 76.5 -25.5c25.333 0 43.166 9 53.499 27s16.833 40.667 19.5 68c0.666992 8.66699 3.33398 15 8.00098 19s11.334 6 20.001 6h12c8 0 14.167 -2 18.5 -6s6.16602 -10.333 5.49902 -19c-4.66699 -40 -16.334 -75.667 -35.001 -107
s-52 -47 -100 -47c-34 0 -65 9.5 -93 28.5s-54.667 38.833 -80 59.5c-12.667 -25.333 -29.334 -46.333 -50.001 -63s-46 -25 -76 -25c-32 0 -56.833 8.83301 -74.5 26.5s-26.5 39.167 -26.5 64.5zM55.0049 84.002c0 -14.667 4.66992 -27.168 14.0029 -37.501
s22.666 -15.5 39.999 -15.5c21.333 0 38.333 7.83301 51 23.5s22 34.167 28 55.5c-12.667 8.66699 -25.334 15.834 -38.001 21.501s-25.334 8.5 -38.001 8.5c-16 0 -29.5 -5.5 -40.5 -16.5s-16.5 -24.167 -16.5 -39.5z" />
    <glyph glyph-name="currency" unicode="&#xa4;" horiz-adv-x="568" 
d="M111 168l-3.00391 3.00195c-4.66699 4 -7 9 -7 15s2.33301 11.333 7 16l43 44c-9.33301 13.333 -17.166 28.333 -23.499 45s-9.5 34.334 -9.5 53.001s3.16699 36.667 9.5 54s14.5 32.333 24.5 45l-44 46c-4.66699 4 -7 9 -7 15s2.33301 11.333 7 16l3 3
c4 4 9 6.16699 15 6.5s11.333 -1.83398 16 -6.50098l45 -46c12.667 10 27.334 17.667 44.001 23s34.334 8 53.001 8c18 0 35.333 -2.66699 52 -8s31.334 -13 44.001 -23l45 46c4.66699 4.66699 10 7 16 7s11.333 -2.33301 16 -7l3 -3c4.66699 -4.66699 7 -9.83398 7 -15.501
s-2.33301 -10.834 -7 -15.501l-45 -45c10 -13.333 18.333 -28.666 25 -45.999s10 -35.333 10 -54s-3.33301 -36.334 -10 -53.001s-14.667 -31.667 -24 -45l44 -44c4.66699 -4.66699 7 -10 7 -16s-2.33301 -11 -7 -15l-3 -4c-4.66699 -4 -10 -6 -16 -6s-11.333 2.33301 -16 7
l-43 43c-12.667 -10 -27.5 -17.667 -44.5 -23s-34.833 -8 -53.5 -8s-36.5 2.66699 -53.5 8s-32.167 13.333 -45.5 24l-43 -44c-4.66699 -4.66699 -10 -7 -16 -7s-11 2.33301 -15 7zM283.996 230.002c31.333 0 57.5 10.5 78.5 31.5s31.5 48.5 31.5 82.5
s-10.5 61.5 -31.5 82.5s-47.167 31.5 -78.5 31.5s-57.5 -10.5 -78.5 -31.5s-31.5 -48.5 -31.5 -82.5s10.5 -61.5 31.5 -82.5s47.167 -31.5 78.5 -31.5z" />
    <glyph glyph-name="yen" unicode="&#xa5;" horiz-adv-x="568" 
d="M112 124c-6 0 -10.501 1.5 -13.501 4.5s-4.5 7.5 -4.5 13.5v9c0 6 1.5 10.5 4.5 13.5s7.5 4.5 13.5 4.5h141v92h-141c-6 0 -10.5 1.5 -13.5 4.5s-4.5 7.5 -4.5 13.5v10c0 5.33301 1.5 9.5 4.5 12.5s7.5 4.5 13.5 4.5h140l-209 349
c-6 9.33301 -7.16699 17.166 -3.5 23.499s10.834 9.5 21.501 9.5h18c10.667 0 18.334 -2.5 23.001 -7.5s10 -12.167 16 -21.5l170 -291h3l171 291c5.33301 9.33301 10.333 16.5 15 21.5s12.334 7.5 23.001 7.5h13c10.667 0 17.667 -3.16699 21 -9.5
s2.33301 -14.166 -3 -23.499l-208 -349h139c6 0 10.5 -1.5 13.5 -4.5s4.5 -7.16699 4.5 -12.5v-10c0 -6 -1.5 -10.5 -4.5 -13.5s-7.5 -4.5 -13.5 -4.5h-141v-92h141c6 0 10.5 -1.5 13.5 -4.5s4.5 -7.5 4.5 -13.5v-9c0 -6 -1.5 -10.5 -4.5 -13.5s-7.5 -4.5 -13.5 -4.5h-141
v-97c0 -8.66699 -2.33301 -15.334 -7 -20.001s-11.334 -7 -20.001 -7h-14c-8.66699 0 -15.334 2.33301 -20.001 7s-7 11.334 -7 20.001v97h-141z" />
    <glyph glyph-name="brokenbar" unicode="&#xa6;" horiz-adv-x="256" 
d="M123 336c-8.66699 0 -15.167 2.16699 -19.5 6.5s-6.5 10.833 -6.5 19.5v300c0 8.66699 2.16699 15.167 6.5 19.5s10.833 6.5 19.5 6.5h10c8.66699 0 15.167 -2.16699 19.5 -6.5s6.5 -10.833 6.5 -19.5v-300c0 -8.66699 -2.16699 -15.167 -6.5 -19.5
s-10.833 -6.5 -19.5 -6.5h-10zM97 -138v300c0 8.66699 2.16699 15.167 6.5 19.5s10.833 6.5 19.5 6.5h10c8.66699 0 15.167 -2.16699 19.5 -6.5s6.5 -10.833 6.5 -19.5v-300c0 -8.66699 -2.16699 -15.167 -6.5 -19.5s-10.833 -6.5 -19.5 -6.5h-10
c-8.66699 0 -15.167 2.16699 -19.5 6.5s-6.5 10.833 -6.5 19.5z" />
    <glyph glyph-name="section" unicode="&#xa7;" horiz-adv-x="560" 
d="M96 -67h11.002c8.66699 0 15.167 -1.83301 19.5 -5.5s7.83301 -9.16699 10.5 -16.5c6 -29.333 21.833 -51 47.5 -65s55.5 -21 89.5 -21c42 0 75.333 9.66699 100 29s37 45.333 37 78c0 31.333 -9.83301 54.333 -29.5 69s-44.834 26.667 -75.501 36l-92 28
c-52 16 -90.5 37.333 -115.5 64s-37.5 62 -37.5 106c0 37.333 11.667 69.833 35 97.5s53.333 47.167 90 58.5c-30.667 12.667 -55.834 29.667 -75.501 51s-29.5 52 -29.5 92c0 50.667 19.5 91 58.5 121s87.833 45 146.5 45c52.667 0 97.834 -10.833 135.501 -32.5
s59.834 -55.167 66.501 -100.5c1.33301 -8 -0.166992 -14.5 -4.5 -19.5s-10.833 -7.5 -19.5 -7.5h-11c-8 0 -14.333 1.83301 -19 5.5s-8.33398 9.16699 -11.001 16.5c-6 29.333 -21.833 50.833 -47.5 64.5s-55.5 20.5 -89.5 20.5c-42 0 -75.333 -9.66699 -100 -29
s-37 -45.333 -37 -78c0 -31.333 9.83301 -54.333 29.5 -69s44.834 -26.667 75.501 -36l92 -28c52 -15.333 90.5 -36.5 115.5 -63.5s37.5 -62.5 37.5 -106.5c0 -38 -11.667 -70.5 -35 -97.5s-53.333 -46.5 -90 -58.5c30 -12.667 55 -29.667 75 -51s30 -52 30 -92
c0 -50.667 -19.5 -91 -58.5 -121s-87.833 -45 -146.5 -45c-52.667 0 -97.834 10.833 -135.501 32.5s-59.834 55.167 -66.501 100.5c-1.33301 8 0.166992 14.667 4.5 20s10.833 8 19.5 8zM127.002 244c0 -34.667 9.66797 -60.5 29.001 -77.5s47.666 -31.167 84.999 -42.5
l61 -19c40 6.66699 72 21 96 43s36 48.667 36 80c0 35.333 -9.83301 61.333 -29.5 78s-48.167 31 -85.5 43l-62 18c-40 -6.66699 -71.667 -21 -95 -43s-35 -48.667 -35 -80z" />
    <glyph glyph-name="dieresis" unicode="&#xa8;" horiz-adv-x="550" 
d="M366 605c-8.66699 0 -15.167 2.33301 -19.5 7s-6.5 11.334 -6.5 20.001v36c0 8.66699 2.16699 15.334 6.5 20.001s10.833 7 19.5 7h16c8.66699 0 15.167 -2.33301 19.5 -7s6.5 -11.334 6.5 -20.001v-36c0 -8.66699 -2.16699 -15.334 -6.5 -20.001s-10.833 -7 -19.5 -7
h-16zM169 605c-8.66699 0 -15.334 2.33301 -20.001 7s-7 11.334 -7 20.001v36c0 8.66699 2.33301 15.334 7 20.001s11.334 7 20.001 7h15c8.66699 0 15.167 -2.33301 19.5 -7s6.5 -11.334 6.5 -20.001v-36c0 -8.66699 -2.16699 -15.334 -6.5 -20.001s-10.833 -7 -19.5 -7
h-15z" />
    <glyph glyph-name="copyright" unicode="&#xa9;" horiz-adv-x="776" 
d="M38 348c0 50 8.83398 96.5 26.501 139.5s41.834 80 72.501 111s67.5 55.5 110.5 73.5s89.833 27 140.5 27c49.333 0 95.5 -9 138.5 -27s80 -42.5 111 -73.5s55.5 -68 73.5 -111s27 -89.5 27 -139.5s-8.83301 -96.833 -26.5 -140.5s-41.834 -81.667 -72.501 -114
s-67.5 -57.833 -110.5 -76.5s-89.833 -28 -140.5 -28s-97.5 9.33301 -140.5 28s-79.833 44.167 -110.5 76.5s-54.834 70.333 -72.501 114s-26.5 90.5 -26.5 140.5zM94.001 348c0 -42.667 7.16895 -83 21.502 -121s34.333 -71 60 -99s56.667 -50.333 93 -67
s76.166 -25 119.499 -25c42.667 0 82 8.33301 118 25s67 39 93 67s46.333 61 61 99s22 78.333 22 121c0 85.333 -27.5 156.833 -82.5 214.5s-125.5 86.5 -211.5 86.5c-86.667 0 -157.334 -28.833 -212.001 -86.5s-82 -129.167 -82 -214.5zM219.003 348
c0 48 15.333 89.3291 46 123.996s71.667 52 123 52c36.667 0 67.334 -8.66699 92.001 -26s41.334 -39.666 50.001 -66.999c2.66699 -7.33301 2.5 -13.166 -0.5 -17.499s-7.5 -6.5 -13.5 -6.5h-16c-6 0 -10.5 1.16699 -13.5 3.5s-5.83301 5.83301 -8.5 10.5
c-8.66699 18 -20.167 31.667 -34.5 41s-32.833 14 -55.5 14c-34 0 -61.333 -12.667 -82 -38s-31 -55.333 -31 -90s10.333 -64.667 31 -90s48 -38 82 -38c22.667 0 41.167 4.66699 55.5 14s25.833 23 34.5 41c2.66699 4.66699 5.5 8.16699 8.5 10.5s7.5 3.5 13.5 3.5h16
c6 0 10.5 -2.16699 13.5 -6.5s3.16699 -10.166 0.5 -17.499c-8.66699 -27.333 -25.334 -49.666 -50.001 -66.999s-55.334 -26 -92.001 -26c-51.333 0 -92.333 17.333 -123 52s-46 76 -46 124z" />
    <glyph glyph-name="ordfeminine" unicode="&#xaa;" horiz-adv-x="380" 
d="M150 336c-36 0 -63.8291 9 -83.4961 27s-29.5 41.333 -29.5 70c0 27.333 9 50 27 68s46 29.333 84 34l75 10c16 2 27.333 4.83301 34 8.5s10 10.834 10 21.501c0 22 -6.33301 39.833 -19 53.5s-31.334 20.5 -56.001 20.5c-18.667 0 -35.334 -4.5 -50.001 -13.5
s-24.334 -22.5 -29.001 -40.5c-2.66699 -7.33301 -6.33398 -12.5 -11.001 -15.5s-10.334 -4.5 -17.001 -4.5h-11c-8 0 -13.667 2.5 -17 7.5s-3.66602 11.5 -0.999023 19.5c6.66699 32.667 23 56.5 49 71.5s55 22.5 87 22.5c42 0 75.5 -10.333 100.5 -31
s37.5 -51.334 37.5 -92.001v-205c0 -8 -2.16699 -14 -6.5 -18s-10.5 -6 -18.5 -6h-10c-8 0 -14 2 -18 6s-6 10 -6 18v26h-4c-9.33301 -17.333 -24 -31.333 -44 -42s-44.333 -16 -73 -16zM166.004 381c26.667 0 50.167 8.66992 70.5 26.0029s30.5 44 30.5 80v34
c-2.66699 -4.66699 -7 -8.33398 -13 -11.001s-13.333 -4.33398 -22 -5.00098l-69 -9c-22.667 -2.66699 -39 -9.33398 -49 -20.001s-15 -23.667 -15 -39c0 -17.333 6 -31 18 -41s28.333 -15 49 -15z" />
    <glyph glyph-name="guillemotleft" unicode="&#xab;" horiz-adv-x="505" 
d="M262 234c-3.33301 5.33301 -5 11.3359 -5 18.0029s1.66699 12.667 5 18l119 168c4 5.33301 8.16699 9.66602 12.5 12.999s9.83301 5 16.5 5h16c5.33301 0 9.16602 -2.5 11.499 -7.5s1.16602 -11.5 -3.50098 -19.5l-108 -177l108 -177
c4.66699 -8.66699 5.83398 -15.334 3.50098 -20.001s-6.16602 -7 -11.499 -7h-16c-6.66699 0 -12.167 1.66699 -16.5 5s-8.5 7.66602 -12.5 12.999zM187 66.0029l-119 168.003c-3.33301 5.33301 -5 11.333 -5 18s1.66699 12.667 5 18l119 168
c4 5.33301 8.16699 9.66602 12.5 12.999s9.83301 5 16.5 5h17c4.66699 0 8.16699 -2.5 10.5 -7.5s1.16602 -11.5 -3.50098 -19.5l-108 -177l108 -177c4.66699 -8.66699 5.83398 -15.334 3.50098 -20.001s-5.83301 -7 -10.5 -7h-17c-6.66699 0 -12.167 1.66699 -16.5 5
s-8.5 7.66602 -12.5 12.999z" />
    <glyph glyph-name="logicalnot" unicode="&#xac;" horiz-adv-x="568" 
d="M80 224c-7.33301 0 -13 2 -17 6s-6 9.33301 -6 16v15c0 7.33301 2 12.833 6 16.5s9.66699 5.5 17 5.5h408c7.33301 0 13 -1.83301 17 -5.5s6 -9.16699 6 -16.5v-210c0 -7.33301 -1.83301 -13 -5.5 -17s-9.16699 -6 -16.5 -6h-18c-6.66699 0 -12 2 -16 6s-6 9.66699 -6 17
v173h-369z" />
    <glyph glyph-name="uni00AD" unicode="&#xad;" horiz-adv-x="396" 
d="M83 221c-7.33301 0 -13 2 -17 6s-6 10 -6 18v15c0 7.33301 2 13 6 17s9.66699 6 17 6h229c8 0 14 -2 18 -6s6 -9.66699 6 -17v-15c0 -8 -2 -14 -6 -18s-10 -6 -18 -6h-229z" />
    <glyph glyph-name="registered" unicode="&#xae;" horiz-adv-x="776" 
d="M38 348c0 50 8.83398 96.5 26.501 139.5s41.834 80 72.501 111s67.5 55.5 110.5 73.5s89.833 27 140.5 27c49.333 0 95.5 -9 138.5 -27s80 -42.5 111 -73.5s55.5 -68 73.5 -111s27 -89.5 27 -139.5s-8.83301 -96.833 -26.5 -140.5s-41.834 -81.667 -72.501 -114
s-67.5 -57.833 -110.5 -76.5s-89.833 -28 -140.5 -28s-97.5 9.33301 -140.5 28s-79.833 44.167 -110.5 76.5s-54.834 70.333 -72.501 114s-26.5 90.5 -26.5 140.5zM94.001 348c0 -42.667 7.16895 -83 21.502 -121s34.333 -71 60 -99s56.667 -50.333 93 -67
s76.166 -25 119.499 -25c42.667 0 82 8.33301 118 25s67 39 93 67s46.333 61 61 99s22 78.333 22 121c0 85.333 -27.5 156.833 -82.5 214.5s-125.5 86.5 -211.5 86.5c-86.667 0 -157.334 -28.833 -212.001 -86.5s-82 -129.167 -82 -214.5zM253.003 199l0.000976562 298
c0 6.66699 2 12.167 6 16.5s9.33301 6.5 16 6.5h135c40 0 70.5 -9.5 91.5 -28.5s31.5 -44.5 31.5 -76.5c0 -24.667 -7.33301 -46.167 -22 -64.5s-34.334 -30.833 -59.001 -37.5l73 -111c4.66699 -7.33301 5.5 -13.5 2.5 -18.5s-7.5 -7.5 -13.5 -7.5h-17
c-6.66699 0 -12.167 1.66699 -16.5 5s-8.5 8.33301 -12.5 15l-73 110h-86v-107c0 -6.66699 -2 -12.167 -6 -16.5s-9.33301 -6.5 -16 -6.5h-12c-6.66699 0 -12 2.16699 -16 6.5s-6 9.83301 -6 16.5zM309.004 354h99c22.667 0 39.834 5.66699 51.501 17s17.5 26 17.5 44
s-5.83301 32.167 -17.5 42.5s-28.834 15.5 -51.501 15.5h-99v-119z" />
    <glyph glyph-name="macron" unicode="&#xaf;" horiz-adv-x="550" 
d="M156 623c-6.66699 0 -11.667 1.66699 -15 5s-5 8.33301 -5 15v12c0 6.66699 1.66699 11.834 5 15.501s8.33301 5.5 15 5.5h236c6.66699 0 11.667 -1.83301 15 -5.5s5 -8.83398 5 -15.501v-12c0 -6.66699 -1.66699 -11.667 -5 -15s-8.33301 -5 -15 -5h-236z" />
    <glyph glyph-name="degree" unicode="&#xb0;" horiz-adv-x="356" 
d="M178 428c-38.667 0 -71.334 12.833 -98.001 38.5s-40 57.834 -40 96.501c0 39.333 13.333 71.833 40 97.5s59.334 38.5 98.001 38.5c39.333 0 72.166 -12.833 98.499 -38.5s39.5 -58.167 39.5 -97.5c0 -38.667 -13.167 -70.834 -39.5 -96.501
s-59.166 -38.5 -98.499 -38.5zM178 477c24 0 43.667 8.16699 59 24.5s23 36.833 23 61.5s-7.66699 45.167 -23 61.5s-35 24.5 -59 24.5s-43.667 -8.16699 -59 -24.5s-23 -36.833 -23 -61.5s7.66699 -45.167 23 -61.5s35 -24.5 59 -24.5z" />
    <glyph glyph-name="plusminus" unicode="&#xb1;" horiz-adv-x="568" 
d="M253 147v157h-173c-7.33301 0 -13 2 -17 6s-6 9.33301 -6 16v15c0 7.33301 2 12.833 6 16.5s9.66699 5.5 17 5.5h173v160c0 7.33301 2 12.833 6 16.5s9.66699 5.5 17 5.5h17c7.33301 0 12.833 -1.83301 16.5 -5.5s5.5 -9.16699 5.5 -16.5v-160h173
c7.33301 0 13 -1.83301 17 -5.5s6 -9.16699 6 -16.5v-15c0 -6.66699 -2 -12 -6 -16s-9.66699 -6 -17 -6h-173v-157c0 -7.33301 -1.83301 -13 -5.5 -17s-9.16699 -6 -16.5 -6h-17c-7.33301 0 -13 2 -17 6s-6 9.66699 -6 17zM57 22v15c0 6.66699 2 12 6 16s9.66699 6 17 6h408
c7.33301 0 13 -2 17 -6s6 -9.33301 6 -16v-15c0 -6.66699 -2 -12 -6 -16s-9.66699 -6 -17 -6h-408c-7.33301 0 -13 2 -17 6s-6 9.33301 -6 16z" />
    <glyph glyph-name="twosuperior" unicode="&#xb2;" 
d="M45 517c0 40.667 10.8359 71.002 32.5029 91.002s45.5 36.667 71.5 50l29 15c20 9.33301 37.167 19.5 51.5 30.5s21.5 24.167 21.5 39.5c0 17.333 -6 31.166 -18 41.499s-30 15.5 -54 15.5c-19.333 0 -36.333 -4.83301 -51 -14.5s-24.334 -24.5 -29.001 -44.5
c-1.33301 -6 -4.33301 -10.5 -9 -13.5s-10.334 -4.5 -17.001 -4.5h-8c-8.66699 0 -14.667 2 -18 6s-4.33301 10 -3 18c5.33301 36 21.5 61.667 48.5 77s55.833 23 86.5 23c38.667 0 70.167 -8.83301 94.5 -26.5s36.5 -43.167 36.5 -76.5
c0 -30.667 -11.333 -54.167 -34 -70.5s-47 -30.833 -73 -43.5l-29 -14c-18.667 -9.33301 -34.167 -20 -46.5 -32s-18.833 -24.667 -19.5 -38h189c6.66699 0 11.667 -1.83301 15 -5.5s5 -8.83398 5 -15.501v-8c0 -6.66699 -1.66699 -11.834 -5 -15.501
s-8.33301 -5.5 -15 -5.5h-231c-6.66699 0 -11.834 1.83301 -15.501 5.5s-5.5 8.83398 -5.5 15.501z" />
    <glyph glyph-name="threesuperior" unicode="&#xb3;" 
d="M40 574c-1.33301 8 0.000976562 14.001 4.00098 18.001s10 6 18 6h8c6.66699 0 12.167 -1.66699 16.5 -5s7.83301 -8.33301 10.5 -15c4 -14.667 13.167 -26 27.5 -34s31.833 -12 52.5 -12c24 0 43.667 5 59 15s23 25.333 23 46c0 20 -7.83301 35 -23.5 45
s-35.167 15 -58.5 15h-12c-6 0 -10.5 1.66699 -13.5 5s-4.5 7.66602 -4.5 12.999v8c0 5.33301 1.5 9.5 4.5 12.5s7.5 4.5 13.5 4.5h12c22 0 39.667 4.5 53 13.5s20 22.167 20 39.5c0 18 -7 31.5 -21 40.5s-31.333 13.5 -52 13.5c-17.333 0 -32.833 -4 -46.5 -12
s-22.5 -19 -26.5 -33c-2.66699 -6 -6 -10.5 -10 -13.5s-9.33301 -4.5 -16 -4.5h-9c-8 0 -13.667 2 -17 6s-4 10 -2 18c6.66699 27.333 21.667 48.166 45 62.499s51.666 21.5 84.999 21.5c37.333 0 68 -8.66699 92 -26s36 -40 36 -68c0 -18.667 -5.5 -35.167 -16.5 -49.5
s-25.833 -23.5 -44.5 -27.5v-3c20.667 -4.66699 38 -14.167 52 -28.5s21 -32.833 21 -55.5c0 -31.333 -12.833 -56.166 -38.5 -74.499s-60.5 -27.5 -104.5 -27.5c-36 0 -66.5 7 -91.5 21s-40.167 35.667 -45.5 65z" />
    <glyph glyph-name="acute" unicode="&#xb4;" horiz-adv-x="550" 
d="M268 568c-4.66699 0 -8.16699 2 -10.5 6s-2.16602 8.33301 0.500977 13l81 126c3.33301 6 7.16602 10.667 11.499 14s9.83301 5 16.5 5h39c6 0 9.83301 -2.33301 11.5 -7s0.166992 -10 -4.5 -16l-103 -124c-5.33301 -6 -10 -10.333 -14 -13s-9.33301 -4 -16 -4h-12z" />
    <glyph glyph-name="mu" unicode="&#xb5;" horiz-adv-x="562" 
d="M140 34c2.66699 -32.667 4.66699 -64.667 6 -96s2 -58.333 2 -81v-49c0 -8.66699 -2.33301 -15.5 -7 -20.5s-11.667 -7.5 -21 -7.5h-12c-8.66699 0 -15.5 2.5 -20.5 7.5s-7.5 11.833 -7.5 20.5v652c0 8.66699 2.5 15.5 7.5 20.5s11.833 7.5 20.5 7.5h12
c9.33301 0 16.333 -2.5 21 -7.5s7 -11.833 7 -20.5v-262c0 -54.667 11.5 -93.334 34.5 -116.001s52.5 -34 88.5 -34c39.333 0 72.833 16 100.5 48s41.5 78 41.5 138v226c0 8.66699 2.5 15.5 7.5 20.5s11.833 7.5 20.5 7.5h12c9.33301 0 16.333 -2.5 21 -7.5
s7 -11.833 7 -20.5v-433c0 -8.66699 -2.16699 -15.334 -6.5 -20.001s-10.833 -7 -19.5 -7h-12c-8.66699 0 -15.167 2.33301 -19.5 7s-6.5 11.334 -6.5 20.001v59h-4c-14 -32.667 -34.667 -57 -62 -73s-59 -24 -95 -24c-23.333 0 -44.5 3.83301 -63.5 11.5
s-35.5 18.834 -49.5 33.501h-3z" />
    <glyph glyph-name="paragraph" unicode="&#xb6;" horiz-adv-x="605" 
d="M434 28v632c0 8.66699 2.5 15.5 7.5 20.5s11.833 7.5 20.5 7.5h12c9.33301 0 16.333 -2.5 21 -7.5s7 -11.833 7 -20.5v-632c0 -8.66699 -2.33301 -15.5 -7 -20.5s-11.667 -7.5 -21 -7.5h-12c-8.66699 0 -15.5 2.5 -20.5 7.5s-7.5 11.833 -7.5 20.5zM271 28v235
c-69.333 3.33301 -123.833 24.5 -163.5 63.5s-59.5 88.5 -59.5 148.5c0 64 21.833 115.5 65.5 154.5s103.167 58.5 178.5 58.5h19c8.66699 0 15.5 -2.5 20.5 -7.5s7.5 -11.833 7.5 -20.5v-632c0 -8.66699 -2.5 -15.5 -7.5 -20.5s-11.833 -7.5 -20.5 -7.5h-12
c-9.33301 0 -16.333 2.5 -21 7.5s-7 11.833 -7 20.5z" />
    <glyph glyph-name="periodcentered" unicode="&#xb7;" horiz-adv-x="244" 
d="M112 195c-10.667 0 -18.667 2.83301 -24 8.5s-8 13.834 -8 24.501v46c0 10.667 2.66699 18.834 8 24.501s13.333 8.5 24 8.5h20c10.667 0 18.667 -2.83301 24 -8.5s8 -13.834 8 -24.501v-46c0 -10.667 -2.66699 -18.834 -8 -24.501s-13.333 -8.5 -24 -8.5h-20z" />
    <glyph glyph-name="cedilla" unicode="&#xb8;" horiz-adv-x="550" 
d="M238 -66l23.999 66h26l-6 -40c30.667 -1.33301 53.667 -10.166 69 -26.499s23 -35.833 23 -58.5c0 -24.667 -8.83301 -46 -26.5 -64s-45.167 -27 -82.5 -27h-32c-6 0 -11 2 -15 6s-6 9 -6 15v3c0 5.33301 2 10 6 14s8.66699 6 14 6h30c20 0 34.833 4 44.5 12
s14.5 19.667 14.5 35c0 14.667 -5.16699 26.167 -15.5 34.5s-25.166 12.5 -44.499 12.5h-14c-3.33301 0 -5.83301 1.16699 -7.5 3.5s-2.16699 5.16602 -1.5 8.49902z" />
    <glyph glyph-name="onesuperior" unicode="&#xb9;" 
d="M56 517v7.99902c0 6.66699 1.83301 11.834 5.5 15.501s8.83398 5.5 15.501 5.5h85v222l-73 -42c-6 -3.33301 -11.5 -4.16602 -16.5 -2.49902s-8.83301 5.16699 -11.5 10.5l-4 8c-3.33301 6 -4.33301 11.333 -3 16s5 8.66699 11 12l108 63c4 2.66699 7.66699 4.5 11 5.5
s6.33301 1.5 9 1.5h2c8.66699 0 15.167 -2.16699 19.5 -6.5s6.5 -10.833 6.5 -19.5v-268h78c6.66699 0 11.667 -1.83301 15 -5.5s5 -8.83398 5 -15.501v-8c0 -6.66699 -1.66699 -11.834 -5 -15.501s-8.33301 -5.5 -15 -5.5h-222c-6.66699 0 -11.834 1.83301 -15.501 5.5
s-5.5 8.83398 -5.5 15.501z" />
    <glyph glyph-name="ordmasculine" unicode="&#xba;" horiz-adv-x="407" 
d="M204 337c-52 0 -93.5 16.333 -124.5 49s-46.5 76 -46.5 130s16 97.5 48 130.5s73 49.5 123 49.5c52 0 93.333 -16.5 124 -49.5s46 -76.5 46 -130.5s-15.833 -97.333 -47.5 -130s-72.5 -49 -122.5 -49zM204 387c30.667 0 56 12 76 36s30 55 30 93
c0 38.667 -9.66699 69.834 -29 93.501s-45 35.5 -77 35.5c-31.333 0 -57 -11.833 -77 -35.5s-30 -54.834 -30 -93.501c0 -38 9.83301 -69 29.5 -93s45.5 -36 77.5 -36z" />
    <glyph glyph-name="guillemotright" unicode="&#xbb;" horiz-adv-x="505" 
d="M275 48c-5.33301 0 -9.16602 2.3291 -11.499 6.99609s-1.16602 11.334 3.50098 20.001l108 177l-108 177c-4.66699 8.66699 -5.83398 15.334 -3.50098 20.001s6.16602 7 11.499 7h16c6.66699 0 12.167 -1.66699 16.5 -5s8.5 -7.66602 12.5 -12.999l119 -168
c3.33301 -5.33301 5 -11.333 5 -18s-1.66699 -12.667 -5 -18l-119 -168c-4 -5.33301 -8.16699 -9.66602 -12.5 -12.999s-9.83301 -5 -16.5 -5h-16zM81 47.9961c-5.33301 0 -9.33008 2.3291 -11.9971 6.99609s-1.33398 11.334 3.99902 20.001l108 177l-108 177
c-4.66699 8.66699 -5.83398 15.334 -3.50098 20.001s6.16602 7 11.499 7h16c6.66699 0 12.167 -1.66699 16.5 -5s8.5 -7.66602 12.5 -12.999l119 -168c4 -5.33301 6 -11.333 6 -18s-2 -12.667 -6 -18l-119 -168c-4 -5.33301 -8.16699 -9.66602 -12.5 -12.999
s-9.83301 -5 -16.5 -5h-16z" />
    <glyph glyph-name="onequarter" unicode="&#xbc;" horiz-adv-x="764" 
d="M56 365v7.99902c0 6.66699 1.83301 11.834 5.5 15.501s8.83398 5.5 15.501 5.5h85v222l-73 -42c-6 -3.33301 -11.5 -4.16602 -16.5 -2.49902s-8.83301 5.16699 -11.5 10.5l-4 8c-3.33301 6 -4.33301 11.333 -3 16s5 8.66699 11 12l108 63c4 2.66699 7.66699 4.5 11 5.5
s6.33301 1.5 9 1.5h2c8.66699 0 15.167 -2.16699 19.5 -6.5s6.5 -10.833 6.5 -19.5v-268h78c6.66699 0 11.667 -1.83301 15 -5.5s5 -8.83398 5 -15.501v-8c0 -6.66699 -1.66699 -11.834 -5 -15.501s-8.33301 -5.5 -15 -5.5h-222c-6.66699 0 -11.834 1.83301 -15.501 5.5
s-5.5 8.83398 -5.5 15.501zM272 9.99902c-3.33301 -7.33301 -7.33203 -12.833 -11.999 -16.5s-10.334 -5.5 -17.001 -5.5h-10c-7.33301 0 -12.333 2 -15 6s-2 10 2 18l326 666c3.33301 7.33301 7.33301 12.833 12 16.5s10.667 5.5 18 5.5h9c7.33301 0 12.333 -2 15 -6
s2 -10 -2 -18zM459.001 72.999c-6.66699 0 -11.499 1.66406 -14.499 4.99707s-4.5 8 -4.5 14v6c0 4.66699 0.833008 8.83398 2.5 12.501s4.16699 7.83398 7.5 12.501l170 207c3.33301 4.66699 7.16602 8.33398 11.499 11.001s9.83301 4 16.5 4h10c8 0 14 -2 18 -6
s6 -10.333 6 -19v-200h34c6.66699 0 11.5 -1.66699 14.5 -5s4.5 -8 4.5 -14v-9c0 -6 -1.5 -10.667 -4.5 -14s-7.83301 -5 -14.5 -5h-34v-48c0 -8.66699 -2 -15 -6 -19s-10 -6 -18 -6h-11c-8 0 -14 2 -18 6s-6 10.333 -6 19v48h-164zM506.002 119.996h117v143z" />
    <glyph glyph-name="onehalf" unicode="&#xbd;" horiz-adv-x="764" 
d="M56 365v7.99902c0 6.66699 1.83301 11.834 5.5 15.501s8.83398 5.5 15.501 5.5h85v222l-73 -42c-6 -3.33301 -11.5 -4.16602 -16.5 -2.49902s-8.83301 5.16699 -11.5 10.5l-4 8c-3.33301 6 -4.33301 11.333 -3 16s5 8.66699 11 12l108 63c4 2.66699 7.66699 4.5 11 5.5
s6.33301 1.5 9 1.5h2c8.66699 0 15.167 -2.16699 19.5 -6.5s6.5 -10.833 6.5 -19.5v-268h78c6.66699 0 11.667 -1.83301 15 -5.5s5 -8.83398 5 -15.501v-8c0 -6.66699 -1.66699 -11.834 -5 -15.501s-8.33301 -5.5 -15 -5.5h-222c-6.66699 0 -11.834 1.83301 -15.501 5.5
s-5.5 8.83398 -5.5 15.501zM263 9.99902c-3.33301 -7.33301 -7.33301 -12.833 -12 -16.5s-10.667 -5.5 -18 -5.5h-9c-7.33301 0 -12.5 2 -15.5 6s-2.16699 10 2.5 18l325 666c3.33301 7.33301 7.33301 12.833 12 16.5s10.667 5.5 18 5.5h10c6.66699 0 11.5 -2 14.5 -6
s2.5 -10 -1.5 -18zM457 20.999c0 40.667 10.8359 71.002 32.5029 91.002s45.5 36.667 71.5 50l29 15c20 9.33301 37.167 19.5 51.5 30.5s21.5 24.167 21.5 39.5c0 17.333 -6 31.166 -18 41.499s-30 15.5 -54 15.5c-19.333 0 -36.333 -4.83301 -51 -14.5
s-24.334 -24.5 -29.001 -44.5c-2 -6 -5.16699 -10.5 -9.5 -13.5s-9.83301 -4.5 -16.5 -4.5h-9c-8 0 -13.667 2 -17 6s-4.33301 10 -3 18c5.33301 36 21.5 61.667 48.5 77s55.833 23 86.5 23c38.667 0 70.167 -8.83301 94.5 -26.5s36.5 -43.167 36.5 -76.5
c0 -30.667 -11.333 -54.167 -34 -70.5s-47 -30.833 -73 -43.5l-29 -14c-18.667 -9.33301 -34.334 -20 -47.001 -32s-19 -24.667 -19 -38h189c6.66699 0 11.667 -1.83301 15 -5.5s5 -8.83398 5 -15.501v-8c0 -6.66699 -1.66699 -11.834 -5 -15.501s-8.33301 -5.5 -15 -5.5
h-231c-6.66699 0 -11.834 1.83301 -15.501 5.5s-5.5 8.83398 -5.5 15.501z" />
    <glyph glyph-name="threequarters" unicode="&#xbe;" horiz-adv-x="764" 
d="M40 422c-1.33301 8 0.000976562 14.001 4.00098 18.001s10 6 18 6h8c6.66699 0 12.167 -1.66699 16.5 -5s7.83301 -8.33301 10.5 -15c4 -14.667 13.167 -26 27.5 -34s31.833 -12 52.5 -12c24 0 43.667 5 59 15s23 25.333 23 46c0 20 -7.83301 35 -23.5 45
s-35.167 15 -58.5 15h-12c-6 0 -10.5 1.66699 -13.5 5s-4.5 7.66602 -4.5 12.999v8c0 5.33301 1.5 9.5 4.5 12.5s7.5 4.5 13.5 4.5h12c22 0 39.667 4.5 53 13.5s20 22.167 20 39.5c0 18 -7 31.5 -21 40.5s-31.333 13.5 -52 13.5c-17.333 0 -32.833 -4 -46.5 -12
s-22.5 -19 -26.5 -33c-2.66699 -6 -6 -10.5 -10 -13.5s-9.33301 -4.5 -16 -4.5h-9c-8 0 -13.667 2 -17 6s-4 10 -2 18c6.66699 27.333 21.667 48.166 45 62.499s51.666 21.5 84.999 21.5c37.333 0 68 -8.66699 92 -26s36 -40 36 -68c0 -18.667 -5.5 -35.167 -16.5 -49.5
s-25.833 -23.5 -44.5 -27.5v-3c20.667 -4.66699 38 -14.167 52 -28.5s21 -32.833 21 -55.5c0 -31.333 -12.833 -56.166 -38.5 -74.499s-60.5 -27.5 -104.5 -27.5c-36 0 -66.5 7 -91.5 21s-40.167 35.667 -45.5 65zM270.001 10.001
c-4 -7.33301 -8.33203 -12.833 -12.999 -16.5s-10.334 -5.5 -17.001 -5.5h-10c-6.66699 0 -11.5 2 -14.5 6s-2.5 10 1.5 18l326 666c3.33301 7.33301 7.33301 12.833 12 16.5s10.667 5.5 18 5.5h9c7.33301 0 12.333 -2 15 -6s2 -10 -2 -18zM459.002 73.001
c-6.66699 0 -11.499 1.66406 -14.499 4.99707s-4.5 8 -4.5 14v6c0 4.66699 0.833008 8.83398 2.5 12.501s4.16699 7.83398 7.5 12.501l170 207c3.33301 4.66699 7.16602 8.33398 11.499 11.001s9.83301 4 16.5 4h10c8 0 14 -2 18 -6s6 -10.333 6 -19v-200h34
c6.66699 0 11.5 -1.66699 14.5 -5s4.5 -8 4.5 -14v-9c0 -6 -1.5 -10.667 -4.5 -14s-7.83301 -5 -14.5 -5h-34v-48c0 -8.66699 -2 -15 -6 -19s-10 -6 -18 -6h-11c-8 0 -14 2 -18 6s-6 10.333 -6 19v48h-164zM506.003 119.998h117v143z" />
    <glyph glyph-name="questiondown" unicode="&#xbf;" horiz-adv-x="485" 
d="M242 386c-10 0 -17.667 2.5 -23 7.5s-8 12.833 -8 23.5v40c0 10 2.66699 17.667 8 23s13 8 23 8h18c10 0 17.667 -2.66699 23 -8s8 -13 8 -23v-40c0 -10.667 -2.66699 -18.5 -8 -23.5s-13 -7.5 -23 -7.5h-18zM41 -37c0 40.667 9.16602 72.332 27.499 94.999
s38.5 42.834 60.5 60.501s42.167 36.334 60.5 56.001s27.5 46.5 27.5 80.5v10c0 8.66699 2.16699 15.334 6.5 20.001s10.833 7 19.5 7h15c8.66699 0 15.334 -2.33301 20.001 -7s7 -11.334 7 -20.001v-6c0 -44 -9 -78 -27 -102s-37.833 -44.833 -59.5 -62.5
s-41.5 -35.5 -59.5 -53.5s-27 -43 -27 -75c0 -34.667 12 -62.834 36 -84.501s54.667 -32.5 92 -32.5c42 0 75.167 11.667 99.5 35s37.833 52 40.5 86c1.33301 8.66699 4.5 15.167 9.5 19.5s11.833 6.5 20.5 6.5h14c8.66699 0 15 -2.16699 19 -6.5s5.66699 -10.833 5 -19.5
c-4 -48.667 -23.333 -91 -58 -127s-84.667 -54 -150 -54c-57.333 0 -104.833 15.5 -142.5 46.5s-56.5 73.5 -56.5 127.5z" />
    <glyph glyph-name="Agrave" unicode="&#xc0;" horiz-adv-x="617" 
d="M25 35l235 624c3.33301 9.33301 8 16.5 14 21.5s14.333 7.5 25 7.5h25c10.667 0 19.334 -2.5 26.001 -7.5s11.667 -12.167 15 -21.5l234 -625c4.66699 -12 5 -20.667 1 -26s-11.333 -8 -22 -8h-17c-9.33301 -0 -16.333 2.33301 -21 7s-8.66699 12 -12 22l-63 168h-310
l-62 -168c-3.33301 -10 -7.33301 -17.333 -12 -22s-11.334 -7 -20.001 -7h-15c-10.667 -0 -18 2.83301 -22 8.5s-3.66699 14.5 1 26.5zM178 259h265l-130 355h-4zM308 768c-6.66699 0 -12 1.16699 -16 3.5s-8.66699 6.83301 -14 13.5l-103 124
c-4.66699 6 -6.16699 11.333 -4.5 16s5.5 7 11.5 7h39c6.66699 0 12.167 -1.66699 16.5 -5s8.16602 -8 11.499 -14l81 -126c2.66699 -4.66699 2.83398 -9 0.500977 -13s-5.83301 -6 -10.5 -6h-12z" />
    <glyph glyph-name="Aacute" unicode="&#xc1;" horiz-adv-x="617" 
d="M25 35l235 624c3.33301 9.33301 8 16.5 14 21.5s14.333 7.5 25 7.5h25c10.667 0 19.334 -2.5 26.001 -7.5s11.667 -12.167 15 -21.5l234 -625c4.66699 -12 5 -20.667 1 -26s-11.333 -8 -22 -8h-17c-9.33301 -0 -16.333 2.33301 -21 7s-8.66699 12 -12 22l-63 168h-310
l-62 -168c-3.33301 -10 -7.33301 -17.333 -12 -22s-11.334 -7 -20.001 -7h-15c-10.667 -0 -18 2.83301 -22 8.5s-3.66699 14.5 1 26.5zM178 259h265l-130 355h-4zM302 768c-4.66699 0 -8.16699 2 -10.5 6s-2.16602 8.33301 0.500977 13l81 126
c3.33301 6 7.16602 10.667 11.499 14s9.83301 5 16.5 5h39c6 0 9.83301 -2.33301 11.5 -7s0.166992 -10 -4.5 -16l-103 -124c-5.33301 -6 -10 -10.333 -14 -13s-9.33301 -4 -16 -4h-12z" />
    <glyph glyph-name="Acircumflex" unicode="&#xc2;" horiz-adv-x="617" 
d="M25 35l235 624c3.33301 9.33301 8 16.5 14 21.5s14.333 7.5 25 7.5h25c10.667 0 19.334 -2.5 26.001 -7.5s11.667 -12.167 15 -21.5l234 -625c4.66699 -12 5 -20.667 1 -26s-11.333 -8 -22 -8h-17c-9.33301 -0 -16.333 2.33301 -21 7s-8.66699 12 -12 22l-63 168h-310
l-62 -168c-3.33301 -10 -7.33301 -17.333 -12 -22s-11.334 -7 -20.001 -7h-15c-10.667 -0 -18 2.83301 -22 8.5s-3.66699 14.5 1 26.5zM178 259h265l-130 355h-4zM180 768c-6 0 -10.1689 2.5 -12.502 7.5s-1.16602 10.5 3.50098 16.5l95 122
c4 5.33301 8.5 9.66602 13.5 12.999s12.167 5 21.5 5h20c9.33301 0 16.5 -1.66699 21.5 -5s9.5 -7.66602 13.5 -12.999l95 -122c4.66699 -6 5.83398 -11.5 3.50098 -16.5s-6.5 -7.5 -12.5 -7.5h-18c-6.66699 0 -12.167 1.5 -16.5 4.5s-8.83301 7.5 -13.5 13.5l-83 103
l-83 -103c-4.66699 -6 -9.16699 -10.5 -13.5 -13.5s-9.83301 -4.5 -16.5 -4.5h-18z" />
    <glyph glyph-name="Atilde" unicode="&#xc3;" horiz-adv-x="617" 
d="M25 35l235 624c3.33301 9.33301 8 16.5 14 21.5s14.333 7.5 25 7.5h25c10.667 0 19.334 -2.5 26.001 -7.5s11.667 -12.167 15 -21.5l234 -625c4.66699 -12 5 -20.667 1 -26s-11.333 -8 -22 -8h-17c-9.33301 -0 -16.333 2.33301 -21 7s-8.66699 12 -12 22l-63 168h-310
l-62 -168c-3.33301 -10 -7.33301 -17.333 -12 -22s-11.334 -7 -20.001 -7h-15c-10.667 -0 -18 2.83301 -22 8.5s-3.66699 14.5 1 26.5zM178 259h265l-130 355h-4zM381 769c-14 0 -27.499 2.66699 -40.499 8s-25.333 11.166 -37 17.499l-33.5 17.5
c-10.667 5.33301 -20.667 8 -30 8c-11.333 0 -20.333 -3.5 -27 -10.5s-11.334 -15.167 -14.001 -24.5c-2.66699 -6 -5.16699 -10.333 -7.5 -13s-6.83301 -4 -13.5 -4h-9c-4.66699 0 -7.83398 1.83301 -9.50098 5.5s-2.16699 7.83398 -1.5 12.501
c4.66699 22.667 13.834 41.834 27.501 57.501s32.834 23.5 57.501 23.5c14 0 27.5 -2.66699 40.5 -8s25.333 -11.166 37 -17.499l33.5 -17.5c10.667 -5.33301 20.667 -8 30 -8c11.333 0 20.333 3.5 27 10.5s11.334 15.167 14.001 24.5c2.66699 6 5.16699 10.333 7.5 13
s6.83301 4 13.5 4h9c4.66699 0 8 -1.83301 10 -5.5s2.33301 -7.83398 1 -12.501c-4.66699 -22.667 -13.834 -41.834 -27.501 -57.501s-32.834 -23.5 -57.501 -23.5z" />
    <glyph glyph-name="Adieresis" unicode="&#xc4;" horiz-adv-x="617" 
d="M25 35l235 624c3.33301 9.33301 8 16.5 14 21.5s14.333 7.5 25 7.5h25c10.667 0 19.334 -2.5 26.001 -7.5s11.667 -12.167 15 -21.5l234 -625c4.66699 -12 5 -20.667 1 -26s-11.333 -8 -22 -8h-17c-9.33301 -0 -16.333 2.33301 -21 7s-8.66699 12 -12 22l-63 168h-310
l-62 -168c-3.33301 -10 -7.33301 -17.333 -12 -22s-11.334 -7 -20.001 -7h-15c-10.667 -0 -18 2.83301 -22 8.5s-3.66699 14.5 1 26.5zM178 259h265l-130 355h-4zM179 795v36c0 8.66699 2.16699 15.334 6.5 20.001s10.833 7 19.5 7h16c8.66699 0 15.167 -2.33301 19.5 -7
s6.5 -11.334 6.5 -20.001v-36c0 -8.66699 -2.16699 -15.334 -6.5 -20.001s-10.833 -7 -19.5 -7h-16c-8.66699 0 -15.167 2.33301 -19.5 7s-6.5 11.334 -6.5 20.001zM376 795v36c0 8.66699 2.16699 15.334 6.5 20.001s10.833 7 19.5 7h16c8.66699 0 15.167 -2.33301 19.5 -7
s6.5 -11.334 6.5 -20.001v-36c0 -8.66699 -2.16699 -15.334 -6.5 -20.001s-10.833 -7 -19.5 -7h-16c-8.66699 0 -15.167 2.33301 -19.5 7s-6.5 11.334 -6.5 20.001z" />
    <glyph glyph-name="Aring" unicode="&#xc5;" horiz-adv-x="617" 
d="M25 35l235 624c3.33301 9.33301 8 16.5 14 21.5s14.333 7.5 25 7.5h25c10.667 0 19.334 -2.5 26.001 -7.5s11.667 -12.167 15 -21.5l234 -625c4.66699 -12 5 -20.667 1 -26s-11.333 -8 -22 -8h-17c-9.33301 -0 -16.333 2.33301 -21 7s-8.66699 12 -12 22l-63 168h-310
l-62 -168c-3.33301 -10 -7.33301 -17.333 -12 -22s-11.334 -7 -20.001 -7h-15c-10.667 -0 -18 2.83301 -22 8.5s-3.66699 14.5 1 26.5zM178 259h265l-130 355h-4zM311 767c-24.667 0 -46.834 8.5 -66.501 25.5s-29.5 39.5 -29.5 67.5s9.83301 50.5 29.5 67.5
s41.834 25.5 66.501 25.5s46.834 -8.5 66.501 -25.5s29.5 -39.5 29.5 -67.5s-9.83301 -50.5 -29.5 -67.5s-41.834 -25.5 -66.501 -25.5zM311 804c14.667 0 27.667 5.16699 39 15.5s17 23.833 17 40.5s-5.66699 30.167 -17 40.5s-24.333 15.5 -39 15.5
s-27.667 -5.16699 -39 -15.5s-17 -23.833 -17 -40.5s5.66699 -30.167 17 -40.5s24.333 -15.5 39 -15.5z" />
    <glyph glyph-name="AE" unicode="&#xc6;" horiz-adv-x="1022" 
d="M25 38l453.003 621c6.66699 9.33301 13.167 16.5 19.5 21.5s14.166 7.5 23.499 7.5h432c8.66699 0 15.167 -2.16699 19.5 -6.5s6.5 -10.833 6.5 -19.5v-10c0 -8.66699 -2.16699 -15.167 -6.5 -19.5s-10.833 -6.5 -19.5 -6.5h-359v-244h283
c8.66699 0 15.167 -2.16699 19.5 -6.5s6.5 -10.833 6.5 -19.5v-10c0 -8.66699 -2.16699 -15.167 -6.5 -19.5s-10.833 -6.5 -19.5 -6.5h-283v-258h367c8.66699 0 15.167 -2.16699 19.5 -6.5s6.5 -10.833 6.5 -19.5v-10c0 -8.66699 -2.16699 -15.167 -6.5 -19.5
s-10.833 -6.5 -19.5 -6.5h-410c-8.66699 0 -15.5 2.5 -20.5 7.5s-7.5 11.833 -7.5 20.5v136h-323l-98 -135c-6.66699 -9.33301 -12.834 -16.5 -18.501 -21.5s-13.834 -7.5 -24.501 -7.5h-21c-9.33301 -0 -16 3.33301 -20 10s-1.66699 16 7 28zM244.003 226h279v379h-3z" />
    <glyph glyph-name="Ccedilla" unicode="&#xc7;" horiz-adv-x="700" 
d="M334 -66l20.0039 56.002c-46 2 -87.833 12.333 -125.5 31s-70 43.667 -97 75s-47.833 68.166 -62.5 110.499s-22 88.166 -22 137.499c0 50 7.83301 96.667 23.5 140s37.834 80.833 66.501 112.5s63.167 56.667 103.5 75s84.833 27.5 133.5 27.5
c72.667 0 133.5 -17.833 182.5 -53.5s81.833 -81.5 98.5 -137.5c3.33301 -12 2.16602 -20.5 -3.50098 -25.5s-12.834 -7.5 -21.501 -7.5h-14c-9.33301 0 -16.5 2.5 -21.5 7.5s-9.5 11.833 -13.5 20.5c-16.667 42 -42.334 74.333 -77.001 97s-78 34 -130 34
c-76 0 -137.167 -27.667 -183.5 -83s-69.5 -124.333 -69.5 -207c0 -40.667 6 -78.667 18 -114s28.833 -66 50.5 -92s48 -46.5 79 -61.5s65.167 -22.5 102.5 -22.5c52 0 95.667 11.333 131 34s61.666 55 78.999 97c3.33301 8.66699 7.66602 15.5 12.999 20.5
s12.333 7.5 21 7.5h14c9.33301 0 16.666 -2.5 21.999 -7.5s6.33301 -13.5 3 -25.5c-16 -54.667 -48 -99.667 -96 -135s-106.667 -54 -176 -56l-4 -29c30.667 -1.33301 53.667 -10.166 69 -26.499s23 -35.833 23 -58.5c0 -24.667 -8.83301 -46 -26.5 -64
s-45.167 -27 -82.5 -27h-32c-6 0 -11 2 -15 6s-6 9 -6 15v3c0 5.33301 2 10 6 14s8.66699 6 14 6h30c20 0 34.833 4 44.5 12s14.5 19.667 14.5 35c0 14.667 -5.16699 26.167 -15.5 34.5s-25.166 12.5 -44.499 12.5h-14c-3.33301 0 -5.83301 1.16699 -7.5 3.5
s-2.16699 5.16602 -1.5 8.49902z" />
    <glyph glyph-name="Egrave" unicode="&#xc8;" horiz-adv-x="595" 
d="M91 28v632c0 8.66699 2.5 15.5 7.5 20.5s11.833 7.5 20.5 7.5h402c8.66699 0 15.167 -2.16699 19.5 -6.5s6.5 -10.833 6.5 -19.5v-10c0 -8.66699 -2.16699 -15.167 -6.5 -19.5s-10.833 -6.5 -19.5 -6.5h-359v-244h283c8.66699 0 15.167 -2.16699 19.5 -6.5
s6.5 -10.833 6.5 -19.5v-10c0 -8.66699 -2.16699 -15.167 -6.5 -19.5s-10.833 -6.5 -19.5 -6.5h-283v-258h367c8.66699 0 15.167 -2.16699 19.5 -6.5s6.5 -10.833 6.5 -19.5v-10c0 -8.66699 -2.16699 -15.167 -6.5 -19.5s-10.833 -6.5 -19.5 -6.5h-410
c-8.66699 0 -15.5 2.5 -20.5 7.5s-7.5 11.833 -7.5 20.5zM316 768c-6.66699 0 -12 1.16699 -16 3.5s-8.66699 6.83301 -14 13.5l-103 124c-4.66699 6 -6.16699 11.333 -4.5 16s5.5 7 11.5 7h39c6.66699 0 12.167 -1.66699 16.5 -5s8.16602 -8 11.499 -14l81 -126
c2.66699 -4.66699 2.83398 -9 0.500977 -13s-5.83301 -6 -10.5 -6h-12z" />
    <glyph glyph-name="Eacute" unicode="&#xc9;" horiz-adv-x="595" 
d="M91 28v632c0 8.66699 2.5 15.5 7.5 20.5s11.833 7.5 20.5 7.5h402c8.66699 0 15.167 -2.16699 19.5 -6.5s6.5 -10.833 6.5 -19.5v-10c0 -8.66699 -2.16699 -15.167 -6.5 -19.5s-10.833 -6.5 -19.5 -6.5h-359v-244h283c8.66699 0 15.167 -2.16699 19.5 -6.5
s6.5 -10.833 6.5 -19.5v-10c0 -8.66699 -2.16699 -15.167 -6.5 -19.5s-10.833 -6.5 -19.5 -6.5h-283v-258h367c8.66699 0 15.167 -2.16699 19.5 -6.5s6.5 -10.833 6.5 -19.5v-10c0 -8.66699 -2.16699 -15.167 -6.5 -19.5s-10.833 -6.5 -19.5 -6.5h-410
c-8.66699 0 -15.5 2.5 -20.5 7.5s-7.5 11.833 -7.5 20.5zM310 768c-4.66699 0 -8.16699 2 -10.5 6s-2.16602 8.33301 0.500977 13l81 126c3.33301 6 7.16602 10.667 11.499 14s9.83301 5 16.5 5h39c6 0 9.83301 -2.33301 11.5 -7s0.166992 -10 -4.5 -16l-103 -124
c-5.33301 -6 -10 -10.333 -14 -13s-9.33301 -4 -16 -4h-12z" />
    <glyph glyph-name="Ecircumflex" unicode="&#xca;" horiz-adv-x="595" 
d="M91 28v632c0 8.66699 2.5 15.5 7.5 20.5s11.833 7.5 20.5 7.5h402c8.66699 0 15.167 -2.16699 19.5 -6.5s6.5 -10.833 6.5 -19.5v-10c0 -8.66699 -2.16699 -15.167 -6.5 -19.5s-10.833 -6.5 -19.5 -6.5h-359v-244h283c8.66699 0 15.167 -2.16699 19.5 -6.5
s6.5 -10.833 6.5 -19.5v-10c0 -8.66699 -2.16699 -15.167 -6.5 -19.5s-10.833 -6.5 -19.5 -6.5h-283v-258h367c8.66699 0 15.167 -2.16699 19.5 -6.5s6.5 -10.833 6.5 -19.5v-10c0 -8.66699 -2.16699 -15.167 -6.5 -19.5s-10.833 -6.5 -19.5 -6.5h-410
c-8.66699 0 -15.5 2.5 -20.5 7.5s-7.5 11.833 -7.5 20.5zM188 768c-6 0 -10.1689 2.5 -12.502 7.5s-1.16602 10.5 3.50098 16.5l95 122c4 5.33301 8.5 9.66602 13.5 12.999s12.167 5 21.5 5h20c9.33301 0 16.5 -1.66699 21.5 -5s9.5 -7.66602 13.5 -12.999l95 -122
c4.66699 -6 5.83398 -11.5 3.50098 -16.5s-6.5 -7.5 -12.5 -7.5h-18c-6.66699 0 -12.167 1.5 -16.5 4.5s-8.83301 7.5 -13.5 13.5l-83 103l-83 -103c-4.66699 -6 -9.16699 -10.5 -13.5 -13.5s-9.83301 -4.5 -16.5 -4.5h-18z" />
    <glyph glyph-name="Edieresis" unicode="&#xcb;" horiz-adv-x="595" 
d="M91 28v632c0 8.66699 2.5 15.5 7.5 20.5s11.833 7.5 20.5 7.5h402c8.66699 0 15.167 -2.16699 19.5 -6.5s6.5 -10.833 6.5 -19.5v-10c0 -8.66699 -2.16699 -15.167 -6.5 -19.5s-10.833 -6.5 -19.5 -6.5h-359v-244h283c8.66699 0 15.167 -2.16699 19.5 -6.5
s6.5 -10.833 6.5 -19.5v-10c0 -8.66699 -2.16699 -15.167 -6.5 -19.5s-10.833 -6.5 -19.5 -6.5h-283v-258h367c8.66699 0 15.167 -2.16699 19.5 -6.5s6.5 -10.833 6.5 -19.5v-10c0 -8.66699 -2.16699 -15.167 -6.5 -19.5s-10.833 -6.5 -19.5 -6.5h-410
c-8.66699 0 -15.5 2.5 -20.5 7.5s-7.5 11.833 -7.5 20.5zM187 795v36c0 8.66699 2.16699 15.334 6.5 20.001s10.833 7 19.5 7h16c8.66699 0 15.167 -2.33301 19.5 -7s6.5 -11.334 6.5 -20.001v-36c0 -8.66699 -2.16699 -15.334 -6.5 -20.001s-10.833 -7 -19.5 -7h-16
c-8.66699 0 -15.167 2.33301 -19.5 7s-6.5 11.334 -6.5 20.001zM384 795v36c0 8.66699 2.16699 15.334 6.5 20.001s10.833 7 19.5 7h16c8.66699 0 15.167 -2.33301 19.5 -7s6.5 -11.334 6.5 -20.001v-36c0 -8.66699 -2.16699 -15.334 -6.5 -20.001s-10.833 -7 -19.5 -7h-16
c-8.66699 0 -15.167 2.33301 -19.5 7s-6.5 11.334 -6.5 20.001z" />
    <glyph glyph-name="Igrave" unicode="&#xcc;" horiz-adv-x="253" 
d="M93 28v632c0 8.66699 2.5 15.5 7.5 20.5s11.833 7.5 20.5 7.5h15c8.66699 0 15.5 -2.5 20.5 -7.5s7.5 -11.833 7.5 -20.5v-632c0 -8.66699 -2.5 -15.5 -7.5 -20.5s-11.833 -7.5 -20.5 -7.5h-15c-8.66699 0 -15.5 2.5 -20.5 7.5s-7.5 11.833 -7.5 20.5zM126 768
c-6.66699 0 -12 1.16699 -16 3.5s-8.66699 6.83301 -14 13.5l-103 124c-4.66699 6 -6.16699 11.333 -4.5 16s5.5 7 11.5 7h39c6.66699 0 12.167 -1.66699 16.5 -5s8.16602 -8 11.499 -14l81 -126c2.66699 -4.66699 2.83398 -9 0.500977 -13s-5.83301 -6 -10.5 -6h-12z" />
    <glyph glyph-name="Iacute" unicode="&#xcd;" horiz-adv-x="253" 
d="M91 28v632c0 8.66699 2.5 15.5 7.5 20.5s11.833 7.5 20.5 7.5h15c8.66699 0 15.5 -2.5 20.5 -7.5s7.5 -11.833 7.5 -20.5v-632c0 -8.66699 -2.5 -15.5 -7.5 -20.5s-11.833 -7.5 -20.5 -7.5h-15c-8.66699 0 -15.5 2.5 -20.5 7.5s-7.5 11.833 -7.5 20.5zM118 768
c-4.66699 0 -8.16699 2 -10.5 6s-2.16602 8.33301 0.500977 13l81 126c3.33301 6 7.16602 10.667 11.499 14s9.83301 5 16.5 5h39c6 0 9.83301 -2.33301 11.5 -7s0.166992 -10 -4.5 -16l-103 -124c-5.33301 -6 -10 -10.333 -14 -13s-9.33301 -4 -16 -4h-12z" />
    <glyph glyph-name="Icircumflex" unicode="&#xce;" horiz-adv-x="253" 
d="M93 28v632c0 8.66699 2.5 15.5 7.5 20.5s11.833 7.5 20.5 7.5h15c8.66699 0 15.5 -2.5 20.5 -7.5s7.5 -11.833 7.5 -20.5v-632c0 -8.66699 -2.5 -15.5 -7.5 -20.5s-11.833 -7.5 -20.5 -7.5h-15c-8.66699 0 -15.5 2.5 -20.5 7.5s-7.5 11.833 -7.5 20.5zM-2 768
c-6 0 -10.1689 2.5 -12.502 7.5s-1.16602 10.5 3.50098 16.5l95 122c4 5.33301 8.5 9.66602 13.5 12.999s12.167 5 21.5 5h20c9.33301 0 16.5 -1.66699 21.5 -5s9.5 -7.66602 13.5 -12.999l95 -122c4.66699 -6 5.83398 -11.5 3.50098 -16.5s-6.5 -7.5 -12.5 -7.5h-18
c-6.66699 0 -12.167 1.5 -16.5 4.5s-8.83301 7.5 -13.5 13.5l-83 103l-83 -103c-4.66699 -6 -9.16699 -10.5 -13.5 -13.5s-9.83301 -4.5 -16.5 -4.5h-18z" />
    <glyph glyph-name="Idieresis" unicode="&#xcf;" horiz-adv-x="253" 
d="M91 28v632c0 8.66699 2.5 15.5 7.5 20.5s11.833 7.5 20.5 7.5h15c8.66699 0 15.5 -2.5 20.5 -7.5s7.5 -11.833 7.5 -20.5v-632c0 -8.66699 -2.5 -15.5 -7.5 -20.5s-11.833 -7.5 -20.5 -7.5h-15c-8.66699 0 -15.5 2.5 -20.5 7.5s-7.5 11.833 -7.5 20.5zM-5 795v36
c0 8.66699 2.16699 15.334 6.5 20.001s10.833 7 19.5 7h16c8.66699 0 15.167 -2.33301 19.5 -7s6.5 -11.334 6.5 -20.001v-36c0 -8.66699 -2.16699 -15.334 -6.5 -20.001s-10.833 -7 -19.5 -7h-16c-8.66699 0 -15.167 2.33301 -19.5 7s-6.5 11.334 -6.5 20.001zM192 795v36
c0 8.66699 2.16699 15.334 6.5 20.001s10.833 7 19.5 7h16c8.66699 0 15.167 -2.33301 19.5 -7s6.5 -11.334 6.5 -20.001v-36c0 -8.66699 -2.16699 -15.334 -6.5 -20.001s-10.833 -7 -19.5 -7h-16c-8.66699 0 -15.167 2.33301 -19.5 7s-6.5 11.334 -6.5 20.001z" />
    <glyph glyph-name="Eth" unicode="&#xd0;" horiz-adv-x="696" 
d="M91 28v288.999h-65c-6.66699 0 -12 1.83301 -16 5.5s-6 8.83398 -6 15.501v15c0 6.66699 2 12 6 16s9.33301 6 16 6h65v285c0 8.66699 2.5 15.5 7.5 20.5s11.833 7.5 20.5 7.5h169c118.667 0 208.5 -32.333 269.5 -97s91.5 -147 91.5 -247s-30.5 -182.333 -91.5 -247
s-150.833 -97 -269.5 -97h-169c-8.66699 0 -15.5 2.5 -20.5 7.5s-7.5 11.833 -7.5 20.5zM162 61.999l126 0.000976562c50.667 0 94.167 7.5 130.5 22.5s66.166 35.167 89.499 60.5s40.333 55.333 51 90s16 71 16 109s-5.33301 74.333 -16 109s-27.667 64.667 -51 90
s-53.166 45.5 -89.499 60.5s-79.833 22.5 -130.5 22.5h-126v-251h139c7.33301 0 13 -2 17 -6s6 -9.33301 6 -16v-15c0 -6.66699 -2 -11.834 -6 -15.501s-9.66699 -5.5 -17 -5.5h-139v-255z" />
    <glyph glyph-name="Ntilde" unicode="&#xd1;" horiz-adv-x="723" 
d="M91 28v632c0 8.66699 2.5 15.5 7.5 20.5s11.833 7.5 20.5 7.5h19c9.33301 0 16.833 -2.16699 22.5 -6.5s11.834 -11.5 18.501 -21.5l382 -542h3l-3 542c0 8.66699 2.33301 15.5 7 20.5s11.667 7.5 21 7.5h14c9.33301 0 16.5 -2.5 21.5 -7.5s7.5 -11.833 7.5 -20.5v-632
c0 -8.66699 -2.5 -15.5 -7.5 -20.5s-12.167 -7.5 -21.5 -7.5h-18c-9.33301 0 -16.833 2.16699 -22.5 6.5s-11.834 11.5 -18.501 21.5l-382 542h-3l3 -542c0 -8.66699 -2.5 -15.5 -7.5 -20.5s-11.833 -7.5 -20.5 -7.5h-15c-8.66699 0 -15.5 2.5 -20.5 7.5
s-7.5 11.833 -7.5 20.5zM431 769c-14 0 -27.499 2.66699 -40.499 8s-25.333 11.166 -37 17.499l-33.5 17.5c-10.667 5.33301 -20.667 8 -30 8c-11.333 0 -20.333 -3.5 -27 -10.5s-11.334 -15.167 -14.001 -24.5c-2.66699 -6 -5.16699 -10.333 -7.5 -13s-6.83301 -4 -13.5 -4
h-9c-4.66699 0 -7.83398 1.83301 -9.50098 5.5s-2.16699 7.83398 -1.5 12.501c4.66699 22.667 13.834 41.834 27.501 57.501s32.834 23.5 57.501 23.5c14 0 27.5 -2.66699 40.5 -8s25.333 -11.166 37 -17.499l33.5 -17.5c10.667 -5.33301 20.667 -8 30 -8
c11.333 0 20.333 3.5 27 10.5s11.334 15.167 14.001 24.5c2.66699 6 5.16699 10.333 7.5 13s6.83301 4 13.5 4h9c4.66699 0 8 -1.83301 10 -5.5s2.33301 -7.83398 1 -12.501c-4.66699 -22.667 -13.834 -41.834 -27.501 -57.501s-32.834 -23.5 -57.501 -23.5z" />
    <glyph glyph-name="Ograve" unicode="&#xd2;" horiz-adv-x="754" 
d="M47 344c0 50.667 8 97.834 24 141.501s38.333 81.167 67 112.5s63.334 56 104.001 74s85.667 27 135 27c48 0 92.333 -9 133 -27s75.5 -42.667 104.5 -74s51.667 -68.833 68 -112.5s24.5 -90.834 24.5 -141.501s-8.16699 -97.834 -24.5 -141.501s-39 -81.167 -68 -112.5
s-63.833 -56 -104.5 -74s-85 -27 -133 -27c-49.333 0 -94.333 9 -135 27s-75.334 42.667 -104.001 74s-51 68.833 -67 112.5s-24 90.834 -24 141.501zM121 344c0 -82.667 23.667 -151.667 71 -207s109 -83 185 -83c75.333 0 136.833 27.667 184.5 83s71.5 124.333 71.5 207
s-23.833 151.667 -71.5 207s-109.167 83 -184.5 83c-76 0 -137.667 -27.667 -185 -83s-71 -124.333 -71 -207zM374 768c-6.66699 0 -12 1.16699 -16 3.5s-8.66699 6.83301 -14 13.5l-103 124c-4.66699 6 -6.16699 11.333 -4.5 16s5.5 7 11.5 7h39
c6.66699 0 12.167 -1.66699 16.5 -5s8.16602 -8 11.499 -14l81 -126c2.66699 -4.66699 2.83398 -9 0.500977 -13s-5.83301 -6 -10.5 -6h-12z" />
    <glyph glyph-name="Oacute" unicode="&#xd3;" horiz-adv-x="754" 
d="M47 344c0 50.667 8 97.834 24 141.501s38.333 81.167 67 112.5s63.334 56 104.001 74s85.667 27 135 27c48 0 92.333 -9 133 -27s75.5 -42.667 104.5 -74s51.667 -68.833 68 -112.5s24.5 -90.834 24.5 -141.501s-8.16699 -97.834 -24.5 -141.501s-39 -81.167 -68 -112.5
s-63.833 -56 -104.5 -74s-85 -27 -133 -27c-49.333 0 -94.333 9 -135 27s-75.334 42.667 -104.001 74s-51 68.833 -67 112.5s-24 90.834 -24 141.501zM121 344c0 -82.667 23.667 -151.667 71 -207s109 -83 185 -83c75.333 0 136.833 27.667 184.5 83s71.5 124.333 71.5 207
s-23.833 151.667 -71.5 207s-109.167 83 -184.5 83c-76 0 -137.667 -27.667 -185 -83s-71 -124.333 -71 -207zM368 768c-4.66699 0 -8.16699 2 -10.5 6s-2.16602 8.33301 0.500977 13l81 126c3.33301 6 7.16602 10.667 11.499 14s9.83301 5 16.5 5h39
c6 0 9.83301 -2.33301 11.5 -7s0.166992 -10 -4.5 -16l-103 -124c-5.33301 -6 -10 -10.333 -14 -13s-9.33301 -4 -16 -4h-12z" />
    <glyph glyph-name="Ocircumflex" unicode="&#xd4;" horiz-adv-x="754" 
d="M47 344c0 50.667 8 97.834 24 141.501s38.333 81.167 67 112.5s63.334 56 104.001 74s85.667 27 135 27c48 0 92.333 -9 133 -27s75.5 -42.667 104.5 -74s51.667 -68.833 68 -112.5s24.5 -90.834 24.5 -141.501s-8.16699 -97.834 -24.5 -141.501s-39 -81.167 -68 -112.5
s-63.833 -56 -104.5 -74s-85 -27 -133 -27c-49.333 0 -94.333 9 -135 27s-75.334 42.667 -104.001 74s-51 68.833 -67 112.5s-24 90.834 -24 141.501zM121 344c0 -82.667 23.667 -151.667 71 -207s109 -83 185 -83c75.333 0 136.833 27.667 184.5 83s71.5 124.333 71.5 207
s-23.833 151.667 -71.5 207s-109.167 83 -184.5 83c-76 0 -137.667 -27.667 -185 -83s-71 -124.333 -71 -207zM246 768c-6 0 -10.1689 2.5 -12.502 7.5s-1.16602 10.5 3.50098 16.5l95 122c4 5.33301 8.5 9.66602 13.5 12.999s12.167 5 21.5 5h20
c9.33301 0 16.5 -1.66699 21.5 -5s9.5 -7.66602 13.5 -12.999l95 -122c4.66699 -6 5.83398 -11.5 3.50098 -16.5s-6.5 -7.5 -12.5 -7.5h-18c-6.66699 0 -12.167 1.5 -16.5 4.5s-8.83301 7.5 -13.5 13.5l-83 103l-83 -103c-4.66699 -6 -9.16699 -10.5 -13.5 -13.5
s-9.83301 -4.5 -16.5 -4.5h-18z" />
    <glyph glyph-name="Otilde" unicode="&#xd5;" horiz-adv-x="754" 
d="M47 344c0 50.667 8 97.834 24 141.501s38.333 81.167 67 112.5s63.334 56 104.001 74s85.667 27 135 27c48 0 92.333 -9 133 -27s75.5 -42.667 104.5 -74s51.667 -68.833 68 -112.5s24.5 -90.834 24.5 -141.501s-8.16699 -97.834 -24.5 -141.501s-39 -81.167 -68 -112.5
s-63.833 -56 -104.5 -74s-85 -27 -133 -27c-49.333 0 -94.333 9 -135 27s-75.334 42.667 -104.001 74s-51 68.833 -67 112.5s-24 90.834 -24 141.501zM121 344c0 -82.667 23.667 -151.667 71 -207s109 -83 185 -83c75.333 0 136.833 27.667 184.5 83s71.5 124.333 71.5 207
s-23.833 151.667 -71.5 207s-109.167 83 -184.5 83c-76 0 -137.667 -27.667 -185 -83s-71 -124.333 -71 -207zM447 769c-14 0 -27.499 2.66699 -40.499 8s-25.333 11.166 -37 17.499l-33.5 17.5c-10.667 5.33301 -20.667 8 -30 8c-11.333 0 -20.333 -3.5 -27 -10.5
s-11.334 -15.167 -14.001 -24.5c-2.66699 -6 -5.16699 -10.333 -7.5 -13s-6.83301 -4 -13.5 -4h-9c-4.66699 0 -7.83398 1.83301 -9.50098 5.5s-2.16699 7.83398 -1.5 12.501c4.66699 22.667 13.834 41.834 27.501 57.501s32.834 23.5 57.501 23.5
c14 0 27.5 -2.66699 40.5 -8s25.333 -11.166 37 -17.499l33.5 -17.5c10.667 -5.33301 20.667 -8 30 -8c11.333 0 20.333 3.5 27 10.5s11.334 15.167 14.001 24.5c2.66699 6 5.16699 10.333 7.5 13s6.83301 4 13.5 4h9c4.66699 0 8 -1.83301 10 -5.5
s2.33301 -7.83398 1 -12.501c-4.66699 -22.667 -13.834 -41.834 -27.501 -57.501s-32.834 -23.5 -57.501 -23.5z" />
    <glyph glyph-name="Odieresis" unicode="&#xd6;" horiz-adv-x="754" 
d="M47 344c0 50.667 8 97.834 24 141.501s38.333 81.167 67 112.5s63.334 56 104.001 74s85.667 27 135 27c48 0 92.333 -9 133 -27s75.5 -42.667 104.5 -74s51.667 -68.833 68 -112.5s24.5 -90.834 24.5 -141.501s-8.16699 -97.834 -24.5 -141.501s-39 -81.167 -68 -112.5
s-63.833 -56 -104.5 -74s-85 -27 -133 -27c-49.333 0 -94.333 9 -135 27s-75.334 42.667 -104.001 74s-51 68.833 -67 112.5s-24 90.834 -24 141.501zM121 344c0 -82.667 23.667 -151.667 71 -207s109 -83 185 -83c75.333 0 136.833 27.667 184.5 83s71.5 124.333 71.5 207
s-23.833 151.667 -71.5 207s-109.167 83 -184.5 83c-76 0 -137.667 -27.667 -185 -83s-71 -124.333 -71 -207zM245 795v36c0 8.66699 2.16699 15.334 6.5 20.001s10.833 7 19.5 7h16c8.66699 0 15.167 -2.33301 19.5 -7s6.5 -11.334 6.5 -20.001v-36
c0 -8.66699 -2.16699 -15.334 -6.5 -20.001s-10.833 -7 -19.5 -7h-16c-8.66699 0 -15.167 2.33301 -19.5 7s-6.5 11.334 -6.5 20.001zM442 795v36c0 8.66699 2.16699 15.334 6.5 20.001s10.833 7 19.5 7h16c8.66699 0 15.167 -2.33301 19.5 -7s6.5 -11.334 6.5 -20.001v-36
c0 -8.66699 -2.16699 -15.334 -6.5 -20.001s-10.833 -7 -19.5 -7h-16c-8.66699 0 -15.167 2.33301 -19.5 7s-6.5 11.334 -6.5 20.001z" />
    <glyph glyph-name="multiply" unicode="&#xd7;" horiz-adv-x="568" 
d="M99 76c-5.33301 5.33301 -7.66699 10.833 -7 16.5s3.33398 11.167 8.00098 16.5l144 146l-144 147c-4.66699 5.33301 -7.33398 10.833 -8.00098 16.5s1.33301 10.834 6 15.501l11 11c4.66699 4.66699 10.167 6.83398 16.5 6.50098s11.833 -3.16602 16.5 -8.49902
l142 -146l144 146c4.66699 5.33301 10 8.16602 16 8.49902s11.667 -1.83398 17 -6.50098l10 -11c5.33301 -4.66699 7.66602 -9.83398 6.99902 -15.501s-3.66699 -11.167 -9 -16.5l-143 -147l144 -146c4.66699 -5.33301 7.33398 -10.833 8.00098 -16.5
s-1.66602 -11.167 -6.99902 -16.5l-11 -11c-4.66699 -4.66699 -10 -6.66699 -16 -6s-11.333 3.33398 -16 8.00098l-144 146l-143 -146c-4.66699 -4.66699 -9.83398 -7.33398 -15.501 -8.00098s-11.167 1.33301 -16.5 6z" />
    <glyph glyph-name="Oslash" unicode="&#xd8;" horiz-adv-x="754" 
d="M80 14l59.9971 75c-29.333 31.333 -52.166 68.833 -68.499 112.5s-24.5 91.167 -24.5 142.5c0 50.667 8.16699 97.834 24.5 141.501s39 81.167 68 112.5s63.833 56 104.5 74s85 27 133 27c38 0 74.167 -6.16699 108.5 -18.5s65.166 -29.166 92.499 -50.499l36 44
c6.66699 8.66699 12.667 15.167 18 19.5s12.333 6.5 21 6.5h8c8.66699 0 14.5 -2.5 17.5 -7.5s1.5 -11.167 -4.5 -18.5l-62 -75c30 -32 53.333 -69.833 70 -113.5s25 -90.834 25 -141.501s-8.33301 -97.834 -25 -141.501s-39.667 -81.167 -69 -112.5
s-64.166 -56 -104.499 -74s-84.166 -27 -131.499 -27c-39.333 0 -76.166 6 -110.499 18s-64.833 28.667 -91.5 50l-36 -43c-6.66699 -8.66699 -12.5 -15.167 -17.5 -19.5s-11.833 -6.5 -20.5 -6.5h-8c-8.66699 0 -14.5 2.5 -17.5 7.5s-1.5 11.167 4.5 18.5zM184.997 144
l351 432.998c-21.333 18 -45.5 32 -72.5 42s-55.833 15 -86.5 15c-76 0 -137.667 -27.667 -185 -83s-71 -124.333 -71 -207c0 -39.333 5.5 -76.166 16.5 -110.499s26.833 -64.166 47.5 -89.499zM217.997 109.998c20.667 -17.333 44.5 -30.999 71.5 -40.999
s56.167 -15 87.5 -15c75.333 0 136.833 27.667 184.5 83s71.5 124.333 71.5 207c0 39.333 -5.66699 76.166 -17 110.499s-27.333 63.833 -48 88.5z" />
    <glyph glyph-name="Ugrave" unicode="&#xd9;" horiz-adv-x="688" 
d="M76 271v389c0 8.66699 2.5 15.5 7.5 20.5s11.833 7.5 20.5 7.5h15c8.66699 0 15.5 -2.5 20.5 -7.5s7.5 -11.833 7.5 -20.5v-389c0 -70 16.833 -123.667 50.5 -161s82.5 -56 146.5 -56s112.833 18.667 146.5 56s50.5 91 50.5 161v389c0 8.66699 2.33301 15.5 7 20.5
s11.667 7.5 21 7.5h14c9.33301 0 16.5 -2.5 21.5 -7.5s7.5 -11.833 7.5 -20.5v-389c0 -99.333 -25 -171.166 -75 -215.499s-114.333 -66.5 -193 -66.5s-143 22.167 -193 66.5s-75 116.166 -75 215.499zM341 768c-6.66699 0 -12 1.16699 -16 3.5s-8.66699 6.83301 -14 13.5
l-103 124c-4.66699 6 -6.16699 11.333 -4.5 16s5.5 7 11.5 7h39c6.66699 0 12.167 -1.66699 16.5 -5s8.16602 -8 11.499 -14l81 -126c2.66699 -4.66699 2.83398 -9 0.500977 -13s-5.83301 -6 -10.5 -6h-12z" />
    <glyph glyph-name="Uacute" unicode="&#xda;" horiz-adv-x="688" 
d="M76 271v389c0 8.66699 2.5 15.5 7.5 20.5s11.833 7.5 20.5 7.5h15c8.66699 0 15.5 -2.5 20.5 -7.5s7.5 -11.833 7.5 -20.5v-389c0 -70 16.833 -123.667 50.5 -161s82.5 -56 146.5 -56s112.833 18.667 146.5 56s50.5 91 50.5 161v389c0 8.66699 2.33301 15.5 7 20.5
s11.667 7.5 21 7.5h14c9.33301 0 16.5 -2.5 21.5 -7.5s7.5 -11.833 7.5 -20.5v-389c0 -99.333 -25 -171.166 -75 -215.499s-114.333 -66.5 -193 -66.5s-143 22.167 -193 66.5s-75 116.166 -75 215.499zM335 768c-4.66699 0 -8.16699 2 -10.5 6s-2.16602 8.33301 0.500977 13
l81 126c3.33301 6 7.16602 10.667 11.499 14s9.83301 5 16.5 5h39c6 0 9.83301 -2.33301 11.5 -7s0.166992 -10 -4.5 -16l-103 -124c-5.33301 -6 -10 -10.333 -14 -13s-9.33301 -4 -16 -4h-12z" />
    <glyph glyph-name="Ucircumflex" unicode="&#xdb;" horiz-adv-x="688" 
d="M76 271v389c0 8.66699 2.5 15.5 7.5 20.5s11.833 7.5 20.5 7.5h15c8.66699 0 15.5 -2.5 20.5 -7.5s7.5 -11.833 7.5 -20.5v-389c0 -70 16.833 -123.667 50.5 -161s82.5 -56 146.5 -56s112.833 18.667 146.5 56s50.5 91 50.5 161v389c0 8.66699 2.33301 15.5 7 20.5
s11.667 7.5 21 7.5h14c9.33301 0 16.5 -2.5 21.5 -7.5s7.5 -11.833 7.5 -20.5v-389c0 -99.333 -25 -171.166 -75 -215.499s-114.333 -66.5 -193 -66.5s-143 22.167 -193 66.5s-75 116.166 -75 215.499zM213 768c-6 0 -10.1689 2.5 -12.502 7.5s-1.16602 10.5 3.50098 16.5
l95 122c4 5.33301 8.5 9.66602 13.5 12.999s12.167 5 21.5 5h20c9.33301 0 16.5 -1.66699 21.5 -5s9.5 -7.66602 13.5 -12.999l95 -122c4.66699 -6 5.83398 -11.5 3.50098 -16.5s-6.5 -7.5 -12.5 -7.5h-18c-6.66699 0 -12.167 1.5 -16.5 4.5s-8.83301 7.5 -13.5 13.5
l-83 103l-83 -103c-4.66699 -6 -9.16699 -10.5 -13.5 -13.5s-9.83301 -4.5 -16.5 -4.5h-18z" />
    <glyph glyph-name="Udieresis" unicode="&#xdc;" horiz-adv-x="688" 
d="M76 271v389c0 8.66699 2.5 15.5 7.5 20.5s11.833 7.5 20.5 7.5h15c8.66699 0 15.5 -2.5 20.5 -7.5s7.5 -11.833 7.5 -20.5v-389c0 -70 16.833 -123.667 50.5 -161s82.5 -56 146.5 -56s112.833 18.667 146.5 56s50.5 91 50.5 161v389c0 8.66699 2.33301 15.5 7 20.5
s11.667 7.5 21 7.5h14c9.33301 0 16.5 -2.5 21.5 -7.5s7.5 -11.833 7.5 -20.5v-389c0 -99.333 -25 -171.166 -75 -215.499s-114.333 -66.5 -193 -66.5s-143 22.167 -193 66.5s-75 116.166 -75 215.499zM212 795v36c0 8.66699 2.16699 15.334 6.5 20.001s10.833 7 19.5 7h16
c8.66699 0 15.167 -2.33301 19.5 -7s6.5 -11.334 6.5 -20.001v-36c0 -8.66699 -2.16699 -15.334 -6.5 -20.001s-10.833 -7 -19.5 -7h-16c-8.66699 0 -15.167 2.33301 -19.5 7s-6.5 11.334 -6.5 20.001zM409 795v36c0 8.66699 2.16699 15.334 6.5 20.001s10.833 7 19.5 7h16
c8.66699 0 15.167 -2.33301 19.5 -7s6.5 -11.334 6.5 -20.001v-36c0 -8.66699 -2.16699 -15.334 -6.5 -20.001s-10.833 -7 -19.5 -7h-16c-8.66699 0 -15.167 2.33301 -19.5 7s-6.5 11.334 -6.5 20.001z" />
    <glyph glyph-name="Yacute" unicode="&#xdd;" horiz-adv-x="569" 
d="M252 28v246l-226 377c-6.66699 11.333 -8 20.333 -4 27s10.667 10 20 10h21c10.667 0 18.5 -2.33301 23.5 -7s10.167 -12 15.5 -22l185 -312h3l190 312c5.33301 10 10.5 17.333 15.5 22s12.833 7 23.5 7h15c9.33301 0 16 -3.33301 20 -10s2.66699 -15.667 -4 -27
l-228 -373v-250c0 -8.66699 -2.33301 -15.5 -7 -20.5s-11.667 -7.5 -21 -7.5h-14c-9.33301 0 -16.333 2.5 -21 7.5s-7 11.833 -7 20.5zM280 768c-4.66699 0 -8.16699 2 -10.5 6s-2.16602 8.33301 0.500977 13l81 126c3.33301 6 7.16602 10.667 11.499 14s9.83301 5 16.5 5
h39c6 0 9.83301 -2.33301 11.5 -7s0.166992 -10 -4.5 -16l-103 -124c-5.33301 -6 -10 -10.333 -14 -13s-9.33301 -4 -16 -4h-12z" />
    <glyph glyph-name="Thorn" unicode="&#xde;" horiz-adv-x="626" 
d="M91 28v631.998c0 8.66699 2.5 15.5 7.5 20.5s11.833 7.5 20.5 7.5h15c8.66699 0 15.5 -2.5 20.5 -7.5s7.5 -11.833 7.5 -20.5v-87h184c75.333 0 133.333 -20.167 174 -60.5s61 -92.166 61 -155.499s-20.333 -116.166 -61 -158.499s-98.667 -63.5 -174 -63.5h-184v-107
c0 -8.66699 -2.5 -15.5 -7.5 -20.5s-11.833 -7.5 -20.5 -7.5h-15c-8.66699 0 -15.5 2.5 -20.5 7.5s-7.5 11.833 -7.5 20.5zM162 196.998h187c53.333 0 93.5 15.667 120.5 47s40.5 69 40.5 113s-13.5 80.833 -40.5 110.5s-67.167 44.5 -120.5 44.5h-187v-315z" />
    <glyph glyph-name="germandbls" unicode="&#xdf;" horiz-adv-x="550" 
d="M74 28l-0.000976562 482.998c0 80.667 19.833 139.5 59.5 176.5s88.834 55.5 147.501 55.5c60 0 104.167 -14.833 132.5 -44.5s42.5 -63.5 42.5 -101.5c0 -26 -5.66699 -47.5 -17 -64.5s-23.666 -31.833 -36.999 -44.5s-25.666 -25 -36.999 -37s-17 -26.333 -17 -43
c0 -20 8.83301 -36.833 26.5 -50.5l58.5 -44c21.333 -15.667 40.833 -34.667 58.5 -57s26.5 -51.833 26.5 -88.5c0 -54.667 -18.333 -96.334 -55 -125.001s-82 -43 -136 -43h-58c-8 0 -13.833 1.83301 -17.5 5.5s-5.5 9.5 -5.5 17.5v10c0 8 1.83301 13.833 5.5 17.5
s9.5 5.5 17.5 5.5h58c34 0 63 8.83301 87 26.5s36 44.167 36 79.5c0 30.667 -8.5 54.334 -25.5 71.001s-35.833 32.167 -56.5 46.5s-39.5 30.333 -56.5 48s-25.5 42.5 -25.5 74.5c0 24.667 5.66699 44.834 17 60.501s23.666 29.834 36.999 42.501
s25.666 25.834 36.999 39.501s17 31.167 17 52.5c0 23.333 -9.33301 44.166 -28 62.499s-48 27.5 -88 27.5s-72.667 -13.667 -98 -41s-38 -72.333 -38 -135v-483c0 -8.66699 -2.33301 -15.5 -7 -20.5s-11.667 -7.5 -21 -7.5h-12c-8.66699 0 -15.5 2.5 -20.5 7.5
s-7.5 11.833 -7.5 20.5z" />
    <glyph glyph-name="agrave" unicode="&#xe0;" horiz-adv-x="517" 
d="M50 123c0 40 12.335 72.001 37.002 96.001s64 40.333 118 49l105 18c24.667 4 41.834 8.66699 51.501 14s14.5 14.333 14.5 27c0 37.333 -10.167 66 -30.5 86s-48.833 30 -85.5 30c-38 0 -65.833 -7.83301 -83.5 -23.5s-30.834 -35.834 -39.501 -60.501
c-2.66699 -6 -6.16699 -11.333 -10.5 -16s-11.5 -7 -21.5 -7h-10c-10.667 0 -17.334 3.33301 -20.001 10s-3 14 -1 22c9.33301 39.333 30.333 71 63 95s73.667 36 123 36c60 0 105.667 -15.167 137 -45.5s47 -72.833 47 -127.5v-299c0 -8.66699 -2.33301 -15.334 -7 -20.001
s-11.334 -7 -20.001 -7h-11c-8.66699 0 -15.334 2.33301 -20.001 7s-7 11.334 -7 20.001v51h-3c-13.333 -28.667 -34.666 -50.667 -63.999 -66s-63.333 -23 -102 -23c-50.667 0 -90 12.333 -118 37s-42 57 -42 97zM118.002 129.001c0 -24.667 8.66699 -44.8311 26 -60.498
s43 -23.5 77 -23.5c42 0 78.333 13.167 109 39.5s46 66.833 46 121.5v56c-4.66699 -6.66699 -12 -11.834 -22 -15.501s-21.333 -6.83398 -34 -9.50098l-103 -17c-34 -6 -59 -16.5 -75 -31.5s-24 -34.833 -24 -59.5zM253.002 568.004c-6.66699 0 -12 1.16699 -16 3.5
s-8.66699 6.83301 -14 13.5l-103 124c-4.66699 6 -6.16699 11.333 -4.5 16s5.5 7 11.5 7h39c6.66699 0 12.167 -1.66699 16.5 -5s8.16602 -8 11.499 -14l81 -126c2.66699 -4.66699 2.83398 -9 0.500977 -13s-5.83301 -6 -10.5 -6h-12z" />
    <glyph glyph-name="aacute" unicode="&#xe1;" horiz-adv-x="517" 
d="M50 123c0 40 12.335 72.001 37.002 96.001s64 40.333 118 49l105 18c24.667 4 41.834 8.66699 51.501 14s14.5 14.333 14.5 27c0 37.333 -10.167 66 -30.5 86s-48.833 30 -85.5 30c-38 0 -65.833 -7.83301 -83.5 -23.5s-30.834 -35.834 -39.501 -60.501
c-2.66699 -6 -6.16699 -11.333 -10.5 -16s-11.5 -7 -21.5 -7h-10c-10.667 0 -17.334 3.33301 -20.001 10s-3 14 -1 22c9.33301 39.333 30.333 71 63 95s73.667 36 123 36c60 0 105.667 -15.167 137 -45.5s47 -72.833 47 -127.5v-299c0 -8.66699 -2.33301 -15.334 -7 -20.001
s-11.334 -7 -20.001 -7h-11c-8.66699 0 -15.334 2.33301 -20.001 7s-7 11.334 -7 20.001v51h-3c-13.333 -28.667 -34.666 -50.667 -63.999 -66s-63.333 -23 -102 -23c-50.667 0 -90 12.333 -118 37s-42 57 -42 97zM118.002 129.001c0 -24.667 8.66699 -44.8311 26 -60.498
s43 -23.5 77 -23.5c42 0 78.333 13.167 109 39.5s46 66.833 46 121.5v56c-4.66699 -6.66699 -12 -11.834 -22 -15.501s-21.333 -6.83398 -34 -9.50098l-103 -17c-34 -6 -59 -16.5 -75 -31.5s-24 -34.833 -24 -59.5zM247.002 568.004c-4.66699 0 -8.16699 2 -10.5 6
s-2.16602 8.33301 0.500977 13l81 126c3.33301 6 7.16602 10.667 11.499 14s9.83301 5 16.5 5h39c6 0 9.83301 -2.33301 11.5 -7s0.166992 -10 -4.5 -16l-103 -124c-5.33301 -6 -10 -10.333 -14 -13s-9.33301 -4 -16 -4h-12z" />
    <glyph glyph-name="acircumflex" unicode="&#xe2;" horiz-adv-x="517" 
d="M50 123c0 40 12.335 72.001 37.002 96.001s64 40.333 118 49l105 18c24.667 4 41.834 8.66699 51.501 14s14.5 14.333 14.5 27c0 37.333 -10.167 66 -30.5 86s-48.833 30 -85.5 30c-38 0 -65.833 -7.83301 -83.5 -23.5s-30.834 -35.834 -39.501 -60.501
c-2.66699 -6 -6.16699 -11.333 -10.5 -16s-11.5 -7 -21.5 -7h-10c-10.667 0 -17.334 3.33301 -20.001 10s-3 14 -1 22c9.33301 39.333 30.333 71 63 95s73.667 36 123 36c60 0 105.667 -15.167 137 -45.5s47 -72.833 47 -127.5v-299c0 -8.66699 -2.33301 -15.334 -7 -20.001
s-11.334 -7 -20.001 -7h-11c-8.66699 0 -15.334 2.33301 -20.001 7s-7 11.334 -7 20.001v51h-3c-13.333 -28.667 -34.666 -50.667 -63.999 -66s-63.333 -23 -102 -23c-50.667 0 -90 12.333 -118 37s-42 57 -42 97zM118.002 129.001c0 -24.667 8.66699 -44.8311 26 -60.498
s43 -23.5 77 -23.5c42 0 78.333 13.167 109 39.5s46 66.833 46 121.5v56c-4.66699 -6.66699 -12 -11.834 -22 -15.501s-21.333 -6.83398 -34 -9.50098l-103 -17c-34 -6 -59 -16.5 -75 -31.5s-24 -34.833 -24 -59.5zM125.002 568.004c-6 0 -10.1689 2.5 -12.502 7.5
s-1.16602 10.5 3.50098 16.5l95 122c4 5.33301 8.5 9.66602 13.5 12.999s12.167 5 21.5 5h20c9.33301 0 16.5 -1.66699 21.5 -5s9.5 -7.66602 13.5 -12.999l95 -122c4.66699 -6 5.83398 -11.5 3.50098 -16.5s-6.5 -7.5 -12.5 -7.5h-18c-6.66699 0 -12.167 1.5 -16.5 4.5
s-8.83301 7.5 -13.5 13.5l-83 103l-83 -103c-4.66699 -6 -9.16699 -10.5 -13.5 -13.5s-9.83301 -4.5 -16.5 -4.5h-18z" />
    <glyph glyph-name="atilde" unicode="&#xe3;" horiz-adv-x="517" 
d="M50 123c0 40 12.335 72.001 37.002 96.001s64 40.333 118 49l105 18c24.667 4 41.834 8.66699 51.501 14s14.5 14.333 14.5 27c0 37.333 -10.167 66 -30.5 86s-48.833 30 -85.5 30c-38 0 -65.833 -7.83301 -83.5 -23.5s-30.834 -35.834 -39.501 -60.501
c-2.66699 -6 -6.16699 -11.333 -10.5 -16s-11.5 -7 -21.5 -7h-10c-10.667 0 -17.334 3.33301 -20.001 10s-3 14 -1 22c9.33301 39.333 30.333 71 63 95s73.667 36 123 36c60 0 105.667 -15.167 137 -45.5s47 -72.833 47 -127.5v-299c0 -8.66699 -2.33301 -15.334 -7 -20.001
s-11.334 -7 -20.001 -7h-11c-8.66699 0 -15.334 2.33301 -20.001 7s-7 11.334 -7 20.001v51h-3c-13.333 -28.667 -34.666 -50.667 -63.999 -66s-63.333 -23 -102 -23c-50.667 0 -90 12.333 -118 37s-42 57 -42 97zM118.002 129.001c0 -24.667 8.66699 -44.8311 26 -60.498
s43 -23.5 77 -23.5c42 0 78.333 13.167 109 39.5s46 66.833 46 121.5v56c-4.66699 -6.66699 -12 -11.834 -22 -15.501s-21.333 -6.83398 -34 -9.50098l-103 -17c-34 -6 -59 -16.5 -75 -31.5s-24 -34.833 -24 -59.5zM115.002 600.004c-5.33301 0 -8.83301 1.83301 -10.5 5.5
s-2.16699 7.83398 -1.5 12.501c4.66699 22.667 13.834 41.834 27.501 57.501s32.834 23.5 57.501 23.5c14 0 27.5 -2.66699 40.5 -8s25.333 -11.166 37 -17.499l33.5 -17.5c10.667 -5.33301 20.667 -8 30 -8c11.333 0 20.333 3.5 27 10.5s11.334 15.167 14.001 24.5
c2.66699 6 5.16699 10.333 7.5 13s6.83301 4 13.5 4h8c5.33301 0 9 -1.83301 11 -5.5s2.33301 -7.83398 1 -12.501c-4.66699 -22.667 -13.834 -41.834 -27.501 -57.501s-32.834 -23.5 -57.501 -23.5c-14 0 -27.5 2.66699 -40.5 8s-25.333 11.166 -37 17.499l-33.5 17.5
c-10.667 5.33301 -20.667 8 -30 8c-11.333 0 -20.333 -3.5 -27 -10.5s-11.334 -15.167 -14.001 -24.5c-2.66699 -6 -5.16699 -10.333 -7.5 -13s-6.83301 -4 -13.5 -4h-8z" />
    <glyph glyph-name="adieresis" unicode="&#xe4;" horiz-adv-x="517" 
d="M50 123c0 40 12.335 72.001 37.002 96.001s64 40.333 118 49l105 18c24.667 4 41.834 8.66699 51.501 14s14.5 14.333 14.5 27c0 37.333 -10.167 66 -30.5 86s-48.833 30 -85.5 30c-38 0 -65.833 -7.83301 -83.5 -23.5s-30.834 -35.834 -39.501 -60.501
c-2.66699 -6 -6.16699 -11.333 -10.5 -16s-11.5 -7 -21.5 -7h-10c-10.667 0 -17.334 3.33301 -20.001 10s-3 14 -1 22c9.33301 39.333 30.333 71 63 95s73.667 36 123 36c60 0 105.667 -15.167 137 -45.5s47 -72.833 47 -127.5v-299c0 -8.66699 -2.33301 -15.334 -7 -20.001
s-11.334 -7 -20.001 -7h-11c-8.66699 0 -15.334 2.33301 -20.001 7s-7 11.334 -7 20.001v51h-3c-13.333 -28.667 -34.666 -50.667 -63.999 -66s-63.333 -23 -102 -23c-50.667 0 -90 12.333 -118 37s-42 57 -42 97zM118.002 129.001c0 -24.667 8.66699 -44.8311 26 -60.498
s43 -23.5 77 -23.5c42 0 78.333 13.167 109 39.5s46 66.833 46 121.5v56c-4.66699 -6.66699 -12 -11.834 -22 -15.501s-21.333 -6.83398 -34 -9.50098l-103 -17c-34 -6 -59 -16.5 -75 -31.5s-24 -34.833 -24 -59.5zM347.002 605.004c-8.66699 0 -15.167 2.33301 -19.5 7
s-6.5 11.334 -6.5 20.001v36c0 8.66699 2.16699 15.334 6.5 20.001s10.833 7 19.5 7h16c8.66699 0 15.167 -2.33301 19.5 -7s6.5 -11.334 6.5 -20.001v-36c0 -8.66699 -2.16699 -15.334 -6.5 -20.001s-10.833 -7 -19.5 -7h-16zM150.002 605.004
c-8.66699 0 -15.334 2.33301 -20.001 7s-7 11.334 -7 20.001v36c0 8.66699 2.33301 15.334 7 20.001s11.334 7 20.001 7h15c8.66699 0 15.167 -2.33301 19.5 -7s6.5 -11.334 6.5 -20.001v-36c0 -8.66699 -2.16699 -15.334 -6.5 -20.001s-10.833 -7 -19.5 -7h-15z" />
    <glyph glyph-name="aring" unicode="&#xe5;" horiz-adv-x="517" 
d="M50 123c0 40 12.335 72.001 37.002 96.001s64 40.333 118 49l105 18c24.667 4 41.834 8.66699 51.501 14s14.5 14.333 14.5 27c0 37.333 -10.167 66 -30.5 86s-48.833 30 -85.5 30c-38 0 -65.833 -7.83301 -83.5 -23.5s-30.834 -35.834 -39.501 -60.501
c-2.66699 -6 -6.16699 -11.333 -10.5 -16s-11.5 -7 -21.5 -7h-10c-10.667 0 -17.334 3.33301 -20.001 10s-3 14 -1 22c9.33301 39.333 30.333 71 63 95s73.667 36 123 36c60 0 105.667 -15.167 137 -45.5s47 -72.833 47 -127.5v-299c0 -8.66699 -2.33301 -15.334 -7 -20.001
s-11.334 -7 -20.001 -7h-11c-8.66699 0 -15.334 2.33301 -20.001 7s-7 11.334 -7 20.001v51h-3c-13.333 -28.667 -34.666 -50.667 -63.999 -66s-63.333 -23 -102 -23c-50.667 0 -90 12.333 -118 37s-42 57 -42 97zM118.002 129.001c0 -24.667 8.66699 -44.8311 26 -60.498
s43 -23.5 77 -23.5c42 0 78.333 13.167 109 39.5s46 66.833 46 121.5v56c-4.66699 -6.66699 -12 -11.834 -22 -15.501s-21.333 -6.83398 -34 -9.50098l-103 -17c-34 -6 -59 -16.5 -75 -31.5s-24 -34.833 -24 -59.5zM256.002 567.004c-24.667 0 -46.834 8.5 -66.501 25.5
s-29.5 39.5 -29.5 67.5s9.83301 50.5 29.5 67.5s41.834 25.5 66.501 25.5s46.834 -8.5 66.501 -25.5s29.5 -39.5 29.5 -67.5s-9.83301 -50.5 -29.5 -67.5s-41.834 -25.5 -66.501 -25.5zM256.002 604.004c14.667 0 27.667 5.16699 39 15.5s17 23.833 17 40.5
s-5.66699 30.167 -17 40.5s-24.333 15.5 -39 15.5s-27.667 -5.16699 -39 -15.5s-17 -23.833 -17 -40.5s5.66699 -30.167 17 -40.5s24.333 -15.5 39 -15.5z" />
    <glyph glyph-name="ae" unicode="&#xe6;" horiz-adv-x="843" 
d="M50 123c0 38.667 12.3369 70.3301 37.0039 94.9971s64 41.334 118 50.001l105 18c24.667 4 41.834 8.66699 51.501 14s14.5 14.333 14.5 27c0 35.333 -9.83301 63.5 -29.5 84.5s-48.5 31.5 -86.5 31.5c-36.667 0 -64 -7.5 -82 -22.5s-30.667 -33.833 -38 -56.5
c-4 -8 -8.16699 -14.667 -12.5 -20s-11.5 -8 -21.5 -8h-9c-12 0 -19.333 4.16699 -22 12.5s-2 17.833 2 28.5c10.667 36.667 31.5 66.167 62.5 88.5s71.167 33.5 120.5 33.5c40 0 74.167 -7.83301 102.5 -23.5s48.833 -38.834 61.5 -69.501
c18.667 28.667 42.667 51.334 72 68.001s62.666 25 99.999 25c59.333 0 108.5 -20.5 147.5 -61.5s58.5 -97.833 58.5 -170.5c0 -9.33301 -2.5 -16.333 -7.5 -21s-12.167 -7 -21.5 -7h-326c0.666992 -59.333 15 -106 43 -140s64.667 -51 110 -51c32 0 58.667 7.33301 80 22
s36.333 33.334 45 56.001c4 8.66699 8.16699 14.834 12.5 18.501s10.166 5.5 17.499 5.5h17c11.333 0 18.166 -3.5 20.499 -10.5s2.16602 -13.833 -0.500977 -20.5c-12.667 -38.667 -36.334 -70 -71.001 -94s-75 -36 -121 -36s-85.5 10.333 -118.5 31
s-57.833 49.334 -74.5 86.001c-20 -42.667 -47.833 -72.834 -83.5 -90.501s-73.5 -26.5 -113.5 -26.5c-50.667 0 -90 12.333 -118 37s-42 57 -42 97zM450.004 289.996l280.001 -0.000976562c-2.66699 48 -16.334 85 -41.001 111s-55.667 39 -93 39
c-38 0 -70.167 -13.667 -96.5 -41s-42.833 -63.666 -49.5 -108.999zM118.005 128.995c0 -26.667 9 -47.334 27 -62.001s43.333 -22 76 -22c42 0 78.333 13.333 109 40s46 68 46 124v52c-4.66699 -6.66699 -12 -11.667 -22 -15s-21.333 -6.33301 -34 -9l-103 -17
c-34 -5.33301 -59 -15.666 -75 -30.999s-24 -35.333 -24 -60z" />
    <glyph glyph-name="ccedilla" unicode="&#xe7;" horiz-adv-x="511" 
d="M232 -66l20.001 56.002c-64 4 -114.833 29 -152.5 75s-56.5 105.667 -56.5 179c0 76.667 21.667 138.334 65 185.001s97 70 161 70c50 0 92 -12.667 126 -38s57.333 -58 70 -98c3.33301 -8.66699 3.66602 -16.834 0.999023 -24.501s-9.66699 -11.5 -21 -11.5h-14
c-7.33301 0 -13.5 1.66699 -18.5 5s-9.16699 9.33301 -12.5 18c-8.66699 26 -23.834 47.5 -45.501 64.5s-49.5 25.5 -83.5 25.5c-43.333 0 -80.333 -18.167 -111 -54.5s-46 -83.5 -46 -141.5s15.167 -105.167 45.5 -141.5s67.5 -54.5 111.5 -54.5
c35.333 0 63.5 8.5 84.5 25.5s35.833 38.5 44.5 64.5c3.33301 8.66699 7.5 14.667 12.5 18s11.167 5 18.5 5h14c11.333 0 18.333 -3.83301 21 -11.5s2.33398 -15.834 -0.999023 -24.501c-12.667 -38.667 -34.834 -70.334 -66.501 -95.001s-71.167 -38 -118.5 -40l-4 -30
c30.667 -1.33301 53.667 -10.166 69 -26.499s23 -35.833 23 -58.5c0 -24.667 -8.83301 -46 -26.5 -64s-45.167 -27 -82.5 -27h-32c-6 0 -11 2 -15 6s-6 9 -6 15v3c0 5.33301 2 10 6 14s8.66699 6 14 6h30c20 0 34.833 4 44.5 12s14.5 19.667 14.5 35
c0 14.667 -5.16699 26.167 -15.5 34.5s-25.166 12.5 -44.499 12.5h-14c-3.33301 0 -5.83301 1.16699 -7.5 3.5s-2.16699 5.16602 -1.5 8.49902z" />
    <glyph glyph-name="egrave" unicode="&#xe8;" horiz-adv-x="519" 
d="M43 244c0 75.333 21.667 136.664 65 183.997s96.666 71 159.999 71c60.667 0 110.834 -20.5 150.501 -61.5s59.5 -97.833 59.5 -170.5c0 -9.33301 -2.33301 -16.333 -7 -21s-11.667 -7 -21 -7h-336c0.666992 -58 15.334 -104.333 44.001 -139s66.667 -52 114 -52
c32.667 0 59.834 7.33301 81.501 22s36.834 33.334 45.501 56.001c4 8.66699 8.16699 14.834 12.5 18.501s10.166 5.5 17.499 5.5h17c11.333 0 18.166 -3.5 20.499 -10.5s2.16602 -13.833 -0.500977 -20.5c-12.667 -38.667 -36.667 -70 -72 -94s-76 -36 -122 -36
c-73.333 0 -129.833 23.333 -169.5 70s-59.5 108.334 -59.5 185.001zM118 290.998h291.001c-3.33301 50 -17.833 87.333 -43.5 112s-58.167 37 -97.5 37c-38 0 -70.833 -13.333 -98.5 -40s-44.834 -63 -51.501 -109zM265.001 567.998c-6.66699 0 -12 1.16699 -16 3.5
s-8.66699 6.83301 -14 13.5l-103 124c-4.66699 6 -6.16699 11.333 -4.5 16s5.5 7 11.5 7h39c6.66699 0 12.167 -1.66699 16.5 -5s8.16602 -8 11.499 -14l81 -126c2.66699 -4.66699 2.83398 -9 0.500977 -13s-5.83301 -6 -10.5 -6h-12z" />
    <glyph glyph-name="eacute" unicode="&#xe9;" horiz-adv-x="519" 
d="M43 244c0 75.333 21.667 136.664 65 183.997s96.666 71 159.999 71c60.667 0 110.834 -20.5 150.501 -61.5s59.5 -97.833 59.5 -170.5c0 -9.33301 -2.33301 -16.333 -7 -21s-11.667 -7 -21 -7h-336c0.666992 -58 15.334 -104.333 44.001 -139s66.667 -52 114 -52
c32.667 0 59.834 7.33301 81.501 22s36.834 33.334 45.501 56.001c4 8.66699 8.16699 14.834 12.5 18.501s10.166 5.5 17.499 5.5h17c11.333 0 18.166 -3.5 20.499 -10.5s2.16602 -13.833 -0.500977 -20.5c-12.667 -38.667 -36.667 -70 -72 -94s-76 -36 -122 -36
c-73.333 0 -129.833 23.333 -169.5 70s-59.5 108.334 -59.5 185.001zM118 290.998h291.001c-3.33301 50 -17.833 87.333 -43.5 112s-58.167 37 -97.5 37c-38 0 -70.833 -13.333 -98.5 -40s-44.834 -63 -51.501 -109zM259.001 567.998c-4.66699 0 -8.16699 2 -10.5 6
s-2.16602 8.33301 0.500977 13l81 126c3.33301 6 7.16602 10.667 11.499 14s9.83301 5 16.5 5h39c6 0 9.83301 -2.33301 11.5 -7s0.166992 -10 -4.5 -16l-103 -124c-5.33301 -6 -10 -10.333 -14 -13s-9.33301 -4 -16 -4h-12z" />
    <glyph glyph-name="ecircumflex" unicode="&#xea;" horiz-adv-x="519" 
d="M43 244c0 75.333 21.667 136.664 65 183.997s96.666 71 159.999 71c60.667 0 110.834 -20.5 150.501 -61.5s59.5 -97.833 59.5 -170.5c0 -9.33301 -2.33301 -16.333 -7 -21s-11.667 -7 -21 -7h-336c0.666992 -58 15.334 -104.333 44.001 -139s66.667 -52 114 -52
c32.667 0 59.834 7.33301 81.501 22s36.834 33.334 45.501 56.001c4 8.66699 8.16699 14.834 12.5 18.501s10.166 5.5 17.499 5.5h17c11.333 0 18.166 -3.5 20.499 -10.5s2.16602 -13.833 -0.500977 -20.5c-12.667 -38.667 -36.667 -70 -72 -94s-76 -36 -122 -36
c-73.333 0 -129.833 23.333 -169.5 70s-59.5 108.334 -59.5 185.001zM118 290.998h291.001c-3.33301 50 -17.833 87.333 -43.5 112s-58.167 37 -97.5 37c-38 0 -70.833 -13.333 -98.5 -40s-44.834 -63 -51.501 -109zM137.001 567.998c-6 0 -10.1689 2.5 -12.502 7.5
s-1.16602 10.5 3.50098 16.5l95 122c4 5.33301 8.5 9.66602 13.5 12.999s12.167 5 21.5 5h20c9.33301 0 16.5 -1.66699 21.5 -5s9.5 -7.66602 13.5 -12.999l95 -122c4.66699 -6 5.83398 -11.5 3.50098 -16.5s-6.5 -7.5 -12.5 -7.5h-18c-6.66699 0 -12.167 1.5 -16.5 4.5
s-8.83301 7.5 -13.5 13.5l-83 103l-83 -103c-4.66699 -6 -9.16699 -10.5 -13.5 -13.5s-9.83301 -4.5 -16.5 -4.5h-18z" />
    <glyph glyph-name="edieresis" unicode="&#xeb;" horiz-adv-x="519" 
d="M43 244c0 75.333 21.667 136.664 65 183.997s96.666 71 159.999 71c60.667 0 110.834 -20.5 150.501 -61.5s59.5 -97.833 59.5 -170.5c0 -9.33301 -2.33301 -16.333 -7 -21s-11.667 -7 -21 -7h-336c0.666992 -58 15.334 -104.333 44.001 -139s66.667 -52 114 -52
c32.667 0 59.834 7.33301 81.501 22s36.834 33.334 45.501 56.001c4 8.66699 8.16699 14.834 12.5 18.501s10.166 5.5 17.499 5.5h17c11.333 0 18.166 -3.5 20.499 -10.5s2.16602 -13.833 -0.500977 -20.5c-12.667 -38.667 -36.667 -70 -72 -94s-76 -36 -122 -36
c-73.333 0 -129.833 23.333 -169.5 70s-59.5 108.334 -59.5 185.001zM118 290.998h291.001c-3.33301 50 -17.833 87.333 -43.5 112s-58.167 37 -97.5 37c-38 0 -70.833 -13.333 -98.5 -40s-44.834 -63 -51.501 -109zM359.001 604.998c-8.66699 0 -15.167 2.33301 -19.5 7
s-6.5 11.334 -6.5 20.001v36c0 8.66699 2.16699 15.334 6.5 20.001s10.833 7 19.5 7h16c8.66699 0 15.167 -2.33301 19.5 -7s6.5 -11.334 6.5 -20.001v-36c0 -8.66699 -2.16699 -15.334 -6.5 -20.001s-10.833 -7 -19.5 -7h-16zM162.001 604.998
c-8.66699 0 -15.334 2.33301 -20.001 7s-7 11.334 -7 20.001v36c0 8.66699 2.33301 15.334 7 20.001s11.334 7 20.001 7h15c8.66699 0 15.167 -2.33301 19.5 -7s6.5 -11.334 6.5 -20.001v-36c0 -8.66699 -2.16699 -15.334 -6.5 -20.001s-10.833 -7 -19.5 -7h-15z" />
    <glyph glyph-name="igrave" unicode="&#xec;" horiz-adv-x="228" 
d="M82 28v432c0 8.66699 2.33301 15.5 7 20.5s11.667 7.5 21 7.5h12c8.66699 0 15.5 -2.5 20.5 -7.5s7.5 -11.833 7.5 -20.5v-432c0 -8.66699 -2.5 -15.5 -7.5 -20.5s-11.833 -7.5 -20.5 -7.5h-12c-9.33301 0 -16.333 2.5 -21 7.5s-7 11.833 -7 20.5zM113 568
c-6.66699 0 -12 1.16699 -16 3.5s-8.66699 6.83301 -14 13.5l-103 124c-4.66699 6 -6.16699 11.333 -4.5 16s5.5 7 11.5 7h39c6.66699 0 12.167 -1.66699 16.5 -5s8.16602 -8 11.499 -14l81 -126c2.66699 -4.66699 2.83398 -9 0.500977 -13s-5.83301 -6 -10.5 -6h-12z" />
    <glyph glyph-name="iacute" unicode="&#xed;" horiz-adv-x="228" 
d="M80 28v432c0 8.66699 2.33301 15.5 7 20.5s11.667 7.5 21 7.5h12c8.66699 0 15.5 -2.5 20.5 -7.5s7.5 -11.833 7.5 -20.5v-432c0 -8.66699 -2.5 -15.5 -7.5 -20.5s-11.833 -7.5 -20.5 -7.5h-12c-9.33301 0 -16.333 2.5 -21 7.5s-7 11.833 -7 20.5zM105 568
c-4.66699 0 -8.16699 2 -10.5 6s-2.16602 8.33301 0.500977 13l81 126c3.33301 6 7.16602 10.667 11.499 14s9.83301 5 16.5 5h39c6 0 9.83301 -2.33301 11.5 -7s0.166992 -10 -4.5 -16l-103 -124c-5.33301 -6 -10 -10.333 -14 -13s-9.33301 -4 -16 -4h-12z" />
    <glyph glyph-name="icircumflex" unicode="&#xee;" horiz-adv-x="228" 
d="M82 28v432c0 8.66699 2.33301 15.5 7 20.5s11.667 7.5 21 7.5h12c8.66699 0 15.5 -2.5 20.5 -7.5s7.5 -11.833 7.5 -20.5v-432c0 -8.66699 -2.5 -15.5 -7.5 -20.5s-11.833 -7.5 -20.5 -7.5h-12c-9.33301 0 -16.333 2.5 -21 7.5s-7 11.833 -7 20.5zM-15 568
c-6 0 -10.1689 2.5 -12.502 7.5s-1.16602 10.5 3.50098 16.5l95 122c4 5.33301 8.5 9.66602 13.5 12.999s12.167 5 21.5 5h20c9.33301 0 16.5 -1.66699 21.5 -5s9.5 -7.66602 13.5 -12.999l95 -122c4.66699 -6 5.83398 -11.5 3.50098 -16.5s-6.5 -7.5 -12.5 -7.5h-18
c-6.66699 0 -12.167 1.5 -16.5 4.5s-8.83301 7.5 -13.5 13.5l-83 103l-83 -103c-4.66699 -6 -9.16699 -10.5 -13.5 -13.5s-9.83301 -4.5 -16.5 -4.5h-18z" />
    <glyph glyph-name="idieresis" unicode="&#xef;" horiz-adv-x="228" 
d="M80 28v432c0 8.66699 2.33301 15.5 7 20.5s11.667 7.5 21 7.5h12c8.66699 0 15.5 -2.5 20.5 -7.5s7.5 -11.833 7.5 -20.5v-432c0 -8.66699 -2.5 -15.5 -7.5 -20.5s-11.833 -7.5 -20.5 -7.5h-12c-9.33301 0 -16.333 2.5 -21 7.5s-7 11.833 -7 20.5zM205 605
c-8.66699 0 -15.167 2.33301 -19.5 7s-6.5 11.334 -6.5 20.001v36c0 8.66699 2.16699 15.334 6.5 20.001s10.833 7 19.5 7h16c8.66699 0 15.167 -2.33301 19.5 -7s6.5 -11.334 6.5 -20.001v-36c0 -8.66699 -2.16699 -15.334 -6.5 -20.001s-10.833 -7 -19.5 -7h-16zM8 605
c-8.66699 0 -15.334 2.33301 -20.001 7s-7 11.334 -7 20.001v36c0 8.66699 2.33301 15.334 7 20.001s11.334 7 20.001 7h15c8.66699 0 15.167 -2.33301 19.5 -7s6.5 -11.334 6.5 -20.001v-36c0 -8.66699 -2.16699 -15.334 -6.5 -20.001s-10.833 -7 -19.5 -7h-15z" />
    <glyph glyph-name="eth" unicode="&#xf0;" horiz-adv-x="563" 
d="M42 228c0 69.333 22.665 126.502 67.998 171.502s99 67.5 161 67.5c29.333 0 59 -6.33301 89 -19s53.667 -32.334 71 -59.001h4c-5.33301 46 -19.333 87.5 -42 124.5s-51.667 69.167 -87 96.5l-97 -65c-4.66699 -4 -9.16699 -5.66699 -13.5 -5
s-8.16602 3.66699 -11.499 9l-6 8c-3.33301 4.66699 -4.5 9.16699 -3.5 13.5s4.16699 8.16602 9.5 11.499l81 55c-17.333 10.667 -35.5 20.167 -54.5 28.5s-38.833 15.833 -59.5 22.5c-6.66699 2.66699 -11.167 6.16699 -13.5 10.5s-2.5 9.83301 -0.5 16.5l3 9
c1.33301 6.66699 4.33301 11.167 9 13.5s10.334 2.16602 17.001 -0.500977c28.667 -8.66699 55.5 -18.5 80.5 -29.5s48.167 -22.833 69.5 -35.5l88 59c5.33301 3.33301 10 4.66602 14 3.99902s7.66699 -3.66699 11 -9l5 -7c4 -5.33301 5.5 -10.166 4.5 -14.499
s-3.83301 -8.16602 -8.5 -11.499l-73 -48c50 -38 88.167 -87 114.5 -147s39.833 -134.667 40.5 -224v-16c0 -84.667 -22.5 -150.667 -67.5 -198s-100.833 -71 -167.5 -71c-70.667 0 -127.5 22.5 -170.5 67.5s-64.5 102.167 -64.5 171.5zM112.998 228.002
c0 -52 15.333 -95.001 46 -129.001s70 -51 118 -51c46.667 0 85.667 16.833 117 50.5s47 76.834 47 129.501c0 54 -15.5 97.5 -46.5 130.5s-70.167 49.5 -117.5 49.5c-46.667 0 -85.667 -17 -117 -51s-47 -77 -47 -129z" />
    <glyph glyph-name="ntilde" unicode="&#xf1;" horiz-adv-x="558" 
d="M80 28l-0.000976562 432.998c0 8.66699 2.16699 15.334 6.5 20.001s10.833 7 19.5 7h12c8.66699 0 15.334 -2.33301 20.001 -7s7 -11.334 7 -20.001v-57h3c14 32 35.167 55.833 63.5 71.5s60.5 23.5 96.5 23.5c48 0 89.5 -15 124.5 -45s52.5 -81.667 52.5 -155v-271
c0 -8.66699 -2.5 -15.5 -7.5 -20.5s-11.833 -7.5 -20.5 -7.5h-12c-9.33301 0 -16.333 2.5 -21 7.5s-7 11.833 -7 20.5v262c0 54.667 -11.5 93.334 -34.5 116.001s-52.5 34 -88.5 34c-40 0 -74.333 -16.167 -103 -48.5s-43 -78.166 -43 -137.499v-226
c0 -8.66699 -2.5 -15.5 -7.5 -20.5s-11.833 -7.5 -20.5 -7.5h-12c-9.33301 0 -16.333 2.5 -21 7.5s-7 11.833 -7 20.5zM138.999 599.998c-5.33301 0 -8.83301 1.83301 -10.5 5.5s-2.16699 7.83398 -1.5 12.501c4.66699 22.667 13.834 41.834 27.501 57.501
s32.834 23.5 57.501 23.5c14 0 27.5 -2.66699 40.5 -8s25.333 -11.166 37 -17.499l33.5 -17.5c10.667 -5.33301 20.667 -8 30 -8c11.333 0 20.333 3.5 27 10.5s11.334 15.167 14.001 24.5c2.66699 6 5.16699 10.333 7.5 13s6.83301 4 13.5 4h8c5.33301 0 9 -1.83301 11 -5.5
s2.33301 -7.83398 1 -12.501c-4.66699 -22.667 -13.834 -41.834 -27.501 -57.501s-32.834 -23.5 -57.501 -23.5c-14 0 -27.5 2.66699 -40.5 8s-25.333 11.166 -37 17.499l-33.5 17.5c-10.667 5.33301 -20.667 8 -30 8c-11.333 0 -20.333 -3.5 -27 -10.5
s-11.334 -15.167 -14.001 -24.5c-2.66699 -6 -5.16699 -10.333 -7.5 -13s-6.83301 -4 -13.5 -4h-8z" />
    <glyph glyph-name="ograve" unicode="&#xf2;" horiz-adv-x="550" 
d="M43 244c0 76.667 22.167 138.334 66.5 185.001s99.5 70 165.5 70c70 0 126.167 -23.333 168.5 -70s63.5 -108.334 63.5 -185.001s-22.167 -138.334 -66.5 -185.001s-99.5 -70 -165.5 -70c-70 0 -126.167 23.333 -168.5 70s-63.5 108.334 -63.5 185.001zM114 244
c0 -58 15 -105.167 45 -141.5s68.667 -54.5 116 -54.5c46 0 84.333 18.167 115 54.5s46 83.5 46 141.5c0 60 -15 107.667 -45 143s-68.667 53 -116 53c-46 0 -84.333 -18.167 -115 -54.5s-46 -83.5 -46 -141.5zM272 568c-6.66699 0 -12 1.16699 -16 3.5
s-8.66699 6.83301 -14 13.5l-103 124c-4.66699 6 -6.16699 11.333 -4.5 16s5.5 7 11.5 7h39c6.66699 0 12.167 -1.66699 16.5 -5s8.16602 -8 11.499 -14l81 -126c2.66699 -4.66699 2.83398 -9 0.500977 -13s-5.83301 -6 -10.5 -6h-12z" />
    <glyph glyph-name="oacute" unicode="&#xf3;" horiz-adv-x="550" 
d="M43 244c0 76.667 22.167 138.334 66.5 185.001s99.5 70 165.5 70c70 0 126.167 -23.333 168.5 -70s63.5 -108.334 63.5 -185.001s-22.167 -138.334 -66.5 -185.001s-99.5 -70 -165.5 -70c-70 0 -126.167 23.333 -168.5 70s-63.5 108.334 -63.5 185.001zM114 244
c0 -58 15 -105.167 45 -141.5s68.667 -54.5 116 -54.5c46 0 84.333 18.167 115 54.5s46 83.5 46 141.5c0 60 -15 107.667 -45 143s-68.667 53 -116 53c-46 0 -84.333 -18.167 -115 -54.5s-46 -83.5 -46 -141.5zM266 568c-4.66699 0 -8.16699 2 -10.5 6
s-2.16602 8.33301 0.500977 13l81 126c3.33301 6 7.16602 10.667 11.499 14s9.83301 5 16.5 5h39c6 0 9.83301 -2.33301 11.5 -7s0.166992 -10 -4.5 -16l-103 -124c-5.33301 -6 -10 -10.333 -14 -13s-9.33301 -4 -16 -4h-12z" />
    <glyph glyph-name="ocircumflex" unicode="&#xf4;" horiz-adv-x="550" 
d="M43 244c0 76.667 22.167 138.334 66.5 185.001s99.5 70 165.5 70c70 0 126.167 -23.333 168.5 -70s63.5 -108.334 63.5 -185.001s-22.167 -138.334 -66.5 -185.001s-99.5 -70 -165.5 -70c-70 0 -126.167 23.333 -168.5 70s-63.5 108.334 -63.5 185.001zM114 244
c0 -58 15 -105.167 45 -141.5s68.667 -54.5 116 -54.5c46 0 84.333 18.167 115 54.5s46 83.5 46 141.5c0 60 -15 107.667 -45 143s-68.667 53 -116 53c-46 0 -84.333 -18.167 -115 -54.5s-46 -83.5 -46 -141.5zM144 568c-6 0 -10.1689 2.5 -12.502 7.5
s-1.16602 10.5 3.50098 16.5l95 122c4 5.33301 8.5 9.66602 13.5 12.999s12.167 5 21.5 5h20c9.33301 0 16.5 -1.66699 21.5 -5s9.5 -7.66602 13.5 -12.999l95 -122c4.66699 -6 5.83398 -11.5 3.50098 -16.5s-6.5 -7.5 -12.5 -7.5h-18c-6.66699 0 -12.167 1.5 -16.5 4.5
s-8.83301 7.5 -13.5 13.5l-83 103l-83 -103c-4.66699 -6 -9.16699 -10.5 -13.5 -13.5s-9.83301 -4.5 -16.5 -4.5h-18z" />
    <glyph glyph-name="otilde" unicode="&#xf5;" horiz-adv-x="550" 
d="M43 244c0 76.667 22.167 138.334 66.5 185.001s99.5 70 165.5 70c70 0 126.167 -23.333 168.5 -70s63.5 -108.334 63.5 -185.001s-22.167 -138.334 -66.5 -185.001s-99.5 -70 -165.5 -70c-70 0 -126.167 23.333 -168.5 70s-63.5 108.334 -63.5 185.001zM114 244
c0 -58 15 -105.167 45 -141.5s68.667 -54.5 116 -54.5c46 0 84.333 18.167 115 54.5s46 83.5 46 141.5c0 60 -15 107.667 -45 143s-68.667 53 -116 53c-46 0 -84.333 -18.167 -115 -54.5s-46 -83.5 -46 -141.5zM134 600c-5.33301 0 -8.83301 1.83301 -10.5 5.5
s-2.16699 7.83398 -1.5 12.501c4.66699 22.667 13.834 41.834 27.501 57.501s32.834 23.5 57.501 23.5c14 0 27.5 -2.66699 40.5 -8s25.333 -11.166 37 -17.499l33.5 -17.5c10.667 -5.33301 20.667 -8 30 -8c11.333 0 20.333 3.5 27 10.5s11.334 15.167 14.001 24.5
c2.66699 6 5.16699 10.333 7.5 13s6.83301 4 13.5 4h8c5.33301 0 9 -1.83301 11 -5.5s2.33301 -7.83398 1 -12.501c-4.66699 -22.667 -13.834 -41.834 -27.501 -57.501s-32.834 -23.5 -57.501 -23.5c-14 0 -27.5 2.66699 -40.5 8s-25.333 11.166 -37 17.499l-33.5 17.5
c-10.667 5.33301 -20.667 8 -30 8c-11.333 0 -20.333 -3.5 -27 -10.5s-11.334 -15.167 -14.001 -24.5c-2.66699 -6 -5.16699 -10.333 -7.5 -13s-6.83301 -4 -13.5 -4h-8z" />
    <glyph glyph-name="odieresis" unicode="&#xf6;" horiz-adv-x="550" 
d="M43 244c0 76.667 22.167 138.334 66.5 185.001s99.5 70 165.5 70c70 0 126.167 -23.333 168.5 -70s63.5 -108.334 63.5 -185.001s-22.167 -138.334 -66.5 -185.001s-99.5 -70 -165.5 -70c-70 0 -126.167 23.333 -168.5 70s-63.5 108.334 -63.5 185.001zM114 244
c0 -58 15 -105.167 45 -141.5s68.667 -54.5 116 -54.5c46 0 84.333 18.167 115 54.5s46 83.5 46 141.5c0 60 -15 107.667 -45 143s-68.667 53 -116 53c-46 0 -84.333 -18.167 -115 -54.5s-46 -83.5 -46 -141.5zM366 605c-8.66699 0 -15.167 2.33301 -19.5 7
s-6.5 11.334 -6.5 20.001v36c0 8.66699 2.16699 15.334 6.5 20.001s10.833 7 19.5 7h16c8.66699 0 15.167 -2.33301 19.5 -7s6.5 -11.334 6.5 -20.001v-36c0 -8.66699 -2.16699 -15.334 -6.5 -20.001s-10.833 -7 -19.5 -7h-16zM169 605
c-8.66699 0 -15.334 2.33301 -20.001 7s-7 11.334 -7 20.001v36c0 8.66699 2.33301 15.334 7 20.001s11.334 7 20.001 7h15c8.66699 0 15.167 -2.33301 19.5 -7s6.5 -11.334 6.5 -20.001v-36c0 -8.66699 -2.16699 -15.334 -6.5 -20.001s-10.833 -7 -19.5 -7h-15z" />
    <glyph glyph-name="divide" unicode="&#xf7;" horiz-adv-x="568" 
d="M276 380c-9.33301 0 -16.5 2.5 -21.5 7.5s-7.5 12.167 -7.5 21.5v41c0 9.33301 2.5 16.333 7.5 21s12.167 7 21.5 7h16c9.33301 0 16.5 -2.33301 21.5 -7s7.5 -11.667 7.5 -21v-41c0 -9.33301 -2.5 -16.5 -7.5 -21.5s-12.167 -7.5 -21.5 -7.5h-16zM80 224
c-7.33301 0 -13 2 -17 6s-6 9.33301 -6 16v15c0 7.33301 2 12.833 6 16.5s9.66699 5.5 17 5.5h408c7.33301 0 13 -1.83301 17 -5.5s6 -9.16699 6 -16.5v-15c0 -6.66699 -2 -12 -6 -16s-9.66699 -6 -17 -6h-408zM247 57v41c0 9.33301 2.5 16.5 7.5 21.5s12.167 7.5 21.5 7.5
h16c9.33301 0 16.5 -2.5 21.5 -7.5s7.5 -12.167 7.5 -21.5v-41c0 -9.33301 -2.5 -16.5 -7.5 -21.5s-12.167 -7.5 -21.5 -7.5h-16c-9.33301 0 -16.5 2.5 -21.5 7.5s-7.5 12.167 -7.5 21.5z" />
    <glyph glyph-name="oslash" unicode="&#xf8;" horiz-adv-x="550" 
d="M62 12l40 51c-18.667 22 -33.167 48.333 -43.5 79s-15.5 64.667 -15.5 102c0 76.667 22.167 138.334 66.5 185.001s99.5 70 165.5 70c28 0 53.833 -4 77.5 -12s44.834 -19.333 63.501 -34l19 23c6.66699 8 12.334 14 17.001 18s11 6 19 6h7c8 0 13.167 -2.33301 15.5 -7
s0.833008 -10.334 -4.5 -17.001l-41 -52c18.667 -22 33.167 -48.333 43.5 -79s15.5 -64.334 15.5 -101.001c0 -76.667 -22.167 -138.334 -66.5 -185.001s-99.5 -70 -165.5 -70c-28 0 -53.833 3.83301 -77.5 11.5s-44.834 18.834 -63.501 33.501l-18 -22
c-6.66699 -8 -12.334 -14 -17.001 -18s-11 -6 -19 -6h-7c-8 0 -13.167 2.33301 -15.5 7s-0.833008 10.334 4.5 17.001zM147 118l227.998 285c-12.667 11.333 -27.667 20.333 -45 27s-35.666 10 -54.999 10c-46 0 -84.333 -18.167 -115 -54.5s-46 -83.5 -46 -141.5
c0 -24.667 2.83301 -47.667 8.5 -69s13.834 -40.333 24.501 -57zM174.998 85c13.333 -12 28.501 -21.167 45.501 -27.5s35.167 -9.5 54.5 -9.5c46 0 84.333 18.167 115 54.5s46 83.5 46 141.5c0 24.667 -2.83301 47.667 -8.5 69s-13.834 40.333 -24.501 57z" />
    <glyph glyph-name="ugrave" unicode="&#xf9;" horiz-adv-x="553" 
d="M72 189l0.00195312 271.001c0 8.66699 2.33301 15.5 7 20.5s11.667 7.5 21 7.5h12c8.66699 0 15.5 -2.5 20.5 -7.5s7.5 -11.833 7.5 -20.5v-262c0 -54.667 11.333 -93.334 34 -116.001s52 -34 88 -34c40 0 73.833 16 101.5 48s41.5 77.667 41.5 137v227
c0 8.66699 2.33301 15.5 7 20.5s11.667 7.5 21 7.5h12c8.66699 0 15.5 -2.5 20.5 -7.5s7.5 -11.833 7.5 -20.5v-433c0 -8.66699 -2.33301 -15.334 -7 -20.001s-11.334 -7 -20.001 -7h-11c-8.66699 0 -15.334 2.33301 -20.001 7s-7 11.334 -7 20.001v57h-3
c-14 -32.667 -34.667 -56.667 -62 -72s-59 -23 -95 -23c-48 0 -89.333 15 -124 45s-52 81.667 -52 155zM275.002 568.001c-6.66699 0 -12 1.16699 -16 3.5s-8.66699 6.83301 -14 13.5l-103 124c-4.66699 6 -6.16699 11.333 -4.5 16s5.5 7 11.5 7h39
c6.66699 0 12.167 -1.66699 16.5 -5s8.16602 -8 11.499 -14l81 -126c2.66699 -4.66699 2.83398 -9 0.500977 -13s-5.83301 -6 -10.5 -6h-12z" />
    <glyph glyph-name="uacute" unicode="&#xfa;" horiz-adv-x="553" 
d="M72 189l0.00195312 271.001c0 8.66699 2.33301 15.5 7 20.5s11.667 7.5 21 7.5h12c8.66699 0 15.5 -2.5 20.5 -7.5s7.5 -11.833 7.5 -20.5v-262c0 -54.667 11.333 -93.334 34 -116.001s52 -34 88 -34c40 0 73.833 16 101.5 48s41.5 77.667 41.5 137v227
c0 8.66699 2.33301 15.5 7 20.5s11.667 7.5 21 7.5h12c8.66699 0 15.5 -2.5 20.5 -7.5s7.5 -11.833 7.5 -20.5v-433c0 -8.66699 -2.33301 -15.334 -7 -20.001s-11.334 -7 -20.001 -7h-11c-8.66699 0 -15.334 2.33301 -20.001 7s-7 11.334 -7 20.001v57h-3
c-14 -32.667 -34.667 -56.667 -62 -72s-59 -23 -95 -23c-48 0 -89.333 15 -124 45s-52 81.667 -52 155zM269.002 568.001c-4.66699 0 -8.16699 2 -10.5 6s-2.16602 8.33301 0.500977 13l81 126c3.33301 6 7.16602 10.667 11.499 14s9.83301 5 16.5 5h39
c6 0 9.83301 -2.33301 11.5 -7s0.166992 -10 -4.5 -16l-103 -124c-5.33301 -6 -10 -10.333 -14 -13s-9.33301 -4 -16 -4h-12z" />
    <glyph glyph-name="ucircumflex" unicode="&#xfb;" horiz-adv-x="553" 
d="M72 189l0.00195312 271.001c0 8.66699 2.33301 15.5 7 20.5s11.667 7.5 21 7.5h12c8.66699 0 15.5 -2.5 20.5 -7.5s7.5 -11.833 7.5 -20.5v-262c0 -54.667 11.333 -93.334 34 -116.001s52 -34 88 -34c40 0 73.833 16 101.5 48s41.5 77.667 41.5 137v227
c0 8.66699 2.33301 15.5 7 20.5s11.667 7.5 21 7.5h12c8.66699 0 15.5 -2.5 20.5 -7.5s7.5 -11.833 7.5 -20.5v-433c0 -8.66699 -2.33301 -15.334 -7 -20.001s-11.334 -7 -20.001 -7h-11c-8.66699 0 -15.334 2.33301 -20.001 7s-7 11.334 -7 20.001v57h-3
c-14 -32.667 -34.667 -56.667 -62 -72s-59 -23 -95 -23c-48 0 -89.333 15 -124 45s-52 81.667 -52 155zM147.002 568.001c-6 0 -10.1689 2.5 -12.502 7.5s-1.16602 10.5 3.50098 16.5l95 122c4 5.33301 8.5 9.66602 13.5 12.999s12.167 5 21.5 5h20
c9.33301 0 16.5 -1.66699 21.5 -5s9.5 -7.66602 13.5 -12.999l95 -122c4.66699 -6 5.83398 -11.5 3.50098 -16.5s-6.5 -7.5 -12.5 -7.5h-18c-6.66699 0 -12.167 1.5 -16.5 4.5s-8.83301 7.5 -13.5 13.5l-83 103l-83 -103c-4.66699 -6 -9.16699 -10.5 -13.5 -13.5
s-9.83301 -4.5 -16.5 -4.5h-18z" />
    <glyph glyph-name="udieresis" unicode="&#xfc;" horiz-adv-x="553" 
d="M72 189l0.00195312 271.001c0 8.66699 2.33301 15.5 7 20.5s11.667 7.5 21 7.5h12c8.66699 0 15.5 -2.5 20.5 -7.5s7.5 -11.833 7.5 -20.5v-262c0 -54.667 11.333 -93.334 34 -116.001s52 -34 88 -34c40 0 73.833 16 101.5 48s41.5 77.667 41.5 137v227
c0 8.66699 2.33301 15.5 7 20.5s11.667 7.5 21 7.5h12c8.66699 0 15.5 -2.5 20.5 -7.5s7.5 -11.833 7.5 -20.5v-433c0 -8.66699 -2.33301 -15.334 -7 -20.001s-11.334 -7 -20.001 -7h-11c-8.66699 0 -15.334 2.33301 -20.001 7s-7 11.334 -7 20.001v57h-3
c-14 -32.667 -34.667 -56.667 -62 -72s-59 -23 -95 -23c-48 0 -89.333 15 -124 45s-52 81.667 -52 155zM369.002 605.001c-8.66699 0 -15.167 2.33301 -19.5 7s-6.5 11.334 -6.5 20.001v36c0 8.66699 2.16699 15.334 6.5 20.001s10.833 7 19.5 7h16
c8.66699 0 15.167 -2.33301 19.5 -7s6.5 -11.334 6.5 -20.001v-36c0 -8.66699 -2.16699 -15.334 -6.5 -20.001s-10.833 -7 -19.5 -7h-16zM172.002 605.001c-8.66699 0 -15.334 2.33301 -20.001 7s-7 11.334 -7 20.001v36c0 8.66699 2.33301 15.334 7 20.001
s11.334 7 20.001 7h15c8.66699 0 15.167 -2.33301 19.5 -7s6.5 -11.334 6.5 -20.001v-36c0 -8.66699 -2.16699 -15.334 -6.5 -20.001s-10.833 -7 -19.5 -7h-15z" />
    <glyph glyph-name="yacute" unicode="&#xfd;" horiz-adv-x="460" 
d="M186 -64l17 48.999l-180 471c-3.33301 10 -3 17.833 1 23.5s10.333 8.5 19 8.5h17c9.33301 0 16.5 -2 21.5 -6s9.5 -11.333 13.5 -22l140 -386h3l140 386c2.66699 8.66699 6.33398 15.5 11.001 20.5s11.667 7.5 21 7.5h14c8.66699 0 15 -2.83301 19 -8.5s4 -13.5 0 -23.5
l-202 -539c-13.333 -36 -32.666 -69 -57.999 -99s-61.333 -45 -108 -45h-12c-8.66699 0 -15.334 1.83301 -20.001 5.5s-7 9.83398 -7 18.501v10c0 8.66699 2 15 6 19s10.333 6 19 6h4c29.333 0 53.666 8.5 72.999 25.5s35.333 43.167 48 78.5zM223 567.999
c-4.66699 0 -8.16699 2 -10.5 6s-2.16602 8.33301 0.500977 13l81 126c3.33301 6 7.16602 10.667 11.499 14s9.83301 5 16.5 5h39c6 0 9.83301 -2.33301 11.5 -7s0.166992 -10 -4.5 -16l-103 -124c-5.33301 -6 -10 -10.333 -14 -13s-9.33301 -4 -16 -4h-12z" />
    <glyph glyph-name="thorn" unicode="&#xfe;" horiz-adv-x="576" 
d="M148 -84v-108.002c0 -8.66699 -2.5 -15.5 -7.5 -20.5s-11.833 -7.5 -20.5 -7.5h-12c-9.33301 0 -16.333 2.5 -21 7.5s-7 11.833 -7 20.5v896c0 8.66699 2.33301 15.5 7 20.5s11.667 7.5 21 7.5h12c8.66699 0 15.5 -2.5 20.5 -7.5s7.5 -11.833 7.5 -20.5v-130v-30.5
c0 -14.333 -0.166992 -30 -0.5 -47l-1 -52.5c-0.333008 -18 -0.833008 -33.667 -1.5 -47h3c15.333 34.667 38.5 60.334 69.5 77.001s65.167 25 102.5 25c60 0 110.5 -22.167 151.5 -66.5s61.5 -105.833 61.5 -184.5s-21.5 -141.5 -64.5 -188.5s-94.5 -70.5 -154.5 -70.5
c-37.333 0 -70.5 8.33301 -99.5 25s-51.167 42.334 -66.5 77.001h-3c0 -8.66699 0.166992 -21.167 0.5 -37.5l1 -50.5l1 -50c0.333008 -16 0.5 -28.333 0.5 -37zM148 243.998c0 -62 15.167 -110.166 45.5 -144.499s67.5 -51.5 111.5 -51.5s81.167 18 111.5 54
s45.5 84.667 45.5 146s-15.333 108.666 -46 141.999s-67.667 50 -111 50c-44 0 -81.167 -17.167 -111.5 -51.5s-45.5 -82.5 -45.5 -144.5z" />
    <glyph glyph-name="ydieresis" unicode="&#xff;" horiz-adv-x="460" 
d="M186 -64l17 48.999l-180 471c-3.33301 10 -3 17.833 1 23.5s10.333 8.5 19 8.5h17c9.33301 0 16.5 -2 21.5 -6s9.5 -11.333 13.5 -22l140 -386h3l140 386c2.66699 8.66699 6.33398 15.5 11.001 20.5s11.667 7.5 21 7.5h14c8.66699 0 15 -2.83301 19 -8.5s4 -13.5 0 -23.5
l-202 -539c-13.333 -36 -32.666 -69 -57.999 -99s-61.333 -45 -108 -45h-12c-8.66699 0 -15.334 1.83301 -20.001 5.5s-7 9.83398 -7 18.501v10c0 8.66699 2 15 6 19s10.333 6 19 6h4c29.333 0 53.666 8.5 72.999 25.5s35.333 43.167 48 78.5zM323 604.999
c-8.66699 0 -15.167 2.33301 -19.5 7s-6.5 11.334 -6.5 20.001v36c0 8.66699 2.16699 15.334 6.5 20.001s10.833 7 19.5 7h16c8.66699 0 15.167 -2.33301 19.5 -7s6.5 -11.334 6.5 -20.001v-36c0 -8.66699 -2.16699 -15.334 -6.5 -20.001s-10.833 -7 -19.5 -7h-16z
M126 604.999c-8.66699 0 -15.334 2.33301 -20.001 7s-7 11.334 -7 20.001v36c0 8.66699 2.33301 15.334 7 20.001s11.334 7 20.001 7h15c8.66699 0 15.167 -2.33301 19.5 -7s6.5 -11.334 6.5 -20.001v-36c0 -8.66699 -2.16699 -15.334 -6.5 -20.001s-10.833 -7 -19.5 -7h-15
z" />
    <glyph glyph-name="Amacron" unicode="&#x100;" horiz-adv-x="617" 
d="M25 35l235 624c3.33301 9.33301 8 16.5 14 21.5s14.333 7.5 25 7.5h25c10.667 0 19.334 -2.5 26.001 -7.5s11.667 -12.167 15 -21.5l234 -625c4.66699 -12 5 -20.667 1 -26s-11.333 -8 -22 -8h-17c-9.33301 -0 -16.333 2.33301 -21 7s-8.66699 12 -12 22l-63 168h-310
l-62 -168c-3.33301 -10 -7.33301 -17.333 -12 -22s-11.334 -7 -20.001 -7h-15c-10.667 -0 -18 2.83301 -22 8.5s-3.66699 14.5 1 26.5zM178 259h265l-130 355h-4zM172 796v12c0 6.66699 1.66699 11.834 5 15.501s8.33301 5.5 15 5.5h236c6.66699 0 11.667 -1.83301 15 -5.5
s5 -8.83398 5 -15.501v-12c0 -6.66699 -1.66699 -11.667 -5 -15s-8.33301 -5 -15 -5h-236c-6.66699 0 -11.667 1.66699 -15 5s-5 8.33301 -5 15z" />
    <glyph glyph-name="amacron" unicode="&#x101;" horiz-adv-x="517" 
d="M50 123c0 40 12.335 72.001 37.002 96.001s64 40.333 118 49l105 18c24.667 4 41.834 8.66699 51.501 14s14.5 14.333 14.5 27c0 37.333 -10.167 66 -30.5 86s-48.833 30 -85.5 30c-38 0 -65.833 -7.83301 -83.5 -23.5s-30.834 -35.834 -39.501 -60.501
c-2.66699 -6 -6.16699 -11.333 -10.5 -16s-11.5 -7 -21.5 -7h-10c-10.667 0 -17.334 3.33301 -20.001 10s-3 14 -1 22c9.33301 39.333 30.333 71 63 95s73.667 36 123 36c60 0 105.667 -15.167 137 -45.5s47 -72.833 47 -127.5v-299c0 -8.66699 -2.33301 -15.334 -7 -20.001
s-11.334 -7 -20.001 -7h-11c-8.66699 0 -15.334 2.33301 -20.001 7s-7 11.334 -7 20.001v51h-3c-13.333 -28.667 -34.666 -50.667 -63.999 -66s-63.333 -23 -102 -23c-50.667 0 -90 12.333 -118 37s-42 57 -42 97zM118.002 129.001c0 -24.667 8.66699 -44.8311 26 -60.498
s43 -23.5 77 -23.5c42 0 78.333 13.167 109 39.5s46 66.833 46 121.5v56c-4.66699 -6.66699 -12 -11.834 -22 -15.501s-21.333 -6.83398 -34 -9.50098l-103 -17c-34 -6 -59 -16.5 -75 -31.5s-24 -34.833 -24 -59.5zM137.002 623.004c-6.66699 0 -11.667 1.66699 -15 5
s-5 8.33301 -5 15v12c0 6.66699 1.66699 11.834 5 15.501s8.33301 5.5 15 5.5h236c6.66699 0 11.667 -1.83301 15 -5.5s5 -8.83398 5 -15.501v-12c0 -6.66699 -1.66699 -11.667 -5 -15s-8.33301 -5 -15 -5h-236z" />
    <glyph glyph-name="Abreve" unicode="&#x102;" horiz-adv-x="617" 
d="M25 35l235 624c3.33301 9.33301 8 16.5 14 21.5s14.333 7.5 25 7.5h25c10.667 0 19.334 -2.5 26.001 -7.5s11.667 -12.167 15 -21.5l234 -625c4.66699 -12 5 -20.667 1 -26s-11.333 -8 -22 -8h-17c-9.33301 -0 -16.333 2.33301 -21 7s-8.66699 12 -12 22l-63 168h-310
l-62 -168c-3.33301 -10 -7.33301 -17.333 -12 -22s-11.334 -7 -20.001 -7h-15c-10.667 -0 -18 2.83301 -22 8.5s-3.66699 14.5 1 26.5zM178 259h265l-130 355h-4zM402 882c2 6.66699 4.50488 11.667 7.50488 15s7.83301 5 14.5 5h6c6 0 10.667 -1.83301 14 -5.5
s4.33301 -8.83398 3 -15.501c-8.66699 -42 -26.334 -71.333 -53.001 -88s-54.334 -25 -83.001 -25s-56.334 8.33301 -83.001 25s-44.334 46 -53.001 88c-1.33301 6.66699 -0.333008 11.834 3 15.501s8 5.5 14 5.5h7c6.66699 0 11.334 -1.66699 14.001 -5s5 -8.33301 7 -15
c6.66699 -23.333 17.667 -40.666 33 -51.999s34.666 -17 57.999 -17s42.666 5.66699 57.999 17s26.333 28.666 33 51.999z" />
    <glyph glyph-name="abreve" unicode="&#x103;" horiz-adv-x="517" 
d="M50 123c0 40 12.335 72.001 37.002 96.001s64 40.333 118 49l105 18c24.667 4 41.834 8.66699 51.501 14s14.5 14.333 14.5 27c0 37.333 -10.167 66 -30.5 86s-48.833 30 -85.5 30c-38 0 -65.833 -7.83301 -83.5 -23.5s-30.834 -35.834 -39.501 -60.501
c-2.66699 -6 -6.16699 -11.333 -10.5 -16s-11.5 -7 -21.5 -7h-10c-10.667 0 -17.334 3.33301 -20.001 10s-3 14 -1 22c9.33301 39.333 30.333 71 63 95s73.667 36 123 36c60 0 105.667 -15.167 137 -45.5s47 -72.833 47 -127.5v-299c0 -8.66699 -2.33301 -15.334 -7 -20.001
s-11.334 -7 -20.001 -7h-11c-8.66699 0 -15.334 2.33301 -20.001 7s-7 11.334 -7 20.001v51h-3c-13.333 -28.667 -34.666 -50.667 -63.999 -66s-63.333 -23 -102 -23c-50.667 0 -90 12.333 -118 37s-42 57 -42 97zM118.002 129.001c0 -24.667 8.66699 -44.8311 26 -60.498
s43 -23.5 77 -23.5c42 0 78.333 13.167 109 39.5s46 66.833 46 121.5v56c-4.66699 -6.66699 -12 -11.834 -22 -15.501s-21.333 -6.83398 -34 -9.50098l-103 -17c-34 -6 -59 -16.5 -75 -31.5s-24 -34.833 -24 -59.5zM256.002 584.004c-28.667 0 -56.3291 8.33301 -82.9961 25
s-44.334 46 -53.001 88c-1.33301 6.66699 -0.333008 11.834 3 15.501s8 5.5 14 5.5h7c6.66699 0 11.334 -1.66699 14.001 -5s5 -8.33301 7 -15c6.66699 -22.667 17.667 -39.834 33 -51.501s34.666 -17.5 57.999 -17.5s42.666 5.83301 57.999 17.5s26.333 28.834 33 51.501
c2 6.66699 4.5 11.667 7.5 15s7.83301 5 14.5 5h6c6 0 10.667 -1.83301 14 -5.5s4.33301 -8.83398 3 -15.501c-8.66699 -42 -26.334 -71.333 -53.001 -88s-54.334 -25 -83.001 -25z" />
    <glyph glyph-name="Aogonek" unicode="&#x104;" horiz-adv-x="617" 
d="M481 -128c0 18.667 5.50098 39.001 16.501 61.001s29.167 44.333 54.5 67c-6.66699 1.33301 -11.667 4.33301 -15 9s-6.33301 11.334 -9 20.001l-63 168h-310l-62 -168c-3.33301 -10 -7.33301 -17.333 -12 -22s-11.334 -7 -20.001 -7h-15c-10.667 0 -18 2.83301 -22 8.5
s-3.66699 14.5 1 26.5l235 624c3.33301 9.33301 8 16.5 14 21.5s14.333 7.5 25 7.5h25c10.667 0 19.334 -2.5 26.001 -7.5s11.667 -12.167 15 -21.5l234 -625c2.66699 -8 3.66699 -14.333 3 -19s-3 -8.33398 -7 -11.001h1c-22.667 -24.667 -38.5 -47.334 -47.5 -68.001
s-13.5 -38 -13.5 -52c0 -16 4.66699 -28.833 14 -38.5s24.666 -14.5 45.999 -14.5h14c5.33301 0 9.5 -1.5 12.5 -4.5s4.5 -7.16699 4.5 -12.5v-13c0 -6 -1.5 -10.333 -4.5 -13s-7.16699 -4 -12.5 -4h-23c-34 0 -60 8.33301 -78 25s-27 37.667 -27 63zM178.001 259.001h265
l-130 355h-4z" />
    <glyph glyph-name="aogonek" unicode="&#x105;" horiz-adv-x="517" 
d="M319 -128c0 18.667 5.50098 39.1689 16.501 61.502s29.833 45.166 56.5 68.499c-4.66699 2 -8 5 -10 9s-3 9.33301 -3 16v51h-3c-13.333 -28.667 -34.666 -50.667 -63.999 -66s-63.333 -23 -102 -23c-50.667 0 -90 12.333 -118 37s-42 57 -42 97s12.333 72 37 96
s64 40.333 118 49l105 18c24.667 4 41.834 8.66699 51.501 14s14.5 14.333 14.5 27c0 37.333 -10.167 66 -30.5 86s-48.833 30 -85.5 30c-38 0 -65.833 -7.83301 -83.5 -23.5s-30.834 -35.834 -39.501 -60.501c-2.66699 -6 -6.16699 -11.333 -10.5 -16s-11.5 -7 -21.5 -7
h-10c-10.667 0 -17.334 3.33301 -20.001 10s-3 14 -1 22c9.33301 39.333 30.333 71 63 95s73.667 36 123 36c60 0 105.667 -15.167 137 -45.5s47 -72.833 47 -127.5v-299c0 -6 -1 -11 -3 -15s-5 -7 -9 -9c-22.667 -24.667 -38.334 -47.167 -47.001 -67.5
s-13 -37.5 -13 -51.5c0 -16 4.66699 -28.833 14 -38.5s25 -14.5 47 -14.5h13c5.33301 0 9.66602 -1.5 12.999 -4.5s5 -7.16699 5 -12.5v-13c0 -6 -1.66699 -10.333 -5 -13s-7.66602 -4 -12.999 -4h-22c-34 0 -60 8.33301 -78 25s-27 37.667 -27 63zM118.001 129.002
c0 -24.667 8.66699 -44.8311 26 -60.498s43 -23.5 77 -23.5c42 0 78.333 13.167 109 39.5s46 66.833 46 121.5v56c-4.66699 -6.66699 -12 -11.834 -22 -15.501s-21.333 -6.83398 -34 -9.50098l-103 -17c-34 -6 -59 -16.5 -75 -31.5s-24 -34.833 -24 -59.5z" />
    <glyph glyph-name="Cacute" unicode="&#x106;" horiz-adv-x="700" 
d="M47 344c0 50 7.83984 96.666 23.5068 139.999s37.834 80.833 66.501 112.5s63.167 56.667 103.5 75s84.833 27.5 133.5 27.5c72.667 0 133.5 -17.833 182.5 -53.5s81.833 -81.5 98.5 -137.5c3.33301 -12 2.16602 -20.5 -3.50098 -25.5s-12.834 -7.5 -21.501 -7.5h-14
c-9.33301 0 -16.5 2.5 -21.5 7.5s-9.5 11.833 -13.5 20.5c-16.667 42 -42.334 74.333 -77.001 97s-78 34 -130 34c-76 0 -137.167 -27.667 -183.5 -83s-69.5 -124.333 -69.5 -207c0 -40.667 6 -78.667 18 -114s28.833 -66 50.5 -92s48 -46.5 79 -61.5
s65.167 -22.5 102.5 -22.5c52 0 95.667 11.333 131 34s61.666 55 78.999 97c3.33301 8.66699 7.66602 15.5 12.999 20.5s12.333 7.5 21 7.5h14c9.33301 0 16.666 -2.5 21.999 -7.5s6.33301 -13.5 3 -25.5c-16.667 -56 -49.834 -101.833 -99.501 -137.5
s-110.834 -53.5 -183.501 -53.5c-48 0 -92 9 -132 27s-74.167 42.667 -102.5 74s-50.333 68.833 -66 112.5s-23.5 90.834 -23.5 141.501zM365.007 767.999c-4.66699 0 -8.16699 2 -10.5 6s-2.16602 8.33301 0.500977 13l81 126c3.33301 6 7.16602 10.667 11.499 14
s9.83301 5 16.5 5h39c6 0 9.83301 -2.33301 11.5 -7s0.166992 -10 -4.5 -16l-103 -124c-5.33301 -6 -10 -10.333 -14 -13s-9.33301 -4 -16 -4h-12z" />
    <glyph glyph-name="cacute" unicode="&#x107;" horiz-adv-x="511" 
d="M43 244c0 76.667 21.668 138.334 65.001 185.001s97 70 161 70c50 0 92 -12.667 126 -38s57.333 -58 70 -98c3.33301 -8.66699 3.66602 -16.834 0.999023 -24.501s-9.66699 -11.5 -21 -11.5h-14c-7.33301 0 -13.5 1.66699 -18.5 5s-9.16699 9.33301 -12.5 18
c-8.66699 26 -23.834 47.5 -45.501 64.5s-49.5 25.5 -83.5 25.5c-43.333 0 -80.333 -18.167 -111 -54.5s-46 -83.5 -46 -141.5s15.167 -105.167 45.5 -141.5s67.5 -54.5 111.5 -54.5c35.333 0 63.5 8.5 84.5 25.5s35.833 38.5 44.5 64.5c3.33301 8.66699 7.5 14.667 12.5 18
s11.167 5 18.5 5h14c11.333 0 18.333 -3.83301 21 -11.5s2.33398 -15.834 -0.999023 -24.501c-12.667 -40 -36 -72.667 -70 -98s-76 -38 -126 -38c-69.333 0 -124.333 23.333 -165 70s-61 108.334 -61 185.001zM260.001 568c-4.66699 0 -8.16699 2 -10.5 6
s-2.16602 8.33301 0.500977 13l81 126c3.33301 6 7.16602 10.667 11.499 14s9.83301 5 16.5 5h39c6 0 9.83301 -2.33301 11.5 -7s0.166992 -10 -4.5 -16l-103 -124c-5.33301 -6 -10 -10.333 -14 -13s-9.33301 -4 -16 -4h-12z" />
    <glyph glyph-name="Ccircumflex" unicode="&#x108;" horiz-adv-x="700" 
d="M47 344c0 50 7.83984 96.666 23.5068 139.999s37.834 80.833 66.501 112.5s63.167 56.667 103.5 75s84.833 27.5 133.5 27.5c72.667 0 133.5 -17.833 182.5 -53.5s81.833 -81.5 98.5 -137.5c3.33301 -12 2.16602 -20.5 -3.50098 -25.5s-12.834 -7.5 -21.501 -7.5h-14
c-9.33301 0 -16.5 2.5 -21.5 7.5s-9.5 11.833 -13.5 20.5c-16.667 42 -42.334 74.333 -77.001 97s-78 34 -130 34c-76 0 -137.167 -27.667 -183.5 -83s-69.5 -124.333 -69.5 -207c0 -40.667 6 -78.667 18 -114s28.833 -66 50.5 -92s48 -46.5 79 -61.5
s65.167 -22.5 102.5 -22.5c52 0 95.667 11.333 131 34s61.666 55 78.999 97c3.33301 8.66699 7.66602 15.5 12.999 20.5s12.333 7.5 21 7.5h14c9.33301 0 16.666 -2.5 21.999 -7.5s6.33301 -13.5 3 -25.5c-16.667 -56 -49.834 -101.833 -99.501 -137.5
s-110.834 -53.5 -183.501 -53.5c-48 0 -92 9 -132 27s-74.167 42.667 -102.5 74s-50.333 68.833 -66 112.5s-23.5 90.834 -23.5 141.501zM243.007 767.999c-6 0 -10.1689 2.5 -12.502 7.5s-1.16602 10.5 3.50098 16.5l95 122c4 5.33301 8.5 9.66602 13.5 12.999
s12.167 5 21.5 5h20c9.33301 0 16.5 -1.66699 21.5 -5s9.5 -7.66602 13.5 -12.999l95 -122c4.66699 -6 5.83398 -11.5 3.50098 -16.5s-6.5 -7.5 -12.5 -7.5h-18c-6.66699 0 -12.167 1.5 -16.5 4.5s-8.83301 7.5 -13.5 13.5l-83 103l-83 -103
c-4.66699 -6 -9.16699 -10.5 -13.5 -13.5s-9.83301 -4.5 -16.5 -4.5h-18z" />
    <glyph glyph-name="ccircumflex" unicode="&#x109;" horiz-adv-x="511" 
d="M43 244c0 76.667 21.668 138.334 65.001 185.001s97 70 161 70c50 0 92 -12.667 126 -38s57.333 -58 70 -98c3.33301 -8.66699 3.66602 -16.834 0.999023 -24.501s-9.66699 -11.5 -21 -11.5h-14c-7.33301 0 -13.5 1.66699 -18.5 5s-9.16699 9.33301 -12.5 18
c-8.66699 26 -23.834 47.5 -45.501 64.5s-49.5 25.5 -83.5 25.5c-43.333 0 -80.333 -18.167 -111 -54.5s-46 -83.5 -46 -141.5s15.167 -105.167 45.5 -141.5s67.5 -54.5 111.5 -54.5c35.333 0 63.5 8.5 84.5 25.5s35.833 38.5 44.5 64.5c3.33301 8.66699 7.5 14.667 12.5 18
s11.167 5 18.5 5h14c11.333 0 18.333 -3.83301 21 -11.5s2.33398 -15.834 -0.999023 -24.501c-12.667 -40 -36 -72.667 -70 -98s-76 -38 -126 -38c-69.333 0 -124.333 23.333 -165 70s-61 108.334 -61 185.001zM138.001 568c-6 0 -10.1689 2.5 -12.502 7.5
s-1.16602 10.5 3.50098 16.5l95 122c4 5.33301 8.5 9.66602 13.5 12.999s12.167 5 21.5 5h20c9.33301 0 16.5 -1.66699 21.5 -5s9.5 -7.66602 13.5 -12.999l95 -122c4.66699 -6 5.83398 -11.5 3.50098 -16.5s-6.5 -7.5 -12.5 -7.5h-18c-6.66699 0 -12.167 1.5 -16.5 4.5
s-8.83301 7.5 -13.5 13.5l-83 103l-83 -103c-4.66699 -6 -9.16699 -10.5 -13.5 -13.5s-9.83301 -4.5 -16.5 -4.5h-18z" />
    <glyph glyph-name="Cdotaccent" unicode="&#x10a;" horiz-adv-x="700" 
d="M47 344c0 50 7.83984 96.666 23.5068 139.999s37.834 80.833 66.501 112.5s63.167 56.667 103.5 75s84.833 27.5 133.5 27.5c72.667 0 133.5 -17.833 182.5 -53.5s81.833 -81.5 98.5 -137.5c3.33301 -12 2.16602 -20.5 -3.50098 -25.5s-12.834 -7.5 -21.501 -7.5h-14
c-9.33301 0 -16.5 2.5 -21.5 7.5s-9.5 11.833 -13.5 20.5c-16.667 42 -42.334 74.333 -77.001 97s-78 34 -130 34c-76 0 -137.167 -27.667 -183.5 -83s-69.5 -124.333 -69.5 -207c0 -40.667 6 -78.667 18 -114s28.833 -66 50.5 -92s48 -46.5 79 -61.5
s65.167 -22.5 102.5 -22.5c52 0 95.667 11.333 131 34s61.666 55 78.999 97c3.33301 8.66699 7.66602 15.5 12.999 20.5s12.333 7.5 21 7.5h14c9.33301 0 16.666 -2.5 21.999 -7.5s6.33301 -13.5 3 -25.5c-16.667 -56 -49.834 -101.833 -99.501 -137.5
s-110.834 -53.5 -183.501 -53.5c-48 0 -92 9 -132 27s-74.167 42.667 -102.5 74s-50.333 68.833 -66 112.5s-23.5 90.834 -23.5 141.501zM340.007 794.999v36c0 8.66699 2.16699 15.334 6.5 20.001s10.833 7 19.5 7h16c8.66699 0 15.167 -2.33301 19.5 -7
s6.5 -11.334 6.5 -20.001v-36c0 -8.66699 -2.16699 -15.334 -6.5 -20.001s-10.833 -7 -19.5 -7h-16c-8.66699 0 -15.167 2.33301 -19.5 7s-6.5 11.334 -6.5 20.001z" />
    <glyph glyph-name="cdotaccent" unicode="&#x10b;" horiz-adv-x="511" 
d="M43 244c0 76.667 21.668 138.334 65.001 185.001s97 70 161 70c50 0 92 -12.667 126 -38s57.333 -58 70 -98c3.33301 -8.66699 3.66602 -16.834 0.999023 -24.501s-9.66699 -11.5 -21 -11.5h-14c-7.33301 0 -13.5 1.66699 -18.5 5s-9.16699 9.33301 -12.5 18
c-8.66699 26 -23.834 47.5 -45.501 64.5s-49.5 25.5 -83.5 25.5c-43.333 0 -80.333 -18.167 -111 -54.5s-46 -83.5 -46 -141.5s15.167 -105.167 45.5 -141.5s67.5 -54.5 111.5 -54.5c35.333 0 63.5 8.5 84.5 25.5s35.833 38.5 44.5 64.5c3.33301 8.66699 7.5 14.667 12.5 18
s11.167 5 18.5 5h14c11.333 0 18.333 -3.83301 21 -11.5s2.33398 -15.834 -0.999023 -24.501c-12.667 -40 -36 -72.667 -70 -98s-76 -38 -126 -38c-69.333 0 -124.333 23.333 -165 70s-61 108.334 -61 185.001zM261.001 605c-8.66699 0 -15.167 2.33301 -19.5 7
s-6.5 11.334 -6.5 20.001v36c0 8.66699 2.16699 15.334 6.5 20.001s10.833 7 19.5 7h16c8.66699 0 15.167 -2.33301 19.5 -7s6.5 -11.334 6.5 -20.001v-36c0 -8.66699 -2.16699 -15.334 -6.5 -20.001s-10.833 -7 -19.5 -7h-16z" />
    <glyph glyph-name="Ccaron" unicode="&#x10c;" horiz-adv-x="700" 
d="M47 344c0 50 7.83984 96.666 23.5068 139.999s37.834 80.833 66.501 112.5s63.167 56.667 103.5 75s84.833 27.5 133.5 27.5c72.667 0 133.5 -17.833 182.5 -53.5s81.833 -81.5 98.5 -137.5c3.33301 -12 2.16602 -20.5 -3.50098 -25.5s-12.834 -7.5 -21.501 -7.5h-14
c-9.33301 0 -16.5 2.5 -21.5 7.5s-9.5 11.833 -13.5 20.5c-16.667 42 -42.334 74.333 -77.001 97s-78 34 -130 34c-76 0 -137.167 -27.667 -183.5 -83s-69.5 -124.333 -69.5 -207c0 -40.667 6 -78.667 18 -114s28.833 -66 50.5 -92s48 -46.5 79 -61.5
s65.167 -22.5 102.5 -22.5c52 0 95.667 11.333 131 34s61.666 55 78.999 97c3.33301 8.66699 7.66602 15.5 12.999 20.5s12.333 7.5 21 7.5h14c9.33301 0 16.666 -2.5 21.999 -7.5s6.33301 -13.5 3 -25.5c-16.667 -56 -49.834 -101.833 -99.501 -137.5
s-110.834 -53.5 -183.501 -53.5c-48 0 -92 9 -132 27s-74.167 42.667 -102.5 74s-50.333 68.833 -66 112.5s-23.5 90.834 -23.5 141.501zM364.007 767.999c-9.33301 0 -16.498 1.66699 -21.498 5s-9.5 7.66602 -13.5 12.999l-95 122c-4.66699 6 -5.83398 11.5 -3.50098 16.5
s6.5 7.5 12.5 7.5h18c6.66699 0 12.167 -1.5 16.5 -4.5s8.83301 -7.5 13.5 -13.5l83 -103l83 103c4.66699 6 9.16699 10.5 13.5 13.5s9.83301 4.5 16.5 4.5h18c6 0 10.167 -2.5 12.5 -7.5s1.16602 -10.5 -3.50098 -16.5l-95 -122c-4 -5.33301 -8.5 -9.66602 -13.5 -12.999
s-12.167 -5 -21.5 -5h-20z" />
    <glyph glyph-name="ccaron" unicode="&#x10d;" horiz-adv-x="511" 
d="M43 244c0 76.667 21.668 138.334 65.001 185.001s97 70 161 70c50 0 92 -12.667 126 -38s57.333 -58 70 -98c3.33301 -8.66699 3.66602 -16.834 0.999023 -24.501s-9.66699 -11.5 -21 -11.5h-14c-7.33301 0 -13.5 1.66699 -18.5 5s-9.16699 9.33301 -12.5 18
c-8.66699 26 -23.834 47.5 -45.501 64.5s-49.5 25.5 -83.5 25.5c-43.333 0 -80.333 -18.167 -111 -54.5s-46 -83.5 -46 -141.5s15.167 -105.167 45.5 -141.5s67.5 -54.5 111.5 -54.5c35.333 0 63.5 8.5 84.5 25.5s35.833 38.5 44.5 64.5c3.33301 8.66699 7.5 14.667 12.5 18
s11.167 5 18.5 5h14c11.333 0 18.333 -3.83301 21 -11.5s2.33398 -15.834 -0.999023 -24.501c-12.667 -40 -36 -72.667 -70 -98s-76 -38 -126 -38c-69.333 0 -124.333 23.333 -165 70s-61 108.334 -61 185.001zM259.001 568c-9.33301 0 -16.498 1.66699 -21.498 5
s-9.5 7.66602 -13.5 12.999l-95 122c-4.66699 6 -5.83398 11.5 -3.50098 16.5s6.5 7.5 12.5 7.5h18c6.66699 0 12.167 -1.5 16.5 -4.5s8.83301 -7.5 13.5 -13.5l83 -103l83 103c4.66699 6 9.16699 10.5 13.5 13.5s9.83301 4.5 16.5 4.5h18c6 0 10.167 -2.5 12.5 -7.5
s1.16602 -10.5 -3.50098 -16.5l-95 -122c-4 -5.33301 -8.5 -9.66602 -13.5 -12.999s-12.167 -5 -21.5 -5h-20z" />
    <glyph glyph-name="Dcaron" unicode="&#x10e;" horiz-adv-x="696" 
d="M91 28v632c0 8.66699 2.5 15.5 7.5 20.5s11.833 7.5 20.5 7.5h169c118.667 0 208.5 -32.333 269.5 -97s91.5 -147 91.5 -247s-30.5 -182.333 -91.5 -247s-150.833 -97 -269.5 -97h-169c-8.66699 0 -15.5 2.5 -20.5 7.5s-7.5 11.833 -7.5 20.5zM162 62h126
c50.667 0 94.167 7.5 130.5 22.5s66.166 35.167 89.499 60.5s40.333 55.333 51 90s16 71 16 109s-5.33301 74.333 -16 109s-27.667 64.667 -51 90s-53.166 45.5 -89.499 60.5s-79.833 22.5 -130.5 22.5h-126v-564zM308 768c-9.33301 0 -16.498 1.66699 -21.498 5
s-9.5 7.66602 -13.5 12.999l-95 122c-4.66699 6 -5.83398 11.5 -3.50098 16.5s6.5 7.5 12.5 7.5h18c6.66699 0 12.167 -1.5 16.5 -4.5s8.83301 -7.5 13.5 -13.5l83 -103l83 103c4.66699 6 9.16699 10.5 13.5 13.5s9.83301 4.5 16.5 4.5h18c6 0 10.167 -2.5 12.5 -7.5
s1.16602 -10.5 -3.50098 -16.5l-95 -122c-4 -5.33301 -8.5 -9.66602 -13.5 -12.999s-12.167 -5 -21.5 -5h-20z" />
    <glyph glyph-name="dcaron" unicode="&#x10f;" horiz-adv-x="576" 
d="M595 555c-4 0 -6.83203 1.16699 -8.49902 3.5s-1.83398 5.83301 -0.500977 10.5l23 83h-3c-8 0 -14.167 2.16699 -18.5 6.5s-6.5 10.5 -6.5 18.5v28c0 8.66699 2.16699 15.334 6.5 20.001s10.833 7 19.5 7h16c8.66699 0 15.167 -2.33301 19.5 -7s6.5 -11.334 6.5 -20.001
v-27c0 -8.66699 -0.666992 -16.167 -2 -22.5s-3.33301 -12.5 -6 -18.5l-24 -68c-0.666992 -4.66699 -2.16699 -8.16699 -4.5 -10.5s-5.83301 -3.5 -10.5 -3.5h-7zM43.001 240c0 78.667 21.5029 141.502 64.5029 188.502s94.5 70.5 154.5 70.5
c37.333 0 70.666 -8.33301 99.999 -25s51.333 -42.334 66 -77.001h3c-0.666992 13.333 -1.16699 29 -1.5 47l-1 52.5c-0.333008 17 -0.5 32.667 -0.5 47v30.5v130c0 8.66699 2.5 15.5 7.5 20.5s11.833 7.5 20.5 7.5h12c9.33301 0 16.333 -2.5 21 -7.5s7 -11.833 7 -20.5
v-677c0 -8.66699 -2.33301 -15.334 -7 -20.001s-11.334 -7 -20.001 -7h-11c-8.66699 -0 -15.334 2.33301 -20.001 7s-7 11.334 -7 20.001v64h-3c-15.333 -34.667 -38.5 -60.334 -69.5 -77.001s-65.167 -25 -102.5 -25c-60 0 -110.5 22.167 -151.5 66.5
s-61.5 105.833 -61.5 184.5zM114.004 240.002c0 -61.333 15.333 -108.667 46 -142s67.667 -50 111 -50c44 0 81.167 17.167 111.5 51.5s45.5 82.5 45.5 144.5s-15.167 110.167 -45.5 144.5s-67.5 51.5 -111.5 51.5c-43.333 0 -80.333 -18 -111 -54s-46 -84.667 -46 -146z
" />
    <glyph glyph-name="Dcroat" unicode="&#x110;" horiz-adv-x="696" 
d="M91 28v288.999h-65c-6.66699 0 -12 1.83301 -16 5.5s-6 8.83398 -6 15.501v15c0 6.66699 2 12 6 16s9.33301 6 16 6h65v285c0 8.66699 2.5 15.5 7.5 20.5s11.833 7.5 20.5 7.5h169c118.667 0 208.5 -32.333 269.5 -97s91.5 -147 91.5 -247s-30.5 -182.333 -91.5 -247
s-150.833 -97 -269.5 -97h-169c-8.66699 0 -15.5 2.5 -20.5 7.5s-7.5 11.833 -7.5 20.5zM162 61.999l126 0.000976562c50.667 0 94.167 7.5 130.5 22.5s66.166 35.167 89.499 60.5s40.333 55.333 51 90s16 71 16 109s-5.33301 74.333 -16 109s-27.667 64.667 -51 90
s-53.166 45.5 -89.499 60.5s-79.833 22.5 -130.5 22.5h-126v-251h139c7.33301 0 13 -2 17 -6s6 -9.33301 6 -16v-15c0 -6.66699 -2 -11.834 -6 -15.501s-9.66699 -5.5 -17 -5.5h-139v-255z" />
    <glyph glyph-name="dcroat" unicode="&#x111;" horiz-adv-x="576" 
d="M43 240c0 78.667 21.5029 141.502 64.5029 188.502s94.5 70.5 154.5 70.5c37.333 0 70.666 -8.33301 99.999 -25s51.333 -42.334 66 -77.001h3c-0.666992 13.333 -1.16699 29 -1.5 47l-1 52.5c-0.333008 17 -0.5 32.667 -0.5 47v30.5v25h-137
c-5.33301 0 -9.66602 1.5 -12.999 4.5s-5 7.5 -5 13.5v12c0 5.33301 1.66699 9.66602 5 12.999s7.66602 5 12.999 5h137v57c0 8.66699 2.5 15.5 7.5 20.5s11.833 7.5 20.5 7.5h12c9.33301 0 16.333 -2.5 21 -7.5s7 -11.833 7 -20.5v-57h61c6.66699 0 11.5 -1.66699 14.5 -5
s4.5 -7.66602 4.5 -12.999v-12c0 -6 -1.5 -10.5 -4.5 -13.5s-7.83301 -4.5 -14.5 -4.5h-61v-572c0 -8.66699 -2.33301 -15.334 -7 -20.001s-11.334 -7 -20.001 -7h-11c-8.66699 -0 -15.334 2.33301 -20.001 7s-7 11.334 -7 20.001v64h-3
c-15.333 -34.667 -38.5 -60.334 -69.5 -77.001s-65.167 -25 -102.5 -25c-60 0 -110.5 22.167 -151.5 66.5s-61.5 105.833 -61.5 184.5zM114.003 240.002c0 -61.333 15.333 -108.667 46 -142s67.667 -50 111 -50c44 0 81.167 17.167 111.5 51.5s45.5 82.5 45.5 144.5
s-15.167 110.167 -45.5 144.5s-67.5 51.5 -111.5 51.5c-43.333 0 -80.333 -18 -111 -54s-46 -84.667 -46 -146z" />
    <glyph glyph-name="Emacron" unicode="&#x112;" horiz-adv-x="595" 
d="M91 28v632c0 8.66699 2.5 15.5 7.5 20.5s11.833 7.5 20.5 7.5h402c8.66699 0 15.167 -2.16699 19.5 -6.5s6.5 -10.833 6.5 -19.5v-10c0 -8.66699 -2.16699 -15.167 -6.5 -19.5s-10.833 -6.5 -19.5 -6.5h-359v-244h283c8.66699 0 15.167 -2.16699 19.5 -6.5
s6.5 -10.833 6.5 -19.5v-10c0 -8.66699 -2.16699 -15.167 -6.5 -19.5s-10.833 -6.5 -19.5 -6.5h-283v-258h367c8.66699 0 15.167 -2.16699 19.5 -6.5s6.5 -10.833 6.5 -19.5v-10c0 -8.66699 -2.16699 -15.167 -6.5 -19.5s-10.833 -6.5 -19.5 -6.5h-410
c-8.66699 0 -15.5 2.5 -20.5 7.5s-7.5 11.833 -7.5 20.5zM180 796v12c0 6.66699 1.66699 11.834 5 15.501s8.33301 5.5 15 5.5h236c6.66699 0 11.667 -1.83301 15 -5.5s5 -8.83398 5 -15.501v-12c0 -6.66699 -1.66699 -11.667 -5 -15s-8.33301 -5 -15 -5h-236
c-6.66699 0 -11.667 1.66699 -15 5s-5 8.33301 -5 15z" />
    <glyph glyph-name="emacron" unicode="&#x113;" horiz-adv-x="519" 
d="M43 244c0 75.333 21.667 136.664 65 183.997s96.666 71 159.999 71c60.667 0 110.834 -20.5 150.501 -61.5s59.5 -97.833 59.5 -170.5c0 -9.33301 -2.33301 -16.333 -7 -21s-11.667 -7 -21 -7h-336c0.666992 -58 15.334 -104.333 44.001 -139s66.667 -52 114 -52
c32.667 0 59.834 7.33301 81.501 22s36.834 33.334 45.501 56.001c4 8.66699 8.16699 14.834 12.5 18.501s10.166 5.5 17.499 5.5h17c11.333 0 18.166 -3.5 20.499 -10.5s2.16602 -13.833 -0.500977 -20.5c-12.667 -38.667 -36.667 -70 -72 -94s-76 -36 -122 -36
c-73.333 0 -129.833 23.333 -169.5 70s-59.5 108.334 -59.5 185.001zM118 290.998h291.001c-3.33301 50 -17.833 87.333 -43.5 112s-58.167 37 -97.5 37c-38 0 -70.833 -13.333 -98.5 -40s-44.834 -63 -51.501 -109zM149.001 622.998c-6.66699 0 -11.667 1.66699 -15 5
s-5 8.33301 -5 15v12c0 6.66699 1.66699 11.834 5 15.501s8.33301 5.5 15 5.5h236c6.66699 0 11.667 -1.83301 15 -5.5s5 -8.83398 5 -15.501v-12c0 -6.66699 -1.66699 -11.667 -5 -15s-8.33301 -5 -15 -5h-236z" />
    <glyph glyph-name="Ebreve" unicode="&#x114;" horiz-adv-x="595" 
d="M91 28v632c0 8.66699 2.5 15.5 7.5 20.5s11.833 7.5 20.5 7.5h402c8.66699 0 15.167 -2.16699 19.5 -6.5s6.5 -10.833 6.5 -19.5v-10c0 -8.66699 -2.16699 -15.167 -6.5 -19.5s-10.833 -6.5 -19.5 -6.5h-359v-244h283c8.66699 0 15.167 -2.16699 19.5 -6.5
s6.5 -10.833 6.5 -19.5v-10c0 -8.66699 -2.16699 -15.167 -6.5 -19.5s-10.833 -6.5 -19.5 -6.5h-283v-258h367c8.66699 0 15.167 -2.16699 19.5 -6.5s6.5 -10.833 6.5 -19.5v-10c0 -8.66699 -2.16699 -15.167 -6.5 -19.5s-10.833 -6.5 -19.5 -6.5h-410
c-8.66699 0 -15.5 2.5 -20.5 7.5s-7.5 11.833 -7.5 20.5zM410 882c2 6.66699 4.50488 11.667 7.50488 15s7.83301 5 14.5 5h6c6 0 10.667 -1.83301 14 -5.5s4.33301 -8.83398 3 -15.501c-8.66699 -42 -26.334 -71.333 -53.001 -88s-54.334 -25 -83.001 -25
s-56.334 8.33301 -83.001 25s-44.334 46 -53.001 88c-1.33301 6.66699 -0.333008 11.834 3 15.501s8 5.5 14 5.5h7c6.66699 0 11.334 -1.66699 14.001 -5s5 -8.33301 7 -15c6.66699 -23.333 17.667 -40.666 33 -51.999s34.666 -17 57.999 -17s42.666 5.66699 57.999 17
s26.333 28.666 33 51.999z" />
    <glyph glyph-name="ebreve" unicode="&#x115;" horiz-adv-x="519" 
d="M43 244c0 75.333 21.667 136.664 65 183.997s96.666 71 159.999 71c60.667 0 110.834 -20.5 150.501 -61.5s59.5 -97.833 59.5 -170.5c0 -9.33301 -2.33301 -16.333 -7 -21s-11.667 -7 -21 -7h-336c0.666992 -58 15.334 -104.333 44.001 -139s66.667 -52 114 -52
c32.667 0 59.834 7.33301 81.501 22s36.834 33.334 45.501 56.001c4 8.66699 8.16699 14.834 12.5 18.501s10.166 5.5 17.499 5.5h17c11.333 0 18.166 -3.5 20.499 -10.5s2.16602 -13.833 -0.500977 -20.5c-12.667 -38.667 -36.667 -70 -72 -94s-76 -36 -122 -36
c-73.333 0 -129.833 23.333 -169.5 70s-59.5 108.334 -59.5 185.001zM118 290.998h291.001c-3.33301 50 -17.833 87.333 -43.5 112s-58.167 37 -97.5 37c-38 0 -70.833 -13.333 -98.5 -40s-44.834 -63 -51.501 -109zM268.001 583.998
c-28.667 0 -56.3291 8.33301 -82.9961 25s-44.334 46 -53.001 88c-1.33301 6.66699 -0.333008 11.834 3 15.501s8 5.5 14 5.5h7c6.66699 0 11.334 -1.66699 14.001 -5s5 -8.33301 7 -15c6.66699 -22.667 17.667 -39.834 33 -51.501s34.666 -17.5 57.999 -17.5
s42.666 5.83301 57.999 17.5s26.333 28.834 33 51.501c2 6.66699 4.5 11.667 7.5 15s7.83301 5 14.5 5h6c6 0 10.667 -1.83301 14 -5.5s4.33301 -8.83398 3 -15.501c-8.66699 -42 -26.334 -71.333 -53.001 -88s-54.334 -25 -83.001 -25z" />
    <glyph glyph-name="Edotaccent" unicode="&#x116;" horiz-adv-x="595" 
d="M91 28v632c0 8.66699 2.5 15.5 7.5 20.5s11.833 7.5 20.5 7.5h402c8.66699 0 15.167 -2.16699 19.5 -6.5s6.5 -10.833 6.5 -19.5v-10c0 -8.66699 -2.16699 -15.167 -6.5 -19.5s-10.833 -6.5 -19.5 -6.5h-359v-244h283c8.66699 0 15.167 -2.16699 19.5 -6.5
s6.5 -10.833 6.5 -19.5v-10c0 -8.66699 -2.16699 -15.167 -6.5 -19.5s-10.833 -6.5 -19.5 -6.5h-283v-258h367c8.66699 0 15.167 -2.16699 19.5 -6.5s6.5 -10.833 6.5 -19.5v-10c0 -8.66699 -2.16699 -15.167 -6.5 -19.5s-10.833 -6.5 -19.5 -6.5h-410
c-8.66699 0 -15.5 2.5 -20.5 7.5s-7.5 11.833 -7.5 20.5zM285 795v36c0 8.66699 2.16699 15.334 6.5 20.001s10.833 7 19.5 7h16c8.66699 0 15.167 -2.33301 19.5 -7s6.5 -11.334 6.5 -20.001v-36c0 -8.66699 -2.16699 -15.334 -6.5 -20.001s-10.833 -7 -19.5 -7h-16
c-8.66699 0 -15.167 2.33301 -19.5 7s-6.5 11.334 -6.5 20.001z" />
    </font>
</defs>
</svg>
