<?xml version="1.0" standalone="no"?>
<!DOCTYPE svg PUBLIC "-//W3C//DTD SVG 1.1//EN" "http://www.w3.org/Graphics/SVG/1.1/DTD/svg11.dtd" >
<svg xmlns="http://www.w3.org/2000/svg">
<metadata>
This is a custom SVG webfont generated by Font Squirrel.
Copyright   : Copyright 19901992 as an unpublished work by Bitstream Inc  All rights reserved  Confidential
</metadata>
<defs>
<font id="ShelleyItalic" horiz-adv-x="1894" >
<font-face units-per-em="2048" ascent="1638" descent="-410" />
<missing-glyph horiz-adv-x="775" />
<glyph unicode=" "  horiz-adv-x="775" />
<glyph unicode="&#x09;" horiz-adv-x="775" />
<glyph unicode="&#xa0;" horiz-adv-x="775" />
<glyph unicode="!" horiz-adv-x="999" d="M33 91q0 61 46.5 117.5t109.5 56.5q46 0 76.5 -31.5t30.5 -78.5q0 -61 -45.5 -117t-106.5 -56q-46 0 -78.5 31t-32.5 78zM285 413q0 22 11 48.5t30 58.5l708 1321l326 31l-947 -1395q-30 -46 -49.5 -70t-45.5 -24q-11 0 -22 7.5t-11 22.5z" />
<glyph unicode="&#x22;" horiz-adv-x="1230" d="M174 2531q0 174 144 174q141 0 141 -174q0 -19 -2 -40t-6 -43l-107 -838h-52l-111 838q-3 18 -5 39.5t-2 43.5zM773 2531q0 174 141 174q144 0 142 -174q0 -19 -1.5 -40t-5.5 -43l-109 -838h-54l-105 838q-4 18 -6 39.5t-2 43.5z" />
<glyph unicode="#" horiz-adv-x="2911" d="M239 914l57 146h625l196 562h-680l51 147h683l326 921h174l-322 -921h553l325 921h178l-326 -921h596l-50 -147h-597l-198 -562h643l-51 -146h-644l-324 -914h-178l322 914h-556l-322 -914h-174l322 914h-629zM1095 1060h557l196 562h-553z" />
<glyph unicode="$" horiz-adv-x="1332" d="M7 -209l163 311q-76 64 -112 129t-36 152q0 166 101 269t234 103q76 0 135 -50l163 311q-22 72 -35 132t-13 117q0 95 34 186.5t94.5 162.5t143.5 117.5t185 57.5l155 279l46 -26l-129 -253q61 -4 114.5 -17.5t105.5 -36.5l174 326l54 -22l-178 -333q94 -91 94 -217 q0 -137 -83 -229.5t-192 -92.5q-23 0 -44 7.5t-49 15.5l-174 -330q54 -137 54 -257q0 -91 -36 -184t-102.5 -173t-157.5 -136t-196 -77l-144 -268l-50 30l125 235q-116 0 -223 46l-171 -315zM83 390q0 -151 119 -238l177 333q-29 15 -45 39.5t-25 49.5t-20 43.5t-36 18.5 q-53 0 -111.5 -68t-58.5 -178zM250 130q105 -43 170 -43h28q14 0 37 4l314 595q-26 76 -52.5 140t-56.5 121l-155 -285q29 -53 29 -87q0 -50 -30.5 -83t-78.5 -33q-7 0 -12.5 1.5t-15.5 1.5zM557 102q268 83 268 422v40q0 22 -4 50zM788 1391q0 -15 4 -38t11 -65l220 418 q-109 -34 -172 -120t-63 -195zM821 1208q30 -80 57 -145.5t51 -126.5l159 289q-46 46 -46 90q0 50 30.5 81.5t76.5 31.5q15 0 44 -7l137 264q-102 43 -170 43q-15 0 -30.5 -2t-34.5 -6zM1240 1391q11 -94 72 -96q50 0 88.5 55.5t38.5 149.5q0 47 -13 82t-48 74z" />
<glyph unicode="%" horiz-adv-x="2120" d="M18 -196q0 22 32.5 58t90.5 88l1681 1652q-216 -113 -379 -113q-196 0 -300 95q-18 -148 -76.5 -273t-136 -214t-164.5 -140.5t-163 -51.5q-102 0 -172 77.5t-70 203.5q0 116 54.5 232t139.5 209t189.5 149.5t202.5 56.5q126 0 193 -116q22 -43 47 -75t57 -52.5t77.5 -30 t117.5 -9.5q126 0 228 45.5t183 100t138.5 100t87.5 45.5q26 0 27 -15q0 -33 -103 -137l-1747 -1780q-61 -64 -94 -96.5t-91 -32.5q-50 2 -50 24zM477 1106q0 -64 34.5 -102t87.5 -38q73 0 158 61t156 155t119 208t48 220q0 75 -34 115t-91 40q-113 0 -254 -178 q-113 -144 -168.5 -269t-55.5 -212zM1201 261q0 116 55.5 232.5t140.5 209.5t190.5 150t205.5 57q94 0 146.5 -59t52.5 -165q0 -122 -52.5 -247t-134 -227.5t-178.5 -166t-184 -63.5q-102 0 -172 76.5t-70 202.5zM1323 185q0 -65 34 -103.5t86 -38.5q76 0 161 61.5 t155.5 159t117.5 210t47 216.5q0 76 -33.5 115.5t-90.5 39.5q-105 0 -253 -183q-113 -140 -168.5 -267t-55.5 -210z" />
<glyph unicode="&#x26;" horiz-adv-x="2701" d="M83 -659q0 95 41.5 174.5t104.5 137.5t135.5 92.5t131.5 34.5q29 0 31 -11q0 -22 -45 -36t-106 -44q-232 -116 -232 -340q0 -163 132.5 -271t356.5 -108q231 0 456.5 113.5t396.5 317.5q260 318 260 664q0 79 -18.5 157t-53.5 165q-336 -405 -738 -405 q-242 0 -382.5 137.5t-140.5 357.5q0 278 223.5 470.5t682.5 340.5q-7 57 -15.5 109.5t-8.5 99.5q0 140 41.5 255.5t110 201t155.5 132.5t176 47q144 0 228 -81.5t84 -221.5q0 -202 -172 -334.5t-523 -263.5q50 -196 294 -744q202 265 363 479.5t297 364.5t258 231.5 t242 81.5q65 0 106.5 -47.5t41.5 -111.5q0 -62 -38 -99.5t-103 -37.5q-37 0 -63.5 19.5t-48.5 41.5l-43 40q-19 19 -44 21q-69 0 -154 -72.5t-199 -209t-258 -328t-329 -430.5q42 -87 68 -204.5t26 -276.5q0 -242 -87 -448.5t-235 -358t-345 -236.5t-417 -85 q-148 0 -267.5 39.5t-202.5 111.5t-128.5 165.5t-45.5 202.5zM622 409q0 -170 98 -273t231 -103q192 0 363.5 101t333.5 306q-98 224 -177.5 413t-132.5 355q-358 -144 -537 -350.5t-179 -448.5zM1349 1493q0 -46 7 -91l15 -98q337 109 500.5 230.5t163.5 313.5 q0 98 -70.5 164.5t-179.5 66.5q-79 0 -157 -43.5t-141 -123t-100.5 -186.5t-37.5 -233z" />
<glyph unicode="'" horiz-adv-x="632" d="M174 2488v43q0 174 140 174q145 0 145 -174q0 -19 -2 -40t-6 -43l-111 -838h-51l-111 838q-4 20 -4 40z" />
<glyph unicode="(" horiz-adv-x="1226" d="M181 253q0 511 334 1036.5t1000 1002.5q348 250 562.5 360t240.5 110q30 0 32 -22q0 -15 -45.5 -42t-131.5 -74t-207.5 -126.5t-267.5 -197.5q-322 -258 -572.5 -554t-420.5 -594.5t-259 -586t-89 -528.5q0 -163 31.5 -278.5t71.5 -192.5t72 -119.5t32 -60.5 q0 -26 -22 -26q-30 0 -111 113q-122 174 -186 372.5t-64 407.5z" />
<glyph unicode=")" horiz-adv-x="1226" d="M-925 -622q0 15 47 42t133 76t209 126.5t271 199.5q322 258 570 553t418.5 592.5t260 585.5t89.5 526q0 163 -32.5 278.5t-72 193.5t-72 121.5t-32.5 63.5q0 22 22 22q30 0 111 -112q122 -174 186 -374t64 -407q0 -511 -334 -1036.5t-1000 -1002.5q-348 -250 -562.5 -358 t-240.5 -108q-35 0 -35 18z" />
<glyph unicode="*" horiz-adv-x="1313" d="M738 2065q0 46 41.5 62.5t117.5 31.5l331 57l-281 189q-50 33 -77.5 61t-27.5 61t24 60t52 27q42 0 68 -28.5t63 -69.5l216 -253l26 333q8 83 23.5 124.5t63.5 41.5q43 0 68 -21t25 -62q0 -26 -12 -53t-23 -62l-113 -313l303 143q30 18 60.5 30t71.5 12q29 0 50.5 -25 t21.5 -61q0 -50 -42 -67t-117 -32l-330 -57l281 -190q54 -34 82 -62.5t28 -58.5q0 -33 -27 -60t-53 -27q-42 0 -68 28l-65 70l-215 254l-28 -333q-7 -83 -21.5 -125t-68.5 -42q-83 0 -83 87q0 26 9 53t20 56l115 319l-303 -147q-34 -18 -64.5 -30t-69.5 -12q-29 0 -50.5 24 t-21.5 67z" />
<glyph unicode="+" horiz-adv-x="3154" d="M470 1056v148h1034v1055h148v-1055h1034v-148h-1034v-1056h-148v1056h-1034z" />
<glyph unicode="," horiz-adv-x="771" d="M-181 -364q0 33 43.5 41.5t126.5 41.5q126 53 182.5 131t56.5 200q0 216 151 215q50 0 81.5 -30t31.5 -83q0 -87 -74 -193.5t-216 -208.5q-110 -76 -217 -108t-140 -32q-26 0 -26 26z" />
<glyph unicode="-" horiz-adv-x="1348" d="M213 466l79 167h883l-80 -167h-882z" />
<glyph unicode="." horiz-adv-x="771" d="M189 91q0 61 46 117.5t109 56.5q46 0 76.5 -31.5t30.5 -78.5q0 -61 -45 -117t-106 -56q-47 0 -79 31t-32 78z" />
<glyph unicode="/" horiz-adv-x="1121" d="M-30 -337l1190 2427h200l-1360 -2442z" />
<glyph unicode="0" horiz-adv-x="1541" d="M224 448q0 249 128.5 529.5t378.5 522.5q170 171 325.5 252t277.5 81t187.5 -90.5t65.5 -260.5q0 -189 -88.5 -439.5t-273.5 -511.5q-196 -278 -379.5 -413.5t-318.5 -135.5q-133 0 -218 124.5t-85 341.5zM416 261q0 -102 40 -158.5t93 -56.5q250 0 579 533 q186 303 270 563t84 423q0 213 -152 213q-98 0 -235 -108.5t-281 -324.5q-102 -159 -177.5 -318t-125 -303.5t-72.5 -264t-23 -198.5z" />
<glyph unicode="1" horiz-adv-x="1180" d="M181 784q0 26 150 130.5t424 350.5q307 278 446.5 423t165.5 145q30 0 32 -22q0 -46 -43 -129l-840 -1645l-311 -37l981 1572q-448 -412 -696 -613t-288 -201q-21 0 -21 26z" />
<glyph unicode="2" horiz-adv-x="1541" d="M-22 11q0 37 29.5 103.5t94 150t169.5 182.5t253 204q144 106 298.5 203t287.5 234q122 129 182 259.5t60 206.5q0 98 -68.5 161t-177.5 63q-113 0 -219 -46.5t-187.5 -120.5t-130.5 -166.5t-49 -182.5q0 -65 33 -106.5t83 -41.5q217 0 406 329q42 76 58.5 133.5 t48.5 57.5q26 0 26 -54q0 -91 -40 -190t-108.5 -180.5t-161 -136t-195.5 -54.5q-102 0 -160.5 62t-58.5 166q0 105 56.5 211.5t153.5 190t226 136t273 52.5q189 0 293.5 -103.5t104.5 -266.5q0 -178 -139 -349t-422 -315q-126 -65 -241.5 -116t-217 -107t-186 -126.5 t-143.5 -164.5q185 162 337 162q87 0 148 -47t79 -119q8 -26 9.5 -57.5t9 -55.5t23.5 -41.5t49 -17.5q98 0 292 227q65 76 98.5 123.5t53.5 47.5q15 0 15 -30t-30.5 -69.5t-88.5 -104.5q-129 -144 -232.5 -229t-237.5 -85q-75 0 -128 36t-71 93q-11 43 -13 80t-4 67.5 t-17.5 47t-56.5 16.5q-54 0 -128 -40t-150 -119q-75 -76 -107.5 -134t-54.5 -58q-26 0 -26 29z" />
<glyph unicode="3" horiz-adv-x="1541" d="M91 318q0 98 45 159t121 61q122 0 122 -133q0 -57 -28.5 -85t-61 -43.5t-60 -26.5t-27.5 -37q0 -50 63.5 -95.5t161.5 -45.5q243 0 470 292q87 113 131.5 209.5t44.5 160.5q0 156 -152 156q-46 0 -87.5 -15t-75.5 -31l-61 -32q-25 -13 -46 -13q-33 0 -33 32q0 22 26 40.5 t74 41.5t112 55.5t139 80.5q217 144 323.5 281t106.5 257q0 84 -61.5 129t-166.5 45q-91 0 -180.5 -34t-159 -88.5t-115.5 -123t-46 -137.5q0 -122 118 -120q65 0 157.5 56.5t164.5 167.5q26 37 38 69.5t17.5 51.5t11 30.5t20.5 11.5q18 0 18 -32q0 -90 -36 -171.5 t-94 -143.5t-134 -98t-152 -36q-87 0 -138 49t-51 136q0 83 51 170t136 157t201 113.5t242 43.5q159 0 253 -81t94 -215q0 -185 -162.5 -324.5t-499.5 -261.5h30q151 0 230.5 -79.5t79.5 -223.5q0 -110 -50.5 -216t-150.5 -201q-122 -116 -286 -182.5t-297 -66.5 q-181 0 -285.5 94t-104.5 242z" />
<glyph unicode="4" horiz-adv-x="1507" d="M80 344q0 19 66.5 108.5t182 259.5t271 432t332.5 625l333 31q-299 -459 -558 -786.5t-461 -565.5q43 11 77 18.5t64 7.5q83 0 173.5 -13t201.5 -34q296 448 454.5 673.5t200.5 225.5q26 0 26 -27q0 -30 -125 -238t-321 -637q72 7 125 34t91 53.5t62 47t40 20.5 q26 0 26 -26q0 -15 -34 -54.5t-110 -85.5q-109 -69 -228 -69h-18q-57 -102 -148 -329l-341 -33l247 375q-95 15 -174.5 24t-144.5 9q-68 0 -111.5 -11t-76 -25t-51 -25t-34.5 -11q-37 0 -37 26z" />
<glyph unicode="5" horiz-adv-x="1472" d="M57 292q0 113 51 183.5t138 70.5q54 0 88 -36t34 -97q0 -106 -87 -135q-42 -15 -71 -16t-29 -60q0 -54 57.5 -99.5t155.5 -45.5q109 0 228.5 72.5t230.5 210.5q105 137 158 277.5t53 239.5q0 90 -51 146.5t-138 56.5q-98 0 -172 -41.5t-128.5 -92.5t-90.5 -92.5 t-64 -41.5q-30 0 -30 29q0 37 26 80l585 947q109 -46 211.5 -70t204.5 -24q72 0 123 12t85 26.5t55.5 26t28.5 11.5q19 0 19 -26q0 -19 -36 -62.5t-106.5 -89.5t-170.5 -82t-225 -36q-134 0 -258 38l-342 -538q87 50 159 74t148 24q167 0 269.5 -101.5t102.5 -275.5 q0 -145 -76 -281.5t-197 -246.5t-274.5 -176t-312.5 -66q-167 0 -259.5 81.5t-92.5 225.5z" />
<glyph unicode="6" horiz-adv-x="1552" d="M224 440q0 217 101.5 441.5t310.5 452.5q228 246 459 371t442 125q65 0 122.5 -20.5t99 -56.5t65.5 -81.5t24 -95.5q0 -83 -51 -140.5t-115 -57.5q-50 0 -81.5 32.5t-31.5 75.5q0 37 14.5 67.5t34 51.5t34.5 36t15 30q0 33 -34.5 63.5t-102.5 30.5q-91 0 -206.5 -53 t-240.5 -163t-251.5 -274.5t-241.5 -384.5q217 264 411 266q129 0 209.5 -91.5t80.5 -261.5q0 -152 -62 -297t-184 -267q-122 -126 -256 -191.5t-247 -65.5q-144 0 -231 121t-87 337zM401 224q0 -178 134 -178q90 0 193 81.5t188 206.5t141.5 278.5t56.5 297.5 q0 178 -134 178q-83 0 -183 -78t-198 -229q-101 -163 -149.5 -311t-48.5 -246z" />
<glyph unicode="7" horiz-adv-x="1439" d="M209 -18q170 344 470.5 709t711.5 802q-72 -33 -133 -52.5t-118 -19.5q-65 0 -127 26.5t-116.5 58t-104.5 58.5t-91 27q-61 0 -97 -58.5t-80 -148.5q-76 -148 -145 -148q-50 0 -50 48q0 42 59.5 110.5t138.5 181.5q91 133 127 195t80 62h21q11 0 11 -29l-20 -39l-60 -113 q152 98 246 98q50 0 99 -26t96.5 -58t94.5 -59t93 -27q69 0 116 32.5t81.5 72t62 72t59.5 32.5q42 0 40 -50q0 -19 -87 -123.5t-242 -314t-365 -530t-453 -771.5z" />
<glyph unicode="8" horiz-adv-x="1541" d="M144 337q0 185 157.5 327.5t479.5 286.5q-65 105 -103 193t-38 182q0 102 49 194.5t128.5 163t186 110t221.5 39.5q166 0 256.5 -87t90.5 -231q0 -148 -130 -282t-389 -228q75 -117 118.5 -216t43.5 -199q0 -122 -56 -231t-148.5 -194t-216.5 -134t-256 -49 q-177 0 -285.5 99.5t-108.5 255.5zM278 333q0 -133 79.5 -214.5t206.5 -81.5q84 0 159.5 32.5t135 88t92.5 129.5t33 161q0 201 -174 453q-264 -113 -398 -261t-134 -307zM879 1443q0 -87 36 -179.5t104 -210.5q209 75 316.5 205t107.5 279q0 109 -60 177t-168 68 q-64 0 -124.5 -27t-107.5 -74t-75.5 -108.5t-28.5 -129.5z" />
<glyph unicode="9" horiz-adv-x="1552" d="M-54 285q0 83 45.5 139.5t110.5 56.5q53 0 91 -40t38 -104q0 -47 -14.5 -76.5t-36 -52.5t-36 -39.5t-14.5 -31.5q0 -43 41.5 -67t117.5 -24q105 0 228 58.5t246 176t237 289.5t193 396q-213 -272 -405 -272q-129 0 -208.5 94t-79.5 276q0 122 59 260.5t168 259.5 q122 129 254.5 193t254.5 64q140 0 229 -121.5t89 -328.5q0 -105 -25 -223.5t-70.5 -238t-114 -237t-154.5 -218.5q-206 -239 -440 -364t-428 -125q-170 0 -273 91.5t-103 208.5zM670 944q0 -87 34 -134.5t84 -47.5q202 0 398 307q98 152 141.5 293.5t43.5 239.5 q0 178 -128 180q-94 0 -196.5 -80t-186 -202t-137 -269t-53.5 -287z" />
<glyph unicode=":" horiz-adv-x="858" d="M68 91q0 61 45.5 117.5t110.5 56.5q46 0 75.5 -31.5t29.5 -78.5q0 -61 -45 -117t-106 -56q-47 0 -78.5 31t-31.5 78zM507 838q0 61 46 117.5t109 56.5q47 0 77.5 -32.5t30.5 -78.5q0 -61 -47.5 -117.5t-108.5 -56.5q-46 0 -76.5 32.5t-30.5 78.5z" />
<glyph unicode=";" horiz-adv-x="858" d="M-337 -364q0 33 43.5 41.5t127.5 41.5q125 53 181.5 129t56.5 198q0 217 152 215q50 0 83 -28t33 -81q0 -87 -75.5 -193.5t-218.5 -208.5q-109 -76 -213.5 -108t-139.5 -32q-30 0 -30 26zM507 838q0 61 46 117.5t109 56.5q47 0 77.5 -32.5t30.5 -78.5q0 -61 -47.5 -117.5 t-108.5 -56.5q-46 0 -76.5 32.5t-30.5 78.5z" />
<glyph unicode="&#x37e;" horiz-adv-x="858" d="M-337 -364q0 33 43.5 41.5t127.5 41.5q125 53 181.5 129t56.5 198q0 217 152 215q50 0 83 -28t33 -81q0 -87 -75.5 -193.5t-218.5 -208.5q-109 -76 -213.5 -108t-139.5 -32q-30 0 -30 26zM507 838q0 61 46 117.5t109 56.5q47 0 77.5 -32.5t30.5 -78.5q0 -61 -47.5 -117.5 t-108.5 -56.5q-46 0 -76.5 32.5t-30.5 78.5z" />
<glyph unicode="&#x3c;" horiz-adv-x="3154" d="M488 1073v113l2180 893v-166l-1934 -785l1934 -784v-163z" />
<glyph unicode="=" horiz-adv-x="3154" d="M470 720v148h2216v-148h-2216zM470 1391v146h2216v-146h-2216z" />
<glyph unicode="&#x3e;" horiz-adv-x="3154" d="M488 181v163l1934 784l-1934 785v166l2180 -893v-113z" />
<glyph unicode="?" horiz-adv-x="1233" d="M68 91q0 61 45.5 117.5t110.5 56.5q46 0 75.5 -31.5t29.5 -78.5q0 -61 -45 -117t-106 -56q-47 0 -78.5 31t-31.5 78zM300 409q0 22 70 146t240 302q102 105 208.5 198.5t195.5 189.5t145 202.5t56 237.5q0 65 -45 105t-136 40q-76 0 -146 -30.5t-123 -70.5t-85 -81.5 t-32 -63.5q0 -19 23 -30t47 -28.5t47 -42.5t23 -70q0 -57 -38 -93t-88 -36q-57 0 -96 45.5t-39 117.5q0 83 43.5 160.5t115.5 140.5t166.5 101t192.5 38q159 0 256.5 -99t97.5 -269q0 -141 -67 -244.5t-204 -201.5q-57 -43 -122.5 -80.5t-137.5 -81t-146 -94.5t-143 -120 q-68 -68 -110 -124.5t-67.5 -101t-43.5 -68.5t-36 -24q-22 0 -22 30z" />
<glyph unicode="@" horiz-adv-x="3735" d="M278 993q0 380 156 701.5t463 579.5q489 408 1164 408q318 0 578 -90.5t443 -255t282 -397.5t99 -522q0 -292 -108 -547.5t-301 -432.5q-224 -206 -466 -206q-357 0 -379 405q-220 -401 -587 -401q-212 0 -347 168.5t-135 445.5q0 193 87.5 391.5t254.5 361.5 q126 126 267.5 190.5t274.5 64.5q155 0 258.5 -95t146.5 -276l105 340h224l-310 -1117q-15 -54 -26 -101t-11 -101q0 -98 50.5 -151t141.5 -53q79 0 189.5 49t219.5 151q174 163 276.5 404.5t102.5 513.5q0 268 -92.5 488t-265.5 375.5t-415.5 240.5t-541.5 85 q-326 0 -606 -106t-501 -310q-510 -477 -510 -1262q0 -318 100 -553t331 -433q216 -188 491 -287t597 -99t611.5 97t540.5 289l48 -55q-542 -405 -1200 -407q-348 0 -628.5 82t-507.5 260q-281 217 -422.5 510t-141.5 657zM1352 705q0 -193 83.5 -295.5t220.5 -102.5 q250 0 470 333q112 178 173.5 375t61.5 360q0 181 -101 301t-244 120q-109 0 -195 -61t-173 -185q-148 -220 -222 -449.5t-74 -395.5z" />
<glyph unicode="A" horiz-adv-x="3322" d="M126 401q0 123 58 196t145 73q65 0 114 -47.5t49 -115.5q0 -69 -30.5 -102t-67.5 -50.5t-67.5 -30.5t-30.5 -39q0 -43 30.5 -82.5t85 -72t128.5 -53t161 -20.5q474 0 944 459q-272 206 -407 419.5t-135 427.5q0 137 49 251t136 199t202.5 132t248.5 47 q257 0 461.5 -139.5t330.5 -405.5q311 344 578 583.5t471.5 383t340.5 208t182 64.5q23 0 23 -11q0 -15 -38 -63t-110.5 -137t-170.5 -224.5t-220 -330.5q-205 -325 -410.5 -732t-425.5 -903q163 15 275 60t184 96t110 91t56 40q8 0 8 -15q0 -72 -195 -189 q-212 -129 -460 -140l-58 -130q-18 -46 -37.5 -70t-56.5 -28l-179 -18h-26q-30 0 -30 25q0 11 19 61l72 174q-379 34 -735 239q-272 -246 -522.5 -369t-500.5 -123q-126 0 -226.5 32.5t-172 88.5t-111 130t-39.5 161zM1258 1291q0 -242 121 -423.5t310 -314.5 q220 189 415.5 403.5t385.5 445.5q-98 239 -269 364t-388 125q-125 0 -230.5 -45.5t-181.5 -125t-119.5 -189.5t-43.5 -240zM1739 524q189 -110 365.5 -167t346.5 -72q69 144 99.5 305t30.5 342q0 110 -19.5 210.5t-52.5 202.5q-189 -217 -373 -425t-397 -396zM2557 1399 q79 -285 79 -524q0 -141 -22 -279q278 579 609 1073t762 919q-217 -94 -403.5 -227.5t-360.5 -290.5t-337.5 -327.5t-326.5 -343.5z" />
<glyph unicode="B" horiz-adv-x="3540" d="M159 318q0 83 51 138t123 55q68 0 119 -51t51 -120q0 -64 -36 -94t-36 -57q0 -54 70.5 -94.5t199.5 -40.5q193 0 348 87t299.5 249.5t289 397.5t310.5 531q102 178 210 344.5t235 316t278.5 287.5t340.5 260q-137 69 -292.5 99.5t-344.5 30.5q-383 0 -729.5 -108.5 t-611.5 -306.5q-140 -102 -245.5 -215.5t-176 -229t-106.5 -225t-36 -205.5q0 -137 83 -220t231 -83q117 0 259.5 63t290.5 182t286 291t252 389q50 90 76 166t42.5 128t30.5 79.5t33 27.5q7 0 14.5 -13t7.5 -39q0 -64 -49 -250t-179 -429q-189 -351 -458 -531.5 t-545 -180.5q-209 0 -326.5 106.5t-117.5 291.5q0 94 34.5 208t103 229.5t168.5 233t233 219.5q296 231 668.5 356t802.5 125q360 0 691 -132q171 91 228 91q18 0 18 -11q0 -26 -45 -43.5t-128 -71.5q318 -201 318 -514q0 -205 -143.5 -362.5t-424.5 -244.5 q459 -170 459 -575q0 -181 -89 -350.5t-261 -300.5q-141 -110 -299 -165t-302 -55q-213 0 -332.5 110t-119.5 287q0 117 51 225t119.5 189.5t135 128.5t99.5 47q23 0 25 -11q0 -18 -36.5 -45t-89.5 -68q-113 -90 -176 -207.5t-63 -236.5q0 -151 89 -243.5t248 -92.5 q144 0 274.5 72t231.5 195t161 282t60 333q0 98 -28 177.5t-71.5 137t-95 87t-99.5 29.5q-65 0 -130 -27.5t-129 -27.5q-95 0 -95 68q0 30 23.5 55t71.5 25q42 0 85.5 -8.5t89.5 -8.5q98 0 189 55.5t163 142.5t113.5 201t41.5 234q0 253 -166 398q-144 -102 -261.5 -252 t-231.5 -340.5t-239 -414.5t-276 -470q-315 -503 -686 -761t-728 -258q-231 0 -361.5 98t-130.5 231z" />
<glyph unicode="C" horiz-adv-x="2199" d="M7 1132q0 26 139 53t411 91q50 84 119.5 188.5t162.5 218t218 235t284 241.5q196 148 387.5 254.5t366.5 175t320 102.5t249 34q130 0 204.5 -63t74.5 -153q0 -607 -2053 -1210q-98 -202 -143.5 -409t-45.5 -379q0 -228 104.5 -346.5t300.5 -118.5q152 0 311 64t303 186 q167 144 252 305t85 281q0 110 -58 182t-158 72q-80 0 -163 -40t-164.5 -113t-153.5 -179.5t-128 -239.5q-61 -144 -75 -233t-43 -89q-26 0 -26 65q0 193 56.5 362t151.5 296t222 199t264 72q155 0 242 -93.5t87 -252.5q0 -137 -87 -305.5t-266 -323.5q-160 -141 -345 -210 t-379 -69q-281 0 -445.5 181t-164.5 488q0 145 30.5 283.5t87.5 280.5q-205 -46 -328 -73.5t-168 -27.5q-39 0 -39 18zM914 1367q492 137 861 285t617 293t372 284t124 265q0 87 -57.5 134t-166.5 47q-83 0 -212.5 -32.5t-282.5 -99t-320 -168t-326 -242.5 q-193 -170 -346.5 -359.5t-262.5 -406.5z" />
<glyph unicode="D" horiz-adv-x="3315" d="M390 117q0 83 178 85q98 0 191.5 -16t175 -32.5t150 -32.5t123.5 -16q303 0 672 600q116 189 228 399.5t244.5 426t298 428.5t392.5 409q-159 133 -373.5 205.5t-453.5 72.5q-344 0 -636 -133.5t-507 -390.5q-174 -213 -260 -432t-86 -391q0 -156 85 -241t241 -85 q177 0 355.5 91.5t321 262t231.5 416.5t89 553q0 76 22 76q26 0 28 -72q0 -330 -93.5 -588t-243.5 -437.5t-340.5 -272t-388.5 -92.5q-227 0 -363 147t-136 397q0 209 99.5 413.5t301.5 387.5q246 220 558.5 336.5t668.5 116.5q285 0 516 -74t412 -216q182 129 299.5 189.5 t167.5 60.5q14 0 14 -8q0 -18 -32 -37.5t-87 -54t-125 -87t-150 -135.5q137 -178 203.5 -365.5t66.5 -408.5q0 -314 -138.5 -608t-399.5 -527q-239 -213 -557 -325t-708 -112q-126 0 -233.5 5.5t-196.5 5.5q-72 0 -159 -14.5t-192 -14.5q-239 0 -356.5 29.5t-117.5 105.5z M1395 94q76 -7 145.5 -10.5t137.5 -3.5q599 0 1016 264q162 102 291 242.5t220.5 299.5t140.5 334t49 349q0 216 -68.5 401t-200.5 330q-125 -148 -228 -316.5t-197 -344.5t-190.5 -360t-214.5 -358q-217 -325 -449 -532.5t-452 -294.5z" />
<glyph unicode="E" d="M163 549q0 156 72 311.5t211.5 291.5t343 242t464.5 164q-87 64 -132 144t-45 163q0 348 366 620q163 122 324 181t294 59q189 0 297 -101t108 -282q0 -116 -47 -221t-126.5 -182.5t-178 -123.5t-201.5 -46q-106 0 -176 64.5t-70 173.5q0 91 49 171.5t113.5 138.5 t129.5 90.5t95 32.5q22 0 22 -11q0 -15 -51 -49t-109.5 -89.5t-110 -133.5t-51.5 -179q0 -76 47 -119.5t119 -43.5q80 0 168 43.5t159 115.5t119 166.5t48 197.5q0 160 -88 245t-243 85q-133 0 -276.5 -81.5t-283.5 -240.5q-137 -159 -204.5 -322t-67.5 -270 q0 -83 34 -126.5t75 -43.5h87q209 0 209 -73q0 -18 -30.5 -35.5t-82.5 -17.5q-83 0 -138.5 23t-89.5 23q-53 0 -169 -34t-241 -114q-109 -68 -196 -164.5t-148 -208.5t-95.5 -235t-34.5 -241q0 -213 117.5 -338.5t319.5 -125.5q299 0 603 294q140 137 207.5 279t67.5 263 q0 113 -62 185t-161 72q-113 0 -274 -130.5t-291 -387.5q-42 -83 -62.5 -153.5t-31.5 -119.5t-18.5 -76t-24.5 -27q-18 0 -18 69q0 189 61 354.5t155.5 286.5t213.5 190.5t241 69.5q160 0 248.5 -91t88.5 -235q0 -253 -257 -542q-163 -181 -354.5 -271.5t-396.5 -90.5 q-144 0 -261.5 41.5t-203 115.5t-130.5 179.5t-45 230.5z" />
<glyph unicode="F" horiz-adv-x="2765" d="M364 348q0 83 49 135t122 52q64 0 107.5 -43.5t43.5 -115.5q0 -54 -25 -99.5t-25 -74.5q0 -58 78 -111.5t211 -53.5q644 0 1197 1145q-178 -57 -299 -133t-197 -143.5t-119.5 -115.5t-67.5 -48q-15 0 -15 13q0 15 43.5 71t134.5 130t228 154t325 144q170 300 336 513.5 t302 350.5t236.5 201t137.5 64h11q4 0 4 -4q0 -11 -54.5 -58t-149 -166.5t-224 -324t-281.5 -531.5q152 22 269.5 64.5t201 84t135 72t70.5 30.5q26 0 26 -20q0 -11 -30.5 -45.5t-85.5 -102t-127 -175.5t-151 -267q-30 -65 -45.5 -103t-53.5 -60q-64 -43 -134.5 -68.5 t-88.5 -25.5q-19 0 -19 37q0 29 114 211.5t367 443.5q-122 -54 -239.5 -85.5t-237.5 -49.5q-170 -315 -361.5 -550t-390.5 -392t-401.5 -236.5t-400.5 -79.5q-242 0 -384 105t-142 261zM531 1447q0 272 199 522.5t582 428.5q188 87 383.5 140.5t401.5 80.5t424.5 34t453.5 7 h477q307 0 456 24t173 24q54 0 52 -29q0 -19 -49 -57t-141.5 -75.5t-224 -64.5t-294.5 -27q-133 0 -276.5 13t-297 27t-316 26.5t-336.5 12.5q-341 0 -648 -98t-538 -270q-209 -159 -315.5 -338.5t-106.5 -349.5q0 -140 86 -223.5t229 -83.5q116 0 261.5 54.5t294.5 161 t293 263.5t266 357q76 133 100 200t46 67q15 0 17 -36q0 -29 -43.5 -161.5t-154.5 -330.5q-91 -159 -212 -283.5t-258 -210t-273 -130.5t-252 -45q-220 0 -339.5 105.5t-119.5 264.5z" />
<glyph unicode="G" horiz-adv-x="2181" d="M235 1156q0 37 130.5 58.5t404.5 89.5q29 185 157.5 382t345.5 382q174 152 372.5 267.5t390 195t360 121.5t283.5 42q303 0 303 -213q0 -257 -481 -564t-1424 -591q-50 -136 -50 -281q0 -129 61 -195t148 -66q166 0 361.5 114t441.5 338q166 152 247.5 244t124.5 92 q25 0 25 -14q0 -43 -66.5 -155t-156.5 -326q-117 -278 -270.5 -482.5t-326.5 -341t-362.5 -204t-378.5 -67.5q-122 0 -218 30.5t-164.5 81t-104.5 121t-36 146.5q0 101 59 163t138 62q69 0 114.5 -43t45.5 -106q0 -37 -17 -67t-36.5 -55.5t-36 -50.5t-16.5 -51 q0 -76 74 -128t205 -52q152 0 284.5 66.5t258 197t250.5 326t262 454.5q-217 -182 -404.5 -271.5t-342.5 -89.5q-193 0 -308.5 130.5t-115.5 350.5v46q-452 -102 -501 -103q-30 1 -30 16zM1092 1391q455 133 795 274.5t569.5 281.5t343.5 273t114 246q0 68 -65 111.5 t-181 43.5q-159 0 -413.5 -99.5t-537.5 -316.5q-224 -166 -375.5 -359.5t-249.5 -454.5z" />
<glyph unicode="H" horiz-adv-x="3287" d="M326 231q0 250 363.5 472t1103.5 446q162 300 336 546t356 468q-182 -91 -312.5 -147.5t-231.5 -56.5q-265 0 -267 315q0 53 9.5 102t9.5 90q0 109 -56 111q-101 0 -268.5 -121t-371.5 -373q-133 -166 -184 -251.5t-79 -85.5q-11 0 -11 19q0 33 83.5 159t262.5 318 q206 224 371.5 330.5t279.5 106.5q110 0 169 -72.5t59 -208.5q0 -65 -8.5 -123.5t-8.5 -115.5q0 -120 90 -120h3q79 0 244 74t400 233q216 148 341 244t184 96q61 0 61 -50q0 -42 -49 -70t-125 -60.5t-166.5 -81.5t-177.5 -136q-129 -129 -261.5 -390t-315.5 -644 q185 54 350.5 105t313.5 104q228 311 452.5 536t423.5 369t358 214.5t259 70.5q106 0 160.5 -53.5t54.5 -148.5q0 -126 -94.5 -256t-276.5 -257t-447 -242.5t-603 -213.5q-254 -459 -375 -770t-121 -477q0 -163 111 -163q133 0 435 318q65 69 95.5 108.5t48.5 39.5 q22 0 22 -18q0 -22 -54.5 -87t-165.5 -176q-261 -268 -435 -268q-109 0 -183 108t-74 290q0 397 359 1004q-152 -57 -309 -104t-327 -94q-170 -303 -365.5 -529.5t-394.5 -378.5t-390 -227.5t-354 -75.5q-145 0 -226 70t-81 179zM470 296q0 -98 76 -166.5t196 -68.5 q242 0 513 251.5t510 767.5q-629 -192 -962 -376t-333 -408zM3149 1550q662 202 990.5 441.5t328.5 448.5q0 156 -148 156q-182 0 -490.5 -253.5t-680.5 -792.5z" />
<glyph unicode="I" horiz-adv-x="2105" d="M246 292q0 84 45.5 134.5t124.5 50.5q61 0 99 -39.5t38 -111.5q0 -50 -23 -87t-23 -58q0 -57 63 -102.5t172 -45.5q618 0 1138 1186q-202 26 -317.5 152t-115.5 307q0 272 263.5 499.5t783.5 371.5q250 69 448.5 97.5t322.5 28.5q50 0 50 -18q0 -26 -70 -42t-180 -81 q-155 -90 -270.5 -217t-212.5 -286t-188 -346.5t-200 -400.5q122 26 206.5 76t141.5 99t91.5 85t52.5 36q11 0 11 -19q0 -33 -58 -94t-173 -133q-155 -98 -311 -115q-325 -621 -700 -929t-743 -308q-220 0 -343 90.5t-123 219.5zM1602 1613q0 -140 79.5 -234.5t220.5 -105.5 q264 496 567.5 829.5t632.5 504.5q-364 -30 -643.5 -123.5t-469 -229.5t-288.5 -301.5t-99 -339.5z" />
<glyph unicode="J" horiz-adv-x="1825" d="M-853 -993q0 268 417.5 479t1234.5 438q156 272 309.5 566t315.5 602q-209 14 -321.5 130t-112.5 297q0 285 234 534.5t707 436.5q171 69 327 109.5t281 67.5t210 36t115 9q65 0 65 -18q0 -19 -30.5 -33.5t-85.5 -45.5t-127 -80.5t-152 -129.5q-177 -181 -359.5 -490 t-402.5 -751q126 29 213 82t148 106.5t93.5 91.5t50.5 38q11 0 11 -19q0 -64 -177 -201q-170 -130 -379 -170q-141 -261 -291 -528.5t-320 -552.5q196 80 327.5 173.5t213 170t121 130t58.5 53.5q22 0 24 -18q0 -15 -50 -79.5t-148 -154.5t-248 -184.5t-350 -169.5 q-212 -308 -427 -535.5t-417.5 -376t-387.5 -222.5t-344 -74q-163 0 -254.5 80t-91.5 203zM-697 -1001q0 -98 66.5 -154.5t186.5 -56.5q133 0 286.5 64t312.5 197t316.5 334t298.5 473q-739 -196 -1103 -407t-364 -450zM1182 1500q0 -159 72 -249.5t209 -101.5 q344 599 670 974t659 534q-391 -50 -691.5 -164t-505 -271t-309 -343t-104.5 -379z" />
<glyph unicode="K" horiz-adv-x="3359" d="M144 292q0 69 51 119.5t119 50.5q65 0 108.5 -45t43.5 -110q0 -54 -26.5 -90t-26.5 -62q0 -37 59 -77.5t168 -40.5q106 0 221.5 48t227.5 135t214.5 210t185.5 271q95 170 197.5 361.5t231 396t287.5 414.5t368 423q-192 -109 -332.5 -172t-240.5 -63q-122 0 -195 77.5 t-73 196.5q0 50 1.5 79.5t1.5 47.5q0 102 -90 102q-87 0 -256.5 -130.5t-372.5 -417.5q-110 -155 -146 -234.5t-63 -79.5q-11 0 -11 15q0 42 70 168t218 313q196 246 380 361.5t308 115.5q106 0 165 -72t59 -205q0 -19 -2 -37.5t-2 -38.5q0 -87 25 -127t90 -40 q72 0 233 68.5t396 212.5q159 98 248 168.5t135 70.5q54 0 52 -35q0 -57 -66.5 -85t-175.5 -78q-110 -50 -216 -150t-204 -259q-69 -109 -133.5 -244t-138.5 -290.5t-165 -323.5t-211 -346q-300 -444 -625.5 -663t-636.5 -219q-212 0 -333.5 88.5t-121.5 221.5zM2163 1280 q0 50 50 50t112 8q76 11 192 70t241 176q76 68 150 155t155.5 182t170.5 193.5t198 188.5q216 182 417 269.5t360 87.5t254 -79.5t95 -190.5q0 -68 -47 -117t-115 -49q-50 0 -88 38t-38 91q0 37 25 78.5t25 80.5q0 34 -40 62.5t-105 28.5q-98 0 -193 -49t-197 -142.5 t-217.5 -224t-255.5 -289.5q-95 -105 -192 -198.5t-209 -169.5t-242.5 -134t-293.5 -97q193 -65 293.5 -204.5t100.5 -336.5q0 -136 -32 -277t-32 -268q0 -141 107 -141q65 0 166.5 79.5t253.5 238.5q65 72 97 110t51 38q18 0 18 -18q0 -37 -181 -224q-144 -148 -248.5 -224 t-184.5 -76q-57 0 -113.5 34.5t-100 96.5t-70.5 149.5t-27 189.5q0 137 34.5 260t34.5 240q0 129 -65.5 201.5t-176.5 72.5q-26 0 -44 -2t-32 -2h-5q-56 0 -56 44z" />
<glyph unicode="L" horiz-adv-x="2821" d="M137 235q0 102 96 166.5t287 64.5q170 0 344 -39.5t379 -97.5q220 152 622 983q-492 -130 -570 -130q-43 0 -41 11q0 15 40 29t119 32l198 47q121 27 283 74q185 336 382 585t379.5 411.5t336 242.5t251.5 80q94 0 149.5 -53t55.5 -151t-77.5 -240.5t-235 -296 t-388.5 -301.5t-538 -253q-170 -333 -367 -610.5t-471 -492.5q227 -87 413 -123t323 -36q181 0 331 79.5t309 238.5q54 54 83.5 87t61.5 33q7 0 7 -11q0 -18 -38 -67t-114 -121q-216 -202 -409.5 -298t-352.5 -96q-137 0 -327.5 54.5t-445.5 148.5q-167 -94 -318.5 -145 t-318.5 -51q-205 0 -321.5 68.5t-116.5 177.5zM216 228q0 -76 100 -133.5t263 -57.5q281 0 531 187q-181 65 -333 110t-296 45q-133 0 -199 -41.5t-66 -109.5zM2231 1463q289 102 504.5 241.5t361.5 286t220 277t74 209.5q0 156 -141 156q-98 0 -217 -71.5t-251.5 -215.5 t-273 -365.5t-277.5 -517.5z" />
<glyph unicode="M" horiz-adv-x="4042" d="M33 394q0 94 63 159t143 65q64 0 113 -49t49 -114q0 -42 -18.5 -70t-39.5 -51t-39.5 -46t-18.5 -49q0 -73 92.5 -137.5t236.5 -64.5q185 0 386 126t450 364q285 272 552.5 581t574.5 616q246 243 452.5 422t360 298.5t247.5 178.5t122 59q11 0 11 -14q0 -22 -47 -78 t-138.5 -166t-220 -282t-287.5 -425q-395 -622 -575 -987.5t-180 -451.5q0 -26 16 -28q43 0 137.5 100.5t251.5 290.5t382 462t532 617q436 489 697 724t326 235q7 0 7 -11q0 -30 -123 -212t-350 -539q-444 -702 -640.5 -1145t-196.5 -602q0 -37 26 -63.5t65 -26.5 q174 0 488 340q54 57 76.5 87.5t40.5 30.5q22 0 24 -18q0 -19 -38 -63t-110 -120q-170 -171 -301.5 -259.5t-244.5 -88.5q-109 0 -179 83t-70 228q0 333 318 844.5t928 1256.5q-242 -192 -557.5 -542.5t-727.5 -846.5q-206 -246 -354.5 -432t-262.5 -311t-195.5 -188 t-142.5 -63q-113 0 -113 191q0 137 89 356t275 512.5t473.5 651.5t685.5 769q-337 -247 -655 -543t-640 -647q-278 -303 -505.5 -547.5t-426.5 -419.5t-380 -267t-372 -92q-116 0 -215 34t-171 90.5t-114 130.5t-42 157z" />
<glyph unicode="N" horiz-adv-x="3333" d="M54 340q0 87 50.5 141t126.5 54q61 0 103 -40t42 -105q0 -79 -38 -128t-38 -81q0 -53 68.5 -95.5t199.5 -42.5q412 0 822 361.5t837 1092.5q333 568 511.5 880.5t243.5 312.5q15 0 15 -26q0 -22 -19.5 -66.5t-41.5 -126t-41.5 -206.5t-19.5 -306q0 -98 2 -223.5t2 -281.5 q0 -196 -17 -469t-100 -641q614 1175 1075.5 1760.5t761.5 585.5q80 0 125 -41.5t45 -106.5t-45 -110.5t-101 -45.5q-57 0 -82 27t-40 57l-28 57q-13 26 -51 26q-113 0 -375 -284t-637 -885q-213 -341 -356.5 -604.5t-238.5 -440t-146 -267t-77 -90.5t-28 40q0 8 14 34.5 t28.5 81t28.5 139t14 200.5q0 206 -34 410.5t-34 411.5q0 212 39.5 456.5t115.5 529.5q-303 -561 -572.5 -989t-529 -717.5t-522.5 -437.5t-559 -148q-235 0 -367 101.5t-132 245.5z" />
<glyph unicode="O" horiz-adv-x="2116" d="M224 686q0 319 179.5 686t540.5 715q321 314 652.5 469.5t593.5 155.5q228 0 356.5 -111t128.5 -283q0 -163 -42 -163q-15 0 -15 39q0 19 3.5 44t3.5 58q0 170 -112 267t-304 97q-235 0 -515.5 -149.5t-540.5 -445.5q-171 -193 -302 -409.5t-220 -426.5t-134.5 -403 t-45.5 -341q0 -209 102 -324t272 -115q94 0 211 33.5t243.5 103.5t255 174.5t250.5 245.5q148 167 259 348t187 356t114 332t38 278q0 192 -79.5 296.5t-200.5 104.5q-94 0 -216 -65.5t-247 -188.5t-244.5 -294.5t-205.5 -374.5q-43 -94 -63.5 -166.5t-33.5 -122.5t-21 -74 t-23 -24t-15 56q0 105 49 292t171 413q80 148 180 265.5t208 197t214.5 123t200.5 43.5q174 0 276.5 -123t102.5 -351q0 -144 -47 -323.5t-136.5 -371t-220 -385t-297.5 -363.5q-246 -250 -486.5 -374.5t-445.5 -124.5q-261 0 -420 189.5t-159 514.5z" />
<glyph unicode="P" horiz-adv-x="2780" d="M159 300q0 94 51 155t127 61q64 0 111.5 -50t47.5 -114q0 -43 -22.5 -85.5t-22.5 -85.5q0 -53 64 -98.5t186 -45.5q170 0 320 77.5t293.5 231.5t289.5 377.5t305 516.5q98 177 202.5 349t227.5 335t271 312.5t337 286.5q-292 148 -673 148q-383 0 -746.5 -126.5 t-656.5 -365.5q-235 -192 -352.5 -399.5t-117.5 -388.5q0 -322 315 -322q105 0 244 58.5t287 170.5t293 278.5t267 382.5q61 102 95.5 183.5t53 138.5t29.5 85t22 28q15 0 17 -37q0 -33 -12 -101.5t-38 -162t-69.5 -202.5t-111.5 -228q-98 -170 -218.5 -300.5t-254.5 -222 t-272 -137t-271 -45.5q-213 0 -328.5 108.5t-115.5 300.5q0 181 123 405t362 430q296 246 679 380t806 134q228 0 406.5 -38t313.5 -97q76 50 126 79.5t79 29.5q22 0 22 -15q0 -22 -45 -43.5t-121 -78.5q412 -265 412 -651q0 -144 -61.5 -273t-164.5 -229.5t-235 -159 t-277 -58.5q-87 0 -155.5 15t-117.5 38t-74 46t-25 38q0 19 15 19q11 0 30.5 -11.5t48.5 -23.5t70.5 -23t102.5 -11q116 0 226.5 61t191.5 166.5t130 244.5t49 294q0 144 -63.5 261.5t-185.5 193.5q-122 -98 -226 -249t-208.5 -337.5t-220 -408.5t-263.5 -461 q-322 -527 -702 -791.5t-752 -264.5q-220 0 -345 94t-125 228z" />
<glyph unicode="Q" horiz-adv-x="2987" d="M318 239q0 98 101 164.5t286 66.5q159 0 359.5 -43.5t461.5 -126.5q189 83 349 198.5t312 263.5q375 368 558.5 733.5t183.5 698.5q0 202 -130.5 328.5t-362.5 126.5q-112 0 -243.5 -30.5t-262 -89.5t-257 -146t-241.5 -196q-196 -196 -293 -383t-97 -326 q0 -159 86.5 -244t246.5 -85q101 0 227 51t260 152.5t271 257t265 368.5q61 98 97 170t59 121t36 72t31 23q15 0 15 -29q0 -15 -39.5 -163t-152.5 -361q-206 -372 -478.5 -565t-566.5 -193q-193 0 -307.5 104.5t-114.5 296.5q0 178 127.5 405.5t381.5 443.5 q234 202 491.5 302t495.5 100q326 0 506.5 -187t180.5 -511q0 -466 -387 -905.5t-1163 -833.5q201 -76 353 -119.5t264 -43.5q159 0 313 78t328 233q79 69 117 116t66 47q14 0 14 -11q0 -50 -170 -200q-220 -192 -424.5 -289t-428.5 -97q-155 0 -316 47t-351 115 q-163 -72 -314 -110t-306 -38q-213 0 -325 68.5t-112 174.5zM387 235q0 -83 98 -136t281 -53q264 0 538 132q-250 109 -432 153.5t-282 44.5q-98 0 -150.5 -40t-52.5 -101z" />
<glyph unicode="R" horiz-adv-x="3457" d="M159 300q0 94 51 155t127 61q64 0 111.5 -50t47.5 -114q0 -43 -22.5 -85.5t-22.5 -85.5q0 -53 64 -98.5t186 -45.5q170 0 320 77.5t293.5 231.5t289.5 377.5t305 516.5q98 177 202.5 349t227.5 335t271 312.5t337 286.5q-292 148 -673 148q-383 0 -746.5 -126.5 t-656.5 -365.5q-235 -192 -352.5 -399.5t-117.5 -388.5q0 -322 315 -322q105 0 244 58.5t287 170.5t291.5 278.5t268.5 382.5q61 102 95.5 183.5t53 138.5t29.5 85t22 28q8 0 12.5 -13t4.5 -31q0 -30 -12 -96.5t-38 -158t-69.5 -202.5t-111.5 -230q-95 -170 -217 -300.5 t-256 -222t-272 -137t-271 -45.5q-213 0 -328.5 108.5t-115.5 300.5q0 181 123 405t362 430q296 246 679 380t806 134q228 0 406.5 -38t313.5 -97q76 50 126 79.5t79 29.5q22 0 22 -15q0 -22 -45 -43.5t-121 -78.5q181 -91 276.5 -230.5t95.5 -294.5q0 -122 -61 -243.5 t-166.5 -221.5t-253.5 -170t-318 -94q144 -80 217 -199.5t73 -250.5q0 -91 -18.5 -184t-41.5 -180t-41.5 -163t-18.5 -133q0 -50 26 -83.5t64 -33.5q65 0 165 78t248 237q68 72 99 111.5t49 39.5t18 -18q0 -30 -144 -183q-159 -167 -268 -255.5t-200 -88.5 q-54 0 -104.5 30.5t-90.5 83t-65 128.5t-25 166q0 87 17 174t40 171.5t39.5 161t16.5 148.5q0 87 -39.5 141t-91.5 54q-26 0 -65 -5.5t-83 -5.5q-113 0 -115 72q0 26 30.5 49t84.5 23q53 0 104 -17.5t96 -17.5q75 0 172.5 57t184.5 157t148 239t61 305q0 250 -198 383 q-122 -98 -226 -249t-208.5 -337.5t-220 -408.5t-263.5 -461q-322 -527 -702 -791.5t-752 -264.5q-220 0 -345 94t-125 228z" />
<glyph unicode="S" horiz-adv-x="2199" d="M257 333q0 87 52 142.5t128 55.5q64 0 106.5 -43.5t42.5 -108.5t-25.5 -106.5t-25.5 -76.5q0 -65 75.5 -112t210.5 -47q341 0 633 276.5t498 822.5q-285 -144 -446 -208t-183 -64q-30 0 -32 11q0 15 43.5 36t129.5 59t214.5 94.5t299.5 143.5q166 383 354 665t370 466 t346.5 275t288.5 91q98 0 150 -53t52 -140q0 -98 -77.5 -238.5t-231 -303.5t-385 -337.5t-538.5 -337.5q-130 -326 -300 -570t-367 -410.5t-412.5 -249.5t-435.5 -83q-235 0 -385 99.5t-150 251.5zM2338 1371q289 152 502.5 319t355 321.5t214 286t72.5 211.5q0 68 -40 106 t-108 38q-228 0 -479.5 -317.5t-516.5 -964.5z" />
<glyph unicode="T" horiz-adv-x="2419" d="M364 348q0 83 49 135t122 52q64 0 107.5 -43.5t43.5 -115.5q0 -54 -25 -99.5t-25 -74.5q0 -58 78 -111.5t211 -53.5q401 0 753 429q205 250 337.5 506t258.5 471q137 235 276.5 411.5t262.5 292.5t218 174t140 58q7 0 7 -4q0 -11 -39.5 -43t-113.5 -119t-179.5 -240.5 t-235.5 -403.5l-151 -289q-76 -144 -163 -285.5t-195.5 -280.5t-243.5 -270q-238 -231 -487 -346.5t-480 -115.5q-242 0 -384 105t-142 261zM531 1447q0 272 199 522.5t582 428.5q188 87 383.5 140.5t401.5 80.5t424.5 34t453.5 7h477q307 0 456 24t173 24q54 0 52 -29 q0 -19 -49 -57t-141.5 -75.5t-224 -64.5t-294.5 -27q-133 0 -276.5 13t-297 27t-316 26.5t-336.5 12.5q-341 0 -648 -98t-538 -270q-209 -159 -315.5 -338.5t-106.5 -349.5q0 -140 86 -223.5t229 -83.5q116 0 261.5 54.5t294.5 163t293 262t262 353.5q84 140 106 205t44 65 q15 0 17 -32q0 -18 -40 -154t-158 -342q-91 -159 -212 -283.5t-258 -210t-273 -130.5t-252 -45q-220 0 -339.5 105.5t-119.5 264.5z" />
<glyph unicode="U" horiz-adv-x="2495" d="M-57 1587q0 156 87 328t262 336q232 217 510 331.5t524 114.5q239 0 373 -128.5t134 -374.5q0 -202 -103.5 -408t-279.5 -471l-434 -667q-122 -189 -180.5 -312t-58.5 -173q0 -106 120 -106q72 0 203.5 76t301.5 237t376.5 412.5t434.5 605.5l814 1258l314 18 l-1276 -2002q-123 -192 -177.5 -331t-54.5 -176t23.5 -62t52.5 -25q95 0 194 76t235 217q84 83 120 130t54 47q22 0 22 -18q0 -22 -49 -77.5t-143 -153.5q-285 -296 -455 -296q-178 0 -178 275q0 117 36.5 239t102.5 266q-337 -409 -600.5 -600t-390.5 -191q-99 0 -154 75.5 t-55 214.5q0 192 98.5 397.5t269.5 462.5l481 729q105 159 153 282t48 195q0 148 -100.5 228t-293.5 80q-216 0 -451 -93.5t-452 -278.5q-397 -341 -397 -664q0 -137 77.5 -212t203.5 -75q94 0 217 50.5t246 143.5t237 228t197 301q43 83 63 155.5t33 123t21.5 79.5t26.5 29 q19 0 20 -58q0 -148 -44 -312.5t-131 -308.5q-76 -126 -175 -228t-210 -174t-228.5 -110t-228.5 -38q-181 0 -283.5 106.5t-102.5 276.5z" />
<glyph unicode="V" horiz-adv-x="2332" d="M599 1782q0 25 43.5 125t145.5 259q174 261 350.5 385t285.5 124q202 0 247 -281q11 -57 16.5 -104.5t13.5 -85.5t25 -58t46 -20q34 0 95 23t136.5 66.5t157 109t161.5 152.5q37 46 64.5 86t48 72.5t42 51t46.5 18.5q58 0 58 -65q0 -26 -19.5 -46.5t-48 -45.5t-60 -51.5 t-63.5 -63.5q-76 -95 -121 -233.5t-103 -331.5q-29 -101 -80 -263t-152 -383t-263.5 -508t-416.5 -638q361 253 699.5 623t714.5 820q470 564 744.5 860t405.5 296q61 0 101 -39.5t40 -104.5q0 -69 -40 -112.5t-93 -43.5q-30 0 -52 13t-41.5 29t-36 29t-40.5 13 q-73 0 -185.5 -104t-280 -301t-399 -476t-532.5 -631q-224 -257 -426.5 -448.5t-356 -318t-251 -189.5t-108.5 -63q-46 0 -44 35q0 26 31.5 80.5t81.5 138t112 197t119 265.5q61 159 123 346.5t147 394t202.5 430.5t289.5 455q-192 -133 -329 -205.5t-233 -72.5 q-102 0 -153 68.5t-65 213.5q-8 53 -11.5 98.5t-15.5 79t-32.5 54.5t-63.5 21q-72 0 -200.5 -108t-272.5 -323q-102 -155 -134.5 -243t-58.5 -88q-11 2 -11 17z" />
<glyph unicode="W" horiz-adv-x="3359" d="M599 1778q0 42 45.5 140t143.5 248q170 261 348.5 385t287.5 124q197 0 243 -281q11 -57 16.5 -104.5t15.5 -85.5t27 -58t46 -20q34 0 95 23t135 66.5t155 109t161 152.5q37 46 66.5 86t50 72.5t42 51t46.5 18.5q58 0 58 -65q0 -26 -19.5 -46.5t-48 -45.5t-62 -51.5 t-65.5 -63.5q-75 -95 -118.5 -233.5t-101.5 -331.5q-46 -159 -113.5 -352t-177.5 -419t-269 -489.5t-387 -564.5q250 185 464.5 427t421 515t419 557t462.5 558q137 148 242.5 255t166.5 194q46 69 73.5 112.5t70.5 43.5q57 0 57 -65q0 -26 -19 -46.5t-48 -45.5t-60.5 -51.5 t-62.5 -63.5q-76 -95 -121.5 -233.5t-102.5 -331.5q-37 -129 -94.5 -303t-159 -396t-262.5 -495t-400 -594q394 292 731 664.5t683 785.5q466 560 738 852.5t405 292.5q61 0 99 -39.5t38 -104.5q0 -69 -38 -112.5t-92 -43.5q-29 0 -52.5 13t-41.5 29t-36 29t-40 13 q-72 0 -184 -104t-278.5 -297t-396 -469.5t-528.5 -626.5q-224 -257 -424 -452.5t-355.5 -324t-250.5 -193t-110 -64.5q-46 0 -46 35q0 26 32.5 80.5t82 136t111.5 197t123 271.5q54 136 110.5 306.5t132.5 365.5t186 415t273 459q-182 -189 -347.5 -394t-326.5 -417 t-322 -426.5t-338 -421.5q-137 -159 -254.5 -275t-208 -190t-150 -108t-74.5 -34q-50 0 -48 35q0 26 31.5 80.5t81.5 138t112 197t119 265.5q61 159 125 346.5t149 394t202.5 430.5t289.5 455q-390 -278 -557 -278q-101 0 -151 63t-69 208q-11 112 -28.5 188t-97.5 76 q-75 0 -215 -117.5t-284 -359.5q-83 -141 -113.5 -213t-56.5 -72q-8 2 -8 13z" />
<glyph unicode="X" horiz-adv-x="2765" d="M326 272q0 618 1777 1099q148 250 233.5 460.5t85.5 414.5q0 189 -93.5 289.5t-263.5 100.5q-134 0 -313.5 -63.5t-352.5 -193.5q-123 -91 -215 -191.5t-157 -200.5t-97.5 -197t-32.5 -177q0 -105 55.5 -163.5t153.5 -58.5q87 0 199 49t226 140t220 217.5t177 278.5 q33 72 48.5 135t23 110t14 75.5t21.5 28.5q22 0 23 -61q0 -235 -83.5 -432t-218 -339.5t-301.5 -222t-334 -79.5q-133 0 -204.5 81.5t-71.5 225.5q0 148 91 326.5t272 356.5q102 98 214 174t224 127t220 77.5t199 26.5q235 0 365 -146t130 -414v-63q0 -35 -3 -82 q336 365 634 531.5t489 166.5q122 0 184 -70.5t62 -179.5q0 -318 -383 -558.5t-1149 -475.5q-217 -368 -315 -654t-98 -480q0 -218 156 -218h3q98 0 219.5 88.5t280.5 258.5q65 69 93.5 108.5t47.5 39.5q22 0 24 -18q0 -19 -38 -63t-110 -120q-159 -167 -280.5 -259.5 t-254.5 -92.5q-126 0 -202 112t-76 323q0 54 24 220q-329 -340 -638 -497.5t-540 -157.5q-170 0 -267 82.5t-97 204.5zM485 272q0 -106 62.5 -167.5t179.5 -61.5q130 0 283.5 74.5t325.5 232t358 394t374 560.5q-1583 -410 -1583 -1032zM2425 1463q724 221 1083.5 445.5 t359.5 516.5q0 196 -174 196q-98 0 -236.5 -68t-307 -209.5t-354.5 -361t-371 -519.5z" />
<glyph unicode="Y" horiz-adv-x="2647" d="M231 1622q0 148 91 322t274 344q216 206 486 319t531 113q231 0 372 -132.5t141 -378.5q0 -181 -85.5 -376.5t-247.5 -426.5q-137 -192 -226 -331t-89 -237q0 -122 109 -122q122 0 273 108t360 312q224 216 366.5 409.5t251.5 334.5q181 231 347.5 386.5t300 249.5 t224 134t125.5 40q22 0 22 -15q0 -26 -55.5 -45.5t-149.5 -76.5q-329 -192 -561 -622q-101 -192 -196.5 -376t-188 -352.5t-187 -320t-201.5 -279.5q-253 -307 -526 -464t-534 -157q-209 0 -328.5 88.5t-119.5 221.5q0 95 45.5 147.5t110.5 52.5q64 0 106 -45.5t42 -117.5 q0 -53 -30.5 -100.5t-30.5 -76.5q0 -43 55.5 -79t164.5 -36q192 0 350.5 82.5t298 241.5t271.5 399.5t277 558.5q-304 -344 -534 -507.5t-367 -163.5q-95 0 -159.5 77.5t-64.5 221.5q0 202 89 377.5t233 381.5q159 224 240.5 380t81.5 271q0 144 -103.5 227.5t-298.5 83.5 q-192 0 -408.5 -78t-420.5 -233q-227 -170 -342.5 -363.5t-115.5 -363.5q0 -122 70 -194.5t168 -72.5q102 0 223 43.5t242.5 127t233.5 203.5t199 267q57 98 89.5 182t49 144t26 94.5t25.5 34.5q8 0 15 -13t7 -45q0 -231 -88.5 -439t-231 -363.5t-323 -248t-361.5 -92.5 q-413 0 -413 364z" />
<glyph unicode="Z" horiz-adv-x="2621" d="M196 11q0 43 53.5 106.5t163.5 135.5q22 15 68 40t113.5 70.5t159 121.5t201.5 194q83 87 211.5 244t327.5 367t475.5 470t651.5 551q-122 -58 -233 -87.5t-225 -29.5q-246 0 -394 152q-34 33 -66 67.5t-72 59.5t-92.5 41.5t-125.5 16.5q-129 0 -292 -70.5t-311 -209.5 q-126 -122 -189.5 -250.5t-63.5 -246.5q0 -126 72 -193.5t192 -67.5q80 0 179 32.5t201.5 96t204.5 159t189 215.5q57 83 77.5 131.5t40.5 48.5q11 0 11 -47q0 -29 -21 -103t-73 -165q-133 -239 -334 -358t-436 -119q-159 0 -261.5 92.5t-102.5 258.5q0 133 72 278.5 t213 278.5q192 178 406.5 269.5t442.5 91.5q163 0 344 -119q65 -42 117.5 -82.5t99.5 -73t97 -54t106 -21.5q113 0 213.5 57.5t219.5 155.5q83 68 132 111.5t95 43.5q50 0 48 -53q0 -43 -43 -78t-117 -85t-168.5 -115.5t-200.5 -173.5q-29 -29 -133.5 -144.5t-290.5 -307 t-459 -454.5t-637 -594q235 137 411.5 207.5t300.5 70.5q170 0 267 -101t97 -260q0 -69 -25 -136.5t-52.5 -128.5t-50.5 -112t-23 -89q0 -30 19 -50.5t42 -20.5q53 0 169.5 83.5t285.5 257.5q68 72 96 111.5t46 39.5q22 0 24 -18q0 -46 -235 -278q-279 -275 -434 -275h-2 q-95 0 -151 90.5t-56 238.5q0 87 22 157.5t50.5 125t52.5 96t24 71.5q0 64 -47 100t-134 36q-72 0 -182 -32t-242.5 -96t-284 -165t-303.5 -237q-79 -73 -148.5 -142t-130.5 -126.5t-114 -92t-99 -34.5q-50 0 -50 54z" />
<glyph unicode="[" horiz-adv-x="1226" d="M-174 -209q0 26 69 137l1642 2693q47 76 92 93.5t121 17.5h409q72 0 72 -38q0 -12 -18.5 -24.5t-53.5 -12.5h-409l-1754 -2835h424q68 0 68 -35q0 -15 -18.5 -27.5t-53.5 -12.5h-499q-91 -2 -91 44z" />
<glyph unicode="\" horiz-adv-x="1121" d="M690 2090h170l91 -2427l-37 -15z" />
<glyph unicode="]" horiz-adv-x="1226" d="M-614 -216q0 37 72 38h409l1755 2835h-425q-69 0 -69 33q0 42 69 42h505q91 0 91 -46q0 -29 -69 -137l-1644 -2693q-47 -76 -92 -92.5t-121 -16.5h-409q-72 0 -72 37z" />
<glyph unicode="^" horiz-adv-x="3788" d="M762 1659l988 1046h281l988 -1046h-155l-973 861l-981 -861h-148z" />
<glyph unicode="_" d="M0 -746h1894v-148h-1894v148z" />
<glyph unicode="`" d="M966 1622q0 69 32 112.5t90 43.5q109 0 109 -133v-111q0 -87 27 -153t61 -116t60 -79.5t26 -45.5q0 -26 -26 -26q-30 0 -92.5 52.5t-125.5 130.5t-112 167.5t-49 157.5z" />
<glyph unicode="a" horiz-adv-x="1491" d="M-30 485q0 33 178 212q192 193 370.5 282.5t312.5 89.5q94 0 146.5 -50t52.5 -125q0 -37 -14 -84l155 228l250 15l-416 -655q-65 -98 -103 -170.5t-38 -125.5q0 -59 53 -59h4q98 0 409 321q83 84 119.5 129t54.5 45q22 0 22 -14q0 -37 -174 -213q-151 -156 -259.5 -242.5 t-213.5 -86.5q-156 0 -156 188q0 30 6 65l13 79q-265 -332 -477 -332q-99 0 -159 99.5t-60 286.5q0 87 26 178q-50 -76 -79 -76q-23 0 -23 15zM205 166q0 -116 91 -116q61 0 151.5 58t200.5 181q166 181 243.5 338t77.5 267q0 50 -36 84t-88 34q-87 0 -197 -76t-221 -231 q-116 -167 -169 -309.5t-53 -229.5z" />
<glyph unicode="b" horiz-adv-x="1280" d="M-26 485q0 15 51 72t141.5 171t217.5 291.5t275 430.5l484 831l263 33l-944 -1602q-148 -250 -227.5 -396t-79.5 -207q0 -72 113 -72q87 0 180.5 42.5t175 122t141.5 199t88 274.5q15 87 18.5 161t14.5 125t36 79.5t83 28.5q109 0 109 -155q0 -106 -56.5 -252 t-182.5 -318q19 -4 34.5 -7.5t30.5 -3.5q65 0 148 43.5t159 123.5l52 53q11 15 27 15q15 0 15 -22q0 -15 -3 -19l-43 -50q-174 -196 -385 -196h-40q-21 0 -49 8q-144 -156 -294.5 -231.5t-287.5 -75.5q-106 0 -163.5 63.5t-57.5 178.5q0 90 42 193t106 234l-90 -102 q-30 -33 -49.5 -56t-33.5 -23q-19 0 -19 15z" />
<glyph unicode="c" horiz-adv-x="1063" d="M-30 488q0 23 152 187q181 196 359 295t326 99q112 0 179 -53.5t67 -144.5q0 -75 -42 -124.5t-97 -49.5q-54 0 -84.5 24.5t-30.5 74.5q0 33 19.5 52.5t40 32.5t40 28.5t19.5 41.5t-21.5 45.5t-58.5 19.5q-72 0 -174.5 -70.5t-197 -184t-161 -257t-66.5 -291.5 q0 -178 155 -180q109 0 221 74t245 207q109 106 154.5 165t65.5 59q23 0 23 -18q0 -19 -49 -74.5t-144 -153.5q-152 -151 -279.5 -230.5t-258.5 -79.5q-141 0 -229.5 113.5t-88.5 294.5q0 69 22 156q-58 -72 -83 -72q-23 0 -23 14z" />
<glyph unicode="d" horiz-adv-x="1491" d="M-30 485q0 33 178 212q192 193 370.5 282.5t312.5 89.5q94 0 146.5 -50t52.5 -125q0 -37 -14 -84l841 1493l246 11l-1034 -1794q-185 -318 -187 -415q0 -51 58 -51h4q36 0 141 83t271 253q68 72 99 110t49 38q22 0 22 -14q0 -37 -174 -213q-151 -156 -259.5 -242.5 t-213.5 -86.5q-156 0 -156 188q0 30 6 65l13 79q-265 -332 -477 -332q-99 0 -159 99.5t-60 286.5q0 87 26 178q-50 -76 -79 -76q-23 0 -23 15zM205 166q0 -116 91 -116q61 0 151.5 58t200.5 181q166 181 243.5 338t77.5 267q0 50 -36 84t-88 34q-87 0 -197 -76t-221 -231 q-116 -167 -169 -309.5t-53 -229.5z" />
<glyph unicode="e" horiz-adv-x="1063" d="M-26 488q0 26 148 187q181 202 357 298t335 96q98 0 153.5 -50t55.5 -125q0 -148 -195 -295.5t-567 -234.5q-8 -53 -13.5 -89t-5.5 -62q0 -174 152 -176q109 0 221 72t245 205q109 110 154.5 167t65.5 57q23 0 23 -18q0 -19 -49 -74.5t-144 -153.5 q-152 -151 -279.5 -230.5t-254.5 -79.5q-141 0 -231.5 113.5t-90.5 294.5q0 72 22 159q-58 -75 -83 -75q-19 0 -19 14zM281 424q148 29 263 94t192.5 140.5t119 153.5t41.5 135q0 30 -18.5 53t-47.5 23q-50 0 -122.5 -38t-148 -113.5t-150.5 -187.5t-129 -260z" />
<glyph unicode="f" horiz-adv-x="832" d="M-651 -1114l601 1114q-61 50 -59 105q0 54 33 90t83 36q23 0 61 -18l387 723q-116 -102 -198.5 -189.5t-135.5 -148t-85 -94.5t-47 -34t-15 15q0 26 143.5 193t450.5 454q322 622 578 931t471 309q76 0 126 -53t50 -129q0 -209 -290.5 -510.5t-869.5 -724.5l-444 -901h20 q76 0 179.5 62t236.5 195q109 109 157.5 168t66.5 59q22 0 22 -18q0 -19 -70 -101t-205 -210q-265 -246 -441 -246h-14l-524 -1047zM697 1080q269 182 460.5 359.5t314.5 329t180 267.5t57 173q0 109 -103 109q-174 0 -389.5 -308t-519.5 -930z" />
<glyph unicode="g" horiz-adv-x="1396" d="M-431 -1008q0 201 253.5 420.5t756.5 515.5l194 416q-151 -178 -274 -270t-234 -92q-99 0 -159 99.5t-60 286.5q0 87 26 178q-50 -76 -79 -76q-23 0 -23 15q0 33 178 212q192 193 370.5 282.5t312.5 89.5q94 0 146.5 -50t52.5 -125q0 -37 -14 -84l155 228l231 15 q-181 -296 -331 -559t-272 -501q159 101 269 200t180.5 175t110.5 123t54 47q19 0 19 -18q0 -11 -43.5 -70.5t-128.5 -144.5t-213.5 -189.5t-300.5 -209.5q-296 -557 -549.5 -830t-435.5 -273q-192 0 -192 189zM-329 -1016q0 -127 106 -127h3q152 0 332 247.5t426 743.5 q-444 -257 -655.5 -481t-211.5 -383zM205 166q0 -116 91 -116q61 0 151.5 58t200.5 181q166 181 243.5 338t77.5 267q0 50 -36 84t-88 34q-87 0 -197 -76t-221 -231q-116 -167 -169 -309.5t-53 -229.5z" />
<glyph unicode="h" horiz-adv-x="1428" d="M-159 -4l546 872l-304 -326q-65 -72 -87 -72t-22 15q0 22 60 81t163 171t237 286t282 427l485 831l246 33l-1071 -1829q260 285 425 436.5t268 151.5q65 0 104 -52t39 -135q0 -122 -67.5 -225.5t-167.5 -236.5q-83 -113 -128.5 -189t-45.5 -130q0 -68 61 -68 q98 0 409 324q83 87 119 132t55 45q18 0 20 -18q0 -22 -48 -76t-135 -144q-315 -318 -424 -318q-83 0 -132 74t-49 194q0 113 65.5 221t176.5 245q76 98 121.5 153.5t45.5 96.5q0 46 -43 46q-76 0 -325.5 -240.5t-647.5 -749.5z" />
<glyph unicode="i" horiz-adv-x="832" d="M-26 485q0 53 481 549l272 19l-375 -591q-87 -133 -136.5 -220t-49.5 -137q0 -29 19.5 -50.5t45.5 -21.5q76 0 182.5 84.5t261.5 246.5q80 87 118 130.5t56 43.5q22 0 22 -18q0 -19 -43.5 -70.5t-130.5 -138.5q-155 -159 -263 -244t-199 -85t-148 63.5t-57 174.5 q0 122 86 262t221 349q-171 -171 -245 -264t-103 -93q-15 0 -15 11zM803 1648q0 61 47 116t108 55q47 0 74.5 -30.5t27.5 -79.5q0 -61 -45.5 -116.5t-104.5 -55.5q-46 0 -76.5 30.5t-30.5 80.5z" />
<glyph unicode="j" horiz-adv-x="760" d="M-1060 -1008q0 201 253.5 420.5t756.5 515.5l459 982q-205 -216 -296 -328t-120 -112q-19 0 -19 15q0 26 87 125l370 424l270 19q-133 -285 -267 -548t-268 -512q160 109 270 208t180 174.5t108 119t53 43.5q22 0 22 -14q0 -12 -41.5 -69t-125 -142t-212 -190 t-303.5 -217q-296 -557 -549.5 -830t-435.5 -273q-192 0 -192 189zM-962 -1016q0 -127 106 -127h3q152 0 332.5 247.5t426.5 743.5q-444 -257 -656 -481t-212 -383zM683 1648q0 61 45 116t106 55q47 0 74.5 -30.5t27.5 -79.5q0 -61 -45.5 -116.5t-106.5 -55.5 q-46 0 -73.5 30.5t-27.5 80.5z" />
<glyph unicode="k" horiz-adv-x="1465" d="M-159 -4l546 872l-304 -326q-65 -72 -87 -72t-22 15q0 22 60 81t163 171t237 286t282 427l485 831l242 33l-1375 -2292zM451 583q0 33 32.5 56t91.5 23q54 0 119 -33q76 15 132 79.5t132 155.5q87 102 161 155.5t157 53.5q69 0 108.5 -36t39.5 -97q0 -58 -28.5 -92 t-80.5 -34q-42 0 -60.5 25t-32.5 53.5t-25 52.5t-33 24q-30 0 -55 -47t-64.5 -109t-104.5 -123t-170 -91q151 -94 151 -227q0 -91 -34 -161t-34 -124q0 -50 52 -50q37 0 148 86t281 267q68 72 96 110t48 38q22 0 22 -18q0 -37 -181 -220q-307 -318 -437 -318 q-86 0 -154.5 85t-68.5 201q0 87 28.5 152t28.5 107q0 11 -7 48q-54 -26 -95.5 -40.5t-82.5 -14.5h-5q-75 0 -75 63z" />
<glyph unicode="l" horiz-adv-x="832" d="M-26 485q0 26 87 125l120 132q159 174 240.5 271t89.5 108l747 1160l246 33l-1167 -1852q-87 -133 -136 -220t-49 -137q0 -29 18.5 -50.5t49.5 -21.5q91 0 193.5 86t261.5 245q80 80 118 127t56 47q22 0 22 -18q0 -19 -43.5 -70.5t-130.5 -138.5q-155 -159 -263 -244 t-199 -85t-148 63.5t-57 174.5q0 122 83 262t220 349q-170 -171 -240.5 -266t-99.5 -95q-19 0 -19 15z" />
<glyph unicode="m" horiz-adv-x="2306" d="M-26 485q0 26 87 125l120 132q145 159 249.5 245t198.5 86q68 0 108 -48t40 -131q0 -91 -38 -189t-114 -220q232 292 389 440t270 148q68 0 110 -46.5t42 -112.5q0 -106 -42 -208.5t-118 -213.5q250 285 407.5 433t260.5 148q65 0 104 -52t39 -135q0 -122 -67.5 -225.5 t-167.5 -236.5q-83 -113 -128.5 -189t-45.5 -130q0 -68 61 -68q98 0 409 324q83 87 119 132t55 45q22 0 24 -18q0 -22 -50 -76t-137 -144q-315 -318 -424 -318q-83 0 -132 74t-49 194q0 113 65.5 221t176.5 245q76 98 121.5 153.5t45.5 96.5q0 46 -43 46 q-76 0 -314.5 -242.5t-628.5 -747.5l-265 -26l492 738q54 80 86.5 135.5t32.5 96.5q0 46 -54 46q-61 0 -144 -66.5t-199 -191.5t-265.5 -309t-342.5 -423l-268 -26l496 738q53 80 86.5 133.5t33.5 94.5q0 50 -52 50q-68 0 -174.5 -90.5t-269.5 -266.5q-76 -83 -114 -134 t-63 -51q-19 0 -19 15z" />
<glyph unicode="n" horiz-adv-x="1677" d="M-26 485q0 26 87 125l120 132q145 159 249.5 245t198.5 86q68 0 108 -48t40 -131q0 -91 -38 -189t-114 -220q257 288 422 436t268 148q65 0 104 -50t39 -133q0 -122 -67.5 -225.5t-165.5 -236.5q-84 -113 -130 -189t-46 -130q0 -68 61 -68q98 0 409 324q83 87 119 132 t55 45q22 0 24 -18q0 -22 -50 -76t-137 -144q-315 -318 -424 -318q-83 0 -132 74t-49 194q0 113 65.5 221t176.5 245q76 98 121.5 153.5t45.5 96.5q0 42 -43 42q-79 0 -327 -240.5t-646 -745.5l-264 -26l492 738q53 80 86.5 133.5t33.5 94.5q0 50 -52 50q-68 0 -174.5 -90.5 t-269.5 -266.5q-76 -83 -114 -134t-63 -51q-19 0 -19 15z" />
<glyph unicode="o" horiz-adv-x="1256" d="M-26 488q0 19 156 195q181 201 356.5 297.5t309.5 96.5q122 0 191 -74t69 -200q0 -109 -54.5 -219t-152.5 -240q15 -4 28 -7.5t33 -3.5q65 0 149 40t166 127l48 57q11 11 31 11q15 0 15 -22q0 -15 -4 -19l-42 -50q-80 -98 -180 -147t-207 -49h-39q-20 0 -48 8 q-140 -156 -269 -231.5t-230 -75.5q-122 0 -188 99.5t-66 294.5q0 72 30 173q-58 -75 -83 -75q-19 0 -19 14zM213 178q0 -135 113 -135h3q54 0 150 54.5t207 170.5q134 145 201.5 293t67.5 260q0 91 -40 141t-105 50q-170 0 -386 -307q-113 -163 -162 -301.5t-49 -225.5z " />
<glyph unicode="p" horiz-adv-x="1428" d="M-720 -1001l1107 1869l-304 -326q-65 -72 -87 -72t-22 15q0 22 60 85t166.5 175t244.5 282t293 416l220 346l228 18l-810 -1322q260 285 425 436.5t268 151.5q65 0 104 -52t39 -135q0 -122 -67.5 -225.5t-167.5 -236.5q-83 -113 -128.5 -189t-45.5 -130q0 -68 61 -68 q98 0 409 324q83 87 119 132t55 45q18 0 20 -18q0 -22 -48 -76t-135 -144q-315 -318 -424 -318q-83 0 -132 74t-49 194q0 113 65.5 221t176.5 245q76 98 121.5 153.5t45.5 96.5q0 46 -43 46q-29 0 -128 -68.5t-239 -208t-311 -354.5t-341 -507l-500 -847z" />
<glyph unicode="q" horiz-adv-x="1374" d="M-46 -1077l788 1395q-265 -333 -477 -333q-99 0 -159 98t-60 289q0 76 30 174q-58 -72 -83 -72q-23 0 -23 11q0 26 160 194q192 205 379.5 299.5t321.5 94.5q94 0 145 -48t51 -131q0 -43 -11 -98l155 246l200 11l-890 -1588q133 171 225.5 284.5t146.5 174.5l242 285 q141 167 212 248t92 81q18 0 18 -11q0 -29 -94.5 -133.5t-260 -298t-388.5 -479.5t-485 -676zM205 166q0 -116 91 -116q61 0 151.5 58t200.5 181q166 181 243.5 338t77.5 267q0 50 -36 84t-88 34q-87 0 -197 -76t-221 -231q-116 -167 -169 -309.5t-53 -229.5z" />
<glyph unicode="r" horiz-adv-x="1248" d="M-26 485q0 26 87 125l120 132q145 159 249.5 245t198.5 86q68 0 108 -48t40 -115q0 -122 -51 -230t-130 -240q76 76 157 151t168 151q65 166 129 248.5t182 82.5q87 0 87 -61q0 -54 -76 -114t-201 -156q-69 -54 -112.5 -117.5t-43.5 -162.5q0 -46 27 -73.5t67 -27.5 q58 0 105 27.5t85 62t63 63t36 28.5q22 0 22 -18q0 -19 -27.5 -53t-74 -70.5t-99 -63t-100.5 -26.5q-159 0 -159 148q0 53 48 181q-122 -102 -260 -255.5t-301 -358.5l-264 -26l492 734q53 80 86.5 133.5t33.5 94.5q0 50 -52 50q-68 0 -174.5 -90.5t-269.5 -266.5 q-76 -83 -114 -134t-63 -51q-19 0 -19 15z" />
<glyph unicode="s" horiz-adv-x="825" d="M-117 178q0 50 35.5 86t81.5 36q33 0 56.5 -21.5t23.5 -50.5q0 -30 -23.5 -66t-23.5 -79q0 -40 53 -40h5q50 0 113.5 52.5t124.5 152.5t103 248t42 338q0 34 -2 70t-6 73q-235 -239 -339.5 -373t-137.5 -134q-19 0 -19 15q0 29 127 166t365 398q65 159 156 159 q76 0 76 -72q0 -61 -80 -94q-46 -19 -70 -34t-24 -103q0 -109 35 -225t35 -225q0 -113 -48 -224q144 145 211.5 226t88.5 81q22 0 22 -18q0 -26 -148 -183q-159 -171 -291.5 -263t-283.5 -92q-117 0 -187.5 54.5t-70.5 141.5z" />
<glyph unicode="t" horiz-adv-x="832" d="M-26 485q0 29 56.5 92t139.5 148t176.5 188t164.5 208l164 246h-183l32 54h185l231 368l246 18l-242 -386h434l-29 -54h-439l-566 -905q-178 -281 -178 -357q0 -29 19.5 -50.5t45.5 -21.5q80 0 184.5 86t259.5 245q83 87 119.5 130.5t54.5 43.5q22 0 22 -18 q0 -19 -43.5 -70.5t-130.5 -138.5q-155 -159 -263 -244t-199 -85t-148 63.5t-57 174.5q0 122 86 262t221 349q-171 -171 -245 -264t-103 -93q-15 0 -15 11z" />
<glyph unicode="u" horiz-adv-x="1468" d="M-30 485q0 46 481 549l272 15l-375 -587q-87 -136 -136 -221.5t-49 -135.5q0 -29 16.5 -48.5t44.5 -19.5q144 0 382.5 247t536.5 750l256 15l-455 -720q-50 -76 -78 -128.5t-28 -95.5q0 -68 59 -68q95 0 411 324q83 83 116.5 130t57.5 47q22 0 22 -14q0 -23 -38 -67 t-110 -120q-338 -355 -461 -355h-1q-84 0 -131 74t-47 183q0 29 3.5 56t11.5 53q-159 -185 -286 -275.5t-210 -90.5q-91 0 -150 63.5t-59 174.5q0 122 85 263.5t222 347.5q-170 -171 -242.5 -264t-101.5 -93q-19 0 -19 11z" />
<glyph unicode="v" horiz-adv-x="1533" d="M-26 485q0 26 87 125l120 132q145 159 249.5 247t205.5 88q76 0 121.5 -55.5t45.5 -146.5q0 -98 -41.5 -179.5t-106.5 -175.5q-98 -152 -156.5 -245.5t-58.5 -141.5q0 -94 95 -96q72 0 166.5 42.5t188.5 120.5t173.5 189t126.5 255q25 83 31.5 160.5t14 137t30 95.5 t83.5 36q101 0 101 -126q0 -79 -75.5 -238.5t-246.5 -364.5q19 -4 34.5 -7.5t30.5 -3.5q65 0 150 45.5t157 121.5l50 57q11 11 34 11q11 0 11 -22q0 -15 -4 -19l-41 -50q-174 -196 -386 -196h-41q-20 0 -46 8q-167 -156 -311 -230t-259 -74q-94 0 -147 72.5t-53 184.5 q0 134 62 230t142 207q75 102 113 172t38 118q0 43 -48 43q-65 0 -173 -90.5t-271 -270.5q-79 -87 -117 -134t-60 -47q-19 0 -19 15z" />
<glyph unicode="w" horiz-adv-x="1946" d="M-26 485q0 26 87 125l120 132q54 57 122.5 131t158.5 161l261 15l-375 -587q-87 -136 -136 -221.5t-49 -135.5q0 -29 16.5 -48.5t44.5 -19.5q144 0 382.5 247t536.5 750l256 15l-426 -666q-61 -94 -90.5 -153.5t-29.5 -96.5q0 -94 94 -96q72 0 166.5 42.5t188 120.5 t173 189t123.5 255q26 83 32.5 160.5t16 137t32.5 95.5t82 36q102 0 103 -126q0 -79 -77.5 -238.5t-249.5 -364.5q19 -4 36.5 -7.5t32.5 -3.5q65 0 148 41.5t159 125.5l50 57q4 11 29 11q15 0 15 -22q0 -15 -3 -19l-41 -50q-174 -196 -387 -196h-40q-21 0 -47 8 q-166 -156 -310.5 -230t-257.5 -74q-94 0 -147.5 70.5t-53.5 186.5q0 43 11 106q-159 -185 -286 -275.5t-210 -90.5q-91 0 -150 63.5t-59 174.5q0 122 83 258t220 340q-166 -159 -236.5 -253.5t-99.5 -94.5q-19 0 -19 15z" />
<glyph unicode="x" horiz-adv-x="1265" d="M-181 117q0 53 32 87.5t81 34.5q57 0 73.5 -27t21.5 -61t12 -60t41 -26q14 0 56 20t99 62t119 104.5t120 149.5q46 65 79 141t58 150t38 138t13 110q0 42 -11 57t-44 15q-65 0 -169.5 -90.5t-267.5 -270.5q-79 -87 -117 -134t-60 -47q-19 0 -19 15q0 26 87 125l120 132 q145 159 249.5 245t194.5 86q185 0 185 -315q0 -14 -1.5 -30t-1.5 -34q133 188 241 283.5t221 95.5q163 0 163 -137q0 -42 -30.5 -70t-71.5 -28q-46 0 -66.5 22t-29.5 49t-21 49t-42 22q-46 0 -146 -96t-222 -288q-91 -145 -129 -278t-38 -205q0 -76 65 -76q46 0 150 79.5 t263 244.5q83 83 117 130t53 47q22 0 24 -18q0 -37 -183 -220q-307 -318 -431 -318q-80 0 -144.5 88.5t-64.5 247.5v11q-152 -170 -271.5 -258.5t-220.5 -88.5q-76 0 -125 38.5t-49 96.5z" />
<glyph unicode="y" horiz-adv-x="1616" d="M-209 -1008q0 201 254.5 420.5t757.5 515.5l300 575q-431 -492 -637 -492q-65 0 -112 61t-47 163q0 133 62 233t142 211q151 209 151 283q0 50 -55 50q-65 0 -169.5 -90.5t-267.5 -270.5q-79 -87 -117 -134t-60 -47q-19 0 -19 15q0 26 87 125l120 132q145 159 249.5 247 t205.5 88q76 0 119.5 -55.5t43.5 -146.5q0 -94 -45 -179.5t-110 -184.5q-98 -148 -152.5 -239t-54.5 -131q0 -30 18.5 -53t40.5 -23q37 0 126.5 56.5t211 175.5t265.5 303t296 438l231 15q-181 -296 -332 -559t-271 -501q159 101 269 200t180.5 175t110 123t54.5 47 q19 0 19 -18q0 -11 -43.5 -70.5t-128.5 -144.5t-214.5 -189.5t-300.5 -209.5q-296 -557 -549.5 -830t-434.5 -273q-194 0 -194 189zM-105 -1016q0 -127 106 -127h3q155 0 331 249.5t427 741.5q-444 -257 -655.5 -481t-211.5 -383z" />
<glyph unicode="z" horiz-adv-x="1248" d="M-141 33q0 50 45.5 91.5t132.5 91.5q192 167 377 317t367 285q-72 -19 -133.5 -32t-112.5 -13q-130 0 -209 76q-106 -133 -167 -205t-76 -91l-61 -68q-18 -23 -29 -23q-19 0 -19 12v14q0 8 4 15l40 54q65 76 135.5 161t142.5 187q-18 46 -18 64q0 54 33 86.5t90 32.5 q102 0 102 -83q0 -37 -14.5 -64t-14.5 -47q0 -26 28.5 -44.5t93.5 -18.5q126 0 202.5 35t125.5 76.5t83.5 77.5t69.5 36q53 0 51 -40q0 -54 -45 -82.5t-132 -73.5q-170 -122 -333 -248.5t-322 -263.5q98 46 174 80t140 34q65 0 106.5 -39.5t41.5 -100.5q0 -37 -13.5 -73 t-26.5 -68.5t-26 -59.5t-13 -41q0 -43 26 -43q61 0 355 289q98 98 142.5 155t62.5 57q23 0 23 -18q0 -33 -182 -217q-155 -159 -257.5 -240t-178.5 -81q-69 0 -111.5 54.5t-42.5 155.5q0 58 15 96t15 69q0 15 -26 15q-43 0 -153 -38t-212 -118q-50 -37 -84 -77.5t-60 -74.5 t-49 -54.5t-53 -20.5h-4q-46 0 -46 44z" />
<glyph unicode="{" d="M326 1125v103q159 15 259.5 45.5t161 90.5t83.5 154.5t23 235.5v409q0 181 32.5 303t112 198t211.5 108.5t334 32.5h18v-89q-148 0 -242 -26t-149.5 -83.5t-74 -150t-18.5 -229.5v-272q0 -181 -19.5 -314t-79.5 -225.5t-170.5 -150t-291.5 -90.5q181 -30 291.5 -87.5 t170.5 -150t79.5 -225.5t19.5 -318v-272q0 -137 18.5 -232t74 -151.5t149.5 -81.5t242 -25v-83h-18q-202 0 -334 32t-211.5 108t-112 197t-32.5 303v410q0 141 -23 235.5t-83.5 154.5t-161 92.5t-259.5 43.5z" />
<glyph unicode="|" d="M864 -894v3789h166v-3789h-166z" />
<glyph unicode="}" d="M329 -368q148 0 244.5 25t150 81.5t74 151.5t20.5 232v272q0 185 19.5 318t79.5 224t170 147.5t291 91.5q-181 33 -291 90.5t-170 150t-79.5 224.5t-19.5 315v272q0 137 -20.5 229.5t-74 150t-150 83.5t-244.5 26v89h19q201 0 335.5 -32.5t214 -108.5t112 -197t32.5 -304 v-409q0 -141 23 -235.5t81 -154.5t161 -90.5t262 -45.5v-103q-159 -11 -260 -43.5t-161 -92.5t-83 -155.5t-23 -234.5v-410q0 -182 -34.5 -303t-114 -197t-212 -108t-333.5 -32h-19v83z" />
<glyph unicode="~" horiz-adv-x="3154" d="M329 890v170q383 268 716 270q148 0 276.5 -39.5t258.5 -86.5q133 -50 261.5 -90.5t273.5 -40.5q170 0 340 76t375 218v-170q-192 -133 -368.5 -202.5t-346.5 -69.5q-152 0 -280.5 41.5t-254.5 86.5q-137 50 -265.5 89.5t-269.5 39.5q-170 0 -340 -74t-376 -218z" />
<glyph unicode="&#xa1;" horiz-adv-x="999" d="M37 -11l943 1395q30 46 51.5 70t48.5 24q12 0 23 -10t11 -25q0 -22 -11 -47t-30 -55l-709 -1326zM1103 1706q0 61 45 115.5t106 54.5q47 0 78 -32.5t31 -78.5q0 -61 -45 -115.5t-110 -54.5q-46 0 -75.5 32t-29.5 79z" />
<glyph unicode="&#xa2;" horiz-adv-x="1541" d="M178 398q0 116 66.5 238t178.5 222t253.5 163t292.5 63l137 228l50 -36l-126 -207q76 -26 110.5 -70t34.5 -124q0 -65 -36 -110t-90 -45q-33 0 -56.5 21t-23.5 55q0 64 34.5 100t34.5 73q0 23 -33 54l-574 -947q46 -22 89 -22q87 0 166.5 41.5t141.5 92.5t105.5 92.5 t63.5 41.5q11 0 11 -11q0 -22 -47 -76t-121 -104.5t-167.5 -90.5t-184.5 -40q-46 0 -90 15l-148 -250l-48 33l142 245q-166 120 -166 355zM364 220q0 -26 4 -51t22 -56l546 917q-113 -33 -217.5 -121t-184 -199t-125 -239.5t-45.5 -250.5z" />
<glyph unicode="&#xa3;" horiz-adv-x="2033" d="M-163 155q0 65 65 110.5t174 45.5q133 0 258 -27t256 -64q113 91 220.5 257.5t216.5 408.5h-394v58h427q205 447 408 670t438 223q109 0 177.5 -69.5t68.5 -183.5q0 -80 -22.5 -136.5t-46.5 -56.5q-18 0 -18 26q0 11 19 47t19 112q0 95 -53.5 150.5t-132.5 55.5 q-178 0 -316 -216.5t-310 -621.5h437v-58h-463q-253 -496 -571 -697q144 -54 265 -78t208 -24q117 0 206.5 47t151.5 104.5t105.5 104.5t78.5 47q11 0 11 -11t-26.5 -45t-80.5 -84q-299 -268 -514 -268q-87 0 -214 36t-299 99q-205 -130 -449 -128q-137 0 -218.5 45.5 t-81.5 120.5zM-102 159q0 -50 67.5 -86t178.5 -36q189 0 356 118q-123 43 -226.5 70.5t-208.5 27.5q-167 0 -167 -94z" />
<glyph unicode="&#xa4;" horiz-adv-x="2295" d="M174 773l383 380q-170 216 -170 484q0 269 170 485l-383 379l107 109l381 -383q220 174 487 174q268 0 488 -174l379 383l110 -109l-383 -379q170 -216 170 -485q0 -268 -170 -484l383 -380l-110 -111l-379 383q-216 -170 -488 -170q-268 0 -487 170l-381 -383zM538 1641 q0 -126 47.5 -238t130.5 -195t195 -132t242 -49q129 0 240 49t194.5 132t130.5 195t47 238t-47 237t-130.5 194t-195.5 131t-239 48q-130 0 -242 -49.5t-195 -131t-130.5 -192.5t-47.5 -237z" />
<glyph unicode="&#xa5;" horiz-adv-x="1541" d="M102 766l68 105h607l-46 232h-413l72 109h315l-137 566h166l191 -798l947 798h159l-671 -566h353l-68 -109h-413l-292 -232h553l-69 -105h-549l-488 -766h-163l485 766h-607z" />
<glyph unicode="&#xa6;" d="M864 -648v1403h166v-1403h-166zM864 1247v1402h166v-1402h-166z" />
<glyph unicode="&#xa7;" d="M22 -102q0 34 23 60.5t64 26.5q30 0 74.5 -25t102.5 -53.5t136 -52.5t177 -24q197 0 312.5 101.5t115.5 234.5q0 47 -25 130t-77 196l-191 405q-57 117 -84.5 226t-27.5 200q0 246 149.5 401.5t425.5 192.5q-30 75 -49.5 138t-19.5 128q0 117 57.5 223t154 185.5t221 125 t258.5 45.5q201 0 322.5 -58t121.5 -116q0 -33 -23.5 -58t-52.5 -25q-30 0 -72.5 22t-101 47t-134 48.5t-170.5 23.5q-201 0 -311 -90t-110 -256q0 -76 26.5 -152t69.5 -163l188 -405q113 -239 113 -424q0 -238 -148.5 -397.5t-422.5 -197.5q29 -76 48.5 -140t19.5 -125 q0 -113 -56.5 -219.5t-155.5 -187.5t-229.5 -129.5t-281.5 -48.5q-91 0 -170.5 18t-138.5 42t-93.5 59t-34.5 68zM742 1443q0 -54 19.5 -110.5t48.5 -128.5l274 -590q217 26 349 132.5t132 283.5q0 102 -68 246l-272 589q-235 -30 -359 -142.5t-124 -279.5z" />
<glyph unicode="&#xa8;" d="M807 1395q0 68 45 115.5t110 47.5q122 0 122 -126q0 -69 -43.5 -116t-111.5 -47q-122 0 -122 126zM1421 1395q0 68 47 115.5t112 47.5q116 0 118 -126q0 -69 -44 -116t-111 -47q-122 0 -122 126z" />
<glyph unicode="&#xa9;" horiz-adv-x="3113" d="M281 1254q0 257 94.5 486.5t275.5 414.5q181 182 417 280.5t493 98.5q250 0 483 -96t415 -275q177 -178 276 -416.5t99 -492.5q0 -249 -99 -482.5t-280 -419.5q-181 -182 -408.5 -278t-488.5 -96q-257 0 -486.5 96t-416.5 278q-181 181 -277.5 411t-96.5 491zM424 1254 q0 -235 86 -441t248 -369q167 -166 369.5 -250.5t430.5 -84.5q231 0 435.5 84.5t363.5 250.5q163 170 250 376.5t87 433.5q0 228 -87 443.5t-246 374.5t-367.5 244t-432.5 85q-227 0 -435 -87t-368 -249q-162 -167 -248 -373t-86 -438zM799 1228q0 174 57.5 322t155.5 255.5 t230.5 168.5t280.5 61q83 0 149.5 -19.5t117.5 -43.5t89 -43.5t69 -19.5q102 0 120 115h58v-570h-69q-122 507 -527 509q-235 0 -356 -175t-121 -523q0 -708 512 -708q329 0 531 318l56 -37q-210 -383 -622 -383q-152 0 -284 60t-232 164.5t-157.5 247t-57.5 301.5z" />
<glyph unicode="&#xaa;" horiz-adv-x="1121" d="M-22 2357q0 22 131 148q144 133 279.5 195t233.5 62q72 0 111.5 -34t39.5 -88q0 -22 -11 -56l117 160l185 11l-309 -463q-50 -68 -78.5 -117t-28.5 -88q0 -43 42 -41q80 0 307 224q65 57 91 88.5t40 31.5q15 0 15 -7q0 -30 -127 -152q-113 -105 -195.5 -166t-161.5 -61 q-117 0 -117 129q0 19 3.5 45.5t11.5 56.5q-196 -231 -355 -231q-76 0 -122.5 68t-46.5 202q0 50 21 124q-30 -54 -61 -52q-15 0 -15 11zM155 2133q0 -83 69 -83q42 0 111.5 41.5t149.5 124.5q125 130 183.5 239t58.5 185q0 33 -26 59t-68 26q-65 0 -146.5 -53.5 t-164.5 -162.5q-87 -113 -127 -214t-40 -162z" />
<glyph unicode="&#xab;" horiz-adv-x="1165" d="M220 572l526 390q37 26 57 28q37 0 39 -35q0 -19 -12 -28t-31 -30l-409 -348l126 -397q11 -30 11 -47q0 -42 -31 -40q-34 0 -59 57zM579 572l527 390q37 26 58 28q33 0 33 -35q0 -19 -9 -28l-28 -30l-414 -348l129 -397q11 -30 11 -47q0 -42 -33 -40q-30 0 -57 57z" />
<glyph unicode="&#xac;" horiz-adv-x="3154" d="M470 1436v148h2216v-929h-148v781h-2068z" />
<glyph unicode="&#xad;" horiz-adv-x="1348" d="M213 466l79 167h883l-80 -167h-882z" />
<glyph unicode="&#xae;" horiz-adv-x="3113" d="M281 1254q0 257 94.5 486.5t275.5 414.5q181 182 417 280.5t493 98.5q250 0 483 -96t415 -275q177 -178 276 -416.5t99 -492.5q0 -249 -99 -482.5t-280 -419.5q-181 -182 -408.5 -278t-488.5 -96q-257 0 -486.5 96t-416.5 278q-181 181 -277.5 411t-96.5 491zM424 1254 q0 -235 86 -441t248 -369q167 -166 369.5 -250.5t430.5 -84.5q231 0 435.5 84.5t363.5 250.5q163 170 250 376.5t87 433.5q0 228 -87 443.5t-246 374.5t-367.5 244t-432.5 85q-227 0 -435 -87t-368 -249q-162 -167 -248 -373t-86 -438zM868 542v72q140 4 196.5 42t56.5 147 v947q0 109 -56.5 150t-196.5 44v67h723q281 0 433 -98t152 -265q0 -144 -133.5 -229t-405.5 -139q174 -57 261 -147.5t130 -250.5q14 -53 20 -102t17 -87t30.5 -60.5t56.5 -22.5q75 0 109.5 56.5t38.5 182.5h68v-15q0 -325 -278 -327q-181 0 -229 129q-18 50 -24.5 103 t-8.5 104t-4 99t-13 88q-42 126 -142 180.5t-270 54.5q-19 0 -36.5 -1.5t-36.5 -1.5v-459q0 -109 56.5 -147t197.5 -42v-72h-712zM1326 1326q34 -3 65 -3h59q239 0 363 83t124 242q0 134 -102.5 220.5t-300.5 86.5q-209 0 -208 -140v-489z" />
<glyph unicode="&#xaf;" d="M792 1375v13l22 83q11 42 61 40h788q54 0 54 -40v-8l-24 -85q-11 -42 -59 -40h-789q-53 0 -53 37z" />
<glyph unicode="&#x2c9;" d="M792 1375v13l22 83q11 42 61 40h788q54 0 54 -40v-8l-24 -85q-11 -42 -59 -40h-789q-53 0 -53 37z" />
<glyph unicode="&#xb0;" horiz-adv-x="1245" d="M117 2176q0 105 39.5 197.5t108 161t162 108t198.5 39.5q102 0 195.5 -39.5t161 -108t107 -161t39.5 -197.5q0 -102 -39.5 -195.5t-107 -162t-161 -108t-198.5 -39.5q-106 0 -199.5 39.5t-162 108t-106 160t-37.5 197.5zM231 2176q0 -84 30.5 -156t85 -125.5t127 -83 t151.5 -29.5q84 0 156 29.5t124.5 85t83 127.5t30.5 152q0 83 -30.5 154t-85 125t-126.5 84.5t-152 30.5q-166 0 -280 -114t-114 -280z" />
<glyph unicode="&#xb1;" horiz-adv-x="3154" d="M470 113v148h2216v-148h-2216zM470 1345v148h1034v655h148v-655h1034v-148h-1034v-651h-148v651h-1034z" />
<glyph unicode="&#xb2;" horiz-adv-x="1017" d="M-15 738q0 46 81.5 152.5t277.5 230.5q98 65 199 121.5t188 141.5q83 76 123 154.5t40 124.5q0 57 -45.5 95t-117.5 38q-76 0 -148 -26.5t-125 -70t-85.5 -98t-32.5 -112.5q0 -37 25 -63.5t55 -26.5q144 0 270 199q26 47 37 81t31 34q19 0 19 -35q0 -54 -27 -114 t-72 -109t-106 -81.5t-128 -32.5q-68 0 -106 38t-38 99q0 65 38 127t100 113t147 83t181 32q126 0 193.5 -62t67.5 -161q0 -106 -91 -208.5t-277 -189.5q-84 -37 -159.5 -67.5t-143 -65t-125 -76t-94.5 -98.5q122 94 224 96q61 0 100 -28.5t50 -71.5q7 -30 11.5 -66 t45.5 -36q68 0 194 137q43 46 67 74t35 28q7 0 7 -19q0 -26 -75 -101q-87 -87 -155.5 -139t-155.5 -52q-106 0 -133 76q-8 26 -8 49t-3.5 40.5t-13 28.5t-35.5 11q-33 0 -83 -25t-100 -69q-50 -50 -70.5 -84t-34.5 -34q-19 0 -19 18z" />
<glyph unicode="&#xb3;" horiz-adv-x="1017" d="M61 921q0 61 30.5 96.5t78.5 35.5q80 0 80 -80q0 -33 -18.5 -50.5t-40 -25t-40 -15t-18.5 -22.5q0 -29 41.5 -58t110.5 -29q159 0 305 178q61 68 90 124.5t29 95.5q0 94 -102 94q-61 0 -104.5 -26.5t-71.5 -26.5q-22 0 -22 16q0 30 64.5 50.5t166.5 81.5q285 170 285 322 q0 53 -41.5 80t-110.5 27q-61 0 -119 -21.5t-106 -53.5t-76 -74t-28 -82q0 -72 76 -72q42 0 104 36t107 100q33 47 37.5 71t23.5 24q11 0 11 -15q0 -57 -24 -106t-62 -85.5t-90 -59.5t-100 -23q-57 0 -91.5 30.5t-34.5 84.5q0 50 34.5 102.5t91 92.5t132 66t159.5 26 q105 0 168 -49t63 -125q0 -213 -439 -352h19q98 0 151.5 -48t53.5 -135q0 -65 -32 -130.5t-101 -119.5q-79 -72 -187.5 -111.5t-195.5 -39.5q-122 0 -189.5 57t-67.5 144z" />
<glyph unicode="&#xb4;" d="M1038 1149q0 18 29 37l73 50q46 29 100.5 76.5t108.5 123.5q33 50 54 108t44.5 108t51 81.5t81.5 31.5t83.5 -29.5t29.5 -83.5q0 -91 -87 -195.5t-261 -205.5q-102 -61 -168.5 -95.5t-107.5 -34.5q-31 2 -31 28z" />
<glyph unicode="&#xb5;" horiz-adv-x="1942" d="M-91 -655q0 98 85.5 425.5t207.5 904.5l199 962h221l-206 -958q-15 -72 -15 -163q0 -181 87 -285.5t224 -104.5q372 0 516 620l204 891h220l-216 -975q-50 -224 -48 -329q0 -174 138 -174q76 0 141 49t102 140q53 129 74.5 203t62.5 74q49 0 49 -57q0 -43 -23 -139 t-75 -187q-148 -268 -390 -268q-265 0 -266 322q0 15 1.5 29.5t1.5 31.5q-159 -394 -499 -394q-352 0 -405 389q-47 -285 -65.5 -494.5t-37.5 -348t-53.5 -209t-106.5 -70.5q-57 0 -92.5 34.5t-35.5 80.5z" />
<glyph unicode="&#x3bc;" horiz-adv-x="1942" d="M-91 -655q0 98 85.5 425.5t207.5 904.5l199 962h221l-206 -958q-15 -72 -15 -163q0 -181 87 -285.5t224 -104.5q372 0 516 620l204 891h220l-216 -975q-50 -224 -48 -329q0 -174 138 -174q76 0 141 49t102 140q53 129 74.5 203t62.5 74q49 0 49 -57q0 -43 -23 -139 t-75 -187q-148 -268 -390 -268q-265 0 -266 322q0 15 1.5 29.5t1.5 31.5q-159 -394 -499 -394q-352 0 -405 389q-47 -285 -65.5 -494.5t-37.5 -348t-53.5 -209t-106.5 -70.5q-57 0 -92.5 34.5t-35.5 80.5z" />
<glyph unicode="&#xb6;" d="M166 2090q0 141 51 260.5t146.5 204.5t231.5 133t302 48h827v-118h-238v-2618h-130v2618h-355v-2618h-130v1447q-333 15 -519 190.5t-186 452.5z" />
<glyph unicode="&#xb7;" horiz-adv-x="771" d="M364 905q0 61 42 100.5t97 39.5q54 0 95.5 -39.5t41.5 -100.5q0 -58 -39.5 -96.5t-97.5 -38.5q-61 0 -100 38.5t-39 96.5z" />
<glyph unicode="&#x2219;" horiz-adv-x="771" d="M364 905q0 61 42 100.5t97 39.5q54 0 95.5 -39.5t41.5 -100.5q0 -58 -39.5 -96.5t-97.5 -38.5q-61 0 -100 38.5t-39 96.5z" />
<glyph unicode="&#xb8;" d="M133 -546q0 19 33 19q26 0 66 -13t95.5 -29.5t127.5 -30.5t159 -14q109 0 179.5 57t70.5 133q0 84 -49 115t-156 31q-26 0 -113 -18l-22 76q94 54 214 54q281 0 281 -235q0 -134 -104.5 -219t-285.5 -85q-105 0 -197 21.5t-157.5 47.5t-103.5 52.5t-38 37.5z" />
<glyph unicode="&#xb9;" horiz-adv-x="778" d="M122 1201q0 18 96 79t278 209q205 170 295.5 255.5t109.5 85.5q22 0 24 -11q0 -26 -31 -80l-554 -984l-203 -24l647 943q-296 -250 -458.5 -369t-192.5 -119q-11 0 -11 15z" />
<glyph unicode="&#xba;" horiz-adv-x="941" d="M-18 2357q0 18 116 137q137 140 267.5 207.5t233.5 67.5q87 0 140 -52.5t53 -139.5q0 -76 -40 -153.5t-116 -164.5q30 -8 47 -8q50 0 112 26t123 87l37 41q7 7 22 9q11 0 13 -16q0 -12 -6 -15l-29 -33q-61 -69 -137 -103t-152 -34h-31q-17 0 -36 3q-101 -109 -200 -160.5 t-175 -51.5q-87 0 -139 70t-52 203q0 58 24 121q-42 -54 -64 -52q-11 0 -11 11zM159 2140q0 -94 87 -94q43 0 114 38t156 121q98 98 149 202.5t51 184.5q0 133 -106 133q-129 0 -292 -216q-87 -113 -123 -208.5t-36 -160.5z" />
<glyph unicode="&#xbb;" horiz-adv-x="1165" d="M-43 98q0 19 12.5 29t30.5 28l409 348l-124 398q-11 26 -13 46q0 43 31 43q30 0 61 -58l215 -451l-525 -390q-19 -11 -31 -18.5t-27 -7.5q-39 0 -39 33zM318 98q0 19 11 29t32 28l409 348l-126 398q-11 26 -11 46q0 43 29 43q30 0 61 -58l217 -451l-527 -390 q-19 -11 -30 -18.5t-26 -7.5q-39 0 -39 33z" />
<glyph unicode="&#xbc;" horiz-adv-x="2325" d="M98 -50l1826 1883h100l-1822 -1883h-104zM113 1243q0 15 95 71.5t266 196.5q192 156 281.5 237.5t104.5 81.5q19 0 19 -11q0 -12 -5.5 -33t-16.5 -40l-531 -921l-196 -22l616 879q-282 -232 -436.5 -343t-183.5 -111q-13 0 -13 15zM1428 192q0 12 41.5 61.5t115.5 146 t170.5 242.5t211.5 351l209 15q-189 -257 -353 -441t-289 -317q26 7 47 11t41 4q54 0 112.5 -7.5t126.5 -18.5q185 249 283 376t130 127q14 0 14 -15q0 -18 -79.5 -134t-201.5 -354q91 7 137 47t65 40q15 0 15 -15q0 -8 -22.5 -31t-68.5 -49q-65 -37 -144 -39h-11 q-37 -61 -91 -185l-216 -18l155 213q-61 7 -110 12.5t-90 5.5q-87 0 -119.5 -21t-52.5 -21q-26 0 -26 14z" />
<glyph unicode="&#xbd;" horiz-adv-x="2347" d="M98 -50l1826 1883h100l-1822 -1883h-104zM113 1243q0 15 95 71.5t266 196.5q192 156 281.5 237.5t104.5 81.5q19 0 19 -11q0 -12 -5.5 -33t-16.5 -40l-531 -921l-196 -22l616 879q-282 -232 -436.5 -343t-183.5 -111q-13 0 -13 15zM1363 7q0 43 78 141t268 216 q91 62 189 116.5t181 129.5q76 73 114 147t38 114q0 54 -41.5 90t-113.5 36t-140 -26.5t-119.5 -68.5t-81 -93t-29.5 -104q0 -33 22 -56.5t54 -23.5q133 0 253 182q30 42 39 74.5t29 32.5q15 0 15 -28q0 -54 -25 -108.5t-68.5 -99.5t-100 -75.5t-120.5 -30.5q-65 0 -103 34 t-38 91q0 61 36 119.5t97 105.5t142.5 77.5t172.5 30.5q116 0 183 -58t67 -151q0 -98 -87 -194t-267 -176q-159 -72 -289.5 -127.5t-206.5 -160.5q113 90 213 90q54 0 93.5 -25.5t50.5 -68.5q8 -29 11.5 -61.5t44.5 -32.5q61 0 183 124q43 46 65 73t30 27q11 0 11 -21 q0 -22 -76 -98q-80 -79 -146.5 -126.5t-149.5 -47.5q-98 0 -124 72q-8 23 -8 44t-3.5 37.5t-12 26t-34.5 9.5q-33 0 -81 -22t-92 -65q-50 -42 -68.5 -75.5t-33.5 -33.5q-21 0 -21 18z" />
<glyph unicode="&#xbe;" horiz-adv-x="2553" d="M57 980q0 58 28 92t78 34q76 0 76 -76q0 -33 -17 -48.5t-40 -23t-39.5 -15t-16.5 -22.5q0 -26 39.5 -51t102.5 -25q156 0 296 163q58 65 84.5 117.5t26.5 89.5q0 87 -96 89q-61 0 -101.5 -26.5t-68.5 -26.5q-19 0 -19 18q0 26 60.5 47.5t159.5 74.5q137 80 203 157.5 t66 144.5q0 94 -141 96q-57 0 -113.5 -19.5t-100 -50t-72 -68.5t-28.5 -75q0 -68 72 -68q42 0 100.5 32t104.5 94q30 46 31.5 68t22.5 22q11 0 11 -15q0 -53 -23 -98.5t-61 -79.5t-83.5 -55.5t-95.5 -21.5q-122 0 -120 104q0 50 32.5 97t87 87t126.5 64t152 24 q98 0 159 -45.5t61 -121.5q0 -196 -418 -325h20q94 0 143.5 -45.5t49.5 -125.5q0 -129 -126 -235q-76 -64 -178 -102t-189 -38q-112 0 -179 52.5t-67 135.5zM322 -50l1826 1883h98l-1822 -1883h-102zM1652 192q0 12 41.5 61.5t115.5 146t170.5 242.5t210.5 351l208 15 q-189 -257 -352 -441t-288 -317q25 7 46.5 11t39.5 4q54 0 113 -7.5t126 -18.5q185 249 284 376t131 127q14 0 14 -15q0 -18 -79.5 -134t-201.5 -354q91 7 137 47t65 40q15 0 15 -15q0 -8 -23.5 -31t-67.5 -49q-65 -37 -144 -39h-11q-38 -61 -91 -185l-217 -18l156 213 q-61 7 -110 12.5t-92 5.5q-87 0 -118.5 -21t-51.5 -21q-26 0 -26 14z" />
<glyph unicode="&#xbf;" horiz-adv-x="1233" d="M76 357q0 141 66.5 244.5t201.5 201.5q57 42 124 80t139 81.5t145 94.5t142 119q68 69 109.5 125.5t68.5 100t43.5 68.5t37.5 25q22 0 22 -30q0 -22 -70.5 -146t-240.5 -302q-102 -105 -208.5 -198.5t-195 -189.5t-146 -202.5t-57.5 -239.5q0 -65 45.5 -105.5 t137.5 -40.5q76 0 145.5 29.5t123 69t85 81.5t31.5 66q0 18 -22 29t-47 28.5t-47.5 42t-22.5 70.5q0 57 36 94t85 37q57 0 98.5 -45t41.5 -118q0 -83 -43.5 -162.5t-117.5 -141.5t-168 -100t-194 -38q-159 0 -253.5 101t-94.5 271zM1143 1717q0 61 46.5 117.5t105.5 56.5 q46 0 76.5 -32.5t30.5 -76.5q0 -62 -43.5 -117t-107.5 -55q-47 0 -77.5 30.5t-30.5 76.5z" />
<glyph unicode="&#xc0;" horiz-adv-x="3322" d="M126 401q0 123 58 196t145 73q65 0 114 -47.5t49 -115.5q0 -69 -30.5 -102t-67.5 -50.5t-67.5 -30.5t-30.5 -39q0 -43 30.5 -82.5t85 -72t128.5 -53t161 -20.5q474 0 944 459q-272 206 -407 419.5t-135 427.5q0 137 49 251t136 199t202.5 132t248.5 47 q257 0 461.5 -139.5t330.5 -405.5q311 344 578 583.5t471.5 383t340.5 208t182 64.5q23 0 23 -11q0 -15 -38 -63t-110.5 -137t-170.5 -224.5t-220 -330.5q-205 -325 -410.5 -732t-425.5 -903q163 15 275 60t184 96t110 91t56 40q8 0 8 -15q0 -72 -195 -189 q-212 -129 -460 -140l-58 -130q-18 -46 -37.5 -70t-56.5 -28l-179 -18h-26q-30 0 -30 25q0 11 19 61l72 174q-379 34 -735 239q-272 -246 -522.5 -369t-500.5 -123q-126 0 -226.5 32.5t-172 88.5t-111 130t-39.5 161zM1258 1291q0 -242 121 -423.5t310 -314.5 q220 189 415.5 403.5t385.5 445.5q-98 239 -269 364t-388 125q-125 0 -230.5 -45.5t-181.5 -125t-119.5 -189.5t-43.5 -240zM1739 524q189 -110 365.5 -167t346.5 -72q69 144 99.5 305t30.5 342q0 110 -19.5 210.5t-52.5 202.5q-189 -217 -373 -425t-397 -396zM2557 1399 q79 -285 79 -524q0 -141 -22 -279q278 579 609 1073t762 919q-217 -94 -403.5 -227.5t-360.5 -290.5t-337.5 -327.5t-326.5 -343.5zM3750 3429q0 69 32 112.5t90 43.5q109 0 109 -133v-111q0 -87 27 -153t61 -116t60 -79.5t26 -45.5q0 -26 -26 -26q-30 0 -92.5 52.5 t-125.5 130.5t-112 167.5t-49 157.5z" />
<glyph unicode="&#xc1;" horiz-adv-x="3322" d="M126 401q0 123 58 196t145 73q65 0 114 -47.5t49 -115.5q0 -69 -30.5 -102t-67.5 -50.5t-67.5 -30.5t-30.5 -39q0 -43 30.5 -82.5t85 -72t128.5 -53t161 -20.5q474 0 944 459q-272 206 -407 419.5t-135 427.5q0 137 49 251t136 199t202.5 132t248.5 47 q257 0 461.5 -139.5t330.5 -405.5q311 344 578 583.5t471.5 383t340.5 208t182 64.5q23 0 23 -11q0 -15 -38 -63t-110.5 -137t-170.5 -224.5t-220 -330.5q-205 -325 -410.5 -732t-425.5 -903q163 15 275 60t184 96t110 91t56 40q8 0 8 -15q0 -72 -195 -189 q-212 -129 -460 -140l-58 -130q-18 -46 -37.5 -70t-56.5 -28l-179 -18h-26q-30 0 -30 25q0 11 19 61l72 174q-379 34 -735 239q-272 -246 -522.5 -369t-500.5 -123q-126 0 -226.5 32.5t-172 88.5t-111 130t-39.5 161zM1258 1291q0 -242 121 -423.5t310 -314.5 q220 189 415.5 403.5t385.5 445.5q-98 239 -269 364t-388 125q-125 0 -230.5 -45.5t-181.5 -125t-119.5 -189.5t-43.5 -240zM1739 524q189 -110 365.5 -167t346.5 -72q69 144 99.5 305t30.5 342q0 110 -19.5 210.5t-52.5 202.5q-189 -217 -373 -425t-397 -396zM2557 1399 q79 -285 79 -524q0 -141 -22 -279q278 579 609 1073t762 919q-217 -94 -403.5 -227.5t-360.5 -290.5t-337.5 -327.5t-326.5 -343.5zM3822 2956q0 18 29 37l73 50q46 29 100.5 76.5t108.5 123.5q33 50 54 108t44.5 108t51 81.5t81.5 31.5t83.5 -29.5t29.5 -83.5 q0 -91 -87 -195.5t-261 -205.5q-102 -61 -168.5 -95.5t-107.5 -34.5q-31 2 -31 28z" />
<glyph unicode="&#xc2;" horiz-adv-x="3322" d="M126 401q0 123 58 196t145 73q65 0 114 -47.5t49 -115.5q0 -69 -30.5 -102t-67.5 -50.5t-67.5 -30.5t-30.5 -39q0 -43 30.5 -82.5t85 -72t128.5 -53t161 -20.5q474 0 944 459q-272 206 -407 419.5t-135 427.5q0 137 49 251t136 199t202.5 132t248.5 47 q257 0 461.5 -139.5t330.5 -405.5q311 344 578 583.5t471.5 383t340.5 208t182 64.5q23 0 23 -11q0 -15 -38 -63t-110.5 -137t-170.5 -224.5t-220 -330.5q-205 -325 -410.5 -732t-425.5 -903q163 15 275 60t184 96t110 91t56 40q8 0 8 -15q0 -72 -195 -189 q-212 -129 -460 -140l-58 -130q-18 -46 -37.5 -70t-56.5 -28l-179 -18h-26q-30 0 -30 25q0 11 19 61l72 174q-379 34 -735 239q-272 -246 -522.5 -369t-500.5 -123q-126 0 -226.5 32.5t-172 88.5t-111 130t-39.5 161zM1258 1291q0 -242 121 -423.5t310 -314.5 q220 189 415.5 403.5t385.5 445.5q-98 239 -269 364t-388 125q-125 0 -230.5 -45.5t-181.5 -125t-119.5 -189.5t-43.5 -240zM1739 524q189 -110 365.5 -167t346.5 -72q69 144 99.5 305t30.5 342q0 110 -19.5 210.5t-52.5 202.5q-189 -217 -373 -425t-397 -396zM2557 1399 q79 -285 79 -524q0 -141 -22 -279q278 579 609 1073t762 919q-217 -94 -403.5 -227.5t-360.5 -290.5t-337.5 -327.5t-326.5 -343.5zM3459 2985q0 34 62 70t192 115q253 160 370.5 258.5t143.5 98.5q37 0 50 -42l129 -450q8 -29 8 -50q0 -37 -32 -38q-42 0 -86.5 84 t-123.5 250l-444 -234q-182 -95 -221 -97q-48 2 -48 35z" />
<glyph unicode="&#xc3;" horiz-adv-x="3322" d="M126 401q0 123 58 196t145 73q65 0 114 -47.5t49 -115.5q0 -69 -30.5 -102t-67.5 -50.5t-67.5 -30.5t-30.5 -39q0 -43 30.5 -82.5t85 -72t128.5 -53t161 -20.5q474 0 944 459q-272 206 -407 419.5t-135 427.5q0 137 49 251t136 199t202.5 132t248.5 47 q257 0 461.5 -139.5t330.5 -405.5q311 344 578 583.5t471.5 383t340.5 208t182 64.5q23 0 23 -11q0 -15 -38 -63t-110.5 -137t-170.5 -224.5t-220 -330.5q-205 -325 -410.5 -732t-425.5 -903q163 15 275 60t184 96t110 91t56 40q8 0 8 -15q0 -72 -195 -189 q-212 -129 -460 -140l-58 -130q-18 -46 -37.5 -70t-56.5 -28l-179 -18h-26q-30 0 -30 25q0 11 19 61l72 174q-379 34 -735 239q-272 -246 -522.5 -369t-500.5 -123q-126 0 -226.5 32.5t-172 88.5t-111 130t-39.5 161zM1258 1291q0 -242 121 -423.5t310 -314.5 q220 189 415.5 403.5t385.5 445.5q-98 239 -269 364t-388 125q-125 0 -230.5 -45.5t-181.5 -125t-119.5 -189.5t-43.5 -240zM1739 524q189 -110 365.5 -167t346.5 -72q69 144 99.5 305t30.5 342q0 110 -19.5 210.5t-52.5 202.5q-189 -217 -373 -425t-397 -396zM2557 1399 q79 -285 79 -524q0 -141 -22 -279q278 579 609 1073t762 919q-217 -94 -403.5 -227.5t-360.5 -290.5t-337.5 -327.5t-326.5 -343.5zM3515 3047q0 29 23 83.5t63 110t98 97t127 41.5q57 0 115 -23t117.5 -47t116 -47t109.5 -23q58 0 92 28.5t58 63t43.5 62t41.5 27.5 q37 0 37 -26q0 -29 -22 -84.5t-62 -110t-99 -96.5t-126 -42q-57 0 -116 22.5t-117.5 47.5t-116 48t-108.5 23q-58 0 -92 -28.5t-61 -63t-45.5 -63t-40.5 -28.5q-35 2 -35 28z" />
<glyph unicode="&#xc4;" horiz-adv-x="3322" d="M126 401q0 123 58 196t145 73q65 0 114 -47.5t49 -115.5q0 -69 -30.5 -102t-67.5 -50.5t-67.5 -30.5t-30.5 -39q0 -43 30.5 -82.5t85 -72t128.5 -53t161 -20.5q474 0 944 459q-272 206 -407 419.5t-135 427.5q0 137 49 251t136 199t202.5 132t248.5 47 q257 0 461.5 -139.5t330.5 -405.5q311 344 578 583.5t471.5 383t340.5 208t182 64.5q23 0 23 -11q0 -15 -38 -63t-110.5 -137t-170.5 -224.5t-220 -330.5q-205 -325 -410.5 -732t-425.5 -903q163 15 275 60t184 96t110 91t56 40q8 0 8 -15q0 -72 -195 -189 q-212 -129 -460 -140l-58 -130q-18 -46 -37.5 -70t-56.5 -28l-179 -18h-26q-30 0 -30 25q0 11 19 61l72 174q-379 34 -735 239q-272 -246 -522.5 -369t-500.5 -123q-126 0 -226.5 32.5t-172 88.5t-111 130t-39.5 161zM1258 1291q0 -242 121 -423.5t310 -314.5 q220 189 415.5 403.5t385.5 445.5q-98 239 -269 364t-388 125q-125 0 -230.5 -45.5t-181.5 -125t-119.5 -189.5t-43.5 -240zM1739 524q189 -110 365.5 -167t346.5 -72q69 144 99.5 305t30.5 342q0 110 -19.5 210.5t-52.5 202.5q-189 -217 -373 -425t-397 -396zM2557 1399 q79 -285 79 -524q0 -141 -22 -279q278 579 609 1073t762 919q-217 -94 -403.5 -227.5t-360.5 -290.5t-337.5 -327.5t-326.5 -343.5zM3591 3202q0 68 45 115.5t110 47.5q122 0 122 -126q0 -69 -43.5 -116t-111.5 -47q-122 0 -122 126zM4205 3202q0 68 47 115.5t112 47.5 q116 0 118 -126q0 -69 -44 -116t-111 -47q-122 0 -122 126z" />
<glyph unicode="&#xc5;" horiz-adv-x="3322" d="M126 401q0 123 58 196t145 73q65 0 114 -47.5t49 -115.5q0 -69 -30.5 -102t-67.5 -50.5t-67.5 -30.5t-30.5 -39q0 -43 30.5 -82.5t85 -72t128.5 -53t161 -20.5q474 0 944 459q-272 206 -407 419.5t-135 427.5q0 137 49 251t136 199t202.5 132t248.5 47 q257 0 461.5 -139.5t330.5 -405.5q311 344 578 583.5t471.5 383t340.5 208t182 64.5q23 0 23 -11q0 -15 -38 -63t-110.5 -137t-170.5 -224.5t-220 -330.5q-205 -325 -410.5 -732t-425.5 -903q163 15 275 60t184 96t110 91t56 40q8 0 8 -15q0 -72 -195 -189 q-212 -129 -460 -140l-58 -130q-18 -46 -37.5 -70t-56.5 -28l-179 -18h-26q-30 0 -30 25q0 11 19 61l72 174q-379 34 -735 239q-272 -246 -522.5 -369t-500.5 -123q-126 0 -226.5 32.5t-172 88.5t-111 130t-39.5 161zM1258 1291q0 -242 121 -423.5t310 -314.5 q220 189 415.5 403.5t385.5 445.5q-98 239 -269 364t-388 125q-125 0 -230.5 -45.5t-181.5 -125t-119.5 -189.5t-43.5 -240zM1739 524q189 -110 365.5 -167t346.5 -72q69 144 99.5 305t30.5 342q0 110 -19.5 210.5t-52.5 202.5q-189 -217 -373 -425t-397 -396zM2557 1399 q79 -285 79 -524q0 -141 -22 -279q278 579 609 1073t762 919q-217 -94 -403.5 -227.5t-360.5 -290.5t-337.5 -327.5t-326.5 -343.5zM3933 3130q0 133 94.5 227.5t227.5 94.5q137 0 229.5 -95t92.5 -227q0 -133 -94.5 -227.5t-227.5 -94.5t-227.5 94.5t-94.5 227.5z M4039 3130q0 -94 62.5 -157t157.5 -63q90 0 155 62t65 158q0 91 -65 154.5t-155 63.5q-95 0 -157.5 -61.5t-62.5 -156.5z" />
<glyph unicode="&#xc6;" horiz-adv-x="4401" d="M126 401q0 123 58 196t145 73q65 0 114 -47.5t49 -115.5q0 -69 -30.5 -102t-67.5 -50.5t-67.5 -30.5t-30.5 -39q0 -43 30.5 -82.5t85 -72t128.5 -53t161 -20.5q474 0 944 459q-272 206 -407 419.5t-135 427.5q0 137 49 251t136 199t202.5 132t248.5 47 q257 0 461.5 -139.5t330.5 -405.5q586 651 914.5 960t376.5 309q11 0 13 -26q0 -19 -52 -105.5t-140.5 -252.5t-204 -413.5t-245.5 -580.5q254 144 570 220q-87 64 -133.5 144t-46.5 163q0 348 369 620q162 122 323 181t295 59q188 0 296.5 -101t108.5 -282 q0 -116 -47.5 -221t-127 -182.5t-178.5 -123.5t-200 -46q-106 0 -176.5 64.5t-70.5 173.5q0 91 49.5 171.5t114 138.5t128.5 90.5t95 32.5q22 0 22 -11q0 -15 -50.5 -49t-110 -89.5t-110.5 -133.5t-51 -179q0 -76 47.5 -119.5t119.5 -43.5q79 0 166 43.5t159.5 115.5 t119.5 166.5t47 197.5q0 160 -87 245t-242 85q-134 0 -277 -81.5t-284 -240.5q-137 -159 -204.5 -322t-67.5 -270q0 -83 33.5 -126.5t75.5 -43.5h87q209 0 209 -73q0 -18 -30.5 -35.5t-83.5 -17.5q-84 0 -136.5 23t-91.5 23q-46 0 -168 -36t-256 -116q-105 -64 -192 -158.5 t-150 -206.5t-97 -233t-34 -238q0 -216 125 -344.5t330 -128.5q141 0 296 73t302 217q140 137 208.5 281t68.5 265q0 113 -63 185t-161 72q-113 0 -274 -130.5t-290 -387.5q-43 -83 -63 -153.5t-31.5 -119.5t-19.5 -76t-23 -27q-18 0 -18 69q0 189 60 354.5t155 286.5 t214.5 190.5t239.5 69.5q159 0 249 -91t90 -235q0 -253 -259 -542q-330 -364 -753 -362q-213 0 -354.5 86.5t-206.5 249.5l-76 -220q-33 -94 -94 -98l-179 -18h-26q-30 0 -30 25q0 11 19 61l72 174q-379 34 -735 239q-272 -246 -522.5 -369t-500.5 -123q-126 0 -226.5 32.5 t-172 88.5t-111 130t-39.5 161zM1258 1291q0 -246 121 -423.5t306 -310.5q145 109 343.5 318t461.5 527q-98 239 -269 364t-388 125q-125 0 -230.5 -45.5t-181.5 -125t-119.5 -189.5t-43.5 -240zM1739 524q189 -110 365.5 -167t346.5 -72q69 144 99.5 305t30.5 342 q0 110 -19.5 210.5t-52.5 202.5q-189 -217 -373 -425t-397 -396zM2557 1399q79 -285 79 -524q0 -141 -22 -279q352 754 633 1252t492 762q-217 -170 -504.5 -475t-677.5 -736z" />
<glyph unicode="&#xc7;" horiz-adv-x="2199" d="M7 1132q0 26 139 53t411 91q50 84 119.5 188.5t162.5 218t218 235t284 241.5q196 148 387.5 254.5t366.5 175t320 102.5t249 34q130 0 204.5 -63t74.5 -153q0 -607 -2053 -1210q-98 -202 -143.5 -409t-45.5 -379q0 -228 104.5 -346.5t300.5 -118.5q152 0 311 64t303 186 q167 144 252 305t85 281q0 110 -58 182t-158 72q-80 0 -163 -40t-164.5 -113t-153.5 -179.5t-128 -239.5q-61 -144 -75 -233t-43 -89q-26 0 -26 65q0 193 56.5 362t151.5 296t222 199t264 72q155 0 242 -93.5t87 -252.5q0 -137 -87 -305.5t-266 -323.5q-160 -141 -345 -210 t-379 -69q-281 0 -445.5 181t-164.5 488q0 145 30.5 283.5t87.5 280.5q-205 -46 -328 -73.5t-168 -27.5q-39 0 -39 18zM914 1367q492 137 861 285t617 293t372 284t124 265q0 87 -57.5 134t-166.5 47q-83 0 -212.5 -32.5t-282.5 -99t-320 -168t-326 -242.5 q-193 -170 -346.5 -359.5t-262.5 -406.5zM118 -546q0 19 33 19q26 0 66 -13t95.5 -29.5t127.5 -30.5t159 -14q109 0 179.5 57t70.5 133q0 84 -49 115t-156 31q-26 0 -113 -18l-22 76q94 54 214 54q281 0 281 -235q0 -134 -104.5 -219t-285.5 -85q-105 0 -197 21.5 t-157.5 47.5t-103.5 52.5t-38 37.5z" />
<glyph unicode="&#xc8;" d="M163 549q0 156 72 311.5t211.5 291.5t343 242t464.5 164q-87 64 -132 144t-45 163q0 348 366 620q163 122 324 181t294 59q189 0 297 -101t108 -282q0 -116 -47 -221t-126.5 -182.5t-178 -123.5t-201.5 -46q-106 0 -176 64.5t-70 173.5q0 91 49 171.5t113.5 138.5 t129.5 90.5t95 32.5q22 0 22 -11q0 -15 -51 -49t-109.5 -89.5t-110 -133.5t-51.5 -179q0 -76 47 -119.5t119 -43.5q80 0 168 43.5t159 115.5t119 166.5t48 197.5q0 160 -88 245t-243 85q-133 0 -276.5 -81.5t-283.5 -240.5q-137 -159 -204.5 -322t-67.5 -270 q0 -83 34 -126.5t75 -43.5h87q209 0 209 -73q0 -18 -30.5 -35.5t-82.5 -17.5q-83 0 -138.5 23t-89.5 23q-53 0 -169 -34t-241 -114q-109 -68 -196 -164.5t-148 -208.5t-95.5 -235t-34.5 -241q0 -213 117.5 -338.5t319.5 -125.5q299 0 603 294q140 137 207.5 279t67.5 263 q0 113 -62 185t-161 72q-113 0 -274 -130.5t-291 -387.5q-42 -83 -62.5 -153.5t-31.5 -119.5t-18.5 -76t-24.5 -27q-18 0 -18 69q0 189 61 354.5t155.5 286.5t213.5 190.5t241 69.5q160 0 248.5 -91t88.5 -235q0 -253 -257 -542q-163 -181 -354.5 -271.5t-396.5 -90.5 q-144 0 -261.5 41.5t-203 115.5t-130.5 179.5t-45 230.5zM2026 3429q0 69 32 112.5t90 43.5q109 0 109 -133v-111q0 -87 27 -153t61 -116t60 -79.5t26 -45.5q0 -26 -26 -26q-30 0 -92.5 52.5t-125.5 130.5t-112 167.5t-49 157.5z" />
<glyph unicode="&#xc9;" d="M163 549q0 156 72 311.5t211.5 291.5t343 242t464.5 164q-87 64 -132 144t-45 163q0 348 366 620q163 122 324 181t294 59q189 0 297 -101t108 -282q0 -116 -47 -221t-126.5 -182.5t-178 -123.5t-201.5 -46q-106 0 -176 64.5t-70 173.5q0 91 49 171.5t113.5 138.5 t129.5 90.5t95 32.5q22 0 22 -11q0 -15 -51 -49t-109.5 -89.5t-110 -133.5t-51.5 -179q0 -76 47 -119.5t119 -43.5q80 0 168 43.5t159 115.5t119 166.5t48 197.5q0 160 -88 245t-243 85q-133 0 -276.5 -81.5t-283.5 -240.5q-137 -159 -204.5 -322t-67.5 -270 q0 -83 34 -126.5t75 -43.5h87q209 0 209 -73q0 -18 -30.5 -35.5t-82.5 -17.5q-83 0 -138.5 23t-89.5 23q-53 0 -169 -34t-241 -114q-109 -68 -196 -164.5t-148 -208.5t-95.5 -235t-34.5 -241q0 -213 117.5 -338.5t319.5 -125.5q299 0 603 294q140 137 207.5 279t67.5 263 q0 113 -62 185t-161 72q-113 0 -274 -130.5t-291 -387.5q-42 -83 -62.5 -153.5t-31.5 -119.5t-18.5 -76t-24.5 -27q-18 0 -18 69q0 189 61 354.5t155.5 286.5t213.5 190.5t241 69.5q160 0 248.5 -91t88.5 -235q0 -253 -257 -542q-163 -181 -354.5 -271.5t-396.5 -90.5 q-144 0 -261.5 41.5t-203 115.5t-130.5 179.5t-45 230.5zM2098 2956q0 18 29 37l73 50q46 29 100.5 76.5t108.5 123.5q33 50 54 108t44.5 108t51 81.5t81.5 31.5t83.5 -29.5t29.5 -83.5q0 -91 -87 -195.5t-261 -205.5q-102 -61 -168.5 -95.5t-107.5 -34.5q-31 2 -31 28z" />
<glyph unicode="&#xca;" d="M163 549q0 156 72 311.5t211.5 291.5t343 242t464.5 164q-87 64 -132 144t-45 163q0 348 366 620q163 122 324 181t294 59q189 0 297 -101t108 -282q0 -116 -47 -221t-126.5 -182.5t-178 -123.5t-201.5 -46q-106 0 -176 64.5t-70 173.5q0 91 49 171.5t113.5 138.5 t129.5 90.5t95 32.5q22 0 22 -11q0 -15 -51 -49t-109.5 -89.5t-110 -133.5t-51.5 -179q0 -76 47 -119.5t119 -43.5q80 0 168 43.5t159 115.5t119 166.5t48 197.5q0 160 -88 245t-243 85q-133 0 -276.5 -81.5t-283.5 -240.5q-137 -159 -204.5 -322t-67.5 -270 q0 -83 34 -126.5t75 -43.5h87q209 0 209 -73q0 -18 -30.5 -35.5t-82.5 -17.5q-83 0 -138.5 23t-89.5 23q-53 0 -169 -34t-241 -114q-109 -68 -196 -164.5t-148 -208.5t-95.5 -235t-34.5 -241q0 -213 117.5 -338.5t319.5 -125.5q299 0 603 294q140 137 207.5 279t67.5 263 q0 113 -62 185t-161 72q-113 0 -274 -130.5t-291 -387.5q-42 -83 -62.5 -153.5t-31.5 -119.5t-18.5 -76t-24.5 -27q-18 0 -18 69q0 189 61 354.5t155.5 286.5t213.5 190.5t241 69.5q160 0 248.5 -91t88.5 -235q0 -253 -257 -542q-163 -181 -354.5 -271.5t-396.5 -90.5 q-144 0 -261.5 41.5t-203 115.5t-130.5 179.5t-45 230.5zM1735 2985q0 34 62 70t192 115q253 160 370.5 258.5t143.5 98.5q37 0 50 -42l129 -450q8 -29 8 -50q0 -37 -32 -38q-42 0 -86.5 84t-123.5 250l-444 -234q-182 -95 -221 -97q-48 2 -48 35z" />
<glyph unicode="&#xcb;" d="M163 549q0 156 72 311.5t211.5 291.5t343 242t464.5 164q-87 64 -132 144t-45 163q0 348 366 620q163 122 324 181t294 59q189 0 297 -101t108 -282q0 -116 -47 -221t-126.5 -182.5t-178 -123.5t-201.5 -46q-106 0 -176 64.5t-70 173.5q0 91 49 171.5t113.5 138.5 t129.5 90.5t95 32.5q22 0 22 -11q0 -15 -51 -49t-109.5 -89.5t-110 -133.5t-51.5 -179q0 -76 47 -119.5t119 -43.5q80 0 168 43.5t159 115.5t119 166.5t48 197.5q0 160 -88 245t-243 85q-133 0 -276.5 -81.5t-283.5 -240.5q-137 -159 -204.5 -322t-67.5 -270 q0 -83 34 -126.5t75 -43.5h87q209 0 209 -73q0 -18 -30.5 -35.5t-82.5 -17.5q-83 0 -138.5 23t-89.5 23q-53 0 -169 -34t-241 -114q-109 -68 -196 -164.5t-148 -208.5t-95.5 -235t-34.5 -241q0 -213 117.5 -338.5t319.5 -125.5q299 0 603 294q140 137 207.5 279t67.5 263 q0 113 -62 185t-161 72q-113 0 -274 -130.5t-291 -387.5q-42 -83 -62.5 -153.5t-31.5 -119.5t-18.5 -76t-24.5 -27q-18 0 -18 69q0 189 61 354.5t155.5 286.5t213.5 190.5t241 69.5q160 0 248.5 -91t88.5 -235q0 -253 -257 -542q-163 -181 -354.5 -271.5t-396.5 -90.5 q-144 0 -261.5 41.5t-203 115.5t-130.5 179.5t-45 230.5zM1867 3202q0 68 45 115.5t110 47.5q122 0 122 -126q0 -69 -43.5 -116t-111.5 -47q-122 0 -122 126zM2481 3202q0 68 47 115.5t112 47.5q116 0 118 -126q0 -69 -44 -116t-111 -47q-122 0 -122 126z" />
<glyph unicode="&#xcc;" horiz-adv-x="2105" d="M246 292q0 84 45.5 134.5t124.5 50.5q61 0 99 -39.5t38 -111.5q0 -50 -23 -87t-23 -58q0 -57 63 -102.5t172 -45.5q618 0 1138 1186q-202 26 -317.5 152t-115.5 307q0 272 263.5 499.5t783.5 371.5q250 69 448.5 97.5t322.5 28.5q50 0 50 -18q0 -26 -70 -42t-180 -81 q-155 -90 -270.5 -217t-212.5 -286t-188 -346.5t-200 -400.5q122 26 206.5 76t141.5 99t91.5 85t52.5 36q11 0 11 -19q0 -33 -58 -94t-173 -133q-155 -98 -311 -115q-325 -621 -700 -929t-743 -308q-220 0 -343 90.5t-123 219.5zM1602 1613q0 -140 79.5 -234.5t220.5 -105.5 q264 496 567.5 829.5t632.5 504.5q-364 -30 -643.5 -123.5t-469 -229.5t-288.5 -301.5t-99 -339.5zM2818 3429q0 69 32 112.5t90 43.5q109 0 109 -133v-111q0 -87 27 -153t61 -116t60 -79.5t26 -45.5q0 -26 -26 -26q-30 0 -92.5 52.5t-125.5 130.5t-112 167.5t-49 157.5z " />
<glyph unicode="&#xcd;" horiz-adv-x="2105" d="M246 292q0 84 45.5 134.5t124.5 50.5q61 0 99 -39.5t38 -111.5q0 -50 -23 -87t-23 -58q0 -57 63 -102.5t172 -45.5q618 0 1138 1186q-202 26 -317.5 152t-115.5 307q0 272 263.5 499.5t783.5 371.5q250 69 448.5 97.5t322.5 28.5q50 0 50 -18q0 -26 -70 -42t-180 -81 q-155 -90 -270.5 -217t-212.5 -286t-188 -346.5t-200 -400.5q122 26 206.5 76t141.5 99t91.5 85t52.5 36q11 0 11 -19q0 -33 -58 -94t-173 -133q-155 -98 -311 -115q-325 -621 -700 -929t-743 -308q-220 0 -343 90.5t-123 219.5zM1602 1613q0 -140 79.5 -234.5t220.5 -105.5 q264 496 567.5 829.5t632.5 504.5q-364 -30 -643.5 -123.5t-469 -229.5t-288.5 -301.5t-99 -339.5zM2890 2956q0 18 29 37l73 50q46 29 100.5 76.5t108.5 123.5q33 50 54 108t44.5 108t51 81.5t81.5 31.5t83.5 -29.5t29.5 -83.5q0 -91 -87 -195.5t-261 -205.5 q-102 -61 -168.5 -95.5t-107.5 -34.5q-31 2 -31 28z" />
<glyph unicode="&#xce;" horiz-adv-x="2105" d="M246 292q0 84 45.5 134.5t124.5 50.5q61 0 99 -39.5t38 -111.5q0 -50 -23 -87t-23 -58q0 -57 63 -102.5t172 -45.5q618 0 1138 1186q-202 26 -317.5 152t-115.5 307q0 272 263.5 499.5t783.5 371.5q250 69 448.5 97.5t322.5 28.5q50 0 50 -18q0 -26 -70 -42t-180 -81 q-155 -90 -270.5 -217t-212.5 -286t-188 -346.5t-200 -400.5q122 26 206.5 76t141.5 99t91.5 85t52.5 36q11 0 11 -19q0 -33 -58 -94t-173 -133q-155 -98 -311 -115q-325 -621 -700 -929t-743 -308q-220 0 -343 90.5t-123 219.5zM1602 1613q0 -140 79.5 -234.5t220.5 -105.5 q264 496 567.5 829.5t632.5 504.5q-364 -30 -643.5 -123.5t-469 -229.5t-288.5 -301.5t-99 -339.5zM2527 2985q0 34 62 70t192 115q253 160 370.5 258.5t143.5 98.5q37 0 50 -42l129 -450q8 -29 8 -50q0 -37 -32 -38q-42 0 -86.5 84t-123.5 250l-444 -234q-182 -95 -221 -97 q-48 2 -48 35z" />
<glyph unicode="&#xcf;" horiz-adv-x="2105" d="M246 292q0 84 45.5 134.5t124.5 50.5q61 0 99 -39.5t38 -111.5q0 -50 -23 -87t-23 -58q0 -57 63 -102.5t172 -45.5q618 0 1138 1186q-202 26 -317.5 152t-115.5 307q0 272 263.5 499.5t783.5 371.5q250 69 448.5 97.5t322.5 28.5q50 0 50 -18q0 -26 -70 -42t-180 -81 q-155 -90 -270.5 -217t-212.5 -286t-188 -346.5t-200 -400.5q122 26 206.5 76t141.5 99t91.5 85t52.5 36q11 0 11 -19q0 -33 -58 -94t-173 -133q-155 -98 -311 -115q-325 -621 -700 -929t-743 -308q-220 0 -343 90.5t-123 219.5zM1602 1613q0 -140 79.5 -234.5t220.5 -105.5 q264 496 567.5 829.5t632.5 504.5q-364 -30 -643.5 -123.5t-469 -229.5t-288.5 -301.5t-99 -339.5zM2659 3202q0 68 45 115.5t110 47.5q122 0 122 -126q0 -69 -43.5 -116t-111.5 -47q-122 0 -122 126zM3273 3202q0 68 47 115.5t112 47.5q116 0 118 -126q0 -69 -44 -116 t-111 -47q-122 0 -122 126z" />
<glyph unicode="&#xd0;" horiz-adv-x="3315" d="M390 117q0 83 178 85q98 0 191.5 -16t175 -32.5t150 -32.5t123.5 -16q205 0 431 262t498 793h-348l30 68h360q372 709 864 1140q-159 133 -373.5 205.5t-453.5 72.5q-344 0 -636 -133.5t-507 -390.5q-174 -213 -260 -432t-86 -391q0 -159 89 -244.5t248 -85.5 q102 0 178.5 25t129 54t87 53t52.5 24q23 0 23 -22q0 -11 -38 -43.5t-105.5 -67t-161 -61t-199.5 -26.5q-220 0 -357.5 149.5t-137.5 399.5q0 209 99.5 413.5t301.5 387.5q246 220 558.5 336.5t668.5 116.5q285 0 516 -74t412 -216q182 129 299.5 189.5t167.5 60.5 q14 0 14 -8q0 -18 -32 -37.5t-87 -54t-125 -87t-150 -135.5q137 -178 203.5 -365.5t66.5 -408.5q0 -314 -138.5 -608t-399.5 -527q-239 -213 -557 -325t-708 -112q-126 0 -233.5 5.5t-196.5 5.5q-72 0 -159 -14.5t-192 -14.5q-239 0 -356.5 29.5t-117.5 105.5zM1395 94 q76 -7 145.5 -10.5t137.5 -3.5q599 0 1016 264q162 102 291 242.5t220.5 299.5t140.5 334t49 349q0 216 -68.5 401t-200.5 330q-216 -265 -360.5 -541.5t-280.5 -530.5h353l-33 -68h-361q-250 -431 -517.5 -697.5t-531.5 -368.5z" />
<glyph unicode="&#xd1;" horiz-adv-x="3333" d="M54 340q0 87 50.5 141t126.5 54q61 0 103 -40t42 -105q0 -79 -38 -128t-38 -81q0 -53 68.5 -95.5t199.5 -42.5q412 0 822 361.5t837 1092.5q333 568 511.5 880.5t243.5 312.5q15 0 15 -26q0 -22 -19.5 -66.5t-41.5 -126t-41.5 -206.5t-19.5 -306q0 -98 2 -223.5t2 -281.5 q0 -196 -17 -469t-100 -641q614 1175 1075.5 1760.5t761.5 585.5q80 0 125 -41.5t45 -106.5t-45 -110.5t-101 -45.5q-57 0 -82 27t-40 57l-28 57q-13 26 -51 26q-113 0 -375 -284t-637 -885q-213 -341 -356.5 -604.5t-238.5 -440t-146 -267t-77 -90.5t-28 40q0 8 14 34.5 t28.5 81t28.5 139t14 200.5q0 206 -34 410.5t-34 411.5q0 212 39.5 456.5t115.5 529.5q-303 -561 -572.5 -989t-529 -717.5t-522.5 -437.5t-559 -148q-235 0 -367 101.5t-132 245.5zM3391 3047q0 29 23 83.5t63 110t98 97t127 41.5q57 0 115 -23t117.5 -47t116 -47 t109.5 -23q58 0 92 28.5t58 63t43.5 62t41.5 27.5q37 0 37 -26q0 -29 -22 -84.5t-62 -110t-99 -96.5t-126 -42q-57 0 -116 22.5t-117.5 47.5t-116 48t-108.5 23q-58 0 -92 -28.5t-61 -63t-45.5 -63t-40.5 -28.5q-35 2 -35 28z" />
<glyph unicode="&#xd2;" horiz-adv-x="2116" d="M224 686q0 319 179.5 686t540.5 715q321 314 652.5 469.5t593.5 155.5q228 0 356.5 -111t128.5 -283q0 -163 -42 -163q-15 0 -15 39q0 19 3.5 44t3.5 58q0 170 -112 267t-304 97q-235 0 -515.5 -149.5t-540.5 -445.5q-171 -193 -302 -409.5t-220 -426.5t-134.5 -403 t-45.5 -341q0 -209 102 -324t272 -115q94 0 211 33.5t243.5 103.5t255 174.5t250.5 245.5q148 167 259 348t187 356t114 332t38 278q0 192 -79.5 296.5t-200.5 104.5q-94 0 -216 -65.5t-247 -188.5t-244.5 -294.5t-205.5 -374.5q-43 -94 -63.5 -166.5t-33.5 -122.5t-21 -74 t-23 -24t-15 56q0 105 49 292t171 413q80 148 180 265.5t208 197t214.5 123t200.5 43.5q174 0 276.5 -123t102.5 -351q0 -144 -47 -323.5t-136.5 -371t-220 -385t-297.5 -363.5q-246 -250 -486.5 -374.5t-445.5 -124.5q-261 0 -420 189.5t-159 514.5zM2094 3429 q0 69 32 112.5t90 43.5q109 0 109 -133v-111q0 -87 27 -153t61 -116t60 -79.5t26 -45.5q0 -26 -26 -26q-30 0 -92.5 52.5t-125.5 130.5t-112 167.5t-49 157.5z" />
<glyph unicode="&#xd3;" horiz-adv-x="2116" d="M224 686q0 319 179.5 686t540.5 715q321 314 652.5 469.5t593.5 155.5q228 0 356.5 -111t128.5 -283q0 -163 -42 -163q-15 0 -15 39q0 19 3.5 44t3.5 58q0 170 -112 267t-304 97q-235 0 -515.5 -149.5t-540.5 -445.5q-171 -193 -302 -409.5t-220 -426.5t-134.5 -403 t-45.5 -341q0 -209 102 -324t272 -115q94 0 211 33.5t243.5 103.5t255 174.5t250.5 245.5q148 167 259 348t187 356t114 332t38 278q0 192 -79.5 296.5t-200.5 104.5q-94 0 -216 -65.5t-247 -188.5t-244.5 -294.5t-205.5 -374.5q-43 -94 -63.5 -166.5t-33.5 -122.5t-21 -74 t-23 -24t-15 56q0 105 49 292t171 413q80 148 180 265.5t208 197t214.5 123t200.5 43.5q174 0 276.5 -123t102.5 -351q0 -144 -47 -323.5t-136.5 -371t-220 -385t-297.5 -363.5q-246 -250 -486.5 -374.5t-445.5 -124.5q-261 0 -420 189.5t-159 514.5zM2166 2956q0 18 29 37 l73 50q46 29 100.5 76.5t108.5 123.5q33 50 54 108t44.5 108t51 81.5t81.5 31.5t83.5 -29.5t29.5 -83.5q0 -91 -87 -195.5t-261 -205.5q-102 -61 -168.5 -95.5t-107.5 -34.5q-31 2 -31 28z" />
<glyph unicode="&#xd4;" horiz-adv-x="2116" d="M224 686q0 319 179.5 686t540.5 715q321 314 652.5 469.5t593.5 155.5q228 0 356.5 -111t128.5 -283q0 -163 -42 -163q-15 0 -15 39q0 19 3.5 44t3.5 58q0 170 -112 267t-304 97q-235 0 -515.5 -149.5t-540.5 -445.5q-171 -193 -302 -409.5t-220 -426.5t-134.5 -403 t-45.5 -341q0 -209 102 -324t272 -115q94 0 211 33.5t243.5 103.5t255 174.5t250.5 245.5q148 167 259 348t187 356t114 332t38 278q0 192 -79.5 296.5t-200.5 104.5q-94 0 -216 -65.5t-247 -188.5t-244.5 -294.5t-205.5 -374.5q-43 -94 -63.5 -166.5t-33.5 -122.5t-21 -74 t-23 -24t-15 56q0 105 49 292t171 413q80 148 180 265.5t208 197t214.5 123t200.5 43.5q174 0 276.5 -123t102.5 -351q0 -144 -47 -323.5t-136.5 -371t-220 -385t-297.5 -363.5q-246 -250 -486.5 -374.5t-445.5 -124.5q-261 0 -420 189.5t-159 514.5zM1803 2985q0 34 62 70 t192 115q253 160 370.5 258.5t143.5 98.5q37 0 50 -42l129 -450q8 -29 8 -50q0 -37 -32 -38q-42 0 -86.5 84t-123.5 250l-444 -234q-182 -95 -221 -97q-48 2 -48 35z" />
<glyph unicode="&#xd5;" horiz-adv-x="2116" d="M224 686q0 319 179.5 686t540.5 715q321 314 652.5 469.5t593.5 155.5q228 0 356.5 -111t128.5 -283q0 -163 -42 -163q-15 0 -15 39q0 19 3.5 44t3.5 58q0 170 -112 267t-304 97q-235 0 -515.5 -149.5t-540.5 -445.5q-171 -193 -302 -409.5t-220 -426.5t-134.5 -403 t-45.5 -341q0 -209 102 -324t272 -115q94 0 211 33.5t243.5 103.5t255 174.5t250.5 245.5q148 167 259 348t187 356t114 332t38 278q0 192 -79.5 296.5t-200.5 104.5q-94 0 -216 -65.5t-247 -188.5t-244.5 -294.5t-205.5 -374.5q-43 -94 -63.5 -166.5t-33.5 -122.5t-21 -74 t-23 -24t-15 56q0 105 49 292t171 413q80 148 180 265.5t208 197t214.5 123t200.5 43.5q174 0 276.5 -123t102.5 -351q0 -144 -47 -323.5t-136.5 -371t-220 -385t-297.5 -363.5q-246 -250 -486.5 -374.5t-445.5 -124.5q-261 0 -420 189.5t-159 514.5zM1859 3047 q0 29 23 83.5t63 110t98 97t127 41.5q57 0 115 -23t117.5 -47t116 -47t109.5 -23q58 0 92 28.5t58 63t43.5 62t41.5 27.5q37 0 37 -26q0 -29 -22 -84.5t-62 -110t-99 -96.5t-126 -42q-57 0 -116 22.5t-117.5 47.5t-116 48t-108.5 23q-58 0 -92 -28.5t-61 -63t-45.5 -63 t-40.5 -28.5q-35 2 -35 28z" />
<glyph unicode="&#xd6;" horiz-adv-x="2116" d="M224 686q0 319 179.5 686t540.5 715q321 314 652.5 469.5t593.5 155.5q228 0 356.5 -111t128.5 -283q0 -163 -42 -163q-15 0 -15 39q0 19 3.5 44t3.5 58q0 170 -112 267t-304 97q-235 0 -515.5 -149.5t-540.5 -445.5q-171 -193 -302 -409.5t-220 -426.5t-134.5 -403 t-45.5 -341q0 -209 102 -324t272 -115q94 0 211 33.5t243.5 103.5t255 174.5t250.5 245.5q148 167 259 348t187 356t114 332t38 278q0 192 -79.5 296.5t-200.5 104.5q-94 0 -216 -65.5t-247 -188.5t-244.5 -294.5t-205.5 -374.5q-43 -94 -63.5 -166.5t-33.5 -122.5t-21 -74 t-23 -24t-15 56q0 105 49 292t171 413q80 148 180 265.5t208 197t214.5 123t200.5 43.5q174 0 276.5 -123t102.5 -351q0 -144 -47 -323.5t-136.5 -371t-220 -385t-297.5 -363.5q-246 -250 -486.5 -374.5t-445.5 -124.5q-261 0 -420 189.5t-159 514.5zM1935 3202 q0 68 45 115.5t110 47.5q122 0 122 -126q0 -69 -43.5 -116t-111.5 -47q-122 0 -122 126zM2549 3202q0 68 47 115.5t112 47.5q116 0 118 -126q0 -69 -44 -116t-111 -47q-122 0 -122 126z" />
<glyph unicode="&#xd7;" horiz-adv-x="3154" d="M572 228l902 900l-902 903l107 106l901 -901l901 901l107 -106l-903 -903l903 -900l-107 -106l-901 901l-901 -901z" />
<glyph unicode="&#xd8;" horiz-adv-x="2116" d="M137 694q0 311 179.5 676t540.5 713q325 318 654.5 473.5t591.5 155.5q65 0 121.5 -7.5t117.5 -29.5l204 279l57 -37l-202 -271q189 -117 191 -350q0 -76 -16 -112t-30 -36q-19 0 -19 39q0 22 5.5 49t5.5 56q0 109 -47 193.5t-123 113.5l-189 -261q171 -109 171 -418 q0 -140 -45.5 -318t-135.5 -369t-220 -384.5t-301 -367.5q-242 -250 -488 -374.5t-451 -124.5q-113 0 -221 40l-260 -359l-50 41l253 346q-133 83 -213.5 249.5t-80.5 394.5zM361 485q0 -220 131 -352l1587 2178q-14 3 -31 7t-37 4q-87 0 -200 -60t-233 -174t-239.5 -277 t-217.5 -368q-50 -102 -74 -183.5t-37 -136t-23 -85t-25 -30.5t-15 56q0 105 49 292t171 413q80 148 181.5 265.5t208 198.5t209 123t189.5 42q43 0 83.5 -7.5t83.5 -18.5l185 257q-91 33 -189 35q-113 0 -242.5 -38t-265.5 -114t-276.5 -187.5t-269.5 -259.5 q-170 -193 -300.5 -409.5t-221.5 -426.5t-136 -403t-45 -341zM546 98q83 -54 192 -52q94 0 210 33.5t243.5 103.5t256 174.5t250.5 245.5q148 167 259 348t187 356t114 332t38 278q0 253 -152 368z" />
<glyph unicode="&#xd9;" horiz-adv-x="2495" d="M-57 1587q0 156 87 328t262 336q232 217 510 331.5t524 114.5q239 0 373 -128.5t134 -374.5q0 -202 -103.5 -408t-279.5 -471l-434 -667q-122 -189 -180.5 -312t-58.5 -173q0 -106 120 -106q72 0 203.5 76t301.5 237t376.5 412.5t434.5 605.5l814 1258l314 18 l-1276 -2002q-123 -192 -177.5 -331t-54.5 -176t23.5 -62t52.5 -25q95 0 194 76t235 217q84 83 120 130t54 47q22 0 22 -18q0 -22 -49 -77.5t-143 -153.5q-285 -296 -455 -296q-178 0 -178 275q0 117 36.5 239t102.5 266q-337 -409 -600.5 -600t-390.5 -191q-99 0 -154 75.5 t-55 214.5q0 192 98.5 397.5t269.5 462.5l481 729q105 159 153 282t48 195q0 148 -100.5 228t-293.5 80q-216 0 -451 -93.5t-452 -278.5q-397 -341 -397 -664q0 -137 77.5 -212t203.5 -75q94 0 217 50.5t246 143.5t237 228t197 301q43 83 63 155.5t33 123t21.5 79.5t26.5 29 q19 0 20 -58q0 -148 -44 -312.5t-131 -308.5q-76 -126 -175 -228t-210 -174t-228.5 -110t-228.5 -38q-181 0 -283.5 106.5t-102.5 276.5zM2239 3429q0 69 32 112.5t90 43.5q109 0 109 -133v-111q0 -87 27 -153t61 -116t60 -79.5t26 -45.5q0 -26 -26 -26q-30 0 -92.5 52.5 t-125.5 130.5t-112 167.5t-49 157.5z" />
<glyph unicode="&#xda;" horiz-adv-x="2495" d="M-57 1587q0 156 87 328t262 336q232 217 510 331.5t524 114.5q239 0 373 -128.5t134 -374.5q0 -202 -103.5 -408t-279.5 -471l-434 -667q-122 -189 -180.5 -312t-58.5 -173q0 -106 120 -106q72 0 203.5 76t301.5 237t376.5 412.5t434.5 605.5l814 1258l314 18 l-1276 -2002q-123 -192 -177.5 -331t-54.5 -176t23.5 -62t52.5 -25q95 0 194 76t235 217q84 83 120 130t54 47q22 0 22 -18q0 -22 -49 -77.5t-143 -153.5q-285 -296 -455 -296q-178 0 -178 275q0 117 36.5 239t102.5 266q-337 -409 -600.5 -600t-390.5 -191q-99 0 -154 75.5 t-55 214.5q0 192 98.5 397.5t269.5 462.5l481 729q105 159 153 282t48 195q0 148 -100.5 228t-293.5 80q-216 0 -451 -93.5t-452 -278.5q-397 -341 -397 -664q0 -137 77.5 -212t203.5 -75q94 0 217 50.5t246 143.5t237 228t197 301q43 83 63 155.5t33 123t21.5 79.5t26.5 29 q19 0 20 -58q0 -148 -44 -312.5t-131 -308.5q-76 -126 -175 -228t-210 -174t-228.5 -110t-228.5 -38q-181 0 -283.5 106.5t-102.5 276.5zM2311 2956q0 18 29 37l73 50q46 29 100.5 76.5t108.5 123.5q33 50 54 108t44.5 108t51 81.5t81.5 31.5t83.5 -29.5t29.5 -83.5 q0 -91 -87 -195.5t-261 -205.5q-102 -61 -168.5 -95.5t-107.5 -34.5q-31 2 -31 28z" />
<glyph unicode="&#xdb;" horiz-adv-x="2495" d="M-57 1587q0 156 87 328t262 336q232 217 510 331.5t524 114.5q239 0 373 -128.5t134 -374.5q0 -202 -103.5 -408t-279.5 -471l-434 -667q-122 -189 -180.5 -312t-58.5 -173q0 -106 120 -106q72 0 203.5 76t301.5 237t376.5 412.5t434.5 605.5l814 1258l314 18 l-1276 -2002q-123 -192 -177.5 -331t-54.5 -176t23.5 -62t52.5 -25q95 0 194 76t235 217q84 83 120 130t54 47q22 0 22 -18q0 -22 -49 -77.5t-143 -153.5q-285 -296 -455 -296q-178 0 -178 275q0 117 36.5 239t102.5 266q-337 -409 -600.5 -600t-390.5 -191q-99 0 -154 75.5 t-55 214.5q0 192 98.5 397.5t269.5 462.5l481 729q105 159 153 282t48 195q0 148 -100.5 228t-293.5 80q-216 0 -451 -93.5t-452 -278.5q-397 -341 -397 -664q0 -137 77.5 -212t203.5 -75q94 0 217 50.5t246 143.5t237 228t197 301q43 83 63 155.5t33 123t21.5 79.5t26.5 29 q19 0 20 -58q0 -148 -44 -312.5t-131 -308.5q-76 -126 -175 -228t-210 -174t-228.5 -110t-228.5 -38q-181 0 -283.5 106.5t-102.5 276.5zM1948 2985q0 34 62 70t192 115q253 160 370.5 258.5t143.5 98.5q37 0 50 -42l129 -450q8 -29 8 -50q0 -37 -32 -38q-42 0 -86.5 84 t-123.5 250l-444 -234q-182 -95 -221 -97q-48 2 -48 35z" />
<glyph unicode="&#xdc;" horiz-adv-x="2495" d="M-57 1587q0 156 87 328t262 336q232 217 510 331.5t524 114.5q239 0 373 -128.5t134 -374.5q0 -202 -103.5 -408t-279.5 -471l-434 -667q-122 -189 -180.5 -312t-58.5 -173q0 -106 120 -106q72 0 203.5 76t301.5 237t376.5 412.5t434.5 605.5l814 1258l314 18 l-1276 -2002q-123 -192 -177.5 -331t-54.5 -176t23.5 -62t52.5 -25q95 0 194 76t235 217q84 83 120 130t54 47q22 0 22 -18q0 -22 -49 -77.5t-143 -153.5q-285 -296 -455 -296q-178 0 -178 275q0 117 36.5 239t102.5 266q-337 -409 -600.5 -600t-390.5 -191q-99 0 -154 75.5 t-55 214.5q0 192 98.5 397.5t269.5 462.5l481 729q105 159 153 282t48 195q0 148 -100.5 228t-293.5 80q-216 0 -451 -93.5t-452 -278.5q-397 -341 -397 -664q0 -137 77.5 -212t203.5 -75q94 0 217 50.5t246 143.5t237 228t197 301q43 83 63 155.5t33 123t21.5 79.5t26.5 29 q19 0 20 -58q0 -148 -44 -312.5t-131 -308.5q-76 -126 -175 -228t-210 -174t-228.5 -110t-228.5 -38q-181 0 -283.5 106.5t-102.5 276.5zM2080 3202q0 68 45 115.5t110 47.5q122 0 122 -126q0 -69 -43.5 -116t-111.5 -47q-122 0 -122 126zM2694 3202q0 68 47 115.5t112 47.5 q116 0 118 -126q0 -69 -44 -116t-111 -47q-122 0 -122 126z" />
<glyph unicode="&#xdd;" horiz-adv-x="2647" d="M231 1622q0 148 91 322t274 344q216 206 486 319t531 113q231 0 372 -132.5t141 -378.5q0 -181 -85.5 -376.5t-247.5 -426.5q-137 -192 -226 -331t-89 -237q0 -122 109 -122q122 0 273 108t360 312q224 216 366.5 409.5t251.5 334.5q181 231 347.5 386.5t300 249.5 t224 134t125.5 40q22 0 22 -15q0 -26 -55.5 -45.5t-149.5 -76.5q-329 -192 -561 -622q-101 -192 -196.5 -376t-188 -352.5t-187 -320t-201.5 -279.5q-253 -307 -526 -464t-534 -157q-209 0 -328.5 88.5t-119.5 221.5q0 95 45.5 147.5t110.5 52.5q64 0 106 -45.5t42 -117.5 q0 -53 -30.5 -100.5t-30.5 -76.5q0 -43 55.5 -79t164.5 -36q192 0 350.5 82.5t298 241.5t271.5 399.5t277 558.5q-304 -344 -534 -507.5t-367 -163.5q-95 0 -159.5 77.5t-64.5 221.5q0 202 89 377.5t233 381.5q159 224 240.5 380t81.5 271q0 144 -103.5 227.5t-298.5 83.5 q-192 0 -408.5 -78t-420.5 -233q-227 -170 -342.5 -363.5t-115.5 -363.5q0 -122 70 -194.5t168 -72.5q102 0 223 43.5t242.5 127t233.5 203.5t199 267q57 98 89.5 182t49 144t26 94.5t25.5 34.5q8 0 15 -13t7 -45q0 -231 -88.5 -439t-231 -363.5t-323 -248t-361.5 -92.5 q-413 0 -413 364zM2477 2956q0 18 29 37l73 50q46 29 100.5 76.5t108.5 123.5q33 50 54 108t44.5 108t51 81.5t81.5 31.5t83.5 -29.5t29.5 -83.5q0 -91 -87 -195.5t-261 -205.5q-102 -61 -168.5 -95.5t-107.5 -34.5q-31 2 -31 28z" />
<glyph unicode="&#xde;" horiz-adv-x="2780" d="M159 300q0 94 51 155t127 61q64 0 111.5 -50t47.5 -114q0 -43 -22.5 -85.5t-22.5 -85.5q0 -57 64 -100.5t186 -43.5q170 0 318 77.5t291.5 231.5t289.5 376t306 514q170 307 341 566t389 464q-113 50 -251.5 76t-308.5 26q-698 0 -1179 -405q-170 -144 -259 -309 t-89 -309q0 -148 91 -225.5t257 -77.5q87 0 155.5 19t117.5 43t79.5 43.5t41.5 19.5q15 0 17 -18q0 -19 -32.5 -54t-90 -68.5t-135 -58t-164.5 -24.5q-181 0 -293 108t-112 289q0 167 121 367.5t360 370.5q228 163 506 249t593 86q189 0 346 -25t290 -67q217 188 353 278 t178 90q22 0 22 -11q0 -15 -32 -36.5t-90.5 -65t-140 -111.5t-179.5 -181q235 -122 356.5 -298t121.5 -374q0 -151 -63 -283.5t-166 -232.5t-235 -159t-273 -59q-87 0 -157 15.5t-117.5 38t-73 45.5t-25.5 38q0 18 14 18q23 0 79 -32.5t193 -32.5q110 0 214.5 61.5t184 165 t128.5 242t49 294.5q0 155 -69.5 270.5t-213.5 213.5q-102 -148 -190 -307t-173 -322t-172 -325.5t-192 -317.5q-330 -489 -684 -727.5t-696 -238.5q-235 0 -362 92.5t-127 229.5z" />
<glyph unicode="&#xdf;" horiz-adv-x="1306" d="M-651 -1114l1106 2050q-116 -102 -198.5 -189.5t-135.5 -148t-85 -94.5t-47 -34t-15 15q0 26 143.5 193t450.5 454q322 622 578 931t471 309q76 0 126 -53t50 -129q0 -159 -139 -332t-392 -411q-122 -113 -189.5 -189t-67.5 -189q0 -125 32 -269.5t32 -311.5 q0 -68 -10 -130t-40 -127q145 145 210.5 226t85.5 81q23 0 23 -18q0 -30 -145 -183q-159 -171 -291 -263t-284 -92q-117 0 -187 54.5t-70 141.5q0 50 33 86t80 36q33 0 58 -21.5t25 -50.5q0 -30 -25 -66t-25 -79q0 -42 72 -40q50 0 104.5 27.5t101 85t74 142.5t27.5 194 q0 122 -16.5 236t-16.5 219q0 69 30.5 131t83 130t128.5 146t163 172q235 250 343 423t108 260q0 109 -103 109q-174 0 -387.5 -308t-521.5 -922l-1080 -2172z" />
<glyph unicode="&#xe0;" horiz-adv-x="1491" d="M-30 485q0 33 178 212q192 193 370.5 282.5t312.5 89.5q94 0 146.5 -50t52.5 -125q0 -37 -14 -84l155 228l250 15l-416 -655q-65 -98 -103 -170.5t-38 -125.5q0 -59 53 -59h4q98 0 409 321q83 84 119.5 129t54.5 45q22 0 22 -14q0 -37 -174 -213q-151 -156 -259.5 -242.5 t-213.5 -86.5q-156 0 -156 188q0 30 6 65l13 79q-265 -332 -477 -332q-99 0 -159 99.5t-60 286.5q0 87 26 178q-50 -76 -79 -76q-23 0 -23 15zM205 166q0 -116 91 -116q61 0 151.5 58t200.5 181q166 181 243.5 338t77.5 267q0 50 -36 84t-88 34q-87 0 -197 -76t-221 -231 q-116 -167 -169 -309.5t-53 -229.5zM770 1622q0 69 32 112.5t90 43.5q109 0 109 -133v-111q0 -87 27 -153t61 -116t60 -79.5t26 -45.5q0 -26 -26 -26q-30 0 -92.5 52.5t-125.5 130.5t-112 167.5t-49 157.5z" />
<glyph unicode="&#xe1;" horiz-adv-x="1491" d="M-30 485q0 33 178 212q192 193 370.5 282.5t312.5 89.5q94 0 146.5 -50t52.5 -125q0 -37 -14 -84l155 228l250 15l-416 -655q-65 -98 -103 -170.5t-38 -125.5q0 -59 53 -59h4q98 0 409 321q83 84 119.5 129t54.5 45q22 0 22 -14q0 -37 -174 -213q-151 -156 -259.5 -242.5 t-213.5 -86.5q-156 0 -156 188q0 30 6 65l13 79q-265 -332 -477 -332q-99 0 -159 99.5t-60 286.5q0 87 26 178q-50 -76 -79 -76q-23 0 -23 15zM205 166q0 -116 91 -116q61 0 151.5 58t200.5 181q166 181 243.5 338t77.5 267q0 50 -36 84t-88 34q-87 0 -197 -76t-221 -231 q-116 -167 -169 -309.5t-53 -229.5zM842 1149q0 18 29 37l73 50q46 29 100.5 76.5t108.5 123.5q33 50 54 108t44.5 108t51 81.5t81.5 31.5t83.5 -29.5t29.5 -83.5q0 -91 -87 -195.5t-261 -205.5q-102 -61 -168.5 -95.5t-107.5 -34.5q-31 2 -31 28z" />
<glyph unicode="&#xe2;" horiz-adv-x="1491" d="M-30 485q0 33 178 212q192 193 370.5 282.5t312.5 89.5q94 0 146.5 -50t52.5 -125q0 -37 -14 -84l155 228l250 15l-416 -655q-65 -98 -103 -170.5t-38 -125.5q0 -59 53 -59h4q98 0 409 321q83 84 119.5 129t54.5 45q22 0 22 -14q0 -37 -174 -213q-151 -156 -259.5 -242.5 t-213.5 -86.5q-156 0 -156 188q0 30 6 65l13 79q-265 -332 -477 -332q-99 0 -159 99.5t-60 286.5q0 87 26 178q-50 -76 -79 -76q-23 0 -23 15zM205 166q0 -116 91 -116q61 0 151.5 58t200.5 181q166 181 243.5 338t77.5 267q0 50 -36 84t-88 34q-87 0 -197 -76t-221 -231 q-116 -167 -169 -309.5t-53 -229.5zM479 1178q0 34 62 70t192 115q253 160 370.5 258.5t143.5 98.5q37 0 50 -42l129 -450q8 -29 8 -50q0 -37 -32 -38q-42 0 -86.5 84t-123.5 250l-444 -234q-182 -95 -221 -97q-48 2 -48 35z" />
<glyph unicode="&#xe3;" horiz-adv-x="1491" d="M-30 485q0 33 178 212q192 193 370.5 282.5t312.5 89.5q94 0 146.5 -50t52.5 -125q0 -37 -14 -84l155 228l250 15l-416 -655q-65 -98 -103 -170.5t-38 -125.5q0 -59 53 -59h4q98 0 409 321q83 84 119.5 129t54.5 45q22 0 22 -14q0 -37 -174 -213q-151 -156 -259.5 -242.5 t-213.5 -86.5q-156 0 -156 188q0 30 6 65l13 79q-265 -332 -477 -332q-99 0 -159 99.5t-60 286.5q0 87 26 178q-50 -76 -79 -76q-23 0 -23 15zM205 166q0 -116 91 -116q61 0 151.5 58t200.5 181q166 181 243.5 338t77.5 267q0 50 -36 84t-88 34q-87 0 -197 -76t-221 -231 q-116 -167 -169 -309.5t-53 -229.5zM535 1240q0 29 23 83.5t63 110t98 97t127 41.5q57 0 115 -23t117.5 -47t116 -47t109.5 -23q58 0 92 28.5t58 63t43.5 62t41.5 27.5q37 0 37 -26q0 -29 -22 -84.5t-62 -110t-99 -96.5t-126 -42q-57 0 -116 22.5t-117.5 47.5t-116 48 t-108.5 23q-58 0 -92 -28.5t-61 -63t-45.5 -63t-40.5 -28.5q-35 2 -35 28z" />
<glyph unicode="&#xe4;" horiz-adv-x="1491" d="M-30 485q0 33 178 212q192 193 370.5 282.5t312.5 89.5q94 0 146.5 -50t52.5 -125q0 -37 -14 -84l155 228l250 15l-416 -655q-65 -98 -103 -170.5t-38 -125.5q0 -59 53 -59h4q98 0 409 321q83 84 119.5 129t54.5 45q22 0 22 -14q0 -37 -174 -213q-151 -156 -259.5 -242.5 t-213.5 -86.5q-156 0 -156 188q0 30 6 65l13 79q-265 -332 -477 -332q-99 0 -159 99.5t-60 286.5q0 87 26 178q-50 -76 -79 -76q-23 0 -23 15zM205 166q0 -116 91 -116q61 0 151.5 58t200.5 181q166 181 243.5 338t77.5 267q0 50 -36 84t-88 34q-87 0 -197 -76t-221 -231 q-116 -167 -169 -309.5t-53 -229.5zM611 1395q0 68 45 115.5t110 47.5q122 0 122 -126q0 -69 -43.5 -116t-111.5 -47q-122 0 -122 126zM1225 1395q0 68 47 115.5t112 47.5q116 0 118 -126q0 -69 -44 -116t-111 -47q-122 0 -122 126z" />
<glyph unicode="&#xe5;" horiz-adv-x="1491" d="M-30 485q0 33 178 212q192 193 370.5 282.5t312.5 89.5q94 0 146.5 -50t52.5 -125q0 -37 -14 -84l155 228l250 15l-416 -655q-65 -98 -103 -170.5t-38 -125.5q0 -61 57 -59q98 0 409 321q83 84 119.5 129t54.5 45q22 0 22 -14q0 -37 -174 -213q-151 -156 -259.5 -242.5 t-213.5 -86.5q-156 0 -156 188q0 30 6 65l13 79q-265 -332 -477 -332q-99 0 -159 99.5t-60 286.5q0 87 26 178q-50 -76 -79 -76q-23 0 -23 15zM205 166q0 -116 91 -116q61 0 151.5 58t200.5 181q166 181 243.5 338t77.5 267q0 50 -36 84t-88 34q-87 0 -197 -76t-221 -231 q-116 -167 -169 -309.5t-53 -229.5zM766 1450q0 134 94.5 228t227.5 94q137 0 229.5 -94t92.5 -228q0 -68 -25 -126.5t-68.5 -102t-102 -70t-126.5 -26.5q-69 0 -128 26.5t-102.5 70t-67.5 102t-24 126.5zM871 1450q0 -94 61 -158t156 -64q90 0 157 64t67 158q0 91 -67 156 t-157 65q-95 0 -156 -63t-61 -158z" />
<glyph unicode="&#xe6;" horiz-adv-x="1840" d="M-30 485q0 33 160 190q205 196 392 295t309 99q174 0 192 -194l113 198l209 22l-94 -174q170 148 344 148q94 0 149.5 -50t55.5 -125q0 -148 -195 -295.5t-567 -234.5q-8 -53 -13.5 -89t-5.5 -62q0 -174 152 -176q109 0 221 72t245 205q109 110 154.5 167t65.5 57 q23 0 23 -18q0 -19 -49 -74.5t-146 -153.5q-151 -151 -280 -230.5t-256 -79.5q-141 0 -229.5 113.5t-88.5 309.5q-304 -423 -517 -423q-105 0 -168 96t-63 270q0 87 43 235q-109 -113 -133 -113q-23 0 -23 15zM228 152q0 -50 22 -82.5t57 -32.5q122 0 318 209 q171 185 254 354.5t83 293.5q0 46 -34 80t-83 34q-83 0 -183.5 -68.5t-199.5 -205.5q-116 -159 -175 -316t-59 -266zM1056 424q148 29 264 94t193.5 140.5t119 153.5t41.5 135q0 30 -18.5 53t-49.5 23q-50 0 -121.5 -38t-147 -113.5t-151.5 -187.5t-130 -260z" />
<glyph unicode="&#xe7;" horiz-adv-x="1063" d="M-30 488q0 23 152 187q181 196 359 295t326 99q112 0 179 -53.5t67 -144.5q0 -75 -42 -124.5t-97 -49.5q-54 0 -84.5 24.5t-30.5 74.5q0 33 19.5 52.5t40 32.5t40 28.5t19.5 41.5t-21.5 45.5t-58.5 19.5q-72 0 -174.5 -70.5t-197 -184t-161 -257t-66.5 -291.5 q0 -178 155 -180q109 0 221 74t245 207q109 106 154.5 165t65.5 59q23 0 23 -18q0 -19 -49 -74.5t-144 -153.5q-152 -151 -279.5 -230.5t-258.5 -79.5q-141 0 -229.5 113.5t-88.5 294.5q0 69 22 156q-58 -72 -83 -72q-23 0 -23 14zM-178 -546q0 19 33 19q26 0 66 -13 t95.5 -29.5t127.5 -30.5t159 -14q109 0 179.5 57t70.5 133q0 84 -49 115t-156 31q-26 0 -113 -18l-22 76q94 54 214 54q281 0 281 -235q0 -134 -104.5 -219t-285.5 -85q-105 0 -197 21.5t-157.5 47.5t-103.5 52.5t-38 37.5z" />
<glyph unicode="&#xe8;" horiz-adv-x="1063" d="M-26 488q0 26 148 187q181 202 357 298t335 96q98 0 153.5 -50t55.5 -125q0 -148 -195 -295.5t-567 -234.5q-8 -53 -13.5 -89t-5.5 -62q0 -174 152 -176q109 0 221 72t245 205q109 110 154.5 167t65.5 57q23 0 23 -18q0 -19 -49 -74.5t-144 -153.5 q-152 -151 -279.5 -230.5t-254.5 -79.5q-141 0 -231.5 113.5t-90.5 294.5q0 72 22 159q-58 -75 -83 -75q-19 0 -19 14zM281 424q148 29 263 94t192.5 140.5t119 153.5t41.5 135q0 30 -18.5 53t-47.5 23q-50 0 -122.5 -38t-148 -113.5t-150.5 -187.5t-129 -260zM557 1622 q0 69 32 112.5t90 43.5q109 0 109 -133v-111q0 -87 27 -153t61 -116t60 -79.5t26 -45.5q0 -26 -26 -26q-30 0 -92.5 52.5t-125.5 130.5t-112 167.5t-49 157.5z" />
<glyph unicode="&#xe9;" horiz-adv-x="1063" d="M-26 488q0 26 148 187q181 202 357 298t335 96q98 0 153.5 -50t55.5 -125q0 -148 -195 -295.5t-567 -234.5q-8 -53 -13.5 -89t-5.5 -62q0 -174 152 -176q109 0 221 72t245 205q109 110 154.5 167t65.5 57q23 0 23 -18q0 -19 -49 -74.5t-144 -153.5 q-152 -151 -279.5 -230.5t-254.5 -79.5q-141 0 -231.5 113.5t-90.5 294.5q0 72 22 159q-58 -75 -83 -75q-19 0 -19 14zM281 424q148 29 263 94t192.5 140.5t119 153.5t41.5 135q0 30 -18.5 53t-47.5 23q-50 0 -122.5 -38t-148 -113.5t-150.5 -187.5t-129 -260zM629 1149 q0 18 29 37l73 50q46 29 100.5 76.5t108.5 123.5q33 50 54 108t44.5 108t51 81.5t81.5 31.5t83.5 -29.5t29.5 -83.5q0 -91 -87 -195.5t-261 -205.5q-102 -61 -168.5 -95.5t-107.5 -34.5q-31 2 -31 28z" />
<glyph unicode="&#xea;" horiz-adv-x="1063" d="M-26 488q0 26 148 187q181 202 357 298t335 96q98 0 153.5 -50t55.5 -125q0 -148 -195 -295.5t-567 -234.5q-8 -53 -13.5 -89t-5.5 -62q0 -174 152 -176q109 0 221 72t245 205q109 110 154.5 167t65.5 57q23 0 23 -18q0 -19 -49 -74.5t-144 -153.5 q-152 -151 -279.5 -230.5t-254.5 -79.5q-141 0 -231.5 113.5t-90.5 294.5q0 72 22 159q-58 -75 -83 -75q-19 0 -19 14zM281 424q148 29 263 94t192.5 140.5t119 153.5t41.5 135q0 30 -18.5 53t-47.5 23q-50 0 -122.5 -38t-148 -113.5t-150.5 -187.5t-129 -260zM266 1178 q0 34 62 70t192 115q253 160 370.5 258.5t143.5 98.5q37 0 50 -42l129 -450q8 -29 8 -50q0 -37 -32 -38q-42 0 -86.5 84t-123.5 250l-444 -234q-182 -95 -221 -97q-48 2 -48 35z" />
<glyph unicode="&#xeb;" horiz-adv-x="1063" d="M-26 488q0 26 148 187q181 202 357 298t335 96q98 0 153.5 -50t55.5 -125q0 -148 -195 -295.5t-567 -234.5q-8 -53 -13.5 -89t-5.5 -62q0 -174 152 -176q109 0 221 72t245 205q109 110 154.5 167t65.5 57q23 0 23 -18q0 -19 -49 -74.5t-144 -153.5 q-152 -151 -279.5 -230.5t-254.5 -79.5q-141 0 -231.5 113.5t-90.5 294.5q0 72 22 159q-58 -75 -83 -75q-19 0 -19 14zM281 424q148 29 263 94t192.5 140.5t119 153.5t41.5 135q0 30 -18.5 53t-47.5 23q-50 0 -122.5 -38t-148 -113.5t-150.5 -187.5t-129 -260zM398 1395 q0 68 45 115.5t110 47.5q122 0 122 -126q0 -69 -43.5 -116t-111.5 -47q-122 0 -122 126zM1012 1395q0 68 47 115.5t112 47.5q116 0 118 -126q0 -69 -44 -116t-111 -47q-122 0 -122 126z" />
<glyph unicode="&#xec;" horiz-adv-x="832" d="M-26 485q0 53 481 549l272 19l-375 -591q-87 -133 -136.5 -220t-49.5 -137q0 -29 19.5 -50.5t45.5 -21.5q76 0 182.5 84.5t261.5 246.5q80 87 118 130.5t56 43.5q22 0 22 -18q0 -19 -43.5 -70.5t-130.5 -138.5q-155 -159 -263 -244t-199 -85t-148 63.5t-57 174.5 q0 122 86 262t221 349q-171 -171 -245 -264t-103 -93q-15 0 -15 11zM439 1622q0 69 32 112.5t90 43.5q109 0 109 -133v-111q0 -87 27 -153t61 -116t60 -79.5t26 -45.5q0 -26 -26 -26q-30 0 -92.5 52.5t-125.5 130.5t-112 167.5t-49 157.5z" />
<glyph unicode="&#xed;" horiz-adv-x="832" d="M-26 485q0 53 481 549l272 19l-375 -591q-87 -133 -136.5 -220t-49.5 -137q0 -29 19.5 -50.5t45.5 -21.5q76 0 182.5 84.5t261.5 246.5q80 87 118 130.5t56 43.5q22 0 22 -18q0 -19 -43.5 -70.5t-130.5 -138.5q-155 -159 -263 -244t-199 -85t-148 63.5t-57 174.5 q0 122 86 262t221 349q-171 -171 -245 -264t-103 -93q-15 0 -15 11zM511 1149q0 18 29 37l73 50q46 29 100.5 76.5t108.5 123.5q33 50 54 108t44.5 108t51 81.5t81.5 31.5t83.5 -29.5t29.5 -83.5q0 -91 -87 -195.5t-261 -205.5q-102 -61 -168.5 -95.5t-107.5 -34.5 q-31 2 -31 28z" />
<glyph unicode="&#xee;" horiz-adv-x="832" d="M-26 485q0 53 481 549l272 19l-375 -591q-87 -133 -136.5 -220t-49.5 -137q0 -29 19.5 -50.5t45.5 -21.5q76 0 182.5 84.5t261.5 246.5q80 87 118 130.5t56 43.5q22 0 22 -18q0 -19 -43.5 -70.5t-130.5 -138.5q-155 -159 -263 -244t-199 -85t-148 63.5t-57 174.5 q0 122 86 262t221 349q-171 -171 -245 -264t-103 -93q-15 0 -15 11zM148 1178q0 34 62 70t192 115q253 160 370.5 258.5t143.5 98.5q37 0 50 -42l129 -450q8 -29 8 -50q0 -37 -32 -38q-42 0 -86.5 84t-123.5 250l-444 -234q-182 -95 -221 -97q-48 2 -48 35z" />
<glyph unicode="&#xef;" horiz-adv-x="832" d="M-26 485q0 53 481 549l272 19l-375 -591q-87 -133 -136.5 -220t-49.5 -137q0 -29 19.5 -50.5t45.5 -21.5q76 0 182.5 84.5t261.5 246.5q80 87 118 130.5t56 43.5q22 0 22 -18q0 -19 -43.5 -70.5t-130.5 -138.5q-155 -159 -263 -244t-199 -85t-148 63.5t-57 174.5 q0 122 86 262t221 349q-171 -171 -245 -264t-103 -93q-15 0 -15 11zM280 1395q0 68 45 115.5t110 47.5q122 0 122 -126q0 -69 -43.5 -116t-111.5 -47q-122 0 -122 126zM894 1395q0 68 47 115.5t112 47.5q116 0 118 -126q0 -69 -44 -116t-111 -47q-122 0 -122 126z" />
<glyph unicode="&#xf0;" horiz-adv-x="1256" d="M-26 488q0 19 156 195q181 196 358.5 296.5t318.5 100.5q105 0 177 -75q8 49 12.5 88t4.5 74q0 87 -17.5 217.5t-58.5 300.5l-498 -162l-18 64l496 159q-84 246 -147.5 375.5t-63.5 159.5t18 30q30 0 102 -134.5t198 -398.5l398 131l22 -65l-398 -124q65 -184 97.5 -350 t32.5 -317q0 -528 -322 -825q-130 -123 -278 -184.5t-261 -61.5q-122 0 -189.5 99.5t-67.5 294.5q0 72 30 173q-58 -75 -83 -75q-19 0 -19 14zM209 174q0 -133 113 -131q65 0 159 56t205 169q134 145 201.5 293t67.5 260q0 91 -40 141t-108 50q-167 0 -383 -307 q-113 -163 -164 -303.5t-51 -227.5z" />
<glyph unicode="&#xf1;" horiz-adv-x="1677" d="M-26 485q0 26 87 125l120 132q145 159 249.5 245t198.5 86q68 0 108 -48t40 -131q0 -91 -38 -189t-114 -220q257 288 422 436t268 148q65 0 104 -50t39 -133q0 -122 -67.5 -225.5t-165.5 -236.5q-84 -113 -130 -189t-46 -130q0 -68 61 -68q98 0 409 324q83 87 119 132 t55 45q22 0 24 -18q0 -22 -50 -76t-137 -144q-315 -318 -424 -318q-83 0 -132 74t-49 194q0 113 65.5 221t176.5 245q76 98 121.5 153.5t45.5 96.5q0 42 -43 42q-79 0 -327 -240.5t-646 -745.5l-264 -26l492 738q53 80 86.5 133.5t33.5 94.5q0 50 -52 50q-68 0 -174.5 -90.5 t-269.5 -266.5q-76 -83 -114 -134t-63 -51q-19 0 -19 15zM622 1240q0 29 23 83.5t63 110t98 97t127 41.5q57 0 115 -23t117.5 -47t116 -47t109.5 -23q58 0 92 28.5t58 63t43.5 62t41.5 27.5q37 0 37 -26q0 -29 -22 -84.5t-62 -110t-99 -96.5t-126 -42q-57 0 -116 22.5 t-117.5 47.5t-116 48t-108.5 23q-58 0 -92 -28.5t-61 -63t-45.5 -63t-40.5 -28.5q-35 2 -35 28z" />
<glyph unicode="&#xf2;" horiz-adv-x="1256" d="M-26 488q0 19 156 195q181 201 356.5 297.5t309.5 96.5q122 0 191 -74t69 -200q0 -109 -54.5 -219t-152.5 -240q15 -4 28 -7.5t33 -3.5q65 0 149 40t166 127l48 57q11 11 31 11q15 0 15 -22q0 -15 -4 -19l-42 -50q-80 -98 -180 -147t-207 -49h-39q-20 0 -48 8 q-140 -156 -269 -231.5t-230 -75.5q-122 0 -188 99.5t-66 294.5q0 72 30 173q-58 -75 -83 -75q-19 0 -19 14zM213 178q0 -135 113 -135h3q54 0 150 54.5t207 170.5q134 145 201.5 293t67.5 260q0 91 -40 141t-105 50q-170 0 -386 -307q-113 -163 -162 -301.5t-49 -225.5z M598 1622q0 69 32 112.5t90 43.5q109 0 109 -133v-111q0 -87 27 -153t61 -116t60 -79.5t26 -45.5q0 -26 -26 -26q-30 0 -92.5 52.5t-125.5 130.5t-112 167.5t-49 157.5z" />
<glyph unicode="&#xf3;" horiz-adv-x="1256" d="M-26 488q0 19 156 195q181 201 356.5 297.5t309.5 96.5q122 0 191 -74t69 -200q0 -109 -54.5 -219t-152.5 -240q15 -4 28 -7.5t33 -3.5q65 0 149 40t166 127l48 57q11 11 31 11q15 0 15 -22q0 -15 -4 -19l-42 -50q-80 -98 -180 -147t-207 -49h-39q-20 0 -48 8 q-140 -156 -269 -231.5t-230 -75.5q-122 0 -188 99.5t-66 294.5q0 72 30 173q-58 -75 -83 -75q-19 0 -19 14zM213 178q0 -135 113 -135h3q54 0 150 54.5t207 170.5q134 145 201.5 293t67.5 260q0 91 -40 141t-105 50q-170 0 -386 -307q-113 -163 -162 -301.5t-49 -225.5z M670 1149q0 18 29 37l73 50q46 29 100.5 76.5t108.5 123.5q33 50 54 108t44.5 108t51 81.5t81.5 31.5t83.5 -29.5t29.5 -83.5q0 -91 -87 -195.5t-261 -205.5q-102 -61 -168.5 -95.5t-107.5 -34.5q-31 2 -31 28z" />
<glyph unicode="&#xf4;" horiz-adv-x="1256" d="M-26 488q0 19 156 195q181 201 356.5 297.5t309.5 96.5q122 0 191 -74t69 -200q0 -109 -54.5 -219t-152.5 -240q15 -4 28 -7.5t33 -3.5q65 0 149 40t166 127l48 57q11 11 31 11q15 0 15 -22q0 -15 -4 -19l-42 -50q-80 -98 -180 -147t-207 -49h-39q-20 0 -48 8 q-140 -156 -269 -231.5t-230 -75.5q-122 0 -188 99.5t-66 294.5q0 72 30 173q-58 -75 -83 -75q-19 0 -19 14zM213 178q0 -135 113 -135h3q54 0 150 54.5t207 170.5q134 145 201.5 293t67.5 260q0 91 -40 141t-105 50q-170 0 -386 -307q-113 -163 -162 -301.5t-49 -225.5z M307 1178q0 34 62 70t192 115q253 160 370.5 258.5t143.5 98.5q37 0 50 -42l129 -450q8 -29 8 -50q0 -37 -32 -38q-42 0 -86.5 84t-123.5 250l-444 -234q-182 -95 -221 -97q-48 2 -48 35z" />
<glyph unicode="&#xf5;" horiz-adv-x="1256" d="M-26 488q0 19 156 195q181 201 356.5 297.5t309.5 96.5q122 0 191 -74t69 -200q0 -109 -54.5 -219t-152.5 -240q15 -4 28 -7.5t33 -3.5q65 0 149 40t166 127l48 57q11 11 31 11q15 0 15 -22q0 -15 -4 -19l-42 -50q-80 -98 -180 -147t-207 -49h-39q-20 0 -48 8 q-140 -156 -269 -231.5t-230 -75.5q-122 0 -188 99.5t-66 294.5q0 72 30 173q-58 -75 -83 -75q-19 0 -19 14zM213 178q0 -135 113 -135h3q54 0 150 54.5t207 170.5q134 145 201.5 293t67.5 260q0 91 -40 141t-105 50q-170 0 -386 -307q-113 -163 -162 -301.5t-49 -225.5z M363 1240q0 29 23 83.5t63 110t98 97t127 41.5q57 0 115 -23t117.5 -47t116 -47t109.5 -23q58 0 92 28.5t58 63t43.5 62t41.5 27.5q37 0 37 -26q0 -29 -22 -84.5t-62 -110t-99 -96.5t-126 -42q-57 0 -116 22.5t-117.5 47.5t-116 48t-108.5 23q-58 0 -92 -28.5t-61 -63 t-45.5 -63t-40.5 -28.5q-35 2 -35 28z" />
<glyph unicode="&#xf6;" horiz-adv-x="1256" d="M-26 488q0 19 156 195q181 201 356.5 297.5t309.5 96.5q122 0 191 -74t69 -200q0 -109 -54.5 -219t-152.5 -240q15 -4 28 -7.5t33 -3.5q65 0 149 40t166 127l48 57q11 11 31 11q15 0 15 -22q0 -15 -4 -19l-42 -50q-80 -98 -180 -147t-207 -49h-39q-20 0 -48 8 q-140 -156 -269 -231.5t-230 -75.5q-122 0 -188 99.5t-66 294.5q0 72 30 173q-58 -75 -83 -75q-19 0 -19 14zM213 178q0 -135 113 -135h3q54 0 150 54.5t207 170.5q134 145 201.5 293t67.5 260q0 91 -40 141t-105 50q-170 0 -386 -307q-113 -163 -162 -301.5t-49 -225.5z M439 1395q0 68 45 115.5t110 47.5q122 0 122 -126q0 -69 -43.5 -116t-111.5 -47q-122 0 -122 126zM1053 1395q0 68 47 115.5t112 47.5q116 0 118 -126q0 -69 -44 -116t-111 -47q-122 0 -122 126z" />
<glyph unicode="&#xf7;" horiz-adv-x="3154" d="M470 1056v148h2216v-148h-2216zM1399 492q0 76 52.5 131.5t128.5 55.5t128.5 -55.5t52.5 -131.5t-52.5 -128.5t-128.5 -52.5t-128.5 51t-52.5 130zM1399 1769q0 75 52.5 129t128.5 54t128.5 -54t52.5 -129q0 -76 -52.5 -130.5t-128.5 -54.5t-128.5 54.5t-52.5 130.5z" />
<glyph unicode="&#xf8;" horiz-adv-x="1252" d="M-30 485q0 11 43.5 70t130.5 146q185 193 351.5 284.5t300.5 91.5q46 0 101 -21l152 232l57 -34l-151 -227q98 -65 98 -224q0 -217 -208 -463q15 -3 32 -7t37 -4q65 0 127 34.5t111 78t83 77.5t45 34q22 0 24 -11q0 -18 -38 -61.5t-97 -90t-135 -79.5t-152 -33h-38 q-21 0 -48 7q-134 -152 -262.5 -227.5t-237.5 -75.5q-26 0 -43 3l-173 -263l-62 39l171 250q-145 69 -143 361q0 76 30 177q-50 -75 -83 -75q-23 0 -23 11zM209 166q0 -36 30 -86l621 921q-37 7 -53 7q-167 0 -383 -307q-113 -163 -164 -301.5t-51 -233.5zM289 43 q7 0 12.5 -3t12.5 -3q130 0 322 183q160 148 237.5 312.5t77.5 285.5q0 42 -7.5 76.5t-29.5 67.5z" />
<glyph unicode="&#xf9;" horiz-adv-x="1468" d="M-30 485q0 46 481 549l272 15l-375 -587q-87 -136 -136 -221.5t-49 -135.5q0 -29 16.5 -48.5t44.5 -19.5q144 0 382.5 247t536.5 750l256 15l-455 -720q-50 -76 -78 -128.5t-28 -95.5q0 -68 59 -68q95 0 411 324q83 83 116.5 130t57.5 47q22 0 22 -14q0 -23 -38 -67 t-110 -120q-338 -355 -461 -355h-1q-84 0 -131 74t-47 183q0 29 3.5 56t11.5 53q-159 -185 -286 -275.5t-210 -90.5q-91 0 -150 63.5t-59 174.5q0 122 85 263.5t222 347.5q-170 -171 -242.5 -264t-101.5 -93q-19 0 -19 11zM757 1622q0 69 32 112.5t90 43.5q109 0 109 -133 v-111q0 -87 27 -153t61 -116t60 -79.5t26 -45.5q0 -26 -26 -26q-30 0 -92.5 52.5t-125.5 130.5t-112 167.5t-49 157.5z" />
<glyph unicode="&#xfa;" horiz-adv-x="1468" d="M-30 485q0 46 481 549l272 15l-375 -587q-87 -136 -136 -221.5t-49 -135.5q0 -29 16.5 -48.5t44.5 -19.5q144 0 382.5 247t536.5 750l256 15l-455 -720q-50 -76 -78 -128.5t-28 -95.5q0 -68 59 -68q95 0 411 324q83 83 116.5 130t57.5 47q22 0 22 -14q0 -23 -38 -67 t-110 -120q-338 -355 -461 -355h-1q-84 0 -131 74t-47 183q0 29 3.5 56t11.5 53q-159 -185 -286 -275.5t-210 -90.5q-91 0 -150 63.5t-59 174.5q0 122 85 263.5t222 347.5q-170 -171 -242.5 -264t-101.5 -93q-19 0 -19 11zM829 1149q0 18 29 37l73 50q46 29 100.5 76.5 t108.5 123.5q33 50 54 108t44.5 108t51 81.5t81.5 31.5t83.5 -29.5t29.5 -83.5q0 -91 -87 -195.5t-261 -205.5q-102 -61 -168.5 -95.5t-107.5 -34.5q-31 2 -31 28z" />
<glyph unicode="&#xfb;" horiz-adv-x="1468" d="M-30 485q0 46 481 549l272 15l-375 -587q-87 -136 -136 -221.5t-49 -135.5q0 -29 16.5 -48.5t44.5 -19.5q144 0 382.5 247t536.5 750l256 15l-455 -720q-50 -76 -78 -128.5t-28 -95.5q0 -68 59 -68q95 0 411 324q83 83 116.5 130t57.5 47q22 0 22 -14q0 -23 -38 -67 t-110 -120q-338 -355 -461 -355h-1q-84 0 -131 74t-47 183q0 29 3.5 56t11.5 53q-159 -185 -286 -275.5t-210 -90.5q-91 0 -150 63.5t-59 174.5q0 122 85 263.5t222 347.5q-170 -171 -242.5 -264t-101.5 -93q-19 0 -19 11zM466 1178q0 34 62 70t192 115q253 160 370.5 258.5 t143.5 98.5q37 0 50 -42l129 -450q8 -29 8 -50q0 -37 -32 -38q-42 0 -86.5 84t-123.5 250l-444 -234q-182 -95 -221 -97q-48 2 -48 35z" />
<glyph unicode="&#xfc;" horiz-adv-x="1468" d="M-30 485q0 46 481 549l272 15l-375 -587q-87 -136 -136 -221.5t-49 -135.5q0 -29 16.5 -48.5t44.5 -19.5q144 0 382.5 247t536.5 750l256 15l-455 -720q-50 -76 -78 -128.5t-28 -95.5q0 -68 59 -68q95 0 411 324q83 83 116.5 130t57.5 47q22 0 22 -14q0 -23 -38 -67 t-110 -120q-338 -355 -461 -355h-1q-84 0 -131 74t-47 183q0 29 3.5 56t11.5 53q-159 -185 -286 -275.5t-210 -90.5q-91 0 -150 63.5t-59 174.5q0 122 85 263.5t222 347.5q-170 -171 -242.5 -264t-101.5 -93q-19 0 -19 11zM598 1395q0 68 45 115.5t110 47.5q122 0 122 -126 q0 -69 -43.5 -116t-111.5 -47q-122 0 -122 126zM1212 1395q0 68 47 115.5t112 47.5q116 0 118 -126q0 -69 -44 -116t-111 -47q-122 0 -122 126z" />
<glyph unicode="&#xfd;" horiz-adv-x="1616" d="M-209 -1008q0 201 254.5 420.5t757.5 515.5l300 575q-431 -492 -637 -492q-65 0 -112 61t-47 163q0 133 62 233t142 211q151 209 151 283q0 50 -55 50q-65 0 -169.5 -90.5t-267.5 -270.5q-79 -87 -117 -134t-60 -47q-19 0 -19 15q0 26 87 125l120 132q145 159 249.5 247 t205.5 88q76 0 119.5 -55.5t43.5 -146.5q0 -94 -45 -179.5t-110 -184.5q-98 -148 -152.5 -239t-54.5 -131q0 -30 18.5 -53t40.5 -23q37 0 126.5 56.5t211 175.5t265.5 303t296 438l231 15q-181 -296 -332 -559t-271 -501q159 101 269 200t180.5 175t110 123t54.5 47 q19 0 19 -18q0 -11 -43.5 -70.5t-128.5 -144.5t-214.5 -189.5t-300.5 -209.5q-296 -557 -549.5 -830t-434.5 -273q-194 0 -194 189zM-105 -1016q0 -127 106 -127h3q155 0 331 249.5t427 741.5q-444 -257 -655.5 -481t-211.5 -383zM905 1149q0 18 29 37l73 50 q46 29 100.5 76.5t108.5 123.5q33 50 54 108t44.5 108t51 81.5t81.5 31.5t83.5 -29.5t29.5 -83.5q0 -91 -87 -195.5t-261 -205.5q-102 -61 -168.5 -95.5t-107.5 -34.5q-31 2 -31 28z" />
<glyph unicode="&#xfe;" horiz-adv-x="1428" d="M-720 -1001l1107 1869l-304 -326q-65 -72 -87 -72t-22 15q0 22 60 83t164.5 175t244.5 284t295 416l535 838l242 33l-1139 -1829q260 285 425 434.5t268 149.5q65 0 104 -50t39 -133q0 -122 -67.5 -225.5t-167.5 -236.5q-83 -117 -128.5 -191t-45.5 -128q0 -68 61 -68 q46 0 137 72t235 213q102 102 147 159t56 57q26 0 28 -18q0 -37 -183 -220q-315 -318 -424 -318q-83 0 -132 74t-49 194q0 113 65.5 221t176.5 245q76 98 121.5 153.5t45.5 96.5q0 46 -43 46q-29 0 -128 -68.5t-239 -208t-311 -354.5t-341 -507l-500 -847z" />
<glyph unicode="&#xff;" horiz-adv-x="1616" d="M-209 -1008q0 201 254.5 420.5t757.5 515.5l300 575q-431 -492 -637 -492q-65 0 -112 61t-47 163q0 133 62 233t142 211q151 209 151 283q0 50 -55 50q-65 0 -169.5 -90.5t-267.5 -270.5q-79 -87 -117 -134t-60 -47q-19 0 -19 15q0 26 87 125l120 132q145 159 249.5 247 t205.5 88q76 0 119.5 -55.5t43.5 -146.5q0 -94 -45 -179.5t-110 -184.5q-98 -148 -152.5 -239t-54.5 -131q0 -30 18.5 -53t40.5 -23q37 0 126.5 56.5t211 175.5t265.5 303t296 438l231 15q-181 -296 -332 -559t-271 -501q159 101 269 200t180.5 175t110 123t54.5 47 q19 0 19 -18q0 -11 -43.5 -70.5t-128.5 -144.5t-214.5 -189.5t-300.5 -209.5q-296 -557 -549.5 -830t-434.5 -273q-194 0 -194 189zM-105 -1016q0 -127 106 -127h3q155 0 331 249.5t427 741.5q-444 -257 -655.5 -481t-211.5 -383zM674 1395q0 68 45 115.5t110 47.5 q122 0 122 -126q0 -69 -43.5 -116t-111.5 -47q-122 0 -122 126zM1288 1395q0 68 47 115.5t112 47.5q116 0 118 -126q0 -69 -44 -116t-111 -47q-122 0 -122 126z" />
<glyph unicode="&#x131;" horiz-adv-x="832" d="M-26 485q0 53 481 549l272 19l-375 -591q-87 -133 -136.5 -220t-49.5 -137q0 -29 19.5 -50.5t45.5 -21.5q76 0 182.5 84.5t261.5 246.5q80 87 118 130.5t56 43.5q22 0 22 -18q0 -19 -43.5 -70.5t-130.5 -138.5q-155 -159 -263 -244t-199 -85t-148 63.5t-57 174.5 q0 122 86 262t221 349q-171 -171 -245 -264t-103 -93q-15 0 -15 11z" />
<glyph unicode="&#x152;" horiz-adv-x="3489" d="M137 686q0 319 179.5 686t540.5 715q325 318 654.5 471.5t591.5 153.5q232 0 360.5 -111t128.5 -316q0 -69 -16 -103t-30 -34q-19 0 -19 39q0 22 5.5 47t5.5 54q0 174 -110 273t-306 99q-231 0 -513.5 -149.5t-544.5 -445.5q-170 -193 -300.5 -409.5t-221.5 -426.5 t-136 -403t-45 -341q0 -209 101.5 -324t271.5 -115q95 0 210.5 33.5t243 103.5t258 174.5t252.5 245.5q148 167 259 348t187 356t114 332t38 278q0 192 -79.5 296.5t-200.5 104.5q-94 0 -218 -65.5t-249 -188.5t-244 -294.5t-206 -374.5q-43 -94 -63 -166.5t-31.5 -122.5 t-19.5 -74t-23 -24t-15 56q0 105 49 292t171 413q80 148 180 265.5t208 197t214.5 123t200.5 43.5q174 0 277 -123t103 -351q0 -141 -43.5 -313t-130.5 -353q125 102 291 174t382 126q-87 64 -132.5 144t-45.5 163q0 348 367 620q162 122 326 181t295 59q189 0 295.5 -101 t106.5 -282q0 -116 -47.5 -221t-125 -182.5t-175.5 -123.5t-202 -46q-105 0 -175.5 64.5t-70.5 173.5q0 91 48 171.5t112 138.5t129 90.5t94 32.5q22 0 24 -11q0 -15 -51.5 -49t-110 -89.5t-110.5 -133.5t-52 -179q0 -76 48.5 -119.5t120.5 -43.5q79 0 166 43.5t159.5 115.5 t119.5 166.5t47 197.5q0 160 -85 245t-241 85q-133 0 -279 -81.5t-285 -240.5q-137 -159 -203.5 -322t-66.5 -270q0 -83 32.5 -126.5t72.5 -43.5h89q213 0 211 -73q0 -18 -32.5 -35.5t-83.5 -17.5q-84 0 -137.5 23t-86.5 23q-54 0 -169.5 -34t-239.5 -114 q-109 -68 -197 -164.5t-150 -208.5t-96 -235t-34 -241q0 -213 117.5 -337t316.5 -124q145 0 300 73t303 218q141 137 210.5 279t69.5 263q0 113 -64 185t-162 72q-113 0 -275 -130.5t-291 -387.5q-43 -83 -63 -153.5t-31 -119.5t-18.5 -76t-22.5 -27q-19 0 -20 69 q0 189 61 354.5t155 286.5t213.5 190.5t241.5 69.5q159 0 248 -91t89 -235q0 -253 -257 -542q-163 -181 -352.5 -271.5t-395.5 -90.5q-292 0 -467.5 157t-175.5 418v46q-278 -314 -548 -467.5t-498 -153.5q-261 0 -418 189.5t-157 514.5z" />
<glyph unicode="&#x153;" horiz-adv-x="1818" d="M-30 485q0 18 36.5 59.5t102.5 117.5q181 206 361.5 310.5t313.5 104.5q232 0 261 -252q137 122 275 187t256 65q98 0 152 -55.5t54 -127.5q0 -148 -193.5 -295.5t-561.5 -234.5q-8 -53 -13.5 -89t-5.5 -62q0 -170 152 -170q109 0 217.5 69t239.5 202q105 106 153.5 165 t66.5 59q22 0 24 -18q0 -19 -50 -74.5t-144 -153.5q-148 -151 -276.5 -230.5t-254.5 -79.5q-246 0 -311 344q-148 -174 -284 -259t-245 -85q-122 0 -186 98t-64 292q0 94 26 177q-54 -75 -79 -75q-23 0 -23 11zM205 174q0 -133 117 -131q57 0 151.5 54.5t205.5 170.5 q133 145 197 293t64 257q0 188 -141 190q-87 0 -177.5 -75.5t-201.5 -231.5q-113 -163 -164 -301.5t-51 -225.5zM1045 424q148 33 262 97.5t193.5 140.5t119 152t39.5 133q0 30 -21 53t-47 23q-50 0 -119.5 -38t-147 -113.5t-151.5 -187.5t-128 -260z" />
<glyph unicode="&#x178;" horiz-adv-x="2647" d="M231 1622q0 148 91 322t274 344q216 206 486 319t531 113q231 0 372 -132.5t141 -378.5q0 -181 -85.5 -376.5t-247.5 -426.5q-137 -192 -226 -331t-89 -237q0 -122 109 -122q122 0 273 108t360 312q224 216 366.5 409.5t251.5 334.5q181 231 347.5 386.5t300 249.5 t224 134t125.5 40q22 0 22 -15q0 -26 -55.5 -45.5t-149.5 -76.5q-329 -192 -561 -622q-101 -192 -196.5 -376t-188 -352.5t-187 -320t-201.5 -279.5q-253 -307 -526 -464t-534 -157q-209 0 -328.5 88.5t-119.5 221.5q0 95 45.5 147.5t110.5 52.5q64 0 106 -45.5t42 -117.5 q0 -53 -30.5 -100.5t-30.5 -76.5q0 -43 55.5 -79t164.5 -36q192 0 350.5 82.5t298 241.5t271.5 399.5t277 558.5q-304 -344 -534 -507.5t-367 -163.5q-95 0 -159.5 77.5t-64.5 221.5q0 202 89 377.5t233 381.5q159 224 240.5 380t81.5 271q0 144 -103.5 227.5t-298.5 83.5 q-192 0 -408.5 -78t-420.5 -233q-227 -170 -342.5 -363.5t-115.5 -363.5q0 -122 70 -194.5t168 -72.5q102 0 223 43.5t242.5 127t233.5 203.5t199 267q57 98 89.5 182t49 144t26 94.5t25.5 34.5q8 0 15 -13t7 -45q0 -231 -88.5 -439t-231 -363.5t-323 -248t-361.5 -92.5 q-413 0 -413 364zM2246 3202q0 68 45 115.5t110 47.5q122 0 122 -126q0 -69 -43.5 -116t-111.5 -47q-122 0 -122 126zM2860 3202q0 68 47 115.5t112 47.5q116 0 118 -126q0 -69 -44 -116t-111 -47q-122 0 -122 126z" />
<glyph unicode="&#x2c6;" d="M675 1178q0 34 62 70t192 115q253 160 370.5 258.5t143.5 98.5q37 0 50 -42l129 -450q8 -29 8 -50q0 -37 -32 -38q-42 0 -86.5 84t-123.5 250l-444 -234q-182 -95 -221 -97q-48 2 -48 35z" />
<glyph unicode="&#x2dc;" d="M731 1240q0 29 23 83.5t63 110t98 97t127 41.5q57 0 115 -23t117.5 -47t116 -47t109.5 -23q58 0 92 28.5t58 63t43.5 62t41.5 27.5q37 0 37 -26q0 -29 -22 -84.5t-62 -110t-99 -96.5t-126 -42q-57 0 -116 22.5t-117.5 47.5t-116 48t-108.5 23q-58 0 -92 -28.5t-61 -63 t-45.5 -63t-40.5 -28.5q-35 2 -35 28z" />
<glyph unicode="&#x2000;" horiz-adv-x="1792" />
<glyph unicode="&#x2001;" horiz-adv-x="3585" />
<glyph unicode="&#x2002;" horiz-adv-x="1792" />
<glyph unicode="&#x2003;" horiz-adv-x="3585" />
<glyph unicode="&#x2004;" horiz-adv-x="1195" />
<glyph unicode="&#x2005;" horiz-adv-x="896" />
<glyph unicode="&#x2006;" horiz-adv-x="597" />
<glyph unicode="&#x2007;" horiz-adv-x="597" />
<glyph unicode="&#x2008;" horiz-adv-x="448" />
<glyph unicode="&#x2009;" horiz-adv-x="717" />
<glyph unicode="&#x200a;" horiz-adv-x="199" />
<glyph unicode="&#x2010;" horiz-adv-x="1348" d="M213 466l79 167h883l-80 -167h-882z" />
<glyph unicode="&#x2011;" horiz-adv-x="1348" d="M213 466l79 167h883l-80 -167h-882z" />
<glyph unicode="&#x2012;" horiz-adv-x="1348" d="M213 466l79 167h883l-80 -167h-882z" />
<glyph unicode="&#x2013;" d="M30 485l75 129h1819l-80 -129h-1814z" />
<glyph unicode="&#x2014;" horiz-adv-x="3788" d="M-37 485l74 129h3789l-74 -129h-3789z" />
<glyph unicode="&#x2018;" horiz-adv-x="771" d="M746 2163q0 129 186 327q134 137 226.5 206.5t110.5 69.5q37 0 39 -26q0 -19 -38 -47.5t-86 -70t-95 -97t-70 -120.5q-18 -54 -22 -116t-16 -114.5t-37.5 -88.5t-83.5 -36q-53 0 -83.5 29.5t-30.5 83.5z" />
<glyph unicode="&#x2019;" horiz-adv-x="771" d="M250 1240q0 14 38 44.5t85 72.5t95 94.5t70 117.5q15 53 20.5 115t16.5 115t38 89t84 36q54 0 83.5 -28t29.5 -81q0 -133 -185 -329q-133 -137 -225.5 -207.5t-110.5 -70.5q-39 2 -39 32z" />
<glyph unicode="&#x201a;" horiz-adv-x="771" d="M-137 -424q0 15 38 45.5t85 72t95.5 96.5t70.5 119q14 54 20 116t18 114.5t37.5 89t83.5 36.5q53 0 83 -30t30 -83q0 -134 -185 -330q-134 -136 -226.5 -204.5t-110.5 -68.5q-39 1 -39 27z" />
<glyph unicode="&#x201c;" horiz-adv-x="1200" d="M746 2163q0 129 186 327q134 137 226.5 206.5t110.5 69.5q37 0 39 -26q0 -19 -38 -47.5t-86 -70t-95 -97t-70 -120.5q-18 -54 -22 -116t-16 -114.5t-37.5 -88.5t-83.5 -36q-53 0 -83.5 29.5t-30.5 83.5zM1178 2163q0 129 185 327q134 137 226.5 206.5t112.5 69.5 q33 0 33 -26q0 -19 -38 -47.5t-85 -70t-94 -97t-71 -120.5q-19 -54 -22.5 -116t-14.5 -114.5t-38 -88.5t-84 -36q-54 0 -82 29.5t-28 83.5z" />
<glyph unicode="&#x201d;" horiz-adv-x="1200" d="M666 2076q0 14 38 45t86 72.5t95 95t70 116.5q14 54 19.5 116.5t18 115.5t38 89t83.5 36q53 0 83.5 -28.5t30.5 -80.5q0 -133 -186 -331q-134 -137 -226.5 -204.5t-110.5 -67.5q-39 0 -39 26zM1099 2076q0 14 38 45t85 72.5t94 95t72 116.5q14 54 19.5 116.5t17 115.5 t38 89t84.5 36q109 0 109 -109q0 -133 -185 -331q-133 -137 -225.5 -204.5t-113.5 -67.5q-33 0 -33 26z" />
<glyph unicode="&#x201e;" horiz-adv-x="1200" d="M-83 -424q0 15 36 45.5t85 72t94.5 96.5t69.5 119q14 54 20 116t17 114.5t37.5 89t84.5 36.5q53 0 83 -30t30 -83q0 -134 -185 -330q-134 -136 -226.5 -204.5t-112.5 -68.5q-33 1 -33 27zM344 -424q0 15 38 45.5t86 72t95 96.5t70 119q15 54 20.5 116t17.5 114.5t37.5 89 t83.5 36.5q53 0 81 -30t28 -83q0 -134 -185 -330q-133 -136 -225.5 -204.5t-111.5 -68.5q-35 1 -35 27z" />
<glyph unicode="&#x2022;" horiz-adv-x="2234" d="M568 1410q0 113 43.5 211.5t117.5 172.5t175 117.5t213 43.5q113 0 212 -43.5t173 -117.5t117.5 -172.5t43.5 -211.5t-43.5 -212t-117.5 -175t-174 -119.5t-214 -43.5q-113 0 -214 43.5t-175 117.5t-115.5 175t-41.5 214z" />
<glyph unicode="&#x2026;" horiz-adv-x="3788" d="M437 91q0 61 45 117.5t108 56.5q46 0 76.5 -31.5t30.5 -78.5q0 -61 -45 -117t-106 -56q-46 0 -77.5 31t-31.5 78zM1698 91q0 61 45.5 117.5t108.5 56.5q46 0 76.5 -31.5t30.5 -78.5q0 -61 -45.5 -117t-106.5 -56q-46 0 -77.5 31t-31.5 78zM2964 91q0 61 45 117.5 t110 56.5q46 0 76 -31.5t30 -78.5q0 -61 -45.5 -117t-106.5 -56q-46 0 -77.5 31t-31.5 78z" />
<glyph unicode="&#x202f;" horiz-adv-x="717" />
<glyph unicode="&#x2039;" horiz-adv-x="806" d="M220 572l526 390q37 26 57 28q37 0 39 -35q0 -19 -12 -28t-31 -30l-409 -348l126 -397q11 -30 11 -47q0 -42 -31 -40q-34 0 -59 57z" />
<glyph unicode="&#x203a;" horiz-adv-x="806" d="M-43 98q0 19 12.5 29t30.5 28l409 348l-124 398q-11 26 -13 46q0 43 31 43q30 0 61 -58l215 -451l-525 -390q-19 -11 -31 -18.5t-27 -7.5q-39 0 -39 33z" />
<glyph unicode="&#x205f;" horiz-adv-x="896" />
<glyph unicode="&#x2122;" horiz-adv-x="3113" d="M470 2325l18 324h807l20 -324h-42q-15 148 -76 215t-189 67h-42v-788q0 -47 25 -74.5t65 -27.5h58v-46h-448v46h61q43 0 67 27.5t24 74.5v788h-41q-129 0 -189.5 -67t-76.5 -215h-41zM1482 1671v42h55q43 0 68 28t25 78v679q0 46 -25 75.5t-68 29.5h-55v46h314l269 -766 l292 766h300v-46h-58q-42 0 -66 -27t-24 -75v-682q0 -47 24 -74.5t66 -27.5h58v-46h-422v46h57q43 0 67 27.5t24 74.5v751l-344 -907h-15l-322 901v-745q0 -47 24 -74.5t67 -27.5h55v-46h-366z" />
<glyph unicode="&#xe000;" horiz-adv-x="1075" d="M0 1075h1075v-1075h-1075v1075z" />
<glyph unicode="&#xfb01;" horiz-adv-x="1666" d="M-651 -1114l601 1114q-61 50 -59 105q0 54 33 90t83 36q23 0 61 -18l387 723q-116 -102 -198.5 -189.5t-135.5 -148t-85 -94.5t-47 -34t-15 15q0 26 143.5 193t450.5 454q322 622 578 931t471 309q76 0 126 -53t50 -129q0 -209 -290.5 -510.5t-869.5 -724.5l-444 -901h13 q105 0 213.5 74t235 206t280 309.5t357.5 390.5l273 19l-375 -591q-87 -133 -136 -220t-49 -137q0 -29 18.5 -50.5t44.5 -21.5q76 0 182 84.5t262 246.5q79 87 117 130.5t57 43.5q22 0 24 -18q0 -19 -44.5 -70.5t-131.5 -138.5q-155 -159 -262.5 -244t-198.5 -85 q-90 0 -147.5 63.5t-57.5 174.5q0 122 85 262t222 349q-178 -189 -318.5 -347t-259.5 -275.5t-229.5 -181.5t-222.5 -64l-524 -1047zM697 1080q269 182 460.5 359.5t314.5 329t180 267.5t57 173q0 109 -103 109q-174 0 -389.5 -308t-519.5 -930zM1641 1648q0 61 47 116 t108 55q47 0 74.5 -30.5t27.5 -79.5q0 -61 -45.5 -116.5t-106.5 -55.5q-46 0 -75.5 30.5t-29.5 80.5z" />
<glyph unicode="&#xfb02;" horiz-adv-x="1666" d="M-651 -1114l601 1114q-61 50 -59 105q0 54 33 90t83 36q23 0 61 -18l387 723q-116 -102 -198.5 -189.5t-135.5 -148t-85 -94.5t-47 -34t-15 15q0 26 143.5 193t450.5 454q322 622 578 931t471 309q76 0 126 -53t50 -129q0 -209 -290.5 -510.5t-869.5 -724.5l-444 -901h24 q79 0 198.5 74t263.5 233q322 344 494 548.5t176 211.5l745 1160l248 33l-1167 -1852q-87 -133 -139 -220t-52 -137q0 -29 21.5 -50.5t51.5 -21.5q90 0 193 86t262 245q79 80 117 127t57 47q22 0 24 -18q0 -19 -44.5 -70.5t-131.5 -138.5q-155 -159 -262.5 -244t-198.5 -85 q-90 0 -147.5 63.5t-57.5 174.5q0 122 85 262t222 349q-178 -193 -320 -353t-263.5 -275.5t-229.5 -177.5t-214 -62h-3l-524 -1047zM697 1080q269 182 460.5 359.5t314.5 329t180 267.5t57 173q0 109 -103 109q-174 0 -389.5 -308t-519.5 -930z" />
<glyph unicode="&#xfb03;" horiz-adv-x="2499" d="M1641 485q0 53 481 549l272 19l-375 -591q-87 -133 -136.5 -220t-49.5 -137q0 -29 19.5 -50.5t45.5 -21.5q76 0 182.5 84.5t261.5 246.5q80 87 118 130.5t56 43.5q22 0 22 -18q0 -19 -43.5 -70.5t-130.5 -138.5q-155 -159 -263 -244t-199 -85t-148 63.5t-57 174.5 q0 122 86 262t221 349q-171 -171 -245 -264t-103 -93q-15 0 -15 11zM2470 1648q0 61 47 116t108 55q47 0 74.5 -30.5t27.5 -79.5q0 -61 -45.5 -116.5t-104.5 -55.5q-46 0 -76.5 30.5t-30.5 80.5zM183 -1114l601 1114q-61 50 -59 105q0 54 33 90t83 36q23 0 61 -18l387 723 q-116 -102 -198.5 -189.5t-135.5 -148t-85 -94.5t-47 -34t-15 15q0 26 143.5 193t450.5 454q322 622 578 931t471 309q76 0 126 -53t50 -129q0 -209 -290.5 -510.5t-869.5 -724.5l-444 -901h20q76 0 179.5 62t236.5 195q109 109 157.5 168t66.5 59q22 0 22 -18 q0 -19 -70 -101t-205 -210q-265 -246 -441 -246h-14l-524 -1047zM1531 1080q269 182 460.5 359.5t314.5 329t180 267.5t57 173q0 109 -103 109q-174 0 -389.5 -308t-519.5 -930zM-651 -1114l601 1114q-61 50 -59 105q0 54 33 90t83 36q23 0 61 -18l387 723 q-116 -102 -198.5 -189.5t-135.5 -148t-85 -94.5t-47 -34t-15 15q0 26 143.5 193t450.5 454q322 622 578 931t471 309q76 0 126 -53t50 -129q0 -209 -290.5 -510.5t-869.5 -724.5l-444 -901h20q76 0 179.5 62t236.5 195q109 109 157.5 168t66.5 59q22 0 22 -18 q0 -19 -70 -101t-205 -210q-265 -246 -441 -246h-14l-524 -1047zM697 1080q269 182 460.5 359.5t314.5 329t180 267.5t57 173q0 109 -103 109q-174 0 -389.5 -308t-519.5 -930z" />
<glyph unicode="&#xfb04;" horiz-adv-x="2499" d="M1641 485q0 26 87 125l120 132q159 174 240.5 271t89.5 108l747 1160l246 33l-1167 -1852q-87 -133 -136 -220t-49 -137q0 -29 18.5 -50.5t49.5 -21.5q91 0 193.5 86t261.5 245q80 80 118 127t56 47q22 0 22 -18q0 -19 -43.5 -70.5t-130.5 -138.5q-155 -159 -263 -244 t-199 -85t-148 63.5t-57 174.5q0 122 83 262t220 349q-170 -171 -240.5 -266t-99.5 -95q-19 0 -19 15zM183 -1114l601 1114q-61 50 -59 105q0 54 33 90t83 36q23 0 61 -18l387 723q-116 -102 -198.5 -189.5t-135.5 -148t-85 -94.5t-47 -34t-15 15q0 26 143.5 193t450.5 454 q322 622 578 931t471 309q76 0 126 -53t50 -129q0 -209 -290.5 -510.5t-869.5 -724.5l-444 -901h20q76 0 179.5 62t236.5 195q109 109 157.5 168t66.5 59q22 0 22 -18q0 -19 -70 -101t-205 -210q-265 -246 -441 -246h-14l-524 -1047zM1531 1080q269 182 460.5 359.5 t314.5 329t180 267.5t57 173q0 109 -103 109q-174 0 -389.5 -308t-519.5 -930zM-651 -1114l601 1114q-61 50 -59 105q0 54 33 90t83 36q23 0 61 -18l387 723q-116 -102 -198.5 -189.5t-135.5 -148t-85 -94.5t-47 -34t-15 15q0 26 143.5 193t450.5 454q322 622 578 931 t471 309q76 0 126 -53t50 -129q0 -209 -290.5 -510.5t-869.5 -724.5l-444 -901h20q76 0 179.5 62t236.5 195q109 109 157.5 168t66.5 59q22 0 22 -18q0 -19 -70 -101t-205 -210q-265 -246 -441 -246h-14l-524 -1047zM697 1080q269 182 460.5 359.5t314.5 329t180 267.5 t57 173q0 109 -103 109q-174 0 -389.5 -308t-519.5 -930z" />
</font>
</defs>
</svg>
