<?xml version="1.0" standalone="no"?>
<!DOCTYPE svg PUBLIC "-//W3C//DTD SVG 1.1//EN" "http://www.w3.org/Graphics/SVG/1.1/DTD/svg11.dtd" >
<svg xmlns="http://www.w3.org/2000/svg">
<metadata>
This is a custom SVG webfont generated by Font Squirrel.
Copyright   : Copyright c 2012 Brownfox gayanehbgmailcom with Reserved Font Name Henny Penny
Designer    : Olga Umpeleva
Foundry     : Brownfox
Foundry URL : httpwwwbrownfoxorg
</metadata>
<defs>
<font id="HennyPennyRegular" horiz-adv-x="1349" >
<font-face units-per-em="2048" ascent="1638" descent="-410" />
<missing-glyph horiz-adv-x="464" />
<glyph unicode=" "  horiz-adv-x="464" />
<glyph unicode="&#x09;" horiz-adv-x="464" />
<glyph unicode="&#xa0;" horiz-adv-x="464" />
<glyph unicode="!" horiz-adv-x="428" d="M205 -62q-21 0 -41 8t-35.5 22t-24.5 35t-9 48q0 32 10 53.5t25.5 35t34.5 19t37 5.5q20 0 39 -7.5t35 -21.5t26 -35t10 -47q0 -28 -8.5 -49.5t-23.5 -36t-34 -22t-41 -7.5zM205 343q-8 1 -10.5 14t-4 37t-1 58t-0.5 75q-1 65 -3.5 128.5t-7.5 127t-12 128t-16 133.5 q-11 77 -21.5 142t-19 120t-14.5 99.5t-6 78.5q0 32 6.5 58.5t20 46t35.5 30t52 10.5q41 0 67.5 -17t41 -46.5t20 -71.5t5.5 -90q0 -61 -4 -137t-10 -158.5t-14 -166.5t-17 -160t-17.5 -140.5t-14.5 -108.5q-16 -96 -28 -144t-27 -46z" />
<glyph unicode="&#x22;" horiz-adv-x="504" d="M144 1410q27 0 44 -18.5t17 -65.5v-65t-1.5 -103t-3 -118.5t-5 -112.5t-9 -83.5t-14.5 -32.5q-5 0 -11 18.5t-13.5 50.5t-14.5 73.5t-13.5 86.5l-13 90t-11 83.5t-7 68.5t-2.5 44q0 84 58 84zM358 1438q17 0 28.5 -8t18 -20.5t8.5 -29t2 -33.5q0 -24 -1.5 -59t-4 -71 t-5.5 -68t-5 -51q-2 -21 -5 -49t-6.5 -57.5t-8 -58t-9.5 -51t-11.5 -36.5t-12.5 -14q-9 0 -16 29t-13 75.5t-10.5 103.5t-7 113t-4 104t-1.5 78q0 52 14.5 77.5t49.5 25.5z" />
<glyph unicode="#" horiz-adv-x="1773" d="M991 1389q10 0 13.5 -8t3.5 -17q0 -13 -10.5 -46t-26.5 -75.5t-35.5 -92t-38.5 -95t-34.5 -84t-23.5 -60.5q-5 -14 -7.5 -23t-2.5 -18q0 -13 13.5 -20.5t32.5 -11t40 -4t37 -0.5q38 0 57 13.5t33 37.5q13 20 29 52t33 67.5t32 69.5t25 58q5 10 10 21t11.5 20t13.5 15 t15 6q7 0 11 -6.5t4 -15.5q0 -18 -9 -46.5t-23.5 -62t-30.5 -68.5t-30.5 -66t-23.5 -54.5t-9 -33.5q0 -14 10.5 -18t21.5 -6q19 -2 55 -3t82 -2t97.5 -2t102.5 -2.5t96.5 -4t79.5 -5.5q22 -3 31.5 -8t9.5 -17q0 -25 -45 -25q-20 0 -55 3t-74 7.5t-76 8t-58 6.5q-15 1 -38 3 t-50.5 3t-58 2.5t-58.5 1.5t-51 -1.5t-37 -5.5q-17 -6 -27 -17t-19 -28q-2 -4 -11.5 -24t-23 -48t-29 -61t-29.5 -62.5t-24.5 -53t-13.5 -31.5q-5 -14 -5 -21q0 -5 4 -9t14 -4q30 0 71 5t87 12t93 16t89 16t75 12t53 5q19 0 26.5 -5.5t7.5 -14.5q0 -12 -11 -20t-43 -15 q-28 -5 -93.5 -13t-154.5 -19q-72 -10 -124 -18t-94 -18q-24 -7 -39.5 -23t-29.5 -48q-2 -5 -15 -35t-32 -75.5t-43 -103t-49.5 -118.5t-50.5 -120.5t-45 -108.5t-35 -83.5t-19 -45.5q-9 -22 -18.5 -45t-20.5 -40.5t-23.5 -29t-24.5 -11.5t-19 8.5t-7 21.5q0 17 6 39 t14 43.5t15.5 39.5t12.5 27q16 42 38.5 94.5t47 108.5t48.5 111t44.5 101t35 80t20.5 47q7 17 15 36t14.5 37.5t11 32.5t4.5 22q0 13 -21 13q-12 0 -30.5 -2t-37 -5t-35 -7t-24.5 -8q-13 -6 -21 -15.5t-15 -27.5q-1 -2 -13.5 -30.5t-31 -71t-40 -92t-41.5 -94t-35 -77.5 t-20 -41q-8 -15 -16.5 -31.5t-18.5 -30.5t-20.5 -23t-25.5 -9q-11 0 -20 9t-9 29q0 25 14 67.5t35 92t46 101.5t46 96.5t35.5 76t14.5 40.5q0 15 -22 15q-28 0 -68.5 -5t-84 -10.5t-84 -10.5t-66.5 -5q-17 0 -27.5 3t-16 7.5t-7.5 10.5t-2 12q0 16 11 24t35 12q7 2 33.5 4.5 t62 6t76 7.5t77 8.5t65 9t39.5 8.5q21 7 33.5 19t19.5 24q4 7 15.5 30t26.5 54t31.5 67.5t30.5 71.5t23 65t9 49q0 21 -15.5 33.5t-57.5 16.5q-62 5 -116 8t-108.5 5t-114 4t-130.5 6q-24 2 -40.5 6t-16.5 20q0 13 14 17t36 4q9 0 43 -1t82.5 -3.5t105.5 -4.5t114 -4.5 t107 -4t85 -1.5q33 0 57.5 6t40.5 30q6 11 20.5 44.5t33 77.5t38 93.5t36.5 93.5t29.5 76.5t15.5 41.5q14 34 24 50t23 16zM839 793q-10 -2 -20 -4.5t-20.5 -9t-21.5 -19t-22 -33.5q-5 -8 -13 -27t-18 -43.5t-21.5 -53.5t-22.5 -58q-26 -68 -56 -149q38 0 72 2q28 2 56 5.5 t41 9.5q18 9 30 23.5t22.5 34.5t21 45t23.5 54q16 36 31.5 74.5t27 70t18.5 51.5l7 20q-26 3 -64.5 5t-70.5 2z" />
<glyph unicode="$" horiz-adv-x="1375" d="M881 1553q7 0 12 -6t5 -25q0 -20 -7.5 -67.5t-18.5 -105.5q37 -7 67 -13t59 -6q23 0 43 10t37 25t32.5 32.5t27.5 33t21.5 25.5t17.5 10q7 0 9.5 -4.5t2.5 -9.5q0 -11 -8 -26.5t-20 -41.5t-26 -63t-27 -90t-21 -108.5t-15 -101t-14 -74t-19 -28.5q-7 0 -9.5 17t-4 47.5 t-5.5 72t-17 90.5q-6 23 -17.5 47t-29 46t-40 39.5t-51.5 28.5q-10 -53 -19 -104.5t-17 -92.5l-48 -258q51 -61 107.5 -124t102.5 -131.5t76.5 -144t30.5 -161.5q0 -118 -36 -200.5t-96.5 -135t-140 -76t-165.5 -23.5q-49 0 -90 10l-14 -55q-22 -92 -38 -133t-31 -41 q-16 0 -16 24q0 11 5 36t12.5 56.5t15.5 65.5t15 63q-41 16 -73 38.5t-57.5 42.5t-47 34.5t-42.5 14.5q-22 0 -42.5 -18t-38.5 -39.5t-32.5 -39.5t-23.5 -18q-7 0 -7 8q0 10 11.5 34.5t28.5 61t36.5 83.5t34.5 102q19 63 27.5 115.5t13.5 90.5t10 58.5t15 20.5q14 0 14 -38 q0 -26 0.5 -55.5t1.5 -60.5t4.5 -62.5t10.5 -58.5q22 -94 66 -158t106 -97q24 102 43 188t35.5 163.5t31.5 151t31 148.5q-48 50 -94.5 100.5t-84 105t-60 113.5t-22.5 125q0 91 32.5 153.5t84 100t115 53.5t124.5 16q13 0 25.5 -1t25.5 -2q8 48 15.5 86t12.5 62 q5 26 12.5 37.5t18.5 11.5zM910 165q0 57 -15.5 107.5t-41.5 96.5t-60 89t-72 85l-138 -620q21 -5 43 -8.5t45 -3.5q56 0 100 18t75 51.5t47.5 80.5t16.5 104zM624 1158q0 -34 9 -66.5t24 -64t36 -63t45 -63.5l79 419q-6 1 -14.5 2t-16.5 1q-36 0 -66 -11t-51 -32t-33 -51.5 t-12 -70.5z" />
<glyph unicode="%" horiz-adv-x="1357" d="M386 1586q67 0 121 -20t92 -58.5t58.5 -93t20.5 -122.5q0 -88 -29 -147t-73.5 -94t-97.5 -50t-101 -15q-51 0 -102 17.5t-91 54t-65.5 93t-25.5 136.5q0 76 23 133t63 93.5t93 54.5t114 18zM375 1545q-31 0 -54 -13.5t-37.5 -37.5t-21.5 -57t-7 -73q0 -73 11 -135 t32.5 -107.5t52 -70.5t69.5 -25q34 0 56.5 19t36 50.5t19 71.5t5.5 80q0 46 -7 98.5t-25 96.5t-49.5 73.5t-80.5 29.5zM996 711q69 0 127 -23.5t100.5 -65t66 -98t23.5 -122.5q0 -84 -28 -147t-76.5 -105.5t-112.5 -64t-134 -21.5q-63 0 -118 18t-96 55t-64.5 93t-23.5 133 q0 88 29 153.5t76.5 109t107.5 64.5t123 21zM991 668q-37 0 -69 -18t-56.5 -56t-39 -96t-14.5 -137q0 -59 13 -106t36 -79t53.5 -48t65.5 -16q44 0 75.5 21t52.5 59t31 92.5t10 122.5q0 72 -11.5 121.5t-32.5 80.5t-50 45t-64 14zM1174 1599q15 0 15 -18q0 -11 -12.5 -36 t-32 -58.5t-44.5 -72t-50.5 -76.5t-49.5 -72t-41 -58q-29 -42 -71 -101t-91.5 -127.5t-104 -143.5t-109 -149.5t-106 -145.5t-95 -130t-76.5 -104.5t-50 -68.5q-33 -47 -64.5 -89.5t-54.5 -77.5q-27 -39 -46.5 -62.5t-35.5 -23.5q-8 0 -13.5 4t-5.5 16q0 21 25.5 64.5 t68.5 104.5q48 67 104 144.5t116 167.5q47 68 105 149t121 168t128 176t127.5 174t118.5 162.5t101 140.5q23 31 41 57.5t33.5 45.5t27.5 29.5t21 10.5z" />
<glyph unicode="&#x26;" horiz-adv-x="1331" d="M561 1500q54 0 92.5 -15t64 -41t37.5 -59.5t12 -69.5q0 -72 -29.5 -136.5t-75.5 -126.5t-102 -123.5t-109 -127.5q34 -70 71 -134.5t71 -116.5t62 -90.5t43 -58.5q13 -17 32 -39.5t43.5 -49t53.5 -55t59 -55.5q36 41 63 87.5t44.5 93.5t26.5 93t9 85q0 82 -24.5 116.5 t-62.5 34.5q-26 0 -63 -8t-75.5 -17t-73 -17t-55.5 -8q-14 0 -22 4t-8 14t15.5 15.5t46.5 13.5t78 23.5t110 45.5q52 25 88 53t60.5 52t39.5 40t25 16q9 0 16 -11.5t12.5 -31.5t8 -46.5t2.5 -54.5q0 -88 -13 -175t-40 -169t-68 -155.5t-95 -133.5q28 -24 56.5 -44.5t55 -36 t51.5 -23.5t47 -8q18 0 34.5 11t31 29t26.5 37.5t22 37t18.5 29t15.5 11.5q8 0 8 -14q0 -13 -11.5 -45t-29.5 -72t-41.5 -83t-47.5 -79t-46 -59.5t-39 -23.5q-15 0 -43 11.5t-66.5 37t-87 66.5t-104.5 101q-59 -32 -128.5 -50.5t-150.5 -18.5q-98 0 -180 26t-140.5 77 t-91.5 127.5t-33 177.5q0 68 17.5 129.5t48 117.5t71 108t87.5 100q-47 149 -47 300q0 87 25 154.5t68.5 113t103.5 69.5t130 24zM611 244q-165 216 -260 418q-33 -60 -53.5 -123.5t-20.5 -134.5q0 -76 20 -141.5t58 -114t93.5 -76t126.5 -27.5q47 0 89 10.5t79 28.5 q-29 35 -64 74t-68 86zM341 1215q0 -67 13 -133t37 -134q53 51 102 101.5t85 100.5t57.5 100t21.5 101q0 53 -29.5 86.5t-87.5 33.5q-37 0 -72.5 -14t-64 -44t-45.5 -79t-17 -119z" />
<glyph unicode="'" horiz-adv-x="300" d="M150 1341q31 0 47 -24.5t16 -77.5q0 -21 -0.5 -61.5t-3 -90t-5 -101t-6 -94t-8 -69.5t-9.5 -27q-6 0 -15.5 26.5t-19.5 68t-20 93t-18.5 101.5t-13.5 93t-5 68q0 49 14.5 72t46.5 23z" />
<glyph unicode="(" horiz-adv-x="741" d="M423 1712q9 0 9 -11q0 -8 -12.5 -31.5t-32 -61.5t-42 -88.5t-43.5 -110.5q-17 -55 -35.5 -128t-33.5 -165.5t-24 -204t-9 -243.5q0 -138 19.5 -262.5t50 -234t67.5 -201t72 -162.5q66 -134 126 -222.5t105.5 -145t73.5 -86.5t28 -47q0 -8 -6.5 -11t-11.5 -3q-17 0 -52 19 t-82 56t-102.5 93.5t-112.5 131.5q-29 37 -67 91t-77 123t-77 152t-68 181.5t-48.5 210.5t-18.5 239q0 172 26.5 322t67.5 274.5t90 222.5t94 165t79.5 102.5t46.5 35.5z" />
<glyph unicode=")" horiz-adv-x="763" d="M126 1287q31 0 89.5 -19.5t127.5 -60t140.5 -104.5t130 -153t96 -205.5t37.5 -261.5q0 -113 -23.5 -210.5t-63.5 -179.5t-92.5 -149.5t-110 -121t-117 -92.5t-113 -64.5t-98 -38.5t-72.5 -13q-40 0 -40 18q0 11 12 20t34 19.5t51.5 24t65.5 35.5t75.5 52.5t81.5 75.5 q67 71 109 147.5t66 153.5t33 151t9 140q0 40 -5.5 96t-19 118t-36 125.5t-55.5 120.5q-38 68 -78 118t-77.5 85.5t-69.5 60t-56.5 41.5t-39 29t-14.5 24q0 18 23 18z" />
<glyph unicode="*" horiz-adv-x="843" d="M404 1578q32 0 50.5 -22.5t23.5 -60.5q3 -22 6 -53t5 -64t4.5 -65.5t5 -58t5 -41.5t5.5 -16t12.5 17.5t23 43.5t30.5 57t37.5 57t44 43.5t47.5 17.5q26 0 37 -14t11 -36q0 -24 -17.5 -49t-43.5 -48.5t-55.5 -45t-55.5 -39t-43.5 -29.5t-17.5 -18q0 -8 16.5 -21.5t41 -31 t53.5 -38.5t54 -44.5t41.5 -49t16.5 -52.5q0 -28 -15.5 -47.5t-45.5 -19.5q-27 0 -48 14.5t-39 38.5q-23 31 -41.5 66.5t-32.5 64.5t-24 49t-15 20t-18.5 -14.5t-31.5 -36.5t-40 -48t-45 -48t-45 -36.5t-40 -14.5q-17 0 -30.5 10.5t-13.5 32.5q0 21 16 42t41 41.5t53.5 38.5 t53.5 32t41 24.5t16 15.5t-15 5q-14 0 -39 -0.5t-57 -0.5q-34 0 -73 0.5t-77 4.5q-40 4 -68 19.5t-28 49.5q0 17 5.5 29t15.5 19t21.5 9.5t24.5 2.5q23 0 55 -8t65.5 -19.5t66.5 -24.5t58.5 -24.5t41.5 -18t16 -5.5q0 6 -8 26t-20 49t-26 62.5t-26 67.5t-20 64.5t-8 52.5 q0 21 5.5 35.5t14 23.5t19.5 13t22 4z" />
<glyph unicode="+" horiz-adv-x="758" d="M422 1008q11 0 18 -9.5t7 -38.5q0 -10 -1 -36.5t-1.5 -61.5t-1.5 -75t-1 -78q0 -29 0.5 -54.5t2.5 -43.5q3 -21 21 -21q21 0 44 3t44.5 6.5t42.5 6.5t38 3q22 0 30 -6.5t8 -17.5q0 -25 -40 -33q-16 -3 -37.5 -6t-43 -5.5t-41.5 -5t-33 -5.5q-10 -2 -17 -7.5t-7 -26.5 q0 -14 2.5 -41t6.5 -60.5t8.5 -70t8.5 -69.5t6.5 -59.5t2.5 -39.5q0 -26 -8.5 -35t-17.5 -9q-12 0 -20.5 9.5t-12.5 33.5q-2 11 -4.5 34.5t-6 52.5t-7.5 62.5t-8 65.5t-8 60.5t-7 49.5q-4 24 -13.5 31.5t-24.5 7.5q-17 0 -47.5 -1t-64.5 -2.5t-65.5 -2.5t-50.5 -1 q-20 0 -29.5 10.5t-9.5 24.5q0 16 12 24.5t33 9.5q26 2 55.5 3t57 1t51.5 0.5t39 2.5q31 4 42.5 16.5t14.5 43.5q4 40 5.5 78t1.5 74q0 48 -2 89t-2 68q0 51 30 51z" />
<glyph unicode="," horiz-adv-x="433" d="M208 277q38 0 64.5 -13.5t43.5 -36t24.5 -51.5t7.5 -59q0 -48 -12.5 -96.5t-33 -93.5t-45 -84.5t-48.5 -68.5t-44.5 -46t-31.5 -17q-15 0 -15 13q0 8 5.5 17t15 21t21 28t22.5 36q14 24 24.5 49t10.5 51q0 22 -10 39.5t-24.5 33.5t-31.5 31.5t-31.5 33.5t-24 40t-9.5 51 q0 27 8.5 50t25 39t39 24.5t49.5 8.5z" />
<glyph unicode="-" horiz-adv-x="750" d="M377 333q-27 0 -64.5 2.5t-76.5 6.5t-73 10t-53 13q-24 8 -24 29q0 12 7 18t19 6q22 0 47 -3t56 -7t68.5 -7.5t84.5 -3.5q95 0 158.5 7t99.5 7q38 0 38 -24q0 -25 -34 -36t-100 -14.5t-153 -3.5z" />
<glyph unicode="." horiz-adv-x="410" d="M208 218q32 0 54.5 -11t36 -29t20 -40.5t6.5 -44.5q0 -38 -9 -67t-25 -47t-38 -27t-46 -9q-26 0 -48 9t-38.5 27t-25.5 42.5t-9 55.5q0 33 9 59t25.5 44t38.5 28t49 10z" />
<glyph unicode="/" horiz-adv-x="1188" d="M1158 1599q14 0 14 -18q0 -11 -12.5 -36t-32 -58.5t-44.5 -72t-50.5 -76.5t-49.5 -72t-41 -58q-29 -42 -71 -101t-91.5 -127.5t-104 -143.5t-109 -149.5t-106 -145.5t-95 -130t-76.5 -104.5t-50 -68.5q-32 -47 -63.5 -89.5t-55.5 -77.5q-27 -39 -46 -62.5t-36 -23.5 q-8 0 -13.5 4t-5.5 16q0 21 26 64.5t68 104.5q48 67 104 144.5t116 167.5q48 68 105.5 149t120.5 168t128.5 176t127.5 174t118.5 162.5t100.5 140.5q23 31 41.5 57.5t33.5 45.5t27 29.5t22 10.5z" />
<glyph unicode="0" horiz-adv-x="1244" d="M360 1295q31 14 65 24t68 16t66 9t60 3q98 0 181 -24t150 -67.5t119 -102.5t86.5 -129.5t52.5 -149.5t18 -162q0 -128 -40.5 -238.5t-116.5 -191.5t-185 -127.5t-244 -46.5q-75 0 -150 16.5t-144 51t-128.5 86.5t-103.5 124t-69.5 163t-25.5 203q0 85 22.5 167 t65.5 153.5t106.5 129t146.5 93.5zM590 1295q-96 0 -167 -41t-118 -110.5t-70 -160.5t-23 -192q0 -139 31 -253.5t90 -197t145 -128t195 -45.5q95 0 161 40.5t108 109.5t61 159.5t19 191.5q0 306 -107.5 466.5t-324.5 160.5z" />
<glyph unicode="1" horiz-adv-x="870" d="M15 922q-15 0 -15 14q0 12 19.5 24t53 34.5t79 59.5t99.5 98q51 58 80.5 114.5t47 101.5t26.5 73t18 28q7 0 13 -12t10 -30t8 -39t7 -39q4 -17 11.5 -64.5t18 -114.5t23.5 -149t26.5 -168t28.5 -172t28.5 -161t25 -134t20.5 -92q11 -38 21.5 -65.5t25.5 -49t34 -36.5 t47 -28q16 -7 33.5 -12.5t31.5 -10.5t23.5 -9t9.5 -9q0 -4 -5.5 -7t-20.5 -3q-19 0 -51 2.5t-75 2.5q-69 -1 -131.5 -13.5t-118.5 -31t-105 -40.5t-88.5 -41t-69.5 -31t-49 -12q-7 0 -12 3t-5 11q0 11 18.5 24.5t48 29.5t64.5 34.5t70 40.5q23 15 40 32t27.5 38t16 48.5 t5.5 61.5q0 26 -2.5 79.5t-8 123t-12.5 147.5t-16.5 153t-21 140t-24.5 108q-4 12 -9.5 24.5t-14.5 23t-21 17.5t-30 7q-19 0 -42.5 -9.5t-48 -23t-49.5 -29.5t-46.5 -29.5t-39 -23t-27.5 -9.5z" />
<glyph unicode="2" horiz-adv-x="918" d="M423 1399q91 0 159 -27.5t114 -73.5t69 -108t23 -130q0 -67 -21.5 -133t-56.5 -127.5t-80.5 -118t-93.5 -106t-95 -90.5t-85.5 -71t-64.5 -48.5t-33 -22.5q-21 -15 -38 -27t-17 -19t28.5 -24.5t74.5 -40t102.5 -46.5t112.5 -43.5t105.5 -32.5t80.5 -13t55.5 12.5t44.5 31 t35 40t27 40t21.5 31.5t17.5 13q7 0 9 -4t2 -8q0 -13 -10 -34.5t-26 -48.5t-35.5 -58t-36.5 -61q-22 -34 -39.5 -68.5t-33 -62t-29 -44.5t-28.5 -17q-16 0 -47.5 20t-75 51.5t-97.5 70t-115 75.5q-66 40 -123 69t-98.5 49.5t-65 34t-23.5 20.5q0 6 10 12t28.5 16.5t44 26 t55.5 39.5q112 86 187 171.5t120.5 167.5t64 159.5t18.5 149.5q0 61 -15.5 110.5t-45.5 85t-74.5 55t-101.5 19.5q-53 0 -96 -20t-75.5 -55.5t-54 -83t-32.5 -101.5q-9 -40 -13 -73t-7 -56.5t-6.5 -36.5t-11.5 -13q-21 0 -21 83q0 101 26.5 191t78 157t129 106.5t179.5 39.5 z" />
<glyph unicode="3" horiz-adv-x="879" d="M108 1300q19 0 43.5 -5t58 -12.5t76 -16t96.5 -14.5q53 -6 107.5 -8.5t100.5 -4.5t78.5 -4.5t40.5 -8.5q7 -4 8.5 -8.5t1.5 -11.5q0 -12 -13 -36t-34 -55t-48 -67t-54.5 -71.5t-54.5 -69t-48 -60.5t-34 -45t-13 -22t22.5 -9t60.5 -17t86.5 -34t100.5 -60q46 -33 81 -69.5 t59 -80.5t36.5 -95.5t12.5 -113.5q0 -45 -10 -93t-31.5 -94t-54 -86.5t-78 -72t-104 -49.5t-130.5 -18q-100 0 -174 28.5t-126.5 74.5t-85.5 104t-52 118t-26 116t-7 98q0 35 4 54.5t11 19.5q5 0 8.5 -10t7 -28.5t9 -45.5t15.5 -61q44 -150 140 -229t228 -79q52 0 97.5 17 t80 51.5t54.5 86.5t20 122q0 71 -25.5 128.5t-63.5 101.5t-82.5 76.5t-83 54.5t-63.5 34.5t-25 17.5t10 18t26.5 33.5t38 47.5t46.5 59q10 15 24 34t29 40.5t29 43t25.5 40t18.5 32t7 19.5q0 5 -19 9t-49 7.5t-66.5 5t-70.5 1.5q-59 0 -107.5 -12.5t-82.5 -50.5 q-26 -27 -41 -60t-25 -62t-16.5 -48.5t-13.5 -19.5q-8 0 -10.5 11.5t-2.5 30.5q0 25 2 67.5t2 92.5q0 18 -1.5 41t-2.5 46.5t-2 45t-1 37.5q0 27 6.5 40t22.5 13z" />
<glyph unicode="4" horiz-adv-x="1226" d="M748 1467q14 0 14 -21q0 -7 -4 -20t-9.5 -29.5l-11.5 -34.5t-11 -36q-7 -24 -10.5 -51.5t-3.5 -56.5q0 -43 6 -89.5t14.5 -90.5t17.5 -83.5t15 -68.5q29 -134 55.5 -238.5t49.5 -191.5q13 -7 32 -13t40 -10.5t42.5 -7.5t39.5 -3q23 0 42 16t35 34.5t28.5 34.5t21.5 16 q7 0 7 -9q0 -8 -6 -22.5t-15 -32t-20 -38t-21 -40.5q-16 -32 -27 -58t-19 -43.5t-15 -27t-13 -9.5q-11 0 -27 5t-33 12t-34 15t-32 14q1 -15 4 -32.5t7 -35t7.5 -32.5t6.5 -24q6 -26 12.5 -50.5t15.5 -50t22 -52t30 -55.5q15 -24 34 -41.5t39.5 -30t39 -21t33.5 -14.5 q13 -5 25.5 -10t22.5 -9.5t16.5 -10t6.5 -11.5q0 -4 -4 -7.5t-11 -3.5q-18 0 -52 12.5t-79.5 29.5t-100.5 34.5t-114 28.5q-50 10 -102 11.5t-95 1.5t-71 1.5t-28 11.5q0 7 11.5 11.5t28.5 8.5t37.5 7.5t39.5 7.5q62 12 62 70q0 16 -3 41t-8 55t-11 62.5t-11.5 63t-11 56 t-9.5 41.5q-32 14 -69.5 31.5t-75.5 35t-74 34t-66 29.5q-82 35 -153.5 61.5t-124.5 47t-84 36t-31 27.5q0 11 20 33t54 54t79.5 75.5t98.5 98.5q56 58 96.5 100t70.5 74.5t52 57t41 47.5t38.5 47t43.5 55q41 50 65 83t39.5 52.5t24 27t17.5 7.5zM538 1134q-5 0 -19 -11.5 t-33.5 -29.5t-41.5 -41t-44.5 -47t-42.5 -47t-35 -41q-6 -7 -19.5 -23t-30.5 -36.5t-34.5 -42.5t-32 -42t-24 -36t-9.5 -23q0 -10 20.5 -24.5t51 -30.5t67.5 -32.5t70 -29.5q26 -11 66.5 -27t81.5 -32.5t77.5 -30t55.5 -18.5q-4 26 -10 63.5t-12.5 82.5t-14.5 95t-18 102 q-5 28 -10.5 61t-11 66.5t-11.5 65t-12 56t-12 39t-12 14.5z" />
<glyph unicode="5" horiz-adv-x="1303" d="M716 1425q12 0 38.5 -12.5t61 -31.5t73.5 -40t76.5 -40t70 -31.5t53.5 -12.5q42 0 72 31.5t62 84.5q29 45 42 63t25 18q5 0 9.5 -4t4.5 -14q0 -14 -7.5 -41t-19 -61t-27.5 -73t-33 -77.5t-35 -74t-33.5 -62t-28.5 -42.5t-20 -15q-16 0 -50 20.5t-76 49.5t-88.5 63.5 t-87.5 64t-72 49.5t-43 20q-8 1 -27 -25t-43 -65t-49.5 -85t-46.5 -86t-35 -68t-14 -30q0 -4 19 -6t51 -5.5t75 -9.5t93 -19q75 -19 139.5 -56.5t110.5 -91.5t72 -121.5t26 -146.5q0 -140 -44 -253.5t-120.5 -194.5t-180 -124.5t-222.5 -43.5q-111 0 -199.5 34t-150.5 95 t-95.5 146.5t-33.5 189.5q0 77 13.5 138.5t33.5 105t41.5 66.5t36.5 23q6 0 8 -3t2 -7q0 -7 -6 -19.5t-15 -30.5t-18 -40.5t-17 -47.5q-9 -33 -14.5 -75t-5.5 -100q0 -90 31.5 -159t85.5 -115.5t123.5 -70t146.5 -23.5q79 0 148.5 29.5t120.5 88t80 147.5t29 208 q0 53 -12 98t-33.5 81t-50 64t-61.5 49q-48 30 -100 49t-95 31t-71 18t-28 11q0 15 36.5 87t110.5 212q43 82 73.5 141.5t52 99t35.5 59t27 19.5z" />
<glyph unicode="6" horiz-adv-x="1029" d="M590 1352q66 0 119.5 -13t96 -34t74 -48t54 -54.5t36.5 -52t21 -42.5q8 -19 11 -35.5t3 -28.5t-5 -16t-12 -4q-12 0 -22.5 14.5t-31.5 48.5q-15 26 -41 59t-65.5 63t-93 50.5t-122.5 20.5q-79 0 -135 -29.5t-95 -75.5t-62.5 -101.5t-36 -106t-16.5 -90t-4 -53.5 q18 18 47.5 41t68 44.5t86 36t103.5 14.5q114 0 198 -37.5t138 -100.5t80.5 -146t26.5 -174q0 -114 -37 -204.5t-98.5 -153.5t-140 -97t-160.5 -34q-59 0 -123 15t-125 47t-116 82t-96.5 122.5t-66 167.5t-24.5 215q0 159 42 286.5t117.5 217.5t179 138t227.5 48zM533 908 q-52 0 -102 -22t-90 -71t-65 -127.5t-25 -191.5q0 -106 25.5 -187.5t70 -137t104.5 -84t130 -28.5q63 0 113.5 29.5t86 83t54 128.5t18.5 165q0 51 -5 104t-18.5 102t-36 92t-58 75.5t-85 51t-117.5 18.5z" />
<glyph unicode="7" horiz-adv-x="873" d="M23 1257q22 0 55.5 -4t79 -9.5t106 -9.5t138.5 -4q114 0 197 11t139 24.5t87.5 25t41.5 11.5q7 0 7 -7q0 -11 -27.5 -53.5t-72 -120t-101 -191.5t-115.5 -268q-39 -100 -62.5 -189t-37 -164.5t-18.5 -136t-6.5 -104.5t-2.5 -68.5t-4 -28.5q-4 -5 -16 -6t-29 -2.5 t-39.5 -3t-48.5 -7.5q-44 -11 -72 -22t-40 -11q-8 0 -8 12q0 15 8.5 47.5t22 74t31.5 89t36 92.5q37 94 78.5 183.5t82.5 170t78.5 149.5t66 121.5t45.5 86.5t17 45q0 10 -21.5 22t-56 25t-79.5 25.5t-91.5 22.5t-90.5 15.5t-78 5.5q-42 0 -66.5 -22.5t-38.5 -59t-21.5 -82 t-15.5 -90.5q-7 -34 -11 -56.5t-13 -22.5q-6 0 -8.5 9t-2.5 35t-0.5 58.5t-3.5 68.5t-6.5 74t-9.5 74q-9 59 -17.5 93.5t-8.5 49.5q0 4 3.5 13t19.5 9z" />
<glyph unicode="8" horiz-adv-x="819" d="M417 1349q74 0 128 -20.5t89 -54.5t51.5 -78.5t16.5 -92.5q0 -37 -8 -70t-21.5 -61.5t-29.5 -52t-34 -42.5q-41 -45 -93 -77q82 -52 147 -120q27 -30 53.5 -65.5t47.5 -77.5t34 -90.5t13 -102.5q0 -88 -29 -163.5t-81.5 -131t-127 -87t-166.5 -31.5q-72 0 -143 18.5 t-127.5 61.5t-91.5 112.5t-35 172.5q0 50 11 93.5t29 80t41 66t48 54.5q57 55 129 93q-55 39 -97 90q-19 22 -36 48.5t-30.5 57.5t-22 66t-8.5 75q0 82 29 144t77 103t109.5 61.5t127.5 20.5zM487 841q14 0 40.5 19t53.5 53.5t47 82.5t20 107q0 42 -11 77.5t-33.5 62 t-55 41.5t-75.5 15q-36 0 -67 -12t-53.5 -35.5t-35.5 -60t-13 -85.5q0 -63 23.5 -112t54.5 -83t61.5 -52t43.5 -18zM341 617q-28 0 -66.5 -22.5t-74 -66t-59.5 -106t-24 -141.5q0 -68 19.5 -126t58 -99t93.5 -64t125 -23q62 0 110 19t80.5 54.5t49 86.5t16.5 114 q0 50 -13.5 97t-37.5 88.5t-56.5 76.5t-69 60t-75.5 38.5t-76 13.5z" />
<glyph unicode="9" horiz-adv-x="1034" d="M471 1289q116 0 216 -39.5t173 -114.5t114.5 -185t41.5 -252q0 -182 -50 -318t-133 -225.5t-190 -134t-221 -44.5q-89 0 -155.5 19.5t-110.5 46.5t-66.5 54.5t-22.5 42.5q0 10 4.5 15.5t14.5 5.5t24 -8t33 -18.5t43.5 -24t54 -24.5t66.5 -18.5t80 -7.5q75 0 131 22t96 58 t65.5 80.5t40 89t20 84.5t5.5 66q0 11 -1 19.5t-6 8.5t-25 -10t-53.5 -21.5t-80 -22t-104.5 -10.5q-116 0 -202.5 33.5t-143 92.5t-84.5 140.5t-28 177.5q0 99 34.5 177.5t95 132.5t143.5 83t181 29zM453 1247q-120 0 -187.5 -90.5t-67.5 -271.5q0 -103 26.5 -179t72 -126.5 t105.5 -75t128 -24.5q65 0 110 20t72.5 58.5t40 94.5t12.5 128q0 54 -7.5 109t-24 106.5t-41 97.5t-59.5 80t-80 53.5t-100 19.5z" />
<glyph unicode=":" horiz-adv-x="423" d="M212 819q23 0 44 -7t37 -22t25.5 -37t9.5 -52q0 -68 -34 -105t-87 -37q-25 0 -46.5 7.5t-38 23t-26.5 40t-10 60.5q0 57 33 93t93 36zM225 200q33 0 55 -11.5t34.5 -29t17.5 -39.5t5 -43q0 -30 -9 -54.5t-25 -42t-37.5 -26.5t-47.5 -9q-52 0 -81 34.5t-29 87.5q0 29 8 53 t23 42t36.5 28t49.5 10z" />
<glyph unicode=";" horiz-adv-x="457" d="M246 773q35 0 58.5 -11t38 -28t21 -39t6.5 -43q0 -24 -6.5 -49t-21 -46.5t-38 -35.5t-58.5 -14q-62 0 -95.5 36.5t-33.5 96.5q0 21 6 44.5t21 43t39.5 32.5t62.5 13zM218 155q35 0 60.5 -10.5t43 -29t26 -42.5t8.5 -52q0 -43 -16 -86.5t-41 -84t-55.5 -75.5t-59.5 -61 t-52.5 -41.5t-34.5 -15.5t-11 11q0 8 7 17q8 11 26 29t36 40.5t32.5 48.5t14.5 53q0 26 -16.5 43t-36.5 34t-36 40.5t-16 60.5q0 24 8.5 46t24 38.5t38.5 26.5t50 10z" />
<glyph unicode="&#x3c;" horiz-adv-x="899" d="M764 927q17 0 17 -16q0 -11 -17 -30.5t-43.5 -42t-59.5 -46t-64.5 -45t-57 -39t-38.5 -25.5q-73 -46 -123 -77t-81.5 -50t-45 -29.5t-13.5 -17.5q0 -8 22.5 -24.5t61 -38.5t88 -48t104.5 -54q20 -11 50.5 -26.5t63.5 -33.5t66 -37t60 -37t43.5 -33t16.5 -24t-5.5 -14.5 t-18.5 -5.5q-21 0 -55.5 12.5t-78.5 33.5t-94 48t-101.5 55.5t-102 56t-93.5 50.5q-33 17 -65 33t-57.5 29.5t-41 24t-15.5 16.5q0 8 13 18.5t47 31.5q18 10 53 31t78 46.5t89 53t83 51.5q74 46 126 84t88 64.5t59.5 40.5t41.5 14z" />
<glyph unicode="=" horiz-adv-x="1128" d="M990 668q5 0 14.5 -1t18 -3.5t14 -8t5.5 -15.5t-5.5 -16.5t-15.5 -10.5t-21 -5.5t-21 -1.5q-32 -2 -66 -4t-73.5 -4.5t-86 -6t-101.5 -8.5q-28 -3 -72.5 -7t-96.5 -9.5t-107 -11.5t-104 -11t-88 -8t-58 -3q-18 0 -29 5.5t-11 17.5q0 7 4.5 13t17 11.5t35 10.5t57.5 10 q56 7 126 14.5t146.5 15t153.5 14.5t146.5 12t125.5 8t92 3zM869 387q35 -4 46.5 -11t11.5 -16t-5.5 -14t-15.5 -8t-21.5 -4t-24.5 -1q-4 0 -24 0.5t-49 0.5t-65 1t-72.5 1t-70 0.5t-57.5 0.5q-59 0 -116 -0.5t-106 -1.5t-86.5 -1.5t-57.5 -0.5q-38 0 -54 10.5t-16 27.5 q0 8 3.5 15t13 12.5t25.5 9t41 3.5q41 0 102 -1t130.5 -3t142.5 -4t136.5 -5t113.5 -5.5t75 -5.5z" />
<glyph unicode="&#x3e;" horiz-adv-x="917" d="M98 952q9 0 24.5 -6.5t34.5 -16t39.5 -21t38 -22t31 -19t18.5 -10.5q20 -12 48 -29t58.5 -35.5t62.5 -38t61 -37t54.5 -33t42.5 -24.5q55 -32 93 -54t61.5 -38t33.5 -27t10 -19q0 -14 -16 -33t-40 -40t-52.5 -42t-53.5 -39q-8 -5 -27.5 -19t-45.5 -32t-57 -38.5 t-60 -40.5t-55.5 -38t-43.5 -29q-48 -32 -83.5 -53t-51.5 -21t-16 16q0 10 7 19.5t29 27.5q8 7 29.5 23t49.5 36t59 42.5t60 42t52 35.5t34 24q37 26 68.5 50t54 44t35.5 34.5t13 20.5q0 5 -8.5 13t-21.5 17t-28 18.5t-28 17.5q-16 10 -43 27t-60.5 38t-69.5 44t-68 43.5 t-58.5 37.5t-40.5 27q-21 14 -52.5 34.5t-61 42t-51 40.5t-21.5 29q0 5 3.5 8t8.5 3z" />
<glyph unicode="?" horiz-adv-x="971" d="M335 36q54 0 79.5 -32.5t25.5 -80.5q0 -30 -9.5 -49t-23.5 -30t-29 -15.5t-27 -4.5q-24 0 -44 10t-34 26.5t-22 37.5t-8 43q0 40 23 67.5t69 27.5zM491 1428q87 0 165 -22.5t136.5 -68t92.5 -115.5t34 -166q0 -67 -16 -121.5t-45.5 -100t-72 -84.5t-95.5 -75 q-57 -38 -111 -70.5t-102.5 -62.5t-89.5 -59t-71 -60.5t-46.5 -67t-16.5 -78.5q0 -27 6.5 -45.5t17 -31.5t24.5 -18.5t29 -5.5q18 0 29.5 7t19 17.5t11 22t4.5 21.5q2 15 3.5 22.5t8.5 7.5q6 0 10 -9.5t4 -25.5q0 -20 -6 -38.5t-17.5 -32t-31 -22t-45.5 -8.5q-24 0 -47.5 8 t-42 25.5t-30 45t-11.5 67.5q0 58 22 106t57.5 92t81 85t93.5 84t93 89.5t81 101.5t57.5 120t21.5 146q0 52 -13.5 103.5t-43 91.5t-78 65.5t-117.5 25.5q-54 0 -95.5 -16t-69.5 -42t-42.5 -61t-14.5 -74q0 -38 11 -69t27.5 -57.5t36 -50t36 -48.5t27.5 -53t11 -63 q0 -25 -8 -50t-25.5 -45t-45 -32t-67.5 -12q-96 0 -143.5 67.5t-47.5 190.5q0 43 10.5 93t33 100t58 96.5t86 81.5t117.5 56.5t152 21.5z" />
<glyph unicode="@" horiz-adv-x="1546" d="M662 -453q102 0 157 30.5t55 76.5q0 17 -8.5 29.5t-21 23t-27 20.5t-26.5 22.5t-20.5 29.5t-8.5 40q0 19 7 38t22 34t36.5 24t51.5 9q29 0 53.5 -10.5t43 -31t29 -49.5t10.5 -65q0 -24 -6 -54t-21.5 -60t-41 -58.5t-65.5 -50.5t-95 -35.5t-129 -13.5q-115 1 -218.5 56.5 t-182 160.5t-124.5 256.5t-46 345.5q0 132 26 249.5t74.5 216.5t118 178t155.5 134.5t187.5 85t214.5 29.5q159 0 275.5 -51t191.5 -140.5t111 -214t36 -270.5q0 -143 -24.5 -251t-65.5 -180.5t-94.5 -109.5t-111.5 -37q-54 0 -93.5 21.5t-67.5 56t-44.5 78.5t-22.5 88 q-3 -14 -8.5 -41.5t-18 -59t-32.5 -65t-52 -60.5t-76 -44t-105 -17q-57 0 -115.5 20.5t-107.5 67t-80.5 121.5t-34.5 182q1 93 20 164.5t49.5 125.5t69 91.5t81 60.5t85.5 33.5t82 10.5q51 0 89 -11t65 -26t44 -30.5t27 -25.5q0 32 -1 53.5t-1 47.5q0 19 7.5 27t19 10.5 t28 1.5t35.5 1q27 1 48 4t33 3t14.5 -9t2.5 -27t-2 -54t-5 -81t-7 -95.5t-7 -99t-5 -89.5t-2 -68q0 -59 5 -108.5t18.5 -86t35.5 -57t57 -20.5q37 0 74.5 30t67.5 90t49 149.5t19 207.5q0 165 -43 284.5t-118.5 196.5t-178 113.5t-221.5 36.5q-100 0 -191.5 -27 t-170.5 -77.5t-144 -123.5t-110.5 -166t-71 -205t-25.5 -239q0 -149 26.5 -264.5t69.5 -201.5t98 -144t112.5 -94t112.5 -51.5t99 -15.5zM724 743q-48 0 -88 -22t-68.5 -64.5t-44.5 -103.5t-16 -138q0 -76 14 -143.5t41.5 -118.5t68 -80.5t95.5 -29.5t94.5 31t65 82.5 t37 119.5t11.5 141q0 62 -12 120.5t-37.5 104.5t-65 73.5t-95.5 27.5z" />
<glyph unicode="A" d="M716 1410q6 0 13.5 -14t14.5 -33t13.5 -38t9.5 -28q18 -55 41 -123.5t48.5 -147t53.5 -162.5t56.5 -168.5t56 -167t52.5 -157t47.5 -137t40.5 -108.5q20 -55 39 -87.5t41 -52t48.5 -28.5t60.5 -17q26 -5 26 -18q0 -10 -9.5 -13t-21.5 -3q-18 0 -46.5 0.5t-65.5 0.5 q-30 0 -64 -1t-70 -4q-56 -4 -104 -13.5t-86.5 -19t-67.5 -17.5t-47 -8q-9 0 -14.5 5t-5.5 12q0 11 6 18t23 12q6 1 19 4.5t28 7.5t31.5 9.5t29.5 12.5q17 9 30.5 24.5t13.5 46.5q0 6 -1.5 18t-3.5 21q-15 59 -31 119.5t-32 115t-30.5 100.5t-26.5 76q-19 49 -44 74.5 t-56 39.5q-8 3 -27.5 11t-45.5 16.5t-56.5 18.5t-60 20t-55 18t-42.5 14q-20 -65 -39.5 -128.5t-36 -117t-29 -93.5t-17.5 -59q-6 -22 -8.5 -39.5t-2.5 -30.5q0 -25 7 -41t18.5 -27.5t27.5 -19.5l32 -16q15 -6 25.5 -14t10.5 -20q0 -8 -6 -13.5t-20 -5.5t-36 7t-48 17 t-55.5 21.5t-59.5 20.5q-23 7 -48.5 12.5t-49 8.5t-42 5.5t-29.5 2.5q-21 2 -30 6t-9 16q0 9 5.5 14.5t18.5 5.5q5 0 18 -1t30 -1q41 0 67.5 5t45 16t31 27.5t22.5 38.5t24 58.5t30.5 80t33.5 90t31.5 88t25.5 74t16 48.5q7 22 19 60t27 85t30.5 98t28.5 97.5t21 84.5t8 60 q0 17 -9 28.5t-30 11.5q-19 0 -42 -2.5t-46.5 -5t-45.5 -5t-38 -2.5q-31 0 -31 21t29 23q20 1 45.5 4.5t54.5 9t58 14.5t55 22q43 19 73.5 39t52 36t35 26t22.5 10zM459 704q27 -9 67.5 -23t82.5 -27t77.5 -22.5t51.5 -9.5q10 0 18 7.5t8 22.5q0 12 -8 45.5t-19 76t-24.5 89 t-25.5 86t-20 66t-8 29.5q-4 10 -9.5 29t-11.5 37.5t-12.5 32t-9.5 13.5q-4 0 -9.5 -9.5t-11 -22.5t-11.5 -28t-9 -28z" />
<glyph unicode="B" horiz-adv-x="1178" d="M702 1469q53 0 108 -12.5t99.5 -43.5t73 -84t28.5 -134q0 -63 -18.5 -113t-49 -89.5t-68.5 -69.5t-75.5 -51t-71.5 -35t-57 -21q35 0 84 -8t103 -27.5t107 -52t95.5 -83t69 -120t26.5 -160.5q0 -81 -17.5 -145t-48 -113.5t-70 -85.5t-83 -60.5t-88.5 -38t-85 -17.5 q-44 -5 -82 -6.5t-70 -1.5q-52 0 -94.5 2.5t-85.5 2.5q-56 0 -104.5 -11.5t-89.5 -28.5t-75 -37t-61.5 -36.5t-47.5 -28t-33 -11.5q-19 0 -19 21q0 16 17 32t44 33.5t59.5 37t61.5 41.5q18 15 34 31.5t28 38t20 49.5t13 65q7 52 9.5 129.5t2.5 173.5q0 50 0.5 120.5 t0.5 149.5q0 82 -1.5 166.5t-7 161.5t-15 140t-25.5 100q-15 33 -34.5 56t-44.5 38.5t-53 25t-58 14.5q-22 4 -29 9.5t-7 12.5q0 8 6 11t16 3q16 0 32.5 -2.5t39 -5t50 -4.5t64.5 -2q77 0 136 11.5t112.5 25.5t107.5 25.5t121 11.5zM415 1376q2 -38 5 -82.5t6 -92t6 -95.5 t6 -93q7 -105 15 -213q97 6 174 42q33 15 64.5 37.5t56.5 55.5t40 77t15 101q0 82 -20 137t-53.5 87.5t-78.5 46t-93 13.5q-41 0 -77.5 -6t-65.5 -15zM456 738q3 -47 6.5 -105.5t8 -120t9 -122.5t8 -113t7 -92t6.5 -59q4 -42 15.5 -77.5t31.5 -60.5t50 -39.5t73 -14.5 q59 0 109 24t86.5 74.5t57 127.5t20.5 183q0 102 -25.5 180.5t-71 132t-107 81t-134.5 27.5q-46 0 -87 -8t-63 -18z" />
<glyph unicode="C" horiz-adv-x="1276" d="M1116 1454q12 0 15 -11.5t3 -30.5q0 -10 -1.5 -40.5t-1.5 -74.5q0 -78 6 -135.5t14.5 -100t18 -72t15.5 -50.5q5 -17 13 -41t8 -40q0 -13 -11 -13q-9 1 -21.5 12.5t-26.5 27t-27 33.5t-22 31q-38 51 -78.5 90.5t-89.5 67t-109 42t-136 14.5q-88 0 -164.5 -34t-133 -104 t-89.5 -175.5t-33 -247.5q0 -131 23 -233t61.5 -178t89.5 -128.5t106.5 -85t113 -47t108.5 -14.5q79 0 140.5 19.5t108.5 51.5t80.5 74t56 88t36 91.5t19.5 86.5q3 25 5 50.5t4.5 46.5t6 34t11.5 13q24 0 24 -85q0 -22 -3 -57.5t-12.5 -79t-27 -92t-46.5 -96t-70.5 -90 t-99.5 -75.5t-134 -52.5t-173 -19.5q-81 0 -164 17t-159 52t-142 89t-114.5 129t-77 172.5t-28.5 217.5q0 143 30.5 251.5t81.5 187.5t118 130.5t140.5 82.5t148.5 44t142 13q51 0 92.5 -4.5t76.5 -9t64 -8.5t53 -4q43 0 71.5 18t41.5 69q9 35 12.5 68t7.5 58.5t10 41 t18 15.5z" />
<glyph unicode="D" horiz-adv-x="1249" d="M742 1149q87 0 157 -20t123.5 -55.5t91.5 -83.5t62 -105t35.5 -120t11.5 -127q0 -79 -16 -155.5t-51 -143.5t-92 -120.5t-138 -89.5q-46 -20 -88.5 -33.5t-85 -24t-86.5 -20.5t-90.5 -23t-97 -31.5t-107.5 -46.5q-90 -44 -150.5 -86.5t-100.5 -76t-63.5 -54t-39.5 -20.5 q-17 0 -17 17q0 10 14 23t36.5 32t50.5 46t55 66q37 50 61.5 112t31.5 134q2 18 4 49t3.5 70t2.5 84.5t1 95.5q0 77 -2.5 158t-8 153.5t-15 130t-22.5 88.5q-12 27 -29.5 44.5t-35.5 29.5t-36 19t-32.5 12.5t-23.5 11t-9 12.5q0 14 23 14q15 0 33 -2.5t41.5 -5t53 -4.5 t68.5 -2q62 0 125 7.5t124 16.5t118.5 16.5t109.5 7.5zM619 1092q-88 0 -139.5 -19.5t-61.5 -50.5q-6 -21 -10 -63t-4 -97q0 -63 3 -137.5t7.5 -145.5t10 -132.5t10.5 -100.5t12 -69.5t15 -54t18.5 -41t21.5 -31.5q13 -16 30.5 -26.5t37.5 -17.5t40.5 -10t39.5 -3 q65 0 115 24t87.5 64t63.5 92.5t42 110.5t23 117t7 113q0 92 -17.5 163t-46 124t-65.5 89t-78.5 59t-83 33t-78.5 10z" />
<glyph unicode="E" horiz-adv-x="958" d="M843 1379q13 0 17.5 -5.5t4.5 -17.5q0 -15 -2 -34.5t-4.5 -48.5t-4.5 -69.5t-2 -98.5q0 -11 -3.5 -19.5t-12.5 -8.5q-14 0 -19 28q-4 17 -7 44.5t-9 66.5q-4 32 -13.5 50t-23.5 26t-30 10t-32 2q-33 0 -75 -3t-82.5 -7t-73 -8t-44.5 -8q-27 -6 -33.5 -21.5t-6.5 -36.5 q0 -19 1 -54t2.5 -79.5t4 -96.5l5 -104t4.5 -100.5t3 -87.5q19 -2 43 -4.5t47 -2.5q28 0 47 4t32 10.5t20.5 16.5t12.5 21q5 13 7 25t5 27q2 16 7 21t10 5q12 0 12 -21q0 -19 -2 -46t-4.5 -56t-4.5 -59.5t-2 -55.5q0 -23 0.5 -45.5t1 -42t1 -34.5t0.5 -23q0 -11 -4.5 -21.5 t-16.5 -10.5q-19 0 -22 34q-1 9 -1 24t-1 31.5t-3 33.5t-6 29q-4 14 -15 28t-34 21q-10 4 -25 6.5t-32 4t-35 3t-34 1.5q2 -42 6 -103.5t8.5 -130t9.5 -138t9.5 -127.5t7 -98t4.5 -49q3 -35 17.5 -51t45.5 -20q34 -5 82 -5q63 0 112 6.5t85 23.5t61.5 45t41.5 71 q10 23 16 45t10.5 40t9 29t9.5 11q7 0 9.5 -16t2.5 -37q0 -30 -2.5 -66.5t-8 -71.5t-11.5 -65.5t-12 -47.5q-11 -27 -29.5 -37.5t-49.5 -10.5q-27 0 -73 5t-106 11t-129.5 13t-142.5 11q-56 3 -107 5t-93 2.5t-73 0.5h-49q-23 0 -30.5 6.5t-7.5 16.5q0 13 9.5 18t23.5 5 q9 0 31.5 -2.5t54.5 -2.5q11 0 22 0.5t25 2.5q30 1 46.5 10.5t24 22.5t9 27.5t1.5 25.5q-2 81 -9 174t-15 181t-16 162t-13 118q-2 28 -6 68t-9.5 85.5t-12 93t-13 92.5t-12.5 83.5t-11 65.5q-7 32 -15 56t-17 41.5t-19.5 30t-23.5 21.5q-9 8 -21.5 15t-24 14t-19 13 t-7.5 14q0 13 22 13q12 0 33 -3t52.5 -6t75 -6t99.5 -3q44 0 98.5 4.5t112 10.5t114 14t102.5 14.5t77.5 11t39.5 4.5z" />
<glyph unicode="F" horiz-adv-x="917" d="M906 1448q20 0 33 -11.5t13 -42.5q0 -23 -6 -59.5t-13.5 -73.5t-14.5 -67.5t-10 -42.5q-2 -8 -6.5 -26.5t-11.5 -41t-15 -47t-16.5 -44.5t-16.5 -33t-15 -13q-4 0 -7 4t-3 19q0 14 2.5 39.5t5 57t5 65.5t2.5 64q0 47 -9.5 73t-27.5 40t-43.5 18t-56.5 4q-41 0 -91 -5.5 t-95 -17.5q-37 -9 -48.5 -32t-11.5 -59q0 -6 1 -47t2.5 -105.5t4 -148t4.5 -173.5q24 1 48 4t41 11q18 7 30 19.5t19.5 26t12.5 28t7 26.5q14 54 21.5 76t19.5 22q16 0 16 -31q0 -15 -3.5 -36t-8 -47.5t-7.5 -58.5t-3 -68q0 -33 1 -67.5t2.5 -63.5t3 -52.5t1.5 -33.5 q0 -28 -5.5 -42.5t-14.5 -14.5q-10 0 -17 15.5t-8 60.5q0 33 -3 60t-11 47.5t-22.5 34.5t-37.5 22q-14 4 -36 5t-44 1q2 -90 5 -179t5.5 -165t5 -133t4.5 -83q3 -40 10.5 -65t20 -40t29 -22.5t38.5 -13.5q8 -3 17 -4.5t18 -5t15 -8t6 -12.5q0 -7 -5 -11t-12 -6.5t-15 -3 t-15 -0.5q-13 0 -35.5 3t-52 6t-63 6t-68.5 3q-31 0 -59.5 -2t-58.5 -5t-63 -5t-72 -2q-23 0 -37.5 2.5t-22 6t-10 9t-2.5 10.5q0 19 31 24q8 1 24.5 2t37.5 3t42.5 5t38.5 7q18 5 35.5 13.5t31 24t22 41.5t8.5 65q0 67 -5.5 154.5t-14.5 182t-20.5 190t-23.5 180.5 t-23.5 153t-21.5 107q-7 32 -21.5 51.5t-32.5 31t-39.5 17t-43.5 8.5q-25 5 -39.5 11.5t-14.5 21.5q0 14 11 19.5t27 5.5q72 0 179.5 10t243.5 41q105 23 176 44t119 36.5t78.5 24t54.5 8.5z" />
<glyph unicode="G" horiz-adv-x="1290" d="M662 1121q67 0 117.5 -8t92 -18.5t77.5 -19t75 -8.5q80 0 151 74q20 21 35 42t26.5 37t22 26.5t21.5 10.5q19 0 19 -20q0 -12 -18 -40t-42 -63t-50 -73t-42 -70q-16 -33 -27 -59t-21 -51.5t-20.5 -52.5t-22.5 -63q-10 -29 -22 -46.5t-28 -17.5q-20 0 -20 33 q0 14 4.5 40.5t4.5 57.5q0 121 -84 184.5t-240 63.5q-43 0 -90.5 -11.5t-93.5 -38t-88 -69t-73.5 -104.5t-50.5 -144.5t-19 -189.5q0 -63 8.5 -120t23.5 -106.5t35.5 -90t44.5 -68.5q31 -37 66.5 -60t71 -35.5t69 -17t62.5 -4.5q52 0 93.5 9.5t73.5 25t54 35.5t37 40 q11 16 19.5 37t14 43.5t8 44.5t2.5 41q0 33 -3.5 63.5t-16 53t-34 36t-58.5 13.5q-47 0 -86.5 -7t-81.5 -7q-18 0 -28 6t-10 18q0 11 8.5 19.5t36.5 8.5q46 0 119.5 6t176.5 25q56 10 97 21t70 19.5t49 14t37 5.5q22 0 22 -14q0 -8 -5 -13t-13.5 -9.5t-20.5 -9.5t-25 -13 q-26 -16 -39 -45t-13 -87q0 -31 2.5 -66t5.5 -68t7 -62t6 -45q5 -23 7.5 -45.5t2.5 -33.5q0 -10 -3 -15.5t-10 -5.5q-10 0 -23 8t-29.5 17.5t-35 17t-38.5 7.5q-26 0 -51 -11t-52.5 -27.5t-61 -35.5t-78.5 -35.5t-103.5 -27.5t-134.5 -11q-109 0 -204.5 36.5t-166.5 104.5 t-112 164t-41 214q0 111 26.5 200t71 157.5t102 118t119.5 82.5q47 25 93.5 41t90 25.5t82 12.5t69.5 3z" />
<glyph unicode="H" horiz-adv-x="1278" d="M74 1507q15 0 40 -8.5t59 -20.5t76 -25t92 -23q49 -10 103 -16.5t102 -10.5t84.5 -6.5t49.5 -2.5q11 -2 18.5 -5t7.5 -11q0 -10 -8 -13t-17 -3q-18 0 -54 3t-75 3q-30 0 -52 -5.5t-36.5 -18.5t-23 -33.5t-10.5 -51.5q-2 -17 -2 -45.5t-0.5 -63t-0.5 -73.5v-79v-95v-84.5 t0.5 -65.5t0.5 -37q1 -22 5.5 -35.5t12 -21t17.5 -10t23 -2.5q23 0 56.5 2t72 5.5t77 8t71.5 8.5t58.5 7t35.5 5q28 5 45 19.5t25 34.5t10 45.5t2 53.5q0 38 -3 77.5t-7 76t-8.5 65.5t-7.5 45q-5 32 -15 50t-22 27t-25.5 11t-23.5 2q-28 0 -58 -1.5t-47 -1.5q-16 0 -25 6.5 t-9 17.5q0 10 7 18t34 10q25 1 56.5 3t66.5 6t71 9t72 12q31 8 68 18.5t71.5 20t65 16.5t49.5 7t24 -5.5t5 -12.5q0 -12 -9.5 -16.5t-21.5 -4.5q-5 0 -15.5 -1t-21 -3t-21.5 -5.5t-19 -9.5q-13 -10 -24.5 -29t-17.5 -57q-4 -30 -6 -76t-4 -96.5t-3 -100.5t-2 -90 q-1 -20 -2 -59t-2 -90t-2.5 -111t-2 -121.5t-1 -123.5t-0.5 -116v-83t2 -65q0 -26 6.5 -43.5t15 -28t18 -16t18.5 -8.5q18 -7 39 -10.5t45 -8.5q12 -3 15.5 -7t3.5 -9q0 -1 -1 -4t-4 -5.5t-9.5 -4.5t-18.5 -2q-10 0 -35.5 2.5t-57.5 5.5t-65.5 5t-59.5 2q-35 0 -68.5 -3 t-63.5 -7t-57 -7t-48 -3q-35 0 -45.5 9t-10.5 19q0 14 10.5 17.5t26.5 3.5q47 2 79.5 5t61.5 15q21 10 34 24t19 30.5t8 33.5t2 33q0 13 -1.5 45.5t-4.5 77t-6.5 94.5t-8 97t-8 86.5t-7.5 62.5q-4 25 -10 40t-15 22.5t-21 9.5t-26 2q-15 0 -45.5 -2.5t-69 -6.5t-80 -9 t-78 -10t-65 -10t-39.5 -9q-16 -5 -25 -13.5t-13.5 -18t-5.5 -20t-2 -20.5q0 -25 0.5 -67t0.5 -92.5t1 -106.5t1.5 -108t1 -96t0.5 -72q0 -40 5 -64t13.5 -39t20 -23.5t25.5 -16.5q14 -7 26.5 -13.5t12.5 -17.5q0 -7 -5.5 -9.5t-12.5 -2.5q-18 0 -37 5t-44 10.5t-60 10.5 t-84 5q-50 0 -92.5 -5.5t-76 -13t-58 -13t-39.5 -5.5q-31 0 -31 21q0 14 7 20t19 10q5 1 17 4t28 5.5t35.5 7t39.5 9.5q27 7 42 18.5t22.5 26t9 31.5t2.5 34q0 5 0.5 34t2.5 73t3.5 100.5t3.5 117.5t2.5 122t1.5 116q0 12 0.5 41t0.5 69.5t0.5 90t0.5 103.5q0 71 -0.5 145 t-2 138.5t-3.5 113t-5 69.5q-4 24 -9.5 43t-15.5 34t-24 28t-34 24q-18 11 -35 19.5l-30 15t-20.5 14t-7.5 15.5t5 12.5t18 4.5z" />
<glyph unicode="I" horiz-adv-x="755" d="M771 1456q29 0 45 -3t25 -7.5t11.5 -9.5t2.5 -11q0 -15 -18 -23t-59 -8q-42 0 -78 -2.5t-68 -12.5q-29 -7 -52.5 -22t-42.5 -39t-33 -59.5t-24 -85.5q-11 -53 -22.5 -138t-23 -188t-21.5 -217t-17.5 -226.5t-12 -217t-4.5 -186.5q0 -47 8 -74.5t20 -41.5t25.5 -19 t23.5 -8q24 -7 54 -7.5t51 -0.5q41 0 41 -23q0 -10 -9.5 -19t-42.5 -9q-17 0 -38 1t-47 1q-37 0 -82 -3t-101 -10q-54 -8 -107 -25t-99.5 -33.5t-82.5 -29t-57 -12.5q-22 0 -22 19q0 14 20 22q7 2 35 12t62.5 22.5t67 25.5t49.5 23q25 14 41.5 32t26.5 39t14.5 46.5 t7.5 54.5q1 34 3 96t3 142.5t1.5 175t0.5 191.5q0 79 -0.5 156.5t-1 148t-1.5 129t-2 101.5q-2 63 -9 103t-18 64.5t-24.5 38t-29.5 23.5q-26 17 -68 25t-85 8q-20 0 -28 7t-8 17q0 5 1.5 9.5t6.5 8.5t15.5 6.5t28.5 2.5q22 0 58.5 -2.5t80.5 -5t92.5 -5t96.5 -2.5 q51 0 106 5.5t109.5 12t106.5 12t98 5.5z" />
<glyph unicode="J" horiz-adv-x="1081" d="M1146 1578q12 0 17 -4.5t5 -11.5q0 -11 -12 -18.5t-33 -15.5q-19 -8 -54 -19t-78 -35q-19 -11 -37 -25t-33 -35.5t-25.5 -52t-14.5 -72.5q-6 -45 -6.5 -101.5t-0.5 -125.5q0 -60 -1 -132t-5.5 -159.5t-13.5 -193t-25 -231.5q-11 -86 -32.5 -178t-54 -179.5t-78 -165.5 t-104.5 -136.5t-133 -92.5t-164 -34q-64 0 -111.5 21.5t-79.5 56.5t-48 80.5t-16 94.5q0 64 21 108.5t52.5 71.5t69.5 39.5t72 12.5q79 0 127.5 -39t48.5 -109q0 -65 -32 -100.5t-85 -35.5q-32 0 -58.5 8.5t-52.5 8.5q-32 0 -49 -17t-17 -48q0 -28 12 -50.5t33 -38t49 -23.5 t61 -8q85 0 150 45t113 122.5t80 180t51.5 216t27.5 232t8 227.5q0 134 -6 250.5t-17 207.5t-26 153.5t-34 90.5q-16 24 -37 38t-45 20.5t-48.5 8.5t-48.5 2q-19 0 -30.5 4.5t-11.5 18.5q0 11 8 18t28 8q18 1 53 2.5t81 4.5t102 10t116 20q74 15 133.5 33t105 34t78.5 27 t55 11z" />
<glyph unicode="K" horiz-adv-x="1490" d="M753 1392q15 0 29.5 -7t37 -17.5t55 -23t82.5 -23.5q27 -6 56.5 -9t58 -4.5t55.5 -2t50 -0.5q12 0 24 -0.5t21.5 -3t15.5 -7.5t6 -14t-4 -14.5t-10.5 -8.5t-14 -4t-14.5 -1q-18 0 -39 2t-46 2q-76 0 -130 -25.5t-93 -66.5q-10 -10 -30 -31.5t-43 -47.5t-47.5 -55 t-44.5 -54t-32.5 -44t-12.5 -26q0 -12 12 -48.5t34.5 -88.5t55 -115t74 -126t90 -122t104.5 -105t117 -73.5t127 -27.5q38 0 67.5 11.5t48.5 32.5t29 49.5t10 60.5t-9.5 63.5t-28.5 60.5q-15 21 -27 34t-21 22t-14.5 16t-5.5 16q0 7 4 13.5t16 6.5q21 0 49 -18t52.5 -51 t41.5 -80.5t17 -106.5q0 -26 -5 -57t-18 -62t-35 -59.5t-56 -51t-80 -36t-107 -13.5q-88 0 -165.5 30t-144.5 79t-122.5 112t-101.5 129q-106 153 -180 349l-93 -115q1 -63 1.5 -131.5t2 -135t4 -127.5t7.5 -112q5 -52 21 -86t36.5 -55.5t40.5 -32.5t33 -17q29 -13 45.5 -21 t16.5 -17q0 -4 -3.5 -7t-15.5 -3q-27 0 -61 11t-73.5 24.5t-84 24.5t-91.5 11q-33 0 -58.5 -3t-49.5 -3t-35 5t-11 14q0 8 8.5 12.5t21.5 9t28.5 11.5t30.5 22q19 20 22.5 52t3.5 70q0 30 -2 85.5t-6 127t-9 154.5t-10.5 166t-10.5 162t-9.5 143t-8 108.5t-4.5 60.5 q-6 53 -16.5 83.5t-37.5 47.5q-7 5 -19 8t-24.5 5.5t-25.5 3.5t-24 1q-5 0 -11 1t-11.5 3t-9.5 6t-4 11q0 12 8.5 17.5t21.5 6.5q35 4 65 4.5t61 1t63.5 2.5t72.5 8q61 9 101.5 20.5t66.5 22.5t42.5 18t31.5 7q17 0 17 -15q0 -9 -9 -15.5t-19 -10.5q-12 -6 -27.5 -13.5 t-34.5 -19.5q-36 -23 -49 -58.5t-16 -90.5q-1 -8 -1.5 -18.5t-0.5 -22.5v-23.5v-22.5q0 -80 4 -178t5 -208v-31q15 15 41.5 45.5t60.5 68.5t72 80t72.5 82t63 74t45.5 56q28 37 41 65.5t13 50.5q0 20 -7 36t-15 25q-11 13 -23.5 24.5t-23 21.5t-17.5 18.5t-7 16.5t4.5 13.5 t14.5 5.5z" />
<glyph unicode="L" horiz-adv-x="1135" d="M67 1297q31 -1 65.5 -7.5t77.5 -16t95.5 -18.5t119.5 -14q35 -3 61.5 -4.5t48.5 -1.5q25 0 46 1t41.5 3.5t43.5 3.5t51 1q41 0 52.5 -7.5t11.5 -20.5t-11 -18.5t-32 -7.5q-16 -1 -36.5 -2.5t-39.5 -3.5q-16 -3 -31.5 -7.5t-29 -14.5t-23.5 -27t-15 -45 q-8 -42 -16.5 -110.5t-16 -149.5t-14 -167.5t-11.5 -164.5t-8 -142t-3 -98q0 -55 14.5 -79t43.5 -33q8 -2 24 -4.5t36.5 -4.5t44.5 -3t49 -1q71 0 119 11.5t77 36t41 60.5t12 86q0 43 -6.5 85.5t-15 79t-15.5 65t-7 44.5q0 9 3.5 15t11.5 6q10 0 16.5 -8.5t12.5 -21.5 q10 -29 18 -55.5t16.5 -55t18.5 -61.5t24 -74q31 -90 53.5 -147.5t22.5 -83.5q0 -13 -17 -20.5t-64 -7.5h-112.5t-152.5 -1t-168.5 -3.5t-158.5 -6.5q-59 -5 -101.5 -10.5t-78.5 -10.5t-68 -8.5t-70 -3.5q-26 0 -35.5 5.5t-9.5 17.5q0 10 10 14.5t23 6.5q4 1 18.5 3t32.5 5 t38 8t36 12q40 17 55 54.5t19 95.5q3 40 4.5 99t1.5 127q0 75 -1 155t-3 152.5t-4 132.5t-5 98q-2 38 -7.5 66t-13.5 48t-18.5 33t-23.5 23q-11 8 -27 15t-33.5 11.5t-34.5 7.5t-32 6q-22 3 -36.5 6.5t-22.5 7.5t-11 9.5t-3 10.5q0 16 10 20t23 4z" />
<glyph unicode="M" horiz-adv-x="1874" d="M478 852q-9 55 -34.5 87.5t-51.5 46.5q-21 12 -41.5 18t-35.5 11q-16 6 -23.5 12.5t-7.5 18.5q0 24 33 24q15 0 29 -3.5t34.5 -7.5t48 -9.5t68.5 -8.5q38 -4 64 -4t44 -0.5t30.5 -2t23.5 -5.5q15 -7 39.5 -33t55.5 -63.5t65 -84t68 -94t66.5 -92t59 -79t45.5 -55.5 t26 -21q14 0 55.5 78t117.5 232q21 43 43.5 91.5t44 96t40.5 91t35.5 77t29 54t19.5 22.5q4 2 9 2h10q16 0 42.5 -1t69.5 -1q26 0 47 2t37.5 4.5t30 5t25.5 2.5q17 0 22.5 -5.5t5.5 -11.5q0 -15 -25 -23q-24 -8 -68.5 -15.5t-98.5 -27.5q-34 -12 -47.5 -42.5t-13.5 -75.5 q0 -33 5.5 -84t15.5 -112.5t23 -131t29 -139.5t33 -136.5t34.5 -122.5t35 -98.5t33.5 -63.5q15 -20 30.5 -34.5t34.5 -24.5t41 -17.5t50 -15.5q27 -6 37 -14t10 -18q0 -12 -14 -19.5t-43 -7.5q-35 0 -73.5 2.5t-84.5 2.5q-75 0 -136.5 -11t-112.5 -24.5t-92 -24.5t-76 -11 q-9 0 -18 3.5t-9 15.5t15 20t39 15t53 15t58 20q29 14 42 35t13 55q0 19 -6 60.5t-16 96t-23 117.5t-27 126t-28 121.5t-25 103t-19 71t-9 26.5q-3 0 -16 -22.5t-32 -60t-43.5 -86.5t-49.5 -100t-49 -101.5t-44.5 -92t-34 -70t-17.5 -34.5q-8 -16 -17.5 -34t-19 -32.5 t-18 -24t-14.5 -9.5q-5 0 -13 8t-16.5 19.5t-17 25t-14.5 24.5q-22 38 -51.5 89.5t-61.5 108t-63.5 114t-59 105.5t-47 83t-25.5 48q-15 25 -25 42t-17 27t-12 15t-10 5q-7 0 -7 -14q0 -13 2.5 -36t4.5 -41q8 -82 11 -152.5t3 -136.5q0 -59 -6.5 -127.5t-22.5 -137 t-43.5 -131.5t-69.5 -111.5t-99.5 -77.5t-133.5 -29q-45 0 -79.5 14.5t-58.5 38t-36 54.5t-12 64q0 24 6.5 47.5t20.5 41.5t36 29.5t54 11.5q25 0 44.5 -9t35.5 -22t28.5 -29t22.5 -30q35 -48 77 -48q37 0 64 22.5t46.5 61t32 88t20 103t10.5 108t3 101.5q0 83 -7 158.5 t-16 135.5z" />
<glyph unicode="N" horiz-adv-x="1375" d="M399 1233q18 -7 47.5 -34t68 -69t85 -95t98.5 -109q39 -42 77 -85.5t73.5 -83.5t67 -75.5t57 -62t45 -41.5t29.5 -15q7 0 12 14t9 37.5t6.5 53t4 60t2.5 59t1 49.5q0 28 -1.5 63.5t-4 68.5t-7 60.5t-11.5 41.5q-10 20 -22.5 33.5t-31 22.5t-44.5 14t-64 9 q-24 3 -33.5 8.5t-9.5 17.5t9.5 15.5t20.5 3.5q8 0 25.5 -1.5t41 -2.5t50.5 -2t56 -1q46 0 91.5 6.5t85 14.5t70.5 15t48 7q25 0 25 -20q0 -14 -10.5 -20t-22.5 -8l-27.5 -5.5t-24.5 -5t-24.5 -6t-27.5 -9.5q-13 -4 -25 -12.5t-23 -22.5t-19.5 -34.5t-13.5 -49.5 q-6 -30 -9.5 -84t-7 -121t-5.5 -140.5t-4 -142t-3.5 -126.5t-2.5 -95q-2 -133 -7.5 -197t-17.5 -64q-6 0 -25 17.5t-45 46.5t-58 67t-65.5 79.5t-67.5 85t-63 81.5t-53 69.5t-38 50.5q-164 227 -252 343.5t-109 116.5q-4 0 -6 -25t-3.5 -68t-2 -100t-0.5 -122 q0 -83 0.5 -171.5t0.5 -167.5t0.5 -140t0.5 -89q0 -49 1.5 -101.5t5 -99t10.5 -84.5t17 -59q16 -30 33.5 -50t37 -34.5t41.5 -23.5t45 -16q19 -6 28 -11.5t9 -14.5q0 -15 -26 -15q-15 0 -36.5 5t-47.5 12t-54.5 15.5t-56.5 15.5q-32 8 -64 12t-62 4q-20 0 -41.5 -1.5 t-40 -2.5t-32 -2.5t-18.5 -1.5q-16 0 -31.5 2.5t-15.5 17.5q0 10 11 13t29 3q24 0 55 6.5t57 23.5q35 23 53.5 62.5t25.5 99.5q3 29 5 59.5t3.5 68t2.5 85t1 110.5q0 27 -1 58t-1 64q0 23 -0.5 63.5t-0.5 93t-1 112.5t-2.5 120.5t-4 118.5t-6.5 107.5t-10 85.5t-15 53 q-9 18 -25 28t-37.5 15t-49 6.5t-58.5 2.5q-20 0 -34 5.5t-14 22.5q0 14 9 20t24 6h72q51 0 129 5q36 3 72 8t62 5q9 0 17.5 -1.5t13.5 -4.5z" />
<glyph unicode="O" horiz-adv-x="1285" d="M614 1311q149 0 270.5 -47t208.5 -131.5t134.5 -200.5t47.5 -256q0 -79 -16.5 -157t-50.5 -148.5t-85.5 -131t-121 -105t-157 -70t-194.5 -25.5q-159 0 -279 48.5t-200.5 134.5t-121.5 205t-41 259q0 137 44.5 252t125 198t191.5 129t245 46zM580 1268q-83 0 -149 -37 t-112.5 -105.5t-71.5 -165.5t-25 -218q0 -70 9.5 -145.5t30.5 -148.5t55.5 -138.5t84 -115.5t115.5 -79t151 -29q101 0 169.5 40.5t111 107t61.5 151t19 171.5q0 73 -8 154.5t-27.5 160.5t-53 151t-83.5 126.5t-118.5 87t-158.5 32.5z" />
<glyph unicode="P" horiz-adv-x="1071" d="M752 1287q52 0 108.5 -12t103.5 -45.5t77.5 -92t30.5 -151.5q0 -86 -20 -150t-52.5 -110.5t-75 -77t-88 -48.5t-90.5 -25t-84 -7q-56 0 -95 5.5t-66 12.5q0 -43 0.5 -88.5t1 -86.5t1 -72.5t0.5 -44.5q1 -29 3.5 -73.5t8 -91.5t14 -92t22.5 -75q14 -32 37 -54.5t49 -37.5 t55 -24.5t55 -14.5q14 -2 28 -4.5t24.5 -5t18 -7.5t7.5 -12q0 -10 -8.5 -16t-34.5 -6q-27 0 -68 8t-92 17.5t-108 17.5t-114 8q-62 0 -117.5 -6.5t-98.5 -14.5t-73.5 -15t-42.5 -7q-3 0 -8 0.5t-9.5 2.5t-7.5 5t-3 10q0 9 11.5 15t30.5 12t43 14t48 20q48 26 72 68t36 98 q5 25 10.5 73t10.5 109.5t10 132.5t8 142t5 137t2 118q0 103 -5.5 181t-25.5 121q-15 35 -40.5 55.5t-56 31.5t-64.5 14.5t-65 5.5q-42 1 -56.5 6.5t-14.5 21.5q0 24 43 24q18 0 58.5 -2.5t96.5 -2.5q41 0 90 2.5t101 9.5q44 5 78 13t63 16t54 16t51 14.5t54 10.5t63 4z M511 1031q-4 -36 -5.5 -81.5t-3 -97.5t-1.5 -108.5v-111.5q27 -9 60.5 -12.5t80.5 -3.5q63 0 107 30t71.5 80t39.5 113.5t12 129.5q0 53 -9.5 103.5t-31.5 89t-59 61.5t-91 23q-42 0 -72 -15.5t-50.5 -43.5t-31.5 -68t-16 -88z" />
<glyph unicode="Q" horiz-adv-x="1383" d="M686 1330q80 0 161 -18t156 -53.5t140 -89.5t113 -127t75.5 -165t27.5 -204q0 -165 -39.5 -289t-106.5 -213q39 -77 70.5 -163t57.5 -173q35 -109 71 -189.5t78 -134.5t93 -80.5t115 -26.5q63 0 119.5 43t91.5 136q13 36 19.5 62.5t10.5 45t7.5 28t11.5 9.5q7 0 9.5 -10 t2.5 -26q0 -23 -4.5 -65t-19.5 -91.5t-41 -101t-69 -93.5t-106 -68t-149 -26q-103 0 -176 35.5t-123.5 96.5t-82 140.5t-53.5 167.5t-37 179t-32 173q-89 -62 -195 -91t-218 -29q-84 0 -166 20.5t-155 60t-134.5 99t-106 138t-69.5 176t-25 213.5q0 154 50 283.5t140 223 t215 145.5t273 52zM881 444q72 0 131.5 -34t107.5 -92q13 56 20 118.5t7 133.5q0 86 -15 171.5t-45 163.5t-75 144.5t-105.5 115.5t-136 76.5t-166.5 27.5q-82 0 -155 -38.5t-126.5 -109.5t-84.5 -171.5t-31 -223.5q0 -82 12.5 -161.5t37 -153t61 -139t84.5 -118t108 -89 t132 -53.5q-3 17 -5 41.5t-2 58.5q0 55 11 114t39 107t75.5 79.5t120.5 31.5zM752 0q102 0 175.5 38.5t121.5 112.5q-13 49 -31 89t-42 69t-56 45t-73 16q-52 0 -83.5 -28t-48.5 -69.5t-23 -90t-6 -90.5q0 -26 1 -50.5t3 -38.5q16 -2 31 -2.5t31 -0.5z" />
<glyph unicode="R" horiz-adv-x="1495" d="M701 1182q100 0 165 -29t102.5 -74t52.5 -99t15 -105q0 -49 -12.5 -100t-37.5 -95.5t-60.5 -80t-82.5 -54.5l-34 -13q41 -124 98 -212t123 -145t138 -84t143 -27q41 0 75 11t59 32.5t38.5 52t13.5 70.5q0 30 -3.5 50.5t-7 33.5t-7 20.5t-3.5 13.5q0 4 1.5 7t6.5 3 q8 0 19 -12.5t20.5 -32.5t16 -45.5t6.5 -52.5q0 -64 -18.5 -118.5t-56.5 -95t-96 -63t-136 -22.5q-109 0 -195 32.5t-152.5 83.5t-114.5 114.5t-81.5 127t-53.5 119.5t-31 93q-25 -4 -46.5 -5t-41.5 -1q-23 0 -39.5 0.5t-25.5 2.5q1 -55 4 -115.5t8 -117t13 -101.5t18 -68 q17 -40 45 -62t54.5 -35t46 -21t19.5 -16q0 -11 -24 -11q-27 0 -60.5 8t-72.5 17.5t-83 17.5t-91 8q-45 0 -93 -4t-87 -4q-55 0 -78.5 7.5t-23.5 25.5q0 11 6.5 17.5t26.5 6.5q22 0 39 -1t35 -1q41 0 70.5 6t48 24t27.5 51t9 87q0 21 -1.5 71.5t-6 117t-10.5 142t-14.5 148 t-20.5 135.5t-26 105q-15 41 -36 64.5t-47.5 36t-57 16.5t-64.5 8q-14 1 -22.5 6t-8.5 16t6.5 18t27.5 9q24 1 42.5 1h36.5h49.5t50 1.5t58.5 4.5t75 8q56 6 101.5 18t87 24t81.5 21t85 9zM456 527q98 1 168 27.5t115.5 73.5t66.5 110t21 136q0 130 -47.5 196t-136.5 66 q-37 0 -65.5 -13t-49.5 -36.5t-34.5 -55.5t-20.5 -71q-13 -81 -16 -160t-3 -153z" />
<glyph unicode="S" horiz-adv-x="889" d="M543 1333q46 0 80.5 -8.5t61 -19t46 -19t34.5 -8.5q11 0 18.5 9.5t13.5 23t10 29.5t9 29q5 20 11 33.5t18 13.5q13 0 13 -24q0 -14 -2.5 -30.5t-7.5 -39.5t-10.5 -54t-10.5 -71q-6 -50 -8.5 -88t-4 -63.5t-4.5 -39t-10 -13.5q-6 0 -9.5 6t-6 15.5t-4 18.5t-2.5 16 q-4 22 -10.5 48.5t-17.5 54t-27 53.5t-40 46t-56.5 32t-76.5 12q-79 0 -122.5 -47t-43.5 -138q0 -47 22 -94t58.5 -97.5t83 -103.5t95 -109.5t95 -116t83 -123.5t58.5 -132.5t22 -141.5q0 -100 -32.5 -174.5t-88 -123.5t-128.5 -73t-153 -24q-62 0 -108.5 14.5t-84 32 t-68.5 32t-61 14.5q-23 0 -43 -14.5t-36.5 -31.5t-28.5 -31.5t-19 -14.5t-9 5t-2 11q0 7 3 22.5t5.5 37.5t5 49.5t2.5 59.5q0 57 -10.5 117t-24 113t-24.5 93.5t-11 58.5q0 7 3 14t12 7q13 0 23.5 -18.5t22.5 -47.5q8 -20 20 -49.5t27 -63.5t33 -71t39 -72 q37 -62 76.5 -103.5t81 -66t84 -35t85.5 -10.5q51 0 88.5 19t62 50.5t36 70t11.5 77.5q0 76 -21 143t-54 127.5t-76 117t-87.5 110t-87.5 106.5t-76 108t-54 113.5t-21 123.5q0 63 16 110.5t42.5 83t60.5 59.5t70.5 38t73 20.5t67.5 6.5z" />
<glyph unicode="T" horiz-adv-x="1134" d="M92 1500q17 0 40.5 -3.5t50 -8.5t55 -11t58.5 -10q48 -6 94 -11.5t97 -9.5t109 -6t128 -2q89 0 150.5 6t106 13t77.5 13t67 6q37 0 48.5 -17t11.5 -47q0 -28 -2.5 -67.5t-6.5 -82.5t-10.5 -85.5t-13.5 -76t-15.5 -54.5t-16.5 -20q-10 0 -14 34.5t-8 102.5q-3 49 -12 87.5 t-27.5 65t-48 43.5t-73.5 24q-36 7 -82.5 9t-95.5 2v-1084q0 -89 10.5 -144.5t26.5 -88t36 -47t38 -22.5q13 -5 30.5 -8t37 -5.5t38.5 -4t34 -2.5q33 -1 52.5 -4.5t19.5 -17.5q0 -6 -3.5 -12t-12.5 -10.5t-26.5 -7.5t-44.5 -3q-43 0 -84.5 1.5t-83.5 1.5q-63 0 -123 -8.5 t-118 -26.5t-116.5 -44.5t-120.5 -61.5q-19 -12 -38.5 -21.5t-31.5 -9.5q-11 0 -11 11q0 9 13 21t34 28t48.5 37t56.5 47q42 40 67.5 78.5t40.5 80.5t21 89.5t9 104.5l56 1134q-39 1 -65.5 1.5t-49.5 0.5h-46h-54q-58 0 -98.5 -5.5t-67.5 -15.5t-42 -25.5t-23 -36t-10 -46 t-2 -55.5q0 -33 4 -68t10 -68.5t12.5 -63t13.5 -53.5q6 -22 11 -38.5t5 -28.5q0 -4 -2.5 -10t-9.5 -6q-11 0 -23 16t-24 42.5t-23.5 60t-22 69t-20 70.5t-16.5 64q-19 71 -28 131.5t-9 97.5q0 34 11.5 53t46.5 19z" />
<glyph unicode="U" horiz-adv-x="1188" d="M712 1356q22 0 22 -18q0 -12 -11.5 -22.5t-39.5 -23.5q-15 -7 -33 -16t-37 -21.5t-37.5 -28.5t-35.5 -37q-22 -27 -38 -69t-27 -95.5t-16.5 -116.5t-5.5 -132q0 -75 5 -149.5t17 -142t32.5 -124.5t50 -99t70.5 -65.5t96 -23.5q70 0 120 37t82 95t48 128.5t16 138.5 q0 18 -0.5 47.5t-2 66t-4.5 75t-8.5 74.5t-15 66t-22.5 48q-12 17 -29 31.5t-41 26t-56.5 20t-76.5 15.5q-35 5 -53.5 12t-18.5 26q0 16 14.5 21.5t40.5 5.5q25 0 54 -3t62 -7t70 -7.5t77 -3.5q37 0 74 4.5t71 9t64 8.5t53 4q30 0 40 -5t10 -14q0 -10 -12 -13.5t-31 -4.5 q-20 -2 -43 -4t-46 -7.5t-42.5 -17.5t-32.5 -34q-17 -27 -24 -75t-9.5 -106t-2.5 -120.5t-3 -119.5q-2 -34 -8 -85.5t-20 -109t-39.5 -115t-66 -104t-99.5 -75.5t-140 -29q-79 0 -143.5 23.5t-116 66.5t-88.5 102t-60 130q-15 43 -23.5 96t-14 112t-8.5 121t-4 124 q-2 53 -5 95.5t-10.5 75.5t-21 55t-34.5 35q-23 14 -48 20t-63 6q-33 0 -33 24q0 19 28 24q37 6 74 11t76.5 11t81.5 13t88 18q81 20 142.5 41.5t105.5 39t72 29t44 11.5z" />
<glyph unicode="V" horiz-adv-x="1374" d="M731 1349q17 0 17 -11q0 -7 -6.5 -12.5t-30.5 -14.5q-11 -4 -28 -10.5t-35.5 -14.5t-37 -16.5t-32.5 -17.5q-15 -9 -23 -21t-8 -30q0 -17 8 -45.5t21 -63.5t30.5 -75t36 -79.5t37 -76.5t34.5 -66q18 -36 41.5 -78t47 -85t47 -83t43 -70.5t34.5 -49t22 -18.5q8 0 19 19 t25 48t29 64.5t27 69.5q10 28 22.5 67t23 79.5t17 76.5t6.5 58q0 19 -8 30.5t-22 17t-33.5 7t-43.5 1.5q-19 0 -39.5 -0.5t-39.5 -0.5q-37 0 -37 22q0 12 9 17t28 8q12 0 42.5 2.5t73 9.5t93 20.5t101.5 37.5q61 29 102.5 58t70.5 53t47.5 39t32.5 15q17 0 17 -17 q0 -13 -19.5 -32.5t-51.5 -50.5t-75 -75.5t-91 -108.5q-28 -38 -56.5 -90t-56 -111.5t-55 -123.5t-54.5 -125q-56 -124 -91.5 -212.5t-58.5 -145.5t-35.5 -84.5t-20.5 -27.5t-20.5 19t-29.5 52.5t-38 80.5t-45 104q-12 27 -33 78.5t-48 117t-58.5 139.5t-65.5 147t-67 139 t-63 115q-33 53 -69.5 91t-94.5 59q-34 12 -64.5 16.5t-68.5 7.5q-37 2 -56 9t-19 24t16 24t51 7q18 0 36 -1t36.5 -2t39 -1.5t44.5 -0.5q56 0 113 7t109.5 18t99 24t83.5 24t62 18t34 7z" />
<glyph unicode="W" horiz-adv-x="1926" d="M492 1092q8 0 11 -4t3 -9q0 -11 -14.5 -29t-32 -43t-32 -53.5t-14.5 -57.5t7.5 -65t19 -74.5t25 -75.5t26.5 -67q4 -13 15 -38.5t24 -56.5t29 -63.5t30 -60t26 -45t18 -17.5q7 0 19 15t27.5 41.5t36 62t44.5 78.5q38 66 67 119t50 90t34.5 57t20.5 20q8 0 20 -13 t35.5 -45.5t60.5 -89.5t96 -146q9 -15 26.5 -41.5t38.5 -59.5t44 -67t43.5 -61.5t37 -46t23.5 -18.5q9 0 24 22.5t32.5 55t35.5 68.5l32 64q6 13 20 44t33 75t42 97t45 109.5t43 113t37.5 107t26 91.5t9.5 66q0 22 -14 39.5t-40 30.5q-40 20 -70.5 33t-52 23t-32.5 18 t-11 19q0 9 6.5 14t16.5 5q12 0 32.5 -7t53.5 -17.5t83 -23t123 -23.5q58 -7 106.5 -10t91.5 -3q26 0 44 1t29 1q23 0 32 -6.5t9 -16.5t-7 -15.5t-16.5 -9t-21 -4t-21.5 -0.5q-44 0 -74.5 -2.5t-53.5 -8.5t-41.5 -19t-36.5 -34q-20 -22 -45 -67t-53.5 -105t-60 -130.5 t-63 -143.5t-62.5 -143.5t-60 -129.5q-18 -37 -42.5 -92t-52.5 -116.5t-56 -122.5t-53 -109.5t-44.5 -79t-28.5 -30.5q-15 0 -46.5 60t-83.5 171q-32 70 -60.5 137t-54.5 126t-47 108.5t-37.5 85.5t-28.5 56.5t-18 20.5t-20.5 -23t-34 -58t-41.5 -78t-42 -82.5t-36 -71.5 t-23 -45l-126 -239q-12 -21 -20 -29t-16 -8q-15 0 -27 30q-10 23 -22.5 54t-25.5 67t-26.5 74t-27.5 75q-24 68 -43.5 132.5t-38 122t-37.5 105.5t-42.5 82.5t-53.5 54t-69 19.5q-19 0 -37 -2t-34.5 -4.5t-30.5 -4.5t-24 -2q-28 0 -28 21q0 11 7.5 16.5t19.5 9.5q15 6 40 10 t58.5 12.5t74.5 22.5t89 39q67 33 111.5 64t73.5 55t44.5 38t24.5 14z" />
<glyph unicode="X" horiz-adv-x="1493" d="M764 1325q22 0 22 -15q0 -13 -15.5 -21t-33.5 -18.5t-33.5 -27.5t-15.5 -49q0 -28 9 -61.5t22 -67t28.5 -63.5t26.5 -50q6 -13 19 -35t28 -48.5t32 -53.5t33.5 -49.5t30.5 -36t22 -13.5q10 0 24.5 12.5t31 33t35 47.5t37.5 56q15 25 28.5 49.5t23.5 48t16 44t6 37.5 q0 22 -15.5 37.5t-35.5 29.5q-14 10 -28.5 19t-26 16t-18.5 14t-7 13q0 12 12 12q10 0 25.5 -8t38.5 -20.5t54.5 -27.5t74.5 -29q47 -16 85.5 -24t70.5 -13q26 -5 37.5 -10t11.5 -12q0 -14 -23 -14q-16 0 -41 5t-51 5q-19 0 -37.5 -5.5t-34.5 -16.5q-18 -13 -42 -43 t-51.5 -68t-54.5 -80t-48 -79.5t-34 -65t-13 -37.5q0 -15 13 -48t35 -76t49 -90.5t53.5 -93t50 -83t37.5 -59.5q19 -28 37.5 -51t39.5 -42t47 -36t64 -32q21 -9 39 -15.5t31.5 -12t21 -10.5t7.5 -12t-8 -12t-34 -5q-27 0 -65 6t-87 13t-111 13t-136 6q-34 0 -67 -1.5 t-61.5 -2.5t-52.5 -2t-40 -1q-21 0 -33.5 4t-12.5 18q0 9 8 15.5t35 8.5q11 1 30 1t41.5 1t47 2t46.5 5q23 4 37.5 10.5t14.5 18.5t-9 33t-24 48.5t-35.5 61t-43.5 70.5q-28 46 -56 90.5t-51.5 79t-41.5 56.5t-26 22q-6 0 -24 -19t-43 -50.5t-54.5 -72.5t-57.5 -86 q-34 -52 -58 -102t-24 -87q0 -24 9 -43.5t24 -36.5q10 -10 22.5 -18.5t23 -16.5t17.5 -15.5t7 -15.5q0 -16 -20 -16q-15 0 -39.5 9t-57 22.5t-72 28t-84.5 25.5q-59 14 -121.5 17.5t-124.5 5.5q-28 0 -39 5t-11 15q0 11 11 17t44 6q17 0 41 0.5t51.5 3.5t56 8t55.5 14 q37 12 67.5 29.5t56 40t48.5 50.5t48 60q12 18 30.5 43t39 53.5t40.5 58t36 56.5t26 49t10 34q0 15 -13 47t-35.5 75t-53.5 92.5t-66.5 99t-74 95.5t-77.5 80q-34 30 -73.5 50t-84.5 32t-94.5 17.5t-102.5 5.5q-39 0 -39 20q0 10 7.5 15.5t28.5 5.5q30 0 61.5 -0.5 t69.5 -0.5q46 0 105.5 2t144.5 11q69 8 126.5 19t101 21.5t73.5 18t46 7.5z" />
<glyph unicode="Y" horiz-adv-x="1370" d="M616 1461q0 -9 -11.5 -16t-30 -15t-42.5 -17.5t-49 -22.5q-17 -8 -27.5 -21t-10.5 -33q0 -21 19 -52.5t46.5 -67t57 -70.5t51.5 -61q24 -28 57 -64.5t66 -69t62 -55t44 -22.5q9 -1 23 9.5t30.5 27t35 38t36.5 44.5t35 44t29 37q18 21 40.5 51.5t43 60.5t34 57t13.5 42 q0 9 -7.5 17.5t-19 16.5t-26.5 15t-30 12t-25.5 11.5t-10.5 16.5q0 9 6 12.5t15 3.5q13 0 30 -6t42 -14t58.5 -17.5t79.5 -16.5q38 -5 68.5 -7.5t55.5 -4t44.5 -1.5h37.5q40 0 40 -18q0 -20 -45 -20q-9 0 -27.5 1t-43.5 1q-17 0 -37.5 -0.5t-41.5 -3.5t-40.5 -9t-36.5 -17 q-20 -12 -42 -35t-45 -51.5t-47.5 -60.5t-47.5 -64q-25 -32 -46.5 -62.5t-41 -57.5t-35 -50t-25.5 -40q-18 -29 -30 -52.5t-19 -47.5t-10 -50.5t-3 -61.5q0 -46 1 -100t3.5 -109t5 -109.5t6 -102.5t6.5 -86t6 -62q7 -69 24.5 -108.5t43.5 -61.5q12 -10 28 -18.5t30.5 -17 t24.5 -17t10 -18.5q0 -6 -4.5 -11t-17.5 -5q-18 0 -48 8t-69.5 18.5t-87.5 21.5t-102 18q-47 5 -89 6.5t-77 1.5q-39 0 -67 -0.5t-42 -0.5q-23 0 -36.5 5t-13.5 17q0 15 15.5 21t39.5 10t55.5 8.5t63.5 14.5q22 7 36.5 18.5t24.5 27.5t15.5 34.5t9.5 39.5q5 23 11 67 t11.5 100.5t9.5 121t4 127.5q0 45 -2 84t-11 78q-6 25 -25.5 63t-48.5 83.5t-64.5 95.5t-74 100t-76.5 97t-72 85.5t-62 66.5t-44 41q-20 15 -37.5 25t-35.5 17t-38 12t-45 9q-40 5 -40 24q0 10 8.5 15.5t34.5 5.5q44 0 103 2t147 15q69 10 117 22.5t82 23.5t55 18.5t35 7.5 q17 0 17 -13z" />
<glyph unicode="Z" horiz-adv-x="1080" d="M169 -192q-4 6 -4 15q0 29 21.5 104t64.5 204q14 40 32 101.5t38 134t42 153t43 158t39.5 149.5t32 128t21.5 92.5t8 44.5q0 4 -10.5 8t-29 7t-42 4.5t-48.5 1.5t-51 -3t-50.5 -11t-46.5 -22t-40 -36q-22 -28 -34 -66t-19 -75.5t-9.5 -68t-4.5 -41.5q-5 -35 -20 -35 q-7 0 -11.5 8t-4.5 30q0 25 3 63t5.5 78.5t5.5 80t3 69.5q0 59 -3 96t-3 59q0 17 6 17t26.5 -14.5t63.5 -31.5t113.5 -31.5t176.5 -14.5q66 0 119.5 7t94.5 15t69 15t41 7q14 0 14 -14q0 -20 -15.5 -62.5t-36.5 -102.5q-20 -56 -49 -132t-63.5 -167t-72 -194t-75.5 -213 q-34 -101 -59.5 -174t-41.5 -123t-23.5 -77.5t-7.5 -37.5q0 -9 7.5 -11t17.5 -2q26 0 71.5 6t99.5 15.5t109.5 22.5t98.5 29q62 21 98.5 54t55.5 73.5t24.5 85.5t5.5 90q0 22 -1.5 46t-4 47.5t-4.5 44t-2 35.5q0 28 10 28q9 0 16 -17.5t15 -49.5t19 -78.5t26 -104.5 q17 -62 32 -114t27 -91.5t18.5 -67t6.5 -39.5q0 -15 -13 -15q-12 0 -34.5 3.5t-52 8t-66 8t-74.5 3.5q-52 0 -119 -8t-141 -21.5t-151.5 -30.5t-153.5 -35q-42 -10 -73.5 -19t-50.5 -9q-9 0 -15 2t-10 8z" />
<glyph unicode="[" horiz-adv-x="592" d="M222 1400q24 0 57.5 -4.5t72.5 -11t83 -15t88 -17.5q20 -4 36 -10.5t16 -16.5q0 -12 -28 -12q-20 0 -40.5 2.5l-41 5t-38.5 5t-33 2.5q-19 0 -34 -2.5t-27 -12.5q-19 -17 -33.5 -71t-26 -138t-19.5 -194.5t-13 -241.5q-3 -70 -6 -142t-5 -142t-3.5 -137t-1.5 -129 q0 -61 1.5 -114t5.5 -95.5t9.5 -73t13.5 -45.5q10 -20 26.5 -32.5t37 -19t44 -8.5t48.5 -2q8 0 18.5 0.5t21 0.5t20 0.5t16.5 0.5q35 0 50 -9t15 -23q0 -12 -15 -19.5t-41 -12t-62 -6t-78 -1.5q-39 0 -75 1.5t-58 4.5q-31 3 -62.5 8t-58 14t-46 23.5t-25.5 38.5 q-7 21 -9.5 60.5t-2.5 93.5q0 97 7 225.5t17 268.5q5 69 12.5 152.5t16.5 171t19.5 173t19.5 159t17 129.5t13 84q7 39 14.5 65t16.5 41.5t21.5 21.5t28.5 6z" />
<glyph unicode="\" horiz-adv-x="597" d="M36 1631q15 0 29 -24t25.5 -58t21.5 -68t16 -53q3 -13 15 -56.5t29 -105.5t37.5 -137t41.5 -150t40.5 -145t35.5 -123q11 -37 27 -92.5t36 -122t42 -140t43 -146t39.5 -140.5t33.5 -124t23.5 -95.5t8.5 -55.5q0 -12 -5 -18.5t-14 -6.5q-17 0 -31 29.5t-31 82.5 q-22 66 -50 160t-59.5 201.5t-64 221.5t-60.5 220q-15 51 -32 114.5t-35 131t-37 136.5t-36.5 132t-33 116t-25.5 90q-21 71 -34 122.5t-13 77.5q0 15 5 20.5t12 5.5z" />
<glyph unicode="]" horiz-adv-x="576" d="M411 1190q21 0 28 -13.5t10 -32.5q2 -13 6 -53t10 -95.5t13 -120.5t13 -129.5t11 -121.5t9 -96q7 -90 15.5 -183.5t15.5 -177t11.5 -150.5t4.5 -103q0 -17 -2 -29.5t-7 -21t-12.5 -15.5t-19.5 -13q-15 -9 -36.5 -18t-50 -20.5t-63 -26t-76.5 -35.5q-34 -16 -72 -36.5 t-73 -38.5t-63 -30t-42 -12q-12 0 -18 6t-6 13q0 4 1.5 10t12.5 14q14 11 47 26t70.5 36t72.5 48t55 62q12 23 19.5 54.5t11 67t4.5 76t1 84.5q0 40 -1 80t-2.5 76t-2.5 67t-2 53q-1 26 -2.5 78t-4.5 116t-6 134.5t-6.5 136t-7 119t-7.5 83.5q-3 21 -11 26.5t-25 5.5 q-14 0 -32.5 -2.5t-37.5 -5.5t-35.5 -5.5t-28.5 -2.5q-11 0 -20 3t-9 15t14.5 20t39 14.5t56 13t65.5 14.5q40 10 66.5 17t44.5 11t30.5 6t23.5 2z" />
<glyph unicode="^" horiz-adv-x="1132" d="M530 1354q12 0 26 -18t37.5 -49.5t60 -73.5t94.5 -90q56 -45 109.5 -75t95.5 -49t67.5 -29.5t25.5 -17.5q0 -11 -14 -18t-46 -7q-28 0 -66.5 8.5t-81.5 23t-86 32t-79 36.5q-35 18 -64 34.5t-51 29t-37 20t-24 7.5q-6 0 -31.5 -12t-60.5 -30.5t-77 -40.5t-83.5 -40.5 t-77.5 -30.5t-60 -12q-10 0 -15.5 4t-5.5 9q0 10 15 19.5t42 24t65 37t84 59.5q63 48 103.5 93t66 80t40.5 55.5t28 20.5z" />
<glyph unicode="_" horiz-adv-x="1166" d="M1005 -409q10 0 23 -1t24.5 -4.5t19.5 -11t8 -21.5t-13.5 -26.5t-55.5 -13.5q-40 -2 -89 -3t-108.5 -2t-130.5 -4t-155 -8q-41 -3 -95.5 -7.5t-110 -9t-106 -8t-82.5 -3.5q-6 0 -14.5 0.5t-16 3t-12.5 7t-5 12.5q0 12 11 19t37 14q26 6 73.5 11.5t102.5 11t110.5 10.5 t98.5 8q39 2 83.5 5.5t90.5 6.5t92 5.5t87 4t75 3t58 1.5z" />
<glyph unicode="`" horiz-adv-x="479" d="M144 1625q16 0 34.5 -10.5t37 -29.5t38 -44t37.5 -53q20 -30 38.5 -59t32 -54t22 -45.5t8.5 -35.5q0 -10 -4 -16.5t-13 -6.5q-10 0 -29 12t-43 32t-51 45t-52 52q-20 20 -40.5 41t-37 41.5t-26.5 40t-10 36.5q0 28 18.5 41t39.5 13z" />
<glyph unicode="a" horiz-adv-x="908" d="M260 606q-32 0 -59 11.5t-47 35t-32 59t-12 83.5q0 52 14.5 102t46 89t79.5 62.5t116 23.5q57 0 100 -15t76 -39.5t56 -57.5t39 -68.5t26.5 -72t17.5 -69.5q4 -18 10.5 -52t14 -78.5t16 -95.5t17 -103t16.5 -101.5t14.5 -90t11 -69.5t7.5 -40q5 -26 11.5 -53t16 -49 t23.5 -36.5t36 -14.5q13 0 22 6t14.5 16t8 22.5t2.5 26.5q0 16 -0.5 32.5t-0.5 27.5q0 13 3 22t13 9t15.5 -10.5t8 -24t3.5 -27.5t1 -21q0 -29 -5 -66t-21 -72q-15 -35 -50.5 -57.5t-81.5 -22.5q-40 0 -69 11.5t-49.5 29.5t-34.5 38t-22 38q-24 45 -36 99t-20 104 q-12 -21 -38 -52t-63.5 -59.5t-87 -49t-110.5 -20.5q-67 0 -114.5 19t-77.5 51.5t-44.5 75.5t-14.5 92q0 52 19.5 105t63.5 96t115 69.5t173 26.5q24 0 46 -2t40 -4.5t31.5 -5t18.5 -3.5q-5 72 -12 145q-4 30 -7.5 63.5t-8 67.5t-9.5 67t-10 61q-14 65 -53 103t-100 38 q-32 0 -57 -11.5t-42 -30t-25.5 -41.5t-8.5 -46q0 -24 11.5 -40.5t29 -29t37.5 -24t37.5 -26t29 -35.5t11.5 -52q0 -41 -28 -65.5t-68 -24.5zM540 435q-6 3 -20.5 6.5t-34.5 7.5t-43.5 6.5t-45.5 2.5q-45 0 -83 -12.5t-66 -37.5t-44 -62.5t-16 -85.5q0 -45 15 -74t38 -46 t51 -23.5t55 -6.5q43 0 81.5 13.5t68 31t48 34.5t22.5 23q-6 56 -11 102q-2 20 -4 39.5t-4.5 36.5t-4 28.5t-2.5 16.5z" />
<glyph unicode="b" horiz-adv-x="1001" d="M261 1880q1 -14 2.5 -45.5t3 -74t3 -91.5t3.5 -98t3 -94.5t3 -79.5q1 -22 2.5 -62.5t4.5 -95.5t6.5 -120.5t7.5 -137t9 -146.5t11 -147q40 50 83 81.5t85 49.5t81.5 25.5t72.5 7.5q75 0 136 -26t104.5 -73t67.5 -112.5t24 -144.5t-15.5 -139.5t-41 -106t-60 -76.5 t-73 -51.5t-79.5 -31t-81 -15.5q-42 -5 -79 -6.5t-75.5 -3t-82 -6t-96.5 -14.5q-36 -7 -77 -20t-79.5 -25.5t-71.5 -22t-53 -9.5q-10 0 -16.5 4t-6.5 15q0 18 28 25q49 15 79 33t47 42.5t23.5 58t6.5 78.5q0 19 -2 76t-4.5 137.5t-6 178.5t-7.5 200.5t-8 203t-8 186.5 t-8 150.5t-7 94.5q-4 47 -15 75.5t-27.5 43t-38 19t-47.5 4.5q-38 0 -62 -2.5t-43 -2.5q-11 0 -18 4t-7 12q0 9 6.5 14.5t24.5 7.5q26 4 56 10t60.5 16.5t61 26t55.5 39.5q24 21 40 45.5t26.5 48t17.5 44.5t12 37.5t10 26t12 9.5q10 0 13 -13.5t4 -36.5zM545 762 q-38 0 -70 -12t-59.5 -31t-49.5 -42.5t-39 -46.5q9 -115 18.5 -202t22.5 -147q7 -35 20 -65t33 -52.5t49.5 -35.5t69.5 -13q71 0 116 28.5t71 74.5t36 102t10 112t-10.5 114.5t-36.5 106.5t-70 78.5t-111 30.5z" />
<glyph unicode="c" horiz-adv-x="753" d="M568 740q-27 0 -50 8.5t-40 25.5t-26.5 43.5t-9.5 61.5q0 26 -3 49.5t-12.5 42t-26.5 29.5t-46 11q-34 0 -67.5 -21t-60.5 -64t-44 -107t-17 -148q0 -102 21 -182.5t60 -136t95 -85t127 -29.5q46 0 82.5 16t61 42.5t37.5 63t13 77.5q0 43 -10.5 72t-22.5 50t-22.5 34.5 t-10.5 23.5q0 13 13 13t32.5 -13.5t38.5 -39t32.5 -62.5t13.5 -83q0 -76 -25 -134.5t-68.5 -98t-104 -60.5t-131.5 -21q-82 0 -150 31.5t-117 89.5t-76.5 142t-27.5 189q0 50 9.5 99.5t25 94.5t36.5 83.5t46 68.5q36 43 74 73t77 48t80.5 25.5t84.5 7.5q48 0 90 -13.5 t73 -37.5t48.5 -58t17.5 -76q0 -41 -11 -68t-28.5 -44.5t-39 -25t-41.5 -7.5z" />
<glyph unicode="d" horiz-adv-x="901" d="M769 1705q6 0 8.5 -12t2.5 -33q0 -66 -1.5 -142t-3 -158.5t-4 -169.5t-4.5 -174q-3 -121 -5.5 -237t-4 -213t-3 -169.5t-1.5 -107.5q0 -40 7 -66t18 -42.5t25.5 -25t30.5 -14.5q21 -7 41 -10t35 -5t23.5 -5t8.5 -13q0 -12 -18 -15.5t-38 -3.5q-28 0 -78.5 4.5t-116.5 4.5 q-32 0 -63.5 -3t-67.5 -7t-78.5 -7.5t-95.5 -3.5q-76 0 -142.5 18.5t-116 58.5t-78 103.5t-28.5 153.5q0 80 29 142.5t79 105t116.5 65.5t141.5 23q78 0 130.5 -12.5t84.5 -25.5q0 81 -1.5 164.5t-3.5 163t-4 150t-4.5 124t-4 87t-1.5 38.5q-1 13 -2 25t-4 22t-9 15.5 t-16 5.5q-13 0 -29 -5.5t-32 -12t-32 -12t-29 -5.5q-7 0 -14 3t-7 12q0 11 8 18t23 13q11 5 25.5 10t35 13.5t49 22.5t67.5 38q39 22 65.5 41.5t43.5 33.5t27 22.5t16 8.5zM609 315q0 37 -0.5 80t-1 88t-1.5 89.5t-2 84.5q-26 13 -64 22t-84 9q-56 0 -99 -19.5t-72.5 -54.5 t-44.5 -84.5t-15 -111.5q0 -65 14.5 -118.5t42.5 -91t71 -58.5t100 -21q48 0 79.5 15.5t48.5 39.5q17 23 22.5 56t5.5 75z" />
<glyph unicode="e" horiz-adv-x="746" d="M688 445q12 -19 21.5 -52t9.5 -66q0 -62 -20 -110t-58 -81.5t-91.5 -51t-119.5 -17.5q-96 0 -171 32.5t-126.5 90.5t-78 138t-26.5 176q0 87 18.5 157.5t50.5 126t74 96.5t89 68t95.5 40t93.5 13t93 -12t87.5 -40.5t65.5 -75t26 -117.5q0 -61 -18 -107.5t-47.5 -80 t-67 -55t-76.5 -34.5t-76.5 -18.5t-65.5 -5.5q-42 0 -81 6t-61 13q4 -66 21 -126.5t49 -107t79.5 -74t111.5 -27.5q44 0 76.5 15t53.5 40.5t31 59t10 70.5q0 22 -3 45.5t-10 44.5q-5 13 -8.5 24t-3.5 17q0 17 15 17q8 0 18.5 -7.5t19.5 -23.5zM225 533q22 -6 49.5 -11 t69.5 -5q49 0 90 18.5t70.5 52t46.5 80.5t17 105q0 51 -11.5 86t-30 56t-42.5 29.5t-49 8.5q-32 0 -69 -19t-68.5 -67t-52 -129t-20.5 -205z" />
<glyph unicode="f" horiz-adv-x="515" d="M570 1935q47 0 90.5 -14.5t77.5 -47t54 -83t20 -121.5q0 -64 -16 -116t-44.5 -89t-68 -57t-86.5 -20q-31 0 -55.5 9.5t-41 26t-25.5 38.5t-9 48q0 17 4.5 35.5t16 35.5t32 33t52.5 28q62 25 91 60t29 85q0 17 -5.5 38t-21 39t-42 30.5t-68.5 12.5q-53 0 -90 -27.5 t-63 -72.5t-42 -102.5t-24.5 -117.5t-11.5 -117.5t-3 -102.5q0 -33 1.5 -65.5t9.5 -58t26 -41.5t50 -16q26 0 53.5 5t52.5 10.5t46 10.5t35 5q23 0 23 -17q0 -12 -10.5 -19t-36.5 -12q-13 -2 -28.5 -4t-35.5 -4.5t-45.5 -7t-58.5 -11.5q-21 -5 -34.5 -13t-19.5 -18 q-9 -14 -11 -33.5t-2 -44.5q0 -6 1.5 -50t3.5 -111t4.5 -152t5.5 -174t6 -176t5.5 -158.5t4.5 -121.5t4 -65q4 -50 19.5 -83t54.5 -44q13 -5 24.5 -7t23.5 -3t26 -3t32 -4q22 -3 34.5 -9t12.5 -19q0 -17 -19 -25t-53 -8q-19 0 -52.5 1t-70.5 1q-79 -1 -139.5 -15.5t-106 -32 t-78.5 -32.5t-57 -15q-19 0 -19 16q0 10 9.5 17t27.5 16q38 15 63.5 32t41.5 39.5t23 55t9 79.5q1 39 1 97v129q0 69 -0.5 147.5t-0.5 157.5t-1 156t-2 145t-2 123t-2 91q-1 21 -4.5 34.5t-11 21t-20.5 10.5t-33 3q-18 0 -39.5 -1.5t-43 -3.5t-39.5 -4t-29 -2q-15 0 -24 4.5 t-9 15.5t10 16t29 7q32 4 61.5 7t70.5 11q36 6 56 24t31.5 43.5t17 57t10.5 65.5q10 76 24 149.5t35.5 140.5t49.5 123.5t66 97.5t85.5 64.5t107.5 23.5z" />
<glyph unicode="g" horiz-adv-x="976" d="M836 1020q43 0 77.5 -13t58.5 -36t37 -53t13 -65q0 -68 -32 -105t-87 -37q-23 0 -42 6.5t-33.5 20t-23 33t-8.5 43.5q0 27 7.5 48.5t7.5 42.5q0 28 -17 39t-39 11q-28 0 -57 -19.5t-48 -50.5q-7 -15 -12.5 -30.5t-5.5 -27.5q0 -6 7.5 -14t19.5 -18t27.5 -23t30.5 -30 q27 -30 49 -74.5t22 -104.5q0 -67 -15 -117t-41.5 -86.5t-62 -60.5t-76 -38.5t-84.5 -20.5t-87 -6h-33q-55 -9 -89 -34t-34 -66q0 -26 17 -43.5t45 -29.5t65 -19.5t77 -12.5t80 -10.5t74 -11.5q58 -12 112 -31.5t96 -51.5t67 -81t25 -119q0 -54 -18.5 -101.5t-51 -87.5 t-77.5 -72.5t-96 -56.5q-67 -31 -147 -47t-166 -16q-81 0 -151.5 17.5t-123 54t-82.5 92t-30 130.5q0 61 20 111t51.5 89t70.5 68t76.5 50t69.5 34.5t49 20.5q-29 3 -59 11.5t-54 23t-39 36.5t-15 53q0 42 36 71t100 44q-48 13 -89 37t-71 59.5t-47.5 83t-17.5 108.5 q0 75 26.5 133.5t72 99.5t106.5 62t132 21q21 0 43 -2t41 -5t35.5 -5t26.5 -2q21 0 35 6t26 25q16 27 36.5 54t47.5 48.5t62.5 34.5t83.5 13zM458 803q-32 0 -63.5 -14.5t-56.5 -48.5t-40.5 -89t-15.5 -134q0 -64 14 -110t36 -75.5t50 -43.5t55 -14q23 0 53.5 11.5t57.5 43 t45.5 88t18.5 146.5q0 119 -41.5 179.5t-112.5 60.5zM194 -310q0 -61 18 -114.5t53.5 -93.5t86.5 -63t118 -23q75 0 129.5 24t90 63t52.5 90t17 105q0 53 -13.5 99.5t-41.5 84.5t-71.5 66t-104.5 44q-39 11 -75 16.5t-66 8.5q-29 -18 -63 -46t-63 -66.5t-48 -87t-19 -107.5z " />
<glyph unicode="h" horiz-adv-x="975" d="M386 1840q11 0 14.5 -6.5t3.5 -13.5q0 -11 -3.5 -31t-8.5 -52.5t-11 -81t-13 -117.5q-9 -97 -16.5 -195t-13 -191.5t-9.5 -178.5t-7 -156.5t-4.5 -126t-2.5 -86.5q13 39 36.5 78.5t56 71.5t75.5 52t95 20q31 0 65.5 -8t67 -29t58.5 -57t42 -92q13 -55 16.5 -107.5 t3.5 -112.5q0 -45 -2 -100.5t-2 -112.5q0 -38 7.5 -59.5t20.5 -32.5t31 -14.5t40 -3.5q8 -1 17 -2t16 -3.5t11.5 -7.5t4.5 -13q0 -10 -9 -17.5t-34 -7.5q-33 0 -73 8t-90 8q-32 0 -67 -6.5t-67.5 -14.5t-59 -15t-42.5 -7q-13 0 -16 5t-3 9q0 6 5 10t19 8q17 6 30 11t24 12 q13 7 24 24.5t17 56.5q3 21 4.5 49t3 59.5t2 65t0.5 67.5q0 55 -1.5 104t-6.5 81q-11 71 -40.5 112t-83.5 41q-26 0 -46.5 -10t-36.5 -26t-29 -36t-22 -41q-17 -36 -32 -92.5t-26 -121.5t-17 -132.5t-6 -126.5q0 -28 6.5 -45t19.5 -27.5t31 -16.5t41 -11q12 -3 19 -6.5 t7 -13.5q0 -20 -29 -20q-23 0 -55.5 5.5t-69 13t-74.5 13t-74 5.5q-46 0 -82 -4.5t-62 -4.5q-36 0 -36 23q0 9 7 14.5t19 5.5q7 0 17.5 -1t20.5 -1q30 0 52 7.5t37.5 25t26.5 47t18 75.5q5 29 11.5 89.5t14 141t15 175t14.5 192t14 193t11.5 178t7.5 146t3 96.5q0 50 -9 79 t-22.5 44t-29.5 19t-32 4q-15 0 -32.5 -3t-35.5 -6t-35.5 -6t-32.5 -3q-13 0 -18.5 5.5t-5.5 14.5q0 11 6.5 17t21.5 11q20 6 43.5 13t50.5 16.5t58.5 23.5t67.5 35q41 23 67 47t43.5 43t29 31t24.5 12z" />
<glyph unicode="i" horiz-adv-x="519" d="M266 1347q50 0 79.5 -26t29.5 -74q0 -32 -10.5 -53t-26 -34t-34.5 -18.5t-38 -5.5q-16 0 -33.5 5t-32.5 17t-25 32t-10 49q0 31 10.5 51.5t25.5 33t32.5 18t32.5 5.5zM386 1072q8 0 8 -19q0 -13 -3 -42t-7 -62q-7 -52 -13.5 -115.5t-13 -130t-12 -132t-9.5 -121.5 t-6.5 -98.5t-2.5 -62.5q0 -26 3 -43t8.5 -28t11.5 -17.5t13 -11.5t18 -9t23.5 -8t26 -6.5t23.5 -3.5q18 -3 29 -5t11 -11q0 -17 -36 -17q-25 0 -50.5 4t-52 9t-55 9t-61.5 4q-30 0 -54.5 -2t-44.5 -4.5t-37.5 -4t-35.5 -1.5q-14 0 -26 3.5t-12 15.5t13 16.5t27 7.5 q17 3 33 7t29 13t21.5 23.5t11.5 38.5q3 46 5 94t2.5 94.5t0.5 90.5v83v84.5t-1 65.5q-2 42 -10 66.5t-23 36.5t-37.5 15.5t-54.5 6.5q-9 1 -14.5 5.5t-5.5 13.5q0 16 25 18q13 1 32 3.5t45 6.5t56 12t64 22q37 15 61 30.5t39 27.5t23.5 20t14.5 8z" />
<glyph unicode="j" horiz-adv-x="631" d="M358 1103q21 0 39.5 -7t32.5 -20.5t21.5 -33.5t7.5 -44q0 -19 -6.5 -37.5t-20 -34t-32.5 -24.5t-46 -9q-19 0 -37 6.5t-32 19.5t-22 31.5t-8 42.5q0 29 9 50t23.5 34t33 19.5t37.5 6.5zM481 790q10 0 18 -7t15.5 -25t15 -49t15.5 -79q13 -70 22 -144t15.5 -149t10 -148 t3.5 -141q0 -171 -18.5 -305t-51 -235t-77.5 -172t-98.5 -115t-113.5 -64.5t-122 -20.5q-81 0 -138.5 26.5t-95.5 71t-55.5 101t-17.5 116.5q0 73 19.5 127.5t52 91.5t74 55.5t84.5 18.5q38 0 64.5 -11.5t43 -29.5t24 -40.5t7.5 -46.5q0 -32 -9 -54.5t-25.5 -38.5t-38 -25.5 t-45.5 -14.5q-40 -9 -69.5 -19.5t-49.5 -26.5t-30 -38t-10 -54q0 -34 15 -64t42.5 -53t65.5 -36.5t85 -13.5q94 0 158.5 47t105 130.5t58 199t17.5 251.5q0 133 -11.5 247.5t-28.5 207.5t-38 162.5t-41 111.5q-21 50 -56 89t-83 62q-34 17 -68 27.5t-57 17.5q-25 8 -25 19 q0 14 20 14q7 0 24 -2t40.5 -4.5t53.5 -4t62 -1.5q52 0 90.5 6t67 13t49 13t35.5 6z" />
<glyph unicode="k" horiz-adv-x="976" d="M296 -187q-43 0 -87.5 -3.5t-85.5 -8t-74.5 -8t-55.5 -3.5q-17 0 -23 6t-6 15q0 20 29 20q36 0 60.5 5.5t43.5 12.5q37 14 58 42t30.5 62t11 73t1.5 74q0 49 -0.5 107t-1.5 121l-2 126t-2 122.5t-2.5 111t-2.5 90.5q-1 49 -1.5 106t-2 116t-2.5 118t-3 110t-4.5 92 t-6.5 65q-5 35 -17.5 56t-29 32t-36 15t-39.5 4q-30 0 -62.5 -4.5t-59.5 -4.5q-22 0 -31.5 5.5t-9.5 16.5q0 10 7.5 16t17.5 9q43 9 80 18t68 19.5t58 23.5t54 29q30 19 50.5 39t35 36t25 26.5t19.5 10.5q12 0 16 -11.5t4 -22.5q0 -14 -1 -36t-2 -48t-1.5 -52.5t-0.5 -47.5 q0 -33 1 -90t3 -129t4.5 -153.5t5.5 -163t6 -158.5t6 -139.5t5.5 -105.5t4.5 -58q33 36 59 62t48 50t43.5 48.5t46.5 56.5q14 19 21 35t7 31q0 33 -36 52l-69 33q-17 9 -17 23q0 8 4 14.5t16 6.5q10 0 23 -6.5t33 -16t48.5 -20.5t69.5 -19q16 -3 38.5 -6t46 -5t45.5 -3 t37 -1q18 0 28 -4.5t10 -16.5q0 -9 -9 -15.5t-32 -6.5q-22 0 -43.5 -1.5t-42.5 -7t-42 -15.5t-43 -26q-13 -11 -31 -27t-36 -35t-35 -39t-29 -37q3 -19 12.5 -59.5t26.5 -91.5t41.5 -105t56.5 -98.5t72.5 -73.5t88.5 -29q44 0 71 32t27 85q0 22 -6 43.5t-15 41t-21.5 35.5 t-26.5 29q-10 10 -20.5 18t-10.5 13q0 7 9 7q10 0 28 -10.5t34 -24.5q16 -13 31.5 -32t28 -43.5t19.5 -54t7 -65.5q0 -26 -8 -61.5t-28.5 -68t-57.5 -55t-95 -22.5q-78 0 -139 36.5t-107.5 99.5t-80 147t-57.5 178l-34 -38q1 -41 4 -88.5t7.5 -96t8.5 -94.5t8 -85t7 -67 t6 -40q5 -28 13 -49.5t21.5 -36.5t34.5 -23t53 -8q14 0 30.5 0.5t31.5 0.5q11 0 22 -1t19 -4.5t13.5 -9.5t5.5 -16q0 -15 -15.5 -26.5t-61.5 -11.5q-23 0 -46.5 2.5t-53 5t-69.5 5t-96 2.5z" />
<glyph unicode="l" horiz-adv-x="609" d="M371 1571v-43.5t0.5 -82.5t1 -102.5t2.5 -105.5q1 -70 5.5 -162.5t9 -192t10 -200.5t11 -188.5t9.5 -155.5t7 -104q3 -49 13 -77.5t28 -45.5t45.5 -26t66.5 -19q14 -5 18 -10t4 -11q0 -8 -5.5 -13.5t-21.5 -5.5q-8 0 -31 1.5t-54 4t-67.5 4.5t-71.5 2q-28 0 -59 -2.5 t-60.5 -5t-55 -5t-42.5 -2.5q-11 0 -22.5 4t-11.5 19q0 23 33 23q22 0 49 2.5t45 9.5q14 5 22.5 14t13 20.5t6 23.5t1.5 25q0 15 -2 48t-5 77.5t-8 98.5t-10 110.5l-10 113t-10 107t-8.5 91.5t-6.5 67q-4 39 -8.5 80.5t-8.5 81.5t-9 77t-10 68q-5 29 -17.5 45.5t-36.5 16.5 q-19 0 -44.5 -9.5t-52 -20.5t-49.5 -20t-36 -9q-9 0 -16.5 4.5t-7.5 16.5q0 16 17 27q8 6 20.5 11.5t33 16t51 28.5t72.5 47q46 31 83 65.5t66 67t48.5 59.5t29.5 42q9 13 14 20.5t12 7.5t8.5 -9.5t1.5 -19.5z" />
<glyph unicode="m" horiz-adv-x="1218" d="M66 255q0 10 9.5 15.5t24 8.5t32.5 5t33 7q21 6 39 25t18 59q0 41 -4 86.5t-10 88.5t-14 80t-15 61q-9 29 -27 46.5t-57 17.5q-12 0 -22.5 -1t-17.5 -1q-16 0 -22.5 5.5t-6.5 14.5q0 12 10.5 16.5t30.5 8t48.5 10.5t66.5 23q36 15 59 29.5t36.5 26t21.5 18t13 6.5 q6 0 12.5 -23t11.5 -57.5t9 -75.5t8 -77q7 15 23 40t41.5 48.5t59.5 40.5t77 17q37 0 66 -12t49.5 -31t33 -43.5t18.5 -47.5q16 28 37 53.5t47 43.5t57.5 28.5t68.5 10.5q53 0 87.5 -19.5t54.5 -51.5t27.5 -72t7.5 -82q0 -35 -3 -71.5t-6 -71.5t-6 -67.5t-3 -58.5t4.5 -49.5 t13.5 -43.5q10 -22 24.5 -34.5t27.5 -20.5t22.5 -15t9.5 -18q0 -7 -6.5 -12t-18.5 -5q-15 0 -38 11.5t-48 27.5t-51 32.5t-48 26.5q-34 17 -62.5 25.5t-48.5 15t-31 12t-11 16.5q0 9 7.5 13.5t21.5 8.5q19 5 33.5 21t21.5 42q4 12 8.5 31.5t7.5 41.5t5 46t2 47 q0 24 -2.5 54.5t-12.5 57t-28.5 44.5t-51.5 18q-22 0 -38.5 -7.5t-28 -19t-19.5 -24.5t-13 -25q-16 -36 -23 -88t-7 -103q0 -49 17 -79t45 -43q7 -3 13 -7.5t6 -11.5q0 -17 -26 -17q-15 0 -36 4.5t-46.5 10t-53 10t-55.5 4.5q-21 0 -35.5 -1.5t-38.5 -1.5q-21 0 -32.5 3.5 t-11.5 12.5q0 5 4 7.5t11 3.5t16 3t18 6q19 7 30.5 25.5t18 44.5t8.5 57.5t2 65.5q0 24 -2 54.5t-11.5 57.5t-28 45t-51.5 18q-19 0 -34.5 -8t-28.5 -21.5t-21.5 -30t-13.5 -33.5q-5 -16 -13 -62.5t-8 -122.5q0 -59 8.5 -103.5t34.5 -63.5q17 -13 36 -18t35.5 -8.5t27 -7 t10.5 -13.5q0 -6 -9 -11t-32 -5q-14 0 -36 3t-48 7t-52.5 7t-47.5 3q-23 0 -42.5 -1.5t-38.5 -3t-39.5 -3t-43.5 -1.5q-18 0 -28.5 2.5t-15.5 5.5t-6 6.5t-1 6.5z" />
<glyph unicode="n" horiz-adv-x="1006" d="M289 1082q7 0 13.5 -21.5t13.5 -56t13.5 -79.5t13.5 -91l30 -212q4 28 14.5 64t28 75t43 76t58.5 66t74.5 47.5t93.5 18.5q63 0 109 -24t76 -66.5t44.5 -101.5t14.5 -129q0 -63 -7 -126t-15 -124.5t-15 -118.5t-7 -107q0 -29 5 -51t15 -40q11 -18 28.5 -31t33 -24.5 t27 -22.5t11.5 -24q0 -8 -4.5 -13t-14.5 -5q-15 0 -33 11t-44.5 28.5t-63.5 37t-90 36.5q-39 13 -79 20.5t-93 10.5q-29 3 -29 17q0 16 19 16h33t42 1q34 3 56 21t33 67q3 19 6.5 49t6 64t4 69t1.5 67q0 29 -1 66.5t-5.5 77.5t-14 79t-28 69t-47 49t-69.5 19 q-36 0 -65 -17.5t-51.5 -49t-38.5 -74.5t-24 -94q-9 -52 -12 -107.5t-3 -109.5q0 -46 3 -88.5t9 -78.5t14.5 -63.5t19.5 -43.5q16 -22 34.5 -33t30.5 -15q17 -5 24 -8.5t7 -10.5q0 -5 -8 -9.5t-26 -4.5t-39 3t-43.5 6.5t-47 6.5t-47.5 3q-24 0 -48 -1.5t-46.5 -3.5t-41 -3.5 t-29.5 -1.5q-33 0 -33 21q0 7 5.5 12.5t20.5 7.5q11 1 20.5 1.5l19 1t20 1.5t24.5 3q27 4 37 19.5t10 42.5q0 46 -8 112.5t-21.5 146t-32.5 169t-40 183.5q-10 47 -23 70.5t-38 23.5q-12 0 -25.5 -4.5t-26.5 -10t-25 -10t-22 -4.5q-16 0 -16 13q0 11 9 16t19 9q24 9 51 23.5 t59 38.5q31 24 55.5 52t42 51.5t28.5 39t17 15.5z" />
<glyph unicode="o" horiz-adv-x="866" d="M36 516q0 94 29.5 170t83 129.5t129.5 82.5t169 29q83 0 153 -27.5t121.5 -79t80.5 -125t29 -165.5q0 -108 -36 -185.5t-91.5 -127t-124.5 -72.5t-135 -23q-80 0 -153.5 26.5t-130 77t-90.5 124t-34 166.5zM435 895q-48 0 -82.5 -24t-57.5 -65t-33.5 -95t-10.5 -114 q0 -49 6 -99.5t18 -97t30 -87.5t43.5 -71t57.5 -47.5t72 -17.5q51 0 86 23t56 60.5t30 84t9 93.5q0 116 -17 202t-47.5 142.5t-71 84.5t-88.5 28z" />
<glyph unicode="p" horiz-adv-x="876" d="M361 877q0 -12 -0.5 -38t-0.5 -61v-32v-23t0.5 -25t0.5 -39q27 37 62 66q15 13 33.5 24.5t41 21t47.5 15t52 5.5q61 0 108 -21.5t79 -61t49 -93.5t17 -119q0 -99 -26 -177t-70.5 -133t-104 -84.5t-127.5 -29.5q-25 0 -46.5 4.5t-40 11t-34 14.5t-26.5 15 q-1 -35 -1.5 -61.5t-0.5 -51.5v-52v-62q0 -57 1 -126t6 -135t13.5 -120.5t23.5 -81.5q14 -26 35 -41t42 -24q26 -12 45.5 -24t19.5 -24q0 -10 -5.5 -15.5t-20.5 -5.5q-22 0 -63 7t-88.5 15.5t-94.5 15.5t-82 7q-38 0 -63 -3t-53 -3q-37 0 -50 4.5t-13 11.5q0 8 8.5 10.5 t22.5 5t32 8t37 17.5q20 15 32.5 36t19 47.5t9 54.5t4.5 55q1 21 3 64t3.5 100.5t3.5 125.5t4 140.5t3.5 144t2.5 136.5t1.5 119t0.5 90q0 54 -3 89t-9.5 55.5t-17.5 28.5t-27 8q-12 0 -26 -5t-28 -10.5t-25.5 -10.5t-19.5 -5q-14 0 -14 14q0 5 5 12t26 17q13 7 31.5 15 t40 18.5t44.5 25.5t46 36q30 27 49 49t31 36.5t19.5 22.5t13.5 8q8 0 10 -8.5t2 -20.5zM516 709q-36 0 -62.5 -17t-45 -44.5t-30 -63t-18 -72.5t-9 -73t-2.5 -64q0 -45 6.5 -90t23 -80.5t45 -58.5t72.5 -23q34 0 65.5 18t55.5 57t38 102.5t14 153.5q0 56 -8 102.5 t-26.5 80.5t-48 53t-70.5 19z" />
<glyph unicode="q" horiz-adv-x="870" d="M327 852q48 0 86 -9t66 -21.5t46 -25t27 -20.5q2 12 2 26t1.5 27.5t4 24.5t8.5 16q5 5 14.5 7t21.5 2q15 0 34.5 -2t42.5 -2q50 0 87.5 5.5t57.5 5.5q19 0 19 -9q0 -10 -24.5 -17t-56.5 -17q-20 -5 -31.5 -15.5t-19 -26.5t-10 -37t-2.5 -48q-1 -5 -1 -33.5t-0.5 -75.5 t-0.5 -108t-0.5 -131.5t-0.5 -147v-154.5v-153v-143v-105t0.5 -87.5t1 -65t1.5 -39.5q0 -29 8.5 -57t37.5 -49q26 -20 55 -31.5t48 -18.5q10 -4 16 -8t6 -13q0 -7 -5 -12.5t-15 -5.5q-27 0 -63.5 10.5t-76 24.5t-78 28t-70.5 21q-23 5 -51.5 9.5t-58 8t-56.5 5t-47 1.5 q-32 0 -41 5.5t-9 12.5q0 21 38 21h25h32.5t32.5 -0.5t25 -0.5q23 0 37 8t21 22t9.5 33.5t3.5 42.5t2 71.5t3 111.5t3 135.5t2.5 144.5t2 137.5t0.5 113.5v59t-1 32q-20 -17 -46 -31.5t-57 -24.5t-63.5 -15.5t-63.5 -5.5q-26 0 -56 5t-61.5 17.5t-61 34t-52 54t-36.5 77.5 t-14 104q0 69 23 125t64 95t96 60.5t118 21.5zM404 783q-39 0 -73 -13.5t-58.5 -40.5t-38.5 -68t-14 -97q0 -72 17.5 -118.5t46 -73.5t63 -38t68.5 -11q25 0 48 8t41 22t28.5 35.5t12.5 48.5q1 16 2.5 38t1.5 46.5t0.5 49.5t0.5 46v41t-1 25q-3 18 -14.5 35.5t-30 31.5 t-44 23.5t-56.5 9.5z" />
<glyph unicode="r" horiz-adv-x="712" d="M320 1072q0 -10 -1 -28t-1 -38q0 -24 3 -51.5t7.5 -50.5t9.5 -38.5t8 -15.5t9.5 24.5t18.5 61.5t31.5 79.5t50 79t72.5 61t100 24.5q54 0 90.5 -18.5t58.5 -46t31 -60t9 -60.5q0 -45 -11.5 -78t-31.5 -55t-45 -33.5t-51 -11.5q-48 0 -78 23t-30 66q0 24 6 40.5t16.5 28.5 t25.5 20t32 13q36 11 49 27t13 37q0 12 -4.5 24t-15 21.5t-27 15.5t-39.5 6q-48 0 -84 -22t-63 -59.5t-44.5 -86.5t-28.5 -102t-15.5 -107.5t-4.5 -101.5q0 -43 3 -93t8.5 -100t12.5 -98t13 -87.5t11 -68t8 -39.5q9 -38 29 -52.5t52 -14.5q15 0 30.5 0.5t22.5 0.5 q23 0 23 -16q0 -14 -13 -18q-10 -4 -35.5 -5t-59.5 -2t-73.5 -2.5t-76.5 -5.5q-41 -5 -79.5 -14t-71.5 -17t-58 -14t-40 -6q-16 0 -22 7t-6 14q0 13 10.5 18.5t28.5 11.5q15 4 34.5 8.5t46.5 16.5t37.5 31.5t10.5 60.5q0 12 -2 42t-4.5 71t-6.5 90t-8 101t-9 103t-9 96 t-8 80.5t-6 56.5q-3 25 -10 39.5t-16 22t-21.5 10t-26.5 2.5h-34h-11t-12 2.5t-10 6.5t-4 11q0 9 8 13t18 6q42 5 76.5 14.5t66.5 33.5q20 16 42.5 42.5t36.5 55.5q10 21 22 21q11 0 13.5 -8.5t2.5 -15.5z" />
<glyph unicode="s" horiz-adv-x="830" d="M502 1077q35 0 59 -3.5t41 -8t29.5 -8t25.5 -3.5q14 0 22 15t16 37q11 30 26 30q13 0 17 -8.5t4 -16.5q0 -10 -2 -20.5t-6.5 -27t-10 -42t-11.5 -63.5q-5 -31 -8 -53.5t-4 -40t-2.5 -32t-4.5 -29.5q-5 -32 -22 -32q-11 0 -14 10.5t-3 23.5v65q0 50 -11.5 83.5t-31.5 53.5 t-47 28.5t-58 8.5q-28 0 -53.5 -9t-45 -27t-31 -44.5t-11.5 -58.5q0 -43 20 -83.5t52.5 -79t74.5 -77.5t86 -80.5t85.5 -86t74 -94.5t53 -106t20.5 -121q0 -86 -27 -153t-72.5 -112.5t-106 -69t-128.5 -23.5q-47 0 -87.5 10.5t-74.5 26t-61 36.5t-46 41q-34 38 -58.5 58.5 t-52.5 20.5q-15 0 -33 -11t-35 -23.5t-32 -23.5t-25 -11t-14 5.5t-4 10.5q0 10 13 22q5 5 19.5 18.5t36.5 35t49 53.5t58 74q28 40 46.5 74.5t32 60.5t24 41t23.5 15q12 0 16 -7.5t4 -17.5q0 -12 -9.5 -32t-20 -49t-19.5 -66.5t-9 -85.5q0 -28 11 -65t35 -69.5t64 -55.5 t97 -23q46 0 82.5 16.5t62.5 47t39.5 73t13.5 94.5q0 67 -31 128.5t-78 121t-101.5 116.5t-101.5 113.5t-78 114t-31 115.5q0 66 24 114t64 79.5t90 46.5t102 15z" />
<glyph unicode="t" horiz-adv-x="746" d="M38 910q19 6 50.5 12.5t61.5 13.5q59 14 98.5 38.5t67 60t46.5 82t39 106.5q16 52 33.5 73.5t38.5 21.5q19 0 26.5 -14.5t7.5 -37.5t-7.5 -58.5t-17 -75t-17 -78t-7.5 -66.5q0 -14 5.5 -24.5t22.5 -10.5q10 0 24 2t30 3.5t33.5 3t32.5 1.5q36 0 36 -22q0 -12 -9.5 -17 t-25.5 -5q-11 0 -28 -1t-36.5 -4t-38.5 -8t-36 -13q-24 -12 -38.5 -29.5t-23.5 -36.5q-15 -29 -30.5 -80t-29 -114t-22.5 -131.5t-9 -131.5q0 -90 15 -154.5t42 -106.5t64 -61.5t80 -19.5q33 0 56.5 9.5t39 25t22 34.5t6.5 37q0 23 -12 38.5t-27.5 30t-27.5 31t-12 43.5 q0 34 21.5 56.5t59.5 22.5q17 0 32.5 -6t27.5 -19t19.5 -34t7.5 -49q0 -50 -15 -99t-48 -88t-85 -64t-127 -25q-84 0 -151 35t-107 95q-36 55 -53 125t-17 143q0 84 12.5 162.5t27.5 142.5t28 110.5t13 67.5q0 16 -8.5 19t-22.5 3q-9 0 -23.5 -0.5t-32.5 -1.5t-37 -2t-37 -1 q-31 0 -31 18q0 14 23 22z" />
<glyph unicode="u" horiz-adv-x="1280" d="M346 934q5 0 9.5 -7.5t9.5 -38.5q11 -71 19.5 -128t17.5 -105q21 -110 40.5 -196.5t46.5 -146t66 -90.5t99 -31q42 0 74 19.5t54.5 53t36.5 76t22 88.5t11 91.5t3 84.5q0 36 -1.5 71.5t-11.5 63.5t-31.5 45t-62.5 17q-24 0 -49 -4t-49 -4q-12 0 -20 5t-8 16 q0 13 9.5 17.5t23.5 5.5q15 1 35.5 3t44.5 5.5t50.5 10t55.5 18.5q23 10 44.5 23.5t39 25.5t30.5 20.5t20 8.5q9 0 12 -15t6 -41q3 -35 7 -92t9.5 -126t12.5 -144t17 -148q5 -39 14.5 -63t22 -37.5t28 -18t33.5 -4.5q38 0 69.5 6.5t47.5 6.5t21 -6t5 -14q0 -7 -5 -14.5 t-21 -11.5q-23 -5 -64.5 -9.5t-97.5 -12.5q-45 -6 -77.5 -14t-51.5 -8q-18 0 -27.5 8t-14.5 33q-5 24 -10 53t-10 58.5t-9.5 59t-8.5 55.5q-7 -46 -17 -94.5t-26.5 -95t-39.5 -88t-56 -73t-76 -50t-98 -18.5q-91 0 -155.5 48.5t-97.5 137.5q-20 49 -31.5 103.5t-19 106.5 t-12.5 97t-10 75q-5 31 -13 52t-18 32.5t-22 16t-26 4.5q-13 0 -28.5 -3.5t-31 -8.5t-30 -8.5t-25.5 -3.5q-8 0 -16 4.5t-8 18.5q0 15 13.5 20.5t34.5 11.5q26 8 61.5 23t76.5 42q33 23 55.5 46t37 42t24.5 31t17 12z" />
<glyph unicode="v" horiz-adv-x="1032" d="M478 993q0 -9 -7 -15t-20 -16q-16 -12 -28 -26.5t-12 -39.5q0 -22 8.5 -60.5t24 -86.5t34.5 -102t39.5 -108t40.5 -105t37 -91.5t28.5 -68t14.5 -35.5q12 -27 24 -27q7 0 11 5.5t7 12.5q2 7 11 36.5t20.5 71.5t25 91.5t24.5 96.5t18 86.5t7 62.5q0 13 -3 22t-8.5 14.5 t-12 8t-14.5 4.5q-10 3 -26 4t-31.5 3.5t-26 7t-10.5 14.5q0 12 11.5 15t24.5 3t46.5 -3.5t90.5 -3.5q17 0 40 2.5t46 6.5t43.5 7t33.5 3q12 0 22 -2.5t10 -11.5q0 -7 -7.5 -11.5t-19 -8.5t-26.5 -6.5t-30 -5.5q-18 -5 -31 -12t-21 -16t-14 -20t-11 -23q-12 -30 -22.5 -61.5 t-23 -72t-28.5 -92t-38 -122.5q-5 -15 -15 -47t-23.5 -72.5t-28 -83.5t-29 -78.5t-26 -58.5t-19.5 -23t-26.5 29t-43.5 76.5t-55 109.5t-61.5 130t-63 137t-58.5 129.5t-49.5 108.5t-34.5 75q-10 22 -21 35.5t-22.5 21t-23 10t-22.5 2.5q-13 0 -27 -4t-27.5 -9.5t-25.5 -10 t-20 -4.5q-7 0 -13.5 4.5t-6.5 13.5q0 11 13 17t39.5 15.5t60.5 21t71 25.5t71 29q41 19 71.5 35.5t54 29.5t40.5 20.5t30 7.5q11 0 15 -5t4 -12z" />
<glyph unicode="w" horiz-adv-x="1281" d="M465 832q0 -6 -7.5 -12.5t-17 -12.5t-20 -12t-18.5 -12q-14 -14 -18.5 -29.5t-4.5 -32.5q0 -20 8.5 -61t22 -91t29 -103t29.5 -96.5t25 -71.5t14 -28q5 0 16.5 26.5t28.5 67.5t36.5 92.5t39.5 103t38.5 96.5t31.5 75q6 12 12 19t12 7q8 0 14 -7t12 -19q15 -27 34.5 -65.5 t41.5 -80.5t44 -83.5t40.5 -74.5t31.5 -53.5t17 -20.5q3 0 12 25.5t19 65t21.5 87.5t20.5 91.5t15 77.5t6 47q0 15 -5.5 22t-19.5 7q-12 0 -28 -2.5t-33 -2.5q-10 0 -14.5 4.5t-4.5 9.5q0 6 3.5 9.5t8.5 5.5q15 4 51.5 5t93.5 12q60 10 97.5 23t58.5 13q19 0 19 -14 q0 -12 -14 -17q-12 -5 -32 -10.5t-43 -13.5q-18 -6 -30 -13.5t-21 -18t-15.5 -25.5t-12.5 -35q-6 -19 -15.5 -54t-21 -80.5t-26 -97t-29 -103.5t-29.5 -99.5t-30 -83.5t-28 -58t-23 -22q-11 0 -27.5 17.5t-36.5 45t-42 63.5t-43 73q-51 87 -107 199q-2 -6 -10.5 -30t-21 -57 t-26.5 -71.5t-27 -73t-23.5 -61.5t-15.5 -37q-13 -36 -28.5 -73t-30.5 -68.5t-28 -52t-21 -20.5t-22.5 24.5t-32 65t-37.5 93t-40 109t-39.5 112.5t-35.5 103.5t-28 83t-18 49.5q-11 26 -27 35.5t-35 9.5q-21 0 -40 -5t-34 -5q-7 0 -15 4t-8 14q0 14 11 20t29 11 q15 4 39 9.5t52.5 13.5t59 18.5t57.5 22.5q43 19 75 37t54.5 31.5t38 21.5t25.5 8q7 0 11.5 -3.5t4.5 -12.5z" />
<glyph unicode="x" horiz-adv-x="944" d="M12 958q12 0 26.5 -0.5t33.5 -0.5q32 0 81 2t119 16q62 13 109 27.5t81 28t57.5 22.5t38.5 9q10 0 13.5 -4t3.5 -9q0 -9 -10.5 -13t-22.5 -7q-16 -5 -32.5 -11.5t-30 -17t-22 -27.5t-8.5 -42q0 -38 10.5 -76.5t20.5 -66.5q5 -15 16 -44t24 -58t23.5 -50.5t14.5 -21.5 q1 0 9.5 9.5t20 24.5t25 32t25 32.5t20 27t10.5 13.5q5 10 11.5 22t6.5 25q0 11 -6.5 21.5t-25.5 17.5q-17 6 -32.5 8t-27.5 5q-23 5 -23 22q0 9 5.5 13t13.5 4q11 0 29.5 -3t41 -6t48.5 -7t53 -5q21 -1 38 -1h32q41 0 65.5 2.5t44.5 2.5q12 0 20 -4t8 -13q0 -22 -43 -25 q-29 -1 -51.5 -3.5t-41.5 -7.5q-26 -8 -56 -27.5t-64 -61.5q-39 -48 -67.5 -85.5t-40.5 -58.5q-7 -12 -10.5 -23t-3.5 -25q0 -9 2 -20t5 -23q4 -16 12 -39t17.5 -49t20 -52.5t20 -48.5t16 -39t10.5 -23q11 -22 25 -35.5t31.5 -22.5t36.5 -13t39 -8q46 -7 63.5 -11.5 t17.5 -16.5q0 -13 -19 -17.5t-53 -4.5q-15 0 -34.5 0.5t-42.5 0.5q-25 0 -53 -1.5t-59 -6.5q-32 -5 -64.5 -16.5t-61.5 -22.5t-52 -19.5t-37 -8.5q-17 0 -23.5 8.5t-6.5 15.5q0 14 9.5 21.5t21.5 11.5q15 4 34.5 8.5t37.5 11t31 14.5t13 19q0 13 -9.5 37.5t-21 49.5 t-23 45.5t-15.5 26.5q-8 15 -24 15q-5 0 -11.5 -2.5t-12.5 -9.5q-6 -6 -18 -21t-25 -32t-24 -31.5t-16 -20.5q-1 -3 -4.5 -7.5t-7 -10t-5.5 -10t-2 -6.5q0 -5 5 -6.5t12 -3t13.5 -1.5t10.5 -1q11 -2 18 -4.5t7 -9.5t-7 -10.5t-16 -3.5q-20 0 -39.5 1.5t-46.5 1.5 q-21 0 -47.5 -3t-52.5 -7t-47.5 -7.5t-31.5 -3.5q-9 0 -14 5t-5 11q0 16 23 19q12 1 30 4t37.5 8.5t38 12.5t31.5 16q21 14 42.5 33t41.5 40t37.5 43t30 41t20 35.5t7.5 26.5t-1 15.5t-5 15.5q-8 17 -21.5 45t-30 62t-34.5 70t-34 68.5t-30.5 60t-23.5 43.5q-8 13 -18.5 27 t-24 28.5t-29 27.5t-32.5 22q-28 16 -60 20t-63 4q-29 0 -29 19q0 7 4 12t16 5z" />
<glyph unicode="y" horiz-adv-x="1134" d="M497 922q7 0 12 -3t5 -13q0 -11 -12 -20q-10 -8 -31.5 -20.5t-57.5 -39.5q-22 -16 -34 -35.5t-18 -42t-7 -50t-1 -58.5q1 -63 8.5 -123.5t19 -113t26 -95t28.5 -70.5q30 -61 73.5 -97t105.5 -36q44 0 76 21t55 55t37 77.5t22.5 88t11.5 86.5t3 73q0 83 -13.5 126.5 t-40.5 60.5q-11 8 -25 13t-28.5 8.5t-27 6.5t-20.5 5q-18 4 -25 10.5t-7 18.5t8 19t20 7q25 0 66 -4t96 -4q31 0 67.5 3.5t71 9t63 12t43.5 11.5q12 4 19.5 5.5t11.5 1.5q10 0 16.5 -5t6.5 -15q0 -9 -3.5 -14.5t-11.5 -10.5q-19 -13 -37.5 -24.5t-27.5 -32.5q-8 -18 -12 -43 t-7 -61.5t-6 -87t-8 -120.5q-6 -76 -16 -163.5t-26.5 -182t-41 -195t-57.5 -204.5q-35 -104 -80 -186.5t-101.5 -140.5t-122 -89t-138.5 -31q-52 0 -95 16t-73.5 45t-47.5 69.5t-17 89.5q0 53 15.5 97.5t43 76.5t65 50t81.5 18q36 0 63.5 -12t46 -31.5t27.5 -44t9 -50.5 q0 -23 -7 -42.5t-20.5 -34.5t-33 -23.5t-44.5 -8.5q-28 0 -46 9.5t-30 23t-19.5 30t-14 29.5t-14 22.5t-20.5 9.5t-24 -10t-19 -26.5t-12.5 -37t-4.5 -41.5q0 -40 14.5 -74t40 -57.5t61 -36.5t77.5 -13q70 0 123.5 32t93 81t67 107t44 111t24.5 93t11 53q23 148 30 256.5 t7 171.5v36.5t-1 26.5q-1 13 -2 22q-6 -18 -14 -37q-7 -17 -16 -37.5t-21 -40.5q-15 -26 -38.5 -51t-54 -44.5t-68 -32t-80.5 -12.5q-75 0 -129.5 31t-94 83.5t-66 120t-44.5 140.5t-31 146t-26 136q-5 26 -15 34.5t-24 8.5q-16 0 -33 -3.5t-26 -3.5q-8 0 -12.5 4.5 t-4.5 10.5q0 15 17 20q38 10 67.5 19t54.5 18.5t47 19t44 20.5q52 25 91 48.5t67.5 41t48 28.5t34.5 11z" />
<glyph unicode="z" horiz-adv-x="792" d="M95 967q18 0 45.5 -6t64.5 -14.5t82.5 -16.5t98.5 -11q52 -4 90 -6t67 -2q30 0 55 1t54 1q22 0 30 -7.5t8 -19.5q0 -9 -4 -19t-6 -17q-2 -3 -17 -34t-38 -80t-52 -110.5t-59.5 -126.5t-60 -127.5t-53 -113.5t-39.5 -85t-18 -40q-2 -4 -3 -9t-1 -7q0 -12 11.5 -13.5 t24.5 -1.5q25 0 62.5 3t77 8t74.5 11t56 14q29 10 47.5 27t30.5 37.5t18.5 42t10.5 42.5q2 11 4.5 25.5t6 27t8 21.5t10.5 9q9 0 10.5 -19.5t1.5 -42.5q0 -11 -0.5 -36t-1 -52.5t-1.5 -54t-2 -39.5q-3 -35 -11 -53t-32 -18q-45 0 -102 2.5t-116 2.5h-68.5t-76.5 -3 q-67 -4 -116 -10.5t-85.5 -12.5t-62.5 -10.5t-47 -4.5q-19 0 -26 5.5t-7 14.5q0 15 13 37q93 149 166.5 271.5t129 220.5t94 172.5t61.5 126.5q-21 3 -45.5 6t-51 5t-53 3.5t-50.5 1.5q-21 0 -39.5 -1.5t-32.5 -4.5q-28 -5 -49.5 -22.5t-38 -45t-29.5 -65.5t-24 -85 q-4 -21 -8.5 -41t-9 -37t-10.5 -27.5t-13 -10.5q-5 0 -9.5 6.5t-4.5 23.5q0 6 1.5 27.5t3.5 48t4 54.5t3 45l9 171q2 29 11.5 38.5t28.5 9.5z" />
<glyph unicode="{" horiz-adv-x="792" d="M568 1643q48 0 84.5 -11.5t61 -27.5t37.5 -32.5t13 -26.5q0 -12 -12 -12q-13 0 -27 10t-33 22t-45.5 22t-63.5 10q-65 0 -94.5 -43.5t-29.5 -122.5q0 -54 13 -115t28 -125t27.5 -128.5t12.5 -125.5q0 -66 -21 -121q-18 -50 -50 -85t-69 -58.5t-74.5 -37t-67.5 -22 t-49.5 -12.5t-19.5 -7q0 -5 17 -13t43 -20.5t57 -31t60 -43.5q46 -41 73.5 -91.5t42.5 -107t20 -118t5 -121.5q0 -34 -0.5 -67t-0.5 -65q0 -67 4.5 -128t18 -107t38 -73.5t65.5 -27.5q32 0 51.5 13.5t31.5 34t17 44.5t7.5 44.5t4.5 34t8 13.5q12 0 16.5 -20t4.5 -52 q0 -60 -14 -102.5t-39.5 -69.5t-61.5 -40t-80 -13q-72 0 -122.5 21.5t-82.5 64t-46.5 103.5t-14.5 139q0 50 3 111t6.5 120.5t7 111.5t3.5 85q0 38 -5 76t-18 73.5t-36.5 68t-60.5 60.5q-37 27 -72 43t-62.5 26.5t-44 18.5t-16.5 20q0 8 9.5 14t23.5 10.5t30.5 8t29.5 6.5 q51 13 93.5 35.5t72.5 56.5t46.5 81t16.5 108q0 40 -5.5 84.5t-12 91.5t-12 95.5t-5.5 98.5q0 60 14 122t45 111t81.5 80t123.5 31z" />
<glyph unicode="|" horiz-adv-x="633" d="M291 1500q6 0 11.5 -3t9.5 -12t6 -24t2 -40q0 -14 0.5 -53t1.5 -96t3 -128.5t4 -149.5t4 -159t6 -157q1 -41 3.5 -103.5t5 -134t5 -147t5 -144t5 -123.5t3.5 -86q1 -22 2.5 -47.5t3 -50.5t2.5 -48.5t1 -42.5q0 -43 -6 -63t-18 -20q-6 0 -11 4.5t-9 17.5t-7.5 37.5 t-5.5 65.5l-37 880q-1 23 -2.5 66t-3 97t-3.5 116t-4 123.5t-3.5 119.5t-2.5 104t-1.5 76t-0.5 37q0 47 7 67.5t24 20.5z" />
<glyph unicode="}" horiz-adv-x="819" d="M36 1147q-10 0 -14.5 7t-4.5 18q0 25 17 62t51 71.5t83.5 59t115.5 24.5q79 0 135 -24t90.5 -68t50.5 -104t16 -133q0 -23 -0.5 -51.5t-1.5 -57.5t-2 -55.5t-1 -47.5q0 -35 4.5 -65t16 -52.5t34 -35t57.5 -12.5q26 0 51.5 3.5t41.5 3.5q12 0 18.5 -3t6.5 -11t-9 -15 t-23 -16t-30.5 -20.5t-30 -28.5t-23 -41.5t-9.5 -58.5q0 -51 17 -111.5t37.5 -127.5t37.5 -141t17 -150q0 -89 -33 -163.5t-89.5 -128t-132 -83t-160.5 -29.5q-22 0 -31 6.5t-9 16.5q0 13 14.5 18.5t32.5 7.5q15 2 40 7t52 13t53.5 20t45.5 29q20 18 31.5 38.5t17 44t7.5 49 t2 54.5q0 68 -15 142t-33.5 146t-34 138t-15.5 119q0 54 20.5 91.5t45 62.5t45 38.5t20.5 17.5q0 2 -12 4t-31.5 5t-44.5 9.5t-51 19t-51 32t-46 49.5q-31 45 -44.5 102.5t-21 118t-13 118.5t-18.5 102.5t-38 72.5t-73 28q-29 0 -50 -10t-37 -25t-28.5 -32.5t-23 -32 t-20 -25t-20.5 -10.5z" />
<glyph unicode="~" horiz-adv-x="1262" d="M402 550q45 0 84.5 -8.5t76.5 -21.5t73 -29t74.5 -29t81 -21.5t93.5 -8.5q36 0 69 13.5t60.5 34.5t50.5 45t41 45t31.5 35t21.5 14q18 0 18 -23q0 -13 -8 -40.5t-25.5 -62t-44.5 -71t-65 -67t-87 -50t-111 -19.5q-49 0 -95.5 11.5t-91.5 29t-88 38.5t-84.5 39t-81 29.5 t-77.5 11.5q-30 0 -56 -10.5t-48.5 -26t-41 -34t-33.5 -34t-26 -26t-18 -10.5q-3 0 -6 2t-3 9q0 13 15.5 39.5t54.5 73.5q21 26 47 48t56.5 38.5t66 26t76.5 9.5z" />
<glyph unicode="&#xa1;" horiz-adv-x="425" d="M200 1192q13 0 22 -11.5t15.5 -36t13 -62.5t14.5 -91q5 -35 12.5 -98.5t15.5 -144t16 -172t14 -183t10 -178t4 -155.5q0 -53 -5.5 -100t-20 -82.5t-39 -55.5t-64.5 -20q-24 0 -44.5 11t-35.5 34t-23 59t-8 87q0 79 11 188.5t25 238t25.5 270.5t12.5 285q0 61 0.5 102 t4 66.5t9 37t15.5 11.5zM198 1635q24 0 44.5 -7.5t35.5 -22t23.5 -34.5t8.5 -45q0 -55 -32 -88t-84 -33q-18 0 -36.5 6t-34.5 19t-26.5 35.5t-10.5 54.5q0 31 10 52t26 35t36 21t40 7z" />
<glyph unicode="&#xa2;" horiz-adv-x="1375" d="M549 1132q10 0 15 -11.5t9 -25.5q2 -8 6 -25t9.5 -41t12 -53.5t13.5 -62.5q31 11 63 17t66 6q89 0 152 -28.5t102.5 -73t57 -96.5t17.5 -100q0 -81 -36 -121.5t-88 -40.5q-26 0 -45 9t-32 23t-19.5 32.5t-6.5 37.5q0 35 11.5 60.5t25 46.5t24.5 40t11 42q0 28 -11 52 t-33 42t-54 28.5t-72 10.5q-36 0 -65.5 -10t-55.5 -26l195 -805q56 6 96 30.5t66 54t40 57t19 40.5q5 12 11 24t17 12q7 0 11 -6t4 -20q0 -12 -5.5 -33.5t-18 -49t-31.5 -57.5t-45 -58.5t-60.5 -53.5t-76.5 -40q14 -47 30 -95.5t29.5 -91t22.5 -73.5t9 -43q0 -7 -3 -15.5 t-15 -8.5q-11 0 -20.5 9.5t-18 26t-16.5 39t-16 47.5q-16 47 -29.5 97.5t-24.5 91.5q-16 -3 -34.5 -5t-37.5 -2q-106 0 -188.5 35.5t-139.5 97t-86 144.5t-29 178q0 86 21.5 165.5t60.5 145.5t93 116.5t119 79.5q-19 74 -29.5 130t-10.5 80t14 24zM471 478q0 -87 18.5 -163 t55.5 -132t92.5 -89.5t129.5 -36.5l-171 780q-33 -30 -56.5 -70.5t-38.5 -87t-22.5 -98.5t-7.5 -103z" />
<glyph unicode="&#xa3;" horiz-adv-x="1375" d="M865 717q11 0 16 -4t5 -11q0 -9 -8.5 -14.5t-19.5 -9.5q-10 -3 -26.5 -8t-37.5 -10.5t-44 -12t-46 -12.5l-19 -5q21 -46 40 -92t34 -93.5t24.5 -97t9.5 -103.5q0 -65 -12 -119.5t-34 -100.5l68 -32t68 -29.5t68.5 -21.5t70.5 -8q25 0 48 7t41 21.5t29 36.5t11 52 q0 35 -12 59t-25.5 40t-25 26t-11.5 17q0 13 12 13t30.5 -12t35.5 -33t28.5 -50.5t11.5 -64.5q0 -39 -11.5 -77t-37 -68t-65 -48.5t-95.5 -18.5q-44 0 -82.5 10.5t-72.5 28t-64.5 40t-57.5 45.5q-29 -40 -65 -70.5t-74 -51t-77 -30.5t-75 -10q-30 0 -57.5 9t-48 25.5 t-32.5 42t-12 57.5q0 26 11.5 55.5t37.5 54.5t68.5 41.5t103.5 16.5q33 0 65 -6t63 -15v8q0 62 -16 121.5t-42 119t-56 120t-58 123.5q-22 -7 -48.5 -14.5t-52.5 -14t-48 -10.5t-35 -4q-12 0 -18.5 6.5t-6.5 15.5q0 12 6.5 18.5t18.5 9.5l164 41q-26 66 -43 135t-17 147 q0 121 36 210.5t93 148t129 87.5t142 29q64 0 118 -20.5t93.5 -58t61.5 -91t22 -121.5q0 -56 -15 -98t-39.5 -70t-54.5 -42t-61 -14q-25 0 -48.5 8t-41.5 24.5t-29 41.5t-11 58q0 31 10 56t24.5 46t31.5 39t31.5 36t24 37.5t9.5 42.5q0 16 -6.5 33.5t-21.5 31.5t-39 24 t-59 10q-49 0 -89.5 -16t-69 -47t-44 -75.5t-15.5 -102.5q0 -63 10 -120.5t27 -110.5t38 -103t44 -98q33 7 65 15t59 14.5t47 10.5t28 4zM420 -165q34 0 65 10.5t57 33t44.5 57t25.5 81.5q-33 17 -71 27.5t-82 10.5q-32 0 -58 -9.5t-44 -26t-28.5 -38t-10.5 -45.5 q0 -47 28.5 -74t73.5 -27z" />
<glyph unicode="&#xa4;" horiz-adv-x="1260" d="M869 1251q9 0 13 -5.5t4 -14.5q0 -16 -11 -42t-24.5 -52.5t-25 -49.5t-11.5 -33t13 -22.5t32.5 -29.5t43 -40t43 -54.5t32.5 -72.5t13 -95q0 -50 -10 -91t-25 -74t-32.5 -58.5t-33 -44t-25.5 -29t-10 -15.5q0 -4 16 -19t38.5 -34.5t46.5 -39.5t40 -33q26 -21 54.5 -43 t52 -42t38.5 -36.5t15 -25.5q0 -5 -3 -10.5t-12 -5.5q-13 0 -33.5 10.5t-42.5 24t-42.5 28t-32.5 23.5q-11 8 -31 23t-46.5 36t-57.5 46t-62 52q-20 -12 -45.5 -26.5t-61.5 -26.5t-85.5 -20t-117.5 -8q-20 0 -36.5 0.5t-28.5 0.5q-22 0 -31 -6q-9 -8 -20.5 -29t-24.5 -48.5 t-28 -57.5t-30.5 -55t-32.5 -41.5t-34 -16.5q-12 0 -21 8.5t-9 27.5q0 21 6.5 44.5t15.5 47t20 46.5t20.5 43.5t15.5 36.5t7 25q0 6 -9.5 17.5t-25 29t-33.5 41.5t-33.5 56t-26 72.5t-10.5 89.5q0 62 13.5 109.5t30 82.5t30.5 59t14 38q0 15 -18.5 36t-41 44.5t-41 45.5 t-18.5 39q0 8 4.5 13.5t14.5 5.5q16 0 40 -18t49 -39.5t48 -39.5t37 -18q12 0 35 12.5t59 27.5t86 27t116 12q25 0 51 -1.5t42 -1.5t31.5 13.5t31 34t30.5 44.5t29.5 44.5t30 34t31.5 13.5zM556 1003q-82 0 -145.5 -28.5t-106.5 -78.5t-65 -117t-22 -142q0 -73 24.5 -125.5 t66.5 -86.5t98 -50.5t119 -16.5q71 0 141 20t126 65t91.5 116t35.5 172q0 63 -23 113.5t-68.5 85.5t-113.5 54t-158 19z" />
<glyph unicode="&#xa5;" horiz-adv-x="1375" d="M680 1558q21 0 21 -18q0 -10 -10.5 -21t-26 -24t-32.5 -27.5t-30 -29.5q-11 -13 -16 -27t-5 -29q0 -23 14.5 -64t37 -90t49.5 -101.5t52 -98t45 -78.5t28 -44q12 -16 20 -16q10 0 25.5 23t34 59t37 80.5t34.5 87.5t25.5 78.5t9.5 54.5q0 18 -12 29t-44 11q-16 0 -33 -1.5 t-29 -1.5h-9.5t-11.5 2.5t-9.5 7t-3.5 11.5q0 14 11 20t27 8q5 1 26 3t50.5 6.5t65 12.5t68.5 18q40 12 75 27.5t62.5 30t47.5 24t31 9.5q15 0 15 -12q0 -11 -12 -19t-19 -13q-26 -12 -49 -24t-44 -25.5t-40 -29t-38 -36.5q-29 -30 -60 -82.5t-58.5 -112t-50.5 -118 t-36 -101.5q-12 -40 -20 -80t-12.5 -72.5t-6.5 -55t-2 -28.5q0 -12 1.5 -24.5t11.5 -14.5q14 -4 48 -4.5t77 -0.5h174q45 0 74 -5t29 -20q0 -8 -11.5 -12.5t-26.5 -6.5t-30.5 -2.5t-24.5 -0.5q-23 0 -55 1t-66 2.5t-66.5 2.5t-58.5 1q-30 0 -51 -1.5t-25 -7.5 q-3 -3 -5.5 -14.5t-4.5 -26t-3 -29.5t-1 -24q0 -17 5 -21.5t16 -4.5q13 0 34.5 1.5t46 3.5t51 3.5t49.5 1.5q32 0 46 -7t14 -20q0 -5 -2 -9.5t-9 -9t-18.5 -8t-32.5 -4.5q-36 -2 -68 -3t-58 -3.5t-43.5 -7t-23.5 -12.5q-4 -5 -7 -19t-5 -33t-3.5 -43t-1.5 -50t1.5 -63.5 t4 -74t7 -67.5t11.5 -44q6 -11 15 -22t25.5 -21t41 -19t61.5 -15q27 -5 40 -10.5t13 -17.5q0 -18 -34 -18q-55 -2 -97 -4t-77 -4t-65 -5t-61 -7q-59 -9 -112.5 -25.5t-98 -32t-78 -27t-51.5 -11.5q-10 0 -17 5.5t-7 15.5q0 11 8 18.5t26 13.5q10 4 32.5 10.5t49.5 18.5 t55.5 29.5t48.5 41.5q14 18 29 47.5t23 71.5q7 44 11 98t4 103q0 31 -1.5 57.5t-3.5 43.5q-3 21 -10 27t-26 6t-45 -1.5t-53 -4t-50.5 -4.5t-39.5 -2q-21 0 -32.5 7.5t-11.5 23.5q0 15 10.5 23.5t28.5 11.5l30 3t44 3t49 3t47.5 4.5t38 5t20.5 6.5q7 6 9.5 22t2.5 37 q0 23 -1.5 38.5t-7.5 25t-17 13t-31 3.5q-22 0 -48 -0.5t-53.5 -1.5t-53 -2t-46.5 -1q-24 0 -37 5.5t-13 19.5q0 8 5.5 12.5t13.5 6.5t18 2.5t20 0.5q15 0 35.5 -0.5t42.5 -0.5t44.5 -0.5t40.5 -0.5q34 0 55 4t21 29q0 11 -4.5 27t-15.5 48q-11 29 -31 76.5t-46 104.5 t-58 118.5t-66.5 119t-70 106.5t-69.5 79q-41 35 -82 54.5t-75 31.5t-55.5 20t-21.5 23q0 8 4 13.5t16 5.5q18 0 40.5 -1.5t53.5 -2.5t72 -2t96 -1q77 0 135.5 12.5t99.5 27.5t67 27t39 12z" />
<glyph unicode="&#xa6;" horiz-adv-x="588" d="M291 1543q13 0 19.5 -12.5t7.5 -42.5q2 -30 2 -82v-124q0 -23 0.5 -57t1 -72.5t1 -79.5t1 -77.5t1 -66t0.5 -44.5q0 -25 -3 -40.5t-7.5 -24.5t-10.5 -12t-12 -3q-14 0 -21.5 17t-7.5 64q0 36 0.5 90.5t0.5 114.5t0.5 119t0.5 106v160q0 28 4.5 47.5t21.5 19.5zM292 612 q15 0 20.5 -14.5t7.5 -34.5q1 -15 2 -41t2.5 -57.5t2.5 -67t1.5 -68t1 -61t0.5 -46.5q0 -42 -0.5 -94t-0.5 -107.5t-0.5 -110t-0.5 -102.5t-0.5 -85.5t-0.5 -57.5q0 -61 -9 -91t-31 -30q-11 0 -16.5 9t-8.5 22t-3.5 28.5t-0.5 26.5q0 8 1 46.5t2.5 94.5t3.5 122.5t3.5 129 t2.5 115.5t1 82q0 58 -1 114.5t-1 103t-1 80.5t-1 46q0 27 6.5 37.5t17.5 10.5z" />
<glyph unicode="&#xa7;" horiz-adv-x="940" d="M535 1433q77 0 136 -25t98.5 -65t60 -90t20.5 -101q0 -24 -6 -49.5t-20 -46t-37 -33.5t-58 -13q-27 0 -46 9t-32.5 24t-20 33.5t-6.5 36.5q0 28 7 50t14.5 42.5t14 39t6.5 40.5q0 20 -9 40t-27 36.5t-44.5 27t-60.5 10.5q-39 0 -75 -12t-63 -36.5t-43.5 -61.5t-16.5 -88 q0 -64 22.5 -115.5t60 -95.5t85 -82.5t96.5 -75.5t96.5 -75t85 -81t60 -93.5t22.5 -112.5q0 -58 -16.5 -105t-42.5 -85t-56.5 -66t-58.5 -49q58 -62 95.5 -141t37.5 -184q0 -93 -28 -161.5t-75 -113.5t-110 -67.5t-131 -22.5q-47 0 -81.5 9.5t-58 25t-38.5 34.5t-23.5 37 t-11 33.5t-2.5 24.5q0 17 5 36.5t17.5 36.5t34 28t53.5 11q31 0 52 -14t36.5 -35t28.5 -46t29 -46t37.5 -34.5t55.5 -13.5q30 0 55.5 14t44.5 39t30 59t11 73q0 77 -28 135t-74.5 104.5t-106 84.5t-121 74.5t-121 74t-106 83.5t-74.5 102.5t-28 131.5q0 61 18 108t44.5 81.5 t57 58t55.5 37.5q-42 47 -68 107.5t-26 142.5q0 85 30.5 152t81 113.5t117 71t139.5 24.5zM404 709q-29 17 -55 35.5t-50 40.5q-13 -13 -25.5 -29t-22.5 -36t-16.5 -44.5t-6.5 -54.5q0 -44 19.5 -81t52 -70.5t75 -64.5t89.5 -63.5t94.5 -67.5t91.5 -76q19 15 37.5 33.5 t33 42t23 51.5t8.5 61q0 38 -17.5 71.5t-46 63.5t-65 56t-75 49t-76.5 43.5t-68 39.5z" />
<glyph unicode="&#xa8;" horiz-adv-x="676" d="M272 1299q40 0 62 -26.5t22 -62.5q0 -30 -9 -50.5t-24 -34t-33 -19.5t-35 -6q-16 0 -32 5.5t-27.5 17t-19 29t-7.5 40.5t8.5 42.5t23 34t33 22.5t38.5 8zM489 1280q13 0 26.5 -4.5t24.5 -14t17.5 -25t6.5 -35.5q0 -21 -6 -38.5t-17.5 -30.5t-26.5 -20t-33 -7 q-15 0 -29 4.5t-25 14.5t-18 26.5t-7 39.5q0 21 7.5 37.5t19 28.5t27.5 18t33 6z" />
<glyph unicode="&#xa9;" horiz-adv-x="1761" d="M870 1305q134 0 256 -29t225 -89q72 -43 131 -102t101.5 -132t65.5 -160.5t23 -188.5q0 -143 -29.5 -262t-84 -215t-131 -168t-170.5 -120t-203 -72.5t-228 -24.5q-167 0 -303.5 53.5t-233 149.5t-149.5 230t-53 295q0 157 36 280.5t96.5 216t139.5 157.5t166 105t176 58 t169 18zM865 1261q-92 0 -180.5 -21t-167 -63.5t-144 -107t-113 -152t-74 -197.5t-26.5 -244q0 -152 53.5 -271t145 -201.5t212.5 -125.5t256 -43q82 0 169.5 15.5t171 51t158.5 94.5t132 145t90 202t33 266q0 160 -56.5 282t-153.5 204t-227 124t-279 42zM998 919 q0 -55 5 -93t10.5 -64.5t10.5 -43.5t5 -30q0 -17 -9 -17q-7 0 -11.5 8t-9.5 23t-12.5 36t-21.5 48q-12 24 -28 44t-36 35t-45 24t-58 9q-34 0 -66 -15t-57.5 -47t-40.5 -81.5t-15 -117.5q0 -92 22 -155t58 -102t82 -56t94 -17q42 0 74.5 17.5t55 45.5t35.5 64t16 73 q3 31 6.5 47t12.5 16q8 0 15.5 -11t7.5 -45q0 -60 -18 -115t-53.5 -97.5t-88.5 -68t-122 -25.5q-72 0 -137 24.5t-114.5 70.5t-79 112t-29.5 151q0 103 31.5 174.5t82.5 117t114.5 66t129.5 20.5q31 0 54.5 -2.5t41.5 -2.5q22 0 32 7q13 8 20 29t12 42.5t8.5 38t10.5 16.5 q4 0 6 -5t2 -20q0 -5 -0.5 -19t-1 -32.5t-1 -38.5t-0.5 -38z" />
<glyph unicode="&#xaa;" horiz-adv-x="960" d="M343 1404q62 0 107 -18.5t75.5 -49.5t49 -73t29 -88.5t14.5 -95.5t6 -95q3 -84 7.5 -149t16.5 -103q9 -24 20 -39t23.5 -24t26 -12t25.5 -3q42 0 60.5 33t18.5 87q0 37 -5.5 58t-7.5 37q0 24 17 24q19 0 35 -30.5t16 -97.5q0 -25 -6.5 -61t-25 -69.5t-52 -57t-87.5 -23.5 q-45 0 -77.5 13t-55 36.5t-37 54.5t-22.5 68q-5 -29 -20.5 -63t-43 -63.5t-68 -49.5t-95.5 -20q-35 0 -68 12t-58.5 37.5t-40.5 63t-15 88.5q0 48 12 86t32 67.5t47 51t57 36.5q28 13 55.5 20.5t52.5 11.5t44 5t30 1q19 0 29 3.5t14 22.5q2 12 3.5 30.5t1.5 39.5q0 26 -2 56 t-9 60t-17.5 58t-29 49.5t-44.5 34t-61 12.5q-48 0 -73 -22.5t-25 -63.5q0 -25 8.5 -47t19.5 -43t20 -42t9 -45q0 -20 -7 -37.5t-19 -30t-29 -20t-37 -7.5q-21 0 -39.5 6.5t-32 21t-21.5 37.5t-8 56q0 55 18.5 103.5t52.5 84t81 56.5t105 21zM243 783q0 -35 8.5 -59.5 t24.5 -40t37.5 -22.5t46.5 -7q42 0 69 21.5t42 54.5t20.5 71.5t5.5 72.5q0 27 -2 47.5t-8.5 34t-19.5 20t-34 6.5q-41 0 -75.5 -12.5t-60.5 -38t-40 -62.5t-14 -86z" />
<glyph unicode="&#xab;" horiz-adv-x="1047" d="M648 922q7 0 9 -6t2 -13q0 -10 -5 -33.5t-16 -58.5t-29.5 -78.5t-45.5 -92.5q-38 -68 -71 -118t-58 -85t-39 -57t-14 -34q0 -9 15.5 -34.5t41 -63t57 -86.5t61.5 -105q14 -27 35 -66.5t44 -84t45 -90t40 -86.5t29 -73t11 -48q0 -7 -3.5 -13.5t-13.5 -6.5q-16 0 -47 37 t-72.5 96t-93.5 130.5t-112 142.5q-70 81 -131 140.5t-105.5 100.5t-70 66t-25.5 39t28 36t72 52t97.5 68.5t103.5 85.5q72 68 117 129.5t72.5 108.5t43 74t28.5 27zM910 1090q8 0 11 -13t3 -30q0 -53 -9.5 -116.5t-25 -128t-32 -125t-31.5 -110.5t-25 -83.5t-10 -43.5 q0 -12 12.5 -33.5t31 -56t40 -83t40.5 -112t31 -143.5t12 -179q0 -44 -4.5 -70t-12.5 -26t-20.5 32t-33.5 85t-51 122t-72 144q-34 60 -69.5 101t-64.5 69.5t-48 47t-19 32.5q0 12 23 36t57 65t73.5 101.5t71.5 148.5q32 87 51 155.5t31 116t20.5 72.5t19.5 25z" />
<glyph unicode="&#xac;" horiz-adv-x="1060" d="M143 759q16 0 52.5 0.5t86.5 1t109 1t121.5 1t123.5 0.5t114 0.5t94 0.5h64q39 0 52.5 -22.5t13.5 -61.5q0 -23 -1.5 -52.5t-3.5 -59.5t-5.5 -58.5t-6.5 -48.5q-4 -22 -13.5 -37t-26.5 -15q-16 0 -24 14.5t-8 41.5q0 21 1.5 54t1.5 64q0 42 -4.5 66t-19 35.5t-40.5 14.5 t-69 3q-28 0 -63.5 -1t-77.5 -3q-39 -2 -85.5 -3t-94 -3t-93 -3.5t-83.5 -2.5t-65.5 -2t-37.5 -1q-21 0 -34 3.5t-21 9t-11 12t-3 13.5q0 14 11 25t46 13z" />
<glyph unicode="&#xad;" horiz-adv-x="750" d="M377 333q-27 0 -64.5 2.5t-76.5 6.5t-73 10t-53 13q-24 8 -24 29q0 12 7 18t19 6q22 0 47 -3t56 -7t68.5 -7.5t84.5 -3.5q95 0 158.5 7t99.5 7q38 0 38 -24q0 -25 -34 -36t-100 -14.5t-153 -3.5z" />
<glyph unicode="&#xae;" horiz-adv-x="1804" d="M906 1208q101 0 200.5 -20t190 -60t167.5 -102.5t133 -146.5t88 -192t32 -240q0 -209 -62.5 -364t-172.5 -257.5t-259 -153.5t-323 -51q-94 0 -191 18.5t-187.5 58.5t-170 101.5t-138.5 148t-93 198t-34 251.5q0 91 13.5 170t37.5 147t58.5 124.5t76.5 103.5 q67 74 147.5 125t165 82.5t167.5 45t154 13.5zM906 1144q-79 0 -164.5 -16t-167.5 -51.5t-155.5 -91.5t-129 -136t-88 -185.5t-32.5 -240.5q0 -129 28 -235.5t78.5 -191t120 -147t152 -103.5t175 -61t188.5 -20q192 0 335 58t238 160t142.5 241.5t47.5 302.5q0 132 -30 237 t-83 184.5t-126 136t-158.5 91.5t-179.5 51.5t-191 16.5zM926 936q56 0 104 -13.5t82.5 -41t54.5 -68.5t20 -97q0 -62 -20 -110t-51.5 -84t-71 -60t-79.5 -37q9 -29 23 -64t32 -69q17 -33 38 -63.5t45 -53t54 -36t66 -13.5q29 0 50 11t33.5 27.5t18 36t5.5 37.5 q0 27 -6 47.5t-13 35t-13 24.5t-6 18q0 12 10 12t23.5 -12.5t25 -32.5t19.5 -46t8 -54q0 -41 -11 -77t-34 -62.5t-58 -42t-83 -15.5q-61 0 -111 19t-90 50t-70 70t-51.5 79t-34.5 77.5t-19 65.5l-69 -7q1 -37 3.5 -78.5t9 -81t16.5 -73t25 -54.5q16 -23 35 -38.5t36.5 -26 t32.5 -16.5t24 -9q17 -7 22.5 -10t5.5 -10q0 -5 -5.5 -9t-17.5 -4q-23 0 -50 7t-59 14.5t-70.5 14t-85.5 6.5q-30 0 -64.5 -3t-66 -6.5t-57 -6.5t-39.5 -3q-25 0 -33 6t-8 15q0 8 7 13t25 7q24 4 45 8.5t39 13t33 21t28 31.5t19 57.5t9 83.5t3.5 90t1.5 77q0 17 0.5 42 t0.5 54v89t-3 88t-8 74t-15 47q-11 18 -34 26.5t-46.5 14.5t-41 11t-17.5 16t19 11q17 0 32 -1t32 -2.5t38 -2t49 -0.5q37 0 74.5 7t76 15.5t78 16t80.5 7.5zM745 428q15 2 32.5 3.5t38.5 6.5q58 13 95.5 39.5t59.5 62t30.5 78.5t8.5 89q0 41 -11.5 75t-32.5 58t-50 37.5 t-64 13.5q-26 0 -44 -3.5t-30 -9.5t-18.5 -13t-9.5 -13q-7 -14 -9.5 -52.5t-2.5 -88.5q0 -36 1 -75.5t2.5 -76t2 -67.5t1.5 -52v-12z" />
<glyph unicode="&#xaf;" horiz-adv-x="658" d="M496 1425q23 0 38 -2.5t23.5 -7.5t12 -10.5t3.5 -12.5q0 -19 -20.5 -28.5t-71.5 -9.5q-22 0 -54.5 0.5t-71 1t-80 1t-81.5 2.5q-48 2 -78 5.5t-30 20.5q0 9 8 14t21.5 8t33.5 5.5t43 3.5q15 1 39 2t53 1.5t60.5 2t60.5 2t53 1t38 0.5z" />
<glyph unicode="&#xb0;" horiz-adv-x="595" d="M304 1658q37 0 73.5 -13t66 -38t47.5 -62.5t18 -87.5q0 -53 -17 -94.5t-46 -70.5t-69 -44t-86 -15q-34 0 -70 11t-66.5 36t-49.5 65t-19 98q0 47 16.5 86.5t46 68t69.5 44.5t86 16zM292 1564q-26 0 -50 -8.5t-42.5 -25t-29 -42t-10.5 -58.5t10 -58.5t28 -43.5t43 -27 t55 -9q31 0 56 9.5t42.5 27.5t27.5 42t10 54q0 39 -14 65.5t-34.5 43t-45.5 23.5t-46 7z" />
<glyph unicode="&#xb1;" horiz-adv-x="997" d="M523 872q17 0 26.5 -12t9.5 -38q0 -20 -1 -45t-2.5 -49t-2.5 -43t-1 -26q0 -15 5 -19.5t14 -6.5q24 -2 61 -4.5t76.5 -4.5t76 -4t56.5 -3q43 -2 56.5 -10t13.5 -17q0 -10 -10.5 -17t-43.5 -7q-18 0 -50.5 2t-71 4.5t-76.5 4t-65 1.5t-39 -6t-13 -25q-1 -8 -1.5 -25 t-0.5 -36v-36v-23q0 -10 -0.5 -22t-3 -22t-7 -16.5t-12.5 -6.5q-9 0 -13.5 10t-6.5 34q-1 15 -1 35v41t-0.5 39.5t-1.5 29.5q-1 10 -4.5 15.5t-8 8t-10 3t-8.5 0.5q-7 0 -26 -1t-45.5 -3t-57 -4.5t-60.5 -4t-57 -3t-45 -1.5q-17 0 -31.5 8t-14.5 29q0 15 11 24.5t42 9.5h27 t46 0.5t54.5 0.5t54 1t45 2t26.5 3q17 4 28 16t16.5 29t7.5 36.5t2 38.5q0 17 -1.5 30.5t-1.5 21.5q0 11 1.5 22t6 20t12.5 15t20 6zM164 325q13 0 51 -1t88.5 -2t108 -2.5t110 -3.5t93 -3.5t58.5 -2.5q21 -2 43 -3.5t40 -5t29 -9.5t11 -15q0 -5 -3 -9.5t-11 -8.5t-23.5 -6 t-41.5 -2q-18 0 -50 1t-70 2t-80 1.5t-82 0.5q-43 0 -84 -1.5t-76 -4t-60.5 -4.5t-37.5 -2q-45 0 -68 8t-23 32q0 8 3 15.5t12 13t24 9t39 3.5z" />
<glyph unicode="&#xb2;" horiz-adv-x="628" d="M358 1525q54 0 94.5 -17.5t67 -47t40 -68.5t13.5 -82q0 -55 -18 -102.5t-48.5 -87t-69.5 -70.5t-81 -54q-27 -15 -53.5 -26.5t-47.5 -21.5t-34 -17.5t-13 -13.5t8.5 -17t23.5 -24.5t34 -28t41 -25.5t45 -18.5t46 -7.5q40 0 70 15.5t51.5 33.5t35.5 33t23 15q8 0 8 -7 q0 -10 -12 -26.5t-29.5 -36.5t-38.5 -42t-39 -44q-13 -15 -30 -37.5t-33 -43.5t-29 -35.5t-18 -14.5t-18.5 16t-34 40.5t-46 53.5t-54.5 55q-47 39 -80 62t-55 36.5t-32.5 19.5t-10.5 11t17 9t46 13.5t68 26.5t83 49q43 31 73.5 66.5t49.5 72.5t27.5 73.5t8.5 69.5 q0 30 -6 57.5t-20 49t-37 34t-57 12.5q-35 0 -60 -17t-42.5 -37.5t-28.5 -37t-18 -16.5q-9 0 -9 11t7 29t20.5 39t32.5 42.5t44.5 39t57 28.5t67.5 11z" />
<glyph unicode="&#xb3;" horiz-adv-x="638" d="M425 1499q17 0 17 -16q0 -10 -11.5 -31t-28 -47.5t-36 -55t-36.5 -52.5t-28 -40.5t-11 -19.5q0 -2 8 -3t23.5 -2t36.5 -4.5t47 -11.5q35 -10 70.5 -29.5t63.5 -52t46 -78t18 -107.5q0 -75 -26.5 -132t-70.5 -94.5t-101 -56t-119 -18.5q-53 0 -99 18.5t-80 51.5t-54 81.5 t-20 108.5q0 31 5 56.5t11 44t13.5 28.5t12.5 10t5 -8q0 -10 -2.5 -29.5t-2.5 -47.5q0 -44 11 -85t34.5 -72.5t60 -51t86.5 -19.5q41 0 73.5 15t54 42.5t33 65t11.5 82.5q0 66 -32.5 115.5t-84.5 71.5q-18 9 -38 15t-36.5 10.5t-27.5 8t-11 7.5q0 7 9 23.5t27 46.5 q10 15 20.5 33.5t19.5 35.5t15 29.5t6 16.5t-8.5 5.5t-21 3t-25 1.5h-20.5q-36 -1 -59.5 -7.5t-33.5 -18.5q-6 -8 -10.5 -21.5t-7.5 -26.5t-6.5 -22.5t-7.5 -9.5q-8 0 -9 33.5t-6 99.5q-4 28 -7 50.5t-3 34.5q0 14 5.5 17.5t17.5 3.5q24 0 67 -5.5t96 -5.5q30 0 54 2t43 5 t33 5.5t27 2.5z" />
<glyph unicode="&#xb4;" horiz-adv-x="404" d="M286 1640q16 0 24 -10t8 -28q0 -15 -9.5 -38t-24.5 -50t-34 -56.5t-38 -55.5q-36 -48 -67 -79t-45 -31q-8 0 -10.5 4.5t-2.5 13.5q0 11 8.5 40t23.5 65.5t34 76t41 72.5t45.5 54.5t46.5 21.5z" />
<glyph unicode="&#xb5;" horiz-adv-x="1092" d="M223 890q5 0 7 -4.5t2 -10.5q0 -17 -5 -60.5t-5 -119.5q0 -41 2.5 -93.5t13.5 -112.5q8 -51 25.5 -107t46 -103t69 -77.5t96.5 -30.5q52 0 86.5 22t55 58t29 83t8.5 96q0 17 -1 33.5t-3 33.5q-5 54 -15.5 101t-20.5 83.5t-18 62t-8 36.5q0 3 7.5 6t20 6t29.5 8t35 11 q42 14 59 23t25 9q7 0 12 -24t10 -74t11.5 -128t16.5 -185q13 -140 47.5 -205t93.5 -65q23 0 38.5 8.5t25 22.5t14 30.5t4.5 34.5q0 41 -13 71.5t-29 52t-29 35.5t-13 21q0 13 12 13q15 0 36.5 -14.5t41.5 -40.5t33.5 -62.5t13.5 -80.5q0 -45 -9.5 -83t-30 -66t-53.5 -43.5 t-78 -15.5q-48 0 -83.5 17.5t-61.5 44t-43.5 57t-28.5 57t-16.5 44t-7.5 17.5q-3 0 -7 -12.5t-13 -31.5t-22.5 -41t-35 -41t-52 -31.5t-70.5 -12.5q-60 0 -102.5 22t-71 51.5t-44 57.5t-19.5 41q1 -29 3 -74.5t6 -97t8 -101.5t8 -88q10 -88 20 -163t17.5 -133.5t12 -97.5 t4.5 -54q0 -13 -7 -17q-5 -2 -10.5 -3t-16 -1t-26 -1t-38.5 -3q-9 -1 -20.5 -3t-23.5 -4.5t-22.5 -4.5t-16.5 -2q-11 0 -17 6q-4 7 -7.5 41t-6.5 90.5t-5.5 131.5t-5.5 164.5t-6 189.5t-7 206q-7 173 -10 301t-3 203v66t5 27q3 2 6 2.5t9.5 1.5t19 2t33.5 6q24 5 38.5 8 t22.5 4.5t12 2.5t6 1z" />
<glyph unicode="&#x3bc;" horiz-adv-x="1092" d="M223 890q5 0 7 -4.5t2 -10.5q0 -17 -5 -60.5t-5 -119.5q0 -41 2.5 -93.5t13.5 -112.5q8 -51 25.5 -107t46 -103t69 -77.5t96.5 -30.5q52 0 86.5 22t55 58t29 83t8.5 96q0 17 -1 33.5t-3 33.5q-5 54 -15.5 101t-20.5 83.5t-18 62t-8 36.5q0 3 7.5 6t20 6t29.5 8t35 11 q42 14 59 23t25 9q7 0 12 -24t10 -74t11.5 -128t16.5 -185q13 -140 47.5 -205t93.5 -65q23 0 38.5 8.5t25 22.5t14 30.5t4.5 34.5q0 41 -13 71.5t-29 52t-29 35.5t-13 21q0 13 12 13q15 0 36.5 -14.5t41.5 -40.5t33.5 -62.5t13.5 -80.5q0 -45 -9.5 -83t-30 -66t-53.5 -43.5 t-78 -15.5q-48 0 -83.5 17.5t-61.5 44t-43.5 57t-28.5 57t-16.5 44t-7.5 17.5q-3 0 -7 -12.5t-13 -31.5t-22.5 -41t-35 -41t-52 -31.5t-70.5 -12.5q-60 0 -102.5 22t-71 51.5t-44 57.5t-19.5 41q1 -29 3 -74.5t6 -97t8 -101.5t8 -88q10 -88 20 -163t17.5 -133.5t12 -97.5 t4.5 -54q0 -13 -7 -17q-5 -2 -10.5 -3t-16 -1t-26 -1t-38.5 -3q-9 -1 -20.5 -3t-23.5 -4.5t-22.5 -4.5t-16.5 -2q-11 0 -17 6q-4 7 -7.5 41t-6.5 90.5t-5.5 131.5t-5.5 164.5t-6 189.5t-7 206q-7 173 -10 301t-3 203v66t5 27q3 2 6 2.5t9.5 1.5t19 2t33.5 6q24 5 38.5 8 t22.5 4.5t12 2.5t6 1z" />
<glyph unicode="&#xb6;" horiz-adv-x="1216" d="M1142 1446q10 0 14.5 -5t4.5 -15q0 -11 -11 -20.5t-28.5 -20.5t-39.5 -24.5t-44 -32t-42.5 -44t-33.5 -59.5q-9 -23 -16.5 -58.5t-13 -78.5t-9.5 -91.5t-6.5 -96t-4 -92t-1.5 -79.5q0 -73 2.5 -160.5t6 -178.5t10 -180.5t15 -166.5t19.5 -137t26 -92q14 -32 37.5 -50.5 t50 -28.5t51.5 -13.5t43 -7.5q26 -5 35 -10t9 -14q0 -17 -34 -17q-39 0 -80 6t-94 6q-29 0 -55.5 -3.5t-51 -7.5t-46 -7.5t-39.5 -3.5q-12 0 -19.5 7t-10.5 31q-1 14 -2 40.5t-2.5 62.5t-1.5 80.5v92.5q0 74 0.5 156t2 160.5t2.5 148.5t3 122q1 34 2 79t3 96.5t3 106.5 t2.5 108.5t2 102.5t0.5 89q0 41 -1.5 64.5t-8 35t-20.5 14.5t-39 3q-23 0 -50.5 -2t-51.5 -5t-43 -7t-26 -8q-6 -5 -11.5 -55t-10 -136t-7 -201t-2.5 -247q0 -48 2 -112t6 -138t9 -154.5t9.5 -161.5t9.5 -158t9 -144.5t6 -121.5t2 -88q0 -15 -3.5 -21.5t-18.5 -11.5 q-24 -8 -73.5 -18t-114.5 -31q-37 -12 -72.5 -24.5t-66.5 -23.5t-55.5 -18.5t-40.5 -7.5q-21 0 -27 7t-6 16q0 17 18 26t44 17q62 18 103 38.5t66 41t38.5 41.5t21.5 43q10 27 13.5 88.5t3.5 142.5q0 59 -1.5 123.5t-4.5 128.5t-7 125.5t-8.5 113t-8.5 91t-8 60.5 q-7 36 -28 55.5t-56 32.5q-59 22 -111.5 50.5t-92.5 69t-63.5 97.5t-23.5 137q0 59 16 112.5t49 98.5t84.5 79t122.5 54q44 13 92 20t98 12t101.5 8.5t100.5 9.5q92 11 160 25.5t117 30t81.5 30.5t55 27t37.5 19t27 7z" />
<glyph unicode="&#xb7;" horiz-adv-x="410" d="M208 784q32 0 54.5 -11t36 -29t20 -40.5t6.5 -44.5q0 -38 -9 -67t-25 -47t-38 -27t-46 -9q-26 0 -48 9t-38.5 27t-25.5 42.5t-9 55.5q0 33 9 59t25.5 44t38.5 28t49 10z" />
<glyph unicode="&#xb8;" horiz-adv-x="571" d="M291 165q13 0 13 -22q0 -9 -3.5 -27.5t-7 -39t-6.5 -39.5t-3 -29q0 -2 7.5 -4t20 -6t29.5 -10t36 -16q49 -24 77.5 -67.5t28.5 -109.5q0 -33 -12 -69t-36.5 -66t-64 -49.5t-94.5 -19.5q-52 0 -87.5 19t-58 45.5t-33 55.5t-10.5 50q0 6 2.5 15t8.5 9q8 0 17.5 -17t25 -38 t40 -38t62.5 -17q46 0 72 27.5t26 70.5q0 32 -9.5 54t-25 36t-32 21.5t-31.5 13t-25 8.5t-10 8t5.5 23.5t13 42.5t15 50.5t13.5 46.5q11 45 17 66.5t19 21.5z" />
<glyph unicode="&#xb9;" horiz-adv-x="579" d="M427 1509q6 0 8 -5.5t2 -13.5t-4.5 -32.5t-9 -63t-8.5 -90.5t-4 -117q0 -45 0.5 -92.5t3.5 -94.5q2 -37 5 -70t11 -60.5t23 -49.5t40 -37q8 -5 17.5 -9t17 -7t12 -6.5t4.5 -8.5q0 -7 -5.5 -9.5t-14.5 -2.5q-17 0 -40 5t-52 13t-62.5 17t-69.5 16q-52 11 -100 17.5 t-85 11.5t-59.5 11t-22.5 16t16 10q14 0 41 -4.5t59 -4.5q18 0 37.5 4t32.5 13q27 18 41.5 56.5t21.5 87.5t8 101t1 96q0 32 -5.5 47t-21.5 15q-17 0 -41.5 -10t-49 -21t-45.5 -21t-29 -10q-4 0 -7.5 2t-3.5 7q0 10 17 20t46 26.5t66.5 41t78.5 63.5q33 30 54 56t35.5 45.5 t23.5 30.5t17 11z" />
<glyph unicode="&#xba;" horiz-adv-x="866" d="M417 1311q90 0 163.5 -29.5t125.5 -81t80 -121t28 -148.5q0 -85 -22.5 -157.5t-68 -124.5t-115.5 -81.5t-166 -29.5q-40 0 -85 9.5t-88 29t-81.5 51t-68 74.5t-47 99.5t-17.5 127.5q0 96 29 167.5t78.5 119t115 71.5t139.5 24zM325 1231q-39 0 -72 -15t-57 -42.5 t-37 -66.5t-13 -87q0 -88 26 -166t73.5 -136.5t114 -93t146.5 -34.5q54 0 90 18t56.5 47.5t29 68t8.5 79.5q0 86 -24.5 163.5t-71 136.5t-114.5 93.5t-155 34.5z" />
<glyph unicode="&#xbb;" horiz-adv-x="1339" d="M103 955q8 0 15.5 -17t20.5 -40q26 -46 58.5 -86t70.5 -74t78.5 -62t81.5 -50q80 -43 154 -67.5t130.5 -38.5t90 -23t33.5 -21q0 -17 -34.5 -41t-94 -69t-139 -116.5t-169.5 -182.5q-56 -70 -95 -133t-65 -111t-41.5 -76.5t-23.5 -28.5q-7 0 -9.5 10.5t-2.5 25.5 q0 23 9.5 62t27.5 85t43 97t57 100q35 56 74 104.5t70.5 86.5t52 63t20.5 34q0 7 -20 19t-54 34t-79.5 55t-97.5 82q-47 44 -80 94.5t-53 98t-29.5 87.5t-9.5 65q0 12 2 23t8 11zM542 1125q4 0 11.5 -13.5t14.5 -24.5q37 -62 68 -107t62 -82.5t65.5 -71t77.5 -71.5 q84 -74 159 -122t131.5 -79.5t89.5 -50.5t33 -35q0 -14 -22.5 -33.5t-61 -46.5t-88 -62.5t-103.5 -82t-108.5 -106.5t-101.5 -134q-39 -61 -66 -119.5t-45.5 -110.5t-30 -95.5t-19.5 -75t-14 -49.5t-13 -18q-9 0 -17 32.5t-8 88.5q0 63 14.5 149.5t55.5 186.5q33 77 72 141 t79 116.5t78 92.5t68 68.5t47.5 46.5t17.5 26t-33.5 32t-85 68t-113.5 109t-121 153q-27 40 -46 81t-30.5 76.5t-16.5 64t-5 43.5t5 15z" />
<glyph unicode="&#xbc;" horiz-adv-x="1508" d="M1263 1599q14 0 14 -18q0 -11 -12.5 -36t-32 -58.5t-44.5 -72t-50.5 -76.5t-49.5 -72t-41 -58q-29 -42 -71 -101t-91.5 -127.5t-104 -143.5t-109 -149.5t-106 -145.5t-95 -130t-76.5 -104.5t-50 -68.5q-32 -47 -63.5 -89.5t-55.5 -77.5q-27 -39 -46 -62.5t-36 -23.5 q-8 0 -13.5 4t-5.5 16q0 21 26 64.5t68 104.5q48 67 104 144.5t116 167.5q48 68 105.5 149t120.5 168t128.5 176t127.5 174t118.5 162.5t100.5 140.5q23 31 41.5 57.5t33.5 45.5t27 29.5t22 10.5zM1118 1004q8 0 11.5 -16.5t5.5 -47.5q3 -23 6.5 -64t8.5 -91.5t11 -105.5 t12.5 -106.5t13 -95t12.5 -70.5q49 15 77 41q27 22 40 49.5t19.5 50.5t9 39t9.5 16q5 0 7 -12.5t2 -34.5v-56q0 -28 2.5 -54t5 -48t5 -39t2.5 -26t-3 -15q-8 -12 -35.5 -16.5t-78.5 -4.5h-39q22 -139 80 -189q15 -14 33.5 -22.5t37.5 -14t38 -7.5t34 -2q13 0 21.5 -2 t8.5 -11q0 -12 -18.5 -14.5t-44.5 -2.5q-15 0 -36 1t-45 2t-50.5 2.5t-52.5 1.5q-39 0 -74.5 -6t-68 -13t-63.5 -13t-62 -6q-10 0 -16 3.5t-6 11.5q0 11 7 15t16 6q36 8 57.5 16.5t34 23t17 37t4.5 57.5q0 26 -1.5 56t-4.5 60q-18 -2 -36 -5q-17 -1 -36.5 -3t-40.5 -3 q-16 -2 -41.5 -3.5t-53 -2.5t-54 -2t-45.5 -1q-30 0 -30 14q0 10 10.5 31.5t27 50t35.5 60.5t35 61q49 86 88.5 159.5t69.5 131.5t50 100l30 63q6 12 11.5 24t10.5 21t9.5 15t9.5 6zM1051 467q-5 44 -10.5 86.5t-10.5 76t-10 54t-8 20.5q-5 0 -19 -23.5t-33 -58t-40 -74 t-39 -71.5q-5 -10 -14.5 -27t-19 -35.5t-16.5 -35t-7 -24.5q0 -4 2 -6.5t8 -2.5q14 0 34 2t43.5 4.5t48 5.5t45 6t35.5 5.5t21 4.5zM427 1509q6 0 8 -5.5t2 -13.5t-4.5 -32.5t-9 -63t-8.5 -90.5t-4 -117q0 -45 0.5 -92.5t3.5 -94.5q2 -37 5 -70t11 -60.5t23 -49.5t40 -37 q8 -5 17.5 -9t17 -7t12 -6.5t4.5 -8.5q0 -7 -5.5 -9.5t-14.5 -2.5q-17 0 -40 5t-52 13t-62.5 17t-69.5 16q-52 11 -100 17.5t-85 11.5t-59.5 11t-22.5 16t16 10q14 0 41 -4.5t59 -4.5q18 0 37.5 4t32.5 13q27 18 41.5 56.5t21.5 87.5t8 101t1 96q0 32 -5.5 47t-21.5 15 q-17 0 -41.5 -10t-49 -21t-45.5 -21t-29 -10q-4 0 -7.5 2t-3.5 7q0 10 17 20t46 26.5t66.5 41t78.5 63.5q33 30 54 56t35.5 45.5t23.5 30.5t17 11z" />
<glyph unicode="&#xbd;" horiz-adv-x="1311" d="M1263 1599q14 0 14 -18q0 -11 -12.5 -36t-32 -58.5t-44.5 -72t-50.5 -76.5t-49.5 -72t-41 -58q-29 -42 -71 -101t-91.5 -127.5t-104 -143.5t-109 -149.5t-106 -145.5t-95 -130t-76.5 -104.5t-50 -68.5q-32 -47 -63.5 -89.5t-55.5 -77.5q-27 -39 -46 -62.5t-36 -23.5 q-8 0 -13.5 4t-5.5 16q0 21 26 64.5t68 104.5q48 67 104 144.5t116 167.5q48 68 105.5 149t120.5 168t128.5 176t127.5 174t118.5 162.5t100.5 140.5q23 31 41.5 57.5t33.5 45.5t27 29.5t22 10.5zM1026 877q54 0 94.5 -17.5t67 -47t40 -68.5t13.5 -82q0 -55 -18 -102.5 t-48.5 -87t-69.5 -70.5t-81 -54q-27 -15 -53.5 -26.5t-47.5 -21.5t-34 -17.5t-13 -13.5t8.5 -17t23.5 -24.5t34 -28t41 -25.5t45 -18.5t46 -7.5q40 0 70 15.5t51.5 33.5t35.5 33t23 15q8 0 8 -7q0 -10 -12 -26.5t-29.5 -36.5t-38.5 -42t-39 -44q-13 -15 -30 -37.5t-33 -43.5 t-29 -35.5t-18 -14.5t-18.5 16t-34 40.5t-46 53.5t-54.5 55q-47 39 -80 62t-55 36.5t-32.5 19.5t-10.5 11t17 9t46 13.5t68 26.5t83 49q43 31 73.5 66.5t49.5 72.5t27.5 73.5t8.5 69.5q0 30 -6 57.5t-20 49t-37 34t-57 12.5q-35 0 -60 -17t-42.5 -37.5t-28.5 -37t-18 -16.5 q-9 0 -9 11t7 29t20.5 39t32.5 42.5t44.5 39t57 28.5t67.5 11zM427 1509q6 0 8 -5.5t2 -13.5t-4.5 -32.5t-9 -63t-8.5 -90.5t-4 -117q0 -45 0.5 -92.5t3.5 -94.5q2 -37 5 -70t11 -60.5t23 -49.5t40 -37q8 -5 17.5 -9t17 -7t12 -6.5t4.5 -8.5q0 -7 -5.5 -9.5t-14.5 -2.5 q-17 0 -40 5t-52 13t-62.5 17t-69.5 16q-52 11 -100 17.5t-85 11.5t-59.5 11t-22.5 16t16 10q14 0 41 -4.5t59 -4.5q18 0 37.5 4t32.5 13q27 18 41.5 56.5t21.5 87.5t8 101t1 96q0 32 -5.5 47t-21.5 15q-17 0 -41.5 -10t-49 -21t-45.5 -21t-29 -10q-4 0 -7.5 2t-3.5 7 q0 10 17 20t46 26.5t66.5 41t78.5 63.5q33 30 54 56t35.5 45.5t23.5 30.5t17 11z" />
<glyph unicode="&#xbe;" horiz-adv-x="1587" d="M1360 1599q14 0 14 -18q0 -11 -12.5 -36t-32 -58.5t-44.5 -72t-50.5 -76.5t-49.5 -72t-41 -58q-29 -42 -71 -101t-91.5 -127.5t-104 -143.5t-109 -149.5t-106 -145.5t-95 -130t-76.5 -104.5t-50 -68.5q-32 -47 -63.5 -89.5t-55.5 -77.5q-27 -39 -46 -62.5t-36 -23.5 q-8 0 -13.5 4t-5.5 16q0 21 26 64.5t68 104.5q48 67 104 144.5t116 167.5q48 68 105.5 149t120.5 168t128.5 176t127.5 174t118.5 162.5t100.5 140.5q23 31 41.5 57.5t33.5 45.5t27 29.5t22 10.5zM1197 1004q8 0 11.5 -16.5t5.5 -47.5q3 -23 6.5 -64t8.5 -91.5t11 -105.5 t12.5 -106.5t13 -95t12.5 -70.5q49 15 77 41q27 22 40 49.5t19.5 50.5t9 39t9.5 16q5 0 7 -12.5t2 -34.5v-56q0 -28 2.5 -54t5 -48t5 -39t2.5 -26t-3 -15q-8 -12 -35.5 -16.5t-78.5 -4.5h-39q22 -139 80 -189q15 -14 33.5 -22.5t37.5 -14t38 -7.5t34 -2q13 0 21.5 -2 t8.5 -11q0 -12 -18.5 -14.5t-44.5 -2.5q-15 0 -36 1t-45 2t-50.5 2.5t-52.5 1.5q-39 0 -74.5 -6t-68 -13t-63.5 -13t-62 -6q-10 0 -16 3.5t-6 11.5q0 11 7 15t16 6q36 8 57.5 16.5t34 23t17 37t4.5 57.5q0 26 -1.5 56t-4.5 60q-18 -2 -36 -5q-17 -1 -36.5 -3t-40.5 -3 q-16 -2 -41.5 -3.5t-53 -2.5t-54 -2t-45.5 -1q-30 0 -30 14q0 10 10.5 31.5t27 50t35.5 60.5t35 61q49 86 88.5 159.5t69.5 131.5t50 100l30 63q6 12 11.5 24t10.5 21t9.5 15t9.5 6zM1130 467q-5 44 -10.5 86.5t-10.5 76t-10 54t-8 20.5q-5 0 -19 -23.5t-33 -58t-40 -74 t-39 -71.5q-5 -10 -14.5 -27t-19 -35.5t-16.5 -35t-7 -24.5q0 -4 2 -6.5t8 -2.5q14 0 34 2t43.5 4.5t48 5.5t45 6t35.5 5.5t21 4.5zM425 1499q17 0 17 -16q0 -10 -11.5 -31t-28 -47.5t-36 -55t-36.5 -52.5t-28 -40.5t-11 -19.5q0 -2 8 -3t23.5 -2t36.5 -4.5t47 -11.5 q35 -10 70.5 -29.5t63.5 -52t46 -78t18 -107.5q0 -75 -26.5 -132t-70.5 -94.5t-101 -56t-119 -18.5q-53 0 -99 18.5t-80 51.5t-54 81.5t-20 108.5q0 31 5 56.5t11 44t13.5 28.5t12.5 10t5 -8q0 -10 -2.5 -29.5t-2.5 -47.5q0 -44 11 -85t34.5 -72.5t60 -51t86.5 -19.5 q41 0 73.5 15t54 42.5t33 65t11.5 82.5q0 66 -32.5 115.5t-84.5 71.5q-18 9 -38 15t-36.5 10.5t-27.5 8t-11 7.5q0 7 9 23.5t27 46.5q10 15 20.5 33.5t19.5 35.5t15 29.5t6 16.5t-8.5 5.5t-21 3t-25 1.5h-20.5q-36 -1 -59.5 -7.5t-33.5 -18.5q-6 -8 -10.5 -21.5t-7.5 -26.5 t-6.5 -22.5t-7.5 -9.5q-8 0 -9 33.5t-6 99.5q-4 28 -7 50.5t-3 34.5q0 14 5.5 17.5t17.5 3.5q24 0 67 -5.5t96 -5.5q30 0 54 2t43 5t33 5.5t27 2.5z" />
<glyph unicode="&#xbf;" horiz-adv-x="983" d="M535 1333q24 0 47.5 -9t42 -26t30 -43t11.5 -61q0 -38 -13 -65t-33.5 -44t-45.5 -24.5t-47 -7.5q-61 0 -98.5 34t-37.5 98q0 38 12 65.5t32 46t46 27.5t54 9zM438 1001q24 0 54 -15t53 -42q17 -20 27.5 -46.5t10.5 -58.5q0 -59 -20 -107.5t-49 -93.5t-64 -91t-64.5 -98.5 t-49 -115.5t-19.5 -144q0 -94 24 -158t62.5 -102.5t86.5 -55t95 -16.5q55 0 95.5 17t66.5 44t38.5 61.5t12.5 71.5q0 20 -6 42t-21.5 44t-42.5 43t-71 38q-61 25 -88 60t-27 88q0 35 11.5 63.5t33 49t51.5 32t66 11.5q58 0 103.5 -19.5t78 -53.5t49.5 -80.5t17 -102.5 q0 -47 -9 -99t-29.5 -103t-53.5 -97.5t-82 -81.5t-114.5 -56t-149.5 -21q-129 0 -219.5 29t-146.5 78t-81.5 114.5t-25.5 139.5q0 69 21 125.5t55.5 103.5t78 86.5t90 74.5t90 67.5t78 66t55.5 69t21 77.5q0 40 -17 65t-37.5 40.5t-37 25t-16.5 20.5q0 4 3 7.5t13 3.5z" />
<glyph unicode="&#xc0;" d="M716 1410q6 0 13.5 -14t14.5 -33t13.5 -38t9.5 -28q18 -55 41 -123.5t48.5 -147t53.5 -162.5t56.5 -168.5t56 -167t52.5 -157t47.5 -137t40.5 -108.5q20 -55 39 -87.5t41 -52t48.5 -28.5t60.5 -17q26 -5 26 -18q0 -10 -9.5 -13t-21.5 -3q-18 0 -46.5 0.5t-65.5 0.5 q-30 0 -64 -1t-70 -4q-56 -4 -104 -13.5t-86.5 -19t-67.5 -17.5t-47 -8q-9 0 -14.5 5t-5.5 12q0 11 6 18t23 12q6 1 19 4.5t28 7.5t31.5 9.5t29.5 12.5q17 9 30.5 24.5t13.5 46.5q0 6 -1.5 18t-3.5 21q-15 59 -31 119.5t-32 115t-30.5 100.5t-26.5 76q-19 49 -44 74.5 t-56 39.5q-8 3 -27.5 11t-45.5 16.5t-56.5 18.5t-60 20t-55 18t-42.5 14q-20 -65 -39.5 -128.5t-36 -117t-29 -93.5t-17.5 -59q-6 -22 -8.5 -39.5t-2.5 -30.5q0 -25 7 -41t18.5 -27.5t27.5 -19.5l32 -16q15 -6 25.5 -14t10.5 -20q0 -8 -6 -13.5t-20 -5.5t-36 7t-48 17 t-55.5 21.5t-59.5 20.5q-23 7 -48.5 12.5t-49 8.5t-42 5.5t-29.5 2.5q-21 2 -30 6t-9 16q0 9 5.5 14.5t18.5 5.5q5 0 18 -1t30 -1q41 0 67.5 5t45 16t31 27.5t22.5 38.5t24 58.5t30.5 80t33.5 90t31.5 88t25.5 74t16 48.5q7 22 19 60t27 85t30.5 98t28.5 97.5t21 84.5t8 60 q0 17 -9 28.5t-30 11.5q-19 0 -42 -2.5t-46.5 -5t-45.5 -5t-38 -2.5q-31 0 -31 21t29 23q20 1 45.5 4.5t54.5 9t58 14.5t55 22q43 19 73.5 39t52 36t35 26t22.5 10zM459 704q27 -9 67.5 -23t82.5 -27t77.5 -22.5t51.5 -9.5q10 0 18 7.5t8 22.5q0 12 -8 45.5t-19 76t-24.5 89 t-25.5 86t-20 66t-8 29.5q-4 10 -9.5 29t-11.5 37.5t-12.5 32t-9.5 13.5q-4 0 -9.5 -9.5t-11 -22.5t-11.5 -28t-9 -28zM323 1781q16 0 34.5 -10.5t37 -29.5t38 -44t37.5 -53q20 -30 38.5 -59t32 -54t22 -45.5t8.5 -35.5q0 -10 -4 -16.5t-13 -6.5q-10 0 -29 12t-43 32t-51 45 t-52 52q-20 20 -40.5 41t-37 41.5t-26.5 40t-10 36.5q0 28 18.5 41t39.5 13z" />
<glyph unicode="&#xc1;" d="M716 1410q6 0 13.5 -14t14.5 -33t13.5 -38t9.5 -28q18 -55 41 -123.5t48.5 -147t53.5 -162.5t56.5 -168.5t56 -167t52.5 -157t47.5 -137t40.5 -108.5q20 -55 39 -87.5t41 -52t48.5 -28.5t60.5 -17q26 -5 26 -18q0 -10 -9.5 -13t-21.5 -3q-18 0 -46.5 0.5t-65.5 0.5 q-30 0 -64 -1t-70 -4q-56 -4 -104 -13.5t-86.5 -19t-67.5 -17.5t-47 -8q-9 0 -14.5 5t-5.5 12q0 11 6 18t23 12q6 1 19 4.5t28 7.5t31.5 9.5t29.5 12.5q17 9 30.5 24.5t13.5 46.5q0 6 -1.5 18t-3.5 21q-15 59 -31 119.5t-32 115t-30.5 100.5t-26.5 76q-19 49 -44 74.5 t-56 39.5q-8 3 -27.5 11t-45.5 16.5t-56.5 18.5t-60 20t-55 18t-42.5 14q-20 -65 -39.5 -128.5t-36 -117t-29 -93.5t-17.5 -59q-6 -22 -8.5 -39.5t-2.5 -30.5q0 -25 7 -41t18.5 -27.5t27.5 -19.5l32 -16q15 -6 25.5 -14t10.5 -20q0 -8 -6 -13.5t-20 -5.5t-36 7t-48 17 t-55.5 21.5t-59.5 20.5q-23 7 -48.5 12.5t-49 8.5t-42 5.5t-29.5 2.5q-21 2 -30 6t-9 16q0 9 5.5 14.5t18.5 5.5q5 0 18 -1t30 -1q41 0 67.5 5t45 16t31 27.5t22.5 38.5t24 58.5t30.5 80t33.5 90t31.5 88t25.5 74t16 48.5q7 22 19 60t27 85t30.5 98t28.5 97.5t21 84.5t8 60 q0 17 -9 28.5t-30 11.5q-19 0 -42 -2.5t-46.5 -5t-45.5 -5t-38 -2.5q-31 0 -31 21t29 23q20 1 45.5 4.5t54.5 9t58 14.5t55 22q43 19 73.5 39t52 36t35 26t22.5 10zM459 704q27 -9 67.5 -23t82.5 -27t77.5 -22.5t51.5 -9.5q10 0 18 7.5t8 22.5q0 12 -8 45.5t-19 76t-24.5 89 t-25.5 86t-20 66t-8 29.5q-4 10 -9.5 29t-11.5 37.5t-12.5 32t-9.5 13.5q-4 0 -9.5 -9.5t-11 -22.5t-11.5 -28t-9 -28zM744 1826q16 0 24 -10t8 -28q0 -15 -9.5 -38t-24.5 -50t-34 -56.5t-38 -55.5q-36 -48 -67 -79t-45 -31q-8 0 -10.5 4.5t-2.5 13.5q0 11 8.5 40t23.5 65.5 t34 76t41 72.5t45.5 54.5t46.5 21.5z" />
<glyph unicode="&#xc2;" d="M716 1410q6 0 13.5 -14t14.5 -33t13.5 -38t9.5 -28q18 -55 41 -123.5t48.5 -147t53.5 -162.5t56.5 -168.5t56 -167t52.5 -157t47.5 -137t40.5 -108.5q20 -55 39 -87.5t41 -52t48.5 -28.5t60.5 -17q26 -5 26 -18q0 -10 -9.5 -13t-21.5 -3q-18 0 -46.5 0.5t-65.5 0.5 q-30 0 -64 -1t-70 -4q-56 -4 -104 -13.5t-86.5 -19t-67.5 -17.5t-47 -8q-9 0 -14.5 5t-5.5 12q0 11 6 18t23 12q6 1 19 4.5t28 7.5t31.5 9.5t29.5 12.5q17 9 30.5 24.5t13.5 46.5q0 6 -1.5 18t-3.5 21q-15 59 -31 119.5t-32 115t-30.5 100.5t-26.5 76q-19 49 -44 74.5 t-56 39.5q-8 3 -27.5 11t-45.5 16.5t-56.5 18.5t-60 20t-55 18t-42.5 14q-20 -65 -39.5 -128.5t-36 -117t-29 -93.5t-17.5 -59q-6 -22 -8.5 -39.5t-2.5 -30.5q0 -25 7 -41t18.5 -27.5t27.5 -19.5l32 -16q15 -6 25.5 -14t10.5 -20q0 -8 -6 -13.5t-20 -5.5t-36 7t-48 17 t-55.5 21.5t-59.5 20.5q-23 7 -48.5 12.5t-49 8.5t-42 5.5t-29.5 2.5q-21 2 -30 6t-9 16q0 9 5.5 14.5t18.5 5.5q5 0 18 -1t30 -1q41 0 67.5 5t45 16t31 27.5t22.5 38.5t24 58.5t30.5 80t33.5 90t31.5 88t25.5 74t16 48.5q7 22 19 60t27 85t30.5 98t28.5 97.5t21 84.5t8 60 q0 17 -9 28.5t-30 11.5q-19 0 -42 -2.5t-46.5 -5t-45.5 -5t-38 -2.5q-31 0 -31 21t29 23q20 1 45.5 4.5t54.5 9t58 14.5t55 22q43 19 73.5 39t52 36t35 26t22.5 10zM459 704q27 -9 67.5 -23t82.5 -27t77.5 -22.5t51.5 -9.5q10 0 18 7.5t8 22.5q0 12 -8 45.5t-19 76t-24.5 89 t-25.5 86t-20 66t-8 29.5q-4 10 -9.5 29t-11.5 37.5t-12.5 32t-9.5 13.5q-4 0 -9.5 -9.5t-11 -22.5t-11.5 -28t-9 -28zM649 1822q8 0 16 -11t24 -32q20 -28 36 -47.5t31 -36t30 -31.5l33 -33q41 -37 71.5 -59.5t51.5 -37t32 -24.5t11 -23q0 -9 -8 -14t-18 -5q-16 0 -37 5.5 t-44 15.5t-46.5 23.5t-44.5 28.5q-37 29 -64 54t-45 43.5t-29 29t-17 10.5q-5 0 -17 -12t-30 -32t-43 -46t-56 -55q-25 -22 -48 -41.5t-42.5 -34.5t-35 -23.5t-25.5 -8.5q-3 0 -5.5 1t-2.5 5q0 8 21 29t55 56t76 83t84 110q15 23 28.5 43.5t24 36t19 24.5t14.5 9z" />
<glyph unicode="&#xc3;" d="M716 1410q6 0 13.5 -14t14.5 -33t13.5 -38t9.5 -28q18 -55 41 -123.5t48.5 -147t53.5 -162.5t56.5 -168.5t56 -167t52.5 -157t47.5 -137t40.5 -108.5q20 -55 39 -87.5t41 -52t48.5 -28.5t60.5 -17q26 -5 26 -18q0 -10 -9.5 -13t-21.5 -3q-18 0 -46.5 0.5t-65.5 0.5 q-30 0 -64 -1t-70 -4q-56 -4 -104 -13.5t-86.5 -19t-67.5 -17.5t-47 -8q-9 0 -14.5 5t-5.5 12q0 11 6 18t23 12q6 1 19 4.5t28 7.5t31.5 9.5t29.5 12.5q17 9 30.5 24.5t13.5 46.5q0 6 -1.5 18t-3.5 21q-15 59 -31 119.5t-32 115t-30.5 100.5t-26.5 76q-19 49 -44 74.5 t-56 39.5q-8 3 -27.5 11t-45.5 16.5t-56.5 18.5t-60 20t-55 18t-42.5 14q-20 -65 -39.5 -128.5t-36 -117t-29 -93.5t-17.5 -59q-6 -22 -8.5 -39.5t-2.5 -30.5q0 -25 7 -41t18.5 -27.5t27.5 -19.5l32 -16q15 -6 25.5 -14t10.5 -20q0 -8 -6 -13.5t-20 -5.5t-36 7t-48 17 t-55.5 21.5t-59.5 20.5q-23 7 -48.5 12.5t-49 8.5t-42 5.5t-29.5 2.5q-21 2 -30 6t-9 16q0 9 5.5 14.5t18.5 5.5q5 0 18 -1t30 -1q41 0 67.5 5t45 16t31 27.5t22.5 38.5t24 58.5t30.5 80t33.5 90t31.5 88t25.5 74t16 48.5q7 22 19 60t27 85t30.5 98t28.5 97.5t21 84.5t8 60 q0 17 -9 28.5t-30 11.5q-19 0 -42 -2.5t-46.5 -5t-45.5 -5t-38 -2.5q-31 0 -31 21t29 23q20 1 45.5 4.5t54.5 9t58 14.5t55 22q43 19 73.5 39t52 36t35 26t22.5 10zM459 704q27 -9 67.5 -23t82.5 -27t77.5 -22.5t51.5 -9.5q10 0 18 7.5t8 22.5q0 12 -8 45.5t-19 76t-24.5 89 t-25.5 86t-20 66t-8 29.5q-4 10 -9.5 29t-11.5 37.5t-12.5 32t-9.5 13.5q-4 0 -9.5 -9.5t-11 -22.5t-11.5 -28t-9 -28zM482 1750q26 0 51.5 -10.5t50 -25.5t49.5 -33.5t50 -33.5t50.5 -25.5t51.5 -10.5q22 0 38 8.5t26.5 19.5t18.5 20t13 9t9.5 -7.5t4.5 -23.5 q0 -30 -8 -59.5t-25.5 -54t-46 -40t-68.5 -15.5q-38 0 -70 14t-61 35.5t-53.5 47t-47 46.5t-43.5 35.5t-40 14.5q-16 0 -28 -9.5t-21 -23.5t-15.5 -31t-11.5 -30.5t-10 -23.5t-10 -10q-9 0 -9 26q0 19 8 51t26 63.5t48 54t73 22.5z" />
<glyph unicode="&#xc4;" d="M716 1410q6 0 13.5 -14t14.5 -33t13.5 -38t9.5 -28q18 -55 41 -123.5t48.5 -147t53.5 -162.5t56.5 -168.5t56 -167t52.5 -157t47.5 -137t40.5 -108.5q20 -55 39 -87.5t41 -52t48.5 -28.5t60.5 -17q26 -5 26 -18q0 -10 -9.5 -13t-21.5 -3q-18 0 -46.5 0.5t-65.5 0.5 q-30 0 -64 -1t-70 -4q-56 -4 -104 -13.5t-86.5 -19t-67.5 -17.5t-47 -8q-9 0 -14.5 5t-5.5 12q0 11 6 18t23 12q6 1 19 4.5t28 7.5t31.5 9.5t29.5 12.5q17 9 30.5 24.5t13.5 46.5q0 6 -1.5 18t-3.5 21q-15 59 -31 119.5t-32 115t-30.5 100.5t-26.5 76q-19 49 -44 74.5 t-56 39.5q-8 3 -27.5 11t-45.5 16.5t-56.5 18.5t-60 20t-55 18t-42.5 14q-20 -65 -39.5 -128.5t-36 -117t-29 -93.5t-17.5 -59q-6 -22 -8.5 -39.5t-2.5 -30.5q0 -25 7 -41t18.5 -27.5t27.5 -19.5l32 -16q15 -6 25.5 -14t10.5 -20q0 -8 -6 -13.5t-20 -5.5t-36 7t-48 17 t-55.5 21.5t-59.5 20.5q-23 7 -48.5 12.5t-49 8.5t-42 5.5t-29.5 2.5q-21 2 -30 6t-9 16q0 9 5.5 14.5t18.5 5.5q5 0 18 -1t30 -1q41 0 67.5 5t45 16t31 27.5t22.5 38.5t24 58.5t30.5 80t33.5 90t31.5 88t25.5 74t16 48.5q7 22 19 60t27 85t30.5 98t28.5 97.5t21 84.5t8 60 q0 17 -9 28.5t-30 11.5q-19 0 -42 -2.5t-46.5 -5t-45.5 -5t-38 -2.5q-31 0 -31 21t29 23q20 1 45.5 4.5t54.5 9t58 14.5t55 22q43 19 73.5 39t52 36t35 26t22.5 10zM459 704q27 -9 67.5 -23t82.5 -27t77.5 -22.5t51.5 -9.5q10 0 18 7.5t8 22.5q0 12 -8 45.5t-19 76t-24.5 89 t-25.5 86t-20 66t-8 29.5q-4 10 -9.5 29t-11.5 37.5t-12.5 32t-9.5 13.5q-4 0 -9.5 -9.5t-11 -22.5t-11.5 -28t-9 -28zM507 1752q23 0 42.5 -7t34.5 -20.5t24 -34.5t9 -48q0 -33 -9 -58t-25 -42.5t-37 -26t-46 -8.5q-49 0 -80.5 31t-31.5 92q0 29 9 52t25.5 38.5t38.5 23.5 t46 8zM801 1711q25 0 42.5 -8.5t28 -21.5t15.5 -29t5 -31q0 -47 -24 -78t-77 -31q-24 0 -40 7.5t-26.5 20.5t-15.5 31.5t-5 39.5t7 39t19 31.5t30 21.5t41 8z" />
<glyph unicode="&#xc5;" d="M716 1410q6 0 13.5 -14t14.5 -33t13.5 -38t9.5 -28q18 -55 41 -123.5t48.5 -147t53.5 -162.5t56.5 -168.5t56 -167t52.5 -157t47.5 -137t40.5 -108.5q20 -55 39 -87.5t41 -52t48.5 -28.5t60.5 -17q26 -5 26 -18q0 -10 -9.5 -13t-21.5 -3q-18 0 -46.5 0.5t-65.5 0.5 q-30 0 -64 -1t-70 -4q-56 -4 -104 -13.5t-86.5 -19t-67.5 -17.5t-47 -8q-9 0 -14.5 5t-5.5 12q0 11 6 18t23 12q6 1 19 4.5t28 7.5t31.5 9.5t29.5 12.5q17 9 30.5 24.5t13.5 46.5q0 6 -1.5 18t-3.5 21q-15 59 -31 119.5t-32 115t-30.5 100.5t-26.5 76q-19 49 -44 74.5 t-56 39.5q-8 3 -27.5 11t-45.5 16.5t-56.5 18.5t-60 20t-55 18t-42.5 14q-20 -65 -39.5 -128.5t-36 -117t-29 -93.5t-17.5 -59q-6 -22 -8.5 -39.5t-2.5 -30.5q0 -25 7 -41t18.5 -27.5t27.5 -19.5l32 -16q15 -6 25.5 -14t10.5 -20q0 -8 -6 -13.5t-20 -5.5t-36 7t-48 17 t-55.5 21.5t-59.5 20.5q-23 7 -48.5 12.5t-49 8.5t-42 5.5t-29.5 2.5q-21 2 -30 6t-9 16q0 9 5.5 14.5t18.5 5.5q5 0 18 -1t30 -1q41 0 67.5 5t45 16t31 27.5t22.5 38.5t24 58.5t30.5 80t33.5 90t31.5 88t25.5 74t16 48.5q7 22 19 60t27 85t30.5 98t28.5 97.5t21 84.5t8 60 q0 17 -9 28.5t-30 11.5q-19 0 -42 -2.5t-46.5 -5t-45.5 -5t-38 -2.5q-31 0 -31 21t29 23q20 1 45.5 4.5t54.5 9t58 14.5t55 22q43 19 73.5 39t52 36t35 26t22.5 10zM459 704q27 -9 67.5 -23t82.5 -27t77.5 -22.5t51.5 -9.5q10 0 18 7.5t8 22.5q0 12 -8 45.5t-19 76t-24.5 89 t-25.5 86t-20 66t-8 29.5q-4 10 -9.5 29t-11.5 37.5t-12.5 32t-9.5 13.5q-4 0 -9.5 -9.5t-11 -22.5t-11.5 -28t-9 -28zM643 1895q48 0 85.5 -16t62.5 -43.5t38 -67t13 -87.5t-14.5 -90t-40 -72.5t-61 -48t-76.5 -17.5q-94 0 -148.5 56t-54.5 160q0 54 17 96t45 71t63.5 44 t70.5 15zM647 1862q-25 0 -47.5 -10t-40 -30t-28 -49.5t-10.5 -66.5q0 -39 11.5 -66.5t30 -45t41.5 -25.5t46 -8q34 0 58.5 14t40.5 35.5t23 49t7 54.5q0 31 -9 58t-26.5 47t-41.5 31.5t-55 11.5z" />
<glyph unicode="&#xc6;" horiz-adv-x="2017" d="M1676 1457q3 0 7.5 -0.5t8 -5t5.5 -13t2 -24.5q0 -29 -3 -68.5t-9 -82.5t-13 -85.5t-15 -76t-14.5 -54.5t-11.5 -21q-6 0 -7 7.5t-1 17.5q0 16 0.5 28t1.5 25t1.5 29.5t0.5 41.5q0 21 -2 43.5t-5.5 42t-10.5 36t-17 26.5q-7 8 -21.5 11.5t-32.5 3.5q-19 0 -40 -3 t-41.5 -6.5t-38 -7.5t-30.5 -6q-12 -3 -29.5 -7.5t-36.5 -10.5t-37.5 -12t-32.5 -12q-23 -10 -32 -23.5t-9 -38.5q0 -12 2 -38t5.5 -58.5t7.5 -69.5t9 -73q1 -8 3.5 -25.5t6.5 -40.5t8 -49.5t8.5 -51.5t7.5 -47t6 -36q1 -7 6.5 -11t18.5 -4q16 0 43.5 3t57.5 9.5t57.5 17.5 t44.5 27q15 13 26 32.5t18.5 41t13.5 42.5t11 37.5t10.5 27t12.5 10.5t10 -7.5t3 -25.5q0 -23 -4 -59t-4 -85q0 -53 6 -98.5t13 -84l13 -71.5t6 -59q0 -21 -16 -21q-12 0 -20 18t-14.5 44.5t-14.5 56.5t-20 54q-12 25 -31.5 35t-45.5 10q-20 0 -43.5 -2t-46.5 -6t-43.5 -8.5 t-33.5 -8.5q-9 -4 -12.5 -9.5t-3.5 -16.5q0 -15 3 -40t7.5 -53t9 -57t8.5 -54q2 -10 7 -36.5t12 -61.5t16.5 -73.5t20 -72t21 -57t21.5 -27.5q5 -3 12.5 -3h14.5q23 0 54 6t66.5 17t72.5 26.5t71 34t62.5 39t47.5 42.5q29 34 45.5 78t26 86.5t12 77t3.5 49.5q1 34 8 44 t17 10q20 0 22 -36q1 -12 2.5 -33t3 -46.5t3.5 -53t5 -52.5q4 -47 12 -86.5t15.5 -70t13 -50.5t5.5 -27q0 -6 -14 -10t-36.5 -7.5t-50.5 -7t-57 -8.5q-86 -15 -161.5 -32.5t-144 -37.5t-130.5 -42.5t-122 -47.5q-23 -10 -56 -27.5t-70 -37.5t-75 -40.5t-72 -37.5t-61 -27.5 t-42 -10.5q-7 0 -12.5 3.5t-5.5 12.5q0 14 18 25t45 26t57 37t54 60q17 27 24 72.5t7 99.5q0 29 -2 69.5t-5.5 82t-8 79t-8.5 60.5q-4 24 -18.5 31t-36.5 7q-17 0 -37.5 -1t-41.5 -2.5t-39.5 -3t-30.5 -2.5q-44 -5 -73.5 -8.5t-49 -8t-31.5 -10t-20 -15.5 q-13 -13 -31.5 -45.5t-37 -70.5t-36 -75.5t-28.5 -61.5q-7 -15 -18 -38t-23 -50t-24 -56t-21.5 -56.5t-15.5 -51t-6 -38.5q0 -30 29.5 -40t88.5 -11q26 0 36 -6t10 -17q0 -10 -8 -17t-34 -7q-13 0 -39.5 2.5t-62.5 6.5t-78.5 7t-87.5 3q-41 0 -85 -4t-83.5 -8.5t-71 -8.5 t-46.5 -4q-36 0 -36 20q0 9 6.5 14.5t27.5 9.5q13 3 48.5 7.5t82 17t95.5 35t88 60.5q50 51 101 133.5t101.5 184t100.5 215t101 226.5q43 96 74.5 177.5t53.5 145.5t33 110t11 71q0 21 -9.5 31t-31.5 15q-18 4 -41 7.5t-48 6.5t-48.5 5.5t-43.5 4.5q-16 2 -25 4.5t-14 5 t-6.5 5.5t-1.5 6q0 8 12 11.5t44 3.5q26 0 71 2t101 6.5t120.5 12.5t128.5 21q115 21 208.5 49t163 52.5t113.5 40.5t59 16zM1018 1156q-4 0 -15 -27t-30 -77.5t-47.5 -123t-68.5 -164.5q-5 -11 -15 -34.5t-22.5 -53.5t-26 -63t-24 -61t-17.5 -47.5t-7 -24.5q0 -7 4.5 -8.5 t14.5 -1.5q43 0 71.5 0.5t57.5 2.5q38 2 71.5 3.5t57.5 6.5q18 4 28 11t15 17.5t6 25.5t1 34q0 29 -2 65.5l-4 73t-4.5 69t-3.5 52.5q-5 68 -10 127t-10 103t-10 69.5t-10 25.5z" />
<glyph unicode="&#xc7;" horiz-adv-x="1276" d="M1116 1454q12 0 15 -11.5t3 -30.5q0 -10 -1.5 -40.5t-1.5 -74.5q0 -78 6 -135.5t14.5 -100t18 -72t15.5 -50.5q5 -17 13 -41t8 -40q0 -13 -11 -13q-9 1 -21.5 12.5t-26.5 27t-27 33.5t-22 31q-38 51 -78.5 90.5t-89.5 67t-109 42t-136 14.5q-88 0 -164.5 -34t-133 -104 t-89.5 -175.5t-33 -247.5q0 -131 23 -233t61.5 -178t89.5 -128.5t106.5 -85t113 -47t108.5 -14.5q79 0 140.5 19.5t108.5 51.5t80.5 74t56 88t36 91.5t19.5 86.5q3 25 5 50.5t4.5 46.5t6 34t11.5 13q24 0 24 -85q0 -21 -3 -55t-11.5 -76t-25 -89t-43.5 -92.5t-65 -88 t-91.5 -76.5t-123 -56t-158.5 -27q-2 -12 -5 -29t-6.5 -33.5t-5.5 -30.5t-2 -22q0 -2 7.5 -4.5t20 -6t29.5 -9.5t36 -16q49 -24 78 -68t29 -109q0 -33 -12 -69t-37 -66.5t-64.5 -50t-94.5 -19.5q-52 0 -87.5 19t-58 45.5t-32.5 55.5t-10 50q0 7 2 16t8 9q8 0 17.5 -17.5 t25 -38t40 -37.5t62.5 -17q47 0 72.5 27t25.5 70q0 32 -9.5 54t-24.5 36t-32 22t-32 13t-25 8t-10 8t5.5 23.5t13 43t15.5 50.5t13 47l11 44h-8q-81 0 -164 17t-159 52t-142 89t-114.5 129t-77 172.5t-28.5 217.5q0 143 30.5 251.5t81.5 187.5t118 130.5t140.5 82.5 t148.5 44t142 13q51 0 92.5 -4.5t76.5 -9t64 -8.5t53 -4q43 0 71.5 18t41.5 69q9 35 12.5 68t7.5 58.5t10 41t18 15.5z" />
<glyph unicode="&#xc8;" horiz-adv-x="958" d="M843 1379q13 0 17.5 -5.5t4.5 -17.5q0 -15 -2 -34.5t-4.5 -48.5t-4.5 -69.5t-2 -98.5q0 -11 -3.5 -19.5t-12.5 -8.5q-14 0 -19 28q-4 17 -7 44.5t-9 66.5q-4 32 -13.5 50t-23.5 26t-30 10t-32 2q-33 0 -75 -3t-82.5 -7t-73 -8t-44.5 -8q-27 -6 -33.5 -21.5t-6.5 -36.5 q0 -19 1 -54t2.5 -79.5t4 -96.5l5 -104t4.5 -100.5t3 -87.5q19 -2 43 -4.5t47 -2.5q28 0 47 4t32 10.5t20.5 16.5t12.5 21q5 13 7 25t5 27q2 16 7 21t10 5q12 0 12 -21q0 -19 -2 -46t-4.5 -56t-4.5 -59.5t-2 -55.5q0 -23 0.5 -45.5t1 -42t1 -34.5t0.5 -23q0 -11 -4.5 -21.5 t-16.5 -10.5q-19 0 -22 34q-1 9 -1 24t-1 31.5t-3 33.5t-6 29q-4 14 -15 28t-34 21q-10 4 -25 6.5t-32 4t-35 3t-34 1.5q2 -42 6 -103.5t8.5 -130t9.5 -138t9.5 -127.5t7 -98t4.5 -49q3 -35 17.5 -51t45.5 -20q34 -5 82 -5q63 0 112 6.5t85 23.5t61.5 45t41.5 71 q10 23 16 45t10.5 40t9 29t9.5 11q7 0 9.5 -16t2.5 -37q0 -30 -2.5 -66.5t-8 -71.5t-11.5 -65.5t-12 -47.5q-11 -27 -29.5 -37.5t-49.5 -10.5q-27 0 -73 5t-106 11t-129.5 13t-142.5 11q-56 3 -107 5t-93 2.5t-73 0.5h-49q-23 0 -30.5 6.5t-7.5 16.5q0 13 9.5 18t23.5 5 q9 0 31.5 -2.5t54.5 -2.5q11 0 22 0.5t25 2.5q30 1 46.5 10.5t24 22.5t9 27.5t1.5 25.5q-2 81 -9 174t-15 181t-16 162t-13 118q-2 28 -6 68t-9.5 85.5t-12 93t-13 92.5t-12.5 83.5t-11 65.5q-7 32 -15 56t-17 41.5t-19.5 30t-23.5 21.5q-9 8 -21.5 15t-24 14t-19 13 t-7.5 14q0 13 22 13q12 0 33 -3t52.5 -6t75 -6t99.5 -3q44 0 98.5 4.5t112 10.5t114 14t102.5 14.5t77.5 11t39.5 4.5zM203 1794q16 0 34.5 -10.5t37 -29.5t38 -44t37.5 -53q20 -30 38.5 -59t32 -54t22 -45.5t8.5 -35.5q0 -10 -4 -16.5t-13 -6.5q-10 0 -29 12t-43 32t-51 45 t-52 52q-20 20 -40.5 41t-37 41.5t-26.5 40t-10 36.5q0 28 18.5 41t39.5 13z" />
<glyph unicode="&#xc9;" horiz-adv-x="958" d="M843 1379q13 0 17.5 -5.5t4.5 -17.5q0 -15 -2 -34.5t-4.5 -48.5t-4.5 -69.5t-2 -98.5q0 -11 -3.5 -19.5t-12.5 -8.5q-14 0 -19 28q-4 17 -7 44.5t-9 66.5q-4 32 -13.5 50t-23.5 26t-30 10t-32 2q-33 0 -75 -3t-82.5 -7t-73 -8t-44.5 -8q-27 -6 -33.5 -21.5t-6.5 -36.5 q0 -19 1 -54t2.5 -79.5t4 -96.5l5 -104t4.5 -100.5t3 -87.5q19 -2 43 -4.5t47 -2.5q28 0 47 4t32 10.5t20.5 16.5t12.5 21q5 13 7 25t5 27q2 16 7 21t10 5q12 0 12 -21q0 -19 -2 -46t-4.5 -56t-4.5 -59.5t-2 -55.5q0 -23 0.5 -45.5t1 -42t1 -34.5t0.5 -23q0 -11 -4.5 -21.5 t-16.5 -10.5q-19 0 -22 34q-1 9 -1 24t-1 31.5t-3 33.5t-6 29q-4 14 -15 28t-34 21q-10 4 -25 6.5t-32 4t-35 3t-34 1.5q2 -42 6 -103.5t8.5 -130t9.5 -138t9.5 -127.5t7 -98t4.5 -49q3 -35 17.5 -51t45.5 -20q34 -5 82 -5q63 0 112 6.5t85 23.5t61.5 45t41.5 71 q10 23 16 45t10.5 40t9 29t9.5 11q7 0 9.5 -16t2.5 -37q0 -30 -2.5 -66.5t-8 -71.5t-11.5 -65.5t-12 -47.5q-11 -27 -29.5 -37.5t-49.5 -10.5q-27 0 -73 5t-106 11t-129.5 13t-142.5 11q-56 3 -107 5t-93 2.5t-73 0.5h-49q-23 0 -30.5 6.5t-7.5 16.5q0 13 9.5 18t23.5 5 q9 0 31.5 -2.5t54.5 -2.5q11 0 22 0.5t25 2.5q30 1 46.5 10.5t24 22.5t9 27.5t1.5 25.5q-2 81 -9 174t-15 181t-16 162t-13 118q-2 28 -6 68t-9.5 85.5t-12 93t-13 92.5t-12.5 83.5t-11 65.5q-7 32 -15 56t-17 41.5t-19.5 30t-23.5 21.5q-9 8 -21.5 15t-24 14t-19 13 t-7.5 14q0 13 22 13q12 0 33 -3t52.5 -6t75 -6t99.5 -3q44 0 98.5 4.5t112 10.5t114 14t102.5 14.5t77.5 11t39.5 4.5zM649 1807q16 0 24 -10t8 -28q0 -15 -9.5 -38t-24.5 -50t-34 -56.5t-38 -55.5q-36 -48 -67 -79t-45 -31q-8 0 -10.5 4.5t-2.5 13.5q0 11 8.5 40t23.5 65.5 t34 76t41 72.5t45.5 54.5t46.5 21.5z" />
<glyph unicode="&#xca;" horiz-adv-x="958" d="M843 1379q13 0 17.5 -5.5t4.5 -17.5q0 -15 -2 -34.5t-4.5 -48.5t-4.5 -69.5t-2 -98.5q0 -11 -3.5 -19.5t-12.5 -8.5q-14 0 -19 28q-4 17 -7 44.5t-9 66.5q-4 32 -13.5 50t-23.5 26t-30 10t-32 2q-33 0 -75 -3t-82.5 -7t-73 -8t-44.5 -8q-27 -6 -33.5 -21.5t-6.5 -36.5 q0 -19 1 -54t2.5 -79.5t4 -96.5l5 -104t4.5 -100.5t3 -87.5q19 -2 43 -4.5t47 -2.5q28 0 47 4t32 10.5t20.5 16.5t12.5 21q5 13 7 25t5 27q2 16 7 21t10 5q12 0 12 -21q0 -19 -2 -46t-4.5 -56t-4.5 -59.5t-2 -55.5q0 -23 0.5 -45.5t1 -42t1 -34.5t0.5 -23q0 -11 -4.5 -21.5 t-16.5 -10.5q-19 0 -22 34q-1 9 -1 24t-1 31.5t-3 33.5t-6 29q-4 14 -15 28t-34 21q-10 4 -25 6.5t-32 4t-35 3t-34 1.5q2 -42 6 -103.5t8.5 -130t9.5 -138t9.5 -127.5t7 -98t4.5 -49q3 -35 17.5 -51t45.5 -20q34 -5 82 -5q63 0 112 6.5t85 23.5t61.5 45t41.5 71 q10 23 16 45t10.5 40t9 29t9.5 11q7 0 9.5 -16t2.5 -37q0 -30 -2.5 -66.5t-8 -71.5t-11.5 -65.5t-12 -47.5q-11 -27 -29.5 -37.5t-49.5 -10.5q-27 0 -73 5t-106 11t-129.5 13t-142.5 11q-56 3 -107 5t-93 2.5t-73 0.5h-49q-23 0 -30.5 6.5t-7.5 16.5q0 13 9.5 18t23.5 5 q9 0 31.5 -2.5t54.5 -2.5q11 0 22 0.5t25 2.5q30 1 46.5 10.5t24 22.5t9 27.5t1.5 25.5q-2 81 -9 174t-15 181t-16 162t-13 118q-2 28 -6 68t-9.5 85.5t-12 93t-13 92.5t-12.5 83.5t-11 65.5q-7 32 -15 56t-17 41.5t-19.5 30t-23.5 21.5q-9 8 -21.5 15t-24 14t-19 13 t-7.5 14q0 13 22 13q12 0 33 -3t52.5 -6t75 -6t99.5 -3q44 0 98.5 4.5t112 10.5t114 14t102.5 14.5t77.5 11t39.5 4.5zM482 1856q8 0 16 -11t24 -32q20 -28 36 -47.5t31 -36t30 -31.5l33 -33q41 -37 71.5 -59.5t51.5 -37t32 -24.5t11 -23q0 -9 -8 -14t-18 -5q-16 0 -37 5.5 t-44 15.5t-46.5 23.5t-44.5 28.5q-37 29 -64 54t-45 43.5t-29 29t-17 10.5q-5 0 -17 -12t-30 -32t-43 -46t-56 -55q-25 -22 -48 -41.5t-42.5 -34.5t-35 -23.5t-25.5 -8.5q-3 0 -5.5 1t-2.5 5q0 8 21 29t55 56t76 83t84 110q15 23 28.5 43.5t24 36t19 24.5t14.5 9z" />
<glyph unicode="&#xcb;" horiz-adv-x="958" d="M843 1379q13 0 17.5 -5.5t4.5 -17.5q0 -15 -2 -34.5t-4.5 -48.5t-4.5 -69.5t-2 -98.5q0 -11 -3.5 -19.5t-12.5 -8.5q-14 0 -19 28q-4 17 -7 44.5t-9 66.5q-4 32 -13.5 50t-23.5 26t-30 10t-32 2q-33 0 -75 -3t-82.5 -7t-73 -8t-44.5 -8q-27 -6 -33.5 -21.5t-6.5 -36.5 q0 -19 1 -54t2.5 -79.5t4 -96.5l5 -104t4.5 -100.5t3 -87.5q19 -2 43 -4.5t47 -2.5q28 0 47 4t32 10.5t20.5 16.5t12.5 21q5 13 7 25t5 27q2 16 7 21t10 5q12 0 12 -21q0 -19 -2 -46t-4.5 -56t-4.5 -59.5t-2 -55.5q0 -23 0.5 -45.5t1 -42t1 -34.5t0.5 -23q0 -11 -4.5 -21.5 t-16.5 -10.5q-19 0 -22 34q-1 9 -1 24t-1 31.5t-3 33.5t-6 29q-4 14 -15 28t-34 21q-10 4 -25 6.5t-32 4t-35 3t-34 1.5q2 -42 6 -103.5t8.5 -130t9.5 -138t9.5 -127.5t7 -98t4.5 -49q3 -35 17.5 -51t45.5 -20q34 -5 82 -5q63 0 112 6.5t85 23.5t61.5 45t41.5 71 q10 23 16 45t10.5 40t9 29t9.5 11q7 0 9.5 -16t2.5 -37q0 -30 -2.5 -66.5t-8 -71.5t-11.5 -65.5t-12 -47.5q-11 -27 -29.5 -37.5t-49.5 -10.5q-27 0 -73 5t-106 11t-129.5 13t-142.5 11q-56 3 -107 5t-93 2.5t-73 0.5h-49q-23 0 -30.5 6.5t-7.5 16.5q0 13 9.5 18t23.5 5 q9 0 31.5 -2.5t54.5 -2.5q11 0 22 0.5t25 2.5q30 1 46.5 10.5t24 22.5t9 27.5t1.5 25.5q-2 81 -9 174t-15 181t-16 162t-13 118q-2 28 -6 68t-9.5 85.5t-12 93t-13 92.5t-12.5 83.5t-11 65.5q-7 32 -15 56t-17 41.5t-19.5 30t-23.5 21.5q-9 8 -21.5 15t-24 14t-19 13 t-7.5 14q0 13 22 13q12 0 33 -3t52.5 -6t75 -6t99.5 -3q44 0 98.5 4.5t112 10.5t114 14t102.5 14.5t77.5 11t39.5 4.5zM334 1704q23 0 42.5 -7t34.5 -20.5t24 -34.5t9 -48q0 -33 -9 -58t-25 -42.5t-37 -26t-46 -8.5q-49 0 -80.5 31t-31.5 92q0 29 9 52t25.5 38.5t38.5 23.5 t46 8zM628 1663q25 0 42.5 -8.5t28 -21.5t15.5 -29t5 -31q0 -47 -24 -78t-77 -31q-24 0 -40 7.5t-26.5 20.5t-15.5 31.5t-5 39.5t7 39t19 31.5t30 21.5t41 8z" />
<glyph unicode="&#xcc;" horiz-adv-x="755" d="M771 1456q29 0 45 -3t25 -7.5t11.5 -9.5t2.5 -11q0 -15 -18 -23t-59 -8q-42 0 -78 -2.5t-68 -12.5q-29 -7 -52.5 -22t-42.5 -39t-33 -59.5t-24 -85.5q-11 -53 -22.5 -138t-23 -188t-21.5 -217t-17.5 -226.5t-12 -217t-4.5 -186.5q0 -47 8 -74.5t20 -41.5t25.5 -19 t23.5 -8q24 -7 54 -7.5t51 -0.5q41 0 41 -23q0 -10 -9.5 -19t-42.5 -9q-17 0 -38 1t-47 1q-37 0 -82 -3t-101 -10q-54 -8 -107 -25t-99.5 -33.5t-82.5 -29t-57 -12.5q-22 0 -22 19q0 14 20 22q7 2 35 12t62.5 22.5t67 25.5t49.5 23q25 14 41.5 32t26.5 39t14.5 46.5 t7.5 54.5q1 34 3 96t3 142.5t1.5 175t0.5 191.5q0 79 -0.5 156.5t-1 148t-1.5 129t-2 101.5q-2 63 -9 103t-18 64.5t-24.5 38t-29.5 23.5q-26 17 -68 25t-85 8q-20 0 -28 7t-8 17q0 5 1.5 9.5t6.5 8.5t15.5 6.5t28.5 2.5q22 0 58.5 -2.5t80.5 -5t92.5 -5t96.5 -2.5 q51 0 106 5.5t109.5 12t106.5 12t98 5.5zM208 1876q16 0 34.5 -10.5t37 -29.5t38 -44t37.5 -53q20 -30 38.5 -59t32 -54t22 -45.5t8.5 -35.5q0 -10 -4 -16.5t-13 -6.5q-10 0 -29 12t-43 32t-51 45t-52 52q-20 20 -40.5 41t-37 41.5t-26.5 40t-10 36.5q0 28 18.5 41t39.5 13z " />
<glyph unicode="&#xcd;" horiz-adv-x="755" d="M771 1456q29 0 45 -3t25 -7.5t11.5 -9.5t2.5 -11q0 -15 -18 -23t-59 -8q-42 0 -78 -2.5t-68 -12.5q-29 -7 -52.5 -22t-42.5 -39t-33 -59.5t-24 -85.5q-11 -53 -22.5 -138t-23 -188t-21.5 -217t-17.5 -226.5t-12 -217t-4.5 -186.5q0 -47 8 -74.5t20 -41.5t25.5 -19 t23.5 -8q24 -7 54 -7.5t51 -0.5q41 0 41 -23q0 -10 -9.5 -19t-42.5 -9q-17 0 -38 1t-47 1q-37 0 -82 -3t-101 -10q-54 -8 -107 -25t-99.5 -33.5t-82.5 -29t-57 -12.5q-22 0 -22 19q0 14 20 22q7 2 35 12t62.5 22.5t67 25.5t49.5 23q25 14 41.5 32t26.5 39t14.5 46.5 t7.5 54.5q1 34 3 96t3 142.5t1.5 175t0.5 191.5q0 79 -0.5 156.5t-1 148t-1.5 129t-2 101.5q-2 63 -9 103t-18 64.5t-24.5 38t-29.5 23.5q-26 17 -68 25t-85 8q-20 0 -28 7t-8 17q0 5 1.5 9.5t6.5 8.5t15.5 6.5t28.5 2.5q22 0 58.5 -2.5t80.5 -5t92.5 -5t96.5 -2.5 q51 0 106 5.5t109.5 12t106.5 12t98 5.5zM625 1872q16 0 24 -10t8 -28q0 -15 -9.5 -38t-24.5 -50t-34 -56.5t-38 -55.5q-36 -48 -67 -79t-45 -31q-8 0 -10.5 4.5t-2.5 13.5q0 11 8.5 40t23.5 65.5t34 76t41 72.5t45.5 54.5t46.5 21.5z" />
<glyph unicode="&#xce;" horiz-adv-x="755" d="M771 1456q29 0 45 -3t25 -7.5t11.5 -9.5t2.5 -11q0 -15 -18 -23t-59 -8q-42 0 -78 -2.5t-68 -12.5q-29 -7 -52.5 -22t-42.5 -39t-33 -59.5t-24 -85.5q-11 -53 -22.5 -138t-23 -188t-21.5 -217t-17.5 -226.5t-12 -217t-4.5 -186.5q0 -47 8 -74.5t20 -41.5t25.5 -19 t23.5 -8q24 -7 54 -7.5t51 -0.5q41 0 41 -23q0 -10 -9.5 -19t-42.5 -9q-17 0 -38 1t-47 1q-37 0 -82 -3t-101 -10q-54 -8 -107 -25t-99.5 -33.5t-82.5 -29t-57 -12.5q-22 0 -22 19q0 14 20 22q7 2 35 12t62.5 22.5t67 25.5t49.5 23q25 14 41.5 32t26.5 39t14.5 46.5 t7.5 54.5q1 34 3 96t3 142.5t1.5 175t0.5 191.5q0 79 -0.5 156.5t-1 148t-1.5 129t-2 101.5q-2 63 -9 103t-18 64.5t-24.5 38t-29.5 23.5q-26 17 -68 25t-85 8q-20 0 -28 7t-8 17q0 5 1.5 9.5t6.5 8.5t15.5 6.5t28.5 2.5q22 0 58.5 -2.5t80.5 -5t92.5 -5t96.5 -2.5 q51 0 106 5.5t109.5 12t106.5 12t98 5.5zM426 1911q8 0 16 -11t24 -32q20 -28 36 -47.5t31 -36t30 -31.5l33 -33q41 -37 71.5 -59.5t51.5 -37t32 -24.5t11 -23q0 -9 -8 -14t-18 -5q-16 0 -37 5.5t-44 15.5t-46.5 23.5t-44.5 28.5q-37 29 -64 54t-45 43.5t-29 29t-17 10.5 q-5 0 -17 -12t-30 -32t-43 -46t-56 -55q-25 -22 -48 -41.5t-42.5 -34.5t-35 -23.5t-25.5 -8.5q-3 0 -5.5 1t-2.5 5q0 8 21 29t55 56t76 83t84 110q15 23 28.5 43.5t24 36t19 24.5t14.5 9z" />
<glyph unicode="&#xcf;" horiz-adv-x="755" d="M771 1456q29 0 45 -3t25 -7.5t11.5 -9.5t2.5 -11q0 -15 -18 -23t-59 -8q-42 0 -78 -2.5t-68 -12.5q-29 -7 -52.5 -22t-42.5 -39t-33 -59.5t-24 -85.5q-11 -53 -22.5 -138t-23 -188t-21.5 -217t-17.5 -226.5t-12 -217t-4.5 -186.5q0 -47 8 -74.5t20 -41.5t25.5 -19 t23.5 -8q24 -7 54 -7.5t51 -0.5q41 0 41 -23q0 -10 -9.5 -19t-42.5 -9q-17 0 -38 1t-47 1q-37 0 -82 -3t-101 -10q-54 -8 -107 -25t-99.5 -33.5t-82.5 -29t-57 -12.5q-22 0 -22 19q0 14 20 22q7 2 35 12t62.5 22.5t67 25.5t49.5 23q25 14 41.5 32t26.5 39t14.5 46.5 t7.5 54.5q1 34 3 96t3 142.5t1.5 175t0.5 191.5q0 79 -0.5 156.5t-1 148t-1.5 129t-2 101.5q-2 63 -9 103t-18 64.5t-24.5 38t-29.5 23.5q-26 17 -68 25t-85 8q-20 0 -28 7t-8 17q0 5 1.5 9.5t6.5 8.5t15.5 6.5t28.5 2.5q22 0 58.5 -2.5t80.5 -5t92.5 -5t96.5 -2.5 q51 0 106 5.5t109.5 12t106.5 12t98 5.5zM264 1795q23 0 42.5 -7t34.5 -20.5t24 -34.5t9 -48q0 -33 -9 -58t-25 -42.5t-37 -26t-46 -8.5q-49 0 -80.5 31t-31.5 92q0 29 9 52t25.5 38.5t38.5 23.5t46 8zM558 1754q25 0 42.5 -8.5t28 -21.5t15.5 -29t5 -31q0 -47 -24 -78 t-77 -31q-24 0 -40 7.5t-26.5 20.5t-15.5 31.5t-5 39.5t7 39t19 31.5t30 21.5t41 8z" />
<glyph unicode="&#xd0;" horiz-adv-x="1257" d="M348 991q48 4 89 9.5t79 11.5t76 10t81 4q70 0 142.5 -12t139 -39t125 -69t102 -104t68.5 -144t25 -187q0 -100 -26.5 -182t-73 -148t-109 -116t-135.5 -85q-91 -43 -174 -65t-159 -34.5t-145 -22.5t-133 -28t-115.5 -44.5t-90.5 -50.5t-64.5 -41t-36.5 -17q-13 0 -13 12 t22.5 29.5t55 41.5t68 54.5t62.5 69.5q21 31 34 87t19 125t7.5 144.5t1.5 147.5q-30 -5 -61 -10t-59.5 -8.5t-53 -5.5t-41.5 -2q-8 0 -17.5 5.5t-9.5 20.5q0 17 10.5 23t21.5 8q90 7 212 25q2 48 3.5 112t1.5 129q0 53 -1 103t-6 93q-1 26 -8.5 41.5t-19 24t-26.5 11.5 t-33 4t-36.5 1t-38.5 3q-21 2 -28.5 11.5t-7.5 20.5t10 21.5t41 10.5q12 0 38.5 -2t66.5 -2q49 0 120 5zM604 453q17 0 25 -6t8 -14q0 -15 -17 -23t-39 -13q-27 -6 -54.5 -10.5t-67.5 -9.5q0 -36 1 -81.5t3 -93t5.5 -94.5t7.5 -85q4 -35 13 -57t23 -35.5t33 -18.5t45 -5 q23 0 53.5 8t62.5 22.5t62.5 34.5t55.5 43q31 30 58 71.5t46.5 97t30.5 127.5t11 165q0 101 -27 189t-79 154t-127.5 103.5t-173.5 37.5q-29 0 -53 -5t-34 -14q-6 -7 -10 -22.5t-5.5 -33t-2 -35.5t-0.5 -29v-389q55 9 92 15t54 6z" />
<glyph unicode="&#xd1;" horiz-adv-x="1375" d="M399 1233q18 -7 47.5 -34t68 -69t85 -95t98.5 -109q39 -42 77 -85.5t73.5 -83.5t67 -75.5t57 -62t45 -41.5t29.5 -15q7 0 12 14t9 37.5t6.5 53t4 60t2.5 59t1 49.5q0 28 -1.5 63.5t-4 68.5t-7 60.5t-11.5 41.5q-10 20 -22.5 33.5t-31 22.5t-44.5 14t-64 9 q-24 3 -33.5 8.5t-9.5 17.5t9.5 15.5t20.5 3.5q8 0 25.5 -1.5t41 -2.5t50.5 -2t56 -1q46 0 91.5 6.5t85 14.5t70.5 15t48 7q25 0 25 -20q0 -14 -10.5 -20t-22.5 -8l-27.5 -5.5t-24.5 -5t-24.5 -6t-27.5 -9.5q-13 -4 -25 -12.5t-23 -22.5t-19.5 -34.5t-13.5 -49.5 q-6 -30 -9.5 -84t-7 -121t-5.5 -140.5t-4 -142t-3.5 -126.5t-2.5 -95q-2 -133 -7.5 -197t-17.5 -64q-6 0 -25 17.5t-45 46.5t-58 67t-65.5 79.5t-67.5 85t-63 81.5t-53 69.5t-38 50.5q-164 227 -252 343.5t-109 116.5q-4 0 -6 -25t-3.5 -68t-2 -100t-0.5 -122 q0 -83 0.5 -171.5t0.5 -167.5t0.5 -140t0.5 -89q0 -49 1.5 -101.5t5 -99t10.5 -84.5t17 -59q16 -30 33.5 -50t37 -34.5t41.5 -23.5t45 -16q19 -6 28 -11.5t9 -14.5q0 -15 -26 -15q-15 0 -36.5 5t-47.5 12t-54.5 15.5t-56.5 15.5q-32 8 -64 12t-62 4q-20 0 -41.5 -1.5 t-40 -2.5t-32 -2.5t-18.5 -1.5q-16 0 -31.5 2.5t-15.5 17.5q0 10 11 13t29 3q24 0 55 6.5t57 23.5q35 23 53.5 62.5t25.5 99.5q3 29 5 59.5t3.5 68t2.5 85t1 110.5q0 27 -1 58t-1 64q0 23 -0.5 63.5t-0.5 93t-1 112.5t-2.5 120.5t-4 118.5t-6.5 107.5t-10 85.5t-15 53 q-9 18 -25 28t-37.5 15t-49 6.5t-58.5 2.5q-20 0 -34 5.5t-14 22.5q0 14 9 20t24 6h72q51 0 129 5q36 3 72 8t62 5q9 0 17.5 -1.5t13.5 -4.5zM703 1651q26 0 51.5 -10.5t50 -25.5t49.5 -33.5t50 -33.5t50.5 -25.5t51.5 -10.5q22 0 38 8.5t26.5 19.5t18.5 20t13 9t9.5 -7.5 t4.5 -23.5q0 -30 -8 -59.5t-25.5 -54t-46 -40t-68.5 -15.5q-38 0 -70 14t-61 35.5t-53.5 47t-47 46.5t-43.5 35.5t-40 14.5q-16 0 -28 -9.5t-21 -23.5t-15.5 -31t-11.5 -30.5t-10 -23.5t-10 -10q-9 0 -9 26q0 19 8 51t26 63.5t48 54t73 22.5z" />
<glyph unicode="&#xd2;" horiz-adv-x="1285" d="M614 1311q149 0 270.5 -47t208.5 -131.5t134.5 -200.5t47.5 -256q0 -79 -16.5 -157t-50.5 -148.5t-85.5 -131t-121 -105t-157 -70t-194.5 -25.5q-159 0 -279 48.5t-200.5 134.5t-121.5 205t-41 259q0 137 44.5 252t125 198t191.5 129t245 46zM580 1268q-83 0 -149 -37 t-112.5 -105.5t-71.5 -165.5t-25 -218q0 -70 9.5 -145.5t30.5 -148.5t55.5 -138.5t84 -115.5t115.5 -79t151 -29q101 0 169.5 40.5t111 107t61.5 151t19 171.5q0 73 -8 154.5t-27.5 160.5t-53 151t-83.5 126.5t-118.5 87t-158.5 32.5zM359 1823q16 0 34.5 -10.5t37 -29.5 t38 -44t37.5 -53q20 -30 38.5 -59t32 -54t22 -45.5t8.5 -35.5q0 -10 -4 -16.5t-13 -6.5q-10 0 -29 12t-43 32t-51 45t-52 52q-20 20 -40.5 41t-37 41.5t-26.5 40t-10 36.5q0 28 18.5 41t39.5 13z" />
<glyph unicode="&#xd3;" horiz-adv-x="1285" d="M614 1311q149 0 270.5 -47t208.5 -131.5t134.5 -200.5t47.5 -256q0 -79 -16.5 -157t-50.5 -148.5t-85.5 -131t-121 -105t-157 -70t-194.5 -25.5q-159 0 -279 48.5t-200.5 134.5t-121.5 205t-41 259q0 137 44.5 252t125 198t191.5 129t245 46zM580 1268q-83 0 -149 -37 t-112.5 -105.5t-71.5 -165.5t-25 -218q0 -70 9.5 -145.5t30.5 -148.5t55.5 -138.5t84 -115.5t115.5 -79t151 -29q101 0 169.5 40.5t111 107t61.5 151t19 171.5q0 73 -8 154.5t-27.5 160.5t-53 151t-83.5 126.5t-118.5 87t-158.5 32.5zM744 1800q16 0 24 -10t8 -28 q0 -15 -9.5 -38t-24.5 -50t-34 -56.5t-38 -55.5q-36 -48 -67 -79t-45 -31q-8 0 -10.5 4.5t-2.5 13.5q0 11 8.5 40t23.5 65.5t34 76t41 72.5t45.5 54.5t46.5 21.5z" />
<glyph unicode="&#xd4;" horiz-adv-x="1285" d="M614 1311q149 0 270.5 -47t208.5 -131.5t134.5 -200.5t47.5 -256q0 -79 -16.5 -157t-50.5 -148.5t-85.5 -131t-121 -105t-157 -70t-194.5 -25.5q-159 0 -279 48.5t-200.5 134.5t-121.5 205t-41 259q0 137 44.5 252t125 198t191.5 129t245 46zM580 1268q-83 0 -149 -37 t-112.5 -105.5t-71.5 -165.5t-25 -218q0 -70 9.5 -145.5t30.5 -148.5t55.5 -138.5t84 -115.5t115.5 -79t151 -29q101 0 169.5 40.5t111 107t61.5 151t19 171.5q0 73 -8 154.5t-27.5 160.5t-53 151t-83.5 126.5t-118.5 87t-158.5 32.5zM593 1794q8 0 16 -11t24 -32 q20 -28 36 -47.5t31 -36t30 -31.5l33 -33q41 -37 71.5 -59.5t51.5 -37t32 -24.5t11 -23q0 -9 -8 -14t-18 -5q-16 0 -37 5.5t-44 15.5t-46.5 23.5t-44.5 28.5q-37 29 -64 54t-45 43.5t-29 29t-17 10.5q-5 0 -17 -12t-30 -32t-43 -46t-56 -55q-25 -22 -48 -41.5t-42.5 -34.5 t-35 -23.5t-25.5 -8.5q-3 0 -5.5 1t-2.5 5q0 8 21 29t55 56t76 83t84 110q15 23 28.5 43.5t24 36t19 24.5t14.5 9z" />
<glyph unicode="&#xd5;" horiz-adv-x="1285" d="M614 1311q149 0 270.5 -47t208.5 -131.5t134.5 -200.5t47.5 -256q0 -79 -16.5 -157t-50.5 -148.5t-85.5 -131t-121 -105t-157 -70t-194.5 -25.5q-159 0 -279 48.5t-200.5 134.5t-121.5 205t-41 259q0 137 44.5 252t125 198t191.5 129t245 46zM580 1268q-83 0 -149 -37 t-112.5 -105.5t-71.5 -165.5t-25 -218q0 -70 9.5 -145.5t30.5 -148.5t55.5 -138.5t84 -115.5t115.5 -79t151 -29q101 0 169.5 40.5t111 107t61.5 151t19 171.5q0 73 -8 154.5t-27.5 160.5t-53 151t-83.5 126.5t-118.5 87t-158.5 32.5zM514 1719q26 0 51.5 -10.5t50 -25.5 t49.5 -33.5t50 -33.5t50.5 -25.5t51.5 -10.5q22 0 38 8.5t26.5 19.5t18.5 20t13 9t9.5 -7.5t4.5 -23.5q0 -30 -8 -59.5t-25.5 -54t-46 -40t-68.5 -15.5q-38 0 -70 14t-61 35.5t-53.5 47t-47 46.5t-43.5 35.5t-40 14.5q-16 0 -28 -9.5t-21 -23.5t-15.5 -31t-11.5 -30.5 t-10 -23.5t-10 -10q-9 0 -9 26q0 19 8 51t26 63.5t48 54t73 22.5z" />
<glyph unicode="&#xd6;" horiz-adv-x="1285" d="M614 1311q149 0 270.5 -47t208.5 -131.5t134.5 -200.5t47.5 -256q0 -79 -16.5 -157t-50.5 -148.5t-85.5 -131t-121 -105t-157 -70t-194.5 -25.5q-159 0 -279 48.5t-200.5 134.5t-121.5 205t-41 259q0 137 44.5 252t125 198t191.5 129t245 46zM580 1268q-83 0 -149 -37 t-112.5 -105.5t-71.5 -165.5t-25 -218q0 -70 9.5 -145.5t30.5 -148.5t55.5 -138.5t84 -115.5t115.5 -79t151 -29q101 0 169.5 40.5t111 107t61.5 151t19 171.5q0 73 -8 154.5t-27.5 160.5t-53 151t-83.5 126.5t-118.5 87t-158.5 32.5zM492 1742q23 0 42.5 -7t34.5 -20.5 t24 -34.5t9 -48q0 -33 -9 -58t-25 -42.5t-37 -26t-46 -8.5q-49 0 -80.5 31t-31.5 92q0 29 9 52t25.5 38.5t38.5 23.5t46 8zM786 1701q25 0 42.5 -8.5t28 -21.5t15.5 -29t5 -31q0 -47 -24 -78t-77 -31q-24 0 -40 7.5t-26.5 20.5t-15.5 31.5t-5 39.5t7 39t19 31.5t30 21.5 t41 8z" />
<glyph unicode="&#xd7;" horiz-adv-x="930" d="M181 803q11 0 25 -8t31.5 -21.5t37.5 -31t42 -36.5q21 -20 36.5 -33.5t27.5 -23.5t22 -18t20 -15q5 -4 17 -12t19 -8q5 0 18.5 14.5t32.5 38t41 52t43 56.5t38 51.5t27 36.5q12 18 34.5 46.5t46.5 55.5t46 47.5t35 20.5q12 0 17 -7.5t5 -16.5q0 -23 -38 -73t-117 -142 q-38 -44 -70 -83t-55 -68.5t-36 -49t-13 -25.5q0 -4 3 -7.5t6 -5.5q10 -10 35 -30t55 -41.5t59 -44t49 -37.5q34 -27 34 -47q0 -7 -4.5 -13t-18.5 -6q-15 0 -39 13t-50 31.5t-52.5 40t-50 40t-41.5 31.5t-26 13q-6 0 -22.5 -18.5t-38.5 -47.5t-47 -64t-47.5 -68.5t-40 -59.5 t-24.5 -37q-8 -11 -18 -27t-22 -34.5t-25.5 -37t-26.5 -33.5t-25.5 -24.5t-23.5 -9.5q-12 0 -19 8t-7 21q0 19 15.5 48t39 62.5t50.5 69t52 66.5q5 7 18.5 24.5t29.5 39.5t34 47.5t32.5 48t24 40t9.5 26.5q0 6 -12.5 19.5t-29 30.5t-34.5 33.5t-28 27.5q-11 12 -31.5 32 t-41 42.5t-35.5 42.5t-15 31q0 5 3.5 11t13.5 6z" />
<glyph unicode="&#xd8;" horiz-adv-x="1285" d="M1223 1512q14 0 14 -17q0 -13 -19 -49t-48 -83t-63 -97.5t-63 -92.5q109 -84 170 -211t61 -286q0 -79 -16.5 -157t-50.5 -148.5t-85.5 -131t-121 -105t-157 -70t-194.5 -25.5q-109 0 -199.5 23t-163.5 66q-28 -41 -54 -77.5t-47 -65.5q-29 -38 -47.5 -62.5t-35.5 -24.5 q-7 0 -13 5t-6 16q0 21 26 64.5t69 103.5l55 78q-113 86 -169.5 220t-56.5 301q0 137 44.5 252t125 198t191.5 129t245 46q108 0 202 -25.5t172 -72.5l112 156q45 64 74.5 103.5t48.5 39.5zM580 1268q-83 0 -149 -37t-112.5 -105.5t-71.5 -165.5t-25 -218q0 -55 6 -113 t18 -116.5t31.5 -114t47.5 -104.5l74 105q49 71 110 155.5t126.5 175t133.5 183t131 179.5q-26 39 -58 71.5t-72 55.5t-87 36t-103 13zM1029 556q0 56 -4.5 116t-15 120.5t-28 119t-42.5 112.5q-40 -56 -89 -124t-101.5 -140t-106.5 -145.5t-104.5 -142.5t-95 -129.5 t-77.5 -106.5q51 -67 125.5 -108.5t177.5 -41.5q101 0 169.5 40.5t111 107t61.5 151t19 171.5z" />
<glyph unicode="&#xd9;" horiz-adv-x="1188" d="M712 1356q22 0 22 -18q0 -12 -11.5 -22.5t-39.5 -23.5q-15 -7 -33 -16t-37 -21.5t-37.5 -28.5t-35.5 -37q-22 -27 -38 -69t-27 -95.5t-16.5 -116.5t-5.5 -132q0 -75 5 -149.5t17 -142t32.5 -124.5t50 -99t70.5 -65.5t96 -23.5q70 0 120 37t82 95t48 128.5t16 138.5 q0 18 -0.5 47.5t-2 66t-4.5 75t-8.5 74.5t-15 66t-22.5 48q-12 17 -29 31.5t-41 26t-56.5 20t-76.5 15.5q-35 5 -53.5 12t-18.5 26q0 16 14.5 21.5t40.5 5.5q25 0 54 -3t62 -7t70 -7.5t77 -3.5q37 0 74 4.5t71 9t64 8.5t53 4q30 0 40 -5t10 -14q0 -10 -12 -13.5t-31 -4.5 q-20 -2 -43 -4t-46 -7.5t-42.5 -17.5t-32.5 -34q-17 -27 -24 -75t-9.5 -106t-2.5 -120.5t-3 -119.5q-2 -34 -8 -85.5t-20 -109t-39.5 -115t-66 -104t-99.5 -75.5t-140 -29q-79 0 -143.5 23.5t-116 66.5t-88.5 102t-60 130q-15 43 -23.5 96t-14 112t-8.5 121t-4 124 q-2 53 -5 95.5t-10.5 75.5t-21 55t-34.5 35q-23 14 -48 20t-63 6q-33 0 -33 24q0 19 28 24q37 6 74 11t76.5 11t81.5 13t88 18q81 20 142.5 41.5t105.5 39t72 29t44 11.5zM519 1857q16 0 34.5 -10.5t37 -29.5t38 -44t37.5 -53q20 -30 38.5 -59t32 -54t22 -45.5t8.5 -35.5 q0 -10 -4 -16.5t-13 -6.5q-10 0 -29 12t-43 32t-51 45t-52 52q-20 20 -40.5 41t-37 41.5t-26.5 40t-10 36.5q0 28 18.5 41t39.5 13z" />
<glyph unicode="&#xda;" horiz-adv-x="1188" d="M712 1356q22 0 22 -18q0 -12 -11.5 -22.5t-39.5 -23.5q-15 -7 -33 -16t-37 -21.5t-37.5 -28.5t-35.5 -37q-22 -27 -38 -69t-27 -95.5t-16.5 -116.5t-5.5 -132q0 -75 5 -149.5t17 -142t32.5 -124.5t50 -99t70.5 -65.5t96 -23.5q70 0 120 37t82 95t48 128.5t16 138.5 q0 18 -0.5 47.5t-2 66t-4.5 75t-8.5 74.5t-15 66t-22.5 48q-12 17 -29 31.5t-41 26t-56.5 20t-76.5 15.5q-35 5 -53.5 12t-18.5 26q0 16 14.5 21.5t40.5 5.5q25 0 54 -3t62 -7t70 -7.5t77 -3.5q37 0 74 4.5t71 9t64 8.5t53 4q30 0 40 -5t10 -14q0 -10 -12 -13.5t-31 -4.5 q-20 -2 -43 -4t-46 -7.5t-42.5 -17.5t-32.5 -34q-17 -27 -24 -75t-9.5 -106t-2.5 -120.5t-3 -119.5q-2 -34 -8 -85.5t-20 -109t-39.5 -115t-66 -104t-99.5 -75.5t-140 -29q-79 0 -143.5 23.5t-116 66.5t-88.5 102t-60 130q-15 43 -23.5 96t-14 112t-8.5 121t-4 124 q-2 53 -5 95.5t-10.5 75.5t-21 55t-34.5 35q-23 14 -48 20t-63 6q-33 0 -33 24q0 19 28 24q37 6 74 11t76.5 11t81.5 13t88 18q81 20 142.5 41.5t105.5 39t72 29t44 11.5zM1072 1657q16 0 24 -10t8 -28q0 -15 -9.5 -38t-24.5 -50t-34 -56.5t-38 -55.5q-36 -48 -67 -79 t-45 -31q-8 0 -10.5 4.5t-2.5 13.5q0 11 8.5 40t23.5 65.5t34 76t41 72.5t45.5 54.5t46.5 21.5z" />
<glyph unicode="&#xdb;" horiz-adv-x="1188" d="M712 1356q22 0 22 -18q0 -12 -11.5 -22.5t-39.5 -23.5q-15 -7 -33 -16t-37 -21.5t-37.5 -28.5t-35.5 -37q-22 -27 -38 -69t-27 -95.5t-16.5 -116.5t-5.5 -132q0 -75 5 -149.5t17 -142t32.5 -124.5t50 -99t70.5 -65.5t96 -23.5q70 0 120 37t82 95t48 128.5t16 138.5 q0 18 -0.5 47.5t-2 66t-4.5 75t-8.5 74.5t-15 66t-22.5 48q-12 17 -29 31.5t-41 26t-56.5 20t-76.5 15.5q-35 5 -53.5 12t-18.5 26q0 16 14.5 21.5t40.5 5.5q25 0 54 -3t62 -7t70 -7.5t77 -3.5q37 0 74 4.5t71 9t64 8.5t53 4q30 0 40 -5t10 -14q0 -10 -12 -13.5t-31 -4.5 q-20 -2 -43 -4t-46 -7.5t-42.5 -17.5t-32.5 -34q-17 -27 -24 -75t-9.5 -106t-2.5 -120.5t-3 -119.5q-2 -34 -8 -85.5t-20 -109t-39.5 -115t-66 -104t-99.5 -75.5t-140 -29q-79 0 -143.5 23.5t-116 66.5t-88.5 102t-60 130q-15 43 -23.5 96t-14 112t-8.5 121t-4 124 q-2 53 -5 95.5t-10.5 75.5t-21 55t-34.5 35q-23 14 -48 20t-63 6q-33 0 -33 24q0 19 28 24q37 6 74 11t76.5 11t81.5 13t88 18q81 20 142.5 41.5t105.5 39t72 29t44 11.5zM719 1755q8 0 16 -11t24 -32q20 -28 36 -47.5t31 -36t30 -31.5l33 -33q41 -37 71.5 -59.5t51.5 -37 t32 -24.5t11 -23q0 -9 -8 -14t-18 -5q-16 0 -37 5.5t-44 15.5t-46.5 23.5t-44.5 28.5q-37 29 -64 54t-45 43.5t-29 29t-17 10.5q-5 0 -17 -12t-30 -32t-43 -46t-56 -55q-25 -22 -48 -41.5t-42.5 -34.5t-35 -23.5t-25.5 -8.5q-3 0 -5.5 1t-2.5 5q0 8 21 29t55 56t76 83 t84 110q15 23 28.5 43.5t24 36t19 24.5t14.5 9z" />
<glyph unicode="&#xdc;" horiz-adv-x="1188" d="M712 1356q22 0 22 -18q0 -12 -11.5 -22.5t-39.5 -23.5q-15 -7 -33 -16t-37 -21.5t-37.5 -28.5t-35.5 -37q-22 -27 -38 -69t-27 -95.5t-16.5 -116.5t-5.5 -132q0 -75 5 -149.5t17 -142t32.5 -124.5t50 -99t70.5 -65.5t96 -23.5q70 0 120 37t82 95t48 128.5t16 138.5 q0 18 -0.5 47.5t-2 66t-4.5 75t-8.5 74.5t-15 66t-22.5 48q-12 17 -29 31.5t-41 26t-56.5 20t-76.5 15.5q-35 5 -53.5 12t-18.5 26q0 16 14.5 21.5t40.5 5.5q25 0 54 -3t62 -7t70 -7.5t77 -3.5q37 0 74 4.5t71 9t64 8.5t53 4q30 0 40 -5t10 -14q0 -10 -12 -13.5t-31 -4.5 q-20 -2 -43 -4t-46 -7.5t-42.5 -17.5t-32.5 -34q-17 -27 -24 -75t-9.5 -106t-2.5 -120.5t-3 -119.5q-2 -34 -8 -85.5t-20 -109t-39.5 -115t-66 -104t-99.5 -75.5t-140 -29q-79 0 -143.5 23.5t-116 66.5t-88.5 102t-60 130q-15 43 -23.5 96t-14 112t-8.5 121t-4 124 q-2 53 -5 95.5t-10.5 75.5t-21 55t-34.5 35q-23 14 -48 20t-63 6q-33 0 -33 24q0 19 28 24q37 6 74 11t76.5 11t81.5 13t88 18q81 20 142.5 41.5t105.5 39t72 29t44 11.5zM587 1734q23 0 42.5 -7t34.5 -20.5t24 -34.5t9 -48q0 -33 -9 -58t-25 -42.5t-37 -26t-46 -8.5 q-49 0 -80.5 31t-31.5 92q0 29 9 52t25.5 38.5t38.5 23.5t46 8zM881 1693q25 0 42.5 -8.5t28 -21.5t15.5 -29t5 -31q0 -47 -24 -78t-77 -31q-24 0 -40 7.5t-26.5 20.5t-15.5 31.5t-5 39.5t7 39t19 31.5t30 21.5t41 8z" />
<glyph unicode="&#xdd;" horiz-adv-x="1370" d="M616 1461q0 -9 -11.5 -16t-30 -15t-42.5 -17.5t-49 -22.5q-17 -8 -27.5 -21t-10.5 -33q0 -21 19 -52.5t46.5 -67t57 -70.5t51.5 -61q24 -28 57 -64.5t66 -69t62 -55t44 -22.5q9 -1 23 9.5t30.5 27t35 38t36.5 44.5t35 44t29 37q18 21 40.5 51.5t43 60.5t34 57t13.5 42 q0 9 -7.5 17.5t-19 16.5t-26.5 15t-30 12t-25.5 11.5t-10.5 16.5q0 9 6 12.5t15 3.5q13 0 30 -6t42 -14t58.5 -17.5t79.5 -16.5q38 -5 68.5 -7.5t55.5 -4t44.5 -1.5h37.5q40 0 40 -18q0 -20 -45 -20q-9 0 -27.5 1t-43.5 1q-17 0 -37.5 -0.5t-41.5 -3.5t-40.5 -9t-36.5 -17 q-20 -12 -42 -35t-45 -51.5t-47.5 -60.5t-47.5 -64q-25 -32 -46.5 -62.5t-41 -57.5t-35 -50t-25.5 -40q-18 -29 -30 -52.5t-19 -47.5t-10 -50.5t-3 -61.5q0 -46 1 -100t3.5 -109t5 -109.5t6 -102.5t6.5 -86t6 -62q7 -69 24.5 -108.5t43.5 -61.5q12 -10 28 -18.5t30.5 -17 t24.5 -17t10 -18.5q0 -6 -4.5 -11t-17.5 -5q-18 0 -48 8t-69.5 18.5t-87.5 21.5t-102 18q-47 5 -89 6.5t-77 1.5q-39 0 -67 -0.5t-42 -0.5q-23 0 -36.5 5t-13.5 17q0 15 15.5 21t39.5 10t55.5 8.5t63.5 14.5q22 7 36.5 18.5t24.5 27.5t15.5 34.5t9.5 39.5q5 23 11 67 t11.5 100.5t9.5 121t4 127.5q0 45 -2 84t-11 78q-6 25 -25.5 63t-48.5 83.5t-64.5 95.5t-74 100t-76.5 97t-72 85.5t-62 66.5t-44 41q-20 15 -37.5 25t-35.5 17t-38 12t-45 9q-40 5 -40 24q0 10 8.5 15.5t34.5 5.5q44 0 103 2t147 15q69 10 117 22.5t82 23.5t55 18.5t35 7.5 q17 0 17 -13zM1069 1840q16 0 24 -10t8 -28q0 -15 -9.5 -38t-24.5 -50t-34 -56.5t-38 -55.5q-36 -48 -67 -79t-45 -31q-8 0 -10.5 4.5t-2.5 13.5q0 11 8.5 40t23.5 65.5t34 76t41 72.5t45.5 54.5t46.5 21.5z" />
<glyph unicode="&#xde;" horiz-adv-x="825" d="M366 1266q8 -10 22 -15.5t33.5 -8.5t43.5 -4.5t51 -4.5t63.5 -8.5t74.5 -18t75 -34t66 -56.5t47 -86t18 -120q0 -78 -24.5 -137.5t-68.5 -100t-103 -61.5t-127 -21q-33 0 -63 3.5t-56 9t-45 11t-29 8.5v-53v-84.5v-100.5t0.5 -101.5t0.5 -87t1 -57.5q1 -32 3.5 -61.5 t9 -55.5t19.5 -46.5t35 -34.5q18 -11 38.5 -16t34.5 -10q3 -1 8.5 -3t10.5 -5t8.5 -7.5t3.5 -10.5t-5 -10t-20 -4q-16 0 -40 4t-53 9.5t-61 10t-66 4.5q-35 0 -70 -2.5t-63.5 -6t-48.5 -6t-26 -2.5q-16 0 -16 12q0 7 5 13t12.5 11.5t17 11t17.5 12.5q23 18 42.5 46t28.5 81 q2 18 5 57.5t5.5 90.5t5 109t5 113.5t4 104t2.5 79.5q2 71 4.5 161.5t5 187.5t4 193t1.5 179q0 75 -9.5 115t-31.5 55q-15 10 -35 14t-38 7t-30 8t-12 18q0 8 5.5 14t19.5 6q18 0 37 -0.5t42.5 -1.5t52 -2t65.5 -1q40 0 73 3.5t59 8t46 8t35 3.5q41 0 41 -26 q0 -14 -11.5 -20t-29.5 -6q-45 0 -70.5 -13t-39.5 -45q-5 -11 -10 -30.5t-8.5 -42t-5.5 -47.5t-2 -46t2.5 -36.5t7.5 -23.5zM449 652q54 0 91 21.5t59 56t31.5 78.5t9.5 88q0 59 -10 113t-32.5 95.5t-56.5 66t-83 24.5q-46 0 -71.5 -17.5t-37.5 -47.5t-14.5 -71t-2.5 -87 q0 -53 1.5 -106.5t3.5 -97.5q2 -52 6 -100q14 -5 31 -9q14 -3 34 -5t41 -2z" />
<glyph unicode="&#xdf;" horiz-adv-x="1018" d="M292 1669q63 0 119.5 -19.5t98.5 -60t66.5 -103.5t24.5 -150q0 -70 -20.5 -127.5t-51 -103t-67.5 -78.5t-70 -56t-59 -36t-34 -16q16 2 43.5 4.5t66.5 2.5q45 0 105.5 -7t125 -27.5t127.5 -58.5t113 -100t80.5 -152t30.5 -215q0 -111 -26.5 -192.5t-73 -135t-110.5 -79.5 t-141 -26q-45 0 -80 11t-58 31t-35.5 45.5t-12.5 55.5q0 21 5.5 40.5t16.5 35t27.5 25t38.5 9.5q30 0 49 -13.5t31 -33.5t21.5 -43t20.5 -42.5t28.5 -33t45.5 -13.5q48 0 75.5 47.5t27.5 136.5q0 59 -15 131t-43 145t-69 141.5t-95 122.5q-55 54 -108 83.5t-101 43.5 t-87 16.5t-65 2.5q-40 0 -40 13q0 5 9 13.5t22 19t29 23t30 26.5q26 24 53 58t49 80.5t35.5 107t13.5 138.5q0 54 -9.5 104.5t-31.5 89t-57 61t-85 22.5q-47 0 -79.5 -19.5t-53 -53.5t-30.5 -81.5t-10 -102.5q0 -70 11.5 -158.5t30.5 -186.5t43 -200t49 -198t49.5 -182 t43.5 -150q24 -78 40.5 -132t27.5 -89t16.5 -53.5t5.5 -24.5q0 -5 -15 -7.5t-44.5 -9t-72.5 -18.5t-97 -36q-41 -18 -75.5 -38.5t-63 -38t-50.5 -29.5t-38 -12q-8 0 -11 3.5t-3 7.5q0 13 22 30q16 12 38 31t44 40t42.5 41.5t32.5 36.5q15 21 25.5 44.5t10.5 62.5 q0 37 -11.5 108t-28.5 165t-38 204.5t-38 226.5t-29 230.5t-12 216.5q0 87 17 162t52 129.5t88.5 85.5t126.5 31z" />
<glyph unicode="&#xe0;" horiz-adv-x="908" d="M260 606q-32 0 -59 11.5t-47 35t-32 59t-12 83.5q0 52 14.5 102t46 89t79.5 62.5t116 23.5q57 0 100 -15t76 -39.5t56 -57.5t39 -68.5t26.5 -72t17.5 -69.5q4 -18 10.5 -52t14 -78.5t16 -95.5t17 -103t16.5 -101.5t14.5 -90t11 -69.5t7.5 -40q5 -26 11.5 -53t16 -49 t23.5 -36.5t36 -14.5q13 0 22 6t14.5 16t8 22.5t2.5 26.5q0 16 -0.5 32.5t-0.5 27.5q0 13 3 22t13 9t15.5 -10.5t8 -24t3.5 -27.5t1 -21q0 -29 -5 -66t-21 -72q-15 -35 -50.5 -57.5t-81.5 -22.5q-40 0 -69 11.5t-49.5 29.5t-34.5 38t-22 38q-24 45 -36 99t-20 104 q-12 -21 -38 -52t-63.5 -59.5t-87 -49t-110.5 -20.5q-67 0 -114.5 19t-77.5 51.5t-44.5 75.5t-14.5 92q0 52 19.5 105t63.5 96t115 69.5t173 26.5q24 0 46 -2t40 -4.5t31.5 -5t18.5 -3.5q-5 72 -12 145q-4 30 -7.5 63.5t-8 67.5t-9.5 67t-10 61q-14 65 -53 103t-100 38 q-32 0 -57 -11.5t-42 -30t-25.5 -41.5t-8.5 -46q0 -24 11.5 -40.5t29 -29t37.5 -24t37.5 -26t29 -35.5t11.5 -52q0 -41 -28 -65.5t-68 -24.5zM540 435q-6 3 -20.5 6.5t-34.5 7.5t-43.5 6.5t-45.5 2.5q-45 0 -83 -12.5t-66 -37.5t-44 -62.5t-16 -85.5q0 -45 15 -74t38 -46 t51 -23.5t55 -6.5q43 0 81.5 13.5t68 31t48 34.5t22.5 23q-6 56 -11 102q-2 20 -4 39.5t-4.5 36.5t-4 28.5t-2.5 16.5zM109 1470q16 0 34.5 -10.5t37 -29.5t38 -44t37.5 -53q20 -30 38.5 -59t32 -54t22 -45.5t8.5 -35.5q0 -10 -4 -16.5t-13 -6.5q-10 0 -29 12t-43 32t-51 45 t-52 52q-20 20 -40.5 41t-37 41.5t-26.5 40t-10 36.5q0 28 18.5 41t39.5 13z" />
<glyph unicode="&#xe1;" horiz-adv-x="908" d="M260 606q-32 0 -59 11.5t-47 35t-32 59t-12 83.5q0 52 14.5 102t46 89t79.5 62.5t116 23.5q57 0 100 -15t76 -39.5t56 -57.5t39 -68.5t26.5 -72t17.5 -69.5q4 -18 10.5 -52t14 -78.5t16 -95.5t17 -103t16.5 -101.5t14.5 -90t11 -69.5t7.5 -40q5 -26 11.5 -53t16 -49 t23.5 -36.5t36 -14.5q13 0 22 6t14.5 16t8 22.5t2.5 26.5q0 16 -0.5 32.5t-0.5 27.5q0 13 3 22t13 9t15.5 -10.5t8 -24t3.5 -27.5t1 -21q0 -29 -5 -66t-21 -72q-15 -35 -50.5 -57.5t-81.5 -22.5q-40 0 -69 11.5t-49.5 29.5t-34.5 38t-22 38q-24 45 -36 99t-20 104 q-12 -21 -38 -52t-63.5 -59.5t-87 -49t-110.5 -20.5q-67 0 -114.5 19t-77.5 51.5t-44.5 75.5t-14.5 92q0 52 19.5 105t63.5 96t115 69.5t173 26.5q24 0 46 -2t40 -4.5t31.5 -5t18.5 -3.5q-5 72 -12 145q-4 30 -7.5 63.5t-8 67.5t-9.5 67t-10 61q-14 65 -53 103t-100 38 q-32 0 -57 -11.5t-42 -30t-25.5 -41.5t-8.5 -46q0 -24 11.5 -40.5t29 -29t37.5 -24t37.5 -26t29 -35.5t11.5 -52q0 -41 -28 -65.5t-68 -24.5zM540 435q-6 3 -20.5 6.5t-34.5 7.5t-43.5 6.5t-45.5 2.5q-45 0 -83 -12.5t-66 -37.5t-44 -62.5t-16 -85.5q0 -45 15 -74t38 -46 t51 -23.5t55 -6.5q43 0 81.5 13.5t68 31t48 34.5t22.5 23q-6 56 -11 102q-2 20 -4 39.5t-4.5 36.5t-4 28.5t-2.5 16.5zM582 1485q16 0 24 -10t8 -28q0 -15 -9.5 -38t-24.5 -50t-34 -56.5t-38 -55.5q-36 -48 -67 -79t-45 -31q-8 0 -10.5 4.5t-2.5 13.5q0 11 8.5 40t23.5 65.5 t34 76t41 72.5t45.5 54.5t46.5 21.5z" />
<glyph unicode="&#xe2;" horiz-adv-x="908" d="M260 606q-32 0 -59 11.5t-47 35t-32 59t-12 83.5q0 52 14.5 102t46 89t79.5 62.5t116 23.5q57 0 100 -15t76 -39.5t56 -57.5t39 -68.5t26.5 -72t17.5 -69.5q4 -18 10.5 -52t14 -78.5t16 -95.5t17 -103t16.5 -101.5t14.5 -90t11 -69.5t7.5 -40q5 -26 11.5 -53t16 -49 t23.5 -36.5t36 -14.5q13 0 22 6t14.5 16t8 22.5t2.5 26.5q0 16 -0.5 32.5t-0.5 27.5q0 13 3 22t13 9t15.5 -10.5t8 -24t3.5 -27.5t1 -21q0 -29 -5 -66t-21 -72q-15 -35 -50.5 -57.5t-81.5 -22.5q-40 0 -69 11.5t-49.5 29.5t-34.5 38t-22 38q-24 45 -36 99t-20 104 q-12 -21 -38 -52t-63.5 -59.5t-87 -49t-110.5 -20.5q-67 0 -114.5 19t-77.5 51.5t-44.5 75.5t-14.5 92q0 52 19.5 105t63.5 96t115 69.5t173 26.5q24 0 46 -2t40 -4.5t31.5 -5t18.5 -3.5q-5 72 -12 145q-4 30 -7.5 63.5t-8 67.5t-9.5 67t-10 61q-14 65 -53 103t-100 38 q-32 0 -57 -11.5t-42 -30t-25.5 -41.5t-8.5 -46q0 -24 11.5 -40.5t29 -29t37.5 -24t37.5 -26t29 -35.5t11.5 -52q0 -41 -28 -65.5t-68 -24.5zM540 435q-6 3 -20.5 6.5t-34.5 7.5t-43.5 6.5t-45.5 2.5q-45 0 -83 -12.5t-66 -37.5t-44 -62.5t-16 -85.5q0 -45 15 -74t38 -46 t51 -23.5t55 -6.5q43 0 81.5 13.5t68 31t48 34.5t22.5 23q-6 56 -11 102q-2 20 -4 39.5t-4.5 36.5t-4 28.5t-2.5 16.5zM410 1463q8 0 16 -11t24 -32q20 -28 36 -47.5t31 -36t30 -31.5l33 -33q41 -37 71.5 -59.5t51.5 -37t32 -24.5t11 -23q0 -9 -8 -14t-18 -5q-16 0 -37 5.5 t-44 15.5t-46.5 23.5t-44.5 28.5q-37 29 -64 54t-45 43.5t-29 29t-17 10.5q-5 0 -17 -12t-30 -32t-43 -46t-56 -55q-25 -22 -48 -41.5t-42.5 -34.5t-35 -23.5t-25.5 -8.5q-3 0 -5.5 1t-2.5 5q0 8 21 29t55 56t76 83t84 110q15 23 28.5 43.5t24 36t19 24.5t14.5 9z" />
<glyph unicode="&#xe3;" horiz-adv-x="908" d="M260 606q-32 0 -59 11.5t-47 35t-32 59t-12 83.5q0 52 14.5 102t46 89t79.5 62.5t116 23.5q57 0 100 -15t76 -39.5t56 -57.5t39 -68.5t26.5 -72t17.5 -69.5q4 -18 10.5 -52t14 -78.5t16 -95.5t17 -103t16.5 -101.5t14.5 -90t11 -69.5t7.5 -40q5 -26 11.5 -53t16 -49 t23.5 -36.5t36 -14.5q13 0 22 6t14.5 16t8 22.5t2.5 26.5q0 16 -0.5 32.5t-0.5 27.5q0 13 3 22t13 9t15.5 -10.5t8 -24t3.5 -27.5t1 -21q0 -29 -5 -66t-21 -72q-15 -35 -50.5 -57.5t-81.5 -22.5q-40 0 -69 11.5t-49.5 29.5t-34.5 38t-22 38q-24 45 -36 99t-20 104 q-12 -21 -38 -52t-63.5 -59.5t-87 -49t-110.5 -20.5q-67 0 -114.5 19t-77.5 51.5t-44.5 75.5t-14.5 92q0 52 19.5 105t63.5 96t115 69.5t173 26.5q24 0 46 -2t40 -4.5t31.5 -5t18.5 -3.5q-5 72 -12 145q-4 30 -7.5 63.5t-8 67.5t-9.5 67t-10 61q-14 65 -53 103t-100 38 q-32 0 -57 -11.5t-42 -30t-25.5 -41.5t-8.5 -46q0 -24 11.5 -40.5t29 -29t37.5 -24t37.5 -26t29 -35.5t11.5 -52q0 -41 -28 -65.5t-68 -24.5zM540 435q-6 3 -20.5 6.5t-34.5 7.5t-43.5 6.5t-45.5 2.5q-45 0 -83 -12.5t-66 -37.5t-44 -62.5t-16 -85.5q0 -45 15 -74t38 -46 t51 -23.5t55 -6.5q43 0 81.5 13.5t68 31t48 34.5t22.5 23q-6 56 -11 102q-2 20 -4 39.5t-4.5 36.5t-4 28.5t-2.5 16.5zM325 1373q26 0 51.5 -10.5t50 -25.5t49.5 -33.5t50 -33.5t50.5 -25.5t51.5 -10.5q22 0 38 8.5t26.5 19.5t18.5 20t13 9t9.5 -7.5t4.5 -23.5 q0 -30 -8 -59.5t-25.5 -54t-46 -40t-68.5 -15.5q-38 0 -70 14t-61 35.5t-53.5 47t-47 46.5t-43.5 35.5t-40 14.5q-16 0 -28 -9.5t-21 -23.5t-15.5 -31t-11.5 -30.5t-10 -23.5t-10 -10q-9 0 -9 26q0 19 8 51t26 63.5t48 54t73 22.5z" />
<glyph unicode="&#xe4;" horiz-adv-x="908" d="M272 1299q40 0 62 -26.5t22 -62.5q0 -30 -9 -50.5t-24 -34t-33 -19.5t-35 -6q-16 0 -32 5.5t-27.5 17t-19 29t-7.5 40.5t8.5 42.5t23 34t33 22.5t38.5 8zM489 1280q13 0 26.5 -4.5t24.5 -14t17.5 -25t6.5 -35.5q0 -21 -6 -38.5t-17.5 -30.5t-26.5 -20t-33 -7 q-15 0 -29 4.5t-25 14.5t-18 26.5t-7 39.5q0 21 7.5 37.5t19 28.5t27.5 18t33 6zM260 606q-32 0 -59 11.5t-47 35t-32 59t-12 83.5q0 52 14.5 102t46 89t79.5 62.5t116 23.5q57 0 100 -15t76 -39.5t56 -57.5t39 -68.5t26.5 -72t17.5 -69.5q4 -18 10.5 -52t14 -78.5t16 -95.5 t17 -103t16.5 -101.5t14.5 -90t11 -69.5t7.5 -40q5 -26 11.5 -53t16 -49t23.5 -36.5t36 -14.5q13 0 22 6t14.5 16t8 22.5t2.5 26.5q0 16 -0.5 32.5t-0.5 27.5q0 13 3 22t13 9t15.5 -10.5t8 -24t3.5 -27.5t1 -21q0 -29 -5 -66t-21 -72q-15 -35 -50.5 -57.5t-81.5 -22.5 q-40 0 -69 11.5t-49.5 29.5t-34.5 38t-22 38q-24 45 -36 99t-20 104q-12 -21 -38 -52t-63.5 -59.5t-87 -49t-110.5 -20.5q-67 0 -114.5 19t-77.5 51.5t-44.5 75.5t-14.5 92q0 52 19.5 105t63.5 96t115 69.5t173 26.5q24 0 46 -2t40 -4.5t31.5 -5t18.5 -3.5q-5 72 -12 145 q-4 30 -7.5 63.5t-8 67.5t-9.5 67t-10 61q-14 65 -53 103t-100 38q-32 0 -57 -11.5t-42 -30t-25.5 -41.5t-8.5 -46q0 -24 11.5 -40.5t29 -29t37.5 -24t37.5 -26t29 -35.5t11.5 -52q0 -41 -28 -65.5t-68 -24.5zM540 435q-6 3 -20.5 6.5t-34.5 7.5t-43.5 6.5t-45.5 2.5 q-45 0 -83 -12.5t-66 -37.5t-44 -62.5t-16 -85.5q0 -45 15 -74t38 -46t51 -23.5t55 -6.5q43 0 81.5 13.5t68 31t48 34.5t22.5 23q-6 56 -11 102q-2 20 -4 39.5t-4.5 36.5t-4 28.5t-2.5 16.5z" />
<glyph unicode="&#xe5;" horiz-adv-x="908" d="M260 606q-32 0 -59 11.5t-47 35t-32 59t-12 83.5q0 52 14.5 102t46 89t79.5 62.5t116 23.5q57 0 100 -15t76 -39.5t56 -57.5t39 -68.5t26.5 -72t17.5 -69.5q4 -18 10.5 -52t14 -78.5t16 -95.5t17 -103t16.5 -101.5t14.5 -90t11 -69.5t7.5 -40q5 -26 11.5 -53t16 -49 t23.5 -36.5t36 -14.5q13 0 22 6t14.5 16t8 22.5t2.5 26.5q0 16 -0.5 32.5t-0.5 27.5q0 13 3 22t13 9t15.5 -10.5t8 -24t3.5 -27.5t1 -21q0 -29 -5 -66t-21 -72q-15 -35 -50.5 -57.5t-81.5 -22.5q-40 0 -69 11.5t-49.5 29.5t-34.5 38t-22 38q-24 45 -36 99t-20 104 q-12 -21 -38 -52t-63.5 -59.5t-87 -49t-110.5 -20.5q-67 0 -114.5 19t-77.5 51.5t-44.5 75.5t-14.5 92q0 52 19.5 105t63.5 96t115 69.5t173 26.5q24 0 46 -2t40 -4.5t31.5 -5t18.5 -3.5q-5 72 -12 145q-4 30 -7.5 63.5t-8 67.5t-9.5 67t-10 61q-14 65 -53 103t-100 38 q-32 0 -57 -11.5t-42 -30t-25.5 -41.5t-8.5 -46q0 -24 11.5 -40.5t29 -29t37.5 -24t37.5 -26t29 -35.5t11.5 -52q0 -41 -28 -65.5t-68 -24.5zM540 435q-6 3 -20.5 6.5t-34.5 7.5t-43.5 6.5t-45.5 2.5q-45 0 -83 -12.5t-66 -37.5t-44 -62.5t-16 -85.5q0 -45 15 -74t38 -46 t51 -23.5t55 -6.5q43 0 81.5 13.5t68 31t48 34.5t22.5 23q-6 56 -11 102q-2 20 -4 39.5t-4.5 36.5t-4 28.5t-2.5 16.5zM416 1575q48 0 85.5 -16t62.5 -43.5t38 -67t13 -87.5t-14.5 -90t-40 -72.5t-61 -48t-76.5 -17.5q-94 0 -148.5 56t-54.5 160q0 54 17 96t45 71t63.5 44 t70.5 15zM420 1542q-25 0 -47.5 -10t-40 -30t-28 -49.5t-10.5 -66.5q0 -39 11.5 -66.5t30 -45t41.5 -25.5t46 -8q34 0 58.5 14t40.5 35.5t23 49t7 54.5q0 31 -9 58t-26.5 47t-41.5 31.5t-55 11.5z" />
<glyph unicode="&#xe6;" horiz-adv-x="1204" d="M265 888q51 0 90 -20.5t67 -54t46 -76.5t28 -89q34 101 89 181q24 34 54 66t67.5 58t82 41.5t97.5 15.5q50 0 94.5 -15.5t78.5 -45.5t53.5 -74.5t19.5 -103.5q0 -98 -35.5 -168t-95 -115t-138.5 -66t-165 -21q-43 0 -79.5 4t-60.5 8q10 -87 41.5 -159.5t79 -124t107 -80 t125.5 -28.5q54 0 93 19t65 50.5t38.5 72t12.5 85.5q0 20 -2.5 35.5t-6 27.5t-6 22t-2.5 18t4 11t9 3q8 0 19 -11.5t20.5 -33.5t16.5 -53t7 -71q0 -35 -8 -74t-24 -77t-42 -74t-62.5 -62.5t-85 -43t-110.5 -16.5q-72 0 -127.5 19t-96.5 47.5t-70 63t-47.5 66t-27.5 55 t-12 31.5q-7 -51 -23 -99t-44 -85t-68.5 -59t-94.5 -22q-39 0 -77 16t-67.5 48t-47.5 79.5t-18 110.5q0 66 18.5 118.5t48.5 93.5t67 70.5t74 50t71 33t56 20.5q24 7 32.5 21.5t8.5 43.5q0 39 -5 88t-20.5 92.5t-44 73.5t-74.5 30q-24 0 -41.5 -8t-29 -20.5t-17 -28 t-5.5 -31.5q0 -29 12.5 -47.5t27.5 -34.5t27 -34t12 -47q0 -36 -23.5 -58.5t-60.5 -22.5q-42 0 -70 31.5t-28 93.5q0 57 16.5 101t44 75t64.5 47.5t78 16.5zM554 468q13 -2 30.5 -3.5t39.5 -1.5q103 0 170.5 27t107.5 69t56.5 92t16.5 96q0 11 -1 28t-6.5 37t-15.5 39.5 t-28 36t-44 26.5t-63 10q-57 0 -105 -30t-83.5 -87t-55 -137t-19.5 -181v-21zM277 23q38 0 67 18.5t48.5 50t29.5 71t10 80.5q0 33 -2.5 72t-9 73.5t-18 57t-29.5 22.5q-20 0 -43.5 -9.5t-47 -26.5t-45.5 -42t-39 -55q-19 -35 -29.5 -76.5t-10.5 -89.5q0 -30 8 -56t23 -46.5 t37.5 -32t50.5 -11.5z" />
<glyph unicode="&#xe7;" horiz-adv-x="753" d="M568 740q-27 0 -50 8.5t-40 25.5t-26.5 43.5t-9.5 61.5q0 26 -3 49.5t-12.5 42t-26.5 29.5t-46 11q-34 0 -67.5 -21t-60.5 -64t-44 -107t-17 -148q0 -102 21 -182.5t60 -136t95 -85t127 -29.5q46 0 82.5 16t61 42.5t37.5 63t13 77.5q0 43 -10.5 72t-22.5 50t-22.5 34.5 t-10.5 23.5q0 13 13 13t32.5 -13.5t38.5 -39t32.5 -62.5t13.5 -83q0 -72 -22.5 -128t-62.5 -95.5t-94.5 -62.5t-119.5 -28q-5 -24 -9.5 -48t-4.5 -36q0 -2 7.5 -4t20.5 -6t29.5 -10t35.5 -16q49 -24 77.5 -67.5t28.5 -109.5q0 -33 -11.5 -69t-37 -66t-65 -50t-94.5 -20 q-51 0 -87 19t-58 46t-32 56t-10 50q0 6 1.5 15t8.5 9t17 -17t26 -38t40 -38t61 -17q47 0 73 27.5t26 69.5q0 32 -10 54t-25 36.5t-32 22.5t-32 13t-24.5 7.5t-9.5 8.5q0 5 5.5 23.5t13 42.5t15.5 50t13 47q2 5 2.5 8t0.5 7q-80 2 -146 34t-114 90t-74.5 140.5t-26.5 187.5 q0 50 9.5 99.5t25 94.5t36.5 83.5t46 68.5q36 43 74 73t77 48t80.5 25.5t84.5 7.5q48 0 90 -13.5t73 -37.5t48.5 -58t17.5 -76q0 -41 -11 -68t-28.5 -44.5t-39 -25t-41.5 -7.5z" />
<glyph unicode="&#xe8;" horiz-adv-x="746" d="M688 445q12 -19 21.5 -52t9.5 -66q0 -62 -20 -110t-58 -81.5t-91.5 -51t-119.5 -17.5q-96 0 -171 32.5t-126.5 90.5t-78 138t-26.5 176q0 87 18.5 157.5t50.5 126t74 96.5t89 68t95.5 40t93.5 13t93 -12t87.5 -40.5t65.5 -75t26 -117.5q0 -61 -18 -107.5t-47.5 -80 t-67 -55t-76.5 -34.5t-76.5 -18.5t-65.5 -5.5q-42 0 -81 6t-61 13q4 -66 21 -126.5t49 -107t79.5 -74t111.5 -27.5q44 0 76.5 15t53.5 40.5t31 59t10 70.5q0 22 -3 45.5t-10 44.5q-5 13 -8.5 24t-3.5 17q0 17 15 17q8 0 18.5 -7.5t19.5 -23.5zM225 533q22 -6 49.5 -11 t69.5 -5q49 0 90 18.5t70.5 52t46.5 80.5t17 105q0 51 -11.5 86t-30 56t-42.5 29.5t-49 8.5q-32 0 -69 -19t-68.5 -67t-52 -129t-20.5 -205zM167 1449q16 0 34.5 -10.5t37 -29.5t38 -44t37.5 -53q20 -30 38.5 -59t32 -54t22 -45.5t8.5 -35.5q0 -10 -4 -16.5t-13 -6.5 q-10 0 -29 12t-43 32t-51 45t-52 52q-20 20 -40.5 41t-37 41.5t-26.5 40t-10 36.5q0 28 18.5 41t39.5 13z" />
<glyph unicode="&#xe9;" horiz-adv-x="746" d="M688 445q12 -19 21.5 -52t9.5 -66q0 -62 -20 -110t-58 -81.5t-91.5 -51t-119.5 -17.5q-96 0 -171 32.5t-126.5 90.5t-78 138t-26.5 176q0 87 18.5 157.5t50.5 126t74 96.5t89 68t95.5 40t93.5 13t93 -12t87.5 -40.5t65.5 -75t26 -117.5q0 -61 -18 -107.5t-47.5 -80 t-67 -55t-76.5 -34.5t-76.5 -18.5t-65.5 -5.5q-42 0 -81 6t-61 13q4 -66 21 -126.5t49 -107t79.5 -74t111.5 -27.5q44 0 76.5 15t53.5 40.5t31 59t10 70.5q0 22 -3 45.5t-10 44.5q-5 13 -8.5 24t-3.5 17q0 17 15 17q8 0 18.5 -7.5t19.5 -23.5zM225 533q22 -6 49.5 -11 t69.5 -5q49 0 90 18.5t70.5 52t46.5 80.5t17 105q0 51 -11.5 86t-30 56t-42.5 29.5t-49 8.5q-32 0 -69 -19t-68.5 -67t-52 -129t-20.5 -205zM573 1419q16 0 24 -10t8 -28q0 -15 -9.5 -38t-24.5 -50t-34 -56.5t-38 -55.5q-36 -48 -67 -79t-45 -31q-8 0 -10.5 4.5t-2.5 13.5 q0 11 8.5 40t23.5 65.5t34 76t41 72.5t45.5 54.5t46.5 21.5z" />
<glyph unicode="&#xea;" horiz-adv-x="746" d="M688 445q12 -19 21.5 -52t9.5 -66q0 -62 -20 -110t-58 -81.5t-91.5 -51t-119.5 -17.5q-96 0 -171 32.5t-126.5 90.5t-78 138t-26.5 176q0 87 18.5 157.5t50.5 126t74 96.5t89 68t95.5 40t93.5 13t93 -12t87.5 -40.5t65.5 -75t26 -117.5q0 -61 -18 -107.5t-47.5 -80 t-67 -55t-76.5 -34.5t-76.5 -18.5t-65.5 -5.5q-42 0 -81 6t-61 13q4 -66 21 -126.5t49 -107t79.5 -74t111.5 -27.5q44 0 76.5 15t53.5 40.5t31 59t10 70.5q0 22 -3 45.5t-10 44.5q-5 13 -8.5 24t-3.5 17q0 17 15 17q8 0 18.5 -7.5t19.5 -23.5zM225 533q22 -6 49.5 -11 t69.5 -5q49 0 90 18.5t70.5 52t46.5 80.5t17 105q0 51 -11.5 86t-30 56t-42.5 29.5t-49 8.5q-32 0 -69 -19t-68.5 -67t-52 -129t-20.5 -205zM398 1512q8 0 16 -11t24 -32q20 -28 36 -47.5t31 -36t30 -31.5l33 -33q41 -37 71.5 -59.5t51.5 -37t32 -24.5t11 -23q0 -9 -8 -14 t-18 -5q-16 0 -37 5.5t-44 15.5t-46.5 23.5t-44.5 28.5q-37 29 -64 54t-45 43.5t-29 29t-17 10.5q-5 0 -17 -12t-30 -32t-43 -46t-56 -55q-25 -22 -48 -41.5t-42.5 -34.5t-35 -23.5t-25.5 -8.5q-3 0 -5.5 1t-2.5 5q0 8 21 29t55 56t76 83t84 110q15 23 28.5 43.5t24 36 t19 24.5t14.5 9z" />
<glyph unicode="&#xeb;" horiz-adv-x="746" d="M688 445q12 -19 21.5 -52t9.5 -66q0 -62 -20 -110t-58 -81.5t-91.5 -51t-119.5 -17.5q-96 0 -171 32.5t-126.5 90.5t-78 138t-26.5 176q0 87 18.5 157.5t50.5 126t74 96.5t89 68t95.5 40t93.5 13t93 -12t87.5 -40.5t65.5 -75t26 -117.5q0 -61 -18 -107.5t-47.5 -80 t-67 -55t-76.5 -34.5t-76.5 -18.5t-65.5 -5.5q-42 0 -81 6t-61 13q4 -66 21 -126.5t49 -107t79.5 -74t111.5 -27.5q44 0 76.5 15t53.5 40.5t31 59t10 70.5q0 22 -3 45.5t-10 44.5q-5 13 -8.5 24t-3.5 17q0 17 15 17q8 0 18.5 -7.5t19.5 -23.5zM225 533q22 -6 49.5 -11 t69.5 -5q49 0 90 18.5t70.5 52t46.5 80.5t17 105q0 51 -11.5 86t-30 56t-42.5 29.5t-49 8.5q-32 0 -69 -19t-68.5 -67t-52 -129t-20.5 -205zM320 1322q40 0 62 -26.5t22 -62.5q0 -30 -9 -50.5t-24 -34t-33 -19.5t-35 -6q-16 0 -32 5.5t-27.5 17t-19 29t-7.5 40.5t8.5 42.5 t23 34t33 22.5t38.5 8zM537 1303q13 0 26.5 -4.5t24.5 -14t17.5 -25t6.5 -35.5q0 -21 -6 -38.5t-17.5 -30.5t-26.5 -20t-33 -7q-15 0 -29 4.5t-25 14.5t-18 26.5t-7 39.5q0 21 7.5 37.5t19 28.5t27.5 18t33 6z" />
<glyph unicode="&#xec;" horiz-adv-x="519" d="M386 1072q8 0 8 -19q0 -13 -3 -42t-7 -62q-7 -52 -13.5 -115.5t-13 -130t-12 -132t-9.5 -121.5t-6.5 -98.5t-2.5 -62.5q0 -26 3 -43t8.5 -28t11.5 -17.5t13 -11.5t18 -9t23.5 -8t26 -6.5t23.5 -3.5q18 -3 29 -5t11 -11q0 -17 -36 -17q-25 0 -50.5 4t-52 9t-55 9t-61.5 4 q-30 0 -54.5 -2t-44.5 -4.5t-37.5 -4t-35.5 -1.5q-14 0 -26 3.5t-12 15.5t13 16.5t27 7.5q17 3 33 7t29 13t21.5 23.5t11.5 38.5q3 46 5 94t2.5 94.5t0.5 90.5v83v84.5t-1 65.5q-2 42 -10 66.5t-23 36.5t-37.5 15.5t-54.5 6.5q-9 1 -14.5 5.5t-5.5 13.5q0 16 25 18 q13 1 32 3.5t45 6.5t56 12t64 22q37 15 61 30.5t39 27.5t23.5 20t14.5 8zM-8 1542q16 0 34.5 -10.5t37 -29.5t38 -44t37.5 -53q20 -30 38.5 -59t32 -54t22 -45.5t8.5 -35.5q0 -10 -4 -16.5t-13 -6.5q-10 0 -29 12t-43 32t-51 45t-52 52q-20 20 -40.5 41t-37 41.5t-26.5 40 t-10 36.5q0 28 18.5 41t39.5 13z" />
<glyph unicode="&#xed;" horiz-adv-x="519" d="M386 1072q8 0 8 -19q0 -13 -3 -42t-7 -62q-7 -52 -13.5 -115.5t-13 -130t-12 -132t-9.5 -121.5t-6.5 -98.5t-2.5 -62.5q0 -26 3 -43t8.5 -28t11.5 -17.5t13 -11.5t18 -9t23.5 -8t26 -6.5t23.5 -3.5q18 -3 29 -5t11 -11q0 -17 -36 -17q-25 0 -50.5 4t-52 9t-55 9t-61.5 4 q-30 0 -54.5 -2t-44.5 -4.5t-37.5 -4t-35.5 -1.5q-14 0 -26 3.5t-12 15.5t13 16.5t27 7.5q17 3 33 7t29 13t21.5 23.5t11.5 38.5q3 46 5 94t2.5 94.5t0.5 90.5v83v84.5t-1 65.5q-2 42 -10 66.5t-23 36.5t-37.5 15.5t-54.5 6.5q-9 1 -14.5 5.5t-5.5 13.5q0 16 25 18 q13 1 32 3.5t45 6.5t56 12t64 22q37 15 61 30.5t39 27.5t23.5 20t14.5 8zM398 1503q16 0 24 -10t8 -28q0 -15 -9.5 -38t-24.5 -50t-34 -56.5t-38 -55.5q-36 -48 -67 -79t-45 -31q-8 0 -10.5 4.5t-2.5 13.5q0 11 8.5 40t23.5 65.5t34 76t41 72.5t45.5 54.5t46.5 21.5z" />
<glyph unicode="&#xee;" horiz-adv-x="519" d="M386 1072q8 0 8 -19q0 -13 -3 -42t-7 -62q-7 -52 -13.5 -115.5t-13 -130t-12 -132t-9.5 -121.5t-6.5 -98.5t-2.5 -62.5q0 -26 3 -43t8.5 -28t11.5 -17.5t13 -11.5t18 -9t23.5 -8t26 -6.5t23.5 -3.5q18 -3 29 -5t11 -11q0 -17 -36 -17q-25 0 -50.5 4t-52 9t-55 9t-61.5 4 q-30 0 -54.5 -2t-44.5 -4.5t-37.5 -4t-35.5 -1.5q-14 0 -26 3.5t-12 15.5t13 16.5t27 7.5q17 3 33 7t29 13t21.5 23.5t11.5 38.5q3 46 5 94t2.5 94.5t0.5 90.5v83v84.5t-1 65.5q-2 42 -10 66.5t-23 36.5t-37.5 15.5t-54.5 6.5q-9 1 -14.5 5.5t-5.5 13.5q0 16 25 18 q13 1 32 3.5t45 6.5t56 12t64 22q37 15 61 30.5t39 27.5t23.5 20t14.5 8zM256 1503q8 0 16 -11t24 -32q20 -28 36 -47.5t31 -36t30 -31.5l33 -33q41 -37 71.5 -59.5t51.5 -37t32 -24.5t11 -23q0 -9 -8 -14t-18 -5q-16 0 -37 5.5t-44 15.5t-46.5 23.5t-44.5 28.5 q-37 29 -64 54t-45 43.5t-29 29t-17 10.5q-5 0 -17 -12t-30 -32t-43 -46t-56 -55q-25 -22 -48 -41.5t-42.5 -34.5t-35 -23.5t-25.5 -8.5q-3 0 -5.5 1t-2.5 5q0 8 21 29t55 56t76 83t84 110q15 23 28.5 43.5t24 36t19 24.5t14.5 9z" />
<glyph unicode="&#xef;" horiz-adv-x="519" d="M386 1072q8 0 8 -19q0 -13 -3 -42t-7 -62q-7 -52 -13.5 -115.5t-13 -130t-12 -132t-9.5 -121.5t-6.5 -98.5t-2.5 -62.5q0 -26 3 -43t8.5 -28t11.5 -17.5t13 -11.5t18 -9t23.5 -8t26 -6.5t23.5 -3.5q18 -3 29 -5t11 -11q0 -17 -36 -17q-25 0 -50.5 4t-52 9t-55 9t-61.5 4 q-30 0 -54.5 -2t-44.5 -4.5t-37.5 -4t-35.5 -1.5q-14 0 -26 3.5t-12 15.5t13 16.5t27 7.5q17 3 33 7t29 13t21.5 23.5t11.5 38.5q3 46 5 94t2.5 94.5t0.5 90.5v83v84.5t-1 65.5q-2 42 -10 66.5t-23 36.5t-37.5 15.5t-54.5 6.5q-9 1 -14.5 5.5t-5.5 13.5q0 16 25 18 q13 1 32 3.5t45 6.5t56 12t64 22q37 15 61 30.5t39 27.5t23.5 20t14.5 8zM178 1363q40 0 62 -26.5t22 -62.5q0 -30 -9 -50.5t-24 -34t-33 -19.5t-35 -6q-16 0 -32 5.5t-27.5 17t-19 29t-7.5 40.5t8.5 42.5t23 34t33 22.5t38.5 8zM395 1344q13 0 26.5 -4.5t24.5 -14t17.5 -25 t6.5 -35.5q0 -21 -6 -38.5t-17.5 -30.5t-26.5 -20t-33 -7q-15 0 -29 4.5t-25 14.5t-18 26.5t-7 39.5q0 21 7.5 37.5t19 28.5t27.5 18t33 6z" />
<glyph unicode="&#xf0;" horiz-adv-x="819" d="M556 1361q7 0 7 -9q0 -10 -11.5 -33t-28 -51t-36 -58.5t-36.5 -55.5q90 -47 154.5 -129.5t106 -192t60.5 -239t19 -270.5q0 -61 -7 -122.5t-22.5 -116.5t-40.5 -103t-60 -83t-81.5 -55t-106.5 -20q-93 0 -165 32t-121.5 88t-75 131t-25.5 160q0 78 24 144.5t66.5 115 t100.5 75.5t125 27q38 0 69.5 -7.5t56 -17.5t41.5 -19.5t25 -14.5q1 12 2 23q1 10 2 22t1 24q0 34 -3.5 75t-12 85.5t-23.5 89t-37 86t-52 77.5t-70 63l-99 -153q-24 -38 -37.5 -59.5t-23.5 -21.5q-4 0 -7.5 2.5t-3.5 9.5q0 11 12.5 35t32.5 56.5t45 71t51 78.5 q-29 15 -65 25t-78 10q-64 0 -114.5 -20.5t-89.5 -47.5q-29 -19 -52 -39t-41 -36t-31 -26t-22 -10q-8 0 -12 4t-4 11q0 13 14.5 36t40.5 49t61.5 52.5t78 48t90 35t97.5 13.5q51 0 91 -9t82 -27q28 44 53 81.5t42 63.5q16 21 26 33.5t18 12.5zM418 545q-40 0 -70 -20.5 t-49.5 -54.5t-29 -78t-9.5 -91q0 -81 18.5 -153.5t50 -127.5t76 -87.5t96.5 -32.5q42 0 71 18.5t48 49t28 71t9 83.5q0 48 -5 98t-16.5 97.5t-30 89t-45 72t-61.5 48.5t-81 18z" />
<glyph unicode="&#xf1;" horiz-adv-x="1006" d="M289 1082q7 0 13.5 -21.5t13.5 -56t13.5 -79.5t13.5 -91l30 -212q4 28 14.5 64t28 75t43 76t58.5 66t74.5 47.5t93.5 18.5q63 0 109 -24t76 -66.5t44.5 -101.5t14.5 -129q0 -63 -7 -126t-15 -124.5t-15 -118.5t-7 -107q0 -29 5 -51t15 -40q11 -18 28.5 -31t33 -24.5 t27 -22.5t11.5 -24q0 -8 -4.5 -13t-14.5 -5q-15 0 -33 11t-44.5 28.5t-63.5 37t-90 36.5q-39 13 -79 20.5t-93 10.5q-29 3 -29 17q0 16 19 16h33t42 1q34 3 56 21t33 67q3 19 6.5 49t6 64t4 69t1.5 67q0 29 -1 66.5t-5.5 77.5t-14 79t-28 69t-47 49t-69.5 19 q-36 0 -65 -17.5t-51.5 -49t-38.5 -74.5t-24 -94q-9 -52 -12 -107.5t-3 -109.5q0 -46 3 -88.5t9 -78.5t14.5 -63.5t19.5 -43.5q16 -22 34.5 -33t30.5 -15q17 -5 24 -8.5t7 -10.5q0 -5 -8 -9.5t-26 -4.5t-39 3t-43.5 6.5t-47 6.5t-47.5 3q-24 0 -48 -1.5t-46.5 -3.5t-41 -3.5 t-29.5 -1.5q-33 0 -33 21q0 7 5.5 12.5t20.5 7.5q11 1 20.5 1.5l19 1t20 1.5t24.5 3q27 4 37 19.5t10 42.5q0 46 -8 112.5t-21.5 146t-32.5 169t-40 183.5q-10 47 -23 70.5t-38 23.5q-12 0 -25.5 -4.5t-26.5 -10t-25 -10t-22 -4.5q-16 0 -16 13q0 11 9 16t19 9q24 9 51 23.5 t59 38.5q31 24 55.5 52t42 51.5t28.5 39t17 15.5zM516 1403q26 0 51.5 -10.5t50 -25.5t49.5 -33.5t50 -33.5t50.5 -25.5t51.5 -10.5q22 0 38 8.5t26.5 19.5t18.5 20t13 9t9.5 -7.5t4.5 -23.5q0 -30 -8 -59.5t-25.5 -54t-46 -40t-68.5 -15.5q-38 0 -70 14t-61 35.5t-53.5 47 t-47 46.5t-43.5 35.5t-40 14.5q-16 0 -28 -9.5t-21 -23.5t-15.5 -31t-11.5 -30.5t-10 -23.5t-10 -10q-9 0 -9 26q0 19 8 51t26 63.5t48 54t73 22.5z" />
<glyph unicode="&#xf2;" horiz-adv-x="689" d="M119 1423q16 0 34.5 -10.5t37 -29.5t38 -44t37.5 -53q20 -30 38.5 -59t32 -54t22 -45.5t8.5 -35.5q0 -10 -4 -16.5t-13 -6.5q-10 0 -29 12t-43 32t-51 45t-52 52q-20 20 -40.5 41t-37 41.5t-26.5 40t-10 36.5q0 28 18.5 41t39.5 13zM304 927q31 0 31 -17 q0 -10 -6.5 -17.5t-18.5 -18.5q-19 -18 -40 -45.5t-39 -66t-30 -87t-12 -109.5q0 -35 6 -74.5t20.5 -72.5t40 -54.5t66.5 -21.5q43 0 72 25.5t46 65.5t24 88t7 94q0 65 -18 124.5t-54 100.5q-5 7 -11.5 13t-13 13t-10.5 14t-4 15q0 13 7.5 20.5t21.5 7.5q19 0 41.5 -2.5 t55.5 -2.5q62 0 123 12.5t116.5 35t103 51.5t82.5 64q36 34 63 71.5t46.5 75.5t29.5 74t10 68q0 30 -10.5 50t-25.5 33.5t-33.5 25t-33.5 25t-25.5 32.5t-10.5 47q0 43 29 71t76 28q22 0 45 -8t41.5 -27.5t30 -51.5t11.5 -79t-14 -103.5t-41.5 -116.5t-68.5 -120.5 t-96 -114.5q-55 -55 -115.5 -89.5t-118 -55.5t-104.5 -30t-73 -12q10 -5 33.5 -22.5t49 -49t44.5 -77.5t19 -109q0 -73 -27 -132.5t-73.5 -101.5t-108 -64.5t-130.5 -22.5q-62 0 -118.5 18.5t-98.5 56.5t-67 94.5t-25 133.5q0 57 14.5 103.5t39 83t55 63t62 44.5t61 26 t51.5 8z" />
<glyph unicode="&#xf3;" horiz-adv-x="689" d="M572 1419q16 0 24 -10t8 -28q0 -15 -9.5 -38t-24.5 -50t-34 -56.5t-38 -55.5q-36 -48 -67 -79t-45 -31q-8 0 -10.5 4.5t-2.5 13.5q0 11 8.5 40t23.5 65.5t34 76t41 72.5t45.5 54.5t46.5 21.5zM304 927q31 0 31 -17q0 -10 -6.5 -17.5t-18.5 -18.5q-19 -18 -40 -45.5 t-39 -66t-30 -87t-12 -109.5q0 -35 6 -74.5t20.5 -72.5t40 -54.5t66.5 -21.5q43 0 72 25.5t46 65.5t24 88t7 94q0 65 -18 124.5t-54 100.5q-5 7 -11.5 13t-13 13t-10.5 14t-4 15q0 13 7.5 20.5t21.5 7.5q19 0 41.5 -2.5t55.5 -2.5q62 0 123 12.5t116.5 35t103 51.5t82.5 64 q36 34 63 71.5t46.5 75.5t29.5 74t10 68q0 30 -10.5 50t-25.5 33.5t-33.5 25t-33.5 25t-25.5 32.5t-10.5 47q0 43 29 71t76 28q22 0 45 -8t41.5 -27.5t30 -51.5t11.5 -79t-14 -103.5t-41.5 -116.5t-68.5 -120.5t-96 -114.5q-55 -55 -115.5 -89.5t-118 -55.5t-104.5 -30 t-73 -12q10 -5 33.5 -22.5t49 -49t44.5 -77.5t19 -109q0 -73 -27 -132.5t-73.5 -101.5t-108 -64.5t-130.5 -22.5q-62 0 -118.5 18.5t-98.5 56.5t-67 94.5t-25 133.5q0 57 14.5 103.5t39 83t55 63t62 44.5t61 26t51.5 8z" />
<glyph unicode="&#xf4;" horiz-adv-x="689" d="M379 1429q8 0 16 -11t24 -32q20 -28 36 -47.5t31 -36t30 -31.5l33 -33q41 -37 71.5 -59.5t51.5 -37t32 -24.5t11 -23q0 -9 -8 -14t-18 -5q-16 0 -37 5.5t-44 15.5t-46.5 23.5t-44.5 28.5q-37 29 -64 54t-45 43.5t-29 29t-17 10.5q-5 0 -17 -12t-30 -32t-43 -46t-56 -55 q-25 -22 -48 -41.5t-42.5 -34.5t-35 -23.5t-25.5 -8.5q-3 0 -5.5 1t-2.5 5q0 8 21 29t55 56t76 83t84 110q15 23 28.5 43.5t24 36t19 24.5t14.5 9zM304 927q31 0 31 -17q0 -10 -6.5 -17.5t-18.5 -18.5q-19 -18 -40 -45.5t-39 -66t-30 -87t-12 -109.5q0 -35 6 -74.5 t20.5 -72.5t40 -54.5t66.5 -21.5q43 0 72 25.5t46 65.5t24 88t7 94q0 65 -18 124.5t-54 100.5q-5 7 -11.5 13t-13 13t-10.5 14t-4 15q0 13 7.5 20.5t21.5 7.5q19 0 41.5 -2.5t55.5 -2.5q62 0 123 12.5t116.5 35t103 51.5t82.5 64q36 34 63 71.5t46.5 75.5t29.5 74t10 68 q0 30 -10.5 50t-25.5 33.5t-33.5 25t-33.5 25t-25.5 32.5t-10.5 47q0 43 29 71t76 28q22 0 45 -8t41.5 -27.5t30 -51.5t11.5 -79t-14 -103.5t-41.5 -116.5t-68.5 -120.5t-96 -114.5q-55 -55 -115.5 -89.5t-118 -55.5t-104.5 -30t-73 -12q10 -5 33.5 -22.5t49 -49t44.5 -77.5 t19 -109q0 -73 -27 -132.5t-73.5 -101.5t-108 -64.5t-130.5 -22.5q-62 0 -118.5 18.5t-98.5 56.5t-67 94.5t-25 133.5q0 57 14.5 103.5t39 83t55 63t62 44.5t61 26t51.5 8z" />
<glyph unicode="&#xf5;" horiz-adv-x="689" d="M316 1267q26 0 51.5 -10.5t50 -25.5t49.5 -33.5t50 -33.5t50.5 -25.5t51.5 -10.5q22 0 38 8.5t26.5 19.5t18.5 20t13 9t9.5 -7.5t4.5 -23.5q0 -30 -8 -59.5t-25.5 -54t-46 -40t-68.5 -15.5q-38 0 -70 14t-61 35.5t-53.5 47t-47 46.5t-43.5 35.5t-40 14.5q-16 0 -28 -9.5 t-21 -23.5t-15.5 -31t-11.5 -30.5t-10 -23.5t-10 -10q-9 0 -9 26q0 19 8 51t26 63.5t48 54t73 22.5zM304 927q31 0 31 -17q0 -10 -6.5 -17.5t-18.5 -18.5q-19 -18 -40 -45.5t-39 -66t-30 -87t-12 -109.5q0 -35 6 -74.5t20.5 -72.5t40 -54.5t66.5 -21.5q43 0 72 25.5t46 65.5 t24 88t7 94q0 65 -18 124.5t-54 100.5q-5 7 -11.5 13t-13 13t-10.5 14t-4 15q0 13 7.5 20.5t21.5 7.5q19 0 41.5 -2.5t55.5 -2.5q62 0 123 12.5t116.5 35t103 51.5t82.5 64q36 34 63 71.5t46.5 75.5t29.5 74t10 68q0 30 -10.5 50t-25.5 33.5t-33.5 25t-33.5 25t-25.5 32.5 t-10.5 47q0 43 29 71t76 28q22 0 45 -8t41.5 -27.5t30 -51.5t11.5 -79t-14 -103.5t-41.5 -116.5t-68.5 -120.5t-96 -114.5q-55 -55 -115.5 -89.5t-118 -55.5t-104.5 -30t-73 -12q10 -5 33.5 -22.5t49 -49t44.5 -77.5t19 -109q0 -73 -27 -132.5t-73.5 -101.5t-108 -64.5 t-130.5 -22.5q-62 0 -118.5 18.5t-98.5 56.5t-67 94.5t-25 133.5q0 57 14.5 103.5t39 83t55 63t62 44.5t61 26t51.5 8z" />
<glyph unicode="&#xf6;" horiz-adv-x="689" d="M304 927q31 0 31 -17q0 -10 -6.5 -17.5t-18.5 -18.5q-19 -18 -40 -45.5t-39 -66t-30 -87t-12 -109.5q0 -35 6 -74.5t20.5 -72.5t40 -54.5t66.5 -21.5q43 0 72 25.5t46 65.5t24 88t7 94q0 65 -18 124.5t-54 100.5q-5 7 -11.5 13t-13 13t-10.5 14t-4 15q0 13 7.5 20.5 t21.5 7.5q19 0 41.5 -2.5t55.5 -2.5q62 0 123 12.5t116.5 35t103 51.5t82.5 64q36 34 63 71.5t46.5 75.5t29.5 74t10 68q0 30 -10.5 50t-25.5 33.5t-33.5 25t-33.5 25t-25.5 32.5t-10.5 47q0 43 29 71t76 28q22 0 45 -8t41.5 -27.5t30 -51.5t11.5 -79t-14 -103.5 t-41.5 -116.5t-68.5 -120.5t-96 -114.5q-55 -55 -115.5 -89.5t-118 -55.5t-104.5 -30t-73 -12q10 -5 33.5 -22.5t49 -49t44.5 -77.5t19 -109q0 -73 -27 -132.5t-73.5 -101.5t-108 -64.5t-130.5 -22.5q-62 0 -118.5 18.5t-98.5 56.5t-67 94.5t-25 133.5q0 57 14.5 103.5 t39 83t55 63t62 44.5t61 26t51.5 8zM298 1243q40 0 62 -26.5t22 -62.5q0 -30 -9 -50.5t-24 -34t-33 -19.5t-35 -6q-16 0 -32 5.5t-27.5 17t-19 29t-7.5 40.5t8.5 42.5t23 34t33 22.5t38.5 8zM515 1224q13 0 26.5 -4.5t24.5 -14t17.5 -25t6.5 -35.5q0 -21 -6 -38.5 t-17.5 -30.5t-26.5 -20t-33 -7q-15 0 -29 4.5t-25 14.5t-18 26.5t-7 39.5q0 21 7.5 37.5t19 28.5t27.5 18t33 6z" />
<glyph unicode="&#xf7;" horiz-adv-x="1019" d="M164 522q28 0 64.5 -0.5t76 -1l79 -1t74.5 -0.5q22 0 54 1t68.5 2t75 2.5t74 2.5t66.5 2t51 1q27 0 44.5 -2t27.5 -6.5t14 -10.5t4 -14q0 -11 -13 -21t-52 -10q-43 0 -94 1t-105 1q-72 0 -135 -1.5t-124.5 -4.5t-124.5 -4.5t-134 -1.5q-22 0 -36 2.5t-21.5 7t-10.5 9.5 t-3 12t3 13.5t12 11t24.5 7.5t40.5 3zM481 848q42 0 65.5 -25t23.5 -64q0 -19 -7.5 -35t-21 -27.5t-31.5 -18.5t-39 -7q-17 0 -33 5t-29.5 15.5t-21.5 27t-8 40.5q0 21 8 37.5t22 28.5t32.5 17.5t39.5 5.5zM486 366q41 0 65.5 -23t24.5 -64q0 -22 -8.5 -39.5t-22.5 -31 t-33.5 -20.5t-40.5 -7q-17 0 -32.5 5.5t-28.5 16t-20.5 27t-7.5 38.5q0 47 29.5 72.5t74.5 25.5z" />
<glyph unicode="&#xf8;" horiz-adv-x="682" d="M427 1077q10 0 14 -8t4 -22q0 -17 -6.5 -52t-16.5 -76q54 -10 97.5 -36t73 -64t45.5 -85.5t16 -100.5q0 -72 -23.5 -133.5t-67 -106t-106.5 -69.5t-142 -25q-14 0 -28 1t-27 2l-42 -151q-15 -58 -28.5 -82t-34.5 -24q-22 0 -22 27q0 10 4.5 34t13 57t19.5 73.5t24 85.5 q-38 15 -70 39.5t-54.5 59.5t-35.5 79t-13 97q0 88 29 150.5t76 102.5t106.5 58t120.5 18h10q11 38 18 66.5t11 39.5q8 26 16.5 35.5t18.5 9.5zM478 637q0 26 -3 57.5t-11 62t-22 58.5t-35 45l-139 -519q11 -4 21.5 -6.5t22.5 -2.5q48 0 80 29.5t51 74t27 98.5t8 103z M337 886q-40 0 -71.5 -20t-52.5 -58t-32.5 -92.5t-11.5 -123.5q0 -59 11.5 -112t34.5 -91q13 45 26.5 90t26.5 86t23 76.5t17 62.5l46 181q-4 1 -8.5 1h-8.5z" />
<glyph unicode="&#xf9;" horiz-adv-x="1280" d="M346 934q5 0 9.5 -7.5t9.5 -38.5q11 -71 19.5 -128t17.5 -105q21 -110 40.5 -196.5t46.5 -146t66 -90.5t99 -31q42 0 74 19.5t54.5 53t36.5 76t22 88.5t11 91.5t3 84.5q0 36 -1.5 71.5t-11.5 63.5t-31.5 45t-62.5 17q-24 0 -49 -4t-49 -4q-12 0 -20 5t-8 16 q0 13 9.5 17.5t23.5 5.5q15 1 35.5 3t44.5 5.5t50.5 10t55.5 18.5q23 10 44.5 23.5t39 25.5t30.5 20.5t20 8.5q9 0 12 -15t6 -41q3 -35 7 -92t9.5 -126t12.5 -144t17 -148q5 -39 14.5 -63t22 -37.5t28 -18t33.5 -4.5q38 0 69.5 6.5t47.5 6.5t21 -6t5 -14q0 -7 -5 -14.5 t-21 -11.5q-23 -5 -64.5 -9.5t-97.5 -12.5q-45 -6 -77.5 -14t-51.5 -8q-18 0 -27.5 8t-14.5 33q-5 24 -10 53t-10 58.5t-9.5 59t-8.5 55.5q-7 -46 -17 -94.5t-26.5 -95t-39.5 -88t-56 -73t-76 -50t-98 -18.5q-91 0 -155.5 48.5t-97.5 137.5q-20 49 -31.5 103.5t-19 106.5 t-12.5 97t-10 75q-5 31 -13 52t-18 32.5t-22 16t-26 4.5q-13 0 -28.5 -3.5t-31 -8.5t-30 -8.5t-25.5 -3.5q-8 0 -16 4.5t-8 18.5q0 15 13.5 20.5t34.5 11.5q26 8 61.5 23t76.5 42q33 23 55.5 46t37 42t24.5 31t17 12zM421 1332q16 0 34.5 -10.5t37 -29.5t38 -44t37.5 -53 q20 -30 38.5 -59t32 -54t22 -45.5t8.5 -35.5q0 -10 -4 -16.5t-13 -6.5q-10 0 -29 12t-43 32t-51 45t-52 52q-20 20 -40.5 41t-37 41.5t-26.5 40t-10 36.5q0 28 18.5 41t39.5 13z" />
<glyph unicode="&#xfa;" horiz-adv-x="1280" d="M346 934q5 0 9.5 -7.5t9.5 -38.5q11 -71 19.5 -128t17.5 -105q21 -110 40.5 -196.5t46.5 -146t66 -90.5t99 -31q42 0 74 19.5t54.5 53t36.5 76t22 88.5t11 91.5t3 84.5q0 36 -1.5 71.5t-11.5 63.5t-31.5 45t-62.5 17q-24 0 -49 -4t-49 -4q-12 0 -20 5t-8 16 q0 13 9.5 17.5t23.5 5.5q15 1 35.5 3t44.5 5.5t50.5 10t55.5 18.5q23 10 44.5 23.5t39 25.5t30.5 20.5t20 8.5q9 0 12 -15t6 -41q3 -35 7 -92t9.5 -126t12.5 -144t17 -148q5 -39 14.5 -63t22 -37.5t28 -18t33.5 -4.5q38 0 69.5 6.5t47.5 6.5t21 -6t5 -14q0 -7 -5 -14.5 t-21 -11.5q-23 -5 -64.5 -9.5t-97.5 -12.5q-45 -6 -77.5 -14t-51.5 -8q-18 0 -27.5 8t-14.5 33q-5 24 -10 53t-10 58.5t-9.5 59t-8.5 55.5q-7 -46 -17 -94.5t-26.5 -95t-39.5 -88t-56 -73t-76 -50t-98 -18.5q-91 0 -155.5 48.5t-97.5 137.5q-20 49 -31.5 103.5t-19 106.5 t-12.5 97t-10 75q-5 31 -13 52t-18 32.5t-22 16t-26 4.5q-13 0 -28.5 -3.5t-31 -8.5t-30 -8.5t-25.5 -3.5q-8 0 -16 4.5t-8 18.5q0 15 13.5 20.5t34.5 11.5q26 8 61.5 23t76.5 42q33 23 55.5 46t37 42t24.5 31t17 12zM735 1340q16 0 24 -10t8 -28q0 -15 -9.5 -38t-24.5 -50 t-34 -56.5t-38 -55.5q-36 -48 -67 -79t-45 -31q-8 0 -10.5 4.5t-2.5 13.5q0 11 8.5 40t23.5 65.5t34 76t41 72.5t45.5 54.5t46.5 21.5z" />
<glyph unicode="&#xfb;" horiz-adv-x="1280" d="M346 934q5 0 9.5 -7.5t9.5 -38.5q11 -71 19.5 -128t17.5 -105q21 -110 40.5 -196.5t46.5 -146t66 -90.5t99 -31q42 0 74 19.5t54.5 53t36.5 76t22 88.5t11 91.5t3 84.5q0 36 -1.5 71.5t-11.5 63.5t-31.5 45t-62.5 17q-24 0 -49 -4t-49 -4q-12 0 -20 5t-8 16 q0 13 9.5 17.5t23.5 5.5q15 1 35.5 3t44.5 5.5t50.5 10t55.5 18.5q23 10 44.5 23.5t39 25.5t30.5 20.5t20 8.5q9 0 12 -15t6 -41q3 -35 7 -92t9.5 -126t12.5 -144t17 -148q5 -39 14.5 -63t22 -37.5t28 -18t33.5 -4.5q38 0 69.5 6.5t47.5 6.5t21 -6t5 -14q0 -7 -5 -14.5 t-21 -11.5q-23 -5 -64.5 -9.5t-97.5 -12.5q-45 -6 -77.5 -14t-51.5 -8q-18 0 -27.5 8t-14.5 33q-5 24 -10 53t-10 58.5t-9.5 59t-8.5 55.5q-7 -46 -17 -94.5t-26.5 -95t-39.5 -88t-56 -73t-76 -50t-98 -18.5q-91 0 -155.5 48.5t-97.5 137.5q-20 49 -31.5 103.5t-19 106.5 t-12.5 97t-10 75q-5 31 -13 52t-18 32.5t-22 16t-26 4.5q-13 0 -28.5 -3.5t-31 -8.5t-30 -8.5t-25.5 -3.5q-8 0 -16 4.5t-8 18.5q0 15 13.5 20.5t34.5 11.5q26 8 61.5 23t76.5 42q33 23 55.5 46t37 42t24.5 31t17 12zM544 1382q8 0 16 -11t24 -32q20 -28 36 -47.5t31 -36 t30 -31.5l33 -33q41 -37 71.5 -59.5t51.5 -37t32 -24.5t11 -23q0 -9 -8 -14t-18 -5q-16 0 -37 5.5t-44 15.5t-46.5 23.5t-44.5 28.5q-37 29 -64 54t-45 43.5t-29 29t-17 10.5q-5 0 -17 -12t-30 -32t-43 -46t-56 -55q-25 -22 -48 -41.5t-42.5 -34.5t-35 -23.5t-25.5 -8.5 q-3 0 -5.5 1t-2.5 5q0 8 21 29t55 56t76 83t84 110q15 23 28.5 43.5t24 36t19 24.5t14.5 9z" />
<glyph unicode="&#xfc;" horiz-adv-x="1280" d="M346 934q5 0 9.5 -7.5t9.5 -38.5q11 -71 19.5 -128t17.5 -105q21 -110 40.5 -196.5t46.5 -146t66 -90.5t99 -31q42 0 74 19.5t54.5 53t36.5 76t22 88.5t11 91.5t3 84.5q0 36 -1.5 71.5t-11.5 63.5t-31.5 45t-62.5 17q-24 0 -49 -4t-49 -4q-12 0 -20 5t-8 16 q0 13 9.5 17.5t23.5 5.5q15 1 35.5 3t44.5 5.5t50.5 10t55.5 18.5q23 10 44.5 23.5t39 25.5t30.5 20.5t20 8.5q9 0 12 -15t6 -41q3 -35 7 -92t9.5 -126t12.5 -144t17 -148q5 -39 14.5 -63t22 -37.5t28 -18t33.5 -4.5q38 0 69.5 6.5t47.5 6.5t21 -6t5 -14q0 -7 -5 -14.5 t-21 -11.5q-23 -5 -64.5 -9.5t-97.5 -12.5q-45 -6 -77.5 -14t-51.5 -8q-18 0 -27.5 8t-14.5 33q-5 24 -10 53t-10 58.5t-9.5 59t-8.5 55.5q-7 -46 -17 -94.5t-26.5 -95t-39.5 -88t-56 -73t-76 -50t-98 -18.5q-91 0 -155.5 48.5t-97.5 137.5q-20 49 -31.5 103.5t-19 106.5 t-12.5 97t-10 75q-5 31 -13 52t-18 32.5t-22 16t-26 4.5q-13 0 -28.5 -3.5t-31 -8.5t-30 -8.5t-25.5 -3.5q-8 0 -16 4.5t-8 18.5q0 15 13.5 20.5t34.5 11.5q26 8 61.5 23t76.5 42q33 23 55.5 46t37 42t24.5 31t17 12zM520 1243q40 0 62 -26.5t22 -62.5q0 -30 -9 -50.5 t-24 -34t-33 -19.5t-35 -6q-16 0 -32 5.5t-27.5 17t-19 29t-7.5 40.5t8.5 42.5t23 34t33 22.5t38.5 8zM737 1224q13 0 26.5 -4.5t24.5 -14t17.5 -25t6.5 -35.5q0 -21 -6 -38.5t-17.5 -30.5t-26.5 -20t-33 -7q-15 0 -29 4.5t-25 14.5t-18 26.5t-7 39.5q0 21 7.5 37.5t19 28.5 t27.5 18t33 6z" />
<glyph unicode="&#xfd;" horiz-adv-x="1134" d="M497 922q7 0 12 -3t5 -13q0 -11 -12 -20q-10 -8 -31.5 -20.5t-57.5 -39.5q-22 -16 -34 -35.5t-18 -42t-7 -50t-1 -58.5q1 -63 8.5 -123.5t19 -113t26 -95t28.5 -70.5q30 -61 73.5 -97t105.5 -36q44 0 76 21t55 55t37 77.5t22.5 88t11.5 86.5t3 73q0 83 -13.5 126.5 t-40.5 60.5q-11 8 -25 13t-28.5 8.5t-27 6.5t-20.5 5q-18 4 -25 10.5t-7 18.5t8 19t20 7q25 0 66 -4t96 -4q31 0 67.5 3.5t71 9t63 12t43.5 11.5q12 4 19.5 5.5t11.5 1.5q10 0 16.5 -5t6.5 -15q0 -9 -3.5 -14.5t-11.5 -10.5q-19 -13 -37.5 -24.5t-27.5 -32.5q-8 -18 -12 -43 t-7 -61.5t-6 -87t-8 -120.5q-6 -76 -16 -163.5t-26.5 -182t-41 -195t-57.5 -204.5q-35 -104 -80 -186.5t-101.5 -140.5t-122 -89t-138.5 -31q-52 0 -95 16t-73.5 45t-47.5 69.5t-17 89.5q0 53 15.5 97.5t43 76.5t65 50t81.5 18q36 0 63.5 -12t46 -31.5t27.5 -44t9 -50.5 q0 -23 -7 -42.5t-20.5 -34.5t-33 -23.5t-44.5 -8.5q-28 0 -46 9.5t-30 23t-19.5 30t-14 29.5t-14 22.5t-20.5 9.5t-24 -10t-19 -26.5t-12.5 -37t-4.5 -41.5q0 -40 14.5 -74t40 -57.5t61 -36.5t77.5 -13q70 0 123.5 32t93 81t67 107t44 111t24.5 93t11 53q23 148 30 256.5 t7 171.5v36.5t-1 26.5q-1 13 -2 22q-6 -18 -14 -37q-7 -17 -16 -37.5t-21 -40.5q-15 -26 -38.5 -51t-54 -44.5t-68 -32t-80.5 -12.5q-75 0 -129.5 31t-94 83.5t-66 120t-44.5 140.5t-31 146t-26 136q-5 26 -15 34.5t-24 8.5q-16 0 -33 -3.5t-26 -3.5q-8 0 -12.5 4.5 t-4.5 10.5q0 15 17 20q38 10 67.5 19t54.5 18.5t47 19t44 20.5q52 25 91 48.5t67.5 41t48 28.5t34.5 11zM826 1223q16 0 24 -10t8 -28q0 -15 -9.5 -38t-24.5 -50t-34 -56.5t-38 -55.5q-36 -48 -67 -79t-45 -31q-8 0 -10.5 4.5t-2.5 13.5q0 11 8.5 40t23.5 65.5t34 76 t41 72.5t45.5 54.5t46.5 21.5z" />
<glyph unicode="&#xfe;" horiz-adv-x="884" d="M619 349q0 105 -18.5 181.5t-49 126t-70 73t-82.5 23.5q-35 0 -60.5 -12.5t-41 -34.5t-22.5 -52.5t-7 -65.5q0 -47 1.5 -100t5 -106.5t9 -105t13.5 -94.5q10 -48 25.5 -77t34 -45.5t39.5 -22.5t41 -6q15 0 34.5 4t39.5 16t39.5 34t35 57t24.5 86t9 121zM249 742 q15 15 34 30.5t45 28t57.5 20.5t70.5 8q72 0 142.5 -30.5t126.5 -93.5t90.5 -160t34.5 -230q0 -88 -17.5 -151.5t-45.5 -106.5t-62.5 -68t-68.5 -38.5t-63 -17.5t-46 -4q-31 0 -63 5t-63.5 17t-61 32t-55.5 51q0 -10 2 -49.5t5.5 -98.5t7.5 -131.5t9 -148.5t9.5 -151 t8.5 -138t7 -109.5t5 -65.5q1 -18 3.5 -37.5t10 -37.5t21.5 -33t39 -25q36 -14 69 -20.5t57 -12.5q27 -5 27 -23q0 -15 -10.5 -21t-20.5 -6q-25 0 -65.5 10.5t-93.5 22t-116.5 21.5t-132.5 10q-47 0 -82.5 -2.5t-60.5 -2.5q-16 0 -26 7t-10 17q0 13 10.5 19.5t25.5 8.5 q30 2 47.5 7.5t26.5 11.5q8 4 16 11t15 19.5t12 31t8 48.5q1 33 3.5 78t3.5 102.5t2 132t1 168.5q0 108 -1.5 242t-3.5 303q-2 141 -6 277.5t-11.5 262.5t-17.5 241t-22 212q-5 29 -11.5 45.5t-15.5 25.5t-19 11t-20 2q-17 0 -35 -6t-37 -6q-14 0 -19 6t-5 12q0 7 4 12.5 t16 9.5q6 1 26 5.5t47.5 11.5t59.5 16.5t61 20.5q44 17 74 33t50 28.5l32 20t20 7.5q18 0 18 -17q0 -6 -4.5 -11.5t-10 -10t-11 -8t-7.5 -4.5q-20 -16 -32.5 -31.5t-19.5 -33.5t-9.5 -40t-2.5 -53v-21z" />
<glyph unicode="&#xff;" horiz-adv-x="1134" d="M497 922q7 0 12 -3t5 -13q0 -11 -12 -20q-10 -8 -31.5 -20.5t-57.5 -39.5q-22 -16 -34 -35.5t-18 -42t-7 -50t-1 -58.5q1 -63 8.5 -123.5t19 -113t26 -95t28.5 -70.5q30 -61 73.5 -97t105.5 -36q44 0 76 21t55 55t37 77.5t22.5 88t11.5 86.5t3 73q0 83 -13.5 126.5 t-40.5 60.5q-11 8 -25 13t-28.5 8.5t-27 6.5t-20.5 5q-18 4 -25 10.5t-7 18.5t8 19t20 7q25 0 66 -4t96 -4q31 0 67.5 3.5t71 9t63 12t43.5 11.5q12 4 19.5 5.5t11.5 1.5q10 0 16.5 -5t6.5 -15q0 -9 -3.5 -14.5t-11.5 -10.5q-19 -13 -37.5 -24.5t-27.5 -32.5q-8 -18 -12 -43 t-7 -61.5t-6 -87t-8 -120.5q-6 -76 -16 -163.5t-26.5 -182t-41 -195t-57.5 -204.5q-35 -104 -80 -186.5t-101.5 -140.5t-122 -89t-138.5 -31q-52 0 -95 16t-73.5 45t-47.5 69.5t-17 89.5q0 53 15.5 97.5t43 76.5t65 50t81.5 18q36 0 63.5 -12t46 -31.5t27.5 -44t9 -50.5 q0 -23 -7 -42.5t-20.5 -34.5t-33 -23.5t-44.5 -8.5q-28 0 -46 9.5t-30 23t-19.5 30t-14 29.5t-14 22.5t-20.5 9.5t-24 -10t-19 -26.5t-12.5 -37t-4.5 -41.5q0 -40 14.5 -74t40 -57.5t61 -36.5t77.5 -13q70 0 123.5 32t93 81t67 107t44 111t24.5 93t11 53q23 148 30 256.5 t7 171.5v36.5t-1 26.5q-1 13 -2 22q-6 -18 -14 -37q-7 -17 -16 -37.5t-21 -40.5q-15 -26 -38.5 -51t-54 -44.5t-68 -32t-80.5 -12.5q-75 0 -129.5 31t-94 83.5t-66 120t-44.5 140.5t-31 146t-26 136q-5 26 -15 34.5t-24 8.5q-16 0 -33 -3.5t-26 -3.5q-8 0 -12.5 4.5 t-4.5 10.5q0 15 17 20q38 10 67.5 19t54.5 18.5t47 19t44 20.5q52 25 91 48.5t67.5 41t48 28.5t34.5 11zM582 1243q40 0 62 -26.5t22 -62.5q0 -30 -9 -50.5t-24 -34t-33 -19.5t-35 -6q-16 0 -32 5.5t-27.5 17t-19 29t-7.5 40.5t8.5 42.5t23 34t33 22.5t38.5 8zM799 1224 q13 0 26.5 -4.5t24.5 -14t17.5 -25t6.5 -35.5q0 -21 -6 -38.5t-17.5 -30.5t-26.5 -20t-33 -7q-15 0 -29 4.5t-25 14.5t-18 26.5t-7 39.5q0 21 7.5 37.5t19 28.5t27.5 18t33 6z" />
<glyph unicode="&#x131;" horiz-adv-x="519" d="M386 1072q8 0 8 -19q0 -13 -3 -42t-7 -62q-7 -52 -13.5 -115.5t-13 -130t-12 -132t-9.5 -121.5t-6.5 -98.5t-2.5 -62.5q0 -26 3 -43t8.5 -28t11.5 -17.5t13 -11.5t18 -9t23.5 -8t26 -6.5t23.5 -3.5q18 -3 29 -5t11 -11q0 -17 -36 -17q-25 0 -50.5 4t-52 9t-55 9t-61.5 4 q-30 0 -54.5 -2t-44.5 -4.5t-37.5 -4t-35.5 -1.5q-14 0 -26 3.5t-12 15.5t13 16.5t27 7.5q17 3 33 7t29 13t21.5 23.5t11.5 38.5q3 46 5 94t2.5 94.5t0.5 90.5v83v84.5t-1 65.5q-2 42 -10 66.5t-23 36.5t-37.5 15.5t-54.5 6.5q-9 1 -14.5 5.5t-5.5 13.5q0 16 25 18 q13 1 32 3.5t45 6.5t56 12t64 22q37 15 61 30.5t39 27.5t23.5 20t14.5 8z" />
<glyph unicode="&#x152;" horiz-adv-x="1948" d="M346 1211q75 36 146.5 49t137.5 13q75 0 143 -17.5t128.5 -49.5t112.5 -76t94 -96q-1 17 -3.5 37.5t-8 42t-14.5 42t-24 38.5q-13 16 -26 26t-23 16.5t-16.5 11t-6.5 11.5t6.5 10.5t13.5 3.5q21 0 48 -1t61 -1q53 0 122.5 7t156.5 24q71 14 129 36.5t100.5 43.5t69 36 t36.5 15q14 0 14 -26q0 -15 -0.5 -26.5t-1.5 -22.5t-1 -25v-34q0 -34 3.5 -67t8.5 -63t9 -55t4 -42q0 -10 -2.5 -16.5t-7.5 -6.5t-10.5 7.5t-10.5 20t-10 27t-9 28.5q-7 27 -15.5 51.5t-19.5 42.5t-25 29t-35 11q-24 0 -62.5 -7t-81.5 -17.5t-84.5 -22.5t-71.5 -22 q-25 -8 -30 -21t-5 -29q0 -2 1.5 -23.5t3 -54.5t4 -74.5t5 -85.5t5.5 -86.5t5 -77t4 -58.5t3 -30q4 -24 13.5 -30t21.5 -6q6 0 24 1t42 4t50.5 8t51.5 13q21 7 37.5 14.5t29.5 20t23 30t18 43.5q5 16 9 32t7 29t7 21t10 8q11 0 11 -19q0 -11 -3.5 -31.5t-7.5 -47t-7 -56.5 t-3 -59q0 -38 2.5 -73t5 -65t5 -54.5t2.5 -40.5q0 -9 -2 -14.5t-7 -5.5q-9 0 -17 24t-18 55.5t-23 62t-31 43.5q-11 10 -28.5 13t-36.5 3q-22 0 -44 -3t-41.5 -7.5t-34.5 -9t-23 -6.5q-22 -8 -28 -22t-6 -33q0 -6 1.5 -32.5t4.5 -66.5t6.5 -89.5t7.5 -101t8 -102t7.5 -91.5 t6 -70t4.5 -38q2 -17 10.5 -22.5t20.5 -5.5q42 0 95.5 4.5t107 14t100.5 24.5t76 36q23 17 41.5 42t32.5 52.5t23.5 55.5t16.5 51.5t10.5 40.5t5.5 22q3 9 5.5 20t6 20t7.5 16t9 7q6 0 8 -10t2 -23q0 -18 -2.5 -39t-5 -47t-5 -57t-2.5 -69q0 -28 0.5 -57t2 -55t2.5 -47 t1 -32q0 -21 -7.5 -31.5t-26.5 -10.5q-20 0 -55 2t-81 4t-102 3.5t-118 1.5q-135 0 -240.5 -16.5t-184 -36.5t-132.5 -36.5t-85 -16.5q-7 0 -11 3t-4 10q0 10 11.5 17.5t30 15.5t41 17t44.5 21q26 14 43.5 29t28.5 32t17 36t7 42q3 24 3.5 54.5t0.5 62.5q0 34 -1 66.5 t-3 58.5t-5 42t-6 16q-5 0 -18.5 -16t-38.5 -40.5t-61 -52t-84 -52t-108.5 -40.5t-134.5 -16q-140 0 -259.5 45.5t-206 130t-135.5 203.5t-49 268q0 92 24 175.5t68 154t106 125.5t138 90zM616 1201q-85 0 -154 -32.5t-117 -89.5t-74.5 -133.5t-26.5 -162.5 q0 -83 18.5 -163.5t51 -152t78.5 -132t101.5 -104.5t119 -68.5t132.5 -24.5q87 0 155.5 32t115 88.5t71 131.5t24.5 160t-14.5 166t-43 153.5t-71 133t-97.5 105t-122.5 69t-146.5 24.5z" />
<glyph unicode="&#x153;" horiz-adv-x="1374" d="M1037 937q41 0 80.5 -11t70.5 -35t50 -62t19 -91q0 -59 -20 -106t-57.5 -79t-90.5 -49t-120 -17q-16 0 -32 2t-31.5 4.5t-28.5 6t-22 7.5q7 -64 29 -116.5t54.5 -89.5t74.5 -57.5t90 -20.5q52 0 88.5 17.5t59.5 44.5t33.5 59.5t10.5 64.5q0 33 -6 53.5t-14 35t-14.5 25 t-6.5 22.5q0 9 5 14t16 5q12 0 25 -11.5t24 -31.5t18 -47t7 -57q0 -70 -25 -124.5t-67 -92t-96 -57.5t-112 -20q-55 0 -109.5 14t-101.5 43t-83.5 75t-56.5 110q-44 -104 -116.5 -149t-170.5 -45q-90 0 -161.5 31.5t-121 85.5t-76 125.5t-26.5 150.5t25.5 146t71 116.5 t107 77.5t135.5 28q62 0 117.5 -18.5t101.5 -50.5t80 -74.5t52 -90.5q26 61 64 105.5t82 74.5t89.5 44.5t85.5 14.5zM461 241q40 0 68.5 15.5t46 42t25.5 62.5t8 77t-9 89t-26 96t-41 93t-54.5 79.5t-67 55.5t-76.5 21q-38 0 -65 -15t-44 -41.5t-24.5 -63t-7.5 -79.5 q0 -33 6.5 -78t20.5 -93t35.5 -95t51.5 -84t68 -59.5t85 -22.5zM852 549q19 -12 45 -19t56 -7q55 1 91.5 23t59 54.5t31.5 71t9 71.5q0 71 -28 114.5t-87 43.5q-38 0 -70.5 -26.5t-56 -71.5t-37 -106.5t-13.5 -132.5v-15z" />
</font>
</defs>
</svg>
