<?xml version="1.0" standalone="no"?>
<!DOCTYPE svg PUBLIC "-//W3C//DTD SVG 1.1//EN" "http://www.w3.org/Graphics/SVG/1.1/DTD/svg11.dtd" >
<svg xmlns="http://www.w3.org/2000/svg">
<metadata>
This is a custom SVG webfont generated by Font Squirrel.
Copyright   : Copyright c 2011 by Brian J Bonislawsky DBA Astigmatic AOETI All rights reserved Available under the Apache 20 licencehttpwwwapacheorglicensesLICENSE20html
</metadata>
<defs>
<font id="YellowtailRegular" horiz-adv-x="885" >
<font-face units-per-em="2048" ascent="1638" descent="-410" />
<missing-glyph horiz-adv-x="501" />
<glyph unicode=" "  horiz-adv-x="501" />
<glyph unicode="&#x09;" horiz-adv-x="501" />
<glyph unicode="&#xa0;" horiz-adv-x="501" />
<glyph unicode="!" horiz-adv-x="790" d="M177 -3q0 75 62.5 136t131.5 61t69 -68.5t-63 -136t-131.5 -67.5t-68.5 75zM420 437q0 79 202.5 404t397 604t248.5 321q16 12 68 12l91 -12q29 0 29 -18q0 -4 -5 -16q-365 -537 -814 -1264q-25 -41 -48 -48q-1 0 -3 -1l-4 -3q-3 -2 -7 -3q-18 -7 -41.5 -7t-33 -7 t-36.5 -7q-44 0 -44 45z" />
<glyph unicode="&#x22;" horiz-adv-x="816" d="M563 1145q0 23 73.5 190t134.5 286q27 56 80 56t79.5 -16.5t26.5 -45.5t-66.5 -164t-148 -256.5t-117.5 -121.5q-13 0 -37.5 24.5t-24.5 47.5zM876 1142q0 32 103 235.5t109 239.5q8 55 98.5 55t90.5 -47q0 -64 -71 -199.5t-146.5 -243t-93.5 -107.5q-90 0 -90 67z" />
<glyph unicode="#" horiz-adv-x="1312" d="M165 479q0 8 19.5 22.5t26.5 29.5t64.5 45.5t103.5 30.5t93 4q17 27 45 78q62 115 105 171q-69 -2 -110.5 -2t-74 12.5t-32.5 35.5q0 7 16.5 19t18.5 23q10 20 57.5 43t83.5 24l152 7q51 67 132 191.5t109.5 163.5t38.5 39t26.5 -36t16.5 -59.5t-22.5 -66.5t-121.5 -225 l171 6l213 328q14 14 19 14q13 0 38 -42t25 -86.5t-97 -208.5h35q67 0 83.5 -4.5t33.5 -24t28 -25.5q16 -14 16 -31t-28 -30.5t-60.5 -14.5t-188.5 -13l-163 -269h95q82 0 97 -3.5t34.5 -24.5t36 -31.5t16.5 -30.5t-32.5 -34.5t-75.5 -19t-259 -16.5q-110 -218 -134 -330 v-14q0 -23 -16.5 -23t-41 32.5t-45.5 78.5t-21 77.5t59 164.5q-48 -2 -213 -16q-138 -239 -183 -355q0 -37 -20 -37t-40.5 30.5t-29 69.5t-8.5 58.5t11 49.5t24 54t36 64t34 59h-90q-35 0 -70.5 12t-35.5 36zM654 616q1 0 23 1t157 6q77 143 155 264l-178 -15 q-11 -16 -67.5 -111t-89.5 -145z" />
<glyph unicode="$" horiz-adv-x="1049" d="M177 258q0 66 41.5 109.5t95.5 43.5t54 -30l-2 -28q0 -26 14 -33q15 30 53 108.5t60 122.5q-161 32 -203 129q-14 30 -14 55q0 78 49.5 152.5t131.5 130.5q158 110 356 171q133 265 178 346q19 36 82 57.5t94 21.5t31 -29q0 -6 -39 -81q-67 -125 -143 -271 q205 0 210 -104v-6q0 -75 -29 -113t-89.5 -67.5t-99.5 -29.5t-54 13t-23 16.5t-8 18t12.5 31.5t16.5 36q-35 -6 -46 -6q-93 -187 -164 -326q95 -26 155 -55t92 -76t32 -105.5t-57 -126t-143 -112.5q-181 -95 -358 -110q-94 -220 -107 -240.5t-25 -27.5t-21 -8q-30 -7 -50 -7 t-41.5 8t-22.5 16t-6 20t-5 21.5t103 235.5q-111 39 -111 129zM474 776.5q0 -17.5 25.5 -26.5t83.5 -20q55 113 108 218q-87 -45 -152 -99.5t-65 -72zM557 322q103 19 169.5 55.5t66.5 69.5t-143 65q-2 -5 -93 -190z" />
<glyph unicode="%" horiz-adv-x="1611" d="M286 758q0 92 59 220t146 237t195 185t198 76q48 0 89.5 -65t41.5 -133q-10 -85 -64.5 -208.5t-108 -202.5t-113.5 -145q-132 -147 -289 -152q-66 -2 -110 47t-44 141zM389 76q0 42 10 82t16.5 50.5t11.5 15.5q5 7 166.5 196.5t482.5 543t379 419t64.5 71.5t12.5 9 q15 11 23 11q21 0 21 -38.5t-1.5 -51t-2.5 -24t-2.5 -16.5t-5 -18t-6.5 -21q-19 -41 -256 -306q-454 -507 -810 -973q-5 -6 -14 -24q-18 -34 -41 -34q-48 0 -48 108zM451 779q0 -44 23 -44q62 0 133 65t125.5 154.5t91 185t36.5 139.5t-15 44q-46 0 -141 -95.5t-174 -228.5 t-79 -220zM899 156.5q0 91.5 57.5 219.5t142.5 237t191 185t196 76q50 0 88 -47t38 -112q0 -20 -16.5 -67t-6.5 -72t-7 -75.5t-51 -117.5t-86.5 -140t-111.5 -134t-133 -101t-144 -40t-113.5 48.5t-43.5 140zM1064 177q0 -44 24 -44q71 0 161.5 107.5t151.5 241.5t61 214 q0 25 -15 25q-46 0 -138 -95.5t-168.5 -228.5t-76.5 -220z" />
<glyph unicode="&#x26;" horiz-adv-x="1090" d="M258 499q0 204 253 335q-96 55 -96 152.5t89 184.5q174 171 491 224q141 277 147 287q20 36 84 58t84 22q39 0 39 -32q0 -8 -20 -44q-76 -143 -149 -284q65 -4 101.5 -31t36.5 -72t-30.5 -86.5t-76.5 -65.5q-90 -47 -176 -47h-12l-46 -92l13 1q47 0 68 -43.5t21 -58 t-8.5 -24.5t-24 -20.5t-22 -16.5t-19.5 -13t-24 -11t-26 -7.5t-23 -5.5q-33 -7 -39 -7l-22 -7q-19 -37 -42 -82t-52 -104.5t-47 -94.5q124 45 251 120t149.5 112.5t38.5 37.5q25 0 45.5 -35t20.5 -66q0 -75 -87.5 -162.5t-231 -153.5t-289.5 -81q-116 -260 -129.5 -282.5 t-47 -26t-48 -3.5t-32.5 9t-20 16.5t-6.5 19.5t-4.5 29t109 242q-87 19 -138.5 74.5t-51.5 134.5zM487 535q0 -54 48 -59q21 40 60.5 121t58.5 118q-167 -83 -167 -180zM610 989q0 -21 44 -21q3 0 18.5 1.5t48 4.5t65.5 7q20 37 53 104t44 87q-101 -43 -187 -102.5 t-86 -80.5z" />
<glyph unicode="'" horiz-adv-x="461" d="M538 1143q0 46 244 478q32 56 114 56t82 -43t-70 -179.5t-157 -259t-126 -122.5q-15 0 -51 24.5t-36 45.5z" />
<glyph unicode="(" d="M204 -48q0 291 69.5 562.5t189 488t278.5 399.5q307 350 706 521q82 37 152 37q23 0 35.5 -46t12.5 -72t-18 -39t-67 -31q-332 -120 -588.5 -406t-398.5 -639t-150 -708q-5 -141 15.5 -241t26.5 -144q13 -84 -30 -84q-19 0 -58 39.5t-78 96.5q-97 143 -97 266z" />
<glyph unicode=")" d="M-249 -304q0 21 15.5 34.5t32.5 17.5t43 7q139 16 309.5 152.5t311 323t254.5 406t181.5 470.5t67.5 481l-9 240q0 60 12.5 86t124.5 26q29 0 48 -114t19 -309t-58.5 -432.5t-155.5 -452t-227 -412.5t-268 -341t-284 -228.5t-271 -85.5q-32 0 -52 3.5t-46 26.5 q-48 43 -48 101z" />
<glyph unicode="*" d="M516 1192q0 93 244 173l-39 51q-27 17 -48.5 55.5t-21.5 66.5t15.5 51t48 23t91.5 -70l70 -96q41 74 70 154q28 60 98 60q31 0 46.5 -10.5t15.5 -29.5t-85 -174q161 35 186 57q12 19 24.5 19t22 -22.5t9.5 -37.5q0 -123 -242 -194q41 -50 57.5 -83t16.5 -79t-20 -83 t-52.5 -37t-52.5 43q-48 74 -99 158q-121 -201 -145 -201q-14 0 -38 17t-25.5 34t75.5 162q-139 -27 -180.5 -27t-41.5 20z" />
<glyph unicode="+" horiz-adv-x="1003" d="M249 708q0 5 4 16t14 39t14.5 38t13.5 24q15 23 51 23q94 0 253 -7q5 10 57 99.5t71 126t22.5 47.5t7.5 18.5t12 16.5q16 20 42.5 20t56 -24t29.5 -50.5t-15.5 -58.5t-55.5 -96t-63 -106q194 -8 245 -8q85 0 85 -45q0 -16 -7 -28t-16 -28t-13 -23.5t-13.5 -19 t-19.5 -16.5q-23 -13 -58 -13l-279 11q-50 -120 -76 -258q-1 -6 -3.5 -16.5t-3.5 -17t-3.5 -16t-4.5 -15t-6 -11.5q-7 -9 -17 -9t-17 3.5t-14 10.5t-12.5 13.5t-13.5 17.5l-13 16q-4 5 -13.5 16t-13 15.5t-9.5 12t-7.5 13.5t-1.5 10.5t4 14t27 59.5q35 82 55 144 q-179 -5 -221 -5q-74 0 -74 46z" />
<glyph unicode="," horiz-adv-x="574" d="M99 -176.5q0 18.5 9.5 25.5t48 62t45.5 72q-19 18 -19 57.5t45.5 87t108 47.5t91.5 -34.5t29 -90t-39.5 -108.5t-118 -111.5t-116.5 -58.5t-52.5 14.5t-23 16.5t-8.5 20.5z" />
<glyph unicode="-" horiz-adv-x="767" d="M177 521.5q0 22.5 12.5 40t16.5 36.5t42.5 54.5t65 38.5t93.5 7.5t134.5 10t130 5.5t72.5 -6.5t22.5 -32t23 -37t10.5 -38.5t-21 -46t-48 -23.5t-60 -8.5t-73.5 -8t-77 -9t-83.5 -14q-91 -18 -184 -20h-6q-24 -3 -47 12.5t-23 38z" />
<glyph unicode="." horiz-adv-x="560" d="M177 12q0 72 56.5 128t111.5 56q97 0 97 -80q0 -66 -55 -128t-125 -62q-85 0 -85 86z" />
<glyph unicode="/" horiz-adv-x="914" d="M-188 -133q0 65 8.5 96.5t84 139.5t234 300.5t351 402t349 373.5t374.5 389.5t271.5 281t59.5 60.5l9 10q13 10 23 10q30 0 30 -99q0 -2 0.5 -13t0.5 -17q-6 -48 -31 -88q-139 -201 -611 -710q-191 -204 -386 -418q-461 -506 -653 -822q-4 -6 -11 -25q-13 -33 -39 -33 t-45 48.5t-19 113.5z" />
<glyph unicode="0" horiz-adv-x="1032" d="M69.5 178q-3.5 100 50 242t143.5 282.5t208.5 277.5t240 242.5t243 170t198.5 64.5t119.5 -54t44.5 -136q1 -21 -13 -98t-91 -195q1 -5 2.5 -22t-5 -51t-52 -124t-115 -196.5t-163.5 -215t-192.5 -197t-210.5 -144.5t-203 -56t-146 55t-58.5 155zM286 268q2 -95 70 -95 t168 78q171 133 401 439q-64 -36 -102 -36t-58 27.5t-21.5 78.5t34.5 65q147 58 241.5 179.5t90.5 229.5q-2 38 -52.5 38t-170.5 -104.5t-240.5 -250.5t-223.5 -316t-134 -289q-6 -21 -3 -44z" />
<glyph unicode="1" horiz-adv-x="551" d="M-11 78q0 28 244.5 434.5t390.5 613.5q-42 -30 -77 -58t-42.5 -28t-12.5 10t-8.5 24t-11.5 26.5t-7 21t9.5 30t89 96t173.5 141t124.5 66.5t67 -37t35.5 -70q-1 -15 -160 -263t-240 -382q-367 -605 -402 -708q0 -4 -35.5 -14.5t-44.5 -10.5t-15 11q-27 50 -40 65 t-25.5 22.5t-12.5 9.5z" />
<glyph unicode="2" horiz-adv-x="908" d="M12 83q0 20 22 65q4 8 148 166q35 38 184.5 169.5t207.5 197t204.5 217.5t217.5 236.5t71 119.5q0 23 -34.5 23t-83.5 -21t-114 -62q-152 -98 -292 -295q-7 -6 -7 -25q-10 -23 -40.5 -38.5t-49.5 -15.5t-48 12.5t-43 25.5t-14 49.5t41.5 104.5t115.5 144t165.5 144 t205 112.5t192.5 44.5t117 -34q69 -64 69 -141.5t-73.5 -191t-200 -249t-238.5 -246.5t-249 -239t-171 -162q305 60 423 60q43 0 49 -27q2 -11 11.5 -16.5t19.5 -46.5t12 -67v-11q0 -41 -31 -47q-113 -24 -368.5 -42.5t-304.5 -26.5q-25 0 -79 28q-10 10 -22.5 37.5 t-12.5 47.5z" />
<glyph unicode="3" horiz-adv-x="992" d="M77 126.5q0 55.5 45.5 108.5t86.5 53q18 0 21 -38q8 -71 61 -71q91 0 213.5 48.5t211 117.5t87 121.5t-77.5 84.5t-216 32q-25 0 -40.5 27.5t-15.5 60t17 58.5t37 41t64 42.5t61 40t60.5 44.5t72 53t74.5 57t76.5 64.5t61.5 61.5q64 65 64 110q0 25 -42.5 25t-150.5 -55 t-227 -152t-177 -194q-3 -3 -6.5 -11.5t-5.5 -12.5q-6 -11 -33.5 -11t-53.5 28q-36 39 -30 80.5t47.5 102.5t114 129t161 128.5t198 99t203.5 38.5t136.5 -46t42.5 -111q0 -97 -113.5 -239t-361.5 -304q96 0 176 -58.5t80 -147.5q-15 -141 -131 -268t-290 -210.5t-340 -83.5 q-80 0 -120.5 50.5t-40.5 106z" />
<glyph unicode="4" horiz-adv-x="1062" d="M152 550q0 47 7 64q43 99 277 307.5t472 378.5t303 181q1 0 9 -3t30.5 -10.5t42.5 -14.5q7 -5 14.5 -21t12.5 -18q10 -19 10 -28t-2 -11q-251 -385 -409 -669q246 24 270 24t24 -11t-59.5 -97t-90.5 -100q-39 -9 -262 -29q-137 -242 -285 -517q-16 -35 -125 -55 q-46 -8 -62 -15q-13 0 -28 14.5t-17 28.5q53 114 291 527q-366 -26 -384 -26q-39 0 -39 100zM374 631q143 27 321 51q164 277 368 565q-125 -104 -385.5 -341t-303.5 -275z" />
<glyph unicode="5" horiz-adv-x="938" d="M9 143q0 63 28 111t72 48q26 0 26 -41q4 -96 118 -96q86 0 202.5 55t204.5 143.5t88 171.5q-5 83 -184 83q-107 0 -168 -13.5t-66.5 -13.5t-8.5 3q-7 5 -22 37t-15 48.5t25.5 77t179 308.5t180 279t65.5 31q98 23 468 58q26 0 59 -51t33 -71t-6.5 -47t-15 -34.5 t-35.5 -15.5t-68 -15t-80 -12.5t-95.5 -10.5t-91.5 -9q-104 -11 -173 -14q-63 -103 -198 -332q59 12 147 12t168 -47t87 -156q0 -114 -50.5 -222.5t-131 -188.5t-176.5 -141q-195 -122 -363 -122q-203 0 -203 187z" />
<glyph unicode="6" horiz-adv-x="992" d="M88 155q0 13 2 20q30 338 375 775q105 132 236.5 242.5t243.5 171.5q234 130 321 130q97 0 97 -111q0 -52 -21 -59q-245 -80 -443 -218t-386 -368q223 154 355 154q58 0 107.5 -41.5t51.5 -124t-40.5 -188.5t-119 -207.5t-171.5 -186t-212 -136.5t-228 -52 q-67 0 -117.5 54.5t-50.5 144.5zM268 194q0 -61 38.5 -61t120.5 47t176 134.5t156 182.5t61 142t-23 64t-48 17q-69 0 -181.5 -59t-175.5 -117q-124 -230 -124 -350z" />
<glyph unicode="7" horiz-adv-x="826" d="M173 11.5q0 15.5 2 24.5t7.5 21.5t9.5 22.5q19 40 30 65q42 97 203 327t343 457t276 314l-640 -64q-25 0 -25 17.5t16.5 49.5t17.5 40q5 11 89 70q1 1 19 21.5t44 32.5t241 27.5t337 16.5l42 -1q23 0 47.5 -46t24.5 -74.5t-6.5 -44.5t-12.5 -23q-18 -24 -52 -73 t-200 -260t-239 -314q-264 -374 -408 -655q-13 -24 -45 -24l-46 8q-17 0 -46 24.5t-29 40z" />
<glyph unicode="8" horiz-adv-x="967" d="M24 165q4 89 58.5 182t129.5 170q136 138 293 246q-58 102 -58 219q0 9 3 30q18 116 89 223.5t177 175.5t217 68q149 0 199 -98q11 -30 11 -43t-31 -100q7 7 108 80q146 105 161 105l56 4q43 0 59.5 -7.5t16.5 -39.5t-35.5 -63.5t-115 -88.5t-143 -106t-231 -181.5 t-223.5 -175.5l-4 -11q11 -14 48 -62.5t52 -70.5q48 -76 48 -150v-23q-10 -106 -69.5 -199t-146.5 -155q-187 -131 -394 -131q-156 0 -233 85q-42 48 -42 117zM290 182q34 -22 92 -22t137.5 32.5t140.5 96t61 137t-104 189.5h1q-16 21 -29 23q-215 -168 -296 -293 q-75 -116 -3 -163zM640 1017q0 -54 30 -134q154 129 359 291q-53 98 -140.5 98t-168 -74.5t-80.5 -180.5z" />
<glyph unicode="9" horiz-adv-x="965" d="M30 91.5q0 26.5 38 39.5q147 50 332.5 195t370.5 348l-6 7q-205 -109 -301.5 -109t-134.5 86q-13 30 -15 69q0 105 43 209.5t112 187t156.5 155t175.5 120.5q189 102 292 102q198 0 198 -197q0 -142 -105 -330t-249.5 -360.5t-300.5 -324.5t-295 -246t-212 -94 q-31 0 -47.5 19.5t-31.5 59.5q-20 37 -20 63.5zM512 830q0 -51 66 -51q100 0 342 127q96 128 148.5 215t52.5 128.5t-20.5 61.5t-45.5 20q-81 0 -213 -95.5t-231 -216.5t-99 -189z" />
<glyph unicode=":" horiz-adv-x="816" d="M201 12q0 72 56.5 128t110.5 56q98 0 98 -80q0 -66 -55.5 -128t-124.5 -62q-85 0 -85 86zM550 662q0 72 57 129t113 57q97 0 97 -82q0 -64 -57 -126.5t-124 -62.5q-86 0 -86 85z" />
<glyph unicode=";" horiz-adv-x="829" d="M118 -176.5q0 18.5 9.5 25.5t48 62t45.5 72q-19 18 -19 57.5t45.5 87t103.5 47.5t91.5 -33t33.5 -90t-40 -110t-118 -111.5t-116 -58.5t-52.5 14.5t-23 16.5t-8.5 20.5zM563 662q0 72 56 129t126 57q85 0 85 -82q0 -65 -57 -127t-125 -62q-85 0 -85 85z" />
<glyph unicode="&#x3c;" horiz-adv-x="826" d="M356 785q0 40 62 80q8 5 46 29.5t49 31.5t47 30t52 34t49.5 34t53.5 37.5t52.5 37.5t57.5 42t55 43t46 37t25 23q18 17 34 17q42 0 42 -122q0 -44 -8 -65t-48.5 -53.5t-200.5 -118t-239 -139.5q17 -85 53 -195.5t45 -126t9 -49t-34 -126.5t-57.5 -93t-33 22.5t-23 104.5 t-35.5 167q-25 104 -90 294q-9 10 -9 24z" />
<glyph unicode="=" horiz-adv-x="1037" d="M177 519.5q0 19.5 17.5 37.5t23.5 35.5t61 50.5t84 35q229 18 396 18t181.5 -6t32 -30t33 -36.5t15.5 -36t-31 -42.5t-52 -20.5t-105 -10.5t-170 -18q-224 -23 -377 -25h-17q-33 0 -62.5 14.5t-29.5 34zM322 858.5q0 19.5 18 37t21 27.5q8 26 62.5 59t85.5 35 q236 18 423.5 18t201.5 -6.5t32 -30t33 -36t15 -36.5t-31 -43t-53 -20.5t-156 -14.5q-384 -36 -543 -39h-17q-33 0 -62.5 15t-29.5 34.5z" />
<glyph unicode="&#x3e;" horiz-adv-x="826" d="M159 346q0 56 107 145q81 64 153 104.5t147 83t103 59.5q-34 81 -73 189.5t-43 119t-5.5 18.5t-2 13.5t1.5 14.5t3 14.5t4.5 16t5.5 15t7 16.5t7 16t8.5 17.5t16 35t33 52.5t38 31t19 -6.5t5 -25.5t14.5 -114q31 -191 106 -409q10 -29 10 -49q0 -50 -56 -85 q-120 -56 -206 -118t-170.5 -124.5t-111.5 -82t-48 -45.5t-31 -26q-42 0 -42 124z" />
<glyph unicode="?" horiz-adv-x="1295" d="M319 5.5q0 71.5 60.5 135.5t132.5 64q31 0 49 -17.5t18 -50.5q0 -66 -62 -134.5t-130 -68.5t-68 71.5zM440 1250q0 96 72.5 187t183.5 152q246 136 490 136q284 0 419 -161q68 -83 68 -187t-35.5 -185.5t-96.5 -142.5t-136.5 -113t-163.5 -98.5t-170 -89.5 q-197 -104 -292 -199q-39 -42 -27 -103q3 -19 -13.5 -33t-46.5 -14t-47 3t-43 11q-58 17 -58 77q0 112 97 200q78 73 286 196t311 193q228 154 228 297q0 154 -264 154q-107 0 -232 -44.5t-212 -116.5t-87 -141q0 -4 12.5 -10.5t24.5 -6.5t33 13.5t25 13.5q18 0 18 -23 q0 -54 -48.5 -82.5t-116 -28.5t-123.5 46.5t-56 99.5z" />
<glyph unicode="@" horiz-adv-x="1735" d="M236 437.5q0 153.5 63 316t169.5 302t251.5 265t305 213.5q347 191 672 191q74 0 143 -38.5t114 -94.5q100 -124 100 -218.5t-25 -194.5t-69.5 -205.5t-108.5 -206.5t-136 -180.5t-159 -127.5t-166.5 -48t-118.5 50t-39 110t20 110q-85 -112 -195.5 -189.5t-187.5 -77.5 t-126.5 58.5t-49.5 140t43 176t112.5 173t152.5 140.5q175 135 319 135q54 0 77 -16.5t34 -48.5q36 56 115 56t79 -54q0 -28 -13.5 -43.5t-58.5 -86t-99.5 -191.5t-54.5 -187.5t32 -66.5q48 0 146.5 129.5t181 305.5t82.5 285q0 56 -24.5 97.5t-58.5 63.5q-66 39 -104 39 q-165 0 -368 -76.5t-374 -232.5q-447 -410 -447 -771q0 -67 37.5 -135t117 -117t179.5 -49q248 0 523 182q2 1 4.5 5t5.5 4q32 0 32 -49v-27q0 -10 -1 -15q-5 -19 -10 -47q-16 -84 -184 -163.5t-411 -79.5q-299 0 -442 215q-80 121 -80 274.5zM879 617q0 -25 21 -25 q52 0 126.5 67t133.5 146t130.5 178.5t97.5 130.5q-88 3 -210.5 -89t-210.5 -212t-88 -196z" />
<glyph unicode="A" horiz-adv-x="1419" d="M71 60q0 118 304 505q-143 0 -181 -7t-49 -7q-32 0 -32 53.5t63.5 94.5t169.5 41q8 0 29 1q73 4 150 6q257 302 538 560.5t486 362.5q33 16 52.5 15.5t46.5 -29.5q37 81 52 81h6q18 0 72.5 -38t54.5 -71q0 -46 -302.5 -712.5t-346.5 -747.5t-60.5 -108t-44.5 -60 q-51 -63 -127 -63q-30 0 -54 -7.5t-28 -7.5q-38 0 -38 18q0 3 10 28.5t270 573.5q-278 10 -488 16q-202 -254 -366 -531q-20 -39 -37.5 -55t-48 -16t-66 31.5t-35.5 72.5zM779 747q209 -5 422 -18q215 452 365 760q-431 -327 -787 -742z" />
<glyph unicode="B" horiz-adv-x="1652" d="M260 66q0 35 10 63q53 139 374.5 651.5t393.5 594.5q38 46 172 46q53 0 53 -24q0 -18 -157 -265.5t-164 -259.5q164 47 335.5 129t299.5 186t128 188q0 138 -300 138q-313 0 -604 -167q-72 -41 -109.5 -75t-37.5 -48.5t12 -14.5l34 9q7 0 7 -14t-41 -44.5t-98 -30.5 t-89.5 33t-32.5 86q0 112 146.5 222.5t360 177t409.5 66.5q286 0 426 -93t140 -250q0 -201 -278 -388q-147 -99 -317 -158q187 -20 298 -121q84 -75 84 -192t-111.5 -238t-297 -200.5t-379.5 -79.5q-223 0 -328 98q-47 45 -47 79.5t18 73.5q-86 -156 -126 -235 q-18 -35 -71.5 -35t-83 28.5t-29.5 63.5zM596 295q55 77 162 77q70 0 70 -18q0 -7 -15 -13q-47 -18 -47 -53q0 -85 180 -85q245 0 443 170q106 90 106 157q0 41 -86 91q-100 55 -306 55q-142 0 -182.5 -16t-42.5 -16q-21 0 -47 50q-112 -180 -235 -399z" />
<glyph unicode="C" horiz-adv-x="1373" d="M194 359q0 148 59.5 307t160 303.5t238 278t286.5 231t311.5 155.5t309.5 58q115 0 197 -84q42 -44 42 -112t-66 -171.5t-156 -188.5t-186.5 -144t-154 -59t-99 36t-41.5 64.5t12.5 62.5t31.5 34q-5 -5 -5 -11q0 -15 40.5 -15t136.5 72t173 162t77 135q0 30 -41 30 q-111 0 -306.5 -103t-373.5 -266t-309.5 -386.5t-131.5 -401.5q0 -75 39.5 -119.5t121.5 -44.5t194 47t213 115.5t190.5 140.5t143.5 126.5t55 65.5t10 11q29 0 29 -45.5t-20 -156.5q-16 -74 -170 -212q-187 -165 -410 -236q-134 -43 -262 -43t-233.5 108t-105.5 256z" />
<glyph unicode="D" horiz-adv-x="1896" d="M354 135q0 47 9 84q36 127 318.5 548.5t472.5 680.5q13 18 133 26q50 0 69 -7t19 -25.5t-61.5 -104t-394.5 -598t-333 -527t104.5 -14.5t257.5 44.5t287.5 116.5t257 167t210.5 194q191 217 191 385.5t-154 286.5t-422 118q-180 0 -340.5 -60t-221 -107t-60.5 -64 q0 -9 14 -9l51 9q11 0 11 -4.5t-20 -16.5t-32.5 -25.5t-62 -43.5t-89.5 -33l-25 4h-5q-29 0 -60.5 23.5t-31.5 84t65.5 137t177.5 141t279 105.5t352 41q379 0 592 -149t213 -388q0 -148 -66 -297t-177 -274.5t-261 -234.5t-314 -186q-354 -163 -677 -163q-159 0 -200 26 q-16 8 -30.5 25t-23.5 23q-22 14 -22 61z" />
<glyph unicode="E" horiz-adv-x="1453" d="M219 299q0 92 50 187t130 172q147 147 316 244q-243 55 -243 250q0 219 337 401q188 100 408 144q103 21 173 21q142 0 214 -22q43 -22 70.5 -60t27.5 -66t-7.5 -50.5t-23.5 -35.5q-24 -17 -53.5 -26.5t-33.5 -11.5q-92 -39 -159 -39q-118 0 -128 30q2 31 26 71 q-112 -5 -232.5 -45.5t-208.5 -95.5t-144.5 -114t-56.5 -99q0 -77 268 -77q66 0 98 15q83 40 205.5 40t122.5 -63q0 -25 -21 -72.5t-31 -58.5t-76 -29t-85.5 -20t-26 -3t-15 -2t-39.5 -6.5t-45 0.5q-391 -192 -537 -423q-66 -103 -66 -178q0 -117 162 -117q126 0 320.5 99.5 t345 240.5t150.5 245q0 33 50 33q114 0 114 -136q0 -64 -55.5 -152t-154.5 -178t-220.5 -168t-269.5 -127.5t-250.5 -49.5t-166 19.5t-118.5 58.5q-121 84 -121 254z" />
<glyph unicode="F" horiz-adv-x="1403" d="M425 687q0 30 27.5 67t33.5 48.5t31.5 36.5t45 29.5t79.5 10.5q184 18 401 20q236 358 385 531q-221 -40 -542 -40q-435 0 -435 195q0 55 56 96.5t141.5 41.5t85.5 -20q0 -11 -26.5 -11t-49.5 -19.5t-23 -37.5q0 -27 115.5 -40t357 -13t523.5 44q93 77 175 116t167 39 t111 -38q27 -39 27 -58q-1 -19 -29 -49t-78 -62q-120 -73 -313 -87q-207 -261 -426 -590q91 -4 170 -14t79 -62q0 -21 -67 -81q-7 -8 -18 -25q-19 -28 -37 -28t-42 4q-92 4 -138 4l-77 -1q-415 -647 -428.5 -672.5t-29.5 -38.5t-39.5 -13t-66 8t-64 19t-21.5 28t11 49 q28 79 396 610q-239 -11 -380 -24l-55 -15q-33 0 -33 42zM1910 1692l46 19q-18 -6 -46 -19z" />
<glyph unicode="G" horiz-adv-x="1528" d="M130 318q0 130 72 287t192 310t285.5 298t343.5 255t375 176.5t372 66.5q60 0 113 -20t76 -43q53 -53 53 -181q0 -60 -77 -145t-189.5 -162t-223.5 -122q25 9 51 9q87 0 116 -32q7 -7 7 -16.5t-32 -46.5q-332 -383 -609 -761q113 89 201 169q48 44 118 44q50 0 62 -13 t12 -22t-15 -21q-198 -172 -644 -503q-76 -86 -387 -410q-55 -57 -122 -57q-131 0 -131 73q0 32 50 102q74 107 358 324q63 70 216 236q290 317 350 406q-160 -152 -242.5 -214.5t-153 -108.5t-129.5 -74q-144 -69 -246 -69q-100 0 -161 67q-61 68 -61 198zM330 353 q0 -36 21 -63t61 -27q124 0 399.5 190t632.5 518q5 5 17 18q26 32 53 46q-97 -39 -158.5 -39t-101.5 27t-40 73.5t41.5 88t58 41.5t16.5 -6l-6 -23q0 -21 27 -21q72 0 197 70t202 143t77 121q0 42 -74 42q-129 0 -291.5 -64t-317 -165.5t-304.5 -233t-261.5 -263t-180 -258 t-68.5 -215.5z" />
<glyph unicode="H" horiz-adv-x="1812" d="M205 47q0 29 20 75t52.5 100t168 256.5t135.5 203.5q-23 1 -52 2q-61 0 -85 5q-68 12 -92 111q-13 48 -12 64q0 32 27 32l31 -9q23 -1 113 -5.5t129 -4.5l67 2q153 241 367 544q-156 -127 -346 -127q-90 0 -154.5 43t-64.5 109t49.5 104.5t94 38.5t44.5 -15q0 -4 -12 -10 t-12 -12q0 -19 41 -33.5t92.5 -14.5t127 30t156.5 77q114 66 180 110q37 19 70.5 19t48 -8t21.5 -15.5t15.5 -20t16 -19t7.5 -14.5t-9 -26t-90.5 -143.5t-209.5 -321t-187 -287.5q315 0 681 12q445 702 470 736.5t45 45t49 10.5l104 -7h16q7 0 8.5 -1t4.5 -2t5 -3 q6 -5 17 -11q14 -10 14 -24.5t-27.5 -58.5t-142.5 -220q-264 -405 -473 -750q-361 -601 -364.5 -604.5t-4.5 -7.5q-2 -7 -10 -7l-16 4l-32 -8l-19 3l-20 -3h-7l-66 -10q-59 0 -59 40q0 17 10 42q37 86 368 626q-218 -6 -430 -6l-254 1q-62 -100 -171 -284 q-235 -401 -250 -405t-24.5 -4t-18 11t-11.5 11t-12.5 -4.5t-26.5 -4.5l-28 1l-10 7q-1 0 -3 -3.5t-9 -3.5q-51 0 -51 42z" />
<glyph unicode="I" horiz-adv-x="677" d="M-26 -12q0 58 5 70q25 84 272.5 472.5t504 758.5t311.5 413q16 13 43 13l95 -4l55 2q31 0 31 -23q0 -7 -2 -11q-564 -829 -1054 -1626q-26 -42 -46 -48q-1 0 -12 -5q-59 -22 -82.5 -22t-26.5 -2q-10 -11 -25 -11t-19.5 0.5t-27 9t-22.5 13.5z" />
<glyph unicode="J" horiz-adv-x="1550" d="M0 -505.5q0 78.5 49 162t135 160t180.5 144t208.5 131.5q186 100 360 181q430 632 872 1226q10 9 10 13.5t-35.5 4.5t-158.5 -23q-268 -54 -532 -196.5t-453 -326t-189 -297.5q0 -58 49.5 -95t107 -37t118 28.5t101 57.5t46 29t5.5 -16q0 -86 -45 -148t-125.5 -93 t-154 -31t-150.5 31t-130.5 95.5t-53.5 147.5q0 35 15 84q117 380 764 733q221 120 495.5 194t518.5 74q45 0 78 -28.5t33 -60.5t-4.5 -45t-42.5 -67t-77 -105q-107 -139 -182.5 -239.5t-562.5 -795.5q43 21 121.5 52.5t99.5 31.5q16 0 16 -16.5t-8.5 -34.5t-17 -31 t-23.5 -31l-17 -24q-57 -80 -163 -133q-37 -19 -106 -50t-96 -45l-62 -94q-200 -295 -334 -442.5t-247.5 -213.5t-264.5 -66q-74 0 -111 63t-37 141.5zM169 -489q0 -25 40.5 -25t106.5 41t124.5 96.5t124.5 133.5q96 113 184 236q-580 -360 -580 -482z" />
<glyph unicode="K" horiz-adv-x="1732" d="M33 18q0 14 17 49.5t435 657.5h-22q-79 0 -79 43t39.5 86t79.5 43t88 -7q223 329 344 517q-137 -129 -260 -129q-59 0 -93 40.5t-34 92.5t26.5 85t51 46t34 13t9.5 -9l-9 -29q0 -16 50.5 -16t141.5 56t178 112t131 56t57.5 -10t24.5 -13t18 -9t12 -14.5t18 -19.5 t13 -28.5t-10 -32.5q-149 -227 -368 -571q293 152 669.5 389.5t406.5 280.5q8 12 21 12l42 -12q150 -23 150 -90q0 -19 -14 -32q-160 -142 -424 -308q-403 -251 -916 -486q168 -95 455 -317q384 -285 473 -285q31 0 52.5 17.5t24.5 17.5q20 0 20 -19q0 -17 -39.5 -95 t-67.5 -102.5t-88 -24.5t-160.5 59t-219 148t-236.5 181q-299 230 -402 273q-364 -574 -374 -594t-26 -32.5t-20 -12.5l-51 -7l-42 3q-16 0 -23 -5.5t-15.5 -8t-14.5 -7.5t-18 -5t-34 19.5t-22 33.5z" />
<glyph unicode="L" horiz-adv-x="1741" d="M-177 179q0 166 251 214q79 15 190 15t304 -41q102 114 244.5 336.5t225 343t187.5 246t219 227.5q233 208 461 208q101 0 146 -51.5t45 -122t-64.5 -163.5t-149 -165t-166.5 -122t-129 -50t-81.5 40t-34.5 77t10.5 52t21 15t12.5 -13q38 12 121 74t151.5 129t68.5 84 t-20.5 17t-56 -14t-94.5 -58.5t-127 -113.5q-166 -165 -369 -469q-47 -68 -133 -199q-176 -266 -251 -363q605 -160 865 -160q120 0 168 31q18 11 24 11t6 -9.5t-10.5 -28.5t-52.5 -80.5t-62 -73.5q-58 -34 -196.5 -34t-264.5 20t-202.5 39.5t-227 63.5t-197.5 57 q-220 -196 -524 -196q-184 0 -263 78q-45 42 -45 149zM70 183q0 -14 26.5 -24.5t62.5 -10.5q115 0 221 60q-91 11 -156 11q-154 0 -154 -36z" />
<glyph unicode="M" horiz-adv-x="1866" d="M-208 -150q0 43 173.5 304t402.5 571t475 597q338 396 435 396q15 0 29.5 -7.5t18 -7.5t6.5 3q16 19 61 19t88.5 -17.5t43.5 -40.5q0 -14 -118 -225q-396 -701 -531 -963q129 157 370.5 416.5t506.5 518.5q346 335 413 335q28 0 69 -12q73 -21 140 -21q19 -4 32.5 -16.5 t13.5 -25.5t-7 -21q-383 -510 -646.5 -899t-324.5 -526q124 26 369 296q11 14 16 19t8 9q20 24 31 -29q4 -31 6 -43.5t4 -26t2 -18.5l9 -44q0 -29 -30 -68q-77 -101 -249 -232.5t-253.5 -131.5t-127.5 47.5t-46 109.5q0 73 154 323q230 372 587 868q-75 -77 -401 -420 q-721 -755 -842 -855q-20 -17 -58.5 -17t-81 31.5t-42.5 70.5v6q5 49 228 484.5t374 692.5q-223 -245 -451 -547q-433 -574 -634 -977q-17 -38 -43 -38t-76 13q-104 28 -104 99z" />
<glyph unicode="N" horiz-adv-x="1563" d="M-42 -12q0 47 130 282t304 510.5t364 536.5t294 350q21 19 49 19l55 -9l86 19q33 0 53 -14.5t20 -26.5t-5.5 -36t-95.5 -460.5t-131 -651.5q200 273 468 672t313 530q14 41 36.5 63.5t40 26.5t54.5 4t87 -16t50 -52q0 -70 -206.5 -401.5t-471.5 -704.5t-443 -590 q-32 -39 -77.5 -39t-95.5 16t-50 56q0 130 228 1247q-195 -252 -474 -703q-290 -466 -328 -578q-21 -68 -48 -78q-19 -8 -40 -8l-93 -11q-27 0 -50 15.5t-23 31.5z" />
<glyph unicode="O" horiz-adv-x="1541" d="M201 390q0 178 117 417.5t321 452.5t456.5 349t479.5 136q45 0 85 -20t40 -46.5t-13 -43.5t-24.5 -36.5t-19.5 -27.5q39 9 101.5 9t120.5 -52t58 -115.5t-31.5 -165.5t-89 -217.5t-139.5 -238.5t-178 -239.5t-211 -220.5t-233 -182q-257 -170 -503 -170q-85 0 -151 44.5 t-103 88.5q-83 100 -83 278zM430 380q0 -77 34 -131.5t116 -54.5t197.5 56.5t225.5 148.5q378 320 590 710q86 161 86 222q0 25 -16 25q-49 0 -137.5 -62t-157 -136.5t-68.5 -107.5l4 -15q0 -24 -16.5 -24t-68.5 57.5t-52 96.5q0 91 122 206.5t272 175.5 q-165 -9 -383.5 -140t-382.5 -316t-264.5 -385.5t-100.5 -325.5z" />
<glyph unicode="P" horiz-adv-x="1744" d="M376 42q0 56 232.5 418t438.5 657t240.5 332t61 43.5t85.5 6.5h59q15 0 15 -24.5t-6 -33.5q-104 -145 -375 -574q9 -19 31 -23.5t47 -4.5h34q109 0 235 52.5t221.5 125.5t160 153t64.5 136.5t-35.5 101.5t-96.5 71q-121 50 -292.5 50t-414 -89t-353.5 -174 q-39 -28 -39 -63t52 -35q22 0 58 13h1q6 0 6 -24t-5 -29q-121 -86 -205 -86t-121.5 47t-37.5 123.5t83.5 162t225 158t351 119.5t471 47t437.5 -102t176 -232.5t-91.5 -265t-229 -234t-305 -163.5t-300 -64t-205.5 107q-179 -282 -243 -385.5t-108 -173.5t-68 -110.5 t-26 -41.5q-24 -27 -53 -27l-58 -11l-28 3h-20q-70 0 -70 43z" />
<glyph unicode="Q" horiz-adv-x="1643" d="M120 278q0 130 92 324q170 363 457 628q499 457 916 457q189 0 284.5 -92.5t95.5 -223.5t-55.5 -281.5t-157 -309t-230 -306t-288.5 -269t-318 -184.5q10 -8 45 -36.5t49 -39.5t45.5 -36t47.5 -35.5t43 -30t44 -27.5t38 -19q38 -19 71.5 -19t56 8.5t30.5 18.5t13.5 18 t11.5 8q16 0 16 -16.5t-16.5 -44.5t-48 -59.5t-104.5 -64.5t-128 -33q-197 0 -560 421q-112 -53 -205.5 -53t-169 83.5t-75.5 213.5zM350 291q0 -61 31 -86q66 0 217.5 80t266.5 211q12 11 18.5 11t8.5 -4t10.5 -17t15.5 -26q19 -36 19 -80.5t-32 -94t-132 -128.5 q130 46 354 269t364.5 422t200.5 343.5t60 200.5q0 104 -113 104q-208 0 -425.5 -116t-412 -307.5t-323 -419.5t-128.5 -362z" />
<glyph unicode="R" horiz-adv-x="1772" d="M401 79q0 46 39.5 131.5t419.5 638.5t419 590t58 42q14 11 19 11l21 -4l20 4q11 0 19 -9t12 -12q49 -36 49 -61t-12 -48t-67.5 -103t-146 -208t-130.5 -186q97 5 232.5 59t254 130t203 165.5t84.5 155.5q0 35 -36.5 64t-92.5 45q-110 33 -249.5 33t-353 -60t-311.5 -115 t-141.5 -93t-43.5 -54q0 -8 24 -8t43 12.5t22 12.5q18 0 18 -20q0 -7 -6 -13q-99 -99 -229 -99q-30 0 -68 34.5t-38 100.5t80.5 147t223.5 153.5t358 129.5t386 57t280.5 -28t171.5 -68.5t103 -91.5q67 -85 67 -173t-57 -181t-147 -165.5t-207 -135.5q-218 -116 -467 -170 q42 -44 179.5 -219t251.5 -293t177 -118l38 14q13 0 13 -10t-43 -57.5t-74.5 -72.5t-86.5 -25t-124.5 53t-152.5 150t-149 182.5t-151 201.5t-117 158q-11 -19 -59.5 -94t-71 -110.5t-65 -103.5t-65.5 -109q-65 -110 -90 -164t-84 -54l-41 1l-36 -1q-73 0 -73 61z" />
<glyph unicode="S" horiz-adv-x="1615" d="M166 187.5q0 39.5 18.5 71t44.5 48.5q51 32 72 32t21 -15l-15 -31q0 -35 96 -66t211 -31t253 34t240.5 83.5t169 104t66.5 94.5q0 51 -118 94.5t-343 96t-329.5 133t-104.5 195.5t83 220t215.5 186.5t289.5 144.5q325 131 602 131q106 0 187 -19q156 -36 156 -96 t-10.5 -82t-17 -29t-16.5 -14t-15 -11q-52 -44 -284 -54q-80 -4 -87.5 -8.5t-12.5 -4.5t-12 9.5t-7 30.5t46 78q-144 -9 -307.5 -66.5t-284 -130t-200.5 -143t-80 -99.5t17 -47q50 -53 275 -111q234 -60 312 -97t129 -70t82 -67q72 -83 72 -167.5t-45.5 -159t-137 -144 t-215.5 -124.5q-271 -121 -646 -121q-274 0 -350 145q-20 37 -20 76.5z" />
<glyph unicode="T" horiz-adv-x="1369" d="M389 68q0 67 74 166.5t108 128t46 28.5t12 -16l-6 -25q0 -7 6.5 -12.5t16 -5.5t15.5 9q176 234 291.5 411.5t169 261t85.5 133.5q85 130 169 232q-319 -80 -499.5 -80t-259.5 23t-103.5 52t-24.5 59t2 59q5 59 71.5 96.5t110 37.5t43.5 -13t-19.5 -35t-19.5 -30 q0 -38 272.5 -38t626.5 72q203 166 351 166q98 0 130 -56q21 -33 21 -66t-38.5 -66t-103.5 -57q-118 -42 -278 -67q-67 -86 -190.5 -268t-168.5 -245.5t-144.5 -226.5t-172.5 -281.5t-156 -233.5q-169 -239 -301 -239q-55 0 -95.5 29.5t-40.5 96.5z" />
<glyph unicode="U" horiz-adv-x="1788" d="M227 179q0 205 238.5 574.5t439.5 604.5q-170 -150 -234 -150t-96 39.5t-32 90t47 94.5t69 44t22 -3.5t-18 -25.5t-18 -30t16 -8q46 0 200.5 93t264.5 182q29 25 67.5 25t73.5 -19q3 6 20.5 -2.5t35 -26t17.5 -33t-9 -28.5q-491 -635 -617 -827q-256 -391 -256 -507 q0 -42 34.5 -42t196.5 132q444 361 1244 1275q30 34 57 34h3h11q4 0 26 4t72 4q118 0 118 -43q0 -19 -35 -66.5t-145 -203t-273 -395t-282 -440.5t-119 -255q0 -1 4.5 -1t37.5 17q101 53 237.5 168.5t172.5 157t43 41.5q32 0 32 -84t-11 -112q-35 -91 -164.5 -204 t-283.5 -191.5t-253 -78.5q-47 0 -79.5 37t-32.5 96q0 105 120.5 321t291.5 450q-284 -330 -403 -445.5t-212 -197.5t-167 -132q-177 -117 -281 -117t-147.5 57.5t-43.5 126.5z" />
<glyph unicode="V" horiz-adv-x="1614" d="M249 197.5q0 83.5 56 214t135 258.5t183 269q156 216 327 417q-190 -158 -259 -185.5t-119 -27.5t-78 42t-28 91t39.5 98t75.5 49q13 0 13 -9.5t-9 -22t-9 -16.5q0 -13 20 -13t60 17.5t199 124t233 175.5q29 26 84 26t110.5 -26.5t55.5 -53.5q0 -6 -2.5 -11.5t-4.5 -23.5 t-18 -43.5t-245 -345.5q-572 -797 -572 -943q0 -53 41 -53q57 0 219.5 103.5t302 229t274 265t277 303.5t242 317t99.5 233q0 14 -16 14l-39 -9q-13 0 -13 16.5t10 21.5q113 65 217 65q46 0 70 -35t24 -93t-82 -203.5t-219 -329t-347 -401t-421.5 -383.5t-378.5 -251 t-316 -85q-95 0 -143 65.5t-48 149z" />
<glyph unicode="W" horiz-adv-x="2165" d="M171 138q0 294 408 823q156 201 389 450q-203 -176 -310 -176q-56 0 -83 56q-25 40 -25 76t47 78.5t55.5 42.5t15.5 -6t7 -11q-17 -17 -17 -22.5t14.5 -5.5t236 135t243.5 135q61 0 117.5 -33.5t56.5 -56.5t-23.5 -60.5t-280.5 -370t-374 -503t-171.5 -279.5 t-54.5 -132.5t8 -23.5q49 0 354 299t581 591t300.5 324t52.5 45.5t85 13.5q158 0 158 -60q0 -25 -69 -105.5t-97 -116.5q-148 -188 -329 -529t-181 -436q0 -26 17 -26t101.5 66.5t222.5 199.5t314 328.5t336 434.5t160 300.5t-48 61.5l-60 -12q-13 0 -13 18t10 23t34.5 17.5 t33.5 16.5t29.5 13.5t32.5 13t30 9.5q30 8 74 8t90.5 -30.5t46.5 -80.5q0 -102 -89.5 -271.5t-230 -352.5t-315 -371.5t-341 -337.5t-313.5 -243.5t-226 -94.5q-167 0 -167 153q0 213 242 617q-471 -557 -789 -719q-82 -42 -126 -42t-107 53.5t-63 105.5z" />
<glyph unicode="X" horiz-adv-x="1423" d="M-66 89.5q0 13.5 8 39.5q12 40 242 227t667 527q16 63 41 155t39.5 148.5t30.5 116.5q29 114 29 130.5t-10 16.5q-44 0 -195.5 -135t-151.5 -176q0 -27 -20 -27q-13 0 -38.5 27.5t-28.5 50.5t-7 40q-5 36 -5 59q0 60 113 165.5t249.5 185.5t197.5 80t98.5 -42.5 t37.5 -122.5t-102 -455q662 508 697.5 529t106.5 21t144 -29q22 -9 22 -24t-8.5 -28t-31.5 -31t-93 -68t-168 -122q-227 -168 -756 -580q-113 -435 -113 -563q0 -33 7.5 -33t20.5 10q70 41 228.5 179.5t190 176t42.5 35.5q18 0 18 -42l-1 -20q0 -1 11 -33.5t11 -75.5 t-16.5 -68.5t-49 -63.5t-90 -92.5t-122.5 -101.5q-158 -117 -299 -117q-66 0 -119 50.5t-53 162t61 374.5q-675 -566 -683 -569.5t-15 -3.5l-18 5l-7 -2q-8 0 -33.5 23t-31.5 28.5t-14 11.5t-11 8.5t-8 7t-6.5 7.5t-4.5 6q-3 8 -3 21.5z" />
<glyph unicode="Y" horiz-adv-x="1607" d="M202 189q0 88 75.5 253t194.5 352q211 335 389 574q-158 -143 -258 -143q-46 0 -61 13.5t-40 42.5t-25 63.5t12.5 55t22.5 30.5q40 40 52 47t29 7t17 -5t-12.5 -15.5t-12.5 -16.5t13 -6t33 6.5t52.5 23.5t59 31.5t80 46t81 47t81 55t79.5 53.5q31 19 54 19q10 0 18 -3 q27 -11 43 -14.5t28.5 -10t23.5 -15.5q36 -26 36 -60.5t-33.5 -80.5t-150.5 -218t-263.5 -394.5t-258 -417t-111.5 -245.5q0 -17 9 -17t70 46q316 244 806 765q402 429 474 530q22 31 44 41.5t67 10.5l66 -1l45 2q20 0 45.5 -17.5t25.5 -30.5q-6 -26 -279 -474 q-851 -1399 -937 -1578q44 46 96.5 90.5t59 44.5t13.5 -8t7 -15.5t-10.5 -19.5t-74 -94t-94 -116.5t-54.5 -74t-41 -56.5t-42 -17q-72 0 -121 62t-49 105q0 82 351 644t619 943q-620 -732 -987 -961q-127 -80 -207 -80q-39 0 -77.5 22.5t-55.5 56.5t-17 122z" />
<glyph unicode="Z" horiz-adv-x="1485" d="M94 103l10 37q0 57 275.5 339t587.5 567t461 402q-103 -30 -258.5 -53t-293.5 -23q-345 0 -345 150q0 50 27.5 90t66.5 61q78 44 113 44t35 -15q0 -8 -19.5 -22t-19.5 -22q0 -51 295 -51q142 0 349 13.5t250 29t73.5 38.5t44.5 40q38 43 99 43t110.5 -23t49.5 -62.5 t-34.5 -80.5t-72 -68t-83 -54t-52.5 -33t-59 -51q-223 -186 -702.5 -641.5t-586.5 -561.5q130 29 347 58.5t403 29.5t286 -39.5t100 -135.5q0 -46 -21 -95t-35 -49q-5 0 -9.5 14.5t-9.5 18.5q-55 36 -198.5 36t-483 -27.5t-422.5 -37t-109 -9.5q-74 0 -121.5 51.5 t-47.5 91.5z" />
<glyph unicode="[" d="M0 -169q0 57 54.5 163t327.5 663.5t342.5 692t99.5 194.5t56.5 118t39 86t44 101t43 100t48.5 44.5t67 21.5l342 -18l59 4q42 0 42 -78q0 -126 -65 -134q-93 -12 -176 -12l-170 6q-483 -1074 -911 -1873q-25 -37 -25 -50q1 -6 12 -6l13 1q74 -4 125.5 -4t90.5 5 t72.5 11.5t47.5 6.5q31 0 31 -24q0 -47 -73 -98t-156 -81q-120 -45 -235 -45q-46 0 -81 37q-65 67 -65 168z" />
<glyph unicode="\" horiz-adv-x="914" d="M485 1887q0 22 34 22t114 -59t95 -112q112 -405 143 -855q25 -366 25 -823q0 -167 -81 -258q-85 -97 -119.5 -97t-34.5 44q0 4 11.5 228.5t11.5 336.5q0 656 -127 1344q-13 65 -42.5 139t-29.5 90z" />
<glyph unicode="]" d="M-197 -310.5q0 43.5 40 107t69 65.5q51 0 151.5 -15.5t186.5 -15.5q618 1304 882 1928q16 42 16 50q0 22 -103 22h-67q-26 0 -45 -0.5t-30.5 -2t-30 -4t-39 -7.5t-29.5 -5q-51 0 -51 117.5t65 117.5l396 -13q67 0 93 -54q22 -45 31.5 -108.5t9.5 -99.5t-42 -126.5 t-296 -655t-316.5 -692.5t-154 -322.5t-146.5 -298.5q-27 -51 -211 -51q-110 0 -244.5 10t-134.5 53.5z" />
<glyph unicode="^" horiz-adv-x="1208" d="M529 1063.5q0 31.5 25 65.5t74.5 78t98 82.5t122 95.5t102 80.5t132.5 107t132 111t49 27.5t93 -72q18 -19 18 -42v-6q-47 -307 -47 -463l5 -98q0 -33 -54.5 -56.5t-116.5 -23.5t-62 36q0 6 5 23.5t33.5 182.5t37.5 258q-56 -66 -249 -237t-258 -258q-3 -4 -22 -4 t-68.5 40.5t-49.5 72z" />
<glyph unicode="_" horiz-adv-x="929" d="M-204 -282.5q0 18.5 17.5 33.5t21.5 25q8 23 63 53.5t96 33t139.5 7.5t299.5 12t277.5 7t90.5 -4.5t32.5 -27.5t33 -33t14.5 -33t-29.5 -39t-107.5 -24t-187.5 -15t-240.5 -17q-259 -23 -410 -25h-18q-32 0 -62 14t-30 32.5z" />
<glyph unicode="`" horiz-adv-x="966" d="M635 1443q0 21 56 52.5t88.5 31.5t41.5 -3t16 -12t11.5 -18.5t11 -29.5t11.5 -37q27 -102 49 -168q44 -130 44 -170t-33.5 -40t-56.5 9.5t-38 29t-23 33.5t-18 39t-27.5 59t-55.5 90.5t-57.5 84.5t-19.5 49z" />
<glyph unicode="a" horiz-adv-x="984" d="M7 179q0 107 48 215t125.5 197t171.5 162q196 153 361 153q63 0 103.5 -21t50.5 -53q29 42 48.5 53.5t58.5 11.5q89 0 89 -62q0 -33 -15.5 -48t-65.5 -102t-110.5 -222t-78.5 -231q-4 -11 -4 -33q0 -64 35.5 -64t84 33.5t86 71.5t73.5 78.5t43.5 46.5t21.5 6 q22 0 27 -34.5t5 -71t-7 -50.5q-35 -67 -151 -161.5t-211 -94.5t-140 57.5t-45 128t24 123.5q-98 -128 -225 -216.5t-207 -88.5t-131 49q-65 60 -65 167zM194 196q0 -41 23 -41q33 0 184 130t201 192q54 68 215 289q-202 0 -418 -224q-77 -81 -141 -193t-64 -153z" />
<glyph unicode="b" horiz-adv-x="900" d="M47 171.5q0 94.5 81.5 292.5t197.5 402.5t237 399.5t206 319t104 142.5t69 31.5q48 13 84 13h3q37 0 37 -34q0 -21 -22 -54q-249 -374 -485 -782q55 28 122.5 40.5t95.5 12.5t48 -2t51 -13t54 -31q54 -49 54 -137.5t-47.5 -194t-129.5 -211.5t-179.5 -197.5 t-209.5 -149.5t-209 -58q-45 0 -103.5 58t-58.5 152.5zM225 191q0 -53 35 -53q81 0 234.5 136.5t231.5 276.5q48 85 48 154.5t-44 69.5t-135.5 -38t-104.5 -38t-35 21q-230 -414 -230 -529z" />
<glyph unicode="c" horiz-adv-x="881" d="M53 248.5q0 130.5 65 261t167 229t237 159.5t267 61q64 0 115 -36.5t51 -100t-63.5 -152.5t-128.5 -89q-75 0 -75 72q0 18 35.5 66.5t35.5 65.5t-13 17q-65 0 -139.5 -44.5t-135 -94t-115.5 -111.5q-118 -133 -118 -277q0 -58 37.5 -100t125.5 -42t176.5 21t145.5 45 t118 63t78.5 53.5t41 35t38.5 20.5q24 0 24 -54t-52.5 -116t-130.5 -105t-166 -75q-176 -65 -299.5 -65t-222.5 81t-99 211.5z" />
<glyph unicode="d" horiz-adv-x="994" d="M13 187q0 100 78 239t194 250.5t257.5 186.5t261.5 75q37 0 88 -46q34 54 126 217q289 488 383 595q49 65 154 65q23 0 36 -14.5t13 -29t-23 -54t-106 -172.5t-129 -208q-267 -435 -419.5 -736t-152.5 -364v-9q0 -49 35.5 -49t85.5 33t88 71t76 78.5t46.5 48t21.5 7.5 q20 0 26 -25.5t6 -71t-7 -59.5q-35 -66 -151 -161t-220 -95q-177 0 -177 150q0 93 71 244q-96 -124 -195 -211q-184 -161 -320 -161q-75 0 -111 53t-36 153zM211 201q0 -39 17 -39q71 0 350 316q139 156 242 303q-170 -38 -316 -158t-219.5 -251.5t-73.5 -170.5z" />
<glyph unicode="e" horiz-adv-x="767" d="M19 171q0 163 225 247q-45 20 -58 51t-13 100t64.5 146.5t157.5 127.5q208 112 371 112q39 0 79 -19t40 -53q0 -78 -63 -137t-144 -59q-25 0 -33.5 12.5t-8.5 32.5t5 39q-43 -15 -95 -44.5t-127.5 -87t-75.5 -86.5q0 -9 28 -9t85.5 19.5t80.5 19.5t31 -2 q15 -9 32.5 -36.5t17.5 -43.5t-30.5 -42t-69.5 -39.5t-52 -20.5q-249 -139 -249 -191q0 -92 157 -92q100 0 202 63q86 55 155 111t87.5 69t27.5 13q31 0 31 -68.5t-8.5 -90.5t-47.5 -54q-252 -205 -478 -205q-120 0 -192 33q-132 60 -132 184z" />
<glyph unicode="f" horiz-adv-x="869" d="M-315 -605q0 59 24 137.5t52.5 144t96.5 187.5q74 132 265 452q-33 -6 -51 -6t-33 8.5t-21 21.5q-11 23 -11 40l-9 33q0 9 9.5 15.5t24 27t21 26t19 17t20.5 18.5q24 20 33.5 23t32.5 10q73 23 124 33q301 503 483.5 786.5t207.5 313.5t90 54q62 23 93 23h2q30 -1 30 -27 q0 -10 -7.5 -28t-129.5 -209q-449 -704 -575 -913l29 -11q274 51 285 51t56.5 -16t59.5 -18q27 -5 27 -44.5t-24 -44.5q-20 -3 -96.5 -22.5t-122.5 -30.5q63 -74 63 -158t-74.5 -221.5t-190 -272t-242.5 -253.5t-243.5 -193t-173 -74t-100.5 30.5t-44 89.5zM-118 -494.5 q0 -24.5 13 -24.5q24 0 97.5 53.5t166 144t180.5 193t148.5 215t60.5 184t-70 125.5l-131 -29q-20 -33 -62 -104.5t-68.5 -116.5t-68 -115.5t-69 -119t-61 -109t-55.5 -104t-42 -85.5q-39 -83 -39 -107.5z" />
<glyph unicode="g" horiz-adv-x="1011" d="M-11 -598q0 128 127 263q94 100 173 164t86 72q88 131 237 372q-127 -134 -247 -213t-179 -79q-180 0 -180 155q0 122 62.5 247.5t160.5 224t212 177t223.5 121t190 42.5t102.5 -46q46 53 114 56q21 1 50 1t36.5 -7.5t13 -28.5t7 -23.5t1.5 -8t-6 -13t-13.5 -14.5 t-9.5 -8q-260 -375 -533 -854q281 249 503 358q14 7 27 7q19 0 25 -24t6 -69t-5.5 -55.5t-55 -42.5t-128.5 -83t-168 -112q-212 -147 -349 -310q-177 -214 -254 -345q-28 -51 -95 -51q-134 0 -134 127zM194 177q0 -20 10 -20t44.5 21t98.5 72.5t142 122.5q180 166 401 441 q-137 -29 -257.5 -97t-198.5 -145.5t-134 -158.5q-106 -152 -106 -236z" />
<glyph unicode="h" horiz-adv-x="949" d="M-60 -6.5q0 10.5 42 109t110 244.5q188 403 558 1050q130 227 203 321q52 67 175 67q26 0 29.5 -15t3.5 -33t-7 -35l-127 -198q-375 -585 -565 -969q184 224 358 345q107 77 161 77t97.5 -17t43.5 -82q0 -24 -77 -175q-230 -453 -230 -503t41 -50q61 0 186 117 q94 88 119 113q14 11 26 11q22 0 25 -23q8 -54 8 -85.5t-11.5 -54.5t-49.5 -65t-91 -84q-130 -103 -266 -103q-195 0 -195 173q0 149 261 597q10 16 13 23q-91 -63 -347.5 -347t-341.5 -402q-7 -11 -35.5 -24t-44.5 -13t-34 10t-23 10q-15 0 -15 10.5z" />
<glyph unicode="i" horiz-adv-x="489" d="M12 141.5q0 64.5 65 188.5t129.5 229t64.5 114t-24 35t-24 38.5t49 65t119 103.5t107.5 51t67 -33t29.5 -60t-281 -511q-4 -7 -20 -31t-24.5 -40t-20.5 -38q-24 -48 -24 -80q0 -40 54.5 -40t113 37.5t100.5 82.5q111 119 127 119q30 0 30 -106q0 -36 -7 -51 q-58 -118 -184 -190.5t-219.5 -72.5t-160.5 62.5t-67 127zM581 1163.5q0 70.5 59.5 135t131.5 64.5q32 0 50.5 -17.5t18.5 -49.5q0 -68 -62.5 -135.5t-130 -67.5t-67.5 70.5z" />
<glyph unicode="j" horiz-adv-x="534" d="M-590 -603q0 46 23 85.5t77.5 92.5t93 87.5t123 103t115.5 94.5q52 87 132 225t127 217q135 225 213 336q-6 2 -26 -0.5t-33.5 -2t-28.5 14.5q-20 18 -20 45q0 43 136 135q142 97 193 97q88 0 88 -88q0 -9 -9.5 -36.5t-202.5 -340t-267 -425.5q11 7 65.5 47t115 83.5 t125.5 88.5q149 104 173 104q19 14 33.5 9.5t18.5 -26.5q7 -37 7 -68q0 -33 -8 -60q-6 -10 -88 -56t-186.5 -106t-232 -154.5t-211.5 -186.5q-49 -99 -140 -210q-176 -212 -293 -212q-47 0 -80 30.5t-33 76.5zM636 1153.5q0 67.5 78 142t151 74.5t73 -58q0 -78 -84.5 -152 t-162.5 -74q-55 0 -55 67.5z" />
<glyph unicode="k" horiz-adv-x="888" d="M-50 50.5q0 3.5 2.5 10t7.5 18t8 22.5q25 84 414.5 788.5t407.5 726.5t27 32t20 17t16.5 9.5t21.5 7.5t33 11t36 16t26 14.5t18 4.5t21.5 -11t10.5 -27v-8q-6 -23 -307.5 -560t-328.5 -587q92 36 271 180t181 191t32.5 68.5t66.5 21.5q35 0 61 -24q25 -23 25 -75 q1 -57 -61 -143q-60 -84 -145 -157q-180 -153 -301 -203q96 -258 220 -258q67 9 165 109q37 37 71 74t42 44.5t22 7.5q22 0 27 -34.5t5 -71t-8 -50.5q-34 -66 -149.5 -161t-219.5 -95q-74 0 -118 28t-68.5 47t-50.5 51.5t-43 53.5t-39 59t-31.5 54t-27.5 52t-21 39 q-21 -43 -47 -94t-47 -94.5t-39 -79.5t-29 -59.5t-12 -24.5q-9 -19 -24 -19l-75 16q-35 4 -57 44q-6 10 -8 12.5t-2 6z" />
<glyph unicode="l" horiz-adv-x="623" d="M118 208q0 230 123.5 541t277.5 529q348 493 532 493q57 0 100 -33.5t43 -99.5t-73 -207t-175.5 -288t-232.5 -312q-206 -262 -394 -471q-2 -14 -10.5 -52.5t-8.5 -77.5t36 -70t89 -31t113.5 37.5t105.5 83.5q118 122 146.5 122t28.5 -86v-24q0 -46 -17 -67 q-99 -122 -223 -181.5t-234.5 -59.5t-168.5 68t-58 186zM367 628q139 165 385 515t246 432q0 18 -12 18q-41 0 -216.5 -236t-254 -376.5t-148.5 -352.5z" />
<glyph unicode="m" horiz-adv-x="1470" d="M-59 42q0 12 9 43q231 506 445 809q24 33 76.5 50.5t101.5 17.5q30 0 30 -46q0 -13 -9.5 -35t-47 -71.5t-89.5 -113.5t-59 -73q161 168 291.5 250t189 82t89.5 -34t31 -72t-5 -63.5t-19 -53.5t-24.5 -47t-34 -50.5t-32 -43.5t-36.5 -45t-30 -36q33 33 92 98t99.5 108.5 t102 98.5t114.5 89q127 80 258 80q45 0 76 -28.5t31 -68t-96 -188.5t-190.5 -299.5t-94.5 -189.5q0 -54 20 -64t48 -8t79.5 36.5t91.5 70.5q65 59 120 115q12 11 26 11q23 0 27.5 -34.5t4.5 -71t-7 -50.5q-34 -66 -151 -161.5t-224 -95.5q-13 0 -19 1q-122 11 -168.5 66 t-46.5 130.5t51.5 183t113 195t112.5 157.5t51 76t-9 6q-37 0 -163 -118q-216 -202 -373 -389q-41 -50 -196 -252q-17 -23 -55.5 -23t-80 14.5t-41.5 38.5q0 11 187.5 330.5t187.5 348.5t-34.5 29t-143.5 -104q-298 -286 -462 -568q-11 -16 -41.5 -51.5t-41.5 -35.5l-58 2 h-21q-12 4 -25.5 14.5t-20.5 15.5t-7 17z" />
<glyph unicode="n" horiz-adv-x="944" d="M-78 58q0 14 8.5 34.5t16 34t25 42t70 120t161.5 273t130 219.5q45 78 73 113q53 68 179 68q29 0 29 -36q0 -55 -103 -209l-50 -74q205 227 345 287q68 29 123 29t87.5 -29.5t32.5 -65.5t-25 -86t-50 -89.5t-66.5 -99.5t-45 -65.5t-18 -28.5t-22 -33.5t-24 -37 t-26.5 -44.5t-24.5 -44t-23.5 -44.5t-18 -41.5q-17 -41 -17 -68q0 -52 71 -52q38 0 95 37.5t103 82.5q123 122 139 122q31 0 31 -88.5t-55 -121.5q-169 -153 -261 -186q-49 -16 -108 -16h-6q-62 1 -124 54t-62 129t40 173t82 166t103.5 160.5t64.5 113.5l-2 3 q-39 -4 -193 -154t-254 -260.5t-240 -296.5q-39 -50 -63.5 -50t-66.5 16t-51.5 23t-9.5 21z" />
<glyph unicode="o" d="M25 185q0 102 50 226t129 219t171 170q193 155 338 155q65 0 98 -32q11 -11 11 -19v-7q17 2 52.5 2t72.5 -32t37 -97.5t-46 -169.5t-126 -212t-176.5 -203t-208 -156t-202 -61t-145.5 57.5t-55 159.5zM203 209q0 -66 48.5 -66t144 63.5t189 181.5t140.5 205t47 118 t-17 31h-8q-41 0 -41 60q-86 -28 -180.5 -99t-169.5 -167q-151 -194 -153 -327z" />
<glyph unicode="p" horiz-adv-x="945" d="M-471 -608q0 46 29 94q159 265 614 998.5t492 758.5q22 14 43 14l22 -1l21 2q18 0 28.5 -30.5t10.5 -41.5t-23 -40l-336 -512q177 177 359 258q71 31 128.5 31t92 -37.5t34.5 -92.5t-30.5 -136.5t-83 -173.5t-127.5 -185.5t-157 -169t-178.5 -122.5t-170.5 -47 q-147 0 -147 135q-138 -211 -318.5 -500t-193.5 -305.5t-22 -16.5t-27.5 10.5t-38.5 35.5q-21 26 -21 74zM212 184q31 -38 91 -38t156 65t177 154t139 187t58 161q0 25 -24 25q-63 0 -269 -196t-328 -358z" />
<glyph unicode="q" horiz-adv-x="987" d="M-9 156q0 92 54.5 203t140.5 205q177 194 349 286.5t283 92.5t137 -73q15 33 26 46t62.5 31.5t72 18.5t32.5 -17t12 -36t-20.5 -59.5t-65.5 -120.5t-101.5 -176.5t-94 -162t-132.5 -231.5q-193 -340 -289 -530q4 5 33 34.5t50 51.5q63 62 89 62q8 0 15 -1.5t12.5 -2 t12 -4t10.5 -4.5t10 -6.5t8.5 -7.5t9 -9t8 -8.5t8.5 -10t14.5 -15.5t7.5 -21.5t-15.5 -35.5t-53.5 -53.5t-42 -36.5q-288 -282 -337.5 -282t-84.5 34.5t-35 78.5q0 137 391 793q5 10 10 17l7 13q-82 -93 -206 -178t-212 -85t-132 54t-44 146zM203 191q0 -25 22 -25 q56 0 204.5 116t242.5 212.5t220 280.5q-20 16 -58 16q-79 0 -199.5 -74.5t-191 -145.5t-155.5 -194.5t-85 -185.5z" />
<glyph unicode="r" horiz-adv-x="843" d="M-80 60.5q0 16.5 9.5 38t34.5 62t76.5 130t160 271t129.5 219.5q45 78 74 113q53 68 179 68q28 0 28 -36q0 -55 -102 -209l-50 -74q279 316 474 316q49 0 80 -28.5t31 -75t-65.5 -154t-120.5 -182.5q-30 -38 -67 -38t-57.5 27.5t-20.5 63.5q0 82 87 184l-2 3 q-39 -4 -193 -154t-262 -268.5t-234 -288.5q-37 -50 -62.5 -50t-67.5 16t-50.5 23t-8.5 23.5z" />
<glyph unicode="s" horiz-adv-x="888" d="M48 101q0 59 30.5 109.5t77.5 50.5t47 -25l-1 -19q0 -29 22.5 -50.5t41.5 -21.5q141 0 250 42.5t109 85.5q0 20 -39.5 34.5t-133 36.5t-136 34.5t-67.5 23t-51 29.5q-55 39 -55 116t57 153t143.5 130.5t185.5 95.5q196 82 329 82q131 0 162 -57q9 -20 9 -45v-8 q0 -63 -26.5 -98t-84 -63.5t-91 -28.5t-42.5 4.5t-14.5 12.5t-14.5 11.5t-9 17.5t12 29t16 31q-78 -3 -163 -35.5t-145.5 -72.5t-100.5 -77t-40 -54t54 -27q244 -49 321 -84.5t106.5 -80t29.5 -81.5q0 -75 -60.5 -142.5t-148.5 -109.5q-190 -94 -331 -94t-195 43t-54 102z " />
<glyph unicode="t" horiz-adv-x="519" d="M112 378q52 124 129 265q127 229 255 430l-45 -6q-137 -16 -160 -16h-10q-34 0 -66 14t-32 34t17 38.5t21 29.5q8 26 61.5 58t81 33.5t52.5 3t56.5 2.5t47.5 2l107 5q99 149 136 191t43 46.5t24 4.5l55 7l48 -12q11 0 19.5 -10.5t8.5 -20t-25 -51t-58.5 -94t-36.5 -56.5 q92 7 130.5 7t52.5 -5.5t32.5 -29.5t34 -36.5t15.5 -37.5t-30.5 -42t-64.5 -20q-273 -28 -302 -29q-95 -146 -267 -456t-182 -387q-5 -36 -5 -58q0 -46 48.5 -46t107.5 37t108 81q132 118 142 118q30 0 30 -106q0 -58 -53 -104q-119 -103 -200.5 -155t-162.5 -52 q-18 0 -33 4q-94 17 -138 69q-44 51 -45 137q1 87 53 213z" />
<glyph unicode="u" horiz-adv-x="955" d="M0 96q0 50 14 104t30 96.5t47.5 105t46.5 90.5t49 85.5t88.5 154t90.5 143.5t70 47q1 0 2 1q34 -1 59 -29q26 -28 26 -45.5t-79 -159.5q-234 -422 -234 -492q0 -18 13 -18q57 0 282 245.5t260.5 314.5t69 116.5t50.5 57.5q51 33 131 36q13 0 20 -1.5t16.5 -20t9.5 -29.5 q-11 -33 -94 -176t-92 -162q-140 -287 -140 -375q0 -49 38 -49q69 9 165 109q36 37 70.5 75t43 44.5t20.5 6.5q22 0 26.5 -34.5t4.5 -71t-7 -50.5q-34 -66 -149.5 -161t-219.5 -95q-64 0 -118 38t-54 134t51 188q-293 -367 -459 -367q-67 0 -107.5 47t-40.5 97z" />
<glyph unicode="v" horiz-adv-x="879" d="M54 107q0 77 73.5 243.5t143.5 280.5q-62 -46 -75.5 -46t-34.5 31t-21 48t6 25q233 259 328 259q40 0 67.5 -24t27.5 -57t-80.5 -190t-160.5 -316.5t-80 -201.5q0 -7 7 -7q31 0 166 122t218.5 227.5t147 211.5t63.5 139t-14 55t-14 47t35 56.5t89 31.5q111 0 111 -133 q0 -82 -90.5 -238.5t-233 -316.5t-301.5 -277.5t-249 -117.5q-48 0 -88.5 35.5t-40.5 112.5z" />
<glyph unicode="w" horiz-adv-x="1338" d="M45 85.5q0 67.5 81.5 254.5t155.5 301q-27 -17 -47.5 -17t-45 23t-24.5 36t18 38t136 122t161.5 97t83 -16.5t39.5 -45t-164 -336.5t-164 -334q0 -4 2 -4q25 0 247.5 252.5t349.5 415.5q18 30 53 30l11 -2l65 13q15 0 30 -11.5t15 -21t-42 -85t-136.5 -285.5t-94.5 -295 q0 -21 16 -21q44 0 186.5 162t232 310.5t89.5 210.5l-14 56q0 49 33.5 76.5t84.5 27.5q99 0 99 -126q0 -91 -89.5 -251t-211.5 -309t-259 -259.5t-211 -110.5t-104.5 40t-30.5 77.5t3 70.5q13 115 64 220q-126 -165 -271 -296.5t-243 -131.5q-48 0 -76 28.5t-28 96z" />
<glyph unicode="x" horiz-adv-x="896" d="M-93 22q0 24 5 38q12 47 151 197t317 303q-5 102 -5 157t-6.5 55t-43.5 -34.5t-58.5 -34.5t-38.5 38t-17 53q0 53 90.5 135.5t165.5 82.5q22 0 56.5 -21.5t36.5 -47.5q9 -124 9 -205q185 201 364 325q16 10 42 10t66 -30.5t40 -52t-15.5 -34.5t-108 -97.5t-211.5 -194 t-190 -173.5q-10 -113 -10 -234t32 -121q69 9 165 109q36 37 70.5 75t42.5 44.5t20 6.5q21 0 26 -25t5 -71.5t-5 -59.5q-32 -66 -149.5 -161t-222.5 -95q-171 0 -171 236q0 48 7 117q-197 -208 -318 -360q-9 -13 -38.5 -13t-66 29.5t-36.5 53.5z" />
<glyph unicode="y" horiz-adv-x="942" d="M-8 92q0 112 60 217q21 37 73.5 124t97.5 169q43 65 87.5 151t68 123t45 37t55 -26.5t33.5 -63t-154.5 -317.5t-154.5 -320q0 -9 9 -9q32 0 141.5 90.5t241.5 231.5q147 157 231 287q11 16 17.5 25t16.5 24t16.5 23t15 19.5t15.5 17t16 11.5q13 12 29 12t48 -7 t38.5 -15.5t14.5 -15.5q11 -13 11 -24t-9.5 -29.5t-109.5 -186.5q-295 -498 -406 -727q180 151 505 447q13 11 26 11q37 0 37 -113q0 -33 -12 -43q-353 -272 -664 -607q-6 -6 -36 -59.5t-64.5 -108.5t-84.5 -104.5t-83.5 -53.5t-43.5 -4q-108 0 -108 110q0 128 133 300 q51 65 127.5 140t83.5 85t177 331q-113 -124 -210 -201t-186 -87h-9q-46 0 -90.5 30.5t-44.5 105.5z" />
<glyph unicode="z" horiz-adv-x="867" d="M-5 63.5q0 49.5 5 59.5q57 108 146 211.5t158.5 163.5t173.5 142.5t139 113.5q-383 -24 -447 -37h-4q-23 0 -23 31t36.5 84t90.5 69.5t121 17.5q269 5 457 33q3 0 34 12t55 12t44.5 -26t20.5 -66t-21.5 -61.5t-76.5 -36.5q-517 -404 -642 -620q39 12 198 42 q416 76 454 118q12 11 27 11t32.5 -11t17.5 -102q0 -26 -24 -64t-55.5 -52.5t-341.5 -67.5q-413 -72 -448 -72t-44.5 1t-16.5 2.5t-13.5 4t-10 3.5t-8 4.5t-6.5 4.5t-15 13.5t-13 62z" />
<glyph unicode="{" horiz-adv-x="1062" d="M248 -178.5q0 91.5 47 200.5t114.5 213.5t135.5 204.5q162 240 162 338q0 70 -98 93q-40 8 -80 19q-96 24 -89 120q2 39 25.5 64.5t35.5 25.5t44.5 -12t81.5 -12t137.5 39t161 111.5t107 152t39 148t5.5 134.5q5 245 219 326q75 28 147 28q345 0 345 -122 q0 -32 -24.5 -76.5t-60.5 -64.5t-72.5 15.5t-90.5 49.5t-106 7t-89.5 -48t-35.5 -130.5t-20 -187t-74 -192.5q-107 -198 -381 -291q149 -75 93 -246q-47 -144 -186 -347q-165 -244 -207.5 -332t-42.5 -140q0 -98 94 -89q56 4 139 28.5t108.5 24.5t25.5 -24q0 -47 -73 -98 t-156 -81q-120 -45 -235 -45q-46 0 -81 37q-65 67 -65 158.5z" />
<glyph unicode="|" horiz-adv-x="906" d="M48 -248q0 23 2 26q23 105 572.5 1125t609.5 1073q11 12 29 12l65 -3l51 1q25 0 25 -19q0 -5 -77 -141t-491 -911t-598 -1143q-13 -28 -32 -36q-53 -25 -77 -25l-29 -10q-7 0 -26.5 7.5t-21.5 14t-2 29.5z" />
<glyph unicode="}" horiz-adv-x="1062" d="M-214 -217q0 40 35.5 93t69 53t57.5 -23q54 -57 129 -57q158 0 189 162q146 773 568 914q-58 44 -86.5 80t-28.5 89t40.5 129t99.5 146.5t118 138.5q139 166 139 267q0 46 -21.5 70.5t-55.5 24.5t-152 -34t-144.5 -34t-26.5 23q0 83 25 127.5t92 52.5q6 1 52 8l90 17 q122 20 186.5 20t99.5 -37q65 -67 65 -158.5t-38 -175.5t-93 -154t-109 -137q-134 -162 -136 -271q-1 -49 42.5 -80.5t96 -43.5t97 -39t44.5 -67t-24.5 -78t-40.5 -38l-109 5q-75 0 -163.5 -38.5t-161.5 -111.5t-116 -170.5t-59.5 -192t-29.5 -186.5q-33 -221 -119 -307 q-52 -52 -128 -81t-148 -29q-345 0 -345 123z" />
<glyph unicode="~" horiz-adv-x="935" d="M177 626q0 42 39.5 103.5t93.5 103.5q122 96 189 96t112 -25t69 -54t55 -53.5t71 -24.5t78.5 13.5t60 33t37.5 39.5q38 47 68 47t46 -32t16 -66.5t-10 -53.5q-42 -91 -130 -144.5t-163 -53.5t-117 16.5t-69 40t-51 46.5q-55 58 -93 58t-69.5 -17t-54.5 -40.5t-46 -47.5 q-52 -59 -100 -59q-12 0 -22 16t-10 58z" />
<glyph unicode="&#xa1;" horiz-adv-x="790" d="M-84 -93q0 3 5 15q366 537 814 1264q25 41 49 48q1 0 2 1.5t4 3t8 2.5q17 7 41 7t33 7.5t37 7.5q43 0 43 -45q0 -79 -202 -404t-397 -604.5t-249 -321.5q-16 -12 -67 -12l-91 12q-30 0 -30 19zM932 1529.5q0 68.5 63 135.5t131.5 67t68.5 -75t-62.5 -135.5t-131.5 -60.5 t-69 68.5z" />
<glyph unicode="&#xa2;" horiz-adv-x="1142" d="M224 493q0 145 87.5 286t233.5 245t316 147q157 318 180 361t89.5 65t87.5 22q42 0 42 -30q0 -7 -29.5 -54t-151.5 -295l-23 -45h2q63 0 113 -36.5t50 -99t-62.5 -150.5t-126.5 -88q-74 0 -74 71q0 19 35 67t35 65t-12.5 17t-36.5 -3q-199 -408 -316 -647q213 30 381 187 q39 36 52 36q27 0 27 -53.5t-54.5 -117.5t-138.5 -111q-181 -102 -354 -124q-24 -49 -165 -341q-11 -24 -32 -27q-43 -8 -64 -8t-42.5 8.5t-22.5 16t-5.5 20t-4.5 19.5q0 11 155 326q-171 58 -171 271zM425 519q0 -81 60 -113q54 108 148 299.5t132 268.5 q-144 -74 -242 -197.5t-98 -257.5z" />
<glyph unicode="&#xa3;" horiz-adv-x="1441" d="M-106 177.5q0 47.5 16 79.5t52 64q80 68 296 68q78 0 255 -31q62 72 91 199q-160 -20 -251.5 -20t-117 10.5t-25.5 34.5l17 19q18 21 27 40q8 25 63.5 57t97.5 37t208 13q13 59 14 67q27 142 111 269.5t193 212t230.5 134t219 49.5t134.5 -45.5t37 -106t-42.5 -134 t-99 -130t-113 -95t-98.5 -38.5t-70.5 37t-28.5 69.5t6 46.5q11 26 25 26q4 0 20 -16q60 27 138.5 91.5t78.5 82.5t-6 24t-27.5 6t-67.5 -10.5t-119.5 -46.5t-139 -91.5t-123.5 -159t-81 -234.5q83 4 192 4t121.5 -5t34.5 -34.5t33.5 -37t11.5 -26.5t-28 -34 q-66 -34 -377 -44q-15 -134 -89 -280q49 -21 127 -58.5t123 -56.5q124 -54 233 -54t138 20.5t38 20.5t9 -17.5t-41 -75t-67 -82.5q-63 -31 -139 -31t-171 36t-208 90t-161 72q-196 -167 -441 -167q-195 0 -239 92q-20 42 -20 89.5zM72 191q0 -14 26.5 -24.5t63.5 -10.5 q114 0 220 60q-91 12 -155 12q-155 0 -155 -37z" />
<glyph unicode="&#xa4;" horiz-adv-x="1208" d="M222 230q3 37 18 78.5t23 51.5q17 19 33 32.5t26.5 24t33.5 31t33 31.5q-18 59 -18 126q0 228 175 386q-16 24 -39 61t-66 83t-48.5 60.5t20 23.5t101.5 -11.5t103 -55.5q39 -52 56 -73q122 62 259 62q60 0 132 -55q33 24 110.5 80t107.5 78t48 20q28 -4 3 -99 q0 -15 -7 -30l-11 -29q-11 -25 -52 -63t-107 -98q3 -19 3 -28q0 -254 -148 -432q7 -20 20 -50q50 -125 15.5 -218t-61.5 -103q-22 -10 -35 22q-5 9 -15 41l-30 89q-19 56 -33 97q-118 -73 -217.5 -73t-169.5 50q-164 -164 -181 -188q-24 -36 -49 -34q-45 5 -33 112zM526 620 q0 -152 144 -152q70 0 149 63.5t123 150.5t44 155.5t-28 103.5t-55 35q-75 0 -147 -38t-121 -93q-109 -122 -109 -225z" />
<glyph unicode="&#xa5;" horiz-adv-x="1224" d="M330 527q0 55 13 105.5t27 89.5t49 101t51.5 91.5t65.5 97.5q55 81 122 170q-122 -115 -205 -115q-38 0 -48.5 10.5t-31 34t-20.5 51.5t9.5 43t19.5 24.5t26 23t20 17t17.5 3.5t13.5 -4t-10 -12t-10 -13.5t10.5 -5.5t26.5 5.5t42 19t46 25.5q139 79 187 113.5t69 46.5 q33 18 65 12q14 -7 27 -10t17 -5q53 -30 53 -60.5t-31 -72.5t-87 -123.5t-139 -207.5q-198 -299 -198 -381q0 -15 10 -15q151 0 778 713l60 66l-6 -8q19 25 36 33t52 8l53 -1l36 2q15 0 35.5 -14t19 -27t-92 -163.5t-258.5 -425.5t-253 -416h52q71 0 82 -5.5t29 -33.5 t26.5 -35.5t8.5 -25.5t-23 -32q-33 -20 -283 -51q-85 -146 -117 -211q47 48 83.5 77.5t37.5 29.5q19 0 19 -20q0 -5 -7 -12.5t-58 -73.5t-76 -95t-44.5 -60.5t-32.5 -44.5t-33 -13q-58 0 -97 49t-39 90.5t129 258.5q-99 -8 -169 -8t-91 10.5t-21 33.5q29 36 36.5 58 t52.5 53.5t73 35.5q110 14 245 20q186 289 379 564q-446 -531 -709 -531q-32 0 -62 18.5t-44 45.5t-14 82z" />
<glyph unicode="&#xa6;" horiz-adv-x="906" d="M60 -248q0 23 1 26q58 150 243.5 513t240.5 410q11 11 32 11l63 -3l49 1q26 0 26 -19q0 -4 -32.5 -62.5t-82 -152.5t-82 -158.5t-114 -229.5t-156.5 -316q-13 -28 -32 -36q-53 -25 -77 -25l-29 -10q-7 0 -26.5 7.5t-21.5 14t-2 29.5zM720 1025q0 24 1 26q52 136 256 505 t261 418q10 11 32 11l62 -3l51 2q26 0 26 -19q0 -11 -115 -202q-186 -313 -387 -716q-16 -32 -33 -39q-59 -23 -74 -23l-31 -10q-7 0 -26.5 7.5t-21 13t-1.5 29.5z" />
<glyph unicode="&#xa7;" horiz-adv-x="1003" d="M104 42q0 72 33 113t92.5 69.5t91 28.5t40 -3t12 -7.5t8 -9.5t11.5 -8t8 -11.5t-3 -18t-10 -18.5t-12.5 -18t-7.5 -13q109 0 202.5 26.5t149.5 65.5q116 83 116 147q0 32 -172 82q-71 20 -142 46.5t-121.5 71.5t-50.5 117q0 142 228 247q-66 15 -97.5 47t-31.5 95.5 t43.5 131.5t113 119.5t154 95t168.5 70.5q180 59 277 59q162 0 162 -91q0 -71 -32 -111.5t-92 -69t-91 -28.5t-40 3t-12.5 7t-7.5 9.5t-11 8.5t-8.5 11.5t3 17.5t10 18.5t12 18.5t7.5 13q-101 -6 -216 -58t-183.5 -105t-68.5 -75q0 -9 50 -22t121 -32t142.5 -46.5 t121.5 -78.5t50 -130.5t-61 -138t-177 -117.5q139 -40 139 -143.5t-78 -196t-194 -151.5q-251 -127 -482 -127q-164 0 -164 89zM551 729q0 -58 139 -99q82 19 152.5 61.5t70.5 102.5q0 79 -171 104q-97 -22 -144 -74.5t-47 -94.5z" />
<glyph unicode="&#xa8;" horiz-adv-x="966" d="M595 1184q0 62 44.5 130t123.5 68q33 0 59 -25t26 -82t-55 -124t-126.5 -67t-71.5 100zM948 1167q0 31 13 61.5t36 64t63.5 58t82.5 24.5t68.5 -22t26.5 -81.5t-61 -123.5t-140 -64q-43 0 -66 26t-23 57z" />
<glyph unicode="&#xa9;" horiz-adv-x="1812" d="M337 445.5q0 130.5 43.5 279t113 274.5t157.5 240t176 195q191 173 311 176h9q12 0 45 16.5t74 36.5q110 53 289 53q115 0 246 -95q62 -46 104 -123.5t42 -171.5q0 -519 -310 -933q-167 -222 -417 -367q-224 -130 -433 -130q-74 0 -145.5 39t-124.5 100.5t-95 134.5 q-85 145 -85 275.5zM524 468q0 -66 43.5 -143t125 -135.5t172.5 -58.5q149 0 307.5 96t279 240.5t198.5 322.5t78 348.5t-81 292t-164.5 121.5t-179 -38t-131.5 -64q-370 -262 -506 -469q-93 -142 -113 -236q-29 -133 -29 -277zM690 618q0 174 147 367q158 209 350 292 q107 47 191 47t135 -36.5t51 -100.5t-63.5 -153t-128.5 -89q-75 0 -75 72q0 19 35.5 67.5t35.5 65.5t-13 17q-74 0 -161 -58.5t-155.5 -141.5t-115 -177.5t-46.5 -162.5q0 -129 106 -129q159 0 347 203q20 22 27 28t23.5 6t20 -16.5t3.5 -59t-32.5 -102t-82 -101.5 t-107.5 -74q-116 -61 -206 -61q-139 0 -212.5 82t-73.5 215z" />
<glyph unicode="&#xaa;" horiz-adv-x="682" d="M221 581q0 79 48 79q32 3 96 3l125 -3l190 3q34 -2 46.5 -14t12.5 -50q0 -69 -59 -81q-12 -2 -45 -2l-133 7l-247 -18q-25 2 -28 21q-6 24 -6 55zM317 871.5q0 28.5 16 61.5q122 285 502 515q16 9 55 9t83.5 -24.5t49.5 -69.5q13 -19 13 -36.5t-33 -62.5t-37 -50.5 t-25.5 -36t-24.5 -35.5l-22 -33q-17 -26 -22.5 -36t-19.5 -33t-20.5 -37.5t-16 -35.5t-16.5 -41l33 24q150 108 181.5 108t31.5 -26q0 -17 -9 -41q-34 -67 -125.5 -149.5t-164.5 -82.5q-26 0 -60.5 34.5t-34.5 64t26 90.5q-171 -201 -238 -201q-41 0 -81.5 48t-40.5 76.5z M458 914q252 186 438 447q0 2 -3 0q-137 -82 -251.5 -197.5t-183.5 -249.5z" />
<glyph unicode="&#xab;" horiz-adv-x="903" d="M197 530q0 45 61 79q59 34 113 90t108 118t69 78t35 16q41 0 41 -123q0 -46 -7.5 -68.5t-33.5 -37.5q-157 -96 -210 -175q36 -138 53.5 -158.5t17.5 -77.5t-30 -118t-69 -61t-50.5 13.5t-15.5 71t-29 166.5t-45 162q-8 9 -8 25zM497 536q0 40 59 78.5t97 66t61.5 46.5 t80.5 68t86.5 73t36.5 30t12 9q12 11 25 11q41 0 41 -123q0 -46 -7 -67.5t-42 -43.5t-134 -81.5t-142 -88.5q25 -130 63 -165q33 -30 33 -91.5t-30 -122.5t-69 -61t-50 15t-17.5 70.5t-14 94.5t-15 69.5t-13.5 44.5q-28 71 -53 144q-8 10 -8 24z" />
<glyph unicode="&#xac;" horiz-adv-x="1003" d="M308 826q0 25 12 56t13 35.5t5 13t7 11.5q11 15 16 16t12 5q8 3 23 3t118 1t171 0t163 -2.5t154 -7.5t84.5 -20.5t30.5 -53.5t-15 -91t-45 -101t-57 -110.5t-41 -84t-16 -43t-12 -31.5t-12 -26q-13 -28 -30 -28q-70 0 -107 35t-4 101q10 26 62 108q125 200 92 203 q-169 11 -372.5 -5.5t-218.5 -16.5q-33 0 -33 33z" />
<glyph unicode="&#xad;" horiz-adv-x="767" d="M177 521.5q0 22.5 12.5 40t16.5 36.5t42.5 54.5t65 38.5t93.5 7.5t134.5 10t130 5.5t72.5 -6.5t22.5 -32t23 -37t10.5 -38.5t-21 -46t-48 -23.5t-60 -8.5t-73.5 -8t-77 -9t-83.5 -14q-91 -18 -184 -20h-6q-24 -3 -47 12.5t-23 38z" />
<glyph unicode="&#xae;" horiz-adv-x="1208" d="M544 1088q0 118 49 233t120 194q153 172 285 208q17 3 30 6.5t37.5 8.5t48.5 8q64 7 133 7t158.5 -73t89.5 -176q0 -147 -41.5 -277t-108.5 -220.5t-152 -156.5q-166 -131 -342 -131q-118 0 -209 88q-98 97 -98 281zM650 1087q0 -111 64 -172t160 -61t189 60 q-22 42 -48 135.5t-34 148.5q-17 -4 -49 -4q-32 -58 -97 -236q-11 -19 -39.5 -19t-51.5 15.5t-23 37.5q29 177 216 464l-28 -2q-12 0 -12 6t19 40q17 27 65 43.5t77 16.5q98 0 158 -35.5t60 -96t-58.5 -123t-137.5 -88.5q6 -36 35.5 -106.5t56.5 -108.5q87 85 141.5 196.5 t54.5 214t-56 162t-107 59.5t-119 -13t-85 -20q-81 -35 -150.5 -104t-111.5 -142q-89 -157 -89 -268zM983 1291h12q48 0 100.5 43.5t52.5 92.5q0 17 -10 27q-12 12 -51 12h-19q-14 -31 -41.5 -84.5t-43.5 -90.5z" />
<glyph unicode="&#xaf;" horiz-adv-x="966" d="M612 1184q0 160 85 160l252 -12q104 0 170 16.5t81 16.5q26 0 26 -44t-7 -65.5t-15.5 -36.5t-26.5 -27t-30 -19t-38.5 -12.5t-37.5 -7.5q-23 -5 -77 -5h-140q-132 0 -220 -12q-22 0 -22 48z" />
<glyph unicode="&#xb0;" horiz-adv-x="483" d="M445 1148.5q0 61.5 36.5 122t64.5 58.5q53 101 176 101q70 0 111 -37.5t41 -94.5q0 -110 -75.5 -203.5t-199.5 -93.5q-77 0 -115.5 43t-38.5 104.5zM560 1149.5q0 -54.5 37.5 -54.5t64 23t39.5 57q26 66 26 118.5t-26 52.5q-18 0 -31 -21t-24.5 -42.5t-22.5 -21.5t-24 10 q-39 -67 -39 -121.5z" />
<glyph unicode="&#xb1;" horiz-adv-x="1062" d="M227 237.5q0 55.5 24.5 92.5t68.5 37q117 0 209 -6q237 -15 463 -15q19 0 30.5 -26.5t11.5 -61.5t-30 -61t-87 -26l-379 15l-256 -4q-55 0 -55 55.5zM295 754q0 14 25.5 58t31.5 52t14 16q13 17 27 17q150 0 256 -10q29 89 51.5 133t28.5 64q14 50 29 50q23 0 69 -27 t46 -68t-45 -156q175 -9 227 -9q86 0 86 -35q0 -6 -10.5 -20.5t-26 -44t-22.5 -42t-23.5 -22t-42.5 -9.5t-256 12q-12 -29 -31 -92q-53 -179 -82 -179q-23 0 -40 27.5t-23 34t-17 19t-17 19.5q-17 20 -17 27t3 13t28.5 66t29.5 67q-180 -5 -222 -5q-77 0 -77 44z" />
<glyph unicode="&#xb2;" horiz-adv-x="590" d="M170 612q0 49 79 122q9 9 18 19q24 26 125.5 108.5t132 114.5t113 112t102 99t55.5 56q61 61 61 85q0 4 -31 4t-120.5 -57t-178.5 -169q1 1 1 -7q-8 -18 -31 -29.5t-36 -11.5q-39 0 -66 28q-10 6 -10 34t43.5 84t110.5 113t160.5 98.5t162.5 41.5t99 -40.5t30 -78.5 q0 -123 -511 -567q-15 -15 -43 -38.5t-34 -29.5q171 32 225.5 32t62.5 -21q0 -2 3 -5h-2q10 -5 18 -33t8 -44v-5q0 -32 -26 -37q-90 -18 -240 -26.5t-197 -14.5q-19 0 -59 19q-25 24 -25 44z" />
<glyph unicode="&#xb3;" horiz-adv-x="645" d="M245 643.5q0 36.5 32 70.5t63 34q20 0 20 -28q8 -37 33 -37q58 0 135 28t133 67.5t56 69.5q-4 61 -182 61q-22 0 -33.5 19.5t-11.5 41.5t12 40q14 21 56.5 45.5t55.5 33.5l28 19q230 152 230 205q0 7 -15 7q-53 0 -177 -76q-132 -81 -184 -167q-10 -19 -33 -19t-42 19.5 t-20 45.5v11q3 31 46.5 81.5t108.5 100t155 86t161.5 36.5t101 -30t29.5 -80t-69 -134t-221 -178q59 -7 103.5 -43t44.5 -86q-1 -6 -1 -8q-7 -77 -85 -156.5t-193 -130t-197.5 -50.5t-111 32.5t-28.5 69z" />
<glyph unicode="&#xb4;" horiz-adv-x="966" d="M680 1080q0 10 6 22q26 69 77 125t112.5 105.5t107.5 82t63.5 49t24.5 37.5q9 21 32.5 21t45.5 -40.5t22 -77.5q0 -97 -100 -161q-31 -31 -176.5 -112.5t-180 -81.5t-34.5 31z" />
<glyph unicode="&#xb5;" horiz-adv-x="955" d="M-277.5 -279.5q-0.5 47.5 14.5 74t94 152.5q300 479 388.5 633t100.5 173.5t27 45.5t24.5 39.5t21.5 30t20.5 25t19.5 15.5q19 14 44 14t50.5 -28.5t25.5 -46.5t-69 -131q-220 -356 -242 -440q-8 -62 9 -87.5t45 -25.5q67 0 225.5 174t278.5 407q73 141 116 168 q50 33 131 36q13 0 20 -1.5t16.5 -20t9.5 -29.5q-11 -33 -94 -176t-93 -162q-139 -287 -139 -375q0 -49 38 -49q51 9 72.5 -33t-15.5 -86t-132 -44q-35 0 -73 20q-71 40 -71 118q0 92 43 170q-152 -188 -228 -243q-91 -65 -154 -65t-102 39.5t-28 112.5 q-155 -234 -185.5 -304.5t-49.5 -123t-28 -74t-32 -21.5t-41 11t-38 35.5t-20.5 72z" />
<glyph unicode="&#xb6;" horiz-adv-x="1550" d="M274 -223q281 539 672 1121q-168 83 -200 159q-16 37 -16 83q0 130 93.5 242.5t244.5 186.5q323 160 720 160q168 0 246 -56q36 -25 36 -57t-26.5 -54t-65.5 -11q-125 -167 -377 -571t-332.5 -557t-178.5 -350q-196 -396 -211 -400.5t-24.5 -4.5t-18 11.5t-11.5 11.5 t-12 -5t-27 -5l-50 2q-50 0 -50 42q0 28 20 74t37.5 75.5t155.5 281.5q367 671 474.5 819t184.5 265q145 218 168.5 244t38.5 45q47 56 47 58q0 15 -59 15t-113 -42.5t-130.5 -143t-141.5 -193.5t-174 -270q-375 -616 -503 -865q-254 -492 -265.5 -496t-18.5 -4 q-244 -19 -133 189z" />
<glyph unicode="&#xb7;" horiz-adv-x="601" d="M280 559.5q0 89.5 62 187t144.5 97.5t82.5 -97t-62.5 -187t-150.5 -90q-76 0 -76 89.5z" />
<glyph unicode="&#xb8;" horiz-adv-x="772" d="M83 -475.5q0 44.5 20 79t37 34.5t20 -9t8 -9q233 18 233 71q0 14 -20.5 25t-49.5 20t-57 21q-71 31 -71 88.5t45 119t98 61.5q22 0 40.5 -6.5t18.5 -12.5t-8 -13.5t-12 -7.5q-50 -52 -50 -74t32 -32.5t71 -19t70.5 -36.5t31.5 -67.5t-13 -75.5q-42 -115 -139 -167.5 t-218 -52.5q-54 0 -70.5 9.5t-16.5 54z" />
<glyph unicode="&#xb9;" horiz-adv-x="358" d="M197 620q24 51 155.5 255.5t230.5 338.5q-31 -25 -44 -25q-15 0 -18.5 18.5t-9.5 23.5q-11 8 2 34q10 25 118.5 107.5t137.5 82.5t54 -25.5t25 -48.5q-1 -11 -91.5 -141.5t-249 -371t-180.5 -298.5q-3 -4 -26.5 -13t-34 -9t-23.5 20.5t-19 27.5q-9 9 -18.5 14t-8.5 10z " />
<glyph unicode="&#xba;" horiz-adv-x="536" d="M166 527q0 75 46 80q74 5 129 5h67l143 8q37 0 48.5 -14t11.5 -53q0 -75 -55 -79q-17 -2 -46 -2l-84 2l-223 -22q-37 0 -37 75zM321 846q0 50 36 127t91 156q180 259 267 307q38 21 96.5 21t97.5 -40t39 -93.5t-12 -88.5q-57 -186 -175 -333.5t-293 -207.5q-24 -7 -35 -7 q-51 0 -81.5 54.5t-30.5 104.5zM433 807l14 8q128 104 229.5 234.5t121.5 250.5q3 15 3 27t-6 12q-13 0 -29 -16q-103 -85 -195 -219.5t-136 -262.5q-2 -16 -2 -34z" />
<glyph unicode="&#xbb;" horiz-adv-x="906" d="M52 212q0 74 65 122q12 9 112.5 73.5t157.5 109.5q-24 73 -62 132t-39 80q0 64 30 134t69 70q33 0 41 -15q12 -22 15.5 -50t6.5 -51t7.5 -46t7 -37.5t9.5 -37.5t9.5 -31.5t12 -34t11 -30t14 -34.5t20 -42t7.5 -35q0 -55 -60 -90q-125 -59 -239 -170q-55 -52 -91 -81 q-43 -58 -64 -58q-40 0 -40 122zM424 215q0 46 7 67.5t34 38.5q157 94 212 175q-4 16 -11 55q-18 85 -33.5 103.5t-15.5 73t29 119t62.5 64.5t45 -13.5t15.5 -70t28 -166.5t37.5 -142t13.5 -50.5t-60 -74.5q-190 -175 -277 -274q-26 -28 -46 -28q-41 0 -41 123z" />
<glyph unicode="&#xbc;" horiz-adv-x="1423" d="M177 76q0 42 10 82t16.5 50.5t11.5 15.5q4 7 166 196.5t483 543t378.5 419t64 71.5t12.5 9q16 11 24 11q21 0 21 -38.5t-1.5 -51t-3 -24t-2.5 -16.5t-4.5 -18t-7.5 -21q-19 -41 -256 -306q-453 -507 -809 -973q-5 -6 -14 -24q-18 -34 -42 -34q-47 0 -47 108zM197 620 q24 51 155.5 255.5t230.5 338.5q-31 -25 -44 -25q-15 0 -18.5 18.5t-9.5 23.5q-11 8 2 34q10 25 118.5 107.5t137.5 82.5t54 -25.5t25 -48.5q-1 -11 -91.5 -141.5t-249 -371t-180.5 -298.5q-3 -4 -26.5 -13t-34 -9t-23.5 20.5t-19 27.5q-9 9 -18.5 14t-8.5 10zM736 330 q0 31 3 38q28 60 182 187.5t310.5 231.5t199.5 110q6 0 58 -17q7 -4 12 -14t11 -12q1 -7 3 -13.5t2 -12.5t-81 -119.5t-178 -274.5q128 12 156 12t28 -12.5t-13 -28.5q-65 -88 -93 -101q-36 -5 -164 -16q-4 -6 -71 -115.5t-113 -190.5q-13 -24 -58.5 -32t-68.5 -15 q-10 0 -24.5 12.5t-15.5 22.5q50 96 182 307q-191 -15 -234 -15q-33 0 -33 68zM918 392q71 13 175 26q91 142 197 283q-101 -79 -198.5 -163.5t-173.5 -145.5z" />
<glyph unicode="&#xbd;" horiz-adv-x="1399" d="M177 76q0 42 10 82t16.5 50.5t11.5 15.5q4 7 166 196.5t483 543t378.5 419t64 71.5t12.5 9q16 11 24 11q21 0 21 -38.5t-1.5 -51t-3 -24t-2.5 -16.5t-4.5 -18t-7.5 -21q-19 -41 -256 -306q-453 -507 -809 -973q-5 -6 -14 -24q-18 -34 -42 -34q-47 0 -47 108zM197 620 q24 51 155.5 255.5t230.5 338.5q-31 -25 -44 -25q-15 0 -18.5 18.5t-9.5 23.5q-11 8 2 34q10 25 118.5 107.5t137.5 82.5t54 -25.5t25 -48.5q-1 -11 -91.5 -141.5t-249 -371t-180.5 -298.5q-3 -4 -26.5 -13t-34 -9t-23.5 20.5t-19 27.5q-9 9 -18.5 14t-8.5 10zM721 48 q0 49 79 122q9 9 18 19q25 26 126 108.5t131.5 114.5t113 112t102 99t54.5 55q62 62 62 85q0 5 -31 5t-120.5 -57t-178.5 -169q2 1 2 -7q-9 -18 -32 -29.5t-36 -11.5q-39 0 -66 28q-10 5 -10 33.5t43.5 84.5t110.5 112.5t160.5 98.5t162.5 42t99 -40.5t30 -78.5 q0 -123 -511 -568q-15 -14 -43 -37.5t-34 -29.5q172 32 226 32t62 -21q0 -2 3 -5h-1q9 -5 17 -33t8 -44v-5q0 -32 -25 -37q-91 -18 -241 -26.5t-197 -14.5q-19 0 -59 19q-25 24 -25 44z" />
<glyph unicode="&#xbe;" horiz-adv-x="1670" d="M245 643.5q0 36.5 32 70.5t63 34q20 0 20 -28q8 -37 33 -37q58 0 135 28t133 67.5t56 69.5q-4 61 -182 61q-22 0 -33.5 19.5t-11.5 41.5t12 40q14 21 56.5 45.5t55.5 33.5l28 19q230 152 230 205q0 7 -15 7q-53 0 -177 -76q-132 -81 -184 -167q-10 -19 -33 -19t-42 19.5 t-20 45.5v11q3 31 46.5 81.5t108.5 100t155 86t161.5 36.5t101 -30t29.5 -80t-69 -134t-221 -178q59 -7 103.5 -43t44.5 -86q-1 -6 -1 -8q-7 -77 -85 -156.5t-193 -130t-197.5 -50.5t-111 32.5t-28.5 69zM448 76q0 42 10 82t16.5 50.5t11.5 15.5q5 7 166.5 196.5t482.5 543 t379 419t64.5 71.5t12.5 9q15 11 23 11q21 0 21 -38.5t-1.5 -51t-2.5 -24t-2.5 -16.5t-5 -18t-6.5 -21q-19 -41 -256 -306q-454 -507 -810 -973q-5 -6 -14 -24q-18 -34 -41 -34q-48 0 -48 108zM984 330q0 31 2 38q29 60 183 187.5t310 231.5t200 110q6 0 58 -17 q7 -4 11.5 -14t10.5 -12q2 -7 4 -13.5t2 -12.5t-81.5 -119.5t-177.5 -274.5q128 12 156 12t28 -12.5t-13 -28.5q-65 -88 -93 -101q-36 -5 -164 -16q-4 -6 -71.5 -115.5t-113.5 -190.5q-13 -24 -58 -32t-68 -15q-10 0 -24.5 12.5t-15.5 22.5q50 96 182 307q-191 -15 -234 -15 q-33 0 -33 68zM1166 392q71 13 174 26q91 142 198 283q-101 -79 -199 -163.5t-173 -145.5z" />
<glyph unicode="&#xbf;" horiz-adv-x="1295" d="M130 282q0 104 35.5 185.5t96.5 142.5t136.5 113t163.5 98.5t170 89.5q197 104 292 199q39 42 27 103q-3 19 13.5 33t46.5 14t47 -3t43 -11q58 -16 58 -77q0 -112 -97 -200q-78 -73 -286 -196t-311 -192q-228 -155 -228 -298q0 -154 264 -154q107 0 232 44.5t212 116.5 t87 141q0 4 -12.5 10.5t-24.5 6.5t-33 -13.5t-25 -13.5q-17 0 -17 23q0 54 48 82.5t115.5 28.5t123.5 -46t56 -100q0 -96 -72.5 -187t-183.5 -152q-246 -136 -490 -136q-284 0 -419 162q-68 82 -68 186zM1224 1522q0 66 62 134.5t130 68.5t68 -71.5t-60.5 -135.5t-132.5 -64 q-31 0 -49 17.5t-18 50.5z" />
<glyph unicode="&#xc0;" horiz-adv-x="1419" d="M71 60q0 118 304 505q-143 0 -181 -7t-49 -7q-32 0 -32 53.5t63.5 94.5t169.5 41q8 0 29 1q73 4 150 6q257 302 538 560.5t486 362.5q33 16 52.5 15.5t46.5 -29.5q37 81 52 81h6q18 0 72.5 -38t54.5 -71q0 -46 -302.5 -712.5t-346.5 -747.5t-60.5 -108t-44.5 -60 q-51 -63 -127 -63q-30 0 -54 -7.5t-28 -7.5q-38 0 -38 18q0 3 10 28.5t270 573.5q-278 10 -488 16q-202 -254 -366 -531q-20 -39 -37.5 -55t-48 -16t-66 31.5t-35.5 72.5zM779 747q209 -5 422 -18q215 452 365 760q-431 -327 -787 -742zM1469 2250q0 21 56 52.5t88.5 31.5 t41.5 -3t16 -12t11.5 -18.5t11 -29.5t11.5 -37q27 -102 49 -168q44 -130 44 -170t-33.5 -40t-56.5 9.5t-38 29t-23 33.5t-18 39t-27.5 59t-55.5 90.5t-57.5 84.5t-19.5 49z" />
<glyph unicode="&#xc1;" horiz-adv-x="1419" d="M71 60q0 118 304 505q-143 0 -181 -7t-49 -7q-32 0 -32 53.5t63.5 94.5t169.5 41q8 0 29 1q73 4 150 6q257 302 538 560.5t486 362.5q33 16 52.5 15.5t46.5 -29.5q37 81 52 81h6q18 0 72.5 -38t54.5 -71q0 -46 -302.5 -712.5t-346.5 -747.5t-60.5 -108t-44.5 -60 q-51 -63 -127 -63q-30 0 -54 -7.5t-28 -7.5q-38 0 -38 18q0 3 10 28.5t270 573.5q-278 10 -488 16q-202 -254 -366 -531q-20 -39 -37.5 -55t-48 -16t-66 31.5t-35.5 72.5zM779 747q209 -5 422 -18q215 452 365 760q-431 -327 -787 -742zM1733 1887q0 10 6 22q26 69 77 125 t112.5 105.5t107.5 82t63.5 49t24.5 37.5q9 21 32.5 21t45.5 -40.5t22 -77.5q0 -97 -100 -161q-31 -31 -176.5 -112.5t-180 -81.5t-34.5 31z" />
<glyph unicode="&#xc2;" horiz-adv-x="1419" d="M71 60q0 118 304 505q-143 0 -181 -7t-49 -7q-32 0 -32 53.5t63.5 94.5t169.5 41q8 0 29 1q73 4 150 6q257 302 538 560.5t486 362.5q33 16 52.5 15.5t46.5 -29.5q37 81 52 81h6q18 0 72.5 -38t54.5 -71q0 -46 -302.5 -712.5t-346.5 -747.5t-60.5 -108t-44.5 -60 q-51 -63 -127 -63q-30 0 -54 -7.5t-28 -7.5q-38 0 -38 18q0 3 10 28.5t270 573.5q-278 10 -488 16q-202 -254 -366 -531q-20 -39 -37.5 -55t-48 -16t-66 31.5t-35.5 72.5zM779 747q209 -5 422 -18q215 452 365 760q-431 -327 -787 -742zM1491 1900q0 26 11 49t39 50.5 t47.5 45.5t62.5 53q157 126 232 212q13 25 63.5 25t82.5 -33.5t41.5 -72t16.5 -85t10 -53.5t13.5 -35t16.5 -43t14 -40q17 -52 17 -84.5t-35 -32.5t-60.5 9t-43.5 27.5t-32 37.5t-25.5 50.5t-18.5 52t-17 56.5t-15 53q-76 -76 -207 -172t-187 -96q-26 0 -26 26z" />
<glyph unicode="&#xc3;" horiz-adv-x="1419" d="M71 60q0 118 304 505q-143 0 -181 -7t-49 -7q-32 0 -32 53.5t63.5 94.5t169.5 41q8 0 29 1q73 4 150 6q257 302 538 560.5t486 362.5q33 16 52.5 15.5t46.5 -29.5q37 81 52 81h6q18 0 72.5 -38t54.5 -71q0 -46 -302.5 -712.5t-346.5 -747.5t-60.5 -108t-44.5 -60 q-51 -63 -127 -63q-30 0 -54 -7.5t-28 -7.5q-38 0 -38 18q0 3 10 28.5t270 573.5q-278 10 -488 16q-202 -254 -366 -531q-20 -39 -37.5 -55t-48 -16t-66 31.5t-35.5 72.5zM779 747q209 -5 422 -18q215 452 365 760q-431 -327 -787 -742zM1429 1926q0 70 57.5 138.5 t126 106.5t114 38t85.5 -22t61.5 -47.5t48.5 -47t67.5 -21.5t80.5 19t57 41q46 59 73.5 59t41.5 -29t14 -58.5t-8 -48.5q-41 -79 -117.5 -126t-148.5 -47t-116 22.5t-68 48.5q-65 70 -100.5 70t-63 -14.5t-48 -36.5t-41.5 -43q-48 -51 -90 -51q-10 0 -18 14.5t-8 34.5z" />
<glyph unicode="&#xc4;" horiz-adv-x="1419" d="M71 60q0 118 304 505q-143 0 -181 -7t-49 -7q-32 0 -32 53.5t63.5 94.5t169.5 41q8 0 29 1q73 4 150 6q257 302 538 560.5t486 362.5q33 16 52.5 15.5t46.5 -29.5q37 81 52 81h6q18 0 72.5 -38t54.5 -71q0 -46 -302.5 -712.5t-346.5 -747.5t-60.5 -108t-44.5 -60 q-51 -63 -127 -63q-30 0 -54 -7.5t-28 -7.5q-38 0 -38 18q0 3 10 28.5t270 573.5q-278 10 -488 16q-202 -254 -366 -531q-20 -39 -37.5 -55t-48 -16t-66 31.5t-35.5 72.5zM779 747q209 -5 422 -18q215 452 365 760q-431 -327 -787 -742zM1570 1991q0 62 44.5 130t123.5 68 q33 0 59 -25t26 -82t-55 -124t-126.5 -67t-71.5 100zM1923 1974q0 31 13 61.5t36 64t63.5 58t82.5 24.5t68.5 -22t26.5 -81.5t-61 -123.5t-140 -64q-43 0 -66 26t-23 57z" />
<glyph unicode="&#xc5;" horiz-adv-x="1419" d="M71 60q0 118 304 505q-143 0 -181 -7t-49 -7q-32 0 -32 53.5t63.5 94.5t169.5 41q8 0 29 1q73 4 150 6q257 302 538 560.5t486 362.5q33 16 52.5 15.5t46.5 -29.5q37 81 52 81h6q18 0 72.5 -38t54.5 -71q0 -46 -302.5 -712.5t-346.5 -747.5t-60.5 -108t-44.5 -60 q-51 -63 -127 -63q-30 0 -54 -7.5t-28 -7.5q-38 0 -38 18q0 3 10 28.5t270 573.5q-278 10 -488 16q-202 -254 -366 -531q-20 -39 -37.5 -55t-48 -16t-66 31.5t-35.5 72.5zM779 747q209 -5 422 -18q215 452 365 760q-431 -327 -787 -742zM1599 2011q0 221 268 316 q0 21 121 21q62 0 100 -39.5t38 -102.5t-49 -148t-157 -158q-65 -44 -149.5 -44t-128 48t-43.5 107zM1732 2054q0 -52 72 -52t124.5 51.5t52.5 102.5q0 15 -11 22.5t-18.5 12.5t-19.5 10t-19 8q-12 6 -38 14q-25 1 -84 -40t-59 -129z" />
<glyph unicode="&#xc6;" horiz-adv-x="2433" d="M71 60q0 118 304 505q-143 0 -181 -7t-49 -7q-32 0 -32 53.5t63.5 94.5t169.5 41q8 0 29 1q73 4 150 6q257 302 538 560.5t486 362.5q33 16 52.5 15.5t46.5 -29.5q37 81 52 81h6q18 0 72.5 -38t54.5 -71q0 -11 -19 -61q138 70 291.5 110.5t241.5 40.5q162 0 234 -22 q43 -22 70.5 -60t27.5 -66t-7.5 -50.5t-23.5 -35.5q-24 -17 -53.5 -26.5t-33.5 -11.5q-92 -39 -159 -39q-118 0 -128 30q2 31 26 71q-112 -5 -232.5 -45.5t-208.5 -95.5t-144.5 -114t-56.5 -99q0 -77 268 -77q66 0 98 15q83 40 205.5 40t122.5 -63q0 -25 -21 -72.5 t-31 -58.5t-76 -29t-85.5 -20t-26 -3t-15 -2t-39.5 -6.5t-45 0.5q-391 -192 -537 -423q-66 -103 -66 -178q0 -117 162 -117q126 0 320.5 99.5t345 240.5t150.5 245q0 33 50 33q114 0 114 -136q0 -64 -55.5 -152t-154.5 -178t-220.5 -168t-269.5 -127.5t-279 -49.5 t-234.5 62.5t-132.5 184.5q-72 -149 -113.5 -198.5t-72 -64t-64.5 -14.5t-58 -7.5t-28 -7.5q-38 0 -38 18q0 3 10 28.5t270 573.5q-278 10 -488 16q-202 -254 -366 -531q-20 -39 -37.5 -55t-48 -16t-66 31.5t-35.5 72.5zM779 747q209 -5 422 -18q215 452 365 760 q-431 -327 -787 -742zM1443 725q106 94 249 177q-90 20 -143 56q-53 -118 -106 -233z" />
<glyph unicode="&#xc7;" horiz-adv-x="1373" d="M194 359q0 148 59.5 307t160 303.5t238 278t286.5 231t311.5 155.5t309.5 58q115 0 197 -84q42 -44 42 -112t-66 -171.5t-156 -188.5t-186.5 -144t-154 -59t-99 36t-41.5 64.5t12.5 62.5t31.5 34q-5 -5 -5 -11q0 -15 40.5 -15t136.5 72t173 162t77 135q0 30 -41 30 q-111 0 -306.5 -103t-373.5 -266t-309.5 -386.5t-131.5 -401.5q0 -75 39.5 -119.5t121.5 -44.5t194 47t213 115.5t190.5 140.5t143.5 126.5t55 65.5t10 11q29 0 29 -45.5t-20 -156.5q-16 -74 -170 -212q-187 -165 -410 -236q-134 -43 -262 -43t-233.5 108t-105.5 256z M258 -451.5q0 44.5 20 79t37 34.5t20 -9t8 -9q233 18 233 71q0 14 -20.5 25t-49.5 20t-57 21q-71 31 -71 88.5t45 119t98 61.5q22 0 40.5 -6.5t18.5 -12.5t-8 -13.5t-12 -7.5q-50 -52 -50 -74t32 -32.5t71 -19t70.5 -36.5t31.5 -67.5t-13 -75.5q-42 -115 -139 -167.5 t-218 -52.5q-54 0 -70.5 9.5t-16.5 54z" />
<glyph unicode="&#xc8;" horiz-adv-x="1453" d="M219 299q0 92 50 187t130 172q147 147 316 244q-243 55 -243 250q0 219 337 401q188 100 408 144q103 21 173 21q142 0 214 -22q43 -22 70.5 -60t27.5 -66t-7.5 -50.5t-23.5 -35.5q-24 -17 -53.5 -26.5t-33.5 -11.5q-92 -39 -159 -39q-118 0 -128 30q2 31 26 71 q-112 -5 -232.5 -45.5t-208.5 -95.5t-144.5 -114t-56.5 -99q0 -77 268 -77q66 0 98 15q83 40 205.5 40t122.5 -63q0 -25 -21 -72.5t-31 -58.5t-76 -29t-85.5 -20t-26 -3t-15 -2t-39.5 -6.5t-45 0.5q-391 -192 -537 -423q-66 -103 -66 -178q0 -117 162 -117q126 0 320.5 99.5 t345 240.5t150.5 245q0 33 50 33q114 0 114 -136q0 -64 -55.5 -152t-154.5 -178t-220.5 -168t-269.5 -127.5t-250.5 -49.5t-166 19.5t-118.5 58.5q-121 84 -121 254zM989 2221q0 21 56 52.5t88.5 31.5t41.5 -3t16 -12t11.5 -18.5t11 -29.5t11.5 -37q27 -102 49 -168 q44 -130 44 -170t-33.5 -40t-56.5 9.5t-38 29t-23 33.5t-18 39t-27.5 59t-55.5 90.5t-57.5 84.5t-19.5 49z" />
<glyph unicode="&#xc9;" horiz-adv-x="1453" d="M219 299q0 92 50 187t130 172q147 147 316 244q-243 55 -243 250q0 219 337 401q188 100 408 144q103 21 173 21q142 0 214 -22q43 -22 70.5 -60t27.5 -66t-7.5 -50.5t-23.5 -35.5q-24 -17 -53.5 -26.5t-33.5 -11.5q-92 -39 -159 -39q-118 0 -128 30q2 31 26 71 q-112 -5 -232.5 -45.5t-208.5 -95.5t-144.5 -114t-56.5 -99q0 -77 268 -77q66 0 98 15q83 40 205.5 40t122.5 -63q0 -25 -21 -72.5t-31 -58.5t-76 -29t-85.5 -20t-26 -3t-15 -2t-39.5 -6.5t-45 0.5q-391 -192 -537 -423q-66 -103 -66 -178q0 -117 162 -117q126 0 320.5 99.5 t345 240.5t150.5 245q0 33 50 33q114 0 114 -136q0 -64 -55.5 -152t-154.5 -178t-220.5 -168t-269.5 -127.5t-250.5 -49.5t-166 19.5t-118.5 58.5q-121 84 -121 254zM1252 1858q0 10 6 22q26 69 77 125t112.5 105.5t107.5 82t63.5 49t24.5 37.5q9 21 32.5 21t45.5 -40.5 t22 -77.5q0 -97 -100 -161q-31 -31 -176.5 -112.5t-180 -81.5t-34.5 31z" />
<glyph unicode="&#xca;" horiz-adv-x="1453" d="M219 299q0 92 50 187t130 172q147 147 316 244q-243 55 -243 250q0 219 337 401q188 100 408 144q103 21 173 21q142 0 214 -22q43 -22 70.5 -60t27.5 -66t-7.5 -50.5t-23.5 -35.5q-24 -17 -53.5 -26.5t-33.5 -11.5q-92 -39 -159 -39q-118 0 -128 30q2 31 26 71 q-112 -5 -232.5 -45.5t-208.5 -95.5t-144.5 -114t-56.5 -99q0 -77 268 -77q66 0 98 15q83 40 205.5 40t122.5 -63q0 -25 -21 -72.5t-31 -58.5t-76 -29t-85.5 -20t-26 -3t-15 -2t-39.5 -6.5t-45 0.5q-391 -192 -537 -423q-66 -103 -66 -178q0 -117 162 -117q126 0 320.5 99.5 t345 240.5t150.5 245q0 33 50 33q114 0 114 -136q0 -64 -55.5 -152t-154.5 -178t-220.5 -168t-269.5 -127.5t-250.5 -49.5t-166 19.5t-118.5 58.5q-121 84 -121 254zM1010 1871q0 26 11 49t39 50.5t47.5 45.5t62.5 53q157 126 232 212q13 25 63.5 25t82.5 -33.5t41.5 -72 t16.5 -85t10 -53.5t13.5 -35t16.5 -43t14 -40q17 -52 17 -84.5t-35 -32.5t-60.5 9t-43.5 27.5t-32 37.5t-25.5 50.5t-18.5 52t-17 56.5t-15 53q-76 -76 -207 -172t-187 -96q-26 0 -26 26z" />
<glyph unicode="&#xcb;" horiz-adv-x="1453" d="M219 299q0 92 50 187t130 172q147 147 316 244q-243 55 -243 250q0 219 337 401q188 100 408 144q103 21 173 21q142 0 214 -22q43 -22 70.5 -60t27.5 -66t-7.5 -50.5t-23.5 -35.5q-24 -17 -53.5 -26.5t-33.5 -11.5q-92 -39 -159 -39q-118 0 -128 30q2 31 26 71 q-112 -5 -232.5 -45.5t-208.5 -95.5t-144.5 -114t-56.5 -99q0 -77 268 -77q66 0 98 15q83 40 205.5 40t122.5 -63q0 -25 -21 -72.5t-31 -58.5t-76 -29t-85.5 -20t-26 -3t-15 -2t-39.5 -6.5t-45 0.5q-391 -192 -537 -423q-66 -103 -66 -178q0 -117 162 -117q126 0 320.5 99.5 t345 240.5t150.5 245q0 33 50 33q114 0 114 -136q0 -64 -55.5 -152t-154.5 -178t-220.5 -168t-269.5 -127.5t-250.5 -49.5t-166 19.5t-118.5 58.5q-121 84 -121 254zM1089 1962q0 62 44.5 130t123.5 68q33 0 59 -25t26 -82t-55 -124t-126.5 -67t-71.5 100zM1442 1945 q0 31 13 61.5t36 64t63.5 58t82.5 24.5t68.5 -22t26.5 -81.5t-61 -123.5t-140 -64q-43 0 -66 26t-23 57z" />
<glyph unicode="&#xcc;" horiz-adv-x="677" d="M-26 -12q0 58 5 70q25 84 272.5 472.5t504 758.5t311.5 413q16 13 43 13l95 -4l55 2q31 0 31 -23q0 -7 -2 -11q-564 -829 -1054 -1626q-26 -42 -46 -48q-1 0 -12 -5q-59 -22 -82.5 -22t-26.5 -2q-10 -11 -25 -11t-19.5 0.5t-27 9t-22.5 13.5zM963 2224q0 21 56 52.5 t88.5 31.5t41.5 -3t16 -12t11.5 -18.5t11 -29.5t11.5 -37q27 -102 49 -168q44 -130 44 -170t-33.5 -40t-56.5 9.5t-38 29t-23 33.5t-18 39t-27.5 59t-55.5 90.5t-57.5 84.5t-19.5 49z" />
<glyph unicode="&#xcd;" horiz-adv-x="677" d="M-26 -12q0 58 5 70q25 84 272.5 472.5t504 758.5t311.5 413q16 13 43 13l95 -4l55 2q31 0 31 -23q0 -7 -2 -11q-564 -829 -1054 -1626q-26 -42 -46 -48q-1 0 -12 -5q-59 -22 -82.5 -22t-26.5 -2q-10 -11 -25 -11t-19.5 0.5t-27 9t-22.5 13.5zM1226 1861q0 10 6 22 q26 69 77 125t112.5 105.5t107.5 82t63.5 49t24.5 37.5q9 21 32.5 21t45.5 -40.5t22 -77.5q0 -97 -100 -161q-31 -31 -176.5 -112.5t-180 -81.5t-34.5 31z" />
<glyph unicode="&#xce;" horiz-adv-x="677" d="M-26 -12q0 58 5 70q25 84 272.5 472.5t504 758.5t311.5 413q16 13 43 13l95 -4l55 2q31 0 31 -23q0 -7 -2 -11q-564 -829 -1054 -1626q-26 -42 -46 -48q-1 0 -12 -5q-59 -22 -82.5 -22t-26.5 -2q-10 -11 -25 -11t-19.5 0.5t-27 9t-22.5 13.5zM984 1874q0 26 11 49 t39 50.5t47.5 45.5t62.5 53q157 126 232 212q13 25 63.5 25t82.5 -33.5t41.5 -72t16.5 -85t10 -53.5t13.5 -35t16.5 -43t14 -40q17 -52 17 -84.5t-35 -32.5t-60.5 9t-43.5 27.5t-32 37.5t-25.5 50.5t-18.5 52t-17 56.5t-15 53q-76 -76 -207 -172t-187 -96q-26 0 -26 26z" />
<glyph unicode="&#xcf;" horiz-adv-x="677" d="M-26 -12q0 58 5 70q25 84 272.5 472.5t504 758.5t311.5 413q16 13 43 13l95 -4l55 2q31 0 31 -23q0 -7 -2 -11q-564 -829 -1054 -1626q-26 -42 -46 -48q-1 0 -12 -5q-59 -22 -82.5 -22t-26.5 -2q-10 -11 -25 -11t-19.5 0.5t-27 9t-22.5 13.5zM1004 1965q0 62 44.5 130 t123.5 68q33 0 59 -25t26 -82t-55 -124t-126.5 -67t-71.5 100zM1357 1948q0 31 13 61.5t36 64t63.5 58t82.5 24.5t68.5 -22t26.5 -81.5t-61 -123.5t-140 -64q-43 0 -66 26t-23 57z" />
<glyph unicode="&#xd0;" horiz-adv-x="1896" d="M354 135q0 47 9 84q31 114 307 531q-92 -2 -152 0.5t-103 27t-42 68.5q2 66 158 81t269 18q214 315 354 503q13 18 133 26q50 0 69 -7t19 -25.5t-48 -85t-274 -411.5q15 -1 46 -1q318 -14 312 -145q-1 -18 -22 -39t-88.5 -18t-123.5 11t-195 14l-46 -1 q-350 -539 -350 -553.5t104.5 -14.5t257.5 44.5t287.5 116.5t257 167t210.5 194q191 217 191 385.5t-154 286.5t-422 118q-180 0 -340.5 -60t-221 -107t-60.5 -64q0 -9 14 -9l51 9q11 0 11 -4.5t-20 -16.5t-32.5 -25.5t-62 -43.5t-89.5 -33l-25 4h-5q-29 0 -60.5 23.5 t-31.5 84t65.5 137t177.5 141t279 105.5t352 41q379 0 592 -149t213 -388q0 -148 -66 -297t-177 -274.5t-261 -234.5t-314 -186q-354 -163 -677 -163q-159 0 -200 26q-16 8 -30.5 25t-23.5 23q-22 14 -22 61z" />
<glyph unicode="&#xd1;" horiz-adv-x="1563" d="M-42 -12q0 47 130 282t304 510.5t364 536.5t294 350q21 19 49 19l55 -9l86 19q33 0 53 -14.5t20 -26.5t-5.5 -36t-95.5 -460.5t-131 -651.5q200 273 468 672t313 530q14 41 36.5 63.5t40 26.5t54.5 4t87 -16t50 -52q0 -70 -206.5 -401.5t-471.5 -704.5t-443 -590 q-32 -39 -77.5 -39t-95.5 16t-50 56q0 130 228 1247q-195 -252 -474 -703q-290 -466 -328 -578q-21 -68 -48 -78q-19 -8 -40 -8l-93 -11q-27 0 -50 15.5t-23 31.5zM1222 1932q0 70 57.5 138.5t126 106.5t114 38t85.5 -22t61.5 -47.5t48.5 -47t67.5 -21.5t80.5 19t57 41 q46 59 73.5 59t41.5 -29t14 -58.5t-8 -48.5q-41 -79 -117.5 -126t-148.5 -47t-116 22.5t-68 48.5q-65 70 -100.5 70t-63 -14.5t-48 -36.5t-41.5 -43q-48 -51 -90 -51q-10 0 -18 14.5t-8 34.5z" />
<glyph unicode="&#xd2;" horiz-adv-x="1541" d="M201 390q0 178 117 417.5t321 452.5t456.5 349t479.5 136q45 0 85 -20t40 -46.5t-13 -43.5t-24.5 -36.5t-19.5 -27.5q39 9 101.5 9t120.5 -52t58 -115.5t-31.5 -165.5t-89 -217.5t-139.5 -238.5t-178 -239.5t-211 -220.5t-233 -182q-257 -170 -503 -170q-85 0 -151 44.5 t-103 88.5q-83 100 -83 278zM430 380q0 -77 34 -131.5t116 -54.5t197.5 56.5t225.5 148.5q378 320 590 710q86 161 86 222q0 25 -16 25q-49 0 -137.5 -62t-157 -136.5t-68.5 -107.5l4 -15q0 -24 -16.5 -24t-68.5 57.5t-52 96.5q0 91 122 206.5t272 175.5 q-165 -9 -383.5 -140t-382.5 -316t-264.5 -385.5t-100.5 -325.5zM1319 2256q0 21 56 52.5t88.5 31.5t41.5 -3t16 -12t11.5 -18.5t11 -29.5t11.5 -37q27 -102 49 -168q44 -130 44 -170t-33.5 -40t-56.5 9.5t-38 29t-23 33.5t-18 39t-27.5 59t-55.5 90.5t-57.5 84.5t-19.5 49z " />
<glyph unicode="&#xd3;" horiz-adv-x="1541" d="M201 390q0 178 117 417.5t321 452.5t456.5 349t479.5 136q45 0 85 -20t40 -46.5t-13 -43.5t-24.5 -36.5t-19.5 -27.5q39 9 101.5 9t120.5 -52t58 -115.5t-31.5 -165.5t-89 -217.5t-139.5 -238.5t-178 -239.5t-211 -220.5t-233 -182q-257 -170 -503 -170q-85 0 -151 44.5 t-103 88.5q-83 100 -83 278zM430 380q0 -77 34 -131.5t116 -54.5t197.5 56.5t225.5 148.5q378 320 590 710q86 161 86 222q0 25 -16 25q-49 0 -137.5 -62t-157 -136.5t-68.5 -107.5l4 -15q0 -24 -16.5 -24t-68.5 57.5t-52 96.5q0 91 122 206.5t272 175.5 q-165 -9 -383.5 -140t-382.5 -316t-264.5 -385.5t-100.5 -325.5zM1583 1893q0 10 6 22q26 69 77 125t112.5 105.5t107.5 82t63.5 49t24.5 37.5q9 21 32.5 21t45.5 -40.5t22 -77.5q0 -97 -100 -161q-31 -31 -176.5 -112.5t-180 -81.5t-34.5 31z" />
<glyph unicode="&#xd4;" horiz-adv-x="1541" d="M201 390q0 178 117 417.5t321 452.5t456.5 349t479.5 136q45 0 85 -20t40 -46.5t-13 -43.5t-24.5 -36.5t-19.5 -27.5q39 9 101.5 9t120.5 -52t58 -115.5t-31.5 -165.5t-89 -217.5t-139.5 -238.5t-178 -239.5t-211 -220.5t-233 -182q-257 -170 -503 -170q-85 0 -151 44.5 t-103 88.5q-83 100 -83 278zM430 380q0 -77 34 -131.5t116 -54.5t197.5 56.5t225.5 148.5q378 320 590 710q86 161 86 222q0 25 -16 25q-49 0 -137.5 -62t-157 -136.5t-68.5 -107.5l4 -15q0 -24 -16.5 -24t-68.5 57.5t-52 96.5q0 91 122 206.5t272 175.5 q-165 -9 -383.5 -140t-382.5 -316t-264.5 -385.5t-100.5 -325.5zM1341 1906q0 26 11 49t39 50.5t47.5 45.5t62.5 53q157 126 232 212q13 25 63.5 25t82.5 -33.5t41.5 -72t16.5 -85t10 -53.5t13.5 -35t16.5 -43t14 -40q17 -52 17 -84.5t-35 -32.5t-60.5 9t-43.5 27.5 t-32 37.5t-25.5 50.5t-18.5 52t-17 56.5t-15 53q-76 -76 -207 -172t-187 -96q-26 0 -26 26z" />
<glyph unicode="&#xd5;" horiz-adv-x="1541" d="M201 390q0 178 117 417.5t321 452.5t456.5 349t479.5 136q45 0 85 -20t40 -46.5t-13 -43.5t-24.5 -36.5t-19.5 -27.5q39 9 101.5 9t120.5 -52t58 -115.5t-31.5 -165.5t-89 -217.5t-139.5 -238.5t-178 -239.5t-211 -220.5t-233 -182q-257 -170 -503 -170q-85 0 -151 44.5 t-103 88.5q-83 100 -83 278zM430 380q0 -77 34 -131.5t116 -54.5t197.5 56.5t225.5 148.5q378 320 590 710q86 161 86 222q0 25 -16 25q-49 0 -137.5 -62t-157 -136.5t-68.5 -107.5l4 -15q0 -24 -16.5 -24t-68.5 57.5t-52 96.5q0 91 122 206.5t272 175.5 q-165 -9 -383.5 -140t-382.5 -316t-264.5 -385.5t-100.5 -325.5zM1279 1932q0 70 57.5 138.5t126 106.5t114 38t85.5 -22t61.5 -47.5t48.5 -47t67.5 -21.5t80.5 19t57 41q46 59 73.5 59t41.5 -29t14 -58.5t-8 -48.5q-41 -79 -117.5 -126t-148.5 -47t-116 22.5t-68 48.5 q-65 70 -100.5 70t-63 -14.5t-48 -36.5t-41.5 -43q-48 -51 -90 -51q-10 0 -18 14.5t-8 34.5z" />
<glyph unicode="&#xd6;" horiz-adv-x="1541" d="M201 390q0 178 117 417.5t321 452.5t456.5 349t479.5 136q45 0 85 -20t40 -46.5t-13 -43.5t-24.5 -36.5t-19.5 -27.5q39 9 101.5 9t120.5 -52t58 -115.5t-31.5 -165.5t-89 -217.5t-139.5 -238.5t-178 -239.5t-211 -220.5t-233 -182q-257 -170 -503 -170q-85 0 -151 44.5 t-103 88.5q-83 100 -83 278zM430 380q0 -77 34 -131.5t116 -54.5t197.5 56.5t225.5 148.5q378 320 590 710q86 161 86 222q0 25 -16 25q-49 0 -137.5 -62t-157 -136.5t-68.5 -107.5l4 -15q0 -24 -16.5 -24t-68.5 57.5t-52 96.5q0 91 122 206.5t272 175.5 q-165 -9 -383.5 -140t-382.5 -316t-264.5 -385.5t-100.5 -325.5zM1420 1997q0 62 44.5 130t123.5 68q33 0 59 -25t26 -82t-55 -124t-126.5 -67t-71.5 100zM1773 1980q0 31 13 61.5t36 64t63.5 58t82.5 24.5t68.5 -22t26.5 -81.5t-61 -123.5t-140 -64q-43 0 -66 26t-23 57z " />
<glyph unicode="&#xd7;" horiz-adv-x="1003" d="M274 470q0 13 6 25t12.5 18.5t15 14.5t44.5 47t208 201q-27 30 -97.5 101.5t-89 91.5t-18.5 42q0 51 63 116q14 15 36.5 15t36 -19t81.5 -107.5t101 -132.5q3 3 8 7t7.5 7t7.5 6.5t34 31.5t59.5 57t64.5 58q76 69 101.5 69t46 -8.5t40 -15t27.5 -9.5q27 -13 27 -43.5 t-60.5 -70.5t-270.5 -213q165 -216 187 -247t22 -56.5t-19 -66t-35 -53.5q-11 -8 -29.5 -8t-34 19.5t-88.5 135.5t-117 180q-100 -94 -221 -237l-42 -50q-7 -8 -23.5 -8t-48.5 31t-37 44.5t-5 26.5z" />
<glyph unicode="&#xd8;" horiz-adv-x="1541" d="M155 -133q0 65 8 96q12 44 106 169q-68 100 -68 240q0 196 117 435.5t321 452.5t456.5 349t479.5 136q79 0 112 -41q127 131 160 166t39 40.5t9 9.5q13 10 24 10q29 0 29 -99q0 -2 0.5 -13t0.5 -17q-6 -48 -42 -102.5t-102 -133.5q52 -22 85 -63.5t33 -97t-31.5 -157.5 t-89 -217.5t-139.5 -238.5t-178 -239.5t-211 -220.5t-233 -182q-257 -170 -503 -170q-51 0 -106 22q-149 -196 -175 -263q-13 -33 -39 -33t-44.5 48.5t-18.5 113.5zM430 380q0 -26 2 -38q289 357 710 797q145 151 391 404q-165 -18 -373 -147t-368.5 -309.5t-261 -381 t-100.5 -325.5zM583 194q256 12 627 398q238 251 383 517q86 161 86 213t-7 85q-101 -116 -499 -548t-590 -665z" />
<glyph unicode="&#xd9;" horiz-adv-x="1788" d="M227 179q0 205 238.5 574.5t439.5 604.5q-170 -150 -234 -150t-96 39.5t-32 90t47 94.5t69 44t22 -3.5t-18 -25.5t-18 -30t16 -8q46 0 200.5 93t264.5 182q29 25 67.5 25t73.5 -19q3 6 20.5 -2.5t35 -26t17.5 -33t-9 -28.5q-491 -635 -617 -827q-256 -391 -256 -507 q0 -42 34.5 -42t196.5 132q444 361 1244 1275q30 34 57 34h3h11q4 0 26 4t72 4q118 0 118 -43q0 -19 -35 -66.5t-145 -203t-273 -395t-282 -440.5t-119 -255q0 -1 4.5 -1t37.5 17q101 53 237.5 168.5t172.5 157t43 41.5q32 0 32 -84t-11 -112q-35 -91 -164.5 -204 t-283.5 -191.5t-253 -78.5q-47 0 -79.5 37t-32.5 96q0 105 120.5 321t291.5 450q-284 -330 -403 -445.5t-212 -197.5t-167 -132q-177 -117 -281 -117t-147.5 57.5t-43.5 126.5zM1385 2197q0 21 56 52.5t88.5 31.5t41.5 -3t16 -12t11.5 -18.5t11 -29.5t11.5 -37 q27 -102 49 -168q44 -130 44 -170t-33.5 -40t-56.5 9.5t-38 29t-23 33.5t-18 39t-27.5 59t-55.5 90.5t-57.5 84.5t-19.5 49z" />
<glyph unicode="&#xda;" horiz-adv-x="1788" d="M227 179q0 205 238.5 574.5t439.5 604.5q-170 -150 -234 -150t-96 39.5t-32 90t47 94.5t69 44t22 -3.5t-18 -25.5t-18 -30t16 -8q46 0 200.5 93t264.5 182q29 25 67.5 25t73.5 -19q3 6 20.5 -2.5t35 -26t17.5 -33t-9 -28.5q-491 -635 -617 -827q-256 -391 -256 -507 q0 -42 34.5 -42t196.5 132q444 361 1244 1275q30 34 57 34h3h11q4 0 26 4t72 4q118 0 118 -43q0 -19 -35 -66.5t-145 -203t-273 -395t-282 -440.5t-119 -255q0 -1 4.5 -1t37.5 17q101 53 237.5 168.5t172.5 157t43 41.5q32 0 32 -84t-11 -112q-35 -91 -164.5 -204 t-283.5 -191.5t-253 -78.5q-47 0 -79.5 37t-32.5 96q0 105 120.5 321t291.5 450q-284 -330 -403 -445.5t-212 -197.5t-167 -132q-177 -117 -281 -117t-147.5 57.5t-43.5 126.5zM1649 1834q0 10 6 22q26 69 77 125t112.5 105.5t107.5 82t63.5 49t24.5 37.5q9 21 32.5 21 t45.5 -40.5t22 -77.5q0 -97 -100 -161q-31 -31 -176.5 -112.5t-180 -81.5t-34.5 31z" />
<glyph unicode="&#xdb;" horiz-adv-x="1788" d="M227 179q0 205 238.5 574.5t439.5 604.5q-170 -150 -234 -150t-96 39.5t-32 90t47 94.5t69 44t22 -3.5t-18 -25.5t-18 -30t16 -8q46 0 200.5 93t264.5 182q29 25 67.5 25t73.5 -19q3 6 20.5 -2.5t35 -26t17.5 -33t-9 -28.5q-491 -635 -617 -827q-256 -391 -256 -507 q0 -42 34.5 -42t196.5 132q444 361 1244 1275q30 34 57 34h3h11q4 0 26 4t72 4q118 0 118 -43q0 -19 -35 -66.5t-145 -203t-273 -395t-282 -440.5t-119 -255q0 -1 4.5 -1t37.5 17q101 53 237.5 168.5t172.5 157t43 41.5q32 0 32 -84t-11 -112q-35 -91 -164.5 -204 t-283.5 -191.5t-253 -78.5q-47 0 -79.5 37t-32.5 96q0 105 120.5 321t291.5 450q-284 -330 -403 -445.5t-212 -197.5t-167 -132q-177 -117 -281 -117t-147.5 57.5t-43.5 126.5zM1407 1847q0 26 11 49t39 50.5t47.5 45.5t62.5 53q157 126 232 212q13 25 63.5 25t82.5 -33.5 t41.5 -72t16.5 -85t10 -53.5t13.5 -35t16.5 -43t14 -40q17 -52 17 -84.5t-35 -32.5t-60.5 9t-43.5 27.5t-32 37.5t-25.5 50.5t-18.5 52t-17 56.5t-15 53q-76 -76 -207 -172t-187 -96q-26 0 -26 26z" />
<glyph unicode="&#xdc;" horiz-adv-x="1788" d="M227 179q0 205 238.5 574.5t439.5 604.5q-170 -150 -234 -150t-96 39.5t-32 90t47 94.5t69 44t22 -3.5t-18 -25.5t-18 -30t16 -8q46 0 200.5 93t264.5 182q29 25 67.5 25t73.5 -19q3 6 20.5 -2.5t35 -26t17.5 -33t-9 -28.5q-491 -635 -617 -827q-256 -391 -256 -507 q0 -42 34.5 -42t196.5 132q444 361 1244 1275q30 34 57 34h3h11q4 0 26 4t72 4q118 0 118 -43q0 -19 -35 -66.5t-145 -203t-273 -395t-282 -440.5t-119 -255q0 -1 4.5 -1t37.5 17q101 53 237.5 168.5t172.5 157t43 41.5q32 0 32 -84t-11 -112q-35 -91 -164.5 -204 t-283.5 -191.5t-253 -78.5q-47 0 -79.5 37t-32.5 96q0 105 120.5 321t291.5 450q-284 -330 -403 -445.5t-212 -197.5t-167 -132q-177 -117 -281 -117t-147.5 57.5t-43.5 126.5zM1486 1938q0 62 44.5 130t123.5 68q33 0 59 -25t26 -82t-55 -124t-126.5 -67t-71.5 100z M1839 1921q0 31 13 61.5t36 64t63.5 58t82.5 24.5t68.5 -22t26.5 -81.5t-61 -123.5t-140 -64q-43 0 -66 26t-23 57z" />
<glyph unicode="&#xdd;" horiz-adv-x="1607" d="M202 189q0 88 75.5 253t194.5 352q211 335 389 574q-158 -143 -258 -143q-46 0 -61 13.5t-40 42.5t-25 63.5t12.5 55t22.5 30.5q40 40 52 47t29 7t17 -5t-12.5 -15.5t-12.5 -16.5t13 -6t33 6.5t52.5 23.5t59 31.5t80 46t81 47t81 55t79.5 53.5q31 19 54 19q10 0 18 -3 q27 -11 43 -14.5t28.5 -10t23.5 -15.5q36 -26 36 -60.5t-33.5 -80.5t-150.5 -218t-263.5 -394.5t-258 -417t-111.5 -245.5q0 -17 9 -17t70 46q316 244 806 765q402 429 474 530q22 31 44 41.5t67 10.5l66 -1l45 2q20 0 45.5 -17.5t25.5 -30.5q-6 -26 -279 -474 q-851 -1399 -937 -1578q44 46 96.5 90.5t59 44.5t13.5 -8t7 -15.5t-10.5 -19.5t-74 -94t-94 -116.5t-54.5 -74t-41 -56.5t-42 -17q-72 0 -121 62t-49 105q0 82 351 644t619 943q-620 -732 -987 -961q-127 -80 -207 -80q-39 0 -77.5 22.5t-55.5 56.5t-17 122zM1591 1839 q0 10 6 22q26 69 77 125t112.5 105.5t107.5 82t63.5 49t24.5 37.5q9 21 32.5 21t45.5 -40.5t22 -77.5q0 -97 -100 -161q-31 -31 -176.5 -112.5t-180 -81.5t-34.5 31z" />
<glyph unicode="&#xde;" horiz-adv-x="1827" d="M330 913q0 73 75 154t202.5 150.5t317.5 120.5t399 61q192 271 222 304.5t57.5 40t87.5 6.5h58q15 0 15 -25.5t-6 -32.5q-112 -163 -200 -297q239 -23 378.5 -118.5t139.5 -217.5t-91.5 -256.5t-229 -234.5t-305 -163.5t-300.5 -63.5t-206 106l-261 -413q-25 -27 -53 -27 l-58 -11l-28 3h-20q-70 0 -70 43q0 100 737 1164q-159 -35 -325 -106q-282 -121 -282 -191q0 -37 39 -37t70 13h1q6 0 6 -24t-5 -29q-107 -87 -197 -87q-168 0 -168 168zM1022 570q9 -19 30.5 -23.5t49.5 -4.5h31q108 0 234.5 52.5t222 125.5t160 152.5t64.5 142t-52 112.5 q-95 90 -311 103q-304 -461 -429 -660z" />
<glyph unicode="&#xdf;" horiz-adv-x="998" d="M-362 -602q0 83 117.5 333t277.5 536q313 558 418.5 723t139.5 216t86.5 118.5t100 117.5t109.5 102.5t122 86.5q136 75 260.5 75t186 -67t61.5 -140.5t-36.5 -148t-95.5 -138t-129.5 -124t-141.5 -110t-130 -91.5q-132 -91 -132 -116q0 -18 35 -90q68 -137 68 -283 q0 -112 -42 -191.5t-89 -122.5q-108 -102 -308 -102q-130 0 -198 58t-68 119.5t51 95t107 33.5q18 0 27 -38q17 -74 88.5 -74t120.5 19.5t73 49.5q51 61 51 125.5t-30 139t-59.5 139t-29.5 95.5t5.5 49.5t12 32.5t22 32t25 28t34.5 28.5t35.5 26.5t42 29t65 45.5t101.5 79 t146 123.5q180 160 180 239q0 27 -17.5 46t-56.5 19q-109 0 -223.5 -103.5t-344.5 -416.5q-71 -99 -415 -717t-370 -729q-14 -59 -18 -121.5t-9.5 -86t-36.5 -29t-74.5 -7.5t-79 20.5t-35.5 65.5z" />
<glyph unicode="&#xe0;" horiz-adv-x="984" d="M7 179q0 107 48 215t125.5 197t171.5 162q196 153 361 153q63 0 103.5 -21t50.5 -53q29 42 48.5 53.5t58.5 11.5q89 0 89 -62q0 -33 -15.5 -48t-65.5 -102t-110.5 -222t-78.5 -231q-4 -11 -4 -33q0 -64 35.5 -64t84 33.5t86 71.5t73.5 78.5t43.5 46.5t21.5 6 q22 0 27 -34.5t5 -71t-7 -50.5q-35 -67 -151 -161.5t-211 -94.5t-140 57.5t-45 128t24 123.5q-98 -128 -225 -216.5t-207 -88.5t-131 49q-65 60 -65 167zM194 196q0 -41 23 -41q33 0 184 130t201 192q54 68 215 289q-202 0 -418 -224q-77 -81 -141 -193t-64 -153zM485 1448 q0 21 56 52.5t88.5 31.5t41.5 -3t16 -12t11.5 -18.5t11 -29.5t11.5 -38q27 -101 50 -167q43 -130 43 -170t-33.5 -40t-56.5 9.5t-38 29t-23 33.5t-18 38.5t-27 59t-55.5 91t-58 84.5t-19.5 49z" />
<glyph unicode="&#xe1;" horiz-adv-x="984" d="M7 179q0 107 48 215t125.5 197t171.5 162q196 153 361 153q63 0 103.5 -21t50.5 -53q29 42 48.5 53.5t58.5 11.5q89 0 89 -62q0 -33 -15.5 -48t-65.5 -102t-110.5 -222t-78.5 -231q-4 -11 -4 -33q0 -64 35.5 -64t84 33.5t86 71.5t73.5 78.5t43.5 46.5t21.5 6 q22 0 27 -34.5t5 -71t-7 -50.5q-35 -67 -151 -161.5t-211 -94.5t-140 57.5t-45 128t24 123.5q-98 -128 -225 -216.5t-207 -88.5t-131 49q-65 60 -65 167zM194 196q0 -41 23 -41q33 0 184 130t201 192q54 68 215 289q-202 0 -418 -224q-77 -81 -141 -193t-64 -153zM748 1084 q0 11 6 23q26 68 77.5 124t112.5 105.5t107 82t64 49t25 38.5q8 21 31.5 21t45.5 -40.5t22 -77.5q0 -97 -99 -162q-32 -30 -177 -111.5t-180 -81.5t-35 30z" />
<glyph unicode="&#xe2;" horiz-adv-x="984" d="M7 179q0 107 48 215t125.5 197t171.5 162q196 153 361 153q63 0 103.5 -21t50.5 -53q29 42 48.5 53.5t58.5 11.5q89 0 89 -62q0 -33 -15.5 -48t-65.5 -102t-110.5 -222t-78.5 -231q-4 -11 -4 -33q0 -64 35.5 -64t84 33.5t86 71.5t73.5 78.5t43.5 46.5t21.5 6 q22 0 27 -34.5t5 -71t-7 -50.5q-35 -67 -151 -161.5t-211 -94.5t-140 57.5t-45 128t24 123.5q-98 -128 -225 -216.5t-207 -88.5t-131 49q-65 60 -65 167zM194 196q0 -41 23 -41q33 0 184 130t201 192q54 68 215 289q-202 0 -418 -224q-77 -81 -141 -193t-64 -153zM506 1097 q0 26 11.5 49t39 51t47 45.5t63.5 53.5q157 126 231 212q13 25 63.5 25t82.5 -33.5t41.5 -72t16.5 -85t10 -54t13.5 -35t16.5 -43t14 -39.5q17 -52 17 -84.5t-35 -32.5t-60 8.5t-43.5 27.5t-32 38t-25.5 50.5t-19 52t-17 56.5t-15 52q-75 -75 -206 -171.5t-188 -96.5 q-26 0 -26 26z" />
<glyph unicode="&#xe3;" horiz-adv-x="984" d="M7 179q0 107 48 215t125.5 197t171.5 162q196 153 361 153q63 0 103.5 -21t50.5 -53q29 42 48.5 53.5t58.5 11.5q89 0 89 -62q0 -33 -15.5 -48t-65.5 -102t-110.5 -222t-78.5 -231q-4 -11 -4 -33q0 -64 35.5 -64t84 33.5t86 71.5t73.5 78.5t43.5 46.5t21.5 6 q22 0 27 -34.5t5 -71t-7 -50.5q-35 -67 -151 -161.5t-211 -94.5t-140 57.5t-45 128t24 123.5q-98 -128 -225 -216.5t-207 -88.5t-131 49q-65 60 -65 167zM194 196q0 -41 23 -41q33 0 184 130t201 192q54 68 215 289q-202 0 -418 -224q-77 -81 -141 -193t-64 -153zM445 1123 q0 71 57.5 139.5t126 106.5t114 38t85.5 -22t61.5 -47.5t48.5 -47.5t68 -22t80.5 19t55.5 42q47 59 74.5 59t41.5 -29t14 -58.5t-8 -48.5q-40 -79 -117 -126t-149 -47t-116 22t-68 48q-65 71 -99.5 71t-63 -14.5t-49 -36.5t-40.5 -43q-49 -51 -91 -51q-10 0 -18 14t-8 34z " />
<glyph unicode="&#xe4;" horiz-adv-x="984" d="M7 179q0 107 48 215t125.5 197t171.5 162q196 153 361 153q63 0 103.5 -21t50.5 -53q29 42 48.5 53.5t58.5 11.5q89 0 89 -62q0 -33 -15.5 -48t-65.5 -102t-110.5 -222t-78.5 -231q-4 -11 -4 -33q0 -64 35.5 -64t84 33.5t86 71.5t73.5 78.5t43.5 46.5t21.5 6 q22 0 27 -34.5t5 -71t-7 -50.5q-35 -67 -151 -161.5t-211 -94.5t-140 57.5t-45 128t24 123.5q-98 -128 -225 -216.5t-207 -88.5t-131 49q-65 60 -65 167zM194 196q0 -41 23 -41q33 0 184 130t201 192q54 68 215 289q-202 0 -418 -224q-77 -81 -141 -193t-64 -153zM585 1188 q0 63 45 130.5t124 67.5q33 0 59 -24.5t26 -82t-55.5 -124t-127 -66.5t-71.5 99zM938 1171.5q0 30.5 13 61.5t36 64.5t64 57.5t82.5 24t68 -21.5t26.5 -81t-60.5 -123.5t-139.5 -64q-44 0 -67 26t-23 56.5z" />
<glyph unicode="&#xe5;" horiz-adv-x="984" d="M7 179q0 107 48 215t125.5 197t171.5 162q196 153 361 153q63 0 103.5 -21t50.5 -53q29 42 48.5 53.5t58.5 11.5q89 0 89 -62q0 -33 -15.5 -48t-65.5 -102t-110.5 -222t-78.5 -231q-4 -11 -4 -33q0 -64 35.5 -64t84 33.5t86 71.5t73.5 78.5t43.5 46.5t21.5 6 q22 0 27 -34.5t5 -71t-7 -50.5q-35 -67 -151 -161.5t-211 -94.5t-140 57.5t-45 128t24 123.5q-98 -128 -225 -216.5t-207 -88.5t-131 49q-65 60 -65 167zM194 196q0 -41 23 -41q33 0 184 130t201 192q54 68 215 289q-202 0 -418 -224q-77 -81 -141 -193t-64 -153zM615 1208 q0 222 268 317q0 21 121 21q62 0 100 -39.5t38 -103t-49 -148t-157 -158.5q-65 -43 -149.5 -43t-128 47.5t-43.5 106.5zM748 1252q0 -52 72 -52t124.5 51.5t52.5 101.5q0 16 -11 23.5t-18 12.5t-19.5 10t-19.5 8q-12 5 -38 14q-25 1 -84 -40.5t-59 -128.5z" />
<glyph unicode="&#xe6;" horiz-adv-x="1329" d="M7 189q0 97 48 205t125.5 197t171.5 162q196 153 361 153q63 0 103.5 -21t50.5 -53q29 42 48.5 53.5t59.5 11.5t62.5 -13.5t5.5 -51.5q144 123 286 123q39 0 79 -19t40 -53q0 -78 -63 -137t-144 -59q-26 0 -34 12.5t-8 32.5t5 39q-43 -15 -93.5 -43.5t-147 -104 t-96.5 -104.5q0 -9 28 -9t105 36.5t100 36.5t30 -2q16 -9 33.5 -36.5t17.5 -43.5t-43.5 -52.5t-134.5 -54.5t-168 -81t-77 -110q0 -87 179 -87q100 0 202 63q86 55 155 111t87 69t28 13q31 0 31 -68.5t-8.5 -90.5t-47.5 -54q-252 -205 -478 -205q-183 0 -230 105 q-53 -73 -130.5 -73t-77.5 61q0 8 25 46q-151 -130 -297 -130q-85 0 -137 64.5t-52 161.5zM194 196q0 -41 23 -41t54.5 11.5t84.5 43.5q120 72 276 290q147 215 185 266q-202 0 -418 -224q-77 -81 -141 -193t-64 -153z" />
<glyph unicode="&#xe7;" horiz-adv-x="881" d="M41 -464q0 45 20 79.5t37.5 34.5t20.5 -9t7 -9q234 18 234 71q0 14 -20.5 25t-49.5 20t-59 21q-69 30 -69 88t44.5 119.5t97.5 61.5q23 0 41 -6.5t18 -12.5t-7.5 -13.5t-12.5 -7.5q-49 -52 -49 -74t32 -32.5t70.5 -19t70.5 -36.5t32 -67.5t-13 -75.5 q-42 -115 -139 -167.5t-218 -52.5q-55 0 -71.5 9t-16.5 54zM53 248.5q0 130.5 65 261t167 229t237 159.5t267 61q64 0 115 -36.5t51 -100t-63.5 -152.5t-128.5 -89q-75 0 -75 72q0 18 35.5 66.5t35.5 65.5t-13 17q-65 0 -139.5 -44.5t-135 -94t-115.5 -111.5 q-118 -133 -118 -277q0 -58 37.5 -100t125.5 -42t176.5 21t145.5 45t118 63t78.5 53.5t41 35t38.5 20.5q24 0 24 -54t-52.5 -116t-130.5 -105t-166 -75q-176 -65 -299.5 -65t-222.5 81t-99 211.5z" />
<glyph unicode="&#xe8;" horiz-adv-x="767" d="M19 171q0 163 225 247q-45 20 -58 51t-13 100t64.5 146.5t157.5 127.5q208 112 371 112q39 0 79 -19t40 -53q0 -78 -63 -137t-144 -59q-25 0 -33.5 12.5t-8.5 32.5t5 39q-43 -15 -95 -44.5t-127.5 -87t-75.5 -86.5q0 -9 28 -9t85.5 19.5t80.5 19.5t31 -2 q15 -9 32.5 -36.5t17.5 -43.5t-30.5 -42t-69.5 -39.5t-52 -20.5q-249 -139 -249 -191q0 -92 157 -92q100 0 202 63q86 55 155 111t87.5 69t27.5 13q31 0 31 -68.5t-8.5 -90.5t-47.5 -54q-252 -205 -478 -205q-120 0 -192 33q-132 60 -132 184zM446 1491.5q0 21.5 56 52.5 t88.5 31t41.5 -3t16 -11.5t11.5 -18t11 -29.5t11.5 -38q27 -101 50 -168q43 -129 43 -169.5t-33.5 -40.5t-56.5 9.5t-38 29t-23 34t-18 39t-27 59t-55.5 91t-58 84t-19.5 49z" />
<glyph unicode="&#xe9;" horiz-adv-x="767" d="M19 171q0 163 225 247q-45 20 -58 51t-13 100t64.5 146.5t157.5 127.5q208 112 371 112q39 0 79 -19t40 -53q0 -78 -63 -137t-144 -59q-25 0 -33.5 12.5t-8.5 32.5t5 39q-43 -15 -95 -44.5t-127.5 -87t-75.5 -86.5q0 -9 28 -9t85.5 19.5t80.5 19.5t31 -2 q15 -9 32.5 -36.5t17.5 -43.5t-30.5 -42t-69.5 -39.5t-52 -20.5q-249 -139 -249 -191q0 -92 157 -92q100 0 202 63q86 55 155 111t87.5 69t27.5 13q31 0 31 -68.5t-8.5 -90.5t-47.5 -54q-252 -205 -478 -205q-120 0 -192 33q-132 60 -132 184zM709 1128q0 11 6 22 q26 69 77.5 125t112.5 105.5t107 82t64 49t25 37.5q8 22 31.5 22t45.5 -41t22 -77q0 -97 -99 -162q-32 -31 -177 -112.5t-180 -81.5t-35 31z" />
<glyph unicode="&#xea;" horiz-adv-x="767" d="M19 171q0 163 225 247q-45 20 -58 51t-13 100t64.5 146.5t157.5 127.5q208 112 371 112q39 0 79 -19t40 -53q0 -78 -63 -137t-144 -59q-25 0 -33.5 12.5t-8.5 32.5t5 39q-43 -15 -95 -44.5t-127.5 -87t-75.5 -86.5q0 -9 28 -9t85.5 19.5t80.5 19.5t31 -2 q15 -9 32.5 -36.5t17.5 -43.5t-30.5 -42t-69.5 -39.5t-52 -20.5q-249 -139 -249 -191q0 -92 157 -92q100 0 202 63q86 55 155 111t87.5 69t27.5 13q31 0 31 -68.5t-8.5 -90.5t-47.5 -54q-252 -205 -478 -205q-120 0 -192 33q-132 60 -132 184zM467 1141q0 26 11.5 49 t39 50.5t47 45.5t63.5 53q157 127 231 213q13 24 64 24t82.5 -33.5t41 -71.5t16.5 -85t10 -54t13.5 -34.5t16.5 -43t14 -41.5q17 -51 17 -83.5t-35 -32.5t-60 9t-43.5 28t-32 38t-25.5 50t-19 51.5t-17 56.5t-15 53q-75 -76 -206 -172t-188 -96q-26 0 -26 26z" />
<glyph unicode="&#xeb;" horiz-adv-x="767" d="M19 171q0 163 225 247q-45 20 -58 51t-13 100t64.5 146.5t157.5 127.5q208 112 371 112q39 0 79 -19t40 -53q0 -78 -63 -137t-144 -59q-25 0 -33.5 12.5t-8.5 32.5t5 39q-43 -15 -95 -44.5t-127.5 -87t-75.5 -86.5q0 -9 28 -9t85.5 19.5t80.5 19.5t31 -2 q15 -9 32.5 -36.5t17.5 -43.5t-30.5 -42t-69.5 -39.5t-52 -20.5q-249 -139 -249 -191q0 -92 157 -92q100 0 202 63q86 55 155 111t87.5 69t27.5 13q31 0 31 -68.5t-8.5 -90.5t-47.5 -54q-252 -205 -478 -205q-120 0 -192 33q-132 60 -132 184zM546 1232q0 62 45 130t124 68 q33 0 59 -24.5t26 -82t-55.5 -124t-127 -66.5t-71.5 99zM899 1215.5q0 30.5 13 61t36 64.5t64 58t82.5 24t68 -22t26.5 -81.5t-60.5 -123t-139.5 -63.5q-44 0 -67 26t-23 56.5z" />
<glyph unicode="&#xec;" horiz-adv-x="489" d="M12 141.5q0 64.5 65 188.5t129.5 229t64.5 114t-24 35t-24 38.5t49 65t119 103.5t107.5 51t67 -33t29.5 -60t-281 -511q-4 -7 -20 -31t-24.5 -40t-20.5 -38q-24 -48 -24 -80q0 -40 54.5 -40t113 37.5t100.5 82.5q111 119 127 119q30 0 30 -106q0 -36 -7 -51 q-58 -118 -184 -190.5t-219.5 -72.5t-160.5 62.5t-67 127zM255 1502q0 21 56 52.5t88.5 31.5t41.5 -3t16 -12t11.5 -18.5t11 -29.5t11.5 -37q27 -102 49 -168q44 -130 44 -170t-33.5 -40t-56.5 9.5t-38 29t-23 33.5t-18 39t-27 59t-55.5 90.5t-58 84.5t-19.5 49z" />
<glyph unicode="&#xed;" horiz-adv-x="489" d="M12 141.5q0 64.5 65 188.5t129.5 229t64.5 114t-24 35t-24 38.5t49 65t119 103.5t107.5 51t67 -33t29.5 -60t-281 -511q-4 -7 -20 -31t-24.5 -40t-20.5 -38q-24 -48 -24 -80q0 -40 54.5 -40t113 37.5t100.5 82.5q111 119 127 119q30 0 30 -106q0 -36 -7 -51 q-58 -118 -184 -190.5t-219.5 -72.5t-160.5 62.5t-67 127zM518 1139q0 10 6 22q26 69 77.5 125t112.5 105.5t107 82t64 49t25 37.5q8 21 31.5 21t45.5 -40.5t22 -77.5q0 -97 -99 -161q-32 -31 -177 -112.5t-180 -81.5t-35 31z" />
<glyph unicode="&#xee;" horiz-adv-x="489" d="M12 141.5q0 64.5 65 188.5t129.5 229t64.5 114t-24 35t-24 38.5t49 65t119 103.5t107.5 51t67 -33t29.5 -60t-281 -511q-4 -7 -20 -31t-24.5 -40t-20.5 -38q-24 -48 -24 -80q0 -40 54.5 -40t113 37.5t100.5 82.5q111 119 127 119q30 0 30 -106q0 -36 -7 -51 q-58 -118 -184 -190.5t-219.5 -72.5t-160.5 62.5t-67 127zM276 1152q0 26 11.5 49t39 50.5t47 45.5t63.5 53q157 126 231 212q13 25 63.5 25t82.5 -33.5t41.5 -72t16.5 -85t10 -53.5t13.5 -35t16.5 -43t14 -40q17 -52 17 -84.5t-35 -32.5t-60.5 9t-43.5 27.5t-31.5 37.5 t-25.5 50.5t-19 52t-17 56.5t-15 53q-75 -76 -206 -172t-188 -96q-26 0 -26 26z" />
<glyph unicode="&#xef;" horiz-adv-x="489" d="M12 141.5q0 64.5 65 188.5t129.5 229t64.5 114t-24 35t-24 38.5t49 65t119 103.5t107.5 51t67 -33t29.5 -60t-281 -511q-4 -7 -20 -31t-24.5 -40t-20.5 -38q-24 -48 -24 -80q0 -40 54.5 -40t113 37.5t100.5 82.5q111 119 127 119q30 0 30 -106q0 -36 -7 -51 q-58 -118 -184 -190.5t-219.5 -72.5t-160.5 62.5t-67 127zM355 1243q0 62 45 130t124 68q33 0 59 -25t26 -82t-55.5 -124t-127 -67t-71.5 100zM708 1226q0 31 13 61.5t36 64t63.5 58t82.5 24.5t68.5 -22t26.5 -81.5t-60.5 -123.5t-139.5 -64q-44 0 -67 26t-23 57z" />
<glyph unicode="&#xf0;" horiz-adv-x="919" d="M17 174.5q0 91.5 47 203t127 208t180 174.5q215 171 427 171q59 0 86 -19q29 135 29 354q-17 -8 -33 -12q-223 -81 -256 11q-1 6 -1 16.5t11 25.5t54.5 30.5t82 26t116.5 38.5q-8 26 -24.5 70t-26.5 72t-20.5 66t-10.5 64t6 54q11 51 80 79q22 8 53 -35q66 -92 112 -292 q109 52 156 69q116 43 138 -20q18 -43 -88.5 -101t-181.5 -91q7 -78 7 -116q0 -384 -175 -711q-183 -342 -432 -472q-133 -70 -270 -70q-84 0 -138.5 57.5t-54.5 149zM195 224q-3 -81 48 -81q120 0 272 138t296 422q19 40 27 60q-23 -7 -52 -5q-82 2 -188 -60.5 t-193.5 -150.5t-148 -183t-61.5 -140z" />
<glyph unicode="&#xf1;" horiz-adv-x="944" d="M-78 58q0 14 8.5 34.5t16 34t25 42t70 120t161.5 273t130 219.5q45 78 73 113q53 68 179 68q29 0 29 -36q0 -55 -103 -209l-50 -74q205 227 345 287q68 29 123 29t87.5 -29.5t32.5 -65.5t-25 -86t-50 -89.5t-66.5 -99.5t-45 -65.5t-18 -28.5t-22 -33.5t-24 -37 t-26.5 -44.5t-24.5 -44t-23.5 -44.5t-18 -41.5q-17 -41 -17 -68q0 -52 71 -52q38 0 95 37.5t103 82.5q123 122 139 122q31 0 31 -88.5t-55 -121.5q-169 -153 -261 -186q-52 -17 -114.5 -16t-124 54t-61.5 129t40 173t82 166t103.5 160.5t64.5 113.5l-2 3q-39 -4 -193 -154 t-254 -260.5t-240 -296.5q-39 -50 -63.5 -50t-66.5 16t-51.5 23t-9.5 21zM445 1168q0 71 57.5 139.5t126 106t114 37.5t85.5 -21.5t61.5 -47t48.5 -47.5t68 -22t80.5 19t55.5 42q47 59 74.5 59t41.5 -29t14 -58.5t-8 -48.5q-40 -79 -117 -126.5t-149 -47.5t-116 22.5 t-68 48.5q-65 71 -100.5 71t-63 -15t-48 -36.5t-40.5 -42.5q-49 -51 -91 -51q-10 0 -18 14t-8 34z" />
<glyph unicode="&#xf2;" d="M25 185q0 102 50 226t129 219t171 170q193 155 338 155q65 0 98 -32q11 -11 11 -19v-7q17 2 52.5 2t72.5 -32t37 -97.5t-46 -169.5t-126 -212t-176.5 -203t-208 -156t-202 -61t-145.5 57.5t-55 159.5zM203 209q0 -66 48.5 -66t144 63.5t189 181.5t140.5 205t47 118 t-17 31h-8q-41 0 -41 60q-86 -28 -180.5 -99t-169.5 -167q-151 -194 -153 -327zM480 1489q0 21 56 52.5t88.5 31.5t41.5 -3t16 -12t12 -18.5t11.5 -29.5t10.5 -37q27 -102 50 -168q43 -130 43 -170t-33.5 -40t-56.5 9.5t-37.5 29t-23 33.5t-18.5 39t-27 59t-55.5 90.5 t-58 84.5t-19.5 49z" />
<glyph unicode="&#xf3;" d="M25 185q0 102 50 226t129 219t171 170q193 155 338 155q65 0 98 -32q11 -11 11 -19v-7q17 2 52.5 2t72.5 -32t37 -97.5t-46 -169.5t-126 -212t-176.5 -203t-208 -156t-202 -61t-145.5 57.5t-55 159.5zM203 209q0 -66 48.5 -66t144 63.5t189 181.5t140.5 205t47 118 t-17 31h-8q-41 0 -41 60q-86 -28 -180.5 -99t-169.5 -167q-151 -194 -153 -327zM743 1126q0 10 6 22q26 69 77.5 125t113 105.5t107.5 82t63.5 49t24.5 37.5q8 21 32 21t45.5 -40.5t21.5 -77.5q0 -97 -99 -161q-32 -31 -177 -112.5t-180 -81.5t-35 31z" />
<glyph unicode="&#xf4;" d="M25 185q0 102 50 226t129 219t171 170q193 155 338 155q65 0 98 -32q11 -11 11 -19v-7q17 2 52.5 2t72.5 -32t37 -97.5t-46 -169.5t-126 -212t-176.5 -203t-208 -156t-202 -61t-145.5 57.5t-55 159.5zM203 209q0 -66 48.5 -66t144 63.5t189 181.5t140.5 205t47 118 t-17 31h-8q-41 0 -41 60q-86 -28 -180.5 -99t-169.5 -167q-151 -194 -153 -327zM502 1139q0 26 11 49t38.5 50.5t47 45.5t63.5 53q157 126 231 212q13 25 64 25t82.5 -33.5t41 -72t16.5 -85t10 -53.5t14 -35t16.5 -43t14.5 -41q16 -51 16 -83.5t-34.5 -32.5t-60 9t-44 27.5 t-32 37.5t-25 50.5t-19 52t-17.5 56.5t-14 53q-76 -76 -207 -172t-188 -96q-25 0 -25 26z" />
<glyph unicode="&#xf5;" d="M25 185q0 102 50 226t129 219t171 170q193 155 338 155q65 0 98 -32q11 -11 11 -19v-7q17 2 52.5 2t72.5 -32t37 -97.5t-46 -169.5t-126 -212t-176.5 -203t-208 -156t-202 -61t-145.5 57.5t-55 159.5zM203 209q0 -66 48.5 -66t144 63.5t189 181.5t140.5 205t47 118 t-17 31h-8q-41 0 -41 60q-86 -28 -180.5 -99t-169.5 -167q-151 -194 -153 -327zM440 1165q0 70 58 138.5t126.5 106.5t114 38t85.5 -22t61 -47.5t48.5 -47t68 -21.5t80 19t56.5 40q47 60 74 60t41 -29t14 -58.5t-8 -48.5q-40 -79 -116.5 -126t-143.5 -47t-104 14.5 t-61.5 35.5t-45.5 41q-49 50 -81.5 50t-60.5 -14.5t-48.5 -36.5t-40.5 -43q-48 -51 -91 -51q-9 0 -17.5 14.5t-8.5 34.5z" />
<glyph unicode="&#xf6;" d="M25 185q0 102 50 226t129 219t171 170q193 155 338 155q65 0 98 -32q11 -11 11 -19v-7q17 2 52.5 2t72.5 -32t37 -97.5t-46 -169.5t-126 -212t-176.5 -203t-208 -156t-202 -61t-145.5 57.5t-55 159.5zM203 209q0 -66 48.5 -66t144 63.5t189 181.5t140.5 205t47 118 t-17 31h-8q-41 0 -41 60q-86 -28 -180.5 -99t-169.5 -167q-151 -194 -153 -327zM581 1230q0 62 44.5 130t123.5 68q33 0 59 -25t26 -82t-55.5 -124t-126.5 -67t-71 100zM933 1213q0 31 13 61.5t36 64t64 58t83 24.5t68.5 -22t26.5 -81.5t-61 -123.5t-140 -64q-44 0 -67 26 t-23 57z" />
<glyph unicode="&#xf7;" horiz-adv-x="1003" d="M257 701.5q0 11.5 8.5 26.5t22.5 54t27 52.5t40 13.5q117 0 221.5 -5.5t157 -7.5t170.5 -4q114 -4 165 -5q47 -1 47 -24q0 -11 -14 -36t-23 -41t-13 -23.5t-13.5 -19t-18.5 -16.5q-24 -13 -58 -13l-379 14l-281 -5q-25 0 -42 14t-17 25.5zM452 367.5q0 84.5 49 149 t115 64.5q83 0 83 -108q0 -77 -51.5 -133.5t-117.5 -56.5q-78 0 -78 84.5zM669 1003q0 78 49.5 141.5t115.5 63.5q82 0 82 -106q0 -77 -51.5 -134t-102.5 -57q-93 0 -93 92z" />
<glyph unicode="&#xf8;" d="M-76 -223q0 72 5.5 94.5t34.5 59.5t95 120q-34 48 -34 142t50 218t129 219t171 170q193 155 338 155q69 0 101 -37q143 155 312 330q20 20 28 20q21 0 21 -69q0 -19 -52 -94t-194 -225q55 -33 55 -104.5t-46 -175.5t-126 -212t-176.5 -203t-208 -156t-209.5 -61 q-35 0 -74 14q-138 -203 -150 -234.5t-17 -37t-16 -5.5q-37 0 -37 72zM204 228q229 276 502 573v1q-86 -28 -180.5 -99t-172.5 -171q-134 -172 -149 -304zM262 143q53 7 143.5 70.5t182.5 178.5q90 114 137 201t47 126q-324 -331 -510 -576z" />
<glyph unicode="&#xf9;" horiz-adv-x="955" d="M0 96q0 50 14 104t30 96.5t47.5 105t46.5 90.5t49 85.5t88.5 154t90.5 143.5t70.5 47.5t60.5 -28t26 -46t-79 -159.5q-234 -422 -234 -492q0 -18 13 -18q57 0 282 245.5t260.5 314.5t69 116.5t50.5 57.5q51 33 131 36q13 0 20 -1.5t16.5 -20t9.5 -29.5q-11 -33 -94 -176 t-92 -162q-140 -287 -140 -375q0 -49 38 -49q69 9 165 109q36 37 70.5 75t43 44.5t20.5 6.5q22 0 26.5 -34.5t4.5 -71t-7 -50.5q-34 -66 -149.5 -161t-219.5 -95q-64 0 -118 38t-54 134t51 188q-293 -367 -459 -367q-67 0 -107.5 47t-40.5 97zM444 1474q0 21 56 52.5 t88.5 31.5t41 -3t16 -12t12 -18.5t11 -29.5t11.5 -38q27 -101 49 -167q44 -130 44 -170t-33.5 -40t-56.5 9.5t-38 29t-23 33.5t-18 38.5t-27.5 59t-55.5 91t-57.5 84.5t-19.5 49z" />
<glyph unicode="&#xfa;" horiz-adv-x="955" d="M0 96q0 50 14 104t30 96.5t47.5 105t46.5 90.5t49 85.5t88.5 154t90.5 143.5t70.5 47.5t60.5 -28t26 -46t-79 -159.5q-234 -422 -234 -492q0 -18 13 -18q57 0 282 245.5t260.5 314.5t69 116.5t50.5 57.5q51 33 131 36q13 0 20 -1.5t16.5 -20t9.5 -29.5q-11 -33 -94 -176 t-92 -162q-140 -287 -140 -375q0 -49 38 -49q69 9 165 109q36 37 70.5 75t43 44.5t20.5 6.5q22 0 26.5 -34.5t4.5 -71t-7 -50.5q-34 -66 -149.5 -161t-219.5 -95q-64 0 -118 38t-54 134t51 188q-293 -367 -459 -367q-67 0 -107.5 47t-40.5 97zM707 1110q0 11 6 23 q26 68 77 124t112.5 105.5t107.5 82t64 49t25 38.5q8 21 31.5 21t45.5 -41t22 -77q0 -97 -99 -162q-32 -30 -177.5 -111.5t-180 -81.5t-34.5 30z" />
<glyph unicode="&#xfb;" horiz-adv-x="955" d="M0 96q0 50 14 104t30 96.5t47.5 105t46.5 90.5t49 85.5t88.5 154t90.5 143.5t70.5 47.5t60.5 -28t26 -46t-79 -159.5q-234 -422 -234 -492q0 -18 13 -18q57 0 282 245.5t260.5 314.5t69 116.5t50.5 57.5q51 33 131 36q13 0 20 -1.5t16.5 -20t9.5 -29.5q-11 -33 -94 -176 t-92 -162q-140 -287 -140 -375q0 -49 38 -49q69 9 165 109q36 37 70.5 75t43 44.5t20.5 6.5q22 0 26.5 -34.5t4.5 -71t-7 -50.5q-34 -66 -149.5 -161t-219.5 -95q-64 0 -118 38t-54 134t51 188q-293 -367 -459 -367q-67 0 -107.5 47t-40.5 97zM465 1123q0 26 11 49t39 51 t47.5 45.5t62.5 53.5q157 126 232 212q13 25 63.5 25t82.5 -33.5t41.5 -72t16.5 -85t10 -54t13.5 -35t16.5 -43t14 -39.5q17 -52 17 -84.5t-35 -32.5t-60.5 8.5t-43.5 27.5t-31.5 38t-25.5 50t-19 52t-17 57t-15 52q-76 -75 -206.5 -171.5t-187.5 -96.5q-26 0 -26 26z" />
<glyph unicode="&#xfc;" horiz-adv-x="955" d="M0 96q0 50 14 104t30 96.5t47.5 105t46.5 90.5t49 85.5t88.5 154t90.5 143.5t70.5 47.5t60.5 -28t26 -46t-79 -159.5q-234 -422 -234 -492q0 -18 13 -18q57 0 282 245.5t260.5 314.5t69 116.5t50.5 57.5q51 33 131 36q13 0 20 -1.5t16.5 -20t9.5 -29.5q-11 -33 -94 -176 t-92 -162q-140 -287 -140 -375q0 -49 38 -49q69 9 165 109q36 37 70.5 75t43 44.5t20.5 6.5q22 0 26.5 -34.5t4.5 -71t-7 -50.5q-34 -66 -149.5 -161t-219.5 -95q-64 0 -118 38t-54 134t51 188q-293 -367 -459 -367q-67 0 -107.5 47t-40.5 97zM544 1214q0 63 45 130.5 t124 67.5q33 0 59 -24.5t26 -82t-55.5 -124t-127 -66.5t-71.5 99zM897 1197.5q0 30.5 13 61.5t36 64.5t63.5 57.5t82.5 24t68.5 -21.5t26.5 -81t-60.5 -123.5t-140.5 -64q-43 0 -66 26t-23 56.5z" />
<glyph unicode="&#xfd;" horiz-adv-x="942" d="M-8 92q0 112 60 217q21 37 73.5 124t97.5 169q43 65 87.5 151t68 123t45 37t55 -26.5t33.5 -63t-154.5 -317.5t-154.5 -320q0 -9 9 -9q32 0 141.5 90.5t241.5 231.5q147 157 231 287q11 16 17.5 25t16.5 24t16.5 23t15 19.5t15.5 17t16 11.5q13 12 29 12t48 -7 t38.5 -15.5t14.5 -15.5q11 -13 11 -24t-9.5 -29.5t-109.5 -186.5q-295 -498 -406 -727q180 151 505 447q13 11 26 11q37 0 37 -113q0 -33 -12 -43q-353 -272 -664 -607q-6 -6 -36 -59.5t-64.5 -108.5t-84.5 -104.5t-83.5 -53.5t-43.5 -4q-108 0 -108 110q0 128 133 300 q51 65 127.5 140t83.5 85t177 331q-113 -124 -210 -201t-186 -87h-9q-46 0 -90.5 30.5t-44.5 105.5zM682 1088q0 11 6 22q26 69 77.5 125t112.5 105.5t107 82t64 49t25 37.5q8 21 31.5 21t45.5 -40.5t22 -77.5q0 -96 -99 -161q-32 -31 -177 -112.5t-180 -81.5t-35 31z" />
<glyph unicode="&#xfe;" horiz-adv-x="945" d="M-470.5 -610q-0.5 47 28.5 96q168 282 746.5 1215.5t615.5 958.5q22 14 43 14l22 -1l22 3q17 0 27.5 -31.5t10.5 -41.5t-23 -39l-592 -930q177 177 359 258q71 31 128.5 31t92 -37.5t34.5 -92.5t-30.5 -136.5t-83 -173.5t-127.5 -185.5t-157 -169t-178.5 -122.5 t-170.5 -47q-147 0 -147 135q-138 -211 -318.5 -500t-193.5 -305.5t-22 -16.5t-27.5 10.5t-38.5 35.5t-20.5 72zM212 184q31 -38 91 -38t156 65t177 154t139 187t58 161q0 25 -24 25q-63 0 -269 -196t-328 -358z" />
<glyph unicode="&#xff;" horiz-adv-x="942" d="M-8 92q0 112 60 217q21 37 73.5 124t97.5 169q43 65 87.5 151t68 123t45 37t55 -26.5t33.5 -63t-154.5 -317.5t-154.5 -320q0 -9 9 -9q32 0 141.5 90.5t241.5 231.5q147 157 231 287q11 16 17.5 25t16.5 24t16.5 23t15 19.5t15.5 17t16 11.5q13 12 29 12t48 -7 t38.5 -15.5t14.5 -15.5q11 -13 11 -24t-9.5 -29.5t-109.5 -186.5q-295 -498 -406 -727q180 151 505 447q13 11 26 11q37 0 37 -113q0 -33 -12 -43q-353 -272 -664 -607q-6 -6 -36 -59.5t-64.5 -108.5t-84.5 -104.5t-83.5 -53.5t-43.5 -4q-108 0 -108 110q0 128 133 300 q51 65 127.5 140t83.5 85t177 331q-113 -124 -210 -201t-186 -87h-9q-46 0 -90.5 30.5t-44.5 105.5zM519 1192q0 62 45 130t124 68q33 0 59 -25t26 -82t-55.5 -123.5t-127 -66.5t-71.5 99zM872 1175.5q0 30.5 13 61t36 64.5t63.5 58t82.5 24t68.5 -22t26.5 -81.5t-60.5 -123 t-139.5 -63.5q-44 0 -67 26t-23 56.5z" />
<glyph unicode="&#x152;" horiz-adv-x="2603" d="M201 390q0 178 117 417.5t323.5 455.5t440.5 349t458 133q45 0 85 -20t40 -46.5t-13 -43.5t-25 -36.5t-20 -27.5q39 9 83 9q107 0 170 -85q148 100 342.5 161.5t351.5 61.5q125 0 197 -22q43 -22 70.5 -60t27.5 -66t-7.5 -50.5t-23.5 -35.5q-24 -17 -53.5 -26.5 t-33.5 -11.5q-93 -39 -159 -39q-118 0 -128 30q2 31 26 71q-112 -5 -232.5 -45.5t-208.5 -95.5t-144.5 -114t-56.5 -99q0 -77 268 -77q66 0 98 15q83 40 205.5 40t122.5 -63q0 -25 -21 -72.5t-31 -58.5t-75.5 -29t-96 -21.5t-66 -9.5t-49.5 0q-391 -192 -537 -423 q-66 -103 -66 -178q0 -117 162 -117q126 0 320.5 99.5t345 240.5t150.5 245q0 33 50 33q114 0 114 -136q0 -64 -55.5 -152t-154.5 -178t-220.5 -168t-269.5 -127.5t-250.5 -49.5t-166 19.5t-118.5 58.5q-121 84 -121 254q0 92 50 187t130 172q147 147 316 244 q-86 18 -139 54q-200 -359 -515 -654q-154 -145 -331 -234t-339 -89q-85 0 -151 44.5t-103 88.5q-83 100 -83 278zM430 380q0 -77 34 -131.5t116 -54.5t193.5 56t217.5 149q193 171 340.5 358.5t230 348.5t82.5 225q0 25 -17 25q-48 0 -136.5 -62t-157 -136.5t-68.5 -107.5 l3 -15q0 -24 -16.5 -24t-68 57.5t-51.5 96.5q0 91 122 206.5t272 175.5q-163 -9 -369 -138.5t-370.5 -314t-260.5 -385t-96 -329.5z" />
<glyph unicode="&#x153;" horiz-adv-x="1341" d="M25 185q0 102 50 226t129 219t171 170q193 155 338 155q65 0 98 -32q11 -11 11 -19v-7q17 2 45.5 2t41.5 -19.5t15 -65.5q94 64 211.5 102.5t180.5 38.5t103.5 -19t40.5 -53q0 -78 -63.5 -137t-143.5 -59q-26 0 -34 12.5t-8 32.5t4 39q-42 -15 -94 -44.5t-127.5 -87 t-75.5 -86.5q0 -9 28 -9t85.5 19.5t80.5 19.5t30 -2q16 -9 33.5 -36.5t17.5 -43.5t-30.5 -42t-69.5 -39.5t-52 -20.5q-249 -139 -249 -191q0 -92 157 -92q100 0 201 63q87 55 156 111t87 69t28 13q30 0 30 -68.5t-8 -90.5t-47 -54q-253 -205 -478 -205q-114 0 -188 32 q-132 58 -136 177q-198 -195 -376 -195q-83 0 -138 57.5t-55 159.5zM203 209q0 -66 48.5 -66t144 63.5t189 181.5t140.5 205t47 118t-17 31h-8q-41 0 -41 60q-86 -28 -180.5 -99t-169.5 -167q-151 -194 -153 -327zM784 402q54 32 106 51q-50 13 -66 19q-12 -22 -40 -70z" />
<glyph unicode="&#x178;" horiz-adv-x="1607" d="M202 189q0 88 75.5 253t194.5 352q211 335 389 574q-158 -143 -258 -143q-46 0 -61 13.5t-40 42.5t-25 63.5t12.5 55t22.5 30.5q40 40 52 47t29 7t17 -5t-12.5 -15.5t-12.5 -16.5t13 -6t33 6.5t52.5 23.5t59 31.5t80 46t81 47t81 55t79.5 53.5q31 19 54 19q10 0 18 -3 q27 -11 43 -14.5t28.5 -10t23.5 -15.5q36 -26 36 -60.5t-33.5 -80.5t-150.5 -218t-263.5 -394.5t-258 -417t-111.5 -245.5q0 -17 9 -17t70 46q316 244 806 765q402 429 474 530q22 31 44 41.5t67 10.5l66 -1l45 2q20 0 45.5 -17.5t25.5 -30.5q-6 -26 -279 -474 q-851 -1399 -937 -1578q44 46 96.5 90.5t59 44.5t13.5 -8t7 -15.5t-10.5 -19.5t-74 -94t-94 -116.5t-54.5 -74t-41 -56.5t-42 -17q-72 0 -121 62t-49 105q0 82 351 644t619 943q-620 -732 -987 -961q-127 -80 -207 -80q-39 0 -77.5 22.5t-55.5 56.5t-17 122zM1428 1943 q0 62 44.5 130t123.5 68q33 0 59 -25t26 -82t-55 -124t-126.5 -67t-71.5 100zM1781 1926q0 31 13 61.5t36 64t63.5 58t82.5 24.5t68.5 -22t26.5 -81.5t-61 -123.5t-140 -64q-43 0 -66 26t-23 57z" />
<glyph unicode="&#x2c6;" horiz-adv-x="966" d="M530 1093q0 26 11 49t39 50.5t47.5 45.5t62.5 53q157 126 232 212q13 25 63.5 25t82.5 -33.5t41.5 -72t16.5 -85t10 -53.5t13.5 -35t16.5 -43t14 -40q17 -52 17 -84.5t-35 -32.5t-60.5 9t-43.5 27.5t-32 37.5t-25.5 50.5t-18.5 52t-17 56.5t-15 53q-76 -76 -207 -172 t-187 -96q-26 0 -26 26z" />
<glyph unicode="&#x2da;" horiz-adv-x="772" d="M569 1204q0 221 268 316q0 21 121 21q62 0 100 -39.5t38 -102.5t-49 -148t-157 -158q-65 -44 -149.5 -44t-128 48t-43.5 107zM702 1247q0 -52 72 -52t124.5 51.5t52.5 102.5q0 15 -11 22.5t-18.5 12.5t-19.5 10t-19 8q-12 6 -38 14q-25 1 -84 -40t-59 -129z" />
<glyph unicode="&#x2dc;" horiz-adv-x="966" d="M529 1119q0 70 57.5 138.5t126 106.5t114 38t85.5 -22t61.5 -47.5t48.5 -47t67.5 -21.5t80.5 19t57 41q46 59 73.5 59t41.5 -29t14 -58.5t-8 -48.5q-41 -79 -117.5 -126t-148.5 -47t-116 22.5t-68 48.5q-65 70 -100.5 70t-63 -14.5t-48 -36.5t-41.5 -43q-48 -51 -90 -51 q-10 0 -18 14.5t-8 34.5z" />
<glyph unicode="&#x2000;" horiz-adv-x="1174" />
<glyph unicode="&#x2001;" horiz-adv-x="2348" />
<glyph unicode="&#x2002;" horiz-adv-x="1174" />
<glyph unicode="&#x2003;" horiz-adv-x="2348" />
<glyph unicode="&#x2004;" horiz-adv-x="782" />
<glyph unicode="&#x2005;" horiz-adv-x="587" />
<glyph unicode="&#x2006;" horiz-adv-x="391" />
<glyph unicode="&#x2007;" horiz-adv-x="391" />
<glyph unicode="&#x2008;" horiz-adv-x="293" />
<glyph unicode="&#x2009;" horiz-adv-x="469" />
<glyph unicode="&#x200a;" horiz-adv-x="130" />
<glyph unicode="&#x2010;" horiz-adv-x="767" d="M177 521.5q0 22.5 12.5 40t16.5 36.5t42.5 54.5t65 38.5t93.5 7.5t134.5 10t130 5.5t72.5 -6.5t22.5 -32t23 -37t10.5 -38.5t-21 -46t-48 -23.5t-60 -8.5t-73.5 -8t-77 -9t-83.5 -14q-91 -18 -184 -20h-6q-24 -3 -47 12.5t-23 38z" />
<glyph unicode="&#x2011;" horiz-adv-x="767" d="M177 521.5q0 22.5 12.5 40t16.5 36.5t42.5 54.5t65 38.5t93.5 7.5t134.5 10t130 5.5t72.5 -6.5t22.5 -32t23 -37t10.5 -38.5t-21 -46t-48 -23.5t-60 -8.5t-73.5 -8t-77 -9t-83.5 -14q-91 -18 -184 -20h-6q-24 -3 -47 12.5t-23 38z" />
<glyph unicode="&#x2012;" horiz-adv-x="767" d="M177 521.5q0 22.5 12.5 40t16.5 36.5t42.5 54.5t65 38.5t93.5 7.5t134.5 10t130 5.5t72.5 -6.5t22.5 -32t23 -37t10.5 -38.5t-21 -46t-48 -23.5t-60 -8.5t-73.5 -8t-77 -9t-83.5 -14q-91 -18 -184 -20h-6q-24 -3 -47 12.5t-23 38z" />
<glyph unicode="&#x2013;" horiz-adv-x="1208" d="M199 628q0 17 21 39.5t88.5 22.5t129 -6t161.5 -4.5t259.5 18t240.5 16.5q165 0 165 -89q0 -65 -165 -89q-246 -36 -573 -37.5t-327 129.5z" />
<glyph unicode="&#x2014;" horiz-adv-x="2416" d="M105 588.5q0 40.5 8.5 77.5t22.5 37l738 -16l1671 35q34 0 34 -26l-5 -67q0 -57 -12 -72t-34 -18q-137 -14 -806 -24t-1081 -10t-530 39q-6 4 -6 44.5z" />
<glyph unicode="&#x2018;" horiz-adv-x="359" d="M519 1295q0 55 40 108.5t118.5 111.5t131.5 58q28 0 38.5 -12.5t20.5 -16t10 -21t-9.5 -25.5t-48 -62.5t-45.5 -72.5q19 -19 19 -58.5t-46 -86.5t-108 -47t-91.5 34.5t-29.5 89.5z" />
<glyph unicode="&#x2019;" horiz-adv-x="359" d="M509 1228q0 18 9 25t47.5 62t45.5 73q-19 17 -19 56.5t45.5 87t108 47.5t91.5 -34.5t29 -90t-39.5 -108.5t-118 -111.5t-116 -58.5t-52.5 14.5t-23 17t-8 20.5z" />
<glyph unicode="&#x201a;" horiz-adv-x="304" d="M-196 -176.5q0 18.5 9.5 25.5t48 62t45.5 72q-19 18 -19 57.5t45.5 87t108 47.5t91.5 -34.5t29 -90t-39.5 -108.5t-118 -111.5t-116.5 -58.5t-52.5 14.5t-23 16.5t-8.5 20.5z" />
<glyph unicode="&#x201c;" horiz-adv-x="697" d="M519 1303.5q0 55.5 36.5 107t108 109.5t106.5 58t49.5 -13.5t21.5 -16t7 -21t-8.5 -25.5t-43 -62t-38.5 -72q17 -18 17 -59t-41 -87.5t-100 -46.5t-87 36.5t-28 92zM857 1295.5q0 55.5 39.5 108t118.5 111t131 58.5q27 0 38 -12.5t21 -16t10 -21t-9 -25.5t-47.5 -62.5 t-45.5 -72.5q19 -18 19 -58t-46 -87t-109 -47t-91.5 34.5t-28.5 90z" />
<glyph unicode="&#x201d;" horiz-adv-x="698" d="M509 1228q0 18 9 25t47.5 62t45.5 73q-19 17 -19 56.5t45.5 87t108 47.5t91.5 -34.5t29 -90t-39.5 -108.5t-118 -111.5t-116 -58.5t-52.5 14.5t-23 17t-8 20.5zM876 1223q0 18 8 25.5t43 62t39 71.5q-18 19 -18 59.5t41 86.5t100 46t87.5 -36t28.5 -89.5t-36.5 -107.5 t-108 -111.5t-106.5 -57.5t-49.5 14t-21.5 16.5t-7 20.5z" />
<glyph unicode="&#x201e;" horiz-adv-x="643" d="M-196 -176.5q0 18.5 9.5 25.5t48 62t45.5 72q-19 18 -19 57.5t45.5 87t108 47.5t91.5 -34.5t29 -90t-39.5 -108.5t-118 -111.5t-116.5 -58.5t-52.5 14.5t-23 16.5t-8.5 20.5zM171 -181q0 18 8.5 25t43 62t39.5 73q-19 19 -19 59t41.5 86t100.5 46t87 -36t28 -89.5 t-36.5 -107.5t-108 -111.5t-106 -57.5t-49.5 14t-22 16.5t-7 20.5z" />
<glyph unicode="&#x2022;" horiz-adv-x="724" d="M378 708q0 104 59.5 185t138.5 86q8 46 127 46q44 0 76 -37.5t32 -96t-40.5 -139.5t-112.5 -135t-140 -54t-104 45.5t-36 99.5z" />
<glyph unicode="&#x2026;" horiz-adv-x="1681" d="M177 12q0 72 56.5 128t111.5 56q97 0 97 -80q0 -66 -55 -128t-125 -62q-85 0 -85 86zM738 12q0 72 56.5 128t111.5 56q97 0 97 -80q0 -66 -55.5 -128t-125.5 -62q-84 0 -84 86zM1298 12q0 72 56.5 128t111.5 56q98 0 98 -80q0 -66 -55.5 -128t-125.5 -62q-85 0 -85 86z " />
<glyph unicode="&#x202f;" horiz-adv-x="469" />
<glyph unicode="&#x2039;" horiz-adv-x="604" d="M197 577q0 40 47 70.5t89.5 57.5t59 37.5t49.5 33.5q97 68 139.5 106t47.5 43q13 11 26 11q41 0 41 -124q0 -46 -7 -68t-46 -45.5t-135 -70t-135 -72.5q25 -139 62 -187q32 -40 32 -98.5t-30 -118.5t-69 -60t-50 14t-17.5 66.5t-12.5 88t-10 63.5t-12.5 54.5t-12.5 39.5 q-4 15 -48 135q-8 10 -8 24z" />
<glyph unicode="&#x203a;" horiz-adv-x="604" d="M52 212q0 83 66 122q33 20 70 35q132 56 199 99q-20 59 -46 117q-54 119 -55 144q0 64 30 134t69 70q33 0 41 -15q12 -22 16 -51q21 -210 90 -383q14 -20 14 -44q0 -54 -60 -90q-128 -61 -183.5 -95t-146.5 -107q-43 -58 -64 -58q-40 0 -40 122z" />
<glyph unicode="&#x205f;" horiz-adv-x="587" />
<glyph unicode="&#x20ac;" horiz-adv-x="1171" d="M78 461.5q0 16.5 4.5 30t11.5 31.5l10 23q8 20 61 35t78 16.5t52.5 3.5t44.5 3q8 21 40 84q-21 -1 -63 -1h-16q-32 0 -61 12.5t-29 29t6 29.5t14.5 27.5t10.5 20.5q8 22 62 40t88.5 20t103.5 5q185 255 434.5 429t447.5 174q55 0 109.5 -42t54.5 -112t-44.5 -145.5 t-108.5 -132.5t-136 -94t-124.5 -37t-87 31.5t-34.5 63t22 61.5t47 32q-14 -16 -14 -20t25 -4q63 0 144.5 72.5t81.5 129.5q0 16 -19 16q-74 0 -211 -89q-192 -127 -350 -331q174 -2 225 -2t67 -7q43 -18 6 -89q-11 -26 -38 -43t-47 -17.5t-69 -3.5t-125 -7t-141 -8 q-26 -42 -49 -85q160 4 282 4q10 0 17 -16.5t-5 -59t-28.5 -59.5t-74.5 -21l-97 -8q-96 -10 -172 -16q-36 -102 -36 -185q0 -107 83 -107q61 0 153 62t170 140.5t135.5 146t60.5 82.5t37 15q17 0 17 -35t-29 -150q-14 -64 -105.5 -158t-162.5 -150t-160 -93.5t-172.5 -37.5 t-151.5 82t-68 185t21 190q-64 -2 -92 -2h-16q-32 0 -61 12.5t-29 29z" />
<glyph unicode="&#x2122;" horiz-adv-x="1812" d="M568 889q0 33 34 87t56 73t40.5 19t28.5 -10q68 92 167.5 245t128.5 198q-125 -26 -211 -26q-195 0 -195 100q0 46 36 78.5t80.5 32.5t44.5 -32q0 -14 -12 -28l98 1q63 0 85 2t51 3.5t48 5.5q62 9 92 16q123 92 219 92q38 0 68.5 -21.5t30.5 -63t-66 -71.5t-155 -45 q-153 -212 -241.5 -356.5t-118.5 -190.5t-70 -99q-80 -103 -149 -103q-30 0 -60 30t-30 63zM953 774q0 31 140.5 238t318 429t261.5 275q29 16 44 16t25 -4q19 8 43 8t53 -16t29 -36.5t-45 -85.5q-169 -247 -243 -411q87 81 211 210q293 305 345 341q13 10 28 10t45 -8.5 t66 -8.5q16 -3 28.5 -16t12.5 -27.5t-7 -25t-118 -161.5q-282 -384 -360 -518q91 67 149 150q22 33 44 14q11 -12 20 -70l5 -33q0 -56 -152 -170q-93 -69 -141 -69t-77.5 31t-29.5 58.5t9.5 51.5t30.5 60.5t39 68t51 81.5t51.5 77.5t54.5 81t45 67.5q-67 -71 -183 -200 q-280 -310 -302.5 -329.5t-51 -19.5t-57.5 24t-29 43.5t16.5 54.5t48.5 94q31 60 60 114q30 56 70 131.5t61 114.5q-111 -139 -248.5 -342.5t-203.5 -338.5q-15 -33 -38.5 -33t-48.5 7q-70 18 -70 72z" />
<glyph unicode="&#xe000;" horiz-adv-x="1075" d="M0 1075h1075v-1075h-1075v1075z" />
<glyph unicode="&#xfb01;" horiz-adv-x="1359" d="M-315 -605q0 59 24 137.5t52.5 144t96.5 187.5q74 132 265 452q-33 -6 -51 -6t-33 8.5t-21 21.5q-11 23 -11 40l-9 33q0 9 9.5 15.5t24 27t21 26t19 17t20.5 18.5q24 20 33.5 23t32.5 10q73 23 124 33q301 503 483.5 786.5t207.5 313.5t90 54t95 23t30 -27 q0 -10 -7.5 -28t-129.5 -209q-449 -704 -575 -913l29 -11q274 51 285 51t56.5 -16t59.5 -18q27 -5 27 -44.5t-24 -44.5q-20 -3 -96.5 -22.5t-122.5 -30.5q63 -74 63 -158t-74.5 -221.5t-190 -272t-242.5 -253.5t-243.5 -193t-173 -74t-100.5 30.5t-44 89.5zM-118 -494.5 q0 -24.5 13 -24.5q24 0 97.5 53.5t166 144t180.5 193t148.5 215t60.5 184t-70 125.5l-131 -29q-20 -33 -62 -104.5t-68.5 -116.5t-68 -115.5t-69 -119t-61 -109t-55.5 -104t-42 -85.5q-39 -83 -39 -107.5zM881 141.5q0 64.5 65 188.5t130 229t65 114t-24 35t-24 38.5t49 65 t119 103.5t107 51t66.5 -33t29.5 -60t-280 -511q-4 -7 -20 -31t-25 -40t-20 -38q-24 -48 -24 -80q0 -40 54.5 -40t112.5 37.5t100 82.5q112 119 127 119q31 0 31 -106q0 -36 -7 -51q-58 -118 -184.5 -190.5t-219.5 -72.5t-160.5 62.5t-67.5 127zM1450 1163.5 q0 70.5 59.5 135t131.5 64.5q32 0 51 -17.5t19 -49.5q0 -68 -62.5 -135.5t-130.5 -67.5t-68 70.5z" />
<glyph unicode="&#xfb02;" horiz-adv-x="1492" d="M-315 -605q0 59 24 137.5t52.5 144t96.5 187.5q74 132 265 452q-33 -6 -51 -6t-33 8.5t-21 21.5q-11 23 -11 40l-9 33q0 9 9.5 15.5t24 27t21 26t19 17t20.5 18.5q24 20 33.5 23t32.5 10q73 23 124 33q301 503 483.5 786.5t207.5 313.5t90 54t95 23t30 -27 q0 -10 -7.5 -28t-129.5 -209q-449 -704 -575 -913l29 -11q274 51 285 51t56.5 -16t59.5 -18q27 -5 27 -44.5t-24 -44.5q-20 -3 -96.5 -22.5t-122.5 -30.5q63 -74 63 -158t-74.5 -221.5t-190 -272t-242.5 -253.5t-243.5 -193t-173 -74t-100.5 30.5t-44 89.5zM-118 -494.5 q0 -24.5 13 -24.5q24 0 97.5 53.5t166 144t180.5 193t148.5 215t60.5 184t-70 125.5l-131 -29q-20 -33 -62 -104.5t-68.5 -116.5t-68 -115.5t-69 -119t-61 -109t-55.5 -104t-42 -85.5q-39 -83 -39 -107.5zM988 208q0 230 123 541t278 529q348 493 532 493q57 0 100 -33.5 t43 -99.5t-73 -207t-176 -288t-233 -312q-205 -262 -394 -471q-1 -14 -10 -52.5t-9 -77.5t36 -70t89.5 -31t114 37.5t105.5 83.5q118 122 146.5 122t28.5 -86v-24q0 -46 -18 -67q-98 -122 -222 -181.5t-235 -59.5t-168.5 68t-57.5 186zM1237 628q139 165 385 515t246 432 q0 18 -12 18q-41 0 -217 -236t-254.5 -376.5t-147.5 -352.5z" />
<glyph unicode="&#xfb03;" horiz-adv-x="2229" d="M1751 141.5q0 64.5 65 188.5t129.5 229t64.5 114t-24 35t-24 38.5t49 65t119 103.5t107.5 51t67 -33t29.5 -60t-281 -511q-4 -7 -20 -31t-24.5 -40t-20.5 -38q-24 -48 -24 -80q0 -40 54.5 -40t113 37.5t100.5 82.5q111 119 127 119q30 0 30 -106q0 -36 -7 -51 q-58 -118 -184 -190.5t-219.5 -72.5t-160.5 62.5t-67 127zM2320 1163.5q0 70.5 59.5 135t131.5 64.5q32 0 50.5 -17.5t18.5 -49.5q0 -68 -62.5 -135.5t-130 -67.5t-67.5 70.5zM555 -605q0 59 24 137.5t52.5 144t96.5 187.5q74 132 265 452q-33 -6 -51 -6t-33 8.5t-21 21.5 q-11 23 -11 40l-9 33q0 9 9.5 15.5t24 27t21 26t19 17t20.5 18.5q24 20 33.5 23t32.5 10q73 23 124 33q301 503 483.5 786.5t207.5 313.5t90 54q62 23 93 23h2q30 -1 30 -27q0 -10 -7.5 -28t-129.5 -209q-449 -704 -575 -913l29 -11q274 51 285 51t56.5 -16t59.5 -18 q27 -5 27 -44.5t-24 -44.5q-20 -3 -96.5 -22.5t-122.5 -30.5q63 -74 63 -158t-74.5 -221.5t-190 -272t-242.5 -253.5t-243.5 -193t-173 -74t-100.5 30.5t-44 89.5zM752 -494.5q0 -24.5 13 -24.5q24 0 97.5 53.5t166 144t180.5 193t148.5 215t60.5 184t-70 125.5l-131 -29 q-20 -33 -62 -104.5t-68.5 -116.5t-68 -115.5t-69 -119t-61 -109t-55.5 -104t-42 -85.5q-39 -83 -39 -107.5zM-315 -605q0 59 24 137.5t52.5 144t96.5 187.5q74 132 265 452q-33 -6 -51 -6t-33 8.5t-21 21.5q-11 23 -11 40l-9 33q0 9 9.5 15.5t24 27t21 26t19 17t20.5 18.5 q24 20 33.5 23t32.5 10q73 23 124 33q301 503 483.5 786.5t207.5 313.5t90 54q62 23 93 23h2q30 -1 30 -27q0 -10 -7.5 -28t-129.5 -209q-449 -704 -575 -913l29 -11q274 51 285 51t56.5 -16t59.5 -18q27 -5 27 -44.5t-24 -44.5q-20 -3 -96.5 -22.5t-122.5 -30.5 q63 -74 63 -158t-74.5 -221.5t-190 -272t-242.5 -253.5t-243.5 -193t-173 -74t-100.5 30.5t-44 89.5zM-118 -494.5q0 -24.5 13 -24.5q24 0 97.5 53.5t166 144t180.5 193t148.5 215t60.5 184t-70 125.5l-131 -29q-20 -33 -62 -104.5t-68.5 -116.5t-68 -115.5t-69 -119 t-61 -109t-55.5 -104t-42 -85.5q-39 -83 -39 -107.5z" />
<glyph unicode="&#xfb04;" horiz-adv-x="2362" d="M1857 208q0 230 123.5 541t277.5 529q348 493 532 493q57 0 100 -33.5t43 -99.5t-73 -207t-175.5 -288t-232.5 -312q-206 -262 -394 -471q-2 -14 -10.5 -52.5t-8.5 -77.5t36 -70t89 -31t113.5 37.5t105.5 83.5q118 122 146.5 122t28.5 -86v-24q0 -46 -17 -67 q-99 -122 -223 -181.5t-234.5 -59.5t-168.5 68t-58 186zM2106 628q139 165 385 515t246 432q0 18 -12 18q-41 0 -216.5 -236t-254 -376.5t-148.5 -352.5zM555 -605q0 59 24 137.5t52.5 144t96.5 187.5q74 132 265 452q-33 -6 -51 -6t-33 8.5t-21 21.5q-11 23 -11 40l-9 33 q0 9 9.5 15.5t24 27t21 26t19 17t20.5 18.5q24 20 33.5 23t32.5 10q73 23 124 33q301 503 483.5 786.5t207.5 313.5t90 54q62 23 93 23h2q30 -1 30 -27q0 -10 -7.5 -28t-129.5 -209q-449 -704 -575 -913l29 -11q274 51 285 51t56.5 -16t59.5 -18q27 -5 27 -44.5t-24 -44.5 q-20 -3 -96.5 -22.5t-122.5 -30.5q63 -74 63 -158t-74.5 -221.5t-190 -272t-242.5 -253.5t-243.5 -193t-173 -74t-100.5 30.5t-44 89.5zM752 -494.5q0 -24.5 13 -24.5q24 0 97.5 53.5t166 144t180.5 193t148.5 215t60.5 184t-70 125.5l-131 -29q-20 -33 -62 -104.5 t-68.5 -116.5t-68 -115.5t-69 -119t-61 -109t-55.5 -104t-42 -85.5q-39 -83 -39 -107.5zM-315 -605q0 59 24 137.5t52.5 144t96.5 187.5q74 132 265 452q-33 -6 -51 -6t-33 8.5t-21 21.5q-11 23 -11 40l-9 33q0 9 9.5 15.5t24 27t21 26t19 17t20.5 18.5q24 20 33.5 23 t32.5 10q73 23 124 33q301 503 483.5 786.5t207.5 313.5t90 54q62 23 93 23h2q30 -1 30 -27q0 -10 -7.5 -28t-129.5 -209q-449 -704 -575 -913l29 -11q274 51 285 51t56.5 -16t59.5 -18q27 -5 27 -44.5t-24 -44.5q-20 -3 -96.5 -22.5t-122.5 -30.5q63 -74 63 -158 t-74.5 -221.5t-190 -272t-242.5 -253.5t-243.5 -193t-173 -74t-100.5 30.5t-44 89.5zM-118 -494.5q0 -24.5 13 -24.5q24 0 97.5 53.5t166 144t180.5 193t148.5 215t60.5 184t-70 125.5l-131 -29q-20 -33 -62 -104.5t-68.5 -116.5t-68 -115.5t-69 -119t-61 -109t-55.5 -104 t-42 -85.5q-39 -83 -39 -107.5z" />
<glyph horiz-adv-x="501" />
</font>
</defs>
</svg>
