<?xml version="1.0" encoding="utf-8"?>
<!-- Generator: Adobe Illustrator 15.0.0, SVG Export Plug-In . SVG Version: 6.00 Build 0)  -->
<!DOCTYPE svg PUBLIC "-//W3C//DTD SVG 1.1//EN" "http://www.w3.org/Graphics/SVG/1.1/DTD/svg11.dtd">
<svg version="1.1" id="Next" xmlns="http://www.w3.org/2000/svg" xmlns:xlink="http://www.w3.org/1999/xlink" x="0px" y="0px"
	 width="120" height="80" xml:space="preserve">
	 
	 
	 <style type="text/css" >
      <![CDATA[

        .gray {
           fill:   #828E93;
        }

        .white {
           fill:   #FFFFFF;
        }

      ]]>
    </style>
    
    

	<g id="Next_1_" class="gray">
		<path d="M90.716,15c0,0.49-0.492,0.841-0.492,0.841l-12.601,8.681c-1.05,0.629-1.819,0.141-1.819-1.121V6.6
			c0-1.26,0.771-1.75,1.819-1.12l12.601,8.682C90.224,14.161,90.716,14.511,90.716,15z M106.607,15c0,0.49-0.49,0.841-0.49,0.841
			l-13.091,8.681c-0.979,0.629-1.82,0.141-1.82-1.121V6.6c0-1.26,0.841-1.75,1.82-1.12l13.091,8.682
			C106.116,14.161,106.607,14.511,106.607,15z"/>
	</g>
	<g id="Prev" class="gray">
		<path d="M16.382,14.161l12.601-8.682c1.05-0.63,1.82-0.14,1.82,1.12v16.802c0,1.26-0.771,1.75-1.82,1.12
			l-12.601-8.68c0,0-0.491-0.352-0.491-0.841C15.891,14.511,16.382,14.161,16.382,14.161z M0.49,14.161l13.091-8.682
			c0.98-0.63,1.82-0.14,1.82,1.12v16.802c0,1.26-0.84,1.75-1.82,1.12L0.49,15.84C0.49,15.84,0,15.489,0,15
			C0,14.511,0.49,14.161,0.49,14.161z"/>
	</g>
	<g id="Play" class="white">
		<path d="M65.802,15.001c0,0.799-0.799,1.299-0.799,1.299L43.601,29.501c-1.6,1.102-2.799,0.301-2.799-1.6V2.099
			c0-1.898,1.199-2.7,2.799-1.601L65.003,13.7C65.003,13.701,65.802,14.3,65.802,15.001z"/>
	</g>
	<g id="Pause" class="white">
		<path d="M50.337,67.837c0,1.195-1.016,2.166-2.269,2.166l0,0c-1.253,0-2.269-0.971-2.269-2.166V42.169
			c0-1.197,1.016-2.168,2.269-2.168l0,0c1.253,0,2.269,0.971,2.269,2.168V67.837z"/>
		<path fill="#FFFFFF" d="M60.804,67.837c0,1.195-1.017,2.166-2.269,2.166l0,0c-1.254,0-2.269-0.971-2.269-2.166V42.169
			c0-1.197,1.015-2.168,2.269-2.168l0,0c1.252,0,2.269,0.971,2.269,2.168V67.837z"/>
	</g>



</svg>