<?xml version="1.0" encoding="utf-8"?>
<!-- Generator: Adobe Illustrator 15.0.0, SVG Export Plug-In . SVG Version: 6.00 Build 0)  -->
<!DOCTYPE svg PUBLIC "-//W3C//DTD SVG 1.1//EN" "http://www.w3.org/Graphics/SVG/1.1/DTD/svg11.dtd">
<svg version="1.1" id="Layer_1" xmlns="http://www.w3.org/2000/svg" xmlns:xlink="http://www.w3.org/1999/xlink" x="0px" y="0px"
	 width="12px" height="25px" viewBox="0 0 12 25" enable-background="new 0 0 12 25" xml:space="preserve">
<g>
	<path fill="#3D3D3D" d="M6,1c2.757,0,5,2.243,5,5c0,2.757-2.243,5-5,5S1,8.757,1,6C1,3.243,3.243,1,6,1 M6,0C2.687,0,0,2.686,0,6
		s2.687,6,6,6s6-2.687,6-6S9.313,0,6,0L6,0z"/>
</g>
<g>
	<path fill="#3D3D3D" d="M6,14c2.757,0,5,2.243,5,5s-2.243,5-5,5s-5-2.243-5-5S3.243,14,6,14 M6,13c-3.313,0-6,2.686-6,6
		c0,3.313,2.687,6,6,6s6-2.687,6-6C12,15.686,9.313,13,6,13L6,13z"/>
</g>
<circle fill="#3D3D3D" cx="6" cy="19" r="3"/>
</svg>
