<?xml version="1.0" standalone="no"?>
<!DOCTYPE svg PUBLIC "-//W3C//DTD SVG 1.1//EN" "http://www.w3.org/Graphics/SVG/1.1/DTD/svg11.dtd" >
<svg xmlns="http://www.w3.org/2000/svg">
<metadata>
This is a custom SVG webfont generated by Font Squirrel.
Copyright   : Copyright c 2011 by LatinoType Limitada lucianolatinotypecom with Reserved Font Names Medula
Designer    : Luciano Vergara
Foundry     : Luciano Vergara
Foundry URL : wwwlatinotypecom
</metadata>
<defs>
<font id="MedulaOneRegular" horiz-adv-x="610" >
<font-face units-per-em="2048" ascent="1638" descent="-410" />
<missing-glyph horiz-adv-x="253" />
<glyph unicode=" "  horiz-adv-x="253" />
<glyph unicode="&#x09;" horiz-adv-x="253" />
<glyph unicode="&#xa0;" horiz-adv-x="253" />
<glyph unicode="!" horiz-adv-x="311" d="M63 1384q74 10 144 11q35 0 35 -35l-23 -828l8 -200q-29 -10 -100 -10q-33 0 -33 36l-22 826zM70 88.5q0 108.5 90 108.5t90 -108.5t-90 -108.5t-90 108.5z" />
<glyph unicode="&#x22;" horiz-adv-x="501" d="M0 1126q29 74 29 248q0 111 91 111t91 -117q0 -82 -48 -166t-104 -84q-34 0 -59 8zM250 1126q27 74 26 248q0 111 92.5 111t92.5 -117q0 -82 -48 -166t-104 -84q-34 0 -59 8z" />
<glyph unicode="#" horiz-adv-x="970" d="M43 576.5q0 41.5 27 41.5h157l58 216h-29q-53 0 -106 -13q-14 55 -14.5 97.5t26.5 42.5h157l76 280l27 131q76 33 119 33t34 -31l-112 -413h170l76 280l26 131q76 33 109 33q53 0 45 -31l-113 -413h31l111 10q10 -55 10 -96t-27 -41h-160l-57 -216h31l112 11 q10 -55 10.5 -97.5t-28.5 -42.5h-160l-92 -346l-22 -131q-80 -33 -109 -32q-55 0 -47 30l129 479h-172l-90 -346l-25 -131q-80 -33 -110 -32q-53 0 -45 30l129 479h-31q-70 0 -107 -10q-14 56 -14 97.5zM371 618h170l57 216h-170z" />
<glyph unicode="$" horiz-adv-x="634" d="M47 174v264q0 39 55 54q29 8 60 8t59 -6q-6 -51 -6 -109v-180q0 -39 29.5 -62.5t75 -23.5t74 23.5t28.5 62.5v239q0 84 -57 121l-226 146q-88 55 -88 182v287q0 90 52.5 146t144.5 73v100q0 63 -21 131q63 33 114.5 33t51.5 -31v-233q90 -16 141.5 -66.5t51.5 -122.5 v-264q0 -39 -56 -53q-31 -8 -60.5 -8t-57.5 6q6 51 6 108v181q0 41 -28 63.5t-73 22.5t-71.5 -22.5t-26.5 -63.5v-250q0 -74 49 -103l226 -145q96 -59 96 -184v-293q0 -90 -52.5 -145.5t-144.5 -71.5v-103q0 -49 21 -131q-63 -33 -114.5 -33t-51.5 31v234q-92 12 -146.5 63 t-54.5 125z" />
<glyph unicode="%" horiz-adv-x="997" d="M35 14q0 6 6 19l684 1188q37 66 57 129q84 35 156 34q27 0 27 -16q0 -6 -4 -16l-685 -1188q-31 -57 -55 -129q-90 -35 -138 -35t-48 14zM55 907v324q0 84 51.5 129t138.5 45t135 -42t48 -126v-324q0 -82 -52 -128t-138 -46t-134.5 42t-48.5 126zM178 907q0 -31 17.5 -48 t45 -17t46 19.5t18.5 45.5v330q0 29 -18.5 47.5t-46 18.5t-45 -17.5t-17.5 -48.5v-330zM571 147v324q0 82 51.5 128t138.5 46t135 -42t48 -126v-323q0 -82 -52 -128t-138 -46t-134.5 41.5t-48.5 125.5zM694 147q0 -31 17.5 -48t45 -17t45 18.5t17.5 46.5v330 q0 27 -17.5 46.5t-45 19.5t-45 -17.5t-17.5 -48.5v-330z" />
<glyph unicode="&#x26;" horiz-adv-x="800" d="M72 205v272q0 96 63 148q-63 51 -63 145v410q0 106 72.5 165.5t193.5 59.5t190.5 -54.5t69.5 -140.5v-157q0 -39 -55 -54q-29 -8 -58.5 -8t-60.5 6q6 51 6 109v74q0 86 -94 86q-45 0 -69.5 -22.5t-24.5 -63.5v-400q0 -39 23.5 -62.5t64.5 -23.5h112l23 117q4 31 35.5 44 t56.5 13t41 -2v-172h37l110 11q10 -55 10.5 -96.5t-26.5 -41.5h-131v-362q0 -51 38 -71.5t68.5 -20.5t51.5 4q10 -55 10 -107q0 -31 -39 -30q-172 0 -229 49q-68 -49 -174.5 -49t-179 59.5t-72.5 165.5zM242 205q0 -41 26.5 -63.5t69.5 -22.5t71.5 20.5t28.5 57.5v356h-100 q-43 0 -69.5 -22.5t-26.5 -61.5v-264z" />
<glyph unicode="'" horiz-adv-x="251" d="M0 1126q29 74 29 248q0 111 91 111t91 -117q0 -82 -48 -166t-104 -84q-34 0 -59 8z" />
<glyph unicode="(" horiz-adv-x="344" d="M43 -106v1366q0 106 73.5 165.5t192.5 59.5q14 -47 15 -101q0 -33 -33 -32.5t-60.5 -24t-27.5 -59.5v-1374q0 -37 31.5 -62t74.5 -25q14 -45 14.5 -88t-26.5 -43q-106 0 -180 58t-74 160z" />
<glyph unicode=")" horiz-adv-x="344" d="M20 -288q0 36 17 95q41 0 73.5 25t32.5 62v1374q0 35 -27.5 59.5t-61.5 24.5t-34 36.5t17 96.5q119 0 192.5 -59.5t73.5 -165.5v-1366q0 -102 -73.5 -160t-180.5 -58q-29 0 -29 36z" />
<glyph unicode="*" horiz-adv-x="761" d="M39 898q0 11 14 20l213 114l-116 64l-105 41q4 59 29 108q20 31 41 17l211 -132l-7 138l-16 108q49 29 95 29t46 -27l-4 -245q158 100 199 141q49 -31 76 -78q10 -14 10 -26.5t-14 -18.5l-217 -119q166 -86 223 -98q-4 -68 -24.5 -104.5t-47.5 -22.5l-207 127l6 -129 l17 -111q-55 -31 -98.5 -30.5t-43.5 28.5l7 246l-113 -74l-90 -67q-51 35 -67.5 62.5t-16.5 38.5z" />
<glyph unicode="+" horiz-adv-x="595" d="M43 670q0 41 27 41h159v90l-10 110q63 10 105.5 10.5t42.5 -26.5v-184h65l111 12q10 -51 10 -93t-27 -42h-159v-90q0 -70 10 -107q-63 -14 -105.5 -14t-42.5 29v182h-65q-70 0 -107 -10q-14 51 -14 92z" />
<glyph unicode="," horiz-adv-x="276" d="M-18 -51q74 0 73 151q0 121 91.5 121t91.5 -127q0 -94 -42 -164.5t-98 -70.5q-120 0 -116 90z" />
<glyph unicode="-" horiz-adv-x="526" d="M43 670q0 41 27 41h295l110 12q10 -55 10 -97t-26 -42h-295q-70 0 -107 -11q-14 56 -14 97z" />
<glyph unicode="." horiz-adv-x="276" d="M51 100.5q0 120.5 91 120.5t91 -120.5t-91 -120.5t-91 120.5z" />
<glyph unicode="/" horiz-adv-x="933" d="M0 -305q0 6 2 14l709 1612q27 61 39 129q78 35 151 35q33 0 33 -17q0 -8 -715 -1628q-29 -68 -37 -129q-80 -35 -131 -34.5t-51 18.5z" />
<glyph unicode="0" d="M63 197v983q0 106 67 165.5t179.5 59.5t175 -55.5t62.5 -161.5v-983q0 -106 -66.5 -165.5t-179.5 -59.5t-175.5 55.5t-62.5 161.5zM223 197q0 -37 23.5 -61.5t58.5 -24.5t58.5 24.5t23.5 61.5v991q0 37 -23.5 61.5t-58.5 24.5t-58.5 -24.5t-23.5 -61.5v-991z" />
<glyph unicode="1" horiz-adv-x="536" d="M16 1290q0 25 29 31q279 70 291 70q66 0 65 -45v-1219h2l111 12q10 -55 10 -97t-28 -42h-340l-111 -10q-10 55 -10 96t26 41h181v1108q-137 -23 -183 -55q-29 35 -41 100q-2 6 -2 10z" />
<glyph unicode="2" horiz-adv-x="595" d="M43 127q0 82 36 193.5t87 207t102 193.5q123 231 123 461q0 88 -88 88q-43 0 -66.5 -22.5t-23.5 -63.5v-101l6 -108q-27 -6 -55.5 -6t-57.5 8q-53 16 -53 53v176q0 90 65.5 144.5t180.5 54.5q254 0 254 -186q0 -274 -115 -508q-49 -94 -98 -183q-115 -215 -115 -401h221 l111 12q12 -55 12 -97t-28 -42h-428q-27 0 -48.5 22.5t-21.5 104.5z" />
<glyph unicode="3" horiz-adv-x="649" d="M84 178v133q0 39 53 54q27 8 54.5 8t56.5 -6q-4 -51 -4 -109v-61q0 -39 22.5 -62.5t58 -23.5t59.5 23.5t24 62.5v313q0 39 -24 61.5t-65 22.5h-106q-29 0 -29 31q0 61 17 114q33 -10 104 -10h27q37 0 58.5 23.5t21.5 60.5v369q0 88 -84 88t-84 -86v-101l6 -108 q-29 -6 -57.5 -6t-55.5 8q-53 16 -53 53v176q0 92 60.5 145.5t170.5 53.5q252 0 252 -186v-410q0 -96 -57 -147q57 -51 57 -146v-311q0 -106 -66.5 -165.5t-176 -59.5t-175 56t-65.5 142z" />
<glyph unicode="4" horiz-adv-x="641" d="M4 1290q-2 53 31 84t93 31t87 -34t27 -111v-617h164v567q0 104 -17 174q66 8 139 9q37 0 37 -31v-1186q0 -45 15.5 -63.5t60.5 -18.5q2 -55 -28.5 -84.5t-90 -29.5t-88 35.5t-28.5 119.5v381h-324v692q0 45 -16.5 63.5t-61.5 18.5z" />
<glyph unicode="5" horiz-adv-x="571" d="M47 178v133q0 39 51 54q29 8 56.5 8t56.5 -6q-4 -51 -4 -109v-61q0 -39 23.5 -62.5t58.5 -23.5t58.5 23.5t23.5 62.5v397q0 41 -23.5 63.5t-64.5 22.5h-86l-127 -6v571q-10 55 -10.5 97t28.5 42h307l113 11q10 -55 10 -96.5t-29 -41.5h-260v-440h62q115 0 177 -55 t62 -162v-395q0 -106 -66.5 -165.5t-176 -59.5t-175 56t-65.5 142z" />
<glyph unicode="6" d="M63 197v997q0 211 240 211q111 0 177.5 -47t66.5 -133v-174q0 -37 -51 -50q-25 -8 -53.5 -8t-57.5 6q6 47 6 101v69q0 100 -84 100.5t-84 -89.5v-367q66 55 137 55q186 0 187 -217v-446q0 -106 -65.5 -165.5t-178.5 -59.5t-176.5 55.5t-63.5 161.5zM223 197 q0 -37 23.5 -61.5t59.5 -24.5t58.5 23.5t22.5 62.5v452q0 74 -63.5 74t-100.5 -68v-458z" />
<glyph unicode="7" horiz-adv-x="546" d="M8 1350q0 35 35 34h485q10 -61 10.5 -145t-33.5 -227.5t-95 -270.5q-178 -358 -179 -563q0 -47 14.5 -62.5t59.5 -15.5q0 -121 -143 -120q-53 0 -83 38.5t-30 106.5q0 135 50.5 290.5t108.5 275.5t108.5 275.5t50.5 290.5h-207q-82 0 -131 -14q-21 39 -21 107z" />
<glyph unicode="8" d="M63 197v299q0 104 64 155q-61 57 -61 156v373q0 106 65.5 165.5t178 59.5t174 -55.5t61.5 -161.5v-373q0 -94 -66 -156q68 -53 68 -155v-299q0 -106 -66.5 -165.5t-179.5 -59.5t-175.5 55.5t-62.5 161.5zM223 197q0 -37 23.5 -61.5t58.5 -24.5t58.5 24.5t23.5 61.5v311 q0 35 -23.5 59.5t-58.5 24.5t-58.5 -24.5t-23.5 -59.5v-311zM225 805q0 -37 23.5 -60.5t57.5 -23.5t56.5 23.5t22.5 60.5v383q0 37 -23.5 61.5t-57.5 24.5t-56.5 -24.5t-22.5 -61.5v-383z" />
<glyph unicode="9" d="M63 160v174q0 37 52 49q27 8 55.5 8t54.5 -6q-6 -47 -6 -100v-70q0 -100 84 -100t84 90v366q-59 -55 -139 -55q-184 0 -185 217v447q0 106 67 165.5t179.5 59.5t175 -55.5t62.5 -161.5v-998q0 -211 -238 -210q-111 0 -178.5 47t-67.5 133zM223 735q0 -74 62 -73 q68 0 102 67v459q0 37 -23.5 61.5t-59.5 24.5t-58.5 -23.5t-22.5 -62.5v-453z" />
<glyph unicode=":" horiz-adv-x="309" d="M63 281.5q0 121.5 92.5 121.5t92.5 -121.5t-92.5 -121.5t-92.5 121.5zM63 761q0 122 92.5 122t92.5 -122t-92.5 -122t-92.5 122z" />
<glyph unicode=";" horiz-adv-x="344" d="M29 129q74 0 73 152q0 123 91.5 122.5t91.5 -129.5q0 -94 -42 -163.5t-98 -69.5q-122 0 -116 88zM102 761q0 122 91.5 122t91.5 -122t-91.5 -122t-91.5 122z" />
<glyph unicode="&#x3c;" horiz-adv-x="833" d="M43 600l539 518q37 37 77 107q70 -20 111 -64q31 -33 10 -53l-536 -510l442 -414q49 -43 107 -78q-23 -68 -52.5 -97t-42 -29t-22.5 8z" />
<glyph unicode="=" horiz-adv-x="501" d="M41 555q0 41 27 41h272l111 10q12 -55 12 -96t-29 -41h-272q-70 0 -107 -10q-14 55 -14 96zM41 789.5q0 41.5 27 41.5h272l111 11q12 -55 12 -97.5t-29 -42.5h-272q-70 0 -107 -10q-14 56 -14 97.5z" />
<glyph unicode="&#x3e;" horiz-adv-x="833" d="M51 1090q20 70 50 99.5t43.5 29.5t23.5 -9l633 -614l-539 -518q-37 -35 -80 -107q-68 23 -110 66q-29 31 -9 53l537 508l-442 414q-50 45 -107 78z" />
<glyph unicode="?" horiz-adv-x="575" d="M51 748v135q0 84 61.5 133t180.5 49t179 -58.5t60 -152.5v-317q0 -121 -83 -172l-76 -48q-55 -35 -56 -112l9 -201q-63 -10 -133 -10q-35 0 -35 37v225q0 123 92 174l76 43q47 25 47 100v267q0 88 -86 88q-80 0 -80 -99v-32l6 -101q-29 -6 -57.5 -6t-53.5 8 q-51 13 -51 50zM152 -195.5q0 121.5 91 121.5t91 -121.5t-91 -121.5t-91 121.5z" />
<glyph unicode="@" horiz-adv-x="1122" d="M43 -129q0 8 82 1325q6 90 70.5 139t166.5 49h502q102 0 156.5 -47t54.5 -127q0 -8 -61 -1020q-8 -182 -209 -182q-121 0 -166 86q-61 -70 -146 -69.5t-125 46.5t-40 122q0 10 39 628q6 94 66.5 145.5t158.5 51.5h209q-53 -827 -53 -834q0 -59 60 -59t64 72l66 999 q2 35 -19.5 53.5t-60.5 18.5h-506q-84 0 -88 -72l-82 -1300q-2 -35 19.5 -52.5t60.5 -17.5h516l103 10l4 -98q-4 -29 -29 -29h-606q-104 0 -155.5 43t-51.5 119zM467 217q-2 -63 53 -63q27 0 53.5 21.5t34.5 43.5l45 680h-69q-33 0 -54.5 -19.5t-25.5 -50.5z" />
<glyph unicode="A" horiz-adv-x="686" d="M72 25v1155q0 106 72.5 165.5t198.5 59.5t194.5 -55.5t68.5 -161.5v-1008q0 -43 18.5 -61.5t63.5 -18.5q0 -121 -137 -120q-113 0 -113 145v407h-196v-331l8 -201q-74 -10 -144 -10q-34 0 -34 35zM242 674h196v506q0 41 -27.5 63.5t-71.5 22.5t-70.5 -22.5t-26.5 -63.5 v-506z" />
<glyph unicode="B" horiz-adv-x="663" d="M4 1266q-2 55 30 86.5t102.5 31.5t99.5 -69q84 70 172 69q211 0 210 -208v-373q0 -98 -63 -150q74 -49 74 -161v-267q0 -106 -74 -165.5t-199 -59.5h-272v1178q0 47 -17.5 67.5t-62.5 20.5zM252 141h108q45 0 73 21.5t28 62.5v267q0 41 -27.5 63.5t-73.5 22.5h-108v-437z M252 717h104q41 0 67 23.5t26 62.5v360q0 80 -82 80q-57 0 -115 -57v-469z" />
<glyph unicode="C" horiz-adv-x="665" d="M72 197v983q0 106 72.5 165.5t195.5 59.5t194.5 -54.5t71.5 -140.5v-264q0 -39 -55 -53q-29 -8 -58.5 -8t-60.5 6q6 51 6 108v181q0 41 -27.5 63.5t-71.5 22.5t-70.5 -22.5t-26.5 -63.5v-975q0 -39 26.5 -62.5t70.5 -23.5t71.5 22.5t27.5 63.5v47l-6 108q31 6 60.5 6.5 t58.5 -8.5q55 -16 55 -53v-117q0 -90 -74.5 -149t-196.5 -59t-192.5 55.5t-70.5 161.5z" />
<glyph unicode="D" horiz-adv-x="661" d="M2 1266q-2 55 29.5 86.5t103.5 31.5t98 -69q84 70 173 69q211 0 210 -208v-951q0 -106 -73.5 -165.5t-200.5 -59.5h-260v1178q0 47 -17.5 67.5t-62.5 20.5zM250 141h98q43 0 70.5 21.5t27.5 62.5v938q0 80 -81 80q-57 0 -115 -57v-1045z" />
<glyph unicode="E" horiz-adv-x="657" d="M72 205v297q0 96 63 147q-63 51 -63 148v383q0 106 72.5 165.5t193.5 59.5t190.5 -54.5t69.5 -140.5v-180q0 -37 -55 -53q-29 -8 -58.5 -8t-60.5 6q6 51 6 108v97q0 86 -94 86q-45 0 -69.5 -22.5t-24.5 -63.5v-375q0 -39 23.5 -61.5t64.5 -22.5h32q76 0 115 10 q16 -59 17 -117q0 -35 -29 -34h-127q-43 0 -69.5 -24t-26.5 -62v-289q0 -41 26.5 -63.5t70.5 -22.5t71.5 22.5t27.5 63.5v53l-6 109q31 6 60.5 6t58.5 -8q55 -14 55 -54v-137q0 -86 -71.5 -140t-194.5 -54t-195.5 59.5t-72.5 165.5z" />
<glyph unicode="F" horiz-adv-x="544" d="M2 1266q-2 55 29.5 86.5t91.5 31.5h270l107 11q18 -59 18 -117q0 -35 -31 -35h-237v-502h106q76 0 115 11q16 -59 16 -117q0 -35 -28 -35h-209v-420q0 -43 17.5 -61.5t62.5 -18.5q0 -121 -135 -120q-113 0 -113 145v1053q0 47 -17.5 67.5t-62.5 20.5z" />
<glyph unicode="G" horiz-adv-x="686" d="M72 182v998q0 106 72.5 165.5t195.5 59.5t194.5 -54.5t71.5 -140.5v-243q0 -39 -55 -54q-29 -8 -58.5 -8t-60.5 6q6 51 6 109v160q0 41 -27.5 63.5t-71.5 22.5t-70.5 -22.5t-26.5 -63.5v-983q0 -78 76.5 -78t119.5 76v319q-57 0 -114 -12q-16 61 -17 119q0 33 29 32h270 v-473q0 -43 17.5 -62.5t62.5 -19.5q2 -55 -28.5 -86.5t-88.5 -31.5q-90 0 -114 65q-61 -66 -166 -65q-217 -1 -217 202z" />
<glyph unicode="H" horiz-adv-x="696" d="M0 1282q0 121 137 121q113 0 113 -146v-557h196v484l-8 200q74 10 144 11q35 0 34 -35v-1180q0 -43 17.5 -61.5t62.5 -18.5q0 -121 -135 -120q-115 0 -115 145v436h-196v-360l8 -201q-74 -10 -143 -10q-33 0 -33 35v1177q0 43 -18.5 61.5t-63.5 18.5z" />
<glyph unicode="I" horiz-adv-x="311" d="M63 1384q74 10 144 11q35 0 35 -35v-1159l8 -201q-74 -10 -144 -10q-35 0 -34 35v1159z" />
<glyph unicode="J" horiz-adv-x="645" d="M39 174v264q0 39 55 54q29 8 58.5 8t60.5 -6q-6 -51 -6 -109v-180q0 -41 27.5 -63.5t72.5 -22.5t72 22.5t27 63.5v1038h-213q-78 0 -117 -10q-16 59 -17 117q0 35 31 34h483v-1179q0 -106 -72.5 -165.5t-195.5 -59.5t-194.5 54t-71.5 140z" />
<glyph unicode="K" horiz-adv-x="696" d="M0 1284q0 121 137 121q113 0 113 -145v-535h94q43 0 72.5 22.5t29.5 61.5v401q0 80 -14 174q72 8 148 9q37 0 36 -31v-553q0 -96 -69 -152q70 -53 69 -149v-328q0 -43 17.5 -61.5t62.5 -18.5q0 -121 -135 -120q-115 0 -115 145v373q0 39 -28.5 62.5t-73.5 23.5h-94v-410 q0 -104 14 -174q-72 -8 -147 -8q-35 0 -35 31v1181q0 43 -18.5 61.5t-63.5 18.5z" />
<glyph unicode="L" horiz-adv-x="497" d="M41 1384q72 10 141 11q35 0 35 -35v-1219h150q76 0 114 11q16 -59 17 -117q0 -35 -29 -35h-420v1184z" />
<glyph unicode="M" horiz-adv-x="1056" d="M4 1266q-2 55 30 86.5t102.5 31.5t99.5 -69q84 70 172 69q129 0 178 -81q88 82 182 81q211 0 211 -208v-996q0 -43 18.5 -61.5t63.5 -18.5q0 -121 -137 -120q-113 0 -113 145v1038q0 80 -82 80q-68 0 -111 -53v-989l9 -201q-74 -10 -144 -10q-35 0 -34 35v1138 q0 80 -82 80q-57 0 -115 -57v-985l8 -201q-72 -10 -143 -10q-33 0 -33 35v1153q0 47 -17.5 67.5t-62.5 20.5z" />
<glyph unicode="N" horiz-adv-x="696" d="M4 1266q-2 55 30 86.5t102.5 31.5t99.5 -69q84 70 172 69q211 0 210 -208v-996q0 -43 17.5 -61.5t62.5 -18.5q0 -121 -135 -120q-115 0 -114 145v1038q0 80 -82 80q-57 0 -115 -57v-985l8 -201q-72 -10 -143 -10q-33 0 -33 35v1153q0 47 -17.5 67.5t-62.5 20.5z" />
<glyph unicode="O" horiz-adv-x="677" d="M72 197v983q0 106 72.5 165.5t198.5 59.5t194.5 -55.5t68.5 -161.5v-983q0 -106 -72.5 -165.5t-198.5 -59.5t-194.5 55.5t-68.5 161.5zM242 205q0 -39 26.5 -62.5t70.5 -23.5t71.5 22.5t27.5 63.5v975q0 41 -27.5 63.5t-71.5 22.5t-70.5 -22.5t-26.5 -63.5v-975z" />
<glyph unicode="P" horiz-adv-x="671" d="M2 1266q-2 55 29.5 86.5t103.5 31.5t98 -69q84 70 173 69q211 0 210 -208v-525q0 -106 -73.5 -165.5t-200.5 -59.5h-92v-225l8 -201q-74 -10 -143 -10q-33 0 -33 35v1153q0 47 -17.5 67.5t-62.5 20.5zM250 567h98q43 0 70.5 21.5t27.5 62.5v512q0 80 -81 80 q-57 0 -115 -57v-619z" />
<glyph unicode="Q" horiz-adv-x="677" d="M72 197v983q0 106 72.5 165.5t198.5 59.5t194.5 -55.5t68.5 -161.5v-983q0 -176 -182 -215l16 -101q10 -68 68 -67q16 0 39 8q8 -27 8 -61.5t-35 -69.5t-90 -35q-125 0 -143 109l-35 213q-180 33 -180 211zM242 205q0 -39 26.5 -62.5t70.5 -23.5t71.5 22.5t27.5 63.5v975 q0 41 -27.5 63.5t-71.5 22.5t-70.5 -22.5t-26.5 -63.5v-975z" />
<glyph unicode="R" horiz-adv-x="681" d="M4 1266q-2 55 30 86.5t102.5 31.5t99.5 -69q84 70 172 69q211 0 210 -208v-494q0 -135 -114 -193l45 -284q12 -68 67 -68q16 0 39 8q8 -27 8.5 -61.5t-34.5 -69t-90 -34.5q-125 0 -144 108l-61 369h-82v-256l8 -201q-72 -10 -143 -10q-33 0 -33 35v1153q0 47 -17.5 67.5 t-62.5 20.5zM252 596h98q43 0 71 22.5t28 63.5v481q0 80 -82 80q-57 0 -115 -57v-590z" />
<glyph unicode="S" horiz-adv-x="634" d="M47 174v264q0 39 55 54q29 8 60 8t59 -6q-6 -51 -6 -109v-180q0 -39 29.5 -62.5t75 -23.5t74 23.5t28.5 62.5v239q0 84 -57 121l-226 146q-88 55 -88 182v287q0 106 73 165.5t194.5 59.5t194.5 -54.5t73 -140.5v-264q0 -39 -56 -53q-31 -8 -60.5 -8t-57.5 6q6 51 6 108 v181q0 41 -28 63.5t-73 22.5t-71.5 -22.5t-26.5 -63.5v-250q0 -74 49 -103l226 -145q96 -59 96 -184v-293q0 -106 -75 -165.5t-196.5 -59.5t-196.5 54t-75 140z" />
<glyph unicode="T" horiz-adv-x="559" d="M0 1350q0 35 31 34h397q76 0 115 11q18 -59 18 -117q0 -35 -31 -35h-165v-1042l8 -201q-72 -10 -144 -10q-33 0 -32 35v1218h-66q-76 0 -115 -10q-16 60 -16 117z" />
<glyph unicode="U" horiz-adv-x="696" d="M0 1284q0 121 137 121q113 0 113 -145v-1063q0 -78 78 -78t118 76v1015q0 80 -14 174q72 8 148 9q37 0 36 -31v-1182q0 -43 16.5 -62.5t61.5 -19.5q2 -55 -28.5 -86.5t-87.5 -31.5q-90 0 -115 65q-59 -66 -164 -65q-217 0 -217 202v1022q0 43 -18.5 61.5t-63.5 18.5z" />
<glyph unicode="V" horiz-adv-x="692" d="M0 1284q0 121 141 121q113 0 113 -145q0 -285 26.5 -613t73.5 -520q47 211 84 541.5t37 488.5t-14 227q78 8 147 9q41 0 41 -43q0 -270 -44 -652.5t-105 -595.5q-29 -102 -88 -102h-127q-66 0 -88 102q-115 494 -115 1102q0 43 -18.5 61.5t-63.5 18.5z" />
<glyph unicode="W" horiz-adv-x="1044" d="M0 1284q0 121 137 121q113 0 113 -145v-1055q0 -41 26.5 -63.5t68.5 -22.5t69.5 20.5t27.5 57.5v1013q0 80 -14 174q72 8 147 9q35 0 35 -31v-1157q0 -41 27 -63.5t71 -22.5t70.5 22.5t26.5 63.5v1005q0 80 -14 174q72 8 147 9q35 0 35 -31v-1157q0 -106 -72 -165.5 t-196.5 -59.5t-184.5 59q-59 -59 -182 -59t-189.5 55t-66.5 162v1007q0 43 -18.5 61.5t-63.5 18.5z" />
<glyph unicode="X" horiz-adv-x="696" d="M0 1284q0 121 137 121q113 0 113 -145v-453q0 -39 27.5 -61.5t68.5 -22.5t70.5 22.5t29.5 61.5v403q0 80 -14 174q72 8 148 9q37 0 36 -31v-555q0 -96 -69 -152q70 -53 69 -151v-324q0 -43 17.5 -61.5t62.5 -18.5q0 -121 -135 -120q-115 0 -115 145v371q0 39 -28.5 62.5 t-70.5 23.5t-69.5 -25t-27.5 -61v-322q0 -104 14 -174q-72 -8 -147 -8q-35 0 -35 31v473q0 98 63 151q-63 49 -63 152v405q0 43 -18.5 61.5t-63.5 18.5z" />
<glyph unicode="Y" horiz-adv-x="692" d="M0 1284q0 121 137 121q113 0 113 -145v-562q0 -76 78 -75.5t118 73.5v514q0 80 -14 174q72 8 148 9q37 0 36 -31v-1157q0 -106 -72.5 -165.5t-195.5 -59.5t-194.5 54t-71.5 140v145q0 39 55 54q29 8 58.5 8t60.5 -6q-6 -51 -6 -109v-61q0 -41 27.5 -63.5t71.5 -22.5 t70.5 22.5t26.5 63.5v332q-55 -55 -147 -56q-217 0 -217 205v518q0 43 -18.5 61.5t-63.5 18.5z" />
<glyph unicode="Z" horiz-adv-x="550" d="M8 126q0 67 19.5 171t75 226t112.5 239q143 295 143 481h-188q-80 0 -131 -12q-20 43 -21 110q0 43 35 43h477q8 -55 8.5 -139t-38.5 -233.5t-111 -282.5q-193 -373 -199 -588h201q82 0 137 13q12 -43 13 -111q0 -43 -33 -43h-490q-10 59 -10 126z" />
<glyph unicode="[" horiz-adv-x="380" d="M39 -324v1809h231q55 0 115 10q18 -51 18 -109q0 -35 -30 -34h-174v-1545h71q78 0 115 13q18 -51 18 -109q0 -35 -30 -35h-334z" />
<glyph unicode="\" horiz-adv-x="962" d="M0 1450q51 35 106.5 35t71.5 -33l711 -1612q18 -43 74 -129q-47 -35 -105.5 -35t-71.5 33l-710 1612q-23 53 -76 129z" />
<glyph unicode="]" horiz-adv-x="380" d="M-20 -295q0 59 16 115q37 -12 115 -13h71v1545h-174q-29 0 -28 30q0 53 16 113q37 -10 115 -10h231v-1809h-334q-28 0 -28 29z" />
<glyph unicode="^" horiz-adv-x="550" d="M43 1149q0 4 117 219l33 72q20 16 77.5 16t87.5 -14q10 -33 33 -74q119 -215 119 -223t-12 -15l-78 -36q-10 27 -37 63l-109 160l-106 -160l-37 -63q-88 30 -88 55z" />
<glyph unicode="_" horiz-adv-x="577" d="M51 58q0 42 27 42h330l110 11q10 -47 10 -88t-28 -41h-328q-70 0 -106 -13q-15 47 -15 89z" />
<glyph unicode="`" d="M248 1389q0 14 54 36.5t95 34.5q10 -47 57.5 -162.5t47.5 -122t-10 -12.5l-76 -39q-20 37 -162 246q-6 11 -6 19z" />
<glyph unicode="a" horiz-adv-x="616" d="M35 229q0 176 145 265l195 114v232q0 88 -84 88t-84 -99v-71l6 -101q-29 -6 -57.5 -6t-53.5 8q-51 14 -51 50v176q0 84 66.5 132t179.5 48q238 0 238 -211v-678q0 -45 16 -63.5t59 -18.5q0 -6 1 -12q0 -46 -28 -73q-32 -30 -89 -29q-88 0 -109 65q-66 -66 -155 -65.5 t-142 67.5t-53 182zM203 232.5q0 -109.5 66.5 -109.5t105.5 78v258l-103 -70q-69 -47 -69 -156.5z" />
<glyph unicode="b" d="M45 1450q63 35 135 35q43 0 43 -33v-442q66 55 137 55q186 0 187 -217v-623q0 -106 -65.5 -165.5t-178.5 -59.5h-240v1321q0 63 -18 129zM223 137h84q35 0 57.5 21.5t22.5 58.5v629q0 72 -63.5 72t-100.5 -66v-715z" />
<glyph unicode="c" horiz-adv-x="573" d="M63 217v639q0 209 248 209q109 0 170.5 -49t61.5 -131v-176q0 -35 -51 -50q-25 -8 -53.5 -8t-57.5 6q6 47 6 101v71q0 53 -18.5 76t-65.5 23q-80 0 -80 -66v-618q0 -68 21.5 -97.5t72 -29.5t97.5 31.5t59 66.5q84 -39 84 -111q0 -23 -18 -38q-84 -86 -258 -86 q-218 -1 -218 237z" />
<glyph unicode="d" horiz-adv-x="647" d="M63 197v620q0 106 67 166.5t179 60.5h78v277q0 63 -18 129q63 35 135 35q43 0 43 -33v-1276q0 -45 16.5 -63.5t61.5 -18.5q2 -55 -29 -84.5t-88 -29.5q-86 0 -111 65q-66 -66 -148.5 -65.5t-134 57t-51.5 160.5zM223 199q0 -76 62 -76q33 0 61.5 24.5t40.5 53.5v706h-82 q-37 0 -59.5 -22.5t-22.5 -57.5v-628z" />
<glyph unicode="e" horiz-adv-x="589" d="M63 190v666q0 209 246 209t246 -234q0 -94 -34 -172.5t-93 -119.5l-205 -142v-192q0 -90 84 -90t84 100v49l-6 101q29 6 57.5 6t53.5 -9q51 -12 51 -49v-153q0 -86 -66.5 -133t-177.5 -47q-240 -1 -240 210zM223 557l103 78q66 49 65 203q0 43 -25.5 66.5t-62.5 23.5 q-80 0 -80 -66v-305z" />
<glyph unicode="f" horiz-adv-x="464" d="M-4 959.5q0 41.5 27 41.5h53v279q0 96 58.5 153.5t169 57.5t175 -48t64.5 -132v-109q0 -37 -51 -51q-25 -8 -53.5 -8t-57.5 8q6 45 6 98v15q0 47 -16.5 68.5t-60.5 21.5t-59 -22.5t-15 -71.5v-259h106l113 11q10 -55 10 -97.5t-29 -42.5h-200v-698q0 -102 16 -170 q-63 -12 -139 -12q-37 0 -37 31v849l-66 -10q-14 56 -14 97.5z" />
<glyph unicode="g" horiz-adv-x="616" d="M51 -86q0 156 113 207v149q-100 53 -101 191v356q0 106 67 166.5t179 60.5h109l129 9v-584q0 -102 -60.5 -160.5t-162.5 -64.5v-101h43q106 0 161.5 -62.5t55.5 -174.5q0 -229 -209 -230h-107q-106 0 -161.5 62.5t-55.5 175.5zM205 -91q0 -99 57 -99h111q57 0 57 99 t-57 99h-111q-57 0 -57 -99zM223 461q0 -37 23.5 -61.5t58.5 -24.5t58.5 24.5t23.5 61.5v446h-82q-37 0 -59.5 -22.5t-22.5 -57.5v-366z" />
<glyph unicode="h" horiz-adv-x="624" d="M45 1450q63 35 135 35q43 0 43 -33v-442q66 55 144.5 55t129 -53.5t50.5 -151.5v-684q0 -45 16.5 -63.5t61.5 -18.5q2 -55 -29 -84.5t-91.5 -29.5t-89 35.5t-28.5 119.5v713q0 70 -72 70q-59 0 -92 -66v-678q0 -102 15 -170q-63 -12 -138 -12q-37 0 -37 31v1298 q0 63 -18 129z" />
<glyph unicode="i" horiz-adv-x="327" d="M0 1002.5q0 41.5 29 41.5h213v-868q0 -45 15 -63.5t60 -18.5q2 -55 -28.5 -84.5t-90 -29.5t-88 35.5t-28.5 119.5v780l-68 -10q-14 56 -14 97.5zM68 1359q0 122 92 122t92 -122t-92 -122t-92 122z" />
<glyph unicode="j" horiz-adv-x="493" d="M-31 -94q0 37 51 51q27 6 55.5 6t55.5 -6q-6 -47 -6 -100v-11q0 -55 67.5 -55t67.5 74v1050l-227 -10q-16 55 -16.5 97t28.5 42h375v-1196q0 -96 -62.5 -144t-162.5 -48q-225 0 -226 162v88zM248 1369q0 122 91 122t91 -122t-91 -122t-91 122z" />
<glyph unicode="k" horiz-adv-x="624" d="M45 1450q63 35 135 35q43 0 43 -33v-915h84q31 0 55.5 24.5t24.5 61.5v245q0 82 -14 176q63 8 139 9q35 0 35 -33v-387q0 -98 -64 -156q63 -53 64 -155v-146q0 -45 16.5 -63.5t61.5 -18.5q2 -53 -31 -83.5t-93.5 -30.5t-87 33.5t-26.5 111.5v199q0 39 -24.5 62.5 t-59.5 23.5h-80v-236q0 -102 15 -170q-63 -12 -138 -12q-37 0 -37 31v1298q0 63 -18 129z" />
<glyph unicode="l" horiz-adv-x="301" d="M45 1450q63 35 135 35q43 0 43 -33v-1276q0 -45 16.5 -63.5t61.5 -18.5q2 -55 -28.5 -84.5t-91 -29.5t-89.5 35.5t-29 119.5v1186q0 63 -18 129z" />
<glyph unicode="m" horiz-adv-x="964" d="M23 950q-2 55 29.5 85t100 30t97.5 -66q66 66 158 66t139 -84q74 84 162 84t135 -53.5t47 -151.5v-684q0 -45 15.5 -63.5t60.5 -18.5q2 -55 -29 -84.5t-90.5 -29.5t-88 35.5t-28.5 119.5v713q0 70 -67 70q-57 0 -89 -66v-678q0 -104 15 -174q-63 -8 -139 -8q-35 0 -35 31 v825q0 70 -66 70q-59 0 -90 -66v-678q0 -104 14 -174q-63 -8 -137 -8q-37 0 -37 31v843q0 45 -16 64.5t-61 19.5z" />
<glyph unicode="n" horiz-adv-x="641" d="M4 950q-2 55 28.5 85t99.5 30t97 -66q72 66 154 66t132 -53.5t50 -151.5v-684q0 -45 15.5 -63.5t60.5 -18.5q2 -55 -28.5 -84.5t-90 -29.5t-88 35.5t-28.5 119.5v713q0 70 -74 70q-59 0 -90 -66v-678q0 -80 14 -174q-63 -8 -139 -8q-35 0 -35 31v843q0 45 -16.5 64.5 t-61.5 19.5z" />
<glyph unicode="o" d="M63 197v643q0 106 67 165.5t179.5 59.5t175 -55.5t62.5 -161.5v-643q0 -106 -66.5 -165.5t-179.5 -59.5t-175.5 55.5t-62.5 161.5zM223 197q0 -37 23.5 -61.5t58.5 -24.5t58.5 24.5t23.5 61.5v651q0 37 -23.5 61.5t-58.5 24.5t-58.5 -24.5t-23.5 -61.5v-651z" />
<glyph unicode="p" horiz-adv-x="647" d="M25 950q-2 55 29.5 85t100 30t97.5 -66q66 66 148.5 66t134 -56.5t51.5 -160.5v-623q0 -106 -65.5 -165.5t-180.5 -59.5h-78v-170l14 -141q-57 -23 -131 -23q-43 0 -43 31v1169q0 45 -16 64.5t-61 19.5zM262 137h82q37 0 59.5 21.5t22.5 58.5v629q0 74 -61 74 q-33 0 -62 -25t-41 -51v-707z" />
<glyph unicode="q" horiz-adv-x="624" d="M63 197v620q0 106 67 166.5t179 60.5h238v-1214l16 -141q-59 -23 -133 -23q-43 0 -43 31v338q-66 -55 -135 -55q-189 0 -189 217zM223 199q0 -74 64.5 -74t99.5 68v714h-82q-37 0 -59.5 -22.5t-22.5 -57.5v-628z" />
<glyph unicode="r" horiz-adv-x="579" d="M25 950q-2 55 29.5 85t88.5 30q84 0 107 -86q53 86 151 86q174 0 174 -168v-213q0 -37 -51 -49q-27 -8 -55.5 -8t-54.5 6q6 47 6 100v109q0 70 -64 69q-31 0 -56.5 -27.5t-37.5 -62.5v-647q0 -80 14 -170q-63 -12 -137 -12q-37 0 -37 31v843q0 45 -16 64.5t-61 19.5z" />
<glyph unicode="s" horiz-adv-x="575" d="M47 160v141q0 35 51 49q25 8 53.5 8t57.5 -6q-6 -47 -6 -100v-41q0 -96 86 -96t86 104v88q0 78 -56 113l-188 112q-82 51 -82 173v149q0 94 60.5 152.5t179.5 58.5t180 -49t61 -133v-135q0 -37 -51 -50q-25 -8 -54.5 -8t-55.5 6q6 47 6 101v32q0 98 -80 99q-86 0 -86 -88 v-99q0 -74 47 -100l186 -109q92 -51 93 -174v-159q0 -102 -60.5 -160.5t-178.5 -58.5t-183.5 46t-65.5 134z" />
<glyph unicode="t" horiz-adv-x="567" d="M-4 1002.5q0 41.5 27 41.5h59l29 199q8 47 79 47q20 0 46 -4v-242h186l110 11q10 -55 10.5 -97.5t-26.5 -42.5h-280v-710q0 -45 22.5 -69.5t56.5 -24.5q78 0 78 104v156l-6 100q29 6 57.5 6t53.5 -8q51 -12 51 -49v-256q0 -90 -67.5 -137t-173 -47t-169 54t-63.5 144v737 l-66 -10q-14 56 -14 97.5z" />
<glyph unicode="u" horiz-adv-x="641" d="M4 950q-2 53 31 84t93 31t87 -34t27 -113v-719q0 -76 61 -76q31 0 59.5 24.5t43.5 53.5v667q0 104 -17 176q66 8 139 9q37 0 37 -33v-844q0 -45 15.5 -63.5t60.5 -18.5q2 -55 -28.5 -84.5t-88.5 -29.5q-86 0 -108 65q-66 -66 -150 -65.5t-134 56.5t-50 161v669 q0 45 -16.5 64.5t-61.5 19.5z" />
<glyph unicode="v" horiz-adv-x="612" d="M-16 950q-2 53 30.5 84t92 31t86 -34t26.5 -152.5t30 -355t66 -386.5q98 436 99 772l-4 140q39 8 76.5 8t68.5 -8.5t31 -42.5q0 -182 -43 -469t-97 -461q-23 -76 -75 -76h-125q-53 0 -78 76q-47 162 -78 397.5t-31 392.5q0 45 -15 64.5t-60 19.5z" />
<glyph unicode="w" horiz-adv-x="933" d="M-10 950q-2 53 30.5 84t92 31t86 -34t26.5 -113v-721q0 -37 23.5 -61.5t57.5 -24.5t58.5 20.5t24.5 50.5v686q0 82 -14 176q63 8 139 9q35 0 35 -33v-838q0 -31 22.5 -51t59.5 -20t59.5 24.5t22.5 61.5v671q0 82 -15 176q63 8 140 9q35 0 34 -33v-815 q0 -106 -66.5 -165.5t-176 -59.5t-166.5 57q-57 -57 -165 -57t-170 55t-62 162v669q0 45 -15.5 64.5t-60.5 19.5z" />
<glyph unicode="x" horiz-adv-x="641" d="M4 950q-2 53 31 84t93 31t87 -34t27 -113v-295q0 -39 22 -63q22 -23 56 -22h3q36 1 59.5 24.5t23.5 60.5v245q0 104 -17 176q66 8 139 9q37 0 37 -33v-387q0 -98 -65 -156q66 -53 65 -155v-146q0 -45 15.5 -63.5t60.5 -18.5q2 -53 -30.5 -83.5t-92 -30.5t-86 33.5 t-26.5 111.5v199q0 39 -25 62.5t-60.5 23.5t-57 -24t-21.5 -62v-150q0 -80 14 -174q-63 -8 -139 -8q-35 0 -35 31v290q0 102 63 156q-63 57 -63 156v241q0 45 -16.5 64.5t-61.5 19.5z" />
<glyph unicode="y" horiz-adv-x="641" d="M4 950q-2 53 31 84t93 31t87 -34t27 -113v-680q0 -70 55 -70q29 0 60.5 20.5t48.5 44.5v635q0 104 -17 176q66 8 139 9q37 0 37 -33v-1172q0 -96 -67.5 -144t-180 -48t-174 42t-61.5 118v78q0 37 49 51q27 6 55.5 6t57.5 -6q-8 -51 -8 -90v-11q0 -53 85 -53t85 74v211 q-53 -53 -138.5 -53t-135.5 54t-50 159v630q0 45 -16.5 64.5t-61.5 19.5z" />
<glyph unicode="z" horiz-adv-x="532" d="M10 98.5q0 57.5 32 163t95 209.5q170 287 170 444h-164q-72 0 -106 -10q-16 55 -16.5 97t28.5 42h424q10 -43 10 -101t-30.5 -163.5t-90.5 -210.5q-170 -291 -178 -442h176l111 12q10 -55 10 -97t-26 -42h-435q-10 41 -10 98.5z" />
<glyph unicode="{" horiz-adv-x="501" d="M0 494q0 45 14 114q35 -10 108 -10t73 86v576q0 225 268 225q18 -41 18 -99q0 -35 -36.5 -34.5t-63.5 -21t-27 -62.5v-588q0 -96 -57 -148q57 -51 57 -147v-491q0 -41 27 -64t70 -23q16 -45 16 -88t-29 -43q-113 0 -178 59.5t-65 166.5v477q0 41 -24 63.5t-65 22.5h-77 q-29 0 -29 29z" />
<glyph unicode="|" horiz-adv-x="270" d="M43 1450q63 35 114.5 35t51.5 -33v-1612q0 -63 18 -129q-63 -35 -114.5 -35t-51.5 33v1612q0 63 -18 129z" />
<glyph unicode="}" horiz-adv-x="501" d="M20 1397q0 45 21 88q268 0 268 -225v-576q0 -86 74 -86l104 10q14 -53 14.5 -98t-26.5 -45h-80q-39 0 -62.5 -22.5t-23.5 -63.5v-477q0 -106 -66.5 -166t-179.5 -60q-27 0 -26 33q0 55 14 98q45 0 72 23t27 64v491q0 96 57 147q-57 51 -57 148v588q0 41 -27 62.5 t-72 21.5q-31 0 -31 45z" />
<glyph unicode="~" horiz-adv-x="698" d="M43 627q0 8 2 18q10 80 98 80q14 0 193.5 -23.5t185.5 -23.5q45 0 53 53q41 -2 59.5 -27.5t18.5 -48.5q0 -106 -100 -106q-14 0 -192.5 24.5t-184.5 24.5q-41 0 -53 -55q-80 8 -80 84z" />
<glyph unicode="&#xa1;" horiz-adv-x="311" d="M63 1296.5q0 108.5 90.5 108.5t90.5 -108.5t-90.5 -108.5t-90.5 108.5zM72 25l22 827l-8 201q29 10 98 10q35 0 35 -37l23 -825l8 -201q-74 -10 -144 -10q-34 0 -34 35z" />
<glyph unicode="&#xa2;" horiz-adv-x="573" d="M63 217v639q0 180 185 205v110q0 63 -21 129q63 35 114.5 35t51.5 -32v-248q72 -14 111 -60.5t39 -109.5v-176q0 -35 -51 -50q-25 -8 -53.5 -8t-57.5 6q6 47 6 101v71q0 53 -18.5 76t-65.5 23q-80 0 -80 -66v-618q0 -68 21.5 -97.5t72 -29.5t97.5 31.5t59 66.5 q84 -39 84 -111q0 -23 -18 -38q-57 -57 -146 -76v-107q0 -49 21 -131q-63 -33 -114.5 -33t-51.5 31v232q-185 16 -185 235z" />
<glyph unicode="&#xa3;" horiz-adv-x="643" d="M20 86q0 41 29 41h94v500q-72 0 -106 -11q-16 55 -16.5 96.5t28.5 41.5h94v440q0 96 57.5 153.5t168 57.5t175 -47t64.5 -133v-109q0 -37 -51 -51q-25 -6 -53.5 -6t-57.5 6q8 47 9 100v13q0 47 -17.5 69.5t-61.5 22.5t-58.5 -23.5t-14.5 -72.5v-420h57l111 10 q10 -55 10 -96t-26 -41h-152v-486h148q78 0 116 11q16 -59 17 -117q0 -35 -31 -35h-410q-72 0 -106 -10q-17 55 -17 96z" />
<glyph unicode="&#xa4;" horiz-adv-x="735" d="M51 924q23 76 62 112q33 29 53 8l76 -75q61 35 140 35t134 -31l57 84q68 -23 105 -58.5t14 -58.5l-88 -88q6 -31 6 -57v-291q0 -37 -8 -66q41 -35 100 -69q-20 -68 -57 -106t-59 -13l-72 72q-55 -35 -139 -35t-139 30l-54 -79q-74 25 -112 63q-27 31 -7 53l87 84 q-4 35 -5 58v290q0 31 7 62q-35 35 -101 76zM283 487q0 -41 26.5 -66.5t67.5 -25.5t67.5 25.5t26.5 66.5v316q0 41 -26.5 66.5t-67.5 25.5t-67.5 -25.5t-26.5 -66.5v-316z" />
<glyph unicode="&#xa5;" horiz-adv-x="671" d="M4 1286q-2 53 36 84t99.5 31t88 -34t26.5 -112q0 -299 96 -569q96 332 96 559l-4 139q33 8 85.5 8.5t79 -8t26.5 -43.5q0 -172 -43 -372.5t-105 -345.5q-27 -68 -59 -76v-72h4l111 10q10 -55 10 -96t-27 -41h-98v-74h4l111 11q10 -55 10 -96.5t-27 -41.5h-98l8 -147 q-72 -10 -143 -10q-33 0 -33 35v122h-4q-53 0 -107 -10q-16 55 -16 96t29 41h98v74h-4q-53 0 -107 -12q-16 55 -16 97t29 42h98v72q-37 10 -59 76q-49 125 -83 287.5t-34 249.5t-16.5 106.5t-61.5 19.5z" />
<glyph unicode="&#xa6;" horiz-adv-x="270" d="M43 397q63 35 114.5 35t51.5 -31v-561q0 -63 18 -129q-63 -35 -114.5 -35t-51.5 33v559q0 63 -18 129zM43 1450q63 35 114.5 35t51.5 -33v-559q0 -63 18 -131q-63 -33 -114.5 -33t-51.5 31v561q0 63 -18 129z" />
<glyph unicode="&#xa7;" horiz-adv-x="600" d="M55 -2q0 37 51 49q25 8 54.5 8t56.5 -6q-6 -47 -6 -100v-41q0 -96 86 -96t86 104v88q0 80 -55 113l-187 112q-84 51 -84 174v148q0 70 34 125t87 76l-35 24q-84 53 -84 172v150q0 92 60.5 151.5t179.5 59.5t180.5 -49.5t61.5 -135.5v-133q0 -37 -52 -49q-25 -8 -53 -8 t-57 6q6 47 6 100v31q0 100 -80 100q-86 0 -86 -90v-98q0 -74 47 -98l189 -109q90 -51 90 -176v-160q0 -141 -111 -202l17 -9q92 -47 92 -174v-159q0 -102 -60.5 -161t-177.5 -59t-183.5 47.5t-66.5 133.5v141zM217 410q0 -59 109 -115q59 61 59 176v98q0 76 -100 117 q-68 -43 -68 -149v-127z" />
<glyph unicode="&#xa8;" horiz-adv-x="563" d="M70 1274q0 121 92 121t92 -121t-92 -121t-92 121zM311 1274q0 121 91.5 121t91.5 -121t-91.5 -121t-91.5 121z" />
<glyph unicode="&#xa9;" horiz-adv-x="1015" d="M72 180v1116q0 90 60.5 139.5t164.5 49.5h424q102 0 162.5 -49.5t60.5 -139.5v-1116q0 -180 -217 -180h-438q-217 0 -217 180zM211 188q0 -33 22.5 -52t61.5 -19h428q37 0 59.5 19.5t22.5 51.5v1108q0 72 -82 72h-428q-84 0 -84 -72v-1108zM317 397v682q0 78 52.5 119 t139.5 41t138 -38t51 -99v-180q0 -41 -96 -41q-16 0 -35 2q4 37 4 75v117q0 55 -63.5 55t-63.5 -55v-665q0 -55 63.5 -55.5t63.5 55.5v26l-4 76q20 4 41 4q90 0 90 -41v-84q0 -63 -53 -104t-140 -41t-137.5 38.5t-50.5 112.5z" />
<glyph unicode="&#xaa;" horiz-adv-x="489" d="M43 762q0 133 115 205l149 88v176q0 70 -65.5 69.5t-65.5 -75.5v-56l4 -75q-20 -6 -39 -7q-84 0 -84 43v138q0 66 51.5 101.5t139.5 35.5q182 0 182 -162v-520q0 -35 12.5 -50.5t44.5 -15.5q2 -41 -21.5 -64.5t-79.5 -23.5t-73 54q-49 -53 -118.5 -53.5t-110.5 52 t-41 140.5zM172 766q0 -84 52 -84t83 59v197l-80 -51q-55 -37 -55 -121z" />
<glyph unicode="&#xab;" horiz-adv-x="888" d="M43 516l244 424q27 43 49 123q74 -4 117 -29.5t28 -54.5l-272 -465l194 -332q29 -51 82 -104q-43 -61 -92 -88q-16 -8 -29.5 -8t-23.5 14zM406 516l243 424q27 43 49 123q72 -4 111 -26.5t39 -35t-4 -22.5l-273 -465l193 -332q31 -51 84 -104q-43 -61 -92 -88 q-16 -8 -30.5 -8t-23.5 14z" />
<glyph unicode="&#xac;" horiz-adv-x="851" d="M43 1002.5q0 41.5 27 41.5h589q55 10 97.5 10.5t42.5 -28.5q6 -27 6 -59.5t-6 -44.5v-232q0 -53 10 -106q-55 -14 -96 -14.5t-41 26.5v319h-508q-70 0 -107 -10q-14 56 -14 97.5z" />
<glyph unicode="&#xad;" horiz-adv-x="526" d="M43 670q0 41 27 41h295l110 12q10 -55 10 -97t-26 -42h-295q-70 0 -107 -11q-14 56 -14 97z" />
<glyph unicode="&#xae;" horiz-adv-x="1015" d="M72 180v1116q0 90 60.5 139.5t164.5 49.5h424q102 0 162.5 -49.5t60.5 -139.5v-1116q0 -180 -217 -180h-438q-217 0 -217 180zM211 188q0 -33 22.5 -52t61.5 -19h428q37 0 59.5 19.5t22.5 51.5v1108q0 72 -82 72h-428q-84 0 -84 -72v-1108zM262 1161q-2 39 21.5 60.5 t77 21.5t75.5 -49q57 49 113 49q150 0 149 -147v-353q0 -92 -82 -135l33 -200q6 -49 43 -50q14 0 33 7q6 -25 6 -46.5t-27.5 -47t-70.5 -25.5q-84 0 -98 76l-46 262h-45v-183l7 -141q-59 -8 -111 -8q-23 0 -23 24v822q0 33 -11 48t-44 15zM444 688h54q33 0 53 16.5t20 43.5 v335q0 55 -53 56q-45 0 -74 -39v-412z" />
<glyph unicode="&#xaf;" horiz-adv-x="577" d="M84 1326q0 42 27 42h264l110 10q10 -47 10.5 -89t-26.5 -42h-264q-70 0 -107 -10q-14 47 -14 89z" />
<glyph unicode="&#xb0;" horiz-adv-x="522" d="M43 1229v121q0 156 219 155.5t219 -151.5v-121q0 -66 -51 -111t-172 -45q-215 0 -215 152zM164 1239q0 -63 98 -63q43 0 70.5 17t27.5 46v104q0 31 -27.5 47.5t-70.5 16.5q-98 0 -98 -64v-104z" />
<glyph unicode="&#xb1;" horiz-adv-x="552" d="M43 415q0 42 27 42h319l111 10q12 -55 12 -97t-29 -42h-319q-70 0 -107 -11q-14 56 -14 98zM43 817q0 41 27 41h139v68l-10 110q63 12 104 12.5t41 -28.5v-162h45l111 10q12 -51 12 -92t-29 -41h-139v-67q0 -72 12 -107q-66 -16 -106.5 -16t-40.5 28v162h-45 q-53 0 -107 -10q-14 51 -14 92z" />
<glyph unicode="&#xb2;" horiz-adv-x="491" d="M43 655.5q0 51.5 27.5 115t66.5 115.5t80 105q94 127 94 242q0 68 -65 67q-33 0 -52.5 -17t-19.5 -48v-45l6 -82q-20 -4 -42.5 -4t-43.5 4q-43 12 -43 43v98q0 74 51.5 115t139.5 41q195 0 194 -143q0 -102 -39 -192.5t-86 -143.5q-127 -141 -127 -258h170l84 10 q10 -45 10.5 -77t-20.5 -32h-330q-23 0 -39 17.5t-16 69z" />
<glyph unicode="&#xb3;" horiz-adv-x="456" d="M43 707v81q0 29 43 43q20 6 41 7l43 -7q-4 -39 -4 -83v-27q0 -31 18.5 -48.5t45 -17.5t44 17.5t17.5 48.5v119q0 63 -66 63h-82q-23 0 -22 27l10 86q29 -8 84 -8h18q63 0 64 65v160q0 68 -65.5 67.5t-65.5 -65.5v-45l6 -82q-20 -4 -43 -4t-43 4q-43 12 -43 43v98 q0 74 47 115t131 41q195 0 195 -143v-193q0 -76 -45 -113q45 -35 45 -112v-117q0 -82 -51.5 -128t-135.5 -46t-135 43t-51 111z" />
<glyph unicode="&#xb4;" d="M248 1180q0 2 76 188l28 92q150 -45 150 -74q0 -6 -6 -16l-123 -182l-39 -64q-86 33 -86 56z" />
<glyph unicode="&#xb5;" horiz-adv-x="641" d="M-16 -221q49 0 68.5 11t29.5 52l39 205q-39 57 -39 150v669q0 45 -16.5 64.5t-61.5 19.5q-2 53 31 84t93 31t87 -34t27 -113v-719q0 -76 61 -76q31 0 59.5 24.5t43.5 53.5v667q0 104 -17 176q66 8 139 9q37 0 37 -33v-844q0 -45 15.5 -63.5t60.5 -18.5q2 -55 -28.5 -84.5 t-88.5 -29.5q-86 0 -108 65q-66 -66 -148 -65q-14 0 -41 4l-8 -174q-4 -78 -28.5 -112t-84 -34t-92 31t-30.5 84z" />
<glyph unicode="&#xb6;" horiz-adv-x="798" d="M63 631v545q0 209 211 208h402q59 0 91 -31.5t30 -86.5q-45 0 -62.5 -20.5t-17.5 -67.5v-1473q0 -35 -33 -35l-47 2l-31 6q-2 0 -4 3q8 84 8 200v1385h-73v-1561q0 -35 -35 -35l-45 2l-31 6q-2 0 -4 3q8 84 8 200v525h-94q-125 0 -199 59.5t-74 165.5z" />
<glyph unicode="&#xb7;" horiz-adv-x="284" d="M51 673q0 122 91 122t91 -122t-91 -122t-91 122z" />
<glyph unicode="&#xb8;" horiz-adv-x="737" d="M223 -268.5q0 26.5 21 26.5h141q45 0 45 47.5t-45 47.5h-133v161h110v-75h29q143 0 144 -134q0 -68 -32 -98.5t-102 -30.5h-98l-72 -6q-8 35 -8 61.5z" />
<glyph unicode="&#xb9;" horiz-adv-x="452" d="M20 1311q0 23 23 28q219 55 227 56q45 0 45 -35v-684h2l86 8q8 -43 8.5 -74.5t-22.5 -31.5h-262l-84 -9q-8 41 -8 74t20 33h140v598q-100 -12 -140 -43q-23 29 -35 80z" />
<glyph unicode="&#xba;" horiz-adv-x="456" d="M43 737v494q0 84 51 129t138 45t135.5 -42t48.5 -126v-494q0 -84 -52.5 -129t-138.5 -45t-134 42t-48 126zM166 737q0 -31 17.5 -48t45 -17t45 18.5t17.5 46.5v500q0 29 -17.5 47.5t-45 18.5t-45 -17.5t-17.5 -48.5v-500z" />
<glyph unicode="&#xbb;" horiz-adv-x="888" d="M41 38q0 13 4 21l272 467l-194 330q-29 51 -82 105q43 61 90 90q18 8 31.5 8t21.5 -15l299 -520l-245 -424q-25 -45 -48 -123q-74 4 -111.5 26t-37.5 35zM403 961q41 61 91 90q18 8 31.5 8t21.5 -15l299 -520l-246 -424q-25 -45 -49 -123q-72 4 -116 30t-27 52l272 467 l-195 330q-29 52 -82 105z" />
<glyph unicode="&#xbc;" horiz-adv-x="1323" d="M35 1311q0 23 20 28q219 55 228 56q45 0 45 -35v-684h2l86 8q8 -43 8 -74.5t-21 -31.5h-262l-86 -9q-8 41 -8 74t21 33h139v598q-100 -12 -139 -43q-23 29 -33 80zM236 12l628 1428q27 61 39 129q76 35 121 35t45 -17q0 -4 -633 -1442q-29 -70 -35 -131q-82 -33 -135 -32 q-42 -1 -30 30zM801 741q-2 43 22.5 66.5t71.5 23.5t66.5 -26.5t19.5 -89.5v-312h127v277q0 72 -12 135q51 4 93 4t42 -22v-668q0 -33 13 -48t44 -15q4 -86 -88 -86q-49 0 -70.5 27.5t-21.5 90.5v205h-250v375q0 35 -12 49t-45 14z" />
<glyph unicode="&#xbd;" horiz-adv-x="1212" d="M35 1311q0 23 20 28q219 55 228 56q45 0 45 -35v-684h2l86 8q8 -43 8 -74.5t-21 -31.5h-262l-86 -9q-8 41 -8 74t21 33h139v598q-100 -12 -139 -43q-23 29 -33 80zM242 12l626 1428q27 61 39 129q76 35 135 35q43 0 27 -31l-629 -1428q-29 -70 -34 -131q-82 -33 -136 -32 q-42 -1 -28 30zM764 88q0 51 27.5 113.5t67.5 115t79 105.5q94 127 94 242q0 70 -65 69q-31 0 -50.5 -18.5t-19.5 -46.5v-45l6 -84q-20 -4 -42.5 -4t-47.5 6q-39 10 -39 41v100q0 72 50 114t139 42q197 0 196 -146q0 -102 -40 -191t-87 -143q-125 -143 -125 -260h168l86 11 q10 -45 10 -77t-20 -32h-332q-20 0 -37.5 18.5t-17.5 69.5z" />
<glyph unicode="&#xbe;" horiz-adv-x="1316" d="M53 707v81q0 29 43 43q20 6 43 7l41 -7q-4 -39 -4 -83v-27q0 -31 18.5 -48.5t45 -17.5t45 17.5t18.5 48.5v119q0 63 -67 63h-82q-23 0 -23 27l12 86q27 -8 82 -8h21q61 0 61 65v160q0 68 -65.5 67.5t-65.5 -65.5v-45l6 -82q-20 -4 -42.5 -4t-45.5 4q-41 12 -41 43v98 q0 74 47 115t131 41q195 0 195 -143v-193q0 -76 -45 -113q45 -35 45 -112v-117q0 -82 -51 -128t-135 -46t-135.5 43t-51.5 111zM227 12l629 1428q27 61 39 129q76 35 121 35t45 -17q0 -4 -633 -1442q-31 -70 -37 -131q-80 -33 -133 -32q-43 -1 -31 30zM795 741 q-2 43 22.5 66.5t71.5 23.5t66.5 -26.5t19.5 -89.5v-312h127v277q0 72 -15 135q51 4 94.5 4t43.5 -22v-668q0 -33 12 -48t45 -15q4 -86 -90 -86q-49 0 -69.5 27.5t-20.5 90.5v205h-250v375q0 35 -12 49t-45 14z" />
<glyph unicode="&#xbf;" horiz-adv-x="575" d="M51 190v318q0 121 84 172l76 47q55 33 55 113l-8 200q63 10 133 11q35 0 35 -37v-226q0 -125 -92 -174l-76 -43q-47 -27 -47 -100v-266q0 -90 86 -90q80 0 80 100v33l-6 100q27 6 56.5 6t53.5 -10q51 -12 51 -47v-135q0 -86 -61 -134t-180 -48t-179.5 58t-60.5 152z M250 1240q0 122 91 122t91 -122t-91 -122t-91 122z" />
<glyph unicode="&#xc0;" horiz-adv-x="686" d="M72 25v1155q0 106 72.5 165.5t198.5 59.5t194.5 -55.5t68.5 -161.5v-1008q0 -43 18.5 -61.5t63.5 -18.5q0 -121 -137 -120q-113 0 -113 145v407h-196v-331l8 -201q-74 -10 -144 -10q-34 0 -34 35zM166 1729q0 16 54 38.5t97 34.5q8 -49 56.5 -163.5t48.5 -122t-10 -13.5 l-78 -37q-18 35 -162 244q-6 11 -6 19zM242 674h196v506q0 41 -27.5 63.5t-71.5 22.5t-70.5 -22.5t-26.5 -63.5v-506z" />
<glyph unicode="&#xc1;" horiz-adv-x="686" d="M72 25v1155q0 106 72.5 165.5t198.5 59.5t194.5 -55.5t68.5 -161.5v-1008q0 -43 18.5 -61.5t63.5 -18.5q0 -121 -137 -120q-113 0 -113 145v407h-196v-331l8 -201q-74 -10 -144 -10q-34 0 -34 35zM242 674h196v506q0 41 -27.5 63.5t-71.5 22.5t-70.5 -22.5t-26.5 -63.5 v-506zM279 1522q0 2 77 186l27 94q152 -47 152 -76q0 -6 -7 -16l-122 -180l-39 -64q-88 31 -88 56z" />
<glyph unicode="&#xc2;" horiz-adv-x="686" d="M72 25v1155q0 106 72.5 165.5t198.5 59.5t194.5 -55.5t68.5 -161.5v-1008q0 -43 18.5 -61.5t63.5 -18.5q0 -121 -137 -120q-113 0 -113 145v407h-196v-331l8 -201q-74 -10 -144 -10q-34 0 -34 35zM129 1522q0 4 98 186l33 72q20 18 77.5 18t88.5 -16q10 -29 70.5 -141.5 t60.5 -122t-10 -15.5l-78 -37q-10 27 -37 64l-90 127l-86 -127l-37 -64q-90 31 -90 56zM242 674h196v506q0 41 -27.5 63.5t-71.5 22.5t-70.5 -22.5t-26.5 -63.5v-506z" />
<glyph unicode="&#xc3;" horiz-adv-x="686" d="M72 25v1155q0 106 72.5 165.5t198.5 59.5t194.5 -55.5t68.5 -161.5v-1008q0 -43 18.5 -61.5t63.5 -18.5q0 -121 -137 -120q-113 0 -113 145v407h-196v-331l8 -201q-74 -10 -144 -10q-34 0 -34 35zM102 1599q0 8 2 19q10 80 101 80q16 0 221 -31q33 -2 46 9.5t20 43.5 q41 -2 60 -27.5t19 -45.5q0 -106 -102 -107q-18 0 -219 33q-33 0 -46.5 -12.5t-21.5 -44.5q-80 9 -80 83zM242 674h196v506q0 41 -27.5 63.5t-71.5 22.5t-70.5 -22.5t-26.5 -63.5v-506z" />
<glyph unicode="&#xc4;" horiz-adv-x="686" d="M72 25v1155q0 106 72.5 165.5t198.5 59.5t194.5 -55.5t68.5 -161.5v-1008q0 -43 18.5 -61.5t63.5 -18.5q0 -121 -137 -120q-113 0 -113 145v407h-196v-331l8 -201q-74 -10 -144 -10q-34 0 -34 35zM129 1615q0 122 92 122t92 -122t-92 -122t-92 122zM242 674h196v506 q0 41 -27.5 63.5t-71.5 22.5t-70.5 -22.5t-26.5 -63.5v-506zM371 1615q0 122 91 122t91 -122t-91 -122t-91 122z" />
<glyph unicode="&#xc5;" horiz-adv-x="686" d="M72 25v1155q0 106 72.5 165.5t198.5 59.5t194.5 -55.5t68.5 -161.5v-1008q0 -43 18.5 -61.5t63.5 -18.5q0 -121 -137 -120q-113 0 -113 145v407h-196v-331l8 -201q-74 -10 -144 -10q-34 0 -34 35zM162 1573v72q0 125 177 124.5t177 -120.5v-72q0 -127 -177 -127t-177 123 zM242 674h196v506q0 41 -27.5 63.5t-71.5 22.5t-70.5 -22.5t-26.5 -63.5v-506zM260 1581q0 -51 79 -51t79 51v59q0 51 -79 51.5t-79 -51.5v-59z" />
<glyph unicode="&#xc6;" horiz-adv-x="1015" d="M72 25v1155q0 106 72.5 165.5t194.5 59.5t187 -45q74 45 185.5 45t182.5 -54.5t71 -140.5v-180q0 -37 -56 -53q-29 -8 -59.5 -8t-58.5 6q6 51 6 108v97q0 86 -95 86q-45 0 -70.5 -22.5t-25.5 -63.5l2 -482h123q76 0 115 11q16 -59 16 -117q0 -35 -28 -35h-226l-2 -352 q0 -41 26.5 -63.5t72 -22.5t73 22.5t27.5 63.5v53l-6 109q31 6 60.5 6t58.5 -8q55 -14 55 -54v-137q0 -86 -72 -140t-194.5 -54t-195.5 59t-73 166l2 352h-196l-2 -356l8 -201q-74 -10 -144 -10q-34 0 -34 35zM242 1180l2 -482h196l-2 482q0 41 -27.5 63.5t-71.5 22.5 t-70.5 -22.5t-26.5 -63.5z" />
<glyph unicode="&#xc7;" horiz-adv-x="665" d="M72 197v983q0 106 72.5 165.5t195.5 59.5t194.5 -54.5t71.5 -140.5v-264q0 -39 -55 -53q-29 -8 -58.5 -8t-60.5 6q6 51 6 108v181q0 41 -27.5 63.5t-71.5 22.5t-70.5 -22.5t-26.5 -63.5v-975q0 -39 26.5 -62.5t70.5 -23.5t71.5 22.5t27.5 63.5v47l-6 108q31 6 60.5 6.5 t58.5 -8.5q55 -16 55 -53v-117q0 -74 -49 -127t-133 -71v-51h31q141 0 141 -134q0 -68 -32 -98.5t-101 -30.5h-98l-70 -6q-10 35 -10 61.5t20 26.5h141q45 0 45.5 47.5t-45.5 47.5h-133v129q-241 10 -241 215z" />
<glyph unicode="&#xc8;" horiz-adv-x="649" d="M72 205v297q0 96 63 147q-63 51 -63 148v383q0 106 72.5 165.5t193.5 59.5t190.5 -54.5t69.5 -140.5v-180q0 -37 -55 -53q-29 -8 -58.5 -8t-60.5 6q6 51 6 108v97q0 86 -94 86q-45 0 -69.5 -22.5t-24.5 -63.5v-375q0 -39 23.5 -61.5t64.5 -22.5h32q76 0 115 10 q16 -59 17 -117q0 -35 -29 -34h-127q-43 0 -69.5 -24t-26.5 -62v-289q0 -41 26.5 -63.5t70.5 -22.5t71.5 22.5t27.5 63.5v53l-6 109q31 6 60.5 6t58.5 -8q55 -14 55 -54v-137q0 -86 -71.5 -140t-194.5 -54t-195.5 59.5t-72.5 165.5zM176 1729q0 16 54.5 38.5t97.5 34.5 q8 -49 56 -163.5t48 -122t-10 -13.5l-78 -37q-18 35 -162 244q-6 11 -6 19z" />
<glyph unicode="&#xc9;" horiz-adv-x="649" d="M72 205v297q0 96 63 147q-63 51 -63 148v383q0 106 72.5 165.5t193.5 59.5t190.5 -54.5t69.5 -140.5v-180q0 -37 -55 -53q-29 -8 -58.5 -8t-60.5 6q6 51 6 108v97q0 86 -94 86q-45 0 -69.5 -22.5t-24.5 -63.5v-375q0 -39 23.5 -61.5t64.5 -22.5h32q76 0 115 10 q16 -59 17 -117q0 -35 -29 -34h-127q-43 0 -69.5 -24t-26.5 -62v-289q0 -41 26.5 -63.5t70.5 -22.5t71.5 22.5t27.5 63.5v53l-6 109q31 6 60.5 6t58.5 -8q55 -14 55 -54v-137q0 -86 -71.5 -140t-194.5 -54t-195.5 59.5t-72.5 165.5zM272 1522q0 2 78 186l27 94 q152 -47 151 -76q0 -6 -6 -16l-125 -180l-37 -64q-88 31 -88 56z" />
<glyph unicode="&#xca;" horiz-adv-x="649" d="M72 205v297q0 96 63 147q-63 51 -63 148v383q0 106 72.5 165.5t193.5 59.5t190.5 -54.5t69.5 -140.5v-180q0 -37 -55 -53q-29 -8 -58.5 -8t-60.5 6q6 51 6 108v97q0 86 -94 86q-45 0 -69.5 -22.5t-24.5 -63.5v-375q0 -39 23.5 -61.5t64.5 -22.5h32q76 0 115 10 q16 -59 17 -117q0 -35 -29 -34h-127q-43 0 -69.5 -24t-26.5 -62v-289q0 -41 26.5 -63.5t70.5 -22.5t71.5 22.5t27.5 63.5v53l-6 109q31 6 60.5 6t58.5 -8q55 -14 55 -54v-137q0 -86 -71.5 -140t-194.5 -54t-195.5 59.5t-72.5 165.5zM119 1522q0 4 98 186l33 72 q20 18 77.5 18t88.5 -16q10 -29 70.5 -141.5t60.5 -122t-10 -15.5l-78 -37q-12 27 -37 64l-90 127l-86 -127l-37 -64q-90 31 -90 56z" />
<glyph unicode="&#xcb;" horiz-adv-x="649" d="M72 205v297q0 96 63 147q-63 51 -63 148v383q0 106 72.5 165.5t193.5 59.5t190.5 -54.5t69.5 -140.5v-180q0 -37 -55 -53q-29 -8 -58.5 -8t-60.5 6q6 51 6 108v97q0 86 -94 86q-45 0 -69.5 -22.5t-24.5 -63.5v-375q0 -39 23.5 -61.5t64.5 -22.5h32q76 0 115 10 q16 -59 17 -117q0 -35 -29 -34h-127q-43 0 -69.5 -24t-26.5 -62v-289q0 -41 26.5 -63.5t70.5 -22.5t71.5 22.5t27.5 63.5v53l-6 109q31 6 60.5 6t58.5 -8q55 -14 55 -54v-137q0 -86 -71.5 -140t-194.5 -54t-195.5 59.5t-72.5 165.5zM123 1615q0 122 92 122t92 -122t-92 -122 t-92 122zM365 1615q0 122 91 122t91 -122t-91 -122t-91 122z" />
<glyph unicode="&#xcc;" horiz-adv-x="311" d="M-12 1729q0 16 54 38.5t97 34.5q8 -49 56.5 -163.5t48.5 -122t-13 -13.5l-75 -37q-18 35 -162 244q-6 11 -6 19zM66 1384q74 10 143 11q35 0 35 -35v-1159l8 -201q-74 -10 -143 -10q-35 0 -35 35v1159z" />
<glyph unicode="&#xcd;" horiz-adv-x="311" d="M63 1384q74 10 144 11q35 0 35 -35v-1159l8 -201q-74 -10 -144 -10q-35 0 -34 35v1159zM72 1522q0 2 78 186l26 94q152 -47 152 -76q0 -6 -6 -16l-123 -180l-39 -64q-88 31 -88 56z" />
<glyph unicode="&#xce;" horiz-adv-x="311" d="M-55 1522q0 4 98 186l31 72q23 18 80 18t88 -16q10 -29 70.5 -141.5t60.5 -122t-11 -15.5l-79 -37q-10 27 -35 64l-90 127l-88 -127l-35 -64q-90 31 -90 56zM66 1384q74 10 143 11q35 0 35 -35v-1159l8 -201q-74 -10 -143 -10q-35 0 -35 35v1159z" />
<glyph unicode="&#xcf;" horiz-adv-x="311" d="M-55 1615q0 122 91 122t91 -122t-91 -122t-91 122zM63 1384q74 10 144 11q35 0 35 -35v-1159l8 -201q-74 -10 -144 -10q-35 0 -34 35v1159zM184 1615q0 122 92.5 122t92.5 -122t-92.5 -122t-92.5 122z" />
<glyph unicode="&#xd0;" horiz-adv-x="661" d="M2 666q0 41 29 41h51v471q0 47 -17.5 67.5t-62.5 20.5q-2 55 29.5 86.5t103.5 31.5t98 -69q84 70 173 69q211 0 210 -208v-951q0 -106 -73.5 -165.5t-200.5 -59.5h-260v578l-70 -9q-10 56 -10 97zM250 141h98q43 0 70.5 21.5t27.5 62.5v938q0 80 -81 80q-57 0 -115 -57 v-479h18l111 10q10 -55 10 -96t-27 -41h-112v-439z" />
<glyph unicode="&#xd1;" horiz-adv-x="696" d="M4 1266q-2 55 30 86.5t102.5 31.5t99.5 -69q84 70 172 69q211 0 210 -208v-996q0 -43 17.5 -61.5t62.5 -18.5q0 -121 -135 -120q-115 0 -114 145v1038q0 80 -82 80q-57 0 -115 -57v-985l8 -201q-72 -10 -143 -10q-33 0 -33 35v1153q0 47 -17.5 67.5t-62.5 20.5zM111 1599 q0 8 2 19q10 80 100 80q16 0 221 -31q33 -2 46.5 9.5t19.5 43.5q41 -2 60.5 -27.5t19.5 -45.5q0 -106 -103 -107q-16 0 -219 33q-33 0 -46 -12.5t-19 -44.5q-82 9 -82 83z" />
<glyph unicode="&#xd2;" horiz-adv-x="677" d="M72 197v983q0 106 72.5 165.5t198.5 59.5t194.5 -55.5t68.5 -161.5v-983q0 -106 -72.5 -165.5t-198.5 -59.5t-194.5 55.5t-68.5 161.5zM164 1729q0 16 54 38.5t97 34.5q8 -49 56.5 -163.5t48.5 -122t-10 -13.5l-78 -37q-18 35 -162 244q-6 11 -6 19zM242 205 q0 -39 26.5 -62.5t70.5 -23.5t71.5 22.5t27.5 63.5v975q0 41 -27.5 63.5t-71.5 22.5t-70.5 -22.5t-26.5 -63.5v-975z" />
<glyph unicode="&#xd3;" horiz-adv-x="677" d="M72 197v983q0 106 72.5 165.5t198.5 59.5t194.5 -55.5t68.5 -161.5v-983q0 -106 -72.5 -165.5t-198.5 -59.5t-194.5 55.5t-68.5 161.5zM242 205q0 -39 26.5 -62.5t70.5 -23.5t71.5 22.5t27.5 63.5v975q0 41 -27.5 63.5t-71.5 22.5t-70.5 -22.5t-26.5 -63.5v-975z M266 1522q0 2 76 186l29 94q152 -47 151 -76q0 -6 -6 -16l-125 -180l-37 -64q-88 31 -88 56z" />
<glyph unicode="&#xd4;" horiz-adv-x="677" d="M72 197v983q0 106 72.5 165.5t198.5 59.5t194.5 -55.5t68.5 -161.5v-983q0 -106 -72.5 -165.5t-198.5 -59.5t-194.5 55.5t-68.5 161.5zM125 1522q0 4 98 186l33 72q20 18 77.5 18t88.5 -16q10 -29 70.5 -141.5t60.5 -122t-10 -15.5l-78 -37q-10 27 -37 64l-90 127 l-86 -127l-37 -64q-90 31 -90 56zM242 205q0 -39 26.5 -62.5t70.5 -23.5t71.5 22.5t27.5 63.5v975q0 41 -27.5 63.5t-71.5 22.5t-70.5 -22.5t-26.5 -63.5v-975z" />
<glyph unicode="&#xd5;" horiz-adv-x="677" d="M72 197v983q0 106 72.5 165.5t198.5 59.5t194.5 -55.5t68.5 -161.5v-983q0 -106 -72.5 -165.5t-198.5 -59.5t-194.5 55.5t-68.5 161.5zM106 1599q0 8 3 19q10 80 100 80q16 0 221 -31q33 -2 46 9.5t20 43.5q41 -2 60 -27.5t19 -45.5q0 -106 -102 -107q-16 0 -219 33 q-33 0 -46 -12.5t-20 -44.5q-82 9 -82 83zM242 205q0 -39 26.5 -62.5t70.5 -23.5t71.5 22.5t27.5 63.5v975q0 41 -27.5 63.5t-71.5 22.5t-70.5 -22.5t-26.5 -63.5v-975z" />
<glyph unicode="&#xd6;" d="M39 197v983q0 106 71.5 165.5t197.5 59.5t195.5 -55.5t69.5 -161.5v-983q0 -106 -73.5 -165.5t-199.5 -59.5t-193.5 55.5t-67.5 161.5zM94 1615q0 122 91 122t91 -122t-91 -122t-91 122zM207 205q0 -39 26.5 -62.5t71.5 -23.5t73 22.5t28 63.5v975q0 41 -28 63.5 t-73 22.5t-71.5 -22.5t-26.5 -63.5v-975zM334 1615q0 122 92 122t92 -122t-92 -122t-92 122z" />
<glyph unicode="&#xd7;" horiz-adv-x="735" d="M51 805q23 76 62 113q33 29 53 6l211 -211l117 118q37 37 79 107q68 -23 105 -58.5t14 -60.5l-211 -211l115 -114q37 -35 106 -78q-20 -68 -57 -106t-59 -13l-209 207q-135 -135 -154.5 -161t-40.5 -58q-74 25 -112 63q-27 31 -7 53l209 207q-137 139 -162.5 159 t-58.5 38z" />
<glyph unicode="&#xd8;" horiz-adv-x="677" d="M-33 -51q0 6 105 256v975q0 106 72.5 165.5t202.5 59.5t202 -66q25 47 39 131q27 4 53.5 4.5t47 -10t20.5 -26.5q0 -4 -103 -252v-981q0 -106 -72.5 -165.5t-205.5 -59.5t-201 65v-2q-18 -49 -37 -127q-27 -4 -47 -4q-76 0 -76 37zM242 205q0 -39 26.5 -62.5t70.5 -23.5 t71.5 22.5t27.5 63.5v581l-196 -473v-108zM242 602l196 471v107q0 41 -27.5 63.5t-71.5 22.5t-70.5 -22.5t-26.5 -63.5v-578z" />
<glyph unicode="&#xd9;" horiz-adv-x="696" d="M0 1284q0 121 137 121q113 0 113 -145v-1063q0 -78 78 -78t118 76v1015q0 80 -14 174q72 8 148 9q37 0 36 -31v-1182q0 -43 16.5 -62.5t61.5 -19.5q2 -55 -28.5 -86.5t-87.5 -31.5q-90 0 -115 65q-59 -66 -164 -65q-217 0 -217 202v1022q0 43 -18.5 61.5t-63.5 18.5z M158 1729q0 16 54 38.5t97 34.5q8 -49 56.5 -163.5t48.5 -122t-11 -13.5l-77 -37q-18 35 -162 244q-6 11 -6 19z" />
<glyph unicode="&#xda;" horiz-adv-x="696" d="M0 1284q0 121 137 121q113 0 113 -145v-1063q0 -78 78 -78t118 76v1015q0 80 -14 174q72 8 148 9q37 0 36 -31v-1182q0 -43 16.5 -62.5t61.5 -19.5q2 -55 -28.5 -86.5t-87.5 -31.5q-90 0 -115 65q-59 -66 -164 -65q-217 0 -217 202v1022q0 43 -18.5 61.5t-63.5 18.5z M254 1522q0 2 76 186l28 94q152 -47 152 -76q0 -6 -8 -16l-123 -180l-39 -64q-86 31 -86 56z" />
<glyph unicode="&#xdb;" horiz-adv-x="696" d="M0 1284q0 121 137 121q113 0 113 -145v-1063q0 -78 78 -78t118 76v1015q0 80 -14 174q72 8 148 9q37 0 36 -31v-1182q0 -43 16.5 -62.5t61.5 -19.5q2 -55 -28.5 -86.5t-87.5 -31.5q-90 0 -115 65q-59 -66 -164 -65q-217 0 -217 202v1022q0 43 -18.5 61.5t-63.5 18.5z M135 1522q0 4 96 186l33 72q20 18 78.5 18t87.5 -16q10 -29 71.5 -141.5t61.5 -122t-12 -15.5l-78 -37q-10 27 -37 64l-88 127l-88 -127l-37 -64q-88 31 -88 56z" />
<glyph unicode="&#xdc;" horiz-adv-x="649" d="M-43 1284q0 121 137 121q113 0 113 -145v-1063q0 -78 77.5 -78t121.5 76v1015q0 80 -17 174q74 8 148 9q37 0 36 -31v-1182q0 -43 16.5 -62.5t61.5 -19.5q2 -55 -28.5 -86.5t-87.5 -31.5q-90 0 -115 65q-59 -66 -164 -65q-217 0 -217 202v1022q0 43 -18.5 61.5 t-63.5 18.5zM96 1615q0 122 91.5 122t91.5 -122t-91.5 -122t-91.5 122zM336 1615q0 122 92 122t92 -122t-92 -122t-92 122z" />
<glyph unicode="&#xdd;" horiz-adv-x="692" d="M0 1284q0 121 137 121q113 0 113 -145v-562q0 -76 78 -75.5t118 73.5v514q0 80 -14 174q72 8 148 9q37 0 36 -31v-1157q0 -106 -72.5 -165.5t-195.5 -59.5t-194.5 54t-71.5 140v145q0 39 55 54q29 8 58.5 8t60.5 -6q-6 -51 -6 -109v-61q0 -41 27.5 -63.5t71.5 -22.5 t70.5 22.5t26.5 63.5v332q-55 -55 -147 -56q-217 0 -217 205v518q0 43 -18.5 61.5t-63.5 18.5zM268 1522q0 2 76 186l29 94q152 -47 151 -76q0 -6 -6 -16l-125 -180l-37 -64q-88 31 -88 56z" />
<glyph unicode="&#xde;" horiz-adv-x="661" d="M0 1282q-2 55 30.5 88t99.5 33t93.5 -36t26.5 -101v-293q68 57 156 57q211 0 210 -209v-319q0 -106 -73.5 -166t-200.5 -60h-92v-75l8 -201q-74 -10 -143 -10q-33 0 -33 35v1171q0 47 -18.5 66.5t-63.5 19.5zM250 418h98q43 0 70.5 22.5t27.5 61.5v307q0 82 -81 82 q-57 0 -115 -57v-416z" />
<glyph unicode="&#xdf;" horiz-adv-x="841" d="M20 959.5q0 41.5 29 41.5h53v279q0 94 77 152.5t205 58.5t212 -49t84 -131v-201q0 -53 -71.5 -161.5t-71.5 -164.5v-24q0 -66 59 -101l109 -63q92 -53 92 -174v-223q0 -102 -60.5 -160.5t-169.5 -58.5h-108l-103 -13q-16 61 -16 104.5t31 43.5h178q88 0 88 104v152 q0 78 -55 112l-109 68q-96 57 -96 174v74q0 57 73.5 168.5t73.5 191.5v105q0 90 -131 90t-131 -94v-1317q0 -104 14 -170q-63 -14 -137 -15q-37 0 -37 33v1081l-65 -10q-17 56 -17 97.5z" />
<glyph unicode="&#xe0;" horiz-adv-x="630" d="M33 229q0 176 145 265l195 114v232q0 88 -84 88t-84 -99v-71l6 -101q-29 -6 -57.5 -6t-53.5 8q-51 14 -51 50v176q0 84 66.5 132t179.5 48q238 0 237 -211v-678q0 -45 16.5 -63.5t59.5 -18.5q2 -55 -28.5 -84.5t-87.5 -29.5q-88 0 -109 65q-66 -66 -155 -65.5t-142 67.5 t-53 182zM119 1389q0 14 54 36.5t97 34.5q8 -47 56.5 -162.5t48.5 -122t-10 -12.5l-78 -39q-18 37 -162 246q-6 11 -6 19zM201 232.5q0 -109.5 66.5 -109.5t105.5 78v258l-103 -70q-69 -47 -69 -156.5z" />
<glyph unicode="&#xe1;" horiz-adv-x="630" d="M33 229q0 176 145 265l195 114v232q0 88 -84 88t-84 -99v-71q0 -53 6 -101q-29 -6 -57.5 -6t-53.5 8q-51 14 -51 50v176q0 84 66.5 132t179.5 48q238 0 237 -211v-678q0 -45 16.5 -63.5t59.5 -18.5q2 -55 -28.5 -84.5t-87.5 -29.5q-88 0 -109 65q-66 -66 -155 -65.5 t-142 67.5t-53 182zM201 232.5q0 -109.5 66.5 -109.5t105.5 78v258l-103 -70q-69 -47 -69 -156.5zM231 1180q0 2 78 188l27 92q152 -45 151 -74q0 -6 -6 -16l-123 -182l-39 -64q-88 33 -88 56z" />
<glyph unicode="&#xe2;" horiz-adv-x="616" d="M35 229q0 176 145 265l195 114v232q0 88 -84 88t-84 -99v-71q0 -53 6 -101q-29 -6 -57.5 -6t-53.5 8q-51 14 -51 50v176q0 84 66.5 132t179.5 48q238 0 238 -211v-678q0 -45 16 -63.5t59 -18.5q4 -55 -27.5 -84.5t-88.5 -29.5q-88 0 -109 65q-66 -66 -155 -65.5 t-142 67.5t-53 182zM84 1180q0 4 96 188l33 72q20 16 78.5 16t87.5 -14q10 -29 71.5 -142.5t61.5 -122t-12 -14.5l-78 -39q-10 29 -37 64l-88 129l-88 -129l-37 -64q-88 33 -88 56zM203 232.5q0 -109.5 66.5 -109.5t105.5 78v258l-103 -70q-69 -47 -69 -156.5z" />
<glyph unicode="&#xe3;" horiz-adv-x="616" d="M35 229q0 176 145 265l195 114v232q0 88 -84 88t-84 -99v-71l6 -101q-29 -6 -57.5 -6t-53.5 8q-51 14 -51 50v176q0 84 66.5 132t179.5 48q238 0 238 -211v-678q0 -45 16 -63.5t59 -18.5q4 -55 -27.5 -84.5t-88.5 -29.5q-88 0 -109 65q-66 -66 -155 -65.5t-142 67.5 t-53 182zM53 1260q0 8 2 18q10 78 101 78q16 0 221 -29q33 -2 46 8.5t19 44.5q41 -2 60.5 -27.5t19.5 -45.5q0 -106 -102 -107q-16 0 -219 31q-33 0 -46.5 -11.5t-19.5 -43.5q-82 8 -82 84zM203 232.5q0 -109.5 66.5 -109.5t105.5 78v258l-103 -70q-69 -47 -69 -156.5z" />
<glyph unicode="&#xe4;" horiz-adv-x="606" d="M23 229q0 176 147 265l195 114v232q0 88 -84 88t-84 -99v-71l6 -101q-29 -6 -57.5 -6t-53.5 8q-51 14 -51 50v176q0 84 66.5 132t177.5 48q240 0 239 -211v-678q0 -45 15.5 -63.5t60.5 -18.5q2 -55 -28.5 -84.5t-88.5 -29.5q-90 0 -108 65q-66 -66 -156 -65.5t-143 67.5 t-53 182zM68 1274q0 121 92 121t92 -121t-92 -121t-92 121zM193 232.5q0 -109.5 66.5 -109.5t105.5 78v258l-103 -70q-69 -47 -69 -156.5zM309 1274q0 121 91.5 121t91.5 -121t-91.5 -121t-91.5 121z" />
<glyph unicode="&#xe5;" horiz-adv-x="616" d="M35 229q0 176 145 265l195 114v232q0 88 -84 88t-84 -99v-71q0 -53 6 -101q-29 -6 -57.5 -6t-53.5 8q-51 14 -51 50v176q0 84 66.5 132t179.5 48q238 0 238 -211v-678q0 -45 16 -63.5t59 -18.5q4 -55 -27.5 -84.5t-88.5 -29.5q-88 0 -109 65q-66 -66 -155 -65.5 t-142 67.5t-53 182zM113 1309v71q0 125 177 125t177 -121v-71q0 -127 -177 -127t-177 123zM203 232.5q0 -109.5 66.5 -109.5t105.5 78v258l-103 -70q-69 -47 -69 -156.5zM211 1317q0 -51 79 -51t79 51v59q0 51 -79 51t-79 -51v-59z" />
<glyph unicode="&#xe6;" horiz-adv-x="899" d="M35 229q0 201 153 256l187 68v299q0 76 -84 76t-84 -99v-71l6 -101q-29 -6 -57.5 -6t-53.5 8q-51 14 -51 50v176q0 84 66.5 132t175 48t162.5 -53q53 53 168 53q244 0 243 -234q0 -125 -33.5 -194.5t-111.5 -101.5l-186 -72v-268q0 -80 83.5 -80t83.5 100v49l-6 101 q29 6 57.5 6t53.5 -9q51 -12 51 -49v-153q0 -86 -66.5 -133t-190.5 -47t-183 75q-61 -76 -163.5 -75.5t-161 67.5t-58.5 182zM203 244q0 -55 22.5 -88t55.5 -33q55 0 94 78v213l-103 -41q-69 -29 -69 -129zM535 604l102 43q66 27 65 191q0 43 -25.5 66.5t-62.5 23.5 q-80 0 -79 -70v-254z" />
<glyph unicode="&#xe7;" horiz-adv-x="573" d="M63 217v639q0 209 248 209q109 0 170.5 -49t61.5 -131v-176q0 -35 -51 -50q-25 -8 -53.5 -8t-57.5 6q6 47 6 101v71q0 53 -18.5 76t-65.5 23q-80 0 -80 -66v-618q0 -68 21.5 -97.5t72 -29.5t97.5 31.5t59 66.5q84 -39 84 -111q0 -23 -18 -38q-57 -59 -152 -78v-49h31 q143 0 143 -134q0 -68 -32.5 -98.5t-102.5 -30.5h-98l-70 -6q-8 35 -8 61.5t18 26.5h144q45 0 45 47.5t-45 47.5h-136v127q-213 1 -213 237z" />
<glyph unicode="&#xe8;" horiz-adv-x="589" d="M63 190v666q0 209 246 209t246 -234q0 -94 -34 -172.5t-93 -119.5l-205 -142v-192q0 -90 84 -90t84 100v49l-6 101q29 6 57.5 6t53.5 -9q51 -12 51 -49v-153q0 -86 -66.5 -133t-177.5 -47q-240 -1 -240 210zM115 1389q0 14 54 36.5t97 34.5q8 -47 56.5 -162.5t48.5 -122 t-11 -12.5l-77 -39q-18 37 -162 246q-6 11 -6 19zM223 557l103 78q66 49 65 203q0 43 -25.5 66.5t-62.5 23.5q-80 0 -80 -66v-305z" />
<glyph unicode="&#xe9;" horiz-adv-x="589" d="M63 190v666q0 209 246 209t246 -234q0 -94 -34 -172.5t-93 -119.5l-205 -142v-192q0 -90 84 -90t84 100v49q0 53 -6 101q29 6 57.5 6t53.5 -9q51 -12 51 -49v-153q0 -86 -66.5 -133t-177.5 -47q-240 -1 -240 210zM223 557l103 78q66 49 65 203q0 43 -25.5 66.5 t-62.5 23.5q-80 0 -80 -66v-305zM231 1180q0 2 78 188l27 92q152 -45 151 -74q0 -6 -6 -16l-123 -182l-39 -64q-88 33 -88 56z" />
<glyph unicode="&#xea;" horiz-adv-x="589" d="M63 190v666q0 209 246 209t246 -234q0 -94 -34 -172.5t-93 -119.5l-205 -142v-192q0 -90 84 -90t84 100v49q0 53 -6 101q29 6 57.5 6t53.5 -9q51 -12 51 -49v-153q0 -86 -66.5 -133t-177.5 -47q-240 -1 -240 210zM94 1180q0 4 99 188l30 72q23 16 80 16t86 -14 q12 -29 72.5 -142.5t60.5 -122t-10 -14.5l-80 -39q-10 29 -37 64l-88 129l-88 -129l-37 -64q-88 33 -88 56zM223 557l103 78q66 49 65 203q0 43 -25.5 66.5t-62.5 23.5q-80 0 -80 -66v-305z" />
<glyph unicode="&#xeb;" horiz-adv-x="589" d="M63 190v666q0 209 246 209t246 -234q0 -94 -34 -172.5t-93 -119.5l-205 -142v-192q0 -90 84 -90t84 100v49l-6 101q29 6 57.5 6t53.5 -9q51 -12 51 -49v-153q0 -86 -66.5 -133t-177.5 -47q-240 -1 -240 210zM92 1274q0 121 91 121t91 -121t-91 -121t-91 121zM223 557 l103 78q66 49 65 203q0 43 -25.5 66.5t-62.5 23.5q-80 0 -80 -66v-305zM332 1274q0 121 92 121t92 -121t-92 -121t-92 121z" />
<glyph unicode="&#xec;" horiz-adv-x="313" d="M-20 1389q0 14 54 36.5t95 34.5q10 -47 57 -162.5t47 -122t-10 -12.5l-76 -39q-20 37 -161 246q-6 11 -6 19zM-2 1002.5q0 41.5 27 41.5h213v-868q0 -45 16 -63.5t61 -18.5q2 -55 -28.5 -84.5t-90 -29.5t-89 35.5t-29.5 119.5v780l-66 -10q-14 56 -14 97.5z" />
<glyph unicode="&#xed;" horiz-adv-x="313" d="M-4 1012q0 33 27 32h213v-868q0 -45 16 -63.5t61 -18.5q2 -55 -28.5 -84.5t-90 -29.5t-89 35.5t-29.5 119.5v780q-31 0 -66 -10zM55 1180q0 2 76 188l29 92q152 -45 151 -74q0 -6 -6 -16l-125 -182l-37 -64q-88 33 -88 56z" />
<glyph unicode="&#xee;" horiz-adv-x="327" d="M-51 1180q0 4 98 188l31 72q23 16 80 16t88 -14q10 -29 70.5 -142.5t60.5 -122t-10 -14.5l-80 -39q-10 29 -35 64l-90 129l-88 -129l-35 -64q-90 33 -90 56zM2 1012q0 33 29 32h213v-868q0 -45 15 -63.5t60 -18.5q2 -55 -28.5 -84.5t-90 -29.5t-88 35.5t-28.5 119.5v780 q-33 0 -68 -10z" />
<glyph unicode="&#xef;" horiz-adv-x="323" d="M-53 1402q0 122 91 122t91 -122t-91 -122t-91 122zM-4 1002.5q0 41.5 27 41.5h213v-868q0 -45 16 -63.5t61 -18.5q2 -55 -28.5 -84.5t-90 -29.5t-89 35.5t-29.5 119.5v780l-66 -10q-14 56 -14 97.5zM174 1402q0 122 92 122t92 -122t-92 -122t-92 122z" />
<glyph unicode="&#xf0;" d="M63 205v643q0 217 185 217q80 0 139 -55v170q-61 -47 -86 -76q-31 18 -55.5 52t0.5 52l98 70q-20 10 -50 10t-67 -10l-28 104q43 23 125 23t141 -37l84 76q29 -20 48 -47t19 -38t-16 -22l-68 -47q14 -49 15 -96v-997q0 -106 -62.5 -161.5t-175 -55.5t-179.5 59.5 t-67 165.5zM223 197q0 -39 22.5 -62.5t58.5 -23.5t59.5 24.5t23.5 61.5v655q-35 66 -102 66q-61 0 -62 -72v-649z" />
<glyph unicode="&#xf1;" horiz-adv-x="661" d="M25 950q-2 55 29.5 85t99 30t98.5 -66q70 66 151.5 66t132 -53.5t50.5 -151.5v-684q0 -45 16 -63.5t60 -18.5q2 -55 -29 -84.5t-90.5 -29.5t-88 35.5t-28.5 119.5v713q0 70 -72 70q-59 0 -92 -66v-678q0 -80 14 -174q-63 -8 -137 -8q-37 0 -37 31v843q0 45 -16 64.5 t-61 19.5zM88 1260q0 8 2 18q10 78 100 78q16 0 222 -29q31 -2 45 8.5t20 44.5q41 -2 59.5 -27.5t18.5 -45.5q0 -106 -100 -107q-18 0 -222 31q-31 0 -45 -11.5t-20 -43.5q-80 8 -80 84z" />
<glyph unicode="&#xf2;" d="M63 197v643q0 106 67 165.5t179.5 59.5t175 -55.5t62.5 -161.5v-643q0 -106 -66.5 -165.5t-179.5 -59.5t-175.5 55.5t-62.5 161.5zM141 1389q0 14 54.5 36.5t95.5 34.5q10 -47 57 -162.5t47 -122t-10 -12.5l-76 -39q-20 37 -162 246q-6 11 -6 19zM223 197 q0 -37 23.5 -61.5t58.5 -24.5t58.5 24.5t23.5 61.5v651q0 37 -23.5 61.5t-58.5 24.5t-58.5 -24.5t-23.5 -61.5v-651z" />
<glyph unicode="&#xf3;" d="M63 197v643q0 106 67 165.5t179.5 59.5t175 -55.5t62.5 -161.5v-643q0 -106 -66.5 -165.5t-179.5 -59.5t-175.5 55.5t-62.5 161.5zM223 197q0 -37 23.5 -61.5t58.5 -24.5t58.5 24.5t23.5 61.5v651q0 37 -23.5 61.5t-58.5 24.5t-58.5 -24.5t-23.5 -61.5v-651zM252 1180 q0 2 76 188l28 92q152 -45 152 -74q0 -6 -8 -16l-123 -182l-39 -64q-86 33 -86 56z" />
<glyph unicode="&#xf4;" d="M63 197v643q0 106 67 165.5t179.5 59.5t175 -55.5t62.5 -161.5v-643q0 -106 -66.5 -165.5t-179.5 -59.5t-175.5 55.5t-62.5 161.5zM92 1180q0 4 98 188l31 72q23 16 80 16t86 -14q10 -29 71.5 -142.5t61.5 -122t-10 -14.5l-80 -39q-10 29 -37 64l-88 129l-88 -129 l-37 -64q-88 33 -88 56zM223 197q0 -37 23.5 -61.5t58.5 -24.5t58.5 24.5t23.5 61.5v651q0 37 -23.5 61.5t-58.5 24.5t-58.5 -24.5t-23.5 -61.5v-651z" />
<glyph unicode="&#xf5;" d="M63 197v643q0 106 67 165.5t179.5 59.5t175 -55.5t62.5 -161.5v-643q0 -106 -66.5 -165.5t-179.5 -59.5t-175.5 55.5t-62.5 161.5zM70 1260q0 8 2 18q12 78 100 78q18 0 221 -29q33 -2 47.5 8.5t20.5 44.5q39 -2 58.5 -27.5t19.5 -45.5q0 -106 -103 -107q-16 0 -219 31 q-33 0 -46 -11.5t-19 -43.5q-82 8 -82 84zM223 197q0 -37 23.5 -61.5t58.5 -24.5t58.5 24.5t23.5 61.5v651q0 37 -23.5 61.5t-58.5 24.5t-58.5 -24.5t-23.5 -61.5v-651z" />
<glyph unicode="&#xf6;" d="M63 197v643q0 106 67 165.5t179.5 59.5t175 -55.5t62.5 -161.5v-643q0 -106 -66.5 -165.5t-179.5 -59.5t-175.5 55.5t-62.5 161.5zM94 1274q0 121 91 121t91 -121t-91 -121t-91 121zM223 197q0 -37 23.5 -61.5t58.5 -24.5t58.5 24.5t23.5 61.5v651q0 37 -23.5 61.5 t-58.5 24.5t-58.5 -24.5t-23.5 -61.5v-651zM334 1274q0 121 92 121t92 -121t-92 -121t-92 121z" />
<glyph unicode="&#xf7;" horiz-adv-x="587" d="M51 670q0 41 27 41h338l110 12q10 -55 10.5 -97t-26.5 -42h-338q-70 0 -106 -11q-15 56 -15 97zM203 355q0 122 91 122t91 -122t-91 -122t-91 122zM203 939q0 122 91 122t91 -122t-91 -122t-91 122z" />
<glyph unicode="&#xf8;" d="M-33 -60.5q0 11.5 4 17.5l97 195q-2 12 -2 45v643q0 106 66.5 165.5t182 59.5t179.5 -64v3q25 59 36 120q35 4 56 4q66 0 65 -32q0 -8 -104 -215q2 -12 2 -33v-643q0 -106 -66.5 -165.5t-179.5 -59.5t-176 55q-18 -49 -37 -127q-25 -2 -51.5 -2t-49 11t-22.5 22.5z M225 197q0 -37 23.5 -61.5t58.5 -24.5t58.5 24.5t23.5 61.5v366l-164 -332v-34zM225 463l164 330v55q0 37 -23.5 61.5t-58.5 24.5t-58.5 -24.5t-23.5 -61.5v-385z" />
<glyph unicode="&#xf9;" horiz-adv-x="624" d="M-10 950q-2 53 30.5 84t92 31t86 -34t26.5 -113v-719q0 -76 62 -76q33 0 61.5 24.5t40.5 53.5v667q0 82 -14 176q63 8 139 9q35 0 35 -33v-844q0 -45 16.5 -63.5t61.5 -18.5q2 -55 -29 -84.5t-88 -29.5q-86 0 -109 65q-68 -66 -150.5 -65.5t-133.5 56.5t-51 161v669 q0 45 -15.5 64.5t-60.5 19.5zM131 1389q0 14 55.5 36.5t96.5 34.5q8 -47 56 -162.5t48 -122t-10 -12.5l-76 -39q-20 37 -162 246q-8 11 -8 19z" />
<glyph unicode="&#xfa;" horiz-adv-x="624" d="M-10 950q-2 53 30.5 84t92 31t86 -34t26.5 -113v-719q0 -76 62 -76q33 0 61.5 24.5t40.5 53.5v667q0 106 -14 176l139 9q35 0 35 -33v-844q0 -45 16.5 -63.5t61.5 -18.5q2 -55 -29 -84.5t-88 -29.5q-86 0 -109 65q-68 -66 -150.5 -65.5t-133.5 56.5t-51 161v669 q0 45 -15.5 64.5t-60.5 19.5zM242 1180q0 2 75 188l27 92q152 -45 152 -74q0 -6 -7 -16l-122 -182l-39 -64q-86 33 -86 56z" />
<glyph unicode="&#xfb;" horiz-adv-x="641" d="M4 950q-2 53 31 84t93 31t87 -34t27 -113v-719q0 -76 61 -76q31 0 59.5 24.5t43.5 53.5v667q0 106 -17 176l139 9q37 0 37 -33v-844q0 -45 15.5 -63.5t60.5 -18.5q2 -55 -28.5 -84.5t-88.5 -29.5q-86 0 -108 65q-66 -66 -150 -65.5t-134 56.5t-50 161v669 q0 45 -16.5 64.5t-61.5 19.5zM109 1180q0 4 98 188l31 72q23 16 80 16t88 -14q10 -29 70.5 -142.5t60.5 -122t-11 -14.5l-80 -39q-10 29 -34 64l-90 129l-89 -129l-34 -64q-90 33 -90 56z" />
<glyph unicode="&#xfc;" horiz-adv-x="624" d="M-10 950q-2 53 30.5 84t92 31t86 -34t26.5 -113v-719q0 -76 62 -76q33 0 61.5 24.5t40.5 53.5v667q0 82 -14 176q63 8 139 9q35 0 35 -33v-844q0 -45 16.5 -63.5t61.5 -18.5q2 -55 -29 -84.5t-88 -29.5q-86 0 -109 65q-68 -66 -150.5 -65.5t-133.5 56.5t-51 161v669 q0 45 -15.5 64.5t-60.5 19.5zM94 1274q0 121 91 121t91 -121t-91 -121t-91 121zM334 1274q0 121 92 121t92 -121t-92 -121t-92 121z" />
<glyph unicode="&#xfd;" horiz-adv-x="563" d="M4 950q-2 53 31 84t93 31t87 -34t27 -113v-680q0 -70 55 -70q29 0 60.5 20.5t48.5 44.5v635q0 106 -17 176l139 9q37 0 37 -33v-1172q0 -96 -67.5 -144t-180 -48t-174 42t-61.5 118v78q0 37 49 51q27 6 55.5 6t57.5 -6l-8 -90v-11q0 -53 85 -53t85 74v211 q-53 -53 -138.5 -53t-135.5 54t-50 159v630q0 45 -16.5 64.5t-61.5 19.5zM233 1180q0 2 78 188l27 92q152 -45 151 -74q0 -6 -6 -16l-123 -182l-38 -64q-89 33 -89 56z" />
<glyph unicode="&#xfe;" d="M45 1450q63 35 135 35q43 0 43 -33v-442q66 55 137 55q186 0 187 -217v-623q0 -106 -65.5 -165.5t-178.5 -59.5h-80v-170l15 -141q-57 -23 -132 -23q-43 0 -43 31v1624q0 63 -18 129zM223 137h84q35 0 57.5 21.5t22.5 58.5v629q0 72 -63.5 72t-100.5 -66v-715z" />
<glyph unicode="&#xff;" horiz-adv-x="563" d="M4 950q-2 53 31 84t93 31t87 -34t27 -113v-680q0 -70 55 -70q29 0 60.5 20.5t48.5 44.5v635q0 104 -17 176q66 8 139 9q37 0 37 -33v-1172q0 -96 -67.5 -144t-180 -48t-174 42t-61.5 118v78q0 37 49 51q27 6 55.5 6t57.5 -6q-8 -51 -8 -90v-11q0 -53 85 -53t85 74v211 q-53 -53 -138.5 -53t-135.5 54t-50 159v630q0 45 -16.5 64.5t-61.5 19.5zM88 1274q0 121 91 121t91 -121t-91 -121t-91 121zM328 1274q0 121 92 121t92 -121t-92 -121t-92 121z" />
<glyph unicode="&#x152;" horiz-adv-x="1015" d="M72 197v983q0 106 72.5 165.5t191.5 59.5t190 -55q70 55 183.5 55t184.5 -54.5t71 -140.5v-180q0 -37 -56 -53q-29 -8 -59.5 -8t-58.5 6q6 51 6 108v97q0 86 -95 86q-43 0 -69.5 -21.5t-26.5 -58.5v-473h125q57 0 115 12q16 -61 16 -119q0 -33 -28 -33h-228v-368 q0 -41 26.5 -63.5t72 -22.5t73 22.5t27.5 63.5v53l-6 109q31 6 60.5 6t58.5 -8q55 -14 55 -54v-137q0 -86 -72 -140t-190.5 -54t-188.5 59q-76 -59 -194.5 -59t-187 55.5t-68.5 161.5zM242 205q0 -39 26.5 -62.5t70.5 -23.5t71.5 22.5t27.5 63.5v975q0 41 -27.5 63.5 t-71.5 22.5t-70.5 -22.5t-26.5 -63.5v-975z" />
<glyph unicode="&#x153;" horiz-adv-x="913" d="M63 197v643q0 106 67 165.5t170 59.5t165 -57q49 57 170 57q246 0 246 -234q0 -94 -35 -172.5t-94 -119.5l-205 -142v-202q2 -80 85 -80t83 100v49l-6 101q29 6 57.5 6t52.5 -9q51 -12 51 -49v-153q0 -86 -66.5 -133t-175 -47t-169.5 57q-63 -57 -167 -57t-166.5 55.5 t-62.5 161.5zM223 197q0 -37 23.5 -61.5t57.5 -24.5t58.5 22.5t24.5 54.5v660q0 37 -23.5 61.5t-58.5 24.5t-58.5 -24.5t-23.5 -61.5v-651zM547 557l102 78q66 49 66 203q0 43 -25.5 66.5t-62.5 23.5q-80 0 -80 -66v-305z" />
<glyph unicode="&#x178;" horiz-adv-x="692" d="M0 1284q0 121 137 121q113 0 113 -145v-562q0 -76 78 -75.5t118 73.5v514q0 80 -14 174q72 8 148 9q37 0 36 -31v-1157q0 -106 -72.5 -165.5t-195.5 -59.5t-194.5 54t-71.5 140v145q0 39 55 54q29 8 58.5 8t60.5 -6q-6 -51 -6 -109v-61q0 -41 27.5 -63.5t71.5 -22.5 t70.5 22.5t26.5 63.5v332q-55 -55 -147 -56q-217 0 -217 205v518q0 43 -18.5 61.5t-63.5 18.5zM135 1615q0 122 91 122t91 -122t-91 -122t-91 122zM375 1615q0 122 91 122t91 -122t-91 -122t-91 122z" />
<glyph unicode="&#x2c6;" horiz-adv-x="704" d="M225 1180q0 4 99 188l32 72q20 16 78 16t88 -14q10 -29 70.5 -142.5t60.5 -122t-10 -14.5l-78 -39q-12 29 -37 64l-90 129l-86 -129l-37 -64q-90 33 -90 56z" />
<glyph unicode="&#x2dc;" horiz-adv-x="653" d="M84 1260q0 8 2 18q10 78 98 78q18 0 224 -29q31 -2 45 8.5t20 44.5q41 -2 59.5 -27.5t18.5 -45.5q0 -106 -102 -107q-16 0 -220 31q-31 0 -45 -11.5t-20 -43.5q-80 8 -80 84z" />
<glyph unicode="&#x2000;" horiz-adv-x="901" />
<glyph unicode="&#x2001;" horiz-adv-x="1802" />
<glyph unicode="&#x2002;" horiz-adv-x="901" />
<glyph unicode="&#x2003;" horiz-adv-x="1802" />
<glyph unicode="&#x2004;" horiz-adv-x="600" />
<glyph unicode="&#x2005;" horiz-adv-x="450" />
<glyph unicode="&#x2006;" horiz-adv-x="299" />
<glyph unicode="&#x2007;" horiz-adv-x="299" />
<glyph unicode="&#x2008;" horiz-adv-x="225" />
<glyph unicode="&#x2009;" horiz-adv-x="360" />
<glyph unicode="&#x200a;" horiz-adv-x="98" />
<glyph unicode="&#x2010;" horiz-adv-x="526" d="M43 670q0 41 27 41h295l110 12q10 -55 10 -97t-26 -42h-295q-70 0 -107 -11q-14 56 -14 97z" />
<glyph unicode="&#x2011;" horiz-adv-x="526" d="M43 670q0 41 27 41h295l110 12q10 -55 10 -97t-26 -42h-295q-70 0 -107 -11q-14 56 -14 97z" />
<glyph unicode="&#x2012;" horiz-adv-x="526" d="M43 670q0 41 27 41h295l110 12q10 -55 10 -97t-26 -42h-295q-70 0 -107 -11q-14 56 -14 97z" />
<glyph unicode="&#x2013;" horiz-adv-x="587" d="M51 670q0 41 27 41h338l110 12q10 -55 10.5 -97t-26.5 -42h-338q-70 0 -106 -11q-15 56 -15 97z" />
<glyph unicode="&#x2014;" horiz-adv-x="970" d="M51 670q0 41 27 41h721l110 12q10 -55 10.5 -97t-26.5 -42h-721q-70 0 -106 -11q-15 56 -15 97z" />
<glyph unicode="&#x2018;" horiz-adv-x="276" d="M-25 1356q0 129 91.5 129t91.5 -121q0 -152 73 -152q2 -45 -24.5 -67.5t-78.5 -22.5t-102.5 73t-50.5 161z" />
<glyph unicode="&#x2019;" horiz-adv-x="276" d="M-18 1212q74 0 73 152q0 121 91.5 121t91.5 -129q0 -90 -48.5 -162t-101.5 -72q-110 0 -106 90z" />
<glyph unicode="&#x201a;" horiz-adv-x="276" d="M-18 -51q74 0 73 151q0 121 91.5 121t91.5 -127q0 -94 -42 -164.5t-98 -70.5q-120 0 -116 90z" />
<glyph unicode="&#x201c;" horiz-adv-x="550" d="M-25 1356q0 129 91.5 129t91.5 -121q0 -152 73 -152q2 -45 -24.5 -67.5t-78.5 -22.5t-102.5 73t-50.5 161zM250 1356q0 129 91 129t91 -121q0 -152 76 -152q2 -45 -24.5 -67.5t-79 -22.5t-103.5 73t-51 161z" />
<glyph unicode="&#x201d;" horiz-adv-x="550" d="M-18 1212q74 0 73 152q0 121 91.5 121t91.5 -129q0 -88 -50.5 -161t-101.5 -73q-108 0 -104 90zM256 1212q74 0 74 152q0 121 92 121t92 -129q0 -88 -51 -161t-105 -73q-106 0 -102 90z" />
<glyph unicode="&#x201e;" horiz-adv-x="573" d="M-18 -51q74 0 73 151q0 121 91.5 121t91.5 -127q0 -94 -42 -164.5t-98 -70.5q-120 0 -116 90zM279 -51q76 0 75 151q0 121 91.5 121t91.5 -127q0 -94 -43 -164.5t-99 -70.5q-120 0 -116 90z" />
<glyph unicode="&#x2022;" horiz-adv-x="413" d="M72 710q0 167 135 167t135 -167t-135 -167t-135 167z" />
<glyph unicode="&#x2026;" horiz-adv-x="845" d="M51 100.5q0 120.5 91 120.5t91 -120.5t-91 -120.5t-91 120.5zM336 100.5q0 120.5 92 120.5t92 -120.5t-92 -120.5t-92 120.5zM623 100.5q0 120.5 91 120.5t91 -120.5t-91 -120.5t-91 120.5z" />
<glyph unicode="&#x202f;" horiz-adv-x="360" />
<glyph unicode="&#x2039;" horiz-adv-x="526" d="M43 516l244 424q27 43 49 123q74 -4 111.5 -26.5t37.5 -35t-4 -22.5l-272 -465l194 -332q29 -51 82 -104q-43 -61 -92 -88q-16 -8 -29.5 -8t-23.5 14z" />
<glyph unicode="&#x203a;" horiz-adv-x="526" d="M41 38q0 13 4 21l272 467l-194 330q-29 51 -82 105q43 61 90 90q18 8 31.5 8t21.5 -15l299 -520l-245 -424q-25 -45 -48 -123q-74 4 -111.5 26t-37.5 35z" />
<glyph unicode="&#x205f;" horiz-adv-x="450" />
<glyph unicode="&#x20ac;" horiz-adv-x="616" d="M-12 536q0 42 26 42h95v176q-70 0 -107 -11q-14 55 -14 97.5t26 42.5h95v297q0 106 72.5 165.5t197.5 59.5h100l107 12q16 -61 16 -119q0 -33 -29 -32h-198q-45 0 -72 -22.5t-27 -63.5v-297h117l111 10q12 -55 12 -97t-29 -42h-211v-176h117l111 10q12 -55 12 -97 t-29 -42h-211v-244q0 -39 27 -62.5t72 -23.5h194q29 0 29 -29q0 -57 -16 -123q-47 12 -107 13h-100q-125 0 -195.5 55t-70.5 162v252q-53 0 -107 -11q-14 56 -14 98z" />
<glyph unicode="&#x2122;" horiz-adv-x="1300" d="M8 1355q0 36 25 36h303l90 6q12 -45 12 -80t-22 -35h-129v-551l8 -151q-57 -10 -113 -11q-25 0 -24 29v684h-49l-91 -10q-10 47 -10 83zM481 1296q-2 43 22.5 69t78 26t75.5 -56q70 55 134 56q100 0 137 -64q74 63 141 64q162 0 162 -164v-510q0 -33 14.5 -47.5 t46.5 -14.5q0 -94 -104 -94q-86 0 -86 115v543q0 63 -66 63q-41 0 -84 -43v-508l6 -151q-55 -10 -110 -11q-25 0 -25 29v621q0 63 -63 63q-49 0 -88 -45v-506l6 -151q-55 -10 -109 -11q-29 0 -28 29v631q0 39 -12.5 53t-47.5 14z" />
<glyph unicode="&#xe000;" horiz-adv-x="1065" d="M0 1065h1065v-1065h-1065v1065z" />
<glyph unicode="&#xfb01;" horiz-adv-x="659" d="M-4 1002.5q0 41.5 27 41.5h53v236q0 94 64.5 152.5t184 58.5t189.5 -58.5t70 -166t-117 -107.5q-29 0 -61 6q6 41 6 95v8q0 86 -88 86t-88 -94v-216h251l86 11q10 -55 10.5 -92t-10.5 -43v-744q0 -45 15.5 -63.5t60.5 -18.5q2 -55 -28.5 -84.5t-90 -29.5t-88 35.5 t-28.5 119.5v780h-178v-741q0 -102 16 -170q-63 -12 -139 -12q-37 0 -37 31v892l-66 -10q-14 56 -14 97.5z" />
<glyph unicode="&#xfb02;" horiz-adv-x="651" d="M-4 1002.5q0 41.5 27 41.5h53v236q0 96 61.5 153.5t149.5 57.5t139 -33q51 27 99 27t48 -33v-1276q0 -45 15.5 -63.5t60.5 -18.5q2 -55 -28.5 -84.5t-90 -29.5t-88 35.5t-28.5 119.5v1186q-45 33 -99 33q-80 0 -79 -94v-216h8l110 11q10 -55 10.5 -97.5t-28.5 -42.5h-100 v-741q0 -102 16 -170q-63 -12 -139 -12q-37 0 -37 31v892l-66 -10q-14 56 -14 97.5z" />
<glyph unicode="&#xfb03;" horiz-adv-x="1259" d="M934 1002.5q0 41.5 29 41.5h213v-868q0 -45 15 -63.5t60 -18.5q2 -55 -28.5 -84.5t-90 -29.5t-88 35.5t-28.5 119.5v780l-68 -10q-14 56 -14 97.5zM1002 1359q0 122 92 122t92 -122t-92 -122t-92 122zM463 959.5q0 41.5 27 41.5h53v279q0 96 58.5 153.5t169 57.5t175 -48 t64.5 -132v-109q0 -37 -51 -51q-25 -8 -53.5 -8t-57.5 8q6 45 6 98v15q0 47 -16.5 68.5t-60.5 21.5t-59 -22.5t-15 -71.5v-259h106l113 11q10 -55 10 -97.5t-29 -42.5h-200v-698q0 -102 16 -170q-63 -12 -139 -12q-37 0 -37 31v849l-66 -10q-14 56 -14 97.5zM-4 959.5 q0 41.5 27 41.5h53v279q0 96 58.5 153.5t169 57.5t175 -48t64.5 -132v-109q0 -37 -51 -51q-25 -8 -53.5 -8t-57.5 8q6 45 6 98v15q0 47 -16.5 68.5t-60.5 21.5t-59 -22.5t-15 -71.5v-259h106l113 11q10 -55 10 -97.5t-29 -42.5h-200v-698q0 -102 16 -170q-63 -12 -139 -12 q-37 0 -37 31v849l-66 -10q-14 56 -14 97.5z" />
<glyph unicode="&#xfb04;" horiz-adv-x="1234" d="M979 1450q63 35 135 35q43 0 43 -33v-1276q0 -45 16.5 -63.5t61.5 -18.5q2 -55 -28.5 -84.5t-91 -29.5t-89.5 35.5t-29 119.5v1186q0 63 -18 129zM463 959.5q0 41.5 27 41.5h53v279q0 96 58.5 153.5t169 57.5t175 -48t64.5 -132v-109q0 -37 -51 -51q-25 -8 -53.5 -8 t-57.5 8q6 45 6 98v15q0 47 -16.5 68.5t-60.5 21.5t-59 -22.5t-15 -71.5v-259h106l113 11q10 -55 10 -97.5t-29 -42.5h-200v-698q0 -102 16 -170q-63 -12 -139 -12q-37 0 -37 31v849l-66 -10q-14 56 -14 97.5zM-4 959.5q0 41.5 27 41.5h53v279q0 96 58.5 153.5t169 57.5 t175 -48t64.5 -132v-109q0 -37 -51 -51q-25 -8 -53.5 -8t-57.5 8q6 45 6 98v15q0 47 -16.5 68.5t-60.5 21.5t-59 -22.5t-15 -71.5v-259h106l113 11q10 -55 10 -97.5t-29 -42.5h-200v-698q0 -102 16 -170q-63 -12 -139 -12q-37 0 -37 31v849l-66 -10q-14 56 -14 97.5z" />
</font>
</defs>
</svg>
