<?xml version="1.0" encoding="utf-8"?>
<!-- Generator: Adobe Illustrator 16.0.0, SVG Export Plug-In . SVG Version: 6.00 Build 0)  -->
<!DOCTYPE svg PUBLIC "-//W3C//DTD SVG 1.1//EN" "http://www.w3.org/Graphics/SVG/1.1/DTD/svg11.dtd">
<svg version="1.1" id="Layer_1" xmlns="http://www.w3.org/2000/svg" xmlns:xlink="http://www.w3.org/1999/xlink" x="0px" y="0px"
	 width="247px" height="296px" viewBox="0 0 44.875 55" enable-background="new 0 0 44.875 55" xml:space="preserve" style="opacity:0.3; filter:alpha(opacity=30);" class="birds-color">


<g>
	<g>
		<path fill="#231F20" d="M24.535,9.792c0.285,0.195,0.636,0.199,0.946,0.321c-0.126,1.175,0.164,2.435,0.632,3.443
			c0.647,1.392,1.797,2.33,3.186,2.859c0.016,0.475,0.012,1.309-0.002,1.781c-0.008,0.268-0.013,0.314-0.227,0.385
			c-0.108,0.036-0.184,0.125-0.251,0.211c-0.102,0.127,0.045,0.353,0.192,0.237c0.222-0.171,0.604-0.372,0.765-0.021
			c0.083,0.18,0.344,0.016,0.262-0.163c-0.103-0.224-0.274-0.32-0.468-0.333c0.014-0.057,0.019-0.114,0.026-0.164
			c0.029-0.249-0.024-0.501-0.03-0.75l0.043-1.072c0.12,0.04,0.243,0.078,0.367,0.112c0.236,0.065,0.477,0.126,0.718,0.185
			c0.013,0.647,0.016,1.083,0.047,1.729c-0.186,0.048-0.315,0.167-0.431,0.348c-0.108,0.168,0.162,0.317,0.271,0.149
			c0.061-0.124,0.163-0.194,0.311-0.212c0.142,0.015,0.27,0.037,0.347,0.17c0.098,0.173,0.361,0.011,0.261-0.162
			c-0.104-0.183-0.265-0.257-0.45-0.293c-0.029-0.622-0.035-1.035-0.045-1.657c1.947,0.443,4.014,0.656,5.978,0.487
			c0.104,0.026,0.24-0.101,0.179-0.237c-0.209-0.467-0.583-0.829-0.808-1.289c-0.241-0.496-0.479-0.994-0.714-1.493
			c-0.474-1.003-0.943-2.012-1.477-2.985c-0.866-1.588-1.933-3.488-3.665-4.259c-1.426-0.635-3.242-0.28-4.229,0.966
			c-0.201,0.253-0.359,0.53-0.482,0.821c-0.275-0.047-0.536-0.135-0.798-0.231c-0.136-0.05-0.229,0.125-0.168,0.231
			c0.045,0.08,0.282,0.353,0.251,0.44C25.038,9.44,24.626,9.47,24.53,9.526C24.422,9.588,24.445,9.729,24.535,9.792z M34.276,12.261
			c-0.28,0.417-0.786,0.685-1.241,0.873c-0.453,0.186-1.018,0.385-1.498,0.183c-0.024-0.009-0.046-0.013-0.067-0.013
			c-0.566-1.356-0.227-3.177,1.117-3.927c0.453,0.628,0.838,1.307,1.179,1.923C33.941,11.617,34.112,11.938,34.276,12.261z
			 M34.738,13.187c-0.028-0.012-0.055-0.025-0.082-0.039c-0.185-0.088-0.318-0.212-0.471-0.336c0.088-0.076,0.172-0.157,0.245-0.246
			C34.535,12.771,34.636,12.979,34.738,13.187z M35.36,14.491c-0.425-0.145-0.78-0.411-1.141-0.678
			c-0.237-0.176-0.57-0.303-0.756-0.542c0.162-0.081,0.319-0.168,0.468-0.267c0.155,0.123,0.284,0.266,0.462,0.357
			c0.188,0.097,0.397,0.167,0.564,0.296c0.002,0.002,0.006,0.004,0.01,0.006c0.117,0.246,0.233,0.491,0.351,0.738
			C35.332,14.431,35.347,14.46,35.36,14.491z M35.815,15.451c-0.191-0.036-0.401-0.044-0.584-0.091
			c-0.362-0.094-0.681-0.257-1-0.453c-0.316-0.194-0.644-0.387-0.931-0.626c-0.206-0.171-0.532-0.412-0.649-0.68
			c0.164-0.047,0.322-0.106,0.472-0.172c0.02-0.008,0.038-0.017,0.055-0.024c0.226,0.347,0.708,0.541,1.024,0.775
			c0.389,0.29,0.787,0.548,1.263,0.662c0.024,0.006,0.044,0.006,0.063,0.003C35.624,15.047,35.719,15.25,35.815,15.451z
			 M36.156,16.142c-0.199-0.034-0.424-0.021-0.597-0.034c-0.501-0.035-1.059-0.149-1.509-0.374c-0.918-0.458-1.827-1.126-2.37-2.015
			c-0.011-0.017-0.021-0.035-0.031-0.053c0.228,0.048,0.464,0.042,0.695,0.003c0.103,0.302,0.411,0.556,0.642,0.749
			c0.311,0.259,0.646,0.48,0.987,0.691c0.33,0.202,0.672,0.414,1.048,0.513c0.18,0.046,0.399,0.144,0.586,0.145
			c0.111,0.001,0.236-0.004,0.344,0.038c0.014,0.005,0.028,0.009,0.042,0.01c0.032,0.067,0.063,0.135,0.098,0.203
			C36.11,16.061,36.133,16.102,36.156,16.142z M25.774,10.526c0.062-1,0.392-2.128,1.237-2.747c0.707-0.517,1.633-0.775,2.504-0.632
			c1.209,0.198,2.138,1.007,2.885,1.98c-1.439,0.822-1.886,2.908-1.198,4.358c0.461,0.972,1.347,1.771,2.272,2.295
			c0.49,0.278,0.988,0.461,1.543,0.563c0.215,0.04,0.425,0.067,0.646,0.08c0.179,0.01,0.447-0.019,0.604,0.082
			c0.046,0.031,0.093,0.029,0.131,0.013c0.132,0.188,0.271,0.373,0.386,0.572c-1.506,0.109-3.018-0.026-4.503-0.287
			c-1.319-0.23-2.716-0.448-3.883-1.147C26.671,14.622,25.652,12.529,25.774,10.526z"/>
	</g>
	<g>
		<path fill="#231F20" d="M28.297,9.27c0.114,0.399,0.856,0.217,0.935-0.125c0.044-0.194,0.344-0.12,0.3,0.075
			c-0.149,0.638-1.33,0.84-1.528,0.14C27.948,9.168,28.243,9.079,28.297,9.27z"/>
	</g>
	<g>
		<path fill="#231F20" d="M32.186,10.323c0.061-0.002,0.102-0.009,0.16-0.032c0.008-0.003,0.026-0.019,0.035-0.027
			c-0.005,0.011-0.004,0.008,0.005-0.008c-0.009,0.014,0.008-0.028,0.008-0.03c0.015-0.082,0.108-0.131,0.187-0.112
			c0.086,0.021,0.128,0.104,0.113,0.187c-0.044,0.235-0.29,0.323-0.501,0.331C31.993,10.64,31.986,10.331,32.186,10.323z"/>
	</g>
	<g>
		<path fill="#231F20" d="M31.488,11.096c0.022-0.09,0.104-0.122,0.188-0.112c0.029,0.003,0.063-0.009,0.081-0.02
			c0.022-0.013,0.032-0.029,0.051-0.067c0.039-0.076,0.14-0.101,0.211-0.061c0.076,0.042,0.097,0.135,0.06,0.21
			c-0.093,0.187-0.277,0.259-0.477,0.236C31.517,11.274,31.471,11.17,31.488,11.096z"/>
	</g>
	<g>
		<path fill="#231F20" d="M32.409,11.089c0.033,0.003,0.029,0.005,0.055-0.003c-0.002,0,0.001-0.002,0.015-0.009
			c0.008-0.004,0.01-0.006,0.011-0.007c0.002,0,0.004-0.004,0.014-0.012c0.047-0.044,0.069-0.08,0.103-0.128
			c0.05-0.069,0.129-0.104,0.211-0.061c0.067,0.038,0.107,0.141,0.06,0.21c-0.108,0.155-0.245,0.34-0.46,0.319
			c-0.083-0.008-0.156-0.059-0.157-0.15C32.257,11.171,32.326,11.081,32.409,11.089z"/>
	</g>
	<g>
		<path fill="#231F20" d="M31.615,11.628c0.088,0.018,0.178,0.016,0.268,0.013c0.199-0.005,0.206,0.304,0.007,0.309
			c-0.117,0.003-0.233,0.001-0.351-0.023C31.346,11.888,31.42,11.588,31.615,11.628z"/>
	</g>
	<g>
		<path fill="#231F20" d="M32.296,11.992c0.04-0.069,0.141-0.107,0.211-0.06c0.006,0.003,0.054,0.027,0.037,0.021
			c0.008,0.003,0.019,0.005,0.028,0.007c0.002,0,0.006,0,0.01,0c0.012,0,0.023-0.003,0.016,0c0.015-0.008,0.022-0.012,0.033-0.029
			c0.104-0.168,0.374-0.021,0.269,0.15c-0.115,0.187-0.354,0.244-0.542,0.12C32.287,12.154,32.253,12.069,32.296,11.992z"/>
	</g>
	<g>
		<path fill="#231F20" d="M33.027,11.331c0.038-0.07,0.139-0.105,0.209-0.06c0.008,0.004,0.015,0.008,0.022,0.011
			c-0.002,0,0-0.001,0.008,0.002c0.004,0,0.006,0,0.014,0c0.006,0,0.01,0,0.012,0c0.002,0,0.004-0.002,0.016-0.006
			c0.028-0.007,0.059-0.029,0.075-0.059c0.104-0.168,0.377-0.021,0.271,0.149c-0.112,0.184-0.368,0.298-0.566,0.172
			C33.018,11.496,32.984,11.408,33.027,11.331z"/>
	</g>
	<g>
		<path fill="#231F20" d="M31.699,12.542c0.002,0,0.004,0.001,0.004,0.002c0.015,0.005,0.03,0.007,0.046,0.01
			c0.016,0.002,0.057,0.001,0.082-0.001c0.055-0.002,0.108-0.015,0.149-0.044c0.161-0.116,0.321,0.148,0.16,0.264
			c-0.15,0.107-0.427,0.13-0.591,0.039C31.376,12.715,31.523,12.445,31.699,12.542z"/>
	</g>
	<g>
		<path fill="#231F20" d="M32.581,12.665c0.022-0.089,0.104-0.123,0.187-0.112c0-0.001,0.031-0.005,0.035-0.004
			c0.006-0.002,0.008-0.002,0.008-0.002c0.011-0.006,0.021-0.011,0.032-0.018c0.005-0.006,0.011-0.008,0.011-0.008
			c0.005-0.005,0.011-0.011,0.017-0.016c0.029-0.024,0.057-0.048,0.084-0.07c0.066-0.053,0.174-0.014,0.214,0.05
			c0.048,0.078,0.015,0.159-0.052,0.212c-0.037,0.03-0.097,0.087-0.151,0.116c-0.089,0.046-0.177,0.049-0.271,0.038
			C32.608,12.841,32.563,12.738,32.581,12.665z"/>
	</g>
	<g>
		<path fill="#231F20" d="M33.289,12.159c0.021-0.088,0.104-0.125,0.188-0.113c-0.017-0.001-0.015-0.002,0.003-0.001
			c0.005,0.001,0.007,0.001,0.009,0.001c0.004-0.001,0.004-0.001,0.007-0.002c0.004-0.002,0.008-0.002,0.01-0.003
			c0.01-0.004,0.019-0.011,0.028-0.017c-0.03,0.02,0.03-0.043,0.013-0.019c0.016-0.021,0.025-0.046,0.037-0.072
			c0.029-0.077,0.143-0.097,0.209-0.06c0.08,0.044,0.091,0.132,0.06,0.209c-0.075,0.19-0.251,0.291-0.451,0.261
			C33.316,12.334,33.27,12.234,33.289,12.159z"/>
	</g>
</g>
<g>
	<g>
		<path fill="#231F20" d="M12.691,17.013c0.29,0.151,0.659,0.22,0.98,0.266c0.533,0.076,1.336,0.123,1.863,0.015
			c0.446-0.092,0.815-0.184,1.13-0.274c-0.051,0.227-0.037,0.508-0.048,0.688c-0.016,0.225-0.025,0.452-0.044,0.679
			c-0.007,0.078-0.013,0.158-0.023,0.236c-0.019,0.137-0.051,0.084,0.057,0.068c-0.07,0.011-0.107,0.056-0.115,0.11
			c-0.11,0.028-0.214,0.079-0.301,0.14c-0.164,0.113,0.045,0.342,0.206,0.229c0.112-0.08,0.291-0.125,0.406-0.031
			c0.153,0.127,0.321-0.132,0.171-0.257c-0.042-0.034-0.086-0.059-0.133-0.075c0.064-0.2,0.048-0.504,0.054-0.616
			c0.018-0.257,0.029-0.513,0.053-0.768c0.012-0.132-0.004-0.38,0.085-0.488c0.01-0.012,0.017-0.024,0.022-0.036
			c0.409-0.139,0.71-0.276,0.973-0.412c-0.043,0.627-0.151,1.53-0.192,2.157c-0.019,0.025-0.029,0.055-0.031,0.085
			c-0.058,0.013-0.114,0.027-0.173,0.04c-0.194,0.042-0.129,0.343,0.065,0.302c0.1-0.021,0.2-0.06,0.3-0.069
			c0.105-0.009,0.211,0.04,0.302,0.087c0.174,0.093,0.346-0.165,0.17-0.257c-0.1-0.053-0.213-0.11-0.328-0.13
			c0.045-0.705,0.167-1.684,0.21-2.388c0.047-0.026,0.096-0.053,0.144-0.079c0.588-0.324,1.19-0.682,1.659-1.169
			c0.886-0.922,1.452-2.195,1.566-3.468c0.037-0.402,0.025-0.826-0.038-1.245c0.164-0.004,0.371-0.121,0.508-0.179
			c0.146-0.062,0.433-0.146,0.511-0.302c0.046-0.092,0.021-0.191-0.08-0.231c-0.125-0.051-0.258-0.085-0.391-0.108
			c0.051-0.111,0.113-0.217,0.156-0.332c0.051-0.136-0.099-0.237-0.216-0.187c-0.252,0.107-0.486,0.271-0.758,0.32
			c-0.347-0.883-0.981-1.62-1.958-1.89c-0.808-0.223-1.619,0.187-2.251,0.672c-0.802,0.617-1.356,1.458-1.804,2.354
			c-0.516,1.035-0.934,2.121-1.426,3.167c-0.44,0.937-1.007,1.812-1.418,2.761C12.434,16.673,12.398,16.861,12.691,17.013z
			 M15.928,10.152c1.031,0.043,1.948,1,2.074,2c0.113,0.894-0.184,1.838-0.905,2.407c-1.073,0.845-2.535,0.92-3.846,1.127
			c0.089-0.171,0.18-0.342,0.274-0.511c0.566-1.023,1.048-2.087,1.519-3.157c0.274-0.622,0.535-1.267,0.865-1.869
			C15.914,10.151,15.92,10.152,15.928,10.152z M12.785,16.646c0.03-0.078,0.062-0.154,0.098-0.229
			c0.063-0.129,0.128-0.259,0.192-0.387c1.549-0.272,3.564-0.296,4.631-1.645c0.606-0.766,0.816-1.881,0.469-2.804
			c-0.325-0.866-1.156-1.623-2.099-1.725c0.194-0.322,0.413-0.626,0.669-0.904c0.599-0.648,1.657-1.517,2.608-1.217
			c2.085,0.656,2.414,3.27,1.788,5.076c-0.342,0.983-0.905,1.886-1.755,2.504c-0.881,0.64-1.817,1.013-3.15,1.477
			c-0.335,0.117-0.785,0.214-1.017,0.234c-0.604,0.054-1.135,0.058-1.73-0.09c-0.194-0.047-0.398-0.085-0.583-0.163
			C12.786,16.722,12.742,16.757,12.785,16.646z"/>
	</g>
	<g>
		<path fill="#231F20" d="M19.069,9.514c0.115,0.206,0.436,0.116,0.587,0.001c0.158-0.119,0.365,0.109,0.206,0.23
			c-0.317,0.24-0.846,0.308-1.067-0.09C18.698,9.48,18.973,9.341,19.069,9.514z"/>
	</g>
	<g>
		<path fill="#231F20" d="M20.425,12.234c0.045-0.124,0.088-0.264,0.149-0.38c0.036-0.068,0.121-0.19,0.214-0.134
			c0.218,0.133,0.134,0.529,0.029,0.706C20.688,12.642,20.342,12.468,20.425,12.234z"/>
	</g>
	<g>
		<path fill="#231F20" d="M19.517,12.148c0.04-0.052,0.069-0.102,0.081-0.17c0.013-0.08,0.036-0.197,0.107-0.247
			c0.041-0.029,0.085-0.037,0.131-0.009c0.089,0.055,0.125,0.187,0.135,0.284c0.016,0.164-0.022,0.297-0.135,0.419
			C19.673,12.604,19.374,12.341,19.517,12.148z"/>
	</g>
	<g>
		<path fill="#231F20" d="M18.745,11.923c0.018-0.093,0.07-0.27,0.203-0.221c0.226,0.083,0.199,0.506,0.076,0.659
			c-0.107,0.137-0.351,0.083-0.337-0.112C18.694,12.141,18.726,12.03,18.745,11.923z"/>
	</g>
	<g>
		<path fill="#231F20" d="M19.009,13.083c0.036-0.09,0.068-0.169,0.146-0.232c0.047-0.039,0.115-0.038,0.158,0.009
			c0.156,0.173,0.104,0.531-0.101,0.646c-0.14,0.078-0.272-0.045-0.28-0.182C18.93,13.242,18.978,13.157,19.009,13.083z"/>
	</g>
	<g>
		<path fill="#231F20" d="M19.873,13.352c0.032-0.09,0.094-0.176,0.142-0.26c0.05-0.084,0.077-0.186,0.17-0.233
			c0.035-0.019,0.078-0.016,0.11,0.005c0.219,0.146,0.054,0.567-0.113,0.691C20.036,13.664,19.806,13.546,19.873,13.352z"/>
	</g>
	<g>
		<path fill="#231F20" d="M19.131,14.25c0.02-0.093,0.092-0.174,0.146-0.25c0.052-0.073,0.139-0.187,0.244-0.151
			c0.142,0.047,0.131,0.232,0.102,0.346c-0.038,0.143-0.135,0.255-0.271,0.303C19.198,14.551,19.103,14.373,19.131,14.25z"/>
	</g>
	<g>
		<path fill="#231F20" d="M18.17,14.208c0.021-0.062,0.054-0.117,0.089-0.171c0.068-0.105,0.138-0.22,0.244-0.287
			c0.051-0.031,0.125-0.004,0.149,0.048c0.098,0.21-0.061,0.64-0.316,0.662l0,0c-0.078,0.032-0.177-0.015-0.17-0.109
			c-0.002-0.005-0.004-0.01-0.007-0.018C18.151,14.296,18.158,14.244,18.17,14.208z"/>
	</g>
	<g>
		<path fill="#231F20" d="M18.381,15.077c0.035-0.056,0.101-0.118,0.13-0.152c0.054-0.066,0.108-0.141,0.19-0.178
			c0.079-0.035,0.183,0.002,0.199,0.094c0.035,0.194-0.115,0.413-0.271,0.513c-0.052,0.034-0.146,0.029-0.193-0.011
			c-0.013-0.01-0.026-0.02-0.037-0.032C18.339,15.248,18.335,15.149,18.381,15.077z"/>
	</g>
	<g>
		<path fill="#231F20" d="M19.809,14.272c0.021-0.071,0.074-0.121,0.116-0.181c0.014-0.016,0.027-0.031,0.041-0.047
			c0.004-0.004,0.007-0.007,0.011-0.011c-0.018,0.021-0.012,0.013,0.019-0.022c0.022-0.02,0.047-0.037,0.072-0.05
			c0.039-0.019,0.09-0.021,0.126,0.007c0.18,0.137,0.019,0.434-0.141,0.515C19.913,14.554,19.764,14.417,19.809,14.272z"/>
	</g>
	<g>
		<path fill="#231F20" d="M17.234,15.256c0.042-0.072,0.137-0.115,0.206-0.157c0.067-0.042,0.234-0.199,0.318-0.13
			c0.243,0.2-0.263,0.755-0.49,0.562C17.178,15.453,17.177,15.356,17.234,15.256z"/>
	</g>
	<g>
		<path fill="#231F20" d="M17.641,15.845c0.007-0.011,0.015-0.021,0.023-0.03c0.051-0.077,0.143-0.112,0.221-0.162
			c0.08-0.051,0.217-0.097,0.292-0.018c0.084,0.092,0.003,0.257-0.083,0.32c-0.08,0.061-0.158,0.122-0.252,0.133l0,0
			c-0.024,0.005-0.049,0.008-0.075,0.007C17.641,16.09,17.579,15.949,17.641,15.845z"/>
	</g>
	<g>
		<g>
			<path fill="#231F20" d="M16.317,16.474c0.001,0,0.003,0.002,0.005,0.002C16.312,16.471,16.311,16.471,16.317,16.474z"/>
		</g>
		<g>
			<path fill="#231F20" d="M16.272,16.217c0.043-0.075,0.112-0.115,0.186-0.157c0.109-0.061,0.218-0.144,0.344-0.168
				c0.092-0.018,0.159,0.05,0.163,0.138c0.006,0.158-0.129,0.269-0.247,0.349c-0.056,0.037-0.11,0.081-0.172,0.104
				c-0.041,0.015-0.083,0.027-0.127,0.024c-0.023,0-0.046-0.005-0.066-0.015c-0.019-0.009-0.029-0.015-0.035-0.018
				c-0.031-0.014-0.062-0.042-0.066-0.077C16.244,16.329,16.236,16.28,16.272,16.217z"/>
		</g>
	</g>
	<g>
		<g>
			<path fill="#231F20" d="M19.12,15.044c-0.015,0.028-0.011,0.021,0.011-0.022c0.014-0.018,0.028-0.035,0.044-0.051
				c0.016-0.011,0.031-0.023,0.046-0.033c-0.035,0.023,0.002-0.001,0.007-0.006c0.025-0.02,0.047-0.039,0.075-0.058
				c-0.032,0.022,0.002-0.003,0.007-0.007c-0.001,0.001,0.036-0.021,0.055-0.031c0.041-0.021,0.093-0.017,0.13,0.008
				c0.042,0.028,0.057,0.068,0.059,0.116c0-0.004,0-0.009,0-0.014c0.006,0.026,0.004,0.052-0.004,0.078
				c-0.004,0.012-0.009,0.024-0.014,0.035c-0.019,0.048-0.041,0.076-0.075,0.112c-0.024,0.027-0.052,0.048-0.083,0.07
				c-0.02,0.013-0.039,0.021-0.063,0.027c-0.018,0.005-0.088,0.018-0.036,0.005C19.15,15.303,19.045,15.153,19.12,15.044z"/>
		</g>
		<g>
			<path fill="#231F20" d="M19.364,14.835c-0.001,0-0.002,0-0.002,0C19.381,14.825,19.376,14.829,19.364,14.835z"/>
		</g>
	</g>
	<g>
		<path fill="#231F20" d="M20.532,13.198c0.028-0.069,0.069-0.133,0.107-0.198c0.031-0.055,0.069-0.117,0.121-0.156
			c0.042-0.031,0.115-0.043,0.15,0.008c0.103,0.149,0.026,0.36-0.072,0.496C20.729,13.5,20.458,13.386,20.532,13.198z"/>
	</g>
	<g>
		<path fill="#231F20" d="M15.498,15.859c0.068-0.081,0.156-0.096,0.255-0.114c0.12-0.024,0.326-0.082,0.399,0.057
			c0.082,0.156-0.125,0.288-0.25,0.32c-0.145,0.037-0.344,0.103-0.435-0.065C15.434,15.992,15.453,15.913,15.498,15.859z"/>
	</g>
	<g>
		<path fill="#231F20" d="M15.107,16.615c0.069-0.114,0.151-0.144,0.283-0.154c0.111-0.008,0.211-0.02,0.319,0.011
			c0.115,0.033,0.126,0.177,0.053,0.254c-0.083,0.084-0.192,0.106-0.305,0.119c-0.069,0.008-0.144,0.021-0.211,0
			c-0.057-0.019-0.087-0.055-0.13-0.092C15.079,16.718,15.084,16.654,15.107,16.615z"/>
	</g>
	<g>
		<path fill="#231F20" d="M14.346,16.144c0.092-0.032,0.215-0.032,0.312-0.035c0.099-0.003,0.225,0.024,0.233,0.141
			c0.008,0.105-0.119,0.186-0.205,0.212c-0.118,0.037-0.238,0.054-0.36,0.027c-0.076-0.017-0.125-0.106-0.121-0.179
			C14.21,16.222,14.269,16.17,14.346,16.144z"/>
	</g>
	<g>
		<path fill="#231F20" d="M13.707,16.568c0.086-0.022,0.176-0.004,0.262,0.008c0.089,0.012,0.161,0.051,0.21,0.126
			c0.019,0.027,0.017,0.081-0.006,0.106c-0.057,0.068-0.133,0.099-0.222,0.102c-0.087,0.002-0.179,0.011-0.262-0.021
			C13.532,16.832,13.544,16.608,13.707,16.568z"/>
	</g>
	<g>
		<path fill="#231F20" d="M13.258,16.194c0.049-0.025,0.099-0.021,0.152-0.025c0.059-0.003,0.122,0.001,0.176,0.025
			c0.069,0.018,0.107,0.083,0.085,0.151c-0.014,0.07-0.079,0.125-0.141,0.151c-0.092,0.04-0.201,0.048-0.289-0.007
			c-0.048-0.031-0.083-0.094-0.076-0.152C13.172,16.276,13.202,16.223,13.258,16.194z"/>
	</g>
</g>
<g>
	<path fill="#231F20" d="M22.592,6.161c0.17,0.185,0.546,0.768,0.864,0.604c0.206-0.106,0.425-0.375,0.584-0.542
		c0.175-0.182,0.329-0.366,0.441-0.593c0.134-0.271,0.151-0.599-0.053-0.836c-0.295-0.341-0.811-0.2-1.094,0.099
		c-0.153-0.245-0.376-0.471-0.681-0.411C22.36,4.539,22.189,4.812,22.16,5.1C22.118,5.507,22.321,5.866,22.592,6.161z"/>
</g>
<g>
	<path fill="#231F20" d="M25.763,4.857c0.08,0.071,0.175,0.064,0.244-0.018c0.422-0.504,1.331-0.941,1.117-1.733
		c-0.094-0.343-0.429-0.483-0.755-0.465c-0.269,0.014-0.465,0.174-0.612,0.378c-0.08-0.16-0.199-0.304-0.377-0.321
		c-0.244-0.023-0.521,0.12-0.616,0.357C24.483,3.757,25.305,4.451,25.763,4.857z M25.025,3.231c0.133-0.333,0.458-0.13,0.53,0.118
		c0.006,0.019,0.014,0.035,0.024,0.05c0.028,0.124,0.201,0.2,0.271,0.062c0.068-0.136,0.147-0.297,0.268-0.395
		c0.169-0.138,0.564-0.214,0.681,0.061c0.117,0.274-0.019,0.528-0.208,0.731c-0.226,0.241-0.493,0.441-0.722,0.679
		c-0.236-0.224-0.454-0.467-0.656-0.722C25.095,3.662,24.942,3.439,25.025,3.231z"/>
</g>
<g>
	<path fill="#231F20" d="M21.514,2.11c0.215,0.236,0.473,0.378,0.729,0.565c0.149,0.109,0.428,0.468,0.635,0.485
		c0.241,0.02,0.359-0.128,0.545-0.264C23.67,2.715,23.905,2.53,24.11,2.3c0.334-0.377,0.612-0.935,0.505-1.444
		c-0.095-0.447-0.552-0.633-0.957-0.538c-0.189,0.045-0.39,0.18-0.504,0.338c-0.075,0.104-0.131,0.256-0.199,0.388
		c-0.172-0.309-0.358-0.612-0.73-0.721c-0.371-0.108-0.75,0.004-0.925,0.374C21.076,1.173,21.156,1.716,21.514,2.11z"/>
</g>
<g>
	<path d="M43.415,22.114c-0.591,0-1.104-0.445-1.172-1.047c-0.029-0.257,0.043-0.51,0.204-0.712s0.392-0.33,0.649-0.359
		c0.208-0.023,0.422,0.036,0.59,0.17c0.167,0.133,0.271,0.323,0.295,0.535c0.021,0.176-0.029,0.35-0.14,0.489
		s-0.269,0.227-0.446,0.247c-0.146,0.017-0.293-0.025-0.409-0.117c-0.116-0.093-0.189-0.225-0.206-0.373l0.248-0.027
		c0.009,0.081,0.05,0.154,0.113,0.205c0.064,0.052,0.144,0.077,0.226,0.065c0.111-0.013,0.21-0.067,0.279-0.154
		c0.068-0.086,0.1-0.195,0.087-0.305c-0.017-0.146-0.088-0.276-0.202-0.367s-0.254-0.136-0.407-0.117
		c-0.19,0.022-0.361,0.117-0.48,0.267c-0.12,0.15-0.174,0.338-0.152,0.528c0.059,0.51,0.511,0.875,1.03,0.819
		c0.316-0.036,0.6-0.193,0.799-0.443c0.198-0.25,0.287-0.562,0.251-0.878c-0.095-0.834-0.838-1.437-1.687-1.342l-0.027-0.248
		c0.969-0.116,1.852,0.59,1.962,1.562c0.044,0.383-0.063,0.76-0.304,1.062s-0.583,0.492-0.967,0.536
		C43.504,22.111,43.459,22.114,43.415,22.114z"/>
</g>
<g>
	<path d="M41.137,19.191c-0.067,0-0.134-0.004-0.201-0.012l0.027-0.248c0.845,0.09,1.592-0.508,1.687-1.342
		c0.036-0.317-0.053-0.629-0.251-0.878c-0.199-0.25-0.482-0.407-0.8-0.443c-0.503-0.061-0.971,0.309-1.029,0.819
		c-0.021,0.19,0.032,0.378,0.152,0.528c0.119,0.15,0.29,0.245,0.48,0.267c0.152,0.017,0.293-0.026,0.407-0.117
		s0.186-0.222,0.202-0.367c0.013-0.111-0.019-0.219-0.087-0.306c-0.069-0.087-0.168-0.142-0.278-0.154
		c-0.085-0.005-0.162,0.014-0.227,0.065c-0.063,0.051-0.104,0.124-0.113,0.205l-0.248-0.027c0.017-0.148,0.09-0.28,0.206-0.373
		s0.264-0.134,0.41-0.117c0.177,0.02,0.335,0.107,0.445,0.247s0.16,0.313,0.14,0.489c-0.023,0.211-0.128,0.401-0.295,0.534
		c-0.168,0.135-0.385,0.199-0.59,0.17c-0.258-0.029-0.488-0.157-0.649-0.359s-0.233-0.456-0.204-0.712
		c0.073-0.646,0.661-1.113,1.306-1.039c0.384,0.043,0.727,0.234,0.967,0.536s0.348,0.679,0.304,1.062
		C42.795,18.522,42.025,19.191,41.137,19.191z"/>
</g>
<g>
	<rect x="4.516" y="18.938" width="38.516" height="0.25"/>
</g>
<g>
	<path d="M5.083,19.191c-0.89,0-1.659-0.669-1.761-1.573c-0.044-0.383,0.064-0.76,0.304-1.062s0.583-0.492,0.966-0.536
		c0.64-0.079,1.232,0.392,1.306,1.039c0.029,0.257-0.043,0.51-0.205,0.712c-0.161,0.203-0.392,0.33-0.648,0.359
		c-0.216,0.024-0.423-0.036-0.591-0.17c-0.167-0.133-0.271-0.323-0.294-0.535c-0.021-0.176,0.029-0.35,0.14-0.489
		s0.269-0.227,0.446-0.247c0.15-0.015,0.293,0.025,0.41,0.117c0.117,0.093,0.19,0.225,0.206,0.373l-0.248,0.027
		C5.104,17.128,5.064,17.055,5,17.004c-0.063-0.051-0.138-0.074-0.226-0.065c-0.111,0.013-0.209,0.067-0.278,0.154
		c-0.069,0.086-0.1,0.195-0.087,0.305c0.016,0.146,0.088,0.276,0.203,0.367c0.115,0.092,0.26,0.135,0.406,0.117
		c0.191-0.022,0.362-0.117,0.481-0.267s0.173-0.338,0.152-0.528c-0.059-0.51-0.527-0.88-1.03-0.819
		c-0.317,0.036-0.601,0.193-0.799,0.443S3.534,17.273,3.57,17.59c0.095,0.834,0.849,1.435,1.686,1.342l0.028,0.248
		C5.217,19.188,5.15,19.191,5.083,19.191z"/>
</g>
<g>
	<path d="M3.321,20.514c-0.009-0.385,0.124-0.731,0.386-1c0.354-0.363,0.939-0.58,1.563-0.58v0.25c-0.559,0-1.076,0.189-1.384,0.505
		c-0.217,0.222-0.323,0.498-0.315,0.819L3.321,20.514z"/>
</g>
<g>
	<rect x="3.321" y="20.495" width="0.25" height="32.285"/>
</g>
<g>
	<path d="M1.833,54.591c-0.723,0-1.349-0.544-1.433-1.279c-0.073-0.646,0.393-1.232,1.04-1.307c0.257-0.031,0.51,0.043,0.712,0.204
		s0.33,0.392,0.359,0.649c0.024,0.213-0.036,0.422-0.17,0.59c-0.133,0.167-0.323,0.271-0.535,0.295
		c-0.361,0.042-0.693-0.221-0.735-0.585c-0.017-0.147,0.024-0.293,0.117-0.41c0.093-0.116,0.225-0.189,0.373-0.206l0.027,0.248
		c-0.081,0.009-0.153,0.05-0.205,0.113c-0.051,0.064-0.074,0.145-0.065,0.226c0.026,0.229,0.239,0.397,0.459,0.366
		c0.146-0.017,0.276-0.088,0.368-0.203c0.092-0.115,0.134-0.259,0.117-0.406c-0.022-0.19-0.117-0.361-0.267-0.48
		c-0.15-0.12-0.335-0.172-0.528-0.152c-0.509,0.059-0.877,0.521-0.82,1.03c0.075,0.653,0.667,1.119,1.322,1.05
		c0.834-0.095,1.437-0.852,1.342-1.687l0.248-0.027c0.11,0.972-0.59,1.852-1.562,1.962C1.943,54.588,1.888,54.591,1.833,54.591z"/>
</g>
</svg>
