<?xml version="1.0" encoding="utf-8"?>
<!-- Generator: Adobe Illustrator 15.0.0, SVG Export Plug-In . SVG Version: 6.00 Build 0)  -->
<!DOCTYPE svg PUBLIC "-//W3C//DTD SVG 1.1//EN" "http://www.w3.org/Graphics/SVG/1.1/DTD/svg11.dtd">
<svg version="1.1" id="Layer_1" xmlns="http://www.w3.org/2000/svg" xmlns:xlink="http://www.w3.org/1999/xlink" x="0px" y="0px"
	 width="18px" height="37px" viewBox="0 0 18 37" enable-background="new 0 0 18 37" xml:space="preserve">
<g>
	<path fill="#3D3D3D" d="M9,1c4.411,0,8,3.588,8,8S13.411,17,9,17S1,13.411,1,9S4.589,1,9,1 M9,0C4.03,0,0,4.029,0,9
		C0,13.969,4.03,18,9,18S18,13.969,18,9C18,4.029,13.97,0,9,0L9,0z"/>
</g>
<circle fill="#3D3D3D" cx="9" cy="28" r="5"/>
<g>
	<path fill="#3D3D3D" d="M9,20c4.411,0,8,3.588,8,7.999C17,32.412,13.411,36,9,36S1,32.412,1,28C1,23.588,4.589,20,9,20 M9,19
		C4.03,19,0,23.029,0,28C0,32.969,4.03,37,9,37s9-4.031,9-9.001C18,23.029,13.97,19,9,19L9,19z"/>
</g>
</svg>
