<?xml version="1.0" encoding="utf-8"?>
<!-- Generator: Adobe Illustrator 15.0.0, SVG Export Plug-In . SVG Version: 6.00 Build 0)  -->
<!DOCTYPE svg PUBLIC "-//W3C//DTD SVG 1.1//EN" "http://www.w3.org/Graphics/SVG/1.1/DTD/svg11.dtd">
<svg version="1.1" xmlns="http://www.w3.org/2000/svg" xmlns:xlink="http://www.w3.org/1999/xlink" x="0px" y="0px" width="95px"
	 height="43px" viewBox="0 0 95 43" enable-background="new 0 0 95 43" xml:space="preserve">
<g id="Layer_1">
	<rect x="-14.379" display="none" fill="#0F7D3F" width="123.759" height="43"/>
	<g>
		<polygon fill="#FFFFFF" points="0,6.065 0,43 10.666,24.533 		"/>
		<rect fill="#FFFFFF" width="24.522" height="6.065"/>
		<polygon fill="#FFFFFF" points="24.522,7.706 2.838,7.706 12.555,24.533 2.838,41.359 37.49,41.359 24.522,34.792 24.522,33.151 
					"/>
		<g>
			<polygon fill="#FFFFFF" points="52.495,41.359 52.495,34.792 52.495,33.972 52.495,33.151 68.479,33.151 68.479,0 26.521,0 
				26.521,33.151 42.505,33.151 42.505,33.972 42.505,34.792 42.505,41.359 42.505,42.999 0,43 95,43 52.495,42.999 			"/>
			<polygon fill="#FFFFFF" points="95,43 95,6.065 84.334,24.533 			"/>
			<polygon fill="#FFFFFF" points="57.51,41.359 92.162,41.359 82.445,24.533 92.162,7.706 70.478,7.706 70.478,33.151 
				70.478,34.792 			"/>
			<rect x="70.478" fill="#FFFFFF" width="24.522" height="6.065"/>
		</g>
	</g>
</g>
<g id="Layer_3">
</g>
</svg>
