<?xml version="1.0" encoding="utf-8"?>
<!-- Generator: Adobe Illustrator 15.0.0, SVG Export Plug-In . SVG Version: 6.00 Build 0)  -->
<!DOCTYPE svg PUBLIC "-//W3C//DTD SVG 1.1//EN" "http://www.w3.org/Graphics/SVG/1.1/DTD/svg11.dtd">
<svg version="1.1" id="Icons" xmlns="http://www.w3.org/2000/svg" xmlns:xlink="http://www.w3.org/1999/xlink" x="0px" y="0px"
	 width="106.575px" height="228.504px" viewBox="0 -5 106.575 228.504" enable-background="new 0 -5 106.575 228.504"
	 xml:space="preserve">
<rect id="BG" x="0" y="-5" display="none" fill="#AEDD1D" width="106.576" height="223.505"/>
<g id="Geral">
	<path id="Twitter_06" fill="#FFFFFF" d="M61.814,196.799c-0.633,0.305-1.303,0.502-2.012,0.592c0.723-0.465,1.277-1.199,1.539-2.08
		c-0.676,0.43-1.426,0.736-2.227,0.914c-0.633-0.734-1.547-1.193-2.549-1.193c-1.936,0-3.498,1.688-3.498,3.77
		c0,0.291,0.027,0.582,0.088,0.854c-2.902-0.15-5.482-1.654-7.209-3.93c-0.303,0.555-0.473,1.201-0.473,1.895
		c0,1.303,0.615,2.463,1.557,3.129c-0.572-0.021-1.113-0.184-1.588-0.469c0,0.018,0,0.035,0,0.051c0,1.82,1.209,3.342,2.811,3.693
		c-0.293,0.086-0.604,0.125-0.926,0.125c-0.225,0-0.438-0.016-0.654-0.066c0.443,1.5,1.738,2.594,3.27,2.617
		c-1.197,1.014-2.705,1.609-4.346,1.609c-0.283,0-0.562-0.016-0.836-0.051c1.549,1.072,3.385,1.697,5.363,1.697
		c6.436,0,9.951-5.74,9.951-10.719c0-0.158-0.002-0.32-0.008-0.479C60.751,198.217,61.343,197.549,61.814,196.799z"/>
	<path id="Twitter_05" fill="#FFFFFF" d="M61.814,159.5c-0.633,0.303-1.303,0.5-2.012,0.594c0.723-0.469,1.277-1.203,1.539-2.082
		c-0.676,0.428-1.426,0.736-2.227,0.914c-0.633-0.734-1.547-1.193-2.549-1.193c-1.936,0-3.498,1.686-3.498,3.768
		c0,0.293,0.027,0.582,0.088,0.855c-2.902-0.148-5.482-1.654-7.209-3.93c-0.303,0.555-0.473,1.199-0.473,1.893
		c0,1.305,0.615,2.463,1.557,3.129c-0.572-0.021-1.113-0.184-1.588-0.467c0,0.018,0,0.033,0,0.049c0,1.822,1.209,3.346,2.811,3.695
		c-0.293,0.084-0.604,0.125-0.926,0.125c-0.225,0-0.438-0.018-0.654-0.066c0.443,1.502,1.738,2.592,3.27,2.617
		c-1.197,1.014-2.705,1.607-4.346,1.607c-0.283,0-0.562-0.016-0.836-0.049c1.549,1.07,3.385,1.697,5.363,1.697
		c6.436,0,9.951-5.74,9.951-10.719c0-0.158-0.002-0.318-0.008-0.479C60.751,160.917,61.343,160.25,61.814,159.5z"/>
	<path id="Twitter_04" fill="#FFFFFF" d="M44.761,133.655c1.549,1.074,3.385,1.699,5.363,1.699c6.434,0,9.951-5.738,9.951-10.717
		c0-0.16-0.002-0.322-0.008-0.482c0.684-0.539,1.275-1.205,1.744-1.957c-0.633,0.303-1.301,0.5-2.012,0.592
		c0.725-0.467,1.279-1.201,1.541-2.08c-0.676,0.428-1.428,0.734-2.227,0.914c-0.633-0.734-1.549-1.193-2.551-1.193
		c-1.934,0-3.498,1.686-3.498,3.768c0,0.293,0.027,0.582,0.09,0.855c-2.902-0.15-5.484-1.656-7.209-3.93
		c-0.305,0.555-0.475,1.201-0.475,1.893c0,1.305,0.617,2.465,1.559,3.131c-0.574-0.023-1.115-0.182-1.588-0.469
		c0,0.018,0,0.035,0,0.051c0,1.82,1.209,3.342,2.811,3.693c-0.295,0.086-0.604,0.125-0.926,0.125c-0.225,0-0.439-0.016-0.654-0.066
		c0.443,1.5,1.738,2.592,3.268,2.615c-1.197,1.016-2.705,1.609-4.346,1.609C45.314,133.708,45.035,133.69,44.761,133.655z"/>
	<path id="Twitter_02" fill="#FFFFFF" d="M68.208,38.368H38.367v29.841h29.842V38.368z M60.068,49.554
		c0.008,0.162,0.01,0.321,0.01,0.481c0,4.978-3.52,10.717-9.951,10.717c-1.98,0-3.814-0.626-5.365-1.698
		c0.273,0.035,0.553,0.051,0.836,0.051c1.641,0,3.148-0.596,4.346-1.61c-1.529-0.024-2.824-1.114-3.268-2.616
		c0.217,0.049,0.43,0.066,0.654,0.066c0.322,0,0.631-0.04,0.926-0.125c-1.602-0.352-2.811-1.872-2.811-3.694
		c0-0.015,0-0.034,0-0.051c0.473,0.286,1.014,0.446,1.588,0.469c-0.941-0.665-1.559-1.827-1.559-3.13
		c0-0.691,0.172-1.338,0.475-1.893c1.725,2.275,4.307,3.779,7.209,3.929c-0.062-0.272-0.09-0.563-0.09-0.854
		c0-2.084,1.564-3.768,3.498-3.768c1.002,0,1.918,0.458,2.551,1.193c0.799-0.178,1.551-0.486,2.227-0.914
		c-0.262,0.879-0.816,1.613-1.541,2.08c0.711-0.092,1.379-0.289,2.012-0.592C61.343,48.347,60.751,49.013,60.068,49.554z"/>
	<path id="Twitter_01" fill="#FFFFFF" d="M53.289,30.907c8.227,0,14.92-6.691,14.92-14.92S61.515,1.065,53.289,1.065
		c-8.229,0-14.922,6.693-14.922,14.922S45.058,30.907,53.289,30.907z M46.675,17.577c0.217,0.049,0.43,0.066,0.654,0.066
		c0.322,0,0.631-0.041,0.926-0.125c-1.602-0.354-2.811-1.873-2.811-3.694c0-0.015,0-0.034,0-0.05
		c0.473,0.285,1.014,0.445,1.588,0.468c-0.941-0.666-1.559-1.826-1.559-3.129c0-0.692,0.172-1.339,0.475-1.894
		c1.725,2.274,4.307,3.778,7.209,3.93c-0.062-0.273-0.09-0.562-0.09-0.855c0-2.082,1.564-3.768,3.498-3.768
		c1.002,0,1.918,0.459,2.551,1.193c0.799-0.179,1.551-0.486,2.227-0.914c-0.262,0.879-0.816,1.612-1.541,2.08
		c0.711-0.092,1.379-0.289,2.012-0.593c-0.469,0.751-1.062,1.418-1.744,1.958c0.006,0.161,0.008,0.322,0.008,0.482
		c0,4.976-3.518,10.717-9.951,10.717c-1.979,0-3.814-0.626-5.363-1.699c0.271,0.035,0.553,0.051,0.836,0.051
		c1.641,0,3.146-0.595,4.346-1.609C48.414,20.169,47.119,19.078,46.675,17.577z"/>
	<path id="Pintrest_06" fill="#FFFFFF" d="M91.74,205.817c-0.926,0-1.793-0.5-2.092-1.068c0,0-0.496,1.975-0.604,2.355
		c-0.371,1.348-1.463,2.693-1.545,2.803c-0.059,0.078-0.191,0.055-0.203-0.047c-0.023-0.172-0.303-1.873,0.023-3.256
		c0.166-0.697,1.102-4.672,1.102-4.672s-0.271-0.547-0.271-1.355c0-1.271,0.734-2.219,1.65-2.219c0.779,0,1.152,0.586,1.152,1.285
		c0,0.785-0.496,1.957-0.754,3.043c-0.215,0.91,0.455,1.65,1.352,1.65c1.621,0,2.717-2.086,2.717-4.555
		c0-1.879-1.266-3.285-3.562-3.285c-2.598,0-4.215,1.938-4.215,4.104c0,0.746,0.221,1.273,0.564,1.682
		c0.156,0.188,0.18,0.264,0.121,0.479c-0.043,0.158-0.135,0.537-0.176,0.688c-0.057,0.217-0.232,0.295-0.426,0.213
		c-1.195-0.486-1.754-1.799-1.754-3.271c0-2.436,2.051-5.354,6.117-5.354c3.268,0,5.42,2.367,5.42,4.908
		C96.359,203.305,94.492,205.817,91.74,205.817z"/>
	<path id="Pintrest_05" fill="#FFFFFF" d="M91.74,168.514c-0.924,0-1.793-0.498-2.092-1.066c0,0-0.496,1.977-0.602,2.357
		c-0.373,1.346-1.463,2.691-1.547,2.801c-0.059,0.078-0.189,0.057-0.203-0.045c-0.021-0.174-0.301-1.875,0.025-3.258
		c0.164-0.699,1.102-4.672,1.102-4.672s-0.273-0.545-0.273-1.355c0-1.27,0.736-2.219,1.652-2.219c0.777,0,1.152,0.586,1.152,1.287
		c0,0.785-0.496,1.957-0.756,3.043c-0.215,0.906,0.457,1.648,1.354,1.648c1.621,0,2.715-2.086,2.715-4.557
		c0-1.879-1.266-3.285-3.562-3.285c-2.598,0-4.213,1.939-4.213,4.107c0,0.746,0.221,1.271,0.562,1.68
		c0.158,0.189,0.182,0.264,0.121,0.48c-0.043,0.158-0.133,0.537-0.174,0.688c-0.057,0.215-0.232,0.291-0.428,0.211
		c-1.195-0.488-1.754-1.799-1.754-3.271c0-2.436,2.051-5.354,6.117-5.354c3.27,0,5.422,2.367,5.422,4.908
		C96.359,166.006,94.494,168.514,91.74,168.514z"/>
	<path id="Pintrest_04" fill="#FFFFFF" d="M87.298,135.26c0.014,0.1,0.145,0.123,0.203,0.047c0.082-0.109,1.174-1.457,1.545-2.803
		c0.105-0.383,0.604-2.357,0.604-2.357c0.299,0.568,1.166,1.068,2.092,1.068c2.752,0,4.619-2.512,4.619-5.871
		c0-2.543-2.152-4.91-5.422-4.91c-4.066,0-6.117,2.918-6.117,5.355c0,1.473,0.559,2.783,1.754,3.271
		c0.195,0.08,0.371,0.002,0.428-0.213c0.041-0.15,0.131-0.531,0.174-0.688c0.061-0.217,0.037-0.291-0.121-0.479
		c-0.344-0.408-0.562-0.936-0.562-1.682c0-2.166,1.615-4.105,4.213-4.105c2.299,0,3.562,1.406,3.562,3.285
		c0,2.471-1.094,4.557-2.715,4.557c-0.896,0-1.566-0.742-1.354-1.65c0.26-1.086,0.756-2.258,0.756-3.043
		c0-0.701-0.375-1.287-1.152-1.287c-0.916,0-1.652,0.949-1.652,2.221c0,0.809,0.273,1.354,0.273,1.354s-0.938,3.975-1.102,4.672
		C86.996,133.387,87.275,135.086,87.298,135.26z"/>
	<path id="Pintrest_02" fill="#FFFFFF" d="M105.509,68.209V38.368H75.667v29.841H105.509z M90.939,45.831
		c3.268,0,5.42,2.368,5.42,4.909c0,3.36-1.865,5.873-4.619,5.873c-0.924,0-1.793-0.5-2.092-1.069c0,0-0.496,1.975-0.602,2.355
		c-0.373,1.348-1.463,2.695-1.547,2.804c-0.059,0.078-0.189,0.054-0.203-0.047c-0.021-0.173-0.301-1.873,0.025-3.257
		c0.164-0.697,1.102-4.672,1.102-4.672s-0.273-0.545-0.273-1.354c0-1.271,0.736-2.218,1.652-2.218c0.777,0,1.152,0.584,1.152,1.285
		c0,0.785-0.496,1.957-0.756,3.043c-0.215,0.91,0.457,1.65,1.354,1.65c1.621,0,2.715-2.086,2.715-4.556
		c0-1.879-1.266-3.286-3.562-3.286c-2.598,0-4.213,1.939-4.213,4.105c0,0.746,0.221,1.273,0.562,1.682
		c0.158,0.188,0.182,0.262,0.121,0.477c-0.043,0.16-0.133,0.539-0.174,0.689c-0.057,0.215-0.232,0.292-0.428,0.212
		c-1.195-0.487-1.754-1.799-1.754-3.272C84.822,48.75,86.873,45.831,90.939,45.831z"/>
	<path id="Pintrest_01" fill="#FFFFFF" d="M90.589,1.065c-8.227,0-14.92,6.693-14.92,14.922s6.693,14.92,14.92,14.92
		c8.229,0,14.92-6.691,14.92-14.92C105.509,7.761,98.816,1.065,90.589,1.065z M91.74,19.312c-0.924,0-1.793-0.502-2.092-1.069
		c0,0-0.496,1.976-0.602,2.356c-0.373,1.347-1.463,2.693-1.547,2.803c-0.059,0.078-0.189,0.054-0.203-0.047
		c-0.021-0.174-0.301-1.873,0.025-3.258c0.164-0.697,1.102-4.67,1.102-4.67s-0.273-0.547-0.273-1.354c0-1.272,0.736-2.22,1.652-2.22
		c0.777,0,1.152,0.584,1.152,1.287c0,0.785-0.496,1.957-0.756,3.043c-0.215,0.908,0.457,1.648,1.354,1.648
		c1.621,0,2.715-2.085,2.715-4.557c0-1.877-1.266-3.285-3.562-3.285c-2.598,0-4.213,1.939-4.213,4.105
		c0,0.748,0.221,1.273,0.562,1.682c0.158,0.189,0.182,0.263,0.121,0.479c-0.043,0.158-0.133,0.537-0.174,0.689
		c-0.057,0.215-0.232,0.291-0.428,0.211c-1.195-0.488-1.754-1.799-1.754-3.271c0-2.437,2.051-5.355,6.117-5.355
		c3.27,0,5.422,2.367,5.422,4.91C96.359,16.8,94.494,19.312,91.74,19.312z"/>
	<path id="FB_06" fill="#FFFFFF" d="M17.091,199.866v-1.549c0-0.582,0.385-0.719,0.654-0.719s1.664,0,1.664,0v-2.555l-2.289-0.012
		c-2.549,0-3.125,1.91-3.125,3.129v1.703h-1.475v2.635h1.475c0,3.381,0,7.455,0,7.455h3.096c0,0,0-4.113,0-7.455h2.088l0.27-2.635
		h-2.357V199.866z"/>
	<path id="FB_05" fill="#FFFFFF" d="M19.449,162.565h-2.357v-1.549c0-0.582,0.387-0.719,0.656-0.719s1.664,0,1.664,0v-2.557
		l-2.291-0.01c-2.549,0-3.125,1.908-3.125,3.129v1.705h-1.473v2.633h1.473c0,3.381,0,7.453,0,7.453h3.096c0,0,0-4.111,0-7.453h2.09
		L19.449,162.565z"/>
	<path id="FB_04" fill="#FFFFFF" d="M17.091,125.264v-1.549c0-0.584,0.385-0.719,0.654-0.719s1.664,0,1.664,0v-2.557l-2.289-0.01
		c-2.549,0-3.125,1.908-3.125,3.127v1.707h-1.475v2.633h1.475c0,3.383,0,7.453,0,7.453h3.096c0,0,0-4.111,0-7.453h2.088l0.27-2.633
		H17.091z"/>
	<path id="FB_02" fill="#FFFFFF" d="M1.066,38.368v29.841h29.84V38.368H1.066z M19.179,53.296h-2.088c0,3.34,0,7.453,0,7.453h-3.096
		c0,0,0-4.072,0-7.453h-1.475V50.66h1.475v-1.704c0-1.221,0.576-3.128,3.125-3.128l2.289,0.011v2.555c0,0-1.395,0-1.664,0
		c-0.271,0-0.654,0.137-0.654,0.719v1.548h2.357L19.179,53.296z"/>
	<path id="FB_01" fill="#FFFFFF" d="M15.988,30.907c8.227,0,14.918-6.691,14.918-14.92S24.214,1.065,15.988,1.065
		c-8.229,0-14.922,6.693-14.922,14.922S7.757,30.907,15.988,30.907z M12.523,13.358h1.473v-1.704c0-1.22,0.576-3.128,3.125-3.128
		l2.291,0.01v2.557c0,0-1.396,0-1.664,0c-0.271,0-0.656,0.135-0.656,0.717v1.549h2.357l-0.27,2.635h-2.088c0,3.34,0,7.454,0,7.454
		h-3.096c0,0,0-4.074,0-7.454h-1.475v-2.635H12.523z"/>
	<path fill="#FFFFFF" d="M0-5v5v15.987C0,7.159,7.158,0,15.988,0c8.828,0,15.984,7.158,15.984,15.987
		c0,8.828-7.156,15.986-15.984,15.986C7.158,31.974,0,24.815,0,15.987v21.314h31.973v31.973H0v42.633h31.973v31.972H0v42.33h106.576
		v-21.016c0,8.828-7.158,15.986-15.986,15.986c-8.83,0-15.986-7.158-15.986-15.986s7.156-15.986,15.986-15.986
		c8.828,0,15.986,7.158,15.986,15.986v-21.314H74.603v-31.972h31.973V69.274H74.603V37.302h31.973V15.987
		c0,8.828-7.158,15.986-15.986,15.986c-8.83,0-15.986-7.158-15.986-15.986C74.603,7.158,81.759,0,90.589,0
		s15.986,7.158,15.986,15.987V0v-5H0z M19.179,90.599h-2.088c0,3.338,0,7.453,0,7.453h-3.096c0,0,0-4.074,0-7.453h-1.475v-2.637
		h0.002h1.473v-1.703c0-1.221,0.576-3.129,3.125-3.129l2.291,0.01v2.557c0,0-1.396,0-1.664,0c-0.271,0-0.656,0.137-0.656,0.719
		v1.549h2.357L19.179,90.599z M15.988,181.178c-8.83,0-15.986-7.156-15.986-15.984c0-8.83,7.156-15.986,15.986-15.986
		c8.828,0,15.984,7.156,15.984,15.986C31.972,174.022,24.816,181.178,15.988,181.178z M53.289,181.178
		c-8.83,0-15.986-7.156-15.986-15.984c0-8.83,7.156-15.986,15.986-15.986c8.828,0,15.986,7.156,15.986,15.986
		C69.275,174.02,62.117,181.178,53.289,181.178z M69.275,143.877H37.3v-31.972h31.975V143.877z M46.675,92.181
		c0.217,0.049,0.43,0.065,0.654,0.065c0.322,0,0.631-0.04,0.926-0.125c-1.602-0.353-2.811-1.873-2.811-3.692
		c0-0.016,0-0.037,0-0.052c0.473,0.286,1.014,0.445,1.588,0.47c-0.941-0.668-1.559-1.828-1.559-3.131
		c0-0.693,0.172-1.338,0.475-1.893c1.725,2.273,4.307,3.779,7.209,3.93c-0.062-0.273-0.09-0.562-0.09-0.855
		c0-2.082,1.564-3.769,3.498-3.769c1.002,0,1.918,0.46,2.551,1.194c0.799-0.18,1.551-0.486,2.227-0.915
		c-0.262,0.879-0.816,1.612-1.541,2.081c0.711-0.092,1.379-0.289,2.012-0.592c-0.469,0.75-1.062,1.416-1.744,1.957
		c0.006,0.16,0.008,0.322,0.008,0.481c0,4.978-3.518,10.718-9.951,10.718c-1.979,0-3.814-0.627-5.363-1.699
		c0.271,0.037,0.553,0.052,0.836,0.052c1.641,0,3.146-0.595,4.346-1.61C48.414,94.772,47.119,93.681,46.675,92.181z M69.275,69.274
		H37.3V37.302h31.975V69.274z M53.289,31.974c-8.83,0-15.986-7.158-15.986-15.986C37.302,7.158,44.458,0,53.289,0
		c8.828,0,15.986,7.158,15.986,15.987C69.275,24.815,62.117,31.974,53.289,31.974z M90.939,83.132c3.268,0,5.42,2.368,5.42,4.91
		c0,3.36-1.865,5.872-4.619,5.872c-0.924,0-1.793-0.5-2.092-1.067c0,0-0.496,1.975-0.602,2.355
		c-0.373,1.348-1.463,2.695-1.547,2.803c-0.059,0.079-0.189,0.055-0.203-0.046c-0.021-0.173-0.301-1.872,0.025-3.258
		c0.164-0.696,1.102-4.67,1.102-4.67s-0.273-0.547-0.273-1.354c0-1.271,0.736-2.22,1.652-2.22c0.777,0,1.152,0.584,1.152,1.287
		c0,0.785-0.496,1.955-0.756,3.041c-0.215,0.909,0.457,1.649,1.354,1.649c1.621,0,2.715-2.086,2.715-4.555
		c0-1.879-1.266-3.287-3.562-3.287c-2.598,0-4.213,1.941-4.213,4.106c0,0.747,0.221,1.272,0.562,1.683
		c0.158,0.187,0.182,0.262,0.121,0.477c-0.043,0.158-0.133,0.537-0.174,0.689c-0.057,0.215-0.232,0.293-0.428,0.213
		c-1.195-0.488-1.754-1.801-1.754-3.273C84.822,86.052,86.873,83.132,90.939,83.132z"/>
</g>
</svg>
