<?xml version="1.0" standalone="no"?>
<!DOCTYPE svg PUBLIC "-//W3C//DTD SVG 1.1//EN" "http://www.w3.org/Graphics/SVG/1.1/DTD/svg11.dtd" >
<svg xmlns="http://www.w3.org/2000/svg">
<metadata></metadata>
<defs>
<font id="visitor_tt1_brkregular" horiz-adv-x="1277" >
<font-face units-per-em="2048" ascent="1638" descent="-410" />
<missing-glyph horiz-adv-x="500" />
<glyph unicode="&#xd;" horiz-adv-x="2048" />
<glyph unicode=" " />
<glyph unicode="!" horiz-adv-x="425" d="M0 0h213v213h-213v-213zM0 426h213v639h-213v-639z" />
<glyph unicode="&#x22;" horiz-adv-x="851" d="M0 639h213v426h-213v-426zM426 639h213v426h-213v-426z" />
<glyph unicode="#" d="M0 213h213v-213h213v213h213v-213h213v213h213v213h-213v213h213v213h-213v213h-213v-213h-213v213h-213v-213h-213v-213h213v-213h-213v-213zM426 426v213h213v-213h-213z" />
<glyph unicode="$" d="M0 0h426v-213h213v213h426v639h-852v213h852v213h-426v213h-213v-213h-426v-639h852v-213h-852v-213z" />
<glyph unicode="%" d="M0 0h213v213h-213v-213zM0 639h426v-213h213v-426h426v426h-426v213h-213v426h-426v-426zM213 213h213v213h-213v-213zM639 639h213v213h-213v-213zM852 852h213v213h-213v-213z" />
<glyph unicode="&#x26;" d="M0 0h426v-213h213v213h426v213h-852v213h852v213h-852v213h852v213h-426v213h-213v-213h-426v-1065z" />
<glyph unicode="'" horiz-adv-x="425" d="M0 639h213v426h-213v-426z" />
<glyph unicode="(" horiz-adv-x="638" d="M0 213h213v-213h213v213h-213v639h-213v-639zM213 852h213v213h-213v-213z" />
<glyph unicode=")" horiz-adv-x="638" d="M0 0h213v213h-213v-213zM0 852h213v-639h213v639h-213v213h-213v-213z" />
<glyph unicode="*" d="M0 426h213v213h-213v-213zM0 852h213v-213h213v-213h213v213h213v-213h213v213h-213v213h-213v213h-213v-213h-213v213h-213v-213zM852 852h213v213h-213v-213z" />
<glyph unicode="+" d="M0 426h426v-426h213v426h426v213h-426v426h-213v-426h-426v-213z" />
<glyph unicode="," horiz-adv-x="425" d="M0 -213h213v426h-213v-426z" />
<glyph unicode="-" horiz-adv-x="851" d="M0 426v213h639v-213h-639z" />
<glyph unicode="." horiz-adv-x="425" d="M0 0h213v213h-213v-213z" />
<glyph unicode="/" d="M0 0h213v213h-213v-213zM213 213h213v213h-213v-213zM426 426h213v213h-213v-213zM639 639h213v213h-213v-213zM852 852h213v213h-213v-213z" />
<glyph unicode="0" d="M0 0h1065v1065h-1065v-1065zM213 213v639h639v-639h-639z" />
<glyph unicode="1" horiz-adv-x="638" d="M0 852h213v-852h213v1065h-426v-213z" />
<glyph unicode="2" d="M0 0h1065v213h-852v213h852v639h-1065v-213h852v-213h-852v-639z" />
<glyph unicode="3" d="M0 0h1065v1065h-1065v-213h852v-213h-426v-213h426v-213h-852v-213z" />
<glyph unicode="4" d="M0 426h852v-426h213v1065h-213v-426h-639v426h-213v-639z" />
<glyph unicode="5" d="M0 0h1065v639h-852v213h852v213h-1065v-639h852v-213h-852v-213z" />
<glyph unicode="6" d="M0 0h1065v639h-852v213h852v213h-1065v-1065zM213 213v213h639v-213h-639z" />
<glyph unicode="7" d="M0 852h852v-852h213v1065h-1065v-213z" />
<glyph unicode="8" d="M0 0h1065v1065h-1065v-1065zM213 213v213h639v-213h-639zM213 639v213h639v-213h-639z" />
<glyph unicode="9" d="M0 426h852v-426h213v1065h-1065v-639zM213 639v213h639v-213h-639z" />
<glyph unicode=":" horiz-adv-x="425" d="M0 0h213v213h-213v-213zM0 852h213v213h-213v-213z" />
<glyph unicode=";" horiz-adv-x="425" d="M0 -213h213v426h-213v-426zM0 852h213v213h-213v-213z" />
<glyph unicode="&#x3c;" horiz-adv-x="851" d="M0 426h213v-213h213v-213h213v213h-213v213h-213v213h-213v-213zM213 639h213v213h-213v-213zM426 852h213v213h-213v-213z" />
<glyph unicode="=" d="M0 213v213h1065v-213h-1065zM0 639v213h1065v-213h-1065z" />
<glyph unicode="&#x3e;" horiz-adv-x="851" d="M0 0h213v213h-213v-213zM0 852h213v-213h213v-213h213v213h-213v213h-213v213h-213v-213zM213 213h213v213h-213v-213z" />
<glyph unicode="?" d="M0 852h852v-213h-426v-213h639v639h-1065v-213zM426 0h213v213h-213v-213z" />
<glyph unicode="@" d="M0 0h213v852h639v-213h-426v-639h639v1065h-1065v-1065zM639 213v213h213v-213h-213z" />
<glyph unicode="A" d="M0 0h213v426h639v-426h213v1065h-1065v-1065zM213 639v213h639v-213h-639z" />
<glyph unicode="B" d="M0 0h852v213h-639v213h639v-213h213v639h-213v213h-852v-1065zM213 639v213h639v-213h-639z" />
<glyph unicode="C" d="M0 0h1065v213h-852v639h852v213h-1065v-1065z" />
<glyph unicode="D" d="M0 0h852v213h-639v639h639v-639h213v639h-213v213h-852v-1065z" />
<glyph unicode="E" d="M0 0h1065v213h-852v213h426v213h-426v213h852v213h-1065v-1065z" />
<glyph unicode="F" d="M0 0h213v426h426v213h-426v213h852v213h-1065v-1065z" />
<glyph unicode="G" d="M0 0h1065v639h-639v-213h426v-213h-639v639h852v213h-1065v-1065z" />
<glyph unicode="H" d="M0 0h213v426h639v-426h213v1065h-213v-426h-639v426h-213v-1065z" />
<glyph unicode="I" d="M0 0h1065v213h-426v639h426v213h-1065v-213h426v-639h-426v-213z" />
<glyph unicode="J" d="M0 0h1065v1065h-213v-852h-639v213h-213v-426z" />
<glyph unicode="K" d="M0 0h213v426h426v-213h213v-213h213v213h-213v213h-213v213h-426v426h-213v-1065zM639 639h213v213h-213v-213zM852 852h213v213h-213v-213z" />
<glyph unicode="L" d="M0 0h1065v213h-852v852h-213v-1065z" />
<glyph unicode="M" d="M0 0h213v639h213v-213h213v213h-213v213h-213v213h-213v-1065zM639 639h213v-639h213v1065h-213v-213h-213v-213z" />
<glyph unicode="N" d="M0 0h213v639h213v-213h213v-213h213v-213h213v1065h-213v-639h-213v213h-213v213h-213v213h-213v-1065z" />
<glyph unicode="O" d="M0 0h1065v1065h-1065v-1065zM213 213v639h639v-639h-639z" />
<glyph unicode="P" d="M0 0h213v426h852v426h-213v213h-852v-1065zM213 639v213h639v-213h-639z" />
<glyph unicode="Q" d="M0 0h426v-213h213v213h426v1065h-1065v-1065zM213 213v639h639v-639h-213v213h-213v-213h-213z" />
<glyph unicode="R" d="M0 0h213v426h426v-213h213v-213h213v213h-213v213h213v426h-213v213h-852v-1065zM213 639v213h639v-213h-639z" />
<glyph unicode="S" d="M0 0h1065v639h-852v213h852v213h-1065v-639h852v-213h-852v-213z" />
<glyph unicode="T" d="M0 852h426v-852h213v852h426v213h-1065v-213z" />
<glyph unicode="U" d="M0 0h1065v1065h-213v-852h-639v852h-213v-1065z" />
<glyph unicode="V" d="M0 426h213v-213h213v-213h213v213h-213v213h-213v639h-213v-639zM639 213h213v213h-213v-213zM852 426h213v639h-213v-639z" />
<glyph unicode="W" d="M0 0h213v213h213v213h-213v639h-213v-1065zM426 426h213v-213h213v-213h213v1065h-213v-639h-213v213h-213v-213z" />
<glyph unicode="X" d="M0 0h213v213h-213v-213zM0 852h213v-213h213v-213h213v-213h213v-213h213v213h-213v213h-213v213h-213v213h-213v213h-213v-213zM213 213h213v213h-213v-213zM639 639h213v213h-213v-213zM852 852h213v213h-213v-213z" />
<glyph unicode="Y" d="M0 426h426v-426h213v426h426v639h-213v-426h-639v426h-213v-639z" />
<glyph unicode="Z" d="M0 0h1065v213h-639v213h-213v-213h-213v-213zM0 852h639v-213h213v213h213v213h-1065v-213zM426 426h213v213h-213v-213z" />
<glyph unicode="[" horiz-adv-x="638" d="M0 0h426v213h-213v639h213v213h-426v-1065z" />
<glyph unicode="\" d="M0 852h213v-213h213v-213h213v-213h213v-213h213v213h-213v213h-213v213h-213v213h-213v213h-213v-213z" />
<glyph unicode="]" horiz-adv-x="638" d="M0 0h426v1065h-426v-213h213v-639h-213v-213z" />
<glyph unicode="^" horiz-adv-x="851" d="M0 639h213v213h-213v-213zM213 852h213v-213h213v213h-213v213h-213v-213z" />
<glyph unicode="_" d="M0 -211h1065v-213h-1065v213z" />
<glyph unicode="`" horiz-adv-x="425" d="M0 639h213v426h-213v-426z" />
<glyph unicode="a" d="M0 0h213v426h639v-426h213v1065h-1065v-1065zM213 639v213h639v-213h-639z" />
<glyph unicode="b" d="M0 0h1065v426h-213v213h213v426h-1065v-1065zM213 213v213h639v-213h-639zM213 639v213h639v-213h-639z" />
<glyph unicode="c" d="M0 0h1065v213h-852v639h852v213h-1065v-1065z" />
<glyph unicode="d" d="M0 0h852v213h-639v639h639v-639h213v639h-213v213h-852v-1065z" />
<glyph unicode="e" d="M0 0h1065v213h-852v213h426v213h-426v213h852v213h-1065v-1065z" />
<glyph unicode="f" d="M0 0h213v426h426v213h-426v213h852v213h-1065v-1065z" />
<glyph unicode="g" d="M0 0h1065v639h-639v-213h426v-213h-639v639h852v213h-1065v-1065z" />
<glyph unicode="h" d="M0 0h213v426h639v-426h213v1065h-213v-426h-639v426h-213v-1065z" />
<glyph unicode="i" horiz-adv-x="425" d="M0 0h213v1065h-213v-1065z" />
<glyph unicode="j" d="M0 0h1065v1065h-213v-852h-639v213h-213v-426z" />
<glyph unicode="k" d="M0 0h213v426h426v-213h213v-213h213v213h-213v213h-213v213h-426v426h-213v-1065zM639 639h213v213h-213v-213zM852 852h213v213h-213v-213z" />
<glyph unicode="l" d="M0 0h1065v213h-852v852h-213v-1065z" />
<glyph unicode="m" d="M0 0h213v852h213v-852h213v852h213v-852h213v1065h-1065v-1065z" />
<glyph unicode="n" d="M0 0h213v852h639v-852h213v1065h-1065v-1065z" />
<glyph unicode="o" d="M0 0h1065v1065h-1065v-1065zM213 213v639h639v-639h-639z" />
<glyph unicode="p" d="M0 0h213v426h852v639h-1065v-1065zM213 639v213h639v-213h-639z" />
<glyph unicode="q" d="M0 0h426v-213h213v213h426v1065h-1065v-1065zM213 213v639h639v-639h-213v213h-213v-213h-213z" />
<glyph unicode="r" d="M0 0h213v426h426v-213h213v-213h213v213h-213v213h213v639h-1065v-1065zM213 639v213h639v-213h-639z" />
<glyph unicode="s" d="M0 0h1065v639h-852v213h852v213h-1065v-639h852v-213h-852v-213z" />
<glyph unicode="t" d="M0 852h426v-852h213v852h426v213h-1065v-213z" />
<glyph unicode="u" d="M0 0h1065v1065h-213v-852h-639v852h-213v-1065z" />
<glyph unicode="v" d="M0 426h213v-213h213v-213h213v213h-213v213h-213v639h-213v-639zM639 213h213v213h-213v-213zM852 426h213v639h-213v-639z" />
<glyph unicode="w" d="M0 0h1065v1065h-213v-852h-213v852h-213v-852h-213v852h-213v-1065z" />
<glyph unicode="x" d="M0 0h213v213h-213v-213zM0 852h213v-213h213v-213h213v-213h213v-213h213v213h-213v213h-213v213h-213v213h-213v213h-213v-213zM213 213h213v213h-213v-213zM639 639h213v213h-213v-213zM852 852h213v213h-213v-213z" />
<glyph unicode="y" d="M0 852h213v-213h213v-639h213v639h-213v213h-213v213h-213v-213zM639 639h213v213h-213v-213zM852 852h213v213h-213v-213z" />
<glyph unicode="z" d="M0 0h1065v213h-639v213h-213v-213h-213v-213zM0 852h639v-213h213v213h213v213h-1065v-213zM426 426h213v213h-213v-213z" />
<glyph unicode="{" horiz-adv-x="851" d="M0 426h213v-426h426v213h-213v639h213v213h-426v-426h-213v-213z" />
<glyph unicode="|" horiz-adv-x="425" d="M0 -426h213v1917h-213v-1917z" />
<glyph unicode="}" horiz-adv-x="851" d="M0 0h426v426h213v213h-213v426h-426v-213h213v-639h-213v-213z" />
<glyph unicode="~" d="M0 426h213v213h213v-426h639v426h-213v-213h-213v426h-639v-426z" />
<glyph d="M0 0h1065v1065h-1065v-1065zM213 213v639h639v-639h-639zM426 426h213v213h-213v-213z" />
<glyph d="M0 0h1065v1065h-1065v-1065zM213 213v639h639v-639h-639zM426 426h213v213h-213v-213z" />
<glyph d="M0 0h1065v1065h-1065v-1065zM213 213v639h639v-639h-639zM426 426h213v213h-213v-213z" />
<glyph d="M0 0h1065v1065h-1065v-1065zM213 213v639h639v-639h-639zM426 426h213v213h-213v-213z" />
<glyph d="M0 0h1065v1065h-1065v-1065zM213 213v639h639v-639h-639zM426 426h213v213h-213v-213z" />
<glyph d="M0 0h1065v1065h-1065v-1065zM213 213v639h639v-639h-639zM426 426h213v213h-213v-213z" />
<glyph d="M0 0h1065v1065h-1065v-1065zM213 213v639h639v-639h-639zM426 426h213v213h-213v-213z" />
<glyph d="M0 0h1065v1065h-1065v-1065zM213 213v639h639v-639h-639zM426 426h213v213h-213v-213z" />
<glyph d="M0 0h1065v1065h-1065v-1065zM213 213v639h639v-639h-639zM426 426h213v213h-213v-213z" />
<glyph unicode="&#xa0;" />
<glyph unicode="&#xa1;" horiz-adv-x="425" d="M0 0h213v639h-213v-639zM0 852h213v213h-213v-213z" />
<glyph unicode="&#xa2;" d="M0 0h426v-213h213v213h426v213h-852v639h852v213h-426v213h-213v-213h-426v-1065z" />
<glyph unicode="&#xa3;" d="M0 0h1065v213h-639v213h213v213h-213v213h426v-213h213v213h-213v213h-852v-213h213v-213h-213v-213h213v-213h-213v-213z" />
<glyph unicode="&#xa4;" d="M0 0h213v213h-213v-213zM0 852h213v213h-213v-213zM213 213h639v-213h213v213h-213v639h-639v-639zM426 426v213h213v-213h-213zM852 852h213v213h-213v-213z" />
<glyph unicode="&#xa5;" d="M0 639h213v-213h213v-213h-213v-213h639v213h-213v213h213v213h213v426h-213v-213h-639v213h-213v-426z" />
<glyph unicode="&#xa6;" horiz-adv-x="425" d="M0 -426h213v852h-213v-852zM0 639h213v852h-213v-852z" />
<glyph unicode="&#xa7;" d="M0 0v-213h1065v1065h-852v213h852v213h-1065v-1065h852v-213h-852zM213 426v213h639v-213h-639z" />
<glyph unicode="&#xa8;" d="M0 1065v426h426v-426h-426zM639 1065v426h426v-426h-426z" />
<glyph unicode="&#xa9;" d="M0 0h213v-213h639v213h-639v213h639v-213h213v1065h-213v213h-639v-213h639v-213h-639v213h-213v-1065zM426 426v213h426v-213h-426z" />
<glyph unicode="&#xaa;" horiz-adv-x="638" d="M0 639h426v852h-426v-213h213v-213h-213v-426z" />
<glyph unicode="&#xab;" d="M0 426h213v-213h213v213h-213v213h-213v-213zM213 639h213v213h-213v-213zM639 426h213v-213h213v213h-213v213h-213v-213zM852 639h213v213h-213v-213z" />
<glyph unicode="&#xac;" d="M0 639v213h1065v-426h-213v213h-852z" />
<glyph unicode="&#xad;" d="M0 426v213h1065v-213h-1065z" />
<glyph unicode="&#xae;" d="M0 0h213v-213h639v213h-639v213h213v213h213v-213h213v-213h213v1065h-213v213h-639v-213h-213v-1065zM213 852v213h639v-213h-639zM639 426v213h213v-213h-213z" />
<glyph unicode="&#xaf;" d="M0 1278v213h1065v-213h-1065z" />
<glyph unicode="&#xb0;" horiz-adv-x="851" d="M0 852h639v639h-639v-639zM213 1065v213h213v-213h-213z" />
<glyph unicode="&#xb1;" d="M0 0h1065v213h-1065v-213zM0 639h426v-213h213v213h426v213h-426v213h-213v-213h-426v-213z" />
<glyph unicode="&#xb2;" horiz-adv-x="851" d="M0 639v426h426v-213h213v-213h-639zM0 1278v213h639v-426h-213v213h-426z" />
<glyph unicode="&#xb3;" horiz-adv-x="851" d="M0 639h639v852h-639v-213h213v-213h213v-213h-426v-213z" />
<glyph unicode="&#xb4;" horiz-adv-x="638" d="M0 1065h213v213h-213v-213zM213 1278h213v213h-213v-213z" />
<glyph unicode="&#xb5;" d="M0 0h1065v1065h-213v-852h-639v852h-213v-1065zM0 0v-426h213v426h-213z" />
<glyph unicode="&#xb6;" d="M0 426h426v-426h213v852h213v-852h213v1065h-1065v-639z" />
<glyph unicode="&#xb7;" horiz-adv-x="851" d="M0 213v639h639v-639h-639z" />
<glyph unicode="&#xb8;" horiz-adv-x="638" d="M0 -213v-213h426v426h-213v-213h-213z" />
<glyph unicode="&#xb9;" horiz-adv-x="638" d="M0 1065h213v-426h213v852h-213v-213h-213v-213z" />
<glyph unicode="&#xba;" horiz-adv-x="851" d="M0 639h639v852h-639v-852zM213 852v426h213v-426h-213z" />
<glyph unicode="&#xbb;" d="M0 213h213v213h-213v-213zM0 639h213v-213h213v213h-213v213h-213v-213zM639 213h213v213h-213v-213zM639 639h213v-213h213v213h-213v213h-213v-213z" />
<glyph unicode="&#xbc;" d="M0 0h213v213h-213v-213zM0 426h213v-213h213v-213h426v-213h213v852h-213v213h-213v-213h213v-426h-213v426h-213v-213h-213v852h-213v-852zM852 852h213v213h-213v-213z" />
<glyph unicode="&#xbd;" d="M0 0h213v213h-213v-213zM0 426h213v-213h213v-426h639v213h-213v213h-426v213h-213v852h-213v-852zM426 426h426v-213h213v426h-213v213h-213v-213h-213v-213zM852 852h213v213h-213v-213z" />
<glyph unicode="&#xbe;" d="M0 0h213v213h-213v-213zM0 426h213v-213h213v-213h426v-213h213v852h-213v213h-213v426h-639v-213h213v-213h213v-213h-426v-213zM639 213v426h213v-426h-213zM852 852h213v213h-213v-213z" />
<glyph unicode="&#xbf;" d="M0 0h1065v213h-852v213h426v213h-639v-639zM426 852h213v213h-213v-213z" />
<glyph unicode="&#xc0;" d="M0 0h213v426h639v-426h213v1065h-426v213h-213v213h-213v-213h213v-213h-426v-1065zM213 639v213h639v-213h-639z" />
<glyph unicode="&#xc1;" d="M0 0h213v426h639v-426h213v1065h-426v213h-213v-213h-426v-1065zM213 639v213h639v-213h-639zM639 1278h213v213h-213v-213z" />
<glyph unicode="&#xc2;" d="M0 0h213v426h639v-426h213v1065h-213v213h-213v213h-213v-213h-213v-213h-213v-1065zM213 639v213h639v-213h-639zM426 1065v213h213v-213h-213z" />
<glyph unicode="&#xc3;" d="M0 0h213v426h639v-426h213v1491h-213v-213h-213v213h-639v-1491zM213 639v213h639v-213h-639zM213 1065v213h213v-213h-213z" />
<glyph unicode="&#xc4;" d="M0 0h213v426h639v-426h213v1491h-426v-426h-213v426h-426v-1491zM213 639v213h639v-213h-639z" />
<glyph unicode="&#xc5;" d="M0 0h213v426h639v-426h213v1065h-213v426h-639v-426h-213v-1065zM213 639v213h639v-213h-639zM426 1065v213h213v-213h-213z" />
<glyph unicode="&#xc6;" d="M0 0h213v426h213v-426h639v213h-426v213h426v213h-426v213h426v213h-1065v-1065zM213 639v213h213v-213h-213z" />
<glyph unicode="&#xc7;" d="M0 0h426v-213h-213v-213h426v426h426v213h-852v639h852v213h-1065v-1065z" />
<glyph unicode="&#xc8;" d="M0 0h1065v213h-852v213h426v213h-426v213h852v213h-426v213h-213v213h-213v-213h213v-213h-426v-1065z" />
<glyph unicode="&#xc9;" d="M0 0h1065v213h-852v213h426v213h-426v213h852v213h-426v213h-213v-213h-426v-1065zM639 1278h213v213h-213v-213z" />
<glyph unicode="&#xca;" d="M0 0h1065v213h-852v213h426v213h-426v213h852v213h-213v213h-213v213h-213v-213h-213v-213h-213v-1065zM426 1065v213h213v-213h-213z" />
<glyph unicode="&#xcb;" d="M0 0h1065v213h-852v213h426v213h-426v213h852v639h-426v-426h-213v426h-426v-1491z" />
<glyph unicode="&#xcc;" d="M0 0h1065v213h-426v639h426v213h-426v213h-213v213h-213v-213h213v-213h-426v-213h426v-639h-426v-213z" />
<glyph unicode="&#xcd;" d="M0 0h1065v213h-426v639h426v213h-426v213h-213v-213h-426v-213h426v-639h-426v-213zM639 1278h213v213h-213v-213z" />
<glyph unicode="&#xce;" d="M0 0h1065v213h-426v639h426v213h-213v213h-213v213h-213v-213h-213v-213h-213v-213h426v-639h-426v-213zM426 1065v213h213v-213h-213z" />
<glyph unicode="&#xcf;" d="M0 0h1065v213h-426v639h426v639h-426v-426h-213v426h-426v-639h426v-639h-426v-213z" />
<glyph unicode="&#xd0;" d="M0 0h852v213h-639v213h213v213h-213v213h639v-639h213v639h-213v213h-852v-1065z" />
<glyph unicode="&#xd1;" d="M0 0h213v639h213v-213h213v-213h213v-213h213v1491h-213v-213h-213v213h-639v-1491zM213 852v426h213v-213h426v-639h-213v213h-213v213h-213z" />
<glyph unicode="&#xd2;" d="M0 0h1065v1065h-426v213h-213v213h-213v-213h213v-213h-426v-1065zM213 213v639h639v-639h-639z" />
<glyph unicode="&#xd3;" d="M0 0h1065v1065h-426v213h-213v-213h-426v-1065zM213 213v639h639v-639h-639zM639 1278h213v213h-213v-213z" />
<glyph unicode="&#xd4;" d="M0 0h1065v1065h-213v213h-213v213h-213v-213h-213v-213h-213v-1065zM213 213v639h639v-639h-639zM426 1065v213h213v-213h-213z" />
<glyph unicode="&#xd5;" d="M0 0h1065v1491h-213v-213h-213v213h-639v-1491zM213 213v639h639v-639h-639zM213 1065v213h213v-213h-213z" />
<glyph unicode="&#xd6;" d="M0 0h1065v1491h-426v-426h-213v426h-426v-1491zM213 213v639h639v-639h-639z" />
<glyph unicode="&#xd7;" horiz-adv-x="851" d="M0 213h213v213h-213v-213zM0 639h213v-213h213v-213h213v213h-213v213h-213v213h-213v-213zM426 639h213v213h-213v-213z" />
<glyph unicode="&#xd8;" d="M0 0h1065v1065h-1065v-1065zM213 426v426h426v-213h213v-426h-426v213h-213zM426 426h213v213h-213v-213z" />
<glyph unicode="&#xd9;" d="M0 0h1065v1065h-213v-852h-639v852h-213v-1065zM213 1278h213v-213h213v213h-213v213h-213v-213z" />
<glyph unicode="&#xda;" d="M0 0h1065v1065h-213v-852h-639v852h-213v-1065zM426 1065h213v213h-213v-213zM639 1278h213v213h-213v-213z" />
<glyph unicode="&#xdb;" d="M0 0h1065v1065h-213v213h-213v213h-213v-213h213v-213h213v-852h-639v852h-213v-1065zM213 1065h213v213h-213v-213z" />
<glyph unicode="&#xdc;" d="M0 0h1065v1491h-426v-426h213v-852h-639v852h213v426h-426v-1491z" />
<glyph unicode="&#xdd;" d="M0 426h426v-426h213v426h426v639h-213v-426h-639v426h-213v-639zM426 1065h213v213h-213v-213zM639 1278h213v213h-213v-213z" />
<glyph unicode="&#xde;" d="M0 -213h213v213h639v213h-639v639h639v-639h213v639h-213v213h-639v213h-213v-1491z" />
<glyph unicode="&#xdf;" d="M0 0h213v426h639v-213h-426v-213h639v426h-213v213h-639v213h639v-213h213v426h-1065v-1065z" />
<glyph unicode="&#xe0;" d="M0 0h213v426h639v-426h213v1065h-426v213h-213v213h-213v-213h213v-213h-426v-1065zM213 639v213h639v-213h-639z" />
<glyph unicode="&#xe1;" d="M0 0h213v426h639v-426h213v1065h-426v213h-213v-213h-426v-1065zM213 639v213h639v-213h-639zM639 1278h213v213h-213v-213z" />
<glyph unicode="&#xe2;" d="M0 0h213v426h639v-426h213v1065h-213v213h-213v213h-213v-213h-213v-213h-213v-1065zM213 639v213h639v-213h-639zM426 1065v213h213v-213h-213z" />
<glyph unicode="&#xe3;" d="M0 0h213v426h639v-426h213v1491h-213v-213h-213v213h-639v-1491zM213 639v213h639v-213h-639zM213 1065v213h213v-213h-213z" />
<glyph unicode="&#xe4;" d="M0 0h213v426h639v-426h213v1491h-426v-426h-213v426h-426v-1491zM213 639v213h639v-213h-639z" />
<glyph unicode="&#xe5;" d="M0 0h213v426h639v-426h213v1065h-213v426h-639v-426h-213v-1065zM213 639v213h639v-213h-639zM426 1065v213h213v-213h-213z" />
<glyph unicode="&#xe6;" d="M0 0h213v426h213v-426h639v213h-426v213h426v213h-426v213h426v213h-1065v-1065zM213 639v213h213v-213h-213z" />
<glyph unicode="&#xe7;" d="M0 0h426v-213h-213v-213h426v426h426v213h-852v639h852v213h-1065v-1065z" />
<glyph unicode="&#xe8;" d="M0 0h1065v213h-852v213h426v213h-426v213h852v213h-426v213h-213v213h-213v-213h213v-213h-426v-1065z" />
<glyph unicode="&#xe9;" d="M0 0h1065v213h-852v213h426v213h-426v213h852v213h-426v213h-213v-213h-426v-1065zM639 1278h213v213h-213v-213z" />
<glyph unicode="&#xea;" d="M0 0h1065v213h-852v213h426v213h-426v213h852v213h-213v213h-213v213h-213v-213h-213v-213h-213v-1065zM426 1065v213h213v-213h-213z" />
<glyph unicode="&#xeb;" d="M0 0h1065v213h-852v213h426v213h-426v213h852v639h-426v-426h-213v426h-426v-1491z" />
<glyph unicode="&#xec;" horiz-adv-x="638" d="M0 0h213v1065h-213v-1065zM0 1278h213v-213h213v213h-213v213h-213v-213z" />
<glyph unicode="&#xed;" horiz-adv-x="638" d="M0 1065h213v-1065h213v1065h-213v213h-213v-213zM213 1278h213v213h-213v-213z" />
<glyph unicode="&#xee;" horiz-adv-x="851" d="M0 1065h213v-1065h213v1065h-213v213h-213v-213zM213 1278h213v-213h213v213h-213v213h-213v-213z" />
<glyph unicode="&#xef;" horiz-adv-x="851" d="M0 1065h213v-1065h213v1065h-213v426h-213v-426zM426 1065h213v426h-213v-426z" />
<glyph unicode="&#xf0;" d="M0 0h852v213h-639v213h213v213h-213v213h639v-639h213v639h-213v213h-852v-1065z" />
<glyph unicode="&#xf1;" d="M0 0h213v852h639v-852h213v1491h-213v-213h-213v213h-639v-1491zM213 1065v213h213v-213h-213z" />
<glyph unicode="&#xf2;" d="M0 0h1065v1065h-426v213h-213v213h-213v-213h213v-213h-426v-1065zM213 213v639h639v-639h-639z" />
<glyph unicode="&#xf3;" d="M0 0h1065v1065h-426v213h-213v-213h-426v-1065zM213 213v639h639v-639h-639zM639 1278h213v213h-213v-213z" />
<glyph unicode="&#xf4;" d="M0 0h1065v1065h-213v213h-213v213h-213v-213h-213v-213h-213v-1065zM213 213v639h639v-639h-639zM426 1065v213h213v-213h-213z" />
<glyph unicode="&#xf5;" d="M0 0h1065v1491h-213v-213h-213v213h-639v-1491zM213 213v639h639v-639h-639zM213 1065v213h213v-213h-213z" />
<glyph unicode="&#xf6;" d="M0 0h1065v1491h-426v-426h-213v426h-426v-1491zM213 213v639h639v-639h-639z" />
<glyph unicode="&#xf7;" horiz-adv-x="851" d="M0 426h639v213h-639v-213zM213 0h213v213h-213v-213zM213 852h213v213h-213v-213z" />
<glyph unicode="&#xf8;" d="M0 0h1065v1065h-1065v-1065zM213 426v426h426v-213h213v-426h-426v213h-213zM426 426h213v213h-213v-213z" />
<glyph unicode="&#xf9;" d="M0 0h1065v1065h-213v-852h-639v852h-213v-1065zM213 1278h213v-213h213v213h-213v213h-213v-213z" />
<glyph unicode="&#xfa;" d="M0 0h1065v1065h-213v-852h-639v852h-213v-1065zM426 1065h213v213h-213v-213zM639 1278h213v213h-213v-213z" />
<glyph unicode="&#xfb;" d="M0 0h1065v1065h-213v213h-213v213h-213v-213h213v-213h213v-852h-639v852h-213v-1065zM213 1065h213v213h-213v-213z" />
<glyph unicode="&#xfc;" d="M0 0h1065v1491h-426v-426h213v-852h-639v852h213v426h-426v-1491z" />
<glyph unicode="&#xfd;" d="M0 852h213v-213h213v-639h213v639h-213v213h-213v213h-213v-213zM426 1065h213v213h-213v-213zM639 639h213v213h-213v-213zM639 1278h213v213h-213v-213zM852 852h213v213h-213v-213z" />
<glyph unicode="&#xfe;" d="M0 -426h213v426h639v213h-639v639h639v-639h213v639h-213v213h-639v426h-213v-1917z" />
<glyph unicode="&#xff;" d="M0 852h213v-213h213v-639h213v639h-213v213h-213v213h213v426h-426v-639zM639 639h213v213h-213v-213zM639 1065h213v-213h213v639h-426v-426z" />
<glyph unicode="&#x152;" d="M0 0h1065v213h-426v213h426v213h-426v213h426v213h-1065v-1065zM213 213v639h213v-639h-213z" />
<glyph unicode="&#x153;" d="M0 0h1065v213h-426v213h426v213h-426v213h426v213h-1065v-1065zM213 213v639h213v-639h-213z" />
<glyph unicode="&#x178;" d="M0 426h426v-426h213v426h426v1065h-426v-426h213v-426h-639v426h213v426h-426v-1065z" />
<glyph unicode="&#x2c6;" horiz-adv-x="851" d="M0 1065h213v213h-213v-213zM213 1278h213v-213h213v213h-213v213h-213v-213z" />
<glyph unicode="&#x2dc;" d="M0 1065h213v213h213v-213h639v426h-213v-213h-213v213h-639v-426z" />
<glyph unicode="&#x2000;" horiz-adv-x="745" />
<glyph unicode="&#x2001;" horiz-adv-x="1491" />
<glyph unicode="&#x2002;" horiz-adv-x="745" />
<glyph unicode="&#x2003;" horiz-adv-x="1491" />
<glyph unicode="&#x2004;" horiz-adv-x="497" />
<glyph unicode="&#x2005;" horiz-adv-x="372" />
<glyph unicode="&#x2006;" horiz-adv-x="248" />
<glyph unicode="&#x2007;" horiz-adv-x="248" />
<glyph unicode="&#x2008;" horiz-adv-x="186" />
<glyph unicode="&#x2009;" horiz-adv-x="298" />
<glyph unicode="&#x200a;" horiz-adv-x="82" />
<glyph unicode="&#x2010;" horiz-adv-x="851" d="M0 426v213h639v-213h-639z" />
<glyph unicode="&#x2011;" horiz-adv-x="851" d="M0 426v213h639v-213h-639z" />
<glyph unicode="&#x2012;" horiz-adv-x="851" d="M0 426v213h639v-213h-639z" />
<glyph unicode="&#x2013;" horiz-adv-x="638" d="M0 426v213h426v-213h-426z" />
<glyph unicode="&#x2014;" horiz-adv-x="1064" d="M0 426v213h852v-213h-852z" />
<glyph unicode="&#x2018;" horiz-adv-x="425" d="M0 1065h213v426h-213v-426z" />
<glyph unicode="&#x2019;" horiz-adv-x="425" d="M0 1065h213v426h-213v-426z" />
<glyph unicode="&#x201a;" horiz-adv-x="425" d="M0 -213h213v426h-213v-426z" />
<glyph unicode="&#x201c;" horiz-adv-x="851" d="M0 1065h213v426h-213v-426zM426 1065h213v426h-213v-426z" />
<glyph unicode="&#x201d;" horiz-adv-x="851" d="M0 1065h213v426h-213v-426zM426 1065h213v426h-213v-426z" />
<glyph unicode="&#x201e;" horiz-adv-x="851" d="M0 -213h213v426h-213v-426zM426 -213h213v426h-213v-426z" />
<glyph unicode="&#x2022;" d="M0 426h213v-213h213v-213h213v213h213v213h213v213h-213v213h-213v213h-213v-213h-213v-213h-213v-213z" />
<glyph unicode="&#x2026;" d="M0 0h213v213h-213v-213zM426 0h213v213h-213v-213zM852 0h213v213h-213v-213z" />
<glyph unicode="&#x202f;" horiz-adv-x="298" />
<glyph unicode="&#x2039;" horiz-adv-x="638" d="M0 426h213v-213h213v213h-213v213h-213v-213zM213 639h213v213h-213v-213z" />
<glyph unicode="&#x203a;" horiz-adv-x="638" d="M0 213h213v213h-213v-213zM0 639h213v-213h213v213h-213v213h-213v-213z" />
<glyph unicode="&#x205f;" horiz-adv-x="372" />
<glyph unicode="&#x2122;" d="M0 426v-852h213v426h213v-213h213v213h-213v213h-213v213h-213zM0 1278h426v-639h213v639h426v213h-1065v-213zM639 0h213v-426h213v852h-213v-213h-213v-213z" />
<glyph unicode="&#xe000;" horiz-adv-x="1064" d="M0 0v1065h1065v-1065h-1065z" />
</font>
</defs>
</svg>
