<?xml version="1.0" standalone="no"?>
<!DOCTYPE svg PUBLIC "-//W3C//DTD SVG 1.1//EN" "http://www.w3.org/Graphics/SVG/1.1/DTD/svg11.dtd" >
<svg xmlns="http://www.w3.org/2000/svg">
<metadata></metadata>
<defs>
<font id="abraham_lincolnregular" horiz-adv-x="816" >
<font-face units-per-em="2048" ascent="1536" descent="-512" />
<missing-glyph horiz-adv-x="394" />
<glyph horiz-adv-x="2048" />
<glyph horiz-adv-x="2048" />
<glyph unicode="&#xd;" horiz-adv-x="2048" />
<glyph unicode=" "  horiz-adv-x="394" />
<glyph unicode="&#x09;" horiz-adv-x="394" />
<glyph unicode="&#xa0;" horiz-adv-x="394" />
<glyph unicode="!" horiz-adv-x="251" d="M39 91q0 35 26 61t63 26t63 -26t26 -61q0 -37 -26 -63t-63 -26t-63 26t-26 63zM39 1467q0 37 26 62t63 25t63 -25t26 -62q0 -6 -3 -57t-8 -128t-10 -175t-9 -195q-15 -235 -33 -528h-48q-21 292 -32 528q-6 97 -13 195t-11 175t-7.5 128t-3.5 57z" />
<glyph unicode="&#x22;" horiz-adv-x="493" d="M58 1459q0 37 18.5 61.5t58.5 24.5q37 0 56.5 -24.5t19.5 -61.5q0 -38 -13.5 -68t-21.5 -73q-4 -20 -7.5 -49.5t-5.5 -52.5q-4 -31 -7 -61h-21h-19q-5 31 -10 61q-4 24 -7.5 53t-7.5 49q-6 43 -19.5 73t-13.5 68zM286 1459q0 37 18.5 61.5t58.5 24.5q37 0 56.5 -24.5 t19.5 -61.5q0 -38 -14.5 -68t-20.5 -73q-4 -20 -7.5 -49.5t-5.5 -52.5q-4 -31 -9 -61h-19h-22q-4 31 -9 61q-4 24 -6.5 53t-6.5 49q-6 43 -19.5 73t-13.5 68z" />
<glyph unicode="#" horiz-adv-x="814" d="M21 610v67h213l56 298h-203v65h215l96 516h49l-93 -516h187l95 516h50l-93 -516h206v-65h-219l-54 -298h205v-67h-217l-112 -608h-50l110 608h-189l-110 -608h-53l114 608h-203zM286 677h190l54 298h-189z" />
<glyph unicode="$" horiz-adv-x="650" d="M43 1249q0 43 19 92t50 90t78.5 72.5t111.5 39.5v118h50v-113h39q58 -7 101.5 -35t68.5 -72.5t31.5 -94.5t-2 -91t-35.5 -67t-68 -26q-44 0 -70 26t-26 65q0 29 19.5 53t49.5 34q4 0 9 2q28 8 33.5 36.5t-11.5 58.5q-19 29 -55 50t-84 21v-638q0 -2 2 -6 q63 -81 110.5 -151.5t82.5 -138.5t50.5 -142t5.5 -159q-4 -51 -18 -100t-44.5 -91.5t-77 -72.5t-111.5 -38v-118h-50v118q-10 0 -19.5 1.5t-17.5 1.5q-91 16 -140 79t-62 131t15 123.5t94 55.5q39 0 67 -26t28 -68q0 -26 -20.5 -52t-51.5 -35q-6 0 -8 -2q-29 -6 -34.5 -33 t12.5 -58q19 -33 53 -53.5t84 -20.5v650q-78 89 -128 168t-79.5 151.5t-40.5 136.5t-11 128zM130 1290q0 -43 11 -82.5t30.5 -78.5t52.5 -84.5t78 -104.5v560q-76 -9 -125 -64t-47 -146zM352 21q78 15 130 73t56 149q3 37 -0.5 70t-25 71.5t-58.5 93t-102 127.5v-584z" />
<glyph unicode="%" horiz-adv-x="902" d="M48 1077v290q0 50 16.5 85t42 59t58 33.5t65.5 9.5h2h4q54 -2 105.5 -25t99.5 -36.5t93.5 -4t90.5 65.5h54l-399 -1562h-54q85 329 161 621q31 124 64 251.5t62.5 242.5t53 210.5t40.5 154.5q-17 -8 -38.5 -18t-49.5 -13.5t-62 3t-73 28.5q24 -43 24 -102v-293 q0 -37 -16.5 -69.5t-41.5 -57t-57 -38t-63 -13.5q-33 0 -65.5 11.5t-58 34.5t-42 57t-16.5 75zM141 1114q0 -104 23 -146t66 -42q41 0 64 41.5t23 146.5v226q0 104 -23 142t-64 38q-43 0 -66 -38t-23 -142v-226zM495 174v288q0 50 17.5 85t42.5 59t57 33.5t63 9.5t64.5 -9.5 t58.5 -32.5t42.5 -58t17.5 -85v-290q0 -37 -19 -72t-42.5 -59t-57 -37.5t-64.5 -13.5t-63 12.5t-57 34t-42.5 56.5t-17.5 79zM586 209q0 -106 23 -147t66 -41q44 0 66.5 40.5t22.5 147.5v226q0 103 -22.5 140.5t-66.5 37.5q-43 0 -66 -37.5t-23 -140.5v-226z" />
<glyph unicode="&#x26;" horiz-adv-x="1599" d="M54 495q-6 149 31 261t97.5 185.5t133.5 113t140 47.5q-48 44 -58.5 120t14.5 148t86.5 126t159.5 58t150 -27t67 -70.5t-1 -75t-58 -37.5q-41 -2 -50.5 17.5t-9.5 43.5t-1 51t-24 44q-35 17 -75.5 12.5t-75.5 -30.5t-55.5 -76.5t-16.5 -122.5q6 -72 38 -106.5t67 -47.5 q39 -15 89 -13v-50q-50 -2 -107 -13q-48 -9 -105.5 -27.5t-107.5 -55.5q-52 -35 -87.5 -86t-57.5 -115.5t-32 -139t-8 -151.5q2 -76 31 -153.5t79.5 -139t124.5 -99.5t163 -40q91 -3 178 28.5t152 88t106.5 127t41.5 145.5q0 108 -38.5 190.5t-98.5 128.5 q-91 -11 -175 -15.5t-153.5 -15.5t-117 -34.5t-67.5 -73.5q-31 -74 -24 -132t35 -100t69.5 -66t84.5 -24h12h19h23.5h19.5q35 6 37.5 24.5t-9.5 34.5l-7.5 7.5l-7.5 7.5q-19 28 -20 58q0 41 28.5 70t70.5 29q41 0 70 -29t29 -70q0 -17 -10 -41q-19 -56 -60 -88.5t-87.5 -46 t-96.5 -10t-87 14.5q-74 27 -118 99t-44 159t47.5 170.5t151.5 133.5q48 25 100 31l-2 2h8l2 1q1 1 3 1q42 9 100 17.5t108 12.5q65 6 128 14q150 24 251 68t160.5 100.5t82.5 120t16 119.5q-6 47 -30 89.5t-59.5 73t-81 43.5t-88.5 7q-98 -13 -140.5 -61t-49.5 -102.5 t9.5 -105.5t40.5 -70q4 -3 10 -7l12 -8q2 0 4 -2q-2 0 -2 1t-2 1q4 -2 7.5 -4.5t7.5 -2.5q-4 3 -6.5 3t-4.5 2q39 -15 52 -0.5t6 36.5q0 4 -1 8.5t-3 9.5q-4 15 -4 23q0 41 29 71t68 30q42 0 70 -30t28 -71q0 -60 -50 -85q-43 -31 -97 -40.5t-102 6t-83 58t-41 118.5 q-6 79 25 134t84.5 86t120 39t129.5 -10.5t111 -63t73 -114.5q19 -67 17.5 -141t-33.5 -144.5t-96 -133t-162 -108.5q-67 -35 -137.5 -53.5t-144.5 -24.5q58 -54 92 -129.5t34 -168.5q0 -112 -45.5 -196t-114 -142.5t-152 -88t-155.5 -31.5q-76 -4 -176 16.5t-191 74.5 t-157.5 152.5t-72.5 247.5z" />
<glyph unicode="'" horiz-adv-x="205" d="M17 1469q0 37 18.5 64.5t59.5 27.5q37 0 57 -27.5t20 -64.5t-14.5 -65t-20.5 -72q-5 -21 -7 -49t-6 -54q-4 -31 -8 -61h-21h-21q-4 31 -9 61q-5 26 -8 54t-5 49q-4 44 -19.5 72.5t-15.5 64.5z" />
<glyph unicode="(" horiz-adv-x="350" d="M70 247v1051q0 81 21 128.5t58.5 76t87 35.5t106.5 7v-43q-70 0 -117.5 -51t-47.5 -144v-1071q0 -93 47.5 -143t117.5 -50v-47q-56 0 -106 9.5t-87.5 34.5t-58.5 76t-21 131z" />
<glyph unicode=")" horiz-adv-x="346" d="M8 -2v48q70 0 118 48.5t48 143.5v1071q0 93 -48 144t-118 51v44q57 0 107 -7.5t85.5 -35.5t57.5 -76t22 -131v-1048q0 -80 -22 -131.5t-57.5 -76.5t-85.5 -34.5t-107 -9.5z" />
<glyph unicode="*" horiz-adv-x="505" d="M34 1223q3 21 24 34q9 2 30.5 8.5t49 12t57 13t50.5 14.5q-21 6 -50.5 14.5t-57 14.5t-49 11t-30.5 10q-21 12 -24 33t3 41q13 19 34.5 25.5t40.5 -6.5q7 -4 23.5 -20.5t35 -37t39 -42.5t40.5 -37q-4 25 -13 53t-17.5 55t-15.5 48.5t-7 32.5q0 19 16.5 34.5t38.5 15.5 q21 0 37.5 -15t16.5 -35q0 -11 -5 -32.5t-14 -48.5t-17.5 -55t-12.5 -53q19 15 39.5 37t39 42.5t33.5 37t24 20.5q19 13 41 6.5t30 -25.5q13 -19 6.5 -40.5t-25.5 -33.5q-6 -5 -28 -10t-49 -11t-56.5 -14.5t-50.5 -14.5q21 -7 50.5 -14.5t56.5 -13t49 -12t28 -8.5 q19 -13 26 -33.5t-7 -40.5q-8 -21 -30 -26t-41 7q-8 4 -23.5 19t-35 35.5t-40.5 42.5t-37 37q4 -24 12.5 -53t17.5 -55t14 -46.5t5 -29.5q0 -21 -16.5 -38t-37.5 -17t-38 16.5t-17 38.5q0 9 7 30.5t15.5 47.5t17 54t13.5 52q-19 -14 -40 -36.5t-39.5 -43t-34.5 -35.5 t-24 -19q-19 -11 -40.5 -6.5t-34.5 25.5q-6 19 -3 40z" />
<glyph unicode="+" horiz-adv-x="715" d="M6 597v65h319v317h66v-317h321v-65h-321v-324h-66v324h-319z" />
<glyph unicode="," horiz-adv-x="263" d="M52 87q0 35 25 60t58 25q21 0 38.5 -10t27.5 -23v-2l4 -2q26 -35 26.5 -81t-16 -97.5t-46.5 -98.5t-71 -84l-38 9q44 52 68 89t29.5 64t-5.5 43.5t-34 26.5q-7 2 -20 7v2q-46 19 -46 72z" />
<glyph unicode="-" horiz-adv-x="489" d="M76 576v84h341v-84h-341z" />
<glyph unicode="." horiz-adv-x="277" d="M52 95q4 37 32 59t63 20q37 -4 61 -33t20 -63q-4 -37 -32.5 -59.5t-65.5 -18.5q-35 4 -58.5 31t-19.5 64z" />
<glyph unicode="/" horiz-adv-x="462" d="M4 -2q110 434 201 777q37 147 72.5 286.5t64.5 249.5t46 177l18 66h52l-398 -1556h-56z" />
<glyph unicode="0" horiz-adv-x="709" d="M58 742q0 191 14.5 340t48 251t90 154t141.5 52q87 0 143 -46.5t91 -143t49 -244.5t14 -351q0 -205 -17 -350t-53 -238.5t-92.5 -138t-134.5 -44.5q-76 0 -131.5 43.5t-91.5 135.5t-53.5 235.5t-17.5 344.5zM209 762q0 -186 4 -322t19 -226t43.5 -133.5t76.5 -43.5 t76 43.5t43.5 133.5t20.5 226t5 322q0 185 -4 320.5t-19.5 223.5t-43.5 131.5t-78 43.5q-48 0 -76.5 -43.5t-43.5 -131.5t-19 -223.5t-4 -320.5z" />
<glyph unicode="1" horiz-adv-x="350" d="M31 0v56q19 -6 39 0q13 2 25.5 16.5t12.5 45.5v1230q0 33 -12.5 46t-25.5 17q-19 6 -39 0v54q41 2 77 14q29 10 54 26.5t25 44.5h70v-117v-1315q0 -31 8 -45.5t17 -16.5q13 -6 31 0v-56h-282z" />
<glyph unicode="2" horiz-adv-x="763" d="M60 2q0 50 7 100q4 43 15 95.5t36 102.5q19 48 50 98.5t65 99.5t66.5 93.5t60.5 77.5q48 56 76 123.5t42.5 139t16.5 147.5t0 152q-2 62 -5 115.5t-19.5 92t-48 60t-84.5 21.5q-56 0 -94.5 -26.5t-63.5 -62.5q-17 -37 -12.5 -71t37.5 -45q8 0 10 -2q35 -8 59 -36t24 -68 q0 -47 -32 -80t-77 -33q-50 0 -80.5 33t-42.5 80.5t-2 107t37 111t76 90t116 52.5q101 17 177.5 -6t124 -76t69.5 -125.5t20 -155.5q-2 -56 -10.5 -121t-32.5 -133.5t-67.5 -142.5t-113.5 -148q-130 -140 -217 -271.5t-121 -274.5q43 62 97 72.5t108.5 -4t105.5 -44.5 t89 -42q51 -20 74 -1t32 48q10 37 10 87h66q8 -65 -2 -120q-9 -45 -46 -85t-118 -48q-69 -7 -111.5 7t-75 34.5t-59.5 39t-64 18.5q-39 0 -59 -11t-30 -28q-13 -19 -15 -37h-64z" />
<glyph unicode="3" horiz-adv-x="735" d="M64 234q-10 56 2 103t41.5 77.5t79.5 30.5q45 0 77 -31.5t32 -77.5q0 -37 -24.5 -64t-58.5 -38q-2 -2 -8 -2q-35 -8 -39.5 -42t12.5 -68q24 -35 62 -60t94 -25q54 0 84.5 20.5t46 57.5t21 88t7.5 114v129.5t-12 128.5t-36 104.5t-70 64.5q-6 2 -26.5 3.5t-42.5 1.5 q-28 0 -61 -2v59q35 -3 61 -3q22 0 42.5 1.5t26.5 5.5q44 15 67.5 60.5t36 106.5t13.5 129t1 129q-2 62 -7.5 113.5t-21 90t-45.5 59t-85 20.5q-56 0 -94.5 -25.5t-61.5 -59.5q-17 -37 -12.5 -69t39.5 -42q2 -2 8 -2q35 -9 59 -37t24 -67q0 -44 -32 -75t-77 -31 q-50 0 -79.5 30t-41.5 78t-2 104t37 106.5t75 87t114 50.5q15 4 28.5 6t31.5 4q159 0 243 -109.5t84 -292.5q0 -58 -13 -122t-37 -119.5t-56.5 -98t-69.5 -59.5q77 -33 126.5 -139t49.5 -276q0 -80 -21.5 -149.5t-64 -120.5t-103.5 -81t-138 -30q-17 0 -30.5 2t-29.5 6 q-64 13 -113 51t-76 89t-37 107z" />
<glyph unicode="4" horiz-adv-x="700" d="M6 528v65l448 957h82v-970h129v-52h-129v-410q0 -33 9.5 -46.5t18.5 -15.5q11 -6 31 0v-56h-284v56q19 -6 37 0q15 2 27 15.5t12 46.5v410h-381zM58 580h329v705z" />
<glyph unicode="5" horiz-adv-x="717" d="M62 245.5q-10 58.5 2 106.5t41.5 79t78.5 31q46 0 77.5 -32t31.5 -78q0 -39 -24 -67t-58 -38q-2 -2 -10 -2q-35 -11 -38.5 -44.5t13.5 -70.5q26 -35 63 -61t93 -26q54 0 84.5 22t46 60t21 90t7.5 117q2 28 2 59.5v64.5v37.5v44.5t-1 45.5t-1 37.5q-2 63 -7.5 116t-21 91 t-45.5 59.5t-85 21.5q-56 0 -93.5 -25.5t-62.5 -60.5l-9 -17h-47v755q99 0 177 -11t135 -17.5t89 2t39 45.5h50q2 -37 -9 -74q-11 -30 -33.5 -60.5t-74.5 -47.5q-35 -10 -79.5 -13.5t-88 -2.5t-86 5.5t-72.5 10.5v-493q29 21 73.5 42t107.5 21q78 0 138.5 -30.5t103 -82.5 t64 -124.5t21.5 -154.5v-201q0 -82 -21.5 -154t-64 -123.5t-103.5 -83t-138 -31.5q-17 2 -30.5 4t-29.5 7q-64 12 -113 51.5t-76 90.5t-37 109.5z" />
<glyph unicode="6" horiz-adv-x="758" d="M60.5 773q-2.5 113 3.5 222.5t19 185.5q12 76 36 149.5t67.5 128t112 85t172.5 20.5q64 -7 110.5 -42t69 -83.5t25.5 -104.5t-12 -102.5t-48.5 -76.5t-81.5 -30q-45 0 -78 32t-33 76q0 39 23 69t58 40q6 0 8 2q35 11 48 39t3 56t-39 51t-83 23q-52 0 -86 -38t-55.5 -99 t-32 -132.5t-17.5 -138.5q-2 -52 -4.5 -128t-2.5 -165q65 104 169 93q52 -4 106.5 -39t98 -99.5t67.5 -157.5t18 -207q-5 -89 -24.5 -156.5t-52.5 -115.5q-6 -19 -24 -37q-46 -56 -102 -85q-21 -12 -42.5 -20.5t-44.5 -8.5q-78 0 -136.5 32t-98.5 87.5t-64 127.5t-30 145 q-7 76 -13.5 182.5t-9 219.5zM243 660q2 -54 3 -107.5t3.5 -102t5 -89t6.5 -61.5q15 -120 27 -180t55 -77q29 -8 57 -12q66 -5 101 84.5t48 294.5q6 106 -2.5 189t-28 139.5t-48.5 84.5t-62 30q-52 5 -96.5 -38.5t-68.5 -154.5z" />
<glyph unicode="7" horiz-adv-x="721" d="M54 1301v253h219q48 0 83 -11.5t62 -26t52 -28.5t60 -14q37 0 56 12t31 24q8 20 11 40h68q3 -46 -2 -102q-4 -48 -10.5 -109t-16.5 -123q-13 -70 -31.5 -121t-45 -97.5t-61 -98.5t-75.5 -122q-44 -70 -58 -156.5t-13 -170t10 -157.5t9 -117q4 -87 -27.5 -142t-76.5 -55 q-21 0 -45.5 6.5t-46.5 27t-37 60t-20 109.5q-4 70 12.5 157.5t53.5 186.5t96.5 202t142.5 198q62 79 98 156.5t54.5 145.5t22 122t3.5 87q-44 -60 -94.5 -76.5t-104.5 -6t-103.5 34.5t-86.5 38q-50 19 -76 1.5t-37 -45.5q-10 -33 -10 -82h-66z" />
<glyph unicode="8" horiz-adv-x="729" d="M56 1164q-2 28 0 57.5t11 58.5q8 35 26.5 86t51.5 94.5t83 75.5t122 32q70 0 124 -29t89.5 -69.5t53 -89t15.5 -93.5q-4 -133 -60 -243t-135 -209q149 -169 198 -310t18 -271q-13 -45 -31.5 -88.5t-46.5 -79.5t-68.5 -62t-96.5 -35q-10 -4 -19 -4h-20h-6h-7q-12 -2 -33 2 q-45 5 -80.5 18.5t-64.5 37.5q-67 55 -95 141q-7 31 -9 61q-6 62 -0.5 122t26 122t62 127.5t103.5 141.5q-104 118 -155.5 212t-55.5 194zM156 253q7 -77 63 -145q27 -26 66.5 -44t79.5 -18h2q39 2 79.5 20t61.5 46q62 72 59 149t-38.5 151.5t-91 138.5t-101.5 114l-11 12 q-43 -52 -86.5 -122.5t-66.5 -147.5t-16 -154zM161 1303.5q0 -77.5 32.5 -152t84.5 -144t99 -121.5q44 56 85.5 130t63 149.5t14 150t-61.5 134.5q-21 21 -54 38.5t-76 17.5q-46 0 -78 -18t-53 -42q-56 -65 -56 -142.5z" />
<glyph unicode="9" horiz-adv-x="763" d="M60 1120q9 106 34.5 184.5t64.5 130.5l4 4v3q2 4 3 5t4 5q32 35 68 64q29 24 60.5 38t64.5 16q78 2 136.5 -32t97.5 -90t63 -126.5t32 -147.5q7 -74 10.5 -170.5t2.5 -200.5t-6 -207t-15 -186q-5 -24 -14.5 -66t-28 -92.5t-48 -101t-70.5 -91t-95.5 -60.5t-121.5 -18 q-66 6 -111.5 41.5t-69 84.5t-27 104.5t12 102t50 78t82.5 31.5q43 0 76 -33.5t33 -78.5q0 -40 -23 -68t-58 -36q-2 0 -4 -1t-6 -1q-33 -13 -44.5 -40.5t-3 -57t38.5 -52t82 -22.5q54 0 87 37.5t53.5 97.5t31 131.5t18.5 141.5q2 19 4 51t3 67.5t2 71.5t1 68 q-70 -83 -165 -76q-56 5 -114 35t-103.5 92t-72.5 155.5t-19 214.5zM222 1114q-9 -115 1.5 -195.5t30 -135t51 -79.5t66.5 -25q50 -4 92.5 28.5t70.5 121.5q0 62 -2 127t-4 121t-6 100.5t-8 73.5q-6 54 -12.5 101.5t-18.5 82t-36 55t-68 20.5q-35 0 -62 -21.5t-45 -67 t-30 -122.5t-20 -185z" />
<glyph unicode=":" horiz-adv-x="298" d="M60 271q0 37 26 63t66 26q37 0 61.5 -26t24.5 -63q0 -39 -24.5 -64t-61.5 -25q-40 0 -66 25t-26 64zM60 762q0 39 26 64t66 25q37 0 61.5 -25t24.5 -64t-24.5 -64t-61.5 -25q-40 0 -66 25t-26 64z" />
<glyph unicode=";" horiz-adv-x="273" d="M46 265q0 37 26 61t60 24q44 0 69 -31v-2q3 0 4 -4q26 -33 27.5 -82t-15 -101t-48.5 -101.5t-76 -88.5l-39 8q46 56 70.5 95.5t30.5 66.5t-6 44.5t-33 25.5q-5 2 -11.5 3t-11.5 4q-19 10 -33 30.5t-14 47.5zM48 754q0 37 27 63t64 26q39 0 65 -26t26 -63t-26 -64.5 t-65 -27.5q-37 0 -64 27.5t-27 64.5z" />
<glyph unicode="&#x3c;" d="M2 636v43l754 261v-45q-94 -31 -190.5 -63.5t-188 -66.5t-170.5 -60t-140 -47q60 -19 139.5 -47.5t171 -60.5t188 -66.5t190.5 -64.5v-46z" />
<glyph unicode="=" horiz-adv-x="856" d="M76 458v66h705v-66h-705zM76 806v66h705v-66h-705z" />
<glyph unicode="&#x3e;" horiz-adv-x="824" d="M70 379v46q93 31 189.5 66t187.5 66t171.5 58t137.5 50q-56 19 -137 46t-172 59.5t-187.5 66t-189.5 64.5v46l753 -263v-44z" />
<glyph unicode="?" horiz-adv-x="652" d="M28 1321q7 53 36 99.5t75.5 84.5t112.5 47q72 13 146 0q62 -9 107.5 -46t73.5 -85.5t41.5 -108t13.5 -118.5q0 -77 -17.5 -142.5t-50 -127.5t-71.5 -121t-83 -115q-33 -39 -52 -81.5t-37 -90.5q-17 -47 -21 -91q-2 -24 -2 -48h-43q-20 85 -8 184t51 175q15 35 35.5 70 t40 68t37 67t26.5 72q21 83 18 170t-18 170q-9 64 -39.5 107.5t-101.5 43.5q-58 0 -95.5 -25t-59.5 -60q-19 -37 -13.5 -70.5t37.5 -41.5q3 -2 11 -2q33 -9 49 -25t16 -56q0 -45 -26 -73t-70 -28q-45 0 -75.5 28t-40.5 72.5t-3 97.5zM191 87q2 37 30 60t63 18 q37 -4 61 -32.5t20 -62.5q-5 -37 -32 -60t-64 -18q-37 4 -59.5 32t-18.5 63z" />
<glyph unicode="@" horiz-adv-x="1432" d="M56 560q0 161 55.5 289t150 218.5t218 140t260.5 49.5q132 0 252 -49.5t209 -134.5t140 -201t51 -253q0 -104 -47 -200t-133 -152q-22 -13 -50.5 -21t-59.5 -9t-61 4.5t-53 15.5q-54 21 -85 77.5t-26 112.5q-15 -35 -41 -68t-59 -61t-70.5 -46t-83.5 -18q-85 0 -138 47 t-69 121.5t4.5 171t85.5 203.5q62 100 135 142.5t141.5 43.5t125 -31t86.5 -71l-4 -26q11 27 17 49t14 43l114 -5q-41 -136 -74 -248q-13 -47 -24.5 -94t-20.5 -87t-13 -70.5t0 -40.5q4 -21 11 -47.5t26 -37.5q26 -13 56.5 -14t59.5 6.5t55 23t40 34.5q39 54 64 124.5 t25 138.5q0 124 -48 229t-130.5 182t-190 121.5t-227.5 44.5t-222.5 -55.5t-176.5 -144.5t-115 -206t-39 -241q0 -96 16.5 -185t62 -158.5t128 -111.5t219.5 -45q70 -2 117 13.5t76 30.5q35 24 54 50l31 -52q-29 -31 -66 -50q-33 -21 -81.5 -36.5t-122.5 -15.5 q-271 0 -420 144t-149 416zM544 541.5q1 -63.5 19.5 -114t51 -73t80 -10.5t106.5 73q27 30 49 52t40 41q9 28 18.5 65.5t21.5 78t26 84t26 82.5q-20 27 -58 66.5t-89.5 56t-107.5 -7t-108 -121.5q-41 -62 -58.5 -135.5t-16.5 -137z" />
<glyph unicode="A" horiz-adv-x="831" d="M31 0v54q19 -4 39 0q17 4 31.5 17.5t20.5 44.5q0 2 10.5 63.5t29 162.5t42.5 229t48 262l130 712h111q62 -397 112 -710q21 -134 41.5 -262t36.5 -229t27 -163.5t11 -64.5q4 -31 18.5 -44.5t31.5 -17.5t39 0v-54h-319v54q19 -4 35 0q10 4 18.5 17.5t4.5 44.5 q0 4 -11.5 76.5t-29.5 191.5h-278q-21 -120 -33.5 -192t-12.5 -76q-6 -31 1.5 -44.5t19.5 -17.5t33 0v-54h-207zM238 441h263q-12 89 -28.5 191t-33 205t-32.5 200.5t-30 180.5q-17 -83 -34.5 -180.5t-36 -200.5t-36 -205t-32.5 -191z" />
<glyph unicode="B" horiz-adv-x="731" d="M60 2v54q15 -6 27 0q11 4 20 18.5t9 45.5v1311q0 31 -9 44.5t-20 18.5q-11 4 -27 0v54h335q77 0 131 -24t88.5 -64.5t51 -90t16.5 -101.5v-207q0 -72 -20 -124.5t-47 -88.5t-58 -54.5t-58 -18.5q25 0 56 -17.5t59 -53t48 -91t20 -131.5v-184q0 -58 -22 -112t-56.5 -95 t-75.5 -66t-81 -25h-206q-83 0 -181 2zM265 52h91q58 0 112 35t70 118q5 19 7 39.5t2 43.5v196q0 44 -6 80q0 4 -3 7v5q-2 10 -4 22t-6 23q-24 65 -67.5 95.5t-89.5 30.5h-106v-695zM265 801h106q48 0 89 21t66 81q4 11 5 22t5 22q0 6 2 10q5 25 7 51t2 58v245 q0 56 -18.5 94.5t-41.5 59.5q-22 15 -48.5 22t-56.5 11h-117v-697z" />
<glyph unicode="C" horiz-adv-x="731" d="M60 527.5v245.5q0 188 2.5 313.5t18.5 207.5q8 70 44 122.5t86 85.5q81 50 164 50h21t21 -2l-5 4q13 -4 18 -4q50 -11 80.5 -26.5t51.5 -25.5q17 -7 31 0q26 15 26 56q4 0 6.5 -1t4.5 -1h41v-380h-48q-2 35 -6 72q-4 31 -12 67.5t-25 71.5q-4 9 -18.5 30.5t-39.5 42.5 q-25 20 -62 34q-26 9 -57 10q-14 0 -28 -2q-35 -4 -64 -17.5t-52 -41.5t-35.5 -73.5t-12.5 -112.5q0 -91 -1 -218.5t-1 -261.5q0 -137 1 -265.5t1 -219.5q0 -136 46.5 -193.5t115.5 -57.5q56 0 102.5 15t78.5 50t49.5 92.5t17.5 141.5v59h50v-111q1 -141 -77 -219 q-76 -76 -212 -76h-7q-67 0 -135 33.5t-112 99.5q-28 41 -42 94t-20 130t-6 181.5z" />
<glyph unicode="D" horiz-adv-x="791" d="M67 -2v56q15 -4 28 0q11 4 20 17.5t9 44.5v1315q0 31 -9 44.5t-20 18.5q-12 4 -28 0v54h333q82 0 143.5 -27t103 -72t62 -101.5t20.5 -114.5v-918q0 -58 -20.5 -115t-62 -101.5t-103 -71.5t-143.5 -27h-18.5t-40.5 -1t-53 -1h-60h-161zM273 58h131q37 5 75.5 21t67.5 53 q35 50 37 137v1011q0 40 -11 77q-14 45 -41.5 72t-60 41.5t-66.5 17.5t-59 3h-73v-1433z" />
<glyph unicode="E" horiz-adv-x="731" d="M58 0v56q17 -6 27 0q10 2 20.5 16.5t10.5 45.5v1317q0 33 -10.5 47t-20.5 18q-9 4 -27 0v52h607v-228h-58q-2 50 -12 89q-11 33 -36 62t-68 29h-226v-703h152q28 0 43.5 15t21.5 35q9 25 9 54h50v-267h-50q0 31 -9 52q-6 21 -21.5 37.5t-43.5 16.5h-152v-692h226 q43 0 68 26t36 61q10 39 12 89h58v-228h-607z" />
<glyph unicode="F" horiz-adv-x="713" d="M58 0v56q17 -6 27 0q10 2 21.5 16.5t11.5 45.5v1317q0 33 -11.5 47t-21.5 18q-9 4 -27 0v52h626v-228h-56q-3 50 -13 89q-11 33 -35.5 62t-69.5 29h-243v-698h85q112 0 127.5 17.5t21.5 36.5q9 24 9 56h50v-269h-50q0 32 -9 55q-6 21 -21.5 38.5t-127.5 17.5h-85v-640 q0 -31 8.5 -45.5t17.5 -16.5q12 -6 28 0v-56h-263z" />
<glyph unicode="G" horiz-adv-x="765" d="M78 526.5v248.5q0 191 2.5 318t19.5 210q8 72 45 124t87 86q81 49 168 51h20t21 -3l-4 3q4 0 8 -1.5t9 -1.5q50 -10 80 -26.5t52 -26.5q15 -8 33 0q11 7 18 18t7 30h55v-377h-50q0 35 -7 72q-4 31 -12.5 68.5t-26.5 74.5q-4 8 -18 30t-38.5 42.5t-62.5 35.5q-24 9 -52 9 q-15 0 -32 -3q-35 -4 -66.5 -16.5t-54 -42.5t-36 -75.5t-13.5 -114.5v-486v-485q0 -139 49 -197t119 -58q34 0 64 6q37 13 58 33.5t30.5 54.5t11.5 79.5t2 108.5v338q2 17 -4 31q-5 10 -17.5 21.5t-38.5 11.5h-85v58l337 -2v-56q-15 4 -25 0q-8 -5 -14.5 -17t-6.5 -40v-660 h-52q0 36 -36 36q-21 0 -53 -12q-71 -39 -160 -39h-9q-70 0 -139.5 33.5t-113.5 99.5q-28 41 -42 95t-20.5 131t-6.5 182.5z" />
<glyph unicode="H" horiz-adv-x="882" d="M63 0v56q17 -6 26 0q11 2 21 16.5t10 45.5v1317q0 33 -10 47t-21 18q-8 4 -26 0v52h260v-52q-15 4 -27 0q-9 -4 -18 -18.5t-9 -46.5v-632h332v632q0 33 -9.5 47t-18.5 18q-10 4 -28 0v52h263v-52q-17 4 -31 0q-9 -4 -17 -18.5t-8 -46.5v-1317q0 -31 8 -45.5t17 -16.5 q14 -6 31 0v-56h-263v56q17 -6 28 0q9 2 18.5 16.5t9.5 45.5v634h-332v-634q0 -31 8.5 -45.5t18.5 -16.5q12 -6 27 0v-56h-260z" />
<glyph unicode="I" horiz-adv-x="344" d="M41 0v56q17 -6 31 0q6 2 16 16.5t10 45.5v1317q0 33 -10 47t-16 18q-13 4 -31 0v52h263v-52q-17 4 -28 0q-9 -4 -19 -18.5t-10 -46.5v-1317q0 -31 10 -45.5t19 -16.5q10 -6 28 0v-56h-263z" />
<glyph unicode="J" horiz-adv-x="727" d="M18 324q6 55 38.5 92.5t84.5 37.5q46 0 79.5 -31.5t33.5 -76.5q0 -40 -23.5 -68t-58.5 -40q-5 -2 -11 -2q-35 -10 -39 -47q-1 -6 -1 -12q0 -31 19 -64q21 -39 68 -67q32 -19 72 -19q18 0 37 4q43 8 71.5 32t46 60t24.5 81.5t12 95.5v71v1064q0 33 -9.5 47t-20.5 18t-27 0 v52h263v-52q-19 4 -30 0q-9 -4 -18.5 -18.5t-9.5 -46.5v-901h2v-42t-2 -45v-17v-20t-2 -19q-4 -89 -18.5 -160.5t-47.5 -124t-86 -85t-137 -40.5h-20q-74 0 -128 27q-62 31 -100.5 83t-53.5 115q-10 44 -10 84q0 17 2 34z" />
<glyph unicode="K" horiz-adv-x="902" d="M67 0v56q17 -4 31 0q10 4 21 17.5t11 44.5v1317q0 31 -11 45t-21 18q-13 4 -31 0v54h302v-54q-19 4 -33 0q-13 -4 -22.5 -18.5t-9.5 -44.5v-741q29 61 64.5 135t71.5 150t70.5 149t63.5 131.5t47.5 98.5t22.5 49q20 37 14.5 55.5t-20.5 26.5q-17 9 -45 9v54h256v-54 q-26 0 -50 -9q-21 -8 -45.5 -26.5t-41.5 -55.5q-2 -7 -24.5 -55.5t-58.5 -122.5t-79.5 -164t-85.5 -177q13 -37 38.5 -103t54.5 -144.5t61.5 -159.5t59 -148.5t44.5 -113t20 -49.5q17 -50 37 -74t37 -33q19 -11 35 -7v-54h-343v54q24 -4 41 7q13 9 21 33q3 8 3 19 q0 22 -11 55q-4 12 -26 62t-52 120.5t-63.5 154t-60.5 164.5q-17 -39 -32 -69.5t-24 -48.5v-435q0 -31 9.5 -44.5t22.5 -17.5t33 0v-56h-302z" />
<glyph unicode="L" horiz-adv-x="674" d="M58 0v56q17 -6 27 0q10 2 21.5 16.5t11.5 45.5v1317q0 33 -11.5 47t-21.5 18q-9 4 -27 0v52h263v-52q-17 4 -31 0q-8 -4 -16.5 -18.5t-8.5 -46.5v-1379h204q45 0 69 25t35 60q11 37 13 87h56v-228h-584z" />
<glyph unicode="M" horiz-adv-x="967" d="M65 0v58q17 -6 26 0q11 2 21 16.5t10 45.5v1315q0 33 -10 47t-21 18q-8 4 -26 0v52h213l217 -823l207 823h203v-52q-17 4 -31 0q-8 -4 -16.5 -18.5t-8.5 -46.5v-1317q0 -31 8.5 -45.5t16.5 -16.5q13 -6 31 0v-56h-263v56q17 -6 27 0q10 2 21.5 16.5t11.5 45.5v1191 q-56 -226 -103 -406q-19 -76 -36.5 -150t-33 -132.5t-24 -95t-8.5 -38.5h-91q-13 49 -30.5 113.5t-35 132.5t-35 135.5t-32.5 132.5q-39 151 -78 308v-1189q0 -31 8 -45.5t19 -16.5q12 -6 28 0v-58h-185z" />
<glyph unicode="N" horiz-adv-x="870" d="M58 0v56q17 -4 31 0q11 4 22 17.5t11 44.5v1315q0 31 -11 44.5t-22 18.5q-13 4 -31 0v54h222l385 -1320v1203q0 31 -11.5 44.5t-21.5 18.5q-13 4 -31 0v54h192v-54q-19 4 -33 0q-11 -5 -21 -19t-10 -44v-1433h-182l-360 1247v-1129q0 -31 10 -44.5t20 -17.5q13 -4 33 0 v-56h-192z" />
<glyph unicode="O" horiz-adv-x="742" d="M67 527.5v245.5q0 188 2.5 313.5t19.5 207.5q9 70 43.5 122.5t84.5 85.5q81 50 165 50q41 0 84.5 -13t80.5 -37q50 -33 86 -86t42 -122q15 -82 18 -207.5t3 -313.5v-245.5t-5 -181.5t-19 -130t-42 -94q-44 -65 -111 -99t-137 -34q-67 0 -135.5 33.5t-111.5 99.5 q-29 41 -43 94t-19.5 130t-5.5 181.5zM217 288q0 -136 42.5 -193.5t124.5 -57.5t122.5 57.5t40.5 193.5v219.5t2 265.5q-2 134 -2 261.5v218.5q0 137 -47.5 191t-117.5 54t-117.5 -54t-47.5 -191v-480v-485z" />
<glyph unicode="P" horiz-adv-x="765" d="M58 0v56q17 -6 27 0q10 2 21.5 16.5t11.5 45.5v1317q0 33 -11.5 47t-21.5 18q-9 4 -27 0v52h319q81 0 143 -26t103.5 -71.5t62 -102.5t20.5 -117q2 -52 2 -118.5t-2 -115.5q0 -59 -20.5 -116.5t-62 -103t-103.5 -71.5t-143 -26h-110v-566q0 -31 8.5 -45.5t17.5 -16.5 q12 -6 28 0v-56h-263zM267 742h124q19 0 46 11t52 38t43.5 66.5t18.5 97.5v328q0 56 -18.5 97t-43.5 65t-52 38.5t-46 14.5h-124v-756z" />
<glyph unicode="Q" horiz-adv-x="783" d="M63 276v994q0 80 27.5 137.5t68 95.5t93 55.5t104.5 17.5q54 0 105 -16.5t93.5 -54.5t69.5 -95t27 -138v-996q0 -83 -45.5 -148t-108.5 -104q17 -43 35.5 -77t47.5 -42q21 -5 40.5 2.5t34 25t24 43.5t9.5 53h24q13 0 28 -3q0 -49 -19 -91q-15 -37 -52 -64 q-32 -24 -88 -24q-8 0 -17 1q-35 3 -59.5 14.5t-44 31t-33 44.5t-23.5 49q-11 -2 -23 -3t-25 -1q-80 0 -157 46v2q-58 35 -97 96.5t-39 148.5zM193 334q0 -74 9 -127t28 -89q19 33 53 48q27 11 55 11q8 0 16 -1q39 -2 65 -27t45 -58q29 33 43.5 92.5t14.5 150.5v890 q0 85 -12.5 141t-35 89t-53 47.5t-65.5 14.5q-37 0 -66 -14.5t-51 -47.5t-34 -89t-12 -141v-890zM259 74q39 -41 97 -41q19 0 31 4q-13 33 -28.5 57t-39.5 26q-26 0 -39 -13.5t-21 -32.5z" />
<glyph unicode="R" horiz-adv-x="781" d="M48 0v56q15 -6 26 0q11 2 20.5 16.5t9.5 45.5v1319q0 31 -9.5 46t-20.5 19q-10 2 -26 0v52h310q81 0 142.5 -27t102.5 -70.5t62 -99.5t21 -118v-236q0 -85 -43.5 -165t-134.5 -119q124 -50 124 -191v-348q0 -56 7.5 -96.5t48.5 -40.5q15 0 24 4.5l17 8.5v-48 q-12 -10 -32 -19.5t-53 -9.5q-28 0 -56 10.5t-52 34.5t-40 62t-18 94v356q0 48 -13 77t-34 44.5t-44.5 21t-43.5 7.5h-89v-568q0 -31 8.5 -45.5t17.5 -16.5q13 -6 28 0v-56h-260zM254 747h117q19 0 46.5 12t52.5 36.5t43.5 65t18.5 96.5v330q0 54 -18.5 94t-43.5 66.5 t-52 39.5t-47 13h-117v-753z" />
<glyph unicode="S" horiz-adv-x="661" d="M63 1206q0 77 15 147q29 103 90.5 161t185.5 58q41 0 74.5 -20.5t58.5 -36t38 -13.5t18 48h60v-380h-60q1 17 1 34q0 79 -16 138q-15 65 -54 119.5t-118 54.5q-43 0 -81.5 -17.5t-61.5 -46.5q-49 -70 -49 -140v-8q3 -74 36.5 -146.5t83.5 -136.5t87 -116 q145 -185 211 -345q47 -112 48 -223q0 -46 -9 -92q-13 -50 -33.5 -96.5t-53.5 -83t-80.5 -59.5t-115.5 -25h-9q-37 0 -69 16q-36 18 -64.5 32t-44.5 12t-19 -45h-56v386h59q-5 -32 -5 -61q0 -15 2 -29q4 -42 11 -81q9 -33 22 -64t35 -57.5t54 -43.5t80 -20h6q30 0 66 18 q39 20 63 49q47 64 47 136q0 11 -2 23q-8 84 -49.5 164.5t-97.5 153t-96 124.5q-76 91 -120.5 180.5t-66 172t-21.5 159.5z" />
<glyph unicode="T" horiz-adv-x="744" d="M33 1322v230h679v-230h-57q-2 52 -13 91q-10 33 -35 62t-69 29h-89v-1386q0 -31 8.5 -45.5t20.5 -16.5q11 -6 26 0v-56h-263v56q17 -6 28 0q11 2 21 16.5t10 45.5v1386h-91q-46 0 -69.5 -29t-33.5 -62q-13 -39 -15 -91h-58z" />
<glyph unicode="U" horiz-adv-x="804" d="M54 1500v52h259v-52q-15 4 -27 0q-10 -4 -18.5 -18.5t-8.5 -46.5v-78.5v-191.5t1 -252.5t1 -259v-209.5v-108q0 -167 35.5 -236t105.5 -69h2h2q65 0 103 69.5t38 235.5v170v111v818q0 33 -7.5 47t-17.5 18q-13 4 -29 0v52h259v-52q-13 4 -27 0q-11 -4 -18.5 -18.5 t-7.5 -46.5v-1157q0 -70 -27.5 -125t-70.5 -94.5t-95 -58.5t-102 -19q-52 0 -104.5 19t-94.5 58.5t-67.5 94t-25.5 123.5v61.5v137v185.5t-1 208.5t-1 208.5v182.5v127v48.5q0 33 -9.5 47t-19.5 18q-9 4 -27 0z" />
<glyph unicode="V" horiz-adv-x="839" d="M24 1496v54h322v-54q-20 4 -35 0q-13 -5 -22 -19t-3 -44q0 -2 8 -57.5t22 -145.5t31.5 -206.5t37 -237.5t38 -241t35.5 -215q19 95 41.5 215t43.5 241t40.5 237.5t35 206.5t24 145.5t8.5 57.5q6 31 -2.5 44.5t-18.5 18.5q-15 4 -35 0v54h211v-54q-19 4 -40 0 q-17 -5 -32 -19t-20 -44q0 -2 -12 -65t-29.5 -164.5t-41.5 -230t-47 -261.5q-56 -314 -130 -712h-111l-113 712q-21 133 -42 261.5t-37 230t-25.5 164.5t-9.5 65q-7 31 -21 44.5t-32 18.5q-20 4 -39 0z" />
<glyph unicode="W" horiz-adv-x="1210" d="M29 1498v54h321v-54q-19 4 -35 0q-13 -4 -22 -18.5t-3 -44.5q0 -2 8 -57.5t22 -146.5t31.5 -207.5t37 -237.5t38 -241t35.5 -215q25 126 54 286.5t55 317.5q-17 102 -31 192t-25 158.5t-17.5 108.5t-6.5 42q-4 31 -19.5 45t-30.5 18q-19 4 -39 0v54h319v-54q-21 4 -35 0 q-13 -4 -20.5 -18.5t-3.5 -44.5q0 -2 8.5 -57.5t23 -146.5t31.5 -207.5t35.5 -237.5t37 -241t35.5 -215q19 95 41.5 215t44 241t41 237.5t34.5 207.5t25 146.5t10 57.5q5 31 -2.5 45t-19.5 18q-13 4 -34 0v54h210v-54q-21 4 -41 0q-17 -4 -31.5 -18.5t-20.5 -44.5 q0 -2 -11 -65t-29.5 -164t-42 -230t-48.5 -262q-56 -314 -128 -712h-112q-17 116 -40 243q-17 110 -38.5 246.5t-43.5 279.5q-27 -143 -51 -279t-45 -247q-24 -128 -43 -243h-112l-114 712q-21 133 -40.5 262t-36 230t-26 164t-9.5 65q-7 31 -21 45t-32 18q-19 4 -38 0z" />
<glyph unicode="X" horiz-adv-x="767" d="M50 1500v52h278v-52q-17 4 -28 0t-16.5 -18.5t2.5 -44.5q0 -2 11 -41t27.5 -103t39.5 -150t46 -182q31 96 58 182t48.5 150t34.5 102t13 40q11 33 7 47t-16 18q-8 4 -25 0v52h189v-52q-15 4 -31 0q-15 -4 -28 -18.5t-24 -46.5q0 -2 -16.5 -52.5t-44.5 -133.5 t-61.5 -189.5t-70.5 -221.5q33 -130 65.5 -258t58.5 -229t42 -166t16 -67q7 -31 21 -45.5t29 -16.5q19 -6 35 0v-56h-273v56q17 -6 27 0q9 2 14.5 16.5t-2.5 45.5q0 2 -10 38.5t-26.5 100.5t-37 147t-44.5 174q-30 -91 -56 -175t-46 -147t-32.5 -100.5t-12.5 -39.5 q-9 -31 -5.5 -44.5t13.5 -15.5q11 -6 26 0v-56h-189v56q17 -6 31 0q15 2 28 15.5t24 44.5q0 2 15.5 52.5t42.5 133t59 188t69 216.5q-35 132 -67 260t-59 232.5t-44.5 169.5t-17.5 69q-11 31 -23 45t-29 18q-15 4 -35 0z" />
<glyph unicode="Y" horiz-adv-x="845" d="M29 1500v52h273v-52q-17 4 -26 0q-11 -4 -16.5 -18.5t3.5 -46.5q0 -2 16.5 -63t41.5 -159.5t56 -223.5t64 -253q41 128 82 253t73 223.5t52.5 159.5t20.5 63q10 33 6 47t-15 18q-8 4 -26 0v52h189v-52q-13 4 -30 0q-15 -4 -28 -18.5t-25 -46.5q0 -4 -25 -80.5 t-62.5 -195.5t-84 -263t-92.5 -286v-3v-489q0 -31 8.5 -45.5t16.5 -16.5q13 -6 29 0v-56h-261v56q7 -2 15 -2q6 0 14 2t15 9q10 15 10 53v489q-35 141 -71.5 287t-68 265t-52.5 196.5t-21 79.5q-6 33 -20 47t-27 18q-20 4 -34 0z" />
<glyph unicode="Z" horiz-adv-x="655" d="M67 0v52h3v4l371 1448h-200q-44 0 -69 -29t-35 -62q-11 -39 -13 -89h-57v228h523v-48v-2l-375 -1450h202q43 0 68 27t33 62q13 39 16 89h56v-230h-518h-5z" />
<glyph unicode="[" horiz-adv-x="342" d="M0 0v1535h282v-48q-65 0 -99 -27t-47.5 -69.5t-13.5 -92v-95.5v-871q0 -46 1 -95.5t15 -92t47.5 -69.5t96.5 -27v-48h-282z" />
<glyph unicode="\" horiz-adv-x="460" d="M4 1550h54l18 -67q17 -66 43 -176.5t63 -248.5t75 -287q89 -342 199 -777h-52z" />
<glyph unicode="]" horiz-adv-x="342" d="M-4 0v48q62 0 96 27t48 69.5t15 92t1 95.5v871v95.5t-14 92t-48 69.5t-98 27v48h282v-1535h-282z" />
<glyph unicode="^" horiz-adv-x="620" d="M29 462l257 754h46l261 -754h-46q-33 93 -66.5 190t-65 187.5t-59.5 171.5t-48 139q-19 -58 -46.5 -139t-59.5 -171.5t-65 -187.5t-67 -190h-41z" />
<glyph unicode="_" horiz-adv-x="952" d="M76 0v63h801v-63h-801z" />
<glyph unicode="`" horiz-adv-x="348" d="M11 1491q0 22 18 44q21 17 45 17q27 0 46 -15q24 -19 77 -98l135 -190l-21 -20l-246 182q-54 41 -54 80z" />
<glyph unicode="a" horiz-adv-x="765" d="M58 273v3q2 37 13.5 77t34 80t54 76t68.5 62q8 5 13.5 10t17.5 12l6 3l6 3q40 24 69 43.5t53 36.5q13 9 26 20t28 22q19 13 36.5 30t26.5 42q13 21 13.5 51t-7.5 55q-8 48 -43.5 82t-79.5 46q-19 7 -37 7q-60 0 -104 -23q-28 -12 -41.5 -28.5t-14.5 -30.5t6 -23t17 -13 q5 -2 6 -2t5 -2q29 -11 47.5 -38t18.5 -60q0 -41 -30 -70.5t-71 -29.5q-43 0 -73.5 29.5t-30.5 70.5q0 37 9.5 77.5t29.5 72.5q42 60 99 87.5t127 27.5q52 0 103 -19.5t91 -55.5t67 -86t27 -115v-638q0 -39 1.5 -51t1.5 -16q0 -29 17.5 -46t41.5 -17q29 0 45.5 16t19.5 42 h45q0 -17 -8.5 -35.5t-25 -35t-41 -29t-57.5 -12.5q-52 0 -93.5 24t-56.5 62q-12 21 -20 51q-29 -59 -86 -98t-126 -39q-87 0 -153 62q-37 33 -60.5 85t-28.5 119q-2 6 -2 26zM209 261q2 -83 44.5 -129.5t119.5 -46.5q35 0 64 17q28 19 39 45q17 31 20 65.5t3 65.5v401 q-8 -8 -18 -16t-21 -19q-62 -45 -107 -82.5t-75.5 -78t-47.5 -86t-21 -104.5v-32z" />
<glyph unicode="b" horiz-adv-x="727" d="M54 1496v52h205v-554q39 50 73.5 64.5t71.5 14.5q52 0 104 -17.5t94 -53.5t69.5 -93.5t27.5 -137.5v-498q0 -58 -27.5 -112.5t-69.5 -94.5t-95 -62.5t-103 -22.5q-37 0 -64 10.5t-47 21.5t-35 22t-30 8q-17 -2 -27 -9.5t-17 -14.5q-8 -6 -12 -19h-60v1431 q0 33 -10.5 46.5t-20.5 18.5q-9 6 -27 0zM259 209q0 -13 5 -36.5t13.5 -47t27 -45.5t43.5 -32q30 -17 56 -17q33 2 60 17t45.5 52t28 93.5t9.5 138.5v391q0 83 -9.5 140t-27 90t-44.5 46.5t-62 13.5q-31 0 -60 -9.5t-54 -35.5q-17 -21 -24 -49.5t-7 -73.5v-636z" />
<glyph unicode="c" horiz-adv-x="731" d="M65 273v487q0 74 28.5 132.5t72 100t97.5 63t106 21.5q26 0 50 -2t47 -14q3 -2 7 -2l18 -6q24 -5 50 -21.5t45 -16.5q27 0 27 44h56v-367h-48q0 29 -2 65t-10 71.5t-24 70.5t-42 62q-39 40 -85 53t-89 13q-70 -4 -116 -70.5t-46 -198.5v-480q0 -74 13.5 -122t38.5 -76 t59 -38.5t71 -10.5q46 0 86.5 12.5t73.5 43.5t52.5 84t19.5 131h48v-29q0 -60 -16.5 -113.5t-52.5 -93.5t-92 -62.5t-139 -22.5q-52 0 -106 20t-97.5 58.5t-72 93t-28.5 120.5z" />
<glyph unicode="d" horiz-adv-x="772" d="M52 284v489q0 78 19.5 135.5t55.5 93.5t85 54.5t111 20.5h7q39 0 65 -9h5l4 -2q48 -14 85 -47q10 -9 18.5 -20t18.5 -24v454q0 35 -10 47.5t-19 17.5q-15 6 -31 0v56h207v-1448q0 -31 8.5 -40.5t20.5 -11.5q10 -2 27 6v-56h-203v83q-9 -13 -18 -23t-19 -21 q-37 -31 -85 -47q-2 0 -4 -3h-5q-26 -8 -65 -8h-7q-122 2 -196.5 74.5t-74.5 228.5zM215 394q0 -62 1 -105.5t1 -52.5v-2q2 -110 26 -154.5t82 -48.5h10q31 1 61 11q34 12 60 38t46 71.5t24 113.5v530q-4 65 -24 110.5t-46 72.5t-60 39q-29 10 -60 10h-11q-58 -4 -82 -48.5 t-26 -155.5v-3q0 -8 -1 -52.5t-1 -105.5v-133.5v-134.5z" />
<glyph unicode="e" horiz-adv-x="698" d="M63 711.5v63.5q0 78 27.5 135.5t67 93.5t91 54.5t103.5 18.5q50 0 102 -17.5t93 -54.5t66 -93.5t25 -134.5v-219v-7v-50h-431v-223q1 -135 47 -192q45 -55 110 -55h5q41 2 81.5 13.5t69.5 39.5t48.5 80.5t19.5 137.5h50v-31q0 -58 -12.5 -111.5t-45.5 -92t-84 -61.5 t-125 -25q-52 0 -106 19t-97.5 58.5t-72 93t-28.5 119.5v51t-1 84t-1 103t-1 107.5t-1 95zM209 558h284v171q0 83 -11 138t-29 89t-44.5 46.5t-58.5 12.5q-70 0 -105.5 -60t-35.5 -226v-171z" />
<glyph unicode="f" horiz-adv-x="578" d="M21 996v59h151q0 12 1 53.5t1 77.5t1 64l1 28q0 63 15.5 117.5t45.5 95t74.5 63t100.5 22.5q31 0 65.5 -15.5t60.5 -42.5t44.5 -64t18.5 -84l-2 -3q2 -2 2 -8q0 -39 -29 -67t-68 -28q-40 0 -67 28t-27 67q0 62 54 87q35 17 16 45q0 3 -2 3q-2 8 -14 12q-21 17 -52 18 q-35 0 -54.5 -28.5t-27 -73t-8.5 -103t-1 -116.5v-7v-141h183v-59h-183v-878q0 -33 8.5 -46.5t20.5 -15.5q10 -6 27 0v-56h-261v56q16 -6 27 0q9 2 19 15.5t10 46.5v878h-151z" />
<glyph unicode="g" horiz-adv-x="704" d="M58 499v300q0 72 25 125t63 86.5t86 50t96 16.5q47 0 99 -18q15 54 58 78.5t86 24.5q33 0 63 -16q10 -4 14.5 -9.5t9.5 -16.5l4 -22q0 -21 -15 -36.5t-34 -15.5h-3q-22 0 -37 14.5t-15 33.5q-3 17 -13 18q-13 0 -31.5 -12t-29.5 -25q-8 -9 -18 -33q54 -31 91.5 -89 t37.5 -150v-304q0 -56 -24 -103.5t-62 -85t-87 -58t-94 -20.5q-59 0 -119 29q-20 -28 -20 -48q0 -13 9 -23q21 -25 127 -34q73 -4 121.5 -29t76.5 -60.5t42.5 -78t19.5 -80.5q4 -32 4 -57v-11q-1 -29 -1 -41q-2 -22 -15 -58.5t-42.5 -71t-79 -59t-128.5 -24.5q-87 0 -144 34 t-84.5 84.5t-28.5 103.5v5q0 50 19 87q28 40 51 48.5t29 8.5q40 0 63.5 -26t23.5 -61q0 -37 -23.5 -62t-63.5 -25q-41 0 -34.5 -27t34.5 -56q22 -17 62 -40t88 -23h10q75 5 118.5 40t60.5 83q13 32 13 65q0 15 -3 29q-8 48 -36 83q-17 17 -47.5 30.5t-65.5 24t-67.5 18 t-56.5 9.5q-29 6 -55.5 13t-51 17.5t-39 32.5t-14.5 61q0 58 27 96.5t51 53.5q-43 37 -72 88t-29 118zM197 553q0 -153 34 -214t97 -61q62 0 96 61t34 214v205q0 151 -33.5 209t-96.5 58t-97 -58t-34 -209v-205z" />
<glyph unicode="h" horiz-adv-x="810" d="M63 0v56q2 -2 4 -2h11q11 0 26.5 11t15.5 53v1317q0 42 -15.5 54.5t-26.5 12.5q-4 0 -6 -1t-5 -1h-4v52h208v-573q5 7 16 21.5t33.5 32t57 31t82.5 13.5h6q46 0 90.5 -18.5t79.5 -55.5t55.5 -94.5t20.5 -135.5v-655q0 -42 15 -53t27 -11h10q2 0 4 2v-56h-262v56 q2 -2 4 -2h8q13 0 26.5 9t17.5 43v116.5v146.5t-1 154t-1 141v105.5v50.5h-2v3q-5 110 -26.5 156t-75.5 50h-7q-66 0 -116.5 -51.5t-61.5 -176.5v-683q0 -42 14.5 -53t27.5 -11h8q2 0 4 2v-56h-262z" />
<glyph unicode="i" horiz-adv-x="420" d="M78 0v56q15 -6 28 0q11 2 20 16.5t9 45.5v826q0 29 -8.5 43t-20.5 18q-13 4 -28 0v54h206v-941q0 -31 9 -45.5t20 -16.5q10 -6 25 0v-56h-260zM118 1298q0 40 26 66t65 26t67 -26t28 -66q0 -41 -28.5 -68t-66.5 -27q-39 0 -65 27t-26 68z" />
<glyph unicode="j" horiz-adv-x="460" d="M-60 -194q6 49 34 66q8 4 13 10q9 5 20.5 9.5t23.5 4.5q19 0 45 -14q35 -21 44.5 -48t3.5 -52t-21.5 -45.5t-32.5 -26.5q-13 -5 -18.5 -18t1.5 -27.5t26 -24t47 -9.5q6 0 9 2q21 0 37.5 22t25.5 54t13 70.5t4 75.5v1083q0 44 -15.5 54.5t-27.5 10.5q-5 0 -7 -1t-4 -1h-5 v56h263v-56h-5l-2 1t-6 1q-11 0 -26 -10.5t-15 -54.5v-52t-1 -125t-1 -173.5v-196.5v-530q-5 -37 -15 -83.5t-35 -89t-66.5 -74t-107.5 -33.5h-9q-72 0 -116.5 38t-62.5 88q-13 37 -13 73q0 13 2 26zM199 1296q0 40 29 67t68 27t67 -27t28 -67q0 -39 -28.5 -68.5 t-66.5 -29.5q-39 0 -68 29.5t-29 68.5z" />
<glyph unicode="k" horiz-adv-x="776" d="M41 0v56q2 -2 5 -2h10q11 0 27.5 10t16.5 54v1315q0 41 -16.5 54t-27.5 13q-4 0 -6 -1t-4 -1h-5v52h263v-52h-4q-2 0 -3 1t-7 1q-14 0 -28.5 -13t-14.5 -54v-1038q6 13 30.5 55.5t56 98.5t66.5 118t65 118t49.5 91.5t21.5 39.5q15 31 13 49.5t-11.5 28t-24 11.5t-20.5 2 h-2v52h232v-52h-2q-7 0 -22 -2t-33.5 -11.5t-38.5 -28t-30 -49.5q-4 -9 -44.5 -80.5t-96.5 -166.5q26 -81 55.5 -166.5t55.5 -158.5t42 -120.5t19 -53.5q12 -40 26.5 -62.5t25 -35t21.5 -15.5t18 -3q2 0 4 2v-56h-298v56q0 -2 2 -2h8q6 0 16.5 3t17.5 15.5t9 35t-7 62.5 q-2 8 -13 37t-27.5 71.5t-37 97t-39.5 113.5q-29 -54 -57 -103.5t-50 -89.5v-178q0 -44 14.5 -54t28.5 -10h10q2 0 4 2v-56h-263z" />
<glyph unicode="l" horiz-adv-x="394" d="M70 0v56q17 -6 30 0q6 2 17 16.5t11 45.5v1315q0 33 -11 47t-17 18q-13 6 -30 0v52h206v-117v-1315q0 -31 10 -45.5t18 -16.5q11 -6 28 0v-56h-262z" />
<glyph unicode="m" horiz-adv-x="1251" d="M67 0v56q15 -6 26 0q11 2 21 16.5t10 45.5v824q0 31 -10 45t-21 18q-10 4 -26 0v54h206v-82q13 22 33 42q19 17 39 28.5t42 18.5q2 2 4 2t4 3q13 4 28.5 5t32.5 1h4q81 -2 139.5 -36t86.5 -109q19 54 58 89q37 31 83 47v3h2q29 6 64 6h8q112 -2 180.5 -72.5t68.5 -229.5 v-313v-356q0 -31 9 -41.5t20 -12.5q10 -4 26 4v-56h-261v56q13 -4 26 0q10 2 18 13.5t11 36.5v621v53.5t-3 42.5v2q-4 110 -25.5 156t-71.5 48h-6q-68 -1 -117 -47q-51 -48 -66 -170q0 -9 1 -19t1 -20v-311v-344q0 -31 9.5 -45.5t20.5 -16.5q8 -6 26 0v-56h-260v56 q12 -4 26 0q9 2 17.5 13.5t10.5 36.5v619v53.5t-2 41.5v3q-5 110 -26.5 156t-75.5 48h-9q-61 -1 -111 -49q-54 -52 -65 -177v-683q0 -31 8.5 -45.5t18.5 -16.5q13 -6 28 0v-56h-261z" />
<glyph unicode="n" d="M60 0v56q3 -2 5 -2h11q11 0 27.5 10t16.5 54v829q0 41 -16.5 51.5t-27.5 10.5h-6.5h-4.5h-5v50h207v-84q9 13 15 23.5t18 20.5q35 33 79 47h5q0 2 3 2q15 5 30 7t32 2h5q115 -4 183.5 -74.5t68.5 -229.5v-317v-338q0 -44 15 -54t26 -10h11q2 0 4 2v-56h-261v56q3 -2 5 -2 h8q11 0 24 9t17 43v617q0 31 -1 54.5t-1 42.5v3q-4 108 -26.5 154t-72.5 50h-9q-70 0 -118.5 -52.5t-59.5 -175.5v-681q0 -44 14.5 -54t26.5 -10h9q2 0 4 2v-56h-261z" />
<glyph unicode="o" horiz-adv-x="721" d="M65 278v488q0 83 27.5 141.5t70 96.5t95.5 55.5t105 17.5q51 0 103 -17.5t95.5 -54.5t71 -95.5t27.5 -138.5v-493q0 -63 -28.5 -117.5t-71 -93t-94.5 -62.5t-103 -24q-52 0 -105 19t-94.5 58.5t-70 95t-28.5 124.5zM217 336q0 -167 36.5 -236t106.5 -69t108 69.5 t38 235.5v387q0 83 -9.5 140t-28.5 92t-46 49.5t-62 14.5q-70 0 -106.5 -64.5t-36.5 -231.5v-387z" />
<glyph unicode="p" horiz-adv-x="761" d="M46 -343q17 -7 26 0q11 4 20.5 18t9.5 45v1224q0 31 -9.5 45t-20.5 18q-8 4 -26 0v52h208v-84q15 25 36 44q38 33 87 47q0 2 2 2h3q35 9 67 9h7q124 -2 197.5 -74.5t73.5 -231.5v-487q0 -159 -73.5 -230t-197.5 -75h-7q-37 0 -67 8h-3q-2 0 -2 2q-49 17 -87 48 q-10 11 -19.5 20.5t-16.5 23.5v-361q0 -31 8.5 -44.5t17.5 -18.5q13 -7 28 0v-55h-262v55zM254 267q7 -67 24.5 -114t43.5 -74t60 -40q29 -11 60 -11q7 0 14 1q56 4 81 49.5t27 155.5v2v582v2q-2 111 -27 157t-81 50h-11q-33 0 -63 -10q-34 -12 -60 -40t-43.5 -76 t-24.5 -113v-521z" />
<glyph unicode="q" horiz-adv-x="737" d="M35 286v499q0 59 27 113.5t69.5 95t95.5 62t103 21.5q37 0 64 -10t46.5 -20.5t35 -21t30.5 -10.5q28 3 45 25q9 8 13 21h59v-1341q0 -31 9.5 -44.5t20.5 -18.5q8 -7 29 0v-55h-261v55q15 -7 26 0q11 4 20 18t9 45v340q-39 -47 -74 -63t-72 -16q-52 0 -104 18t-94.5 55 t-69.5 95t-27 137zM189 332q0 -83 9 -139t27 -91t45.5 -48t61.5 -13q39 0 77 20t67 69v721q0 13 -6 35.5t-14.5 47.5t-26 47t-42.5 32q-2 0 -5 2q-25 13 -50 14q-67 -4 -105 -70t-38 -234v-393z" />
<glyph unicode="r" horiz-adv-x="663" d="M58 0v56q17 -6 27 0q10 2 21.5 16.5t11.5 45.5v826q0 31 -11.5 45t-21.5 18q-9 4 -27 0v54h209v-88q15 24 30.5 44.5t36 34.5t47.5 22.5t68 8.5q63 0 117 -45.5t81 -132.5q0 -3 2 -17q1 -7 1 -12.5t-1 -9.5q-2 -46 -31.5 -75t-70.5 -29q-43 0 -72.5 30.5t-29.5 73.5 q0 54 42 83q4 2 5 3l3 3q15 11 19 31.5t-25 36.5q-19 11 -40 11h-11q-58 0 -104 -40q-50 -44 -67 -151v-725q0 -31 8.5 -45.5t17.5 -16.5q12 -6 28 0v-56h-263z" />
<glyph unicode="s" horiz-adv-x="644" d="M58 797q0 27 3.5 48t8.5 39q6 37 21 71.5t43.5 61.5t69.5 44.5t100 17.5q33 0 65.5 -14.5t58.5 -26t41 -10.5t15 33h42v-268h-57v14q0 57 -15 102q-15 46 -53 83t-113 37q-58 0 -95 -26q-19 -15 -33.5 -44t-16.5 -64v-9q0 -30 11 -66q13 -40 53 -76q4 -6 11.5 -12.5 t15.5 -10.5q7 -4 11.5 -8.5l8.5 -8.5q25 -19 49.5 -39.5t50.5 -39.5q60 -52 100.5 -94t67.5 -79.5t40.5 -69.5t15.5 -63q9 -42 9 -78q0 -50 -17 -90q-29 -68 -75 -108h-2q0 -4 -4 -4q-5 -4 -9 -6q-6 -4 -13 -9t-13 -7v-2q-2 0 -4.5 -1t-4.5 -1q-2 -2 -3 -2t-3 -3l-2 -2 q-5 -2 -10.5 -4t-9.5 -4q-46 -19 -106 -19q-35 0 -67.5 16t-56.5 27t-40.5 10t-16.5 -32h-41v261h52q-1 -12 -1 -24q0 -55 16 -96q13 -43 51 -81.5t114 -38.5q50 0 83 18q56 29 76 67q17 32 18 68q0 8 -1 14q-4 42 -31 83.5t-66 76.5q-27 19 -55 40.5t-57 46.5 q-76 60 -120 109t-68 91t-33 80.5t-9 81.5z" />
<glyph unicode="t" horiz-adv-x="583" d="M6 996v59h150v380q0 33 -9.5 47t-18.5 18q-10 4 -28 0v52h206v-497h183v-59h-183v-121t-1 -151t-1 -178v-168v-128.5t2 -65.5q15 -78 48 -103t76 -25q50 0 86.5 34t38.5 86h48q0 -76 -48 -124q-32 -33 -75 -52t-93 -19q-74 0 -131 41t-82 108q-7 17 -10 35.5t-3 43.5 q0 6 -1 20t-1 33.5t-1.5 37t-1.5 30.5v666h-150z" />
<glyph unicode="u" horiz-adv-x="810" d="M54 1001v54h261v-54h-2q-2 0 -4.5 1t-6.5 1q-13 0 -26 -9.5t-15 -44.5v-115.5t-1 -145t-1 -153v-141.5v-107.5v-50.5v-2q4 -110 26.5 -155.5t74.5 -47.5h9q65 0 115 52t61 176q0 104 1 222t1 220v167.5v69.5q0 41 -12.5 53t-26.5 12q-4 0 -6.5 -1t-4.5 -1h-4v54h261v-54 h-5q-2 0 -4.5 1t-4.5 1q-11 0 -26 -12t-15 -53v-38v-93.5v-131.5v-151t-1.5 -150.5t-1.5 -131.5v-95v-39q0 -41 14.5 -48.5t27.5 -7.5q4 0 6 2q2 0 5 2v-56h-204v81q-9 -13 -16 -22t-19 -20q-33 -31 -78 -47q-2 0 -2 -1.5t-3 -1.5h-2q-26 -8 -60 -8h-9q-110 4 -179 74.5 t-69 226.5v315q0 64 1 125t1 109t1 76.5t1 30.5q0 41 -15.5 53t-26.5 12q-4 0 -7 -1t-5 -1h-4z" />
<glyph unicode="v" horiz-adv-x="707" d="M11 1005v52h279l-2 -52q-17 -2 -27 -9q-9 -6 -14.5 -19t-1.5 -35q0 -2 13 -70.5t33 -171.5t43.5 -220t44.5 -217q25 100 52 217t50 220t37 171.5t14 70.5q4 22 -1 35t-15 19q-10 7 -27 9l2 52h199v-52q-19 -2 -37 -9q-17 -6 -31.5 -19t-18.5 -35q0 -2 -8.5 -43 t-25 -108.5t-36 -151.5t-38.5 -170q-50 -209 -111 -469h-98q-54 261 -95 469q-17 86 -35.5 170t-31 151.5t-22 108.5t-9.5 43q-2 22 -16 35t-27 19q-19 7 -39 9z" />
<glyph unicode="w" horiz-adv-x="1069" d="M24 1009v50h282v-50q-19 4 -33 0q-8 -2 -15.5 -9.5t-3.5 -31.5l7 -35q6 -34 16.5 -91t25 -130.5t31 -150.5t31 -155t30.5 -143q27 100 54 219t50 230q-24 113 -38 183.5t-16 72.5q-4 24 -17.5 31.5t-25.5 9.5q-15 4 -35 0v50h277v-50q-16 4 -29 0q-9 -2 -17 -9.5 t-1 -31.5l4 -35q4 -34 16.5 -91t26.5 -130.5t29 -150.5t31.5 -155t31.5 -143q17 65 35.5 143t36 155t34 150.5t28 130.5t19.5 91l8 35q4 24 -3.5 31.5t-14.5 9.5q-13 4 -32 0v50h203v-50q-19 4 -37 0q-12 -2 -25 -9.5t-20 -31.5l-9 -42q-8 -42 -24.5 -110.5t-36 -156.5 t-43.5 -177l-113 -482h-98q-16 87 -39 180q-12 81 -32 180.5t-43 199.5q-21 -100 -44.5 -199.5t-42.5 -180.5q-21 -93 -41 -180h-98q-56 269 -99 482q-19 89 -38.5 177t-32 156.5t-22.5 110.5l-10 42q-2 24 -15 31.5t-27 9.5q-14 4 -36 0z" />
<glyph unicode="x" horiz-adv-x="772" d="M54 1011v50h276v-50q-15 4 -24 0q-10 -2 -15 -10.5t7 -32.5l9 -25q10 -25 26.5 -68.5t37 -99.5t43.5 -122q31 65 58 121.5t46.5 99t32.5 67.5l13 25q11 21 7 31t-13 12q-9 6 -24 4v51h185v-51q-15 2 -31 -4q-15 -2 -28 -11.5t-24 -31.5l-16 -35q-17 -34 -43 -90 t-59.5 -126.5t-68.5 -147.5q31 -85 62.5 -169.5t56.5 -151t41 -107.5t16 -44q9 -24 24.5 -32.5t32.5 -12.5q17 -7 37 -4v-46h-276v46q15 -3 26 4q8 4 11.5 13t-4.5 32l-10 24q-10 24 -24.5 64.5t-33.5 94.5t-43 113q-31 -58 -55 -111.5t-43.5 -93t-30 -62t-10.5 -24.5 q-11 -22 -7.5 -32t11.5 -14q6 -6 22 -6v-48h-192v48q17 0 35 6q17 4 32.5 14t26.5 32q0 2 14 33.5t40 82.5t57 119.5t65 142.5q-33 89 -64.5 175.5t-58.5 157t-43 113.5l-17 44q-10 24 -24.5 32.5t-31.5 10.5q-15 4 -37 0z" />
<glyph unicode="y" horiz-adv-x="928" d="M56 1009v50h220v-50q-19 2 -31 -4q-9 -6 -10 -26t12 -61l13 -42q13 -43 30.5 -110t39.5 -151.5t45 -171.5t44.5 -168.5t36.5 -139.5q37 122 72.5 255.5t65 243.5t49 184.5t22.5 80.5q7 35 7 56q0 10 -2 17q-5 22 -17 29q-15 8 -36 2v56h297v-56q-13 6 -30 -2 q-15 -7 -32 -28.5t-29 -73.5q-3 -4 -18 -52t-35.5 -126.5t-47 -177t-56.5 -203t-58 -205t-51 -184t-41.5 -140t-24.5 -70.5q-29 -60 -78.5 -104.5t-116.5 -48.5q-17 0 -35 2t-37 8q-31 9 -60 31.5t-49 56.5t-27 74q-3 15 -3 31q0 27 8 55q0 2 1 2t1 3q0 4 3 6q10 39 43 59 q21 12 45 12q13 0 27 -4q39 -11 58 -44q13 -24 13 -50q0 -11 -2 -23q-9 -37 -41 -57q-24 -14 -52 -14q-8 0 -17 1q2 -72 62 -89q35 -11 59 12t45 62q4 7 26.5 87.5t54.5 190.5q-17 63 -42 157.5t-54.5 194.5t-57 199.5t-49 180t-37.5 134.5t-16 58q-15 44 -33 64.5t-35 22.5 q-17 7 -39 -2z" />
<glyph unicode="z" horiz-adv-x="644" d="M0 0q106 276 189 495q35 93 71 180t63 157.5t43 117t18 51.5h-183q-58 0 -88 -37.5t-43 -82.5q-14 -49 -14 -109v-8h-56v291l576 2q-111 -276 -199 -490q-37 -93 -73.5 -185t-64.5 -163.5t-45.5 -117t-17.5 -49.5h211q56 0 83 37t38 83q8 43 8 98v23h60v-293h-576z" />
<glyph unicode="{" horiz-adv-x="398" d="M15 771v12q62 17 87.5 73t25.5 143v347q0 87 14 142t45.5 83.5t77.5 39.5t108 11v-52q-76 0 -102 -54.5t-26 -158.5v-328q0 -52 -2 -93t-15 -71t-42.5 -51t-81.5 -35q52 -15 81.5 -35.5t42.5 -52t15 -72.5t2 -93v-331q0 -97 26.5 -153.5t101.5 -56.5v-48q-62 0 -108 8.5 t-77.5 39t-45.5 83t-14 141.5v346q0 89 -25 143t-88 73z" />
<glyph unicode="|" horiz-adv-x="190" d="M76 -406v1958h50v-1958h-50z" />
<glyph unicode="}" horiz-adv-x="394" d="M26 -15q77 0 100 56.5t23 153.5v331q0 52 1.5 93t16.5 72.5t43 52t83 35.5q-55 13 -83 34.5t-43 51.5t-16.5 71t-1.5 93v328q0 104 -23.5 158.5t-99.5 54.5v52q59 0 105.5 -11t75.5 -39.5t44.5 -83.5t15.5 -142v-347q0 -87 25 -142.5t90 -73.5v-12q-67 -19 -91 -73 t-24 -143v-346q0 -89 -15.5 -141.5t-44.5 -83t-75.5 -39t-105.5 -8.5v48z" />
<glyph unicode="~" horiz-adv-x="633" d="M52 734q0 34 7.5 66.5t24 56.5t43.5 38t68 14t85.5 -20.5t86 -42t79.5 -34.5t60 -4q17 8 24.5 21.5t12.5 23.5q2 15 2 28h35q0 -37 -6.5 -67.5t-24 -54t-44.5 -36.5t-68 -13q-42 0 -85.5 21t-85.5 42.5t-79.5 34t-62.5 0.5q-15 -7 -23 -21t-12 -25q-4 -13 -2 -28h-35z " />
<glyph unicode="&#xa1;" horiz-adv-x="251" d="M39 91q0 7 3.5 56.5t7.5 127t10.5 175t13.5 194.5q11 237 32 530h48q17 -292 33 -530q4 -97 9 -194.5t10 -175t8 -127t3 -56.5q0 -37 -26 -63t-63 -26t-63 26t-26 63zM39 1467q0 37 26 62t63 25t63 -25t26 -62q0 -39 -26 -62.5t-63 -23.5t-63 24t-26 62z" />
<glyph unicode="&#xa2;" horiz-adv-x="733" d="M56 273v487q0 72 26 129.5t67.5 97.5t94 63t102.5 27v174h49v-176q19 0 40 -7q6 0 23 -7q2 -2 6 -2l18 -6q17 -5 39 -15.5t40.5 -17.5t30 0t11.5 39h57v-367h-47q0 50 -8 101q-6 41 -22 87t-49 81q-8 9 -19 17t-20 16q-2 0 -2 1t-2 1q-42 22 -96 29v-994q42 2 81.5 15.5 t69.5 45.5t48.5 83t18.5 127h47v-29q0 -115 -59.5 -197t-205.5 -93v-150h-49v148q-50 2 -102.5 25t-94 59.5t-67.5 90t-26 117.5zM197 278q0 -126 43 -183.5t106 -63.5v994q-63 -11 -106 -77.5t-43 -189.5v-480z" />
<glyph unicode="&#xa3;" horiz-adv-x="941" d="M15 688v52h263q-27 54 -52 108.5t-44 109.5t-31 113t-10 118q2 77 30 152.5t88 127.5q52 46 123 60q37 6 81.5 9t81.5 -5q60 -15 98.5 -52t57 -85t18.5 -97.5t-16.5 -90t-47 -63t-73.5 -16.5q-41 4 -65 35.5t-20 68.5q4 33 29 53.5t56 24.5h11q30 4 38.5 32.5t-3.5 60.5 q-17 33 -47 59t-82 33q-24 4 -50 3t-49 -8q-40 -8 -66 -37.5t-40 -70.5t-16 -88.5t8 -96.5q13 -61 37.5 -118t52.5 -114t57 -113t54 -113h225v-52h-206q4 -11 5 -18.5t5 -18.5q37 -135 19.5 -241t-88.5 -217q0 -2 -2 -2q54 -29 107 -46t101.5 -21t85 6.5t56.5 39.5 q13 17 17 39.5t6 42.5q0 25 -2 46h56q9 -76 -12 -142q-17 -56 -68.5 -107t-155.5 -66q-74 -11 -143.5 15t-119.5 69q-52 -61 -118 -80.5t-121.5 -6t-90.5 54.5t-26 104q11 76 70.5 101t136.5 19q78 -7 151 -37q17 86 8.5 180.5t-35.5 177.5q-22 58 -46 108h-287zM60 122 q0 -63 38.5 -87t75.5 -24q41 0 76.5 19.5t62.5 47.5q6 9 12.5 16.5t10.5 15.5q2 2 -16 19.5t-43 38.5t-52.5 37.5t-42.5 16.5q-17 0 -38.5 -3.5t-40 -14.5t-31 -30.5t-12.5 -51.5z" />
<glyph unicode="&#xa5;" horiz-adv-x="850" d="M31 1500v52h273v-52q-17 4 -26 0q-11 -4 -16 -18.5t3 -46.5q0 -2 17.5 -63t41.5 -158.5t56 -222.5t65 -251q42 128 82 252t71.5 222.5t52 160.5t20.5 64q11 31 6.5 46t-15.5 19q-8 2 -26 0v52h191v-52q-13 2 -30 0q-15 -4 -29 -19.5t-26 -45.5q0 -2 -21.5 -68t-55 -172.5 t-76 -237t-85.5 -262.5h182v-52h-197q-5 -9 -6 -15.5t-3 -16.5v-2v-101h206v-52h-206v-342q0 -31 8.5 -45.5t17.5 -16.5q12 -6 28 0v-56h-261v56q7 -2 15 -2q7 0 15 2t14 9q2 8 6.5 20.5t4.5 32.5v342h-222v52h222v101q-5 10 -6 17.5t-3 16.5h-213v52h200q-33 132 -67 262.5 t-62 235t-44.5 170.5t-16.5 68q-7 33 -21 47t-28 18q-19 4 -36 0z" />
<glyph unicode="&#xa6;" horiz-adv-x="190" d="M76 -406v910h50v-910h-50zM76 644v908h50v-908h-50z" />
<glyph unicode="&#xa7;" horiz-adv-x="655" d="M56 1011q4 56 26 111t67 94q-10 41 -14.5 75.5t-4.5 67.5q0 45 20 93t57.5 86t91 60t122.5 15q50 -4 87 -31.5t57.5 -63t26 -77t-2 -76.5t-30.5 -57.5t-58 -22.5q-32 0 -57 22.5t-25 53.5q0 29 16.5 48.5t44.5 25.5q2 0 3 1t4 1q24 7 27.5 30.5t-8.5 50.5 q-17 26 -46.5 43t-68.5 17q-80 0 -133 -47.5t-53 -136.5q0 -41 10.5 -77.5t33 -75t57.5 -87.5t85 -116q52 -70 93.5 -128.5t69.5 -116t40.5 -119t6.5 -131.5q-4 -54 -25 -110t-66 -95q19 -76 18 -141q0 -45 -19.5 -92t-58 -85.5t-91.5 -59t-123 -16.5q-49 4 -83.5 31 t-55.5 62t-29 76t1 77t31 57.5t59 21.5q35 0 58.5 -21.5t23.5 -54.5q0 -27 -17 -46t-44 -27h-8q-21 -9 -26 -33t10 -48t43.5 -42t71.5 -18q81 0 133 46.5t50 135.5q0 44 -11 78t-32.5 73.5t-58.5 88t-85 115.5q-52 67 -92 127.5t-68.5 117.5t-42.5 119t-8 131zM116 1040 q-5 -35 0.5 -64t26 -67.5t61 -90.5t107.5 -128q74 -85 117 -159.5t67 -139.5q46 46 52 123q0 37 -5.5 66.5t-26 67.5t-59.5 89t-104 127q-76 89 -120.5 161.5t-68.5 140.5q-21 -24 -33 -55.5t-14 -70.5z" />
<glyph unicode="&#xa8;" horiz-adv-x="472" d="M67 1680q0 29 18.5 47.5t44.5 18.5q29 0 48 -18.5t19 -47.5q0 -26 -19 -44t-48 -18q-26 0 -44.5 18.5t-18.5 43.5zM278 1680q0 29 18.5 47.5t46.5 18.5q29 0 47 -18.5t18 -47.5q0 -26 -18 -44t-47 -18q-28 0 -46.5 18.5t-18.5 43.5z" />
<glyph unicode="&#xa9;" horiz-adv-x="1202" d="M-4 692q0 70 8.5 136.5t26.5 126.5q37 126 108 217q76 102 186 153t246 51q137 0 246 -51t186 -153q72 -91 109 -217q17 -60 25.5 -126.5t8.5 -136.5t-8.5 -134.5t-25.5 -125.5q-35 -124 -109 -217q-156 -207 -432 -207q-275 0 -432 207q-74 93 -108 217q-17 61 -26 126 t-9 134zM35 692q0 -134 33.5 -251.5t100.5 -204.5t167.5 -137.5t234.5 -50.5q133 0 233.5 50.5t168 137.5t101 204.5t33.5 251.5q0 133 -33.5 251t-101 205t-168 138.5t-233.5 51.5q-134 0 -234.5 -51.5t-167.5 -138.5t-100.5 -205t-33.5 -251zM298 462v441q0 67 25 120.5 t64.5 90t89 56t96.5 19.5q25 0 45 -1t44 -11q3 -3 5 -3l17 -6q21 -4 44.5 -18.5t39.5 -14.5q25 0 25 39h52v-331h-44q0 52 -12 121.5t-60 120.5q-35 38 -75.5 48.5t-80.5 10.5q-62 -4 -105 -63.5t-43 -179.5v-435q0 -66 13.5 -109.5t36 -68.5t51.5 -35t64 -10q42 0 80 12 t67 39t46.5 75t17.5 120h44v-27q0 -56 -15.5 -103.5t-48 -84t-83.5 -57t-125 -20.5q-47 0 -96.5 18.5t-89 53.5t-64.5 84t-25 109z" />
<glyph unicode="&#xaa;" horiz-adv-x="679" d="M93 816v2q2 27 9.5 55t23 56t38.5 53t47 43q6 2 10.5 6.5t10.5 8.5q4 2 5 2t4 2q28 17 49 30.5t38 25.5q8 7 17 15t20 14q12 11 25.5 23t17.5 27q11 15 11 36.5t-5 39.5q-6 33 -31 58t-55 31q-15 4 -26 4q-43 0 -74 -16q-19 -8 -28 -19.5t-10 -22t3 -15.5t14 -9h3t3 -2 q19 -9 32.5 -27.5t13.5 -42.5q0 -29 -21 -49t-49 -20q-31 0 -52 20.5t-21 48.5q0 26 7 54t20 53q29 41 69 60.5t90 19.5q37 0 71.5 -14t62.5 -39t48 -60t20 -81v-447q0 -27 1 -35.5t1 -12.5q0 -19 12 -31t27 -12q21 0 33 12t12 29h33q0 -13 -5 -25t-17.5 -23.5t-30 -20 t-40.5 -8.5q-35 0 -64 15.5t-41 44.5q-8 15 -13 35q-19 -41 -59 -68t-90 -27q-61 0 -107 42q-27 21 -42.5 59t-18.5 85q-2 4 -2 17zM197 808q2 -59 32 -91.5t84 -32.5q26 0 45 12q19 14 26 33q12 19 15 44.5t3 46.5v280q-7 -6 -13.5 -11.5t-15.5 -11.5q-43 -33 -74.5 -59 t-52 -54t-33 -61t-16.5 -74v-21z" />
<glyph unicode="&#xab;" horiz-adv-x="839" d="M21 665v21l418 195v-43l-211 -98q-70 -33 -71 -64.5t73 -65.5l209 -96v-43zM352 665v21l416 195v-43l-208 -98q-70 -33 -71.5 -64.5t71.5 -65.5l208 -96v-43z" />
<glyph unicode="&#xad;" horiz-adv-x="489" d="M76 576v84h341v-84h-341z" />
<glyph unicode="&#xae;" horiz-adv-x="1202" d="M-4 692q0 70 8.5 136.5t26.5 126.5q37 126 108 217q76 102 186 153t246 51q137 0 246 -51t186 -153q72 -91 109 -217q17 -60 25.5 -126.5t8.5 -136.5t-8.5 -134.5t-25.5 -125.5q-35 -124 -109 -217q-156 -207 -432 -207q-275 0 -432 207q-74 93 -108 217q-17 61 -26 126 t-9 134zM35 692q0 -134 33.5 -251.5t100.5 -204.5t167.5 -137.5t234.5 -50.5q133 0 233.5 50.5t168 137.5t101 204.5t33.5 251.5q0 133 -33.5 251t-101 205t-168 138.5t-233.5 51.5q-134 0 -234.5 -51.5t-167.5 -138.5t-100.5 -205t-33.5 -251zM288 211v50q15 -7 25 0 q10 2 19 13.5t9 40.5v764q0 29 -9 41.5t-19 16.5q-9 3 -25 0v46h279q72 0 126 -24t90.5 -63t55.5 -89t19 -104v-17q0 -76 -38.5 -146.5t-120.5 -105.5q110 -46 111 -172v-91q0 -50 6.5 -85.5t43.5 -35.5q12 0 20 3.5t17 7.5v-44q-13 -10 -29.5 -18t-47.5 -8q-24 0 -50 10 t-46 30.5t-35.5 55t-17.5 84.5v100q0 43 -12 68t-29 39.5t-38 18.5t-41 6h-78v-288q0 -29 8 -40.5t16 -13.5q11 -7 25 0v-50h-234zM473 658h105q15 0 39.5 10.5t47.5 33.5t39.5 58t16.5 85v102q0 47 -16.5 83t-39.5 59t-47.5 34.5t-39.5 11.5h-105v-477z" />
<glyph unicode="&#xaf;" horiz-adv-x="694" d="M-13 1311v118h630v-118h-630z" />
<glyph unicode="&#xb0;" horiz-adv-x="711" d="M60 1102q0 61 22 113.5t60 90.5t90 60t114 22q60 0 111 -22t89 -60t60 -90t22 -114q0 -60 -22 -111t-60 -89t-89 -60t-111 -22q-61 0 -113.5 22t-90.5 60t-60 89t-22 111zM167 1102q0 -78 48 -133t131 -55q80 0 129 55.5t49 132.5q0 79 -49.5 134.5t-128.5 55.5 q-83 0 -131 -55.5t-48 -134.5z" />
<glyph unicode="&#xb1;" d="M56 460v66h319v317h66v-317h321v-66h-321v-323h-66v323h-319zM58 0v65h706v-65h-706z" />
<glyph unicode="&#xb4;" horiz-adv-x="346" d="M17 1249l132 190q52 77 79 98q19 15 43 15q27 0 46 -17q19 -21 19 -44q0 -39 -56 -80l-245 -182z" />
<glyph unicode="&#xb6;" horiz-adv-x="1048" d="M93 1013q0 89 30.5 167.5t92.5 129.5t155 51h630v-52q-17 4 -28 0q-8 -4 -18.5 -18.5t-10.5 -46.5v-1318q0 -31 10 -44.5t19 -16.5q11 -6 28 0v-56h-206v117v1318q0 33 -10 47t-17 18q-4 0 -19 1t-34 1t-33.5 -1t-16.5 -1q-11 -4 -22 -18.5t-11 -46.5v-1318v-117h-205v56 q15 -6 29 0q8 3 17 17t9 44v741h-111q-93 0 -154 50.5t-92.5 128.5t-31.5 167zM243 938q0 -97 37 -140.5t83 -61.5q53 -19 119 -11v582q-66 15 -119 0q-46 -13 -83 -61t-37 -154v-154z" />
<glyph unicode="&#xb7;" horiz-adv-x="277" d="M52 752q4 37 32 59t63 18q37 -4 61 -32.5t20 -62.5q-4 -38 -32.5 -60.5t-65.5 -18.5q-35 4 -58.5 33t-19.5 64z" />
<glyph unicode="&#xb8;" horiz-adv-x="375" d="M37 -252.5q-6 33.5 10 60.5t51 27q19 0 36.5 -12t17.5 -34q0 -15 -12 -27t-30 -16h-2q-17 -3 -21 -16.5t6 -29.5q13 -15 32.5 -24.5t46.5 -9.5q24 0 39 8.5t22.5 24t9.5 37t4 47.5v18q0 50 -19 65.5t-41 21.5q-31 2 -63 -12l58 124l33 -2l-39 -81q6 0 13 2q6 0 16 1.5 t25 -3.5q39 -8 73.5 -35t34.5 -91q-4 -60 -45 -104.5t-115 -44.5q-13 0 -29 4q-49 4 -77.5 36t-34.5 65.5zM338 -199v-18v8v10z" />
<glyph unicode="&#xba;" horiz-adv-x="526" d="M60 843v340q0 58 19 98.5t49.5 67.5t67 39t73.5 12t72.5 -12t66.5 -38t50.5 -67.5t19.5 -97.5v-342q0 -46 -19.5 -84t-50.5 -65t-66.5 -43.5t-72.5 -16.5t-73.5 13t-66 40t-49.5 66.5t-20 89.5zM167 881q0 -116 26 -164t74 -48q50 0 76 48.5t26 163.5v271q0 59 -6.5 99.5 t-19.5 64.5t-33 33.5t-43 9.5q-48 0 -74 -44.5t-26 -162.5v-271z" />
<glyph unicode="&#xbb;" horiz-adv-x="841" d="M74 473v45l206 97q74 33 72 65t-72 64l-206 99v43l415 -196v-21zM402 473v45l208 97q72 33 70.5 65t-67.5 64l-211 99v43l418 -196v-21z" />
<glyph unicode="&#xbf;" horiz-adv-x="650" d="M19 360q0 75 17.5 141t48.5 127.5t69.5 119.5t83.5 116q33 39 53 82.5t37 91.5q10 19 12.5 44t7.5 47q2 24 4 45h46q16 -82 5.5 -181.5t-49.5 -176.5q-17 -35 -36.5 -67t-39 -68.5t-38 -70.5t-27.5 -72q-21 -82 -18.5 -168t18.5 -171q9 -62 39 -105.5t104 -43.5 q56 0 93.5 25t60.5 62q17 35 12.5 67t-38.5 43q-2 2 -8 3q-35 9 -51.5 24.5t-16.5 55.5q0 43 25 72.5t71 29.5q47 0 76.5 -29.5t40.5 -73t2.5 -96.5t-36 -100.5t-74.5 -83.5t-113 -49q-72 -13 -143 0q-65 13 -110 48t-74.5 84.5t-41.5 109.5t-12 118zM286 1483q4 37 32 60 t64 18q35 -4 58.5 -30.5t19.5 -63.5q-4 -39 -31 -60.5t-62 -16.5q-37 2 -61 30t-20 63z" />
<glyph unicode="&#xc0;" horiz-adv-x="715" d="M17 0v56q15 -6 33 0q13 2 27 16.5t21 45.5q0 2 9 63.5t24.5 163.5t36.5 230.5t43 265.5q50 314 112 711h98q56 -398 101 -709q16 -137 33.5 -265.5t32.5 -230.5t24 -164.5t9 -64.5q4 -31 16 -45.5t28 -16.5q17 -6 34 0v-56h-280v56q19 -6 33 0q8 2 16 16.5t3 45.5 q0 2 -9.5 78.5t-24.5 196.5h-228q-19 -120 -29 -196.5t-10 -78.5q-7 -31 1.5 -45.5t17.5 -16.5q10 -6 30 0v-56h-202zM217 445h213q-12 83 -23.5 178.5t-24.5 189.5t-27 186.5t-25 172.5q-15 -80 -29.5 -172.5t-28 -186.5t-29 -189.5t-26.5 -178.5zM228 1835q0 21 15 36 q19 15 37 16q35 0 63 -42l146 -208l-13 -13l-178 128q-70 52 -70 83z" />
<glyph unicode="&#xc1;" horiz-adv-x="715" d="M17 0v56q15 -6 33 0q13 2 27 16.5t21 45.5q0 2 9 63.5t24.5 163.5t36.5 230.5t43 265.5q50 314 112 711h98q56 -398 101 -709q16 -137 33.5 -265.5t32.5 -230.5t24 -164.5t9 -64.5q4 -31 16 -45.5t28 -16.5q17 -6 34 0v-56h-280v56q19 -6 33 0q8 2 16 16.5t3 45.5 q0 2 -9.5 78.5t-24.5 196.5h-228q-19 -120 -29 -196.5t-10 -78.5q-7 -31 1.5 -45.5t17.5 -16.5q10 -6 30 0v-56h-202zM217 445h213q-12 83 -23.5 178.5t-24.5 189.5t-27 186.5t-25 172.5q-15 -80 -29.5 -172.5t-28 -186.5t-29 -189.5t-26.5 -178.5zM228 1637l143 208 q29 42 66 42q17 0 36 -16q15 -19 16 -36q0 -31 -72 -83l-176 -128z" />
<glyph unicode="&#xc2;" horiz-adv-x="717" d="M17 0v56q15 -6 33 0q15 2 28 16.5t20 45.5q0 2 9 63.5t24.5 163.5t36.5 230.5t43 265.5q50 314 112 711h98q58 -398 101 -709q16 -137 33.5 -265.5t32.5 -230.5t24 -164.5t9 -64.5q4 -31 17 -45.5t27 -16.5q17 -6 34 0v-56h-280v56q19 -6 33 0q8 2 16 16.5t3 45.5 q0 2 -9.5 78.5t-24.5 196.5h-228q-17 -120 -28 -196.5t-11 -78.5q-7 -31 1.5 -45.5t17.5 -16.5q10 -6 30 0v-56h-202zM217 445h213q-12 83 -23.5 178.5t-24.5 189.5t-27 186.5t-25 172.5q-15 -80 -29.5 -172.5t-28 -186.5t-29 -189.5t-26.5 -178.5zM236 1645l127 217h12h12 l125 -217h-30q-8 15 -18 27q-8 12 -17.5 27.5t-23.5 32.5q-11 15 -25 21t-23 6q-10 0 -23.5 -5.5t-26.5 -21.5q-12 -17 -22 -32.5t-19 -27.5q-8 -11 -17 -27h-31z" />
<glyph unicode="&#xc3;" horiz-adv-x="717" d="M17 0v56q15 -6 33 0q13 2 27 16.5t21 45.5q0 2 9 63.5t24.5 163.5t36.5 230.5t43 265.5q50 314 112 711h98q56 -398 101 -709q16 -137 33.5 -265.5t32.5 -230.5t24 -164.5t9 -64.5q4 -31 16 -45.5t28 -16.5q17 -6 34 0v-56h-280v56q19 -6 33 0q8 2 16 16.5t3 45.5 q0 2 -9.5 78.5t-24.5 196.5h-228q-19 -120 -29 -196.5t-10 -78.5q-7 -31 1.5 -45.5t17.5 -16.5q10 -6 30 0v-56h-202zM152 1724q0 56 24.5 95t88.5 39q33 0 66.5 -16.5t66 -32t61 -27t47.5 -0.5q12 4 18 14t8 21v20h28q0 -54 -23 -93.5t-85 -39.5q-33 0 -66.5 16t-66.5 32.5 t-61 27.5t-47 2q-15 -9 -19.5 -18.5t-7.5 -17.5q-2 -9 -2 -22h-30zM217 445h213q-12 83 -23.5 178.5t-24.5 189.5t-27 186.5t-25 172.5q-15 -80 -29.5 -172.5t-28 -186.5t-29 -189.5t-26.5 -178.5z" />
<glyph unicode="&#xc4;" horiz-adv-x="721" d="M19 0v56q15 -6 33 0q13 2 27 16.5t21 45.5q0 2 9 63.5t24.5 163.5t36.5 230.5t43 265.5q50 314 112 711h98q56 -398 101 -709q17 -137 34.5 -265.5t32 -230.5t23.5 -164.5t9 -64.5q5 -31 16.5 -45.5t27.5 -16.5q17 -6 35 0v-56h-281v56q19 -6 33 0q8 2 16 16.5t3 45.5 q0 2 -9.5 78.5t-24.5 196.5h-228q-19 -120 -29 -196.5t-10 -78.5q-7 -31 1.5 -45.5t17.5 -16.5q10 -6 31 0v-56h-203zM205 1680q0 29 18 47.5t46 18.5q29 0 47 -18.5t18 -47.5q0 -26 -18 -44t-47 -18q-28 0 -46 18.5t-18 43.5zM219 445h213q-12 83 -23 178.5t-24.5 189.5 t-27.5 186.5t-25 172.5q-15 -80 -29.5 -172.5t-28 -186.5t-29 -189.5t-26.5 -178.5zM417 1680q0 29 18.5 47.5t44.5 18.5q29 0 47 -18.5t18 -47.5q0 -26 -18 -44t-47 -18q-26 0 -44.5 18.5t-18.5 43.5z" />
<glyph unicode="&#xc5;" horiz-adv-x="725" d="M21 0v56q15 -6 33 0q13 2 27 16.5t21 45.5q0 2 9 63.5t23.5 163.5t35.5 230.5t45 265.5q50 314 113 711h97q56 -398 101 -709q17 -137 34.5 -265.5t32 -230.5t23.5 -164.5t9 -64.5q5 -31 16.5 -45.5t27.5 -16.5q17 -6 35 0v-56h-281v56q19 -6 33 0q8 2 16 16.5t4 45.5 q0 2 -10 78.5t-27 196.5h-226q-19 -120 -29 -196.5t-10 -78.5q-7 -31 0.5 -45.5t16.5 -16.5q13 -6 31 0v-56h-201zM222 445h213q-13 83 -25 178.5t-24.5 189.5t-26 186.5t-25.5 172.5q-15 -80 -29.5 -172.5t-29 -186.5t-29 -189.5t-24.5 -178.5zM234 1752q0 58 39 96 q40 39 96 39q54 0 91 -39q39 -40 39 -94q0 -52 -39 -91t-93 -39q-52 0 -94 39q-39 37 -39 89zM286 1752q0 -33 25 -54q26 -24 58 -24q30 0 54 26q24 21 24 54t-22 59q-24 21 -56 22q-33 0 -56 -25q-27 -24 -27 -58z" />
<glyph unicode="&#xc6;" horiz-adv-x="967" d="M26 0v56q17 -6 34 0q11 2 25.5 16.5t20.5 45.5q0 2 12 58t34 149.5t49 211.5t54 243t55 244.5t50 216.5t36 158.5t16 67.5q5 15 -3.5 23t-19.5 10t-31 0v52h543v-228h-54q-2 50 -16 89q-11 33 -35.5 62t-66.5 29h-165v-874h91q31 0 45 15t21 37q8 24 8 54h48v-265h-48 q0 28 -8 53q-7 21 -21 37.5t-45 16.5h-91v-526h165q42 0 66.5 26t35.5 61q13 39 16 89h54v-228h-543v56q17 -6 29 0q11 2 20.5 16.5t9.5 45.5v460h-141q-19 -91 -36.5 -175t-32 -148t-20.5 -101l-7 -36q-6 -31 0.5 -45.5t14.5 -16.5q13 -6 33 0v-56h-202zM286 630h131v617 q-11 -50 -25.5 -120t-32.5 -151t-36.5 -169t-36.5 -177z" />
<glyph unicode="&#xc7;" horiz-adv-x="694" d="M56 293v484v482q0 72 27 125t70.5 91t96 57.5t104.5 19.5q74 0 122 -17t75 -28t35.5 -7t8.5 50h52v-376h-48q-2 40 -11 79q-4 33 -14 71.5t-25 73.5q-6 11 -15.5 27.5t-31.5 32.5t-57 29t-91 13q-70 0 -117.5 -55t-47.5 -188v-480v-479q0 -135 46.5 -191.5t116.5 -56.5 q54 0 98.5 15.5t77 48.5t50 90t17.5 142v58h52v-111q0 -135 -74 -212t-202 -81l-30 -60q7 0 13 2q9 0 17 1t24 -3q40 -5 74.5 -33.5t34.5 -90.5q-5 -63 -46 -106.5t-115 -43.5q-12 0 -28 2q-50 7 -78 38t-34 65t9.5 61t50.5 27q21 0 37.5 -13t16.5 -33q0 -14 -12 -26.5 t-29 -14.5h-3q-16 -4 -21 -18.5t7 -29.5q12 -17 32 -26t45 -9q27 0 42 7.5t22.5 24t9.5 38.5t2 48v15q0 50 -19.5 66.5t-40.5 20.5q-29 2 -64 -9l48 100q-50 4 -99.5 26t-89 59t-65.5 89t-26 119zM504 -178v-15v9v6z" />
<glyph unicode="&#xc8;" horiz-adv-x="607" d="M39 0v56q17 -6 31 0q6 2 15.5 16.5t9.5 45.5v1317q0 33 -9.5 47t-15.5 18q-13 4 -31 0v52h543v-228h-54q-2 50 -16 89q-8 33 -33 62t-71 29h-163v-703h91q29 0 43 15t23 35q6 25 6 54h52v-267h-52q0 31 -6 52q-9 21 -23 37.5t-43 16.5h-91v-692h163q46 0 71 26t33 61 q13 39 16 89h54v-228h-543zM193 1835q0 21 16 36q21 15 36 16q37 0 63 -42l146 -208l-13 -13l-178 128q-70 52 -70 83z" />
<glyph unicode="&#xc9;" horiz-adv-x="609" d="M37 0v56q17 -6 30 0q8 2 17 16.5t9 45.5v1317q0 33 -8.5 47t-17.5 18q-13 4 -30 0v52h545v-228h-56q-2 50 -16 89q-9 33 -33.5 62t-70.5 29h-163v-703h91q29 0 43 15t23 35q6 25 6 54h52v-267h-52q0 31 -6 52q-9 21 -23 37.5t-43 16.5h-91v-692h163q46 0 70.5 26t33.5 61 q13 39 16 89h56v-228h-545zM230 1637l141 208q31 42 66 42q17 0 36 -16q15 -19 16 -36q0 -31 -70 -83l-178 -128z" />
<glyph unicode="&#xca;" horiz-adv-x="607" d="M41 0v56q17 -6 31 0q6 2 16 16.5t10 45.5v1317q0 33 -10 47t-16 18q-13 4 -31 0v52h543v-228h-54q-2 50 -16 89q-8 33 -33 62t-71 29h-163v-703h91q29 0 43 15t23 35q6 25 6 54h52v-267h-52q0 31 -6 52q-9 21 -23 37.5t-43 16.5h-91v-692h163q46 0 71 26t33 61 q13 39 16 89h54v-228h-543zM187 1645l124 217h12h11l126 -217h-30q-8 15 -18 27q-6 12 -17 27.5t-24 32.5q-11 15 -25 21t-23 6q-10 0 -23.5 -5.5t-26.5 -21.5q-12 -17 -22 -32.5t-19 -27.5q-6 -11 -17 -27h-28z" />
<glyph unicode="&#xcb;" horiz-adv-x="628" d="M48 0v56q17 -6 28 0q9 2 18.5 16.5t9.5 45.5v1317q0 33 -9.5 47t-18.5 18q-10 4 -28 0v52h542v-228h-56q-2 50 -12 89q-11 33 -35.5 62t-69.5 29h-163v-703h92q26 0 41 15t21 35q9 25 9 54h49v-267h-49q0 31 -9 52q-6 21 -21.5 37.5t-40.5 16.5h-92v-692h163q45 0 69 26 t36 61q10 39 12 89h56v-228h-542zM167 1680q0 29 19 47.5t46 18.5q29 0 47.5 -18.5t18.5 -47.5q0 -26 -18.5 -44t-47.5 -18q-28 0 -46.5 18.5t-18.5 43.5zM379 1680q0 29 19 47.5t47 18.5q27 0 45 -18.5t18 -47.5q0 -26 -18 -44t-45 -18q-28 0 -47 18.5t-19 43.5z" />
<glyph unicode="&#xcc;" horiz-adv-x="321" d="M31 0v56q17 -6 29 0q9 2 18 16.5t9 45.5v1315q0 33 -8.5 47t-18.5 18q-12 6 -29 0v52h262v-52q-15 6 -28 0q-8 -4 -18.5 -18.5t-10.5 -46.5v-1315q0 -31 10.5 -45.5t18.5 -16.5q13 -6 28 0v-56h-262zM31 1835q0 21 12 36q22 15 38 16q35 0 64 -42l143 -208l-12 -13 l-178 128q-67 52 -67 83z" />
<glyph unicode="&#xcd;" horiz-adv-x="327" d="M31 0v56q15 -6 27 0q11 2 19 16.5t8 45.5v1315q0 33 -7.5 47t-19.5 18q-12 6 -27 0v52h259v-52q-14 6 -25 0q-11 -4 -20 -18.5t-9 -46.5v-1315q0 -31 9 -45.5t20 -16.5q11 -6 25 0v-56h-259zM41 1637l146 208q28 42 63 42q17 0 36 -16q17 -19 18 -36q0 -31 -72 -83 l-176 -128z" />
<glyph unicode="&#xce;" horiz-adv-x="329" d="M31 1645l123 217h11h13l126 -217h-31q-8 15 -16 27q-9 12 -20 27.5t-22 32.5q-13 15 -26 21t-24 6q-10 0 -22.5 -5.5t-26.5 -21.5q-11 -17 -22 -32.5t-20 -27.5q-4 -11 -16 -27h-27zM33 0v56q17 -6 30 0q8 2 17 16.5t9 45.5v1315q0 33 -8.5 47t-17.5 18q-13 6 -30 0v52 h263v-52q-17 6 -29 0q-8 -4 -18.5 -18.5t-10.5 -46.5v-1315q0 -31 10.5 -45.5t18.5 -16.5q11 -6 29 0v-56h-263z" />
<glyph unicode="&#xcf;" horiz-adv-x="387" d="M29 1680q0 29 18 47.5t44 18.5q27 0 45 -18.5t18 -47.5q0 -26 -18 -44t-45 -18q-26 0 -44 18.5t-18 43.5zM60 0v56q13 -6 27 0q11 2 18 16.5t7 45.5v1315q0 33 -7 47t-18 18q-13 6 -27 0v52h259v-52q-15 6 -26 0q-11 -4 -19.5 -18.5t-8.5 -46.5v-1315q0 -31 8.5 -45.5 t19.5 -16.5q10 -6 26 0v-56h-259zM236 1680q0 29 20 47.5t46 18.5q29 0 47 -18.5t18 -47.5q0 -26 -18 -44t-47 -18q-26 0 -46 18.5t-20 43.5z" />
<glyph unicode="&#xd1;" horiz-adv-x="739" d="M43 0v56q17 -6 31 0q7 2 17.5 16.5t10.5 45.5v1317q0 33 -10.5 47t-17.5 18q-13 4 -31 0v52h198l343 -1131v183.5v216.5t-1 221t-1 196v140.5v56.5q0 33 -9 47t-20 18q-10 4 -25 0v52h168v-52q-19 4 -31 0q-9 -4 -18 -18.5t-9 -46.5v-1435h-71l-408 1249v-1131 q0 -31 8.5 -45.5t19.5 -16.5q10 -6 26 0v-56h-170zM174 1724q0 56 25 95t85 39q33 0 68 -16.5t66 -32t59.5 -27t50.5 -0.5q10 4 15.5 14t7.5 21q2 8 2 20h29q0 -54 -24 -93.5t-87 -39.5q-31 0 -65.5 16t-66 32.5t-60.5 27.5t-47 2q-15 -9 -20 -18.5t-7 -17.5q-3 -9 -4 -22 h-27z" />
<glyph unicode="&#xd2;" horiz-adv-x="690" d="M52 293v990q0 66 27 123t69.5 94t93.5 56.5t104 19.5q49 0 102 -22.5t94.5 -63t68.5 -93.5t27 -114v-995q0 -80 -27 -136.5t-68.5 -94.5t-93 -55t-103.5 -17t-103.5 17t-94 56.5t-69.5 97t-27 137.5zM201 336q0 -83 3 -139t16.5 -90.5t43 -47.5t82.5 -13q52 0 81 13 t42 47.5t16.5 91t3.5 138.5v888q0 85 -2.5 141t-15.5 92.5t-42 51.5t-83 15t-84 -15t-43.5 -51.5t-15.5 -92.5t-2 -141v-888zM224 1835q0 21 14 36q20 15 38 16q35 0 62 -42l146 -208l-15 -13l-179 128q-66 52 -66 83z" />
<glyph unicode="&#xd3;" horiz-adv-x="692" d="M52 293v990q0 66 27 123t69.5 94t93.5 56.5t104 19.5q49 0 102 -22.5t95.5 -63t68.5 -93.5t26 -114v-995q0 -80 -26 -136.5t-68.5 -94.5t-94 -55t-103.5 -17t-103.5 17t-94 56.5t-69.5 97t-27 137.5zM201 336q0 -83 3 -139t16.5 -90.5t43 -47.5t82.5 -13q52 0 81 13 t42 47.5t16.5 91t3.5 138.5v888q0 85 -2.5 141t-15.5 92.5t-42 51.5t-83 15t-83 -15t-43.5 -51.5t-16.5 -92.5t-2 -141v-888zM245 1637l144 208q29 42 63 42q17 0 39 -16q15 -19 15 -36q0 -31 -71 -83l-176 -128z" />
<glyph unicode="&#xd4;" horiz-adv-x="692" d="M54 293v990q0 66 27 123t69.5 94t94 56.5t103.5 19.5q50 0 103 -22.5t94 -63t68 -93.5t27 -114v-995q0 -80 -27 -136.5t-68 -94.5t-93 -55t-104 -17t-103.5 17t-94 56.5t-69.5 97t-27 137.5zM205 336q0 -83 2 -139t15.5 -90.5t43.5 -47.5t82 -13t81 13t42 47.5t16.5 91 t3.5 138.5v888q0 85 -2 141t-15.5 92.5t-42.5 51.5t-83 15t-84 -15t-43.5 -51.5t-14.5 -92.5t-1 -141v-888zM205 1645l123 217h13h11l126 -217h-29q-10 15 -19 27q-6 12 -17 27.5t-22 32.5q-13 15 -26 21t-24 6q-10 0 -22.5 -5.5t-28.5 -21.5q-12 -17 -21.5 -32.5 t-18.5 -27.5q-6 -11 -16 -27h-29z" />
<glyph unicode="&#xd5;" horiz-adv-x="696" d="M56 293v990q0 66 27 123t69.5 94t94 56.5t103.5 19.5q50 0 103 -22.5t94 -63t68 -93.5t27 -114v-995q0 -80 -27 -136.5t-68 -94.5t-93 -55t-104 -17t-103.5 17t-94 56.5t-69.5 97t-27 137.5zM156 1724q0 56 24.5 95t86.5 39q31 0 65.5 -16.5t67 -32t61 -27t47.5 -0.5 q10 4 17 14t9 21q2 8 2 20h26q0 -54 -24 -93.5t-84 -39.5q-33 0 -66.5 16t-66.5 32.5t-61 27.5t-49 2q-13 -9 -17.5 -18.5t-6.5 -17.5q-3 -9 -3 -22h-28zM207 336q0 -83 2 -139t15.5 -90.5t43.5 -47.5t82 -13t81 13t42.5 47.5t16.5 91t3 138.5v888q0 85 -2 141t-15.5 92.5 t-42.5 51.5t-83 15t-84 -15t-43.5 -51.5t-14.5 -92.5t-1 -141v-888z" />
<glyph unicode="&#xd6;" horiz-adv-x="709" d="M63 293v990q0 66 27.5 123t68 94t93 56.5t102.5 19.5q52 0 104 -22.5t94.5 -63t69.5 -93.5t27 -114v-995q0 -80 -27 -136.5t-69.5 -94.5t-93.5 -55t-105 -17q-50 0 -102.5 17t-93 56.5t-68 97t-27.5 137.5zM191 1680q0 29 18.5 47.5t44.5 18.5q29 0 47 -18.5t18 -47.5 q0 -26 -18 -44t-47 -18q-26 0 -44.5 18.5t-18.5 43.5zM211 336q0 -83 3 -139t17 -90.5t43.5 -47.5t79.5 -13q54 0 83 13t42.5 47.5t15.5 91t2 138.5v888q0 85 -1 141t-14 92.5t-42.5 51.5t-85.5 15q-52 0 -81.5 -15t-43.5 -51.5t-16 -92.5t-2 -141v-888zM402 1680 q0 29 18.5 47.5t45.5 18.5q29 0 47.5 -18.5t18.5 -47.5q0 -26 -18.5 -44t-47.5 -18q-28 0 -46 18.5t-18 43.5z" />
<glyph unicode="&#xd8;" horiz-adv-x="733" d="M50 512.5v243.5q0 188 2 310.5t20 205.5q9 70 43 123t84 86q77 50 164 50q86 0 163 -50q50 -33 85.5 -86t41.5 -123q17 -83 19.5 -205.5t2.5 -310.5v-243.5t-5 -178t-19.5 -129t-43.5 -95.5q-43 -62 -109 -95.5t-135 -33.5q-67 0 -134.5 33.5t-110.5 95.5 q-29 42 -43.5 95.5t-19.5 129t-5 178zM132 -48q122 448 218 802q41 149 80 293t69.5 258t40.5 149l29 104h59l-437 -1606h-59zM199 278q0 -137 41.5 -192t124.5 -55q80 0 120.5 55t40.5 192v216t2 262q-2 134 -2 261v216q0 67 -13.5 113t-35 74t-50.5 41t-64 13 q-70 0 -117 -54.5t-47 -186.5v-477v-478z" />
<glyph unicode="&#xd9;" horiz-adv-x="779" d="M41 1500v52h261v-52q-17 4 -29 0q-8 -4 -18 -18.5t-10 -46.5v-78.5v-191.5t1 -252.5t1 -259v-209.5v-108q0 -167 37 -236t105 -69h2h2q67 0 104 69.5t37 235.5v170q0 52 2 111v818q0 33 -9 47t-19 18q-11 4 -26 0v52h256v-52q-13 4 -26 0q-10 -4 -18 -18.5t-8 -46.5 v-1157q0 -70 -27 -125t-70.5 -94.5t-94.5 -58.5t-103 -19q-50 0 -102.5 19t-94.5 58.5t-68 94t-26 123.5v61.5v137v185.5t-1 208.5t-1 208.5v182.5v127v48.5q0 33 -10 47t-16 18q-13 4 -31 0zM261 1835q0 21 15 36q19 15 37 16q35 0 62 -42l147 -208l-16 -13l-178 128 q-67 52 -67 83z" />
<glyph unicode="&#xda;" horiz-adv-x="781" d="M39 1500v52h261v-52q-17 4 -29 0q-8 -4 -18 -18.5t-10 -46.5v-78.5v-191.5t1 -252.5t1 -259v-209.5v-108q0 -167 37 -236t105 -69h2h2q67 0 104 69.5t37 235.5v170q0 52 2 111v818q0 33 -9 47t-19 18q-11 4 -26 0v52h258v-52q-15 4 -28 0q-10 -4 -18 -18.5t-8 -46.5 v-1157q0 -70 -27 -125t-70.5 -94.5t-94.5 -58.5t-103 -19q-50 0 -102.5 19t-93.5 58.5t-68 94t-27 123.5v61.5v137v185.5t-1.5 208.5t-1.5 208.5v182.5v127v48.5q0 33 -9.5 47t-15.5 18q-13 4 -31 0zM271 1637l143 208q31 42 66 42q17 0 36 -16q15 -19 16 -36q0 -31 -70 -83 l-178 -128z" />
<glyph unicode="&#xdb;" horiz-adv-x="779" d="M41 1500v52h261v-52q-17 4 -29 0q-8 -4 -18 -18.5t-10 -46.5v-78.5v-191.5t1 -252.5t1 -259v-209.5v-108q0 -167 37 -236t105 -69h2h2q67 0 104 69.5t37 235.5v170q0 52 2 111v818q0 33 -9 47t-19 18q-11 4 -26 0v52h256v-52q-13 4 -26 0q-10 -4 -18 -18.5t-8 -46.5 v-1157q0 -70 -27 -125t-70.5 -94.5t-94.5 -58.5t-103 -19q-50 0 -102.5 19t-94.5 58.5t-68 94t-26 123.5v61.5v137v185.5t-1 208.5t-1 208.5v182.5v127v48.5q0 33 -10 47t-16 18q-13 4 -31 0zM250 1645l125 217h12h13l126 -217h-31q-8 15 -17 27q-8 12 -19.5 27.5 t-21.5 32.5q-11 15 -25 21t-25 6q-9 0 -22 -5.5t-27 -21.5q-15 -17 -23.5 -32.5t-16.5 -27.5q-9 -11 -18 -27h-30z" />
<glyph unicode="&#xdc;" horiz-adv-x="793" d="M48 1500v52h260v-52q-16 4 -28 0q-9 -4 -18.5 -18.5t-9.5 -46.5v-78.5v-191.5t1 -252.5t1 -259v-209.5v-108q0 -167 35.5 -236t105.5 -69h3h2q66 0 103.5 69.5t37.5 235.5v170q0 52 2 111v818q0 33 -8.5 47t-20.5 18q-10 4 -25 0v52h255v-52q-13 4 -25 0 q-11 -4 -19 -18.5t-8 -46.5v-1157q0 -70 -27 -125t-70.5 -94.5t-94.5 -58.5t-102 -19q-50 0 -102.5 19t-94.5 58.5t-68.5 94t-26.5 123.5v61.5v137v185.5t-1 208.5t-1 208.5v182.5v127v48.5q0 33 -9.5 47t-18.5 18q-10 4 -28 0zM228 1680q0 29 18.5 47.5t43.5 18.5 q29 0 47.5 -18.5t18.5 -47.5q0 -26 -18.5 -44t-47.5 -18q-26 0 -44 18.5t-18 43.5zM439 1680q0 29 18.5 47.5t46.5 18.5t46.5 -18.5t18.5 -47.5q0 -26 -18.5 -44t-46.5 -18q-29 0 -47 18.5t-18 43.5z" />
<glyph unicode="&#xdd;" horiz-adv-x="820" d="M15 1500v52h275v-52q-19 4 -27 0q-9 -4 -15.5 -18.5t4.5 -46.5q0 -2 15 -63t41 -159.5t56.5 -223.5t65.5 -253q42 128 81.5 253t71.5 223.5t52 159.5t20 63q11 33 7 47t-13 18t-28 0v52h189v-52q-13 4 -31 0q-13 -4 -27 -18.5t-25 -46.5q0 -4 -24 -80.5t-63 -195.5 t-85.5 -263t-92.5 -286v-3v-489q0 -31 9 -45.5t20 -16.5q10 -6 27 0v-56h-259v56q6 -2 12 -2q7 0 16 2t13 9q13 15 13 53v489q-37 141 -74.5 287t-67.5 265t-49.5 196.5t-19.5 79.5q-11 33 -24 47t-28 18q-19 4 -35 0zM308 1637l144 208q28 42 64 42q15 0 37 -16 q15 -19 16 -36q0 -31 -72 -83l-176 -128z" />
<glyph unicode="&#xdf;" horiz-adv-x="976" d="M56 0v56q17 -6 27 0q10 2 19.5 16.5t9.5 45.5v47.5v119v168t2 193t2 194.5v174v129v58q0 72 24.5 134.5t67 111.5t94.5 77t104 28h172h8h29h2v-2q143 -7 220 -115.5t77 -279.5q0 -60 -12 -120t-35.5 -111.5t-55.5 -89.5t-71 -55q78 -33 126 -128.5t48 -263.5 q0 -81 -22 -150.5t-64.5 -121.5t-102.5 -81.5t-139 -29.5q-78 0 -133 34t-88 86t-42.5 113t0 113t40 86.5t80.5 34.5q46 0 77 -31.5t31 -76.5q0 -38 -21.5 -66t-58.5 -36q-2 -2 -9 -2q-33 -9 -38 -43t13 -71q24 -35 61.5 -60t94.5 -25q54 0 81.5 21t39 59t13.5 89t4 114 q3 63 1.5 127t-13 119t-35.5 97.5t-67 65.5q-6 2 -40 3t-71 1q-46 0 -98 -2v49h98h69t42 5q41 15 64 57t34.5 99t13.5 122.5t2 129.5q0 139 -45.5 208.5t-138.5 79.5h-141h74q-33 0 -72 -10.5t-70.5 -42.5t-53 -92.5t-21.5 -160.5v-68v-131.5v-175t-1 -194t-1 -188.5v-162.5 v-115v-45.5q0 -31 8.5 -45.5t16.5 -16.5q13 -6 29 0v-56h-259z" />
<glyph unicode="&#xe0;" d="M39 273v3q2 37 15 77t35.5 80t52.5 76t67 62q8 5 14.5 10t17.5 12q2 2 4 3t7 3q40 24 69 43.5t52 36.5q13 9 27 20t27 22q19 13 38 30t28 42q11 21 11 51t-5 55q-10 48 -45 82t-81 46q-17 7 -35 7q-60 0 -104 -23q-30 -12 -42 -28.5t-14 -30.5t5.5 -23t15.5 -13 q5 -2 6.5 -2t5.5 -2q31 -11 49 -38t18 -60q0 -41 -30.5 -70.5t-71.5 -29.5q-44 0 -73 29.5t-29 70.5q0 37 8.5 77.5t29.5 72.5q42 60 99.5 87.5t126.5 27.5q50 0 101.5 -19.5t92.5 -55.5t67 -86t26 -115v-638q0 -39 1.5 -51t1.5 -16q0 -29 17 -46t45 -17q24 0 41.5 16 t20.5 42h45q0 -17 -9 -35.5t-25 -35t-40 -29t-58 -12.5q-50 0 -91.5 24t-59.5 62q-10 21 -17 51q-31 -59 -87 -98t-128 -39q-85 0 -152 62q-37 33 -60.5 85t-28.5 119q-2 6 -2 26zM191 261q2 -83 44.5 -129.5t120.5 -46.5q33 0 63 17q28 19 39 45q15 31 19.5 65.5t4.5 65.5 v401q-10 -8 -19 -16t-20 -19q-62 -45 -108.5 -82.5t-75.5 -78t-46.5 -86t-21.5 -104.5v-32zM252 1404q0 17 17 35q17 17 37 17q35 0 63 -41l143 -208l-13 -16l-176 129q-72 54 -71 84z" />
<glyph unicode="&#xe1;" d="M39 273v3q2 37 15 77t35.5 80t52.5 76t67 62q8 5 14.5 10t17.5 12q2 2 4 3t7 3q40 24 69 43.5t52 36.5q13 9 27 20t27 22q19 13 38 30t28 42q11 21 11 51t-5 55q-10 48 -45 82t-81 46q-17 7 -35 7q-60 0 -104 -23q-30 -12 -42 -28.5t-14 -30.5t5.5 -23t15.5 -13 q5 -2 6.5 -2t5.5 -2q31 -11 49 -38t18 -60q0 -41 -30.5 -70.5t-71.5 -29.5q-44 0 -73 29.5t-29 70.5q0 37 8.5 77.5t29.5 72.5q42 60 99.5 87.5t126.5 27.5q50 0 101.5 -19.5t92.5 -55.5t67 -86t26 -115v-638q0 -39 1.5 -51t1.5 -16q0 -29 17 -46t45 -17q24 0 41.5 16 t20.5 42h45q0 -17 -9 -35.5t-25 -35t-40 -29t-58 -12.5q-50 0 -91.5 24t-59.5 62q-10 21 -17 51q-31 -59 -87 -98t-128 -39q-85 0 -152 62q-37 33 -60.5 85t-28.5 119q-2 6 -2 26zM191 261q2 -83 44.5 -129.5t120.5 -46.5q33 0 63 17q28 19 39 45q15 31 19.5 65.5t4.5 65.5 v401q-10 -8 -19 -16t-20 -19q-62 -45 -108.5 -82.5t-75.5 -78t-46.5 -86t-21.5 -104.5v-32zM252 1207l143 208q31 41 65 41q17 0 37 -17q15 -16 15 -35q0 -30 -69 -84l-176 -129z" />
<glyph unicode="&#xe2;" horiz-adv-x="818" d="M41 273v3q2 37 15.5 77t36.5 80t52 76t66 62q8 5 14.5 10t17.5 12q2 2 4.5 3t6.5 3q40 24 69 43.5t52 36.5q13 9 27.5 20t27.5 22q19 13 38 30t27 42q11 21 11 51t-5 55q-10 48 -45 82t-81 46q-17 7 -34 7q-60 0 -105 -23q-30 -12 -42 -28.5t-14 -30.5t5.5 -23t15.5 -13 q5 -2 6.5 -2t5.5 -2q31 -11 49 -38t18 -60q0 -41 -30.5 -70.5t-71.5 -29.5q-43 0 -72.5 29.5t-29.5 70.5q0 37 8.5 77.5t31.5 72.5q41 60 98 87.5t127 27.5q50 0 101 -19.5t92.5 -55.5t67.5 -86t26 -115v-638q0 -39 1 -51t1 -16q0 -29 17.5 -46t44.5 -17q25 0 42.5 16 t19.5 42h45q0 -17 -9 -35.5t-25 -35t-39.5 -29t-58.5 -12.5q-50 0 -91.5 24t-59.5 62q-10 21 -17 51q-30 -59 -86.5 -98t-128.5 -39q-85 0 -152 62q-37 33 -60.5 85t-28.5 119q-2 6 -2 26zM193 261q2 -83 44.5 -129.5t120.5 -46.5q33 0 63 17q28 19 39 45q15 31 19.5 65.5 t4.5 65.5v401q-10 -8 -19 -16t-20 -19q-62 -45 -108.5 -82.5t-75.5 -78t-46.5 -86t-21.5 -104.5v-32zM234 1207l126 217h11h13l124 -217h-28q-10 13 -18 26t-19 28t-22 33q-13 15 -26 20.5t-24 5.5q-8 0 -21.5 -5.5t-26.5 -20.5q-12 -17 -23.5 -32t-17.5 -29q-9 -13 -17 -26 h-31z" />
<glyph unicode="&#xe3;" horiz-adv-x="820" d="M41 273v3q2 37 15.5 77t34.5 80t52 76t68 62q8 5 14.5 10t15.5 12q4 2 6.5 3t6.5 3q40 24 69 43.5t52 36.5q13 9 27.5 20t27.5 22q19 13 38 30t27 42q11 21 11 51t-5 55q-10 48 -45 82t-81 46q-17 7 -34 7q-60 0 -105 -23q-30 -12 -42 -28.5t-14 -30.5t5.5 -23t15.5 -13 q5 -2 6.5 -2t5.5 -2q29 -11 48 -38t19 -60q0 -41 -30.5 -70.5t-71.5 -29.5q-43 0 -72.5 29.5t-29.5 70.5q0 37 8.5 77.5t31.5 72.5q41 60 97 87.5t128 27.5q50 0 101 -19.5t92.5 -55.5t67.5 -86t26 -115v-638q0 -39 1 -51t1 -16q0 -29 17.5 -46t44.5 -17q25 0 42.5 16 t19.5 42h45q0 -17 -9 -35.5t-25 -35t-41 -29t-57 -12.5q-50 0 -91.5 24t-59.5 62q-12 21 -17 51q-30 -59 -86.5 -98t-128.5 -39q-85 0 -152 62q-37 33 -60.5 85t-28.5 119q-2 6 -2 26zM180 1220q0 54 25 93.5t85 39.5q33 0 67 -15.5t66.5 -31.5t60.5 -27t48 -3q11 7 17 17 t9 18q2 11 2 25h26q0 -57 -22.5 -96t-85.5 -39q-31 0 -66 16t-67 32.5t-60 27t-49 -0.5q-12 -6 -17.5 -14.5t-7.5 -20.5q-2 -8 -2 -21h-29zM193 261q2 -83 44.5 -129.5t120.5 -46.5q33 0 63 17q26 19 39 45q15 31 19.5 65.5t4.5 65.5v401q-10 -8 -19 -16t-20 -19 q-62 -45 -108.5 -82.5t-76.5 -78t-46.5 -86t-20.5 -104.5v-32z" />
<glyph unicode="&#xe4;" d="M39 273v3q2 37 15 77t35.5 80t52.5 76t67 62q8 5 14.5 10t17.5 12q2 2 4 3t7 3q40 24 69 43.5t52 36.5q13 9 27 20t27 22q19 13 38 30t28 42q11 21 11 51t-5 55q-10 48 -45 82t-81 46q-17 7 -35 7q-60 0 -104 -23q-30 -12 -42 -28.5t-14 -30.5t5.5 -23t15.5 -13 q5 -2 6.5 -2t5.5 -2q31 -11 49 -38t18 -60q0 -41 -30.5 -70.5t-71.5 -29.5q-44 0 -73 29.5t-29 70.5q0 37 8.5 77.5t29.5 72.5q42 60 99.5 87.5t126.5 27.5q50 0 101.5 -19.5t92.5 -55.5t67 -86t26 -115v-638q0 -39 1.5 -51t1.5 -16q0 -29 17 -46t45 -17q24 0 41.5 16 t20.5 42h45q0 -17 -9 -35.5t-25 -35t-40 -29t-58 -12.5q-50 0 -91.5 24t-59.5 62q-10 21 -17 51q-31 -59 -87 -98t-128 -39q-85 0 -152 62q-37 33 -60.5 85t-28.5 119q-2 6 -2 26zM191 261q2 -83 44.5 -129.5t120.5 -46.5q33 0 63 17q28 19 39 45q15 31 19.5 65.5t4.5 65.5 v401q-10 -8 -19 -16t-20 -19q-62 -45 -108.5 -82.5t-75.5 -78t-46.5 -86t-21.5 -104.5v-32zM195 1290q0 27 18.5 45t47.5 18q26 0 44 -19t18 -44q0 -29 -18 -47.5t-44 -18.5q-29 0 -47.5 18.5t-18.5 47.5zM406 1290q0 27 19.5 45t45.5 18q28 0 46.5 -19t18.5 -44 q0 -29 -18.5 -47.5t-46.5 -18.5q-27 0 -46 18.5t-19 47.5z" />
<glyph unicode="&#xe5;" horiz-adv-x="824" d="M46 273v3q2 37 15 77t35 80t52 76t67 62q9 5 15 10t15 12q4 2 6.5 3l7.5 3q39 24 68 43.5t52 36.5q13 9 27.5 20t28.5 22q19 13 37.5 30t26.5 42q11 21 11 51t-4 55q-11 48 -46 82t-81 46q-16 7 -33 7q-61 0 -105 -23q-31 -12 -42.5 -28.5t-14 -30.5t5 -23t17.5 -13 q4 -2 5 -2t5 -2q29 -11 48 -38t19 -60q0 -41 -30 -70.5t-72 -29.5q-43 0 -73.5 29.5t-30.5 70.5q0 37 10 77.5t32 72.5q41 60 97 87.5t129 27.5q49 0 100 -19.5t92.5 -55.5t67.5 -86t26 -115v-638q0 -39 1 -51t1 -16q0 -29 17.5 -46t44.5 -17q25 0 42.5 16t19.5 42h45 q0 -17 -9 -35.5t-24.5 -35t-40.5 -29t-58 -12.5q-50 0 -91.5 24t-57.5 62q-13 21 -18 51q-31 -59 -87.5 -98t-128.5 -39q-87 0 -151 62q-37 33 -61 85t-28 119q-2 6 -2 26zM197 261q2 -83 44.5 -129.5t121.5 -46.5q32 0 62 17q27 19 39 45q15 31 20 65.5t5 65.5v401 q-11 -8 -20 -16t-20 -19q-62 -45 -107.5 -82.5t-76.5 -78t-47.5 -86t-20.5 -104.5v-32zM243 1315q0 59 41 96q37 39 93 39q54 0 92 -39q39 -39 39 -93t-39 -94q-40 -39 -94 -39q-52 0 -91 39q-41 37 -41 91zM296 1315q0 -32 23 -56q27 -21 58 -22q31 0 55 24q25 25 24 57 q0 32 -21 58q-25 21 -58 22q-33 0 -56 -24q-26 -25 -25 -59z" />
<glyph unicode="&#xe6;" horiz-adv-x="1152" d="M60 284v4q5 83 61.5 158.5t151.5 133.5q63 41 106.5 71.5t68.5 60.5t36 68t11 94q-13 75 -48 106t-87 31q-56 0 -92 -12.5t-57.5 -32t-32.5 -40.5t-13 -36q-4 -8 -5 -28.5t20 -20.5q52 0 74 -24t19.5 -55t-22 -54.5t-52.5 -23.5q-54 0 -77.5 31.5t-28 74.5t7 86.5 t25.5 65.5q39 63 100.5 90t131.5 27q56 0 113 -23t100 -66q46 52 105 76.5t117 24.5q54 0 105 -16.5t92 -53.5t68 -94.5t27 -138.5v-219v-8v-52h-436v-196q0 -137 46.5 -194.5t116.5 -55.5q41 0 82.5 11t71.5 41.5t50 82.5t20 137h47v-29q0 -60 -13 -113t-46.5 -92.5 t-84.5 -62t-125 -24.5t-150 38t-119 113q-37 -62 -104.5 -106.5t-136.5 -44.5q-89 0 -152 60q-38 35 -61.5 85t-27.5 118q-3 10 -3 27zM211 269q2 -82 45.5 -128t120.5 -46q27 0 46.5 10.5t34.5 24t26 31t13 28.5q2 4 4.5 13t4.5 17q-2 19 -2 39v42v358q-9 -8 -20 -14 t-20 -16q-62 -48 -107.5 -81t-77.5 -67.5t-47 -74.5t-19 -99q-2 -10 -2 -18v-19zM653 549h285v174q0 80 -11 137.5t-29.5 91.5t-45.5 46.5t-59 12.5q-35 0 -61 -12.5t-44.5 -46.5t-26.5 -91.5t-8 -137.5v-174z" />
<glyph unicode="&#xe7;" horiz-adv-x="704" d="M50 278v484q0 76 29 134.5t72.5 100t98 62t104.5 20.5q19 0 37.5 -1t38.5 -5q7 0 22 -7q2 -2 6 -2l18 -7q17 -7 38.5 -17.5t40 -15.5t30.5 2.5t12 37.5h61v-368h-53q2 50 -6 101q-6 41 -22.5 87t-46.5 82q-11 8 -21 16t-18 17h-2h-2q-33 16 -65.5 24t-67.5 8 q-67 -4 -114 -70t-47 -199v-480q0 -67 12 -113.5t34 -77.5t51 -43.5t64 -12.5q48 -2 93.5 9.5t81 41.5t57 83t21.5 137h51v-28q0 -61 -17.5 -114.5t-53.5 -93t-93 -62.5t-140 -23q-50 0 -104.5 19.5t-98 57.5t-72.5 93.5t-29 122.5zM204 -247.5q-7 32.5 9.5 60.5t51.5 28 q21 0 36.5 -12.5t15.5 -33.5q0 -32 -39 -42h-5q-14 -4 -18.5 -17.5t6.5 -31.5q12 -15 31 -24.5t44 -9.5q54 0 64 33.5t12 83.5q2 13 1 9.5t-1 10.5q0 48 -19.5 65.5t-40.5 21.5q-27 2 -62 -12l60 124l32 -2l-39 -80q5 0 11 2q6 0 17 1t27 -3q39 -9 73.5 -36t34.5 -89 q-5 -63 -46 -107t-114 -44h-17t-14 2q-48 7 -76 38.5t-35 64zM506 -193v-20v12v8z" />
<glyph unicode="&#xe8;" horiz-adv-x="663" d="M41 711.5v63.5q0 78 27 135.5t68.5 93.5t92.5 54.5t101 18.5q52 0 104.5 -17.5t93.5 -54.5t66 -93.5t25 -134.5v-219v-7v-50h-430v-223q0 -135 45.5 -192t113.5 -55q41 2 81 13.5t70.5 39.5t51 80.5t20.5 137.5h48v-31q0 -58 -14.5 -111.5t-45.5 -92t-82.5 -61.5 t-126.5 -25q-50 0 -104.5 19t-98 58.5t-72.5 93t-29 119.5v51t-1.5 84t-1.5 103t-1 107.5t-1 95zM191 558h280v171q0 83 -9.5 138t-28.5 89t-44.5 46.5t-60.5 12.5q-67 0 -102 -60t-35 -226v-171zM254 1404q0 17 15 35q19 17 39 17q35 0 63 -41l143 -208l-13 -16l-178 129 q-70 54 -69 84z" />
<glyph unicode="&#xe9;" horiz-adv-x="663" d="M39 711.5v63.5q0 78 27 135.5t68.5 93.5t92.5 54.5t101 18.5q51 0 103.5 -17.5t94 -54.5t66.5 -93.5t25 -134.5v-219v-7v-50h-430v-223q0 -135 45.5 -192t115.5 -55q39 2 78.5 13.5t71.5 39.5t51.5 80.5t19.5 137.5h48v-31q0 -58 -14.5 -111.5t-45.5 -92t-82.5 -61.5 t-126.5 -25q-50 0 -103.5 19t-98 58.5t-74 93t-29.5 119.5v51t-1 84t-1 103t-1 107.5t-1 95zM189 558h280v171q0 83 -10 138t-28.5 89t-44.5 46.5t-61 12.5q-66 0 -101 -60t-35 -226v-171zM252 1207l143 208q31 41 65 41q17 0 37 -17q15 -16 15 -35q0 -30 -69 -84l-176 -129 z" />
<glyph unicode="&#xea;" horiz-adv-x="665" d="M43 711.5v63.5q0 78 27.5 135.5t68.5 93.5t92 54.5t101 18.5q52 0 104.5 -17.5t93.5 -54.5t66 -93.5t25 -134.5v-219v-7v-50h-430v-223q0 -135 45.5 -192t113.5 -55q41 2 81 13.5t70.5 39.5t51 80.5t20.5 137.5h48v-31q0 -58 -14 -111.5t-45.5 -92t-83 -61.5t-126.5 -25 q-50 0 -104.5 19t-98 58.5t-72.5 93t-29 119.5v51t-1 84t-1 103t-1.5 107.5t-1.5 95zM193 558h280v171q0 83 -9.5 138t-28 89t-44.5 46.5t-61 12.5q-67 0 -102 -60t-35 -226v-171zM236 1207l127 217h10h14l123 -217h-28q-10 13 -18 26t-18.5 28t-22.5 33q-13 15 -26 20.5 t-24 5.5q-8 0 -21.5 -5.5t-26.5 -20.5q-14 -17 -24.5 -32t-16.5 -29q-8 -13 -17 -26h-31z" />
<glyph unicode="&#xeb;" horiz-adv-x="665" d="M46 711.5v63.5q0 78 27 135.5t68 93.5t92 54.5t101 18.5q52 0 104.5 -17.5t93.5 -54.5t66 -93.5t25 -134.5v-219v-7v-50h-430v-223q0 -135 45.5 -192t113.5 -55q41 2 81 13.5t70.5 39.5t50 80.5t19.5 137.5h50v-31q0 -58 -14 -111.5t-45.5 -92t-84 -61.5t-125.5 -25 q-50 0 -104.5 19t-98 58.5t-72.5 93t-29 119.5v51t-1 84t-1 103t-1 107.5t-1 95zM191 1290q0 27 18.5 45t44.5 18q29 0 47 -19t18 -44q0 -29 -18 -47.5t-47 -18.5q-26 0 -44.5 18.5t-18.5 47.5zM193 558h283v171q0 83 -10 138t-28.5 89t-44.5 46.5t-61 12.5q-67 0 -103 -60 t-36 -226v-171zM402 1290q0 27 18.5 45t45.5 18t46.5 -19t19.5 -44q0 -29 -19.5 -47.5t-46.5 -18.5q-28 0 -46 18.5t-18 47.5z" />
<glyph unicode="&#xec;" horiz-adv-x="342" d="M31 1404q0 17 12 35q22 17 38 17q35 0 66 -41l141 -208l-12 -16l-176 129q-70 54 -69 84zM54 0v56q15 -6 27 0q10 2 19.5 16.5t9.5 45.5v826q0 29 -9.5 43t-19.5 18q-11 4 -27 0v54h207v-941q0 -31 8.5 -45.5t16.5 -16.5q13 -6 29 0v-56h-261z" />
<glyph unicode="&#xed;" horiz-adv-x="329" d="M31 1207l141 208q28 41 64 41q17 0 37 -17q15 -16 15 -35q0 -30 -69 -84l-178 -129zM37 0v56q17 -6 30 0q6 2 17 16.5t11 45.5v826q0 29 -10.5 43t-17.5 18q-13 4 -30 0v54h206v-941q0 -31 10 -45.5t18 -16.5q11 -6 29 0v-56h-263z" />
<glyph unicode="&#xee;" horiz-adv-x="350" d="M29 1207l123 217h11h13l126 -217h-31q-8 13 -17 26q-8 13 -18 28t-23 33q-13 15 -26 20.5t-24 5.5q-8 0 -21.5 -5.5t-29.5 -20.5q-10 -17 -20.5 -32t-19.5 -29q-4 -13 -16 -26h-27zM60 0v56q13 -6 27 0q11 2 20 16.5t9 45.5v826q0 29 -9 43t-20 18q-13 4 -27 0v54h205 v-941q0 -31 8.5 -45.5t19.5 -16.5q10 -6 26 0v-56h-259z" />
<glyph unicode="&#xef;" horiz-adv-x="381" d="M15 1290q0 27 18.5 45t44.5 18q29 0 47 -19t18 -44q0 -29 -18 -47.5t-47 -18.5q-26 0 -44.5 18.5t-18.5 47.5zM76 0v56q17 -6 28 0q8 2 19.5 16.5t11.5 45.5v826q0 29 -11.5 43t-19.5 18q-11 4 -28 0v54h206v-941q0 -31 9 -45.5t20 -16.5q10 -6 25 0v-56h-260zM226 1290 q0 27 18.5 45t45.5 18t45.5 -19t18.5 -44q0 -29 -18.5 -47.5t-45.5 -18.5q-28 0 -46 18.5t-18 47.5z" />
<glyph unicode="&#xf1;" horiz-adv-x="789" d="M46 0v56q2 -2 4 -2h10q15 0 29.5 10t14.5 54v829q0 41 -14 51.5t-30 10.5h-6h-4h-4v50h206v-84q9 13 16.5 23.5t15.5 20.5q37 33 83 47h2q0 2 2 2q17 5 32.5 7t31.5 2h6q112 -4 181.5 -74.5t69.5 -229.5v-317v-338q0 -44 14.5 -54t29.5 -10h6q2 0 5 2v-56h-258v56l2 -2 h10q9 0 23 9t19 43v617q0 31 -1 54.5t-1 42.5v3q-5 108 -27.5 154t-74.5 50h-9q-66 0 -115.5 -52.5t-62.5 -175.5v-681q0 -44 15 -54t26 -10h11q2 0 4 2v-56h-262zM184 1220q0 54 24 93.5t88 39.5q30 0 64.5 -15.5t67 -31.5t60.5 -27t48 -3q11 7 17.5 17t8.5 18q2 11 2 25 h26q0 -57 -22.5 -96t-85.5 -39q-33 0 -66.5 16t-66 32.5t-60.5 27t-48 -0.5q-13 -6 -18.5 -14.5t-7.5 -20.5q-2 -8 -2 -21h-29z" />
<glyph unicode="&#xf2;" horiz-adv-x="685" d="M43 278v488q0 83 27.5 141.5t70.5 96.5t95.5 55.5t106.5 17.5q52 0 104 -17.5t94.5 -54.5t69.5 -95.5t27 -138.5v-493q0 -63 -27 -117.5t-69.5 -93t-95.5 -62.5t-103 -24q-54 0 -106.5 19t-94.5 58.5t-70.5 95t-28.5 124.5zM197 336q0 -167 37 -236t107 -69 q67 0 106.5 69.5t39.5 235.5v387q0 83 -10.5 140t-30 92t-45.5 49.5t-60 14.5q-70 0 -107 -64.5t-37 -231.5v-387zM257 1404q0 17 14 35q19 17 40 17q35 0 62 -41l143 -208l-12 -16l-179 129q-70 54 -68 84z" />
<glyph unicode="&#xf3;" horiz-adv-x="685" d="M41 278v488q0 83 27 141.5t70.5 96.5t96 55.5t106.5 17.5q52 0 104 -17.5t95.5 -54.5t69.5 -95.5t26 -138.5v-493q0 -63 -27 -117.5t-69.5 -93t-95.5 -62.5t-103 -24q-54 0 -106.5 19t-94.5 58.5t-70.5 95t-28.5 124.5zM195 336q0 -167 37 -236t106 -69q70 0 108 69.5 t38 235.5v387q0 83 -10 140t-28.5 92t-45.5 49.5t-62 14.5q-70 0 -106.5 -64.5t-36.5 -231.5v-387zM254 1207l144 208q30 41 64 41q17 0 37 -17q15 -16 15 -35q0 -30 -69 -84l-176 -129z" />
<glyph unicode="&#xf4;" horiz-adv-x="685" d="M46 278v488q0 83 27 141.5t70.5 96.5t96 55.5t106.5 17.5q52 0 103.5 -17.5t94 -54.5t69.5 -95.5t27 -138.5v-493q0 -63 -28 -117.5t-69.5 -93t-94.5 -62.5t-102 -24q-54 0 -106.5 19t-95 58.5t-70.5 95t-28 124.5zM199 336q0 -167 36 -236t108 -69q67 0 106.5 69.5 t39.5 235.5v387q0 83 -11.5 140t-29.5 92t-44.5 49.5t-60.5 14.5q-72 0 -108 -64.5t-36 -231.5v-387zM199 1207l126 217h11h14l123 -217h-28q-10 13 -18 26t-18.5 28t-21.5 33q-13 15 -26 20.5t-25 5.5q-11 0 -22.5 -5.5t-27.5 -20.5q-13 -17 -22.5 -32t-18.5 -29 q-7 -13 -15 -26h-31z" />
<glyph unicode="&#xf5;" horiz-adv-x="696" d="M52 278v488q0 83 27 141.5t70.5 96.5t96 55.5t106.5 17.5q52 0 104 -17.5t94.5 -54.5t69.5 -95.5t27 -138.5v-493q0 -63 -28.5 -117.5t-69.5 -93t-94 -62.5t-103 -24q-54 0 -106.5 19t-95 58.5t-70.5 95t-28 124.5zM145 1220q0 54 25 93.5t87 39.5q30 0 64.5 -15.5 t67 -31.5t61 -27t47.5 -3q11 7 18 17t9 18q2 11 2 25h25q0 -57 -22.5 -96t-85.5 -39q-33 0 -66.5 16t-66 32.5t-60.5 27t-49 -0.5q-12 -6 -17.5 -14.5t-7.5 -20.5q-2 -8 -2 -21h-29zM205 336q0 -167 36.5 -236t108.5 -69q67 0 105 69.5t38 235.5v387q0 83 -10 140t-28 92 t-44.5 49.5t-60.5 14.5q-72 0 -108.5 -64.5t-36.5 -231.5v-387z" />
<glyph unicode="&#xf6;" horiz-adv-x="690" d="M48 278v488q0 83 27 141.5t70.5 96.5t96 55.5t106.5 17.5q52 0 104 -17.5t94 -54.5t69 -95.5t27 -138.5v-493q0 -63 -28 -117.5t-69 -93t-94 -62.5t-103 -24q-54 0 -106.5 19t-95 58.5t-70.5 95t-28 124.5zM176 1290q0 27 18.5 45t46.5 18t46.5 -19t18.5 -44 q0 -29 -18.5 -47.5t-46.5 -18.5q-29 0 -47 18.5t-18 47.5zM201 336q0 -167 36 -236t109 -69q66 0 105.5 69.5t39.5 235.5v387q0 83 -11 140t-29.5 92t-45 49.5t-59.5 14.5q-73 0 -109 -64.5t-36 -231.5v-387zM389 1290q0 27 18 45t45 18q28 0 46 -19t18 -44q0 -29 -18 -47.5 t-46 -18.5q-27 0 -45 18.5t-18 47.5z" />
<glyph unicode="&#xf7;" horiz-adv-x="831" d="M8 647v67h706v-67h-706zM269 447q0 37 26 63t65 26q38 0 62.5 -26t24.5 -63q0 -39 -24.5 -64t-62.5 -25q-39 0 -65 25t-26 64zM269 938q0 39 26 64t65 25q38 0 62.5 -25t24.5 -64t-24.5 -64t-62.5 -25q-39 0 -65 25t-26 64z" />
<glyph unicode="&#xf9;" horiz-adv-x="776" d="M39 1001v54h263v-54h-4q-2 0 -5 1t-7 1q-10 0 -24.5 -9.5t-16.5 -44.5v-115.5t-1 -145t-1 -153v-141.5v-107.5v-50.5v-2q4 -110 27 -155.5t78 -47.5h6q67 0 115.5 52t60.5 176q0 104 1 222t1 220t1 167.5t1 69.5q0 41 -14 53t-27 12q-4 0 -5 -1t-4 -1h-4v54h258v-54h-2 l-2 1q-3 1 -7 1q-13 0 -27 -12t-14 -53v-38v-93.5t-1 -131.5t-1 -151t-1 -150.5t-1 -131.5v-95v-39q0 -41 14 -48.5t27 -7.5q8 0 11 2q2 0 2 2v-56h-206v81q-6 -13 -15 -22t-18 -20q-33 -31 -78 -47q-2 0 -3.5 -1.5t-3.5 -1.5h-2q-24 -8 -60 -8h-7q-112 4 -181 74.5 t-69 226.5v315q0 64 1 125t1 109t1.5 76.5t1.5 30.5q0 41 -14 53t-30 12q-4 0 -6 -1t-5 -1h-4zM247 1404q0 17 18 35q17 17 37 17q35 0 63 -41l143 -208l-13 -16l-176 129q-72 54 -72 84z" />
<glyph unicode="&#xfa;" horiz-adv-x="779" d="M35 1001v54h263v-54h-5q-3 0 -5 1t-6 1q-11 0 -25 -9.5t-16 -44.5v-115.5t-1.5 -145t-1.5 -153v-141.5v-107.5v-50.5v-2q5 -110 27.5 -155.5t77.5 -47.5h7q67 0 115.5 52t62.5 176v222v220t1 167.5t1 69.5q0 41 -14.5 53t-26.5 12q-2 0 -4.5 -1t-4.5 -1h-4v54h260v-54h-2 q-3 0 -5 1t-6 1q-13 0 -27 -12t-14 -53v-38v-93.5t-1.5 -131.5t-1.5 -151t-1 -150.5t-1 -131.5v-95v-39q0 -41 14.5 -48.5t27.5 -7.5q8 0 10 2q2 0 5 2v-56h-206v81q-9 -13 -18 -22t-17 -20q-33 -31 -79 -47q-2 0 -3 -1.5t-3 -1.5h-2q-24 -8 -60 -8h-8q-110 4 -179.5 74.5 t-69.5 226.5v315q0 64 1 125t1 109t1 76.5t1 30.5q0 41 -14 53t-29 12q-4 0 -6.5 -1t-4.5 -1h-4zM282 1207l143 208q31 41 66 41q17 0 37 -17q15 -16 15 -35q0 -30 -70 -84l-175 -129z" />
<glyph unicode="&#xfb;" horiz-adv-x="779" d="M37 1001v54h263v-54h-4q-2 0 -5 1t-7 1q-11 0 -25 -9.5t-16 -44.5v-115.5t-1 -145t-1 -153v-141.5v-107.5v-50.5v-2q4 -110 26.5 -155.5t78.5 -47.5h6q67 0 115.5 52t62.5 176v222v220t1 167.5t1 69.5q0 41 -14 53t-27 12q-2 0 -4.5 -1t-4.5 -1h-4v54h260v-54h-2 q-2 0 -4.5 1t-6.5 1q-13 0 -27 -12t-14 -53v-38v-93.5t-1 -131.5t-1 -151t-1.5 -150.5t-1.5 -131.5v-95v-39q0 -41 14.5 -48.5t27.5 -7.5q8 0 10 2q3 0 5 2v-56h-206v81q-8 -13 -17 -22t-18 -20q-33 -31 -78 -47q-3 0 -4 -1.5t-3 -1.5h-2q-24 -8 -60 -8h-7q-110 4 -180 74.5 t-70 226.5v315q0 64 1 125t1 109t1 76.5t1 30.5q0 41 -14 53t-29 12q-4 0 -6.5 -1t-4.5 -1h-4zM263 1207l124 217h13h10l126 -217h-30q-9 13 -17 26q-7 13 -18 28t-24 33q-10 15 -24.5 20.5t-22.5 5.5q-11 0 -23 -5.5t-27 -20.5q-13 -17 -23 -32t-19 -29q-6 -13 -18 -26h-27 z" />
<glyph unicode="&#xfc;" horiz-adv-x="779" d="M39 1001v54h263v-54h-4q-2 0 -5 1t-7 1q-10 0 -24.5 -9.5t-16.5 -44.5v-115.5t-1 -145t-1 -153v-141.5v-107.5v-50.5v-2q4 -110 27 -155.5t78 -47.5h6q67 0 115.5 52t60.5 176q0 104 1 222t1 220t1 167.5t1 69.5q0 41 -14 53t-27 12q-4 0 -5 -1t-4 -1h-4v54h258v-54h-2 l-2 1q-3 1 -7 1q-13 0 -27 -12t-14 -53v-38v-93.5t-1 -131.5t-1 -151t-1 -150.5t-1 -131.5v-95v-39q0 -41 14 -48.5t27 -7.5q8 0 11 2q2 0 2 2v-56h-206v81q-6 -13 -15 -22t-18 -20q-33 -31 -78 -47q-2 0 -3.5 -1.5t-3.5 -1.5h-2q-24 -8 -60 -8h-7q-112 4 -181 74.5 t-69 226.5v315q0 64 1 125t1 109t1.5 76.5t1.5 30.5q0 41 -14 53t-30 12q-4 0 -6 -1t-5 -1h-4zM224 1290q0 27 18.5 45t43.5 18q29 0 47.5 -19t18.5 -44q0 -29 -18.5 -47.5t-47.5 -18.5q-26 0 -44 18.5t-18 47.5zM435 1290q0 27 18 45t46 18q29 0 47 -19t18 -44 q0 -29 -18 -47.5t-47 -18.5q-28 0 -46 18.5t-18 47.5z" />
<glyph unicode="&#xfd;" horiz-adv-x="899" d="M31 1009v50h219v-50q-19 2 -28 -4q-11 -6 -13 -26t15 -61l10 -42q11 -43 28.5 -110t39 -151.5t45.5 -171.5t45.5 -168.5t37.5 -139.5q35 122 71.5 255.5t66 243.5t49 184.5t21.5 80.5q11 52 5.5 73.5t-18.5 28.5q-12 8 -35 2v56h300v-56q-17 6 -35 -2q-10 -7 -26.5 -28.5 t-33.5 -73.5q-2 -4 -15.5 -52t-34 -126.5t-48.5 -177t-57.5 -203t-58 -205t-52 -184t-41 -140t-26.5 -70.5q-26 -60 -76 -104.5t-117 -48.5q-17 0 -34.5 2t-39.5 8q-31 9 -59 31.5t-47 56.5t-26 74.5t7 85.5v2v3q0 4 2 6q9 39 42 58.5t73 8.5q39 -11 58.5 -44.5t11.5 -72.5 q-11 -37 -42 -56.5t-68 -13.5q0 -72 62 -89q33 -11 57 12t47 62q4 7 25.5 87.5t54.5 190.5q-17 63 -43.5 157.5t-54.5 194.5t-55 199.5t-50 180t-37 134.5t-16 58q-17 44 -34.5 64.5t-32.5 22.5q-19 7 -39 -2zM302 1207l141 208q31 41 65 41q17 0 37 -17q17 -16 17 -35 q0 -30 -71 -84l-176 -129z" />
<glyph unicode="&#xff;" horiz-adv-x="893" d="M26 1009v50h217v-50q-19 2 -28 -4q-10 -6 -13 -26t15 -61l11 -42q10 -43 27.5 -110t39.5 -151.5t46 -171.5t45.5 -168.5t36.5 -139.5q35 122 72 255.5t66 243.5t49 184.5t22 80.5q12 52 6 73.5t-19 28.5q-13 8 -35 2v56h300v-56q-17 6 -33 -2q-13 -7 -29 -28.5t-34 -73.5 q-3 -4 -15.5 -52t-33 -126.5t-49 -177t-58 -203t-57.5 -205t-52 -184t-41.5 -140t-25.5 -70.5q-27 -60 -76.5 -104.5t-116.5 -48.5q-17 0 -34.5 2t-37.5 8q-33 9 -60 31.5t-46.5 56.5t-27 74.5t5.5 85.5q0 2 1 2t1 3v6q8 39 43 58.5t74 8.5q40 -11 59.5 -44.5t8.5 -72.5 q-10 -37 -41 -56.5t-68 -13.5q2 -72 60 -89q33 -11 58 12t47 62q5 7 26.5 87.5t54.5 190.5q-17 63 -43.5 157.5t-54.5 194.5t-55 199.5t-50 180t-37.5 134.5t-16.5 58q-17 44 -34.5 64.5t-30.5 22.5q-22 7 -39 -2zM284 1290q0 27 18.5 45t47.5 18q28 0 46 -19t18 -44 q0 -29 -18 -47.5t-46 -18.5q-29 0 -47.5 18.5t-18.5 47.5zM495 1290q0 27 19.5 45t47.5 18q26 0 44.5 -19t18.5 -44q0 -29 -18.5 -47.5t-44.5 -18.5q-29 0 -48 18.5t-19 47.5z" />
<glyph unicode="&#x152;" horiz-adv-x="972" d="M72 290v959q0 80 26 137.5t67.5 94.5t93.5 54t101 17l3 2h542v-228h-56q-2 50 -16 89q-6 33 -31 61t-71 28h-162v-696h93q27 0 41 17.5t20 36.5q8 24 8 56h52v-269h-52q0 30 -8 55q-6 19 -20.5 37.5t-40.5 18.5h-93v-708h162q46 0 71 26t31 61q13 39 16 89h56v-228h-542 q-50 0 -102 19.5t-94.5 56t-68.5 91.5t-26 123zM217 1319.5q2 -47.5 2 -114.5v-855v-87t11 -74q19 -61 51 -96t62 -44.5t53 1t23 39.5v1348q0 37 -21 53t-50 13t-60 -29t-52 -70q-21 -37 -19 -84.5z" />
<glyph unicode="&#x153;" horiz-adv-x="1154" d="M67 284v470q0 80 26.5 137.5t67 93.5t93 53t102.5 17q56 0 115 -21t102 -66q44 54 105 79.5t121 25.5q52 0 103 -17.5t92.5 -53.5t68.5 -93.5t27 -137.5v-220v-8v-52h-435v-198q0 -135 44.5 -192.5t118.5 -54.5q42 0 82 10.5t70.5 41t50 82.5t19.5 137h50v-29 q0 -62 -14.5 -114t-47 -91.5t-83 -62t-127.5 -24.5q-64 -2 -128.5 27t-111.5 81q-42 -48 -103 -78t-119 -30q-50 0 -102.5 19.5t-93 55t-67 90t-26.5 123.5zM215 343q0 -167 35.5 -233.5t103.5 -66.5q70 0 107.5 66.5t37.5 233.5v367q0 83 -9.5 138t-28 88.5t-44.5 48 t-63 14.5q-33 0 -59 -14.5t-43.5 -48t-27 -88.5t-9.5 -138v-367zM658 551h284v172q0 83 -11 140t-29 91t-45.5 46.5t-59.5 12.5q-35 0 -62 -12.5t-44.5 -46.5t-25 -91t-7.5 -140v-172z" />
<glyph unicode="&#x178;" horiz-adv-x="828" d="M19 1500v52h277v-52q-19 4 -29 0q-8 -4 -15 -18.5t5 -46.5q0 -2 14.5 -63t40.5 -159.5t57 -223.5t66 -253q41 128 80.5 253t71.5 223.5t52.5 159.5t20.5 63q11 33 6.5 47t-15.5 18q-7 4 -26 0v52h189v-52q-13 4 -31 0q-15 -4 -28 -18.5t-24 -46.5q0 -4 -23.5 -80.5 t-63 -195.5t-86 -263t-92.5 -286v-3v-489q0 -31 9 -45.5t20 -16.5q11 -6 27 0v-56h-261v56q8 -2 15 -2q6 0 15 2t13 9q11 15 11 53v489q-35 141 -71.5 287t-67.5 265t-51.5 196.5t-20.5 79.5q-9 33 -23 47t-27 18q-19 4 -35 0zM247 1680q0 29 18.5 47.5t47.5 18.5 q26 0 45 -18.5t19 -47.5q0 -26 -19 -44t-45 -18q-29 0 -47.5 18.5t-18.5 43.5zM458 1680q0 29 18.5 47.5t47.5 18.5q28 0 46 -18.5t18 -47.5q0 -26 -18 -44t-46 -18q-29 0 -47.5 18.5t-18.5 43.5z" />
<glyph unicode="&#x2c6;" horiz-adv-x="338" d="M33 1645l123 217h14h12l124 -217h-28q-11 15 -17 27q-9 12 -20 27.5t-22 32.5q-12 15 -25.5 21t-23.5 6q-11 0 -23 -5.5t-27 -21.5q-11 -17 -22 -32.5t-20 -27.5q-6 -11 -15 -27h-30z" />
<glyph unicode="&#x2dc;" horiz-adv-x="514" d="M52 1724q0 56 25 95t86 39q33 0 67.5 -16.5t66 -32t61 -27t48.5 -0.5q11 4 17.5 14t6.5 21q2 8 2 20h28q0 -54 -24 -93.5t-84 -39.5q-33 0 -67.5 16t-66 32.5t-61 27.5t-47.5 2q-15 -9 -20 -18.5t-7 -17.5q-2 -9 -2 -22h-29z" />
<glyph unicode="&#x2000;" horiz-adv-x="943" />
<glyph unicode="&#x2001;" horiz-adv-x="1887" />
<glyph unicode="&#x2002;" horiz-adv-x="943" />
<glyph unicode="&#x2003;" horiz-adv-x="1887" />
<glyph unicode="&#x2004;" horiz-adv-x="629" />
<glyph unicode="&#x2005;" horiz-adv-x="471" />
<glyph unicode="&#x2006;" horiz-adv-x="314" />
<glyph unicode="&#x2007;" horiz-adv-x="314" />
<glyph unicode="&#x2008;" horiz-adv-x="235" />
<glyph unicode="&#x2009;" horiz-adv-x="377" />
<glyph unicode="&#x200a;" horiz-adv-x="104" />
<glyph unicode="&#x2010;" horiz-adv-x="489" d="M76 576v84h341v-84h-341z" />
<glyph unicode="&#x2011;" horiz-adv-x="489" d="M76 576v84h341v-84h-341z" />
<glyph unicode="&#x2012;" horiz-adv-x="489" d="M76 576v84h341v-84h-341z" />
<glyph unicode="&#x2013;" horiz-adv-x="598" d="M76 607v53h450v-53h-450z" />
<glyph unicode="&#x2014;" horiz-adv-x="1123" d="M76 610v52h972v-52h-972z" />
<glyph unicode="&#x2018;" horiz-adv-x="261" d="M34.5 1281q-1.5 47 15.5 97.5t46.5 98t70.5 81.5l38 -10q-87 -102 -94 -150t38 -68q10 -4 18 -8q46 -25 46 -71q0 -35 -25 -60t-58 -25q-19 0 -37.5 8.5t-25.5 21.5v2q-4 0 -4 5q-27 31 -28.5 78z" />
<glyph unicode="&#x2019;" horiz-adv-x="259" d="M50 1467q0 35 25 58t57 23q44 0 65 -30h2q0 -2 1 -3.5t1 -4.5q25 -32 27 -77t-14.5 -95.5t-46.5 -98.5t-72 -84l-37 11q44 50 66.5 88t28.5 64t-4 43t-31 27q-7 0 -12.5 1t-10.5 3q-45 24 -45 75z" />
<glyph unicode="&#x201a;" horiz-adv-x="568" d="M65 85q0 35 25.5 57.5t58.5 22.5q40 0 64 -30q0 -3 4 -7q25 -33 25.5 -78.5t-15.5 -95t-45.5 -97.5t-71.5 -85l-36 11q44 50 65.5 88t27 64t-3.5 43.5t-35 25.5q-2 0 -8 1t-10 3q-21 11 -33 30.5t-12 46.5z" />
<glyph unicode="&#x201c;" horiz-adv-x="546" d="M58.5 1275.5q-2.5 46.5 13 96t46.5 98t73 82.5l37 -7q-87 -106 -95.5 -153.5t37.5 -67.5q12 -4 21 -9q43 -21 43 -71q0 -35 -23.5 -59.5t-56.5 -24.5q-25 0 -40.5 8.5t-26.5 22.5v3q-4 0 -4 2q-22 33 -24.5 79.5zM307 1275.5q-1 46.5 14 96t46 98t72 82.5l37 -7 q-85 -106 -94 -153.5t37 -67.5q11 -4 20 -9q45 -21 45 -71q0 -35 -24.5 -59.5t-57.5 -24.5q-21 0 -37.5 8.5t-30.5 22.5v3l-4 2q-22 33 -23 79.5z" />
<glyph unicode="&#x201d;" horiz-adv-x="546" d="M65 1467q0 35 25.5 58t58.5 23q40 0 64 -30q0 -2 4 -8q25 -32 25.5 -77t-15.5 -95.5t-45.5 -98.5t-71.5 -84l-36 11q44 50 65.5 88t27 64t-3.5 43t-35 27q-2 0 -8 1t-10 3q-21 10 -33 30t-12 45zM315 1467q0 35 24 58t56 23q44 0 65 -30h2q0 -2 1 -3.5t1 -4.5 q25 -32 27 -77t-14.5 -95.5t-46.5 -98.5t-72 -84l-37 11q44 50 66.5 88t28 64t-4 43t-34.5 27q-4 0 -9 1t-10 3q-43 24 -43 75z" />
<glyph unicode="&#x201e;" horiz-adv-x="568" d="M65 85q0 35 25.5 57.5t58.5 22.5q40 0 64 -30q0 -3 4 -7q25 -33 25.5 -78.5t-15.5 -95t-45.5 -97.5t-71.5 -85l-36 11q44 50 65.5 88t27 64t-3.5 43.5t-35 25.5q-2 0 -8 1t-10 3q-21 11 -33 30.5t-12 46.5zM315 85q0 35 24 57.5t56 22.5q44 0 65 -30h2q0 -3 1 -4t1 -3 q25 -33 27 -78.5t-14.5 -95t-46.5 -97.5t-72 -85l-37 11q44 50 66.5 88t28 64t-4 43.5t-34.5 25.5q-4 0 -9 1t-10 3q-43 25 -43 77z" />
<glyph unicode="&#x2022;" horiz-adv-x="1323" d="M528 682q0 56 39.5 98.5t99.5 42.5q56 0 98.5 -42.5t42.5 -98.5q0 -57 -42.5 -98t-98.5 -41q-59 0 -99 41t-40 98z" />
<glyph unicode="&#x2026;" horiz-adv-x="1108" d="M74 91q4 35 29 58t60 18q37 -4 58.5 -31.5t16.5 -61.5q-2 -33 -29 -55.5t-62 -18.5q-33 4 -55 31t-18 60zM473 91q2 35 29 58t60 18q33 -4 55.5 -31.5t18.5 -61.5q-4 -33 -30 -55.5t-59 -18.5q-35 4 -56.5 31t-17.5 60zM870 91q4 35 30 58t61 18q33 -4 56 -31.5t19 -61.5 q-2 -33 -28 -55.5t-61 -18.5q-38 4 -58.5 31t-18.5 60z" />
<glyph unicode="&#x202f;" horiz-adv-x="377" />
<glyph unicode="&#x2039;" horiz-adv-x="481" d="M2 667v21l415 196v-43l-206 -99q-70 -33 -72 -65.5t72 -63.5l206 -97v-43z" />
<glyph unicode="&#x203a;" horiz-adv-x="491" d="M74 469v45l206 93q74 35 73 67t-71 64l-208 97v46l417 -197v-22z" />
<glyph unicode="&#x205f;" horiz-adv-x="471" />
<glyph unicode="&#x20ac;" horiz-adv-x="798" d="M21 653v53h159v52v85h-159v50h161q2 159 21 282t51 206.5t86.5 126t132.5 42.5q64 0 112.5 -23t76.5 -61.5t46.5 -82t25 -83t7.5 -65.5t1 -28v-6v-3q-4 -27 -23.5 -44t-45.5 -17q-29 0 -49.5 20t-20.5 50q0 2 5 46.5t-3 99t-38.5 99t-93.5 44.5q-46 0 -73 -37.5t-43 -112 t-21.5 -186.5t-5.5 -267h271v-50h-271v-68v-69h271v-53h-271q2 -306 28 -453.5t113 -147.5q62 0 89.5 33t35 73.5t2.5 74.5t-5 36q0 29 19.5 48t45.5 19q29 0 49 -19t20 -48q0 -21 -10.5 -67t-38 -91.5t-77.5 -79t-128 -33.5q-145 0 -215.5 155t-77.5 500h-159z" />
<glyph unicode="&#x2122;" horiz-adv-x="1017" d="M93 1247v114h342v-114h-29q-2 26 -6 45q-7 17 -19 31.5t-33 14.5h-46v-694q0 -14 4.5 -21.5t10.5 -7.5q4 -4 13 0v-29h-133v29q9 -4 16 0q4 0 9.5 7.5t5.5 21.5v694h-46q-24 0 -35.5 -14.5t-16.5 -31.5q-6 -19 -6 -45h-31zM473 586v29q8 -2 14 0t10 8.5t4 20.5v659 q0 17 -4 23t-10 10q-5 2 -14 0v25h107l108 -410l105 410h102v-25q-9 2 -16 0q-5 -3 -9 -9.5t-4 -23.5v-659q0 -14 4 -21.5t9 -7.5q6 -4 16 0v-29h-133v29q9 -4 13 0q6 0 12 7.5t6 21.5v595q-29 -112 -53 -201q-9 -39 -17.5 -76.5t-16 -66.5t-12.5 -48l-4 -18h-46 q-6 24 -14.5 56.5t-17.5 66.5t-17.5 67.5t-16.5 65.5q-19 77 -40 154v-595q0 -14 4.5 -20.5t8.5 -8.5q7 -2 16 0v-29h-94z" />
<glyph unicode="&#xe000;" horiz-adv-x="1063" d="M0 0v1064h1064v-1064h-1064z" />
<glyph unicode="&#xfb01;" horiz-adv-x="837" d="M31 1007v59h151v108q0 20 1 50.5t1 32.5q0 83 26 140t72 91t103.5 47t113.5 13q118 0 175 -55.5t57 -146.5v-2v-6q0 -40 -29 -69.5t-68 -29.5t-67.5 29.5t-28.5 69.5q0 58 57 83q35 13 12 46q-6 9 -12 14q-7 4 -17.5 8.5t-26 6.5t-29.5 4t-23 2q-35 0 -65 -10.5 t-53 -44.5t-37 -98t-14 -170q0 -2 1 -3l1 -2v-108h395v-948q0 -31 7.5 -45.5t19.5 -16.5q12 -6 25 0v-56h-261v56q15 -6 27 0q10 2 20.5 16.5t10.5 45.5v824q0 27 -10.5 40.5t-20.5 18.5q-11 8 -27 6h-186v-889q0 -31 9 -45.5t19 -16.5q11 -6 27 0v-56h-263v56q17 -6 28 0 q8 2 19 16.5t11 45.5v889h-151z" />
<glyph unicode="&#xfb02;" horiz-adv-x="814" d="M33 999v58h139v117h2q0 22 1 52l1 31q0 61 15.5 115.5t45.5 94t73.5 60.5t99.5 21h286v-115v-1315q0 -31 10.5 -45.5t20.5 -16.5q9 -6 27 0v-56h-261v56q15 -6 29 0q8 2 16.5 16.5t8.5 45.5v1315q0 31 -9.5 42.5t-23.5 18.5q-13 8 -30 8h-74q-33 0 -51 -29t-28 -74.5 t-10 -102.5v-115v-7v-117h128v-58h-128v-881q0 -31 10 -45.5t19 -16.5q13 -6 27 0v-56h-261v56q16 -6 29 0q9 2 18 16.5t9 45.5v881h-139z" />
</font>
</defs>
</svg>
