<?xml version="1.0" standalone="no"?>
<!DOCTYPE svg PUBLIC "-//W3C//DTD SVG 1.1//EN" "http://www.w3.org/Graphics/SVG/1.1/DTD/svg11.dtd" >
<svg xmlns="http://www.w3.org/2000/svg">
<metadata></metadata>
<defs>
<font id="lasermetalregular" horiz-adv-x="726" >
<font-face units-per-em="2048" ascent="1638" descent="-410" />
<missing-glyph horiz-adv-x="574" />
<glyph horiz-adv-x="0" />
<glyph unicode="&#xd;" horiz-adv-x="574" />
<glyph unicode=" "  horiz-adv-x="574" />
<glyph unicode="&#x09;" horiz-adv-x="574" />
<glyph unicode="&#xa0;" horiz-adv-x="574" />
<glyph unicode="!" horiz-adv-x="270" d="M0 72v18q0 20 5 50q-5 8 -5 23q16 13 54 13h73q36 0 36 -40v-50q0 -86 -36 -86h-82q-45 0 -45 72zM5 443v294q18 186 18 230q0 60 -9 127q13 50 31 474v19l5 9q38 -5 58 -5q52 18 91 18h18q7 0 18 -18v-402l-36 -448q-44 -343 -72 -343h-9q-40 13 -91 13h-4q-18 8 -18 32 z" />
<glyph unicode="&#x22;" horiz-adv-x="616" d="M147 1532q0 45 81 59h9q30 0 45 -41q0 -70 -90 -226q-15 -9 -22 -9q-19 7 -19 14v131q0 26 -4 72zM332 1524q0 46 82 59h9q29 0 45 -41q0 -70 -91 -226q-14 -9 -22 -9q-18 7 -18 14v131q0 26 -5 72z" />
<glyph unicode="#" horiz-adv-x="1082" d="M16 447v14q0 9 13 9q46 -13 213 -13q50 89 99 171q-212 13 -212 50v9q15 9 27 9q99 -18 167 -18h45q113 163 321 416l9 4h5q7 0 13 -13v-23q-83 -120 -248 -330q-32 -44 -32 -54h5q265 9 298 9q158 227 226 303l23 13q18 -6 18 -13v-5q0 -25 -195 -284v-9q225 13 290 13 q40 -4 40 -18v-9q0 -27 -370 -36l-127 -181q102 9 240 9h99q74 0 91 -32l-5 -9q-470 -9 -470 -27q-260 -341 -289 -370l-14 -9h-4v4q29 97 244 380h-9q-72 0 -163 -5q-50 5 -91 5q-136 -259 -180 -271q0 4 -5 4q17 53 127 267q-199 10 -199 40zM301 452h117q52 0 158 5 l127 180h-5q-193 -9 -298 -9q-99 -166 -99 -176z" />
<glyph unicode="$" horiz-adv-x="1058" d="M16 1310q0 267 244 330l90 13l-4 63q3 59 22 59q7 0 14 -13v-18q0 -30 4 -91l23 -4h41l-5 22v45l5 32h9q7 0 13 -13v-19q0 -90 41 -90q49 -19 81 -86v-22q0 -9 -9 -9h-13q-42 59 -64 72q-4 0 -13 4v-4q17 -128 27 -371q8 0 14 -122q215 -65 352 -199q158 -270 158 -393 h-4l4 -9v-9q0 -5 -4 -5l4 -9q-4 -9 -4 -13l4 -9q-4 -9 -4 -14q0 -4 4 -4q0 -103 -86 -231q-131 -124 -207 -135q-46 -18 -136 -41h-63l-9 4l4 -31v-9q0 -82 -13 -82h-5q-18 0 -18 82v36q0 9 -9 9h-145l-9 5q0 -104 -22 -104q-12 10 -23 113q-262 98 -262 325q0 94 32 136h9 v-18q0 -196 95 -299q91 -77 135 -77q0 191 27 493v14q0 219 9 366q-117 14 -217 122q-117 164 -117 208zM179 1477q18 -106 176 -258v384h-5q-158 -11 -158 -63q-9 -25 -13 -63zM350 112q0 -27 36 -27h122q-4 114 -4 167v389q0 160 -14 289q-87 32 -99 32l-5 -27 q-4 -206 -4 -330q-27 -326 -27 -471v-22h-5zM391 1603q5 -90 5 -135v-276q0 -45 99 -86v14q-18 160 -27 420q-8 59 -27 59q-6 4 -32 4h-18zM531 907q14 -186 14 -244q0 -115 -5 -447q5 -69 5 -127q99 24 171 104q80 59 122 222v77q0 266 -307 420v-5z" />
<glyph unicode="%" horiz-adv-x="1152" d="M0 872v37q0 134 113 207l23 5h45q24 0 31 -23q56 0 64 -36l-9 -4q-59 22 -91 22q-31 -13 -45 -63q-9 -50 -9 -113q0 -5 -4 -5q22 -122 63 -122q24 -32 99 -54h36q42 0 109 54q-32 28 -118 77q-40 43 -40 68v45q28 140 104 140h31q10 0 18 -4q8 4 18 4q82 -67 82 -81 q22 -36 22 -77v-40q0 -28 -18 -82h5q140 52 163 113q48 71 135 154q0 17 54 45q0 25 86 54q38 23 145 55q27 0 27 -41q-54 -79 -194 -240l-109 -158q-74 -166 -217 -375q0 -19 -59 -104q0 -14 -144 -203q-26 -45 -95 -77q-33 -17 -136 -50q-18 25 -18 45q58 67 186 285 q203 353 271 452l59 81h-5q-2 -14 -127 -72q-59 0 -81 -36q-73 -77 -181 -77h-36q-36 0 -95 5q-8 -5 -18 -5q-72 29 -117 108q-23 50 -23 86zM389 936q0 -52 72 -109h9q27 46 27 104v14q-13 104 -72 104q-34 -51 -36 -86l4 -27h-4zM701 294q0 148 76 203q48 59 95 59 q0 32 55 45h31q113 0 163 -104q14 -40 14 -68v-9q0 -150 -127 -226q-23 -40 -77 -40h-32q-145 0 -194 122q-4 8 -4 18zM814 357q0 -54 104 -131h22q88 0 145 131q4 45 4 68v9q0 79 -86 113q-22 9 -36 9q-18 -31 -18 -50v-13q0 -30 27 -36q20 4 46 18q4 -9 4 -14 q-17 -41 -77 -41q-37 0 -77 41q-58 -63 -58 -90v-14z" />
<glyph unicode="&#x26;" horiz-adv-x="1191" d="M0 353v27q0 170 72 357q78 164 172 208q66 54 172 54v4q-39 0 -222 204q-54 76 -54 185v27q0 104 100 181q78 41 131 41h45q83 0 126 -23q57 82 141 82v-10q-46 0 -113 -76q72 -40 103 -64q46 -55 59 -140v-45q-37 -63 -99 -63q-131 21 -131 194v9q9 69 9 82 q-53 13 -122 13q-113 0 -181 -95q-23 -43 -23 -90v-18q0 -139 91 -213q23 -39 131 -126q105 -69 176 -86q9 -12 9 -18q-9 -21 -18 -23q-62 18 -86 18l-4 -9q-25 5 -37 5q-81 -43 -94 -64q-111 -169 -113 -253q-50 -134 -50 -294q0 -82 117 -212q111 -72 127 -72h72 q43 0 113 95q39 0 136 235q81 219 81 239q-50 36 -144 36q-126 -85 -145 -85q-9 0 -9 13q0 25 117 100q17 9 37 9h63q81 0 221 -109q8 -4 23 -4h27q38 0 118 76h18q18 -9 18 -22q-69 -100 -158 -100h-37q-34 0 -99 59q-26 -48 -68 -194q-62 -145 -122 -249 q-128 -144 -172 -144q-11 0 -67 -5q-153 0 -321 113q-136 121 -136 240zM533 1510q0 -142 91 -168h18q35 0 54 32q0 109 -77 163q-48 31 -77 31q-9 -29 -9 -58z" />
<glyph unicode="'" horiz-adv-x="209" d="M54 1539q0 45 82 59h9q29 0 45 -41q0 -70 -91 -226q-14 -9 -22 -9q-18 7 -18 14v131q0 26 -5 72z" />
<glyph unicode="(" horiz-adv-x="432" d="M15 411v222q0 337 67 483q75 251 177 452q65 104 77 104q9 23 45 37q53 67 90 67h9q9 -1 9 -9q-95 -84 -108 -131q-27 -18 -41 -86q0 -35 -41 -212l-63 -389q-4 -22 -9 -655q6 -152 77 -312q26 -46 127 -172q0 -30 144 -154q-9 -4 -13 -4q-69 29 -131 99q-22 0 -100 95 q-187 174 -208 276q-45 67 -108 289z" />
<glyph unicode=")" horiz-adv-x="456" d="M-123 1739v5q0 11 18 13q49 -21 77 -59q28 0 95 -85q210 -242 293 -480q73 -356 73 -438q9 -105 9 -131v-9q0 -230 -127 -543q-38 -76 -117 -149q-66 -126 -122 -126q-27 -36 -55 -45q0 4 -4 4q0 15 108 149q39 53 82 380q13 123 13 262v5q0 222 -67 524q-14 45 -19 203 q-67 279 -126 335q-23 38 -23 45q5 9 5 14q-59 81 -68 81q-45 37 -45 45z" />
<glyph unicode="*" horiz-adv-x="541" d="M38 885v9q0 7 14 13h4q10 0 177 -95q-23 75 -23 86v23q1 9 9 9h9q15 0 41 -104q84 103 90 104h9q7 0 14 -14v-4q0 -16 -77 -122l45 4h55q6 0 13 -18q0 -22 -63 -22v-5q167 -64 167 -86v-9q0 -7 -18 -18q-12 0 -212 95v-4q9 -127 9 -159q-5 -27 -14 -27h-14q-19 0 -22 172 l-9 5q-34 -52 -140 -154h-14q-9 0 -9 9v18q29 42 122 145v4q-97 -18 -122 -18h-4q-7 0 -19 18v5q0 14 127 31h14q-103 61 -159 109z" />
<glyph unicode="+" horiz-adv-x="626" d="M0 581v13q0 8 27 14q23 0 199 -14l-5 23q0 127 -9 280q0 31 91 41q17 4 50 4q28 -20 36 -275v-77q8 -5 135 -9q79 4 100 4q22 -6 22 -27q-6 -22 -31 -22h-68q-16 0 -54 -14q-39 5 -64 5h-36q9 -176 18 -254q0 -36 -81 -36q0 -10 -50 -13q-40 36 -54 312q-226 12 -226 45z " />
<glyph unicode="," horiz-adv-x="285" d="M53 392q17 45 41 45q95 -6 95 -45q3 -81 3 -110q0 -30 -51 -73h-3q-13 7 -13 16q15 21 26 61h-44q-54 0 -54 106z" />
<glyph unicode="-" d="M129 593q0 30 123 51q0 8 108 9q102 0 189 -26q40 -18 40 -97v-35q0 -42 -58 -42h-117q-70 -9 -75 -9h-99q-90 0 -90 39q-5 66 -21 110z" />
<glyph unicode="." horiz-adv-x="263" d="M62 355v37q9 16 20 23h78q46 0 46 -29v-66q0 -16 -17 -26h-92q-35 0 -35 61z" />
<glyph unicode="/" horiz-adv-x="703" d="M-147 136v9q0 17 50 95q0 48 230 357q0 15 82 144q114 244 217 394q88 110 190 280q23 22 103 135q3 0 55 14h63q38 27 113 27q9 -1 9 -9q-3 -37 -203 -289q-21 -15 -122 -163q-61 -115 -127 -212q-145 -315 -262 -457q-92 -91 -140 -167q-6 0 -50 -59 q-133 -149 -158 -149q-24 0 -50 50z" />
<glyph unicode="0" horiz-adv-x="587" d="M56 393v54q47 538 195 538q112 -10 154 -36q144 -129 144 -298v-59q0 -236 -63 -443q-68 -135 -122 -135q0 -11 -41 -14h-36q-179 0 -226 344q-5 30 -5 49zM246 633l5 -9v-136q8 -384 36 -384q31 -27 81 -27q118 112 118 529v67q0 146 -145 240q-8 5 -22 5h-37 q-31 -111 -31 -208v-73q0 -4 -5 -4z" />
<glyph unicode="1" horiz-adv-x="410" d="M0 777v5q108 125 136 208l-5 22q48 67 104 77q68 0 68 -284q59 -291 59 -534q0 -211 13 -230q0 -27 -31 -27h-5q-120 0 -176 -14q-12 0 -14 45l9 5l-4 54v113q0 50 13 108v122q0 127 -22 462q-92 -145 -127 -145q-18 7 -18 13z" />
<glyph unicode="2" horiz-adv-x="672" d="M0 836v23q12 71 72 140q118 113 244 113q0 4 14 4h14q83 0 144 -108q18 -37 41 -158v-32q0 -91 -59 -185q-60 -110 -131 -217q-43 -88 -77 -145q-13 -18 -13 -113q90 -24 257 -104h41q117 0 140 131q24 62 50 91l9 -5q0 -194 -91 -244q-59 -27 -99 -27h-18q-67 0 -253 95 l-45 13h-59q-85 -15 -113 -54q0 -4 -5 -4h-22q-14 4 -14 27q0 122 86 303q0 18 140 257q91 99 113 190q0 144 -77 213h-81q-96 -38 -149 -131q-21 -47 -32 -100h-13q-14 5 -14 27z" />
<glyph unicode="3" horiz-adv-x="710" d="M23 1035v14q4 13 27 13h40l362 -18h14q6 0 18 -18v-4q0 -31 -95 -159q-82 -117 -118 -190h5q86 55 190 55h13q89 0 194 -190q23 -27 23 -158q-26 -94 -99 -231q-75 -131 -145 -131q0 -10 -72 -18h-18q-80 0 -127 131v9q1 9 9 9q0 -26 113 -45h14q49 0 90 68q45 88 45 149 v23q0 242 -117 289q-36 9 -45 9h-37q-124 -102 -162 -158q-8 -5 -18 -5q-19 8 -19 32q0 4 5 4l-5 9v9q0 41 104 204q67 141 163 271q-68 4 -99 4h-68q-102 10 -109 10h-63q-7 0 -13 13z" />
<glyph unicode="4" horiz-adv-x="563" d="M23 592v14q59 222 158 411q87 214 117 262h9q7 0 14 -13q0 -46 -203 -493q0 -9 -46 -145h258v27q19 339 36 339l27 9q136 0 136 -40v-9q-28 -592 -63 -683q-19 -133 -28 -253q0 -10 -140 -18q-31 26 -31 45v127l36 185q8 49 22 222h-266q-33 0 -36 13z" />
<glyph unicode="5" horiz-adv-x="710" d="M11 1058q7 22 32 22h32q98 14 221 23h158q27 -2 27 -14v-13q0 -9 -36 -14q-4 0 -4 5l-55 -5h-99q-110 -9 -217 -27q19 0 41 -285q87 59 162 59l77 9q113 0 267 -149q63 -90 63 -190v-108q0 -69 -86 -235q-134 -136 -262 -136h-13q-135 0 -253 172q-11 2 -23 36l4 9 q0 3 -9 32l9 4q22 -29 132 -99q52 -21 94 -55h55q51 0 108 132q50 128 50 198q0 241 -145 330q-27 0 -27 9q-115 0 -194 -63q-7 -18 -32 -18q-26 0 -32 194q0 90 -45 177z" />
<glyph unicode="6" horiz-adv-x="611" d="M34 348v154q0 228 212 456q114 82 145 82h23q6 0 18 -18v-10q0 -6 -68 -31q-79 -56 -82 -63q-76 -146 -76 -317q0 -104 4 -104q75 41 136 41h31q127 0 204 -154q9 -14 9 -27v-18q0 -194 -59 -244q-71 -95 -158 -95q-122 0 -231 81q-49 72 -49 100l-14 -9h-9q0 37 -36 176 zM215 407q0 -75 45 -204q53 -113 158 -113h27q91 48 91 235q0 102 -140 154q-17 5 -41 5q-73 0 -140 -55v-22z" />
<glyph unicode="7" horiz-adv-x="563" d="M0 54v5q43 83 72 126q66 78 122 217q100 178 100 181l-45 -4h-28q-9 0 -9 9v4q0 37 82 45q38 0 50 46l117 262h-4q-137 0 -403 31v-4q5 -40 5 -45q-5 -56 -14 -86h-9q-17 0 -22 140q-9 0 -9 9v9q0 25 22 36q175 -23 353 -36l31 4q114 -5 122 -13q4 0 27 4q64 0 64 -45v-9 q0 -37 -136 -312q86 -11 86 -27v-13q0 -14 -59 -14q-7 0 -54 5q-157 -367 -271 -538q0 -34 -45 -41h-27q-118 7 -118 54z" />
<glyph unicode="8" horiz-adv-x="557" d="M0 768v5q0 171 163 244h9q164 0 203 -72q68 -86 68 -154l-5 -9q0 -5 5 -14q-2 -78 -63 -208q67 -36 140 -158q18 -77 18 -99v-77q0 -42 4 -118q-34 -103 -108 -103q0 -5 -27 -5h-73q-90 21 -144 77q-41 57 -41 176v36q0 77 86 181q0 8 14 23v4q-154 51 -208 154 q-41 55 -41 117zM145 800q23 -70 162 -185l23 -14h4q46 92 46 149v55q0 70 -95 144q-41 9 -59 9q-81 0 -81 -158zM208 249q0 -108 41 -150q65 -45 126 -45q109 0 109 64l-9 22q4 31 4 50q0 138 -77 194q-42 50 -95 82h-4q-95 -116 -95 -177v-40z" />
<glyph unicode="9" horiz-adv-x="618" d="M34 615v72q0 104 149 253q88 77 154 77h18q81 0 163 -163q0 -11 45 -81q40 -101 40 -348h-4l4 -9q-32 -102 -81 -181q-72 -137 -167 -217q-47 -18 -50 -18q-81 3 -81 18v5q0 4 72 54q54 42 122 244q18 3 23 131v27q0 34 -9 127q-82 -118 -131 -118q-39 -18 -77 -18h-45 q-92 0 -136 113zM93 651q0 -106 90 -127h9q139 0 190 118q0 10 18 59q-54 160 -54 167q-13 20 -73 68q-129 -82 -180 -240v-45z" />
<glyph unicode=":" horiz-adv-x="270" d="M23 288v59q14 26 31 36h122q73 0 73 -45v-104q0 -25 -28 -41h-144q-54 0 -54 95zM24 836v59q14 26 31 36h122q73 0 73 -45v-104q0 -25 -27 -41h-145q-54 0 -54 95z" />
<glyph unicode=";" horiz-adv-x="293" d="M26 806v58q15 26 32 37h122q72 0 72 -46v-104q0 -24 -27 -40h-145q-54 0 -54 95zM64 226q24 63 59 63q136 -9 136 -63q4 -115 4 -154q0 -43 -72 -104h-5q-18 9 -18 23q21 30 37 86h-64q-77 0 -77 149z" />
<glyph unicode="&#x3c;" horiz-adv-x="703" d="M70 534q0 13 264 336q29 53 171 193q100 -35 100 -82q0 -25 -66 -100q-82 -104 -149 -220q-53 -59 -117 -203v-12q32 0 299 -220q11 0 11 -28q-8 -27 -39 -27q-24 0 -259 193q-215 108 -215 170z" />
<glyph unicode="=" horiz-adv-x="611" d="M38 797v63q0 36 73 36h49q109 0 168 5q46 -5 158 -5h9q54 0 54 -86v-9q-18 -41 -45 -41h-36q-13 0 -122 -9q-69 0 -190 5q-41 -5 -90 -5q-24 0 -28 46zM47 467v27q0 59 41 59q14 4 54 4h23q149 0 343 5q82 0 82 -41v-63q0 -32 -127 -32q-133 -9 -208 -9h-27 q-12 0 -135 14h-23q-23 11 -23 36z" />
<glyph unicode="&#x3e;" horiz-adv-x="626" d="M38 212q119 282 295 446q41 52 82 88q-351 314 -352 326v13q13 25 39 25t294 -244q195 -153 195 -164q6 0 6 -18q-243 -357 -345 -521l-76 -32q-138 35 -138 81z" />
<glyph unicode="?" horiz-adv-x="710" d="M0 1306v9q34 104 172 181q33 27 117 27h68q199 -51 321 -167q54 -89 54 -172q0 -95 -108 -208q-21 -38 -73 -81q-131 -156 -131 -276q-9 0 -40 -217q-7 -40 -32 -40q-95 9 -95 27q28 410 68 492q8 70 172 267q49 35 49 90q0 110 -149 213q-81 27 -95 27h-36 q-113 0 -221 -163v-9q0 -151 72 -221q32 -40 32 -54q0 -7 -14 -14h-13q-109 114 -109 194q-9 24 -9 95zM244 27v109q19 58 59 58h4q122 -18 122 -63q5 -24 5 -54v-45q-9 -23 -27 -32l-54 5h-73q-25 0 -36 22z" />
<glyph unicode="@" horiz-adv-x="1643" d="M8 710v45q0 408 235 606q62 93 262 153q154 41 276 41h45q196 0 357 -109q167 -170 167 -434q0 -105 -54 -357q0 -72 -135 -217q-74 -109 -150 -171q-18 -9 -49 -9h-9q-82 92 -82 140q-22 3 -27 199q0 14 18 76v5h-4q0 -14 -41 -108q-53 -180 -99 -245q-32 -63 -73 -63 h-49q-97 0 -195 154q0 123 59 384q78 182 108 199q58 36 100 36h18q42 0 90 -41q73 -62 109 -140h9v14l36 113q-5 9 -5 13q63 73 159 73q25 0 31 -18v-5q-36 -97 -45 -172q-30 -88 -50 -257q-31 -120 -40 -303h9q89 64 126 158q42 18 140 253q37 154 37 253v77 q0 184 -136 339q-69 66 -226 95q-67 9 -99 9h-32q-263 -12 -285 -54q-216 -157 -262 -321q-18 -95 -18 -118v-31q0 -5 -5 -5q0 -4 5 -4q-18 -137 -18 -217v-267q0 -138 113 -271q0 -33 244 -122q65 -27 145 -27h104q328 0 628 275q132 187 167 389q14 76 23 149h9l4 -22 q0 -357 -158 -543q-89 -107 -194 -158q-216 -149 -529 -149h-27q-206 0 -470 163q-187 184 -204 275q-63 148 -63 272zM586 447q0 -30 55 -85q31 10 45 45q70 61 81 135q14 49 64 163l22 81q-13 83 -99 159q-33 -21 -109 -163q-19 0 -59 -312v-23z" />
<glyph unicode="A" horiz-adv-x="1293" d="M0 418v54q0 169 59 565q36 113 117 312q79 174 181 262q69 59 131 59q241 0 294 -77q149 -166 149 -190h5q1 59 104 235q17 14 31 14q145 -38 145 -90v-14q0 -163 -72 -551q-9 -61 -9 -131v-136q-10 -162 -10 -181v-126q0 -82 -4 -222q4 -9 4 -13h5q50 0 72 54 q20 0 95 230l9 5q9 -23 9 -36q-112 -366 -180 -366q-25 -14 -50 -14q-95 0 -131 90q-32 99 -32 204v90q43 805 72 805l14 126v5h-5q-27 -113 -94 -276q-73 -285 -159 -506l5 -9q-32 -83 -59 -208q-91 -243 -303 -344l-27 -4h-72q-66 0 -181 77q-113 140 -113 307zM298 423 q10 -208 73 -208q0 -5 13 -5h5q27 0 131 59q1 24 68 77q40 83 81 212q84 197 158 493q54 147 54 212v32q0 19 -4 50q4 13 9 13q-14 22 -36 86q-60 63 -118 77q-181 -43 -262 -145q-104 -164 -117 -393q-32 -173 -32 -253v-27q0 -5 -5 -5q0 -4 5 -4q-23 -111 -23 -217v-54z " />
<glyph unicode="B" horiz-adv-x="958" d="M0 1609q11 13 163 23q86 -16 86 -27q31 -104 40 -163h9q64 129 104 145q0 14 104 31h41q10 0 18 5q156 -36 203 -100q86 -118 86 -221v-68q-11 -119 -126 -294q-79 -100 -163 -140l-5 -9h41q109 -23 190 -154q41 -56 77 -271q13 -71 13 -117q0 -68 -27 -154 q-52 -27 -72 -27h-36q-51 5 -109 50q-121 92 -190 167q-13 0 -90 68q-4 -9 -4 -14q0 -57 -28 -190q0 -149 -67 -149h-18q-70 18 -100 231q-32 366 -32 497q0 117 37 262q-17 71 -37 267q-16 37 -49 189q-59 131 -59 163zM136 728q26 -629 63 -629q17 -53 36 -72h14 q4 36 13 50q-4 163 -27 420h-4q0 4 4 27q0 75 -50 366q-13 50 -22 50q-27 -102 -27 -212zM307 1397q27 -244 27 -299q0 -27 -4 -81q27 -157 27 -235q191 103 249 289q12 23 49 131q0 116 -72 226q-62 59 -154 77q0 5 -4 5q-72 -21 -118 -113zM353 411q21 -37 149 -131 q38 -49 122 -108h4q18 74 18 126q0 342 -81 398q-47 50 -63 50q-149 -25 -149 -59q9 -112 9 -163v-31z" />
<glyph unicode="C" horiz-adv-x="1229" d="M16 1278l9 5q24 -86 176 -86q18 0 68 9v9q-54 29 -86 135q-4 6 -4 32v32q0 71 108 113q6 4 32 4h18q91 0 99 -117v-27q-27 -94 -117 -172q49 -18 67 -18h41q17 13 68 27v-5q122 36 122 68q246 281 298 303q33 29 82 54h27q77 -9 77 -41q-46 -134 -181 -235 q-95 -37 -95 -94q-59 -103 -86 -231q-41 -44 -104 -294q-50 -269 -50 -316v-77q0 -119 118 -167q27 0 27 -5q45 0 199 77q25 0 163 99q12 0 99 77q36 29 54 36l5 -9v-9q-96 -83 -258 -239l-95 -82q-219 -153 -384 -153q-38 0 -167 77q-77 92 -77 171v77q0 160 176 656 q0 4 140 266q-158 -58 -171 -58h-14q-24 0 -104 22q-34 -22 -104 -22h-9q-167 0 -167 108zM201 1396q0 -89 86 -168h5q96 75 122 172q0 93 -64 104h-49q-100 -29 -100 -108zM857 1359q127 63 185 172q3 0 22 32v4q-13 30 -36 46h-18q-78 -98 -153 -254z" />
<glyph unicode="D" horiz-adv-x="1523" d="M9 220v14q0 35 50 104q47 45 117 45h23q58 -2 185 -77q5 0 5 5q173 433 280 750q55 129 86 181l113 203q0 12 45 64q-44 63 -258 108h-67q-73 -30 -163 -172q-23 -26 -95 -190q-32 -104 -32 -131h77q118 -19 118 -117q0 -123 -100 -140h-9q-81 0 -131 49l-9 -4h-4 q-20 39 -37 99h-4q-35 0 -86 -162l-27 -177l4 -9q-9 -49 -18 -49q-9 20 -9 58v91q0 179 122 298q-9 70 -9 136v22q0 163 149 335q112 113 240 113h50q94 0 275 -73q7 -9 64 -40q91 71 203 108h27q75 0 95 -49q18 -32 18 -46v-45q0 -7 -13 -13l-36 76q-28 18 -46 18 q-87 0 -108 -72q-18 -36 -18 -50q8 -59 86 -135q90 -119 239 -366q91 -147 91 -299v-54q0 -16 -41 -158q0 -137 -172 -307q-25 -49 -126 -122q-11 0 -104 -32q-303 0 -484 99q-51 51 -81 68q-100 -71 -150 -117q0 -14 -122 -23q-139 0 -171 41q-32 81 -32 144zM54 225 q14 -136 45 -136q217 13 217 73q34 55 55 108q-11 0 -100 50q-50 22 -72 22h-45q-61 0 -100 -108v-9zM285 1011q48 -95 108 -95q1 -9 9 -9q55 38 55 100q-14 81 -104 81h-28q-35 0 -40 -18v-59zM533 220q169 -93 281 -122q67 -18 76 -18h9q101 22 213 163q99 215 99 334 q27 82 27 163v63q-30 294 -54 294q-40 171 -59 199q-57 81 -85 109q-109 -344 -141 -484q-71 -279 -207 -479q-35 -87 -159 -222z" />
<glyph unicode="E" horiz-adv-x="1237" d="M-8 1253q206 129 348 176q41 0 122 136q134 131 235 172q71 45 104 45h45q95 0 95 -54v-14q0 -47 -140 -140q-147 -82 -257 -113q-100 -317 -100 -438v-109q0 -38 68 -72h41q22 0 158 86q75 40 99 40q7 0 14 -13v-14q-6 -10 -127 -81q-54 -111 -104 -316 q-31 -119 -31 -168v-45q36 -221 117 -221h9q48 0 136 63q73 15 149 86q27 10 122 117q93 82 140 109q18 -7 18 -14q0 -25 -90 -86q-60 -55 -109 -113q-349 -299 -551 -334h-82q-76 0 -140 50q-67 85 -67 131h4l-4 9q4 9 4 13q-4 9 -4 14h4l-4 9q0 4 4 4q0 5 -4 5 q53 276 85 276q61 123 213 307h-5q-54 -27 -104 -27h-18q-128 0 -153 95q-18 36 -18 59v31q0 180 131 466v9h-14q-32 -19 -140 -59q-149 -86 -194 -86zM584 1515h9q183 70 280 168l32 36v4q-6 18 -72 23h-14q-59 0 -149 -131q-10 0 -86 -100z" />
<glyph unicode="F" horiz-adv-x="1352" d="M0 759q0 231 172 281q77 9 77 45q19 139 280 425q76 64 239 117q101 18 199 27q69 74 195 109h22q7 0 14 -14v-4q0 -6 -77 -27q-83 -43 -109 -68q229 -50 502 -50q82 0 199 36q13 0 23 -22q-86 -120 -86 -231q-9 -154 -23 -230h-9q-18 125 -18 253q0 71 54 167 q-46 -14 -176 -14h-14q-211 0 -429 41q0 -9 -9 -9l-23 5q-13 -40 -113 -502h9q69 0 403 13q40 -3 40 -13q0 -26 -461 -36v-5q-58 -457 -113 -560q-32 -175 -90 -267q-104 -163 -253 -212l-45 -5q-16 0 -41 5q-29 -14 -63 -14q-172 0 -172 172q-5 7 -5 27l9 41h5 q10 -4 27 -136q42 -54 154 -54q4 9 4 13l9 -4q66 85 127 285q18 133 68 226q49 140 77 298q58 199 76 239q56 151 95 235q5 59 91 204q38 31 54 59h-9q-109 0 -285 -95q-173 -154 -208 -231q-69 -72 -113 -226q152 0 186 -99q9 -18 9 -32q-30 -163 -100 -163h-54 q-131 33 -131 100q0 69 22 153h-4q-136 -44 -136 -90q-45 -70 -45 -249v-4q0 -9 -9 -9h-4q-14 33 -14 99zM217 868q30 -77 113 -77h50q63 46 63 140q-37 86 -122 86h-63q-31 -89 -37 -90v-41q0 -10 -4 -18z" />
<glyph unicode="G" horiz-adv-x="1044" d="M0 310v49q0 94 32 204q76 596 235 863q-58 26 -140 226q-19 71 -19 127l-15 -43q0 99 45 162h4q0 -19 -13 -90v-27q16 -175 165 -314h4q0 59 222 126q43 9 68 9h72q93 0 158 -126q45 -78 63 -140v-46q0 -27 -58 -72q-31 -9 -136 -13q-60 0 -185 58q-109 -266 -109 -343 q-40 -139 -59 -344q0 -4 -27 -171v-86q0 -121 55 -208l31 -23h18q146 83 249 244q0 16 -59 204v4q27 43 140 109h9q18 0 27 -77q41 -68 73 -258q105 96 149 145q61 27 72 27l5 -9q-8 -15 -50 -41q0 -26 -77 -86l-90 -99v-222q-40 -234 -163 -378q-74 -44 -90 -63 q-61 -41 -222 -41h-13q-55 0 -55 77v27q12 63 117 143q231 303 231 312q9 97 9 163v4h-4q-11 -42 -172 -189q-25 -14 -99 -68q-113 -45 -208 -45q-88 0 -131 99q-59 95 -59 240zM362 -363v-9q0 -33 13 -36h41q142 59 202 198q10 126 33 221q-168 -223 -168 -235 q-108 -69 -121 -139zM520 1309q102 -59 217 -59h31q82 11 82 86q-70 143 -131 208q-104 -32 -118 -73q-43 -37 -81 -162z" />
<glyph unicode="H" horiz-adv-x="1159" d="M0 750v5q26 61 90 104q61 45 118 45h77l54 -5q1 10 9 10q8 -5 18 -5q0 41 59 307q45 173 45 294v91q-37 -8 -122 -19q-132 -66 -140 -108q-15 -12 -50 -140v-109q0 -30 23 -122h-5q-49 38 -49 140v50q0 152 72 240q0 20 135 86q30 8 141 22l198 68q23 -7 23 -32v-9 q-32 -157 -68 -402q-40 -186 -68 -402q138 0 308 131v13q0 20 45 258q26 68 45 488v41q0 45 122 90q60 59 100 59q9 -20 9 -59v-81q0 -396 -145 -877q-112 -646 -149 -646q-81 -35 -122 -100h-18q-14 5 -14 27v18q36 259 55 349q40 77 63 348q4 0 4 4h-4 q-162 -113 -303 -113q-52 -272 -104 -371q-36 -224 -81 -339q-58 -99 -113 -99q-179 0 -231 136q-22 37 -22 104q0 65 18 113h4q9 -2 9 -9v-19q0 -21 -4 -45q14 -140 58 -140q18 -9 32 -9q42 0 68 131q18 70 59 276q9 0 58 149q7 7 46 172q-49 13 -127 13q-95 0 -221 -122 h-5z" />
<glyph unicode="I" horiz-adv-x="919" d="M8 16l9 4q14 -67 113 -162q11 -14 27 -14h5q39 6 99 63q63 100 136 470q45 160 76 348q91 413 172 615q74 216 204 407h-5q-79 -21 -131 -45q-267 -88 -330 -163q-63 -68 -63 -104v-27q0 -90 99 -158q0 -9 -9 -9q-40 0 -104 90q-13 42 -13 104q1 77 153 203q68 41 217 95 q207 82 258 82q0 8 23 9h99q58 0 140 -23l5 -9v-9q-98 -132 -258 -696q-154 -353 -199 -488q-63 -257 -95 -353q-77 -180 -104 -280q-120 -116 -230 -140h-50q-6 0 -90 -27h-5q-65 0 -136 135q-13 39 -13 82z" />
<glyph unicode="J" horiz-adv-x="1245" d="M8 -171q0 110 249 222q72 51 280 131q31 0 63 113q101 234 158 420q0 14 73 231q13 60 58 153q36 102 100 245q0 19 13 45h-253q-122 0 -185 -50q-84 -43 -127 -127q-4 -30 -9 -40q5 -8 5 -18q0 -9 -9 -9h-5q-7 0 -18 18v49q0 69 140 163q81 50 172 50h212q161 0 353 90 q9 5 14 5q20 -9 22 -18v-14q-54 -91 -77 -181l-203 -497q0 -25 -136 -348l-76 -144h4q11 0 217 72q60 22 77 22h9q4 0 4 -4q101 50 127 50h14q9 -1 9 -9q-86 -61 -312 -136q-23 -16 -122 -36q-59 -23 -59 -41q-137 -326 -244 -470q-66 -105 -154 -136q-62 -18 -86 -18h-40 q-258 68 -258 213v4zM71 -162v-40q33 -58 95 -77l27 -14q109 0 204 163q41 23 140 258h-5q-181 -69 -361 -186q-100 -61 -100 -104z" />
<glyph unicode="K" horiz-adv-x="1105" d="M0 81v86q5 82 23 82h4v-118q0 -138 68 -176q58 0 77 54q63 190 81 316q16 78 63 177q32 94 118 623l36 321q-169 -111 -190 -189q-27 -74 -49 -226h-5q-10 0 -14 49q0 262 177 357q68 52 135 118q114 58 177 108h18q13 -2 13 -31q-27 -153 -81 -534q-32 -105 -45 -235h4 q103 53 181 118q12 19 90 99q0 9 77 100q69 122 127 262q7 18 13 18h9q7 0 18 -18q0 -11 -54 -131q0 -19 -68 -136q-11 -26 -94 -126q-110 -135 -168 -159l-54 -36h27q117 0 208 -81q86 -127 86 -208v-77q0 -116 -104 -443q0 -55 -68 -239q-31 -92 -31 -213l13 -9h50 q54 20 190 240q8 20 27 31l4 -9q-9 -100 -171 -280q-41 -23 -82 -23h-22q-30 0 -64 41q-40 31 -40 72v91q40 189 40 303q14 44 59 397q18 32 18 86v113q0 102 -90 159h-45q-104 -15 -104 -41q-37 -208 -127 -452q0 -10 -41 -113q-12 -65 -72 -158q-91 -131 -140 -131 q-38 -14 -72 -14q-85 0 -118 95q0 14 -18 90z" />
<glyph unicode="L" horiz-adv-x="1028" d="M8 121v39q0 81 145 224q30 39 153 60q18 5 36 5h37q24 0 76 -34q0 13 46 79l158 313q113 189 176 328q95 170 95 198q-70 21 -172 41q-140 64 -307 64q-83 -28 -122 -64q-42 -20 -86 -115q0 -5 -5 -5h-4q-18 10 -18 25q0 57 86 129q92 70 153 70h14q165 0 330 -75 q45 0 149 -29h5q91 175 117 214q104 139 131 139q56 11 77 25q18 -22 59 -36q44 0 95 -99q9 -18 9 -40q-31 -144 -95 -203q-103 -74 -195 -74h-22q-8 -5 -106 -250q-109 -358 -259 -590q-61 -131 -91 -170q-18 -43 -49 -79q308 -242 487 -374q120 -69 298 -69h63 q224 0 303 169q25 39 32 39q9 -1 9 -9v-5q-17 -109 -59 -154q-114 -110 -325 -110h-5q-300 0 -470 179q-105 82 -369 274q-103 -149 -178 -200q-55 -24 -104 -39h-4q-226 11 -226 70q-59 49 -59 104q-8 0 -9 35zM62 131q0 -85 77 -114h5q62 0 122 69q0 4 158 269v10 q-12 0 -50 29h-41q-102 -17 -153 -54q-118 -125 -118 -194v-15zM1138 1339h4q125 0 213 114q45 101 45 129q0 35 -59 70q-31 25 -58 25q-37 0 -118 -224q-27 -94 -27 -114z" />
<glyph unicode="M" horiz-adv-x="1252" d="M0 855q0 41 131 484q33 33 72 158q130 267 159 267q35 27 113 27h9q72 0 72 -185q0 -96 -99 -493q-37 -141 -73 -339v-4h5q95 236 230 524q100 158 167 244q50 59 95 59q75 0 86 -149v-100q0 -88 -95 -484q-21 -109 -49 -185v-4h4q21 56 86 149q83 81 167 81h27 q33 0 91 -54q22 -46 22 -72v-91q-27 -140 -135 -443q-73 -256 -73 -511q57 -108 127 -135q23 11 99 99l5 -9v-4q0 -43 -113 -145q0 -13 -50 -27h-126q-45 0 -104 77q-59 66 -59 149q36 323 86 511q36 134 158 452q9 36 9 77q0 36 -18 36t-18 13q-48 -22 -113 -140 q-142 -308 -240 -624q-26 -49 -72 -49q-89 0 -113 40l-9 32q1 139 104 457l59 203q54 199 81 276q26 47 86 316q23 34 23 104q-3 36 -14 36q-123 -167 -230 -398q0 -17 -55 -131q-99 -226 -158 -388l-145 -624q-10 -8 -54 -23q-104 0 -104 45q-4 0 -4 14v18q1 210 58 439 q40 98 109 551q45 131 68 298q59 293 59 326v68h-5q-111 -185 -240 -570q-61 -206 -94 -249h-5z" />
<glyph unicode="N" horiz-adv-x="1178" d="M8 1048q0 55 185 452q137 158 217 158q35 18 50 18h50q104 -25 104 -149l4 -46q0 -118 -145 -497q0 -45 -99 -312v-4h5q44 149 189 330l150 230q4 0 72 68q65 42 104 50h41q111 0 149 -118q9 -20 9 -58v-159q0 -141 -145 -506q-54 -143 -54 -298q-11 -53 -23 -208v-23 q0 -10 5 -18q0 -4 -5 -4q15 -119 45 -149q49 -68 82 -68h9q18 25 176 321q27 36 32 36h4q0 -68 -171 -402q-65 -64 -109 -64h-95l-13 9h-37q-69 0 -131 131q-18 59 -18 82q27 364 109 669q117 416 117 655v59q-9 41 -22 41q-134 -111 -150 -177q-33 -37 -122 -181 q-98 -108 -185 -357q-62 -113 -135 -366q-31 -131 -59 -153q-3 -12 -32 -23q-95 0 -95 90v18q0 76 100 543q153 584 217 931l-5 9q-45 -14 -63 -50q-42 -14 -104 -117q-19 0 -113 -244q-74 -148 -91 -159zM365 641h5v9h-5v-9z" />
<glyph unicode="O" horiz-adv-x="1036" d="M8 297h4l-4 9v82l4 27q-4 9 -4 13h4l-4 9q0 5 4 5q0 4 -4 4l4 23v154q0 4 5 4q0 5 -5 5q5 49 9 49q0 5 -4 5q10 99 14 99l-5 9q0 5 5 5q0 4 -5 4q27 161 36 190l-4 9q15 64 22 82l-4 9q36 169 99 303q45 80 154 203q160 133 230 140q187 0 308 -199q54 -72 54 -167 q0 -5 -5 -14q28 -52 59 -189q8 -3 27 -177q0 -45 -4 -135h-5q0 -5 5 -5q-14 -51 -14 -144v-86q0 -5 -4 -5q0 -4 4 -4q0 -103 -90 -407q-41 -80 -136 -163q-43 -55 -158 -117q-67 -28 -113 -28h-90q-92 0 -217 86q-92 83 -122 172q-50 111 -50 140zM311 360q0 -50 40 -198 q68 -159 136 -177q31 0 36 -18q108 19 294 231q108 242 108 624q14 0 14 280q-51 271 -117 271h-32q-96 -73 -154 -185l-99 -172h-9v4q142 407 280 407h4q10 0 46 -9v5q0 63 -163 212h-14q-139 -116 -140 -163q-68 -88 -113 -253l-58 -244q-28 -161 -41 -474 q-18 -101 -18 -141z" />
<glyph unicode="P" horiz-adv-x="1406" d="M7 -353l9 5q60 -9 63 -9q70 0 140 140q82 261 167 687q26 72 68 452q54 196 113 375q85 335 167 335h154q59 -6 59 -59l-72 -294q180 253 316 289q59 23 118 23h27q73 0 162 -108q28 -66 28 -141q0 -187 -168 -583q-40 -62 -95 -167q-184 -194 -289 -194h-41 q-75 0 -162 122q-46 95 -46 190h-4q0 -99 -145 -439q-63 -210 -131 -352q-97 -133 -122 -208q-41 -81 -140 -113h-32q-14 0 -22 4l-27 -4h-18q-77 14 -77 49zM739 800q20 0 41 -185q53 -103 99 -113h5q78 0 149 140q99 243 99 262q0 14 54 127q10 33 50 126q41 137 41 213 v45q0 61 -54 104l-27 -5v5q-107 -26 -317 -308q-37 0 -86 -212q-11 -16 -49 -194q-5 0 -5 -5z" />
<glyph unicode="Q" horiz-adv-x="1167" d="M12 805v4q0 197 122 552q135 204 159 221q108 72 176 72h9q87 0 199 -104q81 -104 81 -153l-27 -23q-27 81 -68 109q-8 21 -72 49q-73 0 -172 -171q-59 -138 -59 -159q-58 -136 -81 -343v-95q0 -16 5 -41l-5 -9l5 -27h-5l5 -9v-45q22 -320 49 -357q112 -267 353 -267h4 q113 41 113 77q-61 177 -122 221q-46 -3 -58 -18h-23q-9 0 -9 9v9q12 41 90 41q64 5 82 5q49 -3 153 -104q109 343 109 528q9 0 13 208q0 114 -108 258q-59 27 -81 27h-9q-80 0 -118 -185q-4 -196 -4 -213h-5q0 -4 5 -4l-5 -23v-18q0 -22 5 -68l-9 -4h-5q-28 12 -36 230v91 q0 52 36 135q35 70 81 104l9 -4q17 9 37 9h13q127 0 190 -145q26 0 54 -181v-140q-22 -289 -81 -501q-23 -57 -50 -150q109 -126 172 -343q34 -88 63 -149q93 -100 195 -113h40q66 9 73 9h9q9 -1 9 -9q-46 -55 -154 -55q-237 0 -398 190q-96 186 -135 285h-5 q0 -36 -113 -113q-59 -13 -77 -13h-40q-172 29 -213 58q-190 154 -190 172q-135 172 -135 303q-46 270 -46 380z" />
<glyph unicode="R" horiz-adv-x="1515" d="M1 862v18q0 106 240 258q119 84 306 185q45 225 54 244l-4 9q0 44 185 140q0 8 32 10q15 -4 27 -28v-45q0 -51 -18 -190q27 0 158 95q137 50 203 50h32q95 0 208 -81q52 -38 86 -217v-91q0 -4 -5 -4l5 -9v-9q0 -5 -5 -5q0 -4 5 -4q0 -89 -82 -281q-142 -208 -217 -208 q-98 -40 -167 -40v-9q95 -32 176 -167q59 -82 59 -163v-73q-37 -144 -126 -307q-35 -62 -68 -99q-41 -87 -41 -118l-9 -54q72 -72 145 -72q40 0 212 104q8 4 18 4q-133 -154 -244 -154h-36q-145 50 -145 91q-32 43 -36 86v27q0 99 105 339q18 82 18 135q0 102 -36 263 q-65 85 -155 149l-22 -5h-186q-54 0 -54 -31q-35 -122 -90 -235q-103 -318 -135 -385q0 -17 -135 -27q-59 15 -59 36q59 214 131 394q76 230 100 411q0 52 54 221q22 48 44 222h-5l-125 -72q-340 -202 -344 -285v-23q0 -22 27 -59h10q85 104 144 104h5q90 -9 90 -58l-4 -18 l4 -23q0 -26 -90 -104l-46 -5h-18q-29 0 -63 23h-4q-23 -61 -23 -104v-13q0 -22 36 -136v-5h-13q-46 31 -68 132v45q0 40 31 108q-72 48 -72 113zM132 767q34 -22 50 -22h32q37 0 76 90v9q0 19 -54 23q-100 -57 -104 -100zM651 699h45q15 0 23 5l27 -5h81q126 64 261 161 q86 77 158 194q79 121 79 283q0 15 -1 31v82q0 44 -54 90q-25 5 -41 5h-54q-212 -35 -212 -86q-36 0 -95 -63q-27 -4 -54 -55q-9 0 -46 -171q-31 -55 -85 -344q-11 0 -32 -117v-10z" />
<glyph unicode="S" horiz-adv-x="1392" d="M8 1563v27q0 33 18 72h9v-68q0 -74 36 -167h5q0 42 95 118q17 9 36 9h40q109 -35 109 -109v-58q-17 -145 -118 -145h-4q-66 0 -118 54v-9q78 -184 235 -258l55 -13v27q0 241 99 375q183 118 222 118q1 9 9 9h4q97 -18 167 -91q46 -55 46 -113q0 -239 -267 -334v-5 q0 -75 167 -230q110 -110 249 -267q87 -93 117 -140q13 0 181 99l19 12l8 -16q0 -6 -35 -40q-10 -27 -87 -73q0 -5 -36 -36v-5q95 -151 95 -321q9 0 9 -45v-113q-17 -64 -24 -90l-8 -32q-20 -84 -79 -136q-44 -40 -72 -40h-32q-191 13 -226 40q-148 77 -160 272v18 q0 68 86 190q30 63 185 176l27 13q0 32 -289 294q-113 71 -262 235q-84 119 -113 208q-109 0 -244 163q-91 137 -91 217q-63 98 -63 208zM94 1396q0 -47 104 -113l27 -5h27q61 0 77 127v40q0 58 -91 82h-36q-40 0 -108 -104v-27zM645 1179q0 -57 27 -136q94 32 145 86 q75 62 95 135q0 5 4 5q-27 158 -58 158q0 9 -55 45q-4 0 -13 -4l-27 4h-14q-86 -115 -86 -189q-13 -38 -18 -77q0 -5 5 -5zM826 -128v-72q1 -86 102 -172q71 -33 95 -36q35 -2 60 -3l21 2q92 10 107 87q17 43 27 65l8 48v72q0 152 -153 344q-204 -164 -204 -208 q-58 -72 -63 -127z" />
<glyph unicode="T" horiz-adv-x="811" d="M-24 693v13q0 135 240 339q99 106 294 213q113 44 113 67q0 19 58 104q0 23 28 32l162 90h27q8 0 18 -31l-36 -104h5q148 72 366 140q161 40 362 217q57 56 131 163h13q14 -3 14 -36q0 -72 -235 -258q-82 -83 -511 -217q-40 -23 -163 -77q-18 -54 -77 -339 q-36 -105 -67 -362q-86 -453 -113 -555l-68 -181q-50 -77 -145 -199q0 -44 -122 -140q-69 -36 -113 -36h-9q-33 0 -36 13v5q120 23 167 72q100 184 100 271q7 18 22 72q0 5 -4 5l4 23v45q1 54 9 54q0 5 -4 5q63 479 77 655q31 192 108 479h-5q-88 -28 -311 -199 q0 -3 -145 -144q-104 -103 -104 -199q15 -140 32 -140v-19q0 -9 -9 -9h-9q-51 0 -64 168z" />
<glyph unicode="U" horiz-adv-x="1352" d="M8 1255q33 144 113 208q59 46 122 46q42 0 117 -9q104 76 195 76h81q118 -23 118 -113q9 0 9 -90v-45q-26 -147 -100 -312q-66 -146 -158 -425q-95 -175 -95 -371v-31q0 -113 131 -154l9 5l23 -5q73 44 122 95q0 4 127 136q76 80 194 583q18 478 36 610q0 27 131 45 q87 41 95 41h5q31 0 31 -59l5 -45l-59 -348q-31 -606 -54 -606q-9 -45 -9 -90v-18q0 -185 -14 -258q6 -27 14 -27q66 124 122 321q22 72 54 72l14 -18q-82 -275 -109 -312q-47 -149 -113 -149q-95 24 -95 63q-54 102 -54 267q0 58 4 131q-4 56 -4 140v18h-5 q-80 -359 -221 -474q-153 -172 -231 -172l-108 -27q-74 0 -172 135q-71 137 -77 213q1 86 9 86l-4 9q0 4 4 4q0 5 -4 5q4 49 9 49l-5 9q4 19 9 19l-4 9q55 211 95 316q0 20 303 588q45 107 45 122v13q-41 9 -59 9h-27q-79 0 -163 -59q100 -41 100 -90v-32q0 -116 -113 -158 l-23 -4q-108 0 -140 86v40q0 84 81 145l-63 4q-133 0 -235 -217h-9zM266 1292q0 -55 108 -64q104 30 104 145v4q0 45 -108 77q-104 -71 -104 -149v-13z" />
<glyph unicode="V" horiz-adv-x="842" d="M8 1337q0 56 271 81h9q34 -9 50 -257q36 -246 36 -308q0 -56 -4 -140l49 -438v-177q0 -36 18 -117q108 194 195 529q71 156 117 312q-149 71 -149 135v5q0 125 68 162l31 9h37q108 -20 108 -85v-19q0 -40 -27 -176h27q94 0 204 140v-9q-62 -172 -204 -172h-32 q-7 -7 -63 -180q-63 -136 -122 -357q-90 -264 -176 -394q-84 -189 -113 -189q-33 0 -59 94q-20 42 -54 199q-11 16 -23 100h5l-18 135h4q-95 463 -95 633q0 54 -86 461zM641 966q0 -44 99 -99l23 -5q22 79 49 149q0 82 -85 82h-32q-45 -24 -45 -68q-8 0 -9 -32v-27z" />
<glyph unicode="W" horiz-adv-x="1330" d="M0 1103q0 151 108 248v5q0 118 73 199q83 50 135 50q102 0 150 -18q7 4 18 4q140 -91 180 -167q-4 -74 -22 -167q0 -5 4 -5q-4 -37 -22 -90q0 -5 4 -5q0 -11 -13 -99v-36q0 -5 -5 -5l5 -9v-23q0 -4 -5 -4l5 -9q0 -5 -5 -5l5 -9q-9 -78 -9 -126v-50l4 -45h-4l4 -9 q0 -5 -4 -5l4 -9v-36q0 -113 -9 -113q0 -5 5 -5q0 -5 -14 -90v-50q0 -61 9 -99h-4q3 -9 9 -50h-5q26 -153 45 -153q74 0 95 67q55 116 95 403q32 243 32 262v81q0 43 -5 104q15 242 27 339q14 0 32 18h9q127 0 127 -81q0 -83 9 -100q-5 -254 -27 -447v-204q0 -4 -5 -4 q5 -9 5 -14q-18 -108 -18 -266v-122q0 -52 13 -86h9q61 77 86 153q68 149 68 254q40 203 63 429q50 184 50 271q70 261 122 312q129 185 253 185h14q63 0 180 -104q18 -41 18 -45l-9 -4q-57 35 -117 81q-54 27 -82 32q-111 0 -248 -204q-97 -225 -100 -379 q-45 -151 -67 -403q-16 -35 -32 -180q-27 -156 -54 -213q-44 -87 -109 -239q-21 -14 -49 -14q-94 0 -113 90q-28 86 -46 281q-4 0 -4 18h-5q-30 -187 -108 -303q-75 -72 -154 -72q-13 0 -31 -5q-163 31 -163 136q-9 30 -14 76h5q-9 29 -9 37h4q0 4 -4 4q-5 106 -5 158v86 q14 71 23 158q0 5 -5 5l5 23v108q0 5 4 5l-4 9v63q0 4 4 4l-4 9q0 5 4 5q0 4 -4 4q13 151 22 199q0 5 -4 5q36 204 45 434q-46 18 -81 18h-77q-68 0 -122 -63q-32 -70 -32 -91v-13q48 18 59 18q117 -10 117 -86q0 -137 -81 -158h-9q-44 0 -122 108q-9 18 -9 27 q-72 -74 -72 -172v-36q0 -95 86 -176q-5 0 -5 -4q-122 40 -122 194zM158 1311q0 -45 91 -104h9q36 31 36 86v36q-18 36 -68 36h-5q-9 0 -63 -23v-31z" />
<glyph unicode="X" horiz-adv-x="1159" d="M0 1167v5q0 98 50 144v32q0 106 90 176q74 109 204 109q67 -20 103 -77q45 -81 77 -344q0 -23 5 -40h-5l5 -9v-41l4 -23h-4l4 -9v-13q9 -100 9 -104q232 381 339 547q49 63 55 63h9q6 0 13 -13v-5q0 -11 -90 -145q-291 -481 -321 -524q17 -137 27 -352q0 -81 68 -290 q45 -239 113 -239q10 -13 77 -18q80 0 212 289q32 96 140 217q9 -1 9 -9q0 -14 -36 -68q0 -33 -50 -95q-4 -29 -140 -303q-42 -66 -171 -108q-31 -5 -50 -5h-9q-130 0 -208 104q-95 91 -145 326q-27 81 -27 208q-87 -155 -212 -308h-9v5q48 94 212 370q-27 137 -41 434 q-8 0 -9 55v58q0 123 -40 330q-13 32 -59 32q-113 -93 -113 -154q-5 0 -5 -27v-13l9 4h77q73 -9 73 -72v-32q-6 -59 -46 -59h-4q-80 0 -136 100q-38 -99 -49 -109h-5zM86 1298q0 -48 86 -90h22q14 4 14 27v32q0 40 -45 40h-55l-22 -4v-5z" />
<glyph unicode="Y" horiz-adv-x="1561" d="M0 1235v5q68 198 190 198h27q94 123 185 123q14 4 55 4h4q131 -19 131 -45q95 -52 95 -140v-50q-95 -409 -104 -470v-185q23 -290 63 -290l55 -31q61 0 257 167q139 149 149 217q145 226 145 619q5 0 5 86q-9 0 -9 9v14q0 12 153 76q42 9 73 9q9 -14 9 -22q0 -9 -5 -9 l5 -23q-23 -850 -68 -1139q92 52 144 122h23q9 -1 9 -9v-4q0 -26 -90 -100q-7 -34 -91 -81v-68q0 -246 -117 -418q-9 0 -86 -140q-113 -91 -190 -91l-54 -18h-77q-200 0 -285 131q-18 45 -18 64v54q0 67 136 151q78 57 176 100q60 52 230 113l86 41v67q0 104 27 502 q-4 24 -4 45v45h-5q-75 -203 -198 -352q-230 -217 -353 -217q-208 17 -208 36q-41 0 -90 145q-50 188 -50 257v27q0 143 68 326q36 130 59 244q49 116 49 136q-25 29 -72 31h-81q-49 -30 -91 -72q95 -66 95 -122v-27q0 -75 -99 -104h-9q-64 0 -95 36v63q0 84 36 131h-5 q-74 0 -176 -167h-9zM194 1235q0 -32 59 -32h5q63 26 63 73v31q0 31 -77 86h-9q-41 -56 -41 -131v-27zM646 -209v-41q0 -72 122 -113q63 0 195 50q59 69 59 77q103 128 149 228l31 145q-180 -74 -248 -113q-24 -26 -127 -68q-181 -93 -181 -165z" />
<glyph unicode="Z" horiz-adv-x="974" d="M-23 1259q0 68 100 157q107 54 172 54q38 9 99 9h118q195 -13 248 -13v-5l9 5h36q309 0 430 57q22 0 135 54h9l18 -22v-5q-123 -176 -280 -350q0 -23 -131 -148q-95 -107 -217 -293q58 -18 86 -18h45q74 0 172 73h9v-5q-69 -108 -203 -108q-47 0 -131 22 q-44 -46 -104 -189q-190 -322 -226 -548h86l298 -98q149 -27 303 -27h9q109 8 217 85q108 81 171 117q9 -2 9 -9q-46 -74 -162 -157q-70 -57 -158 -72q-22 -14 -82 -18q-303 0 -565 116h-81q-121 -30 -244 -53q-45 -32 -82 -32q-22 5 -22 37q21 226 87 314q0 32 104 175 l107 213q102 188 109 212h-46q-189 0 -275 -64h-14q-9 0 -9 14q62 81 276 86h86q13 17 141 195q13 8 224 268q127 131 127 137q-177 -9 -298 -9q-190 18 -235 18h-122q-139 0 -203 -41q-59 -17 -104 -108q-5 -24 -5 -40v-45q28 -90 149 -90q27 -3 27 -14q-14 -9 -27 -9h-45 q-94 0 -136 99v59z" />
<glyph unicode="[" horiz-adv-x="439" d="M61 1796q0 31 32 31q79 -18 104 -18q40 0 212 36q23 -6 23 -31q0 -26 -186 -59v-5q68 -321 68 -538q-9 -164 -9 -230v-280q-50 -566 -50 -742q0 -74 -9 -135q68 4 100 4h59q99 0 99 -36v-4q-9 -23 -27 -23q-83 9 -122 9l-253 -22q-27 9 -27 36q0 147 4 406h5l-5 10v58 q0 36 14 344q-9 144 -9 253q0 159 13 371q-4 31 -4 54q0 276 -32 511z" />
<glyph unicode="\" horiz-adv-x="703" d="M-147 1582q0 8 9 9q75 0 113 -27h63q52 -14 55 -14q80 -113 104 -135q101 -170 189 -280q103 -150 217 -394q82 -129 82 -144q230 -309 230 -357q50 -78 50 -95v-9q-26 -50 -50 -50q-23 0 -158 149q-44 59 -50 59q-48 76 -140 167q-117 142 -262 457q-65 97 -126 212 q-102 148 -123 163q-200 252 -203 289z" />
<glyph unicode="]" horiz-adv-x="439" d="M61 -238q0 36 99 36h59q32 0 100 -5q-9 61 -9 136q0 175 -50 741v280q0 66 -9 231q0 217 68 538v4q-186 33 -186 59q0 25 23 32q172 -37 212 -37q25 0 104 19q32 0 32 -32q-32 -235 -32 -511q0 -22 -4 -54q13 -211 13 -371q0 -108 -9 -253q14 -307 14 -343v-59l-5 -9h5 q4 -260 4 -407q0 -27 -27 -36l-253 22q-39 0 -122 -9q-18 0 -27 23v5z" />
<glyph unicode="^" horiz-adv-x="804" d="M16 696q0 11 77 122q106 175 257 457l23 18h23q118 -118 226 -290q167 -187 167 -239q-5 -23 -36 -23q-14 1 -55 82q-161 187 -257 343q-6 0 -27 -99q-50 -136 -68 -217l-91 -177q-22 -9 -36 -9q-163 0 -163 23q-14 -9 -27 -9z" />
<glyph unicode="_" horiz-adv-x="1094" d="M33 182q0 30 280 54q0 8 245 9q230 0 426 -27q92 -19 92 -104v-36q0 -45 -134 -45h-265q-157 -9 -169 -9h-223q-204 0 -204 40q-11 72 -48 118z" />
<glyph unicode="`" horiz-adv-x="402" d="M62 1340v104q2 9 23 18l9 -4q8 4 18 4h13q226 -231 245 -244v-13q-4 -14 -28 -14q-74 25 -81 32q-175 91 -199 117z" />
<glyph unicode="a" d="M-8 389v54q36 291 77 366q4 0 45 100q66 76 122 76h54q26 0 118 -86q59 -91 59 -103h4q45 129 45 167q77 54 159 54q6 0 18 -18q-86 -272 -86 -402q-50 -164 -50 -335h5q46 0 131 136q21 48 49 63h9q9 -1 9 -9v-5q0 -28 -72 -113q-80 -117 -140 -117h-9q-76 76 -90 154 q-14 0 -18 176q0 10 22 108v5h-4q-55 -131 -82 -231q-78 -212 -153 -212q-163 2 -222 172zM164 411q0 -45 54 -95h14q26 11 72 82q24 0 77 181q36 73 59 162q-19 91 -100 163h-4q-35 -18 -109 -163q-26 0 -63 -307v-23z" />
<glyph unicode="b" horiz-adv-x="626" d="M-31 445q0 247 50 543q33 137 130 500q24 31 68 122q9 1 50 82q8 10 118 79q39 40 95 40h5q51 0 72 -63v-41q-36 -185 -68 -307q-121 -406 -251 -668q-58 -125 -74 -222q-9 -42 -9 -61v-131q38 -119 79 -119q19 -9 63 -18h73q30 0 76 54v5q-58 0 -167 149q-27 52 -27 77 v9q0 270 59 325q61 136 95 136h18q84 0 135 -222q14 -55 14 -122v-81q0 -80 -23 -163h5q22 9 50 90l45 50h9q-56 -239 -127 -239q-18 -11 -77 -86q-58 -32 -81 -32h-81q-20 0 -52 3l-25 6q-130 22 -206 120q-11 0 -31 113v63q0 9 -10 9zM220 818h5q255 623 255 772l13 86v18 l-13 29l-14 3q-126 -155 -144 -330q-93 -452 -93 -560q-4 0 -9 -13v-5zM379 741q0 -237 122 -357h4q14 75 14 131v95q0 154 -86 276h-5q-49 -51 -49 -145z" />
<glyph unicode="c" horiz-adv-x="549" d="M-15 431q29 158 104 329q0 13 59 136q99 100 154 100h36q53 0 77 -91v-63q0 -35 -18 -41q-7 9 -14 91h-9q-79 -54 -113 -159l-45 -217v-76q-9 -66 -9 -73v-72q28 -32 68 -32q189 107 262 199q14 9 22 9l5 -9q-39 -83 -208 -190q-102 -67 -190 -67h-27q-52 0 -122 58 q-14 35 -32 168z" />
<glyph unicode="d" horiz-adv-x="688" d="M-8 417v95q43 263 90 343l86 136q55 45 86 45h5q95 0 239 -86h5q50 223 63 321q0 70 81 330q3 18 14 18h18q140 -9 140 -104q-31 -119 -81 -375q-44 -94 -81 -470q-59 -230 -59 -307v-14q-9 -13 -14 -31h9q74 136 95 153h9q9 0 9 -13q-100 -190 -135 -190q-5 0 -14 -5 q-44 0 -59 86v9q0 69 -9 434v9h-4q-50 -190 -50 -194q-11 -6 -36 -113q-20 -36 -45 -122q-78 -137 -159 -163h-49q-77 0 -136 136q0 14 -18 72zM177 444q5 -108 37 -131h31q41 47 73 127q56 137 67 189q35 64 91 249q-6 21 -45 59h-59q-44 0 -95 -64q-41 -76 -77 -320 q-11 0 -23 -95v-14z" />
<glyph unicode="e" horiz-adv-x="688" d="M-9 449q0 210 77 339q12 50 181 198q56 19 85 19q89 -68 116 -95q13 -17 13 -41v-5q0 -53 -110 -217q-45 -28 -141 -131v-67q0 -159 104 -159q76 3 177 68q116 62 126 73q0 4 64 49h13q7 0 14 -13v-14q-92 -81 -181 -117q-16 -18 -145 -91q-86 -36 -190 -36 q-49 0 -153 95q-50 88 -50 145zM226 593q98 95 129 163q63 82 68 117q-23 28 -57 82q-63 -56 -86 -127q-25 -25 -54 -221v-14z" />
<glyph unicode="f" horiz-adv-x="355" d="M-557 -257q81 -108 136 -108h22q173 0 240 131q27 62 86 339q27 43 81 357q36 251 131 597v22q-118 -38 -267 -153l-90 -104q-45 -61 -72 -154h-23q-9 0 -9 9v18q20 99 140 235q159 144 339 199q0 53 95 330q67 124 77 131q46 45 68 45h40l91 -49q22 -26 22 -46l-9 -4h-9 q-59 50 -104 50q-83 -318 -86 -403h5l154 46q272 85 379 153q174 86 258 290l13 9h10q9 -2 9 -9v-14q-47 -158 -159 -244q-80 -62 -244 -136q-184 -77 -361 -117q-68 -19 -68 -41q-32 -272 -86 -610q0 -46 -59 -312q-31 -99 -72 -190q-29 -55 -50 -108q-38 -102 -144 -231 q-76 -54 -199 -77l-32 5q-45 -9 -81 -9h-23q-107 0 -149 153z" />
<glyph unicode="g" horiz-adv-x="842" d="M0 416v13q0 382 76 480q66 83 90 94h51q17 0 46 -4q8 4 13 4q28 0 100 -126q26 -49 26 -60h5v145q0 30 54 36q55 34 144 34q17 -23 17 -32q0 -186 -46 -560v-186q104 104 192 181q76 46 76 54q19 18 29 18v-4q0 -28 -46 -68q0 -8 -117 -99q0 -7 -134 -141 q-16 -218 -51 -289q-23 -164 -36 -225q0 -27 -83 -104q-46 -48 -79 -48h-26q-89 27 -89 50q-20 0 -29 45q0 124 173 317q7 59 21 85v104q0 12 8 27q5 275 13 407v4h-4q-135 -328 -252 -328h-24q-82 0 -118 176zM163 479q0 -96 60 -117q47 35 47 40q60 76 136 261v41l-5 45 l9 5q-47 106 -105 145h-44q-98 -126 -98 -415v-5zM225 -381l26 -13q77 13 108 45q8 77 18 280v23q-48 -95 -105 -175q-47 -85 -47 -160z" />
<glyph unicode="h" horiz-adv-x="742" d="M-46 176l30 216q2 114 26 289q5 0 5 14v14q18 129 31 393l61 577q-4 8 -4 18q46 40 199 181q34 9 45 9l9 -13v-41q-60 -261 -84 -654q-36 -87 -54 -412q-18 -176 -41 -235v-4h5q73 167 167 280q41 37 95 59h54q50 -34 50 -113v-5q0 -107 -27 -248q0 -25 -68 -475v-27h5 q54 38 117 154q58 125 122 248q39 85 59 91q9 -2 9 -9v-5q-18 -69 -95 -208l-81 -190q-79 -147 -154 -239q-27 -18 -41 -18h-22q-78 0 -109 81v41q82 527 82 673q-9 52 -9 72v19h-14q-27 -16 -117 -222q-65 -134 -109 -302h-64q-14 0 -78 -9z" />
<glyph unicode="i" horiz-adv-x="317" d="M-32 396q0 16 38 257q28 175 56 219q0 11 20 69q4 32 19 32q20 0 120 4q46 -5 46 -18v-13q0 -33 -59 -266q-58 -222 -64 -361l13 -32q24 0 128 176q21 45 31 45h9q9 -1 9 -9v-9q-35 -109 -136 -226q-44 -85 -103 -85h-18q-109 0 -109 217zM162 1139q0 27 45 149 q47 5 54 5q79 -12 85 -29v-18q-30 -118 -45 -122h-23q-12 6 -31 6h-76q-9 0 -9 9z" />
<glyph unicode="j" horiz-adv-x="440" d="M-363 -92q24 108 122 195q135 158 166 160q37 56 131 421q39 228 104 375q5 0 14 4q41 -8 41 -13l31 4q107 -8 107 -35v-9q-46 -91 -120 -646h4q182 117 222 117l13 -18v-4q0 -10 -158 -100q-119 -81 -120 -100q0 -44 -89 -232q-67 -114 -111 -168q-9 0 -40 -54 q-101 -100 -163 -100h-23q-131 25 -131 190v13zM-308 -96q0 -114 72 -145h13q121 357 121 423q-192 -185 -197 -255q-8 0 -9 -23zM197 1222q0 35 36 122q4 36 18 36h13q26 0 64 -27q69 0 81 -68v-9q0 -77 -68 -77q0 -5 -9 -5q-88 9 -122 9z" />
<glyph unicode="k" horiz-adv-x="595" d="M-132 -19q27 83 68 253q11 9 18 9v9q0 67 63 271q35 131 54 280l59 299q32 160 41 348q37 190 58 190h18q51 0 132 4q36 -9 36 -31q0 -110 -86 -602q-45 -260 -86 -406v-5q168 157 199 231q29 37 81 198l23 14h4q8 0 14 -23q0 -66 -91 -248q-84 -110 -180 -195 q4 -9 4 -13q21 9 59 9h23q61 0 131 -109q17 -41 22 -117q-13 -78 -95 -289q-99 -258 -99 -335v-27q0 -52 90 -90h55q110 0 329 253l50 22v-4q-91 -141 -244 -276q-107 -50 -140 -50q-136 0 -185 109q-9 18 -9 50q0 101 104 366q90 243 90 266v28q0 99 -86 144q-15 9 -27 9 h-14q-33 0 -140 -36q-61 -288 -113 -348q-40 -123 -58 -158q-15 -5 -159 -14q0 7 -13 14z" />
<glyph unicode="l" horiz-adv-x="494" d="M-38 90v104q0 180 94 606q99 376 156 582q26 66 136 154q33 45 95 45q17 -18 63 -36q45 -43 45 -104q0 -149 -131 -443q-35 -106 -135 -253q-82 -109 -82 -213q-27 -97 -36 -294q-8 -26 -22 -144q29 0 114 86q150 174 203 272q21 36 27 36h14q7 0 13 -13v-5 q-41 -98 -104 -181q-126 -171 -230 -274q-51 -69 -112 -69q-108 22 -108 144zM231 767q135 187 135 244q131 274 131 434q0 38 -27 59h-4q-68 -94 -132 -285q-76 -231 -103 -452z" />
<glyph unicode="m" horiz-adv-x="847" d="M-70 214q0 185 59 424q63 289 77 330q24 0 102 47q18 9 27 9q28 -9 28 -36v-37q-50 -218 -50 -379v-9h4q150 308 313 387q68 0 68 -95v-13q0 -53 -54 -280v-5h4q46 68 95 68q58 0 73 -122v-154q0 -12 -9 -158v-14h4l41 68q97 174 145 222l9 4h9v-4q-47 -91 -122 -213 q-99 -249 -127 -275q-7 0 -18 -10h-41q-59 0 -59 64v72q28 276 55 429v14q-51 -53 -122 -240q-38 -126 -118 -126q-59 0 -59 50v13l68 244q23 56 77 330v9h-4q-102 -119 -173 -265q-67 -87 -133 -267q-45 -140 -67 -140q-8 -5 -23 -5h-4q0 8 -16 22l-9 -5q-50 9 -50 46z" />
<glyph unicode="n" horiz-adv-x="699" d="M-71 290q1 55 60 321q12 265 21 295q108 69 152 104l38 -3q36 0 36 -45v-18q-63 -292 -64 -311l-2 -13l9 4q213 266 245 292l22 5h41q49 0 86 -104q0 -38 4 -136q0 -40 -1 -62q-48 -103 -108 -605h4q40 21 118 170q36 77 99 294l18 18h18q7 0 14 -18q-63 -205 -104 -312 q-43 -123 -124 -193q-21 -31 -100 -94l-55 10q-35 18 -75 95q9 71 21 166q20 122 66 338q56 165 56 279q-9 36 -18 36h-5l-233 -238l-37 -225q-27 -50 -56 -50h-9q-2 -4 -11 -4h-18q-36 0 -95 -5q-13 5 -13 9z" />
<glyph unicode="o" horiz-adv-x="718" d="M-8 460v15q0 5 6 5q0 6 -6 6q26 206 97 363q74 137 134 189l36 21q101 -26 148 -103q10 -35 20 -35q36 35 87 35q52 0 77 -132q0 -183 -87 -415q-5 -8 -5 -32q0 -36 92 -40h6q63 55 117 149h10q10 0 10 -16q-21 -89 -87 -159q-57 -53 -91 -56h-22q-85 15 -97 25 q-65 -89 -168 -112l-31 -5q-182 0 -240 210q-6 39 -6 87zM182 469q17 -158 41 -188q0 -8 15 -29v-5l11 -10l10 -5q59 8 127 89q-87 110 -87 175q-14 44 -14 86q0 95 40 226l61 67q-26 66 -40 66q-85 -70 -131 -222q-33 -149 -33 -189v-61zM415 634q10 -75 10 -83l11 -44 l17 -32h5q66 165 66 359q-12 56 -25 56q-62 -41 -84 -159v-97z" />
<glyph unicode="p" horiz-adv-x="633" d="M-255 -232q1 9 9 9h13q27 -15 59 -95q20 -18 23 -18h9q27 57 76 276q43 149 55 289v37q8 110 26 294q0 54 23 334l-4 27l9 4l-5 10q12 31 55 31h45q10 0 18 -4q15 9 27 9h14q27 0 27 -118q75 95 149 95h32q126 0 176 -230q9 -87 9 -122v-46q0 -38 -41 -199 q-51 -221 -113 -221q0 -15 -59 -36h-49q-110 31 -154 99h-4q-41 -280 -100 -411q-32 -112 -45 -140q-42 -68 -81 -68v-5q-134 0 -195 177q-4 0 -4 4v18zM174 279q0 -17 72 -45h5q145 0 163 190q40 185 40 275v68q0 131 -31 131h-46q-76 0 -162 -149l4 -9q-8 -76 -18 -244 q-16 -45 -27 -217z" />
<glyph unicode="q" d="M-8 606q18 115 81 235q141 167 217 167h14q59 -3 59 -18q-5 0 -5 -5q49 0 145 -189h4l64 212q20 14 40 14l9 -5q41 9 109 9h4q7 0 14 -14v-9q0 -10 -5 -18q5 -8 5 -18v-4q0 -5 -5 -5l5 -9v-4q0 -49 -54 -208q-40 -125 -55 -249q-40 -100 -54 -303l-22 -203q32 -6 90 -63 q31 -34 50 -104v-9q0 -190 -68 -235q-14 -28 -63 -28q-76 0 -150 127q-9 11 -13 72q9 101 9 181q-78 -44 -172 -181q0 -26 -45 -72h-5v5q0 124 132 257q57 49 90 54v113q0 204 27 367v4h-4q-41 -76 -68 -199q-6 0 -32 -59q-58 -31 -99 -31q-155 0 -235 149v9q0 62 -14 267z M182 479q33 -154 81 -154q0 -9 50 -9q77 104 149 290q14 74 32 122q-114 235 -176 235q-76 -60 -95 -140q0 -15 -18 -68v-18q-23 -233 -23 -258zM507 -289v-9q0 -86 68 -109h9q50 60 50 77l9 81v14q0 114 -68 145q0 4 -18 13h-9q0 -59 -36 -167z" />
<glyph unicode="r" horiz-adv-x="618" d="M-23 737q0 82 91 190q79 45 117 45q41 -6 41 -41v-32q-23 -157 -72 -239q91 -72 153 -72q51 9 68 9q77 -13 77 -27v-10q0 -20 -90 -325q-41 -134 -41 -181h9q88 67 149 190q45 44 113 213q11 35 27 40h9q7 0 14 -13v-9q0 -35 -82 -190q0 -10 -76 -118q0 -17 -91 -131 q-27 -31 -49 -31h-14q0 -25 -50 -28q-69 0 -126 104l-5 27v14q0 165 72 312q0 8 10 23h-28q-81 0 -122 49h-4q-74 -63 -86 -63l-9 14q0 32 63 67q-68 64 -68 213zM81 832q4 -145 41 -145h5q58 150 58 235v5h-4q-69 0 -100 -86v-9z" />
<glyph unicode="s" horiz-adv-x="664" d="M-3 511v45q71 221 131 221q2 12 63 19q89 0 122 -77q5 -25 5 -41v-14q0 -6 -14 -13h-5q-4 0 -22 63q-35 36 -54 36h-59q-59 -43 -59 -86v-49q0 -71 271 -217q25 -10 64 -41l92 35q88 44 149 80q18 -15 18 -22l-11 -9q-9 -10 -86 -61q-87 -56 -108 -73v-4q57 -74 113 -231 q22 -74 22 -126v-14q0 -109 -140 -212q-93 -36 -167 -36q-110 0 -181 135q-9 36 -9 45v77q5 114 109 262q0 5 -5 5q-53 13 -154 113q-85 112 -85 190zM195 -68v-31q0 -120 113 -150h50q140 55 140 154q5 0 5 9q-5 9 -5 14h5l-5 9q0 4 5 4l-5 9q0 5 5 5l-5 9q0 4 5 4 q0 86 -204 199q-104 -139 -104 -235z" />
<glyph unicode="t" horiz-adv-x="277" d="M-342 1089q0 69 217 163q100 33 239 50l50 221h18q4 0 4 -4q52 17 132 81l31 9h14q7 0 18 -22q-77 -234 -77 -254h4q112 26 254 73q206 56 348 135q236 165 304 292q18 97 27 99q16 0 18 -86q0 -73 -182 -228q-206 -182 -484 -244q-159 -54 -294 -86q-22 -31 -122 -488 q0 -41 -49 -276q-18 -69 -18 -226q1 -9 9 -9h18q53 33 117 136q14 28 41 50h4v-18q-52 -169 -167 -231l-72 -9q-95 0 -95 77q0 11 -5 122q0 83 32 226q0 20 14 59v18q35 321 72 443q12 22 23 99h-5q-201 -16 -348 -108q-45 -38 -77 -77q-7 0 -13 13z" />
<glyph unicode="u" horiz-adv-x="765" d="M-17 446q0 5 5 5l-5 9q0 4 5 4l-5 9q18 120 18 210v49q0 5 5 5q0 4 -5 4q5 45 9 45q0 5 -4 5l4 18l13 83q0 21 23 88q0 6 118 47h27q6 0 23 -22v-82q-22 -73 -22 -255v-36l-4 -27q0 -5 4 -5q-9 -47 -13 -122q0 -136 54 -136h13q72 16 139 145q32 275 43 322q-4 9 -4 14 q10 31 36 31q12 21 82 50q40 5 46 5q27 -11 27 -32q-5 -9 -5 -14l9 -4q-7 -122 -62 -326q-7 -159 -7 -195q0 -167 10 -211q0 -7 23 -38q19 3 84 177q81 239 104 239h13q14 -15 14 -22q-77 -214 -145 -380q-24 -72 -77 -72q-40 25 -87 81q-108 159 -108 267h-5 q-38 -45 -166 -136l-25 -15l-36 9q-96 10 -133 53q-33 68 -33 156z" />
<glyph unicode="v" horiz-adv-x="581" d="M-60 713q31 23 45 23l52 -7q66 9 68 9q31 0 36 -149q27 -134 95 -317q9 -21 27 -99q60 147 73 185q-26 8 -32 109q14 110 45 149q26 22 45 22h18q64 0 73 -76q0 -101 -77 -199h63q45 33 95 113q36 19 36 27h9q0 -63 -108 -176q-17 -9 -36 -9h-64l-22 4q-32 -67 -110 -226 q-30 -67 -107 -127h-9q-28 0 -41 73q-151 499 -151 572q-13 20 -23 99zM363 403q63 68 63 168v9l-23 4q-40 -13 -40 -149v-32z" />
<glyph unicode="w" horiz-adv-x="896" d="M0 400q10 112 23 185q13 53 31 199q5 61 45 204q14 31 64 31q35 5 77 5h18q18 -9 18 -27q0 -42 -36 -263q0 -44 -41 -298v-108q0 -46 45 -77h23q29 0 54 167v68q13 220 41 235q1 9 31 13h5q70 -11 99 -14l9 -23q-9 -50 -54 -340q28 -209 60 -278l42 -10q47 20 90 106 q-59 89 -59 149v73q40 244 109 244h4q64 -6 64 -55v-67q0 -69 -32 -204h14q40 0 117 149q10 0 54 59h9q9 0 9 -13q-102 -274 -171 -321q-20 -32 -77 -45q-47 -136 -99 -156l-90 -14q-102 7 -166 254q-8 0 -59 -81q-46 -27 -59 -27h-31q-76 0 -136 95q-45 104 -45 185z M659 428l9 -83l33 61q14 57 21 131l-15 54h-4q-14 -50 -44 -163z" />
<glyph unicode="x" horiz-adv-x="533" d="M-225 959v23q68 77 199 77q99 -15 221 -145q29 -37 86 -140q83 156 109 217l9 5h13q9 -2 9 -10v-13q0 -33 -122 -253q104 -237 141 -303q105 -118 167 -118q40 -12 40 -18q-133 -49 -212 -49q-116 0 -203 171q-46 98 -46 127q-27 -22 -140 -181h-4v5q0 52 126 230v5 q-91 290 -253 393l-49 14q-36 -12 -64 -46h-18q-9 0 -9 9z" />
<glyph unicode="y" horiz-adv-x="772" d="M0 408q0 116 18 393v50q0 25 14 72q-5 9 -5 14q51 59 131 108h32q18 -7 18 -31v-23q-14 -171 -14 -235v-18q0 -23 9 -231v-76q0 -123 55 -141l63 -9q58 83 77 249q18 131 81 366h-4q-7 0 -14 14v9q0 21 185 54q23 -7 23 -32q-9 0 -18 -90v-217q0 -16 4 -41l-4 -9l4 -22 l-4 -9l4 -23l-4 -9l4 -23q-4 -9 -4 -13q0 -5 4 -5l-4 -22v-86q115 113 140 113q18 -9 18 -23q0 -5 -95 -95q-41 -49 -63 -72l4 -9v-213q0 -139 -104 -316q-59 -154 -135 -154q-59 -36 -167 -36h-9q-76 0 -91 104v36q32 111 289 425q59 54 59 59v36q-18 153 -18 240v185h-4 q-23 -72 -46 -262q-24 -97 -113 -190q-13 0 -90 -27h-41q-107 24 -140 77q-45 88 -45 158zM203 -302q11 -72 32 -72h18q69 0 127 23l17 24q26 37 46 170q33 80 54 235v32q-72 -74 -153 -195q-132 -172 -141 -217z" />
<glyph unicode="z" horiz-adv-x="827" d="M-16 427q11 32 18 32l-4 9v4q0 21 58 73q0 14 123 144q9 0 90 68q10 0 36 23q48 40 312 40l99 23h9q7 0 19 -18q0 -16 -113 -176q-29 -15 -86 -118l-109 -140h9q25 0 95 41h18v-9q-35 -68 -108 -68h-32q-44 -50 -163 -258q46 5 68 5h41q102 -9 108 -9h59q111 27 271 357 q13 0 50 40q9 -1 9 -9v-4q-35 -121 -163 -312q-106 -122 -149 -122h-59q-52 0 -135 13h-27q-103 0 -131 -58q-42 -18 -59 -18h-23q-7 0 -13 13v14q44 193 86 253q31 65 31 77h-4q-64 -50 -77 -50h-5q-10 0 -13 23q61 56 126 81q102 211 168 258q0 12 113 126h-68 q-88 0 -163 -59q-11 0 -90 -67q-9 0 -104 -113q-92 -118 -113 -118z" />
<glyph unicode="{" horiz-adv-x="502" d="M8 758v5q0 28 54 45q113 85 113 185q5 17 5 50v108q0 28 -50 303q-5 29 -5 64v9q0 114 46 176q19 56 99 113q10 0 59 18q46 -5 72 -5h50q9 -1 9 -9v-9q-7 -22 -59 -22h-54q0 -18 -27 -59q-14 -37 -27 -50q4 -23 4 -27q-9 -66 -9 -99v-91q50 -222 50 -298v-63 q-14 -154 -41 -217t-72 -109q64 -32 104 -153q0 -14 13 -64v-122q0 -112 -4 -235q0 -181 63 -266q24 -31 86 -59q70 50 77 50q4 0 4 -5q0 -72 -99 -99h-32q-145 0 -235 203q-16 102 -31 407l4 9q-33 285 -104 285q-56 18 -63 31z" />
<glyph unicode="|" horiz-adv-x="309" d="M61 1433v57q0 97 69 97h7q33 0 62 -187h-6q6 -10 6 -15q44 -462 44 -612v-115q0 -52 19 -201v-216q0 -10 -7 -20q7 -9 7 -13q0 -6 -7 -6l7 -23v-63q0 -81 -63 -81q-62 0 -62 96h5l-5 9v10q0 5 5 5q-5 9 -5 15l5 9l-5 10q5 9 5 13l-5 10l5 9q-5 11 -5 15l5 9q-5 9 -5 19h5 q-5 11 -5 15l5 10q-5 8 -5 19h5l-5 10v91q-32 166 -44 584z" />
<glyph unicode="}" horiz-adv-x="487" d="M-85 -86q0 5 5 5q7 0 77 -50q62 28 85 59q64 86 64 266q-5 124 -5 235v122q14 50 14 64q39 121 104 153q-45 46 -73 109q-27 63 -40 217v63q0 76 49 298v91q0 33 -9 99q0 4 5 27q-14 13 -27 50q-27 41 -27 59h-55q-51 0 -58 22v10q0 7 9 9h49q26 0 73 4q48 -18 59 -18 q80 -56 99 -113q45 -62 45 -176v-9q0 -35 -4 -64q-50 -275 -50 -302v-109q0 -33 4 -50q0 -100 113 -185q55 -17 55 -45v-5q-7 -13 -64 -31q-71 0 -104 -285l5 -9q-16 -305 -32 -407q-89 -203 -235 -203h-31q-100 27 -100 99z" />
<glyph unicode="~" horiz-adv-x="788" d="M93 681v12q0 60 95 133q0 51 177 111h40q30 0 211 -161q27 -16 94 -28q14 0 139 84h11l6 -12v-17q-59 -200 -189 -200q-87 8 -179 67q-57 59 -133 162q-9 5 -23 5h-15q-69 0 -229 -167z" />
<glyph unicode="&#xa1;" horiz-adv-x="270" d="M0 -32l36 448q44 343 72 343h9q40 -13 91 -13h4q18 -8 18 -32v-294q-18 -186 -18 -230q0 -60 9 -127q-13 -50 -31 -474v-19l-5 -9q-38 5 -58 5q-52 -18 -91 -18h-18q-7 0 -18 18v402zM72 1021v50q0 86 36 86h82q45 0 45 -72v-18q0 -20 -5 -50q5 -8 5 -23q-16 -13 -54 -13 h-73q-36 0 -36 40z" />
<glyph unicode="&#xad;" d="M129 593q0 30 123 51q0 8 108 9q102 0 189 -26q40 -18 40 -97v-35q0 -42 -58 -42h-117q-70 -9 -75 -9h-99q-90 0 -90 39q-5 66 -21 110z" />
<glyph unicode="&#xb4;" horiz-adv-x="448" d="M62 1205v13q18 13 244 244h14q10 0 18 -4l9 4q20 -9 23 -18v-104q-24 -26 -199 -117q-7 -7 -82 -32q-23 0 -27 14z" />
<glyph unicode="&#xb8;" horiz-adv-x="301" d="M101 -26q3 27 13 27h5q13 0 18 -54q82 -22 108 -63q27 -38 27 -86v-5q0 -53 -95 -63q-54 0 -54 45q5 0 5 5q9 -5 13 -5q54 0 73 32q0 63 -64 81q-31 0 -49 68v18z" />
<glyph unicode="&#xbf;" horiz-adv-x="710" d="M0 -27q0 95 108 208q21 38 73 81q131 156 131 276q9 0 40 217q7 40 32 40q95 -9 95 -27q-28 -410 -68 -492q-8 -70 -172 -267q-49 -35 -49 -90q0 -110 149 -213q81 -27 95 -27h36q113 0 221 163v9q0 151 -72 221q-32 40 -32 54q0 7 14 14h13q109 -114 109 -194 q9 -24 9 -95v-9q-34 -104 -172 -181q-33 -27 -117 -27h-68q-199 51 -321 167q-54 89 -54 172zM298 1080v45q9 23 27 32l54 -5h73q25 0 36 -22v-109q-19 -58 -59 -58h-4q-122 18 -122 63q-5 24 -5 54z" />
<glyph unicode="&#xc0;" horiz-adv-x="1293" d="M0 418v54q0 169 59 565q36 113 117 312q79 174 181 262q69 59 131 59q241 0 294 -77q149 -166 149 -190h5q1 59 104 235q17 14 31 14q145 -38 145 -90v-14q0 -163 -72 -551q-9 -61 -9 -131v-136q-10 -162 -10 -181v-126q0 -82 -4 -222q4 -9 4 -13h5q50 0 72 54 q20 0 95 230l9 5q9 -23 9 -36q-112 -366 -180 -366q-25 -14 -50 -14q-95 0 -131 90q-32 99 -32 204v90q43 805 72 805l14 126v5h-5q-27 -113 -94 -276q-73 -285 -159 -506l5 -9q-32 -83 -59 -208q-91 -243 -303 -344l-27 -4h-72q-66 0 -181 77q-113 140 -113 307zM298 423 q10 -208 73 -208q0 -5 13 -5h5q27 0 131 59q1 24 68 77q40 83 81 212q84 197 158 493q54 147 54 212v32q0 19 -4 50q4 13 9 13q-14 22 -36 86q-60 63 -118 77q-181 -43 -262 -145q-104 -164 -117 -393q-32 -173 -32 -253v-27q0 -5 -5 -5q0 -4 5 -4q-23 -111 -23 -217v-54z M646 1819v104q2 9 23 18l9 -4q8 4 18 4h13q226 -231 245 -244v-13q-4 -14 -28 -14q-74 25 -81 32q-175 91 -199 117z" />
<glyph unicode="&#xc1;" horiz-adv-x="1293" d="M0 418v54q0 169 59 565q36 113 117 312q79 174 181 262q69 59 131 59q241 0 294 -77q149 -166 149 -190h5q1 59 104 235q17 14 31 14q145 -38 145 -90v-14q0 -163 -72 -551q-9 -61 -9 -131v-136q-10 -162 -10 -181v-126q0 -82 -4 -222q4 -9 4 -13h5q50 0 72 54 q20 0 95 230l9 5q9 -23 9 -36q-112 -366 -180 -366q-25 -14 -50 -14q-95 0 -131 90q-32 99 -32 204v90q43 805 72 805l14 126v5h-5q-27 -113 -94 -276q-73 -285 -159 -506l5 -9q-32 -83 -59 -208q-91 -243 -303 -344l-27 -4h-72q-66 0 -181 77q-113 140 -113 307zM298 423 q10 -208 73 -208q0 -5 13 -5h5q27 0 131 59q1 24 68 77q40 83 81 212q84 197 158 493q54 147 54 212v32q0 19 -4 50q4 13 9 13q-14 22 -36 86q-60 63 -118 77q-181 -43 -262 -145q-104 -164 -117 -393q-32 -173 -32 -253v-27q0 -5 -5 -5q0 -4 5 -4q-23 -111 -23 -217v-54z M757 1677v13q18 13 244 244h14q10 0 18 -4l9 4q20 -9 23 -18v-104q-24 -26 -199 -117q-7 -7 -82 -32q-23 0 -27 14z" />
<glyph unicode="&#xc7;" horiz-adv-x="1229" d="M16 1278l9 5q24 -86 176 -86q18 0 68 9v9q-54 29 -86 135q-4 6 -4 32v32q0 71 108 113q6 4 32 4h18q91 0 99 -117v-27q-27 -94 -117 -172q49 -18 67 -18h41q17 13 68 27v-5q122 36 122 68q246 281 298 303q33 29 82 54h27q77 -9 77 -41q-46 -134 -181 -235 q-95 -37 -95 -94q-59 -103 -86 -231q-41 -44 -104 -294q-50 -269 -50 -316v-77q0 -119 118 -167q27 0 27 -5q45 0 199 77q25 0 163 99q12 0 99 77q36 29 54 36l5 -9v-9q-96 -83 -258 -239l-95 -82q-219 -153 -384 -153q-38 0 -167 77q-77 92 -77 171v77q0 160 176 656 q0 4 140 266q-158 -58 -171 -58h-14q-24 0 -104 22q-34 -22 -104 -22h-9q-167 0 -167 108zM201 1396q0 -89 86 -168h5q96 75 122 172q0 93 -64 104h-49q-100 -29 -100 -108zM579 -49q3 27 13 27h5q13 0 18 -54q82 -22 108 -63q27 -38 27 -86v-5q0 -53 -95 -63q-54 0 -54 45 q5 0 5 5q9 -5 13 -5q54 0 73 32q0 63 -64 81q-31 0 -49 68v18zM857 1359q127 63 185 172q3 0 22 32v4q-13 30 -36 46h-18q-78 -98 -153 -254z" />
<glyph unicode="&#xc8;" horiz-adv-x="1237" d="M-8 1253q206 129 348 176q41 0 122 136q134 131 235 172q71 45 104 45h45q95 0 95 -54v-14q0 -47 -140 -140q-147 -82 -257 -113q-100 -317 -100 -438v-109q0 -38 68 -72h41q22 0 158 86q75 40 99 40q7 0 14 -13v-14q-6 -10 -127 -81q-54 -111 -104 -316 q-31 -119 -31 -168v-45q36 -221 117 -221h9q48 0 136 63q73 15 149 86q27 10 122 117q93 82 140 109q18 -7 18 -14q0 -25 -90 -86q-60 -55 -109 -113q-349 -299 -551 -334h-82q-76 0 -140 50q-67 85 -67 131h4l-4 9q4 9 4 13q-4 9 -4 14h4l-4 9q0 4 4 4q0 5 -4 5 q53 276 85 276q61 123 213 307h-5q-54 -27 -104 -27h-18q-128 0 -153 95q-18 36 -18 59v31q0 180 131 466v9h-14q-32 -19 -140 -59q-149 -86 -194 -86zM255 1811v104q2 9 23 18l9 -4q8 4 18 4h13q226 -231 245 -244v-13q-4 -14 -28 -14q-74 25 -81 32q-175 91 -199 117z M584 1515h9q183 70 280 168l32 36v4q-6 18 -72 23h-14q-59 0 -149 -131q-10 0 -86 -100z" />
<glyph unicode="&#xc9;" horiz-adv-x="1237" d="M-8 1253q206 129 348 176q41 0 122 136q134 131 235 172q71 45 104 45h45q95 0 95 -54v-14q0 -47 -140 -140q-147 -82 -257 -113q-100 -317 -100 -438v-109q0 -38 68 -72h41q22 0 158 86q75 40 99 40q7 0 14 -13v-14q-6 -10 -127 -81q-54 -111 -104 -316 q-31 -119 -31 -168v-45q36 -221 117 -221h9q48 0 136 63q73 15 149 86q27 10 122 117q93 82 140 109q18 -7 18 -14q0 -25 -90 -86q-60 -55 -109 -113q-349 -299 -551 -334h-82q-76 0 -140 50q-67 85 -67 131h4l-4 9q4 9 4 13q-4 9 -4 14h4l-4 9q0 4 4 4q0 5 -4 5 q53 276 85 276q61 123 213 307h-5q-54 -27 -104 -27h-18q-128 0 -153 95q-18 36 -18 59v31q0 180 131 466v9h-14q-32 -19 -140 -59q-149 -86 -194 -86zM351 1668v13q18 13 244 244h14q10 0 18 -4l9 4q20 -9 23 -18v-104q-24 -26 -199 -117q-7 -7 -82 -32q-23 0 -27 14z M584 1515h9q183 70 280 168l32 36v4q-6 18 -72 23h-14q-59 0 -149 -131q-10 0 -86 -100z" />
<glyph unicode="&#xcc;" horiz-adv-x="919" d="M-33 -170l9 4q14 -67 113 -162q11 -14 27 -14h5q39 6 99 63q63 100 136 470q45 160 76 348q91 413 172 615q74 216 204 407h-5q-79 -21 -131 -45q-267 -88 -330 -163q-63 -68 -63 -104v-27q0 -90 99 -158q0 -9 -9 -9q-40 0 -104 90q-13 42 -13 104q1 77 153 203 q68 41 217 95q207 82 258 82q0 8 23 9h99q58 0 140 -23l5 -9v-9q-98 -132 -258 -696q-154 -353 -199 -488q-63 -257 -95 -353q-77 -180 -104 -280q-120 -116 -230 -140h-50q-6 0 -90 -27h-5q-65 0 -136 135q-13 39 -13 82zM763 1795v104q2 9 23 18l9 -4q8 4 18 4h13 q226 -231 245 -244v-13q-4 -14 -28 -14q-74 25 -81 32q-175 91 -199 117z" />
<glyph unicode="&#xcd;" horiz-adv-x="919" d="M-8 -106l9 4q14 -67 113 -162q11 -14 27 -14h5q39 6 99 63q63 100 136 470q45 160 76 348q91 413 172 615q74 216 204 407h-5q-79 -21 -131 -45q-267 -88 -330 -163q-63 -68 -63 -104v-27q0 -90 99 -158q0 -9 -9 -9q-40 0 -104 90q-13 42 -13 104q1 77 153 203 q68 41 217 95q207 82 258 82q0 8 23 9h99q58 0 140 -23l5 -9v-9q-98 -132 -258 -696q-154 -353 -199 -488q-63 -257 -95 -353q-77 -180 -104 -280q-120 -116 -230 -140h-50q-6 0 -90 -27h-5q-65 0 -136 135q-13 39 -13 82zM695 1701v13q18 13 244 244h14q10 0 18 -4l9 4 q20 -9 23 -18v-104q-24 -26 -199 -117q-7 -7 -82 -32q-23 0 -27 14z" />
<glyph unicode="&#xd1;" horiz-adv-x="1178" d="M8 1048q0 55 185 452q137 158 217 158q35 18 50 18h50q104 -25 104 -149l4 -46q0 -118 -145 -497q0 -45 -99 -312v-4h5q44 149 189 330l150 230q4 0 72 68q65 42 104 50h41q111 0 149 -118q9 -20 9 -58v-159q0 -141 -145 -506q-54 -143 -54 -298q-11 -53 -23 -208v-23 q0 -10 5 -18q0 -4 -5 -4q15 -119 45 -149q49 -68 82 -68h9q18 25 176 321q27 36 32 36h4q0 -68 -171 -402q-65 -64 -109 -64h-95l-13 9h-37q-69 0 -131 131q-18 59 -18 82q27 364 109 669q117 416 117 655v59q-9 41 -22 41q-134 -111 -150 -177q-33 -37 -122 -181 q-98 -108 -185 -357q-62 -113 -135 -366q-31 -131 -59 -153q-3 -12 -32 -23q-95 0 -95 90v18q0 76 100 543q153 584 217 931l-5 9q-45 -14 -63 -50q-42 -14 -104 -117q-19 0 -113 -244q-74 -148 -91 -159zM365 641h5v9h-5v-9zM653 1428v10q0 46 76 106q0 41 142 89h31 q23 0 169 -130q23 -11 76 -22q11 0 112 67h8l4 -9v-13q-46 -159 -151 -159q-68 6 -143 53q-46 47 -106 128q-8 4 -18 4h-12q-56 0 -183 -132z" />
<glyph unicode="&#xd2;" horiz-adv-x="1036" d="M8 297h4l-4 9v82l4 27q-4 9 -4 13h4l-4 9q0 5 4 5q0 4 -4 4l4 23v154q0 4 5 4q0 5 -5 5q5 49 9 49q0 5 -4 5q10 99 14 99l-5 9q0 5 5 5q0 4 -5 4q27 161 36 190l-4 9q15 64 22 82l-4 9q36 169 99 303q45 80 154 203q160 133 230 140q187 0 308 -199q54 -72 54 -167 q0 -5 -5 -14q28 -52 59 -189q8 -3 27 -177q0 -45 -4 -135h-5q0 -5 5 -5q-14 -51 -14 -144v-86q0 -5 -4 -5q0 -4 4 -4q0 -103 -90 -407q-41 -80 -136 -163q-43 -55 -158 -117q-67 -28 -113 -28h-90q-92 0 -217 86q-92 83 -122 172q-50 111 -50 140zM311 360q0 -50 40 -198 q68 -159 136 -177q31 0 36 -18q108 19 294 231q108 242 108 624q14 0 14 280q-51 271 -117 271h-32q-96 -73 -154 -185l-99 -172h-9v4q142 407 280 407h4q10 0 46 -9v5q0 63 -163 212h-14q-139 -116 -140 -163q-68 -88 -113 -253l-58 -244q-28 -161 -41 -474 q-18 -101 -18 -141zM651 1780v104q2 9 23 18l9 -4q8 4 18 4h13q226 -231 245 -244v-13q-4 -14 -28 -14q-74 25 -81 32q-175 91 -199 117z" />
<glyph unicode="&#xd3;" horiz-adv-x="1036" d="M8 297h4l-4 9v82l4 27q-4 9 -4 13h4l-4 9q0 5 4 5q0 4 -4 4l4 23v154q0 4 5 4q0 5 -5 5q5 49 9 49q0 5 -4 5q10 99 14 99l-5 9q0 5 5 5q0 4 -5 4q27 161 36 190l-4 9q15 64 22 82l-4 9q36 169 99 303q45 80 154 203q160 133 230 140q187 0 308 -199q54 -72 54 -167 q0 -5 -5 -14q28 -52 59 -189q8 -3 27 -177q0 -45 -4 -135h-5q0 -5 5 -5q-14 -51 -14 -144v-86q0 -5 -4 -5q0 -4 4 -4q0 -103 -90 -407q-41 -80 -136 -163q-43 -55 -158 -117q-67 -28 -113 -28h-90q-92 0 -217 86q-92 83 -122 172q-50 111 -50 140zM255 1668v13 q18 13 244 244h14q10 0 18 -4l9 4q20 -9 23 -18v-104q-24 -26 -199 -117q-7 -7 -82 -32q-23 0 -27 14zM311 360q0 -50 40 -198q68 -159 136 -177q31 0 36 -18q108 19 294 231q108 242 108 624q14 0 14 280q-51 271 -117 271h-32q-96 -73 -154 -185l-99 -172h-9v4 q142 407 280 407h4q10 0 46 -9v5q0 63 -163 212h-14q-139 -116 -140 -163q-68 -88 -113 -253l-58 -244q-28 -161 -41 -474q-18 -101 -18 -141z" />
<glyph unicode="&#xd9;" horiz-adv-x="1352" d="M8 1255q33 144 113 208q59 46 122 46q42 0 117 -9q104 76 195 76h81q118 -23 118 -113q9 0 9 -90v-45q-26 -147 -100 -312q-66 -146 -158 -425q-95 -175 -95 -371v-31q0 -113 131 -154l9 5l23 -5q73 44 122 95q0 4 127 136q76 80 194 583q18 478 36 610q0 27 131 45 q87 41 95 41h5q31 0 31 -59l5 -45l-59 -348q-31 -606 -54 -606q-9 -45 -9 -90v-18q0 -185 -14 -258q6 -27 14 -27q66 124 122 321q22 72 54 72l14 -18q-82 -275 -109 -312q-47 -149 -113 -149q-95 24 -95 63q-54 102 -54 267q0 58 4 131q-4 56 -4 140v18h-5 q-80 -359 -221 -474q-153 -172 -231 -172l-108 -27q-74 0 -172 135q-71 137 -77 213q1 86 9 86l-4 9q0 4 4 4q0 5 -4 5q4 49 9 49l-5 9q4 19 9 19l-4 9q55 211 95 316q0 20 303 588q45 107 45 122v13q-41 9 -59 9h-27q-79 0 -163 -59q100 -41 100 -90v-32q0 -116 -113 -158 l-23 -4q-108 0 -140 86v40q0 84 81 145l-63 4q-133 0 -235 -217h-9zM266 1292q0 -55 108 -64q104 30 104 145v4q0 45 -108 77q-104 -71 -104 -149v-13zM708 1673v104q2 9 23 18l9 -4q8 4 18 4h13q226 -231 245 -244v-13q-4 -14 -28 -14q-74 25 -81 32q-175 91 -199 117z" />
<glyph unicode="&#xda;" horiz-adv-x="1352" d="M8 1255q33 144 113 208q59 46 122 46q42 0 117 -9q104 76 195 76h81q118 -23 118 -113q9 0 9 -90v-45q-26 -147 -100 -312q-66 -146 -158 -425q-95 -175 -95 -371v-31q0 -113 131 -154l9 5l23 -5q73 44 122 95q0 4 127 136q76 80 194 583q18 478 36 610q0 27 131 45 q87 41 95 41h5q31 0 31 -59l5 -45l-59 -348q-31 -606 -54 -606q-9 -45 -9 -90v-18q0 -185 -14 -258q6 -27 14 -27q66 124 122 321q22 72 54 72l14 -18q-82 -275 -109 -312q-47 -149 -113 -149q-95 24 -95 63q-54 102 -54 267q0 58 4 131q-4 56 -4 140v18h-5 q-80 -359 -221 -474q-153 -172 -231 -172l-108 -27q-74 0 -172 135q-71 137 -77 213q1 86 9 86l-4 9q0 4 4 4q0 5 -4 5q4 49 9 49l-5 9q4 19 9 19l-4 9q55 211 95 316q0 20 303 588q45 107 45 122v13q-41 9 -59 9h-27q-79 0 -163 -59q100 -41 100 -90v-32q0 -116 -113 -158 l-23 -4q-108 0 -140 86v40q0 84 81 145l-63 4q-133 0 -235 -217h-9zM266 1292q0 -55 108 -64q104 30 104 145v4q0 45 -108 77q-104 -71 -104 -149v-13zM837 1611v13q18 13 244 244h14q10 0 18 -4l9 4q20 -9 23 -18v-104q-24 -26 -199 -117q-7 -7 -82 -32q-23 0 -27 14z" />
<glyph unicode="&#xe0;" d="M-8 389v54q36 291 77 366q4 0 45 100q66 76 122 76h54q26 0 118 -86q59 -91 59 -103h4q45 129 45 167q77 54 159 54q6 0 18 -18q-86 -272 -86 -402q-50 -164 -50 -335h5q46 0 131 136q21 48 49 63h9q9 -1 9 -9v-5q0 -28 -72 -113q-80 -117 -140 -117h-9q-76 76 -90 154 q-14 0 -18 176q0 10 22 108v5h-4q-55 -131 -82 -231q-78 -212 -153 -212q-163 2 -222 172zM164 411q0 -45 54 -95h14q26 11 72 82q24 0 77 181q36 73 59 162q-19 91 -100 163h-4q-35 -18 -109 -163q-26 0 -63 -307v-23zM166 1154v104q2 9 23 18l9 -4q8 4 18 4h13 q226 -231 245 -244v-13q-4 -14 -28 -14q-74 25 -81 32q-175 91 -199 117z" />
<glyph unicode="&#xe1;" d="M-8 389v54q36 291 77 366q4 0 45 100q66 76 122 76h54q26 0 118 -86q59 -91 59 -103h4q45 129 45 167q77 54 159 54q6 0 18 -18q-86 -272 -86 -402q-50 -164 -50 -335h5q46 0 131 136q21 48 49 63h9q9 -1 9 -9v-5q0 -28 -72 -113q-80 -117 -140 -117h-9q-76 76 -90 154 q-14 0 -18 176q0 10 22 108v5h-4q-55 -131 -82 -231q-78 -212 -153 -212q-163 2 -222 172zM164 411q0 -45 54 -95h14q26 11 72 82q24 0 77 181q36 73 59 162q-19 91 -100 163h-4q-35 -18 -109 -163q-26 0 -63 -307v-23zM305 1026v13q18 13 244 244h14q10 0 18 -4l9 4 q20 -9 23 -18v-104q-24 -26 -199 -117q-7 -7 -82 -32q-23 0 -27 14z" />
<glyph unicode="&#xe7;" horiz-adv-x="549" d="M-15 431q29 158 104 329q0 13 59 136q99 100 154 100h36q53 0 77 -91v-63q0 -35 -18 -41q-7 9 -14 91h-9q-79 -54 -113 -159l-45 -217v-76q-9 -66 -9 -73v-72q28 -32 68 -32q189 107 262 199q14 9 22 9l5 -9q-39 -83 -208 -190q-102 -67 -190 -67h-27q-52 0 -122 58 q-14 35 -32 168zM181 157v18q3 27 13 27h5q13 0 18 -54q82 -22 108 -63q27 -38 27 -86v-5q0 -53 -95 -63q-54 0 -54 45q5 0 5 5q9 -5 13 -5q54 0 73 32q0 63 -64 81q-31 0 -49 68z" />
<glyph unicode="&#xe8;" horiz-adv-x="688" d="M-9 449q0 210 77 339q12 50 181 198q56 19 85 19q89 -68 116 -95q13 -17 13 -41v-5q0 -53 -110 -217q-45 -28 -141 -131v-67q0 -159 104 -159q76 3 177 68q116 62 126 73q0 4 64 49h13q7 0 14 -13v-14q-92 -81 -181 -117q-16 -18 -145 -91q-86 -36 -190 -36 q-49 0 -153 95q-50 88 -50 145zM226 593q98 95 129 163q63 82 68 117q-23 28 -57 82q-63 -56 -86 -127q-25 -25 -54 -221v-14zM243 1209v104q2 9 23 18l9 -4q8 4 18 4h13q226 -231 245 -244v-13q-4 -14 -28 -14q-74 25 -81 32q-175 91 -199 117z" />
<glyph unicode="&#xe9;" horiz-adv-x="688" d="M-9 449q0 210 77 339q12 50 181 198q56 19 85 19q89 -68 116 -95q13 -17 13 -41v-5q0 -53 -110 -217q-45 -28 -141 -131v-67q0 -159 104 -159q76 3 177 68q116 62 126 73q0 4 64 49h13q7 0 14 -13v-14q-92 -81 -181 -117q-16 -18 -145 -91q-86 -36 -190 -36 q-49 0 -153 95q-50 88 -50 145zM226 593q98 95 129 163q63 82 68 117q-23 28 -57 82q-63 -56 -86 -127q-25 -25 -54 -221v-14zM254 1059v13q18 13 244 244h14q10 0 18 -4l9 4q20 -9 23 -18v-104q-24 -26 -199 -117q-7 -7 -82 -32q-23 0 -27 14z" />
<glyph unicode="&#xec;" horiz-adv-x="317" d="M-32 396q0 16 38 257q28 175 56 219q0 11 20 69q4 32 19 32q20 0 120 4q46 -5 46 -18v-13q0 -33 -59 -266q-58 -222 -64 -361l13 -32q24 0 128 176q21 45 31 45h9q9 -1 9 -9v-9q-35 -109 -136 -226q-44 -85 -103 -85h-18q-109 0 -109 217zM52 1158v104q2 9 23 18l9 -4 q8 4 18 4h13q226 -231 245 -244v-13q-4 -14 -28 -14q-74 25 -81 32q-175 91 -199 117z" />
<glyph unicode="&#xed;" horiz-adv-x="317" d="M-32 396q0 16 38 257q28 175 56 219q0 11 20 69q4 32 19 32q20 0 120 4q46 -5 46 -18v-13q0 -33 -59 -266q-58 -222 -64 -361l13 -32q24 0 128 176q21 45 31 45h9q9 -1 9 -9v-9q-35 -109 -136 -226q-44 -85 -103 -85h-18q-109 0 -109 217zM137 1091v13q18 13 244 244h14 q10 0 18 -4l9 4q20 -9 23 -18v-104q-24 -26 -199 -117q-7 -7 -82 -32q-23 0 -27 14z" />
<glyph unicode="&#xf1;" horiz-adv-x="699" d="M-71 290q1 55 60 321q12 265 21 295q108 69 152 104l38 -3q36 0 36 -45v-18q-63 -292 -64 -311l-2 -13l9 4q213 266 245 292l22 5h41q49 0 86 -104q0 -38 4 -136q0 -40 -1 -62q-48 -103 -108 -605h4q40 21 118 170q36 77 99 294l18 18h18q7 0 14 -18q-63 -205 -104 -312 q-43 -123 -124 -193q-21 -31 -100 -94l-55 10q-35 18 -75 95q9 71 21 166q20 122 66 338q56 165 56 279q-9 36 -18 36h-5l-233 -238l-37 -225q-27 -50 -56 -50h-9q-2 -4 -11 -4h-18q-36 0 -95 -5q-13 5 -13 9zM77 1034v10q0 46 76 106q0 41 142 89h31q23 0 169 -130 q23 -11 76 -22q11 0 112 67h8l4 -9v-13q-46 -159 -151 -159q-68 6 -143 53q-46 47 -106 128q-8 4 -18 4h-12q-56 0 -183 -132z" />
<glyph unicode="&#xf2;" horiz-adv-x="718" d="M-8 460v15q0 5 6 5q0 6 -6 6q26 206 97 363q74 137 134 189l36 21q101 -26 148 -103q10 -35 20 -35q36 35 87 35q52 0 77 -132q0 -183 -87 -415q-5 -8 -5 -32q0 -36 92 -40h6q63 55 117 149h10q10 0 10 -16q-21 -89 -87 -159q-57 -53 -91 -56h-22q-85 15 -97 25 q-65 -89 -168 -112l-31 -5q-182 0 -240 210q-6 39 -6 87zM182 469q17 -158 41 -188q0 -8 15 -29v-5l11 -10l10 -5q59 8 127 89q-87 110 -87 175q-14 44 -14 86q0 95 40 226l61 67q-26 66 -40 66q-85 -70 -131 -222q-33 -149 -33 -189v-61zM243 1213v104q2 9 23 18l9 -4 q8 4 18 4h13q226 -231 245 -244v-13q-4 -14 -28 -14q-74 25 -81 32q-175 91 -199 117zM415 634q10 -75 10 -83l11 -44l17 -32h5q66 165 66 359q-12 56 -25 56q-62 -41 -84 -159v-97z" />
<glyph unicode="&#xf3;" horiz-adv-x="718" d="M-8 460v15q0 5 6 5q0 6 -6 6q26 206 97 363q74 137 134 189l36 21q101 -26 148 -103q10 -35 20 -35q36 35 87 35q52 0 77 -132q0 -183 -87 -415q-5 -8 -5 -32q0 -36 92 -40h6q63 55 117 149h10q10 0 10 -16q-21 -89 -87 -159q-57 -53 -91 -56h-22q-85 15 -97 25 q-65 -89 -168 -112l-31 -5q-182 0 -240 210q-6 39 -6 87zM182 469q17 -158 41 -188q0 -8 15 -29v-5l11 -10l10 -5q59 8 127 89q-87 110 -87 175q-14 44 -14 86q0 95 40 226l61 67q-26 66 -40 66q-85 -70 -131 -222q-33 -149 -33 -189v-61zM322 1086v13q18 13 244 244h14 q10 0 18 -4l9 4q20 -9 23 -18v-104q-24 -26 -199 -117q-7 -7 -82 -32q-23 0 -27 14zM415 634q10 -75 10 -83l11 -44l17 -32h5q66 165 66 359q-12 56 -25 56q-62 -41 -84 -159v-97z" />
<glyph unicode="&#xf9;" horiz-adv-x="765" d="M-40 446q0 5 5 5l-5 9q0 4 5 4l-5 9q18 120 18 210v49q0 5 5 5q0 4 -5 4q5 45 9 45q0 5 -4 5l4 18l13 83q0 21 23 88q0 6 118 47h27q6 0 23 -22v-82q-22 -73 -22 -255v-36l-4 -27q0 -5 4 -5q-9 -47 -13 -122q0 -136 54 -136h13q72 16 139 145q32 275 43 322q-4 9 -4 14 q10 31 36 31q12 21 82 50q40 5 46 5q27 -11 27 -32q-5 -9 -5 -14l9 -4q-7 -122 -62 -326q-7 -159 -7 -195q0 -167 10 -211q0 -7 23 -38q19 3 84 177q81 239 104 239h13q14 -15 14 -22q-77 -214 -145 -380q-24 -72 -77 -72q-40 25 -87 81q-108 159 -108 267h-5 q-38 -45 -166 -136l-25 -15l-36 9q-96 10 -133 53q-33 68 -33 156zM166 1138v104q2 9 23 18l9 -4q8 4 18 4h13q226 -231 245 -244v-13q-4 -14 -28 -14q-74 25 -81 32q-175 91 -199 117z" />
<glyph unicode="&#xfa;" horiz-adv-x="765" d="M-40 446q0 5 5 5l-5 9q0 4 5 4l-5 9q18 120 18 210v49q0 5 5 5q0 4 -5 4q5 45 9 45q0 5 -4 5l4 18l13 83q0 21 23 88q0 6 118 47h27q6 0 23 -22v-82q-22 -73 -22 -255v-36l-4 -27q0 -5 4 -5q-9 -47 -13 -122q0 -136 54 -136h13q72 16 139 145q32 275 43 322q-4 9 -4 14 q10 31 36 31q12 21 82 50q40 5 46 5q27 -11 27 -32q-5 -9 -5 -14l9 -4q-7 -122 -62 -326q-7 -159 -7 -195q0 -167 10 -211q0 -7 23 -38q19 3 84 177q81 239 104 239h13q14 -15 14 -22q-77 -214 -145 -380q-24 -72 -77 -72q-40 25 -87 81q-108 159 -108 267h-5 q-38 -45 -166 -136l-25 -15l-36 9q-96 10 -133 53q-33 68 -33 156zM225 1034v13q18 13 244 244h14q10 0 18 -4l9 4q20 -9 23 -18v-104q-24 -26 -199 -117q-7 -7 -82 -32q-23 0 -27 14z" />
<glyph unicode="&#x2dc;" horiz-adv-x="718" d="M62 1205v10q0 46 76 106q0 41 142 89h31q23 0 169 -130q23 -11 76 -22q11 0 112 67h8l4 -9v-13q-46 -159 -151 -159q-68 6 -143 53q-46 47 -106 128q-8 4 -18 4h-12q-56 0 -183 -132z" />
<glyph unicode="&#x2000;" horiz-adv-x="979" />
<glyph unicode="&#x2001;" horiz-adv-x="1958" />
<glyph unicode="&#x2002;" horiz-adv-x="979" />
<glyph unicode="&#x2003;" horiz-adv-x="1958" />
<glyph unicode="&#x2004;" horiz-adv-x="652" />
<glyph unicode="&#x2005;" horiz-adv-x="489" />
<glyph unicode="&#x2006;" horiz-adv-x="326" />
<glyph unicode="&#x2007;" horiz-adv-x="326" />
<glyph unicode="&#x2008;" horiz-adv-x="244" />
<glyph unicode="&#x2009;" horiz-adv-x="391" />
<glyph unicode="&#x200a;" horiz-adv-x="108" />
<glyph unicode="&#x2010;" d="M129 593q0 30 123 51q0 8 108 9q102 0 189 -26q40 -18 40 -97v-35q0 -42 -58 -42h-117q-70 -9 -75 -9h-99q-90 0 -90 39q-5 66 -21 110z" />
<glyph unicode="&#x2011;" d="M129 593q0 30 123 51q0 8 108 9q102 0 189 -26q40 -18 40 -97v-35q0 -42 -58 -42h-117q-70 -9 -75 -9h-99q-90 0 -90 39q-5 66 -21 110z" />
<glyph unicode="&#x2012;" d="M129 593q0 30 123 51q0 8 108 9q102 0 189 -26q40 -18 40 -97v-35q0 -42 -58 -42h-117q-70 -9 -75 -9h-99q-90 0 -90 39q-5 66 -21 110z" />
<glyph unicode="&#x2013;" d="M129 593q0 30 123 51q0 8 108 9q102 0 189 -26q40 -18 40 -97v-35q0 -42 -58 -42h-117q-70 -9 -75 -9h-99q-90 0 -90 39q-5 66 -21 110z" />
<glyph unicode="&#x2014;" horiz-adv-x="1167" d="M16 899q0 31 311 55q0 8 272 9q258 0 475 -27q101 -20 101 -104v-36q0 -46 -148 -46h-295q-175 -9 -187 -9h-249q-226 0 -226 41q-14 71 -54 117z" />
<glyph unicode="&#x2018;" horiz-adv-x="209" d="M54 1539q0 45 82 59h9q29 0 45 -41q0 -70 -91 -226q-14 -9 -22 -9q-18 7 -18 14v131q0 26 -5 72z" />
<glyph unicode="&#x2019;" horiz-adv-x="209" d="M54 1539q0 45 82 59h9q29 0 45 -41q0 -70 -91 -226q-14 -9 -22 -9q-18 7 -18 14v131q0 26 -5 72z" />
<glyph unicode="&#x201a;" horiz-adv-x="255" d="M47 9q0 45 82 59h9q29 0 45 -41q0 -70 -90 -226q-15 -9 -23 -9q-18 7 -18 14v131q0 26 -5 72z" />
<glyph unicode="&#x201c;" horiz-adv-x="616" d="M147 1532q0 45 81 59h9q30 0 45 -41q0 -70 -90 -226q-15 -9 -22 -9q-19 7 -19 14v131q0 26 -4 72zM332 1524q0 46 82 59h9q29 0 45 -41q0 -70 -91 -226q-14 -9 -22 -9q-18 7 -18 14v131q0 26 -5 72z" />
<glyph unicode="&#x201d;" horiz-adv-x="616" d="M147 1532q0 45 81 59h9q30 0 45 -41q0 -70 -90 -226q-15 -9 -22 -9q-19 7 -19 14v131q0 26 -4 72zM332 1524q0 46 82 59h9q29 0 45 -41q0 -70 -91 -226q-14 -9 -22 -9q-18 7 -18 14v131q0 26 -5 72z" />
<glyph unicode="&#x201e;" horiz-adv-x="616" d="M171 -53q0 45 81 59h9q29 0 45 -41q0 -70 -90 -226q-15 -9 -23 -9q-18 7 -18 13v132q0 26 -4 72zM356 -61q0 45 81 59h9q30 0 46 -41q0 -70 -91 -226q-15 -9 -22 -9q-19 7 -19 14v131q0 26 -4 72z" />
<glyph unicode="&#x202f;" horiz-adv-x="391" />
<glyph unicode="&#x205f;" horiz-adv-x="489" />
<glyph unicode="&#x20ac;" horiz-adv-x="951" d="M24 944q0 3 13 13l213 -13q54 224 158 388q138 181 230 181q0 5 28 5h18q95 0 149 -95v-18q0 -9 -9 -9h-18q-53 76 -118 76h-9q0 -17 -45 -67q-41 -77 -95 -267q-32 -67 -59 -190v-4h36q258 -8 258 -46v-9q0 -6 -14 -13q-90 31 -244 31h-36q-8 0 -22 -90q0 -5 4 -5 l-4 -22v-54h194q136 -7 136 -37v-9q0 -6 -14 -13q-72 18 -117 18h-199v-36q22 -161 22 -317q42 -144 91 -144q28 -27 63 -27h36q132 48 208 167q45 72 50 72h4q-34 -151 -113 -221q-94 -82 -158 -82h-54q-109 0 -249 86q-99 74 -99 145q-14 24 -14 63v289q-68 5 -99 5h-27 q-7 0 -14 14v4q0 18 127 18h13v176q-221 11 -221 37z" />
<glyph unicode="&#x25fc;" horiz-adv-x="1056" d="M0 0v1057h1057v-1057h-1057z" />
</font>
</defs>
</svg>
