<?xml version="1.0" standalone="no"?>
<!DOCTYPE svg PUBLIC "-//W3C//DTD SVG 1.1//EN" "http://www.w3.org/Graphics/SVG/1.1/DTD/svg11.dtd" >
<svg xmlns="http://www.w3.org/2000/svg">
<metadata></metadata>
<defs>
<font id="blushregular" horiz-adv-x="647" >
<font-face units-per-em="2048" ascent="1855" descent="-193" />
<missing-glyph horiz-adv-x="808" />
<glyph horiz-adv-x="0" />
<glyph unicode="&#xd;" horiz-adv-x="0" />
<glyph horiz-adv-x="0" />
<glyph horiz-adv-x="0" />
<glyph unicode=" "  horiz-adv-x="808" />
<glyph unicode="&#x09;" horiz-adv-x="808" />
<glyph unicode="&#xa0;" horiz-adv-x="808" />
<glyph unicode="!" horiz-adv-x="211" d="M32 523q2 16 15 28q6 10 18 4q5 -4 11 -7t10 -9l2 -3q1 -10 -4 -19t-16 -14t-23 -1q-16 6 -13 21zM56.5 646q-1.5 14 0.5 29q3 21 6 40.5t13 38.5q9 21 10 47q3 42 8 82.5t16 81.5q3 14 8 27.5t8 28.5q2 8 5 13.5t6 12.5q4 6 12 6t13 -5q8 -8 13.5 -17.5t2.5 -22.5 q-3 -20 -4 -39t-9 -37q-3 -9 -3 -20q-3 -27 -12 -53.5t-17 -54.5l-15 -45q-6 -20 -11 -38.5t-8 -37.5l-13 -67q-3 -12 -7 -17q-3 -3 -7 -5t-7 2l-2 1q-1 3 -1 10.5v10.5q-4 14 -5.5 28z" />
<glyph unicode="&#x22;" horiz-adv-x="179" d="M31 979q0 6 1 11q4 9 4.5 20t3.5 24q0 11 14 14q9 0 20 -8q2 -1 2 -6q-2 -8 -4 -18t-6 -16q-3 -6 -3 -18q-1 -14 -6 -25q0 -3 -2.5 -4.5t-6.5 1.5q-11 3 -14 7.5t-3 17.5zM82 979q2 3 1 5.5t1 5.5q3 9 4 20t3 24q0 11 14 14q11 0 20 -8q3 -1 3 -6q-3 -8 -4.5 -18 t-5.5 -16q-1 -5 -3 -9t-2 -9l-5 -25q0 -3 -3 -4.5t-6 1.5q-10 3 -13.5 7.5t-3.5 17.5z" />
<glyph unicode="#" horiz-adv-x="635" d="M32 723q2 11 16 15q26 6 52 11t54 10q14 5 25 16q13 13 22 28t17 32q2 3 1 5.5t-1 5.5q-28 3 -52.5 -4t-52.5 -4q0 13 13 16q25 5 47.5 13t46.5 10q15 0 24.5 7t17.5 19l30 43q12 19 22.5 38t23.5 37q5 8 11 13.5t12 12.5q6 6 17.5 4.5t14.5 -9.5q4 -8 -5.5 -25 t-15.5 -22q-5 -4 -5 -11q0 -13 -5.5 -24.5t-13.5 -22.5q-7 -10 -12.5 -19.5t-11.5 -20.5l34 4q14 4 28.5 5.5t29.5 1.5t26 14l64 99q13 21 28.5 40.5t33.5 37.5q20 16 39 8l4 -5q-1 -2 -1 -3v-2q-28 -26 -42 -61q-3 -8 -8 -15t-9 -13q-7 -13 -15 -25t-15 -26 q-5 -9 -13 -17.5t-11 -22.5q6 -8 13 -7t16 -1q2 0 8 -3t10 -6t5 -6.5t-9 -5.5q-11 -2 -20.5 -3.5t-21.5 -1.5q-24 -1 -38 -24l-43 -56q-3 -4 -4 -8t-4 -9q0 2 10 2t21 -1t21 -2t13 -1q13 -1 23.5 -10.5t-10.5 -18.5q-16 -8 -39.5 -8.5t-41.5 -0.5q-18 -2 -26.5 -9t-16.5 -20 l-30 -62q-3 -8 -9 -15t-10 -15q-19 -26 -33 -53.5t-35 -52.5q-3 -3 -5 -9.5t-5 -9.5q-8 -13 -21 -5q-10 15 -2 34l15 31q11 18 21 34t21 32q29 46 51 102q1 4 1 10q-9 6 -19.5 4.5t-21.5 -3.5q-12 -1 -25 -2.5t-26 -4.5q-13 -5 -19 -17.5t-13 -21.5q-13 -13 -22 -29.5 t-17 -33.5q-8 -15 -18 -30l-18 -27q-8 -13 -14.5 -24.5t-16.5 -20.5q-6 -7 -8.5 -16t-6.5 -17q-3 -3 -7 -3q-5 0 -8 3q-4 7 -4 10q-1 27 12 57q7 15 14.5 30t14.5 31l18 44t19 45h-13q-6 0 -12 -1.5t-11 -0.5q-24 5 -52 5q-8 3 -16 8zM254 780.5q-2 -3.5 4 -8.5q21 3 42 4 t43 4q8 11 14 21.5t14 23.5q6 11 16 22t14 24q-4 3 -6 3q-23 -5 -47 -9t-47 -11q-20 -5 -29 -27l-14 -39q-2 -4 -4 -7.5z" />
<glyph unicode="$" horiz-adv-x="350" d="M32 618q2 21 6 39.5t17 36.5q15 23 41 24q19 3 24 -19q3 -5 0 -13q-2 -8 -3 -14.5t-4 -15.5q0 -3 -4 -7t-6 1q-1 3 -0.5 6.5t0.5 7.5q2 4 2 12q0 5 -1 14t-7 11q-11 0 -18 -7q-9 -4 -14 -13q-16 -31 -8 -65q1 -16 19 -16q9 2 19 2t20 2q11 1 16 14q6 23 12.5 44t10.5 43 q2 8 3.5 17.5t4.5 18.5q0 8 2 13q-4 0 -6 0.5t-6 0.5q-7 -1 -13 -2t-14 1q-14 0 -23 8q-34 30 -14 75q15 29 35 48l18 20q4 3 8.5 6t9.5 5q20 9 35.5 22t33.5 27q11 11 13 20q3 13 5.5 24.5t5.5 23.5q3 11 7.5 20.5t7.5 19.5q2 6 9 9q8 5 16 -4v-5q0 -10 -1 -19.5t-3 -20.5 q-8 -13 -10 -27.5t-5 -26.5q3 -5 11 -7q5 -3 10 -7t12 -8q23 -11 18 -38l-7 -36q-2 -5 -3.5 -8.5t-3.5 -8.5q-3 -6 -7 -13t-7 -15q-3 -1 -6.5 -3t-8.5 -3q-5 -2 -8 1q-8 4 -1 10q1 5 8 14q9 11 11 25.5t5 26.5q0 2 -3 10q-11 14 -26 21q-5 -5 -5 -6q-4 -18 -12.5 -35 t-16.5 -35l-9 -34q-4 -6 -6 -12t-5 -14q0 -3 -0.5 -6t-0.5 -7q6 -3 12 -6.5t14 -6.5q18 -8 21 -28q2 -3 2 -7.5t1 -9.5q5 -24 -12 -50q-6 -8 -10 -17.5t-9 -16.5q-9 -22 -26 -34l-13 -13t-17 -10q-4 -1 -4.5 -4t-3.5 -4l-5.5 -5.5t-5.5 -2.5q-11 -2 -15 -14l-8 -33 q-3 -11 -5 -22.5t2 -24.5q0 -3 -7 -6q-6 -4 -7 3q-3 11 -6 21t0 21q3 12 6 32v10h-13h-14t-15 3q-24 5 -35 26q-7 13 -7 26zM117.5 790q0.5 -2 0.5 -6q15 -6 28.5 -3.5t26.5 3.5l6 20t7 18q15 30 19 66q0 3 2 6.5t-2 6.5l-24 -24q-6 -5 -16 -14l-29 -34q-5 -8 -9.5 -17 l-8.5 -17q-1 -3 -0.5 -5zM157 619q16 13 29 26.5t21 29.5q5 6 8 13.5t7 13.5q5 10 6.5 20t2.5 19q0 8 -4 16q-8 11 -17 12l-5 -3l-14 -32t-15 -33q0 -2 -0.5 -2.5t-0.5 -4.5q-2 -15 -6 -31t-9 -30q-1 -3 -1 -5.5t-2 -8.5z" />
<glyph unicode="%" horiz-adv-x="420" d="M32 852q-3 42 10 74.5t47 58.5q18 13 38 8t29 -27q0 -5 3 -15q26 -1 47.5 5.5t43.5 17.5q15 6 30 14.5t29 16.5q6 3 12 8t12 9q15 10 30 5q15 -3 22 -11q4 -8 0 -11l-16 -10q-3 -3 -5.5 -6.5t-4.5 -8.5q-12 -29 -31 -54t-36 -51q-12 -12 -21 -27.5t-17 -30.5 q-8 -13 -16 -26.5t-16 -26.5q-13 -21 -27 -40l-28 -38l-30 -39q-3 -6 -7 -11t-7 -10q-3 -3 -7.5 -8t-4.5 -11q2 -5 4.5 -9t0.5 -9q-1 -5 -6 -7.5t-8 -5.5q-11 -6 -20 -5q-6 2 -11.5 7.5t-8.5 10.5q-5 7 -4.5 14.5t4.5 15.5q4 23 15 41.5t23 35.5q28 34 54.5 67t54.5 67 q7 8 13 17.5t13 18.5q19 29 40 65q3 3 3 5.5t3 6.5q-18 -6 -32 -13.5t-31 -10.5q-14 -3 -31 -4t-35 -4q-11 -18 -22.5 -35t-24.5 -35q-9 -14 -27 -18.5t-33 7.5q-9 7 -13 22zM55 880q-1 -6 2 -14.5t11 -6.5q8 1 16 8.5t13 14.5q5 6 10.5 11t8.5 12q5 9 0 19q-1 3 -3.5 5.5 t-2.5 5.5h1q0 5 4.5 8t2.5 8q0 5 -7.5 8.5t-11.5 1.5q-3 -1 -6.5 -5.5t-6.5 -7.5q-6 -8 -9.5 -15.5t-8.5 -15.5t-7.5 -17.5t-5.5 -19.5zM176 591q0 13 1.5 25t8.5 25q13 29 34 49q10 12 21 22q9 9 17 11q6 1 18 0q8 -2 18 -9t13 -15q2 -3 0.5 -9t-0.5 -9q2 -13 10 -19 q9 -10 1 -26q-8 -13 -13.5 -27.5t-11.5 -27.5t-16 -20.5t-23 -13.5q-21 -11 -45 -2q-31 14 -33 46zM212 594q-5 -13 4 -23q4 -3 10.5 -4t12.5 3q11 4 19 14l14 24q3 3 6 8.5t2 9.5q-2 8 -5 14.5t-5 14.5v11t2 10q0 3 0.5 5.5t-0.5 5.5q0 8 -7 -1l-14 -20t-13 -21 q-3 -6 -6.5 -11.5t-6.5 -12.5q-8 -14 -13 -27z" />
<glyph unicode="&#x26;" horiz-adv-x="835" d="M81 684q0 14 5 25q13 37 47 64q11 10 21.5 20t23.5 18q6 6 20 12q7 3 12.5 0t5.5 -11q0 -9 2 -19l4 -20q3 -11 2 -18q0 -5 -2 -9.5t-4 -9.5l-9 -27q0 -2 0.5 -3.5t0.5 -4.5q11 3 23 14l34 34q13 13 27.5 24t27.5 23q7 5 13 7q14 4 20 -8q3 -8 3.5 -11.5t-2.5 -19.5 q3 -3 8 2l37 23q11 7 23 9q10 5 16 -7q0 -14 -4 -26.5t-12 -25.5q-5 -7 -9 -14t-7 -15q1 -1 3 -1h1l15 9q8 6 14.5 13t15.5 13q15 16 38 25q10 3 15 8q1 3 3.5 3.5t3.5 3.5q12 13 26 16.5t30 3.5q4 0 11 -3q12 -3 23 -6q1 3 2.5 7t3.5 9l-24 4q-5 2 -9 2t-7 3 q-13 8 -28.5 13t-30.5 13q-12 8 -26 12.5t-27 8.5q-8 4 -14.5 6t-14.5 5q-14 7 -31 4l-29 -5q-5 -2 -14 -8q-3 -2 -6.5 -4t-7.5 -4q-9 -1 -6 10q3 9 12 14t17 8q41 14 79 4q28 -8 54 -19.5t53 -21.5q16 -7 34 -12.5t36 -2.5q6 7 8 12.5t3 12.5q11 29 30 59q9 13 15 20 q10 12 19 16q3 2 12 2q10 -2 18 -7t16 -11q8 -8 9.5 -19.5t1.5 -22.5t-6 -19.5t-14 -16.5q-5 -4 -10 -10t-13 -9q-7 -3 -16 -13q-5 -5 -18 -12q-11 -5 -23 -12q-10 -7 -11 -12l-13 -32q-1 -6 -8 -20q-4 -6 -6 -11.5t-2 -14.5q0 -4 -4 -8q-9 -15 -9 -38q2 -13 14 -23l10 -8 q4 -3 0.5 -5.5t-7.5 -4.5q-6 0 -19 4q-4 1 -8.5 5t-7.5 7q-5 6 -14 15q-7 -3 -14.5 -7.5t-15.5 -7.5q-11 -6 -17 -5.5t-15 8.5q-3 3 -4.5 6t-5.5 5q-27 18 -19 51q0 3 0.5 6.5t-2.5 6.5q-8 -1 -20 -15q-5 -6 -10 -12.5t-10 -11.5t-11 -9t-12 -7q-11 -6 -22 6q-10 16 -9 33 q5 26 15 47q-3 5 -8 0l-35 -36q-13 -13 -22 -24.5t-19 -23.5l-4 -3q-7 -8 -15 0q-11 12 -7 30q4 11 6 22t10 20q3 3 5.5 8t5.5 9v8q-18 -11 -31 -30q-8 -9 -15 -19t-17 -18q-11 -11 -17 -23q-7 -7 -13.5 -12t-16.5 -2q-19 5 -19 24q-1 3 -1.5 6t-2.5 6l-14 -12l-14 -14 q-8 -8 -16 -16.5t-18 -14.5q-6 -2 -12 1q-3 2 -7 4.5t-7 5.5q-11 13 -13 29zM114 700q-3 -10 2 -13q3 0 7.5 4.5t7.5 6.5q5 6 11 11q7 6 12.5 12.5t10.5 13.5q3 6 7 10.5t7 9.5l8.5 8.5t8.5 9.5q2 8 -2 20q-11 -3 -18 -10q-6 -5 -11 -11t-11 -13q-11 -9 -20 -20.5t-16 -25.5 q-1 -3 -4 -13zM170 585v4q0 1 1 2q7 3 13 5.5t12 5.5q23 8 46 13.5t46 7.5q25 3 50 2.5t51 -0.5q32 -2 63 -8t62 -18q3 -2 7.5 -3.5t3.5 -4.5q0 -2 -2 -2q-6 -4 -12 2q-37 8 -84 11q-21 2 -42 0t-42 -2q-25 -1 -48 -4.5t-46 -6.5q-18 -4 -34 -8t-34 -2q-5 0 -6 2z M269.5 570.5q2.5 2.5 5.5 3.5q9 5 20 6t22 1q12 0 23 -1t23 -3q15 -3 22 -6q3 -3 6.5 -4t6.5 -4q5 -4 3 -6q-1 -3 -10 -1.5t-13 1.5q-7 3 -14.5 2.5t-15.5 -2.5q-30 -5 -58 5q-10 3 -18 3l-2 1q-3 2 -0.5 4.5zM521 686q0 -3 1 -5t1 -3h6q7 6 11 9q15 18 33 33q15 12 18 32 q-5 11 -13 15.5t-16 7.5t-14 -5q-8 -21 -15.5 -41t-11.5 -43zM664 856q1 0 13.5 5.5t21.5 10.5q16 8 19 31q2 14 -13 22q-30 -24 -41 -69z" />
<glyph unicode="'" horiz-adv-x="122" d="M42 979q0 6 1 11q4 9 4.5 20t4.5 24q0 11 13 14q9 0 21 -8q2 -1 2 -6l-4.5 -18t-6.5 -16q-3 -6 -3 -18q-1 -14 -6 -25q0 -3 -2.5 -4.5t-5.5 1.5q-11 3 -14.5 7.5t-3.5 17.5z" />
<glyph unicode="(" horiz-adv-x="372" d="M32 581q2 24 6.5 48t11.5 49q3 9 6.5 19t5.5 20q3 18 11.5 33.5t17.5 30.5q18 34 36 67.5t38 65.5q10 16 20.5 29.5t21.5 28.5q5 8 13 13q10 11 19.5 22t21.5 20q3 3 5.5 7.5t5.5 7.5q20 13 27 31q8 11 25 8q8 0 12 -5.5t1 -12.5q-7 -14 -19 -29q-12 -16 -25 -29.5 t-23 -30.5q-6 -6 -8 -11q-11 -26 -27.5 -48t-33.5 -44q-7 -8 -11 -15.5t-9 -15.5q-13 -18 -22.5 -38.5t-17.5 -40.5q0 -3 -1 -6t1 -6q3 -20 -4 -35t-15 -33q-7 -18 -22 -40q-3 -7 -3 -8q0 -13 -5.5 -24.5t-9.5 -24.5q-9 -22 -5 -44q4 -9 3 -19t-1 -21q0 -3 -1.5 -5.5 t-3.5 -6.5q-6 -3 -9 0q-13 10 -15 17q-8 18 -13.5 36.5t-4.5 39.5z" />
<glyph unicode=")" horiz-adv-x="338" d="M32 485q4 14 11 26l4 3q12 7 19 17.5t13 21.5q11 18 21.5 34.5t21.5 33.5q19 39 39.5 78t39.5 81q3 4 5.5 8.5t5.5 9.5l19 42q10 23 17.5 43t15.5 41q3 6 3 11q3 28 9.5 54.5t3.5 54.5q0 6 3 7q6 7 10 4q3 -2 4 -5t2 -5q2 -3 3.5 -6t3.5 -6q3 -11 1 -14 q-3 -16 -4.5 -30.5t0.5 -29.5q0 -5 -2 -9.5t-2 -9.5q-3 -9 -3.5 -19t-2.5 -21l-6 -26t-9 -26q-5 -13 -9 -25t-10 -25q-13 -25 -20 -49q-4 -18 -14 -32q-12 -19 -21 -44q-5 -11 -10.5 -22.5t-14.5 -22.5q-21 -29 -37 -57q-12 -20 -27.5 -37.5t-30.5 -35.5q-7 -9 -15.5 -15.5 t-16.5 -14.5q-5 -5 -10 -5h-2q-6 2 -7 10.5t-1 11.5z" />
<glyph unicode="*" horiz-adv-x="319" d="M50 945q-5 20 10 24q3 3 8 3t8 4q5 1 11.5 2.5t9.5 8.5q-6 1 -11 2.5t-10 3.5l-14 6q-5 6 -2 17q6 14 19 13l51 -10q3 8 5 14t6 12q12 21 29 0q5 -5 11 -18q8 0 10 4.5t5 7.5l37 42q3 1 4.5 2.5t5.5 1.5q7 0 9 -1q5 -5 6 -10q-4 -6 -6.5 -12.5t-5.5 -11.5 q-13 -13 -20.5 -26.5t-15.5 -26.5q3 -8 7.5 -8.5t9.5 -1.5q8 -3 15.5 -5t16.5 -5q14 -7 13 -20q-8 -9 -18 -9t-19 -3q-4 -2 1 -11.5t7 -11.5q1 -3 -0.5 -12t-9.5 -7q-11 3 -21.5 9.5t-20.5 9.5q-3 -11 -0.5 -20t5.5 -17q2 -8 0 -16t-12 -13q-13 4 -16 18t-12 24 q-5 3 -14 -2.5t-14 -4.5q-3 0 -3 7t1.5 14t3 13t0.5 6q-4 1 -14 1q-13 0 -24 -0.5t-24 -0.5q-16 0 -18 14z" />
<glyph unicode="+" horiz-adv-x="266" d="M32 820q2 11 13 12q8 0 14.5 0.5t14.5 0.5q10 0 19.5 1t21.5 1q-2 13 -3 27.5t3 27.5q1 6 8 13.5t14 10.5q2 2 4 2q4 0 7.5 -5t4.5 -11.5t1 -14v-10.5q2 -11 2 -20.5v-21.5q12 0 27 2t27 -2q6 -1 14.5 -8t11.5 -14q0 -7 -5 -10q-6 -5 -16.5 -5.5t-18.5 -0.5 q-11 -3 -21 -2.5t-21 0.5v-9v-3q0 -9 -2 -14v-6q4 -5 3 -13.5t-4.5 -16.5t-10 -13.5t-12.5 -5.5q-11 1 -12 13q0 8 -0.5 14.5t-2.5 14.5v41h-8h-3h-14h-7q-7 -3 -23 0q-3 1 -5.5 2t-5.5 4q-8 3 -12 6.5t-3 12.5z" />
<glyph unicode="," horiz-adv-x="128" d="M43 521q0 6 2 11q3 10 4 20.5t5 23.5q0 11 12 15q10 0 22 -9q1 -1 1 -6q-1 -8 -4 -18t-6 -16t-3 -17q-2 -15 -6 -25q0 -3 -2.5 -4.5t-5.5 1.5q-11 3 -15 7t-4 17z" />
<glyph unicode="-" horiz-adv-x="477" d="M81 807q9 10 19 10q11 0 22.5 1.5t22.5 1.5q26 2 50.5 2.5t50.5 -2.5h38q7 0 13 -1t12 -1q3 0 7.5 -0.5t7.5 0.5q18 4 31 -1q9 -3 18 -8t19 -8l3 -3q2 -2 2 -6t-4 -6q-3 -2 -5.5 -3.5t-5.5 -1.5q-19 3 -33 -9q-12 -8 -24 -3q-7 4 -18 1q-9 -3 -20 -0.5t-20 -2.5h-3 q-10 6 -19.5 3t-20.5 -1q-5 0 -9 -2q-13 -6 -25 -7t-25 2h-8q-8 -6 -17 -4.5t-17 3.5q-14 3 -26 20z" />
<glyph unicode="." horiz-adv-x="114" d="M32 560q0 13 10 25q6 8 16 2.5t16 -8.5l5 -5q3 -3 0.5 -7t-3.5 -7q-3 -9 -12.5 -14.5t-18.5 -1.5q-13 3 -13 16z" />
<glyph unicode="/" horiz-adv-x="304" d="M36 523q9 18 15 37t12 39q11 32 23.5 63t24.5 63q22 52 42 102.5t43 103.5q5 12 9.5 23.5t12.5 22.5q5 7 8.5 14.5t6.5 14.5q6 13 17 12q4 -8 9 -17.5t8 -16.5q2 -4 2 -12q-4 -11 -6 -22t-11 -19q-3 -4 -4.5 -9t-4.5 -8q-7 -20 -15 -38.5t-18 -35.5q-8 -13 -11 -28.5 t-6 -30.5q-2 -9 -6.5 -16.5t-8.5 -15.5q-3 -3 -5.5 -6.5t-4.5 -6.5q-3 -26 -16 -46t-21 -43q-1 -8 -8 -24q-1 -5 -1 -10t-4 -8q-4 -11 -10 -21.5t-11 -21.5q-6 -13 -13.5 -23t-20.5 -16q-8 -3 -14 -9t-12 -11q-8 8 -1 20z" />
<glyph unicode="0" horiz-adv-x="331" d="M32 652q0 18 1 36.5t7 36.5q7 18 8.5 35t3.5 35q5 63 29 121l24 55q5 16 21 22l15 10q14 15 37 8q18 -3 33.5 -7t32.5 -9q10 -3 18 -4q14 0 22 -7t11 -19q9 -23 4 -45q-4 -37 2 -69q3 -13 -2 -33q-3 -6 -3 -11q-1 -35 -12.5 -68.5t-21.5 -66.5q-4 -20 -14 -38.5 t-20 -36.5q-24 -40 -74 -61q-16 -5 -32 4q-7 4 -13 6t-12 5q-27 13 -42 41q-3 10 -9 19.5t-10 18.5q-4 15 -4 22zM97 733q0 -3 1 -5.5t1 -6.5v-11q-14 -45 11 -91l5 -12q19 -52 67 -22q4 2 5 4t4 5q16 14 26 32.5t18 40.5l29 77l5 20q1 9 1 19v20q3 9 -5 17q-12 18 -13.5 36 t6.5 35q6 18 2 31t-17 26q-10 -5 -15.5 -11t-3.5 -20q0 -12 -13 -21.5t-25 -12.5q-18 -5 -18 18q-1 8 -1 24q-7 0 -7 -1q-11 -19 -20 -35.5t-12 -37.5q-2 -5 -3.5 -10.5t-4.5 -10.5q-8 -12 -12 -31q-1 -18 -4.5 -33.5t-6.5 -32.5z" />
<glyph unicode="1" horiz-adv-x="363" d="M32 803q0 12 10 15q28 8 51 23t49 28q5 2 12 8q14 9 25.5 20t24.5 23l57 57q8 8 15.5 18t16.5 19q8 2 16.5 3t17.5 -6q10 -6 5 -14t-6.5 -15.5t-4.5 -15.5q-5 -14 -14 -31q-6 -12 -10.5 -25t-8.5 -28q-3 -15 -7.5 -29.5t-16.5 -27.5q0 -2 -1 -2t-1 -1q-8 -22 -20 -41 l-24 -38q-3 -8 -9 -15q-13 -12 -27 -34q-9 -14 -19.5 -28t-18.5 -30q-8 -13 -13 -27.5t-11 -27.5l-12 -19q5 -8 6.5 -15.5t-6.5 -15.5q-9 -10 -19 -8q-18 0 -23 13q-3 6 -3 19q3 19 6.5 38.5t11.5 37.5q11 23 20 44t19 42q2 1 2 3q19 34 35 68.5t41 67.5q3 6 7 11t0 13 q-4 2 -6.5 -0.5l-5.5 -5.5q-5 -7 -10 -13.5t-12 -11.5l-11.5 -11.5t-14.5 -8.5q-19 -7 -36.5 -16.5t-35.5 -17.5q-8 -3 -14.5 -5t-15.5 1q-11 1 -11 12z" />
<glyph unicode="2" horiz-adv-x="417" d="M32 604q4 6 4 9q3 10 7 18t12 14q3 2 3 3.5t2 3.5q14 20 31 33.5t35 26.5q16 11 31 26q13 12 28.5 23t27.5 23q13 10 18 17q12 10 21.5 20.5t20.5 19.5q13 13 24.5 27t20.5 29q10 14 18 28t16 29q-4 5 -6 5q-21 6 -42 9.5t-43 -3.5q-10 -4 -20.5 -8t-16.5 -15q3 -7 4 -8 q10 -13 8 -22q-1 -6 2 -12q8 -18 -8 -34q-3 -3 -5 -7q-11 -20 -35 -26q-4 0 -7.5 -1.5t-6.5 -2.5q-1 0 -3.5 0.5t-5.5 0.5q-13 2 -19 9t-11 18q-7 20 0 35.5t17 31.5q2 3 4 5t4 5q6 6 8 9q-21 13 -42 11q-20 0 -34 -14l5 -9q0 -11 -8 -12q-10 0 -10 10q-4 36 30 43 q10 4 20.5 4t20.5 -5q10 -3 20 -3t19 -9l44 23q9 5 19.5 9t21.5 6q2 0 2 1t2 1q15 3 31 0.5t32 -6.5q8 0 14 -4t12 -7q14 -6 20 -23q3 -8 4.5 -15t-3.5 -15q-12 -52 -53 -97l-20 -21q-13 -15 -27.5 -28.5t-31.5 -23.5q-7 -3 -17 -16q-13 -19 -28 -28q-9 -8 -20 -13.5 t-20 -14.5q-14 -11 -29.5 -21.5t-32.5 -23.5q2 0 -3 -4q20 -5 37 -15t34 -19q26 -13 54 -16t55 4q7 2 11.5 4.5t9.5 5.5q5 2 12 8q4 5 4 6q-1 11 7 19.5t5 19.5q0 6 3 17q3 4 9.5 4t9.5 -4q7 -12 2 -19q-2 -3 -3.5 -7t-1.5 -7q0 -23 -10.5 -37.5t-27.5 -25.5 q-61 -44 -128 -13q-26 11 -57 28q-16 9 -29 6t-27 -12q-3 -1 -5 -6t-6 -8q-3 -6 -9.5 -5.5t-9.5 7.5zM156 882q-4 -8 2.5 -17t16.5 -9q27 3 41 18q2 8 3 17t1 17q-7 11 -26 19q-18 -6 -24 -19t-14 -26z" />
<glyph unicode="3" horiz-adv-x="413" d="M35 445q-7 12 1 29q1 23 11 40.5t23 35.5q11 12 24 20.5t31 6.5q24 -3 40.5 -20t4.5 -47q-2 -5 -10 -13q-21 -14 -42 -32q0 1 -7 -2v11q5 8 9.5 17l9.5 19q3 4 6 9.5t6 9.5q5 10 -3 18q-5 6 -16 4q-18 -3 -25 -14t-14 -24q1 -11 -3.5 -20.5t-6.5 -18.5q2 -8 4.5 -14.5 t10.5 -9.5q8 -4 17 -8t20 0q15 3 27 5.5t25 12.5q24 8 41 25t35 34q16 14 27 40q3 11 10 20.5t10 22.5q3 11 4 22.5t1 24.5q1 40 -23 78q-5 6 -10.5 7t-13.5 1q-13 0 -18 -2q-20 -8 -40 -10.5t-36 -15.5q-9 3 -10 8.5t-5 12.5q5 7 9.5 12.5t7.5 11.5q3 8 17 15q18 8 34.5 16 t31.5 18q11 8 21 18t21 19l43 55q9 12 13 31q4 22 -10 37q-9 10 -29 18q-14 8 -36 1q-9 -3 -19 -4.5t-16 -12.5q6 -16 8.5 -32.5t-3.5 -33.5q-4 -13 -11 -22t-16 -18q-7 -8 -17.5 -16t-23.5 -11q-22 -8 -50 0q-5 8 -9.5 15t-7.5 16q5 18 15 31.5t18 26.5q8 14 18.5 26 t21.5 26q-3 8 -8 8.5t-11 2.5q-18 0 -10 15q4 11 8 14t15 0q3 0 8 -1.5t10 -3.5q8 -3 20 -13q15 5 29 9t27 8q26 6 48.5 -2t41.5 -24q13 -13 16 -27.5t7 -31.5v-19q0 -23 -13 -35q-8 -8 -12.5 -15.5t-8.5 -15.5q-4 -7 -13 -17q-13 -12 -26 -23t-26 -23q-2 -2 -2 -3.5 t-3 -3.5q5 -6 11 -8.5t12 -6.5q11 -6 20 -20q9 -16 14 -34t8 -36l-2 -12q-3 -14 -3 -28.5t-3 -28.5q0 -8 -3 -12q-10 -25 -22 -40q-3 -8 -7 -13q-7 -3 -9 -9t-6 -12q-8 -23 -24 -31q-3 -2 -6 -8q-10 -11 -18.5 -22t-17.5 -20q-14 -14 -30.5 -27t-37.5 -19q-26 -6 -52 7 l-39 21q-9 6 -13 9q-8 13 -15 25zM136 854q3 -14 16 -8q19 8 30.5 20t22.5 27q13 15 12 29.5t-15 31.5q-6 -6 -11 -12.5t-13 -10.5q-13 -10 -20.5 -23t-15.5 -26q-5 -7 -5.5 -13t-0.5 -15z" />
<glyph unicode="4" horiz-adv-x="429" d="M32 727q-3 12 3.5 22t16.5 18q11 8 20.5 17t19.5 19q26 24 43 52t25 64q5 23 2 50q-3 13 5 22l2.5 5t5.5 1q6 0 9 -7q5 -8 6 -18q1 -9 1 -19v-19q0 -14 -4.5 -27.5t-8.5 -26.5q-8 -20 -16 -42q-5 -9 -10 -19t-13 -18q-5 -5 -9 -12.5t-12 -15.5q7 -3 10 -4.5t6 -1.5 q18 -3 35 -10.5t35 -7.5l3 3q8 23 19.5 41.5t22.5 38.5q9 18 18 34t17 34q10 16 23 32q8 13 14 23.5t14 21.5q8 13 16 24.5t16 23.5q10 10 18 2l12 -9q1 -4 1 -8q-3 -8 -2 -15t1 -13q-2 -8 -3.5 -15.5t-7.5 -15.5q-4 -6 -7.5 -14t-6.5 -17q-13 -32 -37 -54q-8 -6 -14 -15.5 t-11 -18.5l-26 -49q-3 -8 -4.5 -16t-4.5 -17h15q8 0 17.5 1t17.5 3q8 0 13 -2.5t10 -5.5q3 -3 3 -8t-5 -8q-3 -2 -9 -2q-13 -1 -23.5 -3t-20.5 -5l-37 -8q-6 -7 -10.5 -13t-7.5 -16q-2 -10 -6 -19t-7 -19q0 -3 -1.5 -4.5t-3.5 -4.5q-3 -3 -5.5 -8t-4.5 -10q-3 -10 -7 -19.5 t-9 -19.5q-4 -9 -8.5 -19t-7.5 -20q-7 -19 1 -30q3 -5 -1 -10q-5 -5 -13 -2q-8 7 -14 13t-9 17q-11 32 -1 69q8 23 16 45.5t21 44.5l13 25q-8 8 -15.5 8.5t-15.5 6.5q-11 6 -21.5 7t-23.5 4q-10 1 -26 -2t-24 -15q-5 -11 -18 -8q-13 4 -15 14z" />
<glyph unicode="5" horiz-adv-x="470" d="M43 589q-24 55 7 105q5 7 9 13t9 14q28 37 73 33q11 0 21 -5q8 -5 15 -11t16 -13q5 -1 8 -10v-37q0 -2 -2 -3q-13 -19 -28 -34t-38 -20q-7 5 0 15q8 8 15.5 16t15.5 16q18 23 0 47q-12 11 -23 12q-11 0 -21 -2t-18 -8l-29 -27q-3 -3 -3 -4q-5 -16 -10 -31.5t-3 -33.5 q5 -32 34 -45q21 8 41 10.5t39 -15.5q20 0 38 14q19 13 37.5 27t33.5 32q12 14 20.5 28.5t11.5 34.5q2 13 3.5 27.5t5.5 27.5q1 25 -9 52l-12.5 25t-18.5 24q-9 9 -17 11q-13 1 -24.5 1t-24.5 -8q-8 -4 -16.5 -7.5t-17.5 -7.5q-8 -4 -16 -9t-16 -8q-7 -3 -12 -3 q-21 11 -14 34q3 11 5.5 21t8.5 19q4 6 12 25.5t17.5 38t22 27.5t23.5 -7q9 -11 20.5 -14.5t25.5 -1.5q29 0 57 5q16 3 23 6q11 6 21 13t21 15l26 16q20 0 26 -11q8 -15 3 -34q-3 -8 -9 -12q-8 -4 -15.5 -9.5t-15.5 -8.5l-52 -19q-6 -3 -21 -3h-60q-8 2 -14.5 3.5t-14.5 4.5 q-14 6 -26 -5l-5.5 -5.5l-5.5 -5.5q-3 -4 -3 -8t-3 -10q8 0 13.5 -0.5t8.5 0.5q8 3 14.5 3h14.5q23 3 40 -6.5t33 -25.5q27 -28 38 -62q7 -16 9 -31t-3 -34q-5 -21 -11 -41t-14 -39q-6 -14 -14.5 -28t-20.5 -27q-13 -11 -23.5 -24.5t-24.5 -20.5q-21 -15 -40.5 -28 t-45.5 -16q-15 -1 -28 0q-8 3 -14.5 2.5t-13.5 5.5q-5 5 -12 5q-15 0 -23 9t-19 17q-2 1 -2 3.5t-2 5.5q-3 5 -7 15z" />
<glyph unicode="6" horiz-adv-x="392" d="M32 675.5v29.5q2 13 3 24.5t4 22.5q1 8 3.5 15.5t5.5 15.5l31 58q18 36 44 62q11 13 22 24.5t22 22.5q26 29 63 43q9 5 19 8.5t18 8.5q13 8 24.5 6t23.5 -8q13 -6 23 -17t20 -23q3 -4 3 -9q2 -16 1 -31.5t-7 -30.5q-10 -23 -18 -31q-7 -5 -13.5 -10t-17.5 -8 q-8 -3 -13 0.5t-5 12.5q-3 16 10 29q16 14 19.5 20t7.5 25q0 5 -1 7q-13 14 -23.5 14.5t-28.5 -10.5l-7 -4q-14 -18 -30.5 -33.5t-29.5 -34.5q-6 -10 -11.5 -18t-12.5 -16q-13 -20 -23.5 -41t-21.5 -42q-5 -11 -10.5 -20t-9.5 -22q-3 -13 -5.5 -26t-5.5 -25q-3 -8 -3 -16.5 v-16.5q-2 -6 -2 -24q3 -7 8 -14.5t14 -10.5q4 -1 15 -1q-3 6 -4 10q-15 18 -18.5 37t0.5 40q1 20 21 39q29 26 69 34q16 5 31.5 1t28.5 -12q15 -10 19 -23t1.5 -28t-9.5 -30t-14 -26q-4 -8 -11 -14.5t-13 -14.5q-18 -18 -39 -29.5t-43 -20.5q-28 -12 -49 6q-16 14 -30.5 30 t-29.5 31q-13 16 -13 36q-2 14 -2 28.5zM150 616q5 -14 20 -12q5 0 11 3q16 8 32 8q9 0 20 8q23 21 27.5 48.5t-27.5 41.5q-20 0 -32.5 -7t-24.5 -19q-6 -6 -11 -13t-9 -15q-13 -20 -6 -43z" />
<glyph unicode="7" horiz-adv-x="391" d="M34 576q13 48 36.5 90.5t54.5 79.5q5 6 14 16q23 37 49.5 70.5t58.5 65.5q10 11 19 23.5t15 24.5q-3 7 -8.5 7h-10.5q-23 -3 -43 -1.5t-41 4.5q-14 3 -19 -11q-3 -10 -6.5 -19.5t-7.5 -20.5q-4 -23 -29 -20q-6 0 -12.5 -1.5t-9.5 4.5q-5 8 -2.5 14.5t5.5 14.5t7 15t9 14 q3 8 7.5 15t4.5 16q0 14 17 18q11 7 23 4q26 -8 52 -7t52 -2q15 -2 38 7q13 3 23 -1.5t21 -8.5q6 -3 7 -11.5t-2 -16.5q0 -2 -2 -2.5t-2 -2.5q-6 -24 -20 -45t-28 -40q-11 -13 -12 -28q0 -8 -5.5 -13t-10.5 -8q-19 -18 -30 -37q-5 -11 -11.5 -20t-14.5 -19q-14 -20 -16 -37 q-3 -28 -22 -43q-6 -7 -10 -13.5t-12 -11.5q-19 -20 -35 -48q-7 -13 -15 -15t-11 -7.5t-8 -9.5q-8 -13 -2 -23q2 -5 2 -13q-5 -13 -18 -12q-8 0 -19 13t-15 21q-10 14 -5 31z" />
<glyph unicode="8" horiz-adv-x="323" d="M32.5 561.5q-1.5 6.5 0 16t3.5 24.5q3 13 6 17q13 25 27.5 48t37.5 43q6 5 12 11l12 12q10 10 6 22l-6 22q-5 18 -11.5 34t-11.5 34q-11 26 -8 61q3 21 14 36t25 29q6 6 18 5l24 -5q0 48 37 66q8 5 12 3q16 -4 31 -11t19 -27q11 -13 11.5 -29.5t1.5 -32.5q0 -28 -12 -50 q-8 -19 -23 -38q-7 -7 -12 -15t-8 -19q-2 -6 -6.5 -10.5l-9.5 -9.5q-29 -23 -24 -63q0 -13 1.5 -23.5t2.5 -22.5q0 -16 -3 -22q-6 -14 -10.5 -29t-7.5 -30q-3 -11 -8 -20t-13 -17t-16 -17t-16 -17t-18 -11t-21 -5q-6 -2 -19 5q-4 2 -6 3.5l-6 4.5q-12 8 -18 14.5t-7.5 13z M73 605q-7 -14 3 -28q3 0 5.5 1t6.5 -1q18 -3 27 10l5 5l5 5q12 11 16 29q6 36 4 72q0 6 -4 7q-2 0 -3 -0.5t-2 -0.5q-10 -13 -20.5 -23.5t-18.5 -24.5q-8 -12 -13 -25t-11 -26zM157 841q5 -29 24 -48q13 18 26 35.5t26 35.5q10 13 18 26t11 27q13 44 -16 78q-8 11 -19 13 q-7 0 -12 -4.5t-8 -10.5t-3 -11.5t6 -9.5q3 -1 12 -1q9 -3 7 -10.5t-1 -14.5q0 -7 5 -12t8 -14q3 -15 -8 -22q-8 -3 -16 0t-15 8q-8 5 -15.5 9t-15.5 -1q-4 -3 -6.5 -8l-4.5 -9q-8 -30 -3 -56z" />
<glyph unicode="9" horiz-adv-x="346" d="M34 892q6 17 14 35q7 15 18 29q11 16 31 26q11 5 21 11t21 12q16 11 37 6q13 -5 26 0q5 2 10.5 2h11.5q7 0 12 -5q14 -13 29.5 -25t27.5 -30q3 -3 5.5 -8t4.5 -10q7 -27 10.5 -53t-4.5 -53q-3 -8 -4 -14t-4 -12q-14 -33 -31.5 -64.5t-34.5 -62.5q-5 -8 -11 -14.5 t-11 -12.5q-8 -10 -15.5 -19t-16.5 -20q-8 -8 -14.5 -15.5t-14.5 -15.5l-44 -47q-1 -1 -1 -2t-2 -2q-9 -8 -26 3v3q3 8 4 17t6 17q8 13 17 23.5t19 21.5q5 6 9.5 12t7.5 14q8 14 15 29t18 28q6 8 9.5 17.5t8.5 18.5q3 4 4.5 9t4.5 9q11 13 18.5 29.5t15.5 32.5q3 6 3 8 q-1 18 3 34.5t5 33.5q2 26 -6 57q-5 24 -29 26q-39 6 -75 -12q-18 -8 -29 -22.5t-19 -31.5q0 -4 -0.5 -5.5t-0.5 -4.5q0 -9 0.5 -18.5t2.5 -19.5q1 -8 16.5 -22.5t23.5 -16.5q3 0 10 4q6 3 12 6.5t11 6.5q29 21 30 50q0 16 -13 13q-5 0 -9.5 -0.5t-11.5 -2.5h-13 q-5 0 -6.5 5t1.5 8q7 8 15 14q20 8 31 5.5t22 -13.5q25 -21 17 -57q-10 -37 -41 -48q-12 -6 -24 -10t-23 -10q-13 -5 -25 -1.5t-23 8.5q-8 3 -17 7t-14 14q-3 6 -10 8q-10 6 -10 20q0 7 -1 11q-11 19 -5 36z" />
<glyph unicode=":" horiz-adv-x="242" d="M81 755q0 14 10 28q6 8 15.5 2.5t16.5 -10.5q2 0 5 -3t0.5 -8t-3.5 -9q-3 -8 -13 -13.5t-18 -2.5q-13 4 -13 16zM81 820q0 16 10 26q6 8 15.5 2.5t16.5 -8.5l5 -3q3 -4 0.5 -9t-3.5 -8q-3 -8 -13 -13.5t-18 -2.5q-13 3 -13 16z" />
<glyph unicode=";" horiz-adv-x="255" d="M84 712q0 6 2 11q3 9 4 20t4 24q0 11 13 14q9 0 21 -8q2 -1 2 -6l-4.5 -18t-5.5 -16t-4 -18q-1 -14 -6 -25q0 -3 -2.5 -4.5t-5.5 1.5q-11 3 -14.5 7.5t-3.5 17.5zM88 820q1 8 2.5 14.5t6.5 11.5q6 8 16 2.5t17 -8.5l4 -3q3 -4 1 -9t-4 -8q-3 -8 -12 -13.5t-19 -2.5 q-12 3 -12 16z" />
<glyph unicode="&#x3c;" horiz-adv-x="315" d="M32 795q4 14 16 19q22 11 40.5 24.5t41.5 22.5q18 5 35 14.5t36 17.5q15 6 32 18q6 3 15.5 10.5t16.5 2.5q8 -5 13 -13q10 -16 -5 -28q-12 -12 -32 -20q-16 -8 -31.5 -14t-31.5 -12q-14 -5 -29.5 -8.5t-30.5 -11.5l-5.5 -5.5l-5.5 -5.5q-4 -2 -4 -5t4 -6q4 -5 11 -8.5 l13 -6.5q18 -8 33 -15.5t32 -15.5q8 -3 15 -7t16 -7q6 -3 12.5 -6.5t9.5 -11.5l10 -15q2 -4 3.5 -8.5l2.5 -7.5q4 -8 0 -24q0 -3 -1 -6q-3 -6 -10.5 1.5l-10.5 10.5q-12 11 -27 21q-14 8 -28.5 14.5t-28.5 14.5l-111 54q-18 6 -16 23z" />
<glyph unicode="=" horiz-adv-x="267" d="M32 799q2 5 3.5 8.5t9.5 3.5t14.5 0.5t14.5 0.5q33 3 65 0q18 -1 36 1t35 -1q6 -1 13.5 -8t11.5 -15q6 -14 -10 -14q-8 0 -14.5 -1t-14.5 -2q-18 0 -34.5 -1t-31.5 1q-7 1 -13 0.5t-12 0.5h-3h-14h-7q-7 -3 -23 0q-4 0 -11 7q-8 3 -12 6t-3 13zM32 859q2 11 13 12 q8 0 14.5 0.5t14.5 2.5q16 0 32.5 0.5t32.5 -0.5q18 -2 36 -0.5t35 -1.5q6 -1 13.5 -8t11.5 -15q3 -4 0.5 -9t-10.5 -5q-8 2 -14.5 0t-14.5 -2q-18 -1 -34.5 -0.5t-31.5 0.5h-25h-3q-10 0 -14 2h-7q-5 -3 -10.5 -2.5t-12.5 2.5q-6 0 -11 5q-8 3 -12 7t-3 12z" />
<glyph unicode="&#x3e;" horiz-adv-x="318" d="M37 911q5 8 13 13q8 4 17 -3t15 -10q16 -11 33 -18q18 -8 35.5 -17.5t35.5 -14.5q23 -8 41.5 -22t39.5 -25q13 -5 16 -19q1 -16 -16 -23l-110 -54q-14 -8 -30 -14t-28 -15q-8 -5 -15 -9.5t-13 -11.5q-3 -3 -9.5 -10.5t-9.5 -1.5l-4 6q-3 13 2 24q3 9 7 16l9 15q4 7 10 11 t13 7q8 3 15 7t16 7q16 8 31.5 15.5t32.5 15.5q6 3 13 6t12 9l3 6q0 2 -3 5q-4 5 -13 11q-13 8 -29.5 11.5t-29.5 8.5q-15 6 -30.5 11.5t-32.5 14.5q-19 8 -32 20q-14 11 -5 28z" />
<glyph unicode="?" horiz-adv-x="458" d="M32.5 984.5q-1.5 10.5 1.5 15.5q5 16 21 31l10 5q11 9 22.5 8.5t23.5 -5.5q11 -6 21 -12t24 -13q3 2 6 3t6 4l14 8q25 19 52 21.5t56 -2.5q55 -9 99 -49q12 -11 20 -24.5t17 -26.5q5 -8 1 -17l-10 -53q-3 -12 -8 -26t-17 -22q-6 -6 -10 -12q-13 -27 -34 -45.5t-47 -34.5 q-9 -6 -18.5 -13t-18.5 -15q-10 -8 -21.5 -14.5t-22.5 -12.5q-7 -7 -14.5 -11.5t-14.5 -12.5q-8 -5 -12 -15v-2q-1 -4 1 -6.5t4 -7.5q3 -8 -5 -13q-8 -4 -11.5 -1.5t-10.5 5.5q-12 8 -13 26q3 28 11.5 52t28.5 46q18 18 39 35.5t41 33.5q14 13 25.5 25t24.5 26q6 8 11 14 t12 13q18 18 21 45q0 16 1 24q2 25 -24 36q-6 4 -23 7q-21 6 -41.5 8.5t-42.5 -5.5q-24 -6 -42 -33q-3 -3 -3.5 -9t1.5 -9q6 -18 0 -32t-17 -27q-10 -14 -23 -28q-22 -22 -48 -16q-11 1 -17 13q-6 14 -4.5 29t7.5 27q5 13 12.5 24.5t15.5 23.5q5 4 10 10.5t8 14.5l-10 12 q-12 6 -29 6q-8 0 -13.5 -0.5t-10.5 -5.5q-5 -6 -6 -15.5t-7 -12.5q-3 -1 -5 -1t-5 -2q-8 0 -9.5 10.5zM100 883q0 -8 8 -5q14 4 25 17q6 10 11 20.5t12 23.5q4 9 -4 22l-11 -7q-8 -11 -18 -21.5t-18 -23.5q-8 -8 -5 -26zM116 547l6 13q3 10 14 10.5t16 -7.5q4 -6 8 -11 t5 -12q3 -8 -3 -13.5t-10 -12.5q0 -1 -5 -6q-10 -10 -19 2q-11 12 -12 37z" />
<glyph unicode="@" horiz-adv-x="580" d="M32 653q-3 30 2.5 57.5t17.5 55.5q13 32 29 59t37 53q4 4 5.5 6t4.5 4q34 26 65 53t69 44q8 3 15 5.5t16 6.5q13 3 24.5 5.5t22.5 5.5q14 8 28 7t30 -4l59 -14q14 -3 26 -10.5t25 -15.5q20 -16 29 -40q3 -11 6.5 -20.5t6.5 -19.5v-14q0 -48 -21 -86q-6 -11 -12 -21.5 t-14 -20.5q-3 -3 -5.5 -6.5t-5.5 -7.5q-12 -23 -32 -38.5t-41 -29.5q-8 -8 -22 -12q-42 -10 -59 28q-3 4 -3 9.5t-3 8.5q-2 8 -7 19q-18 -8 -33.5 -14.5t-27.5 -16.5q-13 -8 -27.5 -12t-29.5 -7q-16 -3 -28 6.5t-15 27.5q-4 9 0 19q4 23 10.5 44t19.5 40q20 30 50 56 q23 21 59 20q19 2 38.5 0.5t36.5 -8.5q22 -4 22 -23q0 -11 4.5 -19t7.5 -16q0 -18 -6 -28.5t-16 -19.5q-12 -15 -11 -31.5t-1 -33.5q0 -3 7 -6.5t10 0.5l16 8t15 11q12 12 23 27t20 28q7 8 11.5 17.5t10.5 17.5q7 16 7 30q4 37 -10 69q-6 18 -18 32.5t-30 22.5 q-34 15 -73 15q-24 0 -42 -11l-78 -40q-12 -6 -19 -11q-37 -28 -67 -63.5t-48 -78.5q-5 -10 -5.5 -20.5t-8.5 -18.5q-3 -1 -5.5 -15t-4 -29.5t-2.5 -30t1 -16.5q3 -9 6 -17.5t9 -16.5q10 -12 21.5 -24.5t24.5 -24.5q4 -5 13 -6q20 -3 38 -3t36 9q18 7 37.5 15t40.5 8 q-2 -24 -20.5 -39t-39.5 -20q-26 -6 -50.5 -9.5t-49.5 2.5q-23 6 -43 14.5t-37 28.5q-18 22 -29 44.5t-13 49.5zM215 733q-3 -3 2 -8t13 -4q8 2 19.5 4t22.5 8q18 8 33.5 19.5t31.5 22.5q11 10 19 23q5 14 -1 25q-8 8 -17 14t-20 3q-23 -5 -41.5 -15t-30.5 -34 q-3 -8 -9 -16.5t-10 -17.5q-3 -7 -6 -12.5t-6 -11.5z" />
<glyph unicode="A" horiz-adv-x="1019" d="M-48 633q0 58 25 103q18 30 36 57t39 55q8 8 15 17.5t15 19.5q-5 8 -8 21q-4 12 -4 24q0 24 16 46q3 3 6.5 7t6.5 7q4 6 11.5 5.5t11.5 -7.5q4 -8 6 -19q-6 -11 -13 -21.5t3 -25.5l15 10q19 13 38 29t38 30q9 8 19.5 12.5t21.5 12.5q11 6 23.5 5.5t25.5 -5.5 q15 -5 28 -11q8 -3 12 -10.5t7 -15.5q0 -3 1 -5.5t-1 -5.5q-5 -10 -9 -19.5t-8 -21.5l-4 -7q-18 -18 -38 -33.5t-46 -23.5q-11 -3 -23.5 -7t-24.5 -5q-18 -2 -31 -10.5t-23 -22.5q-11 -12 -20 -28.5t-19 -34.5q-9 -20 -18 -40.5t-19 -41.5q-16 -40 -16 -79q0 -3 1 -5 q3 0 4.5 -1t4.5 -1q23 13 44 27t38 36q6 8 14.5 16.5l16.5 16.5q12 14 24.5 28t25.5 30q4 3 5.5 8t4.5 10q5 18 16.5 33t20.5 30q8 12 18 23.5t18 26.5h21q13 0 20.5 -7.5t1.5 -23.5q-18 -38 -34 -82q-6 -14 -12.5 -30t-15.5 -31q-9 -20 -11.5 -38.5t-0.5 -40.5 q1 -29 31 -35q3 1 6 -0.5t6 0.5q20 3 40 5.5t40 10.5q13 5 22.5 8t20.5 8q19 8 36 15t34 16q14 8 29.5 14.5t32.5 14.5l83 39q28 13 55 23.5t56 20.5q32 11 65.5 20t67.5 20q9 4 19.5 4.5t20.5 2.5q29 3 57 8.5t57 5.5q17 3 23 -9q-6 -15 -21 -12q-20 4 -38 -1t-36 -9 q-22 -5 -40.5 -5.5t-37.5 -6.5q-24 -8 -49 -14t-49 -14q-28 -10 -56.5 -20.5t-56.5 -21.5q-7 -2 -12 -6q-20 -11 -41.5 -21t-42.5 -21l-66 -34q-18 -10 -37.5 -18t-40.5 -16q-19 -10 -38 -17q-26 -9 -51.5 -13t-51.5 -8q-31 -3 -55 9q-27 11 -39.5 31t-16.5 48q-2 1 -1 2.5 t-3 3.5v8q-8 1 -10 -2.5t-5 -7.5q-8 -18 -20 -29t-23 -24q-11 -12 -25 -22t-29 -22q-3 -4 -11 -4q-12 -2 -24 -2q-21 0 -38 6q-27 13 -46 41q-8 11 -9.5 20.5t-1.5 23.5zM196 886h11q3 2 6 3.5t7 1.5q23 3 39.5 14.5t33.5 25.5q3 6 6 9l16 36q-6 0 -8.5 0.5t-3.5 0.5 q-5 -1 -9 -3.5t-10 -4.5q-12 -9 -26.5 -18t-27.5 -19q-6 -3 -10 -10.5t-8 -13.5q-3 -3 -7 -6.5t-7 -8.5q-2 0 -2 -7z" />
<glyph unicode="B" horiz-adv-x="821" d="M-194 1002q0 13 10 31h6q8 -7 7 -15q-4 -7 -4 -13q-3 -23 21 -34q8 -3 17 -6.5t21 -7.5v11q-3 18 4 33t16 28q7 8 16 13.5t17 13.5q7 4 15 4q5 0 11 -2q13 -7 22 -15.5t10 -23.5q2 -14 -3.5 -28t-19.5 -22q-3 -3 -8.5 -6.5t-8.5 -6.5q2 0 -2 -3q16 -3 28.5 2.5t26.5 9.5 q21 7 50 23q4 2 11 7t16 10t16 7t10 1q20 -13 19.5 -24.5t-8.5 -31.5l-15 -32q3 -5 4.5 -2.5t4.5 4.5q23 22 44.5 41t44.5 37q28 21 64 32q32 10 58 -13q5 -6 9 -13.5t7 -15.5q0 -1 1.5 -4t-1.5 -6q-3 -11 -5.5 -21.5t-8.5 -21.5q-11 -11 -22 -22.5t-23 -24.5q-6 -2 -9 -9 l-5.5 -5.5l-5.5 -5.5q-21 -14 -39 -29.5t-41 -23.5q-5 -4 -10.5 -8.5t-8.5 -9.5q16 -12 24.5 -18t12 -11t7 -11.5t9.5 -17.5q5 0 10 -1t8 -1l115 5q8 1 17 0.5t17 0.5q32 4 62 4t63 2q32 1 63 6t63 8q58 5 108 14q13 4 24.5 4.5t24.5 4.5q11 5 19 8t17 8q11 8 32 8l6 -3 q1 -1 1 -2q0 -2 -6 -6q-8 -5 -11 -7q-6 -7 -16 -13q-9 -3 -18.5 -7t-18.5 -7q-10 -5 -21 -6.5t-20 -4.5l-40 -11q-28 -3 -56 -7t-56 -7q-16 -3 -32 -3.5t-34 -5.5q-28 -7 -60 -7q-8 -3 -14.5 -2.5t-13.5 -4.5q-6 -1 -11 0q-14 2 -28 -0.5t-29 -5.5h-8h-49t-50 -2 q-15 0 -31.5 -2t-31.5 -4q-3 -3 -5.5 -8t-3.5 -8q-29 -57 -82 -99q-44 -33 -98 -50q-18 -3 -37 -3q-9 1 -19 1q-28 2 -56 15q-18 9 -26.5 23t-11.5 37q-4 9 0 17.5t10 16.5q8 8 14 15.5t14 13.5q13 5 17 14q13 28 22.5 52.5t20.5 47.5q4 7 7 20.5t10 17.5q14 32 34 64.5 t40 69.5l-43 -16q-14 -3 -22 -9q-21 -15 -47 -15q-7 0 -14 1h-6.5t-4.5 2q-8 5 -14 9t-11 7q-6 2 -12.5 2t-11.5 3q-11 8 -19 10q-22 7 -34 21q-18 15 -18 31zM-94 977.5q0 -6.5 3 -14.5q18 3 32 9.5t23 20.5q8 13 8 18t-8 14q-4 6 -9 6l-5 -2q-27 -12 -41 -38 q-3 -7 -3 -13.5zM-91 605q5 -20 18 -29q19 -19 44 -18q12 0 26 4q20 4 39 13t37 21l8 4q14 16 29.5 30.5t28.5 31.5q5 6 8.5 11t8.5 10q3 6 0 15h-9q-18 0 -35.5 -1t-35.5 -7l-74 -17q-13 -6 -24.5 -14.5t-19.5 -20.5q-8 -13 -12 -13t-19 8h-4q-8 -5 -11 -12.5t-3 -15.5z M13 717q12 3 25.5 5.5t24.5 5.5q14 4 28 6t29 4q13 1 25 1t28 2q-3 32 -31 42q-14 5 -31 3q-15 -2 -30 -2.5t-33 -3.5q-12 -11 -18 -26t-17 -27q-2 -2 -2 -4t2 -6zM79 825q12 -3 19 -2q1 -1 2 -1q7 0 16 5q18 6 34.5 15t30.5 19q18 13 33.5 25t28.5 26q30 31 60 68 q7 8 11 23q1 2 1 4q0 4 -6 6h-10q-11 0 -23 -4t-22 -9l-39 -29q-29 -23 -57 -48.5t-53 -56.5q-5 -8 -10.5 -15.5t-12.5 -15.5q-1 -3 -1 -4.5t-2 -5.5z" />
<glyph unicode="C" horiz-adv-x="747" d="M-65 652q2 12 2 23.5t3 23.5q3 21 10.5 39.5t17.5 36.5q12 23 30 44.5t38 43.5q18 19 37 38t40 36q18 13 36 24t35 24q18 12 40 12h7q7 -2 21 -2q6 -1 12 -3t12 -7q5 -6 12 -10t13 -9q13 5 26.5 10.5t28.5 8.5q23 5 42 3.5t42 -6.5q11 -2 18 -15t2 -24q-3 -6 -6 -5 t-5.5 4.5t-4.5 7.5t-4 6q-6 13 -26 13q-13 3 -26 3t-25 -6q-4 -1 -7.5 -1t-7.5 -4q-20 -7 -29.5 -11t-15 -8.5t-8.5 -14.5t-11 -29q-3 -11 -8.5 -20t-10.5 -17q-6 -8 -12.5 -17t-14.5 -17q-11 -11 -28 -13q-6 -2 -15 -2t-13 6q-4 5 -7.5 10t-3.5 17q10 30 36 53 q14 13 28.5 26t31.5 22q8 4 6.5 11.5t-9.5 10.5q-11 4 -21 1q-4 -1 -8 -1t-7 -3q-27 -19 -54 -36.5t-48 -45.5q-3 -5 -7 -9.5t-8 -9.5q-8 -9 -15 -19t-15 -20q-11 -11 -21 -26t-21 -29q-8 -23 -16.5 -44.5t-13.5 -46.5q0 -1 1 -2t1 -2q3 -13 2.5 -24.5t-0.5 -22.5 q1 -23 10 -30t32 -2q36 9 70 22q45 18 87 37.5t84 40.5q28 13 55 24.5t57 18.5l16 5q25 13 49 20.5t50 13.5q29 8 58 16.5t60 8.5q12 0 25 2t27 6q24 3 47.5 4.5t47.5 4.5q3 0 7 -1.5t6 -4.5q1 -2 1 -3q0 -3 -6 -5q-8 -2 -13 -5q-10 0 -22 -3q-23 -3 -45.5 -9t-47.5 -9 q-14 -2 -28 -3.5t-27 -4.5l-46 -10t-46 -12q-34 -11 -68 -23t-70 -25q-23 -8 -46 -21l-44 -22q-20 -10 -37.5 -19.5t-35.5 -20.5q-22 -12 -44 -23.5t-48 -19.5q-8 -2 -14 -4t-12 -6q-23 -9 -50 -9q-11 0 -20 1t-19 1q-47 1 -68 48q-10 19 -10 45zM198 849q-3 -4 -3 -7 q0 -5 6 -9h1q41 28 67 73q1 3 1 8q0 3 -1 3h-2l-3 2l-12 -7l-12.5 -12.5t-14.5 -13.5q-9 -8 -14.5 -17.5t-12.5 -19.5z" />
<glyph unicode="D" horiz-adv-x="937" d="M-110 916q-3 7 -2 14q0 9 4 18q3 6 11 10.5t15 0.5q11 0 14 -17q2 -5 -1.5 -9t-9.5 -2q-3 0 -6 1.5t-6 2.5q-6 0 -6 -4q3 -8 6 -15.5t14 -10.5q3 -2 5 -2t6 -2q19 -3 32 6.5t25 23.5q1 1 1 6q-9 6 -13 11q-13 13 -18.5 28t2.5 35q5 16 19 18q6 2 13 2h14q15 0 20 -13 q5 -12 9 -23t-1 -24q-1 -3 -2 -7.5t2 -9.5h11t12 2q13 5 24.5 10t22.5 13q1 0 4 3q8 11 13.5 19.5t8.5 9.5q3 3 5.5 8t6.5 10h11t14 -4q6 0 7.5 -4.5t-2.5 -9.5l-26 -54q-8 -15 -14.5 -29t-14.5 -28q5 0 8 3l29 26q31 36 78 61l32 18q23 13 50 17q11 4 24.5 -1.5t17.5 -15.5 q4 -6 6 -15t-1 -17q-3 -13 -7.5 -28.5t-4.5 -30.5q-3 -8 -7 -12t-7 -12q-8 -8 -12 -18.5t-9 -23.5q-5 -8 -10.5 -18t-13.5 -16q-8 -11 -14.5 -22t-14.5 -18q-5 -5 -8 -15q2 0 5 -1.5t6 -1.5q31 7 61.5 9t63.5 -1h22q22 0 44 1q34 2 65 2q28 0 56 1t55 2q23 3 45 3 q11 0 22.5 -1t22.5 -1q23 0 46 3q37 3 71 5t70 13q16 3 30.5 10t30.5 12q5 0 10.5 3t10.5 -3q1 -1 1 -2q0 -2 -4 -5q-5 -4 -8 -4q-11 -7 -24 -12.5t-26 -9.5q-8 -3 -17.5 -3.5t-17.5 -3.5q-33 -10 -67 -14l-68 -8q-35 -3 -69 -3h-70h-252q-36 0 -70 -4.5t-70 -12.5 q-6 0 -18 -8q-18 -16 -32 -34t-36 -31q-11 -13 -26.5 -22t-27.5 -17q-14 -12 -41 -18q-10 0 -17 -3t-15 -6q-12 0 -25 1.5t-25 1.5q-22 5 -22 24q0 15 -14 24q-6 3 -6 12q0 6 1.5 11t1.5 9q8 25 20 46.5t27 44.5q19 29 36 58t35 58q19 30 35 49q-31 -12 -62 -8 q-10 -7 -18 -14t-16 -13q-13 -8 -28 -11t-31 -1q-9 0 -16 5q-15 8 -21 23zM-24 977q6 -12 16 -16q8 -6 17 -8q22 31 2 58q-11 3 -18 -1t-14 -11q-4 -5 -4 -13q0 -4 1 -9zM-14 631q6 -3 12 -3q4 0 8 2q8 4 20 8q5 0 9 1.5t8 4.5q20 14 40 30t39 35l6 11h-6q-16 -3 -34 -5 t-36 -3q-9 -7 -16 -7q-13 -4 -18 -9.5t-10 -16.5q0 -7 -4 -12t-7 -12q-8 -5 -9 -10.5t-2 -13.5zM36 727q6 -3 8 -3h1q2 0 5 1q23 5 43 8t44 8q23 5 38 21l92 107q5 8 9 13.5t8 14.5q5 6 9.5 14t9.5 14q11 16 17.5 33t14.5 35q1 3 1 6q0 11 -15 15q-5 0 -10 -3t-8 -3 q-5 -3 -9 -4.5t-10 -3.5q-40 -18 -79 -47q-23 -16 -37 -32t-34 -35q-8 -8 -16 -15t-13 -17q-6 -8 -12.5 -16.5t-13.5 -19.5q-8 -6 -11 -19q-3 -6 -4.5 -12.5t-5.5 -9.5q-6 -13 -15 -27.5t-7 -22.5z" />
<glyph unicode="E" horiz-adv-x="774" d="M-81 645q4 23 11.5 39.5t22.5 33.5q20 21 39 40.5t42 37.5q2 0 6 5q-9 10 -22 16q-9 5 -14.5 11.5t-9.5 16.5q-11 26 4 50q16 25 41 47q4 4 9.5 9t11.5 8v10q-3 19 1.5 34t12.5 28q8 16 22 25.5t29 19.5q4 2 7 2q6 0 9 -7q6 -12 4.5 -18t-12.5 -14t-19.5 -18.5 t-16.5 -23.5q-1 -2 -1 -7q7 -2 11 1.5t8 5.5q48 31 95 42q8 3 18.5 4.5t18.5 4.5q23 0 41 -14.5t18 -36.5v-13q-7 -22 -18.5 -26.5t-25.5 -12.5q-32 -16 -64 -22q-21 -4 -43 -4q-11 0 -22 1q-15 2 -27 -4.5t-20 -14.5q-11 -11 -17.5 -22.5t-14.5 -22.5q12 -8 26 -10.5 t27 -0.5q12 3 26 3.5t27 3.5q13 0 28 -11q6 -6 0 -14q-9 -9 -15 -13q-16 -5 -29 -15t-26 -18l-30 -20q-13 -8 -25.5 -16.5t-22.5 -21.5l-11 -11q-23 -16 -33 -39t-17 -45v-9q-2 -19 18 -17q12 3 25.5 6t25.5 8q13 7 23.5 12.5t22.5 10.5q23 11 44.5 23.5t43.5 21.5 q33 14 64.5 25.5t63.5 25.5q31 11 62 17.5t60 14.5q18 5 34.5 9.5t35.5 7.5q58 15 116 20q27 3 55 6.5t55 6.5q23 3 44.5 4.5t42.5 -4.5q9 -3 9 -7t-15 -6q-23 -1 -39 -3t-38 -5q-28 -3 -55 -8t-54 -7q-16 0 -32.5 -2t-31.5 -6q-5 -1 -12 -1t-11 -2q-4 -3 -9.5 -3t-10.5 -1 q-13 -4 -27.5 -6.5t-28.5 -5.5q-28 -8 -58.5 -14.5t-58.5 -16.5q-28 -8 -53 -16.5t-51 -19.5q-12 -8 -25 -15t-26 -13q-13 -5 -25.5 -11t-25.5 -14q-19 -6 -40 -26q-18 -12 -35 -20.5t-34 -17.5q-13 -6 -24 -6h-3q-12 1 -25 6q-12 3 -20 7t-16 10q-14 13 -18 28q-3 12 -3 24 v6zM137 946q16 -3 31 -3q12 0 23 2q45 9 87 43q4 4 4 8q0 3 -2 7q-5 10 -14 10q-4 0 -8 -2q-4 -1 -7.5 -3t-4.5 -5q-10 -6 -20.5 -10.5t-21.5 -8.5l-23 -10q-16 -8 -44 -28z" />
<glyph unicode="F" horiz-adv-x="714" d="M-266 886q6 20 20 43q15 28 45.5 40.5t59.5 18.5q10 3 16 3q2 16 -3 33q-2 5 -2 12.5t4 11.5q2 3 5 3t6 -7q5 -11 7 -17q3 -3 4 -9.5t4 -14.5q4 -1 16 -1q28 0 54.5 0.5t53.5 -2.5q16 -3 32.5 -5t31.5 -5q32 -3 66 -8.5t66 -10.5q28 -5 59 -2.5t59 5.5q16 3 30.5 5.5 t28.5 7.5q18 8 25 19.5t13 29.5q5 8 9 2.5t4 -13.5q0 -21 -16 -37q-5 -4 -12.5 -10.5t-15.5 -9.5q-21 -18 -37 -24.5t-52 -9.5q-27 -2 -54.5 -2t-55.5 3q-7 0 -22 2.5t-30.5 5t-28.5 5t-16 2.5q-5 0 -9 -5q-2 -6 -5 -12t-5 -13q-3 -8 -4 -13.5t-4 -13.5q-5 -7 -8 -23t-3 -19 q-5 -11 -16.5 -45t-25.5 -74h94q19 0 37.5 2t38.5 2q22 2 44 2t42 1q44 4 88 4.5t86 3.5q13 2 25 2t25 3t25 5t26 4q12 0 25 4t27 7q13 3 24.5 5.5t23.5 5.5q34 8 61 28q3 1 6.5 3.5t9.5 3.5q3 4 11 -3q1 -1 1 -3q0 -3 -4 -8q-27 -26 -60 -32q-18 -6 -34 -11.5t-34 -8.5 l-84 -19q-18 -1 -34 -2t-30 -4q-18 -2 -37.5 -3t-38.5 -1q-23 0 -45 -2.5t-46 -2.5q-40 0 -78.5 -6.5t-78.5 -7.5q-50 -3 -108 -18q-8 0 -28 -5q-10 -32 -18 -54t-11 -25q-11 -20 -24 -38.5t-26 -35.5q-10 -13 -22 -24.5t-23 -23.5q-5 -4 -10 -5t-11 -3t-18 -2h-9 q-18 1 -27 4q-18 13 -25.5 28t6.5 38q9 25 24.5 46t33.5 39q41 43 90 80q2 2 16.5 12t21.5 16q3 8 6.5 16t6.5 17q8 24 17.5 46.5t16.5 44.5q0 6 3 10t5 10q9 21 16.5 42t15.5 42q-21 8 -40.5 9.5t-38.5 5.5q-21 1 -40.5 -1.5t-42.5 -5.5q0 -1 -1.5 -4.5t-1.5 -7.5 q-1 -15 -8.5 -28t-15.5 -26q-19 -37 -53 -51q-16 -8 -31.5 -8t-32.5 8q-24 11 -24 26q0 4 1 8zM-215 901q6 -11 15.5 -14.5t21 -1t20.5 10t14 15.5q7 19 16 37q3 9 0 13q-2 2 -6 2q-2 0 -8 -2l-15 -5q-8 -3 -15 -6.5t-16 -6.5q-12 -7 -24 -17q-7 -6 -7 -13q0 -6 4 -12z M-165 539q-1 -3 -1 -5q0 -4 4 -7q3 -2 8 -2q3 0 7 1q40 16 56 51q5 12 10 22.5t11 23.5q4 7 8 15.5t5 17.5q-13 -4 -20 -12t-14 -14q-18 -19 -33 -37.5t-30 -30.5q-11 -7 -11 -23z" />
<glyph unicode="G" horiz-adv-x="779" d="M-179 417q3 21 8.5 39t18.5 35q6 7 12 13.5t14 14.5q18 13 35 27t36 27q15 9 34 17.5t39 16.5q18 8 36.5 13.5t36.5 12.5q16 1 24 19q-5 3 -9 1.5t-7 -3.5q-25 -12 -57 -12q-18 1 -34.5 7.5t-31.5 14.5q-25 20 -24 50q0 14 1.5 28t4.5 28q11 32 25.5 61.5t39.5 54.5l9 15 q-3 1 -5.5 3.5t-5.5 4.5q-28 27 -28 62q0 9 2 18q3 14 9.5 29t18.5 23q1 10 19 21q5 3 10 3q8 0 18 -10q3 -3 1.5 -8.5t-6.5 -8.5q-3 0 -3 -0.5t-4 -0.5q-29 -10 -34 -42q-6 -12 -6 -20q-3 -18 3.5 -28.5t20.5 -20.5q3 0 5.5 -1.5t6.5 -3.5q8 2 13.5 7t8.5 8q21 25 54 37 q12 8 25 15t26 16q20 10 39 17t38 16q7 3 12.5 3.5t12.5 5.5q16 6 39 -2q3 -3 5.5 -3.5t5.5 -3.5q13 -8 14.5 -14t-4.5 -20q-3 -13 -4.5 -19t-11.5 -15q-11 -10 -21 -22t-23 -21q-7 -3 -10.5 -5.5t-10.5 -2.5q-23 -9 -45.5 -18.5t-48.5 -12.5q-8 -1 -16 -3t-16 -2 q-10 0 -17.5 -3.5t-15.5 -7.5q-18 -14 -31.5 -33t-26.5 -36q-8 -13 -14.5 -25t-9.5 -27q-1 -5 -4.5 -17t-6 -24t-2 -22.5t9.5 -12.5q8 -2 24 -2q23 0 41.5 7.5t38.5 14.5q6 7 14 11q18 12 33 25t29 31q14 20 27.5 40.5t26.5 39.5q9 15 28 12q9 0 13 -9q5 -5 3.5 -6.5 t-4.5 -6.5q-10 -16 -19 -31.5t-19 -29.5q-8 -12 -15.5 -23t-11.5 -25q-5 -13 -14 -24t-17 -24q-3 -2 -6 -10h12q23 8 45 14.5t45 12.5q37 8 78 16.5t78 16.5q50 12 100.5 19.5t100.5 17.5q23 3 42 10.5t41 15.5q26 8 47.5 21t47.5 16q10 2 10 -2q0 -2 -2 -4q-6 -10 -10 -13 l-24 -15q-11 -8 -23 -12.5t-26 -7.5q-23 -10 -48 -18.5t-49 -12.5q-18 -3 -34 -5.5t-34 -6.5q-16 -3 -30.5 -6.5t-31.5 -6.5q-8 -3 -16.5 -2t-16.5 -1h-9q-22 -8 -46.5 -12.5t-46.5 -8.5q-42 -10 -81 -20.5t-79 -21.5q-16 -5 -32.5 -11.5t-33.5 -11.5q-15 -5 -23 -19 q-7 -13 -13 -24.5t-20 -18.5q0 -2 -0.5 -2t-0.5 -2q-19 -28 -41.5 -50.5l-44.5 -44.5q-14 -14 -29 -25.5t-29 -23.5q-23 -23 -54 -21l-9 -1q-12 -6 -23 -6q-8 0 -15 3q-18 7 -35 17q-6 3 -6 14zM-147 427l10 -4q6 -3 13 -3q3 0 6 1q11 2 19 5q13 3 27 11t27 17q5 5 11 10 t10 10q40 36 71 77l27 38q2 2 3 13q-18 -6 -33.5 -10.5t-29.5 -9.5q-60 -23 -108 -61q-11 -8 -21 -17.5t-19 -20.5q-15 -21 -15 -42q0 -7 2 -14zM144 906q1 -1 10 -1q28 3 52.5 9t49.5 20q11 6 21.5 13t18.5 18q5 3 17 19q10 13 10 20q0 2 -1 4v2q-3 4 -11 4h-3 q-10 -1 -16 -4q-25 -10 -42 -22q-9 -8 -18.5 -14t-19.5 -13q-16 -11 -33 -22.5t-35 -24.5v-2v-6z" />
<glyph unicode="H" horiz-adv-x="892" d="M-186 483q-2 8 -2 14.5t2 13.5q3 8 6.5 14.5t8.5 13.5q35 58 97 97q23 9 30 24.5t13 37.5q10 32 20.5 64.5t19.5 64.5q2 5 3.5 10.5t3.5 13.5q3 5 6.5 13t6.5 14q-3 4 -6 4.5t-10 3.5l-36 14q-23 11 -30 38t10 52q4 8 19 12q6 0 13.5 -5.5t4.5 -12.5q-2 -5 -6 -9t-8 -7 q-16 -36 14 -56q8 -3 14 -6t15 -6q16 -3 24 11q0 1 0.5 1t0.5 2q5 21 17 34q14 18 28 34.5t33 27.5h5q16 0 25 -6q11 -7 23 -19q16 -11 2 -28q-13 -11 -25 -21.5t-25 -21.5q-5 -6 -18 -9q-25 -7 -27 -30q-5 -11 -10 -24t-8 -26q-3 -16 -8.5 -30t-11.5 -29q-3 -13 -7.5 -23 t-8.5 -22q0 -12 -4 -23h8q45 21 92.5 37.5t95.5 34.5q11 5 19 19q6 10 12 19t12 21q28 40 60 75.5t70 67.5q11 8 20.5 19t28.5 11q13 -3 19 -14t12 -19q13 -18 3 -37q-9 -31 -32 -50q-23 -28 -48.5 -48t-58.5 -33q-23 -9 -35 -31q-8 -18 -18 -34t-21 -31q-6 -7 -13 -18.5 t-10 -22.5t-5 -12q-8 -8 -11 -14.5t-8 -12.5q-4 -20 -11 -39.5t-8 -37.5q-2 -8 1 -12.5t11 -1.5q13 8 25 13.5t26 14.5q42 26 87.5 52.5t91.5 49.5q23 11 42.5 20t40.5 17q68 29 134.5 50t134.5 42q19 6 39 11t41 10q2 0 10 1.5t17.5 3t17 0t7.5 -6.5q0 -3 -2 -5 q-3 -11 -22.5 -11.5t-27.5 -4.5q-19 -3 -38 -8.5t-36 -13.5q-3 -2 -8 -3.5t-10 -1.5q-18 -3 -34.5 -10t-33.5 -11q-32 -11 -63 -21t-60 -23q-22 -11 -48.5 -20t-49.5 -20q-11 -5 -22 -11.5t-21 -11.5q-13 -6 -24 -13.5t-23 -12.5q-18 -8 -32 -17t-31 -20q-24 -18 -48 -32.5 t-52 -26.5q-17 -6 -35 -6q-13 0 -28 3q-34 5 -37 46q0 34 13 59q8 18 15 36t17 34q7 11 11 21.5t8 24.5q2 4 0 11h-7q-16 -5 -32 -10.5t-32 -12.5q-18 -8 -35 -15t-34 -15q-10 -4 -20.5 -9t-18.5 -8q-5 -6 -10 -10t-10 -13q-8 -20 -16 -39.5t-18 -39.5l-12 -24 q-7 -8 -13.5 -17t-11.5 -17q-9 -11 -23 -22t-28 -19q-13 -7 -25 -7q-1 1 -2 1q-13 0 -30 5q-9 1 -13 12zM-157 503q8 -2 16 -2q3 1 7 1q12 2 24 12q0 3 7 11q7 11 17 20.5t13 24.5q5 9 8 27.5t3 21.5q-29 -18 -45 -33.5t-35 -40.5q-7 -9 -12 -19q-4 -7 -4 -16q0 -3 1 -7z M100 924q18 11 31.5 20.5t20.5 23.5q0 9 -8 9q-2 0 -5 -1q-8 -4 -9 -7q-15 -18 -30 -45zM343 825q5 3 8.5 4t6.5 4q23 10 40.5 27t35.5 35q9 11 13.5 21.5t10.5 20.5q3 3 3 6q0 5 -8 11q-6 4 -10.5 4t-7.5 -4l-1 -1q-15 -13 -27 -25t-21 -30q-6 -9 -10.5 -19t-11.5 -18 q-5 -6 -11.5 -14.5t-9.5 -21.5z" />
<glyph unicode="I" d="M-202 640q-4 8 -4 17.5t4 20.5q3 6 12 12t15 6q11 -3 18 -20q0 -6 -2.5 -11.5t-7.5 -4.5q-4 0 -7.5 2.5t-6.5 4.5q-1 0 -5 -1.5t-4 -6.5q5 -8 9.5 -15.5t16.5 -12.5q4 -1 14 -1q23 -2 35.5 10t20.5 28q2 0 1 2.5t1 2.5l-13 11q-16 13 -23.5 32t0.5 36q3 8 7.5 14t10.5 7 q10 4 15.5 6t17.5 2q4 0 9.5 -4.5t9.5 -10.5q7 -10 13 -23t2 -31q-4 -3 -4.5 -6.5t7.5 -6.5h10.5t11.5 2q8 6 26 11q3 20 3 41.5t5 41.5q8 34 20 68t26 66q12 32 30 62.5t36 59.5q9 23 31.5 45t45.5 35q17 10 35 9h4q20 -2 39.5 -12t32.5 -28.5t16 -38.5q1 -10 1 -19 q0 -27 -10 -53q-14 -35 -37.5 -66.5t-52 -58.5t-51.5 -50q-18 -18 -35 -33t-36 -29q-11 -8 -14 -9q-1 -23 -3.5 -40t-2.5 -35q0 -30 4.5 -57t17.5 -52q8 -16 21 -17q18 -3 32.5 -0.5t31.5 9.5q35 15 63 41q29 27 58 53.5t63 47.5q37 27 77.5 42t84.5 35q19 8 37 17t37 14 q14 11 27 14q16 5 22 4t8 -4q1 -2 1 -3q0 -6 -9 -9q-11 -4 -18 -7q-87 -37 -169.5 -73.5t-155.5 -97.5q-23 -20 -44.5 -41.5t-44.5 -39.5q-22 -16 -43 -25t-40 -13q-18 -1 -31.5 -1t-29.5 3q-60 18 -78 81q-5 19 -9 42.5t2 46.5q-28 -11 -57 -11h-9q-10 -11 -17 -18t-20 -18 t-28.5 -13.5t-33.5 -2.5q-9 0 -17 1q-18 8 -26 24zM-111 715q9 -13 15 -14q5 -2 12.5 -3.5t10.5 -4.5q11 17 11 32q0 16 -12 30q-14 5 -22.5 -0.5t-13.5 -16.5q-3 -3 -3 -9t2 -14zM107 781q21 5 30 17q19 18 36 36t32 37q36 40 59 85q8 16 14.5 35t14.5 34q4 13 4 26 q0 19 -9 36q-3 8 -8 13t-10 8q-7 3 -13 3q-7 0 -14 -4q-7 -7 -15 -14.5t-15 -11.5q-23 -18 -35.5 -39t-23.5 -47q-13 -29 -19.5 -60.5t-14.5 -63.5q-3 -19 -6.5 -36t-6.5 -34q-1 -2 -1 -5z" />
<glyph unicode="J" horiz-adv-x="874" d="M-212 519q3 23 4 46.5t7 45.5q15 65 67 98q27 18 57 29.5t61 15.5q13 4 22.5 3.5t22.5 -0.5h47q3 3 5.5 8t6.5 10q21 37 42.5 70t44.5 67q4 7 7.5 13t7.5 14q3 3 6 14q20 29 31 60.5t23 60.5q4 4 4 8q-12 0 -24 -1.5t-23 -7.5q-34 -22 -68 -57q-8 -8 -16 -17t-16 -22 q-2 -5 -7 -6q-12 -11 -19.5 -24t-14.5 -30l-5.5 -11t-5.5 -9q-12 -23 2 -43q5 -5 5 -6q8 -11 4.5 -25t-12.5 -22q-26 -20 -54 -6l-13 8q-3 8 -7 13.5t-8 12.5q0 8 3.5 15.5t4.5 16.5q-18 6 -33 -0.5t-28 -14.5q-12 -8 -19.5 -18t-19.5 -32q-6 0 -10 10q0 11 2.5 21.5 t11.5 18.5q11 13 25.5 23.5t33.5 15.5q3 0 8.5 1.5t8.5 3.5q6 1 10 2t9 -1q11 0 18 10l5 16q4 16 12.5 28t19.5 26q6 8 12 14t9 15q10 21 24.5 37t31.5 31q16 11 32.5 23.5t35.5 20.5q5 3 10 5t12 4q15 6 28 6q34 0 57 -37q5 -12 4 -24q-2 -18 -10 -39q-5 -13 -16 -30 q-6 -9 -10.5 -19t-7.5 -24q-2 -8 -5 -14t-6 -13q-8 -15 -16.5 -32.5t-17.5 -33.5q-23 -28 -39 -58q-8 -13 -15.5 -26t-15.5 -28l7.5 -4.5t5.5 -1.5q32 -4 63 -6t63 -5q20 -4 39.5 -3t39.5 1q25 2 47.5 2.5t48.5 0.5q9 0 19 -0.5t19 -0.5h59q3 0 9 0.5t12 0.5h10q37 0 71 7 q39 7 76 14q76 14 152 52q11 6 24 12.5t23 -1.5q0 -8 -5 -12t-8 -7q-79 -50 -171 -68q-23 -5 -45 -9t-45 -8q-9 -3 -19.5 -3.5t-23.5 -0.5q-8 -2 -17 -3t-17 -1q-16 -3 -31.5 -3.5t-31.5 -0.5q-34 0 -68 1q-11 1 -23 1q-23 0 -47 -2t-49 0.5t-49 -0.5q-4 0 -8.5 1.5 t-10.5 1.5q-4 3 -6 1q-21 -6 -40.5 1t-39.5 4q-4 -1 -8 1t-7 2q-10 2 -18.5 2t-20.5 2q-18 -23 -32.5 -43.5t-25.5 -42.5q-8 -9 -14.5 -20.5t-16.5 -19.5q-6 -3 -8 -10q-15 -19 -29.5 -35.5t-33.5 -32.5q-9 -8 -19 -17t-19 -22l-7 -7t-8 -2q-10 0 -16.5 -6t-11.5 -9 q-11 1 -26 8q-41 13 -52 47q-1 5 -2 8t-1 6zM-173 516q0 -3 3 -6.5t8 -3.5q11 0 13 5q10 8 26 15q5 2 9 5t7 6q8 8 16.5 18t16.5 18q11 12 21.5 24.5t21.5 21.5q10 8 19.5 19t16.5 24q6 8 12 14.5t12 16.5q3 3 5.5 6t7.5 10q-6 1 -8 2.5t-5 1.5q-16 -3 -31.5 -6t-31.5 -9 q-18 -8 -34 -16.5t-29 -25.5q-3 -3 -6.5 -6t-6.5 -3q-12 -3 -17.5 -10t-11.5 -16q-13 -21 -18 -42.5t-13 -44.5zM26 822l26 7q3 6 5 8l-15 17q-2 -5 -3.5 -8t-2.5 -6q-2 -3 -4.5 -6.5t-5.5 -11.5z" />
<glyph unicode="K" horiz-adv-x="914" d="M-144 1008q3 6 10.5 11.5t15.5 5.5q12 0 19 -15q3 -5 -0.5 -10t-8.5 -5t-8.5 1t-6.5 1q-5 0 -5 -7q3 -8 8 -16t18 -8h14q20 0 32.5 12.5t21.5 31.5v4q-6 2 -14 10q-18 12 -26 28t-5 37q2 19 16 26q16 4 29 8q18 1 26 -13q8 -10 14.5 -21t2.5 -28q-1 -5 -2 -9t6 -5h11.5 t12.5 1q11 10 24 17.5t21 18.5q10 8 17.5 18t15.5 19q3 5 6.5 15t12.5 10q10 4 20 4l32 -9q4 -8 3.5 -15t-5.5 -16l-5 -3q-24 -42 -38 -91q-4 -3 -8.5 -15.5t-10.5 -25t-10.5 -24.5t-6.5 -16q-6 -29 -16 -53q-6 -7 -3 -13q3 0 3 -1.5t2 1.5q32 26 65.5 49.5t61.5 55.5 q8 8 16.5 18t19.5 21q19 20 34 40t29 40q8 11 16 21t15 22q1 11 8.5 11t14.5 -11q1 -2 1 -6q-9 -33 -28 -61.5t-40 -54.5q-8 -6 -14 -15l-10 -15l-6 -6t-5 -6q-7 -3 -9 -8t-6 -10q-23 -12 -37.5 -30.5t-35.5 -26.5q-13 -8 -23.5 -16.5t-21.5 -14.5q-5 -2 -9 -5.5t-9 -6.5 q-6 -3 -12 -7t-14 -7q11 -11 11 -18q16 -13 26 -29t16 -34q8 -20 15.5 -38.5t12.5 -37.5q5 -16 11.5 -27t13.5 -20q3 -6 7.5 -13t9.5 -15q11 -12 27 -21.5t33 -10.5q5 0 11 0.5t13 2.5q13 3 23 9t22 11q5 3 7 5l38 26q30 23 59 44.5t58 40.5q10 6 30.5 17t42 20.5t43.5 17.5 t34 10h3q39 14 82 21q89 16 176 17q13 0 13 -4q0 -1 -1 -2q-4 -6 -12 -6q-87 0 -174 -23q-22 -5 -42 -10.5t-42 -11.5q-11 -3 -20 -7.5t-20 -7.5q-12 -3 -22 -8t-18 -10q-39 -21 -74.5 -47t-69.5 -51q-8 -5 -13.5 -8.5t-13.5 -8.5q-11 -13 -26 -23.5t-27 -18.5 q-36 -21 -74 -23q-3 -1 -11 -1h-5q-7 0 -21 3q-21 8 -37.5 16t-35.5 25q-26 23 -45 48.5t-34 61.5q-4 12 -10 26t-11 25q-5 20 -13 29q0 2 -3 3.5t-5 4.5q-10 -11 -10 -22q0 -16 -3 -27.5t-6 -24.5q-8 -23 -17 -43t-20 -41q-8 -18 -22 -31t-27 -30q-3 -2 -5.5 -3.5 t-7.5 -3.5q-9 -1 -20.5 -2.5t-19.5 1.5q-13 3 -15 6q0 8 1.5 15.5t6.5 13.5q5 8 10 18t11 19q23 39 43 75.5t33 78.5q1 8 3 13.5t1 12.5h-6q-46 0 -71 31q-8 12 -1.5 31t24.5 21q29 3 55 -4q8 -2 14.5 -3.5t14.5 -3.5q5 8 12.5 24.5t14.5 34.5t14.5 34t12.5 24q6 11 11 24 t11 26q-21 -20 -42.5 -30t-51.5 -13q-7 -10 -14.5 -19t-17.5 -17q-11 -13 -26.5 -17t-31.5 -6q-7 -3 -12.5 -1.5t-8.5 3.5q-17 3 -27 17q-6 9 -6 21q0 8 2 17zM-65 863q-1 -3 -1 -6q0 -5 2 -7q4 -6 10 -5h27t24 3q3 0 6 1q-1 5 -3 7q-13 11 -26.5 13.5t-31.5 -0.5 q-4 0 -4.5 -2.5t-2.5 -3.5zM-62 1078q-1 -3 -1 -6q0 -7 5 -16q6 -11 18 -14q16 -3 24 -6q6 15 6 28q0 21 -16 36q-5 1 -8 1q-7 -1 -13 -5q-8 -8 -15 -18z" />
<glyph unicode="L" horiz-adv-x="606" d="M-207 638q2 7 1 12t-1 12q0 31 31 39q18 4 36 4.5t38 -4.5q20 -7 24.5 -3t14.5 22q3 6 13.5 20t23 30t23.5 31.5t16 23.5q-20 -3 -39 0q-8 -7 -17 -11.5t-17 -9.5q-11 -8 -24 -9.5t-26 0.5q-9 0 -16 4q-13 7 -18.5 20.5t2.5 28.5q8 14 24 11q11 -5 15 -16q0 -5 -3.5 -9 t-8.5 -2q-3 0 -5.5 1.5t-5.5 3.5q-5 0 -5 -5q3 -6 5.5 -13.5t10.5 -11.5q4 0 6 -0.5t6 -0.5q15 -3 27.5 4t21.5 20q0 2 4 5q-9 6 -15 11q-9 13 -13 26.5t4 30.5q4 16 16 16q7 1 13 1h13q12 -3 18 -12q11 -23 6 -44q-6 -6 0 -15h8.5t10.5 3q3 2 8 3t10 4q10 18 24.5 42 t19.5 38q8 22 17.5 42.5t27.5 37.5l42 46q8 8 18 9.5t20 1.5q21 0 35 -8q0 -2 11 -5q3 0 6 -5q4 -2 9 -17.5t5 -18.5q-5 -8 -2 -20q0 -8 -1 -11q-8 -18 -15.5 -35t-20.5 -36q-31 -27 -65 -49q-4 -4 -11 -5.5t-12 -4.5q-12 -8 -19 -20q-4 -11 -15.5 -29.5t-25.5 -40 t-29.5 -43t-26.5 -38.5q11 4 19 6l20 5q14 3 28 3.5t27 4.5q53 8 105 10t105 9q28 4 54.5 7.5t54.5 7.5q24 3 47.5 9.5t46.5 11.5q35 9 68 29q8 3 12.5 8.5t9.5 9.5q1 1 6.5 4t9.5 5q6 2 8 0q1 -1 1 -3t-1 -5q-1 -6 -6 -11t-8 -10q-47 -36 -94 -52q-28 -9 -58 -15.5 t-60 -14.5q-41 -8 -80.5 -14t-81.5 -9q-15 -2 -32 -2.5t-31 -4.5h-15h-7.5t-9.5 -1q-11 -3 -22.5 -4t-23.5 -1q-32 -1 -61 -5t-60 -13q-16 -18 -32.5 -31t-33.5 -16q-14 -1 -28 -12q-9 -5 -21 -5h-7q-12 3 -26 7t-26 9q-25 8 -25 31zM-170 647q3 -11 18 -11h18q16 11 24 19 q7 5 10 10q4 5 -2 8q-32 10 -62 -1q-8 -7 -8 -16q0 -4 2 -9zM-65 872q5 -11 15 -16q3 -2 7 -3t7 -4q19 28 5 52q-16 8 -31 -11q-4 -5 -4 -11q0 -3 1 -7zM133 901q0 -1 1 -1q0 -2 1 -2t1 -1h5q18 12 35 27t28 35q3 2 4 4.5t2 4.5q13 12 19.5 25t13.5 28q-4 6 -6 12t-6 11 q-4 9 -9 9q-3 0 -7 -3q0 -3 -5 -5q-6 -6 -13 -13.5t-11 -17.5q-3 -9 -9 -18t-10 -17q0 -5 -5 -11q-6 -18 -13.5 -33.5t-15.5 -33.5z" />
<glyph unicode="M" horiz-adv-x="1005" d="M-162 980q0 13 15 25q10 11 24.5 15.5t26.5 4.5q31 0 51 -20l13.5 -13.5t15.5 -17.5l11 5q25 14 48 21q6 1 11 1q28 0 45 -27q3 -8 3 -26q-3 -24 -9.5 -47t-15.5 -45q-7 -23 -19 -44q-4 -11 -8.5 -21.5t-7.5 -20.5q-2 -4 -2.5 -8.5t2.5 -7.5l10 10q34 34 66 67t68 66 q23 21 46.5 37t50.5 31q12 7 27 11t31 9q10 2 25 -3q19 -8 16 -28q-4 -8 -7 -13.5t-6 -11.5q-16 -21 -30.5 -42t-28.5 -44q-12 -23 -34 -47q-1 -3 -6 -8h5h1q10 11 20 20t18 19q29 36 63.5 63t72.5 53q19 14 41.5 21t47.5 10q8 0 21 -3q20 -8 13 -28q-3 -18 -11.5 -34 t-19.5 -32q-8 -11 -16 -26q-5 -8 -10.5 -16t-12.5 -18q-12 -18 -23.5 -38t-22.5 -40q-11 -18 -20.5 -35t-19.5 -34l-9 -14q-8 -12 -17 -30t-13 -30q-3 -19 -12 -30q0 -4 3 -6q3 -5 6 -1q8 1 17 4t17 7l88 48q23 12 44.5 23.5t43.5 23.5q53 25 106 48t110 41q23 8 44 16 t43 16q29 13 60.5 19t64.5 9q1 0 7.5 1.5t14 3t13 0.5t5.5 -7q-2 -3 -5 -6q-9 -11 -26 -11q-29 -5 -58.5 -9.5t-58.5 -13.5q-27 -10 -51 -19l-48 -18q-3 0 -7 -3q-26 -7 -50 -17.5t-48 -18.5l-18 -6q-41 -19 -80.5 -39t-77.5 -43q-15 -8 -28.5 -17.5t-27.5 -17.5 q-19 -13 -38 -24.5t-39 -19.5q-13 -6 -26.5 -8t-25.5 -2q-42 0 -47 43q-1 8 -0.5 16.5t2.5 18.5q9 48 37 93q31 53 71 106q13 20 30 38t35 37q15 18 30 33.5t33 34.5l5 7q-7 7 -13 6t-12 -4q-18 -6 -36 -13.5t-35 -20.5q-9 -8 -20 -16t-20 -16q-29 -23 -57 -55l-73 -86 q-11 -13 -21 -26t-22 -22q-7 -6 -14.5 -8t-14.5 -2t-10 1q-16 3 -18 20q-2 14 1.5 28t7.5 27q8 13 15 25t16 25q3 2 6 5q22 32 48 60.5t53 57.5q5 7 10.5 12.5t12.5 14.5q-5 2 -11 2q-11 -3 -22 -6.5t-21 -11.5q-23 -9 -43.5 -23.5t-41.5 -33.5q-16 -14 -31.5 -27t-32.5 -29 q-19 -19 -35 -39.5t-34 -40.5q-8 -7 -13 -15t-10 -17q-8 -16 -18.5 -29.5t-20.5 -28.5q-9 -14 -17.5 -27.5t-12.5 -28.5q-4 -12 -11.5 -22.5t-16.5 -19.5q-23 -20 -51 -11q-7 2 -10 14q-5 11 -6 24t1 26q3 21 8 41t16 40q5 6 8.5 12.5t6.5 12.5l27 49q21 37 43 70l41 69 q10 16 17.5 31.5t16.5 30.5q-3 8 -8.5 9.5t-9.5 -1.5q-16 -3 -29.5 -8t-26.5 -18q0 -8 -0.5 -13.5t-2.5 -12.5q-2 -12 -7.5 -22t-13.5 -20q-8 -8 -20.5 -8t-20.5 8q-6 11 -4 21q3 10 8.5 19t13.5 15q3 3 8 8.5t8 8.5q-3 4 -15 21t-32 22q-8 2 -22 -1.5t-18 -10.5 q-8 -11 -7 -25q0 -5 -6 -9q-3 -1 -10 2q-13 9 -13 24zM-54 900l4 -7q19 8 22 36q-18 -8 -26 -29z" />
<glyph unicode="N" horiz-adv-x="701" d="M-231 1013l6 9q3 3 12 -1q1 -2 6 -10q8 -21 25 -31l14 -17q-2 9 3.5 22.5t8.5 19.5q4 5 23 8h18t18 -5q3 -2 6 -9q5 -10 2.5 -25t-11.5 -20q-15 -18 -37 -17q0 -8 4.5 -13t7.5 -8q5 -7 11.5 -7.5t13.5 -0.5h19q8 0 19 8q13 8 25.5 16t22.5 18q8 4 12.5 10t12.5 11 q3 3 6 8.5t6 8.5q3 0 6 1.5t5 1.5q6 4 21 -1t18 -11q3 -10 0 -16l-18 -52q-12 -21 -13 -42q1 -6 -0.5 -10.5t-2.5 -9.5q0 -4 -1 -9t-2 -13q7 2 9.5 6.5t6.5 9.5q18 21 34 43t37 43q23 25 47 48t52 44q13 9 26.5 16.5t26.5 15.5q8 6 17 6t17 4q9 3 17 3q4 0 10 -2 q12 -4 23 -11q8 -5 13 -13.5t-3 -20.5q-14 -26 -27 -51.5t-30 -51.5q-18 -26 -34 -52t-29 -57q-11 -11 -18 -24.5t-18 -28.5q-12 -23 -19 -45q-1 -4 -1 -5.5t-2 -2.5q-9 -10 -12.5 -24.5t-8.5 -31.5q0 -4 -3 -11q-8 -21 -15.5 -41t-10.5 -42q-2 -4 -4.5 -10.5t-6.5 -9.5 q-5 -13 0 -26q11 3 16.5 7.5t13.5 12.5l98 75q27 22 54.5 42t58.5 36q12 8 23.5 16t24.5 15q40 18 80 36.5t82 31.5q32 9 64.5 21.5t69.5 16.5q5 2 12 2q5 0 6 -3q0 -8 -1 -8q-10 -7 -17 -8q-13 -3 -26.5 -8.5t-26.5 -8.5q-79 -18 -148 -48q-24 -11 -46 -22.5t-44 -20.5 q-3 -1 -7 -6q-23 -18 -48.5 -32t-47.5 -31q-20 -14 -39.5 -29t-37.5 -32q-20 -18 -42.5 -35t-42.5 -34q-3 -4 -9 -8t-9 -7q-12 -4 -23 -4q-10 0 -20 4q-20 8 -30 32q-11 32 -6 62q14 79 53 153q30 58 63.5 116t70.5 111q11 15 22.5 32t21.5 34q2 3 3.5 5.5t1.5 3.5 q-6 7 -12 0q-26 -15 -53.5 -30.5t-48.5 -41.5q-6 -8 -15 -15t-19 -16q-43 -50 -84 -116q-11 -20 -23 -38.5t-25 -37.5l-42 -89q-10 -10 -15 -22q-8 -18 -33 -17.5t-39 13.5q-4 3 -6.5 9.5t-2.5 11.5q0 21 1 43.5t12 43.5q7 16 13 31.5t13 31.5t15 33.5t18 32.5q6 8 11.5 19 t10.5 19q-5 9 -13 1q-21 -8 -42 -8t-44 2q-3 0 -6 1.5t-10 4.5q-11 10 -17 19t-10 25q0 4 -7 9.5t-9 8.5q-5 4 -18 12q-10 7 -22 26q0 7 -6 17q-1 0 -1 5zM-141 957q0 2 9 5.5t10 3.5q6 2 10 8q3 3 2 8q0 3 -1 5q-3 9 -11 9l-1 1q-7 0 -10 -9q-4 -8 -5 -15t-3 -16z" />
<glyph unicode="O" horiz-adv-x="842" d="M-48 678q3 24 14 52q8 13 11 26t12 24q3 8 7 13.5t9 12.5l11 19q9 9 -2 16q-1 2 -1 7q-2 8 -3.5 16t-6.5 16q-6 11 -3 29q2 18 7.5 33t13.5 29q7 8 14 14t15 14q8 7 20 13q7 4 13 4q4 0 9 -2q13 -1 28 -8q8 -4 10 -6q0 -5 -6 -10t-9 -2q-22 7 -31 -8q-8 -6 -13 -11.5 t-3 -14.5q0 -11 -11 -22q-8 -8 -10 -17.5t-4 -21.5q-1 -5 2 -11q3 -5 7.5 -6.5t7.5 2.5q14 19 32 30.5t34 26.5q7 7 11 10q16 8 30.5 17.5t31.5 17.5q8 7 15.5 8.5t15.5 4.5q16 3 28 -3q7 -5 16 -9.5t18 -8.5q6 -3 12 -7q21 -20 11 -48l-11 -19q-6 -12 2 -29q15 -18 6 -44 q-5 -8 -6 -19q-1 -33 -18 -67q-4 -7 -8 -15.5t-7 -16.5q-6 -16 -14.5 -29.5t-20.5 -27.5q0 -1 -1.5 -3.5t-3.5 -7.5q6 3 12.5 5.5t15.5 2.5q4 0 11 3q89 31 179 68q23 10 45.5 18t45.5 16t45.5 16.5t45.5 12.5q24 7 47.5 12t49.5 8l97 14q11 2 22.5 3.5t22.5 1.5h3 q9 -2 9 -10q0 -2 -1 -4l-9 -3l-23 -5l-24 -5q-13 -3 -24.5 -3.5t-24.5 -3.5q-24 -3 -47.5 -7t-47.5 -10l-73 -20q-16 -3 -31.5 -9.5t-31.5 -12.5q-15 -7 -30 -12t-32 -11q-18 -8 -36 -15.5t-37 -15.5q-23 -8 -45.5 -19.5t-44.5 -17.5q-11 -3 -20.5 -8t-20.5 -9 q-9 -3 -20 -7.5t-22 -7.5q-1 -2 -8 -2q-11 -3 -20 -9t-20 -9h-1q-13 -16 -30 -22l-32 -18q-15 -8 -28 -8q-6 0 -11 1q-8 2 -15.5 1t-13.5 1q-6 0 -12 1.5t-12 3.5q-7 1 -13.5 2.5t-13.5 1.5q-14 0 -25 15q-8 13 -17.5 28.5t-9.5 33.5q-6 20 -6 39q0 7 1 14zM20 650 q0 -18 3 -34t14 -31q13 -14 31 -14l20 5q26 9 48 29q5 2 11 11q-5 7 -10.5 12t-10.5 11q-21 26 -26 55q-3 23 2 50q1 8 3.5 15.5t-0.5 17.5l-19 9q-13 -3 -18.5 -8t-9.5 -11q-9 -16 -14 -31.5t-13 -31.5q-5 -14 -8 -27t-3 -27zM102 823q-2 -3 -2 -6q0 -6 8 -10q10 0 15 11 q14 25 33 45t42 38q6 5 12 10.5t14 8.5q11 0 19.5 -3t20.5 -6q11 -6 17 6q3 5 5 11.5t6 14.5q-4 5 -9 10q-11 11 -17 12h-1q-6 0 -22 -8q-16 -7 -30 -16.5t-29 -21.5q-9 -7 -11 -11q-5 -8 -10.5 -13t-10.5 -10q-6 -7 -13.5 -13t-12.5 -15q-4 -6 -7.5 -11t-8.5 -11 q-7 -6 -8 -12zM156 712q-2 -7 -2 -14q0 -8 3 -16q5 -14 10 -27q1 -3 4.5 -5.5t6.5 -7.5q14 18 30 32.5t27 34.5q8 12 15.5 26t14.5 29q4 6 4 13q3 12 3.5 23.5t3.5 24.5q1 3 1 6q0 7 -7 12q-8 -8 -15.5 -14t-15.5 -14q-14 -9 -28.5 -18t-31.5 -19q-8 -3 -14 -17t-6 -22 q-2 -7 -1 -13t-2 -14zM193 829h8q15 4 26 14.5t22 22.5q1 1 1 5q0 6 -3 9q-1 2 -6 2q-31 -23 -48 -50v-3z" />
<glyph unicode="P" horiz-adv-x="920" d="M-160 482q1 3 3.5 8t6.5 8q9 15 15.5 31t14.5 34q3 11 7.5 22t10.5 22q3 8 8 16t8 18q-10 6 -14 11l-16 10q-10 10 -10 16v42q0 12 4 22t11 19q15 21 37 12q12 -3 20 -6l7 -1q10 -4 13 -2t8 9q6 15 13 29.5t13 29.5q6 16 21 48t27 60q-32 -21 -66 -21l-30 -31 q-13 -13 -26.5 -16t-28.5 -5q-5 0 -19 4t-23 18t-2 33q6 16 24 17q12 0 18 -17q2 -5 -1.5 -9.5t-8.5 -3.5q-6 0 -13 3q-3 0 -4.5 -1.5t-0.5 -2.5q3 -8 7 -15.5t16 -9.5q3 0 5.5 -0.5t5.5 -0.5q20 0 32 10.5t20 26.5v5l-15 10q-14 12 -21.5 26t-2.5 35q3 16 18 21l26 5 q11 1 21 -10q8 -11 13 -22.5t2 -23.5q-3 -10 3 -15q5 1 10.5 1t10.5 3q11 7 22.5 13.5t21.5 14.5q4 3 8 8t7 9q2 1 2 6q7 7 11 21q4 11 13 11h4q8 -1 13.5 -5.5t13.5 -7.5q10 -5 5 -16q-3 -9 -7 -18.5t-7 -17.5q-10 -18 -17 -37h8q16 20 36.5 36t40.5 34q24 20 51 26 q29 13 59 -7l18 -13q20 -15 20 -36q0 -11 -6 -24q-6 -11 -10 -31q-1 -8 -5.5 -14t-7.5 -13q-11 -18 -22.5 -34t-20.5 -30q-19 -28 -36.5 -52.5t-39.5 -43.5l-7 -12q4 -4 13 -4q29 0 59 -2t59 2l166 18q49 4 104 17q36 8 71 18t70 18q23 6 47 10.5t48 7.5q57 9 119 14 q6 2 15 2q11 0 11 -7q0 -3 -1 -6t-4 -5q-6 -3 -10 -3q-13 -3 -24.5 -5.5t-23.5 -2.5q-16 -1 -32.5 -3t-34.5 -6q-9 -1 -19 -2.5t-20 -4.5q-32 -8 -66.5 -17.5t-70.5 -20.5q-18 -6 -35 -10t-36 -9q-42 -13 -89 -19q-8 -3 -18 -4t-19 -3q-20 -3 -41 -5t-44 -8q-23 -3 -46.5 -3 t-45.5 -3q-4 -2 -8.5 -1t-10.5 1q-11 0 -22.5 0.5t-24.5 -0.5q-23 0 -47.5 0.5t-46.5 0.5q-8 -1 -16.5 -2t-15.5 -4q-13 -8 -27.5 -14t-29.5 -14h-2q-1 0 -1 -0.5t-2 -0.5q-18 -8 -23.5 -9.5t-21.5 -1.5h-20q-14 -16 -16 -33q-3 -18 -11 -32t-13 -31q-8 -16 -15.5 -32.5 t-15.5 -33.5q-1 -5 -5 -11t-8 -11q-4 -11 -14 -11q-4 0 -8 2q-26 10 -26 30q0 7 3 15zM-96 736q0 -11 10 -11q6 -1 13 -3t15 1q4 3 7 10.5t4 10.5v3l-1 2q-7 6 -16 10.5t-17 2.5q-7 -3 -11.5 -10.5t-3.5 -15.5zM-68 963q8 -11 18 -15l19 -5q8 15 8 27q0 17 -14 32 q-13 3 -19.5 -4t-11.5 -14q-2 -5 -2 -10t2 -11zM5 710l6 -1q3 0 6.5 1.5t6.5 2.5q-6 8 -8.5 8t-7.5 -4q-4 -3 -4 -5q0 -1 1 -2zM32 757q8 -7 17 -8.5t17 -4.5q6 -1 11 -1q14 0 23 9q20 11 37 28q8 8 18 17t18 20q23 23 41.5 48.5t35.5 53.5q13 21 24 40.5t19 40.5q3 5 3 9 q0 5 -4 9q-3 2 -8 2q-4 0 -9 -1q-13 -1 -28 -8q-8 -3 -14 -6t-11 -6q-42 -20 -63 -53q-3 -6 -8.5 -10.5t-9.5 -10.5q-8 -6 -15.5 -15t-14.5 -19q-18 -28 -35.5 -54t-35.5 -56q-3 -4 -6 -9.5t-2 -14.5z" />
<glyph unicode="Q" horiz-adv-x="865" d="M-65 1069q0 3 5 5q5 4 8 0l20 -16q3 -3 6 -6.5t10 -1.5q5 3 5 8v10q2 28 31 45q7 4 17 4q8 0 19 -3q23 -6 32 -24q3 -14 0 -20q-8 -20 -20 -33q-5 -4 -14 -9.5t-6 -11.5q0 -3 2 -6.5t4 -6.5l9.5 -9.5t10.5 -5.5q8 2 11.5 5.5t6.5 8.5q25 29 54 50.5t61 39.5q23 12 47 14 t49 -11q6 -3 9 -6q6 -5 20 -18q5 -6 2.5 -19t-5.5 -21l-11 -21q0 -2 -5.5 -9.5t-3.5 -9.5q3 -7 4 -16.5t1 -18.5q0 -23 -3.5 -44t-6.5 -43q-3 -8 -4 -14.5t-4 -14.5q-3 -5 -3.5 -13.5t-4.5 -11.5q-8 -11 -10.5 -23t-10.5 -20q-9 -13 -18.5 -25t-20.5 -26v-1q0 -5 -0.5 -10 t0.5 -9q3 -5 3 -17q2 -11 3 -21.5t4 -21.5l5 -10q6 -8 19 -16q10 -2 25.5 2t26.5 9q15 4 26 7q8 3 14.5 5.5t12.5 5.5q33 12 56 26q27 13 54.5 26.5t56.5 26.5q31 12 60 24t59 23q10 3 15 3l133 34q5 0 6 2q19 0 34.5 3t33.5 6q10 2 20.5 3.5t21.5 -1.5q8 -2 8 -8 q0 -1 -1 -3v-3q-4 -3 -10 -3t-13 -2q-11 -3 -20.5 -3t-19.5 -3q-9 -3 -18.5 -4.5t-19.5 -4.5q-26 -3 -51.5 -11t-51.5 -14q-13 -3 -27.5 -7.5t-27.5 -12.5l-69 -24q-8 0 -17 -6t-17 -10q-23 -8 -47 -21t-49 -25q-23 -10 -47 -21t-47 -24q-28 -13 -55 -19q-8 -3 -13 -4.5 t-14 -4.5q-3 -1 -11.5 -1h-14.5h-6q-5 1 -12 4q-39 16 -48 57q-4 10 -4 20.5t-1 20.5q-2 -2 -3.5 -3t-5.5 -4q-14 -8 -28 -20q-11 -7 -23 -12q-10 -5 -20 -9t-22 -1q-11 4 -22 3t-21 2q-48 10 -59 55q-11 30 -13 53q-5 23 1 44q3 16 9 32.5t9 32.5l5 10q13 21 24.5 42 t23.5 43q3 3 3.5 6.5t3.5 7.5q-8 7 -16 13.5t-16 14.5t-15.5 16.5t-15.5 17.5q-6 3 -15 6.5t-17 8.5q-5 3 -15 13q-2 3 -5 7q-5 6 -5 7zM29 1050q0 -2 7 -8q3 3 4.5 3t2.5 3q5 10 8.5 18t6.5 16q2 5 -1 8q-1 1 -3 1q-3 0 -6 -2q-5 -7 -8.5 -12.5t-7.5 -11.5q-3 -3 -3 -15z M48 769q-1 -9 -1 -18q0 -13 3 -26q4 -21 10 -42q3 -7 3 -5q11 -18 26 -18q5 0 10 2q16 6 30.5 12.5t27.5 18.5q8 5 15 11t16 13q0 3 -1 7t-1 8q-3 15 -4 22q-3 18 -10 35t-15 34q-5 8 -14 13t-17 9q-3 3 -13 4.5t-11 6.5q-2 3 1.5 6.5t6.5 4.5q6 5 16 2q11 -2 21 -3.5 t18 -4.5q25 -3 37 -23q5 -8 9.5 -14.5t8.5 -14.5t5.5 -15.5t2.5 -15.5v-9q16 26 29 52.5t19 58.5q2 5 2 10t3 8q11 26 5 61l-17 -17q-4 -7 -7 -8q-11 -7 -22.5 -10.5t-24.5 0.5q-3 -2 -5.5 -1t-5.5 -1q-16 -3 -31.5 -0.5t-31.5 5.5q-20 5 -28 -13q-3 -6 -7 -12.5t-9 -15.5 q-18 -26 -27.5 -54t-19.5 -55q-2 -4 -2 -8zM137 951q12 -5 21 -8q5 -1 10.5 -1t12.5 1q3 13 3 16q2 11 7 19.5t11 16.5q8 10 17 16.5t19 13.5q14 11 29 6l29 -15q15 11 15 29q0 4 -1 8q0 8 -4 12q-10 6 -22 9h-7q-8 0 -15 -3q-24 -12 -46.5 -27t-39.5 -38q-5 -6 -9.5 -11 t-9.5 -10q-11 -11 -20 -34zM205 945q7 -4 14 -4q5 0 11 2q14 7 25.5 17.5t20.5 21.5q1 1 1 3q0 4 -7 8q-10 5 -18 5q-15 0 -27 -14q-6 -8 -11 -18t-9 -21z" />
<glyph unicode="R" horiz-adv-x="790" d="M-113 1029q0 8 2 13q3 2 3.5 4t4.5 4h1h2q8 0 8 -10q3 -9 3 -15q3 -18 29 -25q2 6 2 18q0 9 8 15q10 4 14 9q16 11 31.5 0t15.5 -29q-2 -5 -1 -10.5t-1 -9.5q-1 -5 -4 -8t-7 -8q5 -3 13 -3h16.5t15.5 2q12 1 23 11q19 8 37 21q5 3 9 7t11 7q5 3 11.5 1.5t9.5 -4.5t8 -9.5 t5 -10.5q-1 -5 -4 -11l-6 -12l-14 -25q-16 -24 -30 -60v-1q4 -2 10 5q9 10 20 22t21 20q13 13 26.5 24t26.5 23q39 30 94 34h6q45 0 60 -46q5 -15 2.5 -29t-8.5 -27l-28 -55l-27 -43q-11 -7 -18 -19q-11 -21 -34 -40q-3 -3 -8 -7.5t-10 -7.5q-6 -3 -11 -7.5t-10 -8.5 q-3 -1 -7 -3t-7 -4q-22 -11 -41 -23t-42 -22q-3 -3 -9.5 -3t-11.5 -1q-6 -4 -12 -4.5t-11 -3.5q-9 -4 -22 -8q0 -1 12 -20.5t25 -28.5q23 -17 47 -17q7 0 13 1q52 9 97 35q15 8 32 16t34 13q14 6 27 13t27 11q60 25 119 48t119 42q9 3 17.5 4.5t19.5 4.5q14 3 28 7t29 8 q14 3 29.5 6.5t31.5 9.5q28 8 59 13h12t8 -7l-3 -4q-3 -5 -10.5 -6.5t-13.5 -3.5q-20 -3 -41 -10.5t-43 -13.5q-18 -5 -34.5 -10.5t-33.5 -9.5q-28 -7 -52.5 -14.5t-47.5 -15.5t-45.5 -16.5t-45.5 -17.5q-28 -11 -56.5 -22t-56.5 -24q-18 -8 -32 -14.5t-30 -14.5l-36 -16 t-35 -17q-23 -8 -46.5 -15.5t-50.5 -6.5q-31 0 -57 14q-39 22 -62 56q-3 8 -8.5 13.5l-8.5 8.5q-6 3 -7 -2q-2 -1 -2 -4q-1 -7 -4.5 -11t-6.5 -10q-6 -13 -11 -28q-3 -9 -8 -18t-10 -17q-5 -11 -14 -11q-3 0 -5 1q-8 4 -16 9.5t-12 12.5q2 20 10 36.5t16 30.5q4 5 6 8t5 8 q4 10 4 13q-7 3 -11.5 8t-13.5 9l-8 9q-8 25 2 47q8 16 26 13q8 -1 15.5 -4t15.5 -6q3 -2 4.5 -2.5t6.5 -2.5q3 3 5.5 4.5t3.5 5.5q8 18 17 38t17 40q3 3 4.5 5.5t4.5 5.5l58 111q1 2 1 3.5t2 5.5q-3 3 -5 1.5t-5 -1.5q-14 -6 -28 -10.5t-28 -7.5q-12 -5 -26.5 -2t-27.5 8 q-9 3 -17.5 9t-16.5 9q-18 8 -29 24.5t-14 35.5zM-67 724q3 -4 17 -7q-3 4 -5 7t-3 6l-3.5 3.5t-4.5 2.5q-2 -5 -2 -8q0 -2 1 -4zM-36 1000q4 -6 10 -12q9 -3 15 9q2 3 2.5 7t2.5 7q1 10 -5 14q-2 4 -5.5 4t-9.5 -4q-8 -7 -10 -25zM11 704q5 -5 9 -5q21 3 41 7t39 17 q3 3 6.5 4t6.5 5q11 4 23.5 9.5t22.5 13.5q12 10 25.5 23t27.5 23q11 11 22.5 23.5t19.5 24.5q0 2 5 7q10 15 22 30t22 33q7 11 12.5 24.5t9.5 25.5q1 4 1 8q0 9 -6 13q-7 6 -16 5h-5q-1 -1 -7 -2q-13 0 -29 -6.5t-29.5 -14t-22.5 -14.5l-9 -7q-11 -12 -23 -21.5t-22 -21.5 q-29 -28 -54.5 -60.5t-47.5 -66.5q-11 -15 -22.5 -31.5t-19.5 -34.5q-2 -5 -2 -11z" />
<glyph unicode="S" horiz-adv-x="667" d="M-226 588q-1 2 -0.5 4t0.5 5q2 5 8 16q8 20 20 36t33 27q26 13 54.5 22t56.5 12q22 7 43.5 6t41.5 1q3 0 7.5 -1t8.5 1q4 0 8 3q16 19 24 42q9 20 -11 29q-13 8 -23 8q-29 0 -50 19q-3 4 -8 5.5t-8 5.5q-5 6 -10 11t-8 11q-3 9 -3 15q3 12 5.5 23.5t10.5 19.5 q20 25 52 45q28 20 59 34t67 23q14 4 27 4q9 -1 19 -3q22 -6 41 -21q8 -3 11.5 -11t3.5 -15q-1 -25 -18 -38q-6 -7 -11 -13t-13 -13q-5 -6 -10.5 -12t-10.5 -11q-8 -4 -14.5 -8t-14.5 -4t-15.5 4t-12 9.5t-5.5 13.5t5 15q3 0 5.5 -1.5t5.5 -3.5q5 -2 14 -2q8 2 12.5 6 t10.5 7q5 3 10.5 7t9.5 10q11 8 12.5 19t5.5 24q0 5 -7 8q-8 6 -19 3q-15 -3 -29.5 -8.5t-27.5 -13.5q-14 -8 -27 -18t-26 -18q-33 -21 -56 -55q-10 -11 -10 -31q6 -8 19 -8q18 -6 34.5 -16t31.5 -21q25 -15 22 -47q-2 -8 -3.5 -14.5t-5.5 -13.5q5 -1 14 -1q24 0 47.5 0.5 t49.5 2.5q31 1 60.5 2.5t58.5 4.5l114 9q31 4 59.5 9.5t57.5 13.5q25 7 46 17t41 19q4 3 8 5.5t7 5.5l25 9q1 2 8 2q9 -3 9 -8q0 -3 -4 -6t-10 -7t-11 -8q-13 -8 -22.5 -13t-20.5 -12q-15 -8 -32 -14t-36 -14h-4q-16 -5 -29 -9t-27 -6q-15 -3 -29 -4.5t-28 -3.5 q-16 -2 -30.5 -3.5t-31.5 -2.5q-9 0 -20 -2.5t-20 -4.5q-18 -1 -34.5 -2.5t-33.5 -3.5q-22 -3 -40.5 -3t-35.5 -4q-18 -3 -36 -3h-36q-14 0 -29.5 -1.5t-31.5 -3.5q-14 -23 -33 -39.5t-40 -33.5q-14 -11 -29.5 -21.5t-31.5 -21.5q-13 -10 -27 -13.5t-28 -6.5l-23 -3 q-9 -1 -17 -1q-27 0 -53 12q-5 2 -9.5 6t-7.5 7q-6 10 -10 14t-6 8zM-175 610q0 -8 4 -10q15 -6 24 -6q3 -1 6 0q7 0 18 2q14 4 28 9t30 8q29 8 51 26.5t40 41.5q-2 -1 -24 1q-7 0 -14 1q-13 0 -24 -2q-22 -3 -44.5 -8t-45.5 -14l-20 -10t-16 -13l-5 -3l-3 -3l-5 -11 q-2 -2 -2 -4.5t2 -4.5z" />
<glyph unicode="T" horiz-adv-x="813" d="M-236 946q-3 3 -3 8t4 11q16 19 37.5 31t43.5 18q28 10 55.5 16.5t55.5 8.5q18 3 32 4t32 -3q16 -1 32.5 -3.5t30.5 -7.5q23 -3 40 -8t38 -8q45 -3 88 -9q33 -5 67 -5h21q40 1 79.5 9t76.5 28q8 3 14 9t15 10q2 3 4 3.5t4 4.5l15 30t2 30q-6 11 -6 23q-11 7 -19 12 q-8 -1 -10 -6t-2 -13q0 -9 3 -16t-9 -7q-8 0 -8 7q-6 18 1.5 32.5t22.5 19.5q3 1 7 1l11 -3q16 -8 29 -18.5t17 -30.5q8 -24 -3 -43q-3 -10 -7.5 -22t-12.5 -20t-18 -14.5t-21 -14.5q-16 -13 -35.5 -22t-39.5 -17q-13 -6 -26.5 -9t-26.5 -5q-24 -2 -48 -2h-17q-32 1 -65 4 q-27 3 -52 6t-51 7q-8 2 -17 5t-17 7q-13 3 -21 1q-4 -6 -8.5 -11t-7.5 -11l-7 -10q-3 -20 -7 -38t-6 -41q-1 -18 -3 -41.5t-4 -46t-4 -38.5t-2 -18q4 2 7 2h6q32 7 63 12t62 11q13 3 25 4.5t28 4.5q12 2 26.5 3.5t30.5 5.5q11 0 19 2q28 2 53.5 3.5t53.5 2.5q3 2 8 1t8 1 q35 0 68.5 2.5t70.5 3.5q28 2 55.5 4.5t55.5 2.5h4q25 0 49 5t50 11q13 2 28.5 7.5t24.5 -2.5q3 -2 3 -4q-1 -1 -3 -5q-6 -6 -13 -10q-8 -3 -14.5 -5t-15.5 -5q-7 -4 -12.5 -4t-9.5 -1q-20 -8 -38.5 -9t-41.5 -4q-28 -3 -53.5 -3.5t-55.5 -2.5q-30 -3 -61 -4t-63 1 q-7 0 -19 -4q-15 -3 -28 -3h-28q-8 0 -14.5 -2t-14.5 -2q-42 0 -81 -6t-79 -9q-8 -2 -17 -3.5t-17 -3.5q-16 -1 -29 -3t-26 -5q-9 -2 -19 -3.5t-20 -3.5q-5 -3 -9.5 -6t-12.5 -3q-13 -2 -20.5 -9.5t-12.5 -16.5q-8 -23 -22.5 -43t-27.5 -38q-8 -9 -17 -16.5t-19 -14.5 q-3 -3 -11 -7q-11 -15 -24 -23q-8 -4 -14.5 -6t-11.5 -5q-7 -2 -19 -2q-16 0 -30 3h-9q-18 3 -21.5 9.5t-4.5 21.5q0 5 1 6q20 62 70 96q20 13 42.5 25t45.5 18q18 7 22 25q8 16 13 33.5t11 35.5q3 7 3 12.5t2 8.5q8 24 12 46.5t8 48.5q0 10 1 15q11 38 33 61q3 2 3 4.5 t1 4.5q-21 6 -46 9.5t-41 3.5q-13 0 -24.5 -1t-24.5 -1q-15 0 -29 -3t-29 -6q-32 -5 -56 -23q-10 -8 -16.5 -15t-14.5 -15q-14 -9 -21 0zM-166 575q-1 -2 0 -3q0 -2 1 -2t1 -2q7 -2 17 -2h10.5t8.5 2q10 3 19 6t17 13q9 9 16.5 21.5t12.5 24.5q8 9 13 26q3 3 4 5.5t3 3.5 l1 7q0 1 -1 3q-2 2 -5 2t-6 -2q-16 -13 -42 -23q-9 -6 -17.5 -11t-16.5 -13q-7 -6 -13 -14.5t-11 -17.5q-6 -8 -8 -18q-2 -2 -4 -6z" />
<glyph unicode="U" horiz-adv-x="861" d="M-171 878q-4 8 -4 16t4 17q3 8 10 12t16 2q11 -1 15 -16q2 -6 -2 -10t-9 -2q-3 0 -13 3q-2 1 -3.5 -0.5t-1.5 -4.5q3 -8 7.5 -14.5t14.5 -9.5q3 -2 11 -2q19 -3 32 7t23 25v5q-3 3 -6.5 5.5t-6.5 5.5q-12 13 -19 27.5t-2 34.5q6 18 19 20q6 3 13 3t13 1q14 0 21 -12 t11 -23.5t0 -24.5q-1 -3 -2 -7t4 -7h11t10 3q28 11 45 24q7 3 11 7.5t9 8.5q5 10 8 18.5t5 9.5q6 13 20 13.5t23 -8.5q3 -6 2 -10q-3 -6 -6.5 -11t-4.5 -12q-8 -18 -15.5 -37t-12.5 -40q-6 -23 -12.5 -45.5t-11.5 -45.5q-3 -9 -5.5 -19t-6.5 -19q-7 -23 -10.5 -47.5 t-12.5 -48.5q-3 -14 -3.5 -30.5t3.5 -34.5q8 3 9 6q14 13 26.5 27.5t23.5 29.5q6 10 12 17.5t12 15.5q7 8 13 17l12 18q20 30 41 58t38 58q11 19 21.5 33.5t17.5 31.5q0 2 3 8q12 13 19.5 28t17.5 29q5 6 9 12l8 12q3 7 7 10q2 2 5 2t7 -2q8 -3 16 -7t10 -12 q-8 -28 -14.5 -52.5t-18.5 -49.5l-8 -18q-3 -13 -7.5 -23.5t-7.5 -23.5q-2 -11 -7 -21t-9 -21q-6 -28 -16.5 -53.5t-16.5 -53.5q-4 -16 -4 -31.5t4 -30.5q0 -1 0.5 -1t0.5 -3q8 -2 12.5 1l10.5 7q23 12 44 22.5t41 24.5q30 18 59 33t61 29q33 12 63.5 23.5t63.5 21.5 q23 7 46 10.5t45 10.5q42 9 85 14t86 8h12.5t12.5 -2q7 0 7 -6t-5 -8q-10 -6 -17 -6q-10 -2 -20.5 -2.5t-20.5 -0.5q-11 -2 -21 -2h-20q-29 -3 -57 -9.5t-57 -14.5q-19 -3 -37.5 -7.5t-35.5 -11.5q-20 -7 -40 -12t-39 -15q-8 -6 -25 -11q-48 -20 -97 -50q-23 -14 -46 -28.5 t-46 -26.5q-8 -7 -15.5 -11t-13.5 -11q-7 -3 -11.5 -4.5t-9.5 -1.5q-9 0 -18.5 -1t-16.5 -1q-15 2 -25.5 8t-17.5 22q-11 28 -11 55v8q3 21 5.5 40.5t6.5 38.5q2 3 2 5.5t2 6.5q-6 -3 -7 -4q-6 -10 -12.5 -18.5t-10.5 -20.5q-15 -37 -43 -69q-6 -10 -8 -15 q-8 -18 -18.5 -30.5t-23.5 -26.5q-19 -19 -41 -19q-7 0 -14 2q-6 2 -19 2q-16 3 -23 14q-8 11 -10.5 23t-3.5 26q0 24 5.5 48.5t13.5 46.5q6 18 12 35.5t12 37.5q8 23 14.5 44.5t14.5 44.5q5 9 9 19t6 19v2q0 2 1 3q-36 -27 -79 -27h-3l-32 -27q-13 -10 -27.5 -13.5 t-29.5 -3.5q-5 0 -9 1t-9 2q-14 6 -22 21zM-89 946q3 -4 6.5 -8t9.5 -7q13 -4 19 -7q10 16 10 30q0 15 -11 28q-5 1 -10 1q-15 0 -23 -15q-4 -5 -4 -11q0 -5 3 -11z" />
<glyph unicode="V" horiz-adv-x="1004" d="M-284 953q3 3 10 1.5t10 -10.5q11 -18 34 -25q8 -3 14 -3t14 6q8 3 9 9q-1 3 -1 5.5t-2 3.5q-8 13 -7 24.5t2 23.5q0 5 2.5 9.5t5.5 7.5q20 13 39 20q13 4 26 -3.5t13 -19.5q0 -11 2.5 -23.5t-5.5 -25.5q-4 -5 2 -9t13 0q15 3 27 10l48 25q8 3 14 6l12 6q4 2 6 2t5 2 q13 10 19 15q3 1 11 6q6 5 18 17q1 3 3 7t3 7q2 3 1 6t2 6q4 4 6 4t5 2l11 3q8 0 11.5 -1t10.5 -4q6 -6 8 -16t-5 -18q-8 -12 -10.5 -25.5t-8.5 -26.5q-6 -11 -9 -24.5t-6 -27.5q-3 -11 -5.5 -20.5t-3.5 -22.5q-4 -5 -4.5 -10.5t-2.5 -10.5q0 -6 -2.5 -11t-2.5 -10 q-1 -8 -1 -23q-2 -11 -9 -21q-1 -3 -2 -5.5t-1 -6.5q-5 -3 -5 -7q-4 -31 -14 -61t-15 -64q-3 -22 -9 -34q-5 -13 0 -31q9 9 14 17q18 24 34 46.5t32 45.5q18 23 35 42t35 42q20 16 21 40q0 8 2.5 14.5t3.5 13.5q8 27 15.5 53t18.5 53q7 13 13.5 28t16.5 28l8.5 17t10.5 17 q5 6 10.5 13.5t13.5 8.5q13 4 24 -3t19 -13t15.5 -11.5t11.5 -17.5q0 -2 1.5 -2t1.5 -1q0 -5 -2 -9t-2 -7q-2 -5 -4.5 -10t-4.5 -8q-3 -10 -7 -20t-9 -18q-16 -21 -29 -41t-31 -42q-8 -8 -13 -17t-13 -17q-13 -13 -13 -31q4 -16 4 -31v-32q0 -16 17 -18q5 -4 9 -4h8 q15 4 30 7t30 7q32 8 63 15.5t62 16.5q13 5 27 7.5t29 5.5q4 1 8.5 2t9.5 1q23 8 43.5 10.5t43.5 5.5q53 5 105.5 13t106.5 11l84 5q26 2 51.5 2h50.5h15.5t15.5 -2q9 0 9 -8q0 -5 -5 -6q-3 -5 -11 -6.5t-15 -3.5q-8 -3 -18.5 -1.5t-19.5 -1.5l-151 -10q-55 -5 -115 -14 q-18 -3 -36 -5t-37 -3q-32 -2 -63.5 -10t-62.5 -15q-86 -19 -164 -46q-43 -14 -85 -14q-15 0 -31 2q-40 5 -64 40q-4 10 -8 18q-7 0 -8 -6q-11 -13 -22.5 -27t-20.5 -30q-8 -11 -16.5 -22.5t-18.5 -22.5q-13 -14 -22 -30.5t-19 -35.5q-11 -18 -31 -37q-7 -11 -12.5 -24 t-12.5 -25q-9 -19 -16.5 -35.5t-15.5 -34.5q-8 -14 -22 -14h-5q-17 0 -17 19q-2 20 4 40q11 25 19.5 47.5t14.5 46.5q8 29 13 59t13 61q10 42 17.5 86t19.5 87q4 16 9.5 32t9.5 33q3 8 3.5 17t2.5 17q3 3 4 8.5t2 10.5q0 3 1 6t1 4v8q-8 -3 -22 -11.5t-22 -16.5 q-9 -7 -19.5 -15.5t-21.5 -14.5q-29 -22 -65 -22q-15 0 -31 4q-11 3 -20 2.5t-20 -9.5q-11 -6 -22.5 -4.5t-20.5 4.5q-18 5 -33 14t-26 26q-6 8 -6 14q0 5 3 8zM-165 948q3 -3 7 -3.5t8 3.5q6 11 7.5 23.5t-2.5 30.5q-8 -7 -12.5 -11t-7.5 -7q-6 -8 -6 -17t6 -19zM250 893 q23 19 41 49t26 60q-2 12 -19 16q-16 -16 -24.5 -35.5t-14.5 -40.5q-3 -12 -7 -24q-3 -7 -3 -15q0 -5 1 -10z" />
<glyph unicode="W" horiz-adv-x="1054" d="M-133 987q0 3 3 6q2 2 4.5 2t2.5 -2q6 -2 10 -9q10 -13 24 -15q12 -3 16.5 -3t15.5 3q-3 11 -11.5 18.5t-12.5 15.5q-7 16 -12.5 31.5t14.5 28.5q14 11 33.5 11t32.5 -16q11 -13 14.5 -23t-1.5 -27q0 -5 -1.5 -10t-1.5 -10q1 -1 3 -1q13 3 26.5 5.5t27.5 9.5q14 6 25.5 6 t23.5 -11l4 -6q3 -29 -8 -56q-8 -15 -14 -31t-11 -33q-1 -8 -5 -18t-6 -21q-6 -25 -13.5 -48t-10.5 -48q-8 -14 -9 -30t-4 -30q0 -3 1 -6t1 -6q21 11 27 22l16 21q14 14 27 30.5t27 32.5l45 62q3 3 5.5 8t3.5 8l3 9q12 28 38 10q19 -12 15 -35q-4 -14 -6 -30t-5 -32 q0 -8 -1 -16t-3 -16q-9 -52 -10 -100q0 -8 -3 -13q-3 -20 -5.5 -37.5t-3.5 -36.5q-2 -12 -1 -26.5t1 -29.5q1 -3 2 -7.5t4 -7.5q3 3 5.5 5t3.5 6q18 21 32 44.5t27 46.5q12 25 23 49.5t23 49.5l6 13q-8 8 -12 13q-13 10 -19.5 25t-6.5 32q-2 28 5.5 52t20.5 47q14 23 32 46 q7 8 13.5 15.5t14.5 10.5q10 4 22 0t20 -11q5 -5 8.5 -10.5t0.5 -13.5q-2 -5 -3 -11t-4 -11q-22 -66 -49 -137q-8 -21 -2 -27.5t21 -6.5q8 -2 15 -1t15 1q49 2 97.5 13.5t96.5 20.5q23 3 44.5 8t44.5 10q52 11 101 20.5t101 23.5q28 8 57 11t56 4q10 0 19 2t17 2q6 0 22 -1 q14 -1 13 -10q0 -7 -8 -9q-7 -2 -11 -3q-27 -1 -53 -2.5t-52 -8.5q-19 -4 -37.5 -7t-38.5 -8q-52 -12 -103.5 -24.5t-103.5 -20.5q-26 -4 -51 -10t-50 -11q-37 -8 -71.5 -15.5t-71.5 -10.5q-15 -2 -29.5 -1t-32.5 3q-9 0 -26 3q-6 -13 -10 -24.5t-9 -20.5q-32 -71 -62 -138 q-7 -12 -14.5 -22t-19.5 -21q-14 -14 -33 -14h-10q-48 0 -55 45q-2 4 -2 15v39t3 37q3 14 3 29t2 31q2 13 4 27.5t4 28.5q3 18 6.5 35t8.5 36v15q-13 -12 -22.5 -23.5t-17.5 -24.5q-5 -8 -14 -19q-12 -15 -22 -31t-21 -34q-3 -3 -6.5 -7t-6.5 -9q-9 -14 -22.5 -18.5 t-27.5 -1.5q-13 3 -23 9q-13 3 -13 13q-3 19 -4.5 37.5t2.5 37.5q5 13 7.5 27.5t7.5 28.5q3 8 5.5 13.5t6.5 13.5q6 13 10 27.5t10 27.5q8 26 17 50t17 50q3 13 3 15q-1 2 -14 1t-29 -3.5t-30.5 -6.5t-19.5 -7q-18 -10 -44.5 -3t-40.5 30q-3 7 -3 10zM-65 1029q5 -27 33 -38 q9 8 10 17.5t1 18.5q0 18 -16 23q-5 3 -10 3q-7 0 -15 -5q-5 -4 -6 -10q1 -4 3 -9zM344 757q10 1 11 10q12 28 21.5 54.5t21.5 53.5q3 11 3 20q0 11 -9 14q-1 1 -2 1q-5 0 -12 -9q0 -1 -4 -6q-10 -21 -18 -41.5t-8 -42.5q0 -7 -1 -11t-3 -9q-2 -9 -2 -17.5t2 -16.5z" />
<glyph unicode="X" horiz-adv-x="835" d="M-351 531q2 8 9 22.5t20 9.5q8 -1 4 -12t-6 -14q-3 -8 0 -11l9 -9q11 -6 23 -10.5t27 -0.5q19 8 37 17t32 22q29 16 51.5 40.5t47.5 50.5q9 11 19 23.5t18 24.5q14 23 30 44t33 42q3 3 4.5 6.5t5.5 6.5q-4 3 -7 16q-4 12 -9 22.5t-8 21.5q-13 37 -30 72.5t-43 68.5 q-16 19 -36 27q-11 3 -20.5 -1t-13.5 -15v-5.5t2 -7.5q1 -3 4.5 -4.5t6.5 -5.5q4 -7 5.5 -12.5t-3.5 -8.5q-5 -5 -15 -9q-21 0 -33 18.5t-6 38.5q13 24 37 30q33 8 56 -5t40 -31q23 -24 44 -51.5t34 -58.5q5 -11 11.5 -21.5t12.5 -21.5l3 -7q8 4 12.5 9.5t8.5 11.5 q34 47 72 91.5t82 85.5q19 18 40 31.5t46 26.5q3 3 5.5 3.5t6.5 2.5q20 9 38 9q25 0 48 -17q4 -2 6 -3.5l6 -4.5q30 18 71 18q6 1 12 0q25 0 52 -16q8 -5 14 -15t8 -19q3 -5 -2 -19.5t-14 -8.5q-5 3 -6 14.5t-3 16.5q-3 16 -19 23q-27 8 -51.5 5.5t-46.5 -20.5 q-2 -13 -2 -24.5t-3 -22.5q-2 -8 -5.5 -15.5t-4.5 -15.5q-2 -6 -3 -13.5t-4 -15.5q-5 -8 -18.5 -13.5t-21.5 -2.5q-3 4 -7 4t-7 3q-3 6 -7 9q-11 11 -10.5 24t6.5 27q5 12 15.5 23.5t18.5 24.5l12 15q-3 8 -9.5 11t-14.5 0q-26 0 -48 -15q-23 -13 -39.5 -26.5t-32.5 -31.5 t-26 -35t-22 -34q-8 -13 -17.5 -23.5t-21.5 -22.5q-26 -31 -52 -70l-23 -32q-8 -8 -6.5 -16.5t6.5 -19.5q3 -9 8 -17t8 -18q5 -20 10.5 -35.5t12.5 -34.5q5 -12 9.5 -24.5t9.5 -23.5q3 -5 6.5 -10t8.5 -8q7 -13 20 -20.5t27 -10.5q1 3 8 3q11 4 21 10.5t21 11.5 q11 6 22.5 11t24.5 12q3 1 8 3.5t9 5.5q4 0 9 5q26 11 56 28l25 12q29 16 57.5 33.5t57.5 33.5q77 40 156.5 66t165.5 37q15 2 15 -8q0 -9 -14 -11q-28 -3 -55 -9t-56 -12q-34 -13 -67.5 -27t-68.5 -26q-26 -13 -51 -25t-48 -27q-6 -5 -13.5 -8t-14.5 -8q-15 -10 -30.5 -18 t-32.5 -20q-37 -26 -71 -47q-18 -11 -35 -20.5t-34 -19.5q-20 -8 -38.5 -16t-37.5 -8h-3q-8 1 -15 2.5t-13 4.5q-11 5 -20 13.5t-19 16.5q-12 15 -24 37q-7 12 -14.5 23t-11.5 24q-5 16 -10.5 30.5t-14.5 31.5q-3 5 -5.5 10.5t-5.5 9.5q-3 0 -8 -4q-8 -10 -16 -18t-16 -19 q-13 -23 -30 -42t-35 -36q-32 -34 -62 -55q-15 -13 -30 -23t-34 -19q-13 -6 -27 -13t-29 -10q-11 -2 -22 -2q-30 0 -58 16q-22 11 -21 43zM360 981q0 -7 3 -15q3 -5 9 -7h3q4 0 7 4q0 3 0.5 3t0.5 2q5 14 11 28q9 22 9 28q0 3 -2 9q-6 0 -8 -2q-9 -6 -15.5 -16t-14.5 -22 q-3 -5 -3 -12z" />
<glyph unicode="Y" horiz-adv-x="805" d="M-142 876q-4 8 -4 16t4 17q3 7 10 11t16 4q11 -2 16 -18q1 -5 -3 -9t-8 -4l-14 5q-5 0 -5 -5q4 -8 8 -14.5t14 -9.5q3 -2 5.5 -2t5.5 -1q20 -2 32.5 8.5t22.5 25.5v6q-9 6 -13 10q-13 12 -20 26.5t-1 34.5q6 18 18 20q7 3 13 3t14 2q14 0 22 -12q6 -11 10 -22.5t1 -24.5 q-2 -3 -3 -7t4 -9q5 2 11 1t10 3q13 6 24.5 11.5t21.5 13.5q3 1 7 7q8 11 15.5 22.5t15.5 14.5q11 6 25 2q16 -3 17 -15q0 -5 -5.5 -13t-8.5 -13l-18 -27q-7 -14 -13 -30t-14 -30q-8 -20 -15.5 -38t-15.5 -37q-5 -15 -7.5 -31t1.5 -33q0 -2 0.5 -2.5t0.5 -4.5q20 5 31 15 q5 3 11 6t13 6q5 3 10.5 7.5t12.5 9.5q9 8 17.5 18.5t19.5 18.5q12 9 23.5 22.5t22.5 25.5q41 45 90 94q3 5 5.5 8.5t5.5 9.5q3 10 7.5 15.5t8.5 14.5q4 3 6 7.5t5 7.5q4 7 10 8h2q6 0 11 -3q4 -3 4 -9q0 -4 -2 -7.5t-2 -7.5q-3 -11 -7 -22.5t-4 -24.5q0 -3 -2 -6t-2 -7 l-7 -28t-7 -32q-1 -11 -1 -22.5t-2 -22.5q-2 -8 -1 -16t-2 -16q-2 -10 -3.5 -19.5t-3.5 -21.5q-1 -11 -4 -21.5t-4 -22.5q-2 -3 -2 -8q13 4 27 4.5t27 2.5q5 1 13 1q22 8 45.5 14t48.5 14q18 6 36.5 12t35.5 11q23 8 46.5 14t46.5 13q21 5 42 8.5t42 6.5q25 3 49.5 8.5 t52.5 5.5q15 0 15 -8q0 -11 -15 -11q-5 0 -10 -1t-10 -1q-9 -1 -17.5 -1t-16.5 -2q-37 -6 -75.5 -15t-76.5 -20q-32 -10 -65 -21.5t-68 -21.5q-31 -8 -59.5 -16.5t-59.5 -15.5q-14 -3 -29.5 -6.5t-30.5 -6.5q-2 -3 -2 -4.5t-1 -4.5q-3 -16 -8.5 -31t-13.5 -31 q-19 -52 -48 -97q-8 -10 -16 -17.5t-16 -15.5q-6 -7 -14.5 -12.5t-14.5 -11.5q-10 -8 -19 -12t-22 -5q-15 -3 -23 -3h-3q-8 1 -29 4q-3 3 -8 3h-8q-18 3 -27.5 14t-7.5 28q4 57 40 93q18 18 36 33.5t38 29.5q18 11 33 21t34 18q7 4 20.5 9t20.5 8q2 8 3 9t3 7q5 23 9 46.5 t7 46.5q3 18 6 37t5 39q0 8 7 21q0 6 3 13q-16 -8 -24 -22q-19 -23 -39 -45.5t-42 -42.5q-9 -14 -31 -32q-6 -7 -11 -11.5t-13 -10.5l-26 -18t-26 -17q-10 -7 -18 -4q-9 0 -20.5 2t-19.5 5q-8 5 -14.5 12.5t-8.5 18.5q-5 20 -5 37q0 23 8 42q6 14 12 26.5t13 25.5q4 9 9 19 t10 18q-28 -14 -60 -13q-8 -8 -16 -14.5t-16 -14.5q-21 -16 -57 -17q-11 0 -16 4q-16 6 -24 20zM-60 945q6 -13 17 -16q7 -2 19 -7q8 16 8 29q0 17 -12 31h-5q-15 0 -27 -16q-2 -6 -2 -11t2 -10zM66 477q8 -23 34 -23h2q18 2 42 14q11 8 21 18.5t19 18.5q18 29 35 61.5 t22 64.5l3 22q-3 0 -14.5 -5.5t-25.5 -12.5t-30.5 -17t-26.5 -16q-6 -6 -13 -10q-38 -22 -57 -60q-7 -12 -9 -25q-2 -9 -2 -21v-9z" />
<glyph unicode="Z" horiz-adv-x="782" d="M-167 1044q0 24 20 40q16 9 30.5 16.5t35.5 7.5q36 0 63 -18q5 -5 7 -5q14 -7 22 -26q3 -4 6 -6.5t6 -7.5q6 3 11 4.5t8 3.5q11 3 21.5 7.5t22.5 5.5q11 3 22 3q31 0 56 -25q12 -11 16 -25t2 -32q-1 -8 -6 -17t-8 -17q-3 -7 -8 -11q-8 -8 -13 -19t-10 -18 q-6 -8 -11.5 -14t-12.5 -14q-2 -3 -2 -4.5t-3 -5.5q5 0 9.5 -0.5t8.5 -2.5q13 -3 23.5 -8t20.5 -13q8 -8 13 -17t5 -22q-2 -3 0.5 -5.5t2.5 -5.5v-18q-5 -16 -8.5 -30.5t-7.5 -29.5q1 -3 9 -3l36 5q38 4 76.5 5t75.5 3q29 0 57.5 1t57.5 4q19 3 38.5 4.5t39.5 3.5 q40 3 78 9.5t77 19.5q12 3 23.5 8.5t23.5 13.5q11 5 20 12.5t19 13.5l6 3q11 4 14 0.5t3 -8.5t-9 -14q-3 -3 -7 -6.5t-7 -8.5q-13 -6 -23.5 -14t-27.5 -15q-3 -2 -5.5 -2.5t-5.5 -3.5q-35 -8 -72.5 -18t-74.5 -13q-20 -3 -39 -5.5t-39 -2.5l-48 -5h-64.5t-62.5 -3 q-27 -1 -53.5 -3.5t-52.5 -6.5q-18 -3 -35 -4.5t-35 -3.5q-6 -2 -12 -3.5t-9 -9.5q0 -3 -1.5 -4.5t-1.5 -3.5q-10 -21 -23 -38.5t-25 -37.5q-7 -11 -19 -16q-6 -6 -11 -9q-12 -16 -27.5 -27t-30.5 -24q-3 -3 -8 -5q-9 -3 -20 -7.5t-22 -8.5q-12 -2 -23 -2q-13 0 -26 3 q-8 3 -13.5 5t-8.5 4q-14 1 -23 16q-11 21 -13 37q0 21 12 44q19 42 55.5 66t81.5 33q6 1 14.5 2t17.5 4q19 3 38 3h38h14q6 8 9 16.5t8 16.5q6 11 8.5 23t6.5 25q3 6 3 18q-5 36 -44 36q-18 -2 -36 -10q-7 -8 -22 -13q-8 -2 -14.5 -6t-12.5 -9q-10 0 -16 6l-9 9 q-3 1 -3 4.5v4.5q3 7 6 12t8 11q18 16 33 30.5t29 29.5q16 16 29 34q6 8 12 18.5t14 20.5q5 6 6.5 13.5t3.5 15.5q0 13 -8 26q-3 10 -15 10q-9 0 -20.5 -1t-23.5 -4q-8 -3 -16 -5.5t-16 -6.5q-10 -8 -8 -17v-2q3 -18 0.5 -33.5t-5.5 -32.5q-6 -15 -13.5 -27t-20.5 -22 l-18 -13q-24 -21 -56 -5q-21 7 -18 28q3 8 4 17t4 17q14 34 44 60q13 8 23.5 17.5t21.5 19.5q-3 14 -11.5 22.5t-20.5 14.5q-10 5 -20.5 9.5t-23.5 8.5q-12 3 -29 1q-10 -3 -19.5 -7.5t-17.5 -11.5q-8 -11 -9 -25.5t7 -23.5q8 -8 22 -8q7 0 10.5 1t9.5 3q2 0 5 -4 q0 -3 -2 -4q-1 -2 -3.5 -4.5t-5.5 -2.5q-11 -3 -22.5 -2t-23.5 9q-11 4 -11 17q0 11 -2 17zM-103 553q0 -13 9 -14q6 -3 12 -6.5t12 -6.5q4 -6 8 -5q4 0 8 4q7 4 13.5 5.5t14.5 3.5q8 3 15.5 4.5t13.5 8.5q23 19 44 40t37 46q6 9 13.5 19t10.5 23q-14 3 -25.5 4.5 t-22.5 -1.5q-13 -3 -22 -4t-20 -2q-14 0 -26.5 -6t-25.5 -14q-3 -2 -4.5 -3.5t-4.5 -3.5q-20 -7 -33 -22t-23 -32q-3 -3 -3 -10q-1 -8 -1 -13.5v-14.5zM-62 922q-1 -3 -1 -5q0 -7 9 -11q3 0 5 -0.5t4 -0.5q6 -2 10 -2q8 0 14 6q30 36 30 81q0 3 -3 13q-23 -12 -38 -30.5 t-26 -38.5q-4 -7 -4 -12z" />
<glyph unicode="[" horiz-adv-x="474" d="M34 544l12 30t14 30q18 32 35.5 63.5t37.5 64.5q8 12 15.5 23t15.5 22q7 12 15.5 25t16.5 28q13 26 31 48q14 22 25 47q24 52 66 97q13 13 28 15q11 2 21 4.5l22 5.5t15 3q10 0 19 -3t13 -8.5t2.5 -12.5t-14.5 -12q-11 -4 -22.5 -9t-24.5 -3h-11q-16 0 -23 -15 q-21 -33 -40 -67.5t-33 -71.5l-9 -18q-16 -27 -32.5 -56.5t-32.5 -56.5l-83 -144q-8 -13 -15 -24.5t-16 -23.5q20 -5 37.5 -6.5t32.5 -12.5q0 -18 -15 -18h-43h-22.5t-19.5 7q-11 8 -17 22t-1 27z" />
<glyph unicode="\" horiz-adv-x="292" d="M32 972q0 8 2 12q3 7 7 16.5t9 17.5q8 1 18 -12q3 -7 6 -14.5t8 -14.5q8 -11 13 -22.5t10 -23.5l85 -206q12 -32 23.5 -63t22.5 -63q8 -20 14 -39t15 -37q7 -11 -3 -20q-6 5 -11 10.5t-13 9.5q-13 6 -20.5 15.5t-13.5 23.5q-6 11 -11 21.5t-11 21.5q-3 3 -3 8t-3 10 q-1 7 -8 24q-8 23 -20 43t-15 46q-2 3 -5 6.5t-5 6.5q-5 8 -9 15.5t-6 16.5q-5 31 -17 59q-11 18 -18.5 36.5t-15.5 37.5q-3 8 -9 17q-8 8 -10 19t-6 22z" />
<glyph unicode="]" horiz-adv-x="472" d="M32.5 512.5q1.5 6.5 14.5 12.5q11 4 22.5 9t24.5 3h11q14 0 23 14q21 33 39.5 67.5t33.5 71.5l9 19q16 27 32 55.5t33 57.5l83 144q8 13 15 24.5t16 23.5q-20 5 -38 6t-33 13q0 18 15 17h44h24.5t21.5 -10q8 -7 13.5 -19.5t0.5 -25.5l-12 -30t-14 -30 q-18 -32 -35.5 -63.5t-37.5 -64.5q-8 -12 -15.5 -23t-15.5 -22q-8 -12 -16 -25.5t-16 -27.5q-13 -26 -31 -49q-8 -11 -14 -22.5t-12 -24.5q-13 -28 -29 -51t-37 -46q-12 -13 -27 -14q-11 -2 -22 -4.5t-21 -5.5l-16 -4q-8 0 -17 3.5t-13.5 9t-3 12z" />
<glyph unicode="^" horiz-adv-x="284" d="M34 825q3 12 12 22t20 19q20 12 33.5 27t25.5 32q12 21 32.5 38t40.5 36q9 7 27 4q16 -1 16 -18q3 -23 3 -47t-6 -47q-2 -8 -2 -14t-1 -14q-4 -20 9 -30q10 -10 0 -19q-8 -8 -24 -5q-21 5 -22 21q-4 20 -6 39t2 39q5 14 2 43l-65 -69q-13 -15 -27.5 -28.5t-27.5 -26.5 q-10 -9 -39 -15q-6 5 -3 13z" />
<glyph unicode="_" horiz-adv-x="744" d="M81 532q0 10 1.5 20t5.5 21q3 8 12.5 13.5t17.5 5.5h55q9 0 23 4q13 1 25 2.5t25 1.5q24 0 49.5 -0.5t48.5 -3.5q16 0 23 1q11 2 22 2h20q29 1 57 -3.5t55 -8.5q12 -3 24 -3t23 -2q3 0 7 -1.5t7 -3.5q0 -18 -14 -18l-28 -6l-34 -5q-8 -1 -14.5 -1t-12.5 -2 q-33 -6 -63.5 -5.5t-63.5 0.5q-66 2 -130 -4q-18 -2 -36.5 -2t-36.5 -2q-13 0 -24.5 -0.5t-22.5 -3.5q-11 -2 -21 4z" />
<glyph unicode="a" horiz-adv-x="832" d="M-68 700q0 3 -1 5q0 16 11 36q7 13 16.5 25t18.5 22q36 34 73 63q23 18 50 27q7 3 16 4q12 0 25 -8q23 -12 24 -36v-8t3 -8q16 -15 2 -38q-13 -19 -18 -40t-7 -43q-1 -8 -1 -17t8 -17q12 -8 23 -10t24 -2q21 1 40.5 4t38.5 11q20 8 41 14t42 15l25 10q33 12 65 26t66 27 q87 30 175 46q74 13 150 12h29q15 0 15 -10.5t-15 -10.5q-30 0 -60 -0.5t-61 -5.5q-38 -6 -75 -16.5t-76 -19.5q-29 -8 -57 -16t-55 -21q-8 -5 -15 -7.5t-15 -5.5q-19 -8 -36.5 -15.5t-35.5 -15.5q-37 -20 -74.5 -35.5t-79.5 -25.5q-14 -3 -28 -3q-33 0 -66 18q-3 3 -6 4.5 t-6 3.5q-36 19 -41 61q0 2 -1 3.5t-2 6.5q-10 -8 -17 -13.5t-16 -11.5q-12 -12 -32 -24q-13 -12 -32 -10l-15 5q-3 1 -6 3t-6 6q-23 18 -25 36zM-3 694h2q5 0 11 6q8 7 13 10l63 49q5 3 11 13q6 9 12.5 19t15.5 20q3 4 6 10t5 11v3q0 6 -6 8q-2 1 -5 1q-4 0 -7 -3 q-24 -15 -48 -42q-8 -7 -15.5 -14.5t-14.5 -15.5q-4 -5 -8 -12t-9 -11q-5 -7 -11 -11.5t-10 -11.5q-4 -3 -5.5 -6.5t-2.5 -6.5q-3 -3 -3 -7q0 -7 6 -9z" />
<glyph unicode="b" horiz-adv-x="737" d="M-4 694q-2 11 -2 24q0 16 3 32q1 5 1 19q0 27 7.5 53.5t18.5 54.5q13 32 29.5 63.5t34.5 62.5q32 52 80 86q20 13 40 13l42 -15q26 -20 26 -53q0 -5 1 -10t1 -10q0 -12 -8 -26q-3 -6 -6 -11.5t-6 -11.5q-13 -28 -34.5 -49t-45.5 -39q-23 -18 -46.5 -33t-50.5 -26 q-15 -6 -15 -20q-3 -13 -7 -26t-7 -26q-8 -25 3 -44q5 3 11 10q15 16 31 30.5t34 27.5q29 20 59 21q21 1 33 -10t12 -31q1 -11 -1.5 -20t-5.5 -20q-6 -11 -9.5 -21.5t-6.5 -20.5q3 -6 7.5 -5t7.5 1q27 6 52 10.5t51 9.5q33 6 66 11.5t65 11.5q23 3 44 6.5t43 7.5 q14 5 30 11.5t32 10.5q40 12 78.5 32t75.5 40q3 2 5.5 3.5t5.5 1.5q6 0 9 -3q2 -3 2 -6t-2 -7q-7 -8 -17 -13q-31 -23 -64 -37.5t-69 -26.5q-34 -11 -67 -19.5t-69 -17.5q-19 -4 -39.5 -6.5t-39.5 -5.5q-52 -8 -103.5 -18t-103.5 -22q-11 -4 -19.5 -9.5t-14.5 -17.5 q-11 -15 -22 -30.5t-23 -32.5q-16 -21 -38 -33t-50 -12h-11q-18 3 -26 15.5t0 28.5q11 23 29 40q8 6 14.5 12t14.5 11q8 6 18 8q9 5 20 10t21 8q37 11 54 48q3 11 9 22t11 22q2 8 3.5 13.5t2.5 13.5q4 20 -19 17q-12 -2 -30 -11q-20 -16 -37 -32t-30 -39q-8 -12 -13.5 -26.5 t-12.5 -27.5q-3 -8 -9.5 -19.5t-19.5 -8.5q-25 7 -29 33q-5 27 -9 53zM45 548q3 -8 12 -8h3h4q4 2 7 4q42 22 62 66q-15 1 -25.5 -5t-19.5 -13q-11 -6 -21 -15t-20 -17q-3 -5 -3 -8q0 -2 1 -4zM74 837q16 3 22 8l30 18t30 19q12 8 22 17.5t21 19.5q10 12 16.5 25t15.5 27 q15 18 20 44q1 6 1 11q0 19 -14 35q-11 13 -21 13q-12 0 -24 -15q-3 -3 -3 -4q-11 -16 -21 -31.5t-24 -28.5q-3 -3 -3 -5t-1 -3q-16 -33 -30.5 -67t-31.5 -66q-2 -3 -3.5 -8t-1.5 -9z" />
<glyph unicode="c" horiz-adv-x="648" d="M-58 725q3 28 16.5 47t35.5 37q12 11 26 21.5t28 21.5l34 19q7 4 16 4q5 0 10 -1q31 -5 29 -36q-3 -26 -12 -42q-3 -4 -11.5 -19t-14.5 -15h-2q-6 2 -9.5 7.5t0.5 10.5l17 32q3 10 3 15t-3 8q-5 2 -9 0q-10 -6 -15 -12q-20 -18 -36.5 -37t-30.5 -43q-16 -26 -17 -54 q-3 -13 1 -17.5t15 -11.5q14 -4 27 -4q63 4 124 15.5t122 33.5q73 28 146 62t153 45q23 3 46.5 4.5t46.5 3.5q3 0 7.5 -1.5t4.5 -6.5q1 -3 1 -5q0 -8 -13 -8h-23.5t-23.5 -1q-77 -8 -150 -35.5t-145 -57.5t-146 -54.5t-153 -25.5q-29 0 -57 17.5t-37 46.5q-3 11 -3 21 q0 8 2 15z" />
<glyph unicode="d" horiz-adv-x="713" d="M-72 717q10 19 25 37q23 27 49 51t55 44q16 11 35 10.5t36 -13.5q5 -3 9 -8t8 -8q8 5 12.5 12t9.5 15q12 23 26 46.5t29 46.5q9 18 21 30q11 13 19 26t19 27q20 22 40 42t40 41q13 13 25 23.5t26 20.5q20 14 42 21q6 2 11 1q16 0 30 -12q18 -18 13 -40q-5 -23 -13 -43.5 t-21 -41.5t-27.5 -43t-32.5 -41q-11 -12 -24 -24t-26 -25q-16 -14 -33 -26t-35 -27q-14 -13 -33 -21.5t-36 -17.5q-20 -5 -25 -19q-16 -40 -30.5 -78.5t-19.5 -80.5q-1 -11 -2 -22.5t2 -22.5q0 -8 7 -21q5 -13 22 -13q8 0 16 1t16 4q25 9 48 21q26 19 51 32q34 21 67 42 t71 44q33 23 69 41.5t73 34.5q38 14 77.5 24.5t80.5 12.5q14 0 17 -8q0 -11 -17 -11q-18 -2 -36 -3.5t-36 -6.5t-33 -11.5t-32 -10.5q-32 -13 -62 -27.5t-59 -32.5q-3 -2 -6.5 -3.5t-6.5 -3.5q-2 -1 -3.5 -2t-3.5 -4q-37 -28 -72.5 -54t-72.5 -51q-20 -13 -44 -28.5 t-51 -27.5q-28 -12 -54 -18q-11 -3 -22 -3q-15 0 -28 5q-26 8 -32 34q-4 8 -6 16l-4 16v23q0 2 -2 3q0 13 2 22q0 8 1 17.5t2 17.5q0 4 1 5.5t1 4.5q-14 -3 -21.5 -10.5l-15.5 -15.5q-26 -26 -59 -33q-16 -3 -29.5 0.5t-27.5 11.5q-20 10 -20 39q0 28 10 47zM-31 682 q-2 -6 -2 -12q0 -8 5 -14v-1q5 -5 12 -5q6 0 12 3q16 6 24 11q8 4 13.5 9t11.5 8q8 5 18.5 21t21.5 34t18 33t8 19q4 8 7 21q2 8 -2.5 13t-12.5 3q-7 -3 -14.5 -5.5t-14.5 -5.5q-14 -7 -24 -17.5t-19 -21.5q-14 -18 -27 -34t-25 -36q-5 -7 -10 -23zM230 851h13q15 6 22 12 q13 6 23.5 14.5t21.5 17.5l15 11q7 6 13 12.5t14 12.5q23 18 37 34q8 7 13.5 16t11.5 18q13 18 26 37t26 37q8 14 14 30q11 26 11 38q0 7 -4 9q-3 2 -6 1q-3 0 -7 -1q-20 -4 -31 -19q-14 -14 -28.5 -30t-28.5 -33q-3 -5 -7 -8.5t-7 -8.5q-14 -15 -29.5 -31.5t-30.5 -34.5 q-13 -14 -22.5 -29.5t-20.5 -30.5q-11 -18 -20.5 -35.5t-18.5 -38.5z" />
<glyph unicode="e" horiz-adv-x="635" d="M-39 732v6q0 14 3 34q4 26 12 40q12 21 31 37.5t38 28.5q23 16 47 28q20 11 42 11h7q12 0 25 -7t16 -20q2 -13 -9 -31q-36 -57 -102 -64l-23 -6q-8 -5 -12.5 -22t-7.5 -24q-4 -11 -4 -22t4 -20q8 -10 19 -13.5t24 -4.5q12 -1 24 -1q41 0 83 11q52 14 105 28 q48 14 98 27.5t98 28.5q47 13 93 29q41 14 84 14h11q16 0 16 -9q0 -7 -16 -10q-42 -2 -82.5 -12.5t-81.5 -22.5l-63 -20q-52 -16 -102 -32t-100 -35q-33 -11 -67 -22.5t-71 -12.5q-30 0 -58.5 9t-50.5 31q-12 13 -19.5 22t-10.5 26zM58 814q1 -1 3 -1q4 0 11 2q12 3 16 3 q21 7 43 27q3 4 8.5 11t9.5 13v8q-4 6 -11 6t-15 -3q-6 -2 -15 -9q-8 -8 -18.5 -15.5t-15.5 -18.5l-9 -8l-6 -9q-2 -3 -2 -4q0 -2 1 -2z" />
<glyph unicode="f" horiz-adv-x="698" d="M-60 789q3 5 5.5 11t6.5 12q8 11 16.5 18.5t23.5 7.5q18 0 34 1t34 -7q10 13 13 19q8 12 13.5 24.5t13.5 25.5q25 36 50.5 70t54.5 65q13 14 25.5 26t31.5 17h5q15 0 26 -15q13 -17 10 -37q-5 -21 -13.5 -40t-20.5 -37q-19 -23 -36.5 -43.5t-39.5 -37.5l-17.5 -14 t-18.5 -10q-8 -4 -17 -9.5t-17 -12.5q-8 -5 -10 -12.5t-5 -17.5q23 -18 36 -43t26 -51q3 0 7.5 -0.5t8.5 0.5q38 8 83 11q4 2 12 2q23 8 46.5 14t46.5 13q18 7 37.5 13.5t36.5 11.5q23 8 46 14t46 13q22 5 43 8.5t42 6.5q24 3 49 8.5t51 5.5q15 0 15 -8q0 -11 -15 -11 q-5 0 -10 -1t-10 -1q-9 0 -26 -3l-27 -5q-8 -3 -17 -5t-19 -3q-14 -2 -35 -8q-7 -2 -11.5 -2t-9.5 -1q-9 -3 -19 -5.5t-20 -5.5l-135 -44q-29 -10 -58 -17t-59 -16q-23 -5 -44 -8.5t-43 -7.5q-9 -9 -9 -24q0 -13 1.5 -24.5t-1.5 -23.5q-3 -7 -0.5 -13.5t0.5 -14.5 q-6 -37 -18.5 -72.5t-29.5 -68.5q-18 -34 -57 -34q-47 0 -73 45q-9 19 -11 36.5t-4 35.5v11q0 35 5 68q6 39 15 78q3 6 3 11q0 11 -8 16q-6 4 -12.5 7t-13.5 8q-33 20 -33 54q0 12 4 26zM-15 754q0 -9 9 -19q4 -5 17 -15q2 3 3.5 4t3.5 4q5 13 9.5 27t9.5 26q-13 7 -17 7 q-7 0 -12.5 -2t-10.5 -3q-5 -3 -5 -5q-7 -15 -7 -24zM46 545q-1 -9 -1 -17q0 -25 7 -49q3 -14 8.5 -27.5t20.5 -25.5q29 27 43.5 60t17.5 71q0 8 1 17t1 17q1 11 1 23q0 26 -8 50l-66 4q-9 -12 -12.5 -27t-6.5 -30q-3 -32 -6 -66zM77 701q11 -3 23 -5q5 -2 10 -2q6 0 13 2 q-3 16 -11.5 28t-15.5 25q-8 5 -12 -2q-8 -18 -8 -34q0 -6 1 -12zM139 863q16 4 20 8q14 11 28.5 21.5t25.5 26.5q18 26 45 55q12 17 20 44q2 5 2 9t-2 7q-2 6 -9 14q-4 -3 -6 -3.5t-5 -4.5q-33 -35 -59 -76.5t-54 -80.5z" />
<glyph unicode="g" horiz-adv-x="789" d="M-130 374q2 27 12 51.5t24 46.5q16 23 34 43.5t37 37.5q40 36 91 63l14 9q2 9 4 18.5t5 20.5q3 18 6 34.5t6 34.5q-3 -3 -5 -6.5t-6 -6.5q-14 -18 -32 -32.5t-40 -22.5t-39 0t-23 25q-9 28 -1 53q15 45 54 84q16 18 41 37q8 8 14.5 13t17.5 5q1 0 9.5 -2t17.5 -3.5 t16 -2.5l7 -2l15 28q3 8 11 10h5l11 -2q13 -7 10 -22l-4 -12q-3 -16 -4.5 -32.5t-2.5 -34.5q-4 -23 -8.5 -43.5t-7.5 -42.5l-12 -54v-7q20 5 46 13q66 18 132.5 33t134.5 24q16 2 31 3.5t32 4.5q26 3 50 6l48 6h2q6 2 12.5 3.5t14.5 3.5q40 9 78 21q8 3 17 4.5t17 5.5 q28 11 55 29q13 8 19 0q1 -3 1 -5q0 -6 -8 -11q-18 -13 -38.5 -21t-41.5 -18q-37 -15 -76 -24.5t-79 -16.5q-8 0 -15.5 -0.5t-15.5 -2.5l-34 -5l-69 -9q-23 -3 -45.5 -6.5t-45.5 -7.5q-18 -3 -35 -6t-35 -6q-63 -10 -123 -37q-3 -2 -4.5 -2t-3.5 -1q-32 -13 -37 -46 q-1 -11 -4.5 -22t-6.5 -23q-5 -16 -11 -31.5t-12 -32.5q-11 -27 -23 -53.5t-29 -52.5q-24 -40 -71 -59q-15 -7 -31 -7t-32 6l-8 4q-34 14 -33 53zM-92 363q4 -26 29 -26q34 3 57 27q19 20 27 45q11 33 21 63.5t20 61.5q3 11 4.5 24t4.5 24q-3 0 -4.5 -1.5t-4.5 -3.5l-17 -11 q-8 -4 -14.5 -9.5t-14.5 -11.5q-63 -50 -97 -122q-12 -31 -11 -60zM3 696q1 -1 3 -1q3 0 7 3q7 3 13 7.5t8 6.5q8 6 14.5 13t13.5 13l24 23q5 5 12 9.5t10 10.5q2 5 2 10q0 3 -1 7q-2 9 -2 17t0.5 16.5t-7.5 14.5q-2 3 -4 3l-4 -2q-4 -4 -8 -7l-18 -20q-11 -14 -19 -32 t-19 -31q-10 -11 -16 -24t-9 -26q-1 -5 -1 -7.5t1 -3.5z" />
<glyph unicode="h" horiz-adv-x="805" d="M-47 687q4 13 4.5 25.5t3.5 23.5q22 86 67 161q9 14 17.5 28t17.5 26q18 28 40.5 49.5t45.5 44.5q24 25 53 48q20 15 45 15q23 0 31 -21q10 -20 5 -37q-3 -18 -9.5 -32.5t-14.5 -29.5q-11 -23 -28 -46q-4 -8 -11 -15l-13 -13q-8 -9 -18 -19t-19 -20q-6 -4 -12 -10 t-14 -11q-10 -8 -20.5 -15t-21.5 -16q-6 -6 -10 -6q-15 -3 -22 -13.5t-10 -23.5q-5 -30 -12.5 -56t-15.5 -54v-18q7 3 9 5.5t6 6.5q29 32 59.5 61t64.5 56q11 8 23.5 16.5t25.5 16.5q16 6 27 3q23 -8 22 -29q0 -28 -8 -50q-7 -16 -11 -32.5t-7 -32.5l-10 -48q-5 -33 -3 -59 q0 -18 8 -22q11 -8 37 1q9 3 15 6q6 4 9 8q26 14 51 31t51 31q34 21 67.5 42t68.5 44q34 23 69.5 42.5t72.5 33.5q39 16 79 25.5t82 11.5q11 0 14 -8q0 -11 -14 -11q-18 -2 -37 -3.5t-36 -6.5q-18 -5 -34 -11.5t-32 -10.5q-33 -13 -63 -27.5t-59 -32.5q-8 -5 -16 -9t-16 -11 q-34 -21 -67.5 -42t-68.5 -42q-7 -3 -13 -7t-12 -7q-18 -11 -32 -21.5l-30 -22.5q-20 -13 -38 -22q-22 -11 -43 -11q-14 0 -28 5q-26 8 -33 34q-3 8 -4.5 16t-2.5 16q-1 15 -1 31q0 66 28 127l20 41q-5 5 -7.5 3.5t-5.5 -3.5q-19 -11 -34.5 -24t-29.5 -30q-4 -3 -8 -8t-9 -9 q-42 -38 -65 -80q-8 -13 -15.5 -23.5t-19.5 -18.5q-15 -13 -37 -6q-23 10 -33 34q-6 24 -6 47q0 11 1 21zM88 852h6q3 2 5.5 3t5.5 2q28 18 51 40.5t46 45.5q16 16 28.5 35t21.5 38q6 13 9.5 27t7.5 27q1 2 1 4q0 8 -11 10q-7 3 -13 3q-13 0 -22 -13q-13 -14 -25.5 -29.5 t-25.5 -33.5q-52 -69 -85 -159z" />
<glyph unicode="i" d="M-49 710q2 31 10 57q15 45 42 92q6 9 11 13q8 3 17 -1.5t16 -13.5q12 -21 12.5 -45t-7.5 -48q-5 -25 -11.5 -48t-3.5 -48q3 -18 13 -26q5 -3 12.5 -3h13.5q32 3 62 13t60 23q82 32 166 64.5t172 56.5q32 10 65 17t67 7h2q4 0 10 -2q4 -2 5 -5q0 -1 -1 -2q0 -7 -11 -7 q-116 -23 -229.5 -62.5t-223.5 -91.5q-32 -16 -65 -29t-71 -16q-9 -1 -16 -1h-6q-10 0 -20 3q-23 4 -44 16.5t-34 31.5q-13 21 -13 48v7zM13 948q0 11 1.5 21t8.5 18q3 4 16 12q2 1 4 1q4 0 7 -3q8 -8 16 -16.5t11 -17.5q1 -4 1 -8t-1 -7q-3 -8 -11 -13.5t-16 -12.5 q-3 -3 -9 -3q-1 1 -2 1q-8 0 -13 4q-11 11 -13 24z" />
<glyph unicode="j" horiz-adv-x="559" d="M-259 256v11q0 33 15 60q13 21 25 40t26 37q13 15 27 28.5t29 28.5q32 33 69 60q20 14 21 34q8 41 15.5 82t11.5 83q5 38 12.5 76.5t7.5 77.5q0 16 20 16q4 0 9 -1t11 -3q11 -1 15 -12q5 -18 5 -34q0 -23 -1.5 -43t-3.5 -43q0 -8 -0.5 -13.5t-2.5 -13.5q-3 -28 -8 -55.5 t-13 -55.5q-2 -6 -3.5 -12.5t4.5 -14.5q4 0 7 2l4 3q19 13 37.5 22t37.5 17q38 16 81 29l60 19q34 11 69 23.5t67 25.5q14 6 28.5 11t29.5 11q11 3 21.5 8.5t22.5 9.5q21 8 40.5 18.5t36.5 22.5l11 6q13 8 19 -1q2 -3 2 -6q0 -6 -9 -11q-37 -22 -75.5 -40t-78.5 -34 q-32 -12 -67 -24t-69 -25q-23 -8 -47 -16t-47 -16q-52 -14 -99.5 -38t-92.5 -55q-3 -6 -4 -10.5t-4 -9.5q-10 -39 -23.5 -77t-26.5 -76q-5 -12 -12.5 -23.5t-12.5 -24.5q-18 -40 -56 -74l-5 -4q-16 -24 -39.5 -30t-49.5 -6h-3q-8 0 -15.5 1t-13.5 8q-13 14 -15 31zM-227 273 q2 -21 13 -25q5 -2 10 -2q8 0 16 4q3 0 4.5 2t4.5 4q18 11 30.5 25.5t25.5 30.5q14 21 25.5 44.5t18.5 47.5q2 10 5 25.5t5.5 29t3 23.5t0.5 12q-8 -7 -16 -12t-15 -13l-86 -89q-20 -21 -33 -53q-5 -13 -8.5 -27t-3.5 -27zM-8 972q0 15 16 23q8 6 19 6h3q13 -1 24 -11 q11 -9 11 -22q0 -7 -3 -15q-7 -13 -12 -19l-5 -7q-6 -4 -14 -4q-4 0 -9 1q-13 3 -20 11q-11 12 -11 29q0 4 1 8z" />
<glyph unicode="k" horiz-adv-x="722" d="M-31 718q3 10 3 15q2 26 5 51t9 51q3 18 8.5 33t8.5 32q11 42 28 81.5t40 76.5q5 8 10 14t8 13q13 19 25 36t27 34q9 13 20.5 22.5t19.5 23.5q8 11 18 19t19 16l15 10q26 16 50 17h8q33 0 49 -24q18 -27 11 -61q-5 -28 -16 -51q0 -1 -1 -1t-1 -2l-3 -11q-8 -26 -19.5 -47 t-26.5 -42q-11 -18 -24.5 -33t-26.5 -34q-8 -11 -18 -19.5t-19 -18.5l-5 -5q-26 -14 -49.5 -33.5t-50.5 -32.5q-20 -10 -25 -33l4 3q18 16 39 23.5t43 15.5q7 2 12.5 2t11.5 2q13 2 21 -5t15 -15q4 -4 1 -18q-1 -6 -6 -12.5t-8 -11.5q-6 -7 -13 -12.5t-13 -11.5 q-8 -6 -15.5 -12t-15.5 -9q-9 -7 -19 -10t-20 -8q-1 0 -4 -3l-3 -3q12 -13 25 -26.5t28 -25.5q9 -8 19.5 -15t22.5 -14q29 -16 59 -10q28 6 53.5 16t51.5 23q6 3 11 6t9 6q23 13 45.5 26.5t47.5 26.5q68 34 139.5 55.5t149.5 21.5q12 0 12 -10.5t-12 -10.5q-13 0 -25 -0.5 t-25 -2.5h-5q-35 -4 -71.5 -11.5t-68.5 -22.5l-12 -5q-3 -2 -5.5 -2.5t-5.5 -2.5q-7 -2 -20 -8q-11 -5 -23.5 -10.5t-21.5 -12.5q-45 -27 -90.5 -51.5t-93.5 -44.5q-28 -12 -57 -12l-63 15q-29 14 -55 40q-12 15 -25 27t-25 25q-5 3 -11 7v-23q1 -10 -0.5 -20.5t1.5 -19.5 q3 -7 3 -9q2 -5 2 -11q2 -3 2 -7t1 -7l10 -26v-4q0 -1 -11 -8q-12 -4 -24 -10q-7 -3 -15 -3q-6 0 -12 2q-23 6 -32 29q-2 3 -2 11q-3 24 -7 48q-2 14 -2 28q0 10 1 21zM63 769q7 -1 13 -1q20 0 36 6q22 8 42 25l14 15q3 1 4 2.5t4 5.5q5 5 5 7q-2 1 -3.5 1t-4.5 2 q-2 0 -2.5 0.5t-3.5 0.5h-15q-7 -1 -14 -3.5t-13 -6.5q-26 -11 -41 -25l-6.5 -6.5t-6.5 -7.5q-5 -7 -8 -15zM79 869l15 6q23 15 43 29.5t39 34.5l59 60q9 11 18 24t16 25q11 23 22.5 43.5t18.5 42.5q7 16 11 33q1 6 1 12q0 11 -4 23q-1 4 -0.5 7.5t0.5 7.5v4q-9 7 -19 11 q-6 4 -12 4q-3 0 -7 -1q-4 -3 -8.5 -7.5t-9.5 -7.5q-23 -26 -43 -53.5t-43 -54.5q-3 -4 -4 -7t-4 -6q-4 -8 -9 -14.5t-9 -14.5l-9.5 -19t-7.5 -17q-3 -3 -4 -8t-3 -8q-3 -10 -9 -20t-10 -21q-11 -24 -17 -50.5t-11 -57.5z" />
<glyph unicode="l" horiz-adv-x="670" d="M-65 618q0 23 1 47t9 48q6 15 12 33l29 72q0 4 1 5q16 29 31.5 57t36.5 54l27 34q23 29 50 54.5t58 47.5l30 20q15 11 33 11q4 0 8 -1q24 0 42 -22q0 -2 0.5 -3t0.5 -4q2 -18 0 -35.5t-12 -33.5q-5 -7 -8.5 -14.5t-8.5 -15.5q-18 -24 -35.5 -48t-40.5 -46 q-23 -19 -47 -38.5t-53 -35.5q-16 -9 -23 -31q-2 -7 -6 -16.5t-7 -17.5l-6 -12t-5 -12q-8 -29 -17 -56.5t-12 -56.5v-11q0 -8 8 -12q8 -3 12 -2q13 2 25.5 4.5t25.5 10.5l42 29q32 23 62 44.5t66 44.5q34 23 72 39.5t72 27.5t60 16.5t37 9.5q46 9 92.5 13t92.5 4q18 0 18 -9 q0 -12 -18 -12q-46 0 -91.5 -3t-90.5 -13q-40 -10 -89 -24q-13 -3 -23 -7.5t-21 -7.5q-24 -8 -44.5 -20t-42 -27.5t-47.5 -35t-60 -42.5l-24 -15q-14 -13 -29 -23.5t-32 -20.5q-38 -23 -82 -24q-6 -1 -12 -1q-36 0 -57 38q-10 19 -10 45zM94 823q18 8 30.5 17t24.5 17 q15 14 31 29t30 33q18 20 32 41.5t27 44.5q11 27 11 54q0 7 -4 11q-4 3 -9 3h-3q-8 0 -14 -6l-11 -11q-12 -14 -24.5 -27t-21.5 -27l-29 -45q-8 -12 -15.5 -26.5t-15.5 -29.5q-8 -14 -17 -29t-17 -31q-3 -6 -5 -18z" />
<glyph unicode="m" horiz-adv-x="1110" d="M-33 678v8q0 12 2 26q10 89 62 155q5 10 14 15q5 2 11 2q7 0 14 -4q12 -8 16 -23q3 -12 -0.5 -26t-8.5 -27q-6 -24 -10 -47.5t-7 -46.5q65 60 134 110q33 23 67.5 41.5t73.5 20.5q13 0 25 -4t18 -14q8 -12 4 -26.5t-9.5 -28.5t-10 -28.5t0.5 -28.5l61 44q37 28 78.5 49.5 t84.5 31.5q21 5 43 1t30 -24q5 -13 0 -26t-11 -25q-15 -33 -27 -63.5t-20 -63.5q-2 -6 -2 -13t7 -10q6 -1 12 0q33 8 62 25.5t58 33.5q19 9 35.5 18t34.5 17q28 13 56 23t55 18q59 15 117 24q16 3 30.5 4.5t29.5 1.5h42q3 0 4 1t4 1q11 -3 11 -13q0 -6 -8 -9q-8 -2 -23 -2 h-1q-13 0 -21 -1q-8 0 -14.5 -1t-14.5 -1q-14 -3 -28.5 -4t-29.5 -5q-62 -12 -121 -32q-47 -18 -89 -37t-85 -48q-23 -16 -45.5 -31t-49.5 -21q-15 -4 -30 -4l-26 3q-28 7 -43 31q-14 25 -7.5 54t22.5 53q15 25 34 46.5t30 49.5q-14 3 -29.5 -2t-30.5 -13 q-45 -22 -86.5 -51.5t-79.5 -63.5q-8 -6 -17 -11.5t-19 -7.5q-14 0 -25 11t-12 25q-3 14 1 28t11 26q6 14 11 27.5t8 28.5q0 6 -2 7q-5 7 -17 4q-68 -25 -122.5 -71.5t-99.5 -103.5q-13 -16 -27.5 -32t-35.5 -23q-19 -6 -34.5 1t-24.5 22q-9 13 -10 29z" />
<glyph unicode="n" horiz-adv-x="861" d="M-43 704q4 26 17 58q14 37 38 67t51 57l7 2q29 0 41 -25q-3 -8 -5.5 -17t-6.5 -17q-11 -22 -25 -41t-22 -42q0 -8 -2 -11q5 -3 8.5 -1t6.5 4q14 11 28.5 20t29.5 19l16 8t15 10q23 11 42 22.5t42 22.5q8 3 15.5 5.5t15.5 5.5q15 8 32 8h36q12 1 21 -10t11 -24 q2 -18 -4 -34t-14 -30q-8 -16 -13.5 -33.5t-13.5 -33.5q-3 -4 -2.5 -10t-0.5 -11q-5 -24 22 -26q5 0 10 1.5t11 1.5q31 5 58.5 16.5t54.5 23.5l34 17q23 11 44.5 23.5t44.5 21.5q36 13 71.5 26t72.5 23q37 8 75 12t78 7q13 2 13 -9q0 -8 -12 -10q-11 0 -16 -2h-8 q-33 0 -63.5 -5t-61.5 -13q-37 -9 -71 -22t-70 -27q-34 -13 -67 -31t-67 -36q-13 -6 -24.5 -11t-23.5 -12q-13 -4 -27 -10.5t-28 -10.5t-29 -4q-18 0 -38 6q-43 11 -54 58q-6 24 1 46.5t19 45.5q11 20 28 38l5 9q1 3 2.5 5t1.5 4q0 3 -5.5 3.5t-8.5 0.5q-5 0 -15 -3 q-35 -12 -63 -27q-18 -10 -34.5 -21.5t-35.5 -20.5q-23 -13 -40 -31t-35 -37q-8 -8 -15.5 -14t-14.5 -14q-16 -16 -40 -9q-5 2 -10.5 3t-10.5 5q-24 9 -24 28q0 5 2 12z" />
<glyph unicode="o" horiz-adv-x="656" d="M-46 678q-1 6 -2 13q0 14 6 29q11 27 25.5 59.5t36.5 55.5q8 8 14 16t18 13q11 6 21 6l15 -3q12 -3 21 -7t17 -14q8 -8 13.5 -18t14.5 -17q26 -22 56 -28q16 -3 25 -3h19q8 -2 15 -3.5t15 -3.5q8 0 15.5 -0.5t15.5 -0.5q16 0 32 1.5t31 4.5l28 5q71 13 142 25t145 12 q12 -2 12 -11.5t-12 -9.5h-19q-64 0 -126 -11l-144 -26q-18 -3 -35.5 -5.5t-36.5 -6.5q-18 -1 -37.5 -1t-36.5 3q-8 0 -17.5 1.5t-16.5 3.5q-19 3 -36.5 6.5t-35.5 11.5q-3 2 -5.5 2t-5.5 1h-5q-2 -3 -3.5 -4t-1.5 -2q0 -14 -4.5 -27t-8.5 -27q-3 -13 -7 -26t-9 -25 q-10 -22 -29 -41q-13 -12 -30 -13h-24.5t-24.5 2q-11 1 -18 8.5t-12 17.5q-6 17 -10 37zM14 696q-3 -9 -3 -18q0 -20 15 -34q18 8 22 10t10 14q8 13 13.5 28.5t14.5 30.5q7 12 7 26q0 13 -4 38q-1 3 -4 6.5t-6 6.5l-6 -3q-23 -32 -45 -74q-4 -8 -7 -15.5t-7 -15.5z" />
<glyph unicode="p" horiz-adv-x="733" d="M-113 488q3 26 6.5 51.5t9.5 49.5q6 29 16.5 58t20.5 57q8 23 19.5 43t19.5 41q9 24 23 44t26 43q4 8 12 14t17 14q6 3 14 3l11 -1q11 -2 18.5 -6t14.5 -16q7 -16 5 -25.5t-10 -24.5q3 -6 12 -1q14 9 30 14.5t34 12.5q25 8 47.5 3t42.5 -17q12 -7 12 -22q0 -8 -1 -16 t-7 -16l-4 -5q-9 -23 -25 -38.5t-36 -29.5q-5 -3 -9 -7t-5 -12q8 -5 11 -3q18 2 36.5 3.5t35.5 5.5q23 8 45.5 12t45.5 13q3 2 7 2t8 1q26 10 51 18t51 16l93 29h4q14 5 28 7.5t28 5.5l41 6l3 2h10q14 0 29 1.5t29 1.5q15 0 15 -8q0 -11 -15 -11q-52 0 -113 -13 q-8 -2 -14.5 -4.5t-14.5 -5.5q-13 -3 -27 -8.5t-26 -10.5q-10 -5 -20.5 -7t-20.5 -5q-8 -3 -16 -5.5t-17 -5.5q-23 -8 -46 -17t-47 -14q-14 -3 -28.5 -9t-26.5 -9q-26 -8 -49.5 -13.5t-49.5 -8.5q-29 -4 -58 -4q-36 0 -72 6q-6 1 -20 1q-11 0 -18 1t-12.5 2.5t-12 4.5 t-16.5 8q-11 -14 -20.5 -28t-14.5 -31q-6 -18 -13 -35t-13 -35q-13 -39 -13 -75v-12.5t-6 -9.5q-8 -5 -16.5 -10t-17.5 -5q-6 0 -17 7q-14 14 -14 38zM47 721q14 -3 26.5 -5.5t25.5 -3.5q9 0 19 1.5t19 4.5q10 3 20 8.5t19 9.5q50 23 71 70q3 4 3 7q0 7 -12 12q-2 0 -2.5 1 t-2.5 1q-10 2 -20 2q-12 0 -25 -3q-24 -6 -43 -19q-29 -24 -63 -43q-18 -11 -22 -23z" />
<glyph unicode="q" horiz-adv-x="632" d="M-97 678q-1 6 -1 12q0 23 10 38q8 10 15 20.5t15 18.5q26 25 54 45.5t56 41.5q13 8 23.5 15.5t23.5 15.5q11 6 21 6t19 -5q10 -6 20.5 -11.5t18.5 -13.5q11 -13 23 -18t3 -25q-5 -9 -9.5 -19.5t-13.5 -18.5q-16 -22 -30 -41t-28 -40q-3 -3 -4 -6t-3 -4 q-13 -23 -23.5 -46.5t-21.5 -45.5q3 0 7 -0.5t8 -0.5q32 4 60.5 18t55.5 28q16 8 31.5 17t28.5 19l8 6q3 3 7 6t7 6q15 8 27.5 19.5t25.5 20.5q15 13 35 22t37 17q41 14 81.5 26.5t83.5 12.5h5q6 1 11.5 1t11.5 2l32 2t33 1t17 -9q0 -10 -17 -10q-18 0 -38.5 -1.5 t-37.5 -4.5q-60 -8 -123.5 -24.5t-111.5 -53.5q-14 -12 -29 -23t-29 -24q-18 -13 -33.5 -24.5t-29.5 -22.5q-59 -44 -136 -57q-7 -1 -12.5 -0.5t-12.5 -0.5h-19q0 -10 2 -14q8 -12 9.5 -26t1.5 -28q0 -39 -11 -73q-6 -14 -10.5 -29t-9.5 -29q-8 -26 -20 -49.5t-25 -46.5 q-10 -18 -28 -18q-6 0 -12 2q-10 2 -23 10q-10 6 -11 14q-2 10 -4 20.5t0 22.5q8 57 27.5 106.5t42.5 98.5q7 13 10.5 23.5t8.5 20.5q-3 7 -16 17q-3 3 -10 7q-8 3 -8 8q0 11 2 16q3 16 18 10l31 -21q3 3 5.5 4.5t3.5 4.5l37 73q0 1 -3 5q-14 -9 -28.5 -18t-29.5 -16 q-8 -3 -16.5 -6.5t-16.5 -6.5q-9 -2 -17 -2q-25 0 -46 20q-3 3 -6 13zM-45 701q-3 -4 -3 -8q0 -5 5 -10q14 1 25.5 8t22.5 14q37 27 71 57.5t68 59.5q8 5 13 13q3 3 3 6v3q-3 5 -10 7q-3 1 -7 1q-13 0 -27 -9q-28 -18 -52.5 -36t-47.5 -40l-19 -20q-23 -23 -42 -46zM-37 306 q3 3 4.5 3.5t3.5 2.5q40 68 60 146q5 25 5 50v8q0 9 -8 12q-10 -10 -13.5 -23t-8.5 -26q-12 -33 -23 -66t-20 -69q-3 -6 -3 -15.5t3 -22.5z" />
<glyph unicode="r" horiz-adv-x="677" d="M-32 848q4 23 26 27q3 1 6 1q8 0 13 -7l5 -6q20 -23 48 -20q4 0 4.5 1t3.5 1q8 1 14 2t14 -1q8 -1 14.5 -2t14.5 -4l14 -8l8 -6t6 -6q3 -11 3 -21.5t-6 -20.5q-5 -12 -11 -23.5t-11 -22.5q-8 -19 -18.5 -36t-18.5 -34t-12 -35.5t3 -37.5q3 -13 13 -18.5t25 -4.5 q16 2 30.5 4.5t29.5 10.5q20 8 36.5 17t35.5 20q14 11 29.5 21t30.5 20q31 20 58.5 40.5t60.5 36.5q28 14 55 29t59 23l34 10q30 8 60 14t60 8q16 0 16 -10q0 -11 -16 -11q-15 -1 -30.5 -2.5t-32.5 -5.5q-12 -3 -23.5 -5.5t-22.5 -7.5l-25 -9q-5 -3 -10.5 -4t-12.5 -4 q-8 -3 -15.5 -7t-16.5 -7l-6 -1q-49 -25 -93 -52q-37 -24 -72.5 -50t-72.5 -50q-18 -13 -38.5 -23.5t-39.5 -20.5q-28 -15 -58 -15q-7 0 -14 1q-39 3 -66.5 26t-31.5 64q-1 16 2 31l6 30q7 18 15 36l16 36q2 2 2 3l5 8q0 3 3 7v1q3 6 1 13q-6 5 -13 5h-16q-18 0 -33 1t-30 9 q-13 9 -13.5 23t-0.5 19z" />
<glyph unicode="s" horiz-adv-x="782" d="M-48 529q-1 5 -1 9q-1 8 3 16q6 12 15 22q26 28 57 45.5t65 30.5q3 1 7 2.5t7 1.5q14 4 21.5 13.5t10.5 23.5q5 32 -11 51q-11 10 -23 6q-6 -3 -22 -6q-25 -8 -44 5q-13 9 -14 18q-3 11 -8.5 21t-8.5 19q-12 33 15 54q28 23 55 30q14 5 31 6q8 0 17 -2t17 -4 q8 -1 15.5 -3t13.5 -10q14 -18 20 -38q0 -10 -2 -15q-3 -7 -10 -9t-11 1q-3 3 -7 6.5t-8 6.5l-6.5 6.5t-6.5 3.5q-9 -3 -21 -8q-7 -3 -12.5 -8.5t-9.5 -11.5q-4 -3 -4 -5q7 -3 8 -3q20 -1 33.5 -12t26.5 -23q8 -8 8 -20q3 -16 5 -33t-2 -35l-3 -9l8 3q65 26 132 37t135 20 q18 1 33.5 2.5t31.5 4.5q24 4 49 7l50 6l29 5q20 3 38.5 9t35.5 12q10 3 19 5.5t17 5.5h1q28 10 56 28q11 8 17 -1q2 -3 2 -6q0 -6 -8 -11q-20 -11 -40 -19t-41 -16q-37 -16 -75.5 -25t-78.5 -16q-8 -2 -15 -3.5t-16 -1.5l-34 -3q-18 -2 -34.5 -4t-34.5 -6l-94 -15 q-16 -3 -32 -5t-35 -6q-32 -6 -62.5 -15t-59.5 -22q-6 -3 -8 -3q-2 -6 -3.5 -9.5t-3.5 -6.5q-26 -44 -59 -78q-18 -18 -37 -30t-42 -20q-10 -3 -19 -3q-14 0 -24 8q-3 3 -5.5 4t-3.5 4q-2 3 -2 4.5t-2 4.5zM23 540q6 0 9 2q15 6 30 21q12 13 22 27.5t18 28.5 q-11 -3 -21.5 -7t-22.5 -10q-6 -3 -11 -7l-10 -8q-5 -3 -10.5 -6.5t-6.5 -7.5q-2 -5 -2 -14q-1 -3 -1 -6q0 -8 6 -13z" />
<glyph unicode="t" horiz-adv-x="551" d="M-76 602v12q0 18 2 36q3 24 9 46q13 40 28.5 79t33.5 76l45 91q3 9 6 15q-9 5 -14 6h-43q-8 -2 -18 -3t-18 3q-5 11 6 14h47q23 0 33.5 1t15.5 5t9 13t11 25q4 6 5.5 13.5t5.5 15.5q6 13 15 13q5 0 11 -4t8 -11q0 -9 -1 -18t-1 -19q0 -16 -2 -24q15 -7 28 -3t25 3 q13 0 24.5 1.5t24.5 -0.5q2 -8 -4 -11q-12 -3 -20 -3q-21 2 -40.5 -0.5t-40.5 -5.5q-4 -5 -4.5 -10t-2.5 -8q-3 -13 -4.5 -24.5t-9.5 -22.5q-3 -3 -6 -15q-3 -21 -11.5 -40t-16.5 -41l-5 -14q-9 -16 -13 -41q-2 -31 -14 -59q-5 -11 -6.5 -24t-5.5 -24q-8 -35 -8 -67v-13 q0 -20 20 -21q23 0 42 9l48 26q23 13 43.5 26t40.5 26q37 28 72.5 52t74.5 47q45 28 93.5 50.5t99.5 31.5l28 5q9 3 15 3q4 0 9 -1t6 -4q1 -1 1 -3q1 -4 -9 -8q-12 -5 -18 -5q-23 -6 -43.5 -12t-43.5 -10q-7 -4 -13 -5.5t-13 -4.5q-30 -18 -62.5 -32t-61.5 -34 q-27 -18 -51.5 -37t-49.5 -36q-31 -23 -61 -44.5t-62 -43.5q-16 -11 -33 -17.5t-35 -11.5q-11 -3 -22 -3q-8 0 -16 2q-20 4 -38.5 14t-30.5 29.5t-14 48.5z" />
<glyph unicode="u" horiz-adv-x="863" d="M2 705q-2 16 -2 31q0 38 14 73q5 11 9.5 21t7.5 21q7 23 21 25h3q12 0 26 -12q23 -23 23 -49q0 -6 -1 -12q-4 -19 -6.5 -36.5t-8.5 -34.5q-3 -10 -4.5 -21.5t-2.5 -21.5q0 -13 8 -16q10 -1 14 3l49 44q30 26 54 56t48 61q5 6 9 12.5t9 13.5q8 9 24 6.5t21 -15.5 q1 -5 0 -9q-7 -28 -12.5 -57t-12.5 -56q-4 -16 -6.5 -32t-1.5 -32q2 -8 1 -13.5t1 -13.5l2 -7q4 -3 5.5 -4.5t4.5 -3.5l6 -3q13 1 23.5 4.5t21.5 6.5q14 7 25 8.5t30 7.5q34 18 62 27.5t60 27.5q39 20 79 39.5t82 32.5q18 4 37 10t37 11q32 9 63.5 15.5t63.5 6.5q17 0 17 -9 q0 -5 -2 -7q-2 0 -2.5 -0.5t-2.5 -0.5q-3 -2 -8 -2q-5 -2 -9 -2t-7 -1q-41 -3 -76 -12q-40 -9 -77 -24q-37 -14 -74 -30.5t-74 -32.5q-7 -3 -8 -3q-33 -18 -56.5 -26t-57.5 -26q-16 -13 -26.5 -15.5t-23.5 -12.5q-12 -8 -25 -13.5t-28 -10.5q-17 -5 -33 -5q-8 -1 -16 1 q-23 4 -45 14q-6 3 -8 5q-18 9 -29.5 25.5t-11.5 37.5v45l-9 -6q-8 -10 -17 -20.5t-19 -20.5q-8 -9 -18.5 -16.5t-23.5 -10.5q-18 -3 -37 -5t-38 6q-7 3 -12 10q-25 21 -29 53z" />
<glyph unicode="v" horiz-adv-x="889" d="M2 825q-1 7 -1 13q-1 20 9 28q7 7 19 6q7 0 16 -3q21 -8 36 -22t19 -36q5 -23 10.5 -46.5t9.5 -46.5q2 -3 2 -8q0 -1 0.5 -2t0.5 -3q3 -14 8 -29l2 -1q8 3 11 9t6 14q10 19 25 35t27 34q8 11 16.5 21.5t16.5 22.5q6 6 8 9q11 11 24.5 10t22.5 -15q20 -34 54 -56 q58 -40 125 -39q34 0 71 10q39 11 77 25t77 26q10 3 20.5 6.5t21.5 7.5q10 3 11 3q43 13 89 19q25 3 51 3q21 0 42 -2q14 -3 14 -11v-1q0 -7 -6 -7h-2q-3 -1 -10 -1h-3h-17q-22 3 -42 0.5t-40 -5.5q-8 -3 -16 -5t-16 -2q-8 -2 -16 -2.5t-16 -3.5q-3 0 -5 -2 q-33 -8 -62.5 -19.5t-60.5 -23.5l-6 -2q-14 -6 -30 -11t-30 -12q-14 -6 -29 -10t-31 -4q-8 0 -15 -1l-14 -2h-16q-95 0 -170 66q-8 7 -14.5 12.5t-17.5 12.5q-20 -22 -35.5 -44t-28.5 -46q-8 -18 -17 -34t-17 -32q-3 -8 -8 -17t-11 -17q-6 -7 -15 -7h-4q-2 -1 -5 -1 q-6 0 -15 3q-37 15 -57 47q-36 58 -39 130q-1 15 -1 30t-3 29z" />
<glyph unicode="w" horiz-adv-x="996" d="M-14 678q-2 17 -2 34q0 42 14 79q5 12 9 24t7 25q8 24 30 29q8 2 16 2q12 0 22 -5q6 -3 13 -8.5t10 -11.5q10 -13 2 -29q-8 -11 -11.5 -22t-6.5 -23q0 -2 -3.5 -10t-6 -17t-4.5 -17t-2 -10q-3 -13 -4 -24t-3 -24q0 -13 2 -20l13 5q19 18 38.5 33.5t39.5 32.5q3 3 7 9 t7 11q16 16 40 9q20 -4 20 -23q2 -13 4 -27t-1 -27q-1 -18 3.5 -31.5t7.5 -30.5q2 -12 20 -24q14 6 23 23q9 21 18.5 40.5t16.5 39.5q5 15 10.5 29t8.5 27q5 14 9.5 29.5t9.5 30.5q3 9 20.5 20.5t27.5 0.5q6 -5 12 -12q19 -34 54 -56q45 -31 93 -37q15 -2 30 -2q35 0 72 10 q38 11 77 25t76 26q11 3 21.5 6.5l22.5 7.5q6 3 11 3q3 0 10 3q3 0 5 1t3 1l19 4q16 4 32 6t31 5q8 0 16.5 1t16.5 1h12.5t10.5 -5q1 -2 1 -4q0 -4 -3 -7q-6 -6 -21 -6q-28 0 -57 -5q-8 -3 -16.5 -5t-17.5 -2q-8 -2 -15 -2.5t-16 -3.5q-3 0 -5 -2q-32 -8 -61.5 -19.5 t-60.5 -23.5l-7 -2q-14 -6 -29.5 -11t-31.5 -12q-14 -6 -29 -10t-31 -4q-6 0 -13 -1t-15 -2h-16q-44 -1 -82 13q-45 16 -87 53l-23 19q-13 -20 -18 -40t-8 -39q-7 -27 -13 -55t-21 -52q-2 -3 -4.5 -8t-5.5 -8q-9 -13 -20 -21t-29 -8q-8 0 -17.5 -2.5t-17.5 -2.5 q-25 2 -45 18q-36 29 -36 78v38l-11 -4q-8 -8 -14.5 -16.5t-14.5 -16.5q-14 -13 -31.5 -22.5t-38.5 -8.5q-8 -1 -16 0.5t-11 2.5q-7 4 -10 7l-6.5 6.5l-6.5 6.5q-14 23 -19 47z" />
<glyph unicode="x" horiz-adv-x="894" d="M-63 881q0 4 3 5q5 4 10 6.5t10 2.5q14 -2 27 -4.5t24 -13.5l25 -25q18 -18 31.5 -35.5t26.5 -36.5l5 -5l4 -5q4 3 4 7q12 12 21 27.5t22 28.5q10 23 22 43.5t19 42.5q3 14 8 29t2 31l-5 12q0 4 -1 6t-1 5q-3 9 -6.5 20t-11.5 18q-3 4 -5 7q-1 4 0 11q3 3 6 3t5 -2 q10 -8 16 -19t12 -24q9 -20 9 -43q0 -13 -3 -27q-1 -11 -2.5 -21.5t-6.5 -21.5q-5 -14 -13 -31q-3 -8 -6.5 -14.5t-6.5 -14.5l-17 -37q-4 -5 -8 -9t-7 -9q-4 -7 -7 -10l-6 -6l-3 -3q-5 -11 -13 -23l37 -53q2 -8 8 -15l2 -2q3 -3 4.5 -6t4.5 -6h2q24 19 49 37.5t49 36.5 q23 16 47.5 25t48.5 15q47 13 94 17t93 4q18 0 32 -0.5t28 -0.5q19 -2 36.5 -4.5t34.5 -2.5q8 -2 18 -1t19 1q48 1 97.5 6.5t95.5 20.5q15 6 19 -4q1 -2 1 -4q0 -7 -13 -11q-48 -18 -99 -22t-101 -5q-37 0 -74 1.5t-76 3.5h-19q-22 1 -46 -1q-32 -2 -66 -6q-15 -1 -31.5 -5 t-32.5 -11q-22 -8 -43 -17.5t-41 -23.5l-14 -9q-9 -11 -18.5 -20t-19.5 -20q-26 -22 -42 -51q-14 -18 -26 -19q-13 -3 -28.5 -1.5t-27.5 11.5q-2 0 -3 0.5t-3 0.5q-6 6 -11 10v1q-13 13 -25 30.5t-22 31.5q-21 -22 -42 -42.5t-24 -25.5q-11 -11 -13 -23q0 -2 -3 -8 q-5 -8 -3.5 -18.5t7.5 -18.5q3 -2 12 -2q6 2 6 -3q2 -3 2 -6q-9 -6 -16 -6q-3 0 -5 1q-8 0 -18 3q-21 5 -23 22q-3 10 -3 19q0 18 11 32q7 8 16 17l17 17q3 5 23.5 24t40.5 42l-35 53q-11 18 -19.5 35t-16.5 35q-8 11 -14 29q-3 6 -6.5 12t-11.5 9q-3 2 -3 6z" />
<glyph unicode="y" horiz-adv-x="883" d="M-64 707q2 10 6 18q12 47 37 82q9 13 17.5 28.5t17.5 30.5q3 3 5 7.5t7 4.5q6 2 12.5 0.5t11.5 -3.5q20 -4 18 -26q-3 -11 -5.5 -21.5t-5.5 -21.5q-6 -20 -13 -38.5t-13 -35.5q-8 -28 -10 -54q11 1 16 6q20 18 41 33t40 32q19 18 34 35t32 34q5 5 9.5 11t7.5 11 q1 6 3.5 20.5t8 27t13.5 19.5q5 4 11 4q4 0 10 -3q13 -7 11 -22q0 -3 -1 -6t-1 -6q-5 -16 -7 -32.5t-3 -34.5q-2 -23 -7.5 -43.5t-8.5 -42.5l-10 -54v-7q10 4 22 7t22 6q131 42 267 57q16 2 31 3.5t34 4.5q24 3 48 5.5t49 6.5h1q8 2 14.5 3t12.5 4q20 3 40 8t38 13l34 10 q15 6 29.5 12.5t27.5 16.5q12 8 17 0q1 -2 1 -5q0 -5 -8 -11q-18 -13 -38.5 -22t-39.5 -17q-39 -15 -78 -26t-77 -15l-33 -3l-34 -5l-68 -9q-22 -3 -45.5 -6.5t-46.5 -7.5q-18 -3 -34 -6t-34 -6q-32 -6 -63 -15.5t-62 -21.5q-6 -3 -8 -3q-32 -13 -37 -46q-1 -11 -3.5 -22 t-5.5 -23l-25 -64q-11 -27 -23 -53.5t-29 -52.5q-13 -21 -30.5 -35.5t-40.5 -23.5q-15 -7 -31 -7t-32 6q-2 0 -8 4q-32 15 -32 49v4q4 52 35 98q16 23 35 43.5t38 37.5q21 20 43.5 34.5t45.5 27.5q3 3 6.5 4.5t8.5 5.5q3 9 4 18.5t4 20.5t4.5 21.5t3.5 21.5q3 3 3 6 q3 19 6 35t7 32q-7 -8 -15.5 -16.5t-16.5 -17.5q-21 -26 -44.5 -48t-49.5 -45q-13 -12 -28.5 -13.5t-31.5 -3.5q-5 0 -10.5 1t-10.5 1q-22 3 -33 16q-11 12 -11 30q0 12 1 23zM8 337q34 3 57 27q23 23 29 45q11 31 21 62.5t19 62.5q3 11 4 24t4 24q-3 0 -9 -6l-17 -10 q-8 -4 -14 -9.5t-14 -11.5q-62 -47 -97 -122q-12 -29 -12 -56q0 -30 29 -30z" />
<glyph unicode="z" horiz-adv-x="672" d="M-94 432q8 28 21 52t36 42t50 36q19 12 38.5 25t40.5 26l53 32q11 23 12 54q0 33 -32 37q-13 2 -28 -4q-6 -4 -12 -6.5t-14 -4.5q-3 -1 -7 -0.5t-6 4.5q-14 18 -3 36q8 12 29 16q42 4 81 19q13 5 21 11q8 5 8 20q-4 3 -8.5 6.5t-9.5 4.5q-12 5 -23.5 9.5t-24.5 6.5 l-14 3.5t-12 3.5q-13 3 -23.5 0.5t-23.5 -0.5q-1 0 -2 -1t-5 -1q-11 -7 -6 -19q3 -5 5.5 -19.5t-5.5 -14.5q-8 -2 -12 4.5t-5.5 16.5t-1.5 18.5v11.5q0 11 8 17q16 14 43 19q26 7 51 7q21 0 40 -5q11 -3 21 -7.5t18 -12.5q3 -3 6 -7t5 -12v-12q0 -31 -13 -55q-4 -12 -16 -16 q-7 -3 -16.5 -5t-17.5 -6q2 -1 5 -1q25 -11 36.5 -31t8.5 -47v-11q5 -4 9 -2t7 3q55 32 113.5 54.5t118.5 42.5q11 3 21.5 6.5t22.5 6.5q52 14 104 24t109 13q15 2 15 -9q0 -8 -13 -10q-115 -9 -229 -44q-3 0 -9 -3q-21 -7 -41.5 -14t-40.5 -15q-47 -16 -93 -37t-87 -47 q-22 -13 -30 -31q-8 -16 -15.5 -31.5t-16.5 -31.5q-14 -30 -35 -54t-39 -50q-18 -24 -42.5 -36t-51.5 -24q-7 -2 -14 -2q-7 -1 -11 1q-12 2 -24 7q-15 9 -22 17q-4 5 -4 13q0 5 2 13zM-57 443q-1 -4 -1 -7q0 -6 4 -10q5 -6 14 -6h3q11 2 22.5 3t22.5 9q13 8 22.5 18.5 t17.5 23.5q10 13 19.5 27.5t20.5 29.5q8 11 13.5 23t13.5 30q-19 -8 -32 -13.5t-26 -11.5q-23 -12 -42.5 -24t-37.5 -30q-26 -26 -34 -62z" />
<glyph unicode="{" horiz-adv-x="407" d="M33.5 579q-2.5 20 0.5 40q5 28 16 51q8 20 18.5 36.5t23.5 34.5q11 13 21 29t20 31q-3 8 -9 10.5t-11 2.5q-14 1 -17.5 8.5t0 15.5t10.5 15.5t16 12.5q49 31 79 74l4 10q5 11 9 20.5t13 19.5q8 13 15 25t19 22q24 25 56 22q9 -1 17.5 -5t16.5 -9q6 -3 11 -7.5t10 -10.5 q6 -5 6 -14q0 -11 -6 -13q-11 -3 -17 5q-3 6 -9 11q-9 9 -14 13q-8 8 -23 4q-10 -5 -18 -11t-16 -14q-16 -23 -25 -45q-4 -14 -9.5 -30t-13.5 -28q-3 -4 -4 -6t-5 -6q-14 -15 -29.5 -28t-32.5 -22q-7 -3 -9 -6q-2 0 -6 -5q3 -6 9 -9t9 -6q11 -8 9 -19q0 -8 -1 -12 q-3 -8 -7 -16t-6 -18q0 -3 -4 -6q-5 -8 -9 -16.5t-7 -16.5q-6 -12 -12.5 -23t-13.5 -23l-19 -39q-8 -13 -9 -28t-1 -29q3 -11 7.5 -21.5t12.5 -18.5t17.5 -11t19.5 -6q9 0 18 5q11 3 19.5 10t17.5 15l5 5t6 2q2 -1 2 -4q-5 -15 -15.5 -24.5t-21.5 -17.5q-2 -2 -8 -2 q-20 -3 -40 -2t-38 9q-23 12 -34 30q-11 19 -13.5 39z" />
<glyph unicode="}" horiz-adv-x="410" d="M32 547q0 11 7 13q3 2 9 1t9 -4q1 -8 8 -13q9 -10 14 -13q8 -8 23 -3q9 4 17.5 10t16.5 13q14 23 24 46q5 14 10.5 29.5t13.5 28.5q3 3 4.5 6t4.5 6q14 14 29.5 28t33.5 22q6 3 8 6q3 1 6 5q-3 7 -8.5 9t-9.5 6q-11 7 -9 19q0 8 1 11q3 8 7.5 16.5t6.5 17.5q0 4 3 7l8 16 t7 16q7 13 13.5 23.5t13.5 23.5l19 39q8 13 9 27.5t2 28.5l-8 22t-13 19q-8 8 -18 11.5t-19 4.5q-11 0 -17 -5q-12 -3 -21 -9.5t-17 -14.5q-3 -3 -5 -5.5t-6 -2.5q-2 2 -2 5q5 14 15.5 24t21.5 18q3 1 8 1q21 3 40.5 2.5t37.5 -8.5q23 -13 34 -31t13.5 -38t-0.5 -41 q-5 -28 -16 -50q-16 -36 -43 -72q-11 -12 -20.5 -28.5t-19.5 -30.5q3 -8 9 -10t11 -3q14 -3 17 -9.5t0 -15t-11 -15.5t-14 -12q-50 -30 -80 -75l-5 -9q-9 -25 -21 -40q-8 -13 -15 -25.5t-17 -21.5q-12 -11 -26.5 -18t-31.5 -5q-9 2 -17.5 6t-16.5 8q-6 3 -11.5 8.5l-9.5 9.5 q-7 5 -7 15z" />
<glyph unicode="~" horiz-adv-x="545" d="M82.5 735.5q-6.5 14.5 1.5 26.5q6 10 12.5 18.5t16.5 15.5q3 3 5 3h2q20 10 39.5 7.5t38.5 -11.5l30 -17q42 -23 93 -31q29 -4 51 2q16 3 23 8q8 6 7 11t-2 13h-2q-5 -1 -9 -2t-9 -1q-21 0 -16 20q5 23 28 22q21 0 33.5 -21.5t0.5 -39.5q-8 -9 -17 -17.5t-23 -11.5 q-11 -3 -20.5 -7.5t-22.5 -2.5q-6 -2 -19 1q-10 2 -20.5 4.5t-20.5 6.5q-5 1 -10.5 2t-10.5 4q-18 8 -36.5 16t-35.5 18q-13 6 -34 9q-13 0 -30 -11l-13 -9q-2 -10 0 -18q2 -4 2 -5.5t1 -4.5q3 -18 -14 -15q-13 3 -19.5 17.5z" />
<glyph unicode="&#xa1;" horiz-adv-x="208" d="M32 547q4 18 4.5 37.5t8.5 36.5q3 13 3 20q3 27 12.5 53.5t16.5 54.5l15 46q13 40 19 76q4 18 7.5 33.5t6.5 32.5q3 13 6 17q6 11 14 3l2 -1q3 -3 2.5 -10t-0.5 -11q3 -14 5 -28t0 -29q-3 -21 -6.5 -40.5t-11.5 -38.5q-11 -21 -11 -45q-3 -42 -8.5 -83t-14.5 -82 q-3 -15 -8.5 -28.5t-9.5 -28.5q-3 -12 -11 -24q-3 -8 -11 -8t-14 5q-8 9 -13.5 19t-2.5 23zM123 1019q-3 8 3 17q5 11 16.5 15t22.5 0q16 -6 13 -18q-3 -19 -13 -31q-8 -8 -20 -3q-4 4 -10.5 7.5t-9.5 7.5q0 2 -1 3t-1 2z" />
<glyph unicode="&#xa2;" horiz-adv-x="248" d="M52 849q-9 36 11 75q2 4 8 15q11 19 25 32q12 13 27 14q3 0 4 1t4 1l3 3q0 3 1 5t1 5q0 11 0.5 26.5t13.5 15.5q18 2 15 -20q-3 -8 -3 -13.5t-2 -11.5q0 -8 7 -12q6 -3 10.5 -6l10.5 -7q3 -3 6 -4q10 -7 5 -22q-3 -6 -10 -9t-11 0q-5 2 -9 4t-9 5q0 -3 -1.5 -3.5 t-1.5 -2.5q-3 -13 -5.5 -23.5t-1.5 -23.5q0 -7 -3 -16q-3 -6 -3 -18q0 -5 -1 -9.5t-2 -11.5v-6q0 -3 1 -5h3q10 10 15 13q5 6 15 9q7 3 15 -3q8 -8 3 -16l-5 -10q-3 -3 -6 -7t-6 -9q-3 -8 -8.5 -10.5t-11.5 -5.5q-4 -2 -8 -2t-7 -2q-4 -1 -7 -7q0 -5 -1.5 -10.5t0.5 -12.5 q1 -5 -2 -11q-5 -16 -23 -11q-9 1 -9 9q-2 5 -2 13v16t3 16q0 10 -6 12q-14 5 -26 20l-13 15q-1 4 -1 8.5t-2 7.5zM89 875q2 -4 2 -8t1 -8q2 -13 10 -24l1 -2l2 2q3 6 4 11.5t4 12.5q9 23 9 46q0 19 6 32v8q-2 1 -2 3h-4q-8 -6 -13.5 -14.5t-8.5 -17.5q2 -5 -4 -15 q-4 -6 -4.5 -12.5t-2.5 -13.5z" />
<glyph unicode="&#xa3;" horiz-adv-x="452" d="M32 549v17q0 4 2.5 7t5.5 6q13 10 21.5 22t15.5 25q13 16 19 47q-7 6 -10 6q-6 4 -20 4q-14 1 -14 13q2 6 6 11t10 3q6 0 11 -0.5t12 -0.5q8 0 11 8q0 4 -2.5 9.5t-7.5 5.5q-6 1 -12.5 0.5t-13.5 0.5q-12 2 -15.5 6t-3.5 18l1 7q7 8 16 6.5t18 1.5l9 14q3 6 4 12t4 13 q11 37 33 64.5t50 49.5q7 3 12 7.5t10 7.5q12 13 27 21t31 15q18 4 35 10.5t35 10.5q31 5 50 -10q3 -2 5 -2t3 -1q44 -27 29 -72q-8 -21 -16 -39.5t-21 -35.5q-4 -4 -7 -9t-9 -6q-8 -2 -6.5 6.5t3.5 11.5q8 12 12.5 26t9.5 29q1 5 2.5 9t1.5 8q1 22 -11 36.5t-32 17.5 q-6 2 -14 -1q-25 -11 -49 -22t-45 -29l-44 -40q-23 -22 -31.5 -46.5t-17.5 -52.5q8 -8 15.5 -8.5t15.5 -2.5l26 -7q13 -5 10 -14q-7 -10 -13 -10h-31q-19 0 -31 -10q4 -10 4 -16q1 -5 13.5 -4t15.5 1q9 3 21 0q8 -3 7.5 -7t-8.5 -7t-17 -3.5t-17 -3.5q-15 -4 -17 -16 q-5 -16 -9 -32t-8 -33q4 -5 6 -5q26 -8 51 -14.5t52 -11.5q19 -3 37 -6t38 0q14 1 30 6t28 16q14 13 13 34q-2 8 0.5 18t11.5 0q26 -26 4 -58q-9 -15 -23.5 -28.5t-32.5 -16.5q-15 -4 -29.5 -7t-29.5 -1q-52 1 -108 17q-13 3 -23.5 6.5t-23.5 3.5q-31 0 -52 -19l-8 -10 q-16 -16 -26 3q-5 10 -5 20z" />
<glyph unicode="&#xa4;" horiz-adv-x="415" d="M36 577q3 8 7.5 14l10.5 14l17 34q3 6 6.5 11.5t10.5 11.5q-2 2 -2 5q-6 74 14 144l23 71q3 6 5.5 12.5t5.5 13.5q-4 3 -11 12q-8 8 -14.5 17t-16.5 17q-9 5 -13 17q-3 8 -3 24q3 11 16 15q16 -7 30 -25q4 -6 9 -11.5t11 -12.5q5 -3 9.5 -9l7.5 -10l1 1q15 8 26.5 18.5 t17.5 28.5q1 5 5 9t7 9q10 10 23 11.5t26 1.5q36 1 67 -26q6 -3 8 -7l24 25q5 8 21 3q3 -32 -14 -57q-4 -5 -8 -9.5t-7 -10.5q3 -19 0 -33q0 -6 1 -11t1 -12q0 -5 0.5 -9.5t-2.5 -9.5q-3 -9 -3.5 -19t-0.5 -22q4 -23 -1 -45.5t-10 -44.5q-4 -20 -12 -37t-17 -34 q-2 -6 -6 -13l42 -83q0 -4 1 -6q-12 -9 -19 -5q-8 4 -13 13q-8 11 -14.5 21.5t-12.5 21.5q-3 4 -4 7l-13 -19q-18 -29 -46 -40q-13 -7 -28 -9.5t-29 1.5q-16 4 -23 8q-23 7 -34 26l-10 17q-15 -28 -32 -51q-1 -4 -6 -6q0 -1 -5 -1q-16 0 -23 11q-8 11 -1 22zM173 607 q0 -7 3 -10q8 -11 26 -14.5t28 6.5q14 11 28 23.5t23 28.5q3 11 11 14q1 6 6 12q11 14 17 31t10 35q4 14 7 30t0 32q-3 12 -2.5 23.5t2.5 24.5q1 21 0.5 40.5t-0.5 40.5t-18 33q-10 5 -19 11t-17 9q-20 10 -26 -9q-3 -8 -5.5 -14t-2.5 -14q0 -16 -9 -31q-8 -14 -8 -29.5 t3 -31.5q1 -11 10 -14.5t19 -0.5q13 7 21 4q1 -10 -4.5 -14.5t-10.5 -7.5q-9 -8 -19.5 -8.5t-35.5 4.5l-9 -67q-2 -11 -3.5 -22.5t-9.5 -20.5q-5 -8 -6 -18q-3 -19 -3.5 -38t-5.5 -38z" />
<glyph unicode="&#xa5;" horiz-adv-x="386" d="M32 589q0 4 4 11q3 4 11 7q11 4 21.5 8t23.5 10q4 8 5.5 16.5t2.5 18.5q-9 4 -18 2t-17 -6q-25 -3 -15 20q0 3 4 7q14 6 30 6t32 12q2 3 4 7.5t3 9.5q5 13 -1.5 25t-13.5 24q-6 13 -7.5 27.5t-1.5 28.5q-2 39 0.5 79t7.5 78q1 8 2 15.5t4 15.5q3 7 7 10q10 12 19 0 q0 -2 1 -2t1 -1q4 -20 11.5 -38.5t7.5 -40.5q-1 -31 -4.5 -61t-8.5 -60q-2 -9 -2 -19t7 -18q13 3 21.5 18.5t14.5 23.5q10 14 20 28.5t20 28.5q13 18 23.5 35t18.5 36q8 21 22.5 38t32.5 30q7 5 18 5q6 1 12 -3q3 -11 1 -15q-18 -34 -38 -66t-42 -65l-54 -87l-29 -44 q-3 -3 -14 -17.5t-8 -17.5q4 -5 12 -5t15 -2q7 -1 7 -4q-1 -4 -6 -6.5t-8 -4.5q-3 -1 -13.5 -1t-12.5 -5q-1 -8 -3 -15t-5 -16q0 -9 -1 -12q3 -2 10 -2t14.5 -1t12.5 -4t0 -10q-8 -11 -25.5 -14t-26.5 -11q-4 -8 -6 -18t-5 -19q-7 -27 -20 -38q-10 -8 -19 1t-10 17 q0 1 0.5 9.5t1.5 18t3 16.5l2 8q-13 -3 -23.5 -4.5t-22.5 -2.5q-10 -3 -10 5z" />
<glyph unicode="&#xa9;" horiz-adv-x="239" d="M32 880.5v9.5q0 37 10 66q6 20 24 34q10 9 16 13q11 8 20 8q8 0 14 1t14 -1q27 -3 48 -16q12 -9 18 -21.5t9 -25.5q4 -14 2 -28.5t-3 -29.5q-2 -8 -6.5 -13.5t-9.5 -12.5q-5 -6 -11 -11t-10 -10q-25 -28 -63.5 -27t-61.5 29q-3 4 -4.5 11t-3.5 13t-2 11.5zM70 914 q0 -5 0.5 -11t2.5 -15q1 -23 24 -39q21 -18 40 -3q16 10 38 26q19 13 16 40q-3 16 -3 25q2 28 -24 40q-27 13 -51 13q-26 0 -36 -22q-7 -22 -7 -54zM96 891q1 8 2 15.5t1 15.5q1 14 9 29l5.5 5.5l6.5 6.5q3 2 5.5 4t5.5 2h2q8 0 17 -2t10 -13q0 -4 4 -14q0 -5 1 -8 q0 -6 -3 -16q-2 -4 -6 -7t-7 -3q-4 2 -4 9v10q-1 5 -3.5 18t-10.5 7q-11 -8 -11 -18q0 -8 -1 -14.5t1 -14.5q0 -10 5 -15q3 -3 6 -5.5t6 -0.5q2 1 4 1q3 8 11 8q7 -1 5.5 -7t-5.5 -9q-14 -14 -30 -16q-22 -3 -25 19q-1 5 -1 13z" />
<glyph unicode="&#xab;" horiz-adv-x="274" d="M32 818q2 8 8 15q11 8 20.5 18t21.5 16q10 4 19.5 10t18.5 13q5 3 9 6.5t8 6.5t8.5 8t8.5 1l6 -9q4 -8 3 -11.5t-4 -8.5q-11 -11 -18 -16q-8 -4 -16.5 -9.5t-16.5 -8.5t-15 -6t-16 -8q-3 -2 -3.5 -3.5t-2.5 -2.5q-1 -3 -1 -6q0 -1 1 -5q3 -3 6.5 -4.5t6.5 -4.5 q8 -6 17 -12t17 -11l15 -11q8 -3 12 -11l5 -12q3 -6 4 -11q3 -9 0 -18v-3q-3 -3 -6.5 1t-5.5 7l-14 15q-8 6 -15.5 11t-15.5 12l-57 37q-8 4 -8 15zM110 818q0 5 2.5 8.5t5.5 6.5q12 8 20.5 18t21.5 16q10 4 20 10t18 13l17 13l8 8t8 1l7 -9q5 -11 -3 -20q-7 -9 -17 -16 q-8 -4 -16 -9.5t-16 -8.5q-7 -3 -15.5 -6t-14.5 -8q-4 -2 -5 -3.5t-2 -2.5q-2 -3 -2 -6q0 -1 2 -5q3 -3 6.5 -4.5t6.5 -4.5l32 -23q5 -3 9 -5.5t7 -5.5q8 -3 14 -11l4 -12q0 -5 3 -11q4 -9 0 -18q0 -3 -1 -3q-2 -3 -5 1t-5 7l-15 15q-7 6 -15 11t-15 12l-57 37q-9 6 -8 15z " />
<glyph unicode="&#xad;" horiz-adv-x="477" d="M81 807q9 10 19 10q11 0 22.5 1.5t22.5 1.5q26 2 50.5 2.5t50.5 -2.5h38q7 0 13 -1t12 -1q3 0 7.5 -0.5t7.5 0.5q18 4 31 -1q9 -3 18 -8t19 -8l3 -3q2 -2 2 -6t-4 -6q-3 -2 -5.5 -3.5t-5.5 -1.5q-19 3 -33 -9q-12 -8 -24 -3q-7 4 -18 1q-9 -3 -20 -0.5t-20 -2.5h-3 q-10 6 -19.5 3t-20.5 -1q-5 0 -9 -2q-13 -6 -25 -7t-25 2h-8q-8 -6 -17 -4.5t-17 3.5q-14 3 -26 20z" />
<glyph unicode="&#xae;" horiz-adv-x="240" d="M32 879.5v8.5q0 37 10 66q9 20 24 34q5 3 9 7t9 7q11 8 22.5 8h23.5q30 -4 48 -19q12 -7 18 -20.5t9 -25.5q4 -14 2 -29t-3 -30q-2 -6 -6.5 -12.5t-9.5 -10.5q-5 -7 -11 -12t-10 -11q-26 -28 -64 -26.5t-61 29.5q-5 6 -8 23q-2 8 -2 13.5zM70 912q0 -4 0.5 -11.5 t2.5 -15.5q1 -23 24 -39q21 -16 40 -3q10 6 19 13t19 13q19 13 16 40q-3 18 -1 26q0 28 -26 41q-28 12 -51 11q-26 0 -36 -22q-4 -11 -5.5 -24.5t-1.5 -28.5zM92 877q-3 1 0 5l8 35q2 5 5 5t6 2q4 0 8 1.5t7 3.5q5 3 13 9.5t5 14.5q-3 4 -8 4q-5 -1 -9.5 -1t-10.5 -2 q-5 -1 -8 -3.5t-8 -4.5q-3 -3 -5.5 1t1.5 7q7 10 22.5 14t26.5 0q11 -3 14 -14.5t-3 -21.5q-10 -9 -15 -13l-19 -10q0 -9 12 -12q5 -2 15 -2q3 0 8 1t8 -3q5 0 5 -7q0 -4 -6 -8q-33 -9 -53 15l-3 4q0 -2 -1.5 -8t-1.5 -9l-4 -6t-5 0q-4 0 -4 3z" />
<glyph unicode="&#xb7;" horiz-adv-x="114" d="M32 801q0 13 10 26q6 8 16 2t16 -9l5 -3v-2q3 -3 0.5 -7t-3.5 -7q-3 -8 -12.5 -14t-18.5 -3q-13 4 -13 17z" />
<glyph unicode="&#xbb;" horiz-adv-x="274" d="M32.5 891.5q-1.5 3.5 1.5 11.5l8 9q3 4 8 -1l8 -8q4 -3 8.5 -6.5t9.5 -6.5q8 -7 17.5 -13t19.5 -10q11 -6 21 -16t22 -18q6 -7 8 -15q0 -7 -8 -15l-30 -20t-29 -17q-8 -7 -15.5 -12t-15.5 -11q-9 -10 -12 -15q-2 -3 -5.5 -7t-6.5 -1q0 1 -2 3q0 11 2 18q0 5 3 11l5 12 q1 8 12 11l15 11q8 5 17 11t17 12q4 3 7.5 4.5t6.5 4.5q0 4 0.5 4t0.5 1q0 2 -0.5 2t-0.5 4l-7 6q-7 5 -14.5 8t-15.5 6q-16 7 -33 18q-12 10 -18 16q-3 5 -4.5 8.5zM109.5 891.5q-1.5 3.5 1.5 11.5q2 3 9 9q3 4 8 -1l8 -8q6 -6 16 -13t19.5 -13t18.5 -10q12 -6 22 -16 t19 -18q8 -5 8 -15q2 -9 -8 -15q-29 -22 -56 -37q-8 -7 -15.5 -12t-15.5 -11q-10 -10 -13 -15q-3 -3 -5.5 -7t-5.5 -1q-2 1 -2 3v18q2 3 3 5.5t2 5.5l5 12q2 8 11 11l17 11q8 5 16.5 11t17.5 12q3 3 6 4.5t6 4.5q0 4 1 4t1 1q0 2 -1 2t-1 4l-6 6q-8 5 -16.5 8t-15.5 6 l-33 18q-3 4 -8 7.5t-8 8.5q-4 5 -5.5 8.5z" />
<glyph unicode="&#xbf;" horiz-adv-x="454" d="M32 613.5v11.5q7 23 10 50q3 14 9 27t19 23q6 3 7 10q13 27 35 45.5t48 34.5q10 7 19 13.5t19 14.5q9 8 19.5 14.5t21.5 14.5q20 11 31 23q3 3 6.5 7t4.5 9v1q2 4 -1.5 6t-4.5 7q0 8 6 14q8 3 11.5 0.5t10.5 -5.5q15 -8 12 -26q-1 -28 -10 -52t-29 -44 q-19 -20 -39.5 -36.5t-40.5 -34.5q-13 -11 -25 -24t-26 -27q-6 -6 -10 -13t-10 -13q-18 -19 -22 -45q0 -6 -0.5 -11.5t-0.5 -11.5q-2 -28 23 -37q8 -4 24 -8q21 -6 41 -8.5t41 5.5q30 11 42 33q7 9 3 18q-6 18 0.5 32t16.5 28q6 8 11.5 14t12.5 13q21 23 49 16q11 -1 16 -13 q4 -14 2.5 -28t-6.5 -28q-4 -13 -12 -24.5t-17 -23.5q-5 -4 -9.5 -9.5t-6.5 -15.5q4 -8 10 -10q6 -5 13.5 -6.5t15.5 -1.5q6 0 13 1t12 5q4 7 5 16t7 12q3 1 5 1t5 2q8 2 9 -9.5t-1 -16.5q-4 -16 -21 -30q-3 -2 -5.5 -3t-3.5 -3q-13 -9 -23.5 -8t-24.5 5l-43 25 q-10 -3 -14 -7q-4 -1 -7.5 -2.5t-6.5 -4.5q-47 -33 -108 -20q-55 9 -99 50q-11 9 -19.5 23t-15.5 27q-4 3 -4 8.5zM295 1014q-3 8 3 13.5t9 11.5q2 3 5 6q13 10 20 0q6 -8 9 -17t2 -22q0 -3 -3 -13q-5 -8 -15.5 -8.5t-17.5 6.5q-3 5 -7 10t-5 13zM306 616q-7 -11 3 -22 q8 3 9 6l20 22t18 22q8 10 5 26q-3 6 -9 6q-18 -6 -23 -16q-7 -11 -13 -21.5t-10 -22.5z" />
<glyph unicode="&#xc0;" horiz-adv-x="1019" d="M-48 633q0 58 25 103q18 30 36 57t39 55q8 8 15 17.5t15 19.5q-5 8 -8 21q-12 37 12 70q3 3 6.5 7t6.5 7q4 6 11.5 5.5t11.5 -7.5q4 -8 6 -19q-6 -11 -13 -21.5t3 -25.5l15 10q19 13 38 29t38 30q9 8 19.5 12.5t21.5 12.5q22 11 49 0q15 -5 28 -11q8 -3 12 -10.5t7 -15.5 q0 -3 1 -5.5t-1 -5.5q-5 -10 -9 -19.5t-8 -21.5l-4 -7q-18 -18 -38 -33.5t-46 -23.5q-11 -3 -23.5 -7t-24.5 -5q-18 -2 -31 -10.5t-23 -22.5q-11 -12 -20 -28.5t-19 -34.5q-9 -20 -18 -40.5t-19 -41.5q-16 -40 -16 -79q0 -3 1 -5q3 0 4.5 -1t4.5 -1q23 13 44 27t38 36 q6 8 14.5 16.5l16.5 16.5q12 14 24.5 28t25.5 30q4 3 5.5 8t4.5 10q5 18 16.5 33t20.5 30q8 12 18 23.5t18 26.5h21q13 0 20.5 -7.5t1.5 -23.5q-18 -38 -34 -82q-6 -14 -12.5 -30t-15.5 -31q-9 -20 -11.5 -38.5t-0.5 -40.5q1 -29 31 -35q3 1 6 -0.5t6 0.5q20 3 40 5.5 t40 10.5q13 5 22.5 8t20.5 8q19 8 36 15t34 16q14 8 29.5 14.5t32.5 14.5l83 39q28 13 55 23.5t56 20.5q32 11 65.5 20t67.5 20q9 4 19.5 4.5t20.5 2.5q29 3 57 8.5t57 5.5q17 3 23 -9q-6 -15 -21 -12q-20 4 -38 -1t-36 -9q-22 -5 -40.5 -5.5t-37.5 -6.5q-24 -8 -49 -14 t-49 -14q-28 -10 -56.5 -20.5t-56.5 -21.5q-7 -2 -12 -6q-20 -11 -41.5 -21t-42.5 -21l-66 -34q-18 -10 -37.5 -18t-40.5 -16q-19 -10 -38 -17q-26 -9 -51.5 -13t-51.5 -8q-31 -3 -55 9q-27 11 -39.5 31t-16.5 48q-2 1 -1 2.5t-3 3.5v8q-8 1 -10 -2.5t-5 -7.5 q-8 -18 -20 -29t-23 -24q-11 -12 -25 -22t-29 -22q-3 -4 -11 -4q-35 -5 -62 4q-27 13 -46 41q-8 11 -9.5 20.5t-1.5 23.5zM164 1191q3 3 3 4q4 11 15 14q7 1 13.5 2.5t14.5 3.5q3 -3 6.5 -4t7.5 -4l22 -9q6 -4 11 -7.5t12 -4.5q6 -3 9 -7q8 -11 20 -12l6 -3q5 -7 11 -10.5 t12 -6.5q6 -6 11 -16q5 -8 -1 -15q-5 -8 -15 -4q-3 0 -10 3q-8 3 -16 5.5t-16 5.5t-15 6.5t-16 8.5l-13 5q-9 4 -20 8t-20 10q-6 3 -11.5 4.5t-9.5 4.5q-4 0 -4.5 1t-2.5 1q-9 6 -4 16zM196 886h11q3 2 6 3.5t7 1.5q23 3 39.5 14.5t33.5 25.5q3 6 6 9l16 36q-6 0 -8.5 0.5 t-3.5 0.5q-5 -1 -9 -3.5t-10 -4.5q-12 -9 -26.5 -18t-27.5 -19q-6 -3 -10 -10.5t-8 -13.5q-3 -3 -7 -6.5t-7 -8.5q-2 0 -2 -7z" />
<glyph unicode="&#xc1;" horiz-adv-x="1019" d="M-48 633q0 58 25 103q18 30 36 57t39 55q8 8 15 17.5t15 19.5q-5 8 -8 21q-12 37 12 70q3 3 6.5 7t6.5 7q4 6 11.5 5.5t11.5 -7.5q4 -8 6 -19q-6 -11 -13 -21.5t3 -25.5l15 10q19 13 38 29t38 30q9 8 19.5 12.5t21.5 12.5q22 11 49 0q15 -5 28 -11q8 -3 12 -10.5t7 -15.5 q0 -3 1 -5.5t-1 -5.5q-5 -10 -9 -19.5t-8 -21.5l-4 -7q-18 -18 -38 -33.5t-46 -23.5q-11 -3 -23.5 -7t-24.5 -5q-18 -2 -31 -10.5t-23 -22.5q-11 -12 -20 -28.5t-19 -34.5q-9 -20 -18 -40.5t-19 -41.5q-16 -40 -16 -79q0 -3 1 -5q3 0 4.5 -1t4.5 -1q23 13 44 27t38 36 q6 8 14.5 16.5l16.5 16.5q12 14 24.5 28t25.5 30q4 3 5.5 8t4.5 10q5 18 16.5 33t20.5 30q8 12 18 23.5t18 26.5h21q13 0 20.5 -7.5t1.5 -23.5q-18 -38 -34 -82q-6 -14 -12.5 -30t-15.5 -31q-9 -20 -11.5 -38.5t-0.5 -40.5q1 -29 31 -35q3 1 6 -0.5t6 0.5q20 3 40 5.5 t40 10.5q13 5 22.5 8t20.5 8q19 8 36 15t34 16q14 8 29.5 14.5t32.5 14.5l83 39q28 13 55 23.5t56 20.5q32 11 65.5 20t67.5 20q9 4 19.5 4.5t20.5 2.5q29 3 57 8.5t57 5.5q17 3 23 -9q-6 -15 -21 -12q-20 4 -38 -1t-36 -9q-22 -5 -40.5 -5.5t-37.5 -6.5q-24 -8 -49 -14 t-49 -14q-28 -10 -56.5 -20.5t-56.5 -21.5q-7 -2 -12 -6q-20 -11 -41.5 -21t-42.5 -21l-66 -34q-18 -10 -37.5 -18t-40.5 -16q-19 -10 -38 -17q-26 -9 -51.5 -13t-51.5 -8q-31 -3 -55 9q-27 11 -39.5 31t-16.5 48q-2 1 -1 2.5t-3 3.5v8q-8 1 -10 -2.5t-5 -7.5 q-8 -18 -20 -29t-23 -24q-11 -12 -25 -22t-29 -22q-3 -4 -11 -4q-35 -5 -62 4q-27 13 -46 41q-8 11 -9.5 20.5t-1.5 23.5zM179 1131q5 10 14 16q5 3 11 6.5t9 10.5l7 3q10 1 21 12q2 4 8 7q9 1 23 12l23 9q4 3 14 8l26 -6q11 -2 16 -14l4 -4q4 -10 -6 -16q-1 0 -2 -1t-3 -1 q-6 -3 -10.5 -4.5t-9.5 -4.5q-11 -5 -21 -10t-22 -8l-12 -5q-8 -5 -15.5 -8t-15.5 -7q-8 -3 -16.5 -5.5t-16.5 -5.5q-6 -3 -9 -3q-10 -4 -15 4q-5 7 -2 15zM196 886h11q3 2 6 3.5t7 1.5q23 3 39.5 14.5t33.5 25.5q3 6 6 9l16 36q-6 0 -8.5 0.5t-3.5 0.5q-5 -1 -9 -3.5 t-10 -4.5q-12 -9 -26.5 -18t-27.5 -19q-6 -3 -10 -10.5t-8 -13.5q-3 -3 -7 -6.5t-7 -8.5q-2 0 -2 -7z" />
<glyph unicode="&#xc2;" horiz-adv-x="1019" d="M-48 633q0 58 25 103q18 30 36 57t39 55q8 8 15 17.5t15 19.5q-5 8 -8 21q-12 37 12 70q3 3 6.5 7t6.5 7q4 6 11.5 5.5t11.5 -7.5q4 -8 6 -19q-6 -11 -13 -21.5t3 -25.5l15 10q19 13 38 29t38 30q9 8 19.5 12.5t21.5 12.5q22 11 49 0q15 -5 28 -11q8 -3 12 -10.5t7 -15.5 q0 -3 1 -5.5t-1 -5.5q-5 -10 -9 -19.5t-8 -21.5l-4 -7q-18 -18 -38 -33.5t-46 -23.5q-11 -3 -23.5 -7t-24.5 -5q-18 -2 -31 -10.5t-23 -22.5q-11 -12 -20 -28.5t-19 -34.5q-9 -20 -18 -40.5t-19 -41.5q-16 -40 -16 -79q0 -3 1 -5q3 0 4.5 -1t4.5 -1q23 13 44 27t38 36 q6 8 14.5 16.5l16.5 16.5q12 14 24.5 28t25.5 30q4 3 5.5 8t4.5 10q5 18 16.5 33t20.5 30q8 12 18 23.5t18 26.5h21q13 0 20.5 -7.5t1.5 -23.5q-18 -38 -34 -82q-6 -14 -12.5 -30t-15.5 -31q-9 -20 -11.5 -38.5t-0.5 -40.5q1 -29 31 -35q3 1 6 -0.5t6 0.5q20 3 40 5.5 t40 10.5q13 5 22.5 8t20.5 8q19 8 36 15t34 16q14 8 29.5 14.5t32.5 14.5l83 39q28 13 55 23.5t56 20.5q32 11 65.5 20t67.5 20q9 4 19.5 4.5t20.5 2.5q29 3 57 8.5t57 5.5q17 3 23 -9q-6 -15 -21 -12q-20 4 -38 -1t-36 -9q-22 -5 -40.5 -5.5t-37.5 -6.5q-24 -8 -49 -14 t-49 -14q-28 -10 -56.5 -20.5t-56.5 -21.5q-7 -2 -12 -6q-20 -11 -41.5 -21t-42.5 -21l-66 -34q-18 -10 -37.5 -18t-40.5 -16q-19 -10 -38 -17q-26 -9 -51.5 -13t-51.5 -8q-31 -3 -55 9q-27 11 -39.5 31t-16.5 48q-2 1 -1 2.5t-3 3.5v8q-8 1 -10 -2.5t-5 -7.5 q-8 -18 -20 -29t-23 -24q-11 -12 -25 -22t-29 -22q-3 -4 -11 -4q-35 -5 -62 4q-27 13 -46 41q-8 11 -9.5 20.5t-1.5 23.5zM164 1112q3 7 7.5 14t9.5 15q9 12 18.5 27t16.5 31q4 8 9.5 13.5t12.5 11.5q5 5 12 4q23 -5 36 -22l6 -8t4 -7q13 -20 23.5 -40t21.5 -39 q-3 -10 -10 -11.5t-16 -3.5q-34 26 -57 64q-4 3 -4 4q-9 18 -21 2l-23 -34q-3 -5 -7 -11t-9 -10q-8 -12 -21 -12l-8 2q-5 3 -1 10zM196 886h11q3 2 6 3.5t7 1.5q23 3 39.5 14.5t33.5 25.5q3 6 6 9l16 36q-6 0 -8.5 0.5t-3.5 0.5q-5 -1 -9 -3.5t-10 -4.5q-12 -9 -26.5 -18 t-27.5 -19q-6 -3 -10 -10.5t-8 -13.5q-3 -3 -7 -6.5t-7 -8.5q-2 0 -2 -7z" />
<glyph unicode="&#xc3;" horiz-adv-x="1019" d="M-48 633q0 58 25 103q18 30 36 57t39 55q8 8 15 17.5t15 19.5q-5 8 -8 21q-12 37 12 70q3 3 6.5 7t6.5 7q4 6 11.5 5.5t11.5 -7.5q4 -8 6 -19q-6 -11 -13 -21.5t3 -25.5l15 10q19 13 38 29t38 30q9 8 19.5 12.5t21.5 12.5q22 11 49 0q15 -5 28 -11q8 -3 12 -10.5t7 -15.5 q0 -3 1 -5.5t-1 -5.5q-5 -10 -9 -19.5t-8 -21.5l-4 -7q-18 -18 -38 -33.5t-46 -23.5q-11 -3 -23.5 -7t-24.5 -5q-18 -2 -31 -10.5t-23 -22.5q-11 -12 -20 -28.5t-19 -34.5q-9 -20 -18 -40.5t-19 -41.5q-16 -40 -16 -79q0 -3 1 -5q3 0 4.5 -1t4.5 -1q23 13 44 27t38 36 q6 8 14.5 16.5l16.5 16.5q12 14 24.5 28t25.5 30q4 3 5.5 8t4.5 10q5 18 16.5 33t20.5 30q8 12 18 23.5t18 26.5h21q13 0 20.5 -7.5t1.5 -23.5q-18 -38 -34 -82q-6 -14 -12.5 -30t-15.5 -31q-9 -20 -11.5 -38.5t-0.5 -40.5q1 -29 31 -35q3 1 6 -0.5t6 0.5q20 3 40 5.5 t40 10.5q13 5 22.5 8t20.5 8q19 8 36 15t34 16q14 8 29.5 14.5t32.5 14.5l83 39q28 13 55 23.5t56 20.5q32 11 65.5 20t67.5 20q9 4 19.5 4.5t20.5 2.5q29 3 57 8.5t57 5.5q17 3 23 -9q-6 -15 -21 -12q-20 4 -38 -1t-36 -9q-22 -5 -40.5 -5.5t-37.5 -6.5q-24 -8 -49 -14 t-49 -14q-28 -10 -56.5 -20.5t-56.5 -21.5q-7 -2 -12 -6q-20 -11 -41.5 -21t-42.5 -21l-66 -34q-18 -10 -37.5 -18t-40.5 -16q-19 -10 -38 -17q-26 -9 -51.5 -13t-51.5 -8q-31 -3 -55 9q-27 11 -39.5 31t-16.5 48q-2 1 -1 2.5t-3 3.5v8q-8 1 -10 -2.5t-5 -7.5 q-8 -18 -20 -29t-23 -24q-11 -12 -25 -22t-29 -22q-3 -4 -11 -4q-35 -5 -62 4q-27 13 -46 41q-8 11 -9.5 20.5t-1.5 23.5zM102 1127q11 19 28 34q4 7 17 14q18 9 35 4q19 -4 30 -15l27 -20q22 -20 56 -17q8 2 14 9.5t5 15.5q-2 5 -3.5 10t-3.5 11q-1 5 3 9.5t8 4.5t8 1t7 -2 q8 -7 14 -12.5t11 -15.5q13 -24 -6 -46q-9 -13 -22 -20.5t-35 -6.5q-13 2 -29 6t-30 16q-16 9 -37 26q-11 5 -21 1q-14 -4 -28 -18q-6 -6 -11.5 -12.5t-13.5 -13.5q-2 -3 -6 -3t-8 2q-23 15 -9 38zM196 886h11q3 2 6 3.5t7 1.5q23 3 39.5 14.5t33.5 25.5q3 6 6 9l16 36 q-6 0 -8.5 0.5t-3.5 0.5q-5 -1 -9 -3.5t-10 -4.5q-12 -9 -26.5 -18t-27.5 -19q-6 -3 -10 -10.5t-8 -13.5q-3 -3 -7 -6.5t-7 -8.5q-2 0 -2 -7z" />
<glyph unicode="&#xc4;" horiz-adv-x="1019" d="M-48 633q0 58 25 103q18 30 36 57t39 55q8 8 15 17.5t15 19.5q-5 8 -8 21q-12 37 12 70q3 3 6.5 7t6.5 7q4 6 11.5 5.5t11.5 -7.5q4 -8 6 -19q-6 -11 -13 -21.5t3 -25.5l15 10q19 13 38 29t38 30q9 8 19.5 12.5t21.5 12.5q22 11 49 0q15 -5 28 -11q8 -3 12 -10.5t7 -15.5 q0 -3 1 -5.5t-1 -5.5q-5 -10 -9 -19.5t-8 -21.5l-4 -7q-18 -18 -38 -33.5t-46 -23.5q-11 -3 -23.5 -7t-24.5 -5q-18 -2 -31 -10.5t-23 -22.5q-11 -12 -20 -28.5t-19 -34.5q-9 -20 -18 -40.5t-19 -41.5q-16 -40 -16 -79q0 -3 1 -5q3 0 4.5 -1t4.5 -1q23 13 44 27t38 36 q6 8 14.5 16.5l16.5 16.5q12 14 24.5 28t25.5 30q4 3 5.5 8t4.5 10q5 18 16.5 33t20.5 30q8 12 18 23.5t18 26.5h21q13 0 20.5 -7.5t1.5 -23.5q-18 -38 -34 -82q-6 -14 -12.5 -30t-15.5 -31q-9 -20 -11.5 -38.5t-0.5 -40.5q1 -29 31 -35q3 1 6 -0.5t6 0.5q20 3 40 5.5 t40 10.5q13 5 22.5 8t20.5 8q19 8 36 15t34 16q14 8 29.5 14.5t32.5 14.5l83 39q28 13 55 23.5t56 20.5q32 11 65.5 20t67.5 20q9 4 19.5 4.5t20.5 2.5q29 3 57 8.5t57 5.5q17 3 23 -9q-6 -15 -21 -12q-20 4 -38 -1t-36 -9q-22 -5 -40.5 -5.5t-37.5 -6.5q-24 -8 -49 -14 t-49 -14q-28 -10 -56.5 -20.5t-56.5 -21.5q-7 -2 -12 -6q-20 -11 -41.5 -21t-42.5 -21l-66 -34q-18 -10 -37.5 -18t-40.5 -16q-19 -10 -38 -17q-26 -9 -51.5 -13t-51.5 -8q-31 -3 -55 9q-27 11 -39.5 31t-16.5 48q-2 1 -1 2.5t-3 3.5v8q-8 1 -10 -2.5t-5 -7.5 q-8 -18 -20 -29t-23 -24q-11 -12 -25 -22t-29 -22q-3 -4 -11 -4q-35 -5 -62 4q-27 13 -46 41q-8 11 -9.5 20.5t-1.5 23.5zM164 1152q3 8 6 14.5t9 11.5q10 6 17 6q6 0 19 -3q8 -3 13 -11q3 -6 5.5 -13.5t1.5 -15.5q0 -14 -15 -25q-11 -9 -26 -4q-12 3 -27 18q-8 11 -3 22z M196 886h11q3 2 6 3.5t7 1.5q23 3 39.5 14.5t33.5 25.5q3 6 6 9l16 36q-6 0 -8.5 0.5t-3.5 0.5q-5 -1 -9 -3.5t-10 -4.5q-12 -9 -26.5 -18t-27.5 -19q-6 -3 -10 -10.5t-8 -13.5q-3 -3 -7 -6.5t-7 -8.5q-2 0 -2 -7zM261 1152q3 8 6 14.5t9 11.5q10 6 17 6q8 0 17 -3 q10 -3 15 -11q4 -6 6 -13.5t1 -15.5q0 -13 -15 -25q-11 -9 -25 -4q-13 3 -28 18q-10 12 -3 22z" />
<glyph unicode="&#xc5;" horiz-adv-x="1019" d="M-48 633q0 58 25 103q18 30 36 57t39 55q8 8 15 17.5t15 19.5q-5 8 -8 21q-12 37 12 70q3 3 6.5 7t6.5 7q4 6 11.5 5.5t11.5 -7.5q4 -8 6 -19q-6 -11 -13 -21.5t3 -25.5l15 10q19 13 38 29t38 30q9 8 19.5 12.5t21.5 12.5q22 11 49 0q15 -5 28 -11q8 -3 12 -10.5t7 -15.5 q0 -3 1 -5.5t-1 -5.5q-5 -10 -9 -19.5t-8 -21.5l-4 -7q-18 -18 -38 -33.5t-46 -23.5q-11 -3 -23.5 -7t-24.5 -5q-18 -2 -31 -10.5t-23 -22.5q-11 -12 -20 -28.5t-19 -34.5q-9 -20 -18 -40.5t-19 -41.5q-16 -40 -16 -79q0 -3 1 -5q3 0 4.5 -1t4.5 -1q23 13 44 27t38 36 q6 8 14.5 16.5l16.5 16.5q12 14 24.5 28t25.5 30q4 3 5.5 8t4.5 10q5 18 16.5 33t20.5 30q8 12 18 23.5t18 26.5h21q13 0 20.5 -7.5t1.5 -23.5q-18 -38 -34 -82q-6 -14 -12.5 -30t-15.5 -31q-9 -20 -11.5 -38.5t-0.5 -40.5q1 -29 31 -35q3 1 6 -0.5t6 0.5q20 3 40 5.5 t40 10.5q13 5 22.5 8t20.5 8q19 8 36 15t34 16q14 8 29.5 14.5t32.5 14.5l83 39q28 13 55 23.5t56 20.5q32 11 65.5 20t67.5 20q9 4 19.5 4.5t20.5 2.5q29 3 57 8.5t57 5.5q17 3 23 -9q-6 -15 -21 -12q-20 4 -38 -1t-36 -9q-22 -5 -40.5 -5.5t-37.5 -6.5q-24 -8 -49 -14 t-49 -14q-28 -10 -56.5 -20.5t-56.5 -21.5q-7 -2 -12 -6q-20 -11 -41.5 -21t-42.5 -21l-66 -34q-18 -10 -37.5 -18t-40.5 -16q-19 -10 -38 -17q-26 -9 -51.5 -13t-51.5 -8q-31 -3 -55 9q-27 11 -39.5 31t-16.5 48q-2 1 -1 2.5t-3 3.5v8q-8 1 -10 -2.5t-5 -7.5 q-8 -18 -20 -29t-23 -24q-11 -12 -25 -22t-29 -22q-3 -4 -11 -4q-35 -5 -62 4q-27 13 -46 41q-8 11 -9.5 20.5t-1.5 23.5zM194.5 1137q-1.5 5 1.5 10q3 8 7 16.5t13 12.5q2 2 4 2l4 3q9 3 11 3l1 2q22 0 34 -8l14 -11l4 -2q7 -8 10 -19q3 -22 -12 -33q-3 -5 -8 -9t-8 -7 l-5 -4q-4 -4 -16 -4h-2q-19 0 -34 13q-11 8 -12 17l-2 2v3l-1 3q-2 5 -3.5 10zM196 886h11q3 2 6 3.5t7 1.5q23 3 39.5 14.5t33.5 25.5q3 6 6 9l16 36q-6 0 -8.5 0.5t-3.5 0.5q-5 -1 -9 -3.5t-10 -4.5q-12 -9 -26.5 -18t-27.5 -19q-6 -3 -10 -10.5t-8 -13.5q-3 -3 -7 -6.5 t-7 -8.5q-2 0 -2 -7zM222 1133q0 -5 3 -9h2q1 -3 8 -6q6 -5 15 -5v2q4 0 6 1q2 0 3 2q2 0 2 1q6 3 9 14q2 1 -1 8v1q0 2 -2 2v2q0 3 -6 7q-7 7 -15 7h-2q-3 0 -4 -1t-2 -1l-3 -3q-5 -3 -8 -8q-8 -5 -5 -14z" />
<glyph unicode="&#xc6;" horiz-adv-x="1011" d="M-48 634q0 59 25 104q18 29 36 56.5t39 54.5q8 8 15 18t15 19q-5 8 -8 22q-12 37 12 69q3 3 6.5 7t6.5 7q4 7 11.5 6.5t11.5 -7.5q4 -8 6 -19q-6 -11 -13 -21.5t3 -25.5l15 10q19 12 38 28.5t38 30.5q9 8 19.5 12.5t21.5 12.5q22 11 49 0q15 -5 28 -12q8 -3 12 -10.5 t7 -15.5q0 -3 1 -5.5t-1 -5.5q-5 -9 -9 -19t-8 -21l-4 -7q-18 -18 -38 -34t-46 -24q-11 -3 -23.5 -6.5t-24.5 -5.5q-18 -1 -31 -10t-23 -22q-11 -13 -20 -29t-19 -34q-9 -20 -18 -40.5t-19 -41.5q-16 -41 -16 -79q0 -4 1 -5q3 0 4.5 -1t4.5 -1q23 12 44 26.5t38 36.5 q6 8 14.5 16t16.5 16q12 14 24.5 28.5t25.5 30.5q4 3 5.5 7.5t4.5 10.5q5 18 16.5 33t20.5 29q5 7 11 17.5t13.5 21t13 18.5t7.5 11q13 23 36 43q12 12 19 17v8q-3 16 2 30t13 27q7 14 19.5 24t25.5 18q13 5 16 -5q8 -20 -8 -29q-18 -14 -32 -39q-2 -1 -2 -6q7 -2 11 1.5 t7 4.5q21 13 42.5 23.5t44.5 15.5q8 3 19 5t19 4q21 0 37 -12.5t16 -35.5v-13q-6 -18 -16.5 -23.5t-23.5 -11.5q-29 -16 -59 -20.5t-63 -2.5q-24 2 -43 -17q-8 -10 -14.5 -20.5t-14.5 -22.5q21 -13 48 -9q12 3 24.5 3.5t25.5 3.5q13 0 24 -11q5 -4 0 -12t-13 -14 q-14 -3 -25.5 -11.5t-23.5 -17.5l-30 -19q-12 -8 -23 -15.5t-21 -18.5l-9 -12q-20 -14 -29.5 -34t-15.5 -43v-8q-2 -5 1 -11v-5.5t2 -4.5q0 -5 5 -10q9 -13 22 -16.5t30 0.5q9 3 19.5 5.5t20.5 7.5q13 5 22.5 8t20.5 8q19 8 36 14.5t34 16.5q14 7 29.5 14t32.5 15l83 39 q28 12 55 22.5t56 21.5q32 11 65.5 19.5t67.5 20.5q9 3 19.5 4t20.5 2q29 4 57 9.5t57 5.5q17 3 23 -10q-6 -14 -21 -11q-20 3 -38 -1.5t-36 -8.5q-22 -5 -40.5 -6t-37.5 -7q-24 -8 -49 -13.5t-49 -14.5q-28 -9 -56.5 -19.5t-56.5 -21.5q-7 -2 -12 -7q-20 -11 -41.5 -20.5 t-42.5 -21.5l-66 -34q-18 -9 -37.5 -17.5t-40.5 -16.5q-19 -9 -38 -16q-26 -10 -51.5 -13.5t-51.5 -7.5q-31 -4 -55 8q-27 11 -39.5 31.5t-16.5 47.5q-4 3 -4 14q-8 2 -10 -2t-5 -7q-8 -18 -20 -29t-23 -24t-25 -22.5t-29 -21.5q-3 -5 -11 -5q-35 -5 -62 5q-27 12 -46 41 q-8 11 -9.5 20.5t-1.5 22.5zM196 888h11q3 2 6 3.5t7 1.5q23 3 39.5 14.5t33.5 24.5q3 7 6 10l16 35q-6 0 -8.5 1t-3.5 1q-5 -2 -9 -4.5t-10 -3.5q-12 -10 -26.5 -19t-27.5 -18q-6 -3 -10 -10.5t-8 -14.5q-3 -3 -7 -6t-7 -8q-2 0 -2 -7zM318 777q7 6 13 12t13 10l5 5 q-3 3 -7 5.5t-7 5.5q-3 -9 -8 -18t-9 -20zM440 939q26 -7 48 -2q44 9 83 40q6 5 2 14q-8 13 -22 8q-7 -5 -9 -8q-25 -12 -40 -19q-8 -1 -22 -7q-19 -10 -40 -26z" />
<glyph unicode="&#xc7;" horiz-adv-x="735" d="M-65 655q2 13 2 24t3 23q3 22 10.5 40.5t17.5 35.5q12 25 30 46t38 42q18 20 37 39.5t40 34.5q18 13 36 24.5t35 23.5q20 15 47 12q7 -1 21 -1l12 -4t12 -7q5 -6 12 -10t13 -9q13 5 26.5 10.5t28.5 8.5q23 7 42 4.5t42 -7.5q11 -1 18 -14.5t2 -24.5q-3 -6 -6 -5t-5.5 5 t-4.5 7.5t-4 5.5q-6 13 -26 13q-13 4 -26 4t-25 -7q-4 -1 -7.5 -1t-7.5 -3q-20 -8 -29.5 -11.5t-15 -8.5t-8.5 -15t-11 -29q-3 -11 -8.5 -20t-10.5 -17q-6 -8 -12.5 -17t-14.5 -17q-5 -6 -12.5 -8t-15.5 -5q-6 0 -15 -1t-13 6q-4 4 -7.5 9.5t-3.5 16.5q5 14 14 28.5t22 24.5 q14 13 28.5 26t31.5 23q8 3 6.5 10.5t-9.5 10.5q-11 5 -21 1q-4 -1 -8 -1t-7 -3l-54 -36t-48 -46q-3 -4 -7 -9l-8 -10q-8 -9 -14 -19t-16 -19q-10 -11 -20.5 -26t-21.5 -30q-8 -23 -16.5 -44.5t-13.5 -45.5q0 -2 1 -3t1 -2q3 -13 2.5 -24.5t-0.5 -22.5q1 -23 10 -30t32 -2 q36 9 70 22q45 18 87 37.5t84 40.5q28 13 55 24.5t57 19.5l16 4q25 13 49 20.5t50 13.5q29 8 58 16.5t60 8.5q12 0 25 3t27 5q24 3 47.5 4.5t47.5 4.5q3 0 7 -1.5t6 -4.5q3 -6 -5 -8t-13 -5q-10 0 -22 -3q-23 -3 -45.5 -9t-47.5 -9q-14 -2 -28 -3.5t-27 -4.5q-23 -5 -46 -9 t-46 -12q-34 -10 -68 -23t-70 -26q-11 -3 -23 -9.5t-23 -11.5q-13 -6 -23.5 -11.5t-20.5 -10.5q-20 -9 -37.5 -19t-35.5 -20q-22 -13 -44 -24.5t-48 -19.5q-8 -2 -14 -4t-12 -5q-20 -7 -42 -10v-3q-3 -10 -3 -17l1 -3q10 -5 18 -5q11 -3 21 -8t18 -11q11 -7 15 -22 q0 -4 3 -8q1 -3 1 -11l-9 -29q-5 -20 -20 -27q-5 -8 -13 -10.5t-16 -5.5q-3 -2 -6.5 -2h-6.5q-8 2 -15.5 3.5t-15.5 2.5q-4 4 -7.5 5.5t-6.5 6.5l-10 21q-2 3 -2 11q3 13 11.5 22.5t21.5 12.5q9 5 23 -3q3 -3 6 -4.5t6 -4.5q2 0 2 -5q1 -5 -3 -5q-3 -1 -11 4q-13 3 -22 -2 q-8 -3 -10 -11.5t2 -16.5q10 -12 25 -15q5 0 6 3q8 4 16.5 9t16.5 13q3 6 3 8l4 21q2 9 -3 18q-6 11 -18 18q-11 7 -24 1q-1 -1 -8 -5q-10 -6 -19 -1q-10 3 -17 6q-8 6 -6 17l10 34h-5q-45 1 -68 48q-3 11 -6.5 21.5t-3.5 23.5zM198 852q-7 -9 3 -15h1q41 27 67 72q1 3 1 8 q0 3 -1 3h-2l-3 2l-12 -6q-6 -7 -12.5 -13t-14.5 -13q-8 -8 -14 -17.5t-13 -20.5z" />
<glyph unicode="&#xc8;" horiz-adv-x="774" d="M-81 645q4 23 11.5 39.5t22.5 33.5q20 21 39 40.5t42 37.5q2 0 6 5q-9 10 -22 16q-9 5 -14.5 11.5t-9.5 16.5q-11 26 4 50q16 25 41 47q4 4 9.5 9t11.5 8v10q-3 19 1.5 34t12.5 28q8 16 22 25.5t29 19.5q12 5 16 -5q6 -12 4.5 -18t-12.5 -14t-19.5 -18.5t-16.5 -23.5 q-1 -2 -1 -7q7 -2 11 1.5t8 5.5q48 31 95 42q8 3 18.5 4.5t18.5 4.5q23 0 41 -14.5t18 -36.5v-13q-7 -22 -18.5 -26.5t-25.5 -12.5q-32 -16 -63.5 -22t-65.5 -3q-15 2 -27 -4.5t-20 -14.5q-11 -11 -17.5 -22.5t-14.5 -22.5q12 -8 26 -10.5t27 -0.5q12 3 26 3.5t27 3.5 q13 0 28 -11q6 -6 0 -14q-9 -9 -15 -13q-16 -5 -29 -15t-26 -18l-30 -20q-13 -8 -25.5 -16.5t-22.5 -21.5l-11 -11q-23 -16 -33 -39t-17 -45v-9q-2 -19 18 -17q12 3 25.5 6t25.5 8q13 7 23.5 12.5t22.5 10.5q23 11 44.5 23.5t43.5 21.5q33 14 64.5 25.5t63.5 25.5 q31 11 62 17.5t60 14.5q18 5 34.5 9.5t35.5 7.5q58 15 116 20q27 3 55 6.5t55 6.5q23 3 44.5 4.5t42.5 -4.5q8 -3 9 -7t-15 -6q-23 -1 -39 -3t-38 -5q-28 -3 -55 -8t-54 -7q-16 0 -32.5 -2t-31.5 -6q-5 -1 -12 -1t-11 -2q-4 -3 -9.5 -3t-10.5 -1q-13 -4 -27.5 -6.5 t-28.5 -5.5q-28 -8 -58.5 -14.5t-58.5 -16.5q-28 -8 -53 -16.5t-51 -19.5q-12 -8 -25 -15t-26 -13q-13 -5 -25.5 -11t-25.5 -14q-19 -6 -40 -26q-18 -12 -35 -20.5t-34 -17.5q-15 -7 -27 -6t-25 6q-12 3 -20 7t-16 10q-14 13 -18 28t-3 30zM99 1191q3 3 3 4q5 11 16 14 q7 1 13 2.5l14 3.5q4 -3 7.5 -4t6.5 -4l22 -9q6 -4 11.5 -7.5t11.5 -4.5q6 -3 9 -7q8 -11 20 -12l6 -3q5 -7 11 -10.5t12 -6.5q7 -6 11 -16q5 -8 -1 -15q-5 -8 -14 -4q-4 0 -11 3q-8 3 -15.5 5.5l-16.5 5.5q-8 3 -15 6.5t-16 8.5l-13 5q-9 4 -19.5 8t-20.5 10q-6 3 -11 4.5 t-10 4.5q-3 0 -4 1t-3 1q-9 6 -4 16zM137 946q30 -6 54 -1q45 9 87 43q6 6 2 15q-8 15 -22 8q-4 -1 -7.5 -3t-4.5 -5q-10 -6 -20.5 -10.5t-21.5 -8.5l-23 -10q-16 -8 -44 -28z" />
<glyph unicode="&#xc9;" horiz-adv-x="774" d="M-81 645q4 23 11.5 39.5t22.5 33.5q20 21 39 40.5t42 37.5q2 0 6 5q-9 10 -22 16q-9 5 -14.5 11.5t-9.5 16.5q-11 26 4 50q16 25 41 47q4 4 9.5 9t11.5 8v10q-3 19 1.5 34t12.5 28q8 16 22 25.5t29 19.5q12 5 16 -5q6 -12 4.5 -18t-12.5 -14t-19.5 -18.5t-16.5 -23.5 q-1 -2 -1 -7q7 -2 11 1.5t8 5.5q48 31 95 42q8 3 18.5 4.5t18.5 4.5q23 0 41 -14.5t18 -36.5v-13q-7 -22 -18.5 -26.5t-25.5 -12.5q-32 -16 -63.5 -22t-65.5 -3q-15 2 -27 -4.5t-20 -14.5q-11 -11 -17.5 -22.5t-14.5 -22.5q12 -8 26 -10.5t27 -0.5q12 3 26 3.5t27 3.5 q13 0 28 -11q6 -6 0 -14q-9 -9 -15 -13q-16 -5 -29 -15t-26 -18l-30 -20q-13 -8 -25.5 -16.5t-22.5 -21.5l-11 -11q-23 -16 -33 -39t-17 -45v-9q-2 -19 18 -17q12 3 25.5 6t25.5 8q13 7 23.5 12.5t22.5 10.5q23 11 44.5 23.5t43.5 21.5q33 14 64.5 25.5t63.5 25.5 q31 11 62 17.5t60 14.5q18 5 34.5 9.5t35.5 7.5q58 15 116 20q27 3 55 6.5t55 6.5q23 3 44.5 4.5t42.5 -4.5q8 -3 9 -7t-15 -6q-23 -1 -39 -3t-38 -5q-28 -3 -55 -8t-54 -7q-16 0 -32.5 -2t-31.5 -6q-5 -1 -12 -1t-11 -2q-4 -3 -9.5 -3t-10.5 -1q-13 -4 -27.5 -6.5 t-28.5 -5.5q-28 -8 -58.5 -14.5t-58.5 -16.5q-28 -8 -53 -16.5t-51 -19.5q-12 -8 -25 -15t-26 -13q-13 -5 -25.5 -11t-25.5 -14q-19 -6 -40 -26q-18 -12 -35 -20.5t-34 -17.5q-15 -7 -27 -6t-25 6q-12 3 -20 7t-16 10q-14 13 -18 28t-3 30zM99 1131q4 10 12 16q5 3 12 6.5 t10 10.5l6 3q10 1 21 12q2 4 8 7q10 1 23 12l22 9q5 3 15 8l26 -6q11 -2 16 -14q0 -1 3 -4q5 -10 -4 -16q-2 0 -3 -1t-2 -1q-6 -3 -11.5 -4.5t-9.5 -4.5q-12 -5 -21.5 -10t-20.5 -8l-13 -5q-8 -5 -15.5 -8t-15.5 -7q-8 -3 -16 -5.5t-16 -5.5q-7 -3 -10 -3q-10 -4 -15 4 q-4 7 -1 15zM137 946q30 -6 54 -1q45 9 87 43q6 6 2 15q-8 15 -22 8q-4 -1 -7.5 -3t-4.5 -5q-10 -6 -20.5 -10.5t-21.5 -8.5l-23 -10q-16 -8 -44 -28z" />
<glyph unicode="&#xca;" horiz-adv-x="774" d="M-81 645q4 23 11.5 39.5t22.5 33.5q20 21 39 40.5t42 37.5q2 0 6 5q-9 10 -22 16q-9 5 -14.5 11.5t-9.5 16.5q-11 26 4 50q16 25 41 47q4 4 9.5 9t11.5 8v10q-3 19 1.5 34t12.5 28q8 16 22 25.5t29 19.5q12 5 16 -5q6 -12 4.5 -18t-12.5 -14t-19.5 -18.5t-16.5 -23.5 q-1 -2 -1 -7q7 -2 11 1.5t8 5.5q48 31 95 42q8 3 18.5 4.5t18.5 4.5q23 0 41 -14.5t18 -36.5v-13q-7 -22 -18.5 -26.5t-25.5 -12.5q-32 -16 -63.5 -22t-65.5 -3q-15 2 -27 -4.5t-20 -14.5q-11 -11 -17.5 -22.5t-14.5 -22.5q12 -8 26 -10.5t27 -0.5q12 3 26 3.5t27 3.5 q13 0 28 -11q6 -6 0 -14q-9 -9 -15 -13q-16 -5 -29 -15t-26 -18l-30 -20q-13 -8 -25.5 -16.5t-22.5 -21.5l-11 -11q-23 -16 -33 -39t-17 -45v-9q-2 -19 18 -17q12 3 25.5 6t25.5 8q13 7 23.5 12.5t22.5 10.5q23 11 44.5 23.5t43.5 21.5q33 14 64.5 25.5t63.5 25.5 q31 11 62 17.5t60 14.5q18 5 34.5 9.5t35.5 7.5q58 15 116 20q27 3 55 6.5t55 6.5q23 3 44.5 4.5t42.5 -4.5q8 -3 9 -7t-15 -6q-23 -1 -39 -3t-38 -5q-28 -3 -55 -8t-54 -7q-16 0 -32.5 -2t-31.5 -6q-5 -1 -12 -1t-11 -2q-4 -3 -9.5 -3t-10.5 -1q-13 -4 -27.5 -6.5 t-28.5 -5.5q-28 -8 -58.5 -14.5t-58.5 -16.5q-28 -8 -53 -16.5t-51 -19.5q-12 -8 -25 -15t-26 -13q-13 -5 -25.5 -11t-25.5 -14q-19 -6 -40 -26q-18 -12 -35 -20.5t-34 -17.5q-15 -7 -27 -6t-25 6q-12 3 -20 7t-16 10q-14 13 -18 28t-3 30zM99 1144q3 8 7.5 14.5t9.5 14.5 q10 13 19 27.5t17 31.5q4 8 9.5 13.5l11.5 11.5q5 5 13 3q23 -5 36 -22q3 -3 5.5 -7.5t3.5 -7.5q13 -20 23.5 -39.5t21.5 -39.5q-3 -10 -10 -11.5t-16 -2.5q-34 26 -57 64q-3 3 -3 4q-10 18 -22 1l-23 -34q-3 -4 -7 -10t-8 -11q-8 -11 -22 -11l-8 1q-4 4 -1 10zM137 946 q30 -6 54 -1q45 9 87 43q6 6 2 15q-8 15 -22 8q-4 -1 -7.5 -3t-4.5 -5q-10 -6 -20.5 -10.5t-21.5 -8.5l-23 -10q-16 -8 -44 -28z" />
<glyph unicode="&#xcb;" horiz-adv-x="774" d="M-81 645q4 23 11.5 39.5t22.5 33.5q20 21 39 40.5t42 37.5q2 0 6 5q-9 10 -22 16q-9 5 -14.5 11.5t-9.5 16.5q-11 26 4 50q16 25 41 47q4 4 9.5 9t11.5 8v10q-3 19 1.5 34t12.5 28q8 16 22 25.5t29 19.5q12 5 16 -5q6 -12 4.5 -18t-12.5 -14t-19.5 -18.5t-16.5 -23.5 q-1 -2 -1 -7q7 -2 11 1.5t8 5.5q48 31 95 42q8 3 18.5 4.5t18.5 4.5q23 0 41 -14.5t18 -36.5v-13q-7 -22 -18.5 -26.5t-25.5 -12.5q-32 -16 -63.5 -22t-65.5 -3q-15 2 -27 -4.5t-20 -14.5q-11 -11 -17.5 -22.5t-14.5 -22.5q12 -8 26 -10.5t27 -0.5q12 3 26 3.5t27 3.5 q13 0 28 -11q6 -6 0 -14q-9 -9 -15 -13q-16 -5 -29 -15t-26 -18l-30 -20q-13 -8 -25.5 -16.5t-22.5 -21.5l-11 -11q-23 -16 -33 -39t-17 -45v-9q-2 -19 18 -17q12 3 25.5 6t25.5 8q13 7 23.5 12.5t22.5 10.5q23 11 44.5 23.5t43.5 21.5q33 14 64.5 25.5t63.5 25.5 q31 11 62 17.5t60 14.5q18 5 34.5 9.5t35.5 7.5q58 15 116 20q27 3 55 6.5t55 6.5q23 3 44.5 4.5t42.5 -4.5q8 -3 9 -7t-15 -6q-23 -1 -39 -3t-38 -5q-28 -3 -55 -8t-54 -7q-16 0 -32.5 -2t-31.5 -6q-5 -1 -12 -1t-11 -2q-4 -3 -9.5 -3t-10.5 -1q-13 -4 -27.5 -6.5 t-28.5 -5.5q-28 -8 -58.5 -14.5t-58.5 -16.5q-28 -8 -53 -16.5t-51 -19.5q-12 -8 -25 -15t-26 -13q-13 -5 -25.5 -11t-25.5 -14q-19 -6 -40 -26q-18 -12 -35 -20.5t-34 -17.5q-15 -7 -27 -6t-25 6q-12 3 -20 7t-16 10q-14 13 -18 28t-3 30zM99 1168q3 8 6 14.5t10 11.5 q9 6 16 7q6 0 19 -3q8 -4 14 -12q3 -7 5 -14.5t1 -14.5q0 -15 -14 -24q-11 -10 -26 -6q-13 3 -28 19q-8 11 -3 22zM137 946q30 -6 54 -1q45 9 87 43q6 6 2 15q-8 15 -22 8q-4 -1 -7.5 -3t-4.5 -5q-10 -6 -20.5 -10.5t-21.5 -8.5l-23 -10q-16 -8 -44 -28zM196 1168 q3 8 6 14.5t10 11.5q9 6 16 7q8 0 18 -3q9 -4 15 -12q3 -7 5.5 -14.5t0.5 -14.5q0 -13 -15 -24q-11 -10 -25 -6q-13 3 -28 19q-9 12 -3 22z" />
<glyph unicode="&#xcc;" d="M-202 640q-8 16 0 38q3 6 12 12t15 6q11 -3 18 -20q0 -6 -2.5 -11.5t-7.5 -4.5q-4 0 -7.5 2.5t-6.5 4.5q-1 0 -5 -1.5t-4 -6.5q5 -8 9.5 -15.5t16.5 -12.5q4 -1 14 -1q23 -2 35.5 10t20.5 28q2 0 1 2.5t1 2.5l-13 11q-16 13 -23.5 32t0.5 36q3 8 7.5 14t10.5 7 q10 4 15.5 6t17.5 2q4 0 9.5 -4.5t9.5 -10.5q7 -10 13 -23t2 -31q-4 -3 -4.5 -6.5t7.5 -6.5h10.5t11.5 2q8 6 26 11q3 20 3 41.5t5 41.5q8 34 20 68t26 66q12 32 30 62.5t36 59.5q9 23 31.5 45t45.5 35q19 11 39.5 9.5t39.5 -12t32 -29t16 -38.5q5 -37 -9 -72t-37.5 -66.5 t-52 -58.5t-51.5 -50q-18 -18 -35 -33t-36 -29q-11 -8 -14 -9q-1 -23 -3.5 -40t-2.5 -35q0 -30 4.5 -57t17.5 -52q8 -16 21 -17q18 -3 32.5 -0.5t31.5 9.5q35 15 63 41q29 27 58 53.5t63 47.5q37 27 77.5 42t84.5 35q19 8 37 17t37 14q14 11 27 14q16 5 22 4t8 -4 q3 -8 -8 -12t-18 -7q-87 -37 -169.5 -73.5t-155.5 -97.5q-23 -20 -44.5 -41.5t-44.5 -39.5q-22 -16 -43 -25t-40 -13q-18 -1 -31.5 -1t-29.5 3q-60 18 -78 81q-5 19 -9 42.5t2 46.5q-32 -13 -66 -11q-10 -11 -17 -18t-20 -18t-28.5 -13.5t-33.5 -2.5q-9 0 -17 1 q-18 8 -26 24zM-111 715q9 -13 15 -14q5 -2 12.5 -3.5t10.5 -4.5q22 35 -1 62q-14 5 -22.5 -0.5t-13.5 -16.5q-6 -5 -1 -23zM106 793q1 -5 1 -12q21 5 30 17q19 18 36 36t32 37q36 40 59 85q8 16 14.5 35t14.5 34q11 33 -5 62q-3 8 -8 13t-10 8q-14 7 -27 -1 q-7 -7 -15 -14.5t-15 -11.5q-23 -18 -35.5 -39t-23.5 -47q-13 -29 -19.5 -60.5t-14.5 -63.5q-3 -19 -6.5 -36t-6.5 -34q-2 -3 -1 -8zM115 1272q3 3 3 5q5 11 16 12q7 2 13.5 3.5t14.5 3.5q3 -4 6 -4.5t7 -3.5l23 -10q6 -3 10.5 -6t11.5 -5q7 -3 10 -7q8 -11 19 -13 q6 -3 7 -3q5 -6 10.5 -9t11.5 -7q7 -7 12 -16q5 -8 -2 -14q-4 -8 -15 -6q-3 0 -9 3q-8 3 -16.5 6t-16.5 6q-7 3 -14.5 6.5t-15.5 7.5l-13 5q-9 5 -20 9.5t-21 8.5q-6 3 -11 5t-10 5q-3 0 -3.5 0.5t-2.5 0.5q-9 7 -5 17z" />
<glyph unicode="&#xcd;" d="M-202 640q-8 16 0 38q3 6 12 12t15 6q11 -3 18 -20q0 -6 -2.5 -11.5t-7.5 -4.5q-4 0 -7.5 2.5t-6.5 4.5q-1 0 -5 -1.5t-4 -6.5q5 -8 9.5 -15.5t16.5 -12.5q4 -1 14 -1q23 -2 35.5 10t20.5 28q2 0 1 2.5t1 2.5l-13 11q-16 13 -23.5 32t0.5 36q3 8 7.5 14t10.5 7 q10 4 15.5 6t17.5 2q4 0 9.5 -4.5t9.5 -10.5q7 -10 13 -23t2 -31q-4 -3 -4.5 -6.5t7.5 -6.5h10.5t11.5 2q8 6 26 11q3 20 3 41.5t5 41.5q8 34 20 68t26 66q12 32 30 62.5t36 59.5q9 23 31.5 45t45.5 35q19 11 39.5 9.5t39.5 -12t32 -29t16 -38.5q5 -37 -9 -72t-37.5 -66.5 t-52 -58.5t-51.5 -50q-18 -18 -35 -33t-36 -29q-11 -8 -14 -9q-1 -23 -3.5 -40t-2.5 -35q0 -30 4.5 -57t17.5 -52q8 -16 21 -17q18 -3 32.5 -0.5t31.5 9.5q35 15 63 41q29 27 58 53.5t63 47.5q37 27 77.5 42t84.5 35q19 8 37 17t37 14q14 11 27 14q16 5 22 4t8 -4 q3 -8 -8 -12t-18 -7q-87 -37 -169.5 -73.5t-155.5 -97.5q-23 -20 -44.5 -41.5t-44.5 -39.5q-22 -16 -43 -25t-40 -13q-18 -1 -31.5 -1t-29.5 3q-60 18 -78 81q-5 19 -9 42.5t2 46.5q-32 -13 -66 -11q-10 -11 -17 -18t-20 -18t-28.5 -13.5t-33.5 -2.5q-9 0 -17 1 q-18 8 -26 24zM-111 715q9 -13 15 -14q5 -2 12.5 -3.5t10.5 -4.5q22 35 -1 62q-14 5 -22.5 -0.5t-13.5 -16.5q-6 -5 -1 -23zM106 793q1 -5 1 -12q21 5 30 17q19 18 36 36t32 37q36 40 59 85q8 16 14.5 35t14.5 34q11 33 -5 62q-3 8 -8 13t-10 8q-14 7 -27 -1 q-7 -7 -15 -14.5t-15 -11.5q-23 -18 -35.5 -39t-23.5 -47q-13 -29 -19.5 -60.5t-14.5 -63.5q-3 -19 -6.5 -36t-6.5 -34q-2 -3 -1 -8zM131 1212q5 9 13 16q5 3 11.5 6.5t9.5 9.5l6 3q10 2 22 13q1 3 8 7q9 2 23 11l22 10q4 3 15 8l25 -7q11 -1 17 -12q0 -2 3 -5q4 -10 -5 -17 q-2 0 -2.5 -0.5t-2.5 -0.5q-6 -3 -11 -5t-10 -5q-11 -4 -21 -9.5t-21 -8.5l-13 -5q-7 -4 -14.5 -7.5t-15.5 -6.5t-16.5 -5.5t-16.5 -6.5q-6 -3 -10 -3q-10 -3 -14 6q-5 6 -2 14z" />
<glyph unicode="&#xce;" d="M-202 640q-8 16 0 38q3 6 12 12t15 6q11 -3 18 -20q0 -6 -2.5 -11.5t-7.5 -4.5q-4 0 -7.5 2.5t-6.5 4.5q-1 0 -5 -1.5t-4 -6.5q5 -8 9.5 -15.5t16.5 -12.5q4 -1 14 -1q23 -2 35.5 10t20.5 28q2 0 1 2.5t1 2.5l-13 11q-16 13 -23.5 32t0.5 36q3 8 7.5 14t10.5 7 q10 4 15.5 6t17.5 2q4 0 9.5 -4.5t9.5 -10.5q7 -10 13 -23t2 -31q-4 -3 -4.5 -6.5t7.5 -6.5h10.5t11.5 2q8 6 26 11q3 20 3 41.5t5 41.5q8 34 20 68t26 66q12 32 30 62.5t36 59.5q9 23 31.5 45t45.5 35q19 11 39.5 9.5t39.5 -12t32 -29t16 -38.5q5 -37 -9 -72t-37.5 -66.5 t-52 -58.5t-51.5 -50q-18 -18 -35 -33t-36 -29q-11 -8 -14 -9q-1 -23 -3.5 -40t-2.5 -35q0 -30 4.5 -57t17.5 -52q8 -16 21 -17q18 -3 32.5 -0.5t31.5 9.5q35 15 63 41q29 27 58 53.5t63 47.5q37 27 77.5 42t84.5 35q19 8 37 17t37 14q14 11 27 14q16 5 22 4t8 -4 q3 -8 -8 -12t-18 -7q-87 -37 -169.5 -73.5t-155.5 -97.5q-23 -20 -44.5 -41.5t-44.5 -39.5q-22 -16 -43 -25t-40 -13q-18 -1 -31.5 -1t-29.5 3q-60 18 -78 81q-5 19 -9 42.5t2 46.5q-32 -13 -66 -11q-10 -11 -17 -18t-20 -18t-28.5 -13.5t-33.5 -2.5q-9 0 -17 1 q-18 8 -26 24zM-111 715q9 -13 15 -14q5 -2 12.5 -3.5t10.5 -4.5q22 35 -1 62q-14 5 -22.5 -0.5t-13.5 -16.5q-6 -5 -1 -23zM106 793q1 -5 1 -12q21 5 30 17q19 18 36 36t32 37q36 40 59 85q8 16 14.5 35t14.5 34q11 33 -5 62q-3 8 -8 13t-10 8q-14 7 -27 -1 q-7 -7 -15 -14.5t-15 -11.5q-23 -18 -35.5 -39t-23.5 -47q-13 -29 -19.5 -60.5t-14.5 -63.5q-3 -19 -6.5 -36t-6.5 -34q-2 -3 -1 -8zM164 1192q3 8 7.5 14.5t9.5 14.5q9 13 18.5 27.5t16.5 31.5q4 8 9.5 14t12.5 12q5 5 12 3q23 -5 36 -23q3 -3 6 -7t4 -7q13 -20 23.5 -40 t21.5 -40q-3 -9 -10 -11t-16 -3q-34 26 -57 65l-4 3q-9 18 -21 1l-23 -34q-3 -4 -7 -9.5t-9 -11.5q-8 -11 -21 -11l-8 2q-5 3 -1 9z" />
<glyph unicode="&#xcf;" d="M-202 640q-8 16 0 38q3 6 12 12t15 6q11 -3 18 -20q0 -6 -2.5 -11.5t-7.5 -4.5q-4 0 -7.5 2.5t-6.5 4.5q-1 0 -5 -1.5t-4 -6.5q5 -8 9.5 -15.5t16.5 -12.5q4 -1 14 -1q23 -2 35.5 10t20.5 28q2 0 1 2.5t1 2.5l-13 11q-16 13 -23.5 32t0.5 36q3 8 7.5 14t10.5 7 q10 4 15.5 6t17.5 2q4 0 9.5 -4.5t9.5 -10.5q7 -10 13 -23t2 -31q-4 -3 -4.5 -6.5t7.5 -6.5h10.5t11.5 2q8 6 26 11q3 20 3 41.5t5 41.5q8 34 20 68t26 66q12 32 30 62.5t36 59.5q9 23 31.5 45t45.5 35q19 11 39.5 9.5t39.5 -12t32 -29t16 -38.5q5 -37 -9 -72t-37.5 -66.5 t-52 -58.5t-51.5 -50q-18 -18 -35 -33t-36 -29q-11 -8 -14 -9q-1 -23 -3.5 -40t-2.5 -35q0 -30 4.5 -57t17.5 -52q8 -16 21 -17q18 -3 32.5 -0.5t31.5 9.5q35 15 63 41q29 27 58 53.5t63 47.5q37 27 77.5 42t84.5 35q19 8 37 17t37 14q14 11 27 14q16 5 22 4t8 -4 q3 -8 -8 -12t-18 -7q-87 -37 -169.5 -73.5t-155.5 -97.5q-23 -20 -44.5 -41.5t-44.5 -39.5q-22 -16 -43 -25t-40 -13q-18 -1 -31.5 -1t-29.5 3q-60 18 -78 81q-5 19 -9 42.5t2 46.5q-32 -13 -66 -11q-10 -11 -17 -18t-20 -18t-28.5 -13.5t-33.5 -2.5q-9 0 -17 1 q-18 8 -26 24zM-111 715q9 -13 15 -14q5 -2 12.5 -3.5t10.5 -4.5q22 35 -1 62q-14 5 -22.5 -0.5t-13.5 -16.5q-6 -5 -1 -23zM106 793q1 -5 1 -12q21 5 30 17q19 18 36 36t32 37q36 40 59 85q8 16 14.5 35t14.5 34q11 33 -5 62q-3 8 -8 13t-10 8q-14 7 -27 -1 q-7 -7 -15 -14.5t-15 -11.5q-23 -18 -35.5 -39t-23.5 -47q-13 -29 -19.5 -60.5t-14.5 -63.5q-3 -19 -6.5 -36t-6.5 -34q-2 -3 -1 -8zM164 1233q3 8 6 14.5t9 10.5q10 7 17 8q6 0 19 -4q8 -4 13 -11q3 -7 5.5 -14.5t1.5 -15.5q0 -14 -15 -23q-11 -10 -26 -6q-12 3 -27 18 q-8 11 -3 23zM261 1233q3 8 6 14.5t9 10.5q10 7 17 8q8 0 17 -4q10 -4 15 -11q4 -7 6 -14.5t1 -15.5q0 -12 -15 -23q-11 -10 -25 -6q-13 3 -28 18q-10 13 -3 23z" />
<glyph unicode="&#xd0;" horiz-adv-x="928" d="M-109.5 916q-6.5 15 1.5 32q3 6 11 10.5t15 0.5q11 0 14 -17q2 -5 -1.5 -9t-9.5 -2q-3 0 -6 1.5t-6 2.5q-6 0 -6 -4q3 -8 6 -15.5t14 -10.5q3 -2 5 -2t6 -2q19 -3 32 6.5t25 23.5q1 1 1 6q-9 6 -13 11q-13 13 -18.5 28t2.5 35q5 16 19 18q6 2 13 2h14q15 0 20 -13 q5 -12 9 -23t-1 -24q-1 -3 -2 -7.5t2 -9.5h11t12 2q13 5 24.5 10t22.5 13q1 0 4 3q8 11 13.5 19.5t8.5 9.5q3 3 5.5 8t6.5 10h11t14 -4q6 0 7.5 -4.5t-2.5 -9.5l-26 -54q-8 -15 -14.5 -29t-14.5 -28q5 0 8 3l29 26q31 36 78 61l32 18q23 13 50 17q11 4 24.5 -1.5t17.5 -15.5 q4 -6 6 -15t-1 -17q-3 -13 -7.5 -28.5t-4.5 -30.5q-3 -8 -7 -12t-7 -12q-8 -8 -12 -18.5t-9 -23.5q-5 -8 -10.5 -18t-13.5 -16q-8 -11 -14.5 -22t-14.5 -18q-5 -5 -8 -15q2 0 5 -1.5t6 -1.5q31 7 61.5 8.5t63.5 -0.5q32 -1 65.5 1t65.5 2q28 0 56 1t55 2q34 4 67.5 2t68.5 2 q37 3 71 5t70 13q16 3 30.5 10t30.5 12q5 0 10.5 3t10.5 -3q2 -3 -3 -7t-8 -4q-11 -7 -24 -12.5t-26 -9.5q-8 -3 -17.5 -3.5t-17.5 -3.5q-33 -10 -67 -14l-68 -8q-35 -3 -69 -3h-70h-252q-36 0 -70 -4.5t-70 -12.5q-6 0 -18 -8q-18 -16 -32 -34t-36 -31q-11 -13 -26.5 -22 t-27.5 -17q-14 -12 -41 -18q-10 0 -17 -3t-15 -6q-12 0 -25 1.5t-25 1.5q-22 5 -22 24q0 15 -14 24q-6 3 -6 12q0 6 1.5 11t1.5 9q18 50 47 91q14 23 26 42h-17t-17 -1q-10 0 -20 9q0 2 -1 3.5t-1 5.5q0 3 2 3.5t2 2.5h2q12 0 25.5 1t25.5 1h13q8 12 15.5 24.5t15.5 24.5 q19 30 35 49q-31 -12 -62 -8q-10 -7 -18 -14t-16 -13q-13 -8 -28 -11t-31 -1q-9 0 -16 5q-14 8 -20.5 23zM-24 977q6 -12 16 -16q8 -6 17 -8q22 31 2 58q-11 3 -18 -1t-14 -11q-7 -8 -3 -22zM-14 631q11 -6 19.5 -1.5t20.5 8.5q5 0 9 1.5t8 4.5q20 14 40 30t39 35l6 11h-6 q-16 -3 -34 -5t-36 -3q-9 -7 -16 -7q-13 -4 -18 -9.5t-10 -16.5q0 -7 -4 -12t-7 -12q-8 -5 -9 -10.5t-2 -13.5zM36 727q7 -3 9 -2.5t5 0.5q23 5 43 8t44 8q23 5 38 21l92 107q5 8 9 13.5t8 14.5q5 6 9.5 14t9.5 14q11 16 17.5 33t14.5 35q5 16 -14 21q-5 0 -10 -3t-8 -3 q-5 -3 -9 -4.5t-10 -3.5q-40 -18 -79 -47q-23 -16 -37 -32t-34 -35q-8 -8 -16 -15t-13 -17q-3 -5 -5.5 -9t-5.5 -8q6 1 12.5 1t15.5 2q12 3 25 2l26 -2l6 -3q5 -13 -4 -17q-4 -3 -7.5 -3t-7.5 -2l-32 -4q-8 -2 -18 -2t-18 -2h-21q-1 -1 -1 -2.5t-2 -5.5q-3 -6 -4.5 -12.5 t-5.5 -9.5q-6 -13 -15 -27.5t-7 -22.5z" />
<glyph unicode="&#xd1;" horiz-adv-x="701" d="M-231 1013l6 9q3 3 12 -1q1 -2 6 -10q8 -21 25 -31l14 -17q-2 9 3.5 22.5t8.5 19.5q4 5 23 8h18t18 -5q3 -2 6 -9q5 -10 2.5 -25t-11.5 -20q-15 -18 -37 -17q0 -8 4.5 -13t7.5 -8q5 -7 11.5 -7.5t13.5 -0.5h19q8 0 19 8q13 8 25.5 16t22.5 18q8 4 12.5 10t12.5 11 q3 3 6 8.5t6 8.5q3 0 6 1.5t5 1.5q6 4 21 -1t18 -11q3 -10 0 -16l-18 -52q-12 -21 -13 -42q1 -6 -0.5 -10.5t-2.5 -9.5q0 -4 -1 -9t-2 -13q7 2 9.5 6.5t6.5 9.5q18 21 34 43t37 43q23 25 47 48t52 44q13 9 26.5 16.5t26.5 15.5q8 6 17 6t17 4q16 5 27.5 1.5t22.5 -11.5 q8 -5 13 -13.5t-3 -20.5q-14 -26 -27 -51.5t-30 -51.5q-18 -26 -34 -52t-29 -57q-11 -11 -18 -24.5t-18 -28.5q-12 -23 -19 -45q-1 -4 -1 -5.5t-2 -2.5q-9 -10 -12.5 -24.5t-8.5 -31.5q0 -4 -3 -11q-8 -21 -15.5 -41t-10.5 -42q-2 -4 -4.5 -10.5t-6.5 -9.5q-5 -13 0 -26 q11 3 16.5 7.5t13.5 12.5l98 75q27 22 54.5 42t58.5 36q12 8 23.5 16t24.5 15q40 18 80 36.5t82 31.5q32 9 64.5 21.5t69.5 16.5q5 2 12 2q5 0 6 -3q0 -8 -1 -8q-10 -7 -17 -8q-13 -3 -26.5 -8.5t-26.5 -8.5q-79 -18 -148 -48q-24 -11 -46 -22.5t-44 -20.5q-3 -1 -7 -6 q-23 -18 -48.5 -32t-47.5 -31q-20 -14 -39.5 -29t-37.5 -32q-20 -18 -42.5 -35t-42.5 -34q-3 -4 -9 -8t-9 -7q-23 -8 -43.5 -0.5t-29.5 32.5q-11 32 -6 62q14 79 53 153q30 58 63.5 116t70.5 111q11 15 22.5 32t21.5 34q2 3 3.5 5.5t1.5 3.5q-6 7 -12 0q-26 -15 -53.5 -30.5 t-48.5 -41.5q-6 -8 -15 -15t-19 -16q-43 -50 -84 -116q-11 -20 -23 -38.5t-25 -37.5l-42 -89q-10 -10 -15 -22q-8 -18 -33 -17.5t-39 13.5q-4 3 -6.5 9.5t-2.5 11.5q0 21 1 43.5t12 43.5q7 16 13 31.5t13 31.5t15 33.5t18 32.5q6 8 11.5 19t10.5 19q-5 9 -13 1 q-21 -8 -42 -8t-44 2q-3 0 -6 1.5t-10 4.5q-11 10 -17 19t-10 25q0 4 -7 9.5t-9 8.5q-5 4 -18 12q-10 7 -22 26q0 7 -6 17q-1 0 -1 5zM-141 957q0 2 9 5.5t10 3.5q5 3 9.5 8.5t1.5 12.5q-4 9 -11.5 9.5t-10.5 -8.5q-4 -8 -5 -15t-3 -16zM21 1157q11 18 27 34q5 6 18 13 q19 9 36 5q18 -5 29 -17l28 -19q21 -20 54 -16q8 1 15 8.5t5 15.5q-2 5 -3.5 9.5t-2.5 11.5q-2 5 2 10t9 5q3 0 7 0.5t7 -2.5q8 -6 14 -12t10 -16q13 -24 -4 -46q-10 -13 -23 -20.5t-36 -5.5q-12 1 -27.5 5t-29.5 16q-16 10 -38 25q-11 5 -21 3q-14 -5 -27 -18 q-7 -7 -12.5 -13.5t-14.5 -13.5q-1 -3 -5 -3t-7 2q-23 16 -10 39z" />
<glyph unicode="&#xd2;" horiz-adv-x="842" d="M-48 677.5q3 24.5 14 52.5q8 13 11 26t12 24q3 8 7 13.5t9 12.5l11 19q9 9 -2 16q-1 2 -1 7q-2 8 -3.5 16t-6.5 16q-6 11 -3 29q2 18 7.5 33t13.5 29q7 8 14 14t15 14q8 7 19.5 13t22.5 2q13 -1 28 -8q8 -4 10 -6q0 -5 -6 -10t-9 -2q-22 7 -31 -8q-8 -6 -13 -11.5 t-3 -14.5q0 -11 -11 -22q-8 -8 -10 -17.5t-4 -21.5q-1 -5 2 -11q3 -5 7.5 -6.5t7.5 2.5q14 19 32 30.5t34 26.5q7 7 11 10q16 8 30.5 17.5t31.5 17.5q8 7 15.5 8.5t15.5 4.5q16 3 28 -3q7 -5 16 -9.5t18 -8.5q6 -3 12 -7q21 -20 11 -48l-11 -19q-6 -12 3 -29q15 -18 5 -44 q-5 -8 -5 -19q-1 -33 -19 -67q-4 -7 -8 -15.5t-7 -16.5q-6 -16 -14.5 -29.5t-20.5 -27.5q0 -1 -1.5 -3.5t-3.5 -7.5q6 3 12.5 5.5t15.5 2.5q4 0 11 3q89 31 179 68q23 10 45.5 18t45.5 16t45.5 16.5t45.5 12.5q24 7 47.5 12t49.5 8l97 14q11 2 22.5 3.5t22.5 1.5h3 q11 -3 8 -14l-9 -3l-23 -5l-24 -5q-13 -3 -24.5 -3.5t-24.5 -3.5q-24 -3 -47.5 -7t-47.5 -10l-73 -20q-16 -3 -31.5 -9.5t-31.5 -12.5q-15 -7 -30 -12t-32 -11q-18 -8 -36 -15.5t-37 -15.5q-23 -8 -45.5 -19.5t-44.5 -17.5q-11 -3 -20.5 -8t-20.5 -9q-9 -3 -20 -7.5 t-22 -7.5q-1 -2 -8 -2q-11 -3 -20 -9t-20 -9h-1q-13 -16 -30 -22l-32 -18q-21 -12 -39 -7q-8 2 -15.5 1t-13.5 1q-6 0 -12 1.5t-12 3.5q-7 1 -13.5 2.5t-13.5 1.5q-14 0 -25 15q-8 13 -17.5 28.5t-9.5 33.5q-8 28 -5 52.5zM20 650q0 -18 3 -34t14 -31q13 -14 31 -14l20 5 q26 9 48 29q5 2 11 11q-5 7 -10.5 12t-10.5 11q-21 26 -26 55q-3 23 2 50q1 8 3.5 15.5t-0.5 17.5l-19 9q-13 -3 -18.5 -8t-9.5 -11q-9 -16 -14 -31.5t-13 -31.5q-5 -14 -8 -27t-3 -27zM99 1191q3 3 3 4q5 11 16 14q7 1 13 2.5l14 3.5q4 -3 7.5 -4t6.5 -4l22 -9 q6 -4 11.5 -7.5t11.5 -4.5q6 -3 9 -7q8 -11 20 -12l6 -3q5 -7 11 -10.5t12 -6.5q7 -6 11 -16q5 -8 -1 -15q-5 -8 -14 -4q-4 0 -11 3q-8 3 -15.5 5.5l-16.5 5.5q-8 3 -15 6.5t-16 8.5l-13 5q-9 4 -19.5 8t-20.5 10q-6 3 -11 4.5t-10 4.5q-3 0 -4 1t-3 1q-9 6 -4 16zM102 823 q-6 -9 6 -16q10 0 15 11q14 25 33 45t42 38q6 5 12 10.5t14 8.5q11 0 19.5 -3t20.5 -6q11 -6 17 6q3 5 5 11.5t6 14.5q-4 5 -9 10q-11 11 -16.5 12t-23.5 -8q-16 -7 -30 -16.5t-29 -21.5q-9 -7 -11 -11q-5 -8 -10.5 -13t-10.5 -10q-6 -7 -13.5 -13t-12.5 -15q-4 -6 -7.5 -11 t-8.5 -11q-7 -6 -8 -12zM156 712q-4 -16 1 -30t10 -27q1 -3 4.5 -5.5t6.5 -7.5q14 18 30 32.5t27 34.5q8 12 15.5 26t14.5 29q4 6 4 13q3 12 3.5 23.5t3.5 24.5q4 11 -6 18q-8 -8 -15.5 -14t-15.5 -14q-14 -9 -28.5 -18t-31.5 -19q-8 -3 -14 -17t-6 -22q-2 -7 -1 -13t-2 -14 zM193 829h8q15 4 26 14.5t22 22.5q1 1 1 5q0 6 -3 9q-1 2 -6 2q-31 -23 -48 -50v-3z" />
<glyph unicode="&#xd3;" horiz-adv-x="842" d="M-48 677.5q3 24.5 14 52.5q8 13 11 26t12 24q3 8 7 13.5t9 12.5l11 19q9 9 -2 16q-1 2 -1 7q-2 8 -3.5 16t-6.5 16q-6 11 -3 29q2 18 7.5 33t13.5 29q7 8 14 14t15 14q8 7 19.5 13t22.5 2q13 -1 28 -8q8 -4 10 -6q0 -5 -6 -10t-9 -2q-22 7 -31 -8q-8 -6 -13 -11.5 t-3 -14.5q0 -11 -11 -22q-8 -8 -10 -17.5t-4 -21.5q-1 -5 2 -11q3 -5 7.5 -6.5t7.5 2.5q14 19 32 30.5t34 26.5q7 7 11 10q16 8 30.5 17.5t31.5 17.5q8 7 15.5 8.5t15.5 4.5q16 3 28 -3q7 -5 16 -9.5t18 -8.5q6 -3 12 -7q21 -20 11 -48l-11 -19q-6 -12 3 -29q15 -18 5 -44 q-5 -8 -5 -19q-1 -33 -19 -67q-4 -7 -8 -15.5t-7 -16.5q-6 -16 -14.5 -29.5t-20.5 -27.5q0 -1 -1.5 -3.5t-3.5 -7.5q6 3 12.5 5.5t15.5 2.5q4 0 11 3q89 31 179 68q23 10 45.5 18t45.5 16t45.5 16.5t45.5 12.5q24 7 47.5 12t49.5 8l97 14q11 2 22.5 3.5t22.5 1.5h3 q11 -3 8 -14l-9 -3l-23 -5l-24 -5q-13 -3 -24.5 -3.5t-24.5 -3.5q-24 -3 -47.5 -7t-47.5 -10l-73 -20q-16 -3 -31.5 -9.5t-31.5 -12.5q-15 -7 -30 -12t-32 -11q-18 -8 -36 -15.5t-37 -15.5q-23 -8 -45.5 -19.5t-44.5 -17.5q-11 -3 -20.5 -8t-20.5 -9q-9 -3 -20 -7.5 t-22 -7.5q-1 -2 -8 -2q-11 -3 -20 -9t-20 -9h-1q-13 -16 -30 -22l-32 -18q-21 -12 -39 -7q-8 2 -15.5 1t-13.5 1q-6 0 -12 1.5t-12 3.5q-7 1 -13.5 2.5t-13.5 1.5q-14 0 -25 15q-8 13 -17.5 28.5t-9.5 33.5q-8 28 -5 52.5zM20 650q0 -18 3 -34t14 -31q13 -14 31 -14l20 5 q26 9 48 29q5 2 11 11q-5 7 -10.5 12t-10.5 11q-21 26 -26 55q-3 23 2 50q1 8 3.5 15.5t-0.5 17.5l-19 9q-13 -3 -18.5 -8t-9.5 -11q-9 -16 -14 -31.5t-13 -31.5q-5 -14 -8 -27t-3 -27zM99 1131q4 10 12 16q5 3 12 6.5t10 10.5l6 3q10 1 21 12q2 4 8 7q10 1 23 12l22 9 q5 3 15 8l26 -6q11 -2 16 -14q0 -1 3 -4q5 -10 -4 -16q-2 0 -3 -1t-2 -1q-6 -3 -11.5 -4.5t-9.5 -4.5q-12 -5 -21.5 -10t-20.5 -8l-13 -5q-8 -5 -15.5 -8t-15.5 -7q-8 -3 -16 -5.5t-16 -5.5q-7 -3 -10 -3q-10 -4 -15 4q-4 7 -1 15zM102 823q-6 -9 6 -16q10 0 15 11 q14 25 33 45t42 38q6 5 12 10.5t14 8.5q11 0 19.5 -3t20.5 -6q11 -6 17 6q3 5 5 11.5t6 14.5q-4 5 -9 10q-11 11 -16.5 12t-23.5 -8q-16 -7 -30 -16.5t-29 -21.5q-9 -7 -11 -11q-5 -8 -10.5 -13t-10.5 -10q-6 -7 -13.5 -13t-12.5 -15q-4 -6 -7.5 -11t-8.5 -11q-7 -6 -8 -12z M156 712q-4 -16 1 -30t10 -27q1 -3 4.5 -5.5t6.5 -7.5q14 18 30 32.5t27 34.5q8 12 15.5 26t14.5 29q4 6 4 13q3 12 3.5 23.5t3.5 24.5q4 11 -6 18q-8 -8 -15.5 -14t-15.5 -14q-14 -9 -28.5 -18t-31.5 -19q-8 -3 -14 -17t-6 -22q-2 -7 -1 -13t-2 -14zM193 829h8 q15 4 26 14.5t22 22.5q1 1 1 5q0 6 -3 9q-1 2 -6 2q-31 -23 -48 -50v-3z" />
<glyph unicode="&#xd4;" horiz-adv-x="842" d="M-48 677.5q3 24.5 14 52.5q8 13 11 26t12 24q3 8 7 13.5t9 12.5l11 19q9 9 -2 16q-1 2 -1 7q-2 8 -3.5 16t-6.5 16q-6 11 -3 29q2 18 7.5 33t13.5 29q7 8 14 14t15 14q8 7 19.5 13t22.5 2q13 -1 28 -8q8 -4 10 -6q0 -5 -6 -10t-9 -2q-22 7 -31 -8q-8 -6 -13 -11.5 t-3 -14.5q0 -11 -11 -22q-8 -8 -10 -17.5t-4 -21.5q-1 -5 2 -11q3 -5 7.5 -6.5t7.5 2.5q14 19 32 30.5t34 26.5q7 7 11 10q16 8 30.5 17.5t31.5 17.5q8 7 15.5 8.5t15.5 4.5q16 3 28 -3q7 -5 16 -9.5t18 -8.5q6 -3 12 -7q21 -20 11 -48l-11 -19q-6 -12 3 -29q15 -18 5 -44 q-5 -8 -5 -19q-1 -33 -19 -67q-4 -7 -8 -15.5t-7 -16.5q-6 -16 -14.5 -29.5t-20.5 -27.5q0 -1 -1.5 -3.5t-3.5 -7.5q6 3 12.5 5.5t15.5 2.5q4 0 11 3q89 31 179 68q23 10 45.5 18t45.5 16t45.5 16.5t45.5 12.5q24 7 47.5 12t49.5 8l97 14q11 2 22.5 3.5t22.5 1.5h3 q11 -3 8 -14l-9 -3l-23 -5l-24 -5q-13 -3 -24.5 -3.5t-24.5 -3.5q-24 -3 -47.5 -7t-47.5 -10l-73 -20q-16 -3 -31.5 -9.5t-31.5 -12.5q-15 -7 -30 -12t-32 -11q-18 -8 -36 -15.5t-37 -15.5q-23 -8 -45.5 -19.5t-44.5 -17.5q-11 -3 -20.5 -8t-20.5 -9q-9 -3 -20 -7.5 t-22 -7.5q-1 -2 -8 -2q-11 -3 -20 -9t-20 -9h-1q-13 -16 -30 -22l-32 -18q-21 -12 -39 -7q-8 2 -15.5 1t-13.5 1q-6 0 -12 1.5t-12 3.5q-7 1 -13.5 2.5t-13.5 1.5q-14 0 -25 15q-8 13 -17.5 28.5t-9.5 33.5q-8 28 -5 52.5zM20 650q0 -18 3 -34t14 -31q13 -14 31 -14l20 5 q26 9 48 29q5 2 11 11q-5 7 -10.5 12t-10.5 11q-21 26 -26 55q-3 23 2 50q1 8 3.5 15.5t-0.5 17.5l-19 9q-13 -3 -18.5 -8t-9.5 -11q-9 -16 -14 -31.5t-13 -31.5q-5 -14 -8 -27t-3 -27zM99 1112q3 7 7.5 14t9.5 15q10 12 19 27t17 31q4 8 9.5 13.5l11.5 11.5q5 5 13 4 q23 -5 36 -22q3 -4 5.5 -8t3.5 -7q13 -20 23.5 -40t21.5 -39q-3 -10 -10 -11.5t-16 -3.5q-34 26 -57 64q-3 3 -3 4q-10 18 -22 2l-23 -34q-3 -5 -7 -11t-8 -10q-8 -12 -22 -12l-8 2q-4 3 -1 10zM102 823q-6 -9 6 -16q10 0 15 11q14 25 33 45t42 38q6 5 12 10.5t14 8.5 q11 0 19.5 -3t20.5 -6q11 -6 17 6q3 5 5 11.5t6 14.5q-4 5 -9 10q-11 11 -16.5 12t-23.5 -8q-16 -7 -30 -16.5t-29 -21.5q-9 -7 -11 -11q-5 -8 -10.5 -13t-10.5 -10q-6 -7 -13.5 -13t-12.5 -15q-4 -6 -7.5 -11t-8.5 -11q-7 -6 -8 -12zM156 712q-4 -16 1 -30t10 -27 q1 -3 4.5 -5.5t6.5 -7.5q14 18 30 32.5t27 34.5q8 12 15.5 26t14.5 29q4 6 4 13q3 12 3.5 23.5t3.5 24.5q4 11 -6 18q-8 -8 -15.5 -14t-15.5 -14q-14 -9 -28.5 -18t-31.5 -19q-8 -3 -14 -17t-6 -22q-2 -7 -1 -13t-2 -14zM193 829h8q15 4 26 14.5t22 22.5q1 1 1 5q0 6 -3 9 q-1 2 -6 2q-31 -23 -48 -50v-3z" />
<glyph unicode="&#xd5;" horiz-adv-x="842" d="M-48 677.5q3 24.5 14 52.5q8 13 11 26t12 24q3 8 7 13.5t9 12.5l11 19q9 9 -2 16q-1 2 -1 7q-2 8 -3.5 16t-6.5 16q-6 11 -3 29q2 18 7.5 33t13.5 29q7 8 14 14t15 14q8 7 19.5 13t22.5 2q13 -1 28 -8q8 -4 10 -6q0 -5 -6 -10t-9 -2q-22 7 -31 -8q-8 -6 -13 -11.5 t-3 -14.5q0 -11 -11 -22q-8 -8 -10 -17.5t-4 -21.5q-1 -5 2 -11q3 -5 7.5 -6.5t7.5 2.5q14 19 32 30.5t34 26.5q7 7 11 10q16 8 30.5 17.5t31.5 17.5q8 7 15.5 8.5t15.5 4.5q16 3 28 -3q7 -5 16 -9.5t18 -8.5q6 -3 12 -7q21 -20 11 -48l-11 -19q-6 -12 3 -29q15 -18 5 -44 q-5 -8 -5 -19q-1 -33 -19 -67q-4 -7 -8 -15.5t-7 -16.5q-6 -16 -14.5 -29.5t-20.5 -27.5q0 -1 -1.5 -3.5t-3.5 -7.5q6 3 12.5 5.5t15.5 2.5q4 0 11 3q89 31 179 68q23 10 45.5 18t45.5 16t45.5 16.5t45.5 12.5q24 7 47.5 12t49.5 8l97 14q11 2 22.5 3.5t22.5 1.5h3 q11 -3 8 -14l-9 -3l-23 -5l-24 -5q-13 -3 -24.5 -3.5t-24.5 -3.5q-24 -3 -47.5 -7t-47.5 -10l-73 -20q-16 -3 -31.5 -9.5t-31.5 -12.5q-15 -7 -30 -12t-32 -11q-18 -8 -36 -15.5t-37 -15.5q-23 -8 -45.5 -19.5t-44.5 -17.5q-11 -3 -20.5 -8t-20.5 -9q-9 -3 -20 -7.5 t-22 -7.5q-1 -2 -8 -2q-11 -3 -20 -9t-20 -9h-1q-13 -16 -30 -22l-32 -18q-21 -12 -39 -7q-8 2 -15.5 1t-13.5 1q-6 0 -12 1.5t-12 3.5q-7 1 -13.5 2.5t-13.5 1.5q-14 0 -25 15q-8 13 -17.5 28.5t-9.5 33.5q-8 28 -5 52.5zM20 650q0 -18 3 -34t14 -31q13 -14 31 -14l20 5 q26 9 48 29q5 2 11 11q-5 7 -10.5 12t-10.5 11q-21 26 -26 55q-3 23 2 50q1 8 3.5 15.5t-0.5 17.5l-19 9q-13 -3 -18.5 -8t-9.5 -11q-9 -16 -14 -31.5t-13 -31.5q-5 -14 -8 -27t-3 -27zM54 1127q11 19 27 34q4 7 18 14q18 9 35 4q18 -4 30 -15l27 -20q22 -20 55 -17 q8 2 14.5 9.5t4.5 15.5q-1 5 -2.5 10t-3.5 11q-1 5 2.5 9.5t8.5 4.5q3 0 7 1t7 -2q8 -7 14 -12.5t11 -15.5q13 -24 -5 -46q-9 -13 -22 -20.5t-36 -6.5q-13 2 -28.5 6t-29.5 16q-16 9 -38 26q-11 5 -20 1q-15 -4 -28 -18q-6 -6 -12 -12.5t-14 -13.5q-2 -3 -6 -3t-7 2 q-23 15 -9 38zM102 823q-6 -9 6 -16q10 0 15 11q14 25 33 45t42 38q6 5 12 10.5t14 8.5q11 0 19.5 -3t20.5 -6q11 -6 17 6q3 5 5 11.5t6 14.5q-4 5 -9 10q-11 11 -16.5 12t-23.5 -8q-16 -7 -30 -16.5t-29 -21.5q-9 -7 -11 -11q-5 -8 -10.5 -13t-10.5 -10q-6 -7 -13.5 -13 t-12.5 -15q-4 -6 -7.5 -11t-8.5 -11q-7 -6 -8 -12zM156 712q-4 -16 1 -30t10 -27q1 -3 4.5 -5.5t6.5 -7.5q14 18 30 32.5t27 34.5q8 12 15.5 26t14.5 29q4 6 4 13q3 12 3.5 23.5t3.5 24.5q4 11 -6 18q-8 -8 -15.5 -14t-15.5 -14q-14 -9 -28.5 -18t-31.5 -19q-8 -3 -14 -17 t-6 -22q-2 -7 -1 -13t-2 -14zM193 829h8q15 4 26 14.5t22 22.5q1 1 1 5q0 6 -3 9q-1 2 -6 2q-31 -23 -48 -50v-3z" />
<glyph unicode="&#xd6;" horiz-adv-x="842" d="M-48 677.5q3 24.5 14 52.5q8 13 11 26t12 24q3 8 7 13.5t9 12.5l11 19q9 9 -2 16q-1 2 -1 7q-2 8 -3.5 16t-6.5 16q-6 11 -3 29q2 18 7.5 33t13.5 29q7 8 14 14t15 14q8 7 19.5 13t22.5 2q13 -1 28 -8q8 -4 10 -6q0 -5 -6 -10t-9 -2q-22 7 -31 -8q-8 -6 -13 -11.5 t-3 -14.5q0 -11 -11 -22q-8 -8 -10 -17.5t-4 -21.5q-1 -5 2 -11q3 -5 7.5 -6.5t7.5 2.5q14 19 32 30.5t34 26.5q7 7 11 10q16 8 30.5 17.5t31.5 17.5q8 7 15.5 8.5t15.5 4.5q16 3 28 -3q7 -5 16 -9.5t18 -8.5q6 -3 12 -7q21 -20 11 -48l-11 -19q-6 -12 3 -29q15 -18 5 -44 q-5 -8 -5 -19q-1 -33 -19 -67q-4 -7 -8 -15.5t-7 -16.5q-6 -16 -14.5 -29.5t-20.5 -27.5q0 -1 -1.5 -3.5t-3.5 -7.5q6 3 12.5 5.5t15.5 2.5q4 0 11 3q89 31 179 68q23 10 45.5 18t45.5 16t45.5 16.5t45.5 12.5q24 7 47.5 12t49.5 8l97 14q11 2 22.5 3.5t22.5 1.5h3 q11 -3 8 -14l-9 -3l-23 -5l-24 -5q-13 -3 -24.5 -3.5t-24.5 -3.5q-24 -3 -47.5 -7t-47.5 -10l-73 -20q-16 -3 -31.5 -9.5t-31.5 -12.5q-15 -7 -30 -12t-32 -11q-18 -8 -36 -15.5t-37 -15.5q-23 -8 -45.5 -19.5t-44.5 -17.5q-11 -3 -20.5 -8t-20.5 -9q-9 -3 -20 -7.5 t-22 -7.5q-1 -2 -8 -2q-11 -3 -20 -9t-20 -9h-1q-13 -16 -30 -22l-32 -18q-21 -12 -39 -7q-8 2 -15.5 1t-13.5 1q-6 0 -12 1.5t-12 3.5q-7 1 -13.5 2.5t-13.5 1.5q-14 0 -25 15q-8 13 -17.5 28.5t-9.5 33.5q-8 28 -5 52.5zM20 650q0 -18 3 -34t14 -31q13 -14 31 -14l20 5 q26 9 48 29q5 2 11 11q-5 7 -10.5 12t-10.5 11q-21 26 -26 55q-3 23 2 50q1 8 3.5 15.5t-0.5 17.5l-19 9q-13 -3 -18.5 -8t-9.5 -11q-9 -16 -14 -31.5t-13 -31.5q-5 -14 -8 -27t-3 -27zM102 823q-6 -9 6 -16q10 0 15 11q14 25 33 45t42 38q6 5 12 10.5t14 8.5q11 0 19.5 -3 t20.5 -6q11 -6 17 6q3 5 5 11.5t6 14.5q-4 5 -9 10q-11 11 -16.5 12t-23.5 -8q-16 -7 -30 -16.5t-29 -21.5q-9 -7 -11 -11q-5 -8 -10.5 -13t-10.5 -10q-6 -7 -13.5 -13t-12.5 -15q-4 -6 -7.5 -11t-8.5 -11q-7 -6 -8 -12zM115 1152q3 8 6.5 14.5t9.5 11.5q10 6 16 6t20 -3 q8 -3 12 -11q3 -6 6 -13.5t1 -15.5q0 -14 -15 -25q-11 -9 -26 -4q-12 3 -27 18q-7 11 -3 22zM156 712q-4 -16 1 -30t10 -27q1 -3 4.5 -5.5t6.5 -7.5q14 18 30 32.5t27 34.5q8 12 15.5 26t14.5 29q4 6 4 13q3 12 3.5 23.5t3.5 24.5q4 11 -6 18q-8 -8 -15.5 -14t-15.5 -14 q-14 -9 -28.5 -18t-31.5 -19q-8 -3 -14 -17t-6 -22q-2 -7 -1 -13t-2 -14zM193 829h8q15 4 26 14.5t22 22.5q1 1 1 5q0 6 -3 9q-1 2 -6 2q-31 -23 -48 -50v-3zM212 1152q3 8 6.5 14.5t9.5 11.5q10 6 16 6q8 0 18 -3t14 -11q4 -6 6 -13.5t1 -15.5q0 -13 -14 -25q-11 -9 -26 -4 q-13 3 -28 18q-10 12 -3 22z" />
<glyph unicode="&#xd7;" horiz-adv-x="214" d="M35 877q-1 5 7 11q8 8 16 0q5 -5 10.5 -9.5t12.5 -9.5l29 -26q9 9 18 20t21 19q6 3 16 4.5t16 -1.5l5 -3q8 -7 -3.5 -20t-15.5 -17q-7 -8 -13.5 -15.5t-14.5 -15.5q11 -10 21.5 -19t18.5 -20q3 -5 5 -15.5t-2 -18.5q-3 -5 -9 -5q-8 2 -17 9t-15 12l-31 27q-3 -3 -5 -6 q-2 0 -2 -1l-11 -10l-4 -5q-2 -6 -8.5 -12t-14.5 -9t-16.5 -2.5t-12.5 5.5q-5 10 1 17q5 6 9 11.5t9 10.5q7 8 13 15.5t14 15.5q-5 1 -6 6q-2 0 -2 2q-6 4 -11 11q-1 0 -1 2l-2 2q-6 1 -9.5 6t-7.5 8q-4 5 -4 13q-3 8 -4 13z" />
<glyph unicode="&#xd8;" horiz-adv-x="855" d="M-48 500q0 3 3 10q9 14 20 28.5t20 27.5q-8 13 -17 27.5t-9 32.5q-8 28 -4.5 53t14.5 53q8 12 11.5 25t11.5 24q3 8 7 14t9 12l11 20q10 10 -1 16q-2 2 -2 6q-2 8 -3.5 16.5t-6.5 16.5q-7 11 -3 29q1 18 7 33t14 28q6 8 13.5 14.5t15.5 13.5q8 8 19.5 13.5t22.5 2.5 q13 -2 28 -8q1 -2 4.5 -2.5t3.5 -3.5q1 -5 -4.5 -10t-10.5 -2q-21 6 -30 -8q-7 -6 -12 -11.5t-3 -14.5q0 -11 -11 -22q-8 -8 -10 -18t-3 -21q-2 -5 1 -12q4 -5 8 -6.5t7 3.5q12 18 30.5 30t33.5 27q7 6 12 9q18 8 32.5 18t30.5 18q8 6 15.5 7.5t15.5 5.5q15 4 27 -4l5 -3 q8 13 18 23.5t17 24.5q5 4 9.5 9t10.5 8q2 0 2.5 1t2.5 1h2q3 -4 3 -8q0 -14 -10 -26q-8 -11 -15.5 -22.5t-16.5 -21.5l6 -3t13 -8q21 -20 12 -47l-12 -19q-7 -13 4 -29q14 -19 4 -44q-4 -8 -4 -20q-2 -32 -20 -66q-5 -8 -8 -16t-7 -16q-6 -16 -14 -30t-22 -27 q0 -2 -1.5 -4.5t-2.5 -6.5q6 3 12.5 5.5t14.5 2.5q5 0 11 3q45 16 90 33t89 35q23 9 46 17.5t46 16.5l44 16t46 13l96 20q25 4 49 7.5t50 6.5q11 1 22.5 3t22.5 2h3q12 -4 9 -15q-2 -1 -11 -6l-1 -2q-7 -3 -21 -3q-6 -1 -12 -4t-12 -3q-13 -1 -25 -5t-26 -7 q-23 -7 -47 -12.5t-46 -10.5q-18 -4 -36.5 -7.5t-36.5 -8.5q-19 -3 -33 -9t-30 -12l-62 -23q-18 -7 -36.5 -14.5t-35.5 -15.5q-23 -8 -46.5 -15.5t-46.5 -14.5q-9 -3 -19 -9t-19 -9q-20 -9 -43 -14q-3 -2 -8 -2q-11 -3 -20 -7t-20 -8h-2q-9 -11 -29 -22l-34 -18 q-21 -11 -39 -6q-8 1 -14.5 0.5t-12.5 0.5q-7 0 -12.5 2t-12.5 3q-6 2 -12.5 3.5t-12.5 1.5h-9q-8 -13 -16.5 -24.5t-18.5 -23.5q-3 -4 -5.5 -6t-5.5 -5q-5 -5 -13 0q-3 3 -3 9zM32 637.5q0 -6.5 4 -14.5q6 11 12.5 21.5t14.5 22.5q13 21 25 40.5t25 38.5q2 8 4 15.5 t-1 16.5l-19 10q-11 -4 -17 -8.5t-9 -10.5q-9 -16 -15 -32t-13 -32q-11 -27 -11 -53v-14.5zM45 594l5 -7q9 -14 31 -14l18 4q12 4 24.5 12t23.5 18q5 1 12 11q-5 6 -11 11t-11 12q-21 26 -26 55q-12 -21 -26 -42t-28 -44q-3 -3 -6 -7t-6 -9zM113 825q-6 -10 7 -16 q10 0 14 11q30 47 76 83q3 3 14 9l19 30q3 3 5.5 7.5t5.5 7.5q-15 -7 -29.5 -16.5t-26.5 -20.5q-10 -6 -12 -11q-4 -8 -10 -13l-12 -10q-7 -6 -14.5 -12.5t-12.5 -14.5q-6 -10 -15 -22q-7 -7 -9 -12zM168 713q-4 -15 1.5 -29t9.5 -28q2 -3 5.5 -5t6.5 -7q14 18 29.5 32 t26.5 34q8 13 15.5 26.5t15.5 29.5q3 6 3 12q3 13 4.5 24.5t4.5 24.5q3 11 -7 18q-8 -8 -15 -14t-16 -14q-14 -10 -28.5 -19t-30.5 -18q-8 -3 -15 -17t-7 -22q-1 -8 -0.5 -14t-2.5 -14zM205 830h8q16 5 26.5 15.5t22.5 21.5q2 2 2 5q0 6 -3 10q-2 1 -7 1q-30 -23 -49 -50v-3 zM258 919q3 -2 7.5 -3.5l10.5 -3.5q12 -6 19 7q3 5 4.5 11.5t4.5 14.5q-3 5 -8 9l-8 9q-8 -11 -15.5 -21.5t-14.5 -22.5z" />
<glyph unicode="&#xd9;" horiz-adv-x="858" d="M-171 878q-8 15 0 33q3 8 10 12t16 2q11 -1 15 -16q2 -6 -2 -10t-9 -2q-3 0 -13 3q-2 1 -3.5 -0.5t-1.5 -4.5q3 -8 7.5 -14.5t14.5 -9.5q3 -2 11 -2q19 -3 32 7t23 25v5q-3 3 -6.5 5.5t-6.5 5.5q-12 13 -19 27.5t-2 34.5q6 18 19 20q6 3 13 3t13 1q14 0 21 -12t11 -23.5 t0 -24.5q-1 -3 -2 -7t4 -7h11t10 3q28 11 45 24q7 3 11 7.5t9 8.5q5 10 8 18.5t5 9.5q6 13 20 13.5t23 -8.5q3 -6 2 -10q-3 -6 -6.5 -11t-4.5 -12q-8 -18 -15.5 -37t-12.5 -40q-6 -23 -12.5 -45.5t-11.5 -45.5q-3 -9 -5.5 -19t-6.5 -19q-7 -23 -10.5 -47.5t-12.5 -48.5 q-3 -14 -3.5 -30.5t3.5 -34.5q8 3 9 6q14 13 26.5 27.5t23.5 29.5q6 10 12 17.5t12 15.5q7 8 13 17l12 18q20 30 41 58t38 58q11 19 21.5 33.5t17.5 31.5q0 2 3 8q12 13 19.5 28t17.5 29q5 6 9 12l8 12q4 7 7.5 10t11.5 0t16 -7t11 -12l-15 -52.5t-19 -49.5l-8 -18 q-3 -13 -7.5 -23.5t-7.5 -23.5q-2 -11 -7 -21t-9 -21q-6 -28 -16.5 -53.5t-16.5 -53.5q-4 -16 -4 -31.5t4 -30.5q0 -1 0.5 -1t0.5 -3q8 -2 12.5 1l10.5 7q23 12 44 22.5t41 24.5q30 18 59 33t61 29q33 12 63.5 23.5t63.5 21.5q23 7 46 10.5t45 10.5q42 9 85 14t86 8h12.5 t12.5 -2q7 0 7 -6t-5 -8q-10 -6 -17 -6q-10 -2 -20.5 -2.5t-20.5 -0.5q-11 -2 -21 -2h-20q-29 -3 -57 -9.5t-57 -14.5q-19 -3 -37.5 -7.5t-35.5 -11.5q-20 -7 -40 -12t-39 -15q-8 -6 -25 -11q-48 -20 -97 -50q-23 -14 -46 -28.5t-46 -26.5q-8 -7 -15.5 -11t-13.5 -11 q-7 -3 -11.5 -4.5t-9.5 -1.5q-9 0 -18.5 -1t-16.5 -1q-15 2 -25.5 8t-17.5 22q-13 32 -11 63q3 21 5.5 40.5t6.5 38.5q2 3 2 5.5t2 6.5q-6 -3 -7 -4q-6 -10 -12.5 -18.5t-10.5 -20.5q-15 -37 -43 -69q-6 -10 -8 -15q-8 -18 -18.5 -30.5t-23.5 -26.5q-24 -24 -55 -17 q-6 2 -19 2q-16 3 -23 14q-8 11 -10.5 23t-3.5 26q0 24 5.5 48.5t13.5 46.5q6 18 12 35.5t12 37.5q8 23 14.5 44.5t14.5 44.5q5 9 9 19t6 19v2q0 2 1 3q-37 -28 -82 -27l-32 -27q-13 -10 -27.5 -13.5t-29.5 -3.5q-5 0 -9 1t-9 2q-14 6 -22 21zM-89 946q3 -4 6.5 -8t9.5 -7 q13 -4 19 -7q20 32 -1 58q-22 6 -33 -14q-8 -10 -1 -22zM99 1191q3 3 3 4q5 11 16 14q7 1 13 2.5l14 3.5q4 -3 7.5 -4t6.5 -4l22 -9q6 -4 11.5 -7.5t11.5 -4.5q6 -3 9 -7q8 -11 20 -12l6 -3q5 -7 11 -10.5t12 -6.5q7 -6 11 -16q5 -8 -1 -15q-5 -8 -14 -4q-4 0 -11 3 q-8 3 -15.5 5.5l-16.5 5.5q-8 3 -15 6.5t-16 8.5l-13 5q-9 4 -19.5 8t-20.5 10q-6 3 -11 4.5t-10 4.5q-3 0 -4 1t-3 1q-9 6 -4 16z" />
<glyph unicode="&#xda;" horiz-adv-x="858" d="M-171 878q-8 15 0 33q3 8 10 12t16 2q11 -1 15 -16q2 -6 -2 -10t-9 -2q-3 0 -13 3q-2 1 -3.5 -0.5t-1.5 -4.5q3 -8 7.5 -14.5t14.5 -9.5q3 -2 11 -2q19 -3 32 7t23 25v5q-3 3 -6.5 5.5t-6.5 5.5q-12 13 -19 27.5t-2 34.5q6 18 19 20q6 3 13 3t13 1q14 0 21 -12t11 -23.5 t0 -24.5q-1 -3 -2 -7t4 -7h11t10 3q28 11 45 24q7 3 11 7.5t9 8.5q5 10 8 18.5t5 9.5q6 13 20 13.5t23 -8.5q3 -6 2 -10q-3 -6 -6.5 -11t-4.5 -12q-8 -18 -15.5 -37t-12.5 -40q-6 -23 -12.5 -45.5t-11.5 -45.5q-3 -9 -5.5 -19t-6.5 -19q-7 -23 -10.5 -47.5t-12.5 -48.5 q-3 -14 -3.5 -30.5t3.5 -34.5q8 3 9 6q14 13 26.5 27.5t23.5 29.5q6 10 12 17.5t12 15.5q7 8 13 17l12 18q20 30 41 58t38 58q11 19 21.5 33.5t17.5 31.5q0 2 3 8q12 13 19.5 28t17.5 29q5 6 9 12l8 12q4 7 7.5 10t11.5 0t16 -7t11 -12l-15 -52.5t-19 -49.5l-8 -18 q-3 -13 -7.5 -23.5t-7.5 -23.5q-2 -11 -7 -21t-9 -21q-6 -28 -16.5 -53.5t-16.5 -53.5q-4 -16 -4 -31.5t4 -30.5q0 -1 0.5 -1t0.5 -3q8 -2 12.5 1l10.5 7q23 12 44 22.5t41 24.5q30 18 59 33t61 29q33 12 63.5 23.5t63.5 21.5q23 7 46 10.5t45 10.5q42 9 85 14t86 8h12.5 t12.5 -2q7 0 7 -6t-5 -8q-10 -6 -17 -6q-10 -2 -20.5 -2.5t-20.5 -0.5q-11 -2 -21 -2h-20q-29 -3 -57 -9.5t-57 -14.5q-19 -3 -37.5 -7.5t-35.5 -11.5q-20 -7 -40 -12t-39 -15q-8 -6 -25 -11q-48 -20 -97 -50q-23 -14 -46 -28.5t-46 -26.5q-8 -7 -15.5 -11t-13.5 -11 q-7 -3 -11.5 -4.5t-9.5 -1.5q-9 0 -18.5 -1t-16.5 -1q-15 2 -25.5 8t-17.5 22q-13 32 -11 63q3 21 5.5 40.5t6.5 38.5q2 3 2 5.5t2 6.5q-6 -3 -7 -4q-6 -10 -12.5 -18.5t-10.5 -20.5q-15 -37 -43 -69q-6 -10 -8 -15q-8 -18 -18.5 -30.5t-23.5 -26.5q-24 -24 -55 -17 q-6 2 -19 2q-16 3 -23 14q-8 11 -10.5 23t-3.5 26q0 24 5.5 48.5t13.5 46.5q6 18 12 35.5t12 37.5q8 23 14.5 44.5t14.5 44.5q5 9 9 19t6 19v2q0 2 1 3q-37 -28 -82 -27l-32 -27q-13 -10 -27.5 -13.5t-29.5 -3.5q-5 0 -9 1t-9 2q-14 6 -22 21zM-89 946q3 -4 6.5 -8t9.5 -7 q13 -4 19 -7q20 32 -1 58q-22 6 -33 -14q-8 -10 -1 -22zM131 1131q5 10 13 16q5 3 11.5 6.5t9.5 10.5l6 3q10 1 22 12q1 4 8 7q9 1 23 12l22 9q4 3 15 8l25 -6q11 -2 17 -14q0 -1 3 -4q4 -10 -5 -16q-2 0 -2.5 -1t-2.5 -1q-6 -3 -11 -4.5t-10 -4.5q-11 -5 -21 -10t-21 -8 l-13 -5q-7 -5 -14.5 -8t-15.5 -7q-8 -3 -16.5 -5.5t-16.5 -5.5q-6 -3 -10 -3q-10 -4 -14 4q-5 7 -2 15z" />
<glyph unicode="&#xdb;" horiz-adv-x="858" d="M-171 878q-8 15 0 33q3 8 10 12t16 2q11 -1 15 -16q2 -6 -2 -10t-9 -2q-3 0 -13 3q-2 1 -3.5 -0.5t-1.5 -4.5q3 -8 7.5 -14.5t14.5 -9.5q3 -2 11 -2q19 -3 32 7t23 25v5q-3 3 -6.5 5.5t-6.5 5.5q-12 13 -19 27.5t-2 34.5q6 18 19 20q6 3 13 3t13 1q14 0 21 -12t11 -23.5 t0 -24.5q-1 -3 -2 -7t4 -7h11t10 3q28 11 45 24q7 3 11 7.5t9 8.5q5 10 8 18.5t5 9.5q6 13 20 13.5t23 -8.5q3 -6 2 -10q-3 -6 -6.5 -11t-4.5 -12q-8 -18 -15.5 -37t-12.5 -40q-6 -23 -12.5 -45.5t-11.5 -45.5q-3 -9 -5.5 -19t-6.5 -19q-7 -23 -10.5 -47.5t-12.5 -48.5 q-3 -14 -3.5 -30.5t3.5 -34.5q8 3 9 6q14 13 26.5 27.5t23.5 29.5q6 10 12 17.5t12 15.5q7 8 13 17l12 18q20 30 41 58t38 58q11 19 21.5 33.5t17.5 31.5q0 2 3 8q12 13 19.5 28t17.5 29q5 6 9 12l8 12q4 7 7.5 10t11.5 0t16 -7t11 -12l-15 -52.5t-19 -49.5l-8 -18 q-3 -13 -7.5 -23.5t-7.5 -23.5q-2 -11 -7 -21t-9 -21q-6 -28 -16.5 -53.5t-16.5 -53.5q-4 -16 -4 -31.5t4 -30.5q0 -1 0.5 -1t0.5 -3q8 -2 12.5 1l10.5 7q23 12 44 22.5t41 24.5q30 18 59 33t61 29q33 12 63.5 23.5t63.5 21.5q23 7 46 10.5t45 10.5q42 9 85 14t86 8h12.5 t12.5 -2q7 0 7 -6t-5 -8q-10 -6 -17 -6q-10 -2 -20.5 -2.5t-20.5 -0.5q-11 -2 -21 -2h-20q-29 -3 -57 -9.5t-57 -14.5q-19 -3 -37.5 -7.5t-35.5 -11.5q-20 -7 -40 -12t-39 -15q-8 -6 -25 -11q-48 -20 -97 -50q-23 -14 -46 -28.5t-46 -26.5q-8 -7 -15.5 -11t-13.5 -11 q-7 -3 -11.5 -4.5t-9.5 -1.5q-9 0 -18.5 -1t-16.5 -1q-15 2 -25.5 8t-17.5 22q-13 32 -11 63q3 21 5.5 40.5t6.5 38.5q2 3 2 5.5t2 6.5q-6 -3 -7 -4q-6 -10 -12.5 -18.5t-10.5 -20.5q-15 -37 -43 -69q-6 -10 -8 -15q-8 -18 -18.5 -30.5t-23.5 -26.5q-24 -24 -55 -17 q-6 2 -19 2q-16 3 -23 14q-8 11 -10.5 23t-3.5 26q0 24 5.5 48.5t13.5 46.5q6 18 12 35.5t12 37.5q8 23 14.5 44.5t14.5 44.5q5 9 9 19t6 19v2q0 2 1 3q-37 -28 -82 -27l-32 -27q-13 -10 -27.5 -13.5t-29.5 -3.5q-5 0 -9 1t-9 2q-14 6 -22 21zM-89 946q3 -4 6.5 -8t9.5 -7 q13 -4 19 -7q20 32 -1 58q-22 6 -33 -14q-8 -10 -1 -22zM115 1112q3 7 8 14t10 15q9 12 18 27t17 31q3 8 8.5 13.5t13.5 11.5q4 5 12 4q23 -5 36 -22q3 -4 5.5 -8t3.5 -7q13 -20 24 -40t22 -39q-3 -10 -10.5 -11.5t-15.5 -3.5q-34 26 -58 64q-4 3 -4 4q-9 18 -21 2l-22 -34 q-3 -5 -7.5 -11t-9.5 -10q-8 -12 -20 -12l-9 2q-5 3 -1 10z" />
<glyph unicode="&#xdc;" horiz-adv-x="858" d="M-171 878q-8 15 0 33q3 8 10 12t16 2q11 -1 15 -16q2 -6 -2 -10t-9 -2q-3 0 -13 3q-2 1 -3.5 -0.5t-1.5 -4.5q3 -8 7.5 -14.5t14.5 -9.5q3 -2 11 -2q19 -3 32 7t23 25v5q-3 3 -6.5 5.5t-6.5 5.5q-12 13 -19 27.5t-2 34.5q6 18 19 20q6 3 13 3t13 1q14 0 21 -12t11 -23.5 t0 -24.5q-1 -3 -2 -7t4 -7h11t10 3q28 11 45 24q7 3 11 7.5t9 8.5q5 10 8 18.5t5 9.5q6 13 20 13.5t23 -8.5q3 -6 2 -10q-3 -6 -6.5 -11t-4.5 -12q-8 -18 -15.5 -37t-12.5 -40q-6 -23 -12.5 -45.5t-11.5 -45.5q-3 -9 -5.5 -19t-6.5 -19q-7 -23 -10.5 -47.5t-12.5 -48.5 q-3 -14 -3.5 -30.5t3.5 -34.5q8 3 9 6q14 13 26.5 27.5t23.5 29.5q6 10 12 17.5t12 15.5q7 8 13 17l12 18q20 30 41 58t38 58q11 19 21.5 33.5t17.5 31.5q0 2 3 8q12 13 19.5 28t17.5 29q5 6 9 12l8 12q4 7 7.5 10t11.5 0t16 -7t11 -12l-15 -52.5t-19 -49.5l-8 -18 q-3 -13 -7.5 -23.5t-7.5 -23.5q-2 -11 -7 -21t-9 -21q-6 -28 -16.5 -53.5t-16.5 -53.5q-4 -16 -4 -31.5t4 -30.5q0 -1 0.5 -1t0.5 -3q8 -2 12.5 1l10.5 7q23 12 44 22.5t41 24.5q30 18 59 33t61 29q33 12 63.5 23.5t63.5 21.5q23 7 46 10.5t45 10.5q42 9 85 14t86 8h12.5 t12.5 -2q7 0 7 -6t-5 -8q-10 -6 -17 -6q-10 -2 -20.5 -2.5t-20.5 -0.5q-11 -2 -21 -2h-20q-29 -3 -57 -9.5t-57 -14.5q-19 -3 -37.5 -7.5t-35.5 -11.5q-20 -7 -40 -12t-39 -15q-8 -6 -25 -11q-48 -20 -97 -50q-23 -14 -46 -28.5t-46 -26.5q-8 -7 -15.5 -11t-13.5 -11 q-7 -3 -11.5 -4.5t-9.5 -1.5q-9 0 -18.5 -1t-16.5 -1q-15 2 -25.5 8t-17.5 22q-13 32 -11 63q3 21 5.5 40.5t6.5 38.5q2 3 2 5.5t2 6.5q-6 -3 -7 -4q-6 -10 -12.5 -18.5t-10.5 -20.5q-15 -37 -43 -69q-6 -10 -8 -15q-8 -18 -18.5 -30.5t-23.5 -26.5q-24 -24 -55 -17 q-6 2 -19 2q-16 3 -23 14q-8 11 -10.5 23t-3.5 26q0 24 5.5 48.5t13.5 46.5q6 18 12 35.5t12 37.5q8 23 14.5 44.5t14.5 44.5q5 9 9 19t6 19v2q0 2 1 3q-37 -28 -82 -27l-32 -27q-13 -10 -27.5 -13.5t-29.5 -3.5q-5 0 -9 1t-9 2q-14 6 -22 21zM-89 946q3 -4 6.5 -8t9.5 -7 q13 -4 19 -7q20 32 -1 58q-22 6 -33 -14q-8 -10 -1 -22zM115 1152q3 8 6.5 14.5t9.5 11.5q10 6 16 6t20 -3q8 -3 12 -11q3 -6 6 -13.5t1 -15.5q0 -14 -15 -25q-11 -9 -26 -4q-12 3 -27 18q-7 11 -3 22zM212 1152q3 8 6.5 14.5t9.5 11.5q10 6 16 6q8 0 18 -3t14 -11 q4 -6 6 -13.5t1 -15.5q0 -13 -14 -25q-11 -9 -26 -4q-13 3 -28 18q-10 12 -3 22z" />
<glyph unicode="&#xdd;" horiz-adv-x="805" d="M-142 876.5q-8 14.5 0 32.5q3 7 10 11t16 4q11 -2 16 -18q1 -5 -3 -9t-8 -4l-14 5q-5 0 -5 -5q4 -8 8 -14.5t14 -9.5q3 -2 5.5 -2t5.5 -1q20 -2 32.5 8.5t22.5 25.5v6q-9 6 -13 10q-13 12 -20 26.5t-1 34.5q6 18 18 20q7 3 13 3t14 2q14 0 22 -12q6 -11 10 -22.5t1 -24.5 q-2 -3 -3 -7t4 -9q5 2 11 1t10 3q13 6 24.5 11.5t21.5 13.5q3 1 7 7q8 11 15.5 22.5t15.5 14.5q11 6 25 2q16 -3 17 -15q0 -5 -5.5 -13t-8.5 -13l-18 -27q-7 -14 -13 -30t-14 -30q-8 -20 -15.5 -38t-15.5 -37q-5 -15 -7.5 -31t1.5 -33q0 -2 0.5 -2.5t0.5 -4.5q20 5 31 15 q5 3 11 6t13 6q5 3 10.5 7.5t12.5 9.5q9 8 17.5 18.5t19.5 18.5q12 9 23.5 22.5t22.5 25.5q41 45 90 94q3 5 5.5 8.5t5.5 9.5q3 10 7.5 15.5t8.5 14.5q4 3 6 7.5t5 7.5q4 7 10.5 7.5t12.5 -2.5q4 -3 4 -9q0 -4 -2 -7.5t-2 -7.5q-3 -11 -7 -22.5t-4 -24.5q0 -3 -2 -6t-2 -7 l-7 -28t-7 -32q-1 -11 -1 -22.5t-2 -22.5q-2 -8 -1 -16t-2 -16q-2 -10 -3.5 -19.5t-3.5 -21.5q-1 -11 -4 -21.5t-4 -22.5q-2 -3 -2 -8q13 4 27 4.5t27 2.5q5 1 13 1q22 8 45.5 14t48.5 14q18 6 36.5 12t35.5 11q23 8 46.5 14t46.5 13q21 5 42 8.5t42 6.5q25 3 49.5 8.5 t52.5 5.5q16 0 15 -9.5t-15 -9.5q-5 0 -10 -1t-10 -1q-9 -1 -17.5 -1t-16.5 -2q-37 -6 -75.5 -15t-76.5 -20q-32 -10 -65 -21.5t-68 -21.5q-31 -8 -59.5 -16.5t-59.5 -15.5q-14 -3 -29.5 -6.5t-30.5 -6.5q-2 -3 -2 -4.5t-1 -4.5q-3 -16 -8.5 -31t-13.5 -31q-19 -52 -48 -97 q-8 -10 -16 -17.5t-16 -15.5q-6 -7 -14.5 -12.5t-14.5 -11.5q-10 -8 -19 -12t-22 -5q-19 -4 -26.5 -3t-28.5 4q-3 3 -8 3h-8q-18 3 -27.5 14t-7.5 28q4 57 40 93q18 18 36 33.5t38 29.5q18 11 33 21t34 18q7 4 20.5 9t20.5 8q2 8 3 9t3 7q5 23 9 46.5t7 46.5q3 18 6 37t5 39 q0 8 7 21q0 6 3 13q-16 -8 -24 -22q-19 -23 -39 -45.5t-42 -42.5q-9 -14 -31 -32q-6 -7 -11 -11.5t-13 -10.5l-26 -18t-26 -17q-10 -7 -18 -4q-9 0 -20.5 2t-19.5 5q-8 5 -14.5 12.5t-8.5 18.5q-11 45 3 79q6 14 12 26.5t13 25.5q4 9 9 19t10 18q-28 -14 -60 -13 q-8 -8 -16 -14.5t-16 -14.5q-21 -16 -57 -17q-11 0 -16 4q-16 6 -24 20.5zM-60 945q6 -13 17 -16q7 -2 19 -7q18 35 -4 60q-18 3 -32 -16q-5 -11 0 -21zM66 477q8 -24 36 -23q18 2 42 14q11 8 21 18.5t19 18.5q18 29 35 61.5t22 64.5l3 22q-3 0 -14.5 -5.5t-25.5 -12.5 t-30.5 -17t-26.5 -16q-6 -6 -13 -10q-38 -22 -57 -60q-7 -12 -9.5 -25t-1.5 -30zM164 1131q4 10 12 16q5 3 11.5 6.5t10.5 10.5l6 3q9 1 21 12q2 4 8 7q10 1 23 12l22 9q5 3 15 8l25 -6q11 -2 17 -14q0 -1 3 -4q5 -10 -5 -16q-1 0 -2 -1t-2 -1q-7 -3 -12 -4.5t-10 -4.5 q-11 -5 -21 -10t-21 -8l-13 -5q-8 -5 -15 -8t-15 -7q-8 -3 -16 -5.5t-16 -5.5q-7 -3 -11 -3q-9 -4 -14 4q-5 7 -1 15z" />
<glyph unicode="&#xde;" horiz-adv-x="199" d="M-175 796q2 7 9 11.5t16 4.5q14 -3 16 -16q3 -4 -1 -9.5t-9 -5.5q-6 3 -13 3q-2 2 -3.5 0.5t-1.5 -3.5q3 -8 8 -15t15 -9q3 -2 11 -2q20 0 32 11t20 25q2 1 2 7l-15 9q-14 13 -21.5 27t-2.5 33q5 16 17 21q11 5 26 5q15 1 22 -10q8 -11 12.5 -21.5t1.5 -24.5q-5 -8 2 -15 q6 1 12 1t11 4q9 6 15 8q-1 3 -1 6.5t-3 6.5q0 1 -4 4q-3 8 -6 11q-6 6 -13 10.5t-13 9.5q-11 5 -2 15q12 11 22 7q12 -5 23 -12t19 -19l11 -15q6 1 11 1.5t10 2.5q21 3 40.5 0.5t38.5 -11.5q8 -1 18 -14q3 -3 5.5 -9t5.5 -11q2 -4 3.5 -9t-0.5 -10q-3 -12 -5 -26t-7 -27 q-7 -22 -18 -31l-8 -10q-8 -7 -15 -16.5t-15 -15.5q-7 -8 -17 -13t-18 -11q-8 -5 -18.5 -7.5t-20.5 -5.5l-13 -5q-2 -3 -2 -6.5t-1 -6.5q0 -20 -8 -31q-2 -2 -2 -5q-3 -14 -7.5 -26t-11.5 -25q-3 -6 -6.5 -12t-6.5 -13q-3 -4 -4 -8t-4 -7l-6 -6q-4 0 -7 9q-6 11 -7 21.5 t0 23.5q3 18 7.5 35.5t7.5 35.5q0 9 -10 9q-3 0 -5 -1q-9 -2 -24 7l-1 1q-2 4 -0.5 7t3.5 6t3.5 7t4.5 6q3 3 8.5 1.5t8.5 -1.5q22 0 31 23q3 12 7.5 23.5t9.5 24.5q6 18 7.5 38t4.5 38q0 4 -1 5q-23 -12 -50 -13q-8 -8 -16.5 -15t-15.5 -15q-11 -11 -25 -14.5t-31 -5.5 q-11 0 -16 3q-15 5 -24 19t-2 33zM-96 837q10 -13 19 -15q4 -4 19 -7q18 34 -7 59q-12 3 -19 -2.5t-12 -14.5q-4 -11 0 -20zM36 687q6 3 12 3t10 4q19 15 34 30t28 33q16 21 16 42q0 34 -34 33q-18 0 -45 -9q-3 0 -5 -1.5t-5 -3.5q-2 -18 -1 -33t-6 -30q-3 -12 0 -25t-1 -25 q0 -3 -1 -7t-2 -11z" />
<glyph unicode="&#xdf;" horiz-adv-x="355" d="M-292 675v18t2 19q0 3 2 5q1 6 8 19q10 16 26 21q4 1 10 -2t8 -8q1 -3 -0.5 -7.5t-4.5 -7.5q-2 -2 -8 -5q-9 -7 -13 -23q3 -10 3.5 -20.5t6.5 -19.5q3 -5 4.5 -9.5t3.5 -7.5q11 -24 39 -37q18 -8 23.5 -5t3.5 26q0 10 2 16v9q3 8 5.5 15t5.5 13q5 11 15 20q6 6 13 6 q14 5 30 0q4 0 7 -3q6 -8 12 -15.5t9 -15.5q9 -35 -3 -65q-8 -14 -18 -20l-15 -10q-1 -2 -1 -7q8 -19 24 -19q11 0 21 -5q13 -3 32 1q13 2 21 17q8 8 12 21q1 6 2.5 12.5t5.5 13.5q3 3 3 7t1 8q3 12 3 24.5t4 24.5q3 11 5 21t0 21q-1 7 0.5 12.5t1.5 12.5q1 6 2 11t1 10 q-2 8 -0.5 15t1.5 16q4 16 6 31.5t7 29.5q5 18 10 33.5t8 32.5q0 5 5 14q3 3 10 12q1 3 2.5 5.5t4.5 6.5l-3 -2l5 19q2 5 9 15q6 7 11.5 13t13.5 14q5 0 15 3q18 5 39 -3q12 -4 25 -7.5t26 -9.5q13 -5 23.5 -11.5t22.5 -11.5q6 -3 8 -6q8 -10 17.5 -20.5t14.5 -23.5l6 -16 q10 -16 5 -39q-3 -16 -7.5 -30t-17.5 -27l-7 -11q-5 -11 -11.5 -21t-17.5 -18l-5 -6q-5 -5 0 -9q5 -8 10 -14t11 -11q11 -8 20 -25q2 -6 6 -12q3 -11 6.5 -22t0.5 -22q0 -7 0.5 -11.5t-0.5 -11.5q-4 -14 -7 -28t-16 -27q-4 -3 -6 -7.5t-7 -8.5q-3 -5 -9 -8t-11 -7 q-9 -6 -16 -9q-11 -8 -22 -9t-25 3q-9 1 -18 3.5t-17 8.5q-8 7 -15.5 9t-13.5 9q-6 6 -7 13q2 13 2.5 23.5t4.5 21.5q5 23 30 18q8 -1 13 -7t4 -14q0 -8 -3 -18q0 -11 3 -16l4 -3q5 0 8 1q3 0 7.5 1.5t7.5 1.5q13 2 19.5 9.5t10.5 15.5q15 42 6 91q-3 11 -9 19.5t-12 17.5 l-5 3q-6 2 -13 6q-5 7 -10.5 11.5t-10.5 10.5q-3 3 -4 6t-4 6q-2 5 2 8q6 7 9 8q16 10 25 24t17 32q3 7 7.5 14t8.5 15q7 8 10 23t2 27q-4 14 -16 24q-13 13 -34 18q-16 6 -36 -5q-1 0 -1 -2q-5 -11 -7 -23t-2 -25q0 -5 1 -10.5t-1 -10.5q-3 -22 -2.5 -42.5t-2.5 -43.5 q-3 -27 -4 -54t-8 -54v-3q-4 -16 -9 -32t-13 -31q-8 -16 -16 -31t-21 -28q-3 -5 -8 -9.5t-8 -8.5q-14 -11 -30 -18t-33 -10q-8 -2 -14 -4t-14 -4q-22 -4 -41 -3q-8 0 -15 1.5t-15 5.5q-8 3 -16 8q-7 8 -14.5 13.5t-14.5 14.5q-8 13 -21 14q-13 3 -18 3q-36 5 -65 31 q-8 8 -13.5 15.5t-8.5 17.5l-10 22q-4 10 -4 15zM-147 619l3 -6q2 -3 6 -3t7 3l5 6l4 25q4 18 -6 31q0 3 -5 3q-1 0 -3 -2q-3 -11 -8 -21.5t-3 -23.5v-12z" />
<glyph unicode="&#xe0;" horiz-adv-x="821" d="M-82 699.5q-2 17.5 11 41.5q8 13 17 25t18 22q36 34 73 63q23 18 51 27q18 8 40 -3.5t24 -36.5v-8t4 -8q15 -15 1 -38q-12 -19 -17.5 -40t-6.5 -43q-2 -8 -1 -17t7 -17q11 -8 22.5 -10t24.5 -2q22 1 41 4t38 11q20 8 41 14t42 15l26 10q32 12 64.5 26t66.5 27 q86 30 175 45.5t177 12.5q16 0 16 -10.5t-16 -10.5q-29 0 -58.5 -0.5t-60.5 -5.5q-39 -6 -76 -16.5t-77 -19.5q-29 -8 -56 -16t-55 -21q-8 -5 -15.5 -7.5t-15.5 -5.5q-18 -8 -35.5 -15.5t-35.5 -15.5q-37 -20 -74 -35.5t-80 -25.5q-47 -11 -93 15q-3 3 -6.5 4.5t-7.5 3.5 q-35 19 -40 61q0 2 -0.5 3.5t-2.5 6.5q-10 -8 -17.5 -13.5t-14.5 -11.5q-13 -12 -33 -24q-12 -12 -32 -10l-14 5q-4 1 -7.5 3t-6.5 6q-23 18 -25 35.5zM-22 701.5q1 -5.5 6 -7.5q7 -1 14 6t11 10l64 49q4 3 11 13q6 9 12.5 19t14.5 20q4 4 7.5 10t4.5 11v3q0 6 -6.5 8 t-11.5 -2q-24 -15 -48 -42q-8 -7 -15.5 -14.5t-13.5 -15.5q-5 -5 -9.5 -12t-9.5 -11q-4 -7 -9.5 -11.5t-10.5 -11.5q-3 -3 -5 -6.5t-4 -6.5q-3 -3 -2 -8.5zM-14 1022l3 5q5 11 14 12q8 3 25 6q3 -3 6 -4l6 -2l22 -10q9 -8 19 -10q3 -1 8 -6q7 -7 19 -13q5 0 7 -1 q3 -7 9 -9.5t10 -5.5q5 -5 11 -15q4 -8 -1 -15q-3 -4 -13 -4q-3 1 -4.5 1t-4.5 2q-8 3 -15 5.5t-15 6.5q-7 3 -14 5t-15 7l-11 5q-9 3 -19 7t-19 10q-5 3 -9.5 3.5t-9.5 3.5q-1 0 -2 1t-4 1q-8 8 -3 14z" />
<glyph unicode="&#xe1;" horiz-adv-x="821" d="M-82 699.5q-2 17.5 11 41.5q8 13 17 25t18 22q36 34 73 63q23 18 51 27q18 8 40 -3.5t24 -36.5v-8t4 -8q15 -15 1 -38q-12 -19 -17.5 -40t-6.5 -43q-2 -8 -1 -17t7 -17q11 -8 22.5 -10t24.5 -2q22 1 41 4t38 11q20 8 41 14t42 15l26 10q32 12 64.5 26t66.5 27 q86 30 175 45.5t177 12.5q16 0 16 -10.5t-16 -10.5q-29 0 -58.5 -0.5t-60.5 -5.5q-39 -6 -76 -16.5t-77 -19.5q-29 -8 -56 -16t-55 -21q-8 -5 -15.5 -7.5t-15.5 -5.5q-18 -8 -35.5 -15.5t-35.5 -15.5q-37 -20 -74 -35.5t-80 -25.5q-47 -11 -93 15q-3 3 -6.5 4.5t-7.5 3.5 q-35 19 -40 61q0 2 -0.5 3.5t-2.5 6.5q-10 -8 -17.5 -13.5t-14.5 -11.5q-13 -12 -33 -24q-12 -12 -32 -10l-14 5q-4 1 -7.5 3t-6.5 6q-23 18 -25 35.5zM-22 701.5q1 -5.5 6 -7.5q7 -1 14 6t11 10l64 49q4 3 11 13q6 9 12.5 19t14.5 20q4 4 7.5 10t4.5 11v3q0 6 -6.5 8 t-11.5 -2q-24 -15 -48 -42q-8 -7 -15.5 -14.5t-13.5 -15.5q-5 -5 -9.5 -12t-9.5 -11q-4 -7 -9.5 -11.5t-10.5 -11.5q-3 -3 -5 -6.5t-4 -6.5q-3 -3 -2 -8.5zM2 969q6 10 11 15q4 3 10 5t9 10q2 1 7 1q12 6 18 13q3 1 4 3t4 3q11 2 21 10l21 10l13 6q16 -3 24 -6q8 0 15 -12 q0 -2 3 -5q5 -8 -5 -14q-1 0 -2 -1t-3 -1q-4 -3 -9.5 -3.5t-9.5 -3.5q-10 -5 -20 -9.5t-19 -7.5l-12 -5q-6 -5 -12.5 -7t-14.5 -5q-8 -4 -14.5 -6.5t-14.5 -5.5q-3 -2 -4.5 -2t-5.5 -1q-10 0 -13 4q-5 7 -1 15z" />
<glyph unicode="&#xe2;" horiz-adv-x="821" d="M-82 699.5q-2 17.5 11 41.5q8 13 17 25t18 22q36 34 73 63q23 18 51 27q18 8 40 -3.5t24 -36.5v-8t4 -8q15 -15 1 -38q-12 -19 -17.5 -40t-6.5 -43q-2 -8 -1 -17t7 -17q11 -8 22.5 -10t24.5 -2q22 1 41 4t38 11q20 8 41 14t42 15l26 10q32 12 64.5 26t66.5 27 q86 30 175 45.5t177 12.5q16 0 16 -10.5t-16 -10.5q-29 0 -58.5 -0.5t-60.5 -5.5q-39 -6 -76 -16.5t-77 -19.5q-29 -8 -56 -16t-55 -21q-8 -5 -15.5 -7.5t-15.5 -5.5q-18 -8 -35.5 -15.5t-35.5 -15.5q-37 -20 -74 -35.5t-80 -25.5q-47 -11 -93 15q-3 3 -6.5 4.5t-7.5 3.5 q-35 19 -40 61q0 2 -0.5 3.5t-2.5 6.5q-10 -8 -17.5 -13.5t-14.5 -11.5q-13 -12 -33 -24q-12 -12 -32 -10l-14 5q-4 1 -7.5 3t-6.5 6q-23 18 -25 35.5zM-22 701.5q1 -5.5 6 -7.5q7 -1 14 6t11 10l64 49q4 3 11 13q6 9 12.5 19t14.5 20q4 4 7.5 10t4.5 11v3q0 6 -6.5 8 t-11.5 -2q-24 -15 -48 -42q-8 -7 -15.5 -14.5t-13.5 -15.5q-5 -5 -9.5 -12t-9.5 -11q-4 -7 -9.5 -11.5t-10.5 -11.5q-3 -3 -5 -6.5t-4 -6.5q-3 -3 -2 -8.5zM2 968q-5 3 0 8q3 8 7 14.5t9 12.5q20 26 32 52q6 14 20 24q4 5 11 3q22 -6 34 -21q3 -3 5 -6.5t3 -6.5l42 -72 q-3 -8 -9.5 -9.5t-14.5 -3.5q-38 26 -53 59q-2 2 -2 3q-9 15 -21 2l-20 -30q-8 -13 -16 -21q-9 -10 -18 -10q-3 0 -4.5 1t-4.5 1z" />
<glyph unicode="&#xe3;" horiz-adv-x="824" d="M-82 699.5q-2 17.5 11 41.5q8 13 17 25t18 22q36 34 73 63q23 18 51 27q18 8 40 -3.5t24 -36.5v-8t4 -8q15 -15 1 -38q-12 -19 -17.5 -40t-6.5 -43q-2 -8 -1 -17t7 -17q11 -8 22.5 -10t24.5 -2q22 1 41 4t38 11q20 8 41 14t42 15l26 10q32 12 64.5 26t66.5 27 q86 30 175 45.5t177 12.5q16 0 16 -10.5t-16 -10.5q-29 0 -58.5 -0.5t-60.5 -5.5q-39 -6 -76 -16.5t-77 -19.5q-29 -8 -56 -16t-55 -21q-8 -5 -15.5 -7.5t-15.5 -5.5q-18 -8 -35.5 -15.5t-35.5 -15.5q-37 -20 -74 -35.5t-80 -25.5q-47 -11 -93 15q-3 3 -6.5 4.5t-7.5 3.5 q-35 19 -40 61q0 2 -0.5 3.5t-2.5 6.5q-10 -8 -17.5 -13.5t-14.5 -11.5q-13 -12 -33 -24q-12 -12 -32 -10l-14 5q-4 1 -7.5 3t-6.5 6q-23 18 -25 35.5zM-28 997q4 8 9.5 14.5t12.5 13.5q3 4 7 6.5t7 4.5q13 8 29 3q11 -2 25 -12l22 -17q9 -8 20.5 -10.5t25.5 -2.5 q6 2 10.5 7.5t3.5 11.5q0 5 -1.5 9t-3.5 9q-2 3 1.5 8t8.5 5h6.5t4.5 -2q7 -5 12.5 -10t8.5 -13q6 -11 3.5 -21t-8.5 -17q-8 -10 -19.5 -16.5t-28.5 -4.5q-10 2 -22 5t-25 11q-8 6 -14.5 11t-14.5 10q-8 6 -18 2q-13 -3 -23 -14q-5 -6 -10.5 -11t-9.5 -11q-4 -3 -12 0 q-19 14 -7 31zM-22 701.5q1 -5.5 6 -7.5q7 -1 14 6t11 10l64 49q4 3 11 13q6 9 12.5 19t14.5 20q4 4 7.5 10t4.5 11v3q0 6 -6.5 8t-11.5 -2q-24 -15 -48 -42q-8 -7 -15.5 -14.5t-13.5 -15.5q-5 -5 -9.5 -12t-9.5 -11q-4 -7 -9.5 -11.5t-10.5 -11.5q-3 -3 -5 -6.5t-4 -6.5 q-3 -3 -2 -8.5z" />
<glyph unicode="&#xe4;" horiz-adv-x="821" d="M-82 699.5q-2 17.5 11 41.5q8 13 17 25t18 22q36 34 73 63q23 18 51 27q18 8 40 -3.5t24 -36.5v-8t4 -8q15 -15 1 -38q-12 -19 -17.5 -40t-6.5 -43q-2 -8 -1 -17t7 -17q11 -8 22.5 -10t24.5 -2q22 1 41 4t38 11q20 8 41 14t42 15l26 10q32 12 64.5 26t66.5 27 q86 30 175 45.5t177 12.5q16 0 16 -10.5t-16 -10.5q-29 0 -58.5 -0.5t-60.5 -5.5q-39 -6 -76 -16.5t-77 -19.5q-29 -8 -56 -16t-55 -21q-8 -5 -15.5 -7.5t-15.5 -5.5q-18 -8 -35.5 -15.5t-35.5 -15.5q-37 -20 -74 -35.5t-80 -25.5q-47 -11 -93 15q-3 3 -6.5 4.5t-7.5 3.5 q-35 19 -40 61q0 2 -0.5 3.5t-2.5 6.5q-10 -8 -17.5 -13.5t-14.5 -11.5q-13 -12 -33 -24q-12 -12 -32 -10l-14 5q-4 1 -7.5 3t-6.5 6q-23 18 -25 35.5zM-22 701.5q1 -5.5 6 -7.5q7 -1 14 6t11 10l64 49q4 3 11 13q6 9 12.5 19t14.5 20q4 4 7.5 10t4.5 11v3q0 6 -6.5 8 t-11.5 -2q-24 -15 -48 -42q-8 -7 -15.5 -14.5t-13.5 -15.5q-5 -5 -9.5 -12t-9.5 -11q-4 -7 -9.5 -11.5t-10.5 -11.5q-3 -3 -5 -6.5t-4 -6.5q-3 -3 -2 -8.5zM18 1014q3 7 6.5 13t7.5 10q10 7 16 5q10 0 17 -2q9 -3 11 -9q8 -17 6 -28q0 -14 -12 -23q-10 -8 -23 -4 q-15 4 -26 17q-8 10 -3 21zM107 1014q3 7 5.5 13t9.5 10q9 7 14 5q11 0 16 -2q12 -3 13 -9q3 -8 5.5 -14t0.5 -14q0 -14 -12 -23q-13 -8 -25 -4t-24 17q-8 11 -3 21z" />
<glyph unicode="&#xe5;" horiz-adv-x="821" d="M-82 699.5q-2 17.5 11 41.5q8 13 17 25t18 22q36 34 73 63q23 18 51 27q18 8 40 -3.5t24 -36.5v-8t4 -8q15 -15 1 -38q-12 -19 -17.5 -40t-6.5 -43q-2 -8 -1 -17t7 -17q11 -8 22.5 -10t24.5 -2q22 1 41 4t38 11q20 8 41 14t42 15l26 10q32 12 64.5 26t66.5 27 q86 30 175 45.5t177 12.5q16 0 16 -10.5t-16 -10.5q-29 0 -58.5 -0.5t-60.5 -5.5q-39 -6 -76 -16.5t-77 -19.5q-29 -8 -56 -16t-55 -21q-8 -5 -15.5 -7.5t-15.5 -5.5q-18 -8 -35.5 -15.5t-35.5 -15.5q-37 -20 -74 -35.5t-80 -25.5q-47 -11 -93 15q-3 3 -6.5 4.5t-7.5 3.5 q-35 19 -40 61q0 2 -0.5 3.5t-2.5 6.5q-10 -8 -17.5 -13.5t-14.5 -11.5q-13 -12 -33 -24q-12 -12 -32 -10l-14 5q-4 1 -7.5 3t-6.5 6q-23 18 -25 35.5zM-22 701.5q1 -5.5 6 -7.5q7 -1 14 6t11 10l64 49q4 3 11 13q6 9 12.5 19t14.5 20q4 4 7.5 10t4.5 11v3q0 6 -6.5 8 t-11.5 -2q-24 -15 -48 -42q-8 -7 -15.5 -14.5t-13.5 -15.5q-5 -5 -9.5 -12t-9.5 -11q-4 -7 -9.5 -11.5t-10.5 -11.5q-3 -3 -5 -6.5t-4 -6.5q-3 -3 -2 -8.5zM32.5 1000q-1.5 5 1.5 10q6 18 18 26l3 1l5 3q3 2 4.5 2t3.5 2h3q10 1 16.5 -1.5t14.5 -5.5q9 -6 14 -12l2 -1 q8 -5 8 -16q2 -20 -10 -31q-9 -9 -14 -12l-3 -4q-5 -3 -15 -7h-3q-13 0 -31 14q-8 6 -13 16v1v3l-1 3q-2 4 -3.5 9zM57 995q0 -3 3 -7l2 -1l8 -5q3 -3 14 -3q1 0 2.5 0.5t2.5 0.5q2 0 2 2q1 0 3 2q5 4 8 11q1 2 -2 8v3l-1 2q0 3 -5 6q-6 7 -15 7h-2q-3 0 -3.5 -1t-2.5 -1 l-1 -1q-4 -4 -4.5 -5.5t-3.5 -2.5q-5 -5 -5 -15z" />
<glyph unicode="&#xe6;" horiz-adv-x="878" d="M-71 746q6 12 16 23.5t19 21.5q19 18 36.5 34t35.5 31q11 7 24 13t26 13q18 8 40.5 -3.5t23.5 -35.5v-9.5t4 -8.5q10 -8 9 -17.5t-7 -18.5q-13 -20 -18 -40.5t-7 -43.5q-1 -7 -0.5 -16.5t6.5 -16.5q23 -13 47 -10q37 0 72 11q-11 5 -18 14q-11 11 -18.5 21t-10.5 27 q-2 15 2 39t13 37q12 22 30.5 37.5t38.5 29.5q23 15 45.5 27t47.5 11q13 0 26.5 -6.5t16.5 -19.5q2 -15 -10 -33q-16 -26 -43 -43.5t-59 -20.5q-8 0 -21 -4q-8 -5 -13 -19.5t-8 -25.5q-3 -9 -4.5 -20t4.5 -20q6 -10 17.5 -13.5t24.5 -4.5q55 -3 107.5 11.5t104.5 29.5 q48 14 97 25.5t97 27.5q46 14 93 28.5t95 13.5q16 0 16 -10q0 -8 -16 -8q-42 -3 -82.5 -13.5t-81.5 -23.5l-63 -20q-50 -15 -100 -30.5t-101 -33.5q-32 -13 -66 -23.5t-71 -12.5q-20 0 -40 5q-22 -10 -43.5 -18t-46.5 -13q-49 -11 -93 13l-13 10q-36 20 -40 58q0 2 -1 3.5 t-3 6.5q-9 -7 -16.5 -12.5t-15.5 -10.5t-16.5 -11t-15.5 -13q-13 -12 -31 -10q-8 1 -21 9q-1 0 -2.5 1.5t-4.5 2.5q-40 30 -14 78zM-23 710q0 -3 1 -5.5t1 -5.5q9 2 16 6t13 8l63 49q5 4 11 13q11 16 21.5 31.5t19.5 31.5q-6 14 -20 7q-12 -8 -24.5 -19t-23.5 -22 q-12 -12 -24.5 -25t-21.5 -30q-11 -6 -18 -16t-14 -23zM306 812q1 0 12.5 2.5t14.5 2.5q22 6 44 26q3 5 9 11.5t9 14.5v6q-3 7 -10.5 7.5t-15.5 -2.5q-11 -5 -14 -11q-8 -8 -18 -15.5t-16 -18.5l-9 -6q-2 -3 -5.5 -9t-0.5 -8z" />
<glyph unicode="&#xe7;" horiz-adv-x="648" d="M-58 725q3 28 16.5 47t35.5 37q12 11 26 21.5t28 21.5l34 19q10 6 26 3q31 -5 29 -36q-3 -26 -12 -42q-3 -4 -11.5 -19t-14.5 -15h-2q-6 2 -9.5 7.5t0.5 10.5l17 32q3 10 3 15t-3 8q-5 2 -9 0q-10 -6 -15 -12q-20 -18 -36.5 -37t-30.5 -43q-16 -26 -17 -54 q-3 -13 1 -17.5t15 -11.5q14 -4 27 -4q63 4 124 15.5t122 33.5q73 28 146 62t153 45q23 3 46.5 4.5t46.5 3.5q3 0 7.5 -1.5t4.5 -6.5q4 -13 -12 -13h-23.5t-23.5 -1q-77 -8 -150 -35.5t-145 -57.5t-146 -54.5t-153 -25.5q-5 0 -9.5 0.5t-9.5 0.5v-5q0 -2 2 -2l12 -4 q8 -2 15.5 -6t14.5 -9q9 -4 12 -16q0 -3 2 -5q1 -5 0 -9q-3 -13 -6 -23q-4 -15 -15 -21q-4 -6 -10 -7.5t-13 -4.5q-3 -1 -9 -1q-13 0 -25 4q-7 4 -9 9q-3 5 -5 9t-4 7q-1 3 -1 9q3 23 24 26q11 4 18 -1q3 -2 5.5 -3.5t5.5 -2.5v-5q4 -3 -3 -3q-3 -2 -8 1q-8 3 -16 0 q-7 -3 -8.5 -9.5t3.5 -11.5q5 -11 18 -11h5q6 3 12.5 7t11.5 10l3 7q1 4 1.5 8.5t2.5 7.5q1 6 -4 14q-7 10 -11 14q-11 5 -19 1l-7 -4q-7 -5 -16 -2q-16 6 -11 17.5t9 22.5q-18 8 -32.5 23t-19.5 32q-6 21 -1 36z" />
<glyph unicode="&#xe8;" horiz-adv-x="633" d="M-39 732q-1 15 3 40.5t12 39.5q12 21 31 37.5t38 28.5q23 16 46.5 28.5t49.5 10.5q12 0 25 -7t16 -20q2 -13 -9 -31q-36 -57 -102 -64l-23 -6q-8 -5 -12.5 -22t-7.5 -24q-4 -11 -4.5 -22t4.5 -20q8 -10 19 -13.5t24 -4.5q55 -4 107.5 10t104.5 28q48 14 98 27.5t98 28.5 q46 14 92.5 29.5t95.5 13.5q16 0 16 -9q0 -7 -16 -10q-42 -2 -82.5 -12.5t-81.5 -22.5l-63 -20q-52 -16 -102 -32t-100 -35q-33 -11 -67 -22.5t-71 -12.5q-30 0 -58.5 9t-50.5 31q-12 13 -19.5 22t-10.5 26zM11 1022l3 5q5 11 15 12q8 3 25 6q3 -3 6 -4l6 -2l22 -10 q9 -8 19 -10q3 -1 8 -6q6 -7 19 -13q5 0 7 -1q3 -7 9 -9.5t10 -5.5q5 -5 11 -15q4 -8 -1 -15q-3 -4 -13 -4q-3 1 -5 1t-5 2q-8 3 -14.5 5.5t-14.5 6.5q-7 3 -14 5t-15 7l-12 5q-9 3 -19 7t-18 10q-4 3 -9 3.5t-10 3.5q-1 0 -2 1t-5 1q-8 8 -3 14zM58 814q2 -2 14 1t16 3 q21 7 43 27q3 4 8.5 11t9.5 13v8q-4 6 -11 6t-15 -3q-6 -2 -15 -9q-8 -8 -18.5 -15.5t-15.5 -18.5l-9 -8q-2 -3 -6 -8.5t-1 -6.5z" />
<glyph unicode="&#xe9;" horiz-adv-x="633" d="M-39 732q-1 15 3 40.5t12 39.5q12 21 31 37.5t38 28.5q23 16 46.5 28.5t49.5 10.5q12 0 25 -7t16 -20q2 -13 -9 -31q-36 -57 -102 -64l-23 -6q-8 -5 -12.5 -22t-7.5 -24q-4 -11 -4.5 -22t4.5 -20q8 -10 19 -13.5t24 -4.5q55 -4 107.5 10t104.5 28q48 14 98 27.5t98 28.5 q46 14 92.5 29.5t95.5 13.5q16 0 16 -9q0 -7 -16 -10q-42 -2 -82.5 -12.5t-81.5 -22.5l-63 -20q-52 -16 -102 -32t-100 -35q-33 -11 -67 -22.5t-71 -12.5q-30 0 -58.5 9t-50.5 31q-12 13 -19.5 22t-10.5 26zM11 969q6 10 12 15q5 3 10.5 5t8.5 10q1 1 6 1q13 6 18 13 q4 1 4.5 3t3.5 3q11 2 22 10l20 10l14 6q15 -3 24 -6q8 0 14 -12q0 -2 3 -5q5 -8 -4 -14q-2 0 -2.5 -1t-2.5 -1q-5 -3 -10 -3.5t-10 -3.5q-9 -5 -19 -9.5t-20 -7.5l-11 -5q-6 -5 -12.5 -7t-14.5 -5q-8 -4 -15 -6.5t-14 -5.5q-4 -2 -5.5 -2t-4.5 -1q-9 0 -13 4q-5 7 -2 15z M58 814q2 -2 14 1t16 3q21 7 43 27q3 4 8.5 11t9.5 13v8q-4 6 -11 6t-15 -3q-6 -2 -15 -9q-8 -8 -18.5 -15.5t-15.5 -18.5l-9 -8q-2 -3 -6 -8.5t-1 -6.5z" />
<glyph unicode="&#xea;" horiz-adv-x="633" d="M-39 732q-1 15 3 40.5t12 39.5q12 21 31 37.5t38 28.5q23 16 46.5 28.5t49.5 10.5q12 0 25 -7t16 -20q2 -13 -9 -31q-36 -57 -102 -64l-23 -6q-8 -5 -12.5 -22t-7.5 -24q-4 -11 -4.5 -22t4.5 -20q8 -10 19 -13.5t24 -4.5q55 -4 107.5 10t104.5 28q48 14 98 27.5t98 28.5 q46 14 92.5 29.5t95.5 13.5q16 0 16 -9q0 -7 -16 -10q-42 -2 -82.5 -12.5t-81.5 -22.5l-63 -20q-52 -16 -102 -32t-100 -35q-33 -11 -67 -22.5t-71 -12.5q-30 0 -58.5 9t-50.5 31q-12 13 -19.5 22t-10.5 26zM11 968q-5 3 0 8q3 8 7.5 14.5t9.5 12.5q19 26 32 52q6 14 19 24 q5 5 12 3q23 -6 34 -21q3 -3 4.5 -6.5t3.5 -6.5l42 -72q-4 -8 -10 -9.5t-15 -3.5q-37 26 -53 59q-1 2 -1 3q-10 15 -22 2l-19 -30q-8 -13 -16 -21q-10 -10 -18 -10q-3 0 -5 1t-5 1zM58 814q2 -2 14 1t16 3q21 7 43 27q3 4 8.5 11t9.5 13v8q-4 6 -11 6t-15 -3q-6 -2 -15 -9 q-8 -8 -18.5 -15.5t-15.5 -18.5l-9 -8q-2 -3 -6 -8.5t-1 -6.5z" />
<glyph unicode="&#xeb;" horiz-adv-x="633" d="M-39 732q-1 15 3 40.5t12 39.5q12 21 31 37.5t38 28.5q23 16 46.5 28.5t49.5 10.5q12 0 25 -7t16 -20q2 -13 -9 -31q-36 -57 -102 -64l-23 -6q-8 -5 -12.5 -22t-7.5 -24q-4 -11 -4.5 -22t4.5 -20q8 -10 19 -13.5t24 -4.5q55 -4 107.5 10t104.5 28q48 14 98 27.5t98 28.5 q46 14 92.5 29.5t95.5 13.5q16 0 16 -9q0 -7 -16 -10q-42 -2 -82.5 -12.5t-81.5 -22.5l-63 -20q-52 -16 -102 -32t-100 -35q-33 -11 -67 -22.5t-71 -12.5q-30 0 -58.5 9t-50.5 31q-12 13 -19.5 22t-10.5 26zM11 1014q3 7 6.5 13t8.5 10q10 7 16 5q9 0 16 -2q10 -3 12 -9 q7 -17 6 -28q0 -14 -13 -23q-9 -8 -23 -4t-26 17q-8 10 -3 21zM58 814q2 -2 14 1t16 3q21 7 43 27q3 4 8.5 11t9.5 13v8q-4 6 -11 6t-15 -3q-6 -2 -15 -9q-8 -8 -18.5 -15.5t-15.5 -18.5l-9 -8q-2 -3 -6 -8.5t-1 -6.5zM100 1014q3 7 5.5 13t9.5 10q9 7 15 5q11 0 15 -2 q11 -3 14 -9q3 -8 5.5 -14t0.5 -14q0 -14 -13 -23q-12 -8 -24 -4q-13 4 -25 17q-7 11 -3 21z" />
<glyph unicode="&#xec;" d="M-49 710q2 31 10 57q15 45 42 92q6 9 11 13q8 3 17 -1.5t16 -13.5q12 -21 12.5 -45t-7.5 -48q-5 -25 -11.5 -48t-3.5 -48q3 -18 13 -26q5 -3 12.5 -3h13.5q32 3 62 13t60 23q82 32 166 64.5t172 56.5q32 10 65 17t67 7h2q5 0 10.5 -2.5t3.5 -6.5q0 -7 -11 -7 q-116 -23 -229.5 -62.5t-223.5 -91.5q-32 -16 -65 -29t-71 -16q-13 -1 -22.5 -0.5t-19.5 2.5q-23 4 -44 16.5t-34 31.5q-15 24 -13 55zM-47 974l4 5q4 11 14 11q8 3 24 7q3 -3 6.5 -4.5t6.5 -2.5l21 -10q10 -8 19 -9l9 -6q6 -7 19 -14q5 0 6 -1q3 -7 9 -9t11 -6q5 -5 11 -15 q3 -8 -2 -14q-3 -5 -12 -5q-3 2 -5 2t-5 2q-8 3 -14.5 5t-14.5 6q-8 3 -14.5 5.5t-14.5 7.5l-11 5q-10 3 -19.5 7t-18.5 9q-5 3 -9.5 3.5t-9.5 3.5q-2 0 -2.5 1t-3.5 1q-8 8 -4 15z" />
<glyph unicode="&#xed;" horiz-adv-x="661" d="M-48 920q6 10 11 15q5 4 10.5 6t8.5 9q1 1 7 1q13 6 17 14q3 1 4 2.5t4 3.5q11 1 22 9l21 10l13 7q15 -3 24 -7q8 0 14 -11q0 -2 3 -5q5 -8 -4 -15q-2 0 -3 -1t-2 -1q-5 -3 -9.5 -3.5t-10.5 -3.5q-9 -5 -18.5 -9t-20.5 -7l-11 -5q-6 -5 -12.5 -7.5t-14.5 -5.5 q-8 -4 -14.5 -6t-14.5 -5q-4 -2 -5.5 -2t-4.5 -2q-9 0 -13 5q-4 6 -1 14zM-34.5 710q2.5 31 10.5 57q14 45 42 92q6 9 11 13q8 3 17 -1.5t16 -13.5q12 -21 12 -45t-8 -48q-4 -25 -11 -48t-3 -48q3 -18 13 -26q5 -3 12 -3h14q32 3 61.5 13t59.5 23q82 32 166.5 64.5 t171.5 56.5q32 10 65.5 17t67.5 7h1q5 0 11 -2.5t4 -6.5q0 -7 -12 -7q-116 -23 -229.5 -62.5t-222.5 -91.5q-33 -16 -66 -29t-70 -16q-13 -1 -23 -0.5t-19 2.5q-23 4 -44 16.5t-34 31.5q-16 24 -13.5 55z" />
<glyph unicode="&#xee;" d="M-49 710q2 31 10 57q15 45 42 92q6 9 11 13q8 3 17 -1.5t16 -13.5q12 -21 12.5 -45t-7.5 -48q-5 -25 -11.5 -48t-3.5 -48q3 -18 13 -26q5 -3 12.5 -3h13.5q32 3 62 13t60 23q82 32 166 64.5t172 56.5q32 10 65 17t67 7h2q5 0 10.5 -2.5t3.5 -6.5q0 -7 -11 -7 q-116 -23 -229.5 -62.5t-223.5 -91.5q-32 -16 -65 -29t-71 -16q-13 -1 -22.5 -0.5t-19.5 2.5q-23 4 -44 16.5t-34 31.5q-15 24 -13 55zM-47 919q-4 3 0 8q4 8 7.5 14.5t8.5 12.5q20 26 33 52q6 15 19 25q5 5 11 3q23 -6 34 -21q4 -3 5.5 -6.5t2.5 -6.5l42 -73q-3 -7 -9.5 -9 t-14.5 -4q-37 26 -53 60q-2 2 -2 3q-9 14 -21 2l-19 -31q-8 -13 -17 -21q-9 -9 -17 -10q-3 0 -4.5 1t-5.5 1z" />
<glyph unicode="&#xef;" d="M-49 710q2 31 10 57q15 45 42 92q6 9 11 13q8 3 17 -1.5t16 -13.5q12 -21 12.5 -45t-7.5 -48q-5 -25 -11.5 -48t-3.5 -48q3 -18 13 -26q5 -3 12.5 -3h13.5q32 3 62 13t60 23q82 32 166 64.5t172 56.5q32 10 65 17t67 7h2q5 0 10.5 -2.5t3.5 -6.5q0 -7 -11 -7 q-116 -23 -229.5 -62.5t-223.5 -91.5q-32 -16 -65 -29t-71 -16q-13 -1 -22.5 -0.5t-19.5 2.5q-23 4 -44 16.5t-34 31.5q-15 24 -13 55zM-47 966q4 6 7 12t8 10q9 7 16 5q10 0 16 -2q9 -3 11 -9q9 -17 7 -28q0 -14 -13 -22q-10 -8 -23 -5q-14 5 -25 18q-8 9 -4 21zM42 966 q3 6 5.5 12t9.5 10q9 7 14 5q11 0 17 -2q11 -3 12 -9q3 -8 5.5 -14t1.5 -14q0 -14 -13 -22t-24 -5q-13 5 -25 18q-8 11 -3 21z" />
<glyph unicode="&#xf0;" horiz-adv-x="339" d="M32 987q4 14 7 18.5t13 4.5q40 -2 76 -23q18 -10 40 -7q48 7 102 -8q6 -3 13 -7q3 -4 3 -12q-3 -7 -10 -3q-18 4 -33 5t-33 1q-3 0 -7 -1t-7 -1q-3 -8 1 -11t7 -6q6 -3 11 -10t9 -13t9.5 -10t9.5 -11q1 -3 1 -5t2 -5q3 -8 13 -20l19 -30q5 -3 5 -8q3 -3 3 -8 q5 -21 11.5 -40t8.5 -42q0 -23 -3.5 -44t-7.5 -44q-3 -11 -7 -22.5t-10 -20.5l-6 -8t-7 -9q-3 -3 -3 -8t-3 -8q-5 -9 -13 -15l-16 -12q-10 -7 -23 -10q-40 -5 -76 11q-23 10 -37 31q-5 8 -10 17l-10 18q-14 31 -11 70q8 79 55 136q8 8 13.5 16t12.5 16q14 20 37 20q1 0 9 3 q-5 13 -15.5 23t-20.5 17q-11 8 -22.5 18t-26.5 5q-3 -3 -5.5 -3.5t-5.5 -2.5q-5 -3 -10 -5t-8 -5q-3 -7 -6 -8q-5 -5 -13.5 -2.5t-4.5 10.5q3 9 3 15q0 1 5.5 4.5t12 6.5t11.5 7t4 5q-11 13 -27 16.5t-29 13.5zM122 664q1 -10 1 -20.5t3 -18.5q5 -13 11.5 -24.5t14.5 -24.5 t22 -13.5t24 8.5q3 3 6 6.5t6 6.5q8 14 16.5 28t14.5 29q16 31 11 68q-3 9 -4 19t-4 19q-3 11 -4.5 22t-12.5 19q-3 1 -3 5.5t-4 7.5q-7 20 -26 13q-6 -2 -13 -7q-14 -8 -23 -19t-17 -24q-13 -18 -13 -37l-6 -51v-12z" />
<glyph unicode="&#xf1;" horiz-adv-x="860" d="M-43 704q4 26 17 58q14 37 38 67t51 57l7 2q29 0 41 -25q-3 -8 -5.5 -17t-6.5 -17q-11 -22 -25 -41t-22 -42q0 -8 -2 -11q5 -3 8.5 -1t6.5 4q14 11 28.5 20t29.5 19l16 8t15 10q23 11 42 22.5t42 22.5q8 3 15.5 5.5t15.5 5.5q15 8 32 8h36q12 1 21 -10t11 -24 q2 -18 -4 -34t-14 -30q-8 -16 -13.5 -33.5t-13.5 -33.5q-3 -4 -2.5 -10t-0.5 -11q-5 -24 22 -26q5 0 10 1.5t11 1.5q31 5 58.5 16.5t54.5 23.5l34 17q23 11 44.5 23.5t44.5 21.5q36 13 71.5 26t72.5 23q37 8 75 12t78 7q12 2 13 -7.5t-12 -11.5q-11 0 -16 -2h-8 q-33 0 -63.5 -5t-61.5 -13q-37 -9 -71 -22t-70 -27q-34 -13 -67 -31t-67 -36q-13 -6 -24.5 -11t-23.5 -12q-13 -4 -27 -10.5t-28 -10.5q-31 -8 -67 2q-43 11 -54 58q-6 24 1 46.5t19 45.5q11 20 28 38l5 9q1 3 2.5 5t1.5 4q0 3 -5.5 3.5t-8.5 0.5q-5 0 -15 -3 q-35 -12 -63 -27q-18 -10 -34.5 -21.5t-35.5 -20.5q-23 -13 -40 -31t-35 -37q-8 -8 -15.5 -14t-14.5 -14q-16 -16 -40 -9q-5 2 -10.5 3t-10.5 5q-31 11 -22 40zM122 997q3 8 8.5 14.5t11.5 13.5q3 4 7.5 6.5t7.5 4.5q13 8 29 3q12 -2 24 -12l23 -17q10 -8 21 -10.5t24 -2.5 q6 2 11.5 7.5t3.5 11.5q0 5 -1.5 9t-3.5 9q-1 3 2 8t8 5h6t5 -2l12 -10t9 -13q7 -11 4.5 -21t-9.5 -17q-7 -10 -18.5 -16.5t-30.5 -4.5q-9 2 -21 5t-25 11q-8 6 -14.5 11t-14.5 10q-8 6 -19 2q-12 -3 -22 -14q-4 -6 -10 -11t-11 -11q-3 -3 -11 0q-18 14 -6 31z" />
</font>
</defs>
</svg>
