<?xml version="1.0" standalone="no"?>
<!DOCTYPE svg PUBLIC "-//W3C//DTD SVG 1.1//EN" "http://www.w3.org/Graphics/SVG/1.1/DTD/svg11.dtd" >
<svg xmlns="http://www.w3.org/2000/svg">
<metadata></metadata>
<defs>
<font id="lustriaregular" horiz-adv-x="1278" >
<font-face units-per-em="2048" ascent="1638" descent="-410" />
<missing-glyph horiz-adv-x="485" />
<glyph horiz-adv-x="2048" />
<glyph horiz-adv-x="2048" />
<glyph unicode="&#xd;" horiz-adv-x="701" />
<glyph unicode=" "  horiz-adv-x="485" />
<glyph unicode="&#x09;" horiz-adv-x="485" />
<glyph unicode="&#xa0;" horiz-adv-x="485" />
<glyph unicode="!" horiz-adv-x="554" d="M147 106q0 53 38.5 91.5t91 38.5t91.5 -37.5t39 -91.5t-39 -92.5t-91.5 -38.5t-91 38.5t-38.5 91.5zM171 1414q0 41 31.5 63.5t74.5 22.5t74 -23.5t31 -67.5l-68 -922q0 -23 -27 -22h-21q-26 0 -28 22q-12 188 -39.5 537t-27.5 390z" />
<glyph unicode="&#x22;" horiz-adv-x="710" d="M105 1475q0 26 24 25h141q24 0 24 -25l-36 -473q0 -26 -24 -26h-69q-24 0 -24 26zM418 1475q0 26 23 25h141q24 0 24 -25l-36 -473q0 -26 -24 -26h-69q-24 0 -24 26z" />
<glyph unicode="#" horiz-adv-x="1409" d="M107 418l18 65q6 26 26 26h197l99 451h-234q-10 0 -19 7t-7 18l18 66q6 25 27 24h243l88 400q5 26 29 25h79q25 0 21 -25l-88 -400h314l88 400q4 26 30 25h77q26 0 22 -25l-89 -400h234q24 0 24 -16q0 -4 -2 -8l-18 -66q-8 -26 -26 -25h-239l-99 -451h280q28 0 22 -26 l-18 -65q-8 -26 -27 -26h-283l-86 -390q-5 -26 -29 -26h-77q-10 0 -17.5 8t-5.5 18l86 390h-314l-86 -390q-5 -26 -29 -26h-76q-11 0 -18.5 8t-5.5 18l86 390h-189q-10 0 -19 8.5t-7 17.5zM477 509h314l99 451h-314z" />
<glyph unicode="$" horiz-adv-x="1204" d="M105 139v247q0 45 34 45q28 0 38 -41q53 -151 131 -230.5t236 -89.5v618q-97 46 -153.5 77.5t-124.5 86.5q-135 103 -135 265.5t114.5 263t298.5 117.5v160q0 26 24 25h56q24 0 24 -25v-160q145 -7 256 -50t111 -94v-213q0 -42 -30.5 -42t-46.5 42q-42 125 -105 189.5 t-185 74.5v-566q234 -114 308 -181q101 -90 122 -154.5t21 -121.5q0 -181 -125.5 -283.5t-325.5 -117.5v-209q0 -25 -24 -25h-56q-24 0 -24 25v204q-184 4 -311.5 55t-127.5 108zM302 1167.5q0 -92.5 62 -154t180 -123.5v513q-113 -15 -177.5 -79t-64.5 -156.5zM648 74 q115 15 193.5 84.5t78.5 174t-70.5 172t-201.5 132.5v-563z" />
<glyph unicode="%" horiz-adv-x="1803" d="M105 1056.5q0 183.5 85.5 302t235.5 118.5t235.5 -118.5t85.5 -302t-85.5 -301.5t-235.5 -118t-235.5 118t-85.5 301.5zM255 1056.5q0 -333.5 171 -333.5t171 333.5t-171 333.5t-171 -333.5zM424 -40q0 8 4 16l820 1524q13 25 38 25h75q16 0 16 -8.5t-4 -16.5l-820 -1524 q-12 -24 -38 -24h-74q-17 0 -17 8zM1057 420q0 184 85.5 301.5t235 117.5t235 -117.5t85.5 -301.5t-85.5 -302t-235 -118t-235 118t-85.5 302zM1206 420q0 -333 171 -333t171 333t-171 333t-171 -333z" />
<glyph unicode="&#x26;" horiz-adv-x="1507" d="M105 344.5q0 159.5 92 261t256 195.5q-122 207 -121.5 360t106.5 246t266.5 93t263.5 -81t103 -206q0 -76 -24 -115t-36.5 -60t-47.5 -48.5t-49 -40.5t-62.5 -40t-60.5 -36q-26 -16 -135 -72q135 -195 375 -428q51 103 87 273q4 16 5 31q0 48 -50 51l-73 4 q-26 0 -26 28.5t32 28.5l190 -4l179 6q30 0 30 -25t-24 -30l-42 -6q-53 -6 -81 -24t-38 -60q-53 -220 -115 -340q101 -95 190 -167q92 -80 148 -86l38 -5q26 -2 25.5 -29t-29.5 -27q-203 8 -247 8t-91 42q-84 74 -129 119q-158 -184 -424 -185q-205 0 -343 104.5t-138 264z M308 388q0 -130 85.5 -221t214.5 -91q205 0 330 152q-282 269 -429 485q-201 -137 -201 -325zM493 1217q0 -141 111 -333q145 82 209.5 134.5t87.5 99t23 115.5t-61.5 123.5t-155 54.5t-154 -54.5t-60.5 -139.5z" />
<glyph unicode="'" horiz-adv-x="398" d="M105 1475q0 26 24 25h141q24 0 24 -25l-36 -473q0 -26 -24 -26h-69q-24 0 -24 26z" />
<glyph unicode="(" horiz-adv-x="791" d="M116 584.5q0 202.5 52.5 381.5t139.5 306q169 249 365 348q12 4 19 4q36 0 36 -34q0 -16 -15 -29q-169 -141 -289 -355q-135 -243 -135 -622t135 -622q121 -213 289 -354q14 -13 15 -30q0 -34 -36 -33q-6 0 -19 4q-196 99 -365 348q-87 127 -139.5 306t-52.5 381.5z" />
<glyph unicode=")" horiz-adv-x="791" d="M63 -422q0 16 15 30q169 141 289 354q135 243 135 622.5t-135 621.5q-121 213 -289 355q-14 13 -15 29q0 34 36 34q6 0 19 -4q196 -99 365 -348q87 -127 139.5 -306t52.5 -381.5t-52.5 -381.5t-139.5 -306q-169 -249 -365 -348q-12 -4 -19 -4q-36 0 -36 33z" />
<glyph unicode="*" horiz-adv-x="1031" d="M105 1154q0 4 2 8l36 110q8 24 32 14l298 -137l-38 326q-2 10 5 17.5t17 7.5h117q10 0 17.5 -7.5t5.5 -17.5l-38 -326l297 137q24 13 32 -14l36 -110q2 -6 2 -10q0 -15 -19 -19l-321 -66l222 -240q18 -18 -5 -36l-92 -68q-9 -6 -17 -6t-17 13l-160 285l-161 -285 q-8 -14 -17.5 -14.5t-18.5 5.5l-92 68q-19 16 -4 36l223 242l-320 64q-21 6 -22 23z" />
<glyph unicode="+" horiz-adv-x="1421" d="M127 580v84q0 24 24 24h495v493q0 26 22 25h85q24 0 24 -25v-493h493q26 0 25 -24v-84q1 -23 -25 -23h-493v-494q0 -26 -24 -25h-85q-23 0 -22 25v494h-495q-25 0 -24 23z" />
<glyph unicode="," horiz-adv-x="518" d="M127 104.5q0 54.5 38 93t92.5 38.5t94.5 -44.5t40 -137t-63 -189.5t-135 -139q-17 -10 -29 -10q-38 0 -38 35q0 18 14 30q109 82 117 191q-63 4 -97 41t-34 91.5z" />
<glyph unicode="-" horiz-adv-x="769" d="M147 572v99q0 23 26 23h424q26 0 25 -23v-99q0 -24 -25 -24h-424q-26 0 -26 24z" />
<glyph unicode="." horiz-adv-x="511" d="M127 106q0 53 38 91.5t90.5 38.5t91.5 -37.5t39 -91.5t-39 -92.5t-91.5 -38.5t-90.5 38.5t-38 91.5z" />
<glyph unicode="/" horiz-adv-x="727" d="M65 -165l462 1759q4 26 30 26h85q25 0 20 -26l-461 -1759q-4 -25 -30 -25h-84q-26 0 -22 25z" />
<glyph unicode="0" horiz-adv-x="1307" d="M105 738q0 337 142.5 549.5t406.5 212.5t406 -212.5t142 -549.5t-142 -549.5t-406 -212.5t-406.5 212.5t-142.5 549.5zM304 738.5q0 -670.5 350 -670.5t350 670.5t-350 670.5t-350 -670.5z" />
<glyph unicode="1" horiz-adv-x="879" d="M105 1417.5q0 27.5 30 31.5l376 51q32 0 31 -23v-1334q0 -78 95 -86l112 -4q26 1 26 -29q0 -13 -10 -22.5t-20 -9.5l-292 8l-308 -8q-32 0 -31.5 30.5t27.5 30.5l112 4q43 4 76.5 25t33.5 61v1171q0 83 -87 83h-8l-139 -7q-24 0 -24 27.5z" />
<glyph unicode="2" horiz-adv-x="1093" d="M84 24v18q0 19 11 36q95 148 232.5 339t207 291t124 221.5t54.5 234t-64.5 183t-175 70.5t-173 -69.5t-89.5 -159.5q-10 -39 -44 -39q-15 0 -25.5 12t-10.5 27v166q0 47 109.5 96.5t248.5 49.5q194 0 307 -101t113 -262q0 -101 -50.5 -207.5t-117 -189t-208 -252.5 t-244.5 -309h521q72 0 90 33t38 33q32 0 28 -40l-10 -137q-2 -32 -19.5 -50t-38.5 -18h-789q-26 0 -25 24z" />
<glyph unicode="3" horiz-adv-x="994" d="M84 1190v167q0 46 102.5 94.5t257.5 48.5t268 -71.5t113 -213.5q0 -132 -125 -245q-90 -82 -229 -167q166 -12 282 -111.5t116 -239.5t-67.5 -235.5t-177.5 -148.5q-221 -109 -477 -110q-54 0 -54 44q0 14 15 28t39 16q230 19 374.5 112t144.5 270q0 135 -95.5 211 t-268.5 78q-65 0 -66 38q0 21 24 36q205 118 285.5 218t80.5 198.5t-54.5 154t-136 55.5t-132 -31.5t-72.5 -64t-53 -100t-60 -67.5q-14 0 -24 12.5t-10 23.5z" />
<glyph unicode="4" horiz-adv-x="1136" d="M21 433v26q0 21 11 36l704 973q24 32 55 32h40q28 0 38.5 -11.5t10.5 -39.5v-918h156q38 0 37 -34v-44q0 -44 -37 -44h-156v-365q0 -44 -45 -44h-88q-45 0 -45 44v365h-656q-25 0 -25 24zM205 541q0 -10 16 -10h481v725l-489 -691q-8 -14 -8 -24z" />
<glyph unicode="5" horiz-adv-x="992" d="M105 2q0 38 56 44q203 24 350 129t147 262.5t-124.5 249.5t-334.5 116q-28 2 -35 12t-3 35l71 603q4 24 26 24h554q10 0 16.5 -7.5t4.5 -16.5l-14 -130q-4 -25 -30 -25h-473l-40 -330q258 -38 414 -162t156 -321q0 -129 -66.5 -233.5t-171.5 -167.5q-214 -126 -447 -126 q-55 0 -56 44z" />
<glyph unicode="6" horiz-adv-x="1178" d="M127 524.5q0 262.5 185 546t498 429.5q2 2 19 2t35 -9.5t18 -35.5t-32 -46q-397 -238 -504 -641q112 101 280 101q216 0 331.5 -128.5t114.5 -312t-132.5 -319t-345.5 -135.5t-340.5 143t-126.5 405.5zM316 427q0 -161 77.5 -261.5t206 -100.5t205.5 100.5t77 261.5 t-78 250.5t-204.5 89.5t-205 -89.5t-78.5 -250.5z" />
<glyph unicode="7" horiz-adv-x="942" d="M42 1266q0 4 11 143q2 32 19 50t37 18h747q24 0 24 -22q0 -6 -2 -10q-319 -936 -439 -1419q-4 -26 -30 -26h-135q-10 0 -17.5 8t-3.5 20q87 284 477 1270h-531q-72 0 -89 -33t-42.5 -33t-25.5 34z" />
<glyph unicode="8" horiz-adv-x="1105" d="M116 322q0 143 76 238.5t215 192.5q-114 84 -177 175t-63 230.5t116 240.5t278 101t267.5 -91t105.5 -216.5t-66.5 -213t-188.5 -171.5q145 -97 228 -198t83 -260.5t-138.5 -266.5t-321 -107t-298.5 101.5t-116 244.5zM234 330q0 -109 86.5 -184.5t205 -75.5t201.5 73.5 t83 186.5t-101 204q-57 50 -90 73t-119 81q-129 -86 -197.5 -167.5t-68.5 -190.5zM338 1188.5q0 -93.5 63.5 -164t182.5 -151.5q112 79 172.5 150.5t60.5 164t-71 156t-172 63.5t-168.5 -62.5t-67.5 -156z" />
<glyph unicode="9" horiz-adv-x="1136" d="M85.5 1046.5q1.5 183.5 133 318.5t346 135t340.5 -142.5t126 -405t-185.5 -546t-497.5 -430.5q-2 -2 -19 -2t-35 10t-18 36t32 45q397 238 504 642q-113 -101 -281 -101q-215 0 -331 128.5t-114.5 312zM276 1049.5q0 -161.5 78.5 -251t205 -89.5t204.5 89.5t78 251 t-77 261.5t-205.5 100t-206 -100t-77.5 -261.5z" />
<glyph unicode=":" horiz-adv-x="554" d="M147 106q0 53 38.5 91.5t91 38.5t91.5 -37.5t39 -91.5t-39 -92.5t-91.5 -38.5t-91 38.5t-38.5 91.5zM147 949q0 53 38.5 91t91 38t91.5 -38t39 -92t-39 -91.5t-91.5 -37.5t-91 38.5t-38.5 91.5z" />
<glyph unicode=";" horiz-adv-x="560" d="M147 104.5q0 54.5 38.5 93t93.5 38.5t94.5 -44.5t39.5 -137t-63 -189.5t-135 -139q-17 -10 -30 -10q-38 0 -38 35q0 18 16 30q109 82 115 191q-63 4 -97 41t-34 91.5zM147 949q0 53 38.5 91t91 38t91.5 -38t39 -92t-39 -91.5t-91.5 -37.5t-91 38.5t-38.5 91.5z" />
<glyph unicode="&#x3c;" horiz-adv-x="1397" d="M105 572v92q0 19 22 28l1119 506q4 2 8 2l10 -4q8 -6 8 -17v-92q0 -17 -26 -28l-984 -441l984 -441q26 -11 26 -28v-92q0 -11 -6 -16t-12 -5q-7 2 -1127 508q-21 8 -22 28z" />
<glyph unicode="=" horiz-adv-x="1505" d="M169 365v84q0 24 25 24h1118q26 0 25 -24v-84q1 -23 -25 -23h-1118q-26 0 -25 23zM169 795v85q0 23 25 23h1118q26 0 25 -23v-85q1 -23 -25 -23h-1118q-26 0 -25 23z" />
<glyph unicode="&#x3e;" horiz-adv-x="1397" d="M127 57v92q0 17 24 28l986 441l-986 441q-24 11 -24 28v92q0 11 6 16t12 5q6 -2 1127 -508q21 -8 21 -28v-92q0 -19 -21 -28l-1121 -506q-4 -2 -6 -2l-10 4q-8 6 -8 17z" />
<glyph unicode="?" horiz-adv-x="906" d="M105 1190v167q0 46 94.5 94.5t245 48.5t253.5 -74t103 -217q0 -135 -119 -267q-51 -54 -104 -113q-127 -141 -150 -342q0 -22 -27 -22h-21q-26 0 -29 31t-3 81.5t18 128t57 144t79 124.5q101 144 101.5 243t-49.5 149.5t-132 50.5t-130.5 -49.5t-85.5 -131.5t-67 -82 q-14 0 -24 12.5t-10 23.5zM260 106q0 53 38 91.5t91.5 38.5t91.5 -37.5t38 -91.5t-39 -92.5t-91.5 -38.5t-90.5 38.5t-38 91.5z" />
<glyph unicode="@" horiz-adv-x="1765" d="M105 616q0 371 257.5 627.5t622.5 256.5q297 0 486 -172t189 -442t-135 -410t-285 -140q-181 0 -215 137q-105 -131 -241 -131t-202.5 73.5t-66.5 208.5q0 209 126 363t321 154q131 0 217 -23l32 -9q24 -2 23 -29l-76 -525q-2 -10 -2 -36t22 -59.5t80 -33.5q96 0 176 114 t80 344.5t-146 377.5t-396 147q-310 0 -507 -225.5t-197 -563.5q0 -251 145.5 -403t398.5 -152q103 0 205.5 26.5t153.5 53.5l51 28q23 12 34 -4l16 -26q6 -8 3 -22t-13 -18q-21 -14 -60.5 -35.5t-159.5 -56.5t-243 -35q-302 0 -498 179t-196 461zM675 634q1 -195 140 -195 q84 0 145 66.5t74 150.5l53 386q-68 19 -150.5 19t-147.5 -69q-114 -123 -114 -358z" />
<glyph unicode="A" horiz-adv-x="1512" d="M2 48l40 5q91 10 123 86l542 1336q8 26 47 26q1 -1 2 -1q41 0 52 -25l540 -1336q28 -78 120 -86l44 -5q8 0 15 -8t7 -16q0 -32 -30 -32l-242 8l-218 -8q-29 0 -29 24q0 30 25 32l49 5q28 2 45.5 21t17.5 36t-7 29l-124 323q-6 21 -34 21h-546q-26 0 -34 -21l-125 -323 q-4 -12 -4 -28t17 -36t47 -22l46 -5q28 -4 27 -27q0 -29 -29 -29h-2l-183 8l-193 -8q-30 0 -30 27q0 29 24 29zM462 602q-2 -5 -2 -9q0 -13 19 -13h471q17 0 17 13q0 5 -3 13l-251 644z" />
<glyph unicode="B" horiz-adv-x="1349" d="M65 26q0 23 24 22l60 5q97 12 98 86v1198q0 76 -98 84l-60 7q-24 4 -24 25q0 32 30 32l263 -8h409q165 0 275 -101.5t110 -236.5t-72 -214t-166 -108v-5q132 -17 237 -121.5t105 -273t-127 -293t-314 -124.5h-481l-239 -8q-30 0 -30 34zM426 177q0 -84 85 -84h208 q152 0 250 92.5t98 241.5t-98 239.5t-250 90.5h-257q-36 0 -36 -38v-542zM426 892q0 -42 43 -42h213q124 0 203 74t79 196t-78 192.5t-204 70.5h-178q-30 0 -54 -22t-24 -45v-424z" />
<glyph unicode="C" horiz-adv-x="1439" d="M105 740q0 329 209 544.5t551 215.5q177 0 321.5 -48.5t144.5 -94.5v-242q0 -14 -9.5 -28t-23.5 -14q-36 0 -48 42q-38 142 -141 222t-244 80q-255 0 -406 -175t-151 -447t159 -485t398 -213q137 0 205.5 26t93 38t62.5 37.5t42 27.5q38 23 52.5 7t14.5 -31t-17 -31 q-72 -80 -147 -121q-137 -74 -327 -74q-329 0 -534 217.5t-205 546.5z" />
<glyph unicode="D" horiz-adv-x="1562" d="M63 18q0 28 24 28l60 4q43 5 70.5 27t27.5 60v1200q0 76 -98 84l-60 7q-24 4 -24 27q0 30 30 30l263 -8h363q338 0 538 -195t200 -518t-207.5 -543.5t-530.5 -220.5h-363l-263 -10q-30 0 -30 28zM424 194q0 -45 28.5 -71t74.5 -26h201q243 0 388.5 167t145.5 432 t-127 464q-63 101 -171 160t-247 59h-190q-46 0 -74.5 -25t-28.5 -74v-1086z" />
<glyph unicode="E" horiz-adv-x="1336" d="M63 20q0 28 24 28l60 5q43 4 70.5 26t27.5 60v1198q0 76 -98 84l-60 7q-24 0 -24 28.5t30 28.5l239 -8h748q41 0 66 -24.5t29 -59.5l29 -195q4 -38 -30.5 -38t-44.5 34q-32 101 -95.5 143t-174.5 42h-332q-46 0 -74.5 -26t-28.5 -73v-443q0 -27 27 -27h393q29 0 46 14.5 t22.5 27.5t15.5 46l8 28q6 26 32 26t26 -30l-9 -179l9 -171q0 -28 -28 -32q-26 0 -30 25l-6 39q-18 109 -86 109h-395q-26 0 -25 -29v-490q0 -45 28.5 -71t74.5 -26h349q109 0 188 54t111 157q11 34 35 34t34 -12q7 -9 7 -18q0 -4 -1 -8l-33 -220q-4 -36 -30 -60t-64 -24 h-791l-239 -8q-30 0 -30 28z" />
<glyph unicode="F" horiz-adv-x="1226" d="M63 20q0 28 24 28l60 5q43 4 70.5 26t27.5 60v1198q0 76 -98 84l-60 7q-24 0 -24 28.5t30 28.5l239 -8h727q40 0 65 -24.5t30 -59.5l29 -195q1 -5 1 -9q0 -29 -31 -29q-35 0 -46 34q-32 101 -94.5 143t-175.5 42h-310q-46 0 -74.5 -26t-28.5 -73v-463q0 -28 27 -28h372 q28 0 45.5 14t22.5 28.5t16 46.5l9 27q6 24 26 23q30 0 30 -28l-8 -181l8 -175q0 -30 -26 -29.5t-30 25.5l-7 38q-8 54 -26 82t-60 28h-374q-26 0 -25 -30v-519q0 -78 93 -86l63 -5q26 0 26 -24q0 -32 -32 -32l-242 8l-239 -8q-30 0 -30 28z" />
<glyph unicode="G" horiz-adv-x="1600" d="M105 739q0 328 215.5 544.5t559.5 216.5q177 0 321.5 -48.5t144.5 -94.5v-242q0 -14 -9.5 -28t-24.5 -14q-36 0 -46 42q-38 142 -141.5 222t-244.5 80q-262 0 -417 -175t-155 -445q0 -177 69.5 -341.5t199.5 -271t287 -106.5t265.5 64.5t108.5 135.5v262q0 80 -95 84 l-114 6q-24 0 -23.5 29t28.5 29l286 -9l210 9q29 0 28 -26q0 -30 -24 -32l-36 -6q-85 -14 -85 -84v-407l13 -119q4 -38 -31 -38q-24 0 -38 28q-34 76 -113 76q-16 0 -63 -25q-143 -79 -337 -79q-329 0 -534 217.5t-205 545.5z" />
<glyph unicode="H" horiz-adv-x="1691" d="M63 20q0 28 24 28l60 5q43 4 70.5 26t27.5 60v1198q0 76 -98 84l-60 7q-24 0 -24 28.5t30 28.5l239 -8l208 8q32 0 32 -25q0 -30 -28 -32l-35 -7q-85 -14 -85 -84v-495q0 -43 43 -43h763q40 0 40 36v502q0 70 -84 84l-39 7q-23 4 -22 27q0 30 31 30l207 -8l236 8 q29 0 29 -28.5t-22 -28.5l-64 -7q-93 -8 -93 -84v-1198q0 -78 93 -86l64 -5q23 0 23 -27q0 -29 -30 -29l-236 8l-207 -8q-32 0 -31 29q0 23 22 27l39 5q84 10 84 86v523q0 40 -38 40h-773q-14 0 -24.5 -11.5t-10.5 -28.5v-523q0 -76 85 -86l35 -5q28 -4 28 -27 q0 -13 -9.5 -21t-22.5 -8l-208 8l-239 -8q-30 0 -30 28z" />
<glyph unicode="I" horiz-adv-x="668" d="M63 1455q0 30 30 30l239 -8l208 8q32 0 32 -25q0 -30 -28 -32l-35 -7q-85 -14 -85 -84v-1198q0 -38 27.5 -60t67.5 -26l61 -5q26 0 26 -27q0 -13 -10 -21t-20 -8l-238 8l-209 -8q-30 0 -30 26t24 30l36 5q86 10 86 86v1198q0 76 -98 84l-60 7q-24 4 -24 27z" />
<glyph unicode="J" horiz-adv-x="668" d="M-10 -580q0 10 14 21q107 76 137 112q105 112 106 329v1455q0 76 -98 84l-60 7q-24 4 -24 27q0 30 30 30l239 -8l208 8q32 0 32 -25q0 -30 -28 -32l-35 -7q-85 -14 -85 -84v-1347q0 -216 -71 -347.5t-196 -216.5q-93 -58 -120 -58t-35 14q-14 28 -14 38z" />
<glyph unicode="K" horiz-adv-x="1455" d="M63 1455q0 30 30 30l239 -8l163 8q32 0 32 -26t-27 -31l-19 -2q-57 -11 -57 -89v-529q0 -26 19 -25h54q51 0 105 63l442 504q27 29 27 55l-10 55q0 23 28 23l117 -6l207 8q32 0 32 -28.5t-28 -28.5l-63 -7q-72 -6 -139 -84l-464 -522q-30 -34 -74 -54q44 -18 74 -54 l519 -564q78 -82 139 -86l61 -4q28 -5 28 -31t-30 -26q-250 4 -290.5 4t-82.5 46l-505 576q-52 63 -99 64h-2h-50q-15 0 -15 -24v-523q0 -82 57 -89l21 -2q23 -4 23 -27q0 -29 -28 -29h-2l-157 8l-209 -8q-32 0 -32 26t26 30l36 5q86 10 86 86v1198q0 72 -98 84l-60 7 q-24 4 -24 27z" />
<glyph unicode="L" horiz-adv-x="1252" d="M63 20q0 28 24 28l60 5q43 4 70.5 26t27.5 60v1198q0 76 -98 84l-60 7q-24 4 -24 27q0 30 30 30l239 -8l208 8q32 0 32 -25q0 -30 -28 -32l-35 -7q-85 -14 -85 -84v-1143q0 -45 28.5 -71t74.5 -26h306q113 0 192.5 54t109.5 157q10 34 44 34q30 0 30 -30v-8l-34 -220 q-4 -36 -29.5 -60t-65.5 -24h-748l-239 -8q-30 0 -30 28z" />
<glyph unicode="M" horiz-adv-x="2024" d="M53 19q0 25 23 29l61 7q97 10 97 84l26 1198q2 74 -85 84l-38 5q-26 4 -25.5 30.5t31.5 26.5l186 -6q72 -2 91 -42l597 -1182l582 1182q18 38 92 42l189 6q34 0 34 -26t-26 -31l-38 -5q-83 -6 -83 -84l26 -1198q0 -38 26.5 -60t66.5 -26l61 -5q25 0 25 -27 q0 -13 -9.5 -21t-19.5 -8l-238 8l-209 -8q-30 0 -30 26t23 30l36 5q89 10 89 86l-18 998q0 21 -12 21q-6 0 -8 -6l-574 -1148q-10 -18 -25 -18t-23 18l-576 1114q-2 6 -9 7q-13 0 -13 -22l-12 -964q0 -70 84 -84l37 -7q27 -4 26.5 -29t-32.5 -25l-172 6l-205 -6 q-29 0 -29 25z" />
<glyph unicode="N" horiz-adv-x="1606" d="M63 19q0 25 24 29l60 7q97 10 98 84v1198q0 74 -84 84l-38 5q-26 4 -26 30.5t32 26.5l169 -6q60 -2 92 -40l880 -1129q6 -6 14.5 -6t8.5 12v1023q0 74 -95 84l-61 7q-24 4 -24 29.5t30 25.5l205 -6l164 6q32 0 32 -25t-27 -30l-36 -7q-84 -14 -84 -84v-1335 q0 -26 -24 -26h-27q-52 0 -90 52l-889 1136q-4 4 -12.5 4.5t-8.5 -21.5v-1008q0 -70 85 -84l36 -7q27 -4 26.5 -29t-31.5 -25l-164 6l-205 -6q-30 0 -30 25z" />
<glyph unicode="O" horiz-adv-x="1687" d="M105 737q0 330 205 546.5t537 216.5t533.5 -212.5t201.5 -545.5t-205.5 -549.5t-533.5 -216.5t-533 215.5t-205 545.5zM304 819q0 -280 127 -503q60 -109 170 -175.5t251 -66.5q251 0 391 164q141 165 141 446q0 277 -122 485q-61 107 -169 170.5t-251 63.5 q-258 0 -398 -157t-140 -427z" />
<glyph unicode="P" horiz-adv-x="1256" d="M63 1455q0 30 30 30l291 -8h295q243 0 379 -111.5t136 -296.5t-133 -307t-356 -122h-250q-32 0 -31 -26v-475q0 -38 27.5 -61t67.5 -25l89 -5q23 0 22.5 -28t-28.5 -28l-264 8l-235 -8q-32 0 -31 24q0 30 25 32l62 5q86 6 86 86v1198q0 76 -98 84l-60 7q-24 4 -24 27z M424 763q0 -27 21 -27h2h187q176 0 271 92t95 235t-95 231.5t-271 88.5h-125q-85 0 -85 -83v-537z" />
<glyph unicode="Q" horiz-adv-x="1689" d="M105 736q0 331 205 547.5t537 216.5t533.5 -212.5t201.5 -548.5q0 -272 -145.5 -474t-392.5 -263q65 -30 103 -80l246 -308q60 -76 139 -87l38 -4q24 -3 24 -27q0 -30 -28 -30q-209 9 -256.5 9t-79.5 42l-296 394q-50 65 -90 65q-332 0 -535.5 214.5t-203.5 545.5z M304 819q0 -280 127 -503q60 -109 170 -175.5t251 -66.5q251 0 391 164q141 164 141 445q0 278 -122 486q-61 107 -169 169.5t-251 62.5q-258 0 -398 -157t-140 -425z" />
<glyph unicode="R" horiz-adv-x="1397" d="M63 1455q0 30 30 30l291 -8h395q203 0 332 -103.5t129 -273.5t-127.5 -280.5t-283.5 -114.5l-2 -5q44 -14 69 -54l319 -507q45 -74 139 -86l39 -5q27 -4 26 -27q0 -29 -29 -29h-2q-202 8 -251.5 8t-77.5 42l-357 592q-42 65 -92 66h-2h-153q-32 0 -31 -25v-536 q0 -38 27.5 -61t67.5 -25l89 -5q23 0 22.5 -28t-28.5 -28l-264 8l-235 -8q-28 0 -31 24q0 30 25 32l62 5q86 6 86 86v1198q0 76 -98 84l-60 7q-24 4 -24 27zM424 823q0 -28 23 -28h260q145 0 243.5 81.5t98.5 214.5t-97.5 211.5t-244.5 78.5h-198q-85 0 -85 -83v-475z" />
<glyph unicode="S" horiz-adv-x="1204" d="M105 139v247q0 45 34 45q28 0 38 -41q55 -162 142.5 -241t245.5 -79t256.5 71.5t98.5 198.5q0 139 -157 234q-70 42 -154 82t-168.5 83.5t-153.5 93.5q-156 115 -156 288.5t134 276t315 102.5t308 -45.5t127 -100.5v-213q0 -42 -30.5 -42t-46.5 42q-44 135 -115.5 200.5 t-213.5 65.5t-224.5 -67.5t-82.5 -168t82.5 -173t199 -128t233.5 -116t199.5 -155t82.5 -217.5q0 -199 -149 -302.5t-360.5 -103.5t-348 51t-136.5 112z" />
<glyph unicode="T" horiz-adv-x="1309" d="M4 1164l17 273q4 40 47 40h1168q44 0 48 -51l22 -262v-5q0 -13 -9 -22q-11 -10 -33 -10t-34 31q-38 112 -96.5 166.5t-159.5 54.5h-177q-52 0 -52 -56v-1184q0 -38 27 -60t67 -26l61 -5q26 0 26 -27q0 -13 -9.5 -21t-20.5 -8l-238 8l-261 -8q-11 0 -20.5 8t-9.5 21 q0 27 25 27l79 5q40 4 67 26t27 60v1184q0 56 -52 56h-177q-103 0 -162.5 -55.5t-93.5 -165.5q-12 -32 -34 -31.5t-33 11.5t-9 26z" />
<glyph unicode="U" horiz-adv-x="1630" d="M63 1455q0 30 30 30l239 -8l208 8q32 0 32 -25q0 -30 -28 -32l-35 -7q-85 -14 -85 -84v-797q0 -196 118 -305.5t311 -109.5t312 111.5t119 303.5v797q0 70 -84 84l-36 7q-28 4 -27.5 29.5t32.5 25.5l164 -6l205 6q30 0 30 -25t-24 -30l-61 -7q-97 -10 -97 -84v-795 q0 -260 -159.5 -413t-408 -153t-411 158.5t-162.5 407.5v795q0 76 -98 84l-60 7q-24 4 -24 27z" />
<glyph unicode="V" horiz-adv-x="1465" d="M-21 1453q0 32 29 32l222 -8l235 8q29 0 28 -25q0 -30 -24 -32l-49 -5q-36 -2 -52 -29t-5 -57l404 -1105l416 1105q13 32 -3 58t-55 28l-47 5q-27 4 -27 27q0 30 32 30l183 -8l191 8q30 0 30 -28.5t-23 -28.5l-41 -5q-94 -10 -121 -86l-521 -1335q-9 -26 -48 -26t-49 26 l-519 1335q-32 80 -121 86l-44 5q-8 0 -14.5 8.5t-6.5 16.5z" />
<glyph unicode="W" horiz-adv-x="2220" d="M-10 1453q0 32 29 32l215 -8l235 8q30 0 28 -25q0 -30 -24 -32l-49 -5q-36 -2 -52 -27t-5 -59l346 -1057l386 1177q8 28 48.5 28t48.5 -28l384 -1177l348 1057q10 36 -5.5 60t-53.5 26l-47 5q-28 4 -27 27q0 30 32 30l184 -8l191 8q30 0 30 -28.5t-24 -28.5l-40 -5 q-97 -12 -121 -86l-459 -1335q-8 -26 -44 -26t-46 26l-389 1154l-388 -1154q-8 -26 -43.5 -26t-47.5 26l-455 1335q-28 78 -120 86l-45 5q-8 0 -14 8.5t-6 16.5z" />
<glyph unicode="X" horiz-adv-x="1495" d="M72 1483l246 -6l218 4q32 0 32 -27.5t-26 -30.5l-38 -4q-36 -4 -48.5 -30t3.5 -52l302 -461l322 461q18 24 5 51t-50 31l-40 4q-26 3 -26 30.5t32 27.5l160 -4l222 6q30 0 29.5 -25t-22.5 -30l-64 -7q-63 -6 -120 -84l-386 -554l423 -644q55 -78 125 -84l60 -7 q23 -4 23 -28v-1q0 -25 -31 -25l-244 6l-219 -4q-32 0 -32 27t26 30l40 4q36 4 48.5 30.5t-4.5 51.5l-323 489l-337 -489q-19 -26 -6.5 -52t50.5 -30l40 -4q26 -3 25.5 -30t-32.5 -27l-159 4l-222 -6q-30 0 -30 25t24 29l63 7q63 6 120 84l403 582l-405 616q-50 78 -122 84 l-62 7q-24 4 -24 28q0 27 31 27z" />
<glyph unicode="Y" horiz-adv-x="1490" d="M19 1483l251 -6l223 4q32 0 32 -27.5t-25 -30.5l-41 -4q-38 -4 -49 -31t5 -51l368 -603q8 -14 18.5 -14.5t19.5 10.5l360 607q17 24 5.5 50t-49.5 32l-40 4q-30 5 -26 31.5t32 26.5l165 -4l205 6q30 0 30 -24q0 -1 -1 -1q0 -25 -23 -30l-62 -7q-70 -6 -119 -84l-412 -658 q-26 -45 -30 -99v-441q0 -38 28 -60t68 -26l60 -5q26 0 26 -27q0 -13 -9.5 -21t-20.5 -8l-238 8l-211 -8q-30 0 -30 26t24 30l35 5q87 10 87 86v412q0 40 -19 73l-460 713q-51 78 -122 84l-62 7q-23 4 -23 28q0 27 30 27z" />
<glyph unicode="Z" horiz-adv-x="1282" d="M74 24v18q0 21 10 36l819 1281q13 20 -13 20h-464q-88 0 -151.5 -54.5t-91.5 -132.5q-8 -36 -40 -36q-14 0 -22.5 11.5t-6.5 24.5l43 221q10 63 56 64h916q26 0 25 -17v-21q0 -12 -25 -56l-791 -1246q-8 -12 -6 -23t12 -11h491q216 0 308 233q13 32 43 31q32 0 32 -29 q0 -4 -1 -9l-34 -245q-4 -36 -29 -60t-65 -24h-990q-26 0 -25 24z" />
<glyph unicode="[" horiz-adv-x="791" d="M211 -443v2053q0 26 29 25h397q27 0 27 -27v-36q0 -28 -27 -28h-268v-1922h268q27 0 27 -27v-36q0 -28 -27 -28h-397q-29 0 -29 26z" />
<glyph unicode="\" horiz-adv-x="727" d="M65 1594q-4 26 22 26h84q26 0 30 -26l461 -1759q4 -26 -20 -25h-85q-26 0 -30 25z" />
<glyph unicode="]" horiz-adv-x="791" d="M127 -405q0 28 27 27h268v1922h-268q-27 0 -27 28v36q0 28 27 27h397q29 1 29 -25v-2053q0 -26 -29 -26h-397q-27 0 -27 28v36z" />
<glyph unicode="^" horiz-adv-x="978" d="M105 839.5q0 4.5 2 8.5l308 631q8 21 28 21h93q18 0 27 -21l308 -631q2 -4 2 -8.5t-5 -10.5t-16 -6h-93q-16 0 -27 25l-243 517l-242 -517q-11 -25 -28 -25h-92q-11 0 -16.5 6t-5.5 10.5z" />
<glyph unicode="_" horiz-adv-x="1134" d="M-42 -531q0 22 26 22h1168q25 0 25 -22v-79q0 -23 -25 -22h-1168q-26 0 -26 22v79z" />
<glyph unicode="`" horiz-adv-x="727" d="M137 1464.5q0 41.5 26.5 72.5t56 31t52.5 -20l318 -278l-37 -50l-376 183q-40 20 -40 61.5z" />
<glyph unicode="a" horiz-adv-x="1077" d="M105 245q0 149 131 228q116 68 363 105q59 10 80 14q28 2 28 30v195q0 86 -58.5 136.5t-154 50.5t-172.5 -59t-98 -164q-7 -32 -35 -32t-28 32v157q0 36 22 54q113 86 321.5 86t293 -91t84.5 -234v-563q0 -68 43 -110t102 -42q30 0 30 -28q0 -34 -76 -34q-131 0 -222 104 q-14 15 -21.5 15t-22.5 -13q-137 -105 -308 -106q-121 0 -211.5 75.5t-90.5 193.5zM348 133.5q57 -49.5 127.5 -49.5t124.5 27.5t78 55.5t24 40v264q0 31 -25 31h-2h-7q-377 -47 -377 -231q0 -88 57 -137.5z" />
<glyph unicode="b" horiz-adv-x="1286" d="M2 1622q0 28 28 32l272 33h10q38 0 38 -48l-12 -481v-148q0 -18 8 -23.5t14 0.5q138 91 334 91h1q197 0 341 -153q146 -153 145.5 -389t-159.5 -398t-380 -162q-163 0 -282 60q-38 19 -56 19q-40 0 -70 -49q-13 -30 -31 -30q-40 0 -36 38q10 91 10 125v1382 q0 40 -18 56.5t-56 16.5h-73q-28 0 -28 28zM342 300q0 -101 84.5 -171t193.5 -70q173 0 274.5 112t101.5 294q0 249 -98.5 383.5t-270.5 134.5t-264 -97q-21 -21 -21 -42v-544z" />
<glyph unicode="c" horiz-adv-x="1107" d="M105 546q0 217 153 374.5t376 157.5q155 0 258.5 -47.5t103.5 -102.5v-183q0 -36 -30 -36q-26 0 -34 36q-32 116 -103.5 183.5t-180.5 67.5q-159 0 -258 -117.5t-99 -310.5q0 -244 119 -364t276.5 -120t255.5 63q15 11 28 11.5t22.5 -8.5t9.5 -25t-17 -32 q-117 -117 -345.5 -117t-381.5 147t-153 423z" />
<glyph unicode="d" horiz-adv-x="1315" d="M105 513.5q0 233.5 160.5 399t380.5 165.5q160 0 280 -97q8 -7 19 -7t11 28v517q0 42 -18 57.5t-58 15.5h-72q-11 0 -19 10t-8 20q0 30 27 32l279 33h6q28 0 27 -44v-1456q0 -64 41 -106.5t87.5 -42.5t46.5 -28q0 -34 -82 -34q-137 0 -217 100q-12 17 -20 17t-51 -29.5 t-118 -58.5t-161 -29q-252 0 -396.5 152t-144.5 385.5zM291 584q0 -245 102 -383t263 -138q114 0 207 67.5t93 153.5v467q0 95 -88.5 162.5t-215.5 67.5q-171 0 -266 -107t-95 -290z" />
<glyph unicode="e" horiz-adv-x="1143" d="M105 540q0 215 146 376.5t347 161.5t326 -117t125 -295q0 -126 -115 -126h-607q-26 0 -25 -36q4 -194 112.5 -307t276.5 -113t247 65q28 21 51 -1.5t-6 -52.5q-119 -119 -325 -119q-259 0 -406 149t-147 415zM302 662q0 -34 27 -34h464q66 1 66 66q0 127 -69 214.5 t-192 87.5t-209.5 -101.5t-86.5 -232.5z" />
<glyph unicode="f" horiz-adv-x="721" d="M42 976v18q0 21 26 25l117 30q36 8 36 38v8q0 251 128 421.5t345 170.5q83 0 135 -20q83 -30 83 -77v-137q0 -12 -10 -24t-22 -12q-30 0 -45 36q-25 63 -81 98t-126 35q-120 0 -181 -92.5t-61 -263.5v-152q0 -23 21 -23h275q28 0 23 -26l-9 -53q-4 -27 -25 -26h-266 q-19 0 -19 -24v-787q0 -38 27.5 -61t69.5 -25l76 -5q26 -2 25.5 -29t-31.5 -27l-245 8l-201 -8q-32 0 -31.5 27t25.5 29l36 5q84 10 84 86v787q0 24 -25 24h-128q-26 0 -26 26z" />
<glyph unicode="g" horiz-adv-x="1189" d="M116 -302q0 103 65.5 171t140.5 93q-60 14 -117.5 72.5t-57.5 140.5q0 133 135 205q6 4 6.5 10.5t-6.5 14.5q-131 109 -131 286.5t119.5 282t297.5 104.5q68 0 150.5 -21t112.5 -21h304q22 0 22 -18q0 -4 -1 -8l-11 -54q-4 -26 -30 -26h-175q-12 0 -14 -6t6 -15 q65 -84 66 -213q0 -173 -121.5 -276.5t-302.5 -103.5q-103 0 -150 16q-26 9 -45 9q-17 0 -29 -7q-76 -43 -76 -123q0 -52 44.5 -85t94.5 -33h306q207 0 311.5 -86.5t104.5 -236.5q0 -185 -151 -289.5t-372.5 -104.5t-358.5 84.5t-137 237.5zM266 -299.5q0 -107.5 93.5 -177 t252 -69.5t262.5 76t104 185.5t-67 164.5t-192 55h-210q-117 0 -180 -63.5t-63 -171zM322 719q0 -127 64.5 -221.5t187 -94.5t188 71.5t65.5 198t-68.5 223t-189 96.5t-184 -73t-63.5 -200z" />
<glyph unicode="h" horiz-adv-x="1345" d="M42 19q0 27 26 29l59 5q42 4 69.5 26t27.5 60v1382q0 43 -18.5 58t-58.5 15h-71q-28 0 -28 28t28 32l274 33h4q34 0 34 -48v-717q0 -10 7.5 -10t19.5 12q123 154 320 154t302.5 -104.5t105.5 -300.5v-534q0 -38 27.5 -60t69.5 -26l60 -5q26 -2 26 -28q0 -28 -33 -28 l-228 8l-189 -8q-32 0 -32 27t25 29l25 5q84 14 84 86v563q0 131 -73.5 202.5t-203 71.5t-221.5 -106.5t-92 -209.5v-521q0 -76 85 -86l31 -5q25 -2 25 -29t-32 -27l-195 8l-228 -8q-32 0 -32 27z" />
<glyph unicode="i" horiz-adv-x="606" d="M42 19q0 27 26 29l59 5q42 4 69.5 26t27.5 60v773q0 42 -18.5 57.5t-58.5 15.5h-71q-28 0 -28 27.5t28 31.5l274 34h6q32 0 32 -49v-890q0 -76 85 -86l36 -5q26 -2 26 -28q0 -28 -33 -28l-200 8l-228 -8q-32 0 -32 27zM187 1465.5q0 42.5 29 70.5t71 28t71.5 -28 t29.5 -70.5t-29.5 -69.5t-71.5 -27t-71 27t-29 69.5z" />
<glyph unicode="j" horiz-adv-x="584" d="M-28 -579q0 14 16 20q82 46 137 112q105 112 105 329v1030q0 42 -18 57.5t-58 15.5h-72q-27 0 -27 27.5t27 31.5l272 34h4q36 0 36 -49v-1039q0 -401 -253 -564q-93 -58 -119 -58t-34 14q-16 25 -16 39zM192 1465.5q0 42.5 28.5 70.5t71 28t71.5 -28t29 -70.5t-29 -69.5 t-71.5 -27t-71 27t-28.5 69.5z" />
<glyph unicode="k" horiz-adv-x="1189" d="M42 19q0 27 26 29l59 5q42 4 69.5 26t27.5 60v1382q0 43 -18.5 58t-58.5 15h-71q-28 0 -28 28t28 32l274 33q38 0 38 -48v-1015q0 -18 15 -18h88q17 0 30 12l298 312q18 24 18 37.5t-16 36.5t-16 34q0 24 30 23l133 -6l157 8q32 0 31.5 -25.5t-25.5 -29.5l-30 -4 q-72 -10 -127 -68l-326 -330q-8 -9 -8 -16.5t8 -15.5l377 -435q72 -82 112 -86l38 -5q26 -4 25 -27q0 -29 -27 -29h-2q-159 8 -197 8l-128 -6q-32 0 -31 22q0 15 11 35.5t11 33t-18 33.5l-315 382q-13 12 -27 13h-70q-19 0 -19 -20v-354q0 -76 85 -86l36 -5q26 -2 25.5 -29 t-32.5 -27l-200 8l-228 -8q-32 0 -32 27z" />
<glyph unicode="l" horiz-adv-x="606" d="M42 19q0 27 26 29l59 5q42 4 69.5 26t27.5 60v1382q0 43 -18.5 58t-58.5 15h-71q-28 0 -28 28t28 32l274 33h4q34 0 34 -48v-1500q0 -76 85 -86l36 -5q26 -2 26 -28q0 -28 -33 -28l-200 8l-228 -8q-32 0 -32 27z" />
<glyph unicode="m" horiz-adv-x="1900" d="M42 19q0 27 26 29l59 5q42 4 69.5 26t27.5 60v773q0 42 -18.5 57.5t-58.5 15.5h-71q-28 0 -28 27.5t28 31.5l274 34h4q34 0 34 -49v-93q0 -10 7.5 -10t19.5 12q129 139 281 140q115 0 187.5 -41t116.5 -137q6 -12 12.5 -12t14.5 15q129 175 323 175q163 0 253.5 -101 t90.5 -293v-545q0 -38 30.5 -60t72.5 -26l57 -5q26 -2 26 -29t-32 -27l-226 8l-191 -8q-32 0 -32 27t24 29l28 5q79 12 79 86v574q0 263 -226 263q-105 0 -183.5 -102t-78.5 -210v-521q0 -82 73 -90l37 -5q23 -2 23 -29t-28 -27l-185 8l-185 -8q-32 0 -32 26t25 30l31 5 q77 10 77 86v574q0 263 -224 263q-101 0 -183.5 -98.5t-82.5 -213.5v-525q0 -76 85 -86l36 -5q26 -2 25.5 -29t-32.5 -27l-200 8l-228 -8q-32 0 -32 27z" />
<glyph unicode="n" horiz-adv-x="1349" d="M42 19q0 27 26 29l59 5q42 4 69.5 26t27.5 60v773q0 42 -18.5 57.5t-58.5 15.5h-71q-28 0 -28 27.5t28 31.5l274 34h4q34 0 34 -49v-107q0 -10 7.5 -10t19.5 12q123 154 320 154t302.5 -104.5t105.5 -300.5v-534q0 -38 30.5 -60t72.5 -26l58 -5q26 -2 26 -28 q0 -28 -32 -28l-227 8l-191 -8q-32 0 -32 27t25 29l27 5q78 12 78 86v563q0 131 -73.5 202.5t-203 71.5t-221.5 -106.5t-92 -209.5v-521q0 -76 85 -86l36 -5q26 -2 25.5 -29t-32.5 -27l-200 8l-228 -8q-32 0 -32 27z" />
<glyph unicode="o" d="M105 525q0 245 148 399t389.5 154t386 -151.5t144.5 -400t-143.5 -399.5t-389.5 -151t-390.5 152t-144.5 397zM294 576q0 -194 66 -344q37 -79 107.5 -126t166.5 -47q180 0 265.5 116t85.5 308.5t-65 337.5q-36 80 -106.5 127.5t-171.5 47.5q-175 0 -261.5 -116.5 t-86.5 -303.5z" />
<glyph unicode="p" horiz-adv-x="1309" d="M21 -614q0 28 25 30l59 4q42 4 70 26.5t28 60.5v1405q0 42 -18 57.5t-58 15.5h-72q-28 0 -27.5 27.5t27.5 31.5l274 34h5q34 0 33 -49v-39q0 -26 18 -11t50 35t97 42t132 22q248 0 394 -148.5t146 -398t-154 -402.5t-375 -153q-163 0 -283 89q-10 8 -17.5 2t-7.5 -21 v-539q0 -77 84 -87l36 -4q26 -2 26 -30t-32 -28l-201 10l-227 -10q-32 0 -32 28zM367 314q0 -101 89.5 -178t197.5 -77q169 0 268 105.5t99 294.5q0 254 -101 393.5t-252 139.5t-226 -81.5t-75 -171.5v-425z" />
<glyph unicode="q" horiz-adv-x="1273" d="M105 534q0 219 160.5 381.5t380.5 162.5q145 0 274 -59q40 -19 70.5 -19t56.5 41.5t46 41.5q27 0 27 -34l-11 -133v-1405q0 -38 29 -62.5t71 -28.5l61 -4q26 -2 26 -29q0 -29 -30 -29l-232 10l-156 -10q-32 0 -32 27t25 31l23 4q55 8 56 78v544q0 28 -10 28t-14 -5 q-112 -89 -274 -89q-245 0 -396 150t-151 408zM291 588q0 -247 106.5 -381.5t288.5 -134.5q91 0 175.5 46.5t84.5 92.5v546q0 107 -83.5 173t-196.5 66q-173 0 -274 -113t-101 -295z" />
<glyph unicode="r" horiz-adv-x="860" d="M42 19q0 27 26 29l59 5q42 4 69.5 26t27.5 60v773q0 42 -18.5 57.5t-58.5 15.5h-71q-28 0 -28 27.5t28 31.5l274 34h4q34 0 34 -49v-113q0 -11 8.5 -11t18.5 13q49 60 134 110t151.5 50t102.5 -14.5t36 -34.5v-162q0 -32 -29 -32q-17 0 -45 32q-58 72 -151 72l-1 -1 q-94 0 -159.5 -88.5t-65.5 -254.5v-456q0 -76 112 -84l86 -7q26 -2 26 -29t-32 -27l-278 8l-228 -8q-32 0 -32 27z" />
<glyph unicode="s" horiz-adv-x="932" d="M116 93v183q0 38 28.5 38t38.5 -38q65 -217 274 -217q95 0 156.5 47.5t61.5 119.5t-57 123.5t-138 89.5t-162.5 80t-138 108.5t-56.5 153.5q0 128 98.5 212.5t263.5 84.5q109 0 200.5 -37t91.5 -79v-163q0 -38 -30 -38t-38 38q-57 196 -238 197q-83 0 -140 -41 t-57 -109.5t58 -121.5t141.5 -92.5t165.5 -82t140 -113.5t58 -164q0 -133 -106.5 -214.5t-259.5 -81.5t-254 36t-101 81z" />
<glyph unicode="t" horiz-adv-x="761" d="M34 974l6 55q4 26 25 26h127q18 0 19 23l19 293q2 40 40 40q30 0 40 -32l70 -296q6 -28 31 -28h315q30 0 23 -26l-6 -55q-4 -25 -26 -24h-320q-17 0 -17 -24v-654q0 -198 152 -198h2q70 0 137 25l68 26q20 0 20 -24q0 -40 -85.5 -82.5t-171.5 -42.5q-155 0 -221 73.5 t-66 244.5v632q0 24 -28 24h-128q-11 0 -19 7t-6 17z" />
<glyph unicode="u" horiz-adv-x="1324" d="M32 1021q0 25 29 30l279 27h10q42 0 42 -34q0 -4 -10.5 -25t-10.5 -53v-618q0 -131 81.5 -205.5t209 -74.5t215 95t87.5 215v538q0 42 -18 59t-56 17h-93q-10 0 -20 8t-10 21q0 25 30 30l296 27h10q42 0 42 -34q0 -4 -8 -25t-8 -53v-774q0 -68 42 -109t101 -41 q32 0 32 -26q0 -40 -82 -40q-125 0 -218 104q-6 7 -12.5 15t-10.5 14q-9 10 -18 11t-29 -17q-143 -127 -325.5 -127t-292 105.5t-109.5 300.5v534q0 42 -18 59t-56 17h-72q-11 0 -20 8t-9 21z" />
<glyph unicode="v" horiz-adv-x="1129" d="M2 1037.5q0 25.5 30 25.5l208 -8l203 8q36 0 36 -25.5t-28 -29.5l-44 -4q-75 -6 -75 -53q0 -18 4 -27l256 -679q4 -10 12 -10.5t12 8.5l268 681q8 18 8 36q0 38 -65 44l-42 4q-26 4 -26 29.5t30 25.5l161 -8l151 8q28 0 28 -25.5t-24 -29.5l-40 -6q-59 -10 -89 -80 l-377 -926q-9 -20 -35 -20h-1q-25 0 -34 20l-378 932q-25 63 -86 74l-39 6q-24 4 -24 29.5z" />
<glyph unicode="w" horiz-adv-x="1711" d="M2 1037.5q0 25.5 30 25.5l204 -8l203 8q36 0 36 -25.5t-28 -29.5l-44 -4q-74 -6 -74 -62q0 -12 3 -18l191 -656q4 -8 10.5 -8t8.5 12l297 749q11 28 53 28t54 -28l302 -747q4 -6 11 -6t9 10l205 646q4 16 4 24q0 50 -66 56l-38 4q-26 4 -25.5 29.5t29.5 25.5l157 -8 l149 8q28 0 28 -25.5t-24 -29.5l-40 -6q-65 -10 -89 -80l-300 -926q-10 -20 -36 -20h-1q-25 0 -33 20l-325 805q-6 11 -13 11q-15 0 -21 -19l-310 -797q-8 -20 -35 -20h-1q-26 0 -34 20l-298 932q-20 63 -86 74l-39 6q-24 4 -24 29.5z" />
<glyph unicode="x" horiz-adv-x="1161" d="M2 17q0 25 26 29l61 9q54 6 110 78l282 360q6 7 6 18.5t-6 17.5l-282 397q-26 38 -48 54t-58 20l-63 8q-24 4 -24 29.5t30 25.5l236 -8l190 8q32 0 31.5 -25.5t-24.5 -29.5l-24 -2q-59 -4 -59 -50q0 -17 11 -30l189 -266l13 -6q7 0 13 8l207 264q16 19 16 38q0 36 -74 44 q-26 4 -25.5 29.5t31.5 25.5l161 -8l171 8q30 0 30 -25.5t-26 -29.5l-61 -8q-54 -6 -110 -78l-264 -338q-6 -6 -6 -15.5t4 -17.5l302 -422q26 -38 48 -54t57 -20l64 -9q24 -4 24 -28q0 -26 -30 -26l-237 8l-189 -8q-32 0 -32 25t25 29l23 2q59 5 60 51q0 16 -11 30l-207 286 q-6 8 -12.5 8.5t-12.5 -8.5l-226 -286q-16 -19 -16 -38q0 -36 73 -45q25 -4 25 -29t-31 -25l-160 8l-171 -8q-30 0 -30 25z" />
<glyph unicode="y" horiz-adv-x="1125" d="M2 1037.5q0 25.5 30 25.5l208 -8l209 8q36 0 36 -25.5t-28 -29.5l-44 -4q-40 -2 -56.5 -25t-4.5 -53l238 -622q2 -4 10 -5t12 9l253 618q6 17 6 30q0 40 -56 48l-38 4q-26 4 -26 29.5t30 25.5l165 -8l151 8q28 0 28 -25.5t-24 -29.5l-40 -6q-70 -10 -99 -82l-451 -1045 q-145 -328 -296 -426q-34 -21 -49 -21t-19 4l-63 81q-8 10 -8 25t13 23q68 34 101.5 56.5t87.5 74.5q93 93 217 376q7 10 7 24.5t-7 28.5l-332 805q-24 59 -98 76l-39 6q-24 4 -24 29.5z" />
<glyph unicode="z" horiz-adv-x="994" d="M53 24v18q0 21 10 36l612 878q12 20 -13 20h-278q-173 0 -217 -134q-8 -39 -40 -39q-15 0 -23.5 12t-6.5 27l17 148q7 65 57 65h705q27 0 27 -19v-21q0 -13 -27 -53l-585 -846q-8 -10 -7.5 -22t14.5 -12h364q79 0 138 46.5t84 126.5q12 36 40 36q12 0 21 -11.5t7 -24.5 l-20 -187q-6 -68 -54 -68h-800q-25 0 -25 24z" />
<glyph unicode="{" horiz-adv-x="835" d="M42 565v37q0 27 28 26h23q101 2 135 58.5t34 186.5v399q0 363 358 363h62q28 0 27 -27v-36q0 -28 -27 -28h-62q-109 0 -154.5 -66.5t-45.5 -199.5v-398q0 -110 -43 -191t-128 -107q85 -24 128 -104.5t43 -190.5v-399q0 -133 45.5 -199.5t154.5 -66.5h62q28 0 27 -27v-36 q0 -28 -27 -28h-62q-358 0 -358 364v399q0 130 -34 187t-135 57h-23q-28 0 -28 27z" />
<glyph unicode="|" horiz-adv-x="650" d="M253 -553v2215q0 26 23 25h100q24 0 23 -25v-2215q0 -26 -23 -25h-100q-23 -1 -23 25z" />
<glyph unicode="}" horiz-adv-x="876" d="M127 -405q0 28 27 27h61q109 0 154.5 66.5t45.5 199.5v399q0 110 43.5 191t127.5 104q-84 26 -127.5 107t-43.5 191v398q0 133 -45.5 199.5t-154.5 66.5h-61q-27 0 -27 28v36q0 28 27 27h61q359 0 359 -363v-399q0 -130 34 -186.5t135 -58.5h22q28 1 28 -26v-37 q0 -27 -28 -27h-22q-101 0 -135 -57t-34 -187v-399q0 -363 -359 -364h-61q-27 0 -27 28v36z" />
<glyph unicode="~" horiz-adv-x="1347" d="M105 536q0 10 11 29q127 205 339 205q99 0 236.5 -69t215.5 -69q131 0 228 138q8 13 17.5 13t18.5 -4l59 -38q12 -7 12 -15q0 -10 -10 -30q-127 -205 -340 -205q-93 0 -237 68.5t-214 68.5q-131 0 -228 -137q-8 -12 -18 -12t-18 4l-59 38q-12 6 -13 15z" />
<glyph unicode="&#xa1;" horiz-adv-x="554" d="M147 948q0 54 39.5 92t92.5 38t90.5 -38t37.5 -91t-37.5 -91.5t-91.5 -38.5t-92.5 37.5t-38.5 91.5zM173 -354l67 922q0 23 28 22h21q26 0 27 -22q13 -188 40.5 -537t27.5 -390.5t-32 -63.5t-75 -22t-73.5 23t-30.5 68z" />
<glyph unicode="&#xa2;" horiz-adv-x="1107" d="M105 548.5q0 214.5 153 372t376 157.5q30 0 45 -3l49 223q4 26 29 25h48q26 0 22 -25l-50 -233q96 -19 157.5 -58t61.5 -79v-183q0 -36 -30 -36q-26 0 -34 36q-48 177 -177 229l-192 -869q61 -21 131 -21q150 0 248 63q15 11 28 11.5t22.5 -8.5t9.5 -25t-17 -32 q-117 -117 -341 -117q-38 0 -106 10l-53 -239q-4 -26 -30 -25h-48q-26 0 -21 25l57 261q-155 53 -246.5 189.5t-91.5 351zM291 568q0 -296 184 -421l185 849h-12q-159 0 -258 -117.5t-99 -310.5z" />
<glyph unicode="&#xa3;" horiz-adv-x="1138" d="M127 682v57q0 23 24 22h140q-20 53 -31 90t-22.5 74t-17 57t-11.5 52q-10 51 -10 103q0 159 117 261t310 102q141 0 255.5 -50.5t114.5 -95.5v-166q0 -15 -11 -27t-29 -12t-46 42.5t-57.5 92t-92 91.5t-156 42t-163.5 -64t-70 -184q0 -93 49 -234.5t59 -173.5h344 q26 0 25 -22v-57q0 -24 -25 -24h-319q16 -74 16.5 -146.5t-40.5 -159t-83 -133.5l-43 -44h524q72 0 88.5 32.5t42 32.5t25.5 -33v-6l-11 -133q-2 -32 -19 -50t-38 -18h-795q-26 0 -26 24v33q0 10 34 45t73 76t72.5 114t33.5 158.5t-36 207.5h-171q-25 0 -24 24z" />
<glyph unicode="&#xa4;" horiz-adv-x="1345" d="M147.5 280.5q-0.5 8.5 9.5 17.5l141 141q-93 122 -93 281.5t93 281.5l-141 143q-9 9 -9.5 17.5t9.5 16.5l58 59q9 8 17 8l17 -8l141 -143q125 95 282 95t282 -95l143 143q8 8 16 8l18 -8l59 -59q8 -8 8 -16.5t-8 -17.5l-144 -143q95 -124 95 -281.5t-95 -281.5l144 -141 q8 -9 8 -17.5t-8 -16.5l-59 -59q-8 -8 -18 -9l-16 9l-143 141q-123 -93 -282 -93t-282 93l-141 -141q-8 -8 -17 -9l-17 9l-58 59q-9 8 -9.5 16.5zM338 721.5q0 -141.5 98 -245t237 -103.5t237 103.5t98 245t-98 244.5t-237 103t-237 -103t-98 -244.5z" />
<glyph unicode="&#xa5;" horiz-adv-x="1501" d="M0 1457.5q0 25.5 30 25.5l250 -6l224 4q32 0 32 -27.5t-25 -30.5l-40 -4q-38 -4 -50 -31t5 -51l367 -603q8 -14 19 -14.5t19 10.5l361 607q16 24 5 50t-50 32l-40 4q-30 5 -24 32q2 26 30 26l165 -4l205 6q30 0 29.5 -25t-23.5 -30l-61 -7q-70 -6 -120 -84l-412 -658 l-12 -25h320q26 0 26 -24v-56q0 -24 -26 -23h-337v-159h337q26 0 26 -23v-57q0 -24 -26 -23h-337v-150q0 -38 27.5 -60t67.5 -26l61 -5q26 0 26 -27q0 -13 -10 -21t-20 -8l-238 8l-211 -8q-30 0 -30 26t23 30l36 5q87 10 87 86v150h-338q-26 0 -26 23v57q0 23 26 23h338v159 h-338q-26 0 -26 23v56q0 24 26 24h300l-441 683q-50 78 -123 84l-60 7q-24 4 -24 29.5z" />
<glyph unicode="&#xa6;" horiz-adv-x="650" d="M253 371q0 26 23 26h100q24 0 23 -26v-924q0 -26 -23 -25h-100q-23 -1 -23 25v924zM253 739v923q0 26 23 25h100q24 0 23 -25v-923q0 -26 -23 -26h-100q-23 0 -23 26z" />
<glyph unicode="&#xa7;" horiz-adv-x="1049" d="M127 82v169q0 13 9 23t25 10q30 0 40 -33q72 -198 303 -198q105 0 173 43t68 109.5t-63.5 113t-153 81.5t-179 73t-153 97.5t-63.5 146t71.5 156t198.5 95.5q-129 53 -199.5 112t-70.5 150q0 118 109.5 194t291.5 76q120 0 221 -32.5t101 -72.5v-149q0 -34 -32.5 -33.5 t-42.5 33.5q-61 180 -262 180q-93 0 -155 -38t-62 -101t64.5 -110.5t155 -83.5t182 -75.5t156 -103.5t64.5 -151.5t-68.5 -154t-187.5 -95.5q121 -53 188.5 -114t67.5 -152q0 -122 -118 -196.5t-286 -74.5t-280.5 33t-112.5 73zM302 768q0 -63 58 -107.5t169 -88.5 q95 4 155.5 48t60.5 105.5t-48.5 100.5t-139.5 79l-38 2q-93 0 -155 -38t-62 -101z" />
<glyph unicode="&#xa8;" horiz-adv-x="874" d="M127 1390.5q0 46.5 31.5 78t77.5 31.5t78 -31.5t32 -78t-32 -78.5t-78 -32t-77.5 32t-31.5 78.5zM529 1390.5q0 46.5 31.5 78t78.5 31.5t78.5 -31.5t31.5 -78t-31.5 -78.5t-78.5 -32t-78.5 32t-31.5 78.5z" />
<glyph unicode="&#xa9;" horiz-adv-x="1775" d="M127 738q0 333 215 547.5t546.5 214.5t546.5 -214.5t215 -547.5t-215 -547.5t-546.5 -214.5t-546.5 214.5t-215 547.5zM245 738.5q0 -297.5 179.5 -481t464 -183.5t464 183.5t179.5 481t-179.5 481t-464 183.5t-464 -183.5t-179.5 -481zM459 738q0 200 127 332t336 132 q107 0 195.5 -31.5t88.5 -61.5v-145q0 -10 -7 -21t-18 -11q-23 0 -36 32q-20 82 -80.5 128.5t-142.5 46.5q-152 0 -241 -103.5t-89 -263.5t94.5 -286t237.5 -126t223 68q28 24 45 10t17 -24.5t-13 -23.5q-103 -116 -295 -116t-317 132t-125 332z" />
<glyph unicode="&#xaa;" horiz-adv-x="942" d="M147 487v53q0 23 26 23h588q26 0 26 -23v-53q0 -23 -26 -22h-588q-26 0 -26 22zM161 934.5q0 65.5 24 103t53.5 60t83.5 39.5q79 24 132 32t67.5 11t20.5 3q8 5 9 11v126q0 53 -35 84t-91 31t-104.5 -40.5t-67.5 -99.5q-4 -28 -29 -27q-11 0 -19.5 8t-8.5 22v103 q0 23 9 32q86 68 224.5 67.5t195.5 -63t57 -157.5v-366q0 -41 25 -66t56.5 -25t31.5 -26q0 -32 -56 -32q-95 0 -151 70l-8 11q-101 -81 -199.5 -81t-159 52t-60.5 117.5zM298 966q0 -52 34.5 -83t76.5 -31t76 16t48.5 33t14.5 23v173q0 10 -5 10h-7q-238 -28 -238 -141z" />
<glyph unicode="&#xab;" horiz-adv-x="958" d="M105 519q0 8 7 19l285 390q8 17 16 18q8 0 32 -11t14 -32l-177 -384l177 -384q9 -21 -14 -32q-24 -10 -32 -10t-16 16l-285 391q-7 11 -7 19zM455 519q0 8 7 19l285 390q8 17 16 18q8 0 28.5 -10t20.5 -22q0 -5 -2 -11l-178 -384l178 -384q2 -6 2 -10q0 -13 -17 -22 q-24 -10 -32 -10t-16 16l-285 391q-7 11 -7 19z" />
<glyph unicode="&#xac;" horiz-adv-x="1336" d="M127 767v85q0 24 24 24h992q26 0 26 -24v-455q0 -26 -24 -26h-84q-24 0 -23 26v348h-887q-25 0 -24 22z" />
<glyph unicode="&#xad;" horiz-adv-x="769" d="M147 572v99q0 23 26 23h424q26 0 25 -23v-99q0 -24 -25 -24h-424q-26 0 -26 24z" />
<glyph unicode="&#xae;" horiz-adv-x="1775" d="M127 738q0 333 215 547.5t546.5 214.5t546.5 -214.5t215 -547.5t-215 -547.5t-546.5 -214.5t-546.5 214.5t-215 547.5zM245 738.5q0 -297.5 179.5 -481t464 -183.5t464 183.5t179.5 481t-179.5 481t-464 183.5t-464 -183.5t-179.5 -481zM519 1170.5q0 21.5 23 21.5 l175 -4h237q124 0 204 -64.5t80 -163.5t-70.5 -166.5t-163.5 -82.5q19 -9 27 -25l191 -304q25 -40 78 -48l23 -2q23 -4 23 -26t-26 -22q-122 4 -153.5 4.5t-48.5 27.5l-215 357q-23 36 -51 36h-93q-12 0 -12 -9v-320q0 -42 50 -46l55 -2q18 0 18.5 -24t-22.5 -24l-158 5 q-93 -4 -128 -4.5t-39 19.5q0 26 21 28l38 2q44 4 44 46v717q0 40 -50 44l-38 4q-19 4 -19 25.5zM747 789q0 -10 8 -10h157q84 0 140.5 46t56.5 124t-56.5 123.5t-140.5 45.5h-121q-44 0 -44 -45v-284z" />
<glyph unicode="&#xaf;" horiz-adv-x="885" d="M137 1323v128h612v-128h-612z" />
<glyph unicode="&#xb0;" horiz-adv-x="860" d="M127 1198q0 129 87.5 215.5t216 86.5t216 -86.5t87.5 -215.5t-87.5 -215.5t-216 -86.5t-216 86.5t-87.5 215.5zM253 1198q0 -78 50.5 -132t127 -54t127 54t50.5 132t-50.5 131.5t-127 53.5t-127 -53.5t-50.5 -131.5z" />
<glyph unicode="&#xb1;" horiz-adv-x="1505" d="M169 61v84q0 24 25 24h1118q26 0 25 -24v-84q1 -23 -25 -23h-1118q-26 0 -25 23zM169 707v84q0 24 25 24h494v366q0 26 23 25h84q24 0 24 -25v-366h493q26 0 25 -24v-84q1 -23 -25 -23h-493v-368q0 -26 -24 -25h-84q-24 0 -23 25v368h-494q-26 0 -25 23z" />
<glyph unicode="&#xb2;" horiz-adv-x="761" d="M127 666v11q0 8 12 34q93 139 152 220t89 128q87 129 87 217q0 129 -117 129q-88 0 -126 -114q-7 -32 -38.5 -31.5t-31.5 35.5v88q0 30 62 62t159.5 32t163 -58t65.5 -151q0 -97 -81 -205q-30 -38 -117.5 -143t-123.5 -155h254q29 0 38.5 17t26.5 17t25 -10t6 -26l-4 -75 q-2 -21 -16 -34.5t-30 -13.5h-425q-30 0 -30 26z" />
<glyph unicode="&#xb3;" horiz-adv-x="704" d="M127 1295v88q0 32 58 63t148.5 31t156 -42t65.5 -125q0 -107 -163 -215q81 -20 133.5 -73.5t52.5 -140t-67 -151.5q-119 -114 -336 -114q-44 0 -44 38q0 34 42 38q268 24 268 192q0 137 -183 141q-51 0 -51 36q0 18 12 28q113 63 156 115t43 100q0 99 -96 99 q-76 0 -115 -87q-19 -54 -48 -54q-13 0 -22.5 11t-9.5 22z" />
<glyph unicode="&#xb4;" horiz-adv-x="727" d="M137 1270l318 278q21 19 52 19.5t57 -30.5t26 -72.5t-39 -61.5l-376 -183z" />
<glyph unicode="&#xb5;" horiz-adv-x="1324" d="M32 1021q0 25 29 30l279 27h10q42 0 42 -34q0 -4 -10.5 -25t-10.5 -53v-630q4 -125 85.5 -196.5t207 -71.5t213 95t87.5 215v538q0 42 -18 59t-56 17h-93q-10 0 -20 8t-10 21q0 25 30 30l296 27h10q42 0 42 -34q0 -4 -8 -25t-8 -53v-774q0 -68 42 -109t101 -41 q32 0 32 -26q0 -40 -82 -40q-125 0 -218 104q-6 7 -12.5 15t-10.5 14q-9 10 -18 11t-29 -17q-143 -127 -303 -127t-260 62v-384q0 -26 -23 -25h-118q-24 0 -23 25v1262q0 42 -18 59t-56 17h-72q-11 0 -20 8t-9 21z" />
<glyph unicode="&#xb6;" horiz-adv-x="1516" d="M105 1069q0 185 136.5 296.5t378.5 111.5h471l290 8q30 0 30 -30q0 -23 -23 -27l-61 -7q-97 -8 -97 -84v-1649q0 -80 86 -87l61 -4q26 -2 26 -32q0 -25 -32 -24l-284 8q-24 0 -24 25v1809h-211v-1809q0 -26 -23 -25l-320 -8q-30 0 -30 28t23 28l88 4q40 2 68 25.5 t28 61.5v926q0 26 -32 26h-59q-223 0 -356.5 122t-133.5 307z" />
<glyph unicode="&#xb7;" horiz-adv-x="511" d="M127 721.5q0 53.5 38 92t90.5 38.5t91.5 -37.5t39 -92t-39 -92.5t-91.5 -38t-90.5 38t-38 91.5z" />
<glyph unicode="&#xb8;" horiz-adv-x="638" d="M137 -428q40 -13 95 -13t95 26.5t40 75t-40 80t-78 40.5l-40 8l89 211l73 -10l-44 -121q6 -2 18.5 -5t42.5 -17t53 -32q61 -51 61 -139.5t-76 -142.5t-181 -54q-52 0 -108 17v76z" />
<glyph unicode="&#xb9;" horiz-adv-x="640" d="M127 1417.5q0 27.5 27 31.5q144 21 202 28q32 0 32 -28v-717q0 -30 38 -34l59 -2q30 0 30 -30q0 -12 -10 -22t-22 -10l-156 6l-164 -6q-32 0 -32 31t30 31l58 2q47 4 47 34v631q0 34 -38 30l-74 -3q-27 0 -27 27.5z" />
<glyph unicode="&#xba;" horiz-adv-x="1003" d="M147 487v53q0 23 26 23h658q26 0 25 -23v-53q0 -23 -25 -22h-658q-26 0 -26 22zM147 1131.5q0 161.5 98.5 265t258.5 103.5t256 -102.5t96 -266t-96 -265t-258 -101.5t-258.5 102.5t-96.5 264zM284 1158q0 -124 50 -222.5t164 -98.5t167.5 73t53.5 192.5t-31.5 193 t-75.5 103t-108 29.5q-110 0 -165 -73t-55 -197z" />
<glyph unicode="&#xbb;" horiz-adv-x="958" d="M147 125q0 4 2 10l178 384l-178 384q-2 6 -2 11q0 12 18 20q23 11 31.5 11.5t16.5 -17.5l284 -390q7 -11 7 -19t-7 -19l-284 -391q-8 -16 -17 -16t-29 9.5t-20 22.5zM500 135l177 384l-177 384q-9 21 15 31q24 11 32 11.5t16 -17.5l285 -390q6 -11 6 -19t-6 -19 l-285 -391q-8 -16 -17 -16q-8 0 -31.5 10.5t-14.5 31.5z" />
<glyph unicode="&#xbc;" horiz-adv-x="1600" d="M127 1417.5q0 27.5 27 31.5q144 21 202 28q32 0 32 -28v-717q0 -30 38 -34l59 -2q30 0 30 -30q0 -12 -10 -22t-22 -10l-156 6l-164 -6q-32 0 -32 31t30 31l58 2q47 4 47 34v631q0 34 -38 30l-74 -3q-27 0 -27 27.5zM314.5 -40q-0.5 8 3.5 16l821 1524q13 25 38 25h73 q17 0 17.5 -8.5t-3.5 -16.5l-821 -1524q-12 -24 -38 -24h-73q-17 0 -17.5 8zM878 249v13q0 14 12 32l376 521q18 23 42 22h23q38 0 38 -42v-479h70q36 0 36 -34v-24q0 -37 -36 -37h-70v-183q0 -38 -36 -38h-49q-40 0 -40 38v183h-337q-29 0 -29 28zM1012 316h232v330z" />
<glyph unicode="&#xbd;" horiz-adv-x="1632" d="M127 1417.5q0 27.5 27 31.5q144 21 202 28q32 0 32 -28v-717q0 -30 38 -34l59 -2q30 0 30 -30q0 -12 -10 -22t-22 -10l-156 6l-164 -6q-32 0 -32 31t30 31l58 2q47 4 47 34v631q0 34 -38 30l-74 -3q-27 0 -27 27.5zM318 -24l821 1524q13 25 38 25h73q26 0 14 -25 l-821 -1524q-12 -24 -38 -24h-73q-26 0 -14 24zM998 28v10q0 8 12 34q93 139 152.5 220t91.5 128q84 129 83 217q0 128 -115 128q-89 0 -127 -113q-6 -32 -38 -32t-32 36v89q0 30 62 61t159.5 31t163 -58t65.5 -151q0 -97 -82 -204q-28 -38 -115.5 -143.5t-123.5 -153.5h253 q30 0 39 17t27 17q36 0 31 -34l-4 -79q-2 -20 -16 -34t-31 -14h-426q-30 0 -29 28z" />
<glyph unicode="&#xbe;" horiz-adv-x="1653" d="M127 1295v88q0 32 58 63t148.5 31t156 -42t65.5 -125q0 -107 -163 -215q81 -20 133.5 -73.5t52.5 -140t-67 -151.5q-119 -114 -336 -114q-44 0 -44 38q0 34 42 38q268 24 268 192q0 137 -183 141q-51 0 -51 36q0 18 12 28q113 63 156 115t43 100q0 99 -96 99 q-76 0 -115 -87q-19 -54 -48 -54q-13 0 -22.5 11t-9.5 22zM369.5 -40q-0.5 8 3.5 16l821 1524q12 25 38 25h74q17 0 17 -8.5t-5 -16.5l-821 -1524q-12 -24 -38 -24h-73q-16 0 -16.5 8zM930 249v13q0 14 12 32l376 521q19 23 43 22h22q38 0 38 -42v-479h70q36 0 36 -34v-24 q0 -37 -36 -37h-70v-183q0 -38 -35 -38h-49q-40 0 -39 38v183h-338q-30 0 -30 28zM1065 316h233v330z" />
<glyph unicode="&#xbf;" horiz-adv-x="801" d="M63 -154q0 134 120 266q51 55 104 114q127 141 150 342q0 22 28 22h20q26 0 29 -31.5t3 -82t-18 -127.5t-57 -143.5t-79 -125.5q-101 -143 -101 -242.5t49 -150t131.5 -50.5t131 49.5t85.5 132t67 82.5q15 0 24 -13t9 -23v-167q0 -46 -93.5 -94.5t-244.5 -48.5 t-254.5 73.5t-103.5 217.5zM346 948q0 54 39 92t91.5 38t91 -38t38.5 -91t-38.5 -91.5t-92 -38.5t-91.5 37.5t-38 91.5z" />
<glyph unicode="&#xc0;" horiz-adv-x="1512" d="M-21.5 20q0.5 28 23.5 28l40 5q91 10 123 86l542 1336q8 26 49 25.5t52 -25.5l540 -1336q28 -78 120 -86l44 -5q8 0 15 -8t7 -16q0 -32 -30 -32l-242 8l-218 -8q-29 0 -29 24q0 30 25 32l49 5q28 2 45.5 21t17.5 36t-7 29l-124 323q-6 21 -34 21h-546q-26 0 -34 -21 l-125 -323q-4 -12 -4 -28t17 -36t47 -22l46 -5q28 -4 27 -27q0 -30 -31 -29l-183 8l-193 -8q-30 0 -29.5 28zM462 602q-7 -22 17 -22h471q23 0 14 26l-251 644zM487 1886.5q0 41.5 26.5 72.5t56 31t52.5 -20l318 -278l-37 -50l-376 183q-40 20 -40 61.5z" />
<glyph unicode="&#xc1;" horiz-adv-x="1512" d="M-21.5 20q0.5 28 23.5 28l40 5q91 10 123 86l542 1336q8 26 49 25.5t52 -25.5l540 -1336q28 -78 120 -86l44 -5q8 0 15 -8t7 -16q0 -32 -30 -32l-242 8l-218 -8q-29 0 -29 24q0 30 25 32l49 5q28 2 45.5 21t17.5 36t-7 29l-124 323q-6 21 -34 21h-546q-26 0 -34 -21 l-125 -323q-4 -12 -4 -28t17 -36t47 -22l46 -5q28 -4 27 -27q0 -30 -31 -29l-183 8l-193 -8q-30 0 -29.5 28zM462 602q-7 -22 17 -22h471q23 0 14 26l-251 644zM592 1691l320 279q20 19 51 19t57 -30.5t26 -71.5t-40 -62l-376 -184z" />
<glyph unicode="&#xc2;" horiz-adv-x="1512" d="M-21.5 20q0.5 28 23.5 28l40 5q91 10 123 86l542 1336q8 26 49 25.5t52 -25.5l540 -1336q28 -78 120 -86l44 -5q8 0 15 -8t7 -16q0 -32 -30 -32l-242 8l-218 -8q-29 0 -29 24q0 30 25 32l49 5q28 2 45.5 21t17.5 36t-7 29l-124 323q-6 21 -34 21h-546q-26 0 -34 -21 l-125 -323q-4 -12 -4 -28t17 -36t47 -22l46 -5q28 -4 27 -27q0 -30 -31 -29l-183 8l-193 -8q-30 0 -29.5 28zM428 1720l328 288l326 -288l-38 -50l-288 161l-290 -161zM462 602q-7 -22 17 -22h471q23 0 14 26l-251 644z" />
<glyph unicode="&#xc3;" horiz-adv-x="1512" d="M-21.5 20q0.5 28 23.5 28l40 5q91 10 123 86l542 1336q8 26 49 25.5t52 -25.5l540 -1336q28 -78 120 -86l44 -5q8 0 15 -8t7 -16q0 -32 -30 -32l-242 8l-218 -8q-29 0 -29 24q0 30 25 32l49 5q28 2 45.5 21t17.5 36t-7 29l-124 323q-6 21 -34 21h-546q-26 0 -34 -21 l-125 -323q-4 -12 -4 -28t17 -36t47 -22l46 -5q28 -4 27 -27q0 -30 -31 -29l-183 8l-193 -8q-30 0 -29.5 28zM378 1737q10 54 73.5 123.5t170.5 69.5q61 0 164.5 -48.5t146.5 -48.5t77 25.5t45 50.5l10 25l68 -32q-10 -54 -74 -123.5t-171 -69.5q-57 0 -151.5 48.5 t-148.5 48.5t-87.5 -25.5t-45.5 -51.5l-10 -24zM462 602q-7 -22 17 -22h471q23 0 14 26l-251 644z" />
<glyph unicode="&#xc4;" horiz-adv-x="1512" d="M-21.5 20q0.5 28 23.5 28l40 5q91 10 123 86l542 1336q8 26 49 25.5t52 -25.5l540 -1336q28 -78 120 -86l44 -5q8 0 15 -8t7 -16q0 -32 -30 -32l-242 8l-218 -8q-29 0 -29 24q0 30 25 32l49 5q28 2 45.5 21t17.5 36t-7 29l-124 323q-6 21 -34 21h-546q-26 0 -34 -21 l-125 -323q-4 -12 -4 -28t17 -36t47 -22l46 -5q28 -4 27 -27q0 -30 -31 -29l-183 8l-193 -8q-30 0 -29.5 28zM445 1812.5q0 46.5 31.5 78t77.5 31.5t78 -31.5t32 -78t-32 -78.5t-78 -32t-77.5 32t-31.5 78.5zM462 602q-7 -22 17 -22h471q23 0 14 26l-251 644zM847 1812.5 q0 46.5 31.5 78t78.5 31.5t78.5 -31.5t31.5 -78t-31.5 -78.5t-78.5 -32t-78.5 32t-31.5 78.5z" />
<glyph unicode="&#xc5;" horiz-adv-x="1512" d="M-21.5 20q0.5 28 23.5 28l40 5q91 10 123 86l542 1336q8 26 49 25.5t52 -25.5l540 -1336q28 -78 120 -86l44 -5q8 0 15 -8t7 -16q0 -32 -30 -32l-242 8l-218 -8q-29 0 -29 24q0 30 25 32l49 5q28 2 45.5 21t17.5 36t-7 29l-124 323q-6 21 -34 21h-546q-26 0 -34 -21 l-125 -323q-4 -12 -4 -28t17 -36t47 -22l46 -5q28 -4 27 -27q0 -30 -31 -29l-183 8l-193 -8q-30 0 -29.5 28zM462 602q-7 -22 17 -22h471q23 0 14 26l-251 644zM536 1797.5q0 90.5 63 154t156 63.5t156 -63.5t63 -154t-63 -154t-156 -63.5t-156 63.5t-63 154zM640 1797.5 q0 -50.5 32.5 -85.5t82.5 -35t82 35t32 85.5t-32 85.5t-82 35t-82.5 -35t-32.5 -85.5z" />
<glyph unicode="&#xc6;" horiz-adv-x="2347" d="M-24 20q0 28 24 28l40 5q107 12 167 86l1043 1321q17 25 60 25l228 -8h553q40 0 65.5 -24.5t29.5 -59.5l28 -195q5 -38 -29.5 -38t-45.5 34q-32 101 -95 143t-175 42h-331q-47 0 -75 -26t-28 -73v-443q0 -27 27 -27h392q30 0 47 14.5t22 27.5t15 46l9 28q6 26 31.5 26 t25.5 -30l-9 -179l9 -171q0 -28 -27 -32q-28 0 -30 25l-6 39q-19 109 -87 109h-394q-26 0 -25 -29v-490q0 -45 28 -71t75 -26h348q109 0 188.5 54t111.5 157q10 34 34 34t34 -12t7 -26l-33 -220q-4 -36 -31 -60t-64 -24h-791l-239 -8q-30 0 -30 28t24 28l61 5q42 4 70 26 t28 60v323q0 21 -26 21h-588q-28 0 -43 -21l-249 -323q-18 -26 -18 -54t33 -32l46 -5q28 -4 28 -27q0 -30 -32 -29l-206 8l-195 -8q-30 0 -30 28zM707 602q-16 -22 8 -22h515q20 0 26 26v708z" />
<glyph unicode="&#xc7;" horiz-adv-x="1439" d="M105 740q0 329 209 544.5t551 215.5q177 0 321.5 -48.5t144.5 -94.5v-242q0 -14 -9.5 -28t-23.5 -14q-36 0 -48 42q-38 142 -141 222t-244 80q-255 0 -406 -175t-151 -447t159 -485t398 -213q137 0 205.5 26t93 38t62.5 37.5t42 27.5q38 23 52.5 7t14.5 -31t-17 -31 q-72 -80 -147 -121q-137 -74 -327 -74q-329 0 -534 217.5t-205 546.5zM538 -428q40 -13 95 -13t95 26.5t40 75t-40 80t-78 40.5l-40 8l89 211l73 -10l-44 -121q6 -2 18.5 -5t42.5 -17t53 -32q61 -51 61 -139.5t-76 -142.5t-181 -54q-52 0 -108 17v76z" />
<glyph unicode="&#xc8;" horiz-adv-x="1336" d="M63 20q0 28 24 28l60 5q43 4 70.5 26t27.5 60v1198q0 76 -98 84l-60 7q-24 0 -24 28.5t30 28.5l239 -8h748q41 0 66 -24.5t29 -59.5l29 -195q4 -38 -30.5 -38t-44.5 34q-32 101 -95.5 143t-174.5 42h-332q-46 0 -74.5 -26t-28.5 -73v-443q0 -27 27 -27h393q29 0 46 14.5 t22.5 27.5t15.5 46l8 28q6 26 32 26t26 -30l-9 -179l9 -171q0 -28 -28 -32q-26 0 -30 25l-6 39q-18 109 -86 109h-395q-26 0 -25 -29v-490q0 -45 28.5 -71t74.5 -26h349q109 0 188 54t111 157q11 34 35 34t34 -12t6 -26l-33 -220q-4 -36 -30 -60t-64 -24h-791l-239 -8 q-30 0 -30 28zM399 1886.5q0 41.5 26.5 72.5t56 31t52.5 -20l318 -278l-37 -50l-376 183q-40 20 -40 61.5z" />
<glyph unicode="&#xc9;" horiz-adv-x="1336" d="M63 20q0 28 24 28l60 5q43 4 70.5 26t27.5 60v1198q0 76 -98 84l-60 7q-24 0 -24 28.5t30 28.5l239 -8h748q41 0 66 -24.5t29 -59.5l29 -195q4 -38 -30.5 -38t-44.5 34q-32 101 -95.5 143t-174.5 42h-332q-46 0 -74.5 -26t-28.5 -73v-443q0 -27 27 -27h393q29 0 46 14.5 t22.5 27.5t15.5 46l8 28q6 26 32 26t26 -30l-9 -179l9 -171q0 -28 -28 -32q-26 0 -30 25l-6 39q-18 109 -86 109h-395q-26 0 -25 -29v-490q0 -45 28.5 -71t74.5 -26h349q109 0 188 54t111 157q11 34 35 34t34 -12t6 -26l-33 -220q-4 -36 -30 -60t-64 -24h-791l-239 -8 q-30 0 -30 28zM483 1691l318 279q24 19 53.5 19t55.5 -30.5t26 -71.5t-40 -62l-375 -184z" />
<glyph unicode="&#xca;" horiz-adv-x="1336" d="M63 20q0 28 24 28l60 5q43 4 70.5 26t27.5 60v1198q0 76 -98 84l-60 7q-24 0 -24 28.5t30 28.5l239 -8h748q41 0 66 -24.5t29 -59.5l29 -195q4 -38 -30.5 -38t-44.5 34q-32 101 -95.5 143t-174.5 42h-332q-46 0 -74.5 -26t-28.5 -73v-443q0 -27 27 -27h393q29 0 46 14.5 t22.5 27.5t15.5 46l8 28q6 26 32 26t26 -30l-9 -179l9 -171q0 -28 -28 -32q-26 0 -30 25l-6 39q-18 109 -86 109h-395q-26 0 -25 -29v-490q0 -45 28.5 -71t74.5 -26h349q109 0 188 54t111 157q11 34 35 34t34 -12t6 -26l-33 -220q-4 -36 -30 -60t-64 -24h-791l-239 -8 q-30 0 -30 28zM342 1720l328 288l326 -288l-38 -50l-288 161l-290 -161z" />
<glyph unicode="&#xcb;" horiz-adv-x="1336" d="M63 20q0 28 24 28l60 5q43 4 70.5 26t27.5 60v1198q0 76 -98 84l-60 7q-24 0 -24 28.5t30 28.5l239 -8h748q41 0 66 -24.5t29 -59.5l29 -195q4 -38 -30.5 -38t-44.5 34q-32 101 -95.5 143t-174.5 42h-332q-46 0 -74.5 -26t-28.5 -73v-443q0 -27 27 -27h393q29 0 46 14.5 t22.5 27.5t15.5 46l8 28q6 26 32 26t26 -30l-9 -179l9 -171q0 -28 -28 -32q-26 0 -30 25l-6 39q-18 109 -86 109h-395q-26 0 -25 -29v-490q0 -45 28.5 -71t74.5 -26h349q109 0 188 54t111 157q11 34 35 34t34 -12t6 -26l-33 -220q-4 -36 -30 -60t-64 -24h-791l-239 -8 q-30 0 -30 28zM356 1811.5q0 46.5 32 78.5t78.5 32t78 -32t31.5 -78.5t-31.5 -77.5t-78 -31t-78.5 31t-32 77.5zM759 1811.5q0 46.5 32 78.5t78.5 32t77.5 -32t31 -78.5t-31 -77.5t-77.5 -31t-78.5 31t-32 77.5z" />
<glyph unicode="&#xcc;" horiz-adv-x="668" d="M63 1455q0 30 30 30l239 -8l208 8q32 0 32 -25q0 -30 -28 -32l-35 -7q-85 -14 -85 -84v-1198q0 -38 27.5 -60t67.5 -26l61 -5q26 0 26 -27q0 -13 -10 -21t-20 -8l-238 8l-209 -8q-30 0 -30 26t24 30l36 5q86 10 86 86v1198q0 76 -98 84l-60 7q-24 4 -24 27zM65 1886.5 q0 41.5 26.5 72.5t56 31t52.5 -20l318 -278l-37 -50l-376 183q-40 20 -40 61.5z" />
<glyph unicode="&#xcd;" horiz-adv-x="668" d="M63 1455q0 30 30 30l239 -8l208 8q32 0 32 -25q0 -30 -28 -32l-35 -7q-85 -14 -85 -84v-1198q0 -38 27.5 -60t67.5 -26l61 -5q26 0 26 -27q0 -13 -10 -21t-20 -8l-238 8l-209 -8q-30 0 -30 26t24 30l36 5q86 10 86 86v1198q0 76 -98 84l-60 7q-24 4 -24 27zM149 1691 l320 279q20 19 51 19t57.5 -30.5t26.5 -71.5t-41 -62l-376 -184z" />
<glyph unicode="&#xce;" horiz-adv-x="668" d="M8 1720l328 288l326 -288l-38 -50l-288 161l-290 -161zM63 1455q0 30 30 30l239 -8l208 8q32 0 32 -25q0 -30 -28 -32l-35 -7q-85 -14 -85 -84v-1198q0 -38 27.5 -60t67.5 -26l61 -5q26 0 26 -27q0 -13 -10 -21t-20 -8l-238 8l-209 -8q-30 0 -30 26t24 30l36 5 q86 10 86 86v1198q0 76 -98 84l-60 7q-24 4 -24 27z" />
<glyph unicode="&#xcf;" horiz-adv-x="668" d="M24 1811.5q0 46.5 31.5 78.5t77.5 32t78 -32t32 -78.5t-32 -77.5t-78 -31t-77.5 31t-31.5 77.5zM63 1455q0 30 30 30l239 -8l208 8q32 0 32 -25q0 -30 -28 -32l-35 -7q-85 -14 -85 -84v-1198q0 -38 27.5 -60t67.5 -26l61 -5q26 0 26 -27q0 -13 -10 -21t-20 -8l-238 8 l-209 -8q-30 0 -30 26t24 30l36 5q86 10 86 86v1198q0 76 -98 84l-60 7q-24 4 -24 27zM426 1811.5q0 46.5 31.5 78.5t78 32t78.5 -32t32 -78.5t-32 -77.5t-78.5 -31t-78 31t-31.5 77.5z" />
<glyph unicode="&#xd0;" horiz-adv-x="1562" d="M63 18q0 28 24 28l60 4q43 5 70.5 27t27.5 60v428h-154q-26 0 -26 23v58q0 22 26 22h154v669q0 76 -98 84l-60 7q-24 4 -24 27q0 30 30 30l263 -8h363q338 0 538 -195t200 -518t-207.5 -543.5t-530.5 -220.5h-363l-263 -10q-30 0 -30 28zM424 194q0 -45 28.5 -71 t74.5 -26h201q243 0 388.5 167t145.5 432t-127 464q-63 101 -171 160t-247 59h-190q-46 0 -74.5 -25t-28.5 -74v-612h299q26 0 26 -22v-58q0 -24 -26 -23h-299v-371z" />
<glyph unicode="&#xd1;" horiz-adv-x="1606" d="M63 19q0 25 24 29l60 7q97 10 98 84v1198q0 74 -84 84l-38 5q-26 4 -26 30.5t32 26.5l169 -6q60 -2 92 -40l880 -1129q6 -6 14.5 -6t8.5 12v1023q0 74 -95 84l-61 7q-24 4 -24 29.5t30 25.5l205 -6l164 6q32 0 32 -25t-27 -30l-36 -7q-84 -14 -84 -84v-1335 q0 -26 -24 -26h-27q-52 0 -90 52l-889 1136q-4 4 -12.5 4.5t-8.5 -21.5v-1008q0 -70 85 -84l36 -7q27 -4 26.5 -29t-31.5 -25l-164 6l-205 -6q-30 0 -30 25zM426 1736q10 55 73.5 124.5t171.5 69.5q61 0 164.5 -48.5t146.5 -48.5t76.5 25.5t45.5 50.5l10 25l67 -31 q-10 -54 -73.5 -124.5t-170.5 -70.5q-57 0 -152 48.5t-148.5 48.5t-87.5 -25t-45 -50l-10 -26z" />
<glyph unicode="&#xd2;" horiz-adv-x="1687" d="M105 737q0 330 205 546.5t537 216.5t533.5 -212.5t201.5 -545.5t-205.5 -549.5t-533.5 -216.5t-533 215.5t-205 545.5zM304 819q0 -280 127 -503q60 -109 170 -175.5t251 -66.5q251 0 391 164.5t140.5 443t-121.5 487.5q-61 107 -169 170.5t-251 63.5q-258 0 -398 -157 t-140 -427zM616 1886.5q0 41.5 26.5 72.5t56 31t52.5 -20l318 -278l-37 -50l-376 183q-40 20 -40 61.5z" />
<glyph unicode="&#xd3;" horiz-adv-x="1687" d="M105 737q0 330 205 546.5t537 216.5t533.5 -212.5t201.5 -545.5t-205.5 -549.5t-533.5 -216.5t-533 215.5t-205 545.5zM304 819q0 -280 127 -503q60 -109 170 -175.5t251 -66.5q251 0 391 164.5t140.5 443t-121.5 487.5q-61 107 -169 170.5t-251 63.5q-258 0 -398 -157 t-140 -427zM616 1691l318 279q21 19 52 19t57 -30.5t26 -71.5t-40 -62l-375 -184z" />
<glyph unicode="&#xd4;" horiz-adv-x="1687" d="M105 737q0 330 205 546.5t537 216.5t533.5 -212.5t201.5 -545.5t-205.5 -549.5t-533.5 -216.5t-533 215.5t-205 545.5zM304 819q0 -280 127 -503q60 -109 170 -175.5t251 -66.5q251 0 391 164.5t140.5 443t-121.5 487.5q-61 107 -169 170.5t-251 63.5q-258 0 -398 -157 t-140 -427zM517 1720l328 288l326 -288l-38 -50l-288 161l-290 -161z" />
<glyph unicode="&#xd5;" horiz-adv-x="1687" d="M105 737q0 330 205 546.5t537 216.5t533.5 -212.5t201.5 -545.5t-205.5 -549.5t-533.5 -216.5t-533 215.5t-205 545.5zM304 819q0 -280 127 -503q60 -109 170 -175.5t251 -66.5q251 0 391 164.5t140.5 443t-121.5 487.5q-61 107 -169 170.5t-251 63.5q-258 0 -398 -157 t-140 -427zM467 1737q10 54 73.5 123.5t170.5 69.5q60 0 163.5 -48.5t147 -48.5t77.5 25.5t44 50.5l11 25l68 -32q-11 -54 -74.5 -123.5t-171.5 -69.5q-56 0 -151 48.5t-149 48.5t-87.5 -25.5t-44.5 -51.5l-10 -24z" />
<glyph unicode="&#xd6;" horiz-adv-x="1687" d="M105 737q0 330 205 546.5t537 216.5t533.5 -212.5t201.5 -545.5t-205.5 -549.5t-533.5 -216.5t-533 215.5t-205 545.5zM304 819q0 -280 127 -503q60 -109 170 -175.5t251 -66.5q251 0 391 164.5t140.5 443t-121.5 487.5q-61 107 -169 170.5t-251 63.5q-258 0 -398 -157 t-140 -427zM532 1812.5q0 46.5 31.5 78t77.5 31.5t78 -31.5t32 -78t-32 -78.5t-78 -32t-77.5 32t-31.5 78.5zM934 1812.5q0 46.5 31.5 78t78.5 31.5t78.5 -31.5t31.5 -78t-31.5 -78.5t-78.5 -32t-78.5 32t-31.5 78.5z" />
<glyph unicode="&#xd7;" horiz-adv-x="1302" d="M127 181.5q0 8.5 8 17.5l424 423l-424 424q-8 9 -8 17t8 17l59 59q8 8 17 8l17 -8l424 -424l423 424q9 8 18 8l16 -8l60 -59q8 -8 8 -16.5t-8 -17.5l-424 -424l424 -423q8 -8 8 -17t-8 -17l-60 -60q-8 -8 -16 -8l-18 8l-423 424l-424 -424q-9 -8 -17 -8l-17 8l-59 60 q-8 8 -8 16.5z" />
<glyph unicode="&#xd8;" horiz-adv-x="1687" d="M99 12q0 7 6 14l179 191q-179 214 -179 532t205 534.5t534 216.5q291 0 487 -167l112 118q26 26 42 26h89q14 0 14 -13q0 -7 -6 -13l-177 -189q177 -207 177 -530t-205.5 -539.5t-514.5 -216.5t-506 169l-111 -119q-26 -26 -42 -26h-89q-14 0 -15 12zM304 817.5 q0 -271.5 105 -467.5l817 870q-141 183 -391.5 183t-390.5 -157t-140 -428.5zM467 262q143 -188 389.5 -188t386.5 164.5t140 431t-101 463.5z" />
<glyph unicode="&#xd9;" horiz-adv-x="1630" d="M63 1455q0 30 30 30l239 -8l208 8q32 0 32 -25q0 -30 -28 -32l-35 -7q-85 -14 -85 -84v-797q0 -196 118 -305.5t311 -109.5t312 111.5t119 303.5v797q0 70 -84 84l-36 7q-28 4 -27.5 29.5t32.5 25.5l164 -6l205 6q30 0 30 -25t-24 -30l-61 -7q-97 -10 -97 -84v-795 q0 -260 -159.5 -413t-408 -153t-411 158.5t-162.5 407.5v795q0 76 -98 84l-60 7q-24 4 -24 27zM504 1886.5q0 41.5 26.5 72.5t56 31t52.5 -20l318 -278l-37 -50l-376 183q-40 20 -40 61.5z" />
<glyph unicode="&#xda;" horiz-adv-x="1630" d="M63 1455q0 30 30 30l239 -8l208 8q32 0 32 -25q0 -30 -28 -32l-35 -7q-85 -14 -85 -84v-797q0 -196 118 -305.5t311 -109.5t312 111.5t119 303.5v797q0 70 -84 84l-36 7q-28 4 -27.5 29.5t32.5 25.5l164 -6l205 6q30 0 30 -25t-24 -30l-61 -7q-97 -10 -97 -84v-795 q0 -260 -159.5 -413t-408 -153t-411 158.5t-162.5 407.5v795q0 76 -98 84l-60 7q-24 4 -24 27zM736 1691l319 279q20 19 51 19t57.5 -30.5t26.5 -71.5t-41 -62l-374 -184z" />
<glyph unicode="&#xdb;" horiz-adv-x="1630" d="M63 1455q0 30 30 30l239 -8l208 8q32 0 32 -25q0 -30 -28 -32l-35 -7q-85 -14 -85 -84v-797q0 -196 118 -305.5t311 -109.5t312 111.5t119 303.5v797q0 70 -84 84l-36 7q-28 4 -27.5 29.5t32.5 25.5l164 -6l205 6q30 0 30 -25t-24 -30l-61 -7q-97 -10 -97 -84v-795 q0 -260 -159.5 -413t-408 -153t-411 158.5t-162.5 407.5v795q0 76 -98 84l-60 7q-24 4 -24 27zM519 1720l328 288l326 -288l-38 -50l-288 161l-290 -161z" />
<glyph unicode="&#xdc;" horiz-adv-x="1630" d="M63 1455q0 30 30 30l239 -8l208 8q32 0 32 -25q0 -30 -28 -32l-35 -7q-85 -14 -85 -84v-797q0 -196 118 -305.5t311 -109.5t312 111.5t119 303.5v797q0 70 -84 84l-36 7q-28 4 -27.5 29.5t32.5 25.5l164 -6l205 6q30 0 30 -25t-24 -30l-61 -7q-97 -10 -97 -84v-795 q0 -260 -159.5 -413t-408 -153t-411 158.5t-162.5 407.5v795q0 76 -98 84l-60 7q-24 4 -24 27zM536 1811.5q0 46.5 31.5 78.5t78 32t78 -32t31.5 -78.5t-31.5 -77.5t-78 -31t-78 31t-31.5 77.5zM938 1811.5q0 46.5 32 78.5t78.5 32t78 -32t31.5 -78.5t-31.5 -77.5t-78 -31 t-78.5 31t-32 77.5z" />
<glyph unicode="&#xdd;" horiz-adv-x="1501" d="M0 1457.5q0 25.5 30 25.5l250 -6l224 4q32 0 32 -27.5t-25 -30.5l-40 -4q-38 -4 -50 -31t5 -51l367 -603q8 -14 19 -14.5t19 10.5l361 607q16 24 5 50t-50 32l-40 4q-30 5 -24 32q2 26 30 26l165 -4l205 6q30 0 29.5 -25t-23.5 -30l-61 -7q-70 -6 -120 -84l-412 -658 q-26 -45 -29 -99v-441q0 -38 27.5 -60t67.5 -26l61 -5q26 0 26 -27q0 -13 -10 -21t-20 -8l-238 8l-211 -8q-30 0 -30 26t23 30l36 5q87 10 87 86v412q0 40 -20 73l-459 713q-50 78 -123 84l-60 7q-24 4 -24 29.5zM650 1691l318 279q21 19 52 19t57 -30.5t26 -71.5t-40 -62 l-375 -184z" />
<glyph unicode="&#xde;" horiz-adv-x="1290" d="M63 16q0 30 26 32l60 5q87 6 87 86v1198q0 80 -87 86l-60 5q-26 2 -26 32q0 25 32 25l234 -8l263 8q30 0 30 -28.5t-23 -28.5l-88 -5q-40 -2 -68 -25t-28 -61v-141q0 -26 32 -25l224 2h11q240 0 372 -93t132 -273.5t-130 -283.5t-360 -103h-249q-32 0 -32 -26v-255 q0 -38 28 -61t68 -25l88 -5q24 0 23.5 -28t-30.5 -28l-263 8l-234 -8q-32 0 -32 24zM415 544q0 -28 24 -27h187q179 0 272.5 72.5t93.5 211.5q0 278 -366 279h-126q-85 0 -85 -84v-452z" />
<glyph unicode="&#xdf;" horiz-adv-x="1307" d="M42 19q0 27 26 29l35 5q84 10 84 86v768q0 256 128 424.5t362 168.5q167 0 268 -81.5t101 -203.5t-92 -192q-38 -30 -76 -57q-91 -61 -91 -136t47.5 -125.5t115 -86.5t133.5 -76t113.5 -108.5t47.5 -161.5q0 -133 -106.5 -214.5t-259 -81.5t-254 36t-101.5 81v183 q0 38 29.5 38t37.5 -38q65 -217 275 -217q95 0 156.5 47.5t61.5 119.5t-46.5 121.5t-112 84.5t-131 73.5t-112.5 103t-47 138.5t25 120.5t60.5 78.5t69.5 66q84 81 84 180t-63 153t-166 54q-139 0 -215.5 -94t-76.5 -263v-1016q0 -26 -23 -26l-255 -8q-32 0 -32 27z" />
<glyph unicode="&#xe0;" horiz-adv-x="1077" d="M105 245q0 149 131 228q116 68 363 105q59 10 80 14q28 2 28 30v195q0 86 -58.5 136.5t-154 50.5t-172.5 -59t-98 -164q-7 -32 -35 -32t-28 32v157q0 36 22 54q113 86 321.5 86t293 -91t84.5 -234v-563q0 -68 43 -110t102 -42q30 0 30 -28q0 -34 -76 -34q-131 0 -222 104 q-14 15 -21.5 15t-22.5 -13q-137 -105 -308 -106q-121 0 -211.5 75.5t-90.5 193.5zM270 1464.5q0 41.5 26.5 72.5t56 31t52.5 -20l318 -278l-37 -50l-376 183q-40 20 -40 61.5zM291 270q0 -87 57 -136.5t127.5 -49.5t124.5 27.5t78 55.5t24 40v264q0 32 -27 31h-7 q-378 -47 -377 -232z" />
<glyph unicode="&#xe1;" horiz-adv-x="1077" d="M105 245q0 149 131 228q116 68 363 105q59 10 80 14q28 2 28 30v195q0 86 -58.5 136.5t-154 50.5t-172.5 -59t-98 -164q-7 -32 -35 -32t-28 32v157q0 36 22 54q113 86 321.5 86t293 -91t84.5 -234v-563q0 -68 43 -110t102 -42q30 0 30 -28q0 -34 -76 -34q-131 0 -222 104 q-14 15 -21.5 15t-22.5 -13q-137 -105 -308 -106q-121 0 -211.5 75.5t-90.5 193.5zM270 1270l318 278q24 19 53.5 19.5t55.5 -30.5t26 -72.5t-39 -61.5l-376 -183zM291 270q0 -87 57 -136.5t127.5 -49.5t124.5 27.5t78 55.5t24 40v264q0 36 -34 31q-378 -47 -377 -232z" />
<glyph unicode="&#xe2;" horiz-adv-x="1077" d="M105 245q0 149 131 228q116 68 363 105q59 10 80 14q28 2 28 30v195q0 86 -58.5 136.5t-154 50.5t-172.5 -59t-98 -164q-7 -32 -35 -32t-28 32v157q0 36 22 54q113 86 321.5 86t293 -91t84.5 -234v-563q0 -68 43 -110t102 -42q30 0 30 -28q0 -34 -76 -34q-131 0 -222 104 q-14 15 -21.5 15t-22.5 -13q-137 -105 -308 -106q-121 0 -211.5 75.5t-90.5 193.5zM196 1298l328 288l326 -288l-38 -50l-288 161l-290 -161zM291 270q0 -87 57 -136.5t127.5 -49.5t124.5 27.5t78 55.5t24 40v264q0 32 -27 31h-7q-378 -47 -377 -232z" />
<glyph unicode="&#xe3;" horiz-adv-x="1077" d="M105 245q0 149 131 228q116 68 363 105q59 10 80 14q28 2 28 30v195q0 86 -58.5 136.5t-154 50.5t-172.5 -59t-98 -164q-7 -32 -35 -32t-28 32v157q0 36 22 54q113 86 321.5 86t293 -91t84.5 -234v-563q0 -68 43 -110t102 -42q30 0 30 -28q0 -34 -76 -34q-131 0 -222 104 q-14 15 -21.5 15t-22.5 -13q-137 -105 -308 -106q-121 0 -211.5 75.5t-90.5 193.5zM149 1314q11 55 74.5 124.5t170.5 69.5q61 0 164.5 -48.5t147 -48.5t77.5 25.5t44 50.5l10 25l68 -31q-10 -54 -74 -124.5t-171 -70.5q-56 0 -151.5 48.5t-149 48.5t-87.5 -25t-44 -50 l-11 -26zM291 270q0 -87 57 -136.5t127.5 -49.5t124.5 27.5t78 55.5t24 40v264q0 36 -34 31q-378 -47 -377 -232z" />
<glyph unicode="&#xe4;" horiz-adv-x="1077" d="M105 245q0 149 131 228q116 68 363 105q59 10 80 14q28 2 28 30v195q0 86 -58.5 136.5t-154 50.5t-172.5 -59t-98 -164q-7 -32 -35 -32t-28 32v157q0 36 22 54q113 86 321.5 86t293 -91t84.5 -234v-563q0 -68 43 -110t102 -42q30 0 30 -28q0 -34 -76 -34q-131 0 -222 104 q-14 15 -21.5 15t-22.5 -13q-137 -105 -308 -106q-121 0 -211.5 75.5t-90.5 193.5zM216 1390.5q0 46.5 31.5 78t77.5 31.5t78 -31.5t32 -78t-32 -78.5t-78 -32t-77.5 32t-31.5 78.5zM291 270q0 -87 57 -136.5t127.5 -49.5t124.5 27.5t78 55.5t24 40v264q0 32 -27 31h-7 q-378 -47 -377 -232zM618 1390.5q0 46.5 31.5 78t78.5 31.5t78.5 -31.5t31.5 -78t-31.5 -78.5t-78.5 -32t-78.5 32t-31.5 78.5z" />
<glyph unicode="&#xe5;" horiz-adv-x="1077" d="M105 245q0 149 131 228q116 68 363 105q59 10 80 14q28 2 28 30v195q0 86 -58.5 136.5t-154 50.5t-172.5 -59t-98 -164q-7 -32 -35 -32t-28 32v157q0 36 22 54q113 86 321.5 86t293 -91t84.5 -234v-563q0 -68 43 -110t102 -42q30 0 30 -28q0 -34 -76 -34q-131 0 -222 104 q-14 15 -21.5 15t-22.5 -13q-137 -105 -308 -106q-121 0 -211.5 75.5t-90.5 193.5zM291 270q0 -87 57 -136.5t127.5 -49.5t124.5 27.5t78 55.5t24 40v264q0 36 -34 31q-378 -47 -377 -232zM298 1439q0 91 63 154t156 63t156 -63t63 -154t-63 -154t-156 -63t-156 63t-63 154z M401 1438.5q0 -50.5 33 -85.5t83.5 -35t81.5 35t31 85.5t-31 85t-81.5 34.5t-83.5 -34.5t-33 -85z" />
<glyph unicode="&#xe6;" horiz-adv-x="1741" d="M105 245q0 149 131 228q116 68 363 105q59 10 80 14q28 2 28 30v195q0 86 -58.5 136.5t-154 50.5t-172.5 -59t-98 -164q-7 -32 -35 -32t-28 32v157q0 36 22 54q113 86 348.5 86t316.5 -162q145 162 348 162t327 -117t124 -295q0 -126 -113 -126h-608q-26 0 -26 -36 q4 -194 113.5 -307t276.5 -113t248 65q28 21 51 -1.5t-7 -52.5q-118 -119 -324 -119q-296 0 -443 191q-117 -112 -211.5 -151.5t-205.5 -39.5t-202 75.5t-91 193.5zM291 270q0 -87 57 -136.5t127.5 -49.5t124.5 27.5t78 55.5t24 40v264q0 32 -27 31h-7q-378 -47 -377 -232z M900 662q0 -34 28 -34h465q64 1 64 66q0 127 -68.5 214.5t-192 87.5t-210 -101.5t-86.5 -232.5z" />
<glyph unicode="&#xe7;" horiz-adv-x="1107" d="M105 546q0 217 153 374.5t376 157.5q155 0 258.5 -47.5t103.5 -102.5v-183q0 -36 -30 -36q-26 0 -34 36q-32 116 -103.5 183.5t-180.5 67.5q-159 0 -258 -117.5t-99 -310.5q0 -244 119 -364t276.5 -120t255.5 63q15 11 28 11.5t22.5 -8.5t9.5 -25t-17 -32 q-117 -117 -345.5 -117t-381.5 147t-153 423zM371 -428q40 -13 95 -13t95 26.5t40 75t-40 80t-78 40.5l-40 8l89 211l73 -10l-44 -121q6 -2 18.5 -5t42.5 -17t53 -32q61 -51 61 -139.5t-76 -142.5t-181 -54q-52 0 -108 17v76z" />
<glyph unicode="&#xe8;" horiz-adv-x="1143" d="M105 540q0 215 146 376.5t347 161.5t326 -117t125 -295q0 -126 -115 -126h-607q-26 0 -25 -36q4 -194 112.5 -307t276.5 -113t247 65q28 21 51 -1.5t-6 -52.5q-119 -119 -325 -119q-259 0 -406 149t-147 415zM302 662q0 -34 27 -34h464q66 1 66 66q0 127 -69 214.5 t-192 87.5t-209.5 -101.5t-86.5 -232.5zM322 1464.5q0 41.5 26.5 72.5t56 31t52.5 -20l318 -278l-37 -50l-376 183q-40 20 -40 61.5z" />
<glyph unicode="&#xe9;" horiz-adv-x="1143" d="M105 540q0 215 146 376.5t347 161.5t326 -117t125 -295q0 -126 -115 -126h-607q-26 0 -25 -36q4 -194 112.5 -307t276.5 -113t247 65q28 21 51 -1.5t-6 -52.5q-119 -119 -325 -119q-259 0 -406 149t-147 415zM302 662q0 -34 27 -34h464q66 1 66 66q0 127 -69 214.5 t-192 87.5t-209.5 -101.5t-86.5 -232.5zM344 1270l318 278q21 19 52 19.5t57 -30.5t26 -72.5t-40 -61.5l-375 -183z" />
<glyph unicode="&#xea;" horiz-adv-x="1143" d="M105 540q0 215 146 376.5t347 161.5t326 -117t125 -295q0 -126 -115 -126h-607q-26 0 -25 -36q4 -194 112.5 -307t276.5 -113t247 65q28 21 51 -1.5t-6 -52.5q-119 -119 -325 -119q-259 0 -406 149t-147 415zM276 1298l328 288l326 -288l-38 -50l-288 161l-290 -161z M302 662q0 -34 27 -34h464q66 1 66 66q0 127 -69 214.5t-192 87.5t-209.5 -101.5t-86.5 -232.5z" />
<glyph unicode="&#xeb;" horiz-adv-x="1143" d="M105 540q0 215 146 376.5t347 161.5t326 -117t125 -295q0 -126 -115 -126h-607q-26 0 -25 -36q4 -194 112.5 -307t276.5 -113t247 65q28 21 51 -1.5t-6 -52.5q-119 -119 -325 -119q-259 0 -406 149t-147 415zM280 1390.5q0 46.5 32 78t78.5 31.5t78 -31.5t31.5 -78 t-31.5 -78.5t-78 -32t-78.5 32t-32 78.5zM302 662q0 -34 27 -34h464q66 1 66 66q0 127 -69 214.5t-192 87.5t-209.5 -101.5t-86.5 -232.5zM684 1390.5q0 46.5 31.5 78t77.5 31.5t78 -31.5t32 -78t-32 -78.5t-78 -32t-77.5 32t-31.5 78.5z" />
<glyph unicode="&#xec;" horiz-adv-x="606" d="M-28 1464.5q0 41.5 26.5 72.5t56 31t52.5 -20l318 -278l-37 -50l-376 183q-40 20 -40 61.5zM42 19q0 27 26 29l59 5q42 4 69.5 26t27.5 60v773q0 42 -18.5 57.5t-58.5 15.5h-71q-28 0 -28 27.5t28 31.5l274 34h4q34 0 34 -49v-890q0 -76 85 -86l36 -5q26 -2 25.5 -29 t-32.5 -27l-200 8l-228 -8q-32 0 -32 27z" />
<glyph unicode="&#xed;" horiz-adv-x="606" d="M42 19q0 27 26 29l59 5q42 4 69.5 26t27.5 60v773q0 42 -18.5 57.5t-58.5 15.5h-71q-28 0 -28 27.5t28 31.5l274 34q38 5 38 -49v-890q0 -76 85 -86l36 -5q26 -2 25.5 -29t-32.5 -27l-200 8l-228 -8q-32 0 -32 27zM99 1270l319 278q21 19 51.5 19.5t57 -30.5t26.5 -72.5 t-40 -61.5l-376 -183z" />
<glyph unicode="&#xee;" horiz-adv-x="606" d="M-24 1298l328 288l326 -288l-38 -50l-288 161l-290 -161zM42 19q0 27 26 29l59 5q42 4 69.5 26t27.5 60v773q0 42 -18.5 57.5t-58.5 15.5h-71q-28 0 -28 27.5t28 31.5l274 34h4q34 0 34 -49v-890q0 -76 85 -86l36 -5q26 -2 25.5 -29t-32.5 -27l-200 8l-228 -8 q-32 0 -32 27z" />
<glyph unicode="&#xef;" horiz-adv-x="606" d="M-6 1390.5q0 46.5 31.5 78t77.5 31.5t78 -31.5t32 -78t-32 -78.5t-78 -32t-77.5 32t-31.5 78.5zM42 19q0 27 26 29l59 5q42 4 69.5 26t27.5 60v773q0 42 -18.5 57.5t-58.5 15.5h-71q-28 0 -28 27.5t28 31.5l274 34q38 5 38 -49v-890q0 -76 85 -86l36 -5q26 -2 25.5 -29 t-32.5 -27l-200 8l-228 -8q-32 0 -32 27zM397 1390.5q0 46.5 31 78t78 31.5t78.5 -31.5t31.5 -78t-31.5 -78.5t-78.5 -32t-78 32t-31 78.5z" />
<glyph unicode="&#xf0;" d="M105 525q0 245 148 399t387 154q156 0 282 -93q-51 225 -249 408l-224 -165q-16 -17 -36 2l-31 46q-16 21 6 34l204 150q-88 67 -191 126q-28 17 -28 44.5t20 43t36 15.5t18 -2q129 -61 249 -149l200 147q8 6 17 6t19 -8l32 -46q14 -21 -6 -34l-179 -133 q189 -171 291.5 -395.5t102.5 -470.5q0 -308 -140.5 -468t-389.5 -160t-393.5 152t-144.5 397zM294 576q0 -194 66 -344q37 -79 107.5 -126t166.5 -47q180 0 265.5 116t85.5 308.5t-65 337.5q-36 80 -106.5 127.5t-171.5 47.5q-175 0 -261.5 -116.5t-86.5 -303.5z" />
<glyph unicode="&#xf1;" horiz-adv-x="1349" d="M42 19q0 27 26 29l59 5q42 4 69.5 26t27.5 60v773q0 42 -18.5 57.5t-58.5 15.5h-71q-28 0 -28 27.5t28 31.5l274 34h4q34 0 34 -49v-107q0 -10 7.5 -10t19.5 12q123 154 320 154t302.5 -104.5t105.5 -300.5v-534q0 -38 30.5 -60t72.5 -26l58 -5q26 -2 25.5 -29t-31.5 -27 l-227 8l-191 -8q-32 0 -32 27t25 29l27 5q78 12 78 86v563q0 131 -73.5 202.5t-203 71.5t-221.5 -106.5t-92 -209.5v-521q0 -76 85 -86l36 -5q26 -2 25.5 -29t-32.5 -27l-200 8l-228 -8q-32 0 -32 27zM276 1314q10 55 73.5 124.5t171.5 69.5q61 0 164.5 -48.5t146.5 -48.5 t76.5 25.5t45.5 50.5l10 25l67 -31q-10 -54 -73.5 -124.5t-170.5 -70.5q-57 0 -152 48.5t-148.5 48.5t-87.5 -25t-45 -50l-10 -26z" />
<glyph unicode="&#xf2;" d="M105 525q0 245 148 399t389.5 154t386 -151.5t144.5 -400t-143.5 -399.5t-389.5 -151t-390.5 152t-144.5 397zM294 576q0 -194 66 -344q37 -79 107.5 -126t166.5 -47q180 0 265.5 116t85.5 308.5t-65 337.5q-36 80 -106.5 127.5t-171.5 47.5q-175 0 -261.5 -116.5 t-86.5 -303.5zM411 1464.5q0 41.5 26.5 72.5t56 31t52.5 -20l318 -278l-37 -50l-376 183q-40 20 -40 61.5z" />
<glyph unicode="&#xf3;" d="M105 525q0 245 148 399t389.5 154t386 -151.5t144.5 -400t-143.5 -399.5t-389.5 -151t-390.5 152t-144.5 397zM294 576q0 -194 66 -344q37 -79 107.5 -126t166.5 -47q180 0 265.5 116t85.5 308.5t-65 337.5q-36 80 -106.5 127.5t-171.5 47.5q-175 0 -261.5 -116.5 t-86.5 -303.5zM411 1270l319 278q21 19 51.5 19.5t57 -30.5t26.5 -72.5t-40 -61.5l-376 -183z" />
<glyph unicode="&#xf4;" d="M105 525q0 245 148 399t389.5 154t386 -151.5t144.5 -400t-143.5 -399.5t-389.5 -151t-390.5 152t-144.5 397zM294 576q0 -194 66 -344q37 -79 107.5 -126t166.5 -47q180 0 265.5 116t85.5 308.5t-65 337.5q-36 80 -106.5 127.5t-171.5 47.5q-175 0 -261.5 -116.5 t-86.5 -303.5zM312 1298l328 288l326 -288l-38 -50l-288 161l-290 -161z" />
<glyph unicode="&#xf5;" d="M105 525q0 245 148 399t389.5 154t386 -151.5t144.5 -400t-143.5 -399.5t-389.5 -151t-390.5 152t-144.5 397zM262 1314q10 55 73.5 124.5t171.5 69.5q61 0 164.5 -48.5t146.5 -48.5t76.5 25.5t43.5 50.5l12 25l67 -31q-11 -54 -74 -124.5t-171 -70.5q-56 0 -151.5 48.5 t-149 48.5t-87.5 -25t-44 -50l-11 -26zM294 576q0 -194 66 -344q37 -79 107.5 -126t166.5 -47q180 0 265.5 116t85.5 308.5t-65 337.5q-36 80 -106.5 127.5t-171.5 47.5q-175 0 -261.5 -116.5t-86.5 -303.5z" />
<glyph unicode="&#xf6;" d="M105 525q0 245 148 399t389.5 154t386 -151.5t144.5 -400t-143.5 -399.5t-389.5 -151t-390.5 152t-144.5 397zM294 576q0 -194 66 -344q37 -79 107.5 -126t166.5 -47q180 0 265.5 116t85.5 308.5t-65 337.5q-36 80 -106.5 127.5t-171.5 47.5q-175 0 -261.5 -116.5 t-86.5 -303.5zM328 1390.5q0 46.5 31.5 78t77.5 31.5t78 -31.5t32 -78t-32 -78.5t-78 -32t-77.5 32t-31.5 78.5zM730 1390.5q0 46.5 31.5 78t78.5 31.5t78.5 -31.5t31.5 -78t-31.5 -78.5t-78.5 -32t-78.5 32t-31.5 78.5z" />
<glyph unicode="&#xf7;" horiz-adv-x="1421" d="M127 580v84q0 24 24 24h1119q26 0 25 -24v-84q1 -23 -25 -23h-1119q-25 0 -24 23zM582 236q0 53 38 92t90.5 39t92 -38t39.5 -92t-39.5 -92t-92 -38t-90.5 38t-38 91zM582 1006.5q0 52.5 38 91.5t90.5 39t92 -39t39.5 -91.5t-39.5 -90.5t-92 -38t-90.5 38t-38 90.5z" />
<glyph unicode="&#xf8;" d="M99 12q0 7 6 14l121 128q-121 146 -121 381t148 389t369.5 154t362.5 -114l61 65q26 26 43 26h75q14 0 15 -13q0 -6 -6 -13l-122 -131q122 -149 122 -384.5t-143.5 -386.5t-372.5 -151t-366 113l-59 -63q-26 -26 -42 -26h-76q-14 0 -15 12zM294 583q0 -180 48 -307 l550 589q-89 131 -257 131t-254.5 -116.5t-86.5 -296.5zM386 190q89 -131 259 -131t255 116t85 296.5t-49 307.5z" />
<glyph unicode="&#xf9;" horiz-adv-x="1324" d="M32 1021q0 25 29 30l279 27h10q42 0 42 -34q0 -4 -10.5 -25t-10.5 -53v-618q0 -131 81.5 -205.5t209 -74.5t215 95t87.5 215v538q0 42 -18 59t-56 17h-93q-10 0 -20 8t-10 21q0 25 30 30l296 27h10q42 0 42 -34q0 -4 -8 -25t-8 -53v-774q0 -68 42 -109t101 -41 q32 0 32 -26q0 -40 -82 -40q-125 0 -218 104q-6 7 -12.5 15t-10.5 14q-9 10 -18 11t-29 -17q-143 -127 -325.5 -127t-292 105.5t-109.5 300.5v534q0 42 -18 59t-56 17h-72q-11 0 -20 8t-9 21zM350 1464.5q0 41.5 26.5 72.5t56 31t52.5 -20l318 -278l-37 -50l-376 183 q-40 20 -40 61.5z" />
<glyph unicode="&#xfa;" horiz-adv-x="1324" d="M32 1021q0 25 29 30l279 27h10q42 0 42 -34q0 -4 -10.5 -25t-10.5 -53v-618q0 -131 81.5 -205.5t209 -74.5t215 95t87.5 215v538q0 42 -18 59t-56 17h-93q-10 0 -20 8t-10 21q0 25 30 30l296 27h10q42 0 42 -34q0 -4 -8 -25t-8 -53v-774q0 -68 42 -109t101 -41 q32 0 32 -26q0 -40 -82 -40q-125 0 -218 104q-6 7 -12.5 15t-10.5 14q-9 10 -18 11t-29 -17q-143 -127 -325.5 -127t-292 105.5t-109.5 300.5v534q0 42 -18 59t-56 17h-72q-11 0 -20 8t-9 21zM477 1270l318 278q24 19 53.5 19.5t55.5 -30.5t26 -72.5t-40 -61.5l-375 -183z " />
<glyph unicode="&#xfb;" horiz-adv-x="1324" d="M32 1021q0 25 29 30l279 27h10q42 0 42 -34q0 -4 -10.5 -25t-10.5 -53v-618q0 -131 81.5 -205.5t209 -74.5t215 95t87.5 215v538q0 42 -18 59t-56 17h-93q-10 0 -20 8t-10 21q0 25 30 30l296 27h10q42 0 42 -34q0 -4 -8 -25t-8 -53v-774q0 -68 42 -109t101 -41 q32 0 32 -26q0 -40 -82 -40q-125 0 -218 104q-6 7 -12.5 15t-10.5 14q-9 10 -18 11t-29 -17q-143 -127 -325.5 -127t-292 105.5t-109.5 300.5v534q0 42 -18 59t-56 17h-72q-11 0 -20 8t-9 21zM306 1298l328 288l326 -288l-38 -50l-288 161l-290 -161z" />
<glyph unicode="&#xfc;" horiz-adv-x="1324" d="M32 1021q0 25 29 30l279 27h10q42 0 42 -34q0 -4 -10.5 -25t-10.5 -53v-618q0 -131 81.5 -205.5t209 -74.5t215 95t87.5 215v538q0 42 -18 59t-56 17h-93q-10 0 -20 8t-10 21q0 25 30 30l296 27h10q42 0 42 -34q0 -4 -8 -25t-8 -53v-774q0 -68 42 -109t101 -41 q32 0 32 -26q0 -40 -82 -40q-125 0 -218 104q-6 7 -12.5 15t-10.5 14q-9 10 -18 11t-29 -17q-143 -127 -325.5 -127t-292 105.5t-109.5 300.5v534q0 42 -18 59t-56 17h-72q-11 0 -20 8t-9 21zM308 1390.5q0 46.5 31.5 78t78.5 31.5t78 -31.5t31 -78t-31 -78.5t-78 -32 t-78.5 32t-31.5 78.5zM711 1390.5q0 46.5 32 78t78 31.5t77.5 -31.5t31.5 -78t-31.5 -78.5t-77.5 -32t-78 32t-32 78.5z" />
<glyph unicode="&#xfd;" horiz-adv-x="1125" d="M2 1037.5q0 25.5 30 25.5l208 -8l209 8q36 0 36 -25.5t-28 -29.5l-44 -4q-40 -2 -56.5 -25t-4.5 -53l238 -622q2 -4 10 -5t12 9l253 618q6 17 6 30q0 40 -56 48l-38 4q-26 4 -26 29.5t30 25.5l165 -8l151 8q28 0 28 -25.5t-24 -29.5l-40 -6q-70 -10 -99 -82l-451 -1045 q-145 -328 -296 -426q-34 -21 -49 -21t-19 4l-63 81q-8 10 -8 25t13 23q68 34 101.5 56.5t87.5 74.5q93 93 217 376q7 10 7 24.5t-7 28.5l-332 805q-24 59 -98 76l-39 6q-24 4 -24 29.5zM441 1270l318 278q21 19 52 19.5t57 -30.5t26 -72.5t-39 -61.5l-376 -183z" />
<glyph unicode="&#xfe;" horiz-adv-x="1309" d="M21 -614q0 28 25 30l59 4q42 4 70 26.5t28 60.5v2014q0 43 -18 58t-58 15h-72q-28 0 -27.5 28t27.5 32l274 33h5q34 0 33 -48v-649q0 -26 18 -11t50 35t97 42t132 22q248 0 394 -148.5t146 -398t-154 -402.5t-375 -153q-163 0 -283 89q-10 8 -17.5 2t-7.5 -21v-539 q0 -77 84 -87l36 -4q26 -2 26 -30t-32 -28l-201 10l-227 -10q-32 0 -32 28zM367 314q0 -101 89.5 -178t197.5 -77q169 0 268 105.5t99 294.5q0 254 -101 393.5t-252 139.5t-226 -81.5t-75 -171.5v-425z" />
<glyph unicode="&#xff;" horiz-adv-x="1125" d="M2 1037.5q0 25.5 30 25.5l208 -8l209 8q36 0 36 -25.5t-28 -29.5l-44 -4q-40 -2 -56.5 -25t-4.5 -53l238 -622q2 -4 10 -5t12 9l253 618q6 17 6 30q0 40 -56 48l-38 4q-26 4 -26 29.5t30 25.5l165 -8l151 8q28 0 28 -25.5t-24 -29.5l-40 -6q-70 -10 -99 -82l-451 -1045 q-145 -328 -296 -426q-34 -21 -49 -21t-19 4l-63 81q-8 10 -8 25t13 23q68 34 101.5 56.5t87.5 74.5q93 93 217 376q7 10 7 24.5t-7 28.5l-332 805q-24 59 -98 76l-39 6q-24 4 -24 29.5zM294 1390.5q0 46.5 31 78t77.5 31.5t78.5 -31.5t32 -78t-32 -78.5t-78.5 -32t-77.5 32 t-31 78.5zM696 1390.5q0 46.5 31.5 78t78 31.5t78.5 -31.5t32 -78t-32 -78.5t-78.5 -32t-78 32t-31.5 78.5z" />
<glyph unicode="&#x152;" horiz-adv-x="2218" d="M105 737q0 330 205 546.5t534 216.5q82 0 166 -17l203 -6h749q40 0 65.5 -24.5t29.5 -59.5l29 -195q4 -38 -30.5 -38t-44.5 34q-32 101 -95.5 143t-174.5 42h-332q-46 0 -74.5 -26t-28.5 -73v-443q0 -27 27 -27h392q30 0 47 14.5t22 27.5t16 46l8 28q6 26 32 26t26 -30 l-10 -179l10 -171q0 -28 -28 -32q-26 0 -30 25l-6 39q-19 109 -87 109h-394q-26 0 -25 -29v-490q0 -45 28.5 -71t74.5 -26h348q109 0 188.5 54t111.5 157q10 34 34.5 34t34 -12t7.5 -26l-34 -220q-4 -36 -30.5 -60t-64.5 -24h-791l-207 -6q-84 -17 -162 -18 q-329 0 -534 215.5t-205 545.5zM304 819q0 -280 127 -503q60 -109 170 -175.5t259.5 -66.5t266.5 67v1177q-123 85 -285 85q-258 0 -398 -157t-140 -427z" />
<glyph unicode="&#x153;" horiz-adv-x="2024" d="M105 525q0 245 148 399t387 154q299 0 445 -224q68 103 174 163.5t228 60.5q194 0 318.5 -117t124.5 -295q0 -126 -114 -126h-607q-26 0 -26 -36q5 -194 113.5 -307t276.5 -113t247 65q28 21 51 -1.5t-7 -52.5q-118 -119 -324 -119q-316 0 -460 214q-145 -214 -440 -214 q-246 0 -390.5 152t-144.5 397zM294 576q0 -194 66 -344q37 -79 107.5 -126t166.5 -47q180 0 265.5 116t85.5 308.5t-65 337.5q-36 80 -106.5 127.5t-171.5 47.5q-175 0 -261.5 -116.5t-86.5 -303.5zM1183 662q0 -34 28 -34h464q66 1 66 66q0 127 -69 214.5t-192 87.5 t-210 -101.5t-87 -232.5z" />
<glyph unicode="&#x178;" horiz-adv-x="1501" d="M0 1457.5q0 25.5 30 25.5l250 -6l224 4q32 0 32 -27.5t-25 -30.5l-40 -4q-38 -4 -50 -31t5 -51l367 -603q8 -14 19 -14.5t19 10.5l361 607q16 24 5 50t-50 32l-40 4q-30 5 -24 32q2 26 30 26l165 -4l205 6q30 0 29.5 -25t-23.5 -30l-61 -7q-70 -6 -120 -84l-412 -658 q-26 -45 -29 -99v-441q0 -38 27.5 -60t67.5 -26l61 -5q26 0 26 -27q0 -13 -10 -21t-20 -8l-238 8l-211 -8q-30 0 -30 26t23 30l36 5q87 10 87 86v412q0 40 -20 73l-459 713q-50 78 -123 84l-60 7q-24 4 -24 29.5zM481 1811.5q0 46.5 31.5 78.5t78 32t78 -32t31.5 -78.5 t-31.5 -77.5t-78 -31t-78 31t-31.5 77.5zM884 1811.5q0 46.5 32 78.5t78 32t77.5 -32t31.5 -78.5t-31.5 -77.5t-77.5 -31t-78 31t-32 77.5z" />
<glyph unicode="&#x2c6;" horiz-adv-x="928" d="M137 1298l328 288l326 -288l-38 -50l-288 161l-290 -161z" />
<glyph unicode="&#x2dc;" horiz-adv-x="1028" d="M137 1314q10 55 73.5 124.5t171.5 69.5q61 0 164.5 -48.5t146.5 -48.5t76.5 25.5t45.5 50.5l10 25l67 -31q-10 -54 -73.5 -124.5t-170.5 -70.5q-57 0 -152 48.5t-148.5 48.5t-87.5 -25t-45 -50l-10 -26z" />
<glyph unicode="&#x2000;" horiz-adv-x="1007" />
<glyph unicode="&#x2001;" horiz-adv-x="2015" />
<glyph unicode="&#x2002;" horiz-adv-x="1007" />
<glyph unicode="&#x2003;" horiz-adv-x="2015" />
<glyph unicode="&#x2004;" horiz-adv-x="671" />
<glyph unicode="&#x2005;" horiz-adv-x="503" />
<glyph unicode="&#x2006;" horiz-adv-x="335" />
<glyph unicode="&#x2007;" horiz-adv-x="335" />
<glyph unicode="&#x2008;" horiz-adv-x="251" />
<glyph unicode="&#x2009;" horiz-adv-x="403" />
<glyph unicode="&#x200a;" horiz-adv-x="111" />
<glyph unicode="&#x2010;" horiz-adv-x="769" d="M147 572v99q0 23 26 23h424q26 0 25 -23v-99q0 -24 -25 -24h-424q-26 0 -26 24z" />
<glyph unicode="&#x2011;" horiz-adv-x="769" d="M147 572v99q0 23 26 23h424q26 0 25 -23v-99q0 -24 -25 -24h-424q-26 0 -26 24z" />
<glyph unicode="&#x2012;" horiz-adv-x="769" d="M147 572v99q0 23 26 23h424q26 0 25 -23v-99q0 -24 -25 -24h-424q-26 0 -26 24z" />
<glyph unicode="&#x2013;" horiz-adv-x="1514" d="M147 572v99q0 23 26 23h1169q26 0 25 -23v-99q0 -24 -25 -24h-1169q-26 0 -26 24z" />
<glyph unicode="&#x2014;" horiz-adv-x="2598" d="M147 572v99q0 23 26 23h2253q25 0 25 -23v-99q0 -24 -25 -24h-2253q-26 0 -26 24z" />
<glyph unicode="&#x2018;" horiz-adv-x="475" d="M105 1160.5q0 93.5 63.5 190t135.5 138.5q17 11 30 11q38 0 37 -36q0 -19 -15 -29q-109 -83 -116 -193q63 -4 97 -41t34 -90.5t-37.5 -93t-93 -39.5t-95.5 44.5t-40 138z" />
<glyph unicode="&#x2019;" horiz-adv-x="475" d="M105 1015q0 18 16 29q109 83 115 192q-63 4 -97 41t-34 90.5t38 93t93 39.5t95 -44.5t40 -137t-63 -190t-135 -138.5q-17 -12 -30 -12q-38 0 -38 37z" />
<glyph unicode="&#x201a;" horiz-adv-x="518" d="M127 104.5q0 54.5 38 93t92.5 38.5t94.5 -44.5t40 -137t-63 -189.5t-135 -139q-17 -10 -29 -10q-38 0 -38 35q0 18 14 30q109 82 117 191q-63 4 -97 41t-34 91.5z" />
<glyph unicode="&#x201c;" horiz-adv-x="817" d="M105 1160.5q0 93.5 63.5 190t135.5 138.5q17 11 30 11q38 0 37 -36q0 -19 -15 -29q-109 -83 -116 -193q63 -4 97 -41t34 -90.5t-37.5 -93t-93 -39.5t-95.5 44.5t-40 138zM447 1160.5q0 93.5 63.5 190t135.5 138.5q16 11 29 11q38 0 38 -36q0 -19 -15 -29 q-109 -83 -116 -193q63 -4 97 -41t34 -90.5t-38 -93t-93 -39.5t-95 44.5t-40 138z" />
<glyph unicode="&#x201d;" horiz-adv-x="817" d="M105 1015q0 18 16 29q109 83 115 192q-63 4 -97 41t-34 90.5t38 93t93 39.5t95 -44.5t40 -137t-63 -190t-135 -138.5q-17 -12 -30 -12q-38 0 -38 37zM447 1015q0 18 15 29q110 83 116 192q-63 4 -97 41t-34 90.5t38 93t92.5 39.5t95 -44.5t40.5 -137t-63.5 -190 t-134.5 -138.5q-18 -12 -30 -12q-38 0 -38 37z" />
<glyph unicode="&#x201e;" horiz-adv-x="860" d="M127 104.5q0 54.5 38 93t92.5 38.5t94.5 -44.5t40 -137t-63 -189.5t-135 -139q-17 -10 -29 -10q-38 0 -38 35q0 18 14 30q109 82 117 191q-63 4 -97 41t-34 91.5zM469 104.5q0 54.5 37.5 93t92.5 38.5t95 -44.5t40 -137t-63 -189.5t-135 -139q-17 -10 -29 -10 q-38 0 -38 35q0 18 14 30q109 82 116 191q-62 4 -96 41t-34 91.5z" />
<glyph unicode="&#x2022;" horiz-adv-x="813" d="M147 711q0 112 74.5 185.5t186 73.5t185 -73.5t73.5 -185.5t-73.5 -186t-185 -74t-186 74t-74.5 186z" />
<glyph unicode="&#x2026;" horiz-adv-x="1411" d="M127 106q0 53 38 91.5t90.5 38.5t91.5 -37.5t39 -91.5t-39 -92.5t-91.5 -38.5t-90.5 38.5t-38 91.5zM576 106q0 53 38 91.5t91.5 38.5t91.5 -37.5t38 -91.5t-39 -92.5t-91.5 -38.5t-90.5 38.5t-38 91.5zM1025 106q0 53 38 91.5t90.5 38.5t91.5 -37.5t39 -91.5t-39 -92.5 t-91.5 -38.5t-90.5 38.5t-38 91.5z" />
<glyph unicode="&#x202f;" horiz-adv-x="403" />
<glyph unicode="&#x2039;" horiz-adv-x="608" d="M105 519q0 8 7 19l285 390q8 17 16 18q8 0 28.5 -10t20.5 -22q0 -5 -3 -11l-177 -384l177 -384q2 -6 3 -10q0 -13 -17 -22q-24 -10 -32 -10t-16 16l-285 391q-7 11 -7 19z" />
<glyph unicode="&#x203a;" horiz-adv-x="608" d="M147 125q0 4 2 10l178 384l-178 384q-2 6 -2 11q0 12 18 20q23 11 31.5 11.5t16.5 -17.5l284 -390q7 -11 7 -19t-7 -19l-284 -391q-8 -16 -17 -16t-29 9.5t-20 22.5z" />
<glyph unicode="&#x205f;" horiz-adv-x="503" />
<glyph unicode="&#x20ac;" horiz-adv-x="1570" d="M84 586v58q0 23 25 22h129q-2 24 -2 75.5t7 104.5h-134q-26 0 -25 23v57q-1 24 25 24h153q60 249 255.5 399.5t478.5 150.5q177 0 321.5 -48.5t144.5 -94.5v-242q0 -14 -9.5 -28t-24.5 -14q-36 0 -47 42q-38 142 -141 222t-244 80q-217 0 -361 -128.5t-184 -338.5h612 q26 0 26 -24v-57q0 -23 -26 -23h-624v-49q0 -61 10 -131h614q26 0 26 -22v-58q0 -24 -26 -23h-592q58 -203 199.5 -334.5t325.5 -131.5q137 0 205.5 26t92.5 38t62.5 37.5t42.5 27.5q38 23 52.5 7t14.5 -31t-17 -31q-72 -80 -147 -121q-139 -74 -328 -74q-282 0 -475 163 t-246 424h-144q-26 0 -25 23z" />
<glyph unicode="&#x2122;" horiz-adv-x="2060" d="M63 1293l11 150q0 34 35 34h642q34 0 38 -40q2 -24 6 -72.5t6 -71.5q0 -32 -27 -31.5t-35 27.5q-21 54 -50 83t-81 29h-97q-19 0 -20 -22v-649q0 -34 43 -38l34 -2q25 0 24.5 -26.5t-27.5 -26.5l-130 7q-63 -6 -144 -7q-27 0 -27 26.5t23 26.5l45 2q42 4 41 38v649 q0 21 -19 22h-96q-97 0 -133 -121q-9 -18 -30 -18q-32 0 -32 31zM856 664q0 9 7.5 17.5t16.5 8.5l34 4q42 8 42 36l14 658q2 32 -36 35l-22 3q-21 6 -21.5 29.5t27.5 23.5l107 -2q36 -2 53 -28l321 -634l316 642q8 17 48 20l111 2q27 0 26.5 -25.5t-20.5 -27.5l-24 -3 q-36 -4 -36 -35l15 -658q0 -34 41 -38l33 -2q25 0 25 -26.5t-27 -26.5l-131 7q-51 -6 -116 -7q-25 0 -25 26.5t23 26.5l19 2q38 6 38 38l-8 536l-308 -614q-9 -16 -22.5 -17t-22.5 17l-310 594l-6 -516q4 -30 37 -36l18 -4q28 0 27.5 -25t-29.5 -25l-95 4l-112 -4 q-28 0 -28 24z" />
<glyph unicode="&#x25fc;" horiz-adv-x="1065" d="M0 0v1065h1065v-1065h-1065z" />
<glyph unicode="&#xfb01;" horiz-adv-x="1328" d="M42 976v18q0 21 26 25l117 30q36 8 36 38v8q0 247 150 419.5t386 172.5q80 0 142.5 -18.5t90 -40.5t27.5 -38v-137q0 -12 -9.5 -24t-27.5 -12t-40 36q-76 133 -248 133q-135 0 -220.5 -95.5t-85.5 -260.5v-152q0 -23 21 -23h384q99 0 238 16l42 7q38 5 38 -49v-890 q0 -76 85 -86l36 -5q26 -2 26 -29t-32 -27l-201 8l-228 -8q-32 0 -32 27t26 29l59 5q42 4 70 26t28 60v787q-1 24 -20 24h-521q-19 0 -19 -24v-787q0 -38 27.5 -61t69.5 -25l76 -5q26 -2 25.5 -29t-31.5 -27l-245 8l-201 -8q-32 0 -31.5 27t25.5 29l36 5q84 10 84 86v787 q0 24 -25 24h-128q-26 0 -26 26z" />
<glyph unicode="&#xfb02;" horiz-adv-x="1328" d="M42 976v18q0 21 26 25l117 30q36 8 36 38v8q0 243 158.5 417.5t381.5 174.5q83 0 151 -20l159 20h4q34 0 34 -48v-1500q0 -76 85 -86l36 -5q26 -2 26 -29t-32 -27l-201 8l-228 -8q-32 0 -32 27t26 29l59 5q42 4 70 26t28 60v1244q0 99 -64.5 151t-182 52t-215.5 -98 t-98 -258v-152q0 -23 21 -23h316q28 0 24 -26l-8 -53q-5 -27 -26 -26h-308q-19 0 -19 -24v-787q0 -38 27.5 -61t69.5 -25l76 -5q26 -2 25.5 -29t-31.5 -27l-245 8l-201 -8q-32 0 -31.5 27t25.5 29l36 5q84 10 84 86v787q0 24 -25 24h-128q-26 0 -26 26z" />
</font>
</defs>
</svg>
