<?xml version="1.0" standalone="no"?>
<!DOCTYPE svg PUBLIC "-//W3C//DTD SVG 1.1//EN" "http://www.w3.org/Graphics/SVG/1.1/DTD/svg11.dtd" >
<svg xmlns="http://www.w3.org/2000/svg">
<metadata></metadata>
<defs>
<font id="icasei_portalregular" horiz-adv-x="600" >
<font-face units-per-em="1000" ascent="800" descent="-200" />
<missing-glyph horiz-adv-x="500" />
<glyph horiz-adv-x="0" />
<glyph />
<glyph unicode=" " />
<glyph unicode="0" d="M10 28l271 272l-271 272l18 18l272 -272l271 272l19 -18l-272 -272l272 -272l-19 -18l-271 272l-272 -272z" />
<glyph unicode="1" d="M10 39v522q0 12 8.5 20.5t20.5 8.5h522q12 0 20.5 -8.5t8.5 -20.5v-522q0 -12 -8.5 -20.5t-20.5 -8.5h-166v230h64l9 82h-73v48q0 22 20 22h52v79h-71q-53 0 -75 -30t-22 -67v-52h-45v-82h45v-230h-260q-12 0 -20.5 8.5t-8.5 20.5z" />
<glyph unicode="2" d="M79 65v277q0 22 16.5 38.5t38.5 16.5h28v55q0 58 40 98t98 40t98 -40t40 -98v-55h28q22 0 38.5 -16.5t16.5 -38.5v-277q0 -23 -16.5 -39t-38.5 -16h-332q-22 0 -38.5 16t-16.5 39zM214 397h172v55q0 35 -25.5 60.5t-60.5 25.5t-60.5 -25.5t-25.5 -60.5v-55z" />
<glyph unicode="3" d="M10 117q46 39 68 92q10 24 11 54.5t9 49.5q12 28 57 45q15 6 22 26q3 10 15 22q1 0 2.5 2t2.5 2q3 2 3 4q-1 2 -4 2q-7 -1 -14 8q-2 4 -3 8t-1 6l1 2q0 -1 1 -1.5t3.5 -2t5.5 1.5q2 1 2 14q-1 5 0.5 10t9 10.5t21.5 5.5q15 -1 21 -6t5 -10l-2 -4l1 -3q2 -3 2 -5t2 -7 q1 -2 3 -4q2 -1 1 -2l-3 -2q-2 -1 -1 -2t-1 -4v-5q1 -2 -2 -3l-4 -2q-3 -3 2 -5q21 -5 44 1l30 21q6 6 9 8q5 0 6 -1q1 0 2 -2q3 -3 4 -2q4 1 0 8q-8 8 -10 15q-3 8 4.5 19.5t24.5 12.5q8 1 13 -0.5t6 -4l2 -5t0 -3.5v-1q0 -2 8 -12q6 -5 3 -7q-4 -2 -4 -3l2 -4l3 -6 q2 -5 -5 -5q-9 -5 -8 -8q0 -2 3 -2t6 1h3l85 24l3 1l3 -2l4 2q16 6 22 7l12 -2l7 -1l7 -1q1 -1 1 -4q0 -7 -3 -10l-21 1q1 -2 -1 -3h-7l-17 -3q1 -2 0 -4l-5 -3q1 -2 0 -4l-4 -2l-43 -12q19 -2 34 -3q19 -2 21 -4l2 -3q5 3 20 8q11 3 11 -2q0 -3 -3 -3q-10 0 -10 -3 q1 -1 3 -0.5t6 1t5 0.5h6q5 -2 4 -6l-3 -6q-1 -6 -13 -8l-29 2q-1 -4 -3 -5l-12 1l-1 -3q-1 -4 -2 -5h-8l-59 10l-4 -18q1 -1 2.5 -3.5t4 -8t2.5 -9.5t1 -8.5t2 -7.5l2 -2q51 1 56 -1l69 -53q1 -1 3 -2l6 -3t7 -1q3 0 8 2.5l11 5.5l8 4q4 2 6 -1q3 -3 -1 -12l-19 -24 q-4 2 -7 -1v-5l-15 -15q-5 5 -8 7l-3 7l-5 7l-6 -7l-70 55l-47 -11q3 -50 3 -57q-1 -9 -18 -44q-4 -8 -7 -20.5t-5 -20.5l-1 -9l-12 7q-1 -7 4 -11q2 -2 7 -5t8.5 -5.5t4.5 -4.5l-1 -8q-15 -3 -31 2q-4 1 -6.5 3.5t-3.5 5t-1 5.5l-1 3q-1 2 -4.5 2.5t-6.5 0.5l-2 -1l-7 20 q7 6 8 6l5 5l-4 2l26 67q3 8 0 26l-4 19q-4 -1 -23 0q-11 1 -25.5 5.5t-16.5 7.5q-1 3 -0.5 4t4 5.5t5.5 7.5q22 40 24 60l2 42q-27 -17 -35 -19q-5 -1 -25.5 2.5t-21.5 -0.5q-4 -2 0 -9.5t1 -16.5q-4 -10 -22 -13t-23 -15q-6 -13 2 -32q35 -69 44 -98q7 -20 11 -43t4 -36 v-13q-6 -1 -16.5 -2t-47.5 -3t-79 -1t-69.5 4t-34.5 5z" />
<glyph unicode="4" d="M139 300l312 -290l10 14l-296 276l296 276l-10 14z" />
<glyph unicode="5" d="M139 24l296 276l-296 276l10 14l312 -290l-312 -290z" />
<glyph unicode="6" d="M18 365.5q0 89.5 63 152.5q64 64 153 64t152 -64q54 -54 62.5 -128.5t-30.5 -136.5l165 -165q15 -15 15 -36t-15 -36q-14 -14 -35 -14t-36 14l-165 166q-62 -39 -137.5 -30.5t-128.5 61.5q-63 63 -63 152.5zM87 365.5q0 -60.5 43 -103.5q44 -43 104 -43t104 43 q43 43 43 103.5t-43 104.5q-43 43 -103.5 43t-104.5 -43q-43 -44 -43 -104.5z" />
<glyph unicode="7" d="M36 52v496q0 28 17.5 38t42.5 -4l435 -248q25 -14 25 -34t-25 -34l-435 -248q-25 -14 -42.5 -4t-17.5 38z" />
<glyph unicode="8" d="M10 431l27 27l263 -262l263 262l27 -27l-290 -289z" />
<glyph unicode="9" d="M88 379q0 87 62 149t150 62t150 -62t62 -149q0 -58 -28 -106l-2 -2q-10 -16 -16 -23l-166 -238l-163 234q-49 58 -49 135zM190 379q0 -44 31 -75t75 -31t75 31t31 75t-31 74.5t-75 30.5t-75 -30.5t-31 -74.5z" />
<glyph unicode="A" />
<glyph unicode="B" />
<glyph unicode="C" />
<glyph unicode="D" />
<glyph unicode="E" />
<glyph unicode="F" />
<glyph unicode="G" />
<glyph unicode="H" />
<glyph unicode="I" />
<glyph unicode="J" />
<glyph unicode="K" />
<glyph unicode="L" />
<glyph unicode="M" />
<glyph unicode="N" />
<glyph unicode="O" />
<glyph unicode="P" />
<glyph unicode="Q" />
<glyph unicode="R" />
<glyph unicode="S" />
<glyph unicode="T" />
<glyph unicode="U" />
<glyph unicode="V" />
<glyph unicode="W" />
<glyph unicode="X" />
<glyph unicode="Y" />
<glyph unicode="Z" />
<glyph unicode="a" d="M14 280q-1 6 0 12q0 14 6 28q9 17 30 19q6 0 14 -3.5t11 -3.5q2 0 12 4t17 3q17 0 27 -15q-1 0 -4.5 -3t-7.5 -10t-4 -15q0 -10 5 -18t10 -10l5 -3q-3 -11 -10 -21q-14 -18 -23 -18q-5 -1 -12 2t-13 3t-13 -3t-11 -3q-11 0 -24 19q-11 16 -15 36zM74 341q-1 12 8 23 t22 11q1 -11 -8 -24q-10 -12 -22 -10zM179 256h11l6 20h23l6 -20h12l-22 69h-14zM198 285l6 18q0 3 1.5 7t1.5 6q3 -12 4 -13l6 -18h-19zM246 306q1 -6 1 -17v-54h11v27q4 -7 14 -7q9 0 15 6q7 7 7 20q0 11 -6 19q-4 7 -14 7q-11 0 -17 -9l-1 8h-10zM258 276v9v3q2 6 5 7 q3 3 7 3q5 0 10 -5q3 -5 3 -12t-3 -13q-5 -5 -10 -5t-9 4q-3 5 -3 9zM304 235h11v27q4 -7 15 -7q9 0 15 6q7 9 7 20t-6 19q-6 7 -15 7q-11 0 -17 -9l-1 8h-9v-17v-54zM315 276v9q0 2 1 3q0 5 4 7q3 3 8 3q6 0 9 -5t3 -12t-3 -13q-3 -5 -10 -5q-4 0 -8 4t-4 9zM373 259 q7 -4 18 -4t19 6q6 6 6 14t-4 12q-3 4 -13 9q-8 3 -10 5q-4 3 -4 7t3 6q3 3 9 3q8 0 14 -3l2 9q-6 3 -15 3q-12 0 -17 -5q-7 -6 -7 -14q0 -14 18 -20l10 -5q3 -3 3 -8q0 -4 -4 -7q-3 -3 -9 -3q-11 0 -16 4zM422 298h8v-26q0 -10 3 -13q4 -4 11 -4q6 0 8 1v8h-5q-7 0 -7 9v25 h13v8h-13v12l-10 -3v-9h-8v-8zM459 280q0 -10 6 -18q7 -7 18 -7q12 0 18 7q7 7 7 19t-7 19q-6 7 -17 7t-18 -7t-7 -20zM470 281q0 7 3 12q5 6 10 6q7 0 10 -6q3 -5 3 -12t-3 -12q-3 -6 -10 -6q-5 0 -10 6q-3 5 -3 12zM517 256h12v26q0 7 2 10q3 4 9 4h4v11h-3q-3 0 -8 -3 q-4 -4 -5 -8h-1v10h-10q0 -2 0.5 -7.5t0.5 -8.5zM549 280q0 -12 7 -18q6 -7 18 -7q10 0 17 3l-2 8q-6 -3 -13 -3q-8 0 -11 4q-5 3 -5 11h33v5q0 11 -4 16q-6 8 -16 8t-18 -8q-6 -7 -6 -19zM560 286q0 4 3 9q3 4 9 4t9 -4q2 -6 2 -9h-23z" />
<glyph unicode="b" d="M10 239v122q0 6 4 9l65 -70l-65 -70q-4 3 -4 9zM19 230l62 67l18 -20l-77 -46l-1 -1h-2zM19 370h1l2 -1l78 -46l-19 -21zM84 300l20 20l23 -13q10 -7 0 -14l-24 -14zM170 302q0 -12 8.5 -22t24.5 -10q4 0 14 2l13 3v11v4q0 1 1 1l2 2h-19l-7 -3h14v-14q-6 -2 -12 -2 q-13 0 -21.5 9.5t-8.5 22.5q0 11 7 18.5t17 7.5t18 -8l-2 -4l3 1l8 7q-7 4 -12 5q-8 2 -13 2q-16 0 -25.5 -10t-9.5 -23zM236 294q0 -8 5.5 -14.5t15.5 -6.5t16 6.5t6 15.5q0 8 -5.5 14t-14.5 6q-23 0 -23 -21zM245 299q0 8 3 11q1 0 3.5 1.5t4.5 1.5q15 0 15 -23 q0 -6 -3 -9q-3 -5 -9 -5q-14 0 -14 23zM283 294q0 -8 5.5 -14.5t15.5 -6.5t16 6.5t6 15.5q0 8 -6 14t-15 6q-10 0 -16 -6t-6 -15zM291 299q0 7 4 11q6 3 8 3q15 0 15 -23q0 -6 -3 -9q-3 -5 -9 -5q-7 0 -11 7.5t-4 15.5zM326 260q0 -13 19 -13q11 0 17 5t6 12q0 5 -7 12l-4 3 q-2 0 -2 3q0 4 3 5q7 7 7 12q0 6 -6 12h5l6 3h-18q-10 0 -16 -5q-5 -5 -5 -12q0 -13 14 -13h3q-1 -1 -1 -3q0 -5 3 -6q-1 0 -4.5 -0.5t-7 -1.5t-5.5 -2q-7 -6 -7 -11zM334 262q0 2 7 9q4 1 10 1h2q9 -8 9 -12q0 -9 -13 -9q-15 0 -15 11zM338 302q0 2 2 6q3 3 6 3 q11 0 11 -16q0 -4 -2 -6q-1 -3 -6 -3q-11 0 -11 16zM368 334l6 3h13q-4 -3 -4 -6v-49q0 -4 3 -5h5l-4 -2h-15q2 3 2 5v54h-6zM390 295q0 -12 9 -18q4 -4 11 -4q3 0 9 2q1 0 3 2l4 4q-4 -3 -10 -3q-15 0 -18 17l7 1l20 8q-4 7 -6 9q-6 2 -9 2q-8 0 -14 -5t-6 -15zM398 296v4 q0 12 9 12t9 -7q0 -2 -2 -2zM456 254h6v17v7q3 -3 6 -4q4 -2 7 -2q9 0 13 6q4 5 4 16t-4 16q-4 6 -13 6q-3 0 -7 -2q-2 0 -6 -5l-1 6h-5v-61zM462 294v1q0 7 3 12q3 3 9 3t9 -4t3 -12t-3 -12q-3 -5 -9 -5q-5 0 -9 4q-3 4 -3 13zM500 273h7v59h-7v-59zM514 285q0 -6 4 -10 q3 -3 9 -3q4 0 8 2q3 0 6 5h1l1 -6h4v28q0 8 -3 11t-11 3h-7q-3 -1 -7 -3l2 -5q6 3 12 3q4 0 6 -2t2 -7v-3h-7q-20 -2 -20 -13zM521 284q0 6 3 7q4 2 11 2l6 1v-4q0 -6 -3 -9q-3 -4 -9 -4q-4 0 -6 2t-2 5zM551 315l17 -42l-2 -6q-3 -8 -10 -8l-4 1v-5q2 -1 5 -1q6 0 9 3 t6 10l18 48h-7q-3 -8 -10 -29l-2 -7l-4 12l-9 24h-7z" />
<glyph unicode="c" d="M50 131q8 -1 24 -1q73 0 128 47q-33 1 -59.5 22.5t-36.5 54.5q6 -2 19 -2q16 0 27 4q-36 8 -59 38t-23 71q23 -13 47 -13q-46 31 -46 92q0 30 14 55q38 -51 93 -81.5t118 -33.5q-2 8 -2 25q0 46 29.5 78t72.5 32q45 0 75 -35q35 9 65 27q-10 -38 -45 -61q32 5 59 18 q-20 -34 -51 -58v-14q0 -76 -32.5 -146.5t-101 -119.5t-158.5 -49q-84 0 -157 50z" />
<glyph unicode="d" d="M106 371q0 69 55 124.5t151 55.5q80 0 131 -49.5t51 -115.5q0 -85 -43.5 -141t-111.5 -56q-23 0 -43 10.5t-28 25.5q-16 -66 -20 -79q-10 -38 -52 -94q-1 -1 -2 -1h-2q-2 1 -3 3q-5 30 -5 56q0 29 6 53l37 157q-9 18 -9 45q0 32 16 53t39 21q39 0 39 -43q0 -12 -4 -28 t-11 -38.5t-10 -35.5q-1 -6 -1 -11q0 -15 10 -27q14 -16 36 -17q40 0 66 44.5t26 108.5q0 49 -32 79.5t-88 30.5q-63 0 -102.5 -40.5t-39.5 -97.5q0 -32 19 -56q6 -8 4 -16q-3 -16 -6 -23q-3 -12 -14 -7q-59 24 -59 109z" />
<glyph unicode="e" d="M184 299v89h49v57q0 40 24 72.5t81 32.5l77 -1v-85h-56q-22 0 -22 -24v-52h79l-9 -89h-70v-249h-104v249h-49z" />
<glyph unicode="f" d="M50 147v306q0 41 28 69t69 28h306q41 0 69 -28t28 -69v-306q0 -41 -28 -69t-69 -28h-306q-41 0 -69 28t-28 69zM99 147q0 -20 14 -34t34 -14h306q20 0 34 14t14 34v204h-74q10 -27 10 -51q0 -56 -40.5 -96.5t-96.5 -40.5t-96.5 40.5t-40.5 96.5q0 24 10 51h-74v-204z M212 300q0 -37 25.5 -62.5t62.5 -25.5t62.5 25.5t25.5 62.5q0 29 -17 51q-27 37 -71 37t-71 -37q-17 -22 -17 -51zM407 492l1 -85l84 1v84h-85z" />
<glyph unicode="g" d="M59 141q0 44 44.5 78t107.5 34h27q-21 19 -21 43q0 15 8 29q-5 -1 -15 -1q-52 0 -84.5 33t-32.5 80q0 45 41 79t93 34h155l-34 -25h-50q24 -9 37 -33.5t13 -55.5q0 -47 -43 -81q-19 -15 -24.5 -23.5t-5.5 -20.5q0 -20 41 -49q30 -21 42 -43.5t12 -56.5q0 -45 -41 -78.5 t-111 -33.5q-67 0 -113 25t-46 66zM115 158q0 -34 29 -58.5t73 -24.5q113 0 113 81q0 5 -2 15q-1 5 -3.5 10t-6.5 10t-7 8t-9.5 8t-10 7.5t-12.5 8.5t-13 9q-18 6 -38 6h-4q-42 0 -75 -23q-34 -24 -34 -57zM148 437q5 -39 30 -67.5t55 -29.5h2q29 0 45 26q14 21 14 50 q0 8 -1 17q-5 39 -30 66.5t-55 28.5h-2q-29 0 -46 -26q-13 -20 -13 -48q0 -8 1 -17zM372 287v49h60v60h49v-60h60v-49h-60v-60h-49v60h-60z" />
<glyph unicode="h" d="M48 333q0 -91 64 -155t155 -64q64 0 118 35l83 -83q14 -14 33 -14t33 14t14 33t-14 33l-83 83q35 54 35 118q0 91 -64 155t-155 64t-155 -64t-64 -155zM110 333q0 65 46 110.5t111 45.5t110.5 -45.5t45.5 -110.5t-45.5 -111t-110.5 -46t-111 46t-46 111z" />
<glyph unicode="i" d="M10 300q0 120 85 205t205 85t205 -85t85 -205t-85 -205t-205 -85t-205 85t-85 205zM33 300q0 -54 21 -104q21 -47 57 -85q38 -36 85 -57q50 -21 104 -21t104 21q47 21 85 57q36 38 57 85q21 49 21 104q0 54 -21 104q-21 47 -57 85q-38 36 -85 57q-50 21 -104 21t-104 -21 q-47 -21 -85 -57q-36 -38 -57 -85q-21 -50 -21 -104zM169 350l12 15l119 -144l119 144l12 -15l-131 -159z" />
<glyph unicode="j" d="M50 250q0 53 9 119q0 4 1 5q0 2 1 3q5 14 17 23.5t28 9.5h-3q84 12 197 13q50 0 99.5 -3.5t73.5 -6.5l24 -3h-3q16 0 28 -9.5t17 -23.5q1 -1 1 -3q1 -1 1 -5q9 -66 9 -119q0 -52 -9 -118q0 -4 -1 -6q0 -1 -1 -2q-5 -14 -17 -23.5t-28 -9.5h3q-84 -13 -197 -13 q-50 0 -99.5 3t-73.5 7l-24 3h3q-16 0 -28 9.5t-17 23.5q-1 1 -1 2q-1 2 -1 6q-9 66 -9 118zM254 176q0 -8 6 -11q2 -1 6 -1q3 0 7 2l101 74q5 3 5 10q0 6 -5 9l-101 74q-4 2 -8 2q-3 0 -5 -1q-6 -3 -6 -11v-147z" />
<glyph unicode="k" d="M50 300q0 104 73 177t177 73t177 -73t73 -177t-73 -177t-177 -73t-177 73t-73 177zM220 204q0 -11 7 -15q3 -2 6 -2q5 0 11 4l168 96q10 5 10 13t-10 13l-168 96q-6 4 -11 4q-3 0 -6 -2q-7 -4 -7 -15v-192z" />
<glyph unicode="l" />
<glyph unicode="m" />
<glyph unicode="n" />
<glyph unicode="o" />
<glyph unicode="p" />
<glyph unicode="q" />
<glyph unicode="r" />
<glyph unicode="s" />
<glyph unicode="t" />
<glyph unicode="u" />
<glyph unicode="v" />
<glyph unicode="w" />
<glyph unicode="x" />
<glyph unicode="y" />
<glyph unicode="z" />
<glyph unicode="&#xa0;" />
<glyph unicode="&#x2000;" horiz-adv-x="333" />
<glyph unicode="&#x2001;" horiz-adv-x="666" />
<glyph unicode="&#x2002;" horiz-adv-x="333" />
<glyph unicode="&#x2003;" horiz-adv-x="666" />
<glyph unicode="&#x2004;" horiz-adv-x="222" />
<glyph unicode="&#x2005;" horiz-adv-x="166" />
<glyph unicode="&#x2006;" horiz-adv-x="111" />
<glyph unicode="&#x2007;" horiz-adv-x="111" />
<glyph unicode="&#x2008;" horiz-adv-x="83" />
<glyph unicode="&#x2009;" horiz-adv-x="133" />
<glyph unicode="&#x200a;" horiz-adv-x="37" />
<glyph unicode="&#x202f;" horiz-adv-x="133" />
<glyph unicode="&#x205f;" horiz-adv-x="166" />
</font>
</defs>
</svg>
