<?xml version="1.0" encoding="utf-8"?>
<!-- Generator: Adobe Illustrator 15.0.0, SVG Export Plug-In . SVG Version: 6.00 Build 0)  -->
<!DOCTYPE svg PUBLIC "-//W3C//DTD SVG 1.1//EN" "http://www.w3.org/Graphics/SVG/1.1/DTD/svg11.dtd">
<svg version="1.1" xmlns="http://www.w3.org/2000/svg" xmlns:xlink="http://www.w3.org/1999/xlink" x="0px" y="0px" width="210px"
	 height="23.001px" viewBox="0 0 210 23.001" enable-background="new 0 0 210 23.001" xml:space="preserve">
<g id="Direita">
	<g>
		<path fill="#6C5441" d="M182.694,1.266c-5.781,1.771-10.761,4.922-15.819,8.332c-3.065,2.069-5.534,3.105-8.926,2.589
			c-0.324-0.049-0.201,0.064-0.168,0.071c3.412,1.123,6.947-0.255,10.025-1.729c4.077-1.95,7.467-4.457,11.464-6.806
			c4.188-2.464,7.766-3.185,9.618-3.566c0.171-0.052,0.246-0.188-0.061-0.149C186.83,0.265,184.596,0.683,182.694,1.266z"/>
		<path fill="#6C5441" d="M184.543,5.315c-0.684,0.368-1.309,0.703-1.966,1.115c-5.474,3.43-10.236,7.308-16.142,9.589
			c-5.624,2.173-9.011,0.979-11.315,0.132c-0.094-0.034-0.188,0.062-0.053,0.135c2.252,1.185,4.587,1.61,7.183,1.4
			c9.031-0.73,16.781-6.749,24.321-11.58c4.775-3.062,13.417-6.075,19.722-0.625c4.526,3.912,3.856,9.862,1.117,12.945
			c-2.749,3.094-7,4.561-10.337,4.288c-2.816-0.23-4.908-1.162-5.084-1.192c-0.256-0.048-0.424,0.054-0.11,0.168
			c1.825,0.67,3.565,1.138,5.152,1.268c6,0.488,11.001-3.313,12.428-7.339c1.785-5.028-1.032-10.162-5.77-12.31
			C195.379-0.457,187.016,3.986,184.543,5.315z"/>
		<path fill="#6C5441" d="M188.723,9.394c-4.966,3.063-9.357,6.072-14.643,8.192c-0.072,0.03-0.037,0.124,0.038,0.105
			c3.628-0.837,6.829-2.359,10.186-3.889c2.938-1.339,5.554-2.878,8.424-4.568c3.532-2.084,8.825-3.493,11.562,0.393
			c0.045,0.062,0.198,0.045,0.123-0.08c-1.245-2.075-3.904-2.856-5.98-2.999C194.975,6.312,191.688,7.562,188.723,9.394z"/>
	</g>
</g>
<g id="Esquerda">
	<g>
		<path fill="#6C5441" d="M27.306,1.266c5.781,1.771,10.761,4.922,15.819,8.332c3.065,2.069,5.534,3.105,8.926,2.589
			c0.324-0.049,0.201,0.064,0.168,0.071c-3.412,1.123-6.947-0.255-10.025-1.729c-4.077-1.95-7.467-4.457-11.464-6.806
			c-4.188-2.464-7.766-3.185-9.618-3.566c-0.171-0.052-0.246-0.188,0.061-0.149C23.17,0.265,25.404,0.683,27.306,1.266z"/>
		<path fill="#6C5441" d="M25.457,5.315c0.684,0.368,1.309,0.703,1.966,1.115c5.474,3.43,10.236,7.308,16.142,9.589
			c5.624,2.173,9.011,0.979,11.315,0.132c0.094-0.034,0.188,0.062,0.053,0.135c-2.252,1.185-4.587,1.61-7.183,1.4
			c-9.031-0.73-16.781-6.749-24.321-11.58C18.653,3.045,10.012,0.031,3.707,5.481c-4.526,3.912-3.856,9.862-1.117,12.945
			c2.749,3.094,7,4.561,10.337,4.288c2.816-0.23,4.908-1.162,5.084-1.192c0.256-0.048,0.424,0.054,0.11,0.168
			c-1.825,0.67-3.565,1.138-5.152,1.268c-6,0.488-11.001-3.313-12.428-7.339c-1.785-5.028,1.032-10.162,5.77-12.31
			C14.621-0.457,22.984,3.986,25.457,5.315z"/>
		<path fill="#6C5441" d="M21.277,9.394c4.966,3.063,9.357,6.072,14.643,8.192c0.072,0.03,0.037,0.124-0.038,0.105
			c-3.628-0.837-6.829-2.359-10.186-3.889c-2.938-1.339-5.554-2.878-8.424-4.568C13.74,7.15,8.447,5.741,5.711,9.627
			c-0.045,0.062-0.198,0.045-0.123-0.08c1.245-2.075,3.904-2.856,5.98-2.999C15.025,6.312,18.312,7.562,21.277,9.394z"/>
	</g>
</g>
</svg>
