<?xml version="1.0" encoding="utf-8"?>
<!-- Generator: Adobe Illustrator 16.0.0, SVG Export Plug-In . SVG Version: 6.00 Build 0)  -->
<!DOCTYPE svg PUBLIC "-//W3C//DTD SVG 1.1//EN" "http://www.w3.org/Graphics/SVG/1.1/DTD/svg11.dtd">
<svg version="1.1" id="Layer_1" xmlns="http://www.w3.org/2000/svg" xmlns:xlink="http://www.w3.org/1999/xlink" x="0px" y="0px"
	 width="227px" height="38px" viewBox="0 0 227 38" enable-background="new 0 0 227 38" xml:space="preserve">
<path fill="none" stroke="#FFFFFF" stroke-linecap="round" stroke-miterlimit="10" d="M15.909,18.954
	c-3.656-1.379-5.503-5.459-4.124-9.115c1.103-2.925,4.366-4.402,7.291-3.3c2.34,0.882,3.521,3.494,2.641,5.834
	c-0.706,1.872-2.796,2.816-4.667,2.112c-1.498-0.563-2.255-2.237-1.689-3.733c0.45-1.199,1.787-1.805,2.986-1.353"/>
<line fill="none" stroke="#FFFFFF" stroke-linecap="round" stroke-miterlimit="10" x1="15.993" y1="19.026" x2="29.422" y2="19.026"/>
<path fill="none" stroke="#FFFFFF" stroke-linecap="round" stroke-miterlimit="10" d="M15.926,19.045
	c-3.655,1.379-5.502,5.458-4.124,9.115c1.103,2.926,4.367,4.401,7.292,3.301c2.339-0.884,3.521-3.495,2.64-5.835
	c-0.705-1.871-2.796-2.816-4.667-2.111c-1.498,0.563-2.254,2.236-1.689,3.732c0.451,1.199,1.788,1.806,2.986,1.354"/>
<ellipse fill="none" stroke="#FFFFFF" stroke-miterlimit="10" cx="7.868" cy="18.998" rx="2.913" ry="2.595"/>
<path fill="none" stroke="#FFFFFF" stroke-linecap="round" stroke-miterlimit="10" d="M211.09,18.954
	c3.657-1.379,5.504-5.459,4.125-9.115c-1.103-2.925-4.366-4.402-7.292-3.3c-2.34,0.882-3.521,3.494-2.641,5.834
	c0.707,1.872,2.797,2.816,4.668,2.112c1.498-0.563,2.254-2.237,1.689-3.733c-0.451-1.199-1.787-1.805-2.987-1.353"/>
<line fill="none" stroke="#FFFFFF" stroke-linecap="round" stroke-miterlimit="10" x1="211.006" y1="19.026" x2="197.577" y2="19.026"/>
<path fill="none" stroke="#FFFFFF" stroke-linecap="round" stroke-miterlimit="10" d="M211.073,19.045
	c3.656,1.379,5.503,5.458,4.125,9.115c-1.103,2.926-4.367,4.401-7.292,3.301c-2.34-0.884-3.521-3.495-2.641-5.835
	c0.706-1.871,2.796-2.816,4.667-2.111c1.498,0.563,2.255,2.236,1.689,3.732c-0.45,1.199-1.787,1.806-2.986,1.354"/>
<ellipse fill="none" stroke="#FFFFFF" stroke-miterlimit="10" cx="219.132" cy="18.998" rx="2.913" ry="2.595"/>
</svg>
