<?xml version="1.0" standalone="no"?>
<!DOCTYPE svg PUBLIC "-//W3C//DTD SVG 1.1//EN" "http://www.w3.org/Graphics/SVG/1.1/DTD/svg11.dtd" >
<svg xmlns="http://www.w3.org/2000/svg">
<metadata>
This is a custom SVG webfont generated by Font Squirrel.
Copyright   : Copyright c 2010 by Pablo Impallari wwwimpallaricom All rights reserved
Designer    : Pablo Impallari
Foundry     : Pablo Impallari wwwimpallaricom
Foundry URL : wwwimpallaricom
</metadata>
<defs>
<font id="Lobster1.4Regular" horiz-adv-x="899" >
<font-face units-per-em="2048" ascent="1638" descent="-410" />
<missing-glyph horiz-adv-x="386" />
<glyph unicode=" "  horiz-adv-x="386" />
<glyph unicode="&#x09;" horiz-adv-x="386" />
<glyph unicode="&#xa0;" horiz-adv-x="386" />
<glyph unicode="!" horiz-adv-x="457" d="M61 142.5q0 58.5 41.5 100t100.5 41.5t100 -41.5t41 -99.5q0 -59 -41 -101t-100 -42t-100 42q-42 42 -42 100.5zM175 412l126 836h257l-232 -836h-151z" />
<glyph unicode="&#x22;" horiz-adv-x="748" d="M110 1000l109 336h187l-162 -336h-134zM391 1000l108 336h187l-162 -336h-133z" />
<glyph unicode="#" horiz-adv-x="1174" d="M80 197l37 182h186l37 202h-182l38 182h176l93 516h157l-116 -516h187l93 516h156l-116 -516h186l-36 -182h-189l-44 -202h191l-36 -182h-196l-54 -245h-101l45 245h-211l-53 -245h-102l45 245h-191zM422 379h202l37 202h-194z" />
<glyph unicode="$" horiz-adv-x="717" d="M43 396q0 69 37.5 111t83 42t65 -13.5t19.5 -30.5q-71 -15 -71 -133q0 -39 22 -66.5t52 -41.5l64 349l-66 52q-76 58 -99.5 103.5t-23.5 91.5q0 91 85.5 159t189.5 71l34 189h103l-45 -194q70 -12 99 -36q56 -43 56 -109q0 -138 -85 -138q-36 0 -70 41q43 25 43 92 q0 20 -13 43t-44 36l-64 -287l70 -50q132 -91 132 -218.5t-88.5 -196t-232.5 -71.5l-52 -239h-48l42 240q-81 6 -139 52q-56 47 -56 152zM296 881.5q0 -48.5 49 -99.5l43 241q-52 -12 -72 -52.5t-20 -89zM311 257q64 8 92 54q27 47 27 112.5t-52 128.5z" />
<glyph unicode="%" horiz-adv-x="1147" d="M191 858q0 174 78 283.5t210 109.5q79 0 113 -51.5t34 -164.5t-72.5 -241t-196.5 -128q-95 0 -130.5 50.5t-35.5 141.5zM216 0l687 1336h129l-688 -1336h-128zM319 884q0 -80 9 -115.5t41 -35.5q66 0 108 102t42 241q0 46 -8 79t-37 33q-44 0 -89 -67q-66 -100 -66 -237z M632 190q0 175 78.5 285t210.5 110q79 0 121.5 -51.5t42.5 -169.5t-64 -229q-75 -135 -218 -135q-99 0 -135 49.5t-36 140.5zM752 182q0 -45 8.5 -80.5t41.5 -35.5q65 0 104.5 95t39.5 226.5t-50 131.5q-43 0 -83 -67q-61 -95 -61 -270z" />
<glyph unicode="&#x26;" horiz-adv-x="1215" d="M20 342.5q0 142.5 84.5 256t237.5 144.5q-177 95 -177 271q0 128 108 225t288 97q137 0 232.5 -59.5t95.5 -178.5q0 -164 -124 -164q-63 0 -102 46q30 9 54 59t24 75q0 144 -117 144q-95 0 -156.5 -64.5t-61.5 -148.5t54 -164q55 -79 181 -136q-160 -67 -235 -161.5 t-75 -194.5t61.5 -169.5t147.5 -69.5q170 0 266 173q35 64 56 162l-65 7q-31 3 -61 3q-117 0 -168 -80l-12 2q27 110 116 181q88 70 228 70l135 -9q48 0 97 18t72 59h11q0 -77 -81.5 -154t-189.5 -94q-107 -385 -338 -471q-73 -27 -191.5 -27t-187.5 30t-115 81 q-92 99 -92 241.5z" />
<glyph unicode="'" horiz-adv-x="477" d="M182 1000l109 336h187l-163 -336h-133z" />
<glyph unicode="(" horiz-adv-x="778" d="M246 178q0 171 41 351q84 376 300 620q111 125 239 187l24 -71q-196 -97 -337 -444q-86 -209 -120 -455q-17 -120 -17 -236q0 -327 130 -524l-59 -51q-201 221 -201 623z" />
<glyph unicode=")" horiz-adv-x="736" d="M-51 -374q100 49 185 168q176 235 251 611q37 181 37 355q0 329 -130 525l59 51q104 -115 153 -278q48 -164 48 -341q0 -368 -157 -695q-76 -159 -184 -281.5t-240 -185.5z" />
<glyph unicode="*" horiz-adv-x="917" d="M153 893l194 112l-194 112l54 93l191 -110v240h114v-240l190 110l53 -93l-194 -112l194 -112l-53 -93l-190 111v-241h-114v241l-191 -111z" />
<glyph unicode="+" horiz-adv-x="917" d="M95 365l42 200h228l48 217h202l-49 -217h227l-41 -200h-228l-48 -219h-202l49 219h-228z" />
<glyph unicode="," horiz-adv-x="384" d="M43 124q0 67 40.5 109.5t100.5 42.5q87 0 113 -81q7 -25 7 -59q0 -79 -63 -184t-168 -176q-16 10 -16 32q0 28 46.5 77t46.5 76t-30 46q-77 50 -77 117z" />
<glyph unicode="-" horiz-adv-x="516" d="M34 396l32 140h356l-30 -140h-358z" />
<glyph unicode="." horiz-adv-x="468" d="M55 133q0 58 41 101q41 42 100 42t101 -42q41 -42 41 -101t-42 -99.5t-100 -40.5t-100 41q-41 41 -41 99z" />
<glyph unicode="/" horiz-adv-x="554" d="M20 -445l378 1781h127l-377 -1781h-128z" />
<glyph unicode="0" horiz-adv-x="972" d="M53 423q0 511 255 762q154 151 364 151q317 0 317 -453q0 -313 -147 -588q-165 -311 -431 -311q-206 0 -289 123q-69 103 -69 316zM326 403q0 -269 106 -269q76 0 135 75q118 146 166 469q22 153 22 258q0 178 -15 233q-22 75 -79 75t-127 -83q-116 -141 -172 -394 q-36 -156 -36 -364z" />
<glyph unicode="1" horiz-adv-x="564" d="M37 0l235 1112h-168l20 82q100 0 169 17q145 37 285 122l-284 -1333h-257z" />
<glyph unicode="2" horiz-adv-x="876" d="M-20 23v30q0 98 43 178q70 132 246.5 307t253.5 339q43 97 43 215q0 66 -34 106q-35 40 -77 40q-82 0 -112 -35t-30 -103.5t37 -107.5q13 -14 31 -19q-68 -60 -129 -60t-98 40.5t-37 102.5q0 120 90.5 199.5t277.5 79.5q338 0 338 -288q0 -244 -261 -464l-143 -118 q-70 -57 -131.5 -113t-98.5 -117h8q81 0 161 -16t153 -16t104 8q56 14 107 62l55 53q2 -22 2 -41v-37q0 -142 -43 -205t-156.5 -63t-200 22t-136.5 32t-92 10q-54 0 -99 -20l-68 -29q-4 14 -4 28z" />
<glyph unicode="3" horiz-adv-x="916" d="M10 298q0 107 54 180q55 71 169 71t132 -91q-156 -11 -156 -193q0 -132 85 -152q24 -6 65.5 -6t87.5 25t78 66q67 86 67 210q0 172 -131 278q-44 37 -106 59q141 41 222.5 143t81.5 204q0 146 -151 146q-50 0 -87.5 -38t-37.5 -86q0 -122 68 -141q-67 -60 -136 -60 q-87 0 -118 86q-10 28 -10 76.5t28.5 98.5t78.5 86q104 75 261.5 75t244.5 -76t87 -175t-60.5 -188.5t-183.5 -152.5q117 -39 170.5 -118.5t53.5 -175.5q0 -171 -136 -310q-145 -147 -359 -147q-50 0 -106 8q-140 23 -215 130q-41 61 -41 168z" />
<glyph unicode="4" horiz-adv-x="848" d="M14 490q16 49 41 104l112 241q107 236 107 394q0 56 -12 107q132 0 182 -95q15 -33 15 -96t-27 -134.5t-67.5 -137t-85.5 -126.5t-80 -125h279l144 679l264 35l-153 -714h114l-36 -132h-107l-104 -490h-256l105 490h-435z" />
<glyph unicode="5" horiz-adv-x="921" d="M27 248q0 128 68.5 190t170 62t119.5 -90q-70 -10 -115 -50q-46 -40 -46 -116t49 -108q37 -26 95 -26q106 0 167.5 100.5t61.5 228.5t-52.5 193t-134.5 65t-135 -25q-98 -48 -139 -75l146 711q47 -6 89 -11l81 -9q81 -11 150 -11q143 0 289 58q3 -28 3 -65 q0 -85 -48 -143t-156 -58q-70 0 -171 20.5t-127 24.5l-71 -323q115 56 210 56q166 0 246 -105.5t80 -263.5q0 -204 -122 -336q-139 -151 -395 -151q-313 0 -313 257z" />
<glyph unicode="6" horiz-adv-x="885" d="M29 344v32q0 119 27.5 264.5t65.5 248.5q78 211 215.5 329t328.5 118q94 0 149.5 -44t55.5 -96t-38 -88q-39 -35 -120 -39q28 27 28 63t-25 67q-25 30 -64 30q-86 0 -175 -105.5t-150 -349.5q-33 -129 -47.5 -268t-14.5 -193q0 -109 35 -146t93 -37q103 0 179 117 q80 118 80 245q0 187 -93 187t-158 -135q-36 51 -36 96q0 84 74 134.5t157.5 50.5t129.5 -26.5t74 -68.5q57 -80 57 -198q0 -230 -143.5 -385.5t-337.5 -155.5q-284 0 -332 218q-15 63 -15 135z" />
<glyph unicode="7" horiz-adv-x="826" d="M59 214q0 118 45 231q86 209 302 472l214 254q-78 10 -151 10q-257 0 -369 -127q-15 65 -15 107q0 87 56.5 131t186.5 44h585l-170 -259l-226 -360q-125 -208 -141 -245q-57 -131 -57 -229q0 -54 19.5 -93.5t67.5 -79.5q-26 -70 -155 -70q-99 0 -145.5 48t-46.5 166z" />
<glyph unicode="8" horiz-adv-x="889" d="M-14 341.5q0 138.5 83 247.5t237 154q-151 88 -151 243q0 133 113.5 241t279 108t253.5 -74t88 -174.5t-61.5 -191t-188.5 -152.5q114 -35 165 -111q51 -77 51 -148.5t-16.5 -128.5t-46.5 -110q-67 -113 -180 -183.5t-250 -70.5q-176 0 -276 106t-100 244.5zM244 296 q0 -83 33 -130t86 -47q94 0 153.5 90t59.5 209q0 166 -113 264q-159 -109 -205 -290q-14 -54 -14 -96zM388 1034q0 -147 95 -230q126 82 168 238q12 44 12 90.5t-22 81.5t-67 35q-83 0 -134.5 -70t-51.5 -145z" />
<glyph unicode="9" horiz-adv-x="870" d="M51 160q0 132 154 132q-25 -25 -25 -62.5t27.5 -67.5t56 -30t45 2t52 16.5t64.5 40.5q76 68 136.5 227.5t81.5 448.5q3 68 3 93q0 154 -38 206.5t-120.5 52.5t-153 -123t-70.5 -264q0 -73 22 -128.5t78 -55.5q108 0 149 107q38 -44 38 -89q0 -67 -70.5 -115t-181 -48 t-174.5 94.5t-64 216.5q0 221 133.5 371.5t327.5 150.5q344 0 344 -418q0 -270 -72.5 -478.5t-210.5 -328.5t-321 -120q-97 0 -154 52t-57 117z" />
<glyph unicode=":" horiz-adv-x="475" d="M73 240q0 58 40.5 100.5t99.5 42.5t101.5 -42t42.5 -101t-43 -99.5t-101 -40.5t-99 41t-41 99zM162 667.5q0 58.5 41 101.5q41 42 100 42t101 -42q41 -42 41 -101.5t-42 -100t-100 -40.5t-100 41q-41 41 -41 99.5z" />
<glyph unicode=";" horiz-adv-x="491" d="M82 153q0 67 40.5 109t100.5 42q87 0 113 -81q8 -25 8 -59q0 -80 -63.5 -185t-168.5 -175q-15 11 -15 32q0 29 46 78t46 75t-24 43q-83 54 -83 121zM168 589q0 58 40.5 101t99.5 43t101 -42.5t42 -101.5t-42.5 -99.5t-100.5 -40.5t-99 41t-41 99z" />
<glyph unicode="&#x3c;" horiz-adv-x="639" d="M36 424l15 73l548 268l-18 -99l-430 -214l346 -170l-21 -102z" />
<glyph unicode="=" horiz-adv-x="917" d="M57 180l43 199h655l-41 -199h-657zM136 563l42 200h655l-40 -200h-657z" />
<glyph unicode="&#x3e;" horiz-adv-x="613" d="M27 180l24 102l428 170l-345 214l16 99l438 -268l-20 -96z" />
<glyph unicode="?" horiz-adv-x="785" d="M85 142.5q0 58.5 42.5 100t101 41.5t99.5 -41.5t41 -99.5q0 -59 -41 -101t-99.5 -42t-101.5 42q-42 42 -42 100.5zM98 946q0 122 86 203q103 99 288 99q240 0 275 -133q11 -37 11 -69t-1 -35q0 -180 -181 -317l-97 -78q-114 -97 -149 -203h-118q0 105 84 212 q36 45 78 88.5t78 90.5q84 110 84 214q0 133 -101 133q-50 0 -94.5 -42.5t-44.5 -105t35 -98.5q14 -14 33 -19q-47 -75 -131 -75q-52 0 -93.5 37.5t-41.5 97.5z" />
<glyph unicode="@" horiz-adv-x="1001" d="M-14 292q0 292 179 496q113 130 268 179q79 25 141.5 25t109.5 -9q109 -20 163 -123q28 -55 28 -144.5t-26 -173.5t-68.5 -150.5t-97 -107.5t-110.5 -41t-80 41q-46 -70 -105 -70q-114 0 -114 119t52 242.5t114 170.5q32 23 72 23l1 1q39 0 65 -32l7 28l97 -11l-80 -342 q-7 -22 -7 -48.5t25 -26.5q70 0 124 295q11 65 11 96q0 69 -29 103q-39 47 -116 47t-133.5 -24t-102.5 -65q-90 -82 -141 -215t-51 -258.5t46 -175t157 -49.5t172.5 28.5t108.5 90.5q41 -17 41 -70q0 -97 -96 -151q-99 -58 -270 -58t-263 82.5t-92 277.5zM391 378 q0 -55 31 -55q23 0 59 24q0 18 5 38l77 295q-12 15 -41.5 15t-56.5 -40q-59 -86 -73 -244q-1 -19 -1 -33z" />
<glyph unicode="A" horiz-adv-x="1190" d="M16 595q0 92 103 157q105 64 260 64q36 0 93 -5q145 227 307 376t313 149q90 0 141 -25l-279 -1311h-257l136 646q-118 54 -238 65q-160 -354 -214 -650q-17 -95 -17 -162.5t24 -101.5q-105 0 -148 22q-90 45 -90 167q0 185 154 519q49 104 108 206q-84 -5 -137.5 -25.5 t-71.5 -66.5q8 0 15.5 -18t7.5 -44t-29 -45t-61 -19q-59 0 -89.5 27.5t-30.5 74.5zM632 787q125 -24 218 -61l104 484q-154 -83 -322 -423z" />
<glyph unicode="B" horiz-adv-x="1142" d="M22 864q0 94 53 178t143 150q199 144 450 144q186 0 282.5 -82t96.5 -201q0 -80 -45 -157q-45 -76 -133 -126q108 -22 159.5 -100t51.5 -187q0 -64 -19 -152q-41 -197 -184 -306q-74 -55 -189.5 -55t-156.5 65q-18 26 -18 68t23 102q60 -64 115 -64q94 0 142 110 q39 88 39 210q0 227 -169 227q-39 0 -82 -6l-146 -682h-257l242 1134l264 34l-84 -395h11q102 0 179 92.5t77 196.5q0 131 -126 177q-45 16 -103 16t-111.5 -12t-101.5 -35q-109 -54 -173.5 -151.5t-64.5 -235.5q0 -70 22 -108q3 -7 3 -13q-141 0 -177 87q-13 32 -13 77z " />
<glyph unicode="C" horiz-adv-x="885" d="M34 397.5q0 223.5 74 446.5q86 263 254 393q129 99 294 99q207 0 274 -129q24 -46 24 -109q0 -164 -126 -164q-62 0 -101 46q33 17 57.5 65t24.5 95.5t-24.5 80t-79 32.5t-101 -36.5t-87.5 -99.5q-83 -125 -135 -320t-52 -354t46.5 -229.5t159.5 -70.5q223 0 355 178 l41 -18q-85 -216 -325 -300q-94 -33 -184 -33h-5q-198 2 -291 103t-93 324.5z" />
<glyph unicode="D" horiz-adv-x="1181" d="M10 873.5q0 53.5 24 112t68 110.5q89 107 242 173.5t329 66.5q321 0 430 -259q46 -110 46 -259.5t-41 -300.5q-84 -316 -265 -466q-90 -74 -192.5 -74t-212.5 94l-14 -71h-256l242 1134l263 34l-214 -998q49 -36 102 -36q80 0 144 71q122 139 174 438q24 137 24 275 q0 337 -260 337q-204 0 -335 -117.5t-131 -316.5q0 -72 20 -108q4 -7 4 -13q-141 0 -178 88q-13 32 -13 85.5z" />
<glyph unicode="E" horiz-adv-x="817" d="M12 289q0 141 91.5 279t238.5 175q-109 79 -109 218.5t113 259t278 119.5q110 0 182.5 -58t72.5 -151.5t-39.5 -146t-90.5 -52.5t-86 48q31 12 54.5 59t23.5 98.5t-31 74.5q-32 23 -70 23q-74 0 -126.5 -77t-52.5 -175q0 -134 98 -202q34 -24 82 -36q-136 -30 -227 -163 t-91 -263q0 -75 39 -127.5t128.5 -52.5t186 48t144.5 134l41 -18q-70 -155 -214 -245t-307.5 -90t-246 90t-82.5 231z" />
<glyph unicode="F" horiz-adv-x="817" d="M16 893.5q0 68.5 33 152t106 148.5q161 142 469 142q58 0 133.5 -10.5t165.5 -10.5t157 21l-17 -60q-32 -128 -152 -154q-97 0 -250 34l-75 -354h261l-29 -132h-260l-145 -670h-256l256 1190q-113 -3 -172 -85q-59 -81 -59 -284q0 -70 22 -108q3 -7 3 -13q-143 0 -179 92 q-12 33 -12 101.5z" />
<glyph unicode="G" horiz-adv-x="1030" d="M34 651q0 129 43 252q65 185 218.5 309t372.5 124t299 -129q29 -46 29 -109q0 -164 -125 -164q-83 0 -123 46q30 11 54 59.5t24 73.5q0 140 -122 140q-72 0 -145 -56.5t-128 -144.5t-89 -198.5t-34 -193.5q0 -151 51.5 -234.5t154 -83.5t152.5 66l77 338l230 -1 l-147 -670q-45 -220 -146.5 -332t-308.5 -112q-119 0 -183.5 72.5t-64.5 171.5t58.5 172.5t147 73.5t119.5 -15q67 -29 67 -104q0 -32 -10 -72q-55 47 -112.5 47t-89 -43.5t-31.5 -90.5t27.5 -85t72 -38t70.5 9q80 25 121 210l71 319q-118 -64 -222 -64q-200 0 -296 136 q-82 115 -82 321z" />
<glyph unicode="H" horiz-adv-x="1184" d="M22 873q0 90 56 173q114 169 345 251q110 39 223 39q37 0 72 -3l-114 -531h262l114 531h256l-282 -1333h-257l143 670h-262l-143 -670h-257l259 1212q-119 -51 -184.5 -149t-65.5 -242q0 -70 22 -108q3 -7 3 -13q-144 0 -178 92q-12 33 -12 81z" />
<glyph unicode="I" horiz-adv-x="668" d="M10 873q0 90 56.5 173t144.5 148q203 142 425 142q37 0 71 -3l-283 -1333h-256l257 1210q-248 -104 -248 -389q0 -72 20 -108q4 -7 4 -13q-143 0 -178 92q-13 33 -13 81z" />
<glyph unicode="J" horiz-adv-x="955" d="M30 -126q0 104 58.5 175.5t147 71.5t119.5 -15q67 -29 67 -104q0 -32 -10 -72q-50 40 -72 43.5t-36 3.5q-61 0 -93 -41q-31 -41 -31 -84q0 -71 37 -101.5t75 -30.5q73 0 110 43t69 176l279 1273q-118 -49 -184.5 -147.5t-66.5 -243.5q0 -70 21 -108q4 -7 4 -13 q-143 0 -178 92q-13 33 -13 81q0 90 56 173t145 148q203 142 425 142h71l-267 -1265q-47 -217 -153.5 -328.5t-315.5 -111.5q-129 0 -197 70q-67 69 -67 173z" />
<glyph unicode="K" horiz-adv-x="1070" d="M10 873q0 90 56.5 173t144.5 148q203 142 425 142q37 0 71 -3l-115 -546l391 525l13 16h187l-495 -571l62 2q178 0 210 -115q11 -35 11 -83q0 -72 -43.5 -230.5t-43.5 -206.5q0 -98 70 -124q-112 -30 -177 -30q-139 0 -139 119q1 62 47.5 228t47.5 241q0 121 -107 121 q-25 0 -60 -7l-142 -672h-256l257 1212q-118 -51 -183 -149t-65 -242q0 -72 20 -108q4 -7 4 -13q-143 0 -178 92q-13 33 -13 81z" />
<glyph unicode="L" horiz-adv-x="675" d="M10 855q0 174 201 320q204 144 425 144q28 0 71 -4l-274 -1279q73 -17 154 -60l130 -71q180 -99 315 -99q82 0 149 29q-13 -127 -62.5 -203.5t-122.5 -76.5q-115 0 -272 121l-204 157q-172 126 -319 126h-20q-10 0 -21 -2l265 1235q-118 -48 -183 -145.5t-65 -242.5 q0 -72 20 -109q4 -7 4 -13q-143 0 -178 91q-13 33 -13 82z" />
<glyph unicode="M" horiz-adv-x="1402" d="M119 0l453 1224q-134 -44 -208.5 -146t-74.5 -255q0 -77 21 -111q3 -6 3 -12q-190 0 -190 162q0 169 181 323q80 68 182 109.5t186.5 41.5t152.5 -25l-41 -939l392 939h257l-187 -1311h-257l114 800l-335 -800h-244l35 804l-297 -804h-143z" />
<glyph unicode="N" horiz-adv-x="1190" d="M10 875q0 50 16.5 104t46.5 105q66 112 181 182t261 70q42 0 84 -2.5t81 -22.5l141 -944l194 966h257l-283 -1333h-216l-151 932l-198 -932h-256l256 1210q-119 -49 -183 -147t-64 -242q0 -72 20 -108q4 -7 4 -13q-143 0 -178 92q-13 33 -13 83z" />
<glyph unicode="O" horiz-adv-x="1184" d="M29 855q0 87 59 175q126 185 389 266q130 40 269 40q422 0 422 -456q0 -307 -154 -574q-109 -192 -292 -275q-94 -41 -187.5 -41t-151.5 19q-191 64 -191 338q0 184 69 391q110 334 301 421q53 24 110 24t96 -15q-77 -46 -153 -197q-110 -217 -147 -480q-12 -82 -12 -151 q0 -206 103 -206h2q86 0 172.5 125.5t142.5 316t56 361.5t-47 244.5t-181 73.5q-214 0 -363.5 -127t-149.5 -332q0 -52 9 -69t9 -27q-87 0 -133.5 34t-46.5 121z" />
<glyph unicode="P" horiz-adv-x="1021" d="M10 873q0 90 56.5 173t144.5 148q203 142 417 142t321 -101t107 -249q0 -86 -35 -171t-102 -154q-150 -153 -377 -153h-10l-108 -508h-256l242 1134l263 34l-126 -595q131 13 221.5 150t90.5 297.5t-121 214.5q-42 20 -100 20q-218 0 -340 -114q-121 -114 -121 -320 q0 -72 20 -108q4 -7 4 -13q-143 0 -178 92q-13 33 -13 81z" />
<glyph unicode="Q" horiz-adv-x="1184" d="M29 855q0 87 59 175q126 185 389 266q130 40 269 40q422 0 422 -456q0 -208 -85.5 -436t-254.5 -352q48 -69 82 -95q64 -48 141 -48q18 0 39 3q-36 -93 -81.5 -123t-103.5 -30q-105 0 -160 69q-33 41 -68 146q-77 -24 -157 -24q-156 0 -242 85.5t-86 270.5t69 392 q110 334 301 421q53 24 110 24t96 -15q-77 -46 -153 -197q-110 -217 -147 -480q-12 -82 -12 -151v-40q0 -18 3 -36q63 16 126 16t128 -49q92 115 155.5 317.5t63.5 384.5v9q0 166 -47 239.5t-181 73.5q-214 0 -363.5 -127t-149.5 -332q0 -52 9 -69t9 -27q-87 0 -133.5 34 t-46.5 121zM474 207q25 -73 85 -73q38 0 68 19q-37 61 -102 61q-23 0 -51 -7z" />
<glyph unicode="R" horiz-adv-x="1070" d="M10 873q0 90 56.5 173t144.5 148q203 142 413 142t313.5 -82t103.5 -203q0 -83 -50.5 -166t-142.5 -139q123 -34 123 -174q0 -83 -43.5 -241.5t-43.5 -206.5q0 -98 70 -124q-112 -30 -177 -30q-139 0 -139 119q1 62 47.5 228t47.5 241q0 121 -107 121q-23 0 -60 -7 l-142 -672h-256l242 1134l263 34l-87 -411h14q106 0 179.5 100.5t73.5 219t-107 162.5q-36 16 -116 16t-169 -30t-151 -85q-133 -119 -133 -319q0 -72 20 -108q4 -7 4 -13q-143 0 -178 92q-13 33 -13 81z" />
<glyph unicode="S" horiz-adv-x="1015" d="M48 264q0 141 80 219t179 78t142 -60q16 -23 18 -57q-136 0 -189 -90q-20 -32 -20 -72q0 -76 45 -126.5t131 -50.5t144 62t58 156.5t-27 156t-68 114.5t-88 101.5t-88 97.5q-94 115 -94 224q0 137 118.5 228t292.5 91q215 0 272 -130q15 -35 15 -99t-39 -114 q-39 -51 -98 -51t-91 38q80 46 80 165q0 35 -28 71.5t-103.5 36.5t-120 -40.5t-44.5 -106t18 -104.5q31 -72 109 -141l74 -66q97 -87 132 -144q69 -116 69 -235q0 -222 -154 -343q-138 -110 -348 -110q-259 0 -347 166q-30 58 -30 135z" />
<glyph unicode="T" horiz-adv-x="856" d="M10 891.5q0 68.5 33.5 152.5t106.5 148q161 143 469 143q126 0 200 -13.5t129 -19.5q56 -8 148.5 -8t185.5 37q-9 -226 -223 -226q-81 0 -277 39l-246 -1144h-256l252 1180h-20q-158 0 -239 -73q-96 -87 -96 -287q0 -73 20 -109q4 -7 4 -12q-143 0 -178 91 q-13 33 -13 101.5z" />
<glyph unicode="U" horiz-adv-x="1275" d="M0 864q0 95 57 180q119 177 365 254q123 38 251 38q40 0 86 -8l-182 -677q-58 -226 -58 -315.5t27 -131.5t104.5 -42t112.5 26q63 48 110 173.5t113 420.5l119 551h251l-118 -556q-68 -332 -139 -488q-85 -187 -229 -254q-103 -47 -224.5 -47t-187.5 18.5t-107 54.5 q-75 69 -75 206.5t44 319.5l161 646q-147 -39 -231.5 -142.5t-84.5 -267.5q0 -76 21 -111q5 -6 5 -12q-141 0 -178 87q-13 32 -13 77z" />
<glyph unicode="V" horiz-adv-x="1096" d="M10 873q0 90 56.5 173t144.5 148q203 142 425 142q37 0 71 -3l16 -1096l375 1091h124l-495 -1328h-256l-29 1217q-125 -47 -195 -147t-70 -249q0 -72 20 -108q4 -7 4 -13q-143 0 -178 92q-13 33 -13 81z" />
<glyph unicode="W" horiz-adv-x="1713" d="M10 873q0 90 56.5 173t144.5 148q203 142 425 142q37 0 71 -3l16 -1096l375 1091h226l16 -1091l374 1091h125l-496 -1328h-256l-21 907l-339 -907h-256l-29 1217q-125 -47 -195 -147t-70 -249q0 -72 20 -108q4 -7 4 -13q-143 0 -178 92q-13 33 -13 81z" />
<glyph unicode="X" horiz-adv-x="1104" d="M10 873q0 90 56.5 173t144.5 148q203 142 425 142q37 0 71 -3l77 -371l207 366h124l-299 -519l167 -809h-283l-94 445l-259 -445h-109l335 592l-131 625q-125 -47 -195 -147t-70 -249q0 -72 20 -108q4 -7 4 -13q-143 0 -178 92q-13 33 -13 81z" />
<glyph unicode="Y" horiz-adv-x="1104" d="M10 873q0 90 56.5 173t144.5 148q203 142 425 142q37 0 71 -3l155 -638l264 633h118l-346 -779l-118 -549h-285l118 549l-171 668q-125 -47 -195 -147t-70 -249q0 -72 20 -108q4 -7 4 -13q-143 0 -178 92q-13 33 -13 81z" />
<glyph unicode="Z" horiz-adv-x="965" d="M20 0l623 1240l-160 4q-164 0 -164 -40q9 0 19.5 -12t10.5 -44q0 -53 -32.5 -77.5t-79 -24.5t-65.5 33.5t-19 68.5q0 75 58.5 131.5t160.5 56.5h611l-614 -1220l171 -4q62 0 114 6.5t72 32.5q-10 0 -21.5 12t-11.5 42q0 53 32.5 79t78.5 26t66.5 -33t20.5 -68 q0 -77 -64.5 -143t-163.5 -66h-643z" />
<glyph unicode="[" horiz-adv-x="712" d="M-43 -445l378 1781h344l-23 -110h-216l-331 -1561h216l-24 -110h-344z" />
<glyph unicode="\" horiz-adv-x="644" d="M75 1336h128l378 -1781h-129z" />
<glyph unicode="]" horiz-adv-x="712" d="M-43 -445l23 110h216l331 1561h-216l24 110h344l-378 -1781h-344z" />
<glyph unicode="^" horiz-adv-x="749" d="M89 1000l378 336h38l106 -336h-57l-107 142l-279 -142h-79z" />
<glyph unicode="_" horiz-adv-x="790" d="M64 0l33 141h622l-29 -141h-626z" />
<glyph unicode="`" horiz-adv-x="358" d="M43 1336h187l52 -336h-134z" />
<glyph unicode="a" horiz-adv-x="936" d="M-23 267q0 70 12 140t37 139q56 153 159.5 253.5t249.5 100.5q77 0 110.5 -26t33.5 -65v-13l20 95h256l-128 -606q-8 -30 -8 -57q0 -77 74 -77q94 0 144 168h75q-113 -329 -358 -329q-157 0 -175 163q-116 -163 -271.5 -163t-210.5 152q-20 55 -20 125zM240 291 q0 -79 33 -110q19 -19 48 -19q53 0 96.5 42t60.5 115l85 402q0 17 -15.5 42.5t-65 25.5t-96.5 -53q-113 -128 -142 -367q-4 -37 -4 -78z" />
<glyph unicode="b" horiz-adv-x="790" d="M-12 218q0 47 12 101l191 893l263 36l-85 -401q80 49 146 49q211 0 211 -304q0 -206 -103 -380q-80 -135 -218 -193q-74 -29 -183 -29t-171.5 60t-62.5 168zM243 244q0 -82 94 -82q78 0 148 148q60 138 60 270.5t-53 174.5q-18 15 -34 15q-34 0 -66.5 -8.5t-46.5 -23.5 l-97 -453q-5 -22 -5 -41z" />
<glyph unicode="c" horiz-adv-x="683" d="M-23 272q0 205 103 395q78 144 215 206q70 34 145 34q214 0 214 -162q0 -68 -27.5 -100t-62.5 -32t-67 21q22 58 22 106q0 73 -51 73t-108 -93q-81 -130 -111 -324q-9 -58 -9 -128q0 -129 123 -129q102 0 172.5 46t148.5 134h61q-200 -329 -490 -329q-127 0 -202.5 65.5 t-75.5 216.5z" />
<glyph unicode="d" horiz-adv-x="935" d="M-23 267q0 70 12 140t37 139q56 153 159.5 253.5t249.5 100.5q77 0 110.5 -26t33.5 -65v-7l87 410l264 36l-204 -963q-8 -30 -8 -62q0 -61 73 -61q100 0 144 157h75q-111 -319 -358 -319q-153 0 -174 153q-108 -163 -267 -163t-214 152q-20 55 -20 125zM240 291 q0 -129 89 -129q37 0 83 36t64 112v9l87 408q-17 62 -73.5 62t-103.5 -53q-113 -128 -142 -367q-4 -37 -4 -78z" />
<glyph unicode="e" horiz-adv-x="683" d="M-23 272q0 204 103 394q79 146 216 207q70 34 146 34q124 0 168 -47t44 -124q0 -152 -122.5 -258.5t-287.5 -117.5q-4 -50 -4 -71q0 -92 32 -121t91 -29q102 0 172.5 46t148.5 134h61q-200 -329 -490 -329q-127 0 -202.5 65.5t-75.5 216.5zM258 445q103 7 181 96t78 207 q0 65 -45 65q-65 -2 -126 -115.5t-88 -252.5z" />
<glyph unicode="f" horiz-adv-x="475" d="M-371 -264.5q0 72.5 24.5 115t66.5 72.5q61 43 216 91l215 1018q64 303 325 303q83 0 146.5 -54t63.5 -139q0 -41 -6 -73h-83q3 28 3 53.5t-20.5 40.5t-40.5 15q-43 0 -79 -33.5t-52 -112.5l-30 -141h130l-13 -71h-131l-206 -963q-61 -302 -318 -302q-83 0 -147 54 t-64 126.5zM-272 -228q0 -35 42 -54q13 -5 35.5 -5t50 30.5t44.5 108.5l23 104q-94 -33 -130 -62q-65 -54 -65 -122z" />
<glyph unicode="g" horiz-adv-x="903" d="M-23 267q0 70 12 140t37 139q56 153 159.5 253.5t249.5 100.5q77 0 110.5 -26t33.5 -65v-10l20 92h256l-176 -827q81 27 133.5 82.5t90.5 172.5h75q-68 -229 -230 -302q-44 -20 -85 -31l-27 -129q-34 -171 -136 -247q-75 -55 -171.5 -55t-154.5 42q-58 43 -58 137 q0 162 290 259l22 94q-93 -97 -214 -97q-162 0 -217 152q-20 55 -20 125zM214 -248q0 -36 34 -53q11 -5 33 -5t50.5 38.5t46.5 119.5l10 51q-174 -62 -174 -151zM240 291q0 -79 33 -110q19 -19 47 -19q50 0 92.5 38t59.5 101l91 422q0 40 -38 58q-13 8 -35 8q-57 0 -104 -53 q-113 -128 -142 -367q-4 -37 -4 -78z" />
<glyph unicode="h" d="M-68 0l259 1212l263 36l-96 -449q87 99 208 99q86 0 142 -47q57 -47 57 -139.5t-30 -208.5l-42 -172q-14 -57 -14 -93q0 -76 65 -76q60 0 92 38t64 119h74q-103 -300 -280 -326q-28 -3 -68.5 -3t-80.5 17q-112 47 -112 184q0 73 40 233t40 221q0 91 -64 91t-115 -102 q-15 -28 -24 -62l-121 -572h-257z" />
<glyph unicode="i" horiz-adv-x="475" d="M-14 203q0 50 14 116l121 572h257l-128 -606q-7 -32 -7 -63q0 -60 72 -60q52 0 97 45t64 112h75q-115 -329 -384 -329q-70 0 -126 50q-55 50 -55 163zM157 1128q0 58 40.5 100t100 42t100.5 -42q42 -41 42 -100q0 -60 -42 -100.5t-101 -40.5t-100 41q-40 41 -40 100z" />
<glyph unicode="j" horiz-adv-x="428" d="M-360 -272q0 144 189 226q53 23 103 39l191 898h256l-176 -827q82 28 135 83q52 55 90 172h75q-70 -229 -230 -302q-44 -20 -86 -31l-27 -129q-34 -171 -136 -247q-74 -55 -170.5 -55t-155 43t-58.5 130zM-262 -248q0 -36 34 -53q11 -5 33 -5t50.5 38.5t46.5 119.5l11 51 q-175 -60 -175 -151zM143 1129q0 59 40.5 101t99.5 42t101 -42q41 -42 41 -101t-42 -99.5t-100.5 -40.5t-98.5 41q-41 41 -41 99z" />
<glyph unicode="k" horiz-adv-x="923" d="M-68 0l259 1212l263 36l-133 -628l344 271h176l-356 -248q31 8 59 8q98 0 147 -62t49 -147q0 -31 -7 -68l-20 -89q-9 -36 -9 -57q0 -66 72 -66t118 94q14 28 29 63h75q-111 -329 -328 -329q-111 0 -168 52.5t-57 149.5q0 41 11 93l15 70q7 37 7 65q0 86 -65 86 q-50 0 -131 -66l-93 -440h-257z" />
<glyph unicode="l" horiz-adv-x="475" d="M-14 203q0 50 14 116l191 893l263 36l-204 -963q-7 -32 -7 -63q0 -60 72 -60q52 0 97 45t64 112h75q-115 -329 -384 -329q-70 0 -126 50q-55 50 -55 163z" />
<glyph unicode="m" horiz-adv-x="1339" d="M-68 0l189 891h257l-20 -92q89 101 218 101q157 0 183 -154q98 152 248 152q84 0 141 -47q56 -47 56 -137.5t-30 -208.5l-41 -174q-14 -57 -14 -93q0 -76 65 -76q60 0 92 38t64 119h75q-67 -196 -167 -275q-70 -54 -147 -54q-228 0 -228 201q0 73 40.5 233t40.5 221 q0 91 -64.5 91t-115.5 -102q-14 -28 -24 -62l-121 -572h-257l131 615q5 21 5 44q0 79 -52.5 79t-89.5 -49.5t-56 -116.5l-121 -572h-257z" />
<glyph unicode="n" d="M-68 0l189 891h257l-20 -92q87 99 208 99q86 0 142 -47q57 -47 57 -139.5t-30 -208.5l-42 -172q-14 -57 -14 -93q0 -76 65 -76q60 0 92 38t64 119h74q-103 -300 -280 -326q-28 -3 -68.5 -3t-80.5 17q-112 47 -112 184q0 73 40 233t40 221q0 91 -64 91t-115 -102 q-15 -28 -24 -62l-121 -572h-257z" />
<glyph unicode="o" horiz-adv-x="782" d="M-25 261.5q0 64.5 11 131t34 137.5q53 159 154 258q120 119 289 119q229 0 229 -285v-2q8 -1 29 -1q48 0 123.5 30t141.5 77l15 -49q-108 -113 -315 -148q-21 -244 -140.5 -390t-285.5 -146q-205 0 -264 151q-21 53 -21 117.5zM240 298q0 -87 15.5 -110t33 -29t47.5 -6 q61 0 121 107t81 264q-48 12 -48 79t55 92q-3 57 -17.5 80.5t-55.5 23.5q-82 0 -157 -180.5t-75 -320.5z" />
<glyph unicode="p" horiz-adv-x="833" d="M-162 -445l298 1402h256l-28 -134q88 77 208 77q154 0 201 -148q16 -54 16 -124t-8 -140t-28 -140t-53 -134.5t-81.5 -114.5t-115 -79.5t-166 -29.5t-138.5 63l-92 -434zM228 185q16 -41 76.5 -41t107.5 51q93 99 120 283q13 82 13 146q0 148 -89 148q-31 0 -64.5 -22 t-58.5 -66z" />
<glyph unicode="q" horiz-adv-x="865" d="M-23 267q0 70 12 140t37 139q56 153 159.5 253.5t249.5 100.5q77 0 110.5 -26t33.5 -65v-3l18 85h256l-270 -1272l-270 -64l112 532q-91 -97 -211 -97q-162 0 -217 152q-20 55 -20 125zM240 291q0 -129 89 -129q37 0 77.5 32.5t62.5 94.5l94 440q-4 16 -19 38t-63 22 t-95 -53q-113 -128 -142 -367q-4 -37 -4 -78z" />
<glyph unicode="r" horiz-adv-x="669" d="M-68 0l189 891h257l-23 -111q44 40 97.5 75.5t116 35.5t93.5 -41t31 -78q0 -65 -34 -105t-83 -40t-64.5 22.5t-19 45.5t-9 36.5t-24.5 13.5q-36 0 -64 -17t-64 -51l-142 -677h-257z" />
<glyph unicode="s" horiz-adv-x="680" d="M-57 203q0 77 29 120q30 42 65 60q126 224 220 528l263 35q7 -167 14 -280l22 -282q3 -42 3 -83t-7 -71q79 45 128 89h75q-110 -128 -272 -222q-101 -107 -280 -107q-126 0 -193 68t-67 145zM37 255q0 -125 93 -125q171 0 171 166q0 46 -7 109l-10 101q-10 98 -17 212 q-45 -146 -144 -337q41 -19 41 -57t-21.5 -65.5t-57.5 -27.5t-48 24z" />
<glyph unicode="t" horiz-adv-x="475" d="M-14 203q0 50 14 116l107 501h-59l15 71h58l54 246l263 36l-60 -282h107l-14 -71h-107l-114 -535q-7 -32 -7 -63q0 -60 72 -60q52 0 97 45t64 112h75q-115 -329 -384 -329q-70 0 -126 50q-55 50 -55 163z" />
<glyph unicode="u" d="M-14 203q0 50 14 116l121 572h257l-128 -606q-6 -27 -6 -50q0 -73 54 -73q94 0 142 157l121 572h257l-128 -606q-8 -30 -8 -62q0 -61 73 -61q100 0 145 157h74q-113 -329 -357 -329q-159 0 -177 168q-104 -168 -263 -168q-80 0 -136 50q-55 50 -55 163z" />
<glyph unicode="v" horiz-adv-x="737" d="M-16 199q0 45 9 86l128 606h257l-128 -606q-10 -42 -10 -64q0 -59 61 -59q83 0 157 111q101 149 141 373q10 62 10 111q-4 -10 -25 -13l-18 -4h-14q-31 0 -47.5 30t-16.5 65.5t27 63.5t71 28q71 0 98 -45t27 -113.5t-12.5 -154t-38.5 -172.5q-58 -196 -173.5 -324 t-283.5 -128q-101 0 -160 51t-59 158z" />
<glyph unicode="w" horiz-adv-x="1177" d="M-14 203q0 50 14 116l121 572h257l-128 -606q-6 -22 -6 -45q0 -78 54 -78q94 0 142 157l121 572h257l-128 -606q-10 -42 -10 -64q0 -59 61 -59q83 0 158 111q101 149 140 373q10 62 10 111q-4 -10 -25 -13l-18 -4h-13q-32 0 -48.5 30t-16.5 66t26.5 63.5t72.5 27.5 q70 0 97 -45t27 -113.5t-12 -154t-38 -172.5q-59 -196 -164 -313q-125 -139 -300.5 -139t-206.5 149q-99 -149 -253 -149q-80 0 -136 50q-55 50 -55 163z" />
<glyph unicode="x" horiz-adv-x="930" d="M0 319q43 186 79.5 266.5t61.5 122.5q56 90 124.5 141t139 51t105.5 -20.5t63.5 -62t39.5 -129.5l16 -136q149 167 155 257q-15 -3 -31 -3q-83 0 -83 99q0 47 36.5 67.5t73.5 20.5q57 0 84 -49t27 -102.5t-16 -93.5q-28 -76 -123 -184l-109 -122l16 -124 q11 -86 31 -113.5t38 -35t42 -7.5q51 0 96 44q44 45 64 113h75q-66 -186 -179 -269q-82 -60 -178 -60h-7q-168 0 -217 309l-246 -299h-128l360 406l-29 200q-15 90 -29 118.5t-40 28.5q-56 0 -124.5 -113.5t-112.5 -320.5h-75z" />
<glyph unicode="y" horiz-adv-x="865" d="M-14 203q0 50 14 116l121 572h257l-128 -606q-6 -22 -6 -45q0 -78 51 -78t87 42q35 42 55 104l124 583h257l-177 -827q81 27 133.5 82.5t91.5 172.5h74q-67 -229 -229 -302q-45 -20 -85 -31l-27 -129q-34 -171 -136 -247q-75 -55 -171.5 -55t-154.5 42q-59 43 -59 137 q0 162 291 259l22 96q-93 -99 -214 -99q-80 0 -136 50q-55 50 -55 163zM177 -248q0 -36 34 -53q11 -5 32.5 -5t50.5 38.5t46 119.5l11 51q-174 -62 -174 -151z" />
<glyph unicode="z" horiz-adv-x="762" d="M0 0l454 794h-99q-42 0 -70 -4t-28 -24q0 -4 3 -5t9.5 -5.5t6.5 -41.5t-30 -59.5t-56 -22.5q-43 0 -67.5 21t-24.5 53q0 69 59.5 127t146.5 58h459l-437 -754q12 0 27 -2l34 -5q40 -4 73 -4q79 0 85 36q-33 3 -33 37q0 26 24 51.5t75 25.5q79 0 79 -85q0 -69 -61 -130 t-157 -61h-472z" />
<glyph unicode="{" horiz-adv-x="627" d="M53 -252.5q0 65.5 26 132.5t61 137l70 145q57 122 57 189q0 55 -73 55q-23 0 -57 -5l21 102q31 -6 65 -6q65 0 94 67q16 42 16 131l-12 283q0 123 63 230q75 128 222 128h76l-16 -88q-93 0 -120 -16t-41 -31q-49 -53 -65 -113t-18 -133l11 -304q-6 -144 -71 -199 q21 -25 21 -73t-25 -108l-87 -191q-100 -204 -100 -301q0 -143 152 -143l-17 -80h-15q-90 0 -130 13t-74 63t-34 115.5z" />
<glyph unicode="|" horiz-adv-x="948" d="M391 -445v1783h165v-1783h-165z" />
<glyph unicode="}" horiz-adv-x="627" d="M53 -444l17 89q90 0 118 16q120 68 125 276l-10 306q6 142 71 197q-21 25 -21 75t37.5 136t73 159.5t68.5 155t33 148.5q0 142 -152 142l17 80h15q88 0 129 -11.5t74.5 -61.5t33.5 -106t-12 -101q-22 -79 -75 -181l-47 -95q-79 -168 -79 -238q0 -56 73 -56q21 0 57 6 l-21 -101q-33 5 -66 5q-64 0 -93 -67q-16 -43 -16 -132l12 -282q0 -124 -63 -230q-75 -129 -222 -129h-77z" />
<glyph unicode="~" horiz-adv-x="768" d="M87 1037q90 175 298 175q71 0 130.5 -20.5t92 -29.5t71.5 -9q71 0 112 41l11 -2q-16 -66 -103 -122t-165 -56q-79 0 -145 22.5t-101 33t-72 10.5q-67 0 -118 -46z" />
<glyph unicode="&#xa1;" horiz-adv-x="390" d="M-109 -442l232 836h151l-126 -836h-257zM105 662q0 58 40.5 101t99.5 43t101 -42.5t42 -101.5t-42 -99.5t-100.5 -40.5t-99.5 41t-41 99z" />
<glyph unicode="&#xa2;" horiz-adv-x="717" d="M55 563q0 190 98.5 331t271.5 167l40 218h103l-48 -217q110 -6 146 -67q14 -22 14 -53t-8 -60h-102q9 34 9 50q0 61 -66 61h-8l-136 -612q9 -2 27 -2q71 0 113 28q76 51 122 93q-20 -112 -88.5 -174t-200.5 -68l-68 -306h-48l56 308q-99 15 -163 93.5t-64 209.5zM243 585 q0 -129 65 -177l98 544q-111 -90 -151 -273q-12 -56 -12 -94z" />
<glyph unicode="&#xa3;" horiz-adv-x="828" d="M44 597q61 120 187 158l129 527l267 54l-142 -590l73 -22q35 -11 92 -11t98 40l11 -1q-15 -66 -101 -122.5t-186 -56.5h-28l-100 -411q31 4 61 5l60 2q74 3 141 25.5t154 87.5q-14 -129 -62.5 -205.5t-121.5 -76.5h-526l153 638l-30 1q-67 0 -118 -46z" />
<glyph unicode="&#xa4;" horiz-adv-x="890" d="M121 877l68 63l100 -99q72 53 161 53t159 -51l100 99l64 -63l-98 -99q54 -74 54 -163t-54 -163l98 -97l-64 -65l-98 99q-68 -53 -159 -53t-165 54l-100 -100l-64 65l100 99q-52 69 -52 159.5t52 159.5zM272 617.5q0 -74.5 52 -127.5q53 -52 127 -52t126 52t52 127 t-52 126t-126 51t-126.5 -51t-52.5 -125.5z" />
<glyph unicode="&#xa5;" horiz-adv-x="844" d="M34 253l25 89h171l25 116h-177l26 89h170v2l-199 787h292l157 -643l267 643h117l-349 -787v-2h234l-25 -89h-228l-25 -116h233l-25 -89h-228l-53 -253h-285l54 253h-177z" />
<glyph unicode="&#xa6;" horiz-adv-x="948" d="M391 396h165v-841h-165v841zM391 536v802h165v-802h-165z" />
<glyph unicode="&#xa7;" horiz-adv-x="965" d="M14 137q0 97 49 159q49 61 112 61t95 -29.5t56 -60.5q-116 -10 -136 -77q-8 -24 -8 -75.5t33 -86.5t106 -35q150 0 150 172q-3 138 -103 240l-117 108q-101 91 -101 186t53.5 160t131.5 95q-10 40 -10 95.5t35 116.5q65 112 207 151q76 20 146 20t132 -27q90 -38 90 -140 t-68 -136q-21 -11 -55 -11t-60 28q30 18 47 52.5t17 62.5q0 50 -25.5 77t-68.5 27q-77 0 -125 -57.5t-48 -132.5q0 -102 110 -193q32 -26 66 -51q81 -60 128.5 -128t47.5 -172t-54.5 -188.5t-151.5 -104.5v-6q0 -153 -102 -243.5t-285 -90.5q-223 0 -279 144q-15 38 -15 90z M338 805.5q0 -39.5 22 -72t55.5 -64.5t75.5 -67q161 -134 193 -276q34 43 34 116q0 118 -120 216l-128 102q-58 44 -98 106q-34 -21 -34 -60.5z" />
<glyph unicode="&#xa8;" horiz-adv-x="698" d="M100 1128.5q0 45.5 30 77.5q32 32 77.5 32t78 -32t32.5 -77.5t-33 -76.5t-66 -31q-57 0 -88 31t-31 76.5zM420 1128q0 46 31.5 78t76.5 32t77.5 -32t32.5 -77.5t-32 -76.5q-34 -31 -67 -31q-56 0 -87.5 30.5t-31.5 76.5z" />
<glyph unicode="&#xa9;" horiz-adv-x="1045" d="M90 590q0 191 127.5 323.5t304.5 132.5t304.5 -133t127.5 -321.5t-127.5 -322t-305 -133.5t-304.5 132t-127 322zM173 590q0 -159 102.5 -269t249.5 -110t249.5 109.5t102.5 269.5t-103 269.5t-249.5 109.5t-249 -110t-102.5 -269zM271 599.5q0 112.5 77 187.5t186 75 q85 -4 145 -51t76 -118l-83 -32l-13 35q-27 74 -121 74q-68 0 -119 -40q-50 -40 -50 -122.5t49.5 -136.5t119.5 -54q41 0 77.5 21t56.5 59l78 -52q-37 -57 -95 -88.5t-118 -31.5q-112 0 -189 81t-77 193.5z" />
<glyph unicode="&#xaa;" horiz-adv-x="615" d="M77 974q0 41 13 105.5t44 117t83.5 86t110 33.5t89.5 -24l5 27h148l-75 -328q-2 -10 -3.5 -17t-1.5 -15q0 -36 37 -36h12q8 0 15 4q-22 -64 -51 -76.5t-56 -12.5q-82 0 -103 70q-63 -76 -151 -76q-116 0 -116 142zM216 980q0 -43 21 -55t39 -12q32 0 64 46l66 287 q-20 17 -50 17q-58 0 -99 -89.5t-41 -193.5z" />
<glyph unicode="&#xab;" horiz-adv-x="1049" d="M36 424l15 73l548 268l-18 -99l-430 -214l346 -170l-21 -102zM410 424l15 73l548 268l-18 -99l-430 -214l346 -170l-21 -102z" />
<glyph unicode="&#xac;" horiz-adv-x="790" d="M34 396l32 140h645l-91 -446h-202l63 306h-447z" />
<glyph unicode="&#xad;" horiz-adv-x="516" d="M34 396l32 140h356l-30 -140h-358z" />
<glyph unicode="&#xae;" horiz-adv-x="985" d="M61 595.5q0 189.5 125 322.5t304 133t306 -132.5t127 -321.5t-127 -322.5t-305 -133.5t-304 132q-126 133 -126 322.5zM143 595q0 -159 102 -269t249 -110t250 109.5t103 269.5t-103.5 269.5t-250 109.5t-248.5 -110t-102 -269zM313 342l2 518h168q95 0 154.5 -38 t59.5 -111q0 -50 -29 -86.5t-76 -51.5l115 -222l-83 -13l-111 223h-117v-219h-83zM396 629h92q127 0 127 78q0 62 -86 76q-23 4 -44 4h-89v-158z" />
<glyph unicode="&#xb0;" horiz-adv-x="559" d="M66 856q0 176 78.5 285.5t210.5 109.5q78 0 111.5 -51.5t33.5 -165.5t-71.5 -241t-197.5 -127q-93 0 -129 50t-36 140zM194 884.5q0 -80.5 8.5 -116t41.5 -35.5q66 0 108 102t42 241q0 48 -8 80t-37 32q-44 0 -89 -67q-22 -33 -44 -94.5t-22 -142z" />
<glyph unicode="&#xb1;" horiz-adv-x="950" d="M55 121l32 141h654l-30 -141h-656zM148 551l43 199h227l49 217h201l-48 -217h227l-41 -199h-228l-49 -220h-201l48 220h-228z" />
<glyph unicode="&#xb2;" horiz-adv-x="534" d="M5 661.5q0 33.5 25.5 77.5t63 85.5t81.5 82t83 85.5q87 104 87 212q0 54 -39 73q-11 6 -29 6q-43 0 -60.5 -19t-17.5 -43q0 -71 39 -80q-39 -34 -74.5 -34t-57 22t-21.5 56q0 64 52.5 107t161.5 43q196 0 196 -154q0 -80 -44.5 -140t-107.5 -112l-123 -96 q-62 -44 -94 -92h8q50 0 100 -9t100 -9t68 13q39 29 67 55q0 -107 -14 -135q-26 -52 -110 -52q-55 0 -129 17.5t-104.5 17.5t-42 -3.5t-22 -7.5t-20.5 -9.5t-18 -7.5q-4 17 -4 50.5z" />
<glyph unicode="&#xb3;" horiz-adv-x="562" d="M23 773q0 60 31 99t97.5 39t78.5 -49q-81 -9 -89 -76q-2 -19 -2 -40q0 -76 83 -76q62 0 98.5 50t36.5 111t-32 112.5t-102 73.5q81 21 128.5 77.5t47.5 100.5q0 88 -66 88q-93 0 -93 -77q0 -35 15 -49t25 -16q-41 -34 -75.5 -34t-56.5 22t-22 56q0 63 57.5 106.5 t156.5 43.5t145 -42t46 -94q0 -118 -140 -184q67 -19 97.5 -61.5t30.5 -90.5q0 -94 -78 -174t-188 -80q-149 0 -206 73q-24 31 -24 91z" />
<glyph unicode="&#xb4;" horiz-adv-x="562" d="M214 1000l162 336h187l-216 -336h-133z" />
<glyph unicode="&#xb5;" d="M-130 -296l251 1187h257l-128 -606q-6 -22 -6 -45q0 -78 54 -78q94 0 142 157l121 572h257l-128 -606q-8 -30 -8 -62q0 -61 73 -61q100 0 145 157h74q-111 -319 -357 -319q-158 0 -175 160q-99 -160 -255 -160l-48 -231z" />
<glyph unicode="&#xb6;" horiz-adv-x="965" d="M128 875q0 179 118 319q119 141 337 141t294 -159q26 -55 26 -123q0 -67 -14 -140l-226 -1057h-168l144 676q-30 -11 -76 -19l-138 -657h-167l138 657q-130 24 -199 127t-69 235zM583 604h10q33 0 63 7l85 404q11 51 11 90q0 73 -41 110z" />
<glyph unicode="&#xb7;" horiz-adv-x="773" d="M214 475q0 71 50 122q49 51 121 51q71 0 121 -51q52 -51 52 -121q0 -71 -52 -121q-51 -51 -122 -51t-120 51q-50 50 -50 120z" />
<glyph unicode="&#xb8;" horiz-adv-x="404" d="M0 -338q33 56 66 56q46 0 79.5 -24t57 -24t39 23t15.5 50t-16.5 46.5t-59.5 19.5t-86 -21l94 263l62 -41l-52 -127q56 13 95 13q111 0 111 -89.5t-65 -142t-140.5 -52.5t-107.5 11t-52 20z" />
<glyph unicode="&#xb9;" horiz-adv-x="386" d="M39 615l138 600h-99l12 45q94 0 154.5 24.5t108.5 50.5l-164 -720h-150z" />
<glyph unicode="&#xba;" horiz-adv-x="586" d="M75 990q0 164 77.5 251t192.5 87q37 0 68 -12.5t31 -32.5t-15.5 -29.5t-30.5 -15.5q-15 34 -44 34t-49 -15t-35 -39q-29 -47 -43.5 -109.5t-14.5 -110.5q0 -73 73 -73q80 0 106 192q-27 6 -27 35.5t21.5 53t44 23.5t30 -7t7.5 -27q25 16 43 40l15 18l11 -20 q-28 -78 -69 -102q-8 -138 -78.5 -219.5t-153 -81.5t-121.5 36.5t-39 123.5z" />
<glyph unicode="&#xbb;" horiz-adv-x="1044" d="M27 180l24 102l428 170l-345 214l16 99l438 -268l-20 -96zM422 180l25 102l428 170l-346 214l16 99l438 -268l-19 -96z" />
<glyph unicode="&#xbc;" horiz-adv-x="1227" d="M124 401l138 600h-98l12 45q94 0 154.5 24.5t107.5 50.5l-164 -720h-150zM248 -294l470 1630h129l-471 -1630h-128zM666 267q13 39 39 86q111 210 111 312q0 30 -7 58q45 0 80.5 -22t35.5 -69q0 -93 -106 -228q-26 -33 -46 -67h161l83 367l154 19l-90 -386h68l-21 -70 h-62l-61 -265h-148l61 265h-252z" />
<glyph unicode="&#xbd;" horiz-adv-x="1202" d="M124 401l138 600h-98l12 45q94 0 154.5 24.5t107.5 50.5l-164 -720h-150zM238 -294l471 1630h129l-471 -1630h-129zM652 56.5q0 33.5 25 77t63 85t81 82.5q171 157 171 298q0 53 -39 73q-12 6 -31 6q-41 0 -58.5 -19.5t-17.5 -42.5q0 -71 39 -81q-39 -34 -75 -34t-57 22 t-21 56q0 65 52 107.5t162 42.5q195 0 195 -153q0 -80 -44 -140t-108 -112l-122 -96q-62 -44 -94 -92h7q50 0 100 -9.5t100 -9.5t69 13q39 29 66 55q0 -107 -14 -135q-26 -52 -109 -52q-56 0 -129 18t-105 18t-48.5 -5.5t-31.5 -13t-23 -10.5q-3 18 -3 51.5z" />
<glyph unicode="&#xbe;" horiz-adv-x="1458" d="M109 559q0 60 31 99t97 39t78 -49q-81 -9 -89 -76q-2 -19 -2 -40q0 -76 83 -76q62 0 98.5 50t36.5 111t-32 112.5t-102 73.5q82 21 129.5 77.5t47.5 100.5q0 88 -67 88q-93 0 -93 -77q0 -35 15 -49t25 -16q-40 -34 -75 -34t-57 22t-22 56q0 63 57.5 106.5t157 43.5 t145 -42t45.5 -94q0 -118 -140 -184q68 -19 98 -61.5t30 -90.5q0 -94 -78 -174t-188 -80q-149 0 -206 73q-23 31 -23 91zM454 -294l471 1630h128l-470 -1630h-129zM879 267q13 39 38 86l49 99q62 129 62 213q0 30 -7 58q46 0 81 -22t35 -69q0 -93 -106 -228q-26 -33 -45 -67 h160l83 367l153 19l-88 -386h68l-22 -70h-63l-60 -265h-148l60 265h-250z" />
<glyph unicode="&#xbf;" horiz-adv-x="782" d="M22 -207.5q0 61.5 23 120.5q42 104 148 192l96 81q117 102 162 208h117q0 -104 -84 -211q-36 -46 -77.5 -89.5t-77.5 -90.5q-85 -110 -85 -213q0 -134 101 -134q53 0 96.5 42.5t43.5 104.5t-37 100q-13 13 -31 19q47 75 130 75q52 0 93.5 -38t41.5 -98q0 -121 -85 -203 q-104 -98 -289 -98q-228 0 -273 133q-13 38 -13 99.5zM412 663v2q0 57 40 99.5t99.5 42.5t101.5 -42t42 -100v-2q0 -60 -42.5 -100.5t-101 -40.5t-99.5 41q-40 41 -40 100z" />
<glyph unicode="&#xc0;" horiz-adv-x="1190" d="M16 595q0 92 103 157q105 64 260 64q36 0 93 -5q145 227 307 376t313 149q90 0 141 -25l-279 -1311h-257l136 646q-118 54 -238 65q-160 -354 -214 -650q-17 -95 -17 -162.5t24 -101.5q-105 0 -148 22q-90 45 -90 167q0 185 154 519q49 104 108 206q-84 -5 -137.5 -25.5 t-71.5 -66.5q8 0 15.5 -18t7.5 -44t-29 -45t-61 -19q-59 0 -89.5 27.5t-30.5 74.5zM632 787q125 -24 218 -61l104 484q-154 -83 -322 -423zM779 1782h187l52 -337h-134z" />
<glyph unicode="&#xc1;" horiz-adv-x="1190" d="M16 595q0 92 103 157q105 64 260 64q36 0 93 -5q145 227 307 376t313 149q90 0 141 -25l-279 -1311h-257l136 646q-118 54 -238 65q-160 -354 -214 -650q-17 -95 -17 -162.5t24 -101.5q-105 0 -148 22q-90 45 -90 167q0 185 154 519q49 104 108 206q-84 -5 -137.5 -25.5 t-71.5 -66.5q8 0 15.5 -18t7.5 -44t-29 -45t-61 -19q-59 0 -89.5 27.5t-30.5 74.5zM632 787q125 -24 218 -61l104 484q-154 -83 -322 -423zM867 1445l161 337h187l-215 -337h-133z" />
<glyph unicode="&#xc2;" horiz-adv-x="1190" d="M16 595q0 92 103 157q105 64 260 64q36 0 93 -5q145 227 307 376t313 149q90 0 141 -25l-279 -1311h-257l136 646q-118 54 -238 65q-160 -354 -214 -650q-17 -95 -17 -162.5t24 -101.5q-105 0 -148 22q-90 45 -90 167q0 185 154 519q49 104 108 206q-84 -5 -137.5 -25.5 t-71.5 -66.5q8 0 15.5 -18t7.5 -44t-29 -45t-61 -19q-59 0 -89.5 27.5t-30.5 74.5zM632 787q125 -24 218 -61l104 484q-154 -83 -322 -423zM726 1445l377 337h38l107 -337h-57l-107 143l-280 -143h-78z" />
<glyph unicode="&#xc3;" horiz-adv-x="1190" d="M16 595q0 92 103 157q105 64 260 64q36 0 93 -5q145 227 307 376t313 149q90 0 141 -25l-279 -1311h-257l136 646q-118 54 -238 65q-160 -354 -214 -650q-17 -95 -17 -162.5t24 -101.5q-105 0 -148 22q-90 45 -90 167q0 185 154 519q49 104 108 206q-84 -5 -137.5 -25.5 t-71.5 -66.5q8 0 15.5 -18t7.5 -44t-29 -45t-61 -19q-59 0 -89.5 27.5t-30.5 74.5zM632 787q125 -24 218 -61l104 484q-154 -83 -322 -423zM729 1482q86 175 298 175q68 0 128.5 -20.5t93.5 -29.5t87 -9t97 41l10 -2q-14 -64 -101.5 -121t-185.5 -57q-60 0 -126 22.5 t-101 33t-72 10.5q-67 0 -117 -46z" />
<glyph unicode="&#xc4;" horiz-adv-x="1190" d="M16 595q0 92 103 157q105 64 260 64q36 0 93 -5q145 227 307 376t313 149q90 0 141 -25l-279 -1311h-257l136 646q-118 54 -238 65q-160 -354 -214 -650q-17 -95 -17 -162.5t24 -101.5q-105 0 -148 22q-90 45 -90 167q0 185 154 519q49 104 108 206q-84 -5 -137.5 -25.5 t-71.5 -66.5q8 0 15.5 -18t7.5 -44t-29 -45t-61 -19q-59 0 -89.5 27.5t-30.5 74.5zM632 787q125 -24 218 -61l104 484q-154 -83 -322 -423zM766 1574q0 45 31 77t77 32t78 -31.5t32 -77t-32 -77.5q-33 -30 -66 -30q-58 0 -89 31t-31 76zM1087 1574q0 46 31 77.5t76.5 31.5 t77.5 -31.5t32 -77t-32 -77.5q-33 -30 -66 -30q-57 0 -88 30.5t-31 76.5z" />
<glyph unicode="&#xc5;" horiz-adv-x="1190" d="M16 595q0 92 103 157q105 64 260 64q36 0 93 -5q145 227 307 376t313 149q90 0 141 -25l-279 -1311h-257l136 646q-118 54 -238 65q-160 -354 -214 -650q-17 -95 -17 -162.5t24 -101.5q-105 0 -148 22q-90 45 -90 167q0 185 154 519q49 104 108 206q-84 -5 -137.5 -25.5 t-71.5 -66.5q8 0 15.5 -18t7.5 -44t-29 -45t-61 -19q-59 0 -89.5 27.5t-30.5 74.5zM632 787q125 -24 218 -61l104 484q-154 -83 -322 -423zM864 1540q0 112 82 159q28 17 81.5 17t85 -40.5t31.5 -98t-35 -103t-106 -45.5t-105 36q-34 37 -34 75zM935 1557q0 -66 61 -66 q82 0 82 82q0 58 -26 77q-12 7 -33 7q-45 0 -64.5 -33t-19.5 -67z" />
<glyph unicode="&#xc6;" horiz-adv-x="1361" d="M16 596q0 91 105 153t243 62q46 0 105 -5q224 366 461 489q82 43 160 43q37 0 74 -5l77 -12q107 -19 170 -19q107 0 209 34l-20 -64q-40 -131 -171 -131q-68 0 -119 18l-102 38l-96 -451h276l-36 -131h-269l-90 -426h398l-37 -189h-657l136 646q-128 58 -240 65 q-156 -343 -212 -647q-17 -95 -17 -147.5t3.5 -70t8 -26.5t8.5 -12.5t4 -8.5q-121 4 -159 27q-79 46 -79 172q0 178 154 508q49 103 108 205q-81 -5 -135 -25t-74 -67q8 0 15.5 -18t7.5 -42.5t-25.5 -45t-74 -20.5t-79.5 26t-31 77zM629 786q114 -21 221 -60l104 484 q-161 -89 -325 -424z" />
<glyph unicode="&#xc7;" horiz-adv-x="885" d="M34 397.5q0 223.5 74 446.5q86 263 254 393q129 99 294 99q207 0 274 -129q24 -46 24 -109q0 -164 -126 -164q-62 0 -101 46q33 17 57.5 65t24.5 95.5t-24.5 80t-79 32.5t-101 -36.5t-87.5 -99.5q-83 -125 -135 -320t-52 -354t46.5 -229.5t159.5 -70.5q223 0 355 178 l41 -18q-85 -216 -325 -300q-64 -22 -131 -29l-37 -91q56 13 95 13q111 0 111 -89.5t-65 -142t-140.5 -52.5t-107.5 11t-52 20l-40 19q33 56 66 56q46 0 79.5 -24t57 -24t39 23t15.5 50t-16 46.5t-59.5 19.5t-86.5 -21l65 184q-182 4 -274 103t-92 322.5z" />
<glyph unicode="&#xc8;" horiz-adv-x="817" d="M12 289q0 141 91.5 279t238.5 175q-109 79 -109 218.5t113 259t278 119.5q110 0 182.5 -58t72.5 -151.5t-39.5 -146t-90.5 -52.5t-86 48q31 12 54.5 59t23.5 98.5t-31 74.5q-32 23 -70 23q-74 0 -126.5 -77t-52.5 -175q0 -134 98 -202q34 -24 82 -36q-136 -30 -227 -163 t-91 -263q0 -75 39 -127.5t128.5 -52.5t186 48t144.5 134l41 -18q-70 -155 -214 -245t-307.5 -90t-246 90t-82.5 231zM449 1782h187l52 -337h-134z" />
<glyph unicode="&#xc9;" horiz-adv-x="817" d="M12 289q0 141 91.5 279t238.5 175q-109 79 -109 218.5t113 259t278 119.5q110 0 182.5 -58t72.5 -151.5t-39.5 -146t-90.5 -52.5t-86 48q31 12 54.5 59t23.5 98.5t-31 74.5q-32 23 -70 23q-74 0 -126.5 -77t-52.5 -175q0 -134 98 -202q34 -24 82 -36q-136 -30 -227 -163 t-91 -263q0 -75 39 -127.5t128.5 -52.5t186 48t144.5 134l41 -18q-70 -155 -214 -245t-307.5 -90t-246 90t-82.5 231zM588 1445l162 337h187l-216 -337h-133z" />
<glyph unicode="&#xca;" horiz-adv-x="817" d="M12 289q0 141 91.5 279t238.5 175q-109 79 -109 218.5t113 259t278 119.5q110 0 182.5 -58t72.5 -151.5t-39.5 -146t-90.5 -52.5t-86 48q31 12 54.5 59t23.5 98.5t-31 74.5q-32 23 -70 23q-74 0 -126.5 -77t-52.5 -175q0 -134 98 -202q34 -24 82 -36q-136 -30 -227 -163 t-91 -263q0 -75 39 -127.5t128.5 -52.5t186 48t144.5 134l41 -18q-70 -155 -214 -245t-307.5 -90t-246 90t-82.5 231zM360 1445l378 337h37l107 -337h-56l-107 143l-281 -143h-78z" />
<glyph unicode="&#xcb;" horiz-adv-x="817" d="M12 289q0 141 91.5 279t238.5 175q-109 79 -109 218.5t113 259t278 119.5q110 0 182.5 -58t72.5 -151.5t-39.5 -146t-90.5 -52.5t-86 48q31 12 54.5 59t23.5 98.5t-31 74.5q-32 23 -70 23q-74 0 -126.5 -77t-52.5 -175q0 -134 98 -202q34 -24 82 -36q-136 -30 -227 -163 t-91 -263q0 -75 39 -127.5t128.5 -52.5t186 48t144.5 134l41 -18q-70 -155 -214 -245t-307.5 -90t-246 90t-82.5 231zM425 1574q0 45 30 77q31 32 77 32t78 -31.5t32 -77t-32 -77.5q-33 -30 -67 -30q-58 0 -88 31t-30 76zM745 1574q0 46 31 77.5t76.5 31.5t77.5 -31.5 t32 -77t-32 -77.5q-33 -30 -67 -30q-56 0 -87 30.5t-31 76.5z" />
<glyph unicode="&#xcc;" horiz-adv-x="668" d="M10 873q0 90 56.5 173t144.5 148q203 142 425 142q37 0 71 -3l-283 -1333h-256l257 1210q-248 -104 -248 -389q0 -72 20 -108q4 -7 4 -13q-143 0 -178 92q-13 33 -13 81zM304 1782h188l52 -337h-134z" />
<glyph unicode="&#xcd;" horiz-adv-x="668" d="M10 873q0 90 56.5 173t144.5 148q203 142 425 142q37 0 71 -3l-283 -1333h-256l257 1210q-248 -104 -248 -389q0 -72 20 -108q4 -7 4 -13q-143 0 -178 92q-13 33 -13 81zM479 1445l162 337h187l-216 -337h-133z" />
<glyph unicode="&#xce;" horiz-adv-x="668" d="M10 873q0 90 56.5 173t144.5 148q203 142 425 142q37 0 71 -3l-283 -1333h-256l257 1210q-248 -104 -248 -389q0 -72 20 -108q4 -7 4 -13q-143 0 -178 92q-13 33 -13 81zM269 1445l377 337h38l107 -337h-57l-107 143l-280 -143h-78z" />
<glyph unicode="&#xcf;" horiz-adv-x="668" d="M10 873q0 90 56.5 173t144.5 148q203 142 425 142q37 0 71 -3l-283 -1333h-256l257 1210q-248 -104 -248 -389q0 -72 20 -108q4 -7 4 -13q-143 0 -178 92q-13 33 -13 81zM298 1574q0 45 30 77q31 32 77 32t78 -31.5t32 -77t-32 -77.5q-33 -30 -67 -30q-58 0 -88 31 t-30 76zM618 1574q0 46 31 77.5t76.5 31.5t77.5 -31.5t32 -77t-32 -77.5q-33 -30 -67 -30q-56 0 -87 30.5t-31 76.5z" />
<glyph unicode="&#xd0;" horiz-adv-x="1181" d="M10 873q0 90 56.5 173t144.5 148q203 142 425 142q513 0 513 -481q0 -175 -40 -331q-84 -330 -267 -475q-89 -72 -191.5 -72t-212.5 94l-14 -71h-256l131 615h-69l35 131h63l82 388l263 34l-90 -422h140l-35 -131h-134l-95 -445q49 -36 102 -36q80 0 144 71 q121 137 174 435q24 135 24 242t-9.5 172.5t-36.5 109.5q-55 91 -199 91q-220 0 -350 -117q-131 -117 -131 -317q0 -72 20 -108q4 -7 4 -13q-143 0 -178 92q-13 33 -13 81z" />
<glyph unicode="&#xd1;" horiz-adv-x="1222" d="M10 875q0 50 16.5 104t46.5 105q66 112 181 182t261 70q42 0 84 -2.5t81 -22.5l141 -944l194 966h257l-283 -1333h-216l-151 932l-198 -932h-256l256 1210q-119 -49 -183 -147t-64 -242q0 -72 20 -108q4 -7 4 -13q-143 0 -178 92q-13 33 -13 83zM549 1482q86 175 298 175 q68 0 128.5 -20.5t93.5 -29.5t87 -9t97 41l10 -2q-15 -64 -102 -121t-185 -57q-60 0 -126 22.5t-101 33t-72 10.5q-67 0 -118 -46z" />
<glyph unicode="&#xd2;" horiz-adv-x="1172" d="M29 855q0 87 59 175q126 185 389 266q130 40 269 40q422 0 422 -456q0 -307 -154 -574q-109 -192 -292 -275q-94 -41 -187.5 -41t-151.5 19q-191 64 -191 338q0 184 69 391q110 334 301 421q53 24 110 24t96 -15q-77 -46 -153 -197q-110 -217 -147 -480q-12 -82 -12 -151 q0 -206 103 -206h2q86 0 172.5 125.5t142.5 316t56 361.5t-47 244.5t-181 73.5q-214 0 -363.5 -127t-149.5 -332q0 -52 9 -69t9 -27q-87 0 -133.5 34t-46.5 121zM520 1782h187l53 -337h-134z" />
<glyph unicode="&#xd3;" horiz-adv-x="1172" d="M29 855q0 87 59 175q126 185 389 266q130 40 269 40q422 0 422 -456q0 -307 -154 -574q-109 -192 -292 -275q-94 -41 -187.5 -41t-151.5 19q-191 64 -191 338q0 184 69 391q110 334 301 421q53 24 110 24t96 -15q-77 -46 -153 -197q-110 -217 -147 -480q-12 -82 -12 -151 q0 -206 103 -206h2q86 0 172.5 125.5t142.5 316t56 361.5t-47 244.5t-181 73.5q-214 0 -363.5 -127t-149.5 -332q0 -52 9 -69t9 -27q-87 0 -133.5 34t-46.5 121zM707 1445l162 337h187l-216 -337h-133z" />
<glyph unicode="&#xd4;" horiz-adv-x="1172" d="M29 855q0 87 59 175q126 185 389 266q130 40 269 40q422 0 422 -456q0 -307 -154 -574q-109 -192 -292 -275q-94 -41 -187.5 -41t-151.5 19q-191 64 -191 338q0 184 69 391q110 334 301 421q53 24 110 24t96 -15q-77 -46 -153 -197q-110 -217 -147 -480q-12 -82 -12 -151 q0 -206 103 -206h2q86 0 172.5 125.5t142.5 316t56 361.5t-47 244.5t-181 73.5q-214 0 -363.5 -127t-149.5 -332q0 -52 9 -69t9 -27q-87 0 -133.5 34t-46.5 121zM485 1445l377 337h38l107 -337h-57l-107 143l-280 -143h-78z" />
<glyph unicode="&#xd5;" horiz-adv-x="1172" d="M29 855q0 87 59 175q126 185 389 266q130 40 269 40q422 0 422 -456q0 -307 -154 -574q-109 -192 -292 -275q-94 -41 -187.5 -41t-151.5 19q-191 64 -191 338q0 184 69 391q110 334 301 421q53 24 110 24t96 -15q-77 -46 -153 -197q-110 -217 -147 -480q-12 -82 -12 -151 q0 -206 103 -206h2q86 0 172.5 125.5t142.5 316t56 361.5t-47 244.5t-181 73.5q-214 0 -363.5 -127t-149.5 -332q0 -52 9 -69t9 -27q-87 0 -133.5 34t-46.5 121zM488 1482q86 175 298 175q68 0 128.5 -20.5t93.5 -29.5t87 -9t97 41l10 -2q-14 -64 -101.5 -121t-185.5 -57 q-60 0 -126 22.5t-101 33t-72 10.5q-67 0 -117 -46z" />
<glyph unicode="&#xd6;" horiz-adv-x="1172" d="M29 855q0 87 59 175q126 185 389 266q130 40 269 40q422 0 422 -456q0 -307 -154 -574q-109 -192 -292 -275q-94 -41 -187.5 -41t-151.5 19q-191 64 -191 338q0 184 69 391q110 334 301 421q53 24 110 24t96 -15q-77 -46 -153 -197q-110 -217 -147 -480q-12 -82 -12 -151 q0 -206 103 -206h2q86 0 172.5 125.5t142.5 316t56 361.5t-47 244.5t-181 73.5q-214 0 -363.5 -127t-149.5 -332q0 -52 9 -69t9 -27q-87 0 -133.5 34t-46.5 121zM513 1574q0 45 31 77t76.5 32t78 -31.5t32.5 -77t-32 -77.5q-33 -30 -67 -30q-58 0 -88.5 31t-30.5 76z M833 1574q0 46 31.5 77.5t77 31.5t77.5 -31.5t32 -77t-32 -77.5q-33 -30 -67 -30q-56 0 -87.5 30.5t-31.5 76.5z" />
<glyph unicode="&#xd7;" horiz-adv-x="917" d="M175 294l169 169l-169 169l116 114l167 -168l171 170l114 -116l-170 -169l170 -169l-114 -116l-171 169l-167 -167z" />
<glyph unicode="&#xd8;" horiz-adv-x="1172" d="M27 794q0 88 57 171q119 170 375 248q127 38 260 38h22q11 0 22 -2l19 87h93l-22 -100q273 -63 273 -413q0 -104 -31 -242q-64 -290 -262 -467q-101 -91 -241 -116l-27 -124h-93l25 116h-4q-221 0 -285 181q-23 64 -23 143t13 163.5t39 171.5q58 195 156 317 q114 142 258 142q41 0 80 -12l15 72q-27 6 -97 6t-159.5 -30t-157.5 -85q-148 -122 -148 -314q0 -48 8.5 -63.5t8.5 -25.5q-84 0 -117.5 23.5t-45 50t-11.5 64.5zM440 325q0 -183 85 -201l204 963q-57 -39 -96 -106q-120 -208 -169 -450q-24 -118 -24 -206zM626 157 q109 81 190.5 298.5t81.5 426.5q0 89 -13.5 150.5t-54.5 96.5z" />
<glyph unicode="&#xd9;" horiz-adv-x="1281" d="M0 864q0 95 57 180q119 177 365 254q123 38 251 38q40 0 86 -8l-182 -677q-58 -226 -58 -315.5t27 -131.5t104.5 -42t112.5 26q63 48 110 173.5t113 420.5l119 551h251l-118 -556q-68 -332 -139 -488q-85 -187 -229 -254q-103 -47 -224.5 -47t-187.5 18.5t-107 54.5 q-75 69 -75 206.5t44 319.5l161 646q-147 -39 -231.5 -142.5t-84.5 -267.5q0 -76 21 -111q5 -6 5 -12q-141 0 -178 87q-13 32 -13 77zM731 1782h187l52 -337h-134z" />
<glyph unicode="&#xda;" horiz-adv-x="1281" d="M0 864q0 95 57 180q119 177 365 254q123 38 251 38q40 0 86 -8l-182 -677q-58 -226 -58 -315.5t27 -131.5t104.5 -42t112.5 26q63 48 110 173.5t113 420.5l119 551h251l-118 -556q-68 -332 -139 -488q-85 -187 -229 -254q-103 -47 -224.5 -47t-187.5 18.5t-107 54.5 q-75 69 -75 206.5t44 319.5l161 646q-147 -39 -231.5 -142.5t-84.5 -267.5q0 -76 21 -111q5 -6 5 -12q-141 0 -178 87q-13 32 -13 77zM804 1445l162 337h187l-216 -337h-133z" />
<glyph unicode="&#xdb;" horiz-adv-x="1281" d="M0 864q0 95 57 180q119 177 365 254q123 38 251 38q40 0 86 -8l-182 -677q-58 -226 -58 -315.5t27 -131.5t104.5 -42t112.5 26q63 48 110 173.5t113 420.5l119 551h251l-118 -556q-68 -332 -139 -488q-85 -187 -229 -254q-103 -47 -224.5 -47t-187.5 18.5t-107 54.5 q-75 69 -75 206.5t44 319.5l161 646q-147 -39 -231.5 -142.5t-84.5 -267.5q0 -76 21 -111q5 -6 5 -12q-141 0 -178 87q-13 32 -13 77zM646 1445l378 337h37l107 -337h-56l-107 143l-280 -143h-79z" />
<glyph unicode="&#xdc;" horiz-adv-x="1281" d="M0 864q0 95 57 180q119 177 365 254q123 38 251 38q40 0 86 -8l-182 -677q-58 -226 -58 -315.5t27 -131.5t104.5 -42t112.5 26q63 48 110 173.5t113 420.5l119 551h251l-118 -556q-68 -332 -139 -488q-85 -187 -229 -254q-103 -47 -224.5 -47t-187.5 18.5t-107 54.5 q-75 69 -75 206.5t44 319.5l161 646q-147 -39 -231.5 -142.5t-84.5 -267.5q0 -76 21 -111q5 -6 5 -12q-141 0 -178 87q-13 32 -13 77zM665 1574q0 45 30 77q31 32 77 32t78 -31.5t32 -77t-32 -77.5q-33 -30 -67 -30q-57 0 -87.5 31t-30.5 76zM985 1574q0 46 31 77.5 t76.5 31.5t77.5 -31.5t32 -77t-32 -77.5q-33 -30 -67 -30q-56 0 -87 30.5t-31 76.5z" />
<glyph unicode="&#xdd;" horiz-adv-x="1104" d="M10 873q0 90 56.5 173t144.5 148q203 142 425 142q37 0 71 -3l155 -638l264 633h118l-346 -779l-118 -549h-285l118 549l-171 668q-125 -47 -195 -147t-70 -249q0 -72 20 -108q4 -7 4 -13q-143 0 -178 92q-13 33 -13 81zM807 1445l162 337h187l-216 -337h-133z" />
<glyph unicode="&#xde;" horiz-adv-x="1038" d="M10 685.5q0 56.5 31.5 120t85.5 118.5q111 115 274 174l44 203l264 35l-43 -195q194 -10 292 -109t98 -243q0 -181 -142.5 -329.5t-371.5 -148.5h-52l-66 -311h-256l213 1001q-204 -107 -204 -375q0 -73 20 -109q4 -7 4 -12q-143 0 -178 91q-13 33 -13 89.5zM505 378h24 q89 0 169 70q112 99 149 268q12 51 12 100q0 104 -52 171t-156 72z" />
<glyph unicode="&#xdf;" horiz-adv-x="802" d="M-151 -445l295 1389q34 171 138 247q77 57 190.5 57t177 -66.5t63.5 -152t-42.5 -158.5t-121.5 -111q94 -31 133 -101q39 -71 39 -156.5t-16 -158.5t-42 -130q-50 -103 -127.5 -157.5t-152.5 -56.5q-31 0 -58 3l22 106q119 0 172 226q23 97 23 210q0 59 -28 97t-101 58 l32 104q56 22 102 70t46 113.5t-16 84t-41 18.5q-47 0 -83 -33t-52 -113l-284 -1325z" />
<glyph unicode="&#xe0;" horiz-adv-x="936" d="M-23 267q0 70 12 140t37 139q56 153 159.5 253.5t249.5 100.5q77 0 110.5 -26t33.5 -65v-13l20 95h256l-128 -606q-8 -30 -8 -57q0 -77 74 -77q94 0 144 168h75q-113 -329 -358 -329q-157 0 -175 163q-116 -163 -271.5 -163t-210.5 152q-20 55 -20 125zM240 291 q0 -79 33 -110q19 -19 48 -19q53 0 96.5 42t60.5 115l85 402q0 17 -15.5 42.5t-65 25.5t-96.5 -53q-113 -128 -142 -367q-4 -37 -4 -78zM385 1336h187l52 -336h-134z" />
<glyph unicode="&#xe1;" horiz-adv-x="936" d="M-23 267q0 70 12 140t37 139q56 153 159.5 253.5t249.5 100.5q77 0 110.5 -26t33.5 -65v-13l20 95h256l-128 -606q-8 -30 -8 -57q0 -77 74 -77q94 0 144 168h75q-113 -329 -358 -329q-157 0 -175 163q-116 -163 -271.5 -163t-210.5 152q-20 55 -20 125zM240 291 q0 -79 33 -110q19 -19 48 -19q53 0 96.5 42t60.5 115l85 402q0 17 -15.5 42.5t-65 25.5t-96.5 -53q-113 -128 -142 -367q-4 -37 -4 -78zM437 1000l162 336h187l-216 -336h-133z" />
<glyph unicode="&#xe2;" horiz-adv-x="936" d="M-23 267q0 70 12 140t37 139q56 153 159.5 253.5t249.5 100.5q77 0 110.5 -26t33.5 -65v-13l20 95h256l-128 -606q-8 -30 -8 -57q0 -77 74 -77q94 0 144 168h75q-113 -329 -358 -329q-157 0 -175 163q-116 -163 -271.5 -163t-210.5 152q-20 55 -20 125zM240 291 q0 -79 33 -110q19 -19 48 -19q53 0 96.5 42t60.5 115l85 402q0 17 -15.5 42.5t-65 25.5t-96.5 -53q-113 -128 -142 -367q-4 -37 -4 -78zM260 1000l378 336h37l107 -336h-56l-107 142l-281 -142h-78z" />
<glyph unicode="&#xe3;" horiz-adv-x="936" d="M-23 267q0 70 12 140t37 139q56 153 159.5 253.5t249.5 100.5q77 0 110.5 -26t33.5 -65v-13l20 95h256l-128 -606q-8 -30 -8 -57q0 -77 74 -77q94 0 144 168h75q-113 -329 -358 -329q-157 0 -175 163q-116 -163 -271.5 -163t-210.5 152q-20 55 -20 125zM182 1037 q86 175 297 175q69 0 129.5 -20.5t93.5 -29.5t87 -9t97 41l10 -2q-15 -64 -102.5 -121t-184.5 -57q-60 0 -126 22.5t-101 33t-72 10.5q-67 0 -118 -46zM240 291q0 -79 33 -110q19 -19 48 -19q53 0 96.5 42t60.5 115l85 402q0 17 -15.5 42.5t-65 25.5t-96.5 -53 q-113 -128 -142 -367q-4 -37 -4 -78z" />
<glyph unicode="&#xe4;" horiz-adv-x="936" d="M-23 267q0 70 12 140t37 139q56 153 159.5 253.5t249.5 100.5q77 0 110.5 -26t33.5 -65v-13l20 95h256l-128 -606q-8 -30 -8 -57q0 -77 74 -77q94 0 144 168h75q-113 -329 -358 -329q-157 0 -175 163q-116 -163 -271.5 -163t-210.5 152q-20 55 -20 125zM240 291 q0 -79 33 -110q19 -19 48 -19q53 0 96.5 42t60.5 115l85 402q0 17 -15.5 42.5t-65 25.5t-96.5 -53q-113 -128 -142 -367q-4 -37 -4 -78zM321 1128.5q0 45.5 30 77.5q32 32 77.5 32t78 -32t32.5 -77.5t-33 -76.5t-66 -31q-57 0 -88 31t-31 76.5zM641 1128q0 46 31.5 78 t76.5 32t77.5 -32t32.5 -77.5t-33 -76.5t-66 -31q-56 0 -87.5 30.5t-31.5 76.5z" />
<glyph unicode="&#xe5;" horiz-adv-x="936" d="M-23 267q0 70 12 140t37 139q56 153 159.5 253.5t249.5 100.5q77 0 110.5 -26t33.5 -65v-13l20 95h256l-128 -606q-8 -30 -8 -57q0 -77 74 -77q94 0 144 168h75q-113 -329 -358 -329q-157 0 -175 163q-116 -163 -271.5 -163t-210.5 152q-20 55 -20 125zM240 291 q0 -79 33 -110q19 -19 48 -19q53 0 96.5 42t60.5 115l85 402q0 17 -15.5 42.5t-65 25.5t-96.5 -53q-113 -128 -142 -367q-4 -37 -4 -78zM417 1094q0 113 82 160q28 16 81.5 16t85 -40.5t31.5 -98t-35.5 -103t-106 -45.5t-104.5 37q-34 36 -34 74zM488 1112q0 -66 61 -66 q82 0 82 82q0 58 -26 76q-13 8 -33 8q-46 0 -65 -33t-19 -67z" />
<glyph unicode="&#xe6;" horiz-adv-x="1157" d="M-14 227q0 150 106.5 220t288.5 70q60 0 93 -7q38 80 38 161.5t-60 111.5q-20 10 -75 10q-97 0 -190 -84l-50 51q126 128 250 137q37 3 74 3q143 0 232 -72q103 79 251.5 79t175.5 -108q8 -33 8 -88t-34 -120.5t-91 -114.5q-120 -105 -285 -116q-4 -29 -4 -57 q0 -100 29.5 -132t86.5 -32q110 0 175 41t153 139h61q-198 -326 -492 -326q-215 0 -262 167q-43 -80 -82 -111q-74 -59 -171 -59q-153 0 -205 116q-21 45 -21 121zM237 261q0 -62 27 -80.5t53 -18.5q50 0 84 53t60 191q-9 2 -15 2h-14q-89 0 -142 -43q-53 -42 -53 -104z M731 445q102 7 181 94.5t79 180.5t-43 93q-65 0 -125 -110.5t-92 -257.5z" />
<glyph unicode="&#xe7;" horiz-adv-x="683" d="M-23 272q0 205 103 395q78 144 215 206q70 34 145 34q214 0 214 -162q0 -68 -27.5 -100t-62.5 -32t-67 21q22 58 22 106q0 73 -51 73t-108 -93q-81 -130 -111 -324q-9 -58 -9 -128q0 -129 123 -129q102 0 172.5 46t148.5 134h61q-139 -228 -329 -302q-13 -5 -26 -8 l-52 -126q56 13 95 13q111 0 111 -89.5t-65 -142t-140.5 -52.5t-107.5 11t-52 20l-40 19q33 56 66 56q46 0 79.5 -24t57 -24t39 23t15.5 50t-16 46.5t-59 19.5t-87 -21l73 204q-25 -2 -52 -2q-127 0 -202.5 65.5t-75.5 216.5z" />
<glyph unicode="&#xe8;" horiz-adv-x="683" d="M-23 272q0 204 103 394q79 146 216 207q70 34 146 34q124 0 168 -47t44 -124q0 -152 -122.5 -258.5t-287.5 -117.5q-4 -50 -4 -71q0 -92 32 -121t91 -29q102 0 172.5 46t148.5 134h61q-200 -329 -490 -329q-127 0 -202.5 65.5t-75.5 216.5zM258 445q103 7 181 96t78 207 q0 65 -45 65q-65 -2 -126 -115.5t-88 -252.5zM308 1336h187l52 -336h-134z" />
<glyph unicode="&#xe9;" horiz-adv-x="683" d="M-23 272q0 204 103 394q79 146 216 207q70 34 146 34q124 0 168 -47t44 -124q0 -152 -122.5 -258.5t-287.5 -117.5q-4 -50 -4 -71q0 -92 32 -121t91 -29q102 0 172.5 46t148.5 134h61q-200 -329 -490 -329q-127 0 -202.5 65.5t-75.5 216.5zM258 445q103 7 181 96t78 207 q0 65 -45 65q-65 -2 -126 -115.5t-88 -252.5zM346 1000l162 336h187l-216 -336h-133z" />
<glyph unicode="&#xea;" horiz-adv-x="683" d="M-23 272q0 204 103 394q79 146 216 207q70 34 146 34q124 0 168 -47t44 -124q0 -152 -122.5 -258.5t-287.5 -117.5q-4 -50 -4 -71q0 -92 32 -121t91 -29q102 0 172.5 46t148.5 134h61q-200 -329 -490 -329q-127 0 -202.5 65.5t-75.5 216.5zM187 1000l378 336h37l107 -336 h-57l-107 142l-280 -142h-78zM258 445q103 7 181 96t78 207q0 65 -45 65q-65 -2 -126 -115.5t-88 -252.5z" />
<glyph unicode="&#xeb;" horiz-adv-x="683" d="M-23 272q0 204 103 394q79 146 216 207q70 34 146 34q124 0 168 -47t44 -124q0 -152 -122.5 -258.5t-287.5 -117.5q-4 -50 -4 -71q0 -92 32 -121t91 -29q102 0 172.5 46t148.5 134h61q-200 -329 -490 -329q-127 0 -202.5 65.5t-75.5 216.5zM212 1128.5q0 45.5 31 77.5 t76.5 32t78 -32t32.5 -77.5t-32 -76.5q-33 -31 -67 -31q-58 0 -88.5 31t-30.5 76.5zM258 445q103 7 181 96t78 207q0 65 -45 65q-65 -2 -126 -115.5t-88 -252.5zM532 1128q0 46 31.5 78t77 32t77.5 -32t32 -77.5t-32 -76.5q-33 -31 -67 -31q-56 0 -87.5 30.5t-31.5 76.5z " />
<glyph unicode="&#xec;" horiz-adv-x="475" d="M-14 203q0 50 14 116l121 572h257l-128 -606q-7 -32 -7 -63q0 -60 72 -60q52 0 97 45t64 112h75q-115 -329 -384 -329q-70 0 -126 50q-55 50 -55 163zM117 1336h187l53 -336h-134z" />
<glyph unicode="&#xed;" horiz-adv-x="475" d="M-14 203q0 50 14 116l121 572h257l-128 -606q-7 -32 -7 -63q0 -60 72 -60q52 0 97 45t64 112h75q-115 -329 -384 -329q-70 0 -126 50q-55 50 -55 163zM216 1000l162 336h187l-216 -336h-133z" />
<glyph unicode="&#xee;" horiz-adv-x="475" d="M-14 203q0 50 14 116l121 572h257l-128 -606q-7 -32 -7 -63q0 -60 72 -60q52 0 97 45t64 112h75q-115 -329 -384 -329q-70 0 -126 50q-55 50 -55 163zM10 1000l378 336h37l107 -336h-56l-107 142l-280 -142h-79z" />
<glyph unicode="&#xef;" horiz-adv-x="475" d="M-14 203q0 50 14 116l121 572h257l-128 -606q-7 -32 -7 -63q0 -60 72 -60q52 0 97 45t64 112h75q-115 -329 -384 -329q-70 0 -126 50q-55 50 -55 163zM31 1128.5q0 45.5 31 77.5t76.5 32t78 -32t32.5 -77.5t-32 -76.5q-33 -31 -67 -31q-58 0 -88.5 31t-30.5 76.5z M351 1128q0 46 31.5 78t77 32t77.5 -32t32 -77.5t-32 -76.5q-33 -31 -67 -31q-56 0 -87.5 30.5t-31.5 76.5z" />
<glyph unicode="&#xf0;" horiz-adv-x="958" d="M-2 267q0 70 12.5 140t38.5 139q55 154 151 246q111 108 256 108q76 0 110 -26t34 -65v-10l15 65q15 65 19 136h-137l15 71h122q-10 90 -75 177h80q65 -38 113 -75.5t78 -101.5h112l-14 -71h-75q11 -44 11 -102.5t-19 -157.5l-97 -455q-7 -32 -7 -63q0 -60 73 -60 q96 0 145 157h75q-112 -319 -359 -319q-152 0 -175 155q-105 -165 -265.5 -165t-216.5 152q-20 55 -20 125zM262 291q0 -78 25.5 -103.5t54.5 -25.5q53 0 96.5 41.5t60.5 115.5l86 402q0 39 -39 60q-14 8 -34 8q-59 0 -105 -53q-113 -130 -141 -367q-4 -37 -4 -78z" />
<glyph unicode="&#xf1;" d="M-68 0l189 891h257l-20 -92q87 99 208 99q86 0 142 -47q57 -47 57 -139.5t-30 -208.5l-42 -172q-14 -57 -14 -93q0 -76 65 -76q60 0 92 38t64 119h74q-103 -300 -280 -326q-28 -3 -68.5 -3t-80.5 17q-112 47 -112 184q0 73 40 233t40 221q0 91 -64 91t-115 -102 q-15 -28 -24 -62l-121 -572h-257zM157 1037q86 175 297 175q69 0 129.5 -20.5t93.5 -29.5t87 -9t96 41l11 -2q-15 -64 -102.5 -121t-184.5 -57q-60 0 -126 22.5t-101 33t-73 10.5q-66 0 -117 -46z" />
<glyph unicode="&#xf2;" horiz-adv-x="771" d="M-35 261.5q0 64.5 11 131t34 137.5q54 159 154 258q120 119 289 119q229 0 229 -285v-2q9 -1 30 -1q48 0 123 30t141 77l16 -49q-108 -113 -316 -148q-21 -244 -140 -390t-285 -146q-206 0 -265 151q-21 53 -21 117.5zM231 298q0 -87 15.5 -110t33 -29t45.5 -6 q62 0 122 107t81 264q-48 12 -48 79t56 92q-4 57 -18 80.5t-56 23.5q-82 0 -156.5 -180.5t-74.5 -320.5zM318 1336h187l53 -336h-134z" />
<glyph unicode="&#xf3;" horiz-adv-x="771" d="M-35 261.5q0 64.5 11 131t34 137.5q54 159 154 258q120 119 289 119q229 0 229 -285v-2q9 -1 30 -1q48 0 123 30t141 77l16 -49q-108 -113 -316 -148q-21 -244 -140 -390t-285 -146q-206 0 -265 151q-21 53 -21 117.5zM231 298q0 -87 15.5 -110t33 -29t45.5 -6 q62 0 122 107t81 264q-48 12 -48 79t56 92q-4 57 -18 80.5t-56 23.5q-82 0 -156.5 -180.5t-74.5 -320.5zM391 1000l161 336h188l-216 -336h-133z" />
<glyph unicode="&#xf4;" horiz-adv-x="771" d="M-35 261.5q0 64.5 11 131t34 137.5q54 159 154 258q120 119 289 119q229 0 229 -285v-2q9 -1 30 -1q48 0 123 30t141 77l16 -49q-108 -113 -316 -148q-21 -244 -140 -390t-285 -146q-206 0 -265 151q-21 53 -21 117.5zM170 1000l377 336h38l107 -336h-57l-107 142 l-280 -142h-78zM231 298q0 -87 15.5 -110t33 -29t45.5 -6q62 0 122 107t81 264q-48 12 -48 79t56 92q-4 57 -18 80.5t-56 23.5q-82 0 -156.5 -180.5t-74.5 -320.5z" />
<glyph unicode="&#xf5;" horiz-adv-x="771" d="M-35 261.5q0 64.5 11 131t34 137.5q54 159 154 258q120 119 289 119q229 0 229 -285v-2q9 -1 30 -1q48 0 123 30t141 77l16 -49q-108 -113 -316 -148q-21 -244 -140 -390t-285 -146q-206 0 -265 151q-21 53 -21 117.5zM71 1037q86 175 298 175q69 0 129.5 -20.5 t93.5 -29.5t87 -9t96 41l11 -2q-15 -64 -102.5 -121t-184.5 -57q-61 0 -127 22.5t-100.5 33t-72.5 10.5q-67 0 -117 -46zM231 298q0 -87 15.5 -110t33 -29t45.5 -6q62 0 122 107t81 264q-48 12 -48 79t56 92q-4 57 -18 80.5t-56 23.5q-82 0 -156.5 -180.5t-74.5 -320.5z" />
<glyph unicode="&#xf6;" horiz-adv-x="771" d="M-35 261.5q0 64.5 11 131t34 137.5q54 159 154 258q120 119 289 119q229 0 229 -285v-2q9 -1 30 -1q48 0 123 30t141 77l16 -49q-108 -113 -316 -148q-21 -244 -140 -390t-285 -146q-206 0 -265 151q-21 53 -21 117.5zM187 1128.5q0 45.5 31 77.5t76.5 32t78 -32 t32.5 -77.5t-33 -76.5t-66 -31q-57 0 -88 31t-31 76.5zM231 298q0 -87 15.5 -110t33 -29t45.5 -6q62 0 122 107t81 264q-48 12 -48 79t56 92q-4 57 -18 80.5t-56 23.5q-82 0 -156.5 -180.5t-74.5 -320.5zM507 1128q0 46 31.5 78t76.5 32t77.5 -32t32.5 -77.5t-32 -76.5 q-34 -31 -67 -31q-56 0 -87.5 30.5t-31.5 76.5z" />
<glyph unicode="&#xf7;" horiz-adv-x="841" d="M91 367l33 140h623l-30 -140h-626zM262 142q0 58 40.5 100.5t99.5 42.5t101 -42t42 -101t-42.5 -99.5t-100.5 -40.5t-99 41t-41 99zM369 739q0 59 40.5 101t99.5 42t101 -41.5t42 -101.5t-42.5 -100t-100.5 -40t-99 40q-41 41 -41 100z" />
<glyph unicode="&#xf8;" horiz-adv-x="762" d="M-25 262q0 63 10 128.5t32 134.5q53 158 157.5 266t267.5 114l36 173h92l-38 -182q148 -39 154 -260q124 6 264 107h57q-37 -56 -130.5 -114.5t-194.5 -83.5q-14 -218 -106 -361t-234 -181l-39 -187h-92l37 177q-197 6 -253 154q-20 52 -20 115zM240 308q0 -97 19.5 -126 t62.5 -29q75 0 133 107t79 269q-49 14 -49 85.5t55 91.5q-4 52 -19.5 72.5t-56 20.5t-82.5 -54q-82 -106 -124 -295q-18 -86 -18 -142z" />
<glyph unicode="&#xf9;" d="M-14 203q0 50 14 116l121 572h257l-128 -606q-6 -27 -6 -50q0 -73 54 -73q94 0 142 157l121 572h257l-128 -606q-8 -30 -8 -62q0 -61 73 -61q100 0 145 157h74q-113 -329 -357 -329q-159 0 -177 168q-104 -168 -263 -168q-80 0 -136 50q-55 50 -55 163zM330 1336h187 l52 -336h-134z" />
<glyph unicode="&#xfa;" d="M-14 203q0 50 14 116l121 572h257l-128 -606q-6 -27 -6 -50q0 -73 54 -73q94 0 142 157l121 572h257l-128 -606q-8 -30 -8 -62q0 -61 73 -61q100 0 145 157h74q-113 -329 -357 -329q-159 0 -177 168q-104 -168 -263 -168q-80 0 -136 50q-55 50 -55 163zM426 1000l162 336 h187l-216 -336h-133z" />
<glyph unicode="&#xfb;" d="M-14 203q0 50 14 116l121 572h257l-128 -606q-6 -27 -6 -50q0 -73 54 -73q94 0 142 157l121 572h257l-128 -606q-8 -30 -8 -62q0 -61 73 -61q100 0 145 157h74q-113 -329 -357 -329q-159 0 -177 168q-104 -168 -263 -168q-80 0 -136 50q-55 50 -55 163zM224 1000l378 336 h37l107 -336h-56l-107 142l-280 -142h-79z" />
<glyph unicode="&#xfc;" d="M-14 203q0 50 14 116l121 572h257l-128 -606q-6 -27 -6 -50q0 -73 54 -73q94 0 142 157l121 572h257l-128 -606q-8 -30 -8 -62q0 -61 73 -61q100 0 145 157h74q-113 -329 -357 -329q-159 0 -177 168q-104 -168 -263 -168q-80 0 -136 50q-55 50 -55 163zM243 1128.5 q0 45.5 30 77.5q31 32 77 32t78 -32t32 -77.5t-32 -76.5q-33 -31 -66 -31q-58 0 -88.5 31t-30.5 76.5zM563 1128q0 46 31.5 78t76.5 32t77 -32t32 -77.5t-32 -76.5q-33 -31 -66 -31q-56 0 -87.5 30.5t-31.5 76.5z" />
<glyph unicode="&#xfd;" d="M-14 203q0 50 14 116l121 572h257l-128 -606q-6 -22 -6 -45q0 -78 51 -78t87 42q35 42 55 104l124 583h257l-177 -827q81 27 133.5 82.5t91.5 172.5h74q-67 -229 -229 -302q-45 -20 -85 -31l-27 -129q-34 -171 -136 -247q-75 -55 -171.5 -55t-154.5 42q-59 43 -59 137 q0 162 291 259l22 96q-93 -99 -214 -99q-80 0 -136 50q-55 50 -55 163zM177 -248q0 -36 34 -53q11 -5 32.5 -5t50.5 38.5t46 119.5l11 51q-174 -62 -174 -151zM425 1000l161 336h187l-215 -336h-133z" />
<glyph unicode="&#xfe;" horiz-adv-x="843" d="M-164 -445l278 1309q22 95 22 166q0 117 -77 218h80q111 -66 148 -113q77 -94 77 -230q0 -37 -7 -87q88 82 215 82q154 0 201 -148q16 -54 16 -124t-8 -140t-28 -140t-53 -134.5t-81.5 -114.5t-115 -79.5t-167.5 -29.5t-139 65l-92 -436zM226 189q15 -45 77 -45t109 51 q93 99 120 283q13 82 13 146q0 148 -89 148q-31 0 -65 -23t-60 -70z" />
<glyph unicode="&#xff;" d="M-14 203q0 50 14 116l121 572h257l-128 -606q-6 -22 -6 -45q0 -78 51 -78t87 42q35 42 55 104l124 583h257l-177 -827q81 27 133.5 82.5t91.5 172.5h74q-67 -229 -229 -302q-45 -20 -85 -31l-27 -129q-34 -171 -136 -247q-75 -55 -171.5 -55t-154.5 42q-59 43 -59 137 q0 162 291 259l22 96q-93 -99 -214 -99q-80 0 -136 50q-55 50 -55 163zM177 -248q0 -36 34 -53q11 -5 32.5 -5t50.5 38.5t46 119.5l11 51q-174 -62 -174 -151zM219 1128.5q0 45.5 31 77.5t76.5 32t78 -32t32.5 -77.5t-32 -76.5q-34 -31 -67 -31q-58 0 -88.5 31t-30.5 76.5z M539 1128q0 46 31.5 78t77 32t77.5 -32t32 -77.5t-32 -76.5q-33 -31 -67 -31q-56 0 -87.5 30.5t-31.5 76.5z" />
<glyph unicode="&#x152;" horiz-adv-x="1507" d="M29 855q0 87 59 175q126 185 389 266q130 40 257.5 40t207.5 -33q103 33 196 33t168.5 -10.5t165.5 -10.5t157 21l-17 -61q-34 -127 -153 -153q-85 0 -201.5 29.5t-167.5 35.5q78 -112 78 -307q0 -63 -8 -134h237l-35 -131h-226q-38 -164 -122 -310q-36 -63 -82 -116h433 l-37 -189h-690q-59 -10 -128 -10q-146 0 -232 85.5t-86 270.5t69 392q110 334 301 421q53 24 110 24t96 -15q-77 -46 -153 -197q-110 -217 -147 -480q-12 -82 -12 -151q0 -206 103 -206h2q86 0 172.5 125.5t142.5 316t56 361.5t-47 244.5t-181 73.5q-214 0 -363.5 -127 t-149.5 -332q0 -52 9 -69t9 -27q-87 0 -133.5 34t-46.5 121z" />
<glyph unicode="&#x153;" horiz-adv-x="1181" d="M-12 284q0 307 141 475q127 149 327 149q90 0 135.5 -42.5t64.5 -108.5q110 150 284 150q228 0 228 -186q0 -152 -138 -256q-122 -92 -264 -107q-6 -38 -6 -80q0 -79 43 -114.5t90 -35.5q82 0 175.5 69t137.5 167h81q-137 -248 -342 -333q-75 -30 -164 -31h-1 q-87 0 -147.5 43.5t-88.5 111.5q-118 -165 -284 -165q-143 0 -208 66q-64 67 -64 228zM224 284q0 -67 34.5 -94.5t80.5 -27.5q82 0 133 108q42 88 62 236q-39 0 -57 24t-18 49q0 47 22.5 82.5t56.5 49.5q-7 93 -75 93q-62 0 -108 -59q-84 -110 -117 -309q-14 -85 -14 -152z M780 444q116 0 199 84.5t83 184.5q0 62 -31 89q-12 11 -40.5 11t-61.5 -34q-96 -97 -149 -335z" />
<glyph unicode="&#x178;" horiz-adv-x="1104" d="M10 873q0 90 56.5 173t144.5 148q203 142 425 142q37 0 71 -3l155 -638l264 633h118l-346 -779l-118 -549h-285l118 549l-171 668q-125 -47 -195 -147t-70 -249q0 -72 20 -108q4 -7 4 -13q-143 0 -178 92q-13 33 -13 81zM676 1574q0 45 30 77q32 32 77.5 32t77.5 -31.5 t32 -77t-32 -77.5q-33 -30 -66 -30q-57 0 -88 31t-31 76zM996 1574q0 46 31.5 77.5t76.5 31.5t77.5 -31.5t32.5 -77t-33 -77.5q-33 -30 -66 -30q-56 0 -87.5 30.5t-31.5 76.5z" />
<glyph unicode="&#x2c6;" horiz-adv-x="522" d="M0 1000l378 336h37l107 -336h-57l-107 142l-280 -142h-78z" />
<glyph unicode="&#x2dc;" horiz-adv-x="717" d="M68 1037q86 175 297 175q69 0 129.5 -20.5t93.5 -29.5t87 -9t97 41l10 -2q-15 -64 -102 -122q-88 -56 -185 -56q-60 0 -126 22.5t-101 33t-72 10.5q-67 0 -118 -46z" />
<glyph unicode="&#x2000;" horiz-adv-x="891" />
<glyph unicode="&#x2001;" horiz-adv-x="1782" />
<glyph unicode="&#x2002;" horiz-adv-x="891" />
<glyph unicode="&#x2003;" horiz-adv-x="1782" />
<glyph unicode="&#x2004;" horiz-adv-x="594" />
<glyph unicode="&#x2005;" horiz-adv-x="445" />
<glyph unicode="&#x2006;" horiz-adv-x="297" />
<glyph unicode="&#x2007;" horiz-adv-x="297" />
<glyph unicode="&#x2008;" horiz-adv-x="222" />
<glyph unicode="&#x2009;" horiz-adv-x="356" />
<glyph unicode="&#x200a;" horiz-adv-x="99" />
<glyph unicode="&#x2010;" horiz-adv-x="516" d="M34 396l32 140h356l-30 -140h-358z" />
<glyph unicode="&#x2011;" horiz-adv-x="516" d="M34 396l32 140h356l-30 -140h-358z" />
<glyph unicode="&#x2012;" horiz-adv-x="516" d="M34 396l32 140h356l-30 -140h-358z" />
<glyph unicode="&#x2013;" horiz-adv-x="627" d="M34 396l32 140h463l-30 -140h-465z" />
<glyph unicode="&#x2014;" horiz-adv-x="790" d="M34 396l32 140h624l-31 -140h-625z" />
<glyph unicode="&#x2018;" horiz-adv-x="543" d="M150 1207q0 61 29.5 93.5t84.5 32.5q54 0 92 -36.5t38 -81.5q0 -74 -79 -119q-21 -15 -21 -30l87 -126q0 -15 -16 -24q-102 65 -158.5 147.5t-56.5 143.5z" />
<glyph unicode="&#x2019;" horiz-adv-x="543" d="M150 1200.5q0 59.5 37 95.5q37 37 92.5 37t85 -32.5t29.5 -94t-56.5 -143t-159.5 -147.5q-16 9 -16 24l88 126q0 16 -22 30q-78 45 -78 104.5z" />
<glyph unicode="&#x201a;" horiz-adv-x="504" d="M136 127.5q0 59.5 37 96.5q38 36 93 36t84 -32.5t29 -93.5t-55.5 -142t-159.5 -149q-16 9 -16 25l87 125q0 16 -21 30q-78 45 -78 104.5z" />
<glyph unicode="&#x201c;" horiz-adv-x="906" d="M136 1042q0 61 56.5 143t158.5 148q16 -9 16 -25l-87 -125q0 -15 21 -30q78 -45 78 -119q0 -45 -37.5 -81.5t-91.5 -36.5q-114 0 -114 126zM527 1042q0 61 56.5 143.5t159.5 147.5q16 -9 16 -25l-87 -125q0 -16 21 -30q79 -45 79 -119q0 -45 -38 -81.5t-93 -36.5 t-84.5 32.5t-29.5 93.5z" />
<glyph unicode="&#x201d;" horiz-adv-x="906" d="M136 1200.5q0 59.5 37 95.5q38 37 93 37t84 -32.5t29 -94t-56.5 -143t-158.5 -147.5q-16 9 -16 24l87 126q0 15 -21 30q-78 45 -78 104.5zM527 1200.5q0 59.5 38 95.5q37 37 92.5 37t85 -32.5t29.5 -94t-56.5 -143t-159.5 -147.5q-16 9 -16 24l87 126q0 16 -21 30 q-79 45 -79 104.5z" />
<glyph unicode="&#x201e;" horiz-adv-x="906" d="M136 127.5q0 59.5 37 96.5q38 36 93 36t84 -32.5t29 -93.5t-55.5 -142t-159.5 -149q-16 9 -16 25l87 125q0 16 -21 30q-78 45 -78 104.5zM527 127.5q0 59.5 38 96.5q37 36 92.5 36t85 -32.5t29.5 -93.5t-56 -142t-160 -149q-16 9 -16 25l87 125q0 17 -21 30 q-79 45 -79 104.5z" />
<glyph unicode="&#x2022;" horiz-adv-x="773" d="M214 475q0 71 50 122q49 51 121 51q71 0 121 -51q52 -51 52 -121q0 -71 -52 -121q-51 -51 -122 -51t-120 51q-50 50 -50 120z" />
<glyph unicode="&#x2026;" horiz-adv-x="1251" d="M55 133q0 58 41 101q41 42 100 42t101 -42q41 -42 41 -101t-42 -99.5t-100 -40.5t-100 41q-41 41 -41 99zM474 133q0 58 40.5 100.5t99.5 42.5t101 -42t42 -101t-42 -99.5t-100.5 -40.5t-99.5 41t-41 99zM911 133q0 58 40.5 100.5t99.5 42.5t101 -42t42 -101t-42.5 -99.5 t-100.5 -40.5t-99 41t-41 99z" />
<glyph unicode="&#x202f;" horiz-adv-x="356" />
<glyph unicode="&#x2039;" horiz-adv-x="639" d="M36 424l15 73l548 303l-18 -98l-430 -250l346 -206l-21 -102z" />
<glyph unicode="&#x203a;" horiz-adv-x="613" d="M27 144l24 102l428 206l-345 250l16 98l438 -303l-20 -96z" />
<glyph unicode="&#x205f;" horiz-adv-x="445" />
<glyph unicode="&#x20ac;" horiz-adv-x="1021" d="M-5 506l25 89h131q11 89 14 116h-126l25 89h120q87 374 342 493q94 43 220 43q214 0 286 -129q24 -46 24 -109q0 -164 -124 -164q-63 0 -102 46q48 17 72 107q6 22 6 36q0 46 -18 78q-30 52 -96 52q-115 0 -198.5 -129.5t-130.5 -323.5h360l-25 -89h-355q-5 -31 -7.5 -59 t-5.5 -57h348l-25 -89h-330v-23q0 -184 48 -258.5t193.5 -74.5t215.5 36q27 14 53 35l4 -51q-79 -105 -177.5 -142.5t-241.5 -37.5t-246 90q-128 111 -128 364v62h-151z" />
<glyph unicode="&#x2122;" horiz-adv-x="675" d="M-41 1034q0 94 97 127q34 12 85 12l133 -10q47 0 66 10q-14 -70 -44 -70q-22 0 -48.5 6t-56.5 10l-75 -347h-77l77 354q-107 -2 -107 -109q0 -18 7 -36q-57 0 -57 53zM265 772l121 374l73 10v-301l119 310h83l-68 -393h-76l48 277l-113 -277h-73v233l-71 -233h-43z" />
<glyph unicode="&#xe000;" horiz-adv-x="995" d="M0 995h995v-995h-995v995z" />
<glyph unicode="&#xfb01;" horiz-adv-x="951" d="M-369 -246q0 149 197 222q55 21 111 38l198 938q82 383 417 383q249 0 306 -131q13 -32 13 -75q0 -79 -43.5 -111t-96.5 -32q-107 0 -107 95q0 31 16 59t44 28h8q5 0 6 -1q-3 71 -98 71q-117 0 -167 -126q-15 -37 -22 -75l-30 -146h142l-13 -71h-143l-204 -963 q-35 -167 -134 -243q-76 -59 -176 -59t-162 53q-62 54 -62 146zM-271 -216q0 -39 24.5 -55t50 -16t56 31.5t45.5 107.5l22 104q-198 -65 -198 -172zM462 203q0 50 14 116l121 572h256l-127 -606q-7 -32 -7 -63q0 -60 72 -60q52 0 97 45t64 112h75q-115 -329 -385 -329 q-70 0 -125 50t-55 163z" />
<glyph unicode="&#xfb02;" horiz-adv-x="976" d="M-372 -264.5q0 72.5 23.5 114.5t76.5 80t208 84l214 1018q62 303 331 303q116 0 201 -28l144 -50q59 -21 120 -45l-196 -927q-7 -32 -7 -63q0 -60 73 -60q51 0 96 44q44 45 64 113h75q-116 -329 -384 -329q-70 0 -126 50q-55 50 -55 163q0 50 14 116l186 875 q-72 28 -146 28q-91 0 -122 -141l-39 -190h166l-14 -71h-166l-203 -963q-61 -302 -324 -302q-82 0 -146 54t-64 126.5zM-274 -228q0 -35 43 -54q13 -5 34 -5t52 29.5t47 109.5l21 104q-95 -34 -131 -63q-66 -53 -66 -121z" />
<glyph unicode="&#xfb03;" horiz-adv-x="1361" d="M-372 -264.5q0 72.5 23.5 114.5t76.5 80t208 84l214 1018q63 303 324 303q147 0 219 -94q99 94 269 94q249 0 306 -131q14 -32 14 -75q0 -79 -43.5 -111t-97.5 -32q-107 0 -107 95q0 31 16 59t44 28h8q5 0 6 -1q-3 71 -98 71q-152 0 -189 -201l-30 -146h472l-128 -606 q-7 -32 -7 -63q0 -60 73 -60q52 0 96.5 45t64.5 112h74q-114 -329 -383 -329q-71 0 -126 50t-55 163q0 50 14 116l105 501h-214l-204 -963q-34 -167 -134 -243q-76 -59 -179 -59q-139 0 -194 94q-86 -94 -228 -94q-82 0 -146 54t-64 126.5zM-264 -228q0 -35 43 -54 q13 -5 35 -5t52 29q30 30 47 110l21 104q-96 -34 -131 -63q-67 -53 -67 -121zM126 -255q11 -56 69 -56q36 0 68 39t50 124l42 194l-159 -32l-34 -157q-11 -58 -36 -112zM207 64l157 26l153 730h-150zM381 891h151l13 61q25 129 89 222q-26 30 -67 30q-129 0 -157 -167z" />
<glyph unicode="&#xfb04;" horiz-adv-x="1389" d="M-372 -264.5q0 72.5 23.5 114.5t76.5 80t208 84l214 1018q36 173 137 247q78 56 198.5 56t193.5 -75q83 75 207 75t209 -28l145 -50q59 -21 120 -45l-197 -927q-7 -32 -7 -63q0 -60 73 -60q53 0 97 44q43 45 63 113h75q-116 -329 -383 -329q-71 0 -127 50q-54 50 -54 163 q0 47 14 116l186 875q-72 28 -146 28q-92 0 -122 -141l-39 -190h166l-15 -71h-165l-206 -963q-34 -167 -134 -243q-76 -59 -179 -59q-140 0 -194 96q-88 -96 -228 -96q-82 0 -146 54t-64 126.5zM-264 -228q0 -35 43 -54q13 -5 35 -5t52 29q30 30 47 110l21 104 q-96 -34 -131 -63q-67 -53 -67 -121zM126 -253q5 -58 66 -58q86 0 121 163l42 194l-159 -32l-34 -157q-11 -56 -36 -110zM207 64l157 26l155 730h-152zM381 891h151l31 141q16 85 57 155q-24 17 -60 17q-64 0 -101 -48t-49 -119z" />
</font>
</defs>
</svg>
