<?xml version="1.0" standalone="no"?>
<!DOCTYPE svg PUBLIC "-//W3C//DTD SVG 1.1//EN" "http://www.w3.org/Graphics/SVG/1.1/DTD/svg11.dtd" >
<svg xmlns="http://www.w3.org/2000/svg">
<metadata>
This is a custom SVG webfont generated by Font Squirrel.
Copyright   : Copyright c 2011 TypeSETit LLC typesetitattnetwith Reserved Font Name Alex Brush
Designer    : Robert E Leuschke
Foundry     : Robert E Leuschke
</metadata>
<defs>
<font id="AlexBrushRegular" horiz-adv-x="567" >
<font-face units-per-em="2048" ascent="1638" descent="-410" />
<missing-glyph horiz-adv-x="497" />
<glyph unicode=" "  horiz-adv-x="497" />
<glyph unicode="&#x09;" horiz-adv-x="497" />
<glyph unicode="&#xa0;" horiz-adv-x="497" />
<glyph unicode="!" horiz-adv-x="651" d="M195 96q0 70 98 70q37 0 69.5 -23.5t32.5 -56.5t-31.5 -57.5t-69.5 -24.5t-68.5 28.5t-30.5 63.5zM340 342q31 174 234.5 480t277.5 306q29 0 65.5 -11t36.5 -32q0 -8 -10 -16q-104 -113 -310 -383t-232.5 -330.5t-51.5 -60.5q-18 0 -10 47z" />
<glyph unicode="&#x22;" horiz-adv-x="518" d="M43 836q10 14 26.5 31.5t30.5 33.5q53 59 53.5 98t-33.5 69t-34 46q0 76 72 76q39 0 72.5 -25.5t33.5 -60.5q0 -106 -82 -190.5t-119 -84.5q-20 1 -20 7zM299 835.5q0 6.5 54.5 68t54.5 98t-34 66.5t-34 46q0 76 76 76q37 0 69.5 -25.5t32.5 -60.5q0 -106 -80 -190.5 t-109.5 -84.5t-29.5 6.5z" />
<glyph unicode="#" horiz-adv-x="1990" d="M-25 598q0 41 127 49l420 2q61 172 158 438q-256 -2 -264 -2q-201 0 -217 56q-20 51 123 61q55 0 399 -6l115 328q41 111 63.5 110.5t22.5 -67.5q-4 -150 -41 -246l-45 -125q393 -4 481 -4q162 430 207 438q25 4 24 -65q-6 -139 -47 -244l-47 -127l418 10q88 0 88 -19.5 t-57 -37.5q-141 -55 -250 -55h-238l-166 -443l363 4q127 0 127 -28q0 -20 -56 -37q-137 -49 -249 -49l-228 -2l-88 -242q-68 -199 -131 -199q-31 0 -31 40t15 95q45 115 112 306l-495 -2l-88 -240q-70 -199 -129 -199q-33 0 -33 43t14 92q53 121 123 304l-264 -3 q-236 0 -236 66zM631 649h493q27 82 156 443l-483 -5z" />
<glyph unicode="$" horiz-adv-x="1351" d="M18 811q0 41 25 86q45 78 115 78q16 0 16 -4q0 -10 -31 -29l-43 -31q-27 -27 -26 -77q0 -92 67.5 -164t155.5 -99q143 217 336 478q-170 45 -170 168q0 90 115 182q174 135 432 145q246 305 273.5 305t40.5 -14t13 -30.5t-20 -41.5q-82 -96 -189 -227q209 -29 209 -164 q0 -92 -98 -131q-57 -23 -96 -22.5t-39 20.5q0 10 35 12q131 8 131 99q0 119 -178 141q-135 -164 -304 -383q78 -10 234 -53q121 -47 121 -138.5t-83 -181.5t-171 -131q-186 -86 -422 -86q-41 0 -107 6q-215 -324 -215 -418q0 -43 29 -55q10 -8 -6 -25.5t-41 -17.5 q-39 0 -39 74t47 207q27 66 139 248q-195 47 -241 198q-15 35 -15 76zM385 557q25 -2 78 -2q164 0 316.5 61.5t226.5 182.5q27 47 26 80q0 55 -72.5 86.5t-234.5 62.5q-211 -283 -340 -471zM561 1245q0 -74 131 -115q117 154 279 363q-217 -18 -334 -123q-76 -70 -76 -125z " />
<glyph unicode="%" horiz-adv-x="1765" d="M240 1116q0 152 220 425.5t357 273.5q127 0 127 -138q0 -35 -12 -90q2 -6 24.5 -6t79.5 8q254 31 588 187q10 6 25.5 6t32 -16.5t16.5 -35t-23 -44.5q-340 -391 -779 -982t-521 -802q-14 -45 -14.5 -87t18 -52.5t8.5 -26.5q-16 -25 -51 -25q-43 0 -43 83t58.5 247 t481 744.5t693.5 889.5q-125 -61 -305.5 -113.5t-300.5 -58.5q2 -10 2 -22q0 -88 -168 -295q-199 -244 -340 -244h-41q-66 0 -103 68q-30 49 -30 106zM358 1113q0 -95 60 -95q109 0 274.5 196.5t165.5 282.5q-39 23 -100 115q-86 0 -243 -202t-157 -297zM743 -33 q0 152 220.5 425.5t357.5 273.5q127 0 127 -138q0 -35 -12 -90q0 -2 22.5 -8t22.5 -20q0 -33 -58 -56q2 -8 2 -22q0 -88 -168 -295q-199 -244 -339 -244h-41q-66 0 -103 68q-31 49 -31 106zM862 -35q0 -96 60 -96q109 0 274.5 196.5t165.5 282.5q-39 23 -100 115 q-86 0 -243 -201t-157 -297z" />
<glyph unicode="&#x26;" horiz-adv-x="1896" d="M33 451q0 244 373 467q174 104 339 157q-70 78 -69 205q0 66 29 109q84 119 251 188q201 88 404 88q270 0 264 -168q-4 -74 -60.5 -128t-125 -54t-68.5 35q0 27 33 26l43 -8q35 0 68.5 43t33.5 86q0 68 -78 98q-49 16 -94 17q-213 0 -354 -88t-205 -197q-39 -63 -39 -131 t31 -102q98 27 174 26q141 0 141 -57q0 -14 -10 -25q-33 -55 -142.5 -55t-197.5 66q-137 -41 -317 -172q-283 -209 -283 -410q0 -225 305 -250q59 373 363 559q98 63 210.5 89t154.5 35t141.5 25.5t115.5 18.5q233 41 300 91t67 95q0 12 -3 28t6 19t24 -8q18 -29 18 -68.5 t-49 -96.5q-76 -76 -209 -107q-51 -12 -135 -28.5t-123 -26.5q49 -45 49 -137q0 -186 -223 -365q-244 -197 -654 -197q-4 -20 -4 -63q0 -176 118 -277.5t296 -101.5q63 0 108.5 41t45.5 94q0 18 -10.5 41t19.5 23t30 -66.5t-58.5 -119t-134.5 -52.5q-197 0 -328 109 q-147 119 -147 309q0 43 2 65q-219 20 -334 111q-102 91 -102 195zM539 215q55 0 110 6q326 35 516 207q160 143 160 295q0 111 -96 111q-31 0 -123 -23q-485 -180 -567 -596zM840 1063q61 -41 135 -41t74 33q0 23 -67.5 22.5t-141.5 -14.5z" />
<glyph unicode="'" horiz-adv-x="325" d="M184 688q0 10 67.5 97t67.5 124t-33.5 68t-33.5 45q0 76 74 76q37 0 70.5 -23.5t33.5 -58.5q0 -109 -95 -223.5t-136 -114.5q-15 0 -15 10z" />
<glyph unicode="(" horiz-adv-x="944" d="M-12 518q0 203 102 428q150 326 547 610q444 319 911 359q51 -8 51 -31.5t-63 -25.5q-440 -43 -815 -369q-274 -242 -432 -539t-158 -513t97.5 -330.5t277.5 -129.5q59 -6 59 -28q0 -35 -61 -35h-23q-201 20 -347 183t-146 421z" />
<glyph unicode=")" horiz-adv-x="1638" d="M23 -56.5q0 23.5 63 25.5q440 43 815 369q281 242 436.5 537.5t155.5 513.5q0 430 -377 460q-55 2 -55 27q0 37 57 37h23q203 -20 348 -183t145 -419q0 -203 -102 -432q-150 -324 -547 -609q-444 -322 -909 -358q-53 8 -53 31.5z" />
<glyph unicode="*" horiz-adv-x="884" d="M100 885q0 23 56 28l225 11q-55 84 -94 137q-45 53 -45 76.5t17 23.5t50 -31l129 -159l45 186q8 41 31 82q4 2 8 2q16 0 16.5 -62.5t-30.5 -217.5l147 100q59 43 69 43h9q20 -8 -9.5 -48t-164.5 -138h199q61 0 61 -19q0 -8 -25.5 -24.5t-71.5 -18.5t-67 -4 q-66 -2 -110 -2l114 -158q49 -61 50 -76q0 -61 -226 183l-63 -211q-14 -39 -33 -39q-23 0 -22 63l36 191l-131 -98q-59 -39 -82.5 -39t-23.5 17t31 48l165 121h-159q-101 0 -101 33z" />
<glyph unicode="+" horiz-adv-x="1021" d="M47 592q0 25 21.5 43t52.5 18t110 2h236q88 262 123 447h2q29 0 29 -69.5t-39 -377.5h43h173q110 0 199 4q2 -4 2 -6q0 -37 -157 -65q-94 -14 -281 -43q-33 -125 -83 -251t-81 -126q-25 0 -38 27.5t-7 52.5l78 287q-383 0 -383 57z" />
<glyph unicode="," horiz-adv-x="487" d="M205 -195.5q0 5.5 54 66.5t54 99t-34.5 68t-34.5 46q0 74 73 74q37 0 72 -24.5t35 -59.5q0 -106 -81 -190.5t-109.5 -84.5t-28.5 5.5z" />
<glyph unicode="-" horiz-adv-x="747" d="M47 592q0 25 21.5 43t37 18t29.5 2h66h63l244 -2q147 0 211 6q2 -2 2 -6q0 -39 -199 -73q-109 -14 -204 -31t-120.5 -17t-88 11.5t-62.5 48.5z" />
<glyph unicode="." d="M221 86q0 72 96 72q37 0 72 -24.5t35 -56.5t-32 -55.5t-69.5 -23.5t-69.5 26.5t-32 61.5z" />
<glyph unicode="/" horiz-adv-x="1519" d="M68 -229q0 84 55 233q78 215 657 993q573 762 633 762q29 0 45.5 -16.5t16.5 -34.5t-25 -45q-340 -391 -779.5 -982t-518.5 -802q-16 -45 -16.5 -87t20 -50t8.5 -29q-18 -27 -53 -26q-43 0 -43 84z" />
<glyph unicode="0" horiz-adv-x="1449" d="M84 279.5q0 267.5 197 586.5q121 203 341 391.5t443 288.5q-10 10 -10 21q0 31 84 30q25 0 59 -2q74 25 195 25q188 0 188 -72q-4 -35 -64.5 -10t-97.5 25h-41q78 -27 144 -88q141 -135 141 -334t-110.5 -406t-297.5 -370q-436 -387 -868 -388q-49 0 -94 9 q-209 26 -209 293.5zM199 242q0 -190 123 -201q27 -4 51 -4q340 0 748.5 359.5t408.5 764.5q0 193 -82 256q-123 96 -231 117q-233 -74 -494 -320q-190 -186 -317 -380q-207 -320 -207 -592z" />
<glyph unicode="1" horiz-adv-x="878" d="M-2 13.5q0 33.5 22 41.5q68 31 254 95q315 575 633 1150q-139 -86 -352 -165q-39 -16 -39 24q0 20 23 33q172 63 477 301l14 27q25 47 106 47t81 -37q0 -8 -9 -21l-811 -1341q172 31 361 31q29 0 28 -27q0 -37 -38 -37q-168 0 -361 -59q-92 -33 -219 -83t-136 -50 t-21.5 18.5t-12.5 52z" />
<glyph unicode="2" horiz-adv-x="1632" d="M0 33q0 55 66 106q96 61 280 62q41 0 84 -2q590 356 766 494t262 245q119 139 144 301q6 31 6 43q0 135 -169 135t-407.5 -107.5t-374.5 -228.5q-10 -10 -22 -10q-25 0 -25 31q0 16 15 28q174 150 462.5 278t508 128t219.5 -178q0 -197 -236 -434q-100 -104 -357 -307 t-726 -449q109 -12 386 -104.5t447 -92.5q96 0 184 39q111 45 111 133q0 100 -154 156q-20 8 -20 20q0 33 43 21q209 -59 209 -201q0 -119 -128 -190.5t-270.5 -71.5t-353.5 72l-350 127q-119 35 -190 35q-90 -43 -297 -115q-29 -8 -52 -8q-61 0 -61 45z" />
<glyph unicode="3" horiz-adv-x="1808" d="M80 276q0 78 55 179.5t228.5 174t289.5 72.5q29 0 29 -20q0 -25 -35 -25q-82 0 -215 -81.5t-158 -169.5q-12 -51 -12 -87q0 -219 299 -272q78 -14 160 -14q219 0 448 106q352 164 476 471q18 43 18 84q0 102 -106.5 147.5t-252 45.5t-243.5 -37q-23 -10 -49 -10 q-45 0 -45 41q0 31 21.5 53t51.5 22q217 0 406 74q242 96 272 270q2 12 2 33q0 109 -135 109t-306 -64.5t-290 -140.5q-12 -8 -16 -8q-18 0 -19 33q0 76 50 86q57 18 182 135q16 16 28.5 11t12.5 -19.5t-11.5 -23.5t-23.5 -26q268 117 450 117q238 0 238 -213v-16 q-14 -219 -453 -357q381 -39 381 -266q0 -37 -10 -69q-76 -299 -444 -486q-326 -160 -711 -160q-248 0 -405.5 78t-157.5 223z" />
<glyph unicode="4" horiz-adv-x="1429" d="M33 475q0 66 55 84q39 14 141 35q135 74 414 272.5t354 249.5q483 305 576 440l22 35q12 18 43 19q84 0 84 -47q0 -4 -448 -650q-145 -215 -252 -399q176 -61 272.5 -61t153.5 43q74 61 74 147q0 27 -7.5 58.5t17 31.5t37.5 -24q49 -86 49 -154q0 -172 -307 -172 q-131 0 -328 59q-96 -178 -121 -387q-4 -31 -4 -83t31 -107q6 -16 6 -23q0 -47 -41 -47q-29 0 -41 17q-35 76 -35 180q0 193 113 477q-193 55 -338 55t-451 -127q-29 -10 -49 15.5t-20 62.5zM408 621q104 12 174 12q133 0 346 -82q111 242 415 678l58 86q-160 -98 -511 -350 t-482 -344z" />
<glyph unicode="5" horiz-adv-x="1667" d="M-84 235.5q0 124.5 164 280.5q27 25 46 25t19 -18.5t-24 -43.5q-90 -86 -90 -184t115.5 -169t271.5 -71q301 0 614.5 218.5t370.5 500.5q6 35 6 49q0 127 -158 193q-109 37 -225 37q-174 0 -326 -74l-264 -127q-6 -2 -16 -2q-23 0 -23 34t33 48l297 375q25 29 94.5 28.5 t69.5 -14.5q0 -6 -4 -10l-293 -318q324 127 461 127q541 0 540 -266q0 -43 -16 -90q-102 -326 -455 -547q-379 -238 -776 -237q-182 0 -307 65.5t-125 190zM750.5 1480q5.5 42 23.5 54q57 43 112.5 49t163 6t341 -65.5t315.5 -65.5t156.5 37t74.5 96q0 39 30 39t30 -65 q0 -88 -113 -138q-76 -33 -184.5 -32.5t-319.5 33t-361.5 32.5t-242.5 -69q-20 -14 -24 22q-7 25 -1.5 67z" />
<glyph unicode="6" horiz-adv-x="1540" d="M127 254q0 217 207 479t524 432q391 213 639 295q-41 10 -50 14.5t-5 14.5t27.5 18.5t39.5 5.5l232 13q55 0 95 -24.5t40 -56.5t-27 -36q-389 -76 -915 -334q-242 -115 -459 -340q-260 -266 -260 -487q0 -229 313 -230q174 0 445 80q123 37 249 137.5t126 210.5 q0 88 -117 89q-178 0 -378 -115t-232 -299q-8 -47 -43 -47q-31 0 -23 43q39 231 256 366q221 139 453.5 139.5t232.5 -171.5q0 -133 -158 -261q-125 -94 -278 -143q-315 -94 -527 -94t-309.5 84t-97.5 217z" />
<glyph unicode="7" horiz-adv-x="1243" d="M272 1231q0 25 11 57l45 90q25 53 24 90q0 78 25 74q20 -16 20 -78q176 158 475 158q127 0 335 -49t317 -64l129 97q8 4 24.5 4t49 -34t32.5 -50.5t-14 -24.5q-604 -438 -1020 -848q-123 -125 -236.5 -307t-113.5 -311q0 -16 6 -43q2 -29 -31 -29q-41 0 -43 45 q-2 12 -2 43q0 266 339 649t812 756q-403 55 -577 55t-281 -45q-145 -63 -201 -229q-20 -51 -59 -51t-52.5 16.5t-13.5 28.5z" />
<glyph unicode="8" horiz-adv-x="1529" d="M2 182q0 150 154 314q287 313 678 514q-156 96 -156 184q0 29 10 51q55 150 242.5 246t351.5 96t252 -51q68 -39 68 -99.5t-46 -123.5l211 67q20 4 30.5 -5t10.5 -25q0 -47 -73 -66q-297 -66 -670 -240q152 -61 231 -112q184 -115 184.5 -271.5t-193 -320.5t-465 -274.5 t-483.5 -110.5t-284 82q-53 61 -53 145zM141 166q0 -164 205 -164q162 0 389 94q602 246 602 504q0 152 -217 262l-215 111q-223 -127 -459 -340q-305 -281 -305 -467zM836 1255q0 -106 157 -178q178 86 482 207q51 104 51 139t-47 54q-98 35 -201 34q-180 0 -311 -81 t-131 -175z" />
<glyph unicode="9" horiz-adv-x="1107" d="M188 909q0 215 271 385q217 137 513 210t492 73h39q18 0 15.5 -23.5t-25.5 -55.5t-56.5 -30t-82.5 2q-313 0 -643 -145q-393 -174 -406 -385q-6 -84 80 -84q170 0 555 248q250 158 473 340q10 10 45 10q106 0 107 -53q0 -20 -23 -39q-131 -111 -278 -244 q-856 -791 -856 -1347q0 -98 38 -111q37 -14 13 -33q-10 -10 -27 -10h-26q-102 12 -103 154q0 266 258 665.5t582 716.5q-526 -365 -805 -365q-150 0 -150 121z" />
<glyph unicode=":" d="M221 86q0 72 96 72q37 0 72 -24.5t35 -56.5t-32 -55.5t-69.5 -23.5t-69.5 26.5t-32 61.5zM322 573q0 74 96 74q39 0 72.5 -24.5t33.5 -56t-31.5 -56.5t-69.5 -25t-69.5 26.5t-31.5 61.5z" />
<glyph unicode=";" d="M205 -195.5q0 5.5 54 66.5t54 99t-34.5 68t-34.5 46q0 74 73 74q37 0 72 -24.5t35 -59.5q0 -106 -81 -190.5t-109.5 -84.5t-28.5 5.5zM322 573q0 74 96 74q39 0 72.5 -24.5t33.5 -56t-31.5 -56.5t-69.5 -25t-69.5 26.5t-31.5 61.5z" />
<glyph unicode="&#x3c;" horiz-adv-x="800" d="M215 645q0 35 131 213l166 227q20 29 43 29t23 -16q0 -37 -250 -385q244 -311 243.5 -341t-24.5 -30l-21 10q-86 121 -305 279q-6 4 -6 14z" />
<glyph unicode="=" horiz-adv-x="1021" d="M47 592q0 25 21.5 43t40.5 18h36l64 2h201h118l263 -2q143 0 206 6q2 -4 2 -10t-16 -18q-43 -27 -166 -46.5t-222 -36t-158.5 -16.5t-166.5 7q-223 16 -223 53zM131 895q0 27 21.5 43t37.5 16h37q135 6 265 7l329 -5q158 0 260 7q2 -2 2 -9q0 -35 -198 -69l-281 -45 q-16 -6 -74.5 -6t-228.5 11t-170 50z" />
<glyph unicode="&#x3e;" horiz-adv-x="800" d="M215 340q0 37 248 385q-246 315 -246 343t27 28l20 -11q90 -121 305 -276q8 -2 9 -16q0 -49 -302 -441q-20 -27 -40.5 -26.5t-20.5 14.5z" />
<glyph unicode="?" horiz-adv-x="1009" d="M207 862v12q14 168 164.5 261.5t308.5 93.5q418 0 418 -240q0 -154 -135 -258q-31 -23 -304 -182q-176 -100 -241 -223q-23 -41 -39.5 -41t-16.5 21.5t7 35.5q66 133 221 236q227 145 276 188q109 98 109 179t-92 131t-231.5 50t-254 -65.5t-131.5 -192.5 q-4 -33 28 -61.5t90 -28.5t132 76q8 8 15.5 8t7.5 -16.5t-13 -28.5q-78 -86 -178 -86q-63 0 -102 39t-39 92zM219 76q0 70 96 69q37 0 71 -23.5t34 -55t-33 -55t-69.5 -23.5t-67.5 26.5t-31 61.5z" />
<glyph unicode="@" horiz-adv-x="2119" d="M35 515.5q0 193.5 104 418.5q131 285 516 559q432 311 901 311q250 0 381 -95t131 -243q0 -88 -33.5 -156.5t-31.5 -70.5q16 -59 16 -133q0 -315 -321 -600q-494 -440 -1110 -440q-70 0 -107 2q-199 12 -322.5 133t-123.5 314.5zM172 458.5q0 -319.5 334 -337.5 q39 -2 76 -2q496 0 940 395q307 276 344 524q-4 4 -8 4l-310 -340q-231 -223 -379 -223q-39 0 -65 10q-111 43 -111 166q0 20 4 66q-4 4 -10 4q-276 -264 -360 -264q-61 0 -119 41q-72 45 -72 133q0 184 258 435t469 251q96 0 117 -74l4 -16v-4q6 -10 10 -10l35 8 q29 0 52.5 -22.5t25.5 -41t-49 -92.5t-162 -229q-98 -162 -98 -233.5t61 -71.5q88 0 307.5 199.5t397.5 416.5v6q-16 135 -125 234q-174 154 -422 153q-166 4 -191 12q-2 8 2 11q119 41 227.5 41t241.5 -33q256 -61 365 -246q8 -8 10 0q20 61 20.5 128t-55.5 145 q-106 152 -394 151.5t-615.5 -192t-541.5 -487.5t-214 -615.5zM541 602q0 -86 63 -86q127 0 350 258q55 59 186 240l130 180l-2 2q-18 31 -62 31q-158 0 -411.5 -235.5t-253.5 -389.5z" />
<glyph unicode="A" horiz-adv-x="2568" d="M-2 106q0 215 135 459q182 322 496.5 550t564.5 228t250 -184q0 -123 -76 -274.5t-154 -192.5q-8 -2 -16 -2t-8 4l82 137q86 133 86 233.5t-44 163t-140 62.5q-197 0 -470.5 -219t-416 -539.5t-142.5 -498.5q0 -270 275 -271q262 0 710 338q199 150 648 562 q-88 -4 -164 -17q-68 -13 -106 -13q-50 0 -44 23q10 92 95 93q168 -20 280 -21q217 201 647 653q289 305 353 306q29 0 28.5 -43.5t-23 -134.5t-51.5 -109q-57 -41 -107 -110.5t-143.5 -259t-158.5 -308.5l244 4q90 0 90 -12q0 -33 -367 -58q-236 -459 -235 -624 q0 -117 73 -117q27 0 69 34t51 34t9 -13q-14 -45 -77.5 -74.5t-107.5 -29.5t-71 4q-59 23 -59 145q0 256 195 648l-304 -7q-338 -330 -677 -579q-508 -371 -797 -371q-16 0 -35 2q-387 32 -387 399zM1939 731h150q53 -4 131 -4q72 145 365 608z" />
<glyph unicode="B" horiz-adv-x="2062" d="M45 119q0 133 110.5 326.5t194.5 230.5q37 12 58 12q74 0 110 -121l76 -241q74 78 199 247l225 304q414 537 541 587q47 16 94 16.5t78.5 -19t31.5 -50.5q0 -45 -73 -53q-76 -43 -288 -251t-253 -263q-283 -393 -522 -604q154 -305 460 -306q186 0 370.5 117t275.5 289 q41 74 41 164t-72 172t-180 121q-51 6 -162 20t-111 47q0 12 11 23q31 35 77 35q29 0 54.5 -10.5t41 -15.5t35.5 -11q55 -6 97 -6q166 0 301 53q174 68 223 205q29 88 29 157q0 174 -168 260q-145 76 -402 76q-399 0 -717 -151q-162 -76 -306 -224.5t-144 -255.5 q0 -72 37 -120q16 -20 53 -50q12 -8 -14 -8q-158 35 -158 209t176 328q131 113 295 184q340 145 774 146q309 0 494 -91q215 -100 215 -305q0 -80 -33 -164q-53 -152 -274 -229q-168 -57 -359 -59q147 -8 249.5 -110.5t102.5 -254.5q0 -90 -41 -170q-84 -182 -326.5 -303 t-502.5 -121q-399 0 -543 273q-260 -217 -370 -217q-20 0 -35 8q-76 41 -76 174zM131 131q0 -68 33 -123q8 -12 24 -12q82 0 312 227l-8 10q-100 336 -162 336q-2 0 -13 -4q-186 -270 -186 -434z" />
<glyph unicode="C" horiz-adv-x="1826" d="M78 369q0 82 20 178q68 322 359 627q209 219 495.5 341.5t544.5 122.5q135 0 236 -32q274 -86 274 -346q0 -158 -92 -275q-231 -285 -553 -285q-150 0 -253 70t-103 174q0 133 174 268q29 23 44 23t15 -10q0 -27 -41 -41q-139 -113 -139 -230q0 -82 74.5 -139t189.5 -57 q246 0 465 237q115 123 115 285t-121 240q-102 70 -273 69q-248 0 -497 -123q-307 -150 -555 -463t-248 -602q0 -229 156.5 -354t388.5 -125q264 0 518 129q195 100 336 256q39 45 61 45q16 0 16.5 -26.5t-28.5 -53.5q-133 -141 -385 -272q-309 -164 -622.5 -164t-467.5 207 q-104 136 -104 326z" />
<glyph unicode="D" horiz-adv-x="2318" d="M37 63q0 121 102.5 363t196.5 242q47 0 81 -189.5t68 -273.5q172 180 498 604q408 537 541 586q45 18 93 18t80 -20.5t32 -49.5q0 -43 -74 -51q-88 -47 -273 -231q-184 -180 -295 -336q-268 -375 -552 -612q141 -209 442 -209q33 0 98 6q700 66 993 606q119 217 119 429 t-153 380q-125 139 -269.5 172t-296.5 33q-387 0 -714 -180q-346 -188 -346 -422q0 -63 33.5 -103.5t47.5 -46.5h-16q-66 12 -115 66q-55 66 -55 139q0 252 315.5 433t741.5 181q197 0 403.5 -45t374.5 -217q195 -201 195 -456q0 -188 -111 -390q-193 -348 -571 -509 q-305 -129 -658.5 -129.5t-521.5 212.5q-221 -172 -326 -172q-55 0 -81.5 54.5t-26.5 117.5zM129 74q0 -78 29 -137q109 49 262 198q-72 121 -91.5 190.5t-25.5 182.5q-174 -248 -174 -434zM489 778q2 0 5 2q0 -4 -1.5 -4t-3.5 2z" />
<glyph unicode="E" horiz-adv-x="1738" d="M8 195q0 102 66 206q231 367 790 545q-84 96 -84 205t54 182q104 141 309 232q248 109 495 108q143 0 229.5 -47t86.5 -144.5t-72 -164t-149.5 -66.5t-77.5 39q0 23 33 23l51 -8q49 0 91 54t42 111q0 86 -98 127q-63 25 -119 25t-78 -2q-217 -12 -424 -152 q-242 -158 -242 -358q0 -72 52 -135q162 51 307 51q246 0 246 -94q0 -20 -15 -45q-59 -94 -219 -94q-102 0 -210.5 36.5t-164.5 77.5q-236 -68 -418 -209t-272 -321q-49 -94 -49 -187q0 -139 117.5 -228t345.5 -89q61 0 129 8q401 43 639 258q199 176 198 369 q0 154 -149 154q-178 0 -410 -191q-59 -47 -99 -121t-40 -144.5t72 -86.5q25 -10 24 -25q0 -27 -51 -20q-121 2 -121 157.5t160 292.5q215 186 459 187q180 0 227 -113q20 -53 21 -106q0 -236 -258 -441q-311 -252 -787 -252q-295 0 -466 110t-171 286zM1006 934 q109 -84 249 -84t140 78q0 35 -126 35t-263 -29z" />
<glyph unicode="F" horiz-adv-x="1591" d="M-31 643q0 297 363 598q262 215 557 324.5t513 109.5t324.5 -63.5t106.5 -175t-98 -252.5q-57 -92 -406 -551q246 -8 259 -8h18q12 1 21 1q38 0 38 -20q0 -35 -98 -35l-213 7q-66 -6 -80 -13q-104 -131 -283.5 -379.5t-179.5 -296.5q0 -20 45 11q29 0 29 -9 q0 -12 -56 -36l-71 -39q-47 -39 -108.5 -39t-57.5 28q2 61 178 307t367 468q-182 -33 -279 -33q-8 2 -8 16.5t29.5 39t63.5 24.5t110 4h129q86 115 381 532q121 174 120 287q0 178 -262 178q-205 0 -480 -113.5t-507 -310.5q-164 -135 -260 -293.5t-96 -283.5 q0 -199 237 -199q20 0 43 2q154 12 291 175t137 274q0 10 -2 22q66 -12 66 -78q0 -109 -141 -254q-193 -199 -445 -198q-137 0 -216 72.5t-79 199.5z" />
<glyph unicode="G" horiz-adv-x="2084" d="M-37 360q0 385 465 783q233 203 566 336t584 133t384 -99q104 -80 104 -180q0 -143 -178 -276t-352 -133q-233 0 -233 270q0 102 43 102q35 0 34 -69l-4 -80q0 -164 176 -164q145 0 294 100.5t149 204t-121 172.5q-80 49 -252 49q-254 0 -567.5 -120.5t-587.5 -389.5 q-360 -352 -361 -647q0 -174 132.5 -279.5t345.5 -105.5q297 0 690 223q328 184 491 392l74 108q-45 0 -374.5 -26.5t-378 -38t-78.5 -11.5q-84 0 -84 41q0 63 191.5 104.5t648 41.5t601.5 -35q23 -6 23 -12q0 -29 -174 -41q-217 -18 -221 -19q-258 -336 -666 -1042 q-23 -39 -44 -39t-21 33q0 88 141 340l176 329q-162 -139 -410 -260q-326 -154 -614.5 -153.5t-440 125t-151.5 333.5z" />
<glyph unicode="H" horiz-adv-x="2394" d="M47 807q0 66 16 133q76 340 437.5 594t812.5 254q174 0 298 -74t124 -208t-93 -281l-456 -701q82 -2 289.5 -23.5t312 -21.5t139.5 2l96 158q244 412 565.5 768t561.5 442q6 2 14 2q16 0 17 -20q0 -6 -7 -12q-162 -90 -463 -439.5t-520 -717.5l-98 -166q117 16 166 59 q10 6 18.5 -10.5t-2.5 -22.5q-76 -59 -215 -84q-176 -328 -176 -461q0 -86 74 -86q49 0 116.5 34t90 58.5t28 24.5t2 -16.5t-11.5 -26.5q-41 -41 -127 -86t-139 -45t-78 16q-80 53 -80 184.5t133 383.5q-94 -8 -174 -8q-29 0 -592 18q-180 -283 -286 -514q-33 -68 -80 -68 t-47 37q0 72 291 547q-207 0 -277 -16q-113 -29 -168 -115q-20 -27 -33.5 -30t-13.5 11.5t10 24.5q94 129 187.5 176t296.5 47h59q154 236 432 697q102 193 102 315q0 193 -237 195h-27q-324 0 -588 -161t-417.5 -400.5t-153.5 -430.5q0 -236 219 -235q174 0 298 154.5 t124 291.5q0 78 -41 129q-6 4 -6 13q0 18 21 18q10 0 16 -8q49 -66 49 -156q0 -154 -126 -314.5t-263 -176.5q-43 -8 -84 -8q-162 0 -250 104q-86 92 -86 252z" />
<glyph unicode="I" horiz-adv-x="1449" d="M53 289q0 383 203 618q172 201 393 201q59 0 119 -21q150 -57 150 -244.5t-154 -391t-315 -203.5q-182 0 -183 194q0 57 24.5 118t55.5 61q23 0 23 -23q0 -14 -23.5 -64.5t-23.5 -89t42 -72.5t87 -34q150 0 276.5 182t126.5 357q0 133 -96 176q-33 12 -68 12 q-178 0 -358 -246q-174 -250 -174 -547q0 -164 71 -268q74 -104 201 -104q334 0 866 903q-276 84 -276 327q0 326 330 521q209 121 405 121q154 0 279 -52q172 -68 172 -207q0 -31 -13.5 -58.5t-27.5 -27.5q-33 33 -80 33q-213 0 -586 -637q20 -2 43 -2q86 0 171 50.5 t85 125.5l-16 68q0 20 18 20q8 0 21 -8q59 -41 59 -111.5t-91 -138t-230 -67.5q-43 0 -84 8q-174 -319 -424 -590q-332 -352 -605 -352q-393 0 -393 463zM1153 1082.5q0 -181.5 186 -216.5q139 227 358.5 452.5t364.5 225.5q39 0 66 -18q-2 72 -98 125q-84 49 -213 49 t-296 -74t-267.5 -218t-100.5 -325.5z" />
<glyph unicode="J" horiz-adv-x="2070" d="M98 54.5q0 144.5 56 248.5q133 256 385 399q186 109 346 109q170 0 267 -83t97 -210q0 -135 -100 -246q-63 -72 -100 -71q-10 0 -10.5 9t5.5 23q92 135 92.5 250t-63.5 187q-74 78 -197.5 78t-277.5 -101q-190 -123 -311 -371q-63 -123 -63.5 -255t98 -213.5t266.5 -81.5 q639 0 1337 1124q418 670 428 819q-152 8 -160 8q-117 0 -302 -65.5t-240 -161.5q-23 -37 -23 -82t47 -100.5t47 -65.5q0 -20 -51 -20t-103 51t-52 126t47 134q94 131 319 186q162 41 322 41h20q23 0 123 -8q-4 33 27.5 62.5t70.5 29.5q76 0 74 -108q272 -49 287 -148 q2 -23 2 -37q0 -51 -29 -51q-21 0 -21 34q0 12 3 28q-63 92 -250 131q-45 -205 -473 -887q-285 -449 -662 -752q-434 -342 -817 -342q-233 0 -347 119t-114 263.5z" />
<glyph unicode="K" horiz-adv-x="2357" d="M55 221q0 104 41 193q127 285 387 393q143 61 285.5 61t192.5 -92q16 -33 16 -69.5t-10.5 -47t-26.5 18.5q-61 111 -129 123q-45 6 -66 6q-197 0 -368 -164q-221 -215 -221 -465q0 -272 307 -307h20q111 0 285 98q283 162 602 555q-57 53 -57 156.5t76.5 195t209.5 91.5 q39 0 70 -6q127 211 246 456.5t119 282.5q0 6 -15.5 6t-175.5 -80t-228.5 -125t-166.5 -142t-98 -157q0 -29 38.5 -56.5t143.5 -27.5q12 -4 12 -13t-69.5 -20.5t-108.5 -11.5q-92 0 -92 76q0 88 108.5 211t237.5 194q375 201 475 201q53 0 53 -37q0 -154 -422 -878 q16 -70 56 -160l749 571q430 328 582 422q338 201 664 201q92 0 169 -31q49 -16 49.5 -64t-26.5 -48q-14 0 -30.5 20.5t-95.5 20.5t-259 -41q-281 -63 -639 -283q-225 -137 -600 -425t-541 -396q127 -268 330 -500q309 -360 557 -360q121 0 121 92q0 18 -4 35.5t8 43 t31 25.5q33 0 43 -80q2 -12 2 -24q0 -80 -82 -132.5t-193.5 -52.5t-187.5 37q-199 98 -401.5 345t-311.5 517q-139 -80 -229 -88q-170 -219 -416 -424q-133 -115 -289.5 -183t-300.5 -68q-205 0 -315.5 101t-110.5 310zM1423 714q0 -52 27 -87q125 176 149 217 q-31 12 -66.5 12t-72.5 -45t-37 -97zM1563 584q25 0 45 4t88 39q-20 51 -33 100q-51 -71 -100 -143z" />
<glyph unicode="L" horiz-adv-x="1656" d="M8 90q0 141 117 348t184 219q45 0 105 -102l157 -307q133 176 281 385q-207 92 -207 268q0 147 119 238q66 47 139.5 47t112.5 -78q6 -14 0 -18.5t-8 -2.5q-51 51 -109 52h-4q-74 0 -128 -78t-54 -143v-17q0 -131 182 -223q29 43 96.5 142.5t104.5 154.5q502 735 833 735 q236 0 236 -219q0 -199 -195 -469q-152 -211 -402.5 -339t-461.5 -128q-78 0 -131 16q-106 -135 -340 -426q88 -125 318.5 -235.5t396.5 -110.5t247 45q111 57 111 166q0 27 -5 52.5t16.5 25.5t38 -37t16.5 -63q0 -88 -95 -166q-117 -96 -321.5 -96t-423.5 95t-361 259 q-201 -201 -383 -201q-55 0 -94 21q-88 49 -88 190zM106 94.5q0 -147.5 91 -147.5q66 0 157.5 68.5t153.5 148.5q-59 84 -125 213t-87.5 154.5t-28.5 25.5h-11q-45 -8 -97.5 -161.5t-52.5 -301zM1016 627q33 -6 71 -6q176 0 403.5 120.5t358.5 302.5q229 322 230 488 q0 100 -88 129q-23 6 -52 6q-125 0 -311 -211q-129 -150 -302 -399.5t-310 -429.5z" />
<glyph unicode="M" horiz-adv-x="2861" d="M41 584q0 399 518 815q133 104 351 172.5t417 68.5t270.5 -69.5t71.5 -186.5q0 -176 -143 -475q-45 -92 -203 -340l193 248q141 182 489 522q76 74 168 123t158 49q90 0 90 -96q0 -82 -79 -250t-160 -317.5t-98.5 -196.5t-25.5 -74.5t-10 -29.5q8 12 167 192.5t468 450.5 l403 332q47 41 85 41t61.5 -63.5t23.5 -102.5t-121 -162q-313 -324 -532 -707t-219 -546q0 -43 14.5 -59.5t47 -9.5t137 52t137.5 53q14 -6 14 -14q0 -37 -133 -104.5t-199.5 -67.5t-81.5 23q-45 66 -45 157q0 217 232 623q147 254 459 686q-242 -197 -656 -602.5 t-543 -634.5q-66 -119 -157 -119q-43 0 -43 31q0 8 51 89t229 378q432 754 432 907q0 41 -26 41q-41 0 -119 -68q-281 -236 -595 -613.5t-474 -627.5q-59 -92 -59 -119.5t22 -39.5q0 -4 -45 -39q-41 -20 -91 -20.5t-72.5 11t-16.5 37.5q37 113 265 454t308 482 q168 305 168 488q0 76 -24 127q-51 104 -240 104q-295 0 -610 -254q-252 -205 -385 -433t-133 -406q0 -256 225 -263h20q291 0 449 209q61 84 61 141.5t-26 73.5q-2 2 -2 9.5t16 7.5q66 0 66 -84q0 -53 -52.5 -144.5t-183.5 -172.5t-304 -81t-276.5 109t-103.5 285z" />
<glyph unicode="N" horiz-adv-x="2328" d="M4 481q0 393 541 826q135 109 353 182.5t395 73.5t251 -68t74 -184q0 -289 -348 -815q78 98 254 249q627 526 1079 693q23 10 49 10q96 0 121 -109q1 -4 1 -8q0 -47 -122 -170q-315 -322 -534.5 -704.5t-219.5 -550.5q0 -39 15.5 -55.5t48.5 -10.5t137.5 51.5t136.5 53.5 q12 -6 13 -13q0 -39 -132 -106.5t-198 -67.5t-82 23q-45 63 -45 158q0 217 231 622q147 256 459 686q-336 -31 -868 -528q-422 -401 -602 -688q-59 -94 -59.5 -123t22.5 -39q0 -4 -42 -30.5t-115 -26.5t-73 36q0 66 248 435.5t328 509.5q170 309 170 487q0 70 -27 131 q-43 90 -207 90q-301 0 -636 -274q-258 -211 -398 -439q-125 -215 -125 -382q0 -242 224 -248h20q297 0 451 211q61 82 61 140t-29 73q-2 2 -2 10t17 8q66 0 65 -86q0 -53 -51 -143t-183 -171t-301 -81t-267.5 98t-98.5 264z" />
<glyph unicode="O" horiz-adv-x="1974" d="M61 302.5q0 193.5 103 422.5q131 291 512 565q438 311 905 312q252 0 383 -98.5t131 -243.5q0 -90 -70 -224q20 -70 21 -139q0 -315 -324 -602q-496 -444 -1110 -445q-68 0 -106 5q-201 10 -323 132t-122 315.5zM197 254q0 -332 335 -350q35 -2 70 -2q496 0 944 401 q324 287 348 547q-131 -145 -452 -344l-21 -4q-4 0 -4 2q0 10 70 67l141 117q180 158 264 258q-18 141 -127.5 236.5t-251.5 138.5q-70 16 -217 21.5t-147 10.5t4 9q117 39 223.5 39t245.5 -33q264 -63 371 -258q25 61 24.5 136t-55.5 153q-109 150 -383 149 q-381 0 -718 -235.5t-525 -591.5q-139 -260 -139 -467z" />
<glyph unicode="P" horiz-adv-x="2662" d="M109 86q0 219 176 414q195 213 489 213q121 0 204 -55.5t83 -168.5q0 -76 -86 -182t-107 -106q-4 0 -4 10t8 20q80 119 80 218.5t-61.5 153.5t-153.5 54q-211 0 -373.5 -192.5t-162.5 -388.5q0 -127 79.5 -205t245.5 -78q309 0 533 209q127 121 258 352l219 398 q162 258 377 770h-47q-340 0 -682 -75t-518 -212q-76 -59 -76 -114.5t59.5 -89.5t139 -34t199.5 32t181 85q25 20 35 21q20 0 8 -21q-92 -106 -274 -160q-115 -33 -225.5 -32.5t-181 49.5t-70.5 134t90 169q172 168 612 248q313 55 719 55h68q55 47 100 47t45 -35 q0 -8 -2 -16q391 -29 633 -131q287 -121 287 -316q0 -129 -128 -282.5t-389.5 -248.5t-507 -95t-389.5 61q-317 -465 -413 -561q-272 -272 -649 -272q-215 0 -321.5 99t-106.5 259zM1628 604q25 -12 84 -26q102 -18 158 -19q190 0 440 80t417 231.5t167 280.5 q0 160 -256 260q-225 88 -561 105l-82 -252q-97 -236 -367 -660z" />
<glyph unicode="Q" horiz-adv-x="2007" d="M61 315q0 180 103 410q131 291 512 565q438 311 905 312q252 0 383 -98.5t131 -243.5q0 -90 -70 -224q20 -70 21 -139q0 -315 -324 -602q-287 -258 -606 -363q512 -369 690 -368q41 0 74 21.5t33 50t-19 55.5q-8 16 -8 26q0 15 8 15q11 0 36 -27q44 -47 44 -100.5 t-50 -88t-130 -34.5q-262 0 -833 405q-158 -37 -351.5 -37t-312.5 56q-35 -113 -53 -113q-27 0 -27 96q0 35 4 64q-160 122 -160 362zM197 254q0 -131 55 -211q29 68 67 123q63 90 164 90t205 -57q135 -72 348 -211q268 100 510 315q319 281 348 547q-131 -145 -452 -344 l-21 -4q-4 0 -4 2q0 10 70 67l141 117q180 158 264 258q-18 141 -127.5 236.5t-251.5 138.5q-70 16 -217 21.5t-147 10.5t4 9q117 39 223.5 39t245.5 -33q264 -63 371 -258q25 61 24.5 136t-55.5 153q-109 150 -383 149q-381 0 -718 -235.5t-525 -591.5q-139 -260 -139 -467 zM317 -25q86 -70 215 -71h50q145 0 299 35q-289 178 -394.5 178t-144.5 -82z" />
<glyph unicode="R" horiz-adv-x="1892" d="M-106 -25q0 80 51 177.5t123.5 170t128.5 72.5q10 0 10 -4q0 -14 -63.5 -64.5t-121 -141.5t-57.5 -167q0 -135 178 -135q336 0 922 787q33 43 55 61l-39 14q-33 -12 -53 -12q-53 0 -53 43q0 57 78 76q10 2 18 2q45 0 105 -45q223 246 227 252q184 188 248.5 188t64.5 -55 q0 -25 -11 -47.5t-28 -22.5q-14 -6 -14 15q0 10 14 30q2 35 -22 35q-80 0 -391 -428q76 -6 127 -6q584 0 731 303q29 66 28 121q0 111 -100 190q-162 131 -524.5 131.5t-739.5 -182.5q-459 -225 -458 -526q0 -98 122.5 -98t262 90t186.5 178q18 33 34.5 33t8.5 -21 q-47 -139 -212 -239.5t-344 -100.5t-179 115v16q37 330 403.5 561.5t882.5 231.5q481 0 684 -168q121 -100 121 -236q0 -59 -29 -127q-78 -184 -319.5 -273t-507.5 -89q-127 0 -236 20q35 -111 150 -501q35 -113 110 -230q102 -147 191 -147q106 0 176 213q14 51 27.5 51 t19.5 -28.5t6 -39.5q0 -63 -69 -161q-94 -139 -205 -139.5t-204 110.5t-182 404.5t-89 373.5q0 14 2 21q-303 -399 -434 -529q-291 -285 -596 -284q-215 -1 -215 161z" />
<glyph unicode="S" horiz-adv-x="1884" d="M-43 343q0 83 33 138q76 133 192 133q88 0 103 -147q35 -289 47 -328q39 -125 129 -209q106 -25 229 -24q272 0 534.5 108.5t377.5 307.5q49 80 49 139q0 119 -209 184l-445 100q-135 33 -217 109t-82 174q0 152 189 301q143 117 351 181.5t408.5 64.5t331.5 -59 q168 -78 168 -227.5t-153 -211.5q-94 -37 -161 -37t-67 29q0 16 75 19.5t108 17.5q96 51 96 149q0 49 -29 105q-80 143 -391 143q-178 0 -357.5 -54t-300 -166t-120.5 -208q0 -145 291 -213l297 -55q178 -33 266 -92q117 -70 117 -201q0 -53 -19 -113q-80 -272 -416 -415 q-279 -125 -659 -125q-109 0 -188 10q80 -45 210 -78q10 -2 11 -10q0 -23 -54 -23q-102 0 -256 123q-209 33 -313 117q-66 53 -121 156.5t-55 186.5zM51 395q0 -195 135 -332q68 -72 185 -108q-147 162 -187 440q-23 160 -43 160t-37.5 -11.5t-35 -49.5t-17.5 -99z" />
<glyph unicode="T" horiz-adv-x="1665" d="M45 1059q0 279 248 495q276 244 715 244q201 0 434 -57q51 -12 449.5 -195.5t572.5 -183.5q117 0 174 65q31 33 31 71t-33 69q-18 25 -18.5 33t14 8t48.5 -44t34 -103.5t-80 -114t-201 -54.5q-188 0 -586.5 182.5t-500 203t-232.5 20.5q-522 0 -821 -338 q-37 -37 -84 -151.5t-47 -221.5q0 -145 102 -227q131 193 310.5 306.5t363.5 113.5q225 0 225 -176q0 -213 -247.5 -461t-458.5 -248q-137 0 -138 115q0 41 21.5 71.5t52.5 22.5l-6 -58q0 -39 117 -38q172 0 361.5 176t230.5 346q10 37 10 67q0 113 -144.5 113t-300 -110.5 t-290.5 -290.5q10 -6 78 -21l151 -6q111 -4 111 -25q0 -35 -107 -34h-14q-154 0 -252 36q-195 -297 -195 -546q0 -322 250 -322q283 0 586 393l496 736q276 403 479 413l96 -22q45 -27 45 -77t-24 -50l-80 12q-174 0 -447 -375l-502 -700q-322 -375 -616 -375 q-203 0 -279.5 108.5t-76.5 313.5q0 272 161 541q-186 117 -186 350z" />
<glyph unicode="U" horiz-adv-x="2017" d="M35 469q0 395 745 930q152 109 359 187.5t374 78.5q86 0 166 -33t80 -109.5t-90 -219t-280.5 -400.5t-322.5 -482t-132 -312q0 -43 37 -43q68 0 254 141q442 338 1042 1096q96 121 154 120q23 0 22 -22q0 -10 -8 -25q4 -8 4 -16q0 -53 -61 -143l-297 -420 q-182 -262 -320.5 -496.5t-128.5 -275.5l45 16q127 70 219 164q33 25 41 24l5 -6q0 -23 -68 -94q-176 -154 -252 -154t-76 47.5t135.5 297t432.5 688.5q-51 -61 -160 -179q-618 -635 -742 -733q-184 -143 -344 -143q-109 0 -108 76q0 129 333.5 599t405.5 578 q154 238 154 324q0 43 -33 51q-61 27 -141 27q-276 0 -709 -295q-281 -197 -466 -460t-185 -435q0 -123 100 -142q41 -6 80 -6q129 0 266 82q68 41 170 133l45 17q-47 -92 -199.5 -185.5t-314.5 -93.5q-37 0 -87 10.5t-97 73t-47 162.5z" />
<glyph unicode="V" horiz-adv-x="1736" d="M-47 727q0 195 104 381q147 254 421 403.5t532 149.5q188 0 311 -84q135 -94 135 -277q0 -236 -226 -735t-226 -565q0 -20 12 -12q66 43 600 684t745 792q186 137 310.5 207t255.5 70q35 0 53 -2q68 -6 67 -72q0 -33 -22 -33q-2 0 -35 11.5t-55 11.5q-352 0 -950 -637 q-223 -240 -545 -645.5t-379 -437.5q-205 -115 -230 -115q-8 0 -8 24q0 84 142 424q57 131 170 392l114 342q61 170 62 247q0 174 -101.5 265.5t-290 91.5t-405.5 -133q-233 -152 -350 -374t-117 -376t64 -242q104 -143 274 -143q131 0 232.5 87t101.5 220q0 29 -7 51.5 t19 22.5q35 0 35 -84q0 -125 -125 -234.5t-287 -109.5q-102 0 -198 49q-203 111 -203 385z" />
<glyph unicode="W" horiz-adv-x="2859" d="M37 557q0 156 174 375q307 389 793 577q248 96 409 97q199 0 199 -131q0 -272 -684 -1182q-229 -305 -234 -305q8 0 264 284.5t486 485.5q88 78 305 286q113 106 244 193q33 20 94 20t84 -34q-231 -289 -403.5 -645.5t-172.5 -509.5q0 -168 168 -168q227 0 547 327 q289 291 441.5 595t152.5 462q0 27 -4 51q-55 0 -115 58v-2q-37 31 -37 61.5t26 51t65.5 20.5t56 -32t41 -56.5t22.5 -34.5q16 -23 47 -23t72 30t64.5 30t23.5 -15q0 -29 -47 -53q-27 -20 -61 -22h-80q31 -102 31 -150q0 -201 -194 -523.5t-495 -572.5 q-305 -256 -552.5 -256t-247.5 242q0 193 159 547l183 395l-248 -190q-115 -96 -234.5 -211t-416.5 -473l-293 -357q-70 -82 -125 -82q-43 0 -43 55.5t45 143.5l485 700q442 647 443 822q0 96 -179 96q-213 0 -596 -262q-207 -141 -362.5 -354t-155.5 -352.5t187 -139.5 q172 0 356 162q66 55 76 55t8 -18q-29 -96 -206 -183.5t-314 -87.5q-35 0 -47 4h-2q-203 43 -203 199zM3058 1348h2h-2z" />
<glyph unicode="X" horiz-adv-x="1611" d="M-420 52q0 214 144 452q53 88 86 88q8 0 8 -16.5t-17 -40.5q-139 -221 -139 -412q0 -102 45 -176q59 -80 154 -80q203 0 667 334q340 246 719 587l41 35q57 252 57.5 448.5t-90.5 258.5q-57 37 -140 37t-161 -25q-287 -88 -459.5 -321.5t-172.5 -427t147 -193.5 q80 0 199 72q31 23 30 26q6 -8 -18 -32q-100 -100 -264 -101q-98 0 -156.5 48.5t-58.5 138.5q0 14 4 32q29 334 322.5 573.5t590.5 239.5q80 0 142 -18q201 -66 200 -371q0 -102 -26 -247q262 231 552.5 452t389 249t132.5 28t46 -4q49 -18 49 -42q0 -22 -54 -22h-9h-7 q-166 0 -608 -358q-287 -231 -520 -463q-20 -53 -51 -174q-109 -393 -109 -533q0 -74 43 -74q102 0 363 256q43 43 43 17q0 -76 -183 -209q-227 -170 -319 -170q-84 0 -84 113.5t117 543.5l26 111q-557 -487 -975 -715q-291 -158 -460 -157q-20 0 -39 2q-197 26 -197 240z " />
<glyph unicode="Y" horiz-adv-x="2220" d="M35 690q0 342 502 701q145 106 384.5 191t387 85t224.5 -46t77 -148.5t-141.5 -317.5t-446.5 -586q-61 -74 -114.5 -190.5t-53.5 -186t54.5 -69.5t162.5 78q307 219 613.5 531t449.5 525q102 147 219 148q39 0 39 -25q0 -4 -4 -20q-317 -553 -864 -1471 q-162 -264 -344.5 -396t-333.5 -132q-94 0 -186.5 67.5t-92.5 151.5q0 51 54 51q12 0 36 -4q31 -106 52 -143q43 -68 145 -68q309 0 760 846l454 809q-487 -520 -689.5 -723t-276.5 -248q-152 -90 -250 -90q-143 0 -143 168q0 203 170 416q12 16 107 131t222 273.5t211 305 t84 206t-35 77.5q-74 37 -165 37q-266 0 -738 -321q-197 -133 -313.5 -309.5t-116.5 -326t146 -186.5q45 -12 88 -12q127 0 284 111q182 123 205 131q-25 -94 -199 -205q-190 -119 -356 -119q-23 0 -85 9.5t-122.5 92t-60.5 201.5z" />
<glyph unicode="Z" horiz-adv-x="1859" d="M-205 12q0 39 41 79t70 40q6 0 10 -4q14 -20 109 -37q637 666 1826 1319l-75 14q-178 41 -461 41t-492 -75q-45 -10 -135 -56q-147 -74 -147 -174q0 -16 7 -36.5t-1 -35.5q-10 -14 -34 -14t-45.5 35t-21.5 76t13 84q47 160 309 235q133 39 447.5 39t621.5 -55 q37 -4 125 -23l139 76q20 8 88 8t68 -24q0 -10 -23 -17q-10 -8 -129 -73q115 -8 140.5 -8.5t47 12t15.5 38t4 25.5q16 0 37 -33.5t21 -62.5q0 -61 -82 -62q-12 0 -271 39q-426 -242 -975.5 -619.5t-889.5 -696.5q385 43 782 77q45 2 131 2q315 0 496.5 -60t181.5 -161 q0 -59 -74 -133q-94 -88 -129 -88q-14 0 -14 21.5t29.5 48t29.5 49.5q0 78 -235 143q-244 70 -458 70t-497.5 -41t-447.5 -41h-17q-41 -37 -51 -37q-6 0 -6 9t16 34q-94 6 -94 53z" />
<glyph unicode="[" horiz-adv-x="1472" d="M57 47q0 301 327 925.5t572 792.5q66 43 277 43t211 -53q0 -10 -2 -33q-10 -2 -37 -2l-180 11q-111 0 -152 -26t-141 -142q-205 -242 -459 -712t-254 -699q0 -141 195 -142l188 13q74 0 74 -31q0 -35 -213 -35q-406 0 -406 90z" />
<glyph unicode="\" horiz-adv-x="1386" d="M76 1708q0 18 16.5 34.5t42.5 16.5q61 0 633 -762q580 -778 657 -993q55 -150 55.5 -233.5t-42.5 -83.5q-35 0 -54 26q-8 20 10.5 28.5t18.5 50.5t-14 87q-82 211 -521.5 802t-779.5 982q-22 27 -22 45z" />
<glyph unicode="]" horiz-adv-x="1398" d="M57 10q0 10 4 33q8 2 35 2l180 -10q111 0 152 25.5t141 144.5q205 242 459 710.5t254 698.5q0 141 -195 141l-188 -12q-74 0 -74 31q0 35 213 34q406 0 406 -90q0 -303 -326.5 -924.5t-572.5 -793.5q-66 -43 -277 -43t-211 53z" />
<glyph unicode="^" horiz-adv-x="931" d="M162 852q0 27 153 152q156 131 189 133l14 -7q96 -104 316 -272l12 -24l-10 -17q-57 4 -193.5 92t-173.5 129q-252 -213 -279.5 -213t-27.5 27z" />
<glyph unicode="_" horiz-adv-x="2029" d="M20 -123.5q0 60.5 43 60.5h1864q63 0 70 -70l-17 -19q-860 0 -1917 -32q-43 0 -43 60.5z" />
<glyph unicode="`" horiz-adv-x="555" d="M94 981q0 31 25 31q31 0 307 -226q10 -8 10 -19t-15 -11t-148.5 81t-156 97t-22.5 47z" />
<glyph unicode="a" horiz-adv-x="1036" d="M-23 164q0 184 257.5 439t470.5 255q84 0 112 -57q6 -20 11.5 -33.5t7.5 -13.5l36 6q27 0 52.5 -22.5t25.5 -35t-156.5 -243t-156.5 -320.5q0 -8 2 -16q14 -57 55 -57q131 0 480 434q8 8 18 8t10 -18.5t-22 -49.5q-324 -430 -492 -430q-23 0 -43 8q-111 43 -110 166 q0 43 10 86l-158 -151q-147 -131 -214 -131t-128 43q-68 49 -68 133zM84 133q0 -90 61 -90q147 0 400 319l266 369q-20 35 -66 35q-154 0 -407.5 -238.5t-253.5 -394.5z" />
<glyph unicode="b" horiz-adv-x="917" d="M-12 199q0 160 296 584.5t451 424.5q33 0 59.5 -19.5t26.5 -47.5q0 2 -36.5 -38t-198.5 -216t-318.5 -388t-156.5 -327q0 -31 16 -66.5t55 -35.5q111 0 258 172q125 152 152 254q-18 53 -19 131q0 172 107 172q10 0 22 -2q43 -8 43 -66.5t-20 -146.5q-20 -66 -27 -99 q6 -43 41 -109.5t93.5 -66.5t132.5 82q14 16 28 17q15 0 16 -18q0 -16 -20 -42q-78 -94 -164 -94q-123 0 -198 182q-78 -180 -221.5 -309t-284.5 -129q-133 0 -133 201z" />
<glyph unicode="c" horiz-adv-x="712" d="M-20 156q0 176 222 408.5t398 232.5q57 0 94 -32t37 -86t-32.5 -113.5t-98 -59.5t-65.5 41q0 27 33.5 84t33.5 60t-8 3q-70 -6 -191.5 -99t-169.5 -157l-98 -143q-25 -41 -36 -96.5t-11 -83t32 -62.5t89 -35q127 0 313.5 147.5t286.5 280.5q12 14 29.5 14.5t17.5 -10 t-12 -24.5q-139 -184 -332 -321.5t-322 -137.5q-27 0 -49 8q-161 46 -161 181z" />
<glyph unicode="d" horiz-adv-x="1175" d="M-23 164q0 184 257.5 439t470.5 255q72 0 98 -37q10 -12 22 -57q283 459 394 459q18 0 49.5 -12.5t31.5 -34.5q0 -12 -12 -33q-203 -246 -301 -369q-297 -377 -328 -541q-6 -35 -6 -69q0 -113 92 -113q186 0 486 344q27 25 44 29t17 -8.5t-14 -30.5q-293 -350 -520 -389 q-12 -4 -35 -4q-78 0 -117 54t-39 118q0 70 27 155l-203 -202q-139 -129 -218 -129t-132 43q-64 47 -64 133zM84 133q0 -90 61 -90q109 0 361 297q45 53 303 395q-18 31 -61 31q-156 0 -410 -238.5t-254 -394.5z" />
<glyph unicode="e" horiz-adv-x="647" d="M-84 156q0 176 222 408.5t399 232.5q57 0 94 -32t37 -77q0 -141 -213 -270t-346 -129q-20 0 -35 6q-39 -68 -39 -143q0 -131 125 -131.5t323 167.5q154 125 262 263q23 31 39.5 30.5t16.5 -15.5t-21 -42q-135 -180 -326.5 -318.5t-324.5 -138.5q-29 0 -51 8 q-162 46 -162 181zM111 350q16 -4 32 -4q96 0 256 101.5t201 222.5q4 12 4 22q0 31 -64.5 31t-181.5 -98q-159 -132 -247 -275z" />
<glyph unicode="f" horiz-adv-x="608" d="M-612 -317q8 31 22 30q8 0 10 -18q14 -66 50 -100.5t73 -34.5q215 0 391 264q100 152 275 545l137 325q-252 4 -252 62q0 25 23.5 43t40.5 18l237 -6q248 549 455 549q78 0 158 -76q20 -20 20 -53q0 -78 -45 -78q-12 0 -27 21q-23 41 -75 40q-115 0 -215 -165 q-20 -33 -127 -238h30q274 0 365 8q10 -2 10 -10q0 -20 -178 -55q-168 -29 -277 -49q-80 -160 -190 -383q-225 -422 -299 -527q-219 -311 -428 -311q-74 0 -128 61.5t-56 137.5z" />
<glyph unicode="g" horiz-adv-x="931" d="M-211 -317q6 31 23 30q6 0 12 -18q12 -66 47 -100.5t72 -34.5q143 0 307 188q109 125 239 369l125 248l-188 -191q-182 -174 -248.5 -174t-126.5 45q-70 51 -69 133q0 184 259 439t470 255q86 0 110 -55q8 -20 13.5 -34.5t7.5 -14.5l35 8q33 0 51 -20.5t18 -31.5 t-2 -24.5t-72 -128.5q-88 -154 -147 -258q-203 -381 -311 -522q-231 -307 -443 -307q-72 0 -126 61.5t-56 137.5zM88 150q0 -92 64 -93q145 0 397 320l268 368q-16 35 -63 35q-156 0 -411 -240t-255 -390z" />
<glyph unicode="h" horiz-adv-x="946" d="M-141 31q0 23 30 80q244 436 371 637q299 481 422 522q6 2 10 2q33 0 45 -53q-6 -53 -262 -383q-264 -334 -299 -439q94 70 326 230q250 174 329.5 174t79.5 -64q0 -10 -1 -13t-175 -237.5t-174 -345.5q0 -57 43 -57q137 4 408 326q25 25 36 24.5t11 -16.5 q0 -49 -250 -273q-156 -135 -211 -135q-150 0 -149 174q0 98 69.5 218t169.5 280q-324 -160 -586 -475q-145 -219 -170 -219q-73 0 -73 43z" />
<glyph unicode="i" d="M-37 139q0 135 148.5 376t238.5 243q25 0 56.5 -19.5t31.5 -40.5q-12 -18 -29.5 -39.5t-38 -46t-55 -71.5t-67.5 -90q-190 -244 -190.5 -336t63.5 -92q53 0 143 57q211 131 336 289q45 57 61.5 57t16.5 -20.5t-58.5 -81t-92 -95t-46 -46t-46.5 -43t-52 -44t-51 -38 t-57.5 -37t-57.5 -25.5q-53 -25 -127 -25q-127 0 -127 168zM451 956q0 72 96 72q37 0 71.5 -24.5t34.5 -57.5t-31.5 -56.5t-69.5 -23.5t-69.5 27.5t-31.5 62.5z" />
<glyph unicode="j" horiz-adv-x="505" d="M-668 -368.5q0 49.5 23 49.5q2 0 51 -65t115 -65q203 0 459 457q160 285 217 461q-31 -35 -105 -103.5t-90 -68.5t-16 8q0 23 40 57.5t107.5 133t81.5 108.5l82 88q51 49 110.5 49t59.5 -55q0 -16 -201 -358q-193 -371 -299 -516q-229 -328 -430 -328q-76 0 -140.5 49 t-64.5 98.5zM418 961q0 72 96 71q37 0 72 -24.5t35 -56t-32 -55.5t-70 -24t-69.5 26t-31.5 63z" />
<glyph unicode="k" horiz-adv-x="991" d="M-70 84q0 106 325 592.5t445 572.5q10 8 41 8q78 0 78 -40q0 -20 -175 -226.5t-195 -249.5q229 117 364 117q78 0 133 -61q53 -53 53 -109v-16q-20 -143 -200 -236q-145 -78 -271.5 -78t-177.5 33q-14 2 -23.5 -8t-4.5 -25q72 -313 235 -313q86 0 220 96.5t282 268.5 q16 18 30.5 18t14.5 -13.5t-19 -39.5q-135 -166 -256 -262q-184 -143 -313 -144q-199 0 -338 316q-35 -53 -158 -297q-90 35 -90 96zM250 430q23 0 121 -6q113 0 297 92q211 106 211 225q0 18 -22.5 39t-47.5 21q-137 0 -326.5 -114t-232.5 -257z" />
<glyph unicode="l" horiz-adv-x="610" d="M-8 156q0 82 43 190q74 170 235 430q295 479 418 479q25 0 51.5 -19t28.5 -42q-57 -78 -222 -300t-229 -319l-95 -144q-32 -48 -46 -74.5t-35 -69.5q-43 -86 -43 -161t83 -75t214 88t254 238q31 41 48.5 41t17.5 -15q0 -16 -103 -131q-252 -276 -422 -276q-82 0 -140 39 t-58 121z" />
<glyph unicode="m" horiz-adv-x="1589" d="M-94 223.5q0 16.5 20 36.5q94 92 167 185.5t243 332.5q27 39 77 39t50 -49q0 -16 -133 -244.5t-148 -285.5q102 113 310 303q309 289 407 288q31 0 55.5 -18t24.5 -38.5t-98 -190.5q-94 -174 -105 -207q279 236 279 237q238 184 340 185q31 0 57.5 -19.5t26.5 -44.5 q0 -6 -164 -213t-185 -342q-1 -7 0 -13q0 -35 19 -54q23 -23 82 -23t174 82t233 221q45 49 61.5 49t16.5 -12q0 -18 -22 -41q-125 -147 -267.5 -251.5t-222.5 -104.5q-172 0 -172 157q0 92 81 249t169 265q-156 -76 -359.5 -273.5t-285.5 -414.5q-12 -18 -43 -18 q-59 0 -59 67q25 137 112 318q29 57 164 338q-197 -129 -334 -276.5t-254 -296t-133 -148.5q-33 0 -56.5 29.5t-23.5 60.5q0 45 131 332l-151 -158q-55 -55 -69.5 -55t-14.5 16.5z" />
<glyph unicode="n" horiz-adv-x="1013" d="M-94 223.5q0 16.5 20 36.5q94 92 162 178q66 86 270 328q23 31 48 31q68 0 67 -54q0 -16 -6 -30q-227 -315 -272 -475q586 586 712 585q12 2 23 2q70 0 69 -61q0 -12 -5 -25.5t-99 -136.5q-111 -131 -187.5 -252t-76.5 -201.5t35 -80.5q111 0 385 305q4 4 18 22 q37 45 44 45t7 -24.5t-35 -65.5q-311 -354 -442 -354q-125 0 -125 135t103 311l159 263q-170 -125 -304 -274.5t-243.5 -291t-126.5 -141.5q-39 0 -60 31.5t-21 78t32.5 124t83.5 188.5l-151 -158q-55 -55 -69.5 -55t-14.5 16.5z" />
<glyph unicode="o" horiz-adv-x="706" d="M-25 168q0 152 220.5 425t355.5 273q129 0 129 -135q0 -37 -12 -92q2 -6 47 -6t139 47q-2 -43 -199 -123q2 -10 2 -22q0 -88 -168 -295q-201 -244 -339 -244h-41q-66 0 -105 67q-29 48 -29 105zM94 166q0 -96 60 -96q109 0 274.5 196.5t165.5 282.5q-39 23 -100 117 q-86 0 -243 -202t-157 -298z" />
<glyph unicode="p" horiz-adv-x="948" d="M-252 -251q0 167 278.5 579.5t383.5 447.5q27 4 32 4q43 0 43 -92q27 25 105 47q96 25 135 25q92 0 158.5 -51.5t66.5 -139.5q0 -205 -233.5 -387t-403.5 -182q-115 0 -166 15.5t-114 90.5q-43 -37 -116 -181t-73 -247q0 -49 47 -127q6 -12 -7 -21t-19 -9t-10 4 q-107 57 -107 224zM70 162q0 -45 69.5 -68.5t141.5 -23.5q137 0 338.5 157.5t201.5 366.5q0 96 -113.5 96t-205.5 -47q-43 -20 -237.5 -222t-194.5 -259z" />
<glyph unicode="q" horiz-adv-x="835" d="M-70 145q0 106 133 263q119 131 234 196q276 154 451 154q55 0 69 -43v-80q41 -33 41 -42t-6 -20l-199 -188q-190 -195 -260 -354q14 4 83 4t107 -59.5t38 -116.5q0 -121 -107 -285q-117 -184 -252 -184q-131 0 -131 194q0 119 64 266l114 271q-160 -111 -256 -111 q-123 0 -123 135zM4 109q0 -47 62 -48q125 0 337 220l318 335q-6 16 -33 17q-129 0 -387 -168t-293 -342q-4 -6 -4 -14zM209 -431q0 -50 20.5 -89t55.5 -39q92 0 162.5 160.5t70.5 241.5t-34.5 106.5t-114.5 27.5q-49 -76 -104.5 -217t-55.5 -191z" />
<glyph unicode="r" horiz-adv-x="991" d="M-12 297q0 25 43 74q219 254 309 430q57 219 145 219q59 0 59.5 -50t-63.5 -128l-61 -82q0 -51 80 -51q45 0 100 32l66 39q4 4 24.5 4t43 -25.5t14.5 -45.5l-175 -219q-160 -207 -159.5 -327t110.5 -120q115 0 285 125q100 72 184 164q78 90 84 90q18 0 18.5 -19.5 t-22.5 -44.5l-80 -90q-70 -72 -151 -137q-199 -147 -328 -147q-188 0 -188 209q0 106 55 232t121 210q-12 -2 -33 -2q-61 0 -100 86l-187 -242q-158 -195 -182 -194q-12 0 -12 10z" />
<glyph unicode="s" horiz-adv-x="903" d="M-53 262.5q0 18.5 12 30.5q84 102 283 297l317 297q135 129 162 129q80 0 80 -62q0 -31 -23.5 -59.5t-35 -44.5t-23.5 -31q-47 -78 -93 -322.5t-71 -340.5q209 2 430 272q25 25 38 25t13 -16.5t-24 -43.5q-145 -172 -271 -239q-76 -37 -196 -64l-82 -53 q-72 -41 -179.5 -41t-164 69.5t-96.5 223.5q-45 -45 -64 -45q-12 0 -12 18.5zM123 317q0 -86 57.5 -140t127 -54t108.5 29q51 27 100 231.5t57 359.5l11 86q-137 -104 -295 -268t-162 -215q-4 -17 -4 -29z" />
<glyph unicode="t" horiz-adv-x="747" d="M-18 156.5q0 103.5 91 284t138 268.5q-35 -8 -59 -9q-74 0 -74 58q0 43 61 61q6 0 23 2h145q45 57 103 133q72 90 97 90t62 -19t37 -47t-121 -165q66 -2 172 -2l363 6q8 -6 8 -8q0 -23 -313.5 -63.5t-339.5 -47.5q-47 -43 -176 -256t-129 -311q0 -94 129 -94 q61 0 159.5 38t149.5 70q141 88 303 261q35 35 47 34q8 0 8 -15t-37 -60q-131 -160 -294 -259q-197 -121 -377 -120q-78 0 -127 33.5t-49 137z" />
<glyph unicode="u" horiz-adv-x="1069" d="M-47 262q0 12 22 43l347 408q66 76 134 75.5t68 -45.5q0 -18 -16 -32q-100 -94 -253 -310.5t-153 -320.5q0 -45 31 -45q106 0 307 209q72 72 263.5 312.5t250.5 240.5q90 0 90 -72q0 -25 -104 -145q-143 -174 -219 -284t-76 -177.5t37 -67.5q18 0 41 10q174 74 416 353 q14 16 29.5 16t15.5 -16.5t-19 -36.5q-106 -125 -252.5 -252t-207.5 -139q-12 -4 -53.5 -4t-83.5 32.5t-42 85t19.5 114.5t25.5 95q-289 -338 -452 -338q-104 0 -115 129v19q0 109 131 291q-72 -63 -147 -150q-10 -10 -25 -10q-10 0 -10 12z" />
<glyph unicode="v" horiz-adv-x="757" d="M-35 78q0 55 121 375.5t166 357.5q10 10 32.5 10t48 -23.5t27.5 -56.5q0 -4 -124.5 -293.5t-116.5 -345.5q109 33 387 265.5t278 416.5q0 111 -112 160q-16 8 -17 23q0 23 27 22q76 0 129 -50t53 -140q0 -199 -329 -500q-281 -252 -451 -307q-29 0 -74 30.5t-45 55.5z " />
<glyph unicode="w" horiz-adv-x="1130" d="M-47 76q0 59 153.5 398t229.5 339q27 0 49.5 -26.5t22.5 -40t-137.5 -259t-135.5 -297.5q240 291 256 310q244 281 320 280q27 0 53.5 -23.5t26.5 -43t-71 -112.5t-120 -182t-49 -179q0 -160 106 -160h33q135 0 248 208t113 335q0 100 -33 155q-6 6 -6 13q0 16 16 16 q45 0 70 -55q31 -49 30 -168q0 -180 -158.5 -370.5t-342.5 -190.5q-88 0 -142.5 86t-54.5 176t41 221q-74 -72 -214 -250t-191 -260q-25 0 -69 27.5t-44 52.5z" />
<glyph unicode="x" horiz-adv-x="1075" d="M-88 227.5q0 12.5 81 101.5t214 291.5t191.5 256t108.5 53.5t72.5 -14.5t16.5 -48t-10 -58.5t-6 -57q-14 -119 -19 -195q125 119 557 485q6 6 18.5 6.5t33 -21t20.5 -43t-21 -42.5q-82 -66 -281.5 -210t-330.5 -265q-2 -53 -2 -144.5t23 -166.5q29 -98 110 -99 q143 0 442 346q27 25 39.5 25t12.5 -16.5t-21 -38.5q-156 -184 -250 -262q-180 -152 -299.5 -152t-158.5 174q-12 72 -17 213q-307 -328 -461 -594q-8 -8 -20 -8q-31 0 -31 27q0 8 6 12q233 371 506 651q10 344 13 387q-57 -12 -248 -293q-92 -141 -163 -215.5t-85 -86 t-27.5 -11.5t-13.5 12.5z" />
<glyph unicode="y" horiz-adv-x="931" d="M-141 -293q121 -150 209 -149q143 0 309 227q123 170 237 426l97 231l-371 -288q-172 -133 -274 -134q-55 0 -88 38t-33 85q0 109 186 357t272 248t86 -58q0 -23 -223 -261.5t-223 -319.5q0 -33 43 -33q80 0 323.5 188.5t366.5 313.5q27 33 78 98q47 55 105.5 55 t58.5 -55q0 -10 -113.5 -179t-118.5 -180q-78 -152 -239 -440q-244 -393 -490 -393q-80 0 -140 69.5t-58 153.5z" />
<glyph unicode="z" horiz-adv-x="970" d="M-33 96q0 23 15.5 55.5t29.5 32.5q23 0 11 -39q-8 -37 22.5 -36.5t73.5 30.5l-96 72q-4 6 -4.5 18.5t24.5 36t39 23.5t123 -84q311 352 457 463q-199 59 -293 59q-29 0 -54.5 -3t-54.5 -29.5t-29 -59.5t28 -54.5t28 -33.5t-18.5 -12t-61.5 49q-41 51 -41 104 q0 88 129 115q68 14 138.5 14t346.5 -92q37 20 76 20q106 0 107 -63q0 -25 -33 -46.5t-78 -21.5t-84 19q-240 -150 -514 -469l92 -70q106 -72 250.5 -71.5t212.5 45.5t68 116q0 33 -12.5 61.5t22.5 28.5q12 0 24.5 -28.5t12.5 -69.5q0 -100 -95.5 -165.5t-246.5 -65.5 q-166 0 -275 63q-43 23 -139 94q-100 -70 -143 -69q-58 0 -58 63z" />
<glyph unicode="{" horiz-adv-x="813" d="M23 653l28 39q178 20 246 74q86 63 119 223l55 311q37 156 133 234t301 78h13h4q16 0 28 -23l-32 -12q-195 0 -273 -109q-53 -74 -88 -274q-10 -66 -45 -209q-84 -266 -293 -317q166 -61 166 -230q0 -84 -41 -261t-41 -282.5t70 -136.5l164 -30l22 -21q-35 -14 -47 -14 q-141 0 -213 35q-98 51 -98 186q0 88 46 266t46 271q0 196 -270 202z" />
<glyph unicode="|" horiz-adv-x="550" d="M129 -253q0 3 10 46q37 160 78 357q82 483 82 958q0 197 -14 297q-31 127 -31 149.5t43 22.5q100 0 100 -223.5t-71.5 -853t-135.5 -715.5q-29 -41 -59 -41q-2 0 -2 3z" />
<glyph unicode="}" horiz-adv-x="1069" d="M37 -281q29 14 129 25q172 8 242 180l98 307q63 199 147 275q100 98 246 141q-184 45 -184 199q0 106 63.5 292.5t63.5 285t-68 120.5l-149 23l-21 18l35 21q131 0 197 -25q111 -37 110.5 -148.5t-69 -306t-68.5 -288t76 -136.5q61 -31 176 -40l-33 -41 q-219 -6 -315 -136q-55 -78 -121 -319q-55 -223 -135 -320q-127 -150 -389 -149h-2q-15 -1 -29 22z" />
<glyph unicode="~" horiz-adv-x="761" d="M121 1008q0 35 106 100q39 27 85 27t125 -27t132.5 -27t92.5 56q16 0 16 -11q0 -39 -98 -106q-35 -23 -76 -23t-123 34t-123 34t-82 -33t-53 -33q-2 5 -2 9z" />
<glyph unicode="&#xa1;" horiz-adv-x="741" d="M-127 -500q0 8 10 19q113 117 307 379q205 260 233 325.5t56 65.5q12 0 13 -17q0 -152 -220.5 -482.5t-294.5 -330.5q-31 0 -67.5 11.5t-36.5 29.5zM434 500.5q0 31.5 33 55.5t68.5 24t67.5 -27t32 -61q0 -74 -96 -74q-37 0 -71 25.5t-34 57z" />
<glyph unicode="&#xa2;" horiz-adv-x="741" d="M63 -88q0 10 13 74q47 248 135 366q-59 41 -59 143.5t114.5 224.5t208.5 122h19q23 47 111.5 198.5t108 165t40 13.5t20.5 -17q0 -8 -41 -64.5t-196 -314.5q12 -12 12 -33.5t-30 -72.5t-50 -51q-8 0 -8 10l14 57q0 43 -64.5 43t-123 -96t-58.5 -174q0 -129 113 -129 q139 0 297 196q18 27 30.5 27t12.5 -8q0 -31 -85 -108.5t-147.5 -117.5t-142.5 -40q-14 0 -41 4q-84 -113 -170 -430q-6 -6 -8 -6q-25 0 -25 18z" />
<glyph unicode="&#xa3;" horiz-adv-x="2217" d="M96 295q0 92 109 92q154 0 692 -270q172 209 332 680h-406q-31 0 -30 20q0 57 61 57h403q199 594 377 801q150 166 320 166q96 0 156.5 -61.5t60.5 -161.5q0 -248 -275 -379q-16 -10 -30.5 -10t-14.5 20.5t27 39t48.5 38t33.5 29.5q133 123 133 289q0 57 -35 87.5 t-88 30.5t-111.5 -36.5t-109.5 -106.5q-70 -90 -147.5 -225t-235.5 -521h432q20 0 21 -18q0 -59 -74 -59h-410q-113 -274 -161 -373q-115 -240 -218 -334q135 -82 344 -131q203 -55 364 -55t284 45q174 55 174 186q0 51 -47 98.5t-47 60.5t11 13t21 -10 q143 -106 143.5 -195.5t-42.5 -150t-115 -86.5q-287 -115 -709 8q-223 66 -440 180q-195 -123 -358.5 -123t-303 106.5t-139.5 258.5zM260 254q0 -102 90 -186q92 -76 223.5 -76t243.5 78q-66 51 -260.5 127.5t-245.5 76.5t-51 -20z" />
<glyph unicode="&#xa4;" horiz-adv-x="1304" d="M123 588l258 241q-88 55 -88 164q0 172 168 275l-133 202l73 23q8 -45 99 -205q98 41 197.5 41t164.5 -29q109 104 180 189l60 -23q-6 -6 -41 -34q-90 -78 -170 -152q74 -53 74 -152.5t-55.5 -176.5t-145.5 -120q121 -199 158 -241h-82q-10 33 -121 221q-74 -25 -162 -25 t-147 27l-205 -225h-82zM391 1045.5q0 -89.5 51.5 -138.5t161 -49t187 73t77.5 156q0 180 -180 181q-131 0 -214 -66.5t-83 -156z" />
<glyph unicode="&#xa5;" horiz-adv-x="1382" d="M260 410q0 63 78 63h266l139 217h-172h-98q-55 2 -49 25q14 61 76 61h288q326 582 326 744q0 115 -131 114.5t-348 -153t-305 -273.5q-23 -33 -33 4q-2 12 -2 40t35 73q113 143 308.5 254t350 111t205.5 -68q25 -35 25 -92q0 -207 -258 -633l-72 -121h16q236 252 611 547 q477 387 753 387q76 0 112 -26.5t36 -48t-5.5 -34t-9.5 -12.5l-16 43q-23 41 -78 41q-152 0 -586 -312t-694 -583l348 2q-8 -16 -22.5 -22t-54 -14.5t-77.5 -13.5t-119 -13t-147 -19l-67 -73q-4 -8 -46 -66.5t-57 -85.5l433 12q4 -2 -0.5 -12t-69.5 -24q-164 -43 -408 -54 q-215 -362 -215 -456q0 -35 29 -35q43 0 182 100q14 0 11 -14q-10 -37 -120 -91.5t-149 -54.5q-92 0 -92 95q0 125 178 452l-194 2q-111 1 -111 17z" />
<glyph unicode="&#xa6;" horiz-adv-x="550" d="M252 -198.5q0 30.5 12 133t12 221.5l-2 542l107 2q-33 -733 -66 -862q-18 -68 -40.5 -67.5t-22.5 31zM254 1552q0 25 43 25q100 0 100 -230.5t-12 -535.5l-111 6v301q0 244 -10 333t-10 101z" />
<glyph unicode="&#xa7;" horiz-adv-x="1435" d="M-70 -129q0 106 111 205q100 96 244 153q20 12 36.5 12.5t24.5 -10.5q0 -12 -91 -57t-159 -121q-84 -82 -84 -170q0 -182 285 -182q254 0 506 113q160 63 241 184q29 39 29 72q0 104 -112 180q-61 37 -192.5 90t-224.5 93t-170 126t-77 214t108.5 254t282.5 198 q-29 59 -29 121q0 133 129.5 263t321.5 210q215 90 412 90q121 0 150.5 -51.5t29.5 -98.5t-6 -77.5t-34 -78t-56 -49.5q-18 0 -9 33q12 86 13 101q0 129 -185 129q-111 0 -262 -49.5t-275 -145.5t-124 -207q12 -137 102 -219t205 -125t229 -84q268 -90 269 -250 q0 -133 -118 -265t-294 -206q51 -51 51 -105.5t-25.5 -111.5t-90.5 -115q-129 -113 -271 -176q-283 -135 -540 -135q-299 0 -347 203q-4 22 -4 45zM401 831q12 -123 78 -192q72 -70 136.5 -101.5t95.5 -43.5q86 -37 176 -68q139 -55 221 -113q137 45 233.5 141.5t96.5 197 t-85 164t-194.5 97t-240 99t-195.5 149.5q-135 -51 -228.5 -137.5t-93.5 -192.5z" />
<glyph unicode="&#xa8;" horiz-adv-x="657" d="M80 946.5q0 28.5 74 81.5q76 53 116 53q2 0 6 -4q-2 0 -34 -45l-41 -100q-29 -68 -68 -68q-16 0 -34.5 27t-18.5 55.5zM276 1077h5v-2q-1 2 -5 2zM385 946.5q0 28.5 74 81.5q76 53 114 53l9 -4q-2 0 -35 -45l-41 -100q-31 -68 -68 -68q-18 0 -35.5 27t-17.5 55.5z M582 1077h2v-2z" />
<glyph unicode="&#xa9;" horiz-adv-x="1605" d="M102 467q0 297 314.5 572.5t615.5 275.5q180 0 306 -110.5t126 -286.5q0 -293 -307 -568.5t-610 -275.5q-178 0 -311.5 106.5t-133.5 286.5zM195 463q0 -154 120 -246q109 -90 267 -90q268 0 527 252t259 518q0 162 -101.5 264.5t-258.5 102.5q-283 0 -548 -259 t-265 -542zM330 451q0 231 247.5 457.5t485.5 226.5q123 0 123 -103q0 -76 -45 -80l-13 11q8 68 13 63q-4 84 -90 84q-197 0 -416 -235.5t-219 -434.5q0 -121 121.5 -121t313 106.5t189.5 113.5q8 0 9 -7q0 -86 -202 -164.5t-298 -78.5t-152 39q-67 41 -67 123z" />
<glyph unicode="&#xaa;" horiz-adv-x="604" d="M-23 768q0 184 257.5 440t470.5 256q84 0 112 -59q6 -20 11.5 -33.5t7.5 -13.5l36 8q27 0 52.5 -22.5t25.5 -36t-156.5 -243.5t-156.5 -321q0 -8 2 -16q14 -57 55 -57q131 0 480 434q8 10 18 10t10 -19.5t-22 -50.5q-324 -430 -492 -430q-23 0 -43 9q-111 43 -110 165 q0 43 10 86l-158 -151q-147 -131 -214 -131t-128 43q-68 51 -68 133zM84 737q0 -90 61 -90q147 0 400 320l266 368q-20 35 -66 35q-154 0 -407.5 -237.5t-253.5 -395.5z" />
<glyph unicode="&#xab;" horiz-adv-x="1056" d="M215 645q0 31 128 211t160 219t53.5 39t21.5 -16q0 -37 -250 -385q244 -307 243.5 -339t-20.5 -32q-4 0 -25 10q-57 78 -143 150l-162 129q-6 4 -6 14zM567 652.5q0 17.5 126 197.5t161 222t55.5 42t20.5 -16q0 -37 -250 -385q248 -311 248 -341t-23 -30q-6 0 -26 10 q-61 84 -142 150l-164 129q-6 4 -6 21.5z" />
<glyph unicode="&#xac;" horiz-adv-x="651" d="M8 150q0 154 400.5 723t480.5 569q104 0 104 -43q0 -8 -10 -19q-274 -299 -580.5 -732t-306.5 -593q0 -96 92 -112q8 -4 9 -6q0 -16 -56 -17q-80 0 -112 98q-21 66 -21 132z" />
<glyph unicode="&#xad;" horiz-adv-x="747" d="M47 592q0 25 21.5 43t37 18t29.5 2h66h63l244 -2q147 0 211 6q2 -2 2 -6q0 -39 -199 -73q-109 -14 -204 -31t-120.5 -17t-88 11.5t-62.5 48.5z" />
<glyph unicode="&#xae;" horiz-adv-x="1605" d="M102 467q0 297 314.5 572.5t615.5 275.5q180 0 306 -110.5t126 -286.5q0 -293 -307 -568.5t-610 -275.5q-178 0 -311.5 106.5t-133.5 286.5zM195 463q0 -154 120 -246q109 -90 286 -90t378 145q-92 23 -173 148t-116 246q-23 0 -31 6l29 10l17 12l22 -6q442 59 442 244 q0 143 -284 143q-96 0 -246 -44t-246 -93q-198 -237 -198 -475zM350 291.5q0 101.5 201 394.5q164 244 295 375l55 -29q-6 -12 -137 -179t-197 -265q-160 -233 -180 -369q-4 -29 -10 -29q-27 0 -27 101.5zM469 1018q225 88 426 88q121 0 211 -37q125 -51 125 -156 q0 -125 -178 -198q-129 -53 -287 -58q33 -119 90 -215q78 -127 172 -133q340 272 340 588q0 162 -101.5 264.5t-258.5 102.5q-277 0 -539 -246z" />
<glyph unicode="&#xaf;" horiz-adv-x="1259" d="M555 1552q39 20 247 20.5t269 -30.5q6 -6 6 -8q0 -12 -14 -12q-78 0 -229.5 -15.5t-227.5 -15.5q-12 0 -30.5 22.5t-20.5 38.5z" />
<glyph unicode="&#xb0;" horiz-adv-x="712" d="M164 1023q0 91 62.5 153.5t153.5 62.5t154.5 -62.5t63.5 -153.5t-64.5 -153.5t-154.5 -62.5t-152.5 62.5t-62.5 153.5zM219 1021.5q0 -65.5 48 -112.5t113.5 -47t113 47t47.5 112.5t-47.5 114t-113 48.5t-113.5 -48.5t-48 -114z" />
<glyph unicode="&#xb1;" horiz-adv-x="1101" d="M154 770l12 14q104 8 223 9h162l-14 348q0 16 18 30.5t37 14.5l12 -12q10 -100 10 -220v-161q203 -4 390 -17q14 -8 14 -16v-8l-23 -17q-197 0 -381 -2q-2 -338 -13 -361.5t-23 -23.5q-27 0 -27 252v131l-350 -12q-14 0 -29.5 17.5t-17.5 33.5zM283 223q39 20 246.5 20.5 t269.5 -28.5q8 -4 8 -8q0 -12 -16 -12q-78 0 -229.5 -15.5t-225.5 -15.5q-14 0 -32.5 22.5t-20.5 36.5z" />
<glyph unicode="&#xb2;" horiz-adv-x="1144" d="M0 975q0 33 37 57q61 43 164 43q29 0 59 -2q365 223 464 302t157 151q74 86 84 196q0 84 -100.5 84t-243 -65.5t-226.5 -138.5q-10 -4 -20 -4.5t-10 16t10 18.5q109 94 279.5 169t301.5 75t131 -109q-10 -123 -141 -258q-59 -63 -213.5 -185t-435.5 -269 q74 -6 238.5 -61.5t242.5 -55.5t137.5 25.5t59.5 76.5q0 61 -94 95q-8 6 -9 12q0 18 25 12q125 -39 125 -121q0 -72 -75 -114.5t-162 -42.5t-216 43l-209 75q-74 20 -112 21q-172 -74 -210 -74t-38 29z" />
<glyph unicode="&#xb3;" horiz-adv-x="1198" d="M47 1118q0 45 33 105.5t147 111.5q94 37 138.5 37t44.5 -10q0 -14 -35 -14t-111 -45q-80 -53 -100 -107l-8 -53q0 -131 182 -164q47 -6 92 -6q135 0 270 63q211 98 287 281q10 23 10 53q0 57 -60 85t-151.5 28t-126 -13.5t-53.5 -13.5q-27 0 -26 25q0 18 13 31.5t32 13.5 q129 0 241 43q145 55 164 164q2 8 2 18q0 66 -83 66t-192.5 -43t-138 -63.5t-38 -20.5t-9.5 31.5t31 39.5q33 10 75 49t50 39q8 -6 8 -13t-8 -17q-2 0 -12 -11q164 68 270 68q150 0 143 -135q-8 -131 -272 -215q229 -25 229 -160q0 -18 -8 -41q-45 -178 -266 -293 q-199 -94 -426 -94q-147 0 -242.5 47t-95.5 133z" />
<glyph unicode="&#xb4;" horiz-adv-x="555" d="M121 665.5q0 12.5 10 20.5l264 203q29 23 43 22q23 0 23 -29.5t-21 -50.5q-23 -18 -153.5 -98t-148 -80t-17.5 12.5z" />
<glyph unicode="&#xb5;" horiz-adv-x="1069" d="M-199 -251q0 167 285 589l33 49l-115 -102q-14 -14 -26.5 -14.5t-12.5 13t25 38.5l332 391q70 76 136 75.5t66 -45.5q0 -18 -32.5 -49.5t-98.5 -105.5q-20 -31 -65 -88q-47 -63 -56 -76q-170 -240 -170 -344q0 -45 31 -45q49 0 172 96l135 113q41 31 258 307 q197 246 256 246q90 0 90 -72q0 -25 -104 -145q-143 -174 -219 -284t-76 -177.5t37 -67.5q18 0 41 10q182 80 416 347q14 18 29.5 18t15.5 -12q0 -51 -254 -275q-164 -141 -225 -153q-12 -4 -53.5 -4t-83.5 32.5t-42 85t19.5 114.5t25.5 95l-221 -221q-131 -117 -217 -117 t-110 58q-125 -219 -125 -351q0 -49 47 -127q4 -12 -8.5 -21t-18.5 -9t-12 4q-105 57 -105 224z" />
<glyph unicode="&#xb6;" horiz-adv-x="1380" d="M-131 -424q8 16 25 16q223 0 448 461q76 158 262 666q-387 33 -387 285q0 215 232.5 368.5t459.5 153.5l273 10q66 0 98 -10q100 106 213 106q66 0 82 -33q-6 -4 -50 -13t-65 -21q-133 -78 -319 -492l-307 -741q-203 -481 -320 -482q-14 0 -14 11q4 12 35 41 q135 129 301 622q92 279 170 504q115 301 249 463h-26q-176 0 -398 -469q-96 -197 -253 -639q-96 -262 -261 -502q-221 -328 -407 -327q-37 -1 -41 22z" />
<glyph unicode="&#xb7;" d="M221 801q0 74 96 73q37 0 72 -25.5t35 -57t-32 -55t-69.5 -23.5t-69.5 26.5t-32 61.5z" />
<glyph unicode="&#xb8;" horiz-adv-x="563" d="M37 -678q0 12 24 21q121 20 181 26q88 29 88 148q0 33 -65.5 127t-65.5 141q0 88 49 153.5t127 65.5q29 0 31 -16q-53 -10 -85 -54.5t-32 -105.5q0 -27 73.5 -121t73.5 -164q0 -117 -123 -182.5t-252 -65.5q-24 0 -24 27z" />
<glyph unicode="&#xb9;" horiz-adv-x="878" d="M-2 942.5q0 20.5 26.5 30.5t139.5 49l381 694q-78 -51 -213 -102q-23 -6 -23 16q0 12 13 21q102 37 288 180l6 16q18 27 66.5 27t48.5 -23q0 -4 -491 -815q96 16 217 17q14 0 14 -15q0 -23 -22 -22q-109 0 -195 -27.5t-157.5 -58.5t-78 -31t-13.5 11.5t-7 32z" />
<glyph unicode="&#xba;" horiz-adv-x="479" d="M-25 758q0 152 220.5 425t355.5 273q129 0 129 -135q0 -37 -12 -92q2 -6 47 -6t139 47q-2 -43 -199 -123q2 -10 2 -23q0 -88 -168 -295q-201 -246 -339 -245h-41q-66 0 -105 69q-29 48 -29 105zM94 755.5q0 -96.5 60 -96.5q109 0 274.5 197t165.5 283q-39 23 -100 116 q-86 0 -243 -201.5t-157 -298z" />
<glyph unicode="&#xbb;" horiz-adv-x="1056" d="M215 340q0 37 248 385q-246 315 -246 343t23 28q4 0 24 -11q72 -98 305 -276q8 -2 8.5 -21.5t-125.5 -199.5t-162 -221t-55.5 -41t-19.5 14zM606 340q0 37 250 385q-246 315 -246 343t23 28q4 0 24 -11q70 -98 306 -276q8 -2 8 -21.5t-126 -199.5t-162 -221t-56.5 -41 t-20.5 14z" />
<glyph unicode="&#xbc;" horiz-adv-x="2007" d="M-2 942.5q0 20.5 26.5 30.5t139.5 49l381 694q-78 -51 -213 -102q-23 -6 -23 16q0 12 13 21q102 37 288 180l6 16q18 27 66.5 27t48.5 -23q0 -4 -491 -815q96 16 217 17q14 0 14 -15q0 -23 -22 -22q-109 0 -195 -27.5t-225 -87.5q-14 -4 -22.5 8.5t-8.5 33zM479 284.5 q0 51.5 41 161t387 574.5q344 457 381 457q14 0 29.5 -14.5t-6.5 -45.5q-207 -236 -468 -585t-315 -484q-10 -35 -10 -55.5t13.5 -26.5t4 -19.5t-33 -13.5t-23.5 51.5zM799 242.5q0 31.5 32.5 43t86.5 21.5q80 43 247.5 164t212.5 150q307 190 342 264l15 20q8 8 26 8 q49 0 49 -26q0 -6 -2 -6l-264 -381q-88 -131 -151 -244q111 -35 164 -35t90 27q43 37 43 71.5t-5.5 53t10 18.5t25.5 -16q29 -47 29 -92q0 -104 -184 -105q-78 0 -197 39q-72 -137 -72 -246q0 -49 8.5 -76.5t10.5 -39.5q0 -29 -25 -29q-43 0 -43 115.5t66 289.5 q-119 33 -205 33t-266 -76q-18 -4 -30.5 9.5t-12.5 45zM1022 322q76 8 130 8t183 -49q59 137 285 456q-100 -59 -312 -211.5t-286 -203.5z" />
<glyph unicode="&#xbd;" horiz-adv-x="2021" d="M-2 942.5q0 20.5 26.5 30.5t139.5 49l381 694q-78 -51 -213 -102q-23 -6 -23 16q0 12 13 21q102 37 288 180l6 16q18 27 66.5 27t48.5 -23q0 -4 -491 -815q96 16 217 17q14 0 14 -15q0 -23 -22 -22q-109 0 -195 -27.5t-225 -87.5q-14 -4 -22.5 8.5t-8.5 33zM479 284.5 q0 51.5 41 161t387 574.5q344 457 381 457q14 0 24.5 -10.5t10.5 -20.5t-12 -29q-207 -236 -469 -586q-324 -430 -324 -532q0 -27 13.5 -33t4 -19.5t-33 -13.5t-23.5 51.5zM756 22.5q0 30.5 37 57.5q61 41 163 41q29 0 60 -2q365 223 464 302t158 148q72 88 82 199 q0 84 -100 84t-242.5 -65.5t-226.5 -139.5q-10 -4 -20.5 -4t-10.5 16.5t10 18.5q109 92 280 168t302 76t131 -109q-10 -123 -141 -258q-59 -63 -214 -185t-435 -270q72 -6 237.5 -62t243.5 -56t137.5 26.5t59.5 77.5q0 59 -93 92q-10 8 -10 12q0 20 25 15q125 -39 125 -121 q0 -72 -75 -115t-162 -43t-216 43l-209 76q-74 20 -112 21q-172 -74 -210 -74t-38 30.5z" />
<glyph unicode="&#xbe;" horiz-adv-x="2301" d="M47 1114q0 45 33 105.5t147 109.5q94 39 138.5 39t44.5 -10q0 -14 -35 -14.5t-111 -47.5q-80 -51 -100 -104l-8 -53q0 -131 182 -164q47 -8 92 -8q135 0 270 63q211 98 287 283q10 23 10 53q0 57 -60 85t-151.5 28t-126 -14.5t-53.5 -14.5q-27 0 -26 27q0 16 13 30.5 t32 14.5q129 0 241 43q145 55 164 164q2 6 2 16q0 66 -83 65.5t-192.5 -42.5t-138 -62t-38 -20t-9.5 31.5t31 37.5q33 10 75 49t50 39q8 -4 8 -11t-8 -17q-2 0 -12 -11q164 68 270 68q150 0 143 -137q-8 -129 -272 -213q229 -25 229 -162q0 -16 -8 -39q-45 -180 -266 -293 q-199 -96 -426 -96q-147 0 -242.5 48t-95.5 134zM793 284.5q0 51.5 42 161t388 574.5q344 457 379 457q16 0 30.5 -14.5t-8.5 -45.5q-207 -236 -467 -585t-313 -484q-10 -35 -10 -55.5t11 -26.5t4 -19.5t-31.5 -13.5t-24.5 51.5zM1114 242.5q0 31.5 33 43t84 21.5 q82 43 249 164t214 150q307 190 342 264l14 20q8 8 27 8q49 0 49 -26q0 -6 -2 -6l-264 -381q-88 -131 -152 -244q111 -35 164 -35t90 27q43 37 43 71.5t-5 53t10 18.5t26 -16q27 -47 26 -92q0 -104 -182 -105q-82 0 -197 39q-72 -137 -71 -246q0 -49 8 -76.5t10 -39.5 q0 -29 -24 -29q-43 0 -43 115.5t65 289.5q-119 33 -205 33t-266 -76q-18 -4 -30.5 9.5t-12.5 45zM1337 322q76 8 130.5 8t183.5 -49q59 137 284 456q-102 -59 -313 -211.5t-285 -203.5z" />
<glyph unicode="&#xbf;" horiz-adv-x="1009" d="M-20 -281q0 154 133 261q33 25 303 182q176 100 241 223q23 43 39.5 43t16.5 -22.5t-4 -36.5q-63 -131 -224 -236q-225 -141 -274 -186q-109 -98 -109 -181t91.5 -132.5t231.5 -49.5t251.5 65.5t132.5 192.5q4 31 -26.5 60.5t-89 29.5t-132.5 -75q-16 -18 -22 0 q-6 20 10 37q84 86 163 86t117.5 -39t38.5 -93v-12q-14 -168 -163.5 -261t-309.5 -93q-415 -1 -415 237zM657 646q0 32 32 55.5t70 23.5t68.5 -26.5t30.5 -61.5q0 -72 -98 -72q-35 0 -69 24.5t-34 56.5z" />
<glyph unicode="&#xc0;" horiz-adv-x="2568" d="M-2 106q0 215 135 459q182 322 496.5 550t564.5 228t250 -184q0 -123 -76 -274.5t-154 -192.5q-8 -2 -16 -2t-8 4l82 137q86 133 86 233.5t-44 163t-140 62.5q-197 0 -470.5 -219t-416 -539.5t-142.5 -498.5q0 -270 275 -271q262 0 710 338q199 150 648 562 q-88 -4 -164 -17q-160 -31 -150 10q10 92 95 93q168 -20 280 -21q217 201 647 653q289 305 353 306q29 0 28.5 -43.5t-23 -134.5t-51.5 -109q-57 -41 -107 -110.5t-143.5 -259t-158.5 -308.5l244 4q90 0 90 -12q0 -33 -367 -58q-236 -459 -235 -624q0 -117 73 -117 q27 0 69 34t51 34t9 -13q-14 -45 -77.5 -74.5t-107.5 -29.5t-71 4q-59 23 -59 145q0 256 195 648l-304 -7q-338 -330 -677 -579q-508 -371 -797 -371q-16 0 -35 2q-387 32 -387 399zM1939 731h150q53 -4 131 -4q72 145 365 608zM2626 2047q0 32 24 32q31 0 307 -228 q10 -8 10.5 -19t-15 -11t-148.5 80.5t-155.5 97t-22.5 48.5z" />
<glyph unicode="&#xc1;" horiz-adv-x="2568" d="M-2 106q0 215 135 459q182 322 496.5 550t564.5 228t250 -184q0 -123 -76 -274.5t-154 -192.5q-8 -2 -16 -2t-8 4l82 137q86 133 86 233.5t-44 163t-140 62.5q-197 0 -470.5 -219t-416 -539.5t-142.5 -498.5q0 -270 275 -271q262 0 710 338q199 150 648 562 q-88 -4 -164 -17q-160 -31 -150 10q10 92 95 93q168 -20 280 -21q217 201 647 653q289 305 353 306q29 0 28.5 -43.5t-23 -134.5t-51.5 -109q-57 -41 -107 -110.5t-143.5 -259t-158.5 -308.5l244 4q90 0 90 -12q0 -33 -367 -58q-236 -459 -235 -624q0 -117 73 -117 q27 0 69 34t51 34t9 -13q-14 -45 -77.5 -74.5t-107.5 -29.5t-71 4q-59 23 -59 145q0 256 195 648l-304 -7q-338 -330 -677 -579q-508 -371 -797 -371q-16 0 -35 2q-387 32 -387 399zM1939 731h150q53 -4 131 -4q72 145 365 608zM2859 1831q0 12 10 20l264 205q25 23 45.5 23 t20.5 -31t-21 -51q-23 -16 -153.5 -97t-148 -81t-17.5 12z" />
<glyph unicode="&#xc2;" horiz-adv-x="2568" d="M-2 106q0 215 135 459q182 322 496.5 550t564.5 228t250 -184q0 -123 -76 -274.5t-154 -192.5q-8 -2 -16 -2t-8 4l82 137q86 133 86 233.5t-44 163t-140 62.5q-197 0 -470.5 -219t-416 -539.5t-142.5 -498.5q0 -270 275 -271q262 0 710 338q199 150 648 562 q-88 -4 -164 -17q-160 -31 -150 10q10 92 95 93q168 -20 280 -21q217 201 647 653q289 305 353 306q29 0 28.5 -43.5t-23 -134.5t-51.5 -109q-57 -41 -107 -110.5t-143.5 -259t-158.5 -308.5l244 4q90 0 90 -12q0 -33 -367 -58q-236 -459 -235 -624q0 -117 73 -117 q27 0 69 34t51 34t9 -13q-14 -45 -77.5 -74.5t-107.5 -29.5t-71 4q-59 23 -59 145q0 256 195 648l-304 -7q-338 -330 -677 -579q-508 -371 -797 -371q-16 0 -35 2q-387 32 -387 399zM1939 731h150q53 -4 131 -4q72 145 365 608zM2523 1815q0 6 27 28q190 117 250 168 q74 61 90 62q37 0 143.5 -117t109.5 -131.5t3 -18.5q0 -25 -19.5 -24.5t-108.5 80.5t-145 112q-14 -10 -83.5 -52t-130 -83t-79.5 -43q-57 -14 -57 19z" />
<glyph unicode="&#xc3;" horiz-adv-x="2568" d="M-2 106q0 215 135 459q182 322 496.5 550t564.5 228t250 -184q0 -123 -76 -274.5t-154 -192.5q-8 -2 -16 -2t-8 4l82 137q86 133 86 233.5t-44 163t-140 62.5q-197 0 -470.5 -219t-416 -539.5t-142.5 -498.5q0 -270 275 -271q262 0 710 338q199 150 648 562 q-88 -4 -164 -17q-160 -31 -150 10q10 92 95 93q168 -20 280 -21q217 201 647 653q289 305 353 306q29 0 28.5 -43.5t-23 -134.5t-51.5 -109q-57 -41 -107 -110.5t-143.5 -259t-158.5 -308.5l244 4q90 0 90 -12q0 -33 -367 -58q-236 -459 -235 -624q0 -117 73 -117 q27 0 69 34t51 34t9 -13q-14 -45 -77.5 -74.5t-107.5 -29.5t-71 4q-59 23 -59 145q0 256 195 648l-304 -7q-338 -330 -677 -579q-508 -371 -797 -371q-16 0 -35 2q-387 32 -387 399zM1939 731h150q53 -4 131 -4q72 145 365 608zM2660 1894q0 41 109 103q39 27 83 26.5 t124 -27t131 -26.5t98 53q14 0 14 -10q0 -39 -100 -106q-33 -20 -75 -20.5t-123.5 33.5t-122.5 34t-82 -33t-54 -33q-2 4 -2 6z" />
<glyph unicode="&#xc4;" horiz-adv-x="2568" d="M-2 106q0 215 135 459q182 322 496.5 550t564.5 228t250 -184q0 -123 -76 -274.5t-154 -192.5q-8 -2 -16 -2t-8 4l82 137q86 133 86 233.5t-44 163t-140 62.5q-197 0 -470.5 -219t-416 -539.5t-142.5 -498.5q0 -270 275 -271q262 0 710 338q199 150 648 562 q-88 -4 -164 -17q-160 -31 -150 10q10 92 95 93q168 -20 280 -21q217 201 647 653q289 305 353 306q29 0 28.5 -43.5t-23 -134.5t-51.5 -109q-57 -41 -107 -110.5t-143.5 -259t-158.5 -308.5l244 4q90 0 90 -12q0 -33 -367 -58q-236 -459 -235 -624q0 -117 73 -117 q27 0 69 34t51 34t9 -13q-14 -45 -77.5 -74.5t-107.5 -29.5t-71 4q-59 23 -59 145q0 256 195 648l-304 -7q-338 -330 -677 -579q-508 -371 -797 -371q-16 0 -35 2q-387 32 -387 399zM1939 731h150q53 -4 131 -4q72 145 365 608zM2705 1938.5q0 29.5 74 80.5q76 53 115 54 q2 0 8 -2q-2 0 -35 -46l-41 -100q-31 -68 -67 -67q-18 0 -36 25.5t-18 55zM2902 2071h2v-3zM3011 1938.5q0 29.5 73 80.5q74 53 115 54l8 -2q-2 0 -35 -46l-41 -100q-31 -68 -67 -67q-18 0 -35.5 25.5t-17.5 55zM3207 2071h2v-3z" />
<glyph unicode="&#xc5;" horiz-adv-x="2568" d="M-2 106q0 215 135 459q182 322 496.5 550t564.5 228t250 -184q0 -123 -76 -274.5t-154 -192.5q-8 -2 -16 -2t-8 4l82 137q86 133 86 233.5t-44 163t-140 62.5q-197 0 -470.5 -219t-416 -539.5t-142.5 -498.5q0 -270 275 -271q262 0 710 338q199 150 648 562 q-88 -4 -164 -17q-160 -31 -150 10q10 92 95 93q168 -20 280 -21q217 201 647 653q219 231 310 287q-39 23 -39 82t27.5 119.5t70.5 73.5q41 82 127 81q45 0 76.5 -38.5t31.5 -111.5t-71.5 -145.5t-153.5 -72.5q2 -8 2 -32t-22.5 -115t-51.5 -109q-57 -41 -107 -110.5 t-143.5 -259t-158.5 -308.5l244 4q90 0 90 -12q0 -33 -367 -58q-236 -459 -235 -624q0 -117 73 -117q27 0 69 34t51 34t9 -13q-14 -45 -77.5 -74.5t-107.5 -29.5t-71 4q-59 23 -59 145q0 256 195 648l-304 -7q-338 -330 -677 -579q-508 -371 -797 -371q-16 0 -35 2 q-387 32 -387 399zM1939 731h150q53 -4 131 -4q72 145 365 608zM2849 1753q0 -51 39 -51q57 0 100 59.5t43 138t-55 78.5q-31 0 -74 -32l27 -17q-2 -8 -41 -66.5t-39 -109.5z" />
<glyph unicode="&#xc6;" horiz-adv-x="3526" d="M-2 106q0 215 135 459q182 322 496.5 550t564.5 228t250 -184q0 -123 -76 -274.5t-154 -192.5q-8 -2 -16 -2t-8 4l82 137q86 133 86 233.5t-44 163t-140 62.5q-197 0 -470.5 -219t-416 -539.5t-142.5 -498.5q0 -270 275 -271q262 0 710 338q199 150 648 562 q-88 -4 -164 -17q-160 -31 -150 10q10 92 95 93q168 -20 280 -21q217 201 647 653q289 305 353 306q29 0 28.5 -48.5t-18.5 -111.5q283 147 575 147q143 0 230.5 -47t87.5 -144.5t-73 -164t-150.5 -66.5t-77.5 39q0 23 32 23l52 -8q49 0 91 54t42 111q0 86 -99 127 q-63 25 -118.5 25t-77.5 -2q-213 -12 -424 -152q-242 -158 -242 -358q0 -72 51 -135q162 51 308 51q248 0 247 -94q0 -20 -16 -45q-59 -94 -219 -94q-102 0 -210 36.5t-165 77.5q-68 -20 -276 -121l-33 -65q-158 -305 -158 -533q0 -98 39 -165q59 -106 178 -123 q45 -8 108.5 -8.5t178.5 22.5t244 87.5t211 137.5q199 176 198 369q0 154 -149 154q-178 0 -410 -191q-57 -47 -98 -121t-41 -144.5t72 -86.5q25 -10 24 -25q0 -27 -51 -20q-121 2 -121 157.5t160 292.5q217 186 459 187q109 0 178 -55.5t69 -163.5q0 -244 -258 -441 q-92 -70 -227 -125q-205 -82 -424 -82q-78 0 -149 13q-135 23 -226 125q-100 115 -100 305q0 88 33 202q35 117 74 173l-304 -7q-338 -330 -677 -579q-508 -371 -797 -371q-16 0 -35 2q-387 32 -387 399zM1939 731h150q53 -4 131 -4q72 145 365 608zM2466 879q72 31 184 67 q-61 66 -76 148q-100 -199 -108 -215zM2791 934q104 -84 247 -84t143 78q0 35 -126.5 35t-263.5 -29z" />
<glyph unicode="&#xc7;" horiz-adv-x="1826" d="M78 390q0 386 379 784q209 219 495.5 341.5t544.5 122.5q135 0 236 -32q274 -86 274 -346q0 -158 -92 -275q-231 -285 -553 -285q-150 0 -253 70t-103 174q0 133 174 268q29 23 44 23t15 -10q0 -27 -41 -41q-139 -113 -139 -230q0 -82 74.5 -139t189.5 -57q246 0 465 237 q115 123 115 285t-121 240q-102 70 -273 69q-248 0 -497 -123q-307 -150 -555 -463t-248 -602q0 -229 156.5 -354t388.5 -125q264 0 518 129q195 100 336 256q39 45 61 45q16 0 16.5 -26.5t-28.5 -53.5q-133 -141 -385 -272q-309 -164 -606 -164q-106 0 -203 23 q-35 -47 -35 -107q0 -27 72.5 -123t72.5 -164q0 -115 -121.5 -180t-252.5 -65q-23 0 -23 24q0 14 23 21q121 20 182 26q88 29 88 148q0 35 -65.5 128t-65.5 140q0 109 63 172q-323 125 -323 511z" />
<glyph unicode="&#xc8;" horiz-adv-x="1738" d="M8 195q0 102 66 206q231 367 790 545q-84 96 -84 205t54 182q104 141 309 232q248 109 495 108q143 0 229.5 -47t86.5 -144.5t-72 -164t-149.5 -66.5t-77.5 39q0 23 33 23l51 -8q49 0 91 54t42 111q0 86 -98 127q-63 25 -119 25t-78 -2q-217 -12 -424 -152 q-242 -158 -242 -358q0 -72 52 -135q162 51 307 51q246 0 246 -94q0 -20 -15 -45q-59 -94 -219 -94q-102 0 -210.5 36.5t-164.5 77.5q-236 -68 -418 -209t-272 -321q-49 -94 -49 -187q0 -139 117.5 -228t345.5 -89q61 0 129 8q401 43 639 258q199 176 198 369 q0 154 -149 154q-178 0 -410 -191q-59 -47 -99 -121t-40 -144.5t72 -86.5q25 -10 24 -25q0 -27 -51 -20q-121 2 -121 157.5t160 292.5q215 186 459 187q180 0 227 -113q20 -53 21 -106q0 -236 -258 -441q-311 -252 -787 -252q-295 0 -466 110t-171 286zM1006 934 q109 -84 249 -84t140 78q0 35 -126 35t-263 -29zM1456 2018.5q0 31.5 23 31.5q35 0 307 -225q10 -8 10 -19.5t-15.5 -11.5t-148.5 80t-154.5 96.5t-21.5 48z" />
<glyph unicode="&#xc9;" horiz-adv-x="1738" d="M8 195q0 102 66 206q231 367 790 545q-84 96 -84 205t54 182q104 141 309 232q248 109 495 108q143 0 229.5 -47t86.5 -144.5t-72 -164t-149.5 -66.5t-77.5 39q0 23 33 23l51 -8q49 0 91 54t42 111q0 86 -98 127q-63 25 -119 25t-78 -2q-217 -12 -424 -152 q-242 -158 -242 -358q0 -72 52 -135q162 51 307 51q246 0 246 -94q0 -20 -15 -45q-59 -94 -219 -94q-102 0 -210.5 36.5t-164.5 77.5q-236 -68 -418 -209t-272 -321q-49 -94 -49 -187q0 -139 117.5 -228t345.5 -89q61 0 129 8q401 43 639 258q199 176 198 369 q0 154 -149 154q-178 0 -410 -191q-59 -47 -99 -121t-40 -144.5t72 -86.5q25 -10 24 -25q0 -27 -51 -20q-121 2 -121 157.5t160 292.5q215 186 459 187q180 0 227 -113q20 -53 21 -106q0 -236 -258 -441q-311 -252 -787 -252q-295 0 -466 110t-171 286zM1006 934 q109 -84 249 -84t140 78q0 35 -126 35t-263 -29zM1628 1831q0 12 10 20l265 205q27 23 43 23q23 0 22.5 -31t-20.5 -51q-23 -16 -154 -97t-148.5 -81t-17.5 12z" />
<glyph unicode="&#xca;" horiz-adv-x="1738" d="M8 195q0 102 66 206q231 367 790 545q-84 96 -84 205t54 182q104 141 309 232q248 109 495 108q143 0 229.5 -47t86.5 -144.5t-72 -164t-149.5 -66.5t-77.5 39q0 23 33 23l51 -8q49 0 91 54t42 111q0 86 -98 127q-63 25 -119 25t-78 -2q-217 -12 -424 -152 q-242 -158 -242 -358q0 -72 52 -135q162 51 307 51q246 0 246 -94q0 -20 -15 -45q-59 -94 -219 -94q-102 0 -210.5 36.5t-164.5 77.5q-236 -68 -418 -209t-272 -321q-49 -94 -49 -187q0 -139 117.5 -228t345.5 -89q61 0 129 8q401 43 639 258q199 176 198 369 q0 154 -149 154q-178 0 -410 -191q-59 -47 -99 -121t-40 -144.5t72 -86.5q25 -10 24 -25q0 -27 -51 -20q-121 2 -121 157.5t160 292.5q215 186 459 187q180 0 227 -113q20 -53 21 -106q0 -236 -258 -441q-311 -252 -787 -252q-295 0 -466 110t-171 286zM1006 934 q109 -84 249 -84t140 78q0 35 -126 35t-263 -29zM1454 1819q0 8 25 30q190 115 250 166q76 63 90 64q39 0 144 -118t109.5 -131t4.5 -20q0 -25 -20.5 -24.5t-108.5 81.5t-144 113q-16 -10 -84.5 -53t-129 -83t-81.5 -44q-55 -14 -55 19z" />
<glyph unicode="&#xcb;" horiz-adv-x="1738" d="M8 195q0 102 66 206q231 367 790 545q-84 96 -84 205t54 182q104 141 309 232q248 109 495 108q143 0 229.5 -47t86.5 -144.5t-72 -164t-149.5 -66.5t-77.5 39q0 23 33 23l51 -8q49 0 91 54t42 111q0 86 -98 127q-63 25 -119 25t-78 -2q-217 -12 -424 -152 q-242 -158 -242 -358q0 -72 52 -135q162 51 307 51q246 0 246 -94q0 -20 -15 -45q-59 -94 -219 -94q-102 0 -210.5 36.5t-164.5 77.5q-236 -68 -418 -209t-272 -321q-49 -94 -49 -187q0 -139 117.5 -228t345.5 -89q61 0 129 8q401 43 639 258q199 176 198 369 q0 154 -149 154q-178 0 -410 -191q-59 -47 -99 -121t-40 -144.5t72 -86.5q25 -10 24 -25q0 -27 -51 -20q-121 2 -121 157.5t160 292.5q215 186 459 187q180 0 227 -113q20 -53 21 -106q0 -236 -258 -441q-311 -252 -787 -252q-295 0 -466 110t-171 286zM1006 934 q109 -84 249 -84t140 78q0 35 -126 35t-263 -29zM1563 1865.5q0 28.5 71 82.5q76 53 117 53l8 -4q-4 0 -37 -45l-39 -101q-31 -68 -69 -67q-16 0 -33.5 26.5t-17.5 55zM1759 1997h2v-2q0 2 -2 2zM1866 1865.5q0 28.5 73 82.5q76 53 117 53l6 -4q-2 0 -34 -45l-41 -101 q-29 -68 -68 -67q-16 0 -34.5 26.5t-18.5 55zM2062 1997h4v-2z" />
<glyph unicode="&#xcc;" horiz-adv-x="1449" d="M53 289q0 383 203 618q172 201 393 201q59 0 119 -21q150 -57 150 -244.5t-154 -391t-315 -203.5q-182 0 -183 194q0 57 24.5 118t55.5 61q23 0 23 -23q0 -14 -23.5 -64.5t-23.5 -89t42 -72.5t87 -34q150 0 276.5 182t126.5 357q0 133 -96 176q-33 12 -68 12 q-178 0 -358 -246q-174 -250 -174 -547q0 -164 71 -268q74 -104 201 -104q334 0 866 903q-276 84 -276 327q0 326 330 521q209 121 405 121q154 0 279 -52q172 -68 172 -207q0 -31 -13.5 -58.5t-27.5 -27.5q-33 33 -80 33q-213 0 -586 -637q20 -2 43 -2q86 0 171 50.5 t85 125.5l-16 68q0 20 18 20q8 0 21 -8q59 -41 59 -111.5t-91 -138t-230 -67.5q-43 0 -84 8q-174 -319 -424 -590q-332 -352 -605 -352q-393 0 -393 463zM1153 1082.5q0 -181.5 186 -216.5q139 227 358.5 452.5t364.5 225.5q39 0 66 -18q-2 72 -98 125q-84 49 -213 49 t-296 -74t-267.5 -218t-100.5 -325.5zM1847 2047q0 32 25 32q31 0 307 -228q10 -8 10 -19t-15 -11t-148.5 80.5t-156 97t-22.5 48.5z" />
<glyph unicode="&#xcd;" horiz-adv-x="1449" d="M53 289q0 383 203 618q172 201 393 201q59 0 119 -21q150 -57 150 -244.5t-154 -391t-315 -203.5q-182 0 -183 194q0 57 24.5 118t55.5 61q23 0 23 -23q0 -14 -23.5 -64.5t-23.5 -89t42 -72.5t87 -34q150 0 276.5 182t126.5 357q0 133 -96 176q-33 12 -68 12 q-178 0 -358 -246q-174 -250 -174 -547q0 -164 71 -268q74 -104 201 -104q334 0 866 903q-276 84 -276 327q0 326 330 521q209 121 405 121q154 0 279 -52q172 -68 172 -207q0 -31 -13.5 -58.5t-27.5 -27.5q-33 33 -80 33q-213 0 -586 -637q20 -2 43 -2q86 0 171 50.5 t85 125.5l-16 68q0 20 18 20q8 0 21 -8q59 -41 59 -111.5t-91 -138t-230 -67.5q-43 0 -84 8q-174 -319 -424 -590q-332 -352 -605 -352q-393 0 -393 463zM1153 1082.5q0 -181.5 186 -216.5q139 227 358.5 452.5t364.5 225.5q39 0 66 -18q-2 72 -98 125q-84 49 -213 49 t-296 -74t-267.5 -218t-100.5 -325.5zM1921 1831q0 12 10 20l267 205q25 23 45 23t20 -31t-20 -51q-23 -16 -154 -97t-149.5 -81t-18.5 12z" />
<glyph unicode="&#xce;" horiz-adv-x="1449" d="M53 289q0 383 203 618q172 201 393 201q59 0 119 -21q150 -57 150 -244.5t-154 -391t-315 -203.5q-182 0 -183 194q0 57 24.5 118t55.5 61q23 0 23 -23q0 -14 -23.5 -64.5t-23.5 -89t42 -72.5t87 -34q150 0 276.5 182t126.5 357q0 133 -96 176q-33 12 -68 12 q-178 0 -358 -246q-174 -250 -174 -547q0 -164 71 -268q74 -104 201 -104q334 0 866 903q-276 84 -276 327q0 326 330 521q209 121 405 121q154 0 279 -52q172 -68 172 -207q0 -31 -13.5 -58.5t-27.5 -27.5q-33 33 -80 33q-213 0 -586 -637q20 -2 43 -2q86 0 171 50.5 t85 125.5l-16 68q0 20 18 20q8 0 21 -8q59 -41 59 -111.5t-91 -138t-230 -67.5q-43 0 -84 8q-174 -319 -424 -590q-332 -352 -605 -352q-393 0 -393 463zM1153 1082.5q0 -181.5 186 -216.5q139 227 358.5 452.5t364.5 225.5q39 0 66 -18q-2 72 -98 125q-84 49 -213 49 t-296 -74t-267.5 -218t-100.5 -325.5zM1657 1819q0 8 26 30q190 115 248 166q76 63 92 64q37 0 142.5 -118t109.5 -131t4 -20q0 -25 -20.5 -24.5t-108.5 81.5t-143 113q-14 -10 -84 -53t-130 -83t-81 -44q-55 -14 -55 19z" />
<glyph unicode="&#xcf;" horiz-adv-x="1449" d="M53 289q0 383 203 618q172 201 393 201q59 0 119 -21q150 -57 150 -244.5t-154 -391t-315 -203.5q-182 0 -183 194q0 57 24.5 118t55.5 61q23 0 23 -23q0 -14 -23.5 -64.5t-23.5 -89t42 -72.5t87 -34q150 0 276.5 182t126.5 357q0 133 -96 176q-33 12 -68 12 q-178 0 -358 -246q-174 -250 -174 -547q0 -164 71 -268q74 -104 201 -104q334 0 866 903q-276 84 -276 327q0 326 330 521q209 121 405 121q154 0 279 -52q172 -68 172 -207q0 -31 -13.5 -58.5t-27.5 -27.5q-33 33 -80 33q-213 0 -586 -637q20 -2 43 -2q86 0 171 50.5 t85 125.5l-16 68q0 20 18 20q8 0 21 -8q59 -41 59 -111.5t-91 -138t-230 -67.5q-43 0 -84 8q-174 -319 -424 -590q-332 -352 -605 -352q-393 0 -393 463zM1153 1082.5q0 -181.5 186 -216.5q139 227 358.5 452.5t364.5 225.5q39 0 66 -18q-2 72 -98 125q-84 49 -213 49 t-296 -74t-267.5 -218t-100.5 -325.5zM1710 1943.5q0 28.5 74 81.5q76 53 114 54l9 -2q-2 0 -35 -47l-41 -101q-31 -68 -68 -67q-18 0 -35.5 26.5t-17.5 55zM1907 2077h2v-4zM2015 1943.5q0 28.5 74 81.5q76 53 115 54q2 0 8 -2q-2 0 -35 -47l-41 -101q-31 -68 -68 -67 q-18 0 -35.5 26.5t-17.5 55zM2212 2077h2v-4z" />
<glyph unicode="&#xd0;" horiz-adv-x="2318" d="M37 63q0 121 102.5 363t196.5 242q47 0 81 -189.5t68 -273.5q115 115 316 373q-31 0 -68 6q-80 16 -80 53q0 25 20.5 43t36 18t31.5 2h158l84 109q408 537 541 586q45 18 93 18t80 -20.5t32 -49.5q0 -43 -74 -51q-88 -47 -273 -231q-174 -170 -313 -363q166 0 254 7 q2 -2 2 -7q0 -45 -326 -92q-213 -285 -464 -493q141 -209 442 -209q33 0 98 6q700 66 993 606q119 217 119 429t-153 380q-125 139 -269.5 172t-296.5 33q-387 0 -714 -180q-346 -188 -346 -422q0 -63 33.5 -103.5t47.5 -46.5h-16q-66 12 -115 66q-55 66 -55 139 q0 252 315.5 433t741.5 181q197 0 403.5 -45t374.5 -217q195 -201 195 -456q0 -188 -111 -390q-193 -348 -571 -509q-305 -129 -658.5 -129.5t-521.5 212.5q-221 -172 -326 -172q-55 0 -81.5 54.5t-26.5 117.5zM129 74q0 -78 29 -137q109 49 262 198q-72 121 -91.5 190.5 t-25.5 182.5q-174 -248 -174 -434zM489 778q2 0 5 2q0 -4 -1.5 -4t-3.5 2z" />
<glyph unicode="&#xd1;" horiz-adv-x="2328" d="M4 481q0 393 541 826q135 109 353 182.5t395 73.5t251 -68t74 -184q0 -289 -348 -815q78 98 254 249q627 526 1079 693q23 10 49 10q96 0 121 -109q12 -43 -121 -178q-315 -322 -534.5 -704.5t-219.5 -550.5q0 -39 15.5 -55.5t48.5 -10.5t137.5 51.5t136.5 53.5 q12 -6 13 -13q0 -39 -132 -106.5t-198 -67.5t-82 23q-45 63 -45 158q0 217 231 622q147 256 459 686q-336 -31 -868 -528q-422 -401 -602 -688q-59 -94 -59.5 -123t22.5 -39q0 -4 -42 -30.5t-115 -26.5t-73 36q0 66 248 435.5t328 509.5q170 309 170 487q0 70 -27 131 q-43 90 -207 90q-301 0 -636 -274q-258 -211 -398 -439q-125 -215 -125 -382q0 -242 224 -248h20q297 0 451 211q61 82 61 140t-29 73q-2 2 -2 10t17 8q66 0 65 -86q0 -53 -51 -143t-183 -171t-301 -81t-267.5 98t-98.5 264zM2013 1726q0 39 109 103q39 25 83 24.5 t123.5 -27t131 -26.5t96.5 53q16 0 16 -10q0 -37 -100 -104q-33 -20 -75 -20.5t-124 33.5t-123 34t-81.5 -33t-53.5 -33q-2 2 -2 6z" />
<glyph unicode="&#xd2;" horiz-adv-x="1974" d="M61 302.5q0 193.5 103 422.5q131 291 512 565q438 311 905 312q252 0 383 -98.5t131 -243.5q0 -90 -70 -224q20 -70 21 -139q0 -315 -324 -602q-496 -444 -1110 -445q-68 0 -106 5q-201 10 -323 132t-122 315.5zM197 254q0 -332 335 -350q35 -2 70 -2q496 0 944 401 q324 287 348 547q-131 -145 -452 -344l-21 -4q-4 0 -4 2q0 10 70 67l141 117q180 158 264 258q-18 141 -127.5 236.5t-251.5 138.5q-70 16 -217 21.5t-147 10.5t4 9q117 39 223.5 39t245.5 -33q264 -63 371 -258q25 61 24.5 136t-55.5 153q-109 150 -383 149 q-381 0 -718 -235.5t-525 -591.5q-139 -260 -139 -467zM1657 1996q0 32 26 32q29 0 308 -228q10 -6 10 -17t-15.5 -11t-149.5 79.5t-156.5 96t-22.5 48.5z" />
<glyph unicode="&#xd3;" horiz-adv-x="1974" d="M61 302.5q0 193.5 103 422.5q131 291 512 565q438 311 905 312q252 0 383 -98.5t131 -243.5q0 -90 -70 -224q20 -70 21 -139q0 -315 -324 -602q-496 -444 -1110 -445q-68 0 -106 5q-201 10 -323 132t-122 315.5zM197 254q0 -332 335 -350q35 -2 70 -2q496 0 944 401 q324 287 348 547q-131 -145 -452 -344l-21 -4q-4 0 -4 2q0 10 70 67l141 117q180 158 264 258q-18 141 -127.5 236.5t-251.5 138.5q-70 16 -217 21.5t-147 10.5t4 9q117 39 223.5 39t245.5 -33q264 -63 371 -258q25 61 24.5 136t-55.5 153q-109 150 -383 149 q-381 0 -718 -235.5t-525 -591.5q-139 -260 -139 -467zM1677 1780.5q0 13.5 11 19.5l264 205q29 23 43 23q23 0 22.5 -30t-20.5 -50q-23 -18 -154 -99.5t-148.5 -81.5t-17.5 13.5z" />
<glyph unicode="&#xd4;" horiz-adv-x="1974" d="M61 302.5q0 193.5 103 422.5q131 291 512 565q438 311 905 312q252 0 383 -98.5t131 -243.5q0 -90 -70 -224q20 -70 21 -139q0 -315 -324 -602q-496 -444 -1110 -445q-68 0 -106 5q-201 10 -323 132t-122 315.5zM197 254q0 -332 335 -350q35 -2 70 -2q496 0 944 401 q324 287 348 547q-131 -145 -452 -344l-21 -4q-4 0 -4 2q0 10 70 67l141 117q180 158 264 258q-18 141 -127.5 236.5t-251.5 138.5q-70 16 -217 21.5t-147 10.5t4 9q117 39 223.5 39t245.5 -33q264 -63 371 -258q25 61 24.5 136t-55.5 153q-109 150 -383 149 q-381 0 -718 -235.5t-525 -591.5q-139 -260 -139 -467zM1436 1739q0 10 28 33q274 168 394 268l16 8q31 -2 151 -131q106 -121 106.5 -149.5t-22.5 -28.5q-29 0 -110.5 70.5t-140.5 136.5q-16 -10 -86 -53.5t-158 -101.5t-166 -62q-12 2 -12 10z" />
<glyph unicode="&#xd5;" horiz-adv-x="1974" d="M61 302.5q0 193.5 103 422.5q131 291 512 565q438 311 905 312q252 0 383 -98.5t131 -243.5q0 -90 -70 -224q20 -70 21 -139q0 -315 -324 -602q-496 -444 -1110 -445q-68 0 -106 5q-201 10 -323 132t-122 315.5zM197 254q0 -332 335 -350q35 -2 70 -2q496 0 944 401 q324 287 348 547q-131 -145 -452 -344l-21 -4q-4 0 -4 2q0 10 70 67l141 117q180 158 264 258q-18 141 -127.5 236.5t-251.5 138.5q-70 16 -217 21.5t-147 10.5t4 9q117 39 223.5 39t245.5 -33q264 -63 371 -258q25 61 24.5 136t-55.5 153q-109 150 -383 149 q-381 0 -718 -235.5t-525 -591.5q-139 -260 -139 -467zM1563 1726q0 39 106 103q41 25 85 24.5t124 -27t131 -26.5t96 53q16 0 17 -10q0 -37 -103 -104q-33 -20 -73.5 -20.5t-122.5 33.5t-124 34t-82 -33t-52 -33q-2 2 -2 6z" />
<glyph unicode="&#xd6;" horiz-adv-x="1974" d="M61 302.5q0 193.5 103 422.5q131 291 512 565q438 311 905 312q252 0 383 -98.5t131 -243.5q0 -90 -70 -224q20 -70 21 -139q0 -315 -324 -602q-496 -444 -1110 -445q-68 0 -106 5q-201 10 -323 132t-122 315.5zM197 254q0 -332 335 -350q35 -2 70 -2q496 0 944 401 q324 287 348 547q-131 -145 -452 -344l-21 -4q-4 0 -4 2q0 10 70 67l141 117q180 158 264 258q-18 141 -127.5 236.5t-251.5 138.5q-70 16 -217 21.5t-147 10.5t4 9q117 39 223.5 39t245.5 -33q264 -63 371 -258q25 61 24.5 136t-55.5 153q-109 150 -383 149 q-381 0 -718 -235.5t-525 -591.5q-139 -260 -139 -467zM1552 1853.5q0 28.5 72 81.5q76 51 117 52q2 0 8 -2q-4 0 -37 -46l-39 -100q-31 -68 -67 -67q-18 0 -36 26.5t-18 55zM1749 1985h2v-3zM1858 1853.5q0 28.5 71 81.5q76 51 117 52l6 -2q-2 0 -35 -46l-39 -100 q-31 -68 -69 -67q-16 0 -33.5 26.5t-17.5 55zM2052 1985h4v-3z" />
<glyph unicode="&#xd7;" horiz-adv-x="714" d="M53 205q12 25 129 135.5t148 130.5l-25 141q-16 57 -38.5 85t-36 32t-13.5 8q0 16 98 17l33 2q25 0 34 -29t34 -205q31 29 154.5 130.5t129.5 101.5q33 0 33 -31q0 -8 -10 -18l-299 -230q37 -227 147 -227q12 0 72 16q6 0 6 -4q0 -18 -62.5 -40.5t-107.5 -22.5t-76.5 50 t-62.5 179q-20 -25 -131 -130.5t-133.5 -105t-22.5 14.5z" />
<glyph unicode="&#xd8;" horiz-adv-x="1974" d="M61 303.5q0 192.5 103 421.5q131 291 512 565q438 311 905 312q59 0 84 -3q135 160 164 160t44 -16.5t15 -34.5t-22 -45l-72 -84q104 -27 174 -78q127 -96 127 -241q0 -90 -70 -224q20 -70 21 -139q0 -315 -324 -602q-496 -444 -1110 -445h-55q-6 -16 -6 -58t19.5 -50 t9.5 -29q-18 -27 -54 -26q-43 0 -43 61.5t11 108.5q-197 12 -315 133t-118 313.5zM197 254q0 -317 309 -348q6 25 33 98q78 215 657 993q209 274 254 332q-47 8 -174 13.5t-127 10.5t4 9q117 39 201 39t145 -10q25 35 69 89t54 66q-12 2 -43 2q-381 0 -718 -235.5 t-525 -591.5q-139 -260 -139 -467zM573 -96h31q498 0 942 399q324 287 348 547q-131 -145 -452 -344l-21 -4q-4 0 -4 2q0 10 70 67l141 117q180 158 264 258q-18 141 -137 244q-82 72 -190 113q-166 -207 -445 -576q-451 -598 -547 -823zM1620 1368h2q264 -63 371 -258 q25 61 24.5 136t-63 163t-201.5 121q-18 -21 -133 -162z" />
<glyph unicode="&#xd9;" horiz-adv-x="2017" d="M35 469q0 395 745 930q152 102 359 184t374 82q86 0 166 -33t80 -109.5t-90 -219t-280.5 -400.5t-322.5 -482t-132 -312q0 -43 37 -43q68 0 254 141q442 338 1042 1096q96 121 154 120q23 0 22 -22q0 -10 -8 -25q4 -8 4 -16q0 -53 -61 -143l-297 -420 q-182 -262 -320.5 -496.5t-128.5 -275.5l45 16q127 70 219 164q33 25 41 24l5 -6q0 -23 -68 -94q-176 -154 -252 -154t-76 47.5t135.5 297t432.5 688.5q-51 -61 -160 -179q-618 -635 -742 -733q-184 -143 -344 -143q-109 0 -108 76q0 129 333.5 599t405.5 578 q154 238 154 324q0 43 -33 51q-61 27 -141 27q-276 0 -709 -295q-281 -197 -466 -460t-185 -435q0 -123 100 -142q41 -6 80 -6q129 0 266 82q68 41 170 133l45 17q-47 -92 -199.5 -185.5t-314.5 -93.5q-37 0 -87 10.5t-97 73t-47 162.5zM1851 1835q0 31 25 31q39 0 307 -226 q10 -8 10 -16q0 -14 -14 -14t-138 74.5t-157 97t-33 53.5z" />
<glyph unicode="&#xda;" horiz-adv-x="2017" d="M35 469q0 395 745 930q152 102 359 184t374 82q86 0 166 -33t80 -109.5t-90 -219t-280.5 -400.5t-322.5 -482t-132 -312q0 -43 37 -43q68 0 254 141q442 338 1042 1096q96 121 154 120q23 0 22 -22q0 -10 -8 -25q4 -8 4 -16q0 -53 -61 -143l-297 -420 q-182 -262 -320.5 -496.5t-128.5 -275.5l45 16q127 70 219 164q33 25 41 24l5 -6q0 -23 -68 -94q-176 -154 -252 -154t-76 47.5t135.5 297t432.5 688.5q-51 -61 -160 -179q-618 -635 -742 -733q-184 -143 -344 -143q-109 0 -108 76q0 129 333.5 599t405.5 578 q154 238 154 324q0 43 -33 51q-61 27 -141 27q-276 0 -709 -295q-281 -197 -466 -460t-185 -435q0 -123 100 -142q41 -6 80 -6q129 0 266 82q68 41 170 133l45 17q-47 -92 -199.5 -185.5t-314.5 -93.5q-37 0 -87 10.5t-97 73t-47 162.5zM1995 1575q0 6 8 14l264 205 q25 23 45.5 23t20.5 -29t-26 -53.5t-152.5 -101.5t-143 -76.5t-16.5 18.5z" />
<glyph unicode="&#xdb;" horiz-adv-x="2017" d="M35 469q0 395 745 930q152 109 359 187.5t374 78.5q86 0 166 -33t80 -109.5t-90 -219t-280.5 -400.5t-322.5 -482t-132 -312q0 -43 37 -43q68 0 254 141q442 338 1042 1096q96 121 154 120q23 0 22 -22q0 -10 -8 -25q4 -8 4 -16q0 -53 -61 -143l-297 -420 q-182 -262 -320.5 -496.5t-128.5 -275.5l45 16q127 70 219 164q33 25 41 24l5 -6q0 -23 -68 -94q-176 -154 -252 -154t-76 47.5t135.5 297t432.5 688.5q-51 -61 -160 -179q-618 -635 -742 -733q-184 -143 -344 -143q-109 0 -108 76q0 129 333.5 599t405.5 578 q154 238 154 324q0 43 -33 51q-61 27 -141 27q-276 0 -709 -295q-281 -197 -466 -460t-185 -435q0 -123 100 -142q41 -6 80 -6q129 0 266 82q68 41 170 133l45 17q-47 -92 -199.5 -185.5t-314.5 -93.5q-37 0 -87 10.5t-97 73t-47 162.5zM1907 1722q0 8 24 31 q193 117 250 166q76 63 90 63q39 0 144.5 -116.5t109.5 -131t4 -18.5q0 -27 -20.5 -26.5t-108.5 81t-143 113.5q-14 -10 -84 -53t-130.5 -83t-80.5 -42q-55 -17 -55 16z" />
<glyph unicode="&#xdc;" horiz-adv-x="2017" d="M35 469q0 395 745 930q152 109 359 187.5t374 78.5q86 0 166 -33t80 -109.5t-90 -219t-280.5 -400.5t-322.5 -482t-132 -312q0 -43 37 -43q68 0 254 141q442 338 1042 1096q96 121 154 120q23 0 22 -22q0 -10 -8 -25q4 -8 4 -16q0 -53 -61 -143l-297 -420 q-182 -262 -320.5 -496.5t-128.5 -275.5l45 16q127 70 219 164q33 25 41 24l5 -6q0 -23 -68 -94q-176 -154 -252 -154t-76 47.5t135.5 297t432.5 688.5q-51 -61 -160 -179q-618 -635 -742 -733q-184 -143 -344 -143q-109 0 -108 76q0 129 333.5 599t405.5 578 q154 238 154 324q0 43 -33 51q-61 27 -141 27q-276 0 -709 -295q-281 -197 -466 -460t-185 -435q0 -123 100 -142q41 -6 80 -6q129 0 266 82q68 41 170 133l45 17q-47 -92 -199.5 -185.5t-314.5 -93.5q-37 0 -87 10.5t-97 73t-47 162.5zM1919 1696.5q0 29.5 74 81.5 q76 53 116 53q2 0 7 -2q-2 0 -35 -45l-41 -101q-29 -70 -68 -69q-18 0 -35.5 26.5t-17.5 56zM2116 1829h2v-2q0 2 -2 2zM2224 1696.5q0 29.5 74 81.5q76 53 115 53l8 -2q-2 0 -35 -45l-41 -101q-31 -70 -68 -69q-18 0 -35.5 26.5t-17.5 56zM2421 1829h2v-2q0 2 -2 2z" />
<glyph unicode="&#xdd;" horiz-adv-x="2220" d="M35 690q0 342 502 701q145 106 384.5 191t387 85t224.5 -46t77 -148.5t-141.5 -317.5t-446.5 -586q-61 -74 -114.5 -190.5t-53.5 -186t54.5 -69.5t162.5 78q307 219 613.5 531t449.5 525q102 147 219 148q39 0 39 -25q0 -4 -4 -20q-317 -553 -864 -1471 q-162 -264 -344.5 -396t-333.5 -132q-94 0 -186.5 67.5t-92.5 151.5q0 51 54 51q12 0 36 -4q31 -106 52 -143q43 -68 145 -68q309 0 760 846l454 809q-487 -520 -689.5 -723t-276.5 -248q-152 -90 -250 -90q-143 0 -143 168q0 203 170 416q12 16 107 131t222 273.5t211 305 t84 206t-35 77.5q-74 37 -165 37q-266 0 -738 -321q-197 -133 -313.5 -309.5t-116.5 -326t146 -186.5q45 -12 88 -12q127 0 284 111q182 123 205 131q-25 -94 -199 -205q-190 -119 -356 -119q-23 0 -85 9.5t-122.5 92t-60.5 201.5zM1894 1657q0 12 11 20l264 205 q29 23 43 23q23 0 22.5 -31t-20.5 -49q-23 -18 -154 -99t-148.5 -81t-17.5 12z" />
<glyph unicode="&#xde;" horiz-adv-x="413" d="M-133 -463q0 125 184 408l871 1327q100 166 114 219t-30 53l-95 -18q-14 0 -12 16q12 37 104.5 37t130 -27.5t37.5 -55.5t-6 -53.5t-70.5 -127t-156.5 -252t-121 -191.5q25 23 101 46q94 25 135 24q90 0 157.5 -51t67.5 -149.5t-59.5 -213t-178.5 -209.5 q-178 -137 -401 -137q-113 0 -159 13.5t-95 60.5q-438 -641 -438 -752q0 -31 33 -30l86 26q8 0 2 -4q-4 -18 -42 -34.5t-59 -16.5q-100 0 -100 92zM416 299q53 -47 190 -47q195 0 334 108q209 166 209 416q0 96 -113.5 96t-206.5 -49q-37 -16 -110 -92q-262 -371 -303 -432z " />
<glyph unicode="&#xdf;" horiz-adv-x="1462" d="M-1114 -604q0 82 53 174l39 35q6 14 29 14l4 -2q-70 -86 -70 -171t63.5 -137t184.5 -52t219 77q209 160 399.5 439.5t309.5 539.5q391 850 552.5 1105t360.5 255q168 0 254 -63.5t86 -247.5q0 -133 -83 -209t-251 -131q-72 -25 -110.5 -42t-82.5 -62.5t-44 -106.5 q0 -98 176 -149q283 -57 348 -103q90 -68 90 -156q0 -133 -131 -244.5t-284.5 -160.5t-284.5 -49q-12 0 -119 18q18 -10 95 -41.5t95.5 -37t18.5 -9.5q0 -10 -24.5 -10t-106.5 37t-121 65q-109 16 -154 60q-35 27 -61.5 77t-26.5 97t32 87t79 40q43 0 51 -72 q10 -74 21.5 -114t23.5 -81.5t43 -68.5q55 -14 111 -14q252 0 491 192q113 90 113 187.5t-127 130.5l-273 67q-82 23 -132 76t-50 119q0 111 88 189.5t208 116.5t193.5 123t73.5 191.5t-57 173t-154.5 66.5t-204 -133t-212 -347t-222 -471t-251 -515.5t-279.5 -472.5 t-327.5 -348t-372.5 -134q-135 0 -212 58.5t-77 144.5zM354 216q0 -87 70 -155q35 -37 90 -53q-63 61 -94 230q-12 66 -19 65q-47 0 -47 -87z" />
<glyph unicode="&#xe0;" horiz-adv-x="1036" d="M-23 164q0 184 257.5 439t470.5 255q84 0 112 -57q6 -20 11.5 -33.5t7.5 -13.5l36 6q27 0 52.5 -23.5t25.5 -35t-156.5 -242t-156.5 -320.5q0 -8 2 -16q14 -57 55 -57q131 0 480 434q8 8 18 8t10 -18.5t-22 -49.5q-324 -430 -492 -430q-23 0 -43 8q-111 43 -110 166 q0 43 10 86l-160 -151q-145 -131 -212 -131t-128 43q-68 49 -68 133zM84 133q0 -90 61 -90q143 0 396 319q248 336 270 369q-20 35 -66 35q-154 0 -407.5 -238.5t-253.5 -394.5zM571 1172.5q0 25.5 19.5 25.5t130 -84t122 -96t11.5 -19q0 -14 -12 -14q-18 0 -117.5 60.5 t-134.5 91.5q-19 10 -19 35.5z" />
<glyph unicode="&#xe1;" horiz-adv-x="1036" d="M-23 164q0 184 257.5 439t470.5 255q84 0 112 -57q6 -20 11.5 -33.5t7.5 -13.5l36 6q27 0 52.5 -23.5t25.5 -35t-156.5 -242t-156.5 -320.5q0 -8 2 -16q14 -57 55 -57q131 0 480 434q8 8 18 8t10 -18.5t-22 -49.5q-324 -430 -492 -430q-23 0 -43 8q-111 43 -110 166 q0 43 10 86l-160 -151q-145 -131 -212 -131t-128 43q-68 49 -68 133zM84 133q0 -90 61 -90q143 0 396 319q248 336 270 369q-20 35 -66 35q-154 0 -407.5 -238.5t-253.5 -394.5zM705 1065q0 8 8 16l266 207q29 23 43 23q23 0 22.5 -31t-18.5 -51q-23 -16 -157 -97t-149 -81 t-15 14z" />
<glyph unicode="&#xe2;" horiz-adv-x="1036" d="M-23 164q0 184 257.5 439t470.5 255q84 0 112 -57q6 -20 11.5 -33.5t7.5 -13.5l36 6q27 0 52.5 -23.5t25.5 -35t-156.5 -242t-156.5 -320.5q0 -8 2 -16q14 -57 55 -57q131 0 480 434q8 8 18 8t10 -18.5t-22 -49.5q-324 -430 -492 -430q-23 0 -43 8q-111 43 -110 166 q0 43 10 86l-160 -151q-145 -131 -212 -131t-128 43q-68 49 -68 133zM84 133q0 -90 61 -90q143 0 396 319q248 336 270 369q-20 35 -66 35q-154 0 -407.5 -238.5t-253.5 -394.5zM655 969.5q0 15.5 85 86t110 74.5l8 -2q59 -66 180 -153l6 -14l-6 -11q-29 0 -104.5 47 t-104.5 78q-143 -121 -163 -121q-11 0 -11 15.5z" />
<glyph unicode="&#xe3;" horiz-adv-x="1036" d="M-23 164q0 184 257.5 439t470.5 255q84 0 112 -57q6 -20 11.5 -33.5t7.5 -13.5l36 6q27 0 52.5 -23.5t25.5 -35t-156.5 -242t-156.5 -320.5q0 -8 2 -16q14 -57 55 -57q131 0 480 434q8 8 18 8t10 -18.5t-22 -49.5q-324 -430 -492 -430q-23 0 -43 8q-111 43 -110 166 q0 43 10 86l-160 -151q-145 -131 -212 -131t-128 43q-68 49 -68 133zM84 133q0 -90 61 -90q143 0 396 319q248 336 270 369q-20 35 -66 35q-154 0 -407.5 -238.5t-253.5 -394.5zM662 1022q0 33 79 74q33 18 68 18l174 -39q45 0 76 39q4 2 8 2t4 -8q0 -25 -48 -57.5 t-76.5 -32.5t-90.5 22q-53 25 -84 25t-106 -47q-4 2 -4 4z" />
<glyph unicode="&#xe4;" horiz-adv-x="1036" d="M-23 164q0 184 257.5 439t470.5 255q84 0 112 -57q6 -20 11.5 -33.5t7.5 -13.5l36 6q27 0 52.5 -23.5t25.5 -35t-156.5 -242t-156.5 -320.5q0 -8 2 -16q14 -57 55 -57q131 0 480 434q8 8 18 8t10 -18.5t-22 -49.5q-324 -430 -492 -430q-23 0 -43 8q-111 43 -110 166 q0 43 10 86l-160 -151q-145 -131 -212 -131t-128 43q-68 49 -68 133zM84 133q0 -90 61 -90q143 0 396 319q248 336 270 369q-20 35 -66 35q-154 0 -407.5 -238.5t-253.5 -394.5zM666 1061q0 33 62.5 76t78.5 43t18 -4v-2l-26 -35l-35 -80q-23 -55 -55 -55q-16 0 -29.5 20.5 t-13.5 36.5zM911 1061q0 33 63.5 76t80 43t18.5 -4v4q2 -4 2 -6q-14 -20 -31 -35l-34 -80q-23 -55 -54 -55q-14 0 -29.5 20.5t-15.5 36.5z" />
<glyph unicode="&#xe5;" horiz-adv-x="1036" d="M-23 168q0 184 242 422q266 266 479 268q-12 27 -12 68t27.5 101t70.5 75q41 80 127 80q45 0 77 -39t32 -107.5t-62.5 -140.5t-146.5 -82q6 -6 10 -22q8 -37 15 -37l36 6q27 0 52.5 -22.5t25.5 -35t-156.5 -243t-156.5 -320.5q0 -8 2 -16q14 -57 55 -57q131 0 480 434 q8 8 18 8t10 -18.5t-22 -49.5q-324 -430 -492 -430q-23 0 -43 8q-111 43 -110 166q0 43 10 86l-158 -151q-147 -131 -214 -131t-128 43q-68 49 -68 137zM84 133q0 -90 61 -90q147 0 400 319l266 369q-20 35 -66 35q-154 0 -407.5 -238.5t-253.5 -394.5zM778 912.5 q0 -50.5 39 -50.5q57 0 100.5 58.5t43.5 137.5t-56 79q-27 0 -74 -35l27 -15q-2 -6 -41 -65t-39 -109.5z" />
<glyph unicode="&#xe6;" horiz-adv-x="708" d="M33 61q0 104 102 261q141 205 279 204q70 0 104 -51q66 59 135 60q51 0 51.5 -63.5t-93 -151t-165.5 -113.5q-16 -51 -16 -88q0 -84 76 -84q147 0 303 180q20 18 28.5 18t8.5 -7t-2 -11q-47 -80 -160 -152.5t-185.5 -72.5t-101.5 28q-16 35 -43 72q-8 51 -8 88t2 62 q-141 -250 -250 -250q-65 -1 -65 71zM102 96q0 -43 33 -43q70 0 170 168q76 121 121 236q-6 2 -20 2q-88 0 -196 -134.5t-108 -228.5zM459 250q59 27 121.5 87t62.5 114q0 23 -27 22q-33 0 -88 -89t-69 -134z" />
<glyph unicode="&#xe7;" horiz-adv-x="712" d="M-197 -678q0 12 23 21q121 20 182 26q88 29 88 148q0 33 -65.5 127t-65.5 154.5t32 118.5t87 81q-104 49 -104 158q0 176 222 408.5t398 232.5q57 0 94 -32t37 -86t-32.5 -113.5t-98 -59.5t-65.5 41q0 27 33.5 84t33.5 60t-8 3q-70 -6 -191.5 -99t-169.5 -157l-98 -143 q-25 -41 -36 -96.5t-11 -83t32 -62.5t89 -35q127 0 313.5 147.5t286.5 280.5q12 14 29.5 14.5t17.5 -10t-12 -24.5q-139 -184 -332 -321.5t-322 -137.5q-35 0 -45 5t-12 5q-80 -41 -80 -149q0 -27 74 -121t74 -164q0 -117 -122 -182.5t-253 -65.5q-23 0 -23 27z" />
<glyph unicode="&#xe8;" horiz-adv-x="647" d="M-84 156q0 176 222 408.5t399 232.5q57 0 94 -32t37 -77q0 -141 -213 -270t-346 -129q-20 0 -35 6q-39 -68 -39 -143q0 -131 125 -131.5t323 167.5q150 119 262 265q23 31 39.5 30.5t16.5 -15.5t-21 -42q-141 -184 -329.5 -321.5t-321.5 -137.5q-29 0 -51 8 q-162 46 -162 181zM111 350q16 -4 32 -4q96 0 256 101.5t201 222.5q4 12 4 22q0 31 -64.5 31t-181.5 -98q-159 -132 -247 -275zM381 1091.5q0 26.5 17.5 26.5t59.5 -29.5t199 -158.5q8 -8 9 -12q0 -12 -11 -13q-20 0 -258 146q-16 14 -16 40.5z" />
<glyph unicode="&#xe9;" horiz-adv-x="647" d="M-84 156q0 176 222 408.5t399 232.5q57 0 94 -32t37 -77q0 -141 -213 -270t-346 -129q-20 0 -35 6q-39 -68 -39 -143q0 -131 125 -131.5t323 167.5q150 119 262 265q23 31 39.5 30.5t16.5 -15.5t-21 -42q-141 -184 -329.5 -321.5t-321.5 -137.5q-29 0 -51 8 q-162 46 -162 181zM111 350q16 -4 32 -4q96 0 256 101.5t201 222.5q4 12 4 22q0 31 -64.5 31t-181.5 -98q-159 -132 -247 -275zM557 942q0 8 8 14q125 96 264 207q27 20 43 21q25 0 25 -32t-25 -48q-27 -23 -155.5 -99.5t-144 -76.5t-15.5 14z" />
<glyph unicode="&#xea;" horiz-adv-x="647" d="M-84 156q0 176 222 408.5t399 232.5q57 0 94 -32t37 -77q0 -141 -213 -270t-346 -129q-20 0 -35 6q-39 -68 -39 -143q0 -131 125 -131.5t323 167.5q150 119 262 265q23 31 39.5 30.5t16.5 -15.5t-21 -42q-141 -184 -329.5 -321.5t-321.5 -137.5q-29 0 -51 8 q-162 46 -162 181zM111 350q16 -4 32 -4q96 0 256 101.5t201 222.5q4 12 4 22q0 31 -64.5 31t-181.5 -98q-159 -132 -247 -275zM430 902.5q0 15.5 86 86t109 74.5l10 -4q57 -63 178 -154l8 -14l-8 -12q-33 6 -107.5 53t-101.5 74q-145 -119 -159.5 -119t-14.5 15.5z" />
<glyph unicode="&#xeb;" horiz-adv-x="647" d="M-84 156q0 176 222 408.5t399 232.5q57 0 94 -32t37 -77q0 -141 -213 -270t-346 -129q-20 0 -35 6q-39 -68 -39 -143q0 -131 125 -131.5t323 167.5q150 119 262 265q23 31 39.5 30.5t16.5 -15.5t-21 -42q-141 -184 -329.5 -321.5t-321.5 -137.5q-29 0 -51 8 q-162 46 -162 181zM111 350q16 -4 32 -4q96 0 256 101.5t201 222.5q4 12 4 22q0 31 -64.5 31t-181.5 -98q-159 -132 -247 -275zM473 931.5q0 24.5 62 65.5q59 45 92 45q6 0 8 -2v-2q-14 -20 -31 -34q-20 -57 -38.5 -98.5t-49.5 -41.5q-14 0 -28.5 21.5t-14.5 46zM721 931.5 q0 24.5 62.5 67.5t93.5 43q2 0 8 -4l-31 -34l-35 -84q-23 -55 -55 -56q-16 0 -29.5 21.5t-13.5 46z" />
<glyph unicode="&#xec;" d="M-37 139q0 135 148.5 376t238.5 243q25 0 56.5 -19.5t31.5 -40.5q-12 -18 -29.5 -39.5t-38 -46t-55 -71.5t-67.5 -90q-190 -244 -190.5 -335t69.5 -91q90 0 250 134t233 214q16 25 33 24q10 0 10 -14q0 -76 -229 -245t-313 -169q-148 0 -148 170zM250 1086.5 q0 23.5 18.5 23.5t123 -79t124 -96t19.5 -27.5t-14.5 -10.5t-121 62.5t-129.5 82.5q-20 21 -20 44.5z" />
<glyph unicode="&#xed;" d="M-37 139q0 135 148.5 376t238.5 243q25 0 56.5 -19.5t31.5 -40.5q-12 -18 -29.5 -39.5t-38 -46t-55 -71.5t-67.5 -90q-190 -244 -190.5 -335t69.5 -91q90 0 250 134t233 214q16 25 33 24q10 0 10 -14q0 -76 -229 -245t-313 -169q-148 0 -148 170zM401 849q0 9 7 17 l268 209q25 23 39 23q27 0 26.5 -30t-20.5 -50q-29 -20 -158 -99t-145.5 -79t-16.5 9z" />
<glyph unicode="&#xee;" d="M-37 139q0 135 148.5 376t238.5 243q25 0 56.5 -19.5t31.5 -40.5q-12 -18 -29.5 -39.5t-38 -46t-55 -71.5t-67.5 -90q-190 -244 -190.5 -335t69.5 -91q90 0 250 134t233 214q16 25 33 24q10 0 10 -14q0 -76 -229 -245t-313 -169q-148 0 -148 170zM270 886.5q0 14.5 85 85 t108 77.5l8 -5q47 -51 178 -155l8 -12l-4 -11q-31 0 -102.5 45t-108.5 82q-145 -121 -158.5 -121t-13.5 14.5z" />
<glyph unicode="&#xef;" d="M-37 139q0 135 148.5 376t238.5 243q25 0 56.5 -19.5t31.5 -40.5q-12 -18 -29.5 -39.5t-38 -46t-55 -71.5t-67.5 -90q-190 -244 -190.5 -335t69.5 -91q90 0 250 134t233 214q16 25 33 24q10 0 10 -14q0 -76 -229 -245t-313 -169q-148 0 -148 170zM270 967.5 q0 25.5 60 64.5q61 45 94 45q4 0 6 -2v-2q-14 -20 -29 -35q-14 -29 -32 -84q-27 -55 -56 -55q-16 0 -29.5 21.5t-13.5 47zM516 967.5q0 25.5 62 64.5q59 45 92 45q6 0 8 -2v-2l-29 -35l-35 -84q-23 -55 -55 -55q-14 0 -28.5 21.5t-14.5 47z" />
<glyph unicode="&#xf0;" horiz-adv-x="954" d="M25 221q0 78 36 195q68 176 252 395q88 109 181.5 157t168 48t130.5 -43q4 14 4 35q0 127 -109 413q-174 -31 -223 -30.5t-70.5 9.5t-13.5 34q0 27 57.5 43t220.5 30q-29 72 -93 184.5t-61 135t23.5 36t35 13.5t26.5 -4q78 -25 198 -352q201 16 252 16q68 0 68 -10 q-6 -37 -297 -88q78 -244 78 -492q0 -129 -29 -290.5t-141.5 -330.5t-267.5 -255q-104 -59 -203 -60q-223 0 -223 211zM156 184q0 -115 106 -114q63 0 161.5 57t207.5 205q125 180 145 387q8 33 8 57q0 76 -61 96l-23 5q-10 12 -41 12q-61 0 -162.5 -101.5t-187.5 -232.5 q-153 -236 -153 -371z" />
<glyph unicode="&#xf1;" horiz-adv-x="1013" d="M-88 223q0 14 61.5 75.5t234.5 280t198 218.5q68 0 67 -54q0 -16 -6 -30q-227 -315 -272 -475q586 586 712 585q12 2 23 2q70 0 69 -61q0 -12 -5 -25.5t-99 -136.5q-264 -313 -264 -452q0 -82 35 -82q57 0 177 99t208 206q20 20 30.5 20t10.5 -14t-59.5 -93 t-175.5 -184.5t-187 -105.5q-152 0 -152 170q0 100 103 276l159 263q-170 -125 -304 -274.5t-243.5 -291t-126.5 -141.5q-39 0 -60 31.5t-21 56.5q0 72 153 373q-27 -43 -203 -211q-31 -31 -47 -31t-16 6zM512 973q0 39 109 102q39 27 83 27t123.5 -26.5t131 -26.5t96.5 53 q4 2 9 2t5 -12q0 -39 -98 -107q-33 -20 -75 -20t-124 33.5t-124 33.5t-82 -32.5t-52 -32.5q-2 4 -2 6z" />
<glyph unicode="&#xf2;" horiz-adv-x="706" d="M-25 168q0 152 220.5 425t355.5 273q129 0 129 -135q0 -37 -12 -92q2 -6 47 -6t139 47q-2 -43 -199 -123q2 -10 2 -22q0 -88 -168 -295q-201 -244 -339 -244h-41q-66 0 -105 67q-29 48 -29 105zM94 166q0 -96 60 -96q109 0 274.5 196.5t165.5 282.5q-39 23 -100 117 q-86 0 -243 -202t-157 -298zM426 1170.5q0 23.5 18.5 23.5t131 -87t124 -98.5t11.5 -20.5t-12.5 -9t-120 63.5t-132.5 83.5q-20 21 -20 44.5z" />
<glyph unicode="&#xf3;" horiz-adv-x="706" d="M-25 168q0 152 220.5 425t355.5 273q129 0 129 -135q0 -37 -12 -92q2 -6 47 -6t139 47q-2 -43 -199 -123q2 -10 2 -22q0 -88 -168 -295q-201 -244 -339 -244h-41q-66 0 -105 67q-29 48 -29 105zM94 166q0 -96 60 -96q109 0 274.5 196.5t165.5 282.5q-39 23 -100 117 q-86 0 -243 -202t-157 -298zM643 993q0 6 6 15q127 96 264 206q29 20 43 21q27 0 27 -32t-27 -50q-25 -23 -154.5 -99.5t-144 -76.5t-14.5 16z" />
<glyph unicode="&#xf4;" horiz-adv-x="706" d="M-25 168q0 152 220.5 425t355.5 273q129 0 129 -135q0 -37 -12 -92q2 -6 47 -6t139 47q-2 -43 -199 -123q2 -10 2 -22q0 -88 -168 -295q-201 -244 -339 -244h-41q-66 0 -105 67q-29 48 -29 105zM94 166q0 -96 60 -96q109 0 274.5 196.5t165.5 282.5q-39 23 -100 117 q-86 0 -243 -202t-157 -298zM475 969.5q0 15.5 86 86t109 74.5l10 -2q55 -63 178 -155l8 -12l-8 -11q-27 0 -102.5 47t-106.5 78q-143 -121 -158.5 -121t-15.5 15.5z" />
<glyph unicode="&#xf5;" horiz-adv-x="706" d="M-25 168q0 152 220.5 425t355.5 273q129 0 129 -135q0 -37 -12 -92q2 -6 47 -6t139 47q-2 -43 -199 -123q2 -10 2 -22q0 -88 -168 -295q-201 -244 -339 -244h-41q-66 0 -105 67q-29 48 -29 105zM94 166q0 -96 60 -96q109 0 274.5 196.5t165.5 282.5q-39 23 -100 117 q-86 0 -243 -202t-157 -298zM418 1022q0 41 108 104q41 25 85 25t123 -26.5t133.5 -26.5t95.5 53q14 0 14 -10q0 -37 -100 -105q-33 -20 -73 -20t-119 32.5t-125 32.5t-87 -32q-55 -45 -55 -27z" />
<glyph unicode="&#xf6;" horiz-adv-x="706" d="M-25 168q0 152 220.5 425t355.5 273q129 0 129 -135q0 -37 -12 -92q2 -6 47 -6t139 47q-2 -43 -199 -123q2 -10 2 -22q0 -88 -168 -295q-201 -244 -339 -244h-41q-66 0 -105 67q-29 48 -29 105zM94 166q0 -96 60 -96q109 0 274.5 196.5t165.5 282.5q-39 23 -100 117 q-86 0 -243 -202t-157 -298zM532 1053q0 35 62.5 76.5t79 41.5t18.5 -2v-4l-26 -35l-35 -79q-25 -55 -58 -56q-14 0 -27.5 22t-13.5 36zM778 1053q0 35 63.5 76.5t80 41.5t18.5 -2v2q2 -2 2 -6q-14 -18 -31 -35l-34 -79q-23 -55 -54 -56q-14 0 -29.5 22t-15.5 36z" />
<glyph unicode="&#xf7;" horiz-adv-x="1021" d="M47 592q0 25 21.5 43t40.5 18h36l64 2h201h118l263 -2q143 0 206 6q2 -4 2 -10t-16 -18q-43 -27 -166 -46.5t-222 -36t-158.5 -16.5t-166.5 7q-223 16 -223 53zM358 352q0 74 95 74q39 0 72.5 -25.5t33.5 -56.5t-31.5 -55.5t-69.5 -24.5t-69 25.5t-31 62.5zM473 856 q0 74 96 74q37 0 72 -25.5t35 -56.5t-32 -55.5t-69.5 -24.5t-69.5 25.5t-32 62.5z" />
<glyph unicode="&#xf8;" horiz-adv-x="706" d="M-100 -352q0 156 141 370q-66 66 -66 150q0 152 220.5 425t355.5 273q51 0 82 -22q258 336 297 336q23 0 35 -13.5t12 -27t-78 -103.5t-221 -270l2 -35q0 -37 -12 -92q2 -6 47 -6t139 47q-2 -43 -199 -123q2 -10 2 -22q0 -88 -168 -295q-201 -244 -339 -244h-44 q-158 -238 -157 -318q0 -37 22 -49q8 -4 -2 -20.5t-39.5 -16t-29.5 55.5zM94 156q0 -25 4 -45q74 111 396 551v4q-86 0 -243 -202t-157 -308zM156 70q106 4 272 198.5t166 280.5q-25 12 -49 45q-303 -399 -389 -524z" />
<glyph unicode="&#xf9;" horiz-adv-x="1069" d="M-35 283.5q0 13.5 25 38.5l332 391q70 76 136 75.5t66 -45.5q0 -18 -16 -32q-100 -94 -253 -310.5t-153 -320.5q0 -45 31 -45q49 0 172 96l135 113q41 31 258 307q197 246 256 246q90 0 90 -72q0 -25 -104 -145q-143 -174 -219 -284t-76 -177.5t37 -67.5q18 0 41 10 q182 80 416 347q14 18 29.5 18t15.5 -12q0 -51 -254 -275q-164 -141 -225 -153q-12 -4 -53.5 -4t-83.5 32.5t-42 85t19.5 114.5t25.5 95l-221 -221q-131 -117 -233.5 -117t-112.5 129v17q0 102 125 278l-125 -110q-14 -14 -26.5 -14.5t-12.5 13zM537 1120.5q0 26.5 20 26.5 q31 0 254 -191q8 -6 8 -16t-11 -10t-118.5 65.5t-130 82t-22.5 43z" />
<glyph unicode="&#xfa;" horiz-adv-x="1069" d="M-35 283.5q0 13.5 25 38.5l332 391q70 76 136 75.5t66 -45.5q0 -18 -16 -32q-100 -94 -253 -310.5t-153 -320.5q0 -45 31 -45q49 0 172 96l135 113q41 31 258 307q197 246 256 246q90 0 90 -72q0 -25 -104 -145q-143 -174 -219 -284t-76 -177.5t37 -67.5q18 0 41 10 q182 80 416 347q14 18 29.5 18t15.5 -12q0 -51 -254 -275q-164 -141 -225 -153q-12 -4 -53.5 -4t-83.5 32.5t-42 85t19.5 114.5t25.5 95l-221 -221q-131 -117 -233.5 -117t-112.5 129v17q0 102 125 278l-125 -110q-14 -14 -26.5 -14.5t-12.5 13zM666 932q0 12 6 20 q80 55 268 205q27 23 43 23q23 0 23 -31t-21 -51q-23 -16 -154 -97t-148 -81t-17 12z" />
<glyph unicode="&#xfb;" horiz-adv-x="1069" d="M-35 283.5q0 13.5 25 38.5l332 391q70 76 136 75.5t66 -45.5q0 -18 -16 -32q-100 -94 -253 -310.5t-153 -320.5q0 -45 31 -45q49 0 172 96l135 113q41 31 258 307q197 246 256 246q90 0 90 -72q0 -25 -104 -145q-143 -174 -219 -284t-76 -177.5t37 -67.5q18 0 41 10 q182 80 416 347q14 18 29.5 18t15.5 -12q0 -51 -254 -275q-164 -141 -225 -153q-12 -4 -53.5 -4t-83.5 32.5t-42 85t19.5 114.5t25.5 95l-221 -221q-131 -117 -233.5 -117t-112.5 129v17q0 102 125 278l-125 -110q-14 -14 -26.5 -14.5t-12.5 13zM627 971.5q0 15.5 86 86 t108 77.5l10 -5q57 -66 179 -153l8 -14l-8 -11q-27 0 -98.5 44t-110.5 81q-145 -121 -164 -121q-10 0 -10 15.5z" />
<glyph unicode="&#xfc;" horiz-adv-x="1069" d="M-35 283.5q0 13.5 25 38.5l332 391q70 76 136 75.5t66 -45.5q0 -18 -16 -32q-100 -94 -253 -310.5t-153 -320.5q0 -45 31 -45q49 0 172 96l135 113q41 31 258 307q197 246 256 246q90 0 90 -72q0 -25 -104 -145q-143 -174 -219 -284t-76 -177.5t37 -67.5q18 0 41 10 q182 80 416 347q14 18 29.5 18t15.5 -12q0 -51 -254 -275q-164 -141 -225 -153q-12 -4 -53.5 -4t-83.5 32.5t-42 85t19.5 114.5t25.5 95l-221 -221q-131 -117 -233.5 -117t-112.5 129v17q0 102 125 278l-125 -110q-14 -14 -26.5 -14.5t-12.5 13zM637 1009.5 q0 22.5 61.5 66.5t94.5 44q4 0 6 -2v2q2 -2 2 -4q-14 -20 -31 -35l-35 -82q-23 -55 -53 -55q-14 0 -29.5 21.5t-15.5 44zM887 1009.5q0 22.5 60.5 66.5t78.5 44t23 -2v-2q-16 -20 -31 -35l-33 -82q-25 -55 -55 -55q-16 0 -29.5 21.5t-13.5 44z" />
<glyph unicode="&#xfd;" horiz-adv-x="931" d="M-141 -293q121 -150 209 -149q143 0 309 227q123 170 237 426l97 231l-371 -288q-172 -133 -274 -134q-55 0 -88 38t-33 85q0 109 186 357t272 248t86 -58q0 -23 -223 -261.5t-223 -319.5q0 -33 43 -33q80 0 323.5 188.5t366.5 313.5q27 33 78 98q47 55 105.5 55 t58.5 -55q0 -10 -113.5 -179t-118.5 -180q-78 -152 -239 -440q-244 -393 -490 -393q-80 0 -140 69.5t-58 153.5zM692 856q0 12 10 21l265 204q27 23 46 23t19 -31t-20 -51q-23 -16 -154 -97t-148.5 -81t-17.5 12z" />
<glyph unicode="&#xfe;" horiz-adv-x="681" d="M-199 -573.5q0 24.5 4 38.5q43 162 166 361l750 1112q100 166 113 219q16 51 -31 51l-92 -16q-16 0 -13 14q12 39 104.5 39t130.5 -27.5t38 -55t-7.5 -53.5t-95.5 -166t-168 -253q25 23 101 45q96 25 137 25q90 0 156.5 -51.5t66.5 -139.5q0 -205 -233.5 -387 t-403.5 -182q-115 0 -161 14.5t-93 61.5q-401 -588 -401 -690q0 -31 33 -31l86 29q8 0 2 -7q-4 -16 -42 -32.5t-71 -16.5t-54.5 37t-21.5 61.5zM299 119q53 -49 192.5 -49t340 157.5t200.5 366.5q0 96 -112.5 96t-206.5 -47q-35 -18 -111 -94q-262 -371 -303 -430z" />
<glyph unicode="&#xff;" horiz-adv-x="931" d="M-141 -293q121 -150 209 -149q143 0 309 227q123 170 237 426l97 231l-371 -288q-172 -133 -274 -134q-55 0 -88 38t-33 85q0 109 186 357t272 248t86 -58q0 -23 -223 -261.5t-223 -319.5q0 -33 43 -33q80 0 323.5 188.5t366.5 313.5q27 33 78 98q47 55 105.5 55 t58.5 -55q0 -10 -113.5 -179t-118.5 -180q-78 -152 -239 -440q-244 -393 -490 -393q-80 0 -140 69.5t-58 153.5zM524 946.5q0 28.5 74 81.5t115 53q2 0 8 -4q-2 0 -35 -45l-41 -100q-31 -68 -67 -68q-18 0 -36 27t-18 55.5zM721 1077h2v-2q0 2 -2 2zM829 946.5 q0 28.5 72 81.5q76 53 117 53l8 -4q-4 0 -37 -45l-39 -100q-31 -68 -69 -68q-16 0 -34 27t-18 55.5zM1026 1077h2v-2z" />
<glyph unicode="&#x152;" horiz-adv-x="3334" d="M61 302.5q0 193.5 103 422.5q131 291 512 565q438 311 905 312q252 0 383 -98.5t131 -243.5q0 -90 -70 -224q20 -70 20.5 -136t-17.5 -148q182 115 430 194q-82 96 -82 205t53 182q102 141 309 232q248 109 494 108q143 0 230 -47t87 -144.5t-71.5 -164t-149.5 -66.5 t-78 39q0 23 33 23l49 -8q51 0 92 54t41 111q0 86 -96 127q-63 25 -118.5 25t-78.5 -2q-215 -12 -424 -152q-242 -158 -241 -358q0 -72 49 -135q162 51 309 51q246 0 246 -94q0 -20 -14 -45q-61 -94 -220 -94q-104 0 -210.5 36.5t-165.5 77.5q-324 -96 -537 -315 q-57 -109 -149 -209q-51 -100 -52 -193q0 -139 117 -228t344 -89q63 0 131 8q401 43 637 258q199 176 199 369q0 154 -148 154q-178 0 -411 -191q-57 -47 -97.5 -121t-40.5 -144.5t70 -86.5q25 -10 25 -25q0 -27 -49 -20q-121 2 -121 157.5t157 292.5q217 186 459 187 q178 0 230 -113q20 -53 20 -106q0 -236 -260 -441q-309 -252 -787 -252q-293 0 -464.5 109.5t-171.5 286.5q-453 -344 -990 -345q-68 0 -106 5q-201 10 -323 132t-122 315.5zM197 254q0 -332 335 -350q35 -2 70 -2q496 0 944 401q324 287 348 547q-131 -145 -452 -344 l-21 -4q-4 0 -4 2q0 10 70 67l141 117q180 158 264 258q-18 141 -127.5 236.5t-251.5 138.5q-70 16 -217 21.5t-147 10.5t4 9q117 39 223.5 39t245.5 -33q264 -63 371 -258q25 61 24.5 136t-55.5 153q-109 150 -383 149q-381 0 -718 -235.5t-525 -591.5q-139 -260 -139 -467 zM2599 934q106 -84 248.5 -84t142.5 78q0 35 -126 35t-265 -29z" />
<glyph unicode="&#x153;" horiz-adv-x="1167" d="M-25 168q0 152 220.5 425t355.5 273q129 0 129 -135q0 -6 6 -40t4 -55.5t-3 -31.5t-1 -12q209 205 373 205q57 0 94 -32t37 -77q0 -141 -212 -270t-347 -129q-20 0 -37 6q-37 -68 -37 -143q0 -131 125 -131.5t324 167.5q147 119 262 265q23 31 39 30.5t16 -15.5t-20 -42 q-139 -184 -329 -321.5t-325 -137.5q-27 0 -49 8q-162 45 -162 181v26q-164 -186 -288 -186h-41q-66 0 -105 67q-29 48 -29 105zM94 166q0 -96 60 -96q109 0 276 200l62 76q16 31 73 113q29 53 29 78v34q0 98 -66 99q-14 0 -34 -4q-86 0 -243 -202t-157 -298zM633 350 q14 -4 33 -4q94 0 254.5 101.5t199.5 222.5q6 12 6 22q0 31 -64.5 31t-182.5 -98q-158 -132 -246 -275z" />
<glyph unicode="&#x178;" horiz-adv-x="2220" d="M35 690q0 342 502 701q145 106 384.5 191t387 85t224.5 -46t77 -148.5t-141.5 -317.5t-446.5 -586q-61 -74 -114.5 -190.5t-53.5 -186t54.5 -69.5t162.5 78q307 219 613.5 531t449.5 525q102 147 219 148q39 0 39 -25q0 -4 -4 -20q-317 -553 -864 -1471 q-162 -264 -344.5 -396t-333.5 -132q-94 0 -186.5 67.5t-92.5 151.5q0 51 54 51q12 0 36 -4q31 -106 52 -143q43 -68 145 -68q309 0 760 846l454 809q-487 -520 -689.5 -723t-276.5 -248q-152 -90 -250 -90q-143 0 -143 168q0 203 170 416q12 16 107 131t222 273.5t211 305 t84 206t-35 77.5q-74 37 -165 37q-266 0 -738 -321q-197 -133 -313.5 -309.5t-116.5 -326t146 -186.5q45 -12 88 -12q127 0 284 111q182 123 205 131q-25 -94 -199 -205q-190 -119 -356 -119q-23 0 -85 9.5t-122.5 92t-60.5 201.5zM1753 1657q0 29 74 82q76 53 115 53 q4 0 8 -4q-2 0 -35 -45l-41 -101q-31 -68 -68 -67q-18 0 -35.5 26.5t-17.5 55.5zM1950 1788h2v-2q0 2 -2 2zM2058 1657q0 29 74 82t115 53l8 -4q-2 0 -35 -45l-41 -101q-31 -68 -68 -67q-18 0 -35.5 26.5t-17.5 55.5zM2255 1788h2v-2q0 2 -2 2z" />
<glyph unicode="&#x2c6;" horiz-adv-x="931" d="M201 938q0 6 26 29q190 117 248 168q76 61 92 61q37 0 148 -121q10 -10 59 -66.5t49 -80t-19.5 -23.5t-108.5 80t-144 113q-14 -10 -84 -52t-130.5 -83t-80.5 -43q-55 -15 -55 18z" />
<glyph unicode="&#x2dc;" horiz-adv-x="684" d="M74 1108q0 41 108 104q39 25 83 25t124 -26.5t131 -26.5t96 53q16 0 17 -10q0 -37 -101 -107q-33 -18 -74.5 -18t-123.5 33.5t-124 33.5t-82 -32.5t-52 -32.5q-2 2 -2 4z" />
<glyph unicode="&#x2000;" horiz-adv-x="1038" />
<glyph unicode="&#x2001;" horiz-adv-x="2078" />
<glyph unicode="&#x2002;" horiz-adv-x="1038" />
<glyph unicode="&#x2003;" horiz-adv-x="2078" />
<glyph unicode="&#x2004;" horiz-adv-x="692" />
<glyph unicode="&#x2005;" horiz-adv-x="518" />
<glyph unicode="&#x2006;" horiz-adv-x="346" />
<glyph unicode="&#x2007;" horiz-adv-x="346" />
<glyph unicode="&#x2008;" horiz-adv-x="258" />
<glyph unicode="&#x2009;" horiz-adv-x="415" />
<glyph unicode="&#x200a;" horiz-adv-x="114" />
<glyph unicode="&#x2010;" horiz-adv-x="747" d="M47 592q0 25 21.5 43t37 18t29.5 2h66h63l244 -2q147 0 211 6q2 -2 2 -6q0 -39 -199 -73q-109 -14 -204 -31t-120.5 -17t-88 11.5t-62.5 48.5z" />
<glyph unicode="&#x2011;" horiz-adv-x="747" d="M47 592q0 25 21.5 43t37 18t29.5 2h66h63l244 -2q147 0 211 6q2 -2 2 -6q0 -39 -199 -73q-109 -14 -204 -31t-120.5 -17t-88 11.5t-62.5 48.5z" />
<glyph unicode="&#x2012;" horiz-adv-x="747" d="M47 592q0 25 21.5 43t37 18t29.5 2h66h63l244 -2q147 0 211 6q2 -2 2 -6q0 -39 -199 -73q-109 -14 -204 -31t-120.5 -17t-88 11.5t-62.5 48.5z" />
<glyph unicode="&#x2013;" horiz-adv-x="1021" d="M47 592q0 25 21.5 43t40.5 18h36l64 2h201h118l263 -2q143 0 206 6q2 -4 2 -10t-16 -18q-43 -27 -166 -46.5t-222 -36t-158.5 -16.5t-166.5 7q-223 16 -223 53z" />
<glyph unicode="&#x2014;" horiz-adv-x="1523" d="M47 557q0 27 24.5 61.5t39.5 34.5h51l102 2h297h160l471 -6q231 0 340 10q16 -39 -358 -79q-147 -12 -447 -43q-61 -18 -370.5 -18.5t-309.5 38.5z" />
<glyph unicode="&#x2018;" horiz-adv-x="315" d="M35 854q0 109 82 192.5t109.5 83.5t27.5 -6t-54.5 -66.5t-54.5 -99t35 -67.5t35 -45q0 -76 -76 -76q-37 0 -70.5 25.5t-33.5 58.5z" />
<glyph unicode="&#x2019;" horiz-adv-x="348" d="M133 745q10 12 26.5 30t30.5 36q53 57 53.5 96t-33.5 70t-34 45q0 76 74 76q37 0 70.5 -23.5t33.5 -58.5q0 -109 -82 -194t-118 -85q-21 0 -21 8z" />
<glyph unicode="&#x201a;" horiz-adv-x="215" d="M135 178q53 8 67.5 8t16.5 -2v-6q0 -23 -20.5 -147.5t-26.5 -136.5q-4 -10 -16 -11q-6 0 -6 21q-1 161 -15 274z" />
<glyph unicode="&#x201c;" horiz-adv-x="518" d="M35 854q0 109 82 192.5t109.5 83.5t27.5 -6t-54.5 -66.5t-54.5 -99t35 -67.5t35 -45q0 -76 -76 -76q-37 0 -70.5 25.5t-33.5 58.5zM289 854q0 109 82 192.5t111.5 83.5t29.5 -6t-55.5 -66.5t-55.5 -99t34 -67.5t34 -45q0 -76 -74 -76q-37 0 -71.5 24.5t-34.5 59.5z" />
<glyph unicode="&#x201d;" horiz-adv-x="518" d="M-12 745q10 12 26.5 30t30.5 36q53 57 53 96t-33.5 70t-33.5 45q0 76 71 76q39 0 73 -23.5t34 -58.5q0 -109 -82 -194t-119 -85q-20 0 -20 8zM244 744.5q0 7.5 54 68.5t54 97t-33.5 67t-33.5 45q0 76 75 76q37 0 70 -23.5t33 -58.5q0 -109 -80 -194t-109.5 -85t-29.5 7.5 z" />
<glyph unicode="&#x201e;" horiz-adv-x="391" d="M135 178q53 8 67.5 8t16.5 -2v-6q0 -23 -20.5 -147.5t-26.5 -136.5q-4 -10 -16 -11q-6 0 -6 21q-1 161 -15 274zM309 178q53 8 67.5 8t16.5 -2v-6q0 -23 -20.5 -147.5t-26.5 -136.5q-4 -10 -16 -11q-8 0 -8 21q-1 161 -13 274z" />
<glyph unicode="&#x2022;" horiz-adv-x="1351" d="M135 597q0 224 161 384t386 160t385 -160t160 -385t-160 -385t-384 -160t-388 158q-160 164 -160 388z" />
<glyph unicode="&#x2026;" horiz-adv-x="1398" d="M287 86q0 72 96 72q37 0 71.5 -24.5t34.5 -56.5t-32.5 -55.5t-70.5 -23.5t-68.5 26.5t-30.5 61.5zM702 86q0 72 97 72q37 0 71.5 -24.5t34.5 -56.5t-32.5 -55.5t-70.5 -23.5t-69 26.5t-31 61.5zM1108 86q0 72 96 72q37 0 72 -24.5t35 -56.5t-33 -55.5t-71 -23.5 t-68.5 26.5t-30.5 61.5z" />
<glyph unicode="&#x202f;" horiz-adv-x="415" />
<glyph unicode="&#x2039;" horiz-adv-x="856" d="M215 638q0 17 126 197.5t161 221.5t55.5 41t20.5 -15q0 -39 -250 -385q246 -315 245.5 -342.5t-22.5 -27.5q-4 0 -25 10q-70 98 -305 276q-6 7 -6 24z" />
<glyph unicode="&#x203a;" horiz-adv-x="755" d="M215 340q0 37 248 385q-246 315 -246 343t23 28q4 0 24 -11q72 -98 305 -276q8 -2 8.5 -21.5t-125.5 -199.5t-162 -221t-55.5 -41t-19.5 14z" />
<glyph unicode="&#x205f;" horiz-adv-x="518" />
<glyph unicode="&#x20ac;" horiz-adv-x="1826" d="M-168 592q0 25 20.5 43t38.5 18h39l62 2h135q35 96 82 189q-180 14 -180 51q0 27 20.5 43t38.5 16h39l154 7q270 385 680 559q279 119 536 118q135 0 236 -32q274 -86 274 -346q0 -135 -115 -281q-55 -68 -96 -68q-12 0 -24 7q-33 16 -9 55q10 12 25 22q115 123 115 285 t-121 240q-102 70 -273 69q-248 0 -497 -123q-330 -160 -588 -505l543 -5q213 0 346 7q12 -20 -55.5 -41t-204.5 -37l-371 -45q-23 -6 -121 -6t-219 2q-57 -100 -86 -181q92 2 168 2l354 -4q193 0 275 6q2 -2 2 -6q0 -39 -199 -63.5t-332 -43t-192.5 -18.5t-110.5 4 q-12 -59 -12 -131q0 -229 156.5 -354t388.5 -125q264 0 518 129q195 100 336 256q39 45 61 45q16 0 16.5 -26.5t-28.5 -53.5q-133 -141 -385 -272q-309 -164 -622.5 -164t-467.5 207q-104 135 -104 322q0 82 18 170l-43 4q-221 16 -221 53z" />
<glyph unicode="&#x2122;" horiz-adv-x="1650" d="M68 1544q18 33 310 54.5t382 21.5t90 -21q0 -33 -180.5 -50t-198.5 -52q-45 -86 -99.5 -261t-72.5 -235.5t-68 -166.5q-14 -23 -56 -23t-42 31.5t88 244.5t131 308q31 86 31 107.5t-70 21.5l-182 -13q-53 0 -63 33zM639 838.5q0 13.5 96 255.5q98 242 115 288 q2 43 13 128t59 85q18 0 32 -55q18 -98 50 -295q49 -217 133 -217q76 0 247 272q178 272 183 273q31 0 30 -70q0 -16 -12 -74.5t-20 -103.5q-8 -182 -35 -426q-29 -43 -88 -43q-29 0 -29 23q0 39 84 436q-266 -340 -387 -340q-127 0 -223 340q-29 -59 -73 -226t-73.5 -215.5 t-65.5 -48.5t-36 13.5z" />
<glyph unicode="&#xe000;" horiz-adv-x="1050" d="M0 1050h1050v-1050h-1050v1050z" />
<glyph unicode="&#xfb01;" horiz-adv-x="1177" d="M-612 -317q8 31 22 30q8 0 10 -18q14 -66 50 -100.5t73 -34.5q215 0 391 264q100 152 275 545l137 325q-252 4 -252 62q0 25 23.5 43t40.5 18l237 -6q248 549 455 549q78 0 158 -76q20 -20 20 -53q0 -78 -45 -78q-12 0 -27 21q-23 41 -75 40q-115 0 -215 -165 q-20 -33 -127 -238h30q274 0 365 8q10 -2 10 -10q0 -20 -178 -55q-168 -29 -277 -49q-80 -160 -190 -383q-225 -422 -299 -527q-219 -311 -428 -311q-74 0 -128 61.5t-56 137.5zM571 139q0 135 148.5 376t241.5 243q25 0 56.5 -19.5t31.5 -40.5q-12 -18 -31 -39.5t-38 -46 t-55 -71.5t-69 -90q-188 -244 -188 -336t63 -92q53 0 143 57q211 131 334 289q47 57 63.5 57t16.5 -20.5t-58.5 -81t-92 -95t-47 -46t-47 -43t-51 -44t-50.5 -38t-58.5 -37t-58.5 -25.5q-51 -25 -125 -25q-129 0 -129 168zM1061 956q0 72 96 72q37 0 71 -24.5t34 -57.5 t-32 -56.5t-69 -23.5t-68.5 27.5t-31.5 62.5z" />
<glyph unicode="&#xfb02;" horiz-adv-x="1261" d="M-612 -317q8 31 22 30q8 0 10 -18q14 -66 50 -100.5t73 -34.5q215 0 391 264q100 152 275 545l137 325q-252 4 -252 62q0 25 23.5 43t40.5 18l237 -6q248 549 455 549q78 0 158 -76q20 -20 20 -53q0 -78 -45 -78q-12 0 -27 21q-23 41 -75 40q-115 0 -215 -165 q-20 -33 -127 -238h30q266 0 336 6q270 438 391 438q27 0 53.5 -19t28.5 -42q-57 -78 -223 -300t-228.5 -318.5t-94 -144.5t-47 -74.5t-33.5 -69.5q-43 -86 -43 -161t82.5 -75t214 88t254.5 238q31 41 48 41t17 -15q0 -16 -102 -131q-252 -276 -422 -276q-82 0 -140.5 39 t-58.5 121t43 190q74 170 234 430v2q-61 -18 -171 -35.5t-219 -37.5q-80 -160 -190 -383q-225 -422 -299 -527q-219 -311 -428 -311q-74 0 -128 61.5t-56 137.5z" />
<glyph unicode="&#xfb03;" horiz-adv-x="1787" d="M1182 139q0 135 148.5 376t238.5 243q25 0 56.5 -19.5t31.5 -40.5q-12 -18 -29.5 -39.5t-38 -46t-55 -71.5t-67.5 -90q-190 -244 -190.5 -336t63.5 -92q53 0 143 57q211 131 336 289q45 57 61.5 57t16.5 -20.5t-58.5 -81t-92 -95t-46 -46t-46.5 -43t-52 -44t-51 -38 t-57.5 -37t-57.5 -25.5q-53 -25 -127 -25q-127 0 -127 168zM1670 956q0 72 96 72q37 0 71.5 -24.5t34.5 -57.5t-31.5 -56.5t-69.5 -23.5t-69.5 27.5t-31.5 62.5zM-2 -317q8 31 22 30q8 0 10 -18q14 -66 50 -100.5t73 -34.5q215 0 391 264q100 152 275 545l137 325 q-252 4 -252 62q0 25 23.5 43t40.5 18l237 -6q248 549 455 549q78 0 158 -76q20 -20 20 -53q0 -78 -45 -78q-12 0 -27 21q-23 41 -75 40q-115 0 -215 -165q-20 -33 -127 -238h30q274 0 365 8q10 -2 10 -10q0 -20 -178 -55q-168 -29 -277 -49q-80 -160 -190 -383 q-225 -422 -299 -527q-219 -311 -428 -311q-74 0 -128 61.5t-56 137.5zM-612 -317q8 31 22 30q8 0 10 -18q14 -66 50 -100.5t73 -34.5q215 0 391 264q100 152 275 545l137 325q-252 4 -252 62q0 25 23.5 43t40.5 18l237 -6q248 549 455 549q78 0 158 -76q20 -20 20 -53 q0 -78 -45 -78q-12 0 -27 21q-23 41 -75 40q-115 0 -215 -165q-20 -33 -127 -238h30q274 0 365 8q10 -2 10 -10q0 -20 -178 -55q-168 -29 -277 -49q-80 -160 -190 -383q-225 -422 -299 -527q-219 -311 -428 -311q-74 0 -128 61.5t-56 137.5z" />
<glyph unicode="&#xfb04;" horiz-adv-x="1830" d="M1211 156q0 82 43 190q74 170 235 430q295 479 418 479q25 0 51.5 -19t28.5 -42q-57 -78 -222 -300t-229 -319l-95 -144q-32 -48 -46 -74.5t-35 -69.5q-43 -86 -43 -161t83 -75t214 88t254 238q31 41 48.5 41t17.5 -15q0 -16 -103 -131q-252 -276 -422 -276 q-82 0 -140 39t-58 121zM-2 -317q8 31 22 30q8 0 10 -18q14 -66 50 -100.5t73 -34.5q215 0 391 264q100 152 275 545l137 325q-252 4 -252 62q0 25 23.5 43t40.5 18l237 -6q248 549 455 549q78 0 158 -76q20 -20 20 -53q0 -78 -45 -78q-12 0 -27 21q-23 41 -75 40 q-115 0 -215 -165q-20 -33 -127 -238h30q274 0 365 8q10 -2 10 -10q0 -20 -178 -55q-168 -29 -277 -49q-80 -160 -190 -383q-225 -422 -299 -527q-219 -311 -428 -311q-74 0 -128 61.5t-56 137.5zM-612 -317q8 31 22 30q8 0 10 -18q14 -66 50 -100.5t73 -34.5q215 0 391 264 q100 152 275 545l137 325q-252 4 -252 62q0 25 23.5 43t40.5 18l237 -6q248 549 455 549q78 0 158 -76q20 -20 20 -53q0 -78 -45 -78q-12 0 -27 21q-23 41 -75 40q-115 0 -215 -165q-20 -33 -127 -238h30q274 0 365 8q10 -2 10 -10q0 -20 -178 -55q-168 -29 -277 -49 q-80 -160 -190 -383q-225 -422 -299 -527q-219 -311 -428 -311q-74 0 -128 61.5t-56 137.5z" />
</font>
</defs>
</svg>
