<?xml version="1.0" standalone="no"?>
<!DOCTYPE svg PUBLIC "-//W3C//DTD SVG 1.1//EN" "http://www.w3.org/Graphics/SVG/1.1/DTD/svg11.dtd" >
<svg xmlns="http://www.w3.org/2000/svg">
<metadata>
This is a custom SVG webfont generated by Font Squirrel.
Copyright   : Copyright c 2010 Barry Schwartz crudfactorycom
Foundry URL : httpsortsmillgooglecodecom
</metadata>
<defs>
<font id="GoudyBookletter1911Regular" horiz-adv-x="570" >
<font-face units-per-em="2048" ascent="1510" descent="-538" />
<missing-glyph horiz-adv-x="628" />
<glyph unicode=" "  horiz-adv-x="628" />
<glyph unicode="&#x09;" horiz-adv-x="628" />
<glyph unicode="&#xa0;" horiz-adv-x="628" />
<glyph unicode="!" horiz-adv-x="816" d="M274 1540q0 36 32 56q172 102 184 102q24 0 24 -64v-60q0 -244 -26 -494t-49 -378t-39 -170q-12 -40 -44 -40q-36 0 -36 74v44q-2 88 -5 178t-6 165t-7 145t-8 128t-6 108t-5 87t-5 64t-2 41zM288 89q0 57 38 91t92 34q52 0 90 -37t38 -91q0 -52 -37 -89t-91 -37t-92 36 t-38 93z" />
<glyph unicode="&#x22;" horiz-adv-x="978" d="M96 1206v4q0 12 148 450q52 140 134 140q42 0 67 -28t25 -68q0 -34 -34 -98q-32 -56 -95 -167l-105 -185q-42 -74 -44 -78q-20 -24 -46 -24q-22 0 -36 16t-14 38zM512 1206v4q0 12 150 450q44 140 136 140q38 0 63 -28t25 -67t-32 -99q-34 -58 -96 -168t-104 -184 t-46 -78q-20 -24 -48 -24q-22 0 -35 16t-13 38z" />
<glyph unicode="#" horiz-adv-x="1388" d="M136 442q0 38 7 53t35 15h218q8 0 8 4q48 344 48 362q0 12 -16 12h-254q-46 0 -46 56q0 60 46 60h270q26 0 26 20q38 268 60 450q8 52 10 56q12 20 60 20h2q50 0 50 -34q0 -10 -35 -251t-35 -249q0 -12 20 -12h260q22 0 26 16l74 512q12 18 42 18h6h18q40 0 40 -30 q0 -12 -34 -252t-34 -252t12 -12h186q48 0 48 -66q0 -50 -38 -50h-218q-10 0 -14 -14q-4 -48 -17 -136t-21 -149t-8 -65q0 -14 16 -14h256q44 0 44 -57t-44 -57h-262q-28 0 -32 -28q-64 -446 -68 -452q-12 -24 -54 -24q-52 0 -52 34q0 10 31 230t31 226q0 14 -22 14h-172 q-76 0 -92 -4t-18 -16q-64 -458 -68 -462q-12 -22 -61 -22t-49 34q0 8 32 228t32 224q0 18 -24 18h-184q-42 0 -42 46zM520 522q0 -12 18 -12h260q24 0 26 18q46 346 46 348q0 12 -16 12h-264q-20 0 -24 -18q-6 -46 -18 -135t-20 -149t-8 -64z" />
<glyph unicode="$" horiz-adv-x="1212" d="M40 334q0 60 35 100t89 40q48 0 77 -32t29 -86q0 -14 -5 -41t-5 -45q0 -86 66 -125t130 -39q12 0 12 10v654q0 32 -22 34q-166 34 -254 156t-88 260q0 152 98 261t244 121q22 2 22 20v54q0 48 52 48h2q52 0 52 -48v-48v-6q0 -16 16 -16q158 -16 258 -99t100 -169 q0 -48 -29 -79t-75 -31q-54 0 -85 39t-42 88t-42 96t-83 57h-4q-14 0 -14 -12v-438q0 -8 -2 -23t-2 -17q0 -14 4 -23t15 -16t21 -11t36 -14t48 -16q234 -102 294 -308q26 -82 26 -152q0 -200 -123 -321t-299 -149q-22 -6 -22 -30v-174q0 -48 -48 -48q-52 0 -52 48v174 q0 24 -22 24q-174 6 -291 114t-117 218zM248 1270q0 -82 52 -141t96 -79t60 -20q12 0 12 14v188v210q0 66 -8 66q-52 0 -132 -64t-80 -174zM568 190q0 -80 12 -80h6q26 0 82 31t112 110t56 179q0 98 -58 176t-112 107t-76 29q-20 0 -20 -22q0 -182 -1 -351t-1 -179z" />
<glyph unicode="%" horiz-adv-x="2062" d="M104 870q0 250 110 386t274 136q130 0 238 -107t108 -341q0 -228 -106 -372t-278 -144q-130 0 -238 106t-108 336zM254 954q0 -98 30 -216t92 -172q52 -42 112 -42q152 0 182 214q14 88 14 138q0 162 -63 291t-171 129q-56 0 -98 -35t-62 -92t-28 -110t-8 -105zM474 -260 q0 10 10 28q994 1698 1002 1706q20 24 58 24q24 0 49 -11t25 -33q0 -12 -10 -28q-1012 -1706 -1016 -1708q-22 -28 -56 -28q-22 0 -42 15t-20 35zM1232 210q0 248 111 384t271 136q130 0 240 -107t110 -341q0 -228 -107 -372t-277 -144q-132 0 -240 106t-108 338zM1380 298 l2 -6q0 -98 30 -216t92 -170q46 -42 110 -42q152 0 184 212q12 74 12 140q0 160 -61 289t-169 129q-58 0 -99 -34t-62 -91t-30 -108t-9 -103z" />
<glyph unicode="&#x26;" horiz-adv-x="2082" d="M76 618q0 74 16 143t41 118t48 83t45 56l20 26q4 8 4 16v2q0 8 -27 41t-52 95t-25 136q0 170 134 301t308 131q54 0 111 -12t107 -49t50 -93q0 -50 -34 -82t-80 -32q-50 0 -106 63t-112 63q-92 0 -180 -83t-88 -207q0 -74 36 -142t62 -68q6 0 45 16t103 33t130 17 q94 0 157 -38t63 -102t-67 -103t-165 -39h-2q-62 0 -117 15t-87 29t-38 14q-8 0 -14 -5t-9 -9t-9 -10l-2 -4q-66 -122 -66 -264q0 -88 32 -173t99 -168t197 -137t302 -60h44q144 0 253 41t165 110t82 141t26 142q0 132 -71 218t-189 86q-108 0 -191 -74t-83 -168 q0 -64 41 -109t105 -45q26 0 58 12t32 30q0 8 -10 13t-23 8t-30 13t-31 26q-16 26 -16 54q0 38 28 65t70 27q56 0 102 -42t46 -104q0 -76 -64 -134t-156 -58q-100 0 -171 74t-71 180q0 98 65 188t177 146q116 58 331 92t293 68q90 40 153 117t63 183q0 116 -73 192t-167 76 q-76 0 -76 -22l20 -26q22 -28 22 -62q0 -44 -29 -74t-73 -30q-50 0 -82 36t-32 88q0 78 66 132t156 54q142 0 256 -120t114 -300q0 -202 -156 -346t-370 -148q-36 0 -36 -20q0 -2 21 -37t43 -101t22 -142v-6q0 -256 -222 -448t-528 -192q-310 0 -522 201t-212 477zM442 1050 q0 -6 8 -14q70 -50 206 -50q106 0 106 60q0 64 -108 64q-58 0 -109 -10t-77 -24t-26 -26z" />
<glyph unicode="'" horiz-adv-x="562" d="M96 1210v2q0 10 148 448q52 140 134 140q42 0 67 -28t25 -68q0 -34 -34 -98q-32 -56 -95 -167l-105 -185q-42 -74 -44 -78q-20 -24 -46 -24q-22 0 -36 18t-14 40z" />
<glyph unicode="(" horiz-adv-x="912" d="M114 660q0 306 146 603t412 511q46 34 76 34q22 0 38 -13t16 -33q0 -32 -36 -62q-208 -184 -334 -451t-126 -587q0 -302 118 -571t332 -463q42 -42 42 -66q0 -22 -16 -37t-40 -15q-26 0 -58 28q-260 206 -415 500t-155 622z" />
<glyph unicode=")" horiz-adv-x="912" d="M114 -430q0 22 36 58q206 188 333 452t127 584q0 306 -117 574t-331 462q-42 34 -42 66q0 22 16 37t38 15t60 -28q260 -204 414 -500t154 -624q0 -306 -148 -602t-412 -510q-50 -36 -74 -36q-22 0 -38 15t-16 37z" />
<glyph unicode="*" horiz-adv-x="842" d="M34 1230q0 50 58 85t116 56t58 39q0 14 -35 26t-78 22t-77 40t-34 74q0 36 31 62t65 26q44 0 107 -66t89 -66q12 0 12 16q0 10 -11 67t-11 91q0 114 102 114q98 0 98 -116q0 -42 -15 -102t-15 -62q0 -6 6 -6q10 0 85 62t125 62q38 0 69 -29t31 -71q0 -46 -59 -79 t-118 -53t-59 -32q0 -14 35 -24t80 -20t80 -40t35 -78q0 -42 -29 -70t-67 -28t-80 33t-72 66t-40 33q-16 0 -16 -22q0 -34 11 -98t11 -76q0 -52 -37 -76t-69 -24t-62 25t-30 81q0 30 9 84t9 70q0 26 -14 26t-86 -55t-126 -55q-42 0 -62 32t-20 56z" />
<glyph unicode="+" horiz-adv-x="1762" d="M132 638v32q0 56 62 56h618v626q0 50 48 50h38q58 0 58 -64v-612h628q52 0 52 -50v-34q0 -40 -18 -49t-50 -9h-612v-624q0 -56 -54 -56h-36q-54 0 -54 60v620h-620q-60 0 -60 54z" />
<glyph unicode="," d="M98 114q0 58 46 97t106 39q92 0 158 -83t66 -203q0 -148 -97 -242t-159 -94q-46 0 -46 44q0 20 14 31t43 30t51 39q64 58 64 118q0 44 -27 66t-61 26t-76 20t-62 44t-20 68z" />
<glyph unicode="-" d="M30 452v38q0 24 8 35t40 33q108 76 246 172q160 114 178 114q40 0 40 -98q0 -38 -46 -72q-56 -40 -109 -77t-88 -62t-67 -49t-52 -37t-37 -26t-26 -19t-17 -9t-13 -5t-11 -2q-46 0 -46 64z" />
<glyph unicode="." d="M136 108q0 64 44 105t105 41t106 -43t45 -105t-42 -105t-106 -43q-62 0 -107 43t-45 107z" />
<glyph unicode="/" horiz-adv-x="1094" d="M14 -436q0 10 950 1876q12 22 40 22q22 0 49 -11t27 -37q0 -6 -430 -824q-328 -652 -496 -988q-28 -60 -30 -62q-14 -10 -32 -10q-78 0 -78 34z" />
<glyph unicode="0" horiz-adv-x="1194" d="M30 532q0 238 166 408t396 170t393 -170t163 -409t-163 -407t-395 -168q-228 0 -394 167t-166 409zM196 542q0 -180 118 -308t284 -128q158 0 276 120t118 305t-120 312t-282 127t-278 -127t-116 -301z" />
<glyph unicode="1" horiz-adv-x="894" d="M66 1028q0 40 38 40q6 0 46 -3t111 -4t152 -1t151 1t110 4t46 3q36 0 36 -54q0 -44 -118 -50q-46 -2 -72 -4q-34 -4 -34 -40v-768q0 -48 44 -52q26 -2 55 -3t47 -2t38 -2t30 -4t22 -5t17 -7t10 -11t6 -15t1 -21q0 -44 -44 -44q-2 0 -20 1t-47 3t-66 5t-85 4t-95 1t-93 -1 t-83 -4t-66 -5t-46 -3t-19 -1q-34 0 -34 50q0 46 44 50q36 2 90 8q72 2 87 9t15 43v774q0 34 -38 40q-194 10 -198 10q-38 10 -38 58z" />
<glyph unicode="2" horiz-adv-x="1130" d="M64 758q0 134 98 222t248 88q178 0 310 -105t132 -261q0 -72 -37 -146t-71 -113t-127 -130t-127 -129q-10 -14 -10 -16q0 -22 26 -22q58 0 186 8q96 8 163 49t125 161q8 28 32 28q44 0 44 -32q0 -8 -94 -324q-2 -8 -7 -15t-9 -10t-13 -6t-12 -3t-16 -1t-17 -1 q-98 -4 -272 -12t-294 -14t-130 -6q-68 0 -68 46q0 14 4 22t20 20t36 24t59 37t79 57q180 144 312 310q62 82 62 146q0 116 -108 199t-226 83q-94 0 -149 -54t-61 -124q0 -68 -36 -68h-2q-50 0 -50 92z" />
<glyph unicode="3" horiz-adv-x="904" d="M66 854q0 106 63 184t171 78q62 0 145 -27t162 -99t79 -168q0 -66 -37 -155t-74 -150t-37 -65q0 -12 19 -17t64 -18t89 -41q144 -78 144 -288q0 -246 -108 -384q-62 -80 -169 -121t-217 -41q-136 0 -212 63t-76 119q0 44 33 73t77 29q42 0 74 -27t52 -61t66 -61t116 -27 q118 0 173 96t55 230q0 284 -308 284q-36 0 -66 -2t-34 -2q-20 0 -31 11t-11 23q0 8 1 13t7 11t15 12t26 21t37 35q162 156 162 306q0 90 -53 167t-177 77q-134 0 -134 -96v-34l2 -20q0 -32 -44 -32t-44 104z" />
<glyph unicode="4" horiz-adv-x="1124" d="M60 34q0 22 40 82q636 912 658 942q16 22 42 22q34 0 34 -44l-2 -822q0 -28 24 -28h42q44 0 74 3t32 3q48 0 48 -32q0 -10 -9 -76t-17 -74q-10 -10 -32 -10h-140q-22 0 -22 -18v-420q0 -30 -26 -30h-100q-28 0 -28 30v414q0 24 -18 24h-560q-40 0 -40 34zM276 180 q0 -12 14 -12h364q24 0 24 32v536q0 20 -12 20q-4 0 -14 -10q-376 -556 -376 -566z" />
<glyph unicode="5" horiz-adv-x="958" d="M96 494q0 8 39 149t79 281l40 138q12 32 44 32q14 0 207 -60t213 -60t42 22t41 52t23 34q10 8 20 8q12 0 26 -10t14 -24q0 -8 -116 -276q-10 -28 -32 -28q-18 0 -212 61t-200 61h-2q-20 0 -28 -25t-48 -175v-4q-2 -6 -2 -8q0 -16 16 -16h36q182 0 316 -136t134 -358 q0 -202 -118 -374q-68 -98 -178 -183t-162 -85q-18 0 -31 11t-13 29t23 36t58 36t85 64t92 110q90 148 90 300q0 172 -102 279t-234 107q-42 0 -84 -14l-44 -12q-32 0 -32 38z" />
<glyph unicode="6" horiz-adv-x="1214" d="M84 570q0 362 252 654t630 360q6 2 18 2q22 0 37 -18t15 -38q0 -30 -42 -46q-398 -132 -618 -470l-2 -2v-6q0 -8 10 -8h8q6 4 19 5t27 3t35 4t41 2q248 0 428 -169t180 -417q0 -208 -134 -353t-346 -145q-222 0 -390 175t-168 467zM244 546q0 -222 115 -369t279 -147 q124 0 207 88t83 238q0 122 -43 246t-144 221t-237 97q-140 0 -200 -111t-60 -263z" />
<glyph unicode="7" horiz-adv-x="1130" d="M88 588q0 2 11 77t22 206t15 265q0 48 46 48q8 0 14 -2t11 -7t7 -9t5 -16t4 -21t5 -28t6 -33q4 -30 36 -30h760q54 0 54 -46v-4q0 -12 -144 -446q-168 -508 -286 -920q-36 -126 -46 -147t-34 -23q-16 -4 -48 -4h-2h-14q-72 0 -72 36q0 12 280 830q162 448 162 460 q0 50 -74 62q-140 12 -250 12q-210 0 -274 -16q-28 -6 -38 -25t-42 -129q-18 -56 -30 -92q-12 -40 -42 -40q-12 0 -27 10t-15 32z" />
<glyph unicode="8" horiz-adv-x="1124" d="M40 386q0 172 174 312q44 36 98 76q52 40 52 48t-12 14q-118 82 -193 194t-75 234q0 158 127 288t315 130q176 0 296 -93t120 -263q0 -126 -75 -243t-193 -183q-8 -4 -8 -14q0 -2 8 -10q180 -82 288 -207t108 -263q0 -182 -165 -322t-379 -140q-202 0 -344 133t-142 309z M226 382q0 -138 96 -228t232 -90q124 0 215 79t91 199t-99 228t-261 190q-26 14 -40 14q-22 0 -75 -49t-106 -146t-53 -197zM256 1294q0 -162 119 -267t193 -105q20 0 38 18q150 138 150 326q0 124 -73 211t-183 87h-4q-100 -2 -170 -81t-70 -189z" />
<glyph unicode="9" horiz-adv-x="1280" d="M82 570q0 214 152 361t366 147q242 0 415 -186t173 -452q0 -294 -221 -570t-575 -384q-64 -18 -80 -18q-24 0 -35 22t-11 40q0 30 42 42q110 34 212 92t170 115t118 111t74 86t24 36q0 8 -8 8l-12 -6q-12 -2 -31 -6t-43 -8t-56 -8t-62 -4q-254 0 -433 175t-179 407z M266 630q0 -202 122 -373t328 -171q114 0 169 47t81 133q28 94 28 176q0 214 -133 368t-305 154q-114 0 -202 -83t-88 -251z" />
<glyph unicode=":" horiz-adv-x="572" d="M164 108q0 64 43 105t105 41t106 -43t44 -105q0 -60 -43 -104t-107 -44q-62 0 -105 43t-43 107zM164 888q0 64 43 106t105 42t106 -44t44 -106q0 -60 -43 -104t-107 -44q-62 0 -105 43t-43 107z" />
<glyph unicode=";" d="M160 114q0 58 45 97t107 39q88 0 155 -83t67 -203q0 -148 -96 -242t-160 -94q-18 0 -32 13t-14 32t13 30t43 30t52 39q66 64 66 118v2q0 54 -42 72t-101 32t-83 50q-20 22 -20 68zM164 888q0 64 43 106t105 42t106 -44t44 -106q0 -60 -43 -104t-107 -44q-62 0 -105 43 t-43 107z" />
<glyph unicode="&#x3c;" horiz-adv-x="1692" d="M130 580v48q0 26 48 44q1320 482 1328 482q58 0 58 -96q0 -34 -48 -50l-1110 -406l1126 -408q32 -12 32 -44q0 -30 -17 -60t-57 -30q-18 0 -1316 474q-44 14 -44 46z" />
<glyph unicode="=" horiz-adv-x="1762" d="M132 824v34q0 58 60 58h1390q52 0 52 -52v-32q0 -64 -66 -64h-1376q-60 0 -60 56zM136 448v36q0 54 58 54h1390q52 0 52 -48v-38q0 -38 -17 -48t-49 -10h-1378q-56 0 -56 54z" />
<glyph unicode="&#x3e;" horiz-adv-x="1692" d="M130 150q0 32 34 44l1126 408l-1110 406q-50 16 -50 50q0 96 60 96q6 0 1328 -482q46 -18 46 -44v-48q0 -32 -44 -46q-1298 -474 -1316 -474q-40 0 -57 30t-17 60z" />
<glyph unicode="?" horiz-adv-x="956" d="M36 1564q0 114 164 148q110 24 204 24q218 0 331 -118t113 -252q0 -86 -43 -161t-104 -134t-123 -119t-105 -143t-43 -179q0 -12 1 -31t1 -25q0 -48 -19 -69t-45 -21q-68 0 -68 138q0 92 34 177t84 151t99 130t83 141t34 157q0 108 -64 185t-154 77q-54 0 -94 -29 t-58 -64t-49 -64t-73 -29q-46 0 -76 32t-30 78zM248 108q0 64 46 105t107 41t106 -43t45 -105q0 -60 -44 -104t-108 -44q-60 0 -106 43t-46 107z" />
<glyph unicode="@" horiz-adv-x="2518" d="M222 468v2q0 106 23 215t82 243t186 260t307 214q270 138 546 138q360 0 588 -230t228 -564q0 -314 -182 -540t-408 -226q-66 0 -116 20t-73 47t-37 54t-20 47t-8 20l-12 -14q-64 -78 -153 -133t-179 -55q-98 0 -166 69t-68 175q0 164 174 396t336 332q106 60 188 60 q28 0 50 -5t24 -5q20 0 39 40t23 42q12 10 34 10q58 0 58 -42q0 -10 -26 -92t-71 -257t-79 -375q-12 -54 -12 -98q0 -64 37 -92t83 -28q82 0 177 52t153 134q128 178 128 474v2q0 322 -203 503t-505 181q-246 0 -460 -115t-347 -334t-133 -493q0 -372 230 -609t602 -237 q166 0 308 44t210 100q38 22 48 22q32 0 32 -30q0 -40 -104 -97t-200 -87q-156 -48 -338 -48h-4q-424 2 -707 248t-283 662zM948 256q0 -70 33 -98t71 -28q46 0 121 37t125 99q8 10 20 22l16 16q4 4 9 12t7 16t6 18q122 534 122 538q0 28 -26 28q-84 0 -235 -147t-235 -361 q-34 -80 -34 -152z" />
<glyph unicode="A" horiz-adv-x="2066" d="M22 36q0 14 1 22t5 16t6 13t11 8l12 4q3 1 16 4t17 4t22 4t24 3q58 6 88 30t56 90q178 396 384 806q364 690 376 706q6 6 16 12q26 20 60 20q68 0 106 -96l362 -836q276 -666 280 -674q28 -40 73 -52t79 -17t38 -29q6 -20 6 -34q0 -54 -52 -54l-42 4q-42 2 -112 6t-136 4 q-82 0 -148 -4t-105 -7t-45 -3q-52 0 -52 42q0 12 1 22t5 18t5 13t11 10t15 6l20 4q15 3 23 4t30 3t38 6q52 10 52 48t-61 226t-129 342q-10 26 -44 26h-594q-38 0 -56 -30q-86 -160 -154 -331t-68 -213q0 -44 29 -58t99 -20q22 0 32 -4q54 -4 54 -60q0 -54 -54 -54 q-6 0 -42 3t-99 7t-137 4q-42 0 -84 -1t-74 -4t-56 -5t-39 -3t-17 -1q-52 0 -52 50zM750 898q0 -12 16 -12h516q22 0 22 19t-97 246t-125 273q-10 18 -26 18q-22 0 -48 -44q-258 -488 -258 -500z" />
<glyph unicode="B" horiz-adv-x="1418" d="M42 56q0 30 18 37t90 15q22 2 34 6q18 2 26 6t17 15t9 29v1378q0 48 -26 61t-92 19h-12q-44 0 -44 64q0 44 44 44q2 0 17 -2t43 -2h60q76 0 220 13t218 13q274 0 418 -102q156 -112 156 -290q0 -116 -67 -219t-173 -169l-6 -8q0 -2 10 -8q146 -26 247 -149t101 -287 q0 -168 -96 -295t-224 -183q-124 -56 -302 -56q-58 0 -172 7t-172 7q-42 0 -136 -2t-152 -2h-4q-16 0 -24 2t-17 17t-9 41zM452 206q0 -26 4 -41t21 -31t51 -20q74 -10 118 -10q200 0 340 107t140 295q0 126 -72 233t-224 139q-82 18 -212 18h-128q-38 0 -38 -40v-650z M452 1036q0 -32 28 -32h112h32q266 0 352 160q38 74 38 142q0 52 -17 105t-57 107t-117 88t-181 34q-140 0 -178 -28q-12 -10 -12 -32v-6v-538z" />
<glyph unicode="C" horiz-adv-x="1760" d="M46 844q0 184 77 356t205 296q270 258 642 258h2q136 0 250 -33t177 -68t67 -35q20 0 35 42t39 50q4 0 14 1t14 1q26 0 32 -30l16 -128q18 -130 35 -263t17 -143q0 -40 -52 -40q-46 0 -54 15t-18 103q-12 92 -66 164q-86 108 -219 178t-295 70q-272 0 -473 -206 t-201 -542q0 -346 207 -584t501 -238q222 0 405 136t253 360q12 34 36 34q42 0 42 -30q-56 -390 -64 -408q-12 -42 -56 -42h-2h-70q-30 0 -43 -5t-36 -22t-39 -25q-222 -128 -468 -128q-174 0 -341 69t-295 193t-201 294t-73 350z" />
<glyph unicode="D" horiz-adv-x="1784" d="M24 72q0 14 3 23t11 15t17 10t27 5t33 2t45 1t52 2q42 2 55 23t13 69v1274q0 62 -33 76t-131 18h-42q-46 0 -46 58q0 52 56 52h458q492 0 730 -110q204 -96 342 -286t138 -440q0 -318 -222 -557t-510 -293q-88 -14 -222 -14h-714q-60 0 -60 72zM504 234q0 -48 20 -68 t72 -30q80 -16 160 -16q300 0 521 181t221 497q0 186 -79 359t-223 283q-214 154 -524 154q-106 0 -137 -15t-31 -63v-1282z" />
<glyph unicode="E" horiz-adv-x="1452" d="M22 44q0 28 20 40t98 42q44 16 74 26q56 20 56 98v1314q0 28 -12 35t-56 15q-22 2 -54 5t-48 5t-33 8t-25 18t-8 36q0 56 50 56h1158q42 0 54 -42q10 -46 29 -130t32 -142t13 -62q0 -38 -52 -38q-38 0 -70 44q-112 196 -126 212q-22 22 -72 22h-474q-50 0 -63 -24 t-13 -72v-378q0 -56 48 -56h386q28 0 45 3t34 23t17 56v80q0 54 68 54q70 0 70 -72v-464q0 -72 -70 -72q-68 0 -68 54v136q0 56 -66 56h-346q-28 0 -45 -3t-38 -11t-31 -30t-10 -56v-580q0 -26 4 -42t22 -32t54 -22q110 -16 236 -16q82 0 205 15t155 39q24 18 90 137t86 131 q14 8 24 8q18 0 31 -15t13 -43v-2q0 -22 -76 -358q-4 -30 -20 -40t-56 -10h-866q-114 0 -211 -15t-101 -15q-30 0 -46 29t-16 45z" />
<glyph unicode="F" horiz-adv-x="1360" d="M24 1658q0 76 48 76q6 0 33 -4t75 -6t102 -2q42 0 190 4t220 4h476h12q70 0 84 -62q6 -24 22 -93t27 -120t11 -57q0 -26 -15 -42t-37 -16q-42 0 -120 146q-26 40 -38 64q-20 32 -37 42t-51 10h-466q-32 0 -49 -15t-19 -31t-2 -46v-420q0 -38 36 -38h422q8 0 15 2t13 4 t8 5t6 10t6 13t5 20t4 25t5 32t6 37q10 70 60 70q24 0 41 -15t17 -37q0 -8 -2 -39t-5 -83t-3 -114q0 -64 3 -117t5 -84t2 -35q0 -68 -68 -68q-10 0 -18 2t-14 7t-11 10t-7 14t-5 19t-5 27t-3 31t-4 39t-5 43q-2 38 -44 38h-412q-24 0 -37 -12t-15 -25t-2 -35v-624 q0 -30 4 -45t27 -31t73 -18h51h43q16 0 36 -1t31 -2t22 -3t17 -7t11 -9t8 -13t3 -21v-26q0 -50 -44 -50l-48 4q-48 2 -130 6t-162 4q-52 0 -105 -1t-92 -4t-71 -5t-51 -3t-21 -1q-58 0 -58 56q0 14 2 25t8 19t11 11t21 6t26 4t34 2t42 5q46 4 60 22t14 56v1336q0 14 -1 24 t-5 17t-8 12t-13 9t-16 7t-23 4t-25 1t-33 1t-38 1q-60 0 -60 54z" />
<glyph unicode="G" horiz-adv-x="1738" d="M40 890q0 380 247 634t599 254q102 0 201 -24t157 -54t103 -58t51 -28h10q26 0 64 48t46 50q12 8 32 8q34 0 34 -34v-70q0 -72 3 -145t8 -127t8 -98t6 -68t3 -26q0 -40 -72 -40q-34 0 -42 23t-26 91t-70 140q-96 130 -241 211t-305 81q-100 0 -195 -39t-180 -121 t-137 -230t-52 -344q0 -236 64 -410t169 -265t211 -133t214 -42q142 0 268 59t148 103q6 14 6 44v284q0 48 -32 63t-132 23q-44 2 -72 4q-70 6 -70 60q0 56 56 56q8 0 41 -2t91 -5t126 -3h4q72 0 134 3t96 5t42 2q32 0 48 -16t16 -36q0 -42 -63 -64t-71 -52q-2 -6 -2 -26 v-426q0 -50 -34 -50q-14 0 -40 26t-36 26q-16 0 -34 -20q-222 -194 -518 -194q-356 0 -619 279t-263 673z" />
<glyph unicode="H" horiz-adv-x="1918" d="M34 1663q0 19 15 43t45 24q6 0 45 -2t105 -3t144 -1h8q82 0 149 1t107 3t46 2q40 0 48 -52q0 -6 1 -13t1 -9q0 -30 -26 -39t-112 -13q-34 0 -54 -2q-56 -2 -56 -74v-416q0 -36 32 -36h850q44 0 44 46v372q0 88 -54 108q-22 10 -72 11t-78 11t-28 46q0 60 60 60q8 0 41 -2 t91 -3t126 -1q50 0 102 1t91 4t70 4t49 2t20 1q48 0 48 -50q0 -16 -3 -27t-11 -20t-17 -13t-26 -8t-31 -5t-41 -5t-45 -6q-68 -8 -68 -72v-1324v-12q0 -76 70 -80q14 0 38 -2l36 -3q12 -1 28 -3t24 -6t16 -10t11 -16t3 -24q0 -64 -50 -64q-4 0 -21 1t-45 3t-65 5t-84 4 t-93 1t-93 -1t-83 -4t-63 -5t-44 -3t-19 -1q-42 0 -42 48q0 16 1 24t5 17t6 13t12 7t17 6t23 4t30 2t40 2t44 5q50 2 64 24t14 72v680q0 30 -36 30h-858q-36 0 -36 -44v-682q0 -22 3 -34t32 -28t85 -22q4 0 33 -2t43 -5t30 -15t16 -32q0 -70 -38 -70q-2 0 -18 1t-46 3t-66 5 t-82 4t-93 1t-96 -1t-85 -4t-64 -5t-45 -3t-21 -1q-52 0 -52 68q0 46 112 52q36 2 62 4q40 4 53 24t13 58v1334q0 18 -5 32t-11 23t-22 14t-24 6t-34 4t-34 3q-8 4 -35 5t-39 5t-25 15t-13 30z" />
<glyph unicode="I" horiz-adv-x="810" d="M32 66q0 30 21 37t99 13q54 2 92 4q54 4 54 72v1308q0 8 1 22t1 16q0 32 -20 39t-88 9q-38 0 -60 4q-56 4 -56 54q0 68 54 68l42 -2q42 -2 111 -6t137 -4q72 0 131 2t92 5t41 3q42 0 42 -48q0 -12 -1 -20t-3 -16t-7 -13l-8 -8q-3 -3 -13 -6t-16 -5t-21 -3t-25 -3t-31 -3 t-35 -3q-40 -2 -40 -42v-1360q0 -60 44 -64q26 -2 55 -4t46 -2t36 -2t29 -5t18 -7t12 -14t4 -22q0 -74 -50 -74q-2 0 -19 1t-48 3t-68 5t-86 4t-98 1t-98 -1t-87 -4t-68 -5t-48 -3t-22 -1q-38 0 -44 56q-2 8 -2 24z" />
<glyph unicode="J" horiz-adv-x="794" d="M-206 -340q0 52 32 88t80 36q42 0 75 -26t52 -58t48 -58t67 -26q86 0 128 156q22 80 22 162v1564q0 18 -4 30t-8 21t-16 15t-20 9t-29 6t-35 4t-43 4t-49 5q-58 8 -58 54q0 66 58 66q2 0 19 -1t47 -2t67 -4t85 -4t94 -1h10q78 0 145 2t105 5t44 3q42 0 42 -50 q0 -16 -2 -29t-9 -20t-14 -12t-23 -9t-28 -4t-38 -2t-46 -4q-66 -6 -66 -86v-1354q0 -148 -61 -281t-159 -227q-24 -24 -65 -57t-116 -71t-129 -38q-88 0 -145 62t-57 132z" />
<glyph unicode="K" horiz-adv-x="1644" d="M30 1672q0 22 18 42t56 20q6 0 42 -4t99 -6t137 -2h2q74 0 137 2t97 6t42 4q38 0 56 -22t18 -44q0 -34 -35 -44t-88 -10t-73 -10q-36 -20 -36 -84v-546q0 -42 32 -42q20 0 66 52q52 56 176 195t200 225t82 96q20 26 20 54q0 38 -26 54t-57 16t-57 12t-26 42q0 52 58 52 q6 0 41 -2t94 -3t129 -1h16q66 0 123 1t89 3t38 2q72 0 72 -52q0 -32 -33 -46t-96 -23t-95 -23q-26 -12 -55 -31t-44 -34t-44 -48t-39 -43q-438 -474 -446 -486q-4 -10 -4 -16q0 -20 20 -40q684 -720 696 -728q4 -6 14 -12q44 -30 97 -37t73 -27q18 -22 18 -40 q0 -20 -19 -38t-55 -18q-12 0 -46 5t-72 5h-62q-34 0 -48 1t-33 1t-28 4t-20 6t-20 11t-16 17l-21 24q-170 196 -388 444q-184 214 -218 251t-52 37h-2q-34 0 -34 -52v-530q0 -16 1 -27t3 -21t9 -16t10 -11t16 -8t20 -6t27 -4t31 -2t39 -2t46 -5q54 -6 54 -54q0 -70 -50 -70 q-2 0 -19 1t-47 3t-67 5t-86 4t-96 1t-95 -1t-85 -4t-66 -5t-46 -3t-21 -1q-44 0 -44 56q0 14 4 25t13 19t16 11t22 6t23 4t28 2t28 1q64 6 88 29t24 95v1252q0 18 -2 32t-3 25t-9 20t-10 15t-16 11t-19 8t-24 5t-26 3t-34 4t-37 3q-70 4 -70 60z" />
<glyph unicode="L" horiz-adv-x="1416" d="M28 1646q0 62 48 62q10 0 44 -2t100 -4t142 -2h20q80 0 149 1t108 4t47 3q28 0 35 -16t7 -52q0 -58 -56 -58q-26 0 -54 -1t-43 -1h-33q-18 0 -28 -2t-20 -5t-15 -8t-8 -14t-5 -19t-2 -24v-1276q0 -82 68 -82h482h6q94 0 138 68q12 20 56 114t50 100q16 20 38 20 q12 0 27 -3t32 -17t17 -36q0 -20 -50 -356q-2 -18 -6 -28t-20 -18t-42 -8q-8 0 -67 1t-157 3t-221 5t-286 4t-319 1h-134q-42 0 -42 40q0 32 21 43t97 25q16 2 22 6q58 14 58 80v8v1324q0 14 -2 23t-5 16t-9 11t-14 5t-19 2t-24 1h-31h-36q-64 6 -64 62z" />
<glyph unicode="M" horiz-adv-x="2510" d="M44 40q0 16 4 27t12 20t17 13t29 7t33 6t43 5t49 5t34 9t23 12t13 22t6 25t3 32t2 33q64 774 64 1126q0 30 -30 64q-2 2 -31 38t-49 55t-64 40t-96 21q-50 6 -50 46q0 24 9 38t16 15t19 1h362q44 0 64 -32l478 -798l292 -466q16 -30 44 -30q22 0 36 26l684 1278 q12 22 44 22h366q12 0 18 -1t12 -15t6 -38q0 -20 -6 -32t-24 -20t-38 -11t-57 -12t-71 -19q-62 -14 -62 -74q6 -418 9 -706t5 -380t2 -138v-18q0 -42 2 -60t22 -38t62 -24q16 -4 42 -5t38 -2t30 -4t24 -7t14 -12t11 -19t3 -25q0 -26 -15 -40t-37 -14l-46 4q-48 2 -125 6 t-153 4q-50 0 -99 -1t-86 -4t-68 -5t-48 -3t-19 -1q-48 0 -48 58q0 38 27 49t87 15q40 2 63 7t46 18t34 38t11 65v546q0 382 -6 404q-2 14 -18 14t-34 -30q-96 -154 -252 -438t-272 -501t-132 -239q-26 -28 -58 -28q-44 0 -88 90q-124 254 -282 534t-259 443t-113 169 q-2 2 -8 2q-10 0 -10 -12q-14 -266 -14 -524q0 -214 10 -450q4 -70 20 -84q24 -16 82 -16t98 -14t40 -60q0 -56 -44 -56q-2 0 -19 1t-46 3t-63 5t-82 4t-92 1t-92 -1t-83 -4t-63 -5t-45 -3t-19 -1q-48 0 -48 54z" />
<glyph unicode="N" horiz-adv-x="2012" d="M22 1650q0 64 56 64h310q62 0 102 -46l394 -458l230 -258q462 -502 482 -514q6 -6 10 -6q18 0 18 26q0 30 2 85t3 100t1 85q0 340 -24 750q-2 74 -34 94t-128 30q-56 6 -56 54q0 22 17 40t57 18q4 0 35 -1t86 -3t119 -2t117 2t84 3t35 1q54 0 54 -56q0 -20 -5 -32 t-19 -18t-23 -7t-34 -3t-35 -2q-62 -4 -86 -39t-26 -135q-10 -428 -10 -654q0 -188 2 -348t5 -249t3 -109q0 -122 -52 -122q-30 0 -122 106l-522 596q-554 616 -558 616l-10 -10q-36 -518 -36 -896v-72q0 -100 20 -130t96 -34q94 0 154 -18q32 -14 32 -66q0 -46 -42 -46 q-4 0 -21 1t-45 3t-65 5t-84 4t-93 1q-74 0 -148 -4t-118 -6l-44 -4q-52 0 -52 48q0 54 38 66q14 6 67 10t91 20t56 52q8 24 46 706q14 290 24 478v10q0 34 -84 110q-98 98 -224 108q-46 0 -46 56z" />
<glyph unicode="O" horiz-adv-x="1958" d="M44 888q0 382 274 654t656 272q398 0 669 -286t271 -680q0 -390 -265 -650t-637 -260q-186 0 -363 72t-311 202q-288 278 -294 676zM286 966q0 -166 45 -321t131 -281t227 -202t313 -76q114 0 225 39t212 119t164 226t63 334q0 200 -68 390t-210 316q-192 170 -454 170 q-120 0 -233 -43t-208 -125t-151 -224t-56 -322z" />
<glyph unicode="P" horiz-adv-x="1438" d="M34 44q0 10 1 19t3 15t7 11l8 8q3 3 12 6t15 4t20 2t25 3t30 3t37 3q42 6 55 21t13 47v1350q0 18 -1 29t-14 23t-39 12h-90q-18 0 -28 2t-21 18t-11 46q0 54 54 54h64q126 0 320 13t278 13q322 0 492 -152q146 -132 146 -328v-2q-2 -134 -74 -239t-182 -165 q-182 -102 -566 -102h-76q-32 0 -32 -40v-512q0 -44 16 -65t62 -23q224 -10 240 -14q34 -10 34 -58v-2q0 -58 -50 -58l-48 4q-50 2 -134 6t-164 4q-84 0 -168 -4t-132 -6l-50 -4q-52 0 -52 58zM484 876q0 -20 14 -25t78 -5q278 0 450 113t172 295q0 162 -151 271t-409 109 q-100 0 -127 -8t-27 -32v-718z" />
<glyph unicode="Q" horiz-adv-x="1894" d="M50 890q0 186 75 364t207 308q266 260 644 260q368 0 620 -250q134 -132 206 -310t72 -364q0 -256 -128 -488t-332 -374q-6 -6 -6 -11t6 -11q98 -68 209 -182t167 -152q106 -68 214 -68q20 0 36 1t20 1q28 0 28 -24q0 -32 -74 -67t-150 -35q-42 0 -80 8t-77 27t-64 33 t-64 48t-53 46t-54 54t-48 50q-218 218 -276 218l-56 -6q-58 -6 -112 -6q-190 0 -364 74t-298 202q-268 274 -268 654zM296 986q0 -224 87 -428t258 -340t385 -136q264 0 444 205t180 543q0 200 -67 396t-215 324q-178 150 -420 150q-262 0 -457 -191t-195 -523z" />
<glyph unicode="R" horiz-adv-x="1750" d="M34 1654q0 46 34 46h86q120 0 302 15t258 15q160 0 280 -43t183 -111t92 -139t29 -145q0 -162 -100 -276t-184 -142q-12 -8 -12 -13t4 -9q136 -158 230 -295t147 -225t89 -128q70 -80 134 -80q38 0 67 28t41 28q28 0 28 -30q0 -42 -63 -112t-159 -70q-128 0 -266 182 l-250 360q-214 300 -234 312q-12 10 -42 10h-184q-34 0 -34 -38v-582v-8q0 -74 64 -80q22 -4 51 -6t45 -3t37 -3t32 -4t25 -6t20 -9t11 -13t7 -18t2 -22q0 -54 -52 -54q-2 0 -20 1t-48 3t-68 5t-88 4t-100 1t-100 -1t-87 -4t-68 -5t-48 -3t-19 -1q-44 0 -44 68q0 10 1 17 t5 12t7 9t12 6t16 5t22 4t25 1t31 1t35 5q42 4 56 25t14 63v1302q0 56 -32 69t-180 39q-40 6 -40 42zM496 1564l4 -4v-594q0 -32 24 -38t140 -6q142 0 234 34q86 36 146 112t60 182q0 154 -128 269t-314 115q-116 0 -150 -28q-16 -10 -16 -38v-4z" />
<glyph unicode="S" horiz-adv-x="1236" d="M64 162q0 8 9 50t23 138t24 220q6 54 58 54q38 0 47 -22t21 -122q2 -32 5 -62t4 -42t1 -22t5 -18t7 -13t17 -24t27 -33q126 -168 326 -168q150 0 258 101t108 249q0 170 -148 278q-84 62 -254 102t-220 62q-148 60 -224 169t-76 239q0 174 128 300t322 126q90 0 163 -26 t113 -50t48 -24q14 0 43 50t63 50q18 0 30 -13t12 -33q0 -6 -3 -33t-6 -75t-3 -102t3 -100t6 -72t3 -32q0 -36 -44 -36h-4q-34 0 -51 26t-45 87t-78 117q-126 142 -276 142q-102 0 -174 -69t-72 -169q0 -134 132 -228q76 -56 248 -98t228 -66q144 -62 231 -184t87 -286 q0 -226 -160 -384t-392 -158q-226 0 -384 138q-38 34 -76 34q-12 0 -34 -3t-32 -3q-44 0 -44 38z" />
<glyph unicode="T" horiz-adv-x="1740" d="M30 1346v2q0 10 74 346q6 40 50 40h1470q42 0 52 -58q60 -320 60 -324q0 -22 -14 -39t-34 -17q-30 0 -58 50q-14 24 -31 55t-26 47t-20 37t-18 29t-15 19t-14 15t-13 9t-16 6t-17 3t-20 2h-372q-24 0 -38 -13t-15 -24t-1 -33v-1318q0 -40 23 -50t125 -16q50 -6 80 -8 q28 -2 36 -17t8 -55q0 -48 -42 -48l-48 4q-48 2 -130 6t-164 4q-50 0 -103 -1t-94 -4t-73 -5t-52 -3t-22 -1q-48 0 -48 64q0 38 21 48t97 16q42 2 66 4q52 6 68 28t16 66v1276q0 24 -3 37t-19 28t-46 15h-376q-46 0 -63 -12t-33 -40q-102 -204 -110 -214q-18 -20 -42 -20 t-40 18t-16 46z" />
<glyph unicode="U" horiz-adv-x="1904" d="M42 1676q0 60 52 60q6 0 38 -2t90 -5t124 -3h16q70 0 132 3t96 5t42 2q46 0 46 -66q0 -20 -4 -32t-20 -17t-30 -7t-46 -5t-54 -5q-82 -10 -82 -88v-788q0 -168 30 -283t126 -201q150 -138 452 -138q352 0 460 228q50 104 50 282v34q0 26 -1 78t-1 78v684q0 46 -8 71 t-39 38t-45 15t-78 10q-54 4 -54 56q0 56 46 56q4 0 34 -2t79 -5t108 -3t108 3t79 5t34 2q48 0 48 -66q0 -34 -27 -45t-58 -11t-58 -41t-27 -131q0 -6 -1 -16t-1 -12v-570q0 -20 1 -59t1 -59v-82q0 -80 -6 -143t-27 -144t-69 -150t-122 -121q-174 -122 -474 -122 q-170 0 -307 36t-212 84t-131 116t-75 109t-31 85q-32 116 -32 322q0 32 1 96t1 96v634q0 16 -1 27t-8 17t-10 11t-18 7t-18 3t-24 4t-27 3q-68 10 -68 62z" />
<glyph unicode="V" horiz-adv-x="2088" d="M40 1686q0 50 74 50q6 0 43 -2t101 -5t138 -3q72 0 132 3t93 5t41 2q46 0 46 -48q0 -42 -19 -53t-93 -21q-20 -2 -30 -6q-66 -6 -66 -64q0 -22 14 -50q118 -264 260 -541t226 -426t98 -163q10 -10 24 -10t26 22q298 540 506 1098q14 44 14 56q0 54 -56 74q-22 8 -68 8 t-71 11t-25 49q0 64 56 64q6 0 39 -2t92 -5t127 -3t126 3t90 5t40 2q56 0 56 -68q0 -38 -30 -47t-80 -20t-82 -47q-28 -28 -98 -199t-242 -549t-406 -806q-28 -50 -63 -50t-65 50q-220 388 -389 698t-241 460t-120 252t-64 134t-40 48q-6 4 -39 19t-54 32t-21 43z" />
<glyph unicode="W" horiz-adv-x="2522" d="M32 1666q0 26 16 48t48 22q4 0 35 -2t87 -5t120 -3q60 0 114 3t85 5t37 2q46 0 46 -64q0 -32 -21 -44t-49 -9t-59 -2t-45 -23q-14 -14 -14 -32t8 -32q130 -414 394 -1116q18 -46 36 -46t38 44t136 338q58 152 98 248q4 20 4 30v2q0 16 -166 498q-24 68 -42 78t-134 16 q-44 0 -44 56q0 58 60 58q6 0 39 -2t91 -5t128 -3h2q66 0 125 3t92 5t41 2q42 0 42 -56q0 -34 -18 -43t-90 -15q-78 -10 -78 -62q0 -8 4 -32q82 -246 187 -522t178 -449t91 -197q16 -22 28 -22h4q24 0 38 46q114 238 216 516t151 448t49 204q0 16 -2 24t-11 16t-16 11t-25 6 t-30 4t-38 3t-42 6q-52 4 -52 58q0 56 46 56q8 0 40 -2t90 -5t124 -3h2q64 0 122 3t90 5t40 2q42 0 42 -58q0 -32 -23 -46t-51 -14t-61 -12t-51 -44q-2 -4 -28 -79t-75 -211t-115 -307t-169 -412t-217 -487q-54 -122 -102 -122q-60 0 -108 134q-108 272 -218 560 q-82 204 -89 204t-13 -10q-86 -224 -196 -514q-102 -264 -123 -311t-37 -53h-2q-16 -10 -22 -10q-18 0 -30 8t-22 26t-18 32t-16 39t-14 37q-96 236 -183 467t-146 402t-102 303t-69 216t-28 90q-18 44 -77 47t-71 19q-12 14 -12 36z" />
<glyph unicode="X" horiz-adv-x="1672" d="M12 32q0 12 1 21t1 15t5 12t7 10t10 6t12 5t16 5l18 3q6 1 25 4t29 5q16 2 31 7t26 10t25 16t21 17t23 26t23 30t28 41t33 47q372 520 372 526q0 10 -400 650q-54 86 -86 102t-124 24q-64 4 -64 66q0 56 52 56q8 0 45 -2t103 -5t142 -3h8q76 0 139 3t98 5t43 2 q24 0 37 -14t13 -60q0 -26 -27 -36t-62 -9h-5q-32 0 -57 -13q-27 -14 -27 -50q0 -16 30 -76q276 -448 282 -450q6 0 10 6q38 50 78 107t65 91t52 71t42 59t31 46t23 37t14 28t11 25t5 20t1 22q0 18 -2 30t-12 21t-15 13t-22 7t-24 4t-31 2t-32 1q-66 6 -66 74q0 44 42 44 q8 0 45 -2t103 -5t142 -3q80 0 145 3t103 5t46 2q46 0 46 -46q0 -44 -22 -61t-52 -15h-14q-26 0 -62 -5q-46 -7 -82 -35q-28 -22 -82 -90t-74 -96q-328 -464 -328 -472q0 -14 434 -698q46 -72 73 -85t143 -25q66 -10 66 -72q0 -50 -44 -50q-2 0 -20 1t-48 3t-68 5t-89 4 t-100 1t-98 -1t-87 -4t-68 -5t-48 -3t-22 -1q-46 0 -46 50q0 52 46 64q16 4 104 16q56 10 56 56v6q0 24 -176 304q-90 140 -148 236q0 8 -8 8q-10 0 -346 -488q-28 -36 -28 -64q0 -36 26 -47t106 -19q14 -2 24 -2q68 -12 68 -66t-44 -54q-2 0 -17 1t-42 3t-59 5t-74 4t-84 1 q-66 0 -131 -4t-105 -6l-38 -4q-38 0 -38 46z" />
<glyph unicode="Y" horiz-adv-x="1680" d="M28 1680q0 22 16 39t48 17q6 0 42 -2t99 -5t136 -3t135 3t96 5t42 2q46 0 46 -50q0 -14 -1 -23t-5 -17t-7 -13t-13 -8t-16 -5t-22 -4t-27 -2t-33 -1t-40 -5q-66 -6 -66 -56v-4q0 -18 120 -224q128 -224 238 -414q22 -36 36 -36q4 0 18 14q364 502 400 558q44 80 44 106 q0 40 -22 51t-82 13h-16q-40 2 -60 5t-37 19t-17 46q0 16 14 33t40 17q4 0 34 -2t80 -5t110 -3h8q58 0 110 3t79 5t35 2q36 0 53 -16t17 -34q0 -26 -18 -42t-53 -40t-59 -56l-366 -472q-42 -58 -85 -116t-65 -88t-46 -60t-32 -45t-18 -28t-11 -25t-3 -21t-2 -27v-488 q0 -38 27 -46t151 -14q62 -2 98 -4q56 -4 56 -60v-22q0 -46 -40 -46l-52 4q-50 2 -135 6t-169 4q-54 0 -109 -1t-97 -4t-75 -5t-53 -3t-22 -1q-64 0 -64 70q0 10 1 19t3 15t8 10l9 6q3 2 14 5t20 4t25 1t32 1t39 1t47 2l8 4h15q1 0 9 1t11 2t10 3t8 7t5 10t5 13t1 18v520 q0 22 -5 41t-7 26t-18 34t-24 37q-230 372 -400 644q-56 90 -62 100q-24 32 -73 35t-63 31q-8 14 -8 34z" />
<glyph unicode="Z" horiz-adv-x="1584" d="M40 54q0 20 22 46q502 710 1062 1330q34 38 34 54q0 26 -34 26h-814q-22 0 -37 -1t-28 -6t-22 -7t-18 -17t-14 -21t-12 -31t-9 -38t-12 -50t-16 -59q-14 -54 -50 -54q-20 0 -36 14t-16 46q0 10 5 59t11 136t6 185v92q0 70 52 70q38 0 66 -60q22 -68 138 -68h1096 q62 0 62 -44q0 -20 -130 -192q-60 -76 -96 -126l-366 -460q-278 -340 -402 -558q-14 -22 -14 -38q0 -38 45 -49t207 -21q122 -8 246 -8h54q166 0 247 26t125 126q16 40 35 145t27 119q18 24 46 24q20 0 41 -18t21 -52v-4q0 -46 -5 -85t-12 -89t-13 -86q-2 -36 -6 -98t-7 -88 t-12 -59t-26 -48t-47 -17h-1318h-6q-70 0 -70 54z" />
<glyph unicode="[" horiz-adv-x="952" d="M60 664q0 92 70 92q20 0 38 -9t22 -9q10 0 10 18v1032q0 86 60 86q20 0 56 -22t97 -45t145 -23q74 0 147 18t117 38l42 18q12 0 22 -16t10 -26q0 -18 -35 -56t-106 -76t-153 -38q-14 0 -14 -18l2 -1948q0 -18 10 -22t28 -6t59 -14t85 -38q48 -30 83 -66t35 -56 q0 -32 -30 -32q-4 0 -47 22t-120 45t-161 23q-76 0 -143 -16t-104 -32t-43 -16q-40 0 -40 54v1042q0 20 -10 20q-2 0 -22 -14t-40 -14q-70 0 -70 104zM314 -392q0 -12 10 -12q4 0 21 11t51 26t78 23q10 2 10 14v1966q0 12 -16 17t-56 16t-80 35q-4 6 -10 6q-8 0 -8 -12 v-2090z" />
<glyph unicode="\" horiz-adv-x="590" d="M8 1500q0 20 30 39t48 19q24 0 38 -40q100 -504 217 -1005t181 -752t64 -265q0 -22 -32 -43t-48 -21q-26 0 -26 26q-472 2040 -472 2042z" />
<glyph unicode="]" horiz-adv-x="952" d="M60 1816q0 12 8 27t20 15l44 -18q42 -20 115 -38t147 -18q84 0 145 23t97 45t56 22q60 0 60 -86v-1032q0 -18 10 -18q4 0 22 9t38 9q74 0 74 -92q0 -104 -74 -104q-20 0 -40 14t-22 14q-10 0 -10 -20v-1042q0 -54 -40 -54q-6 0 -43 16t-104 32t-143 16q-82 0 -160 -23 t-121 -45t-47 -22q-30 0 -30 32q0 20 35 56t83 66q44 26 85 38t59 14t28 6t10 22l2 1948q0 18 -14 18q-82 0 -153 38t-104 76t-33 56zM468 -330q0 -12 12 -14q44 -8 78 -23t50 -26t20 -11q10 0 10 12v2090q0 12 -8 12q-6 0 -10 -6q-28 -16 -53 -27t-43 -14t-31 -6t-19 -7 t-6 -14v-1966z" />
<glyph unicode="^" horiz-adv-x="1064" d="M128 1220q0 20 18 50q270 456 292 486q22 28 52 40q16 8 36 8q12 0 22 -4t19 -8t19 -12t16 -13t16 -18t12 -16t11 -17t11 -16q78 -124 174 -278q114 -178 114 -204q0 -24 -19 -42t-43 -18q-12 0 -26 6t-23 13t-22 20t-19 21t-19 25t-17 21q-198 254 -200 258q-8 6 -18 6 h-2q-12 -2 -68 -66q-14 -20 -64 -80q-58 -74 -98 -122q-6 -8 -19 -24t-20 -23l-18 -18q-11 -11 -19 -18t-19 -10t-23 -3q-24 0 -40 17t-16 39z" />
<glyph unicode="_" horiz-adv-x="1324" d="M68 -116q0 62 36 62h1124q34 0 34 -62v-4q0 -72 -34 -72h-1124q-36 0 -36 66v10z" />
<glyph unicode="`" d="M20 1672q0 42 28 68t66 26h2q68 0 138 -106q78 -116 172 -256q94 -138 94 -160q0 -18 -15 -34t-35 -16h-6q-16 0 -35 16t-143 146q-116 116 -202 204q-64 64 -64 112z" />
<glyph unicode="a" horiz-adv-x="1064" d="M74 868q0 74 119 149t267 75q46 0 96 -10t112 -34t105 -85t53 -147q6 -58 6 -90v-498q0 -44 17 -71t34 -33t35 -6q34 0 54 21t31 42t25 21q22 0 22 -32q0 -60 -54 -130t-140 -70q-32 0 -61 10t-49 26t-36 31t-26 27l-8 10q-2 0 -2 1t-2 1q-6 0 -8 -5t-17 -20t-41 -31 q-112 -70 -234 -70q-128 0 -208 82t-80 200v2q0 142 106 224q36 30 95 53t117 35t110 21t86 11l34 2q20 6 20 36v90q0 130 -60 202q-60 66 -146 66q-134 0 -218 -168q-22 -28 -54 -28q-38 0 -69 24t-31 66zM270 258q0 -94 52 -138q34 -32 108 -32q58 0 108 25t70 45t32 34 q14 20 14 56v62v104q0 46 -4 60t-20 14q-62 0 -154 -20t-146 -72q-60 -50 -60 -138z" />
<glyph unicode="b" horiz-adv-x="1222" d="M10 1654q0 18 32 32q278 110 288 110q34 -6 34 -50q0 -84 -4 -403t-4 -349q0 -14 12 -14q6 0 48 25t122 51t172 26q222 0 356 -154t134 -402q0 -96 -22 -186t-102 -189t-210 -149q-132 -48 -280 -48q-66 0 -140 23t-106 23q-44 0 -79 -27t-47 -27q-40 0 -40 76 q0 148 4 737t4 737q0 34 -32 56q-18 10 -35 21t-28 17t-23 14t-18 13t-14 9t-11 7t-6 7t-4 7t-1 7zM346 164q0 -46 38 -60q118 -48 232 -48q190 0 309 120t119 308q0 204 -126 335t-296 131q-88 0 -180 -42t-92 -82v-644q0 -2 -2 -8t-2 -10z" />
<glyph unicode="c" horiz-adv-x="958" d="M42 496q0 260 150 421t392 161q132 0 225 -57t93 -131q0 -42 -29 -67t-71 -25q-54 0 -141 75t-165 75q-114 0 -200 -116t-86 -274q0 -180 114 -311t284 -131q66 0 121 21t84 47t57 46t45 20t29 -12t12 -28q0 -20 -14 -40q-66 -92 -174 -153t-242 -61q-216 0 -350 152 t-134 388z" />
<glyph unicode="d" horiz-adv-x="1242" d="M42 522q0 218 141 381t419 163h4q72 0 136 -9t100 -19l34 -10q20 0 20 22v424q0 6 -2 13t-3 12t-4 9t-6 7t-12 8t-15 9t-19 8t-24 9t-31 13t-38 14q-46 14 -46 40q0 14 22 30q316 152 326 152q28 0 28 -34q0 -24 -2 -129t-3 -288t-1 -399q0 -674 6 -742q0 -6 2 -10l4 -8 q2 -4 6 -6t10 -3t11 -3t16 -2h19q8 0 23 -1t27 -1q50 0 50 -36q0 -18 -14 -28t-57 -28t-79 -40q-50 -28 -89 -56t-56 -42t-27 -14q-20 0 -20 28v80q0 8 -8 8l-14 -10q-12 -10 -37 -24t-58 -29t-84 -25t-105 -10q-242 0 -396 166t-154 410zM212 544q0 -214 142 -340t296 -126 q76 0 148 31t88 77q10 40 10 58v566q0 32 -28 58q-102 96 -268 96q-186 0 -287 -113t-101 -307z" />
<glyph unicode="e" horiz-adv-x="1028" d="M56 520q0 254 136 409t330 155q124 0 240 -68t192 -172q20 -24 20 -54v-6q0 -22 -12 -39t-39 -30t-47 -21t-58 -20t-48 -14q-514 -178 -526 -186q-10 -4 -10 -14q0 -14 7 -49t33 -91t64 -104t110 -84t160 -36q172 0 300 122q34 36 56 36q42 0 42 -38q0 -14 -20 -38 q-78 -104 -196 -164t-248 -60q-84 0 -164 29t-155 91t-121 177t-46 269zM224 588q0 -20 12 -20q6 0 236 90t236 92q22 12 22 30q0 32 -86 100t-180 68q-110 0 -175 -96t-65 -264z" />
<glyph unicode="f" horiz-adv-x="734" d="M24 952q0 76 54 76q32 2 74 2q40 0 47 3t7 19v4q8 306 108 484q72 122 206 198t254 76q92 0 137 -41t45 -91q0 -38 -28 -68t-76 -30q-36 0 -103 31t-107 31q-128 0 -193 -155t-65 -393v-22q0 -26 4 -33t20 -7h246q56 0 56 -52v-2q0 -76 -66 -76h-236q-22 0 -22 -22v-722 v-10q0 -56 50 -58q20 -2 44 -4t35 -2t25 -1t20 -5t12 -9t7 -13t1 -20q0 -54 -42 -54q-2 0 -14 1t-33 3t-48 5t-62 4t-69 1t-70 -1t-62 -4t-48 -5t-34 -3t-14 -1q-40 0 -40 60q0 26 16 33t70 15q22 2 34 4q8 0 14 3t10 8t6 7t4 9t2 10t1 13t1 12q10 128 10 720q0 18 -15 23 t-71 5h-48q-54 0 -54 44z" />
<glyph unicode="g" horiz-adv-x="1106" d="M56 698q0 160 117 276t289 116q106 0 206 -44t112 -44q78 0 132 78q38 58 72 58t65 -33t31 -69q0 -44 -38 -76t-89 -53t-53 -23q-12 -14 -12 -20t7 -25t15 -55t8 -78q0 -174 -122 -299t-296 -125q-50 0 -94 12t-54 12q-34 0 -74 -44t-40 -84q0 -68 107 -90t273 -27 t238 -27q114 -32 171 -109t57 -169q0 -56 -24 -113t-80 -111t-164 -88t-256 -34q-272 0 -382 99t-110 217q0 26 5 49t13 42t16 35t19 29t22 23t21 17t18 13t12 10l6 2q4 4 4 12q0 2 -23 17t-47 50t-24 83q0 120 140 234l4 2q2 2 2 8q0 10 -22 22t-60 48t-70 92 q-48 84 -48 184zM210 -222q0 -110 116 -179t294 -69q174 0 247 55t73 127q0 104 -102 150q-50 28 -119 36t-194 12t-217 14h-8q-18 0 -44 -28q-46 -46 -46 -118zM250 728q0 -144 74 -250t188 -106q100 0 162 80t62 198q0 140 -75 248t-191 108q-96 0 -158 -77t-62 -201z" />
<glyph unicode="h" horiz-adv-x="1292" d="M30 1602q0 26 42 48q278 160 288 160h2q38 0 38 -46l-2 -778q0 -16 12 -16q4 0 43 23t109 46t146 23q236 0 338 -228q38 -94 52 -211t22 -455q0 -36 12 -53t27 -20t53 -9q42 -4 42 -46q0 -54 -32 -54q-2 0 -14 1t-34 3t-48 5t-63 4t-72 1t-69 -1t-61 -4t-48 -5t-33 -3 t-14 -1q-28 0 -28 34v16q0 14 1 21t7 13t13 9t20 5t24 3t34 4t43 5q38 4 45 39t7 179q0 246 -31 356t-89 174q-92 90 -204 90q-76 0 -143 -40t-77 -82q-2 -10 -2 -34q0 -606 6 -624q6 -36 37 -51q27 -13 56 -13h8q33 2 60 -11t27 -43q0 -50 -28 -50q-4 0 -16 1t-34 3t-49 5 t-63 4t-70 1q-38 0 -73 -1t-64 -4t-51 -5t-34 -3t-14 -1q-30 0 -30 48q0 30 15 37t77 21q26 4 41 20t16 27t3 39q12 380 12 690v10q0 558 -8 618q-6 32 -93 52t-87 54z" />
<glyph unicode="i" horiz-adv-x="610" d="M36 928q0 6 4 14t13 13t16 8t19 8t18 9q276 132 278 132h2q34 0 34 -42l-2 -82q-4 -80 -8 -217t-4 -271v-84q0 -234 7 -276t49 -46q74 -10 94 -18t20 -36q0 -54 -30 -54q-2 0 -14 1t-35 3t-50 5t-62 4t-70 1t-72 -1t-63 -4t-48 -5t-34 -3t-14 -1q-40 0 -40 41t16 49 t110 20q44 8 55 29t11 61v120v237q0 111 1 174t1 75q0 28 -18 39t-152 65q-32 12 -32 32zM260 1558q0 48 37 83t86 35t85 -35t36 -81q0 -52 -36 -86t-87 -34t-86 33t-35 85z" />
<glyph unicode="j" horiz-adv-x="582" d="M-92 -496q0 38 30 73t82 35q14 0 39 -4t37 -4q20 0 41 7t45 26t40 62t16 105q0 12 -1 70t-1 160v222q0 140 1 261t3 191t2 84q0 12 -2 20t-3 14t-8 13l-12 12q-5 5 -20 14t-26 16t-36 22t-43 27q-24 10 -24 30q0 16 31 31t273 119q10 4 16 4q26 0 26 -42q0 -12 -2 -73 t-3 -170t-1 -237q0 -198 3 -369t5 -268t2 -119q0 -58 -36 -112q-36 -48 -82 -104t-137 -130t-159 -74q-40 0 -68 25t-28 63zM260 1520q0 52 36 86t88 34q48 0 84 -33t36 -82t-37 -85t-86 -36t-85 34t-36 82z" />
<glyph unicode="k" horiz-adv-x="1140" d="M12 1660q0 26 52 42q238 106 248 106q28 0 28 -42v-1190q0 -10 6 -10q10 0 16 10l74 74l59 59l43 43q22 22 34 35t21 25t12 21t5 18t2 23q0 42 -33 67t-33 39v26q0 32 54 32h146q74 0 136 3t98 4t44 1q36 0 36 -48q0 -28 -12 -38t-58 -15t-74 -13q-56 -14 -117 -58 t-100 -84t-151 -152q-16 -18 -16 -22q0 -10 292 -360q44 -52 71 -80t78 -58t107 -36q42 -6 42 -46q0 -50 -42 -50q-2 0 -16 1t-36 3t-50 5t-65 4t-74 1t-74 -1t-65 -4t-50 -5t-36 -3t-16 -1q-34 0 -34 42v2q0 32 18 45t41 12t42 9t19 34t-66 118t-127 170t-67 84q0 4 -10 4 t-40 -32t-32 -42q-2 -6 -2 -26v-260q0 -36 17 -43t99 -17q54 -12 54 -54t-36 -42q-4 0 -29 3t-69 5t-96 2t-96 -2t-70 -5t-30 -3q-44 0 -44 44q0 30 19 41t43 11t45 12t23 42v1358q0 40 -32 62q-110 76 -116 80z" />
<glyph unicode="l" horiz-adv-x="600" d="M28 1636v2q0 12 92 62q116 56 218 110q14 10 30 10q36 0 36 -46v-1594q0 -16 1 -25t3 -18t5 -14t11 -10t12 -7t18 -6t20 -5t27 -4t31 -5q42 -8 42 -52q0 -48 -30 -48q-2 0 -16 1t-36 3t-49 5t-64 4t-71 1t-69 -1t-62 -2t-48 -4t-33 -4t-14 -1q-38 0 -38 44v8q0 32 16 40 t88 16q44 4 57 28t13 68v1282q0 6 -1 13t-3 12t-3 8t-8 7t-10 6t-14 9t-17 9q-24 14 -52 30t-39 24t-24 16t-16 14t-3 14z" />
<glyph unicode="m" horiz-adv-x="1820" d="M56 40q0 26 21 36t46 10t48 15t25 49v624q0 32 -11 47t-61 55q-18 12 -28 20q-22 14 -22 28t12 25t74 47q66 42 118 74q42 22 46 22q22 0 22 -30v-96q0 -14 10 -14q4 0 40 28t102 55t132 27q34 0 66 -7t59 -19t51 -27t41 -30t29 -26t20 -19l6 -10q4 -2 11 -2t12 3t11 9 t28 21t54 33q126 74 244 74q110 0 204 -65t136 -207q28 -106 28 -296v-320q0 -16 2 -29t8 -21t8 -13t16 -10t20 -6t31 -6t37 -7q34 -6 34 -48q0 -48 -36 -48q-6 0 -33 3t-76 7t-103 4q-58 0 -106 -4t-76 -7t-32 -3q-16 0 -29 9t-13 33q0 34 16 41t102 25q52 6 52 68v350 q0 276 -104 366q-72 56 -158 56q-76 0 -152 -41t-76 -73l2 -8q0 -8 3 -23t5 -34t3 -48t1 -57v-486q0 -2 -1 -9t-1 -13v-2q0 -42 86 -48q22 -4 38 -6q48 -8 48 -50q0 -50 -32 -50q-2 0 -16 1t-36 3t-49 5t-64 4t-71 1t-71 -1t-64 -4t-49 -5t-34 -4h-16q-34 0 -34 54 q0 34 94 46q26 6 42 8q42 6 54 26t12 70v464q0 158 -81 219t-177 61q-72 0 -124 -33t-68 -65q-10 -24 -10 -66v-606q0 -12 1 -20t2 -14t5 -13t6 -10t11 -6t14 -5t19 -5t21 -4t25 -3t32 -6q34 -4 34 -54q0 -38 -32 -38l-32 4q-30 2 -80 6t-102 4q-50 0 -92 -2t-65 -5t-27 -3 q-36 0 -36 50z" />
<glyph unicode="n" horiz-adv-x="1254" d="M28 30q0 34 16 43t82 19q44 6 55 26t11 60v600q0 44 -12 60t-102 82q-14 14 -14 24v4q0 12 17 23t105 57q70 38 116 62q16 10 26 10q28 0 28 -38v-98q0 -2 -2 -10v-4q0 -10 8 -10h2q2 0 18 15t46 37t69 44t96 38t117 16h6q52 0 102 -14t108 -49t97 -112t49 -187 q6 -42 6 -128v-48q0 -38 -1 -136t-1 -252v-4q0 -12 2 -23t3 -17t9 -13t11 -9t17 -6t20 -4t27 -2t31 -4q36 -6 36 -48q0 -48 -38 -48q-8 0 -35 3t-75 7t-102 4q-32 0 -64 -1t-56 -4t-43 -5t-31 -4h-14q-34 0 -34 48q0 28 15 35t79 17q22 6 36 8q26 4 34 15t8 43v392 q0 184 -34 272q-36 84 -110 117t-140 33q-96 0 -173 -59t-87 -103q-4 -20 -4 -34v-596v-6q0 -64 56 -72q112 -18 122 -28q14 -12 14 -40q0 -46 -32 -46q-2 0 -16 2t-36 4t-49 6t-63 5t-70 1t-69 -1t-60 -4t-45 -5t-32 -3t-16 -1q-40 0 -40 44z" />
<glyph unicode="o" horiz-adv-x="1174" d="M54 514q0 254 161 414t383 160q226 0 376 -161t150 -413q0 -258 -156 -409t-380 -151q-236 0 -385 162t-149 398zM248 526q0 -196 96 -323t251 -127t256 127t101 301q0 198 -112 332t-260 134q-122 0 -227 -109t-105 -335z" />
<glyph unicode="p" horiz-adv-x="1242" d="M32 -524q0 8 1 14t5 10t6 7t11 7t15 5t20 5t25 5t30 6t35 7q54 10 54 70v1162v6q0 40 -32 52q-34 14 -84 36q-64 28 -75 35t-11 17v2q0 10 110 74q90 52 160 94q8 4 15 8t11 8t8 5t8 1q20 0 20 -30v-148q0 -14 10 -14l32 34q32 34 101 75t155 53q20 2 58 2 q208 0 342 -159t134 -383q0 -250 -168 -405t-430 -155q-24 0 -49 2t-45 4t-34 5t-24 3l-10 2q-18 0 -18 -28v-346v-8q0 -58 56 -64q26 -2 59 -5t48 -4t34 -3t28 -7t18 -13t11 -19t2 -27q0 -38 -30 -38q-4 0 -35 3t-85 5t-116 2q-80 0 -160 -5t-128 -9l-46 -6q-42 0 -42 50z M398 186q0 -48 64 -78q80 -40 168 -40q160 0 279 121t119 303q0 180 -119 313t-271 133q-94 0 -168 -54q-72 -50 -72 -156v-542z" />
<glyph unicode="q" horiz-adv-x="1320" d="M40 536q0 96 37 188t112 177t211 138t314 53q92 0 188 -16t100 -16q42 0 64 32t28 32q30 0 30 -140q0 -10 1 -32t1 -34v-1268q0 -54 16 -80t40 -33t82 -15q34 -6 34 -34q0 -54 -44 -54q-4 0 -21 1t-48 3t-69 2q-54 0 -108 -4t-93 -8t-70 -9t-49 -8t-22 -3q-44 0 -44 46 q0 8 2 15t5 12t8 9t13 7t15 5t19 4t21 4t26 5t29 5q74 16 74 102v434q0 18 -14 18q-6 0 -46 -25t-115 -48t-165 -23q-230 0 -396 164t-166 394zM222 588q0 -190 139 -324t327 -134q68 0 139 21t95 45q22 22 22 78q0 114 -6 590q0 48 -36 74q-114 74 -250 74 q-178 0 -304 -123t-126 -301z" />
<glyph unicode="r" horiz-adv-x="900" d="M30 28q0 22 10 33t19 14t38 7t45 10q48 8 48 58v670q0 14 -3 23t-14 20t-22 18t-43 29t-58 42q-8 8 -10 18q0 10 100 56q92 44 166 82q2 0 6 2q10 4 16 4q28 0 28 -52v-100q0 -12 8 -12q2 0 54 35t116 77t93 52t75 10q68 0 132 -31t64 -79v-2q0 -16 -10 -31t-17 -22 t-25 -21l-16 -16q-4 0 -27 -18t-40 -26t-37 -8q-30 0 -68 32t-82 32q-54 0 -116 -39t-78 -63q-10 -16 -10 -48v-602v-10q0 -72 60 -76q26 -2 68 -4q76 -6 97 -15t21 -43q0 -48 -34 -48q-4 0 -17 1t-38 3t-54 5t-70 4t-77 1q-40 0 -79 -1t-70 -4t-55 -5t-37 -3t-15 -1 q-42 0 -42 42z" />
<glyph unicode="s" horiz-adv-x="850" d="M66 314q0 50 9 65t36 15t34 -22t10 -65t15 -71q22 -50 104 -99t182 -49q86 0 145 47t59 121q0 46 -21 82t-66 59t-72 34t-85 27l-60 12q-278 82 -278 308q0 118 100 208t262 90q34 0 63 -4t45 -7t18 -3q10 0 30 13t34 13q30 0 40 -48q6 -36 19 -103t21 -112t8 -51 q0 -38 -58 -38q-26 0 -37 18t-21 53t-22 51q-26 38 -87 68t-119 30q-66 0 -113 -36t-47 -96q0 -126 200 -182q24 -8 73 -19t76 -18t65 -22t68 -37t56 -54q78 -88 78 -200q0 -132 -105 -235t-279 -103q-96 0 -196 32t-152 92q-30 32 -30 86q0 40 -1 89t-1 61z" />
<glyph unicode="t" horiz-adv-x="836" d="M50 952q0 14 35 45t102 104t125 171q28 46 50 46q34 0 34 -42q0 -16 -1 -88t-1 -88q0 -50 48 -50h228q4 0 11 -1t11 -1q64 0 64 -47t-22 -73q-14 -12 -46 -12h-294q-26 0 -26 -26q0 -204 -1 -339t-2 -182t-1 -67q0 -186 130 -186q52 0 109 38t100 76t65 38q20 0 33 -15 t13 -31t-16 -42q-200 -226 -352 -226q-92 0 -167 72t-87 232q-2 28 -2 82q0 60 5 298t5 260t-18 22h-82q-50 0 -50 32z" />
<glyph unicode="u" horiz-adv-x="1270" d="M18 1004v8q0 32 26 34q252 14 264 14q24 0 24 -30v-516q0 -164 46 -260q36 -68 106 -118t160 -50q124 0 214 92q6 6 14 15t11 13t8 8t6 8t3 9t2 9v10v620q0 54 -48 70q-12 4 -118 22q-38 8 -38 42q0 36 36 42q80 2 145 4t91 4t45 2h29q36 0 36 -50v-790q0 -6 1 -10t5 -8 t9 -6t15 -7t22 -10t32 -15t42 -20t22 -30q0 -26 -11 -36t-33 -14t-81 -25t-129 -59q-14 -10 -26 -10q-36 0 -36 48v60q0 10 -6 10q-4 0 -22 -14t-49 -32t-70 -37t-96 -32t-115 -13q-156 0 -259 96t-125 268q-8 74 -8 154q0 48 1 219t1 185q0 46 -68 72q-12 4 -38 12t-33 15 t-7 27z" />
<glyph unicode="v" horiz-adv-x="1232" d="M4 1014q0 32 30 32q8 0 39 -1t85 -4t118 -3t118 3t85 4t37 1q36 0 36 -52q0 -22 -12 -33t-26 -11t-46 -1t-58 -7q-50 -4 -50 -44q0 -20 35 -118t109 -259t156 -303q18 -18 24 -18q12 0 12 12q86 150 145 317t78 256t19 121q0 6 -2 12t-7 11t-9 8t-13 5t-16 4t-21 3t-24 2 t-27 2t-29 1q-40 8 -40 44v14q0 34 30 34q4 0 30 -1t72 -4t100 -3t99 3t71 4t32 1q38 0 38 -48q0 -28 -17 -38t-40 -9t-48 -4t-35 -25q-4 -6 -14 -52q-60 -216 -145 -435t-142 -337t-77 -138q-20 -24 -50 -24q-42 0 -84 78q-140 250 -246 467t-149 318t-51 117 q-16 18 -39 27t-39 9t-29 14t-13 48z" />
<glyph unicode="w" horiz-adv-x="1894" d="M14 1004q0 42 48 42q4 0 28 -1t65 -4t91 -3h8q46 0 88 3t65 4t29 1q28 0 28 -42q0 -50 -77 -52t-77 -40q0 -20 14 -48q122 -316 284 -632q10 -20 24 -20q8 0 14 5t8 8t2 7q72 108 150 259t80 181v2q0 12 -42 104t-52 108q-22 32 -56 45q-32 12 -59 12h-4q-29 -1 -50 8 t-21 35q0 60 40 60q8 0 41 -1t92 -4t128 -3t127 3t91 4t41 1q34 0 34 -38v-16q0 -26 -11 -31t-75 -9q-38 -2 -60 -4q-58 -6 -58 -52q0 -42 101 -256t213 -392q20 -34 42 -34t30 22q80 142 141 302t82 245t21 107q0 10 -2 19t-7 14t-8 10t-12 7t-16 3l-21 3q-14 2 -24 3 t-29 2t-35 1q-44 4 -44 52q0 42 30 42q4 0 29 -3t71 -5t96 -2q54 0 100 2t72 5t30 3q38 0 38 -42q0 -20 -7 -32t-16 -16t-18 -6t-22 -2h-17q-44 -10 -62 -76t-107 -310t-261 -562q-34 -64 -72 -64q-28 0 -54 39t-96 165q-26 50 -42 78q-162 308 -166 310q-8 0 -102 -198 q-176 -358 -188 -370q-20 -24 -44 -24q-40 0 -74 66q-122 226 -220 445t-146 341t-50 124q-12 26 -33 34t-37 7t-29 10t-13 41z" />
<glyph unicode="x" horiz-adv-x="1114" d="M22 40q0 38 53 48t63 18t24 26q290 384 294 394q0 8 -10 18q-292 362 -306 376q-24 22 -66 28q-46 4 -46 56q0 42 34 42q4 0 31 -1t74 -4t101 -3t102 3t75 4t33 1q28 0 28 -34v-6q0 -4 2 -13t2 -11q0 -18 -11 -23t-57 -9q-14 -2 -24 -2q-40 -6 -40 -36q0 -12 36 -60 q58 -78 112 -150q32 -40 37 -40t13 8q176 236 176 248q0 26 -61 29t-61 35q0 64 32 64q4 0 28 -1t64 -4t88 -3h6q50 0 92 3t65 4t29 1q32 0 32 -38q0 -24 -8 -35t-20 -15t-50 -8q-12 -2 -16 -2q-52 -8 -74 -23t-56 -57q-214 -282 -214 -284q0 -8 346 -448q8 -10 14 -18 t12 -14t10 -8t12 -5t12 -4t16 -3t18 -2q24 -6 24 -32q0 -60 -36 -60q-6 0 -32 3t-72 5t-100 2t-101 -2t-73 -5t-32 -3q-28 0 -28 42q0 28 11 39t53 16t60 9q30 10 30 32q0 4 -10 24q-230 288 -234 290h-2l-4 4q-10 0 -86 -104q-62 -86 -112 -150q-34 -44 -34 -64 q0 -36 69 -43t79 -19q4 -6 4 -26q0 -50 -32 -50q-4 0 -27 3t-64 5t-91 2q-46 0 -88 -2t-65 -6t-29 -4q-24 0 -24 52z" />
<glyph unicode="y" horiz-adv-x="1178" d="M10 1004q0 42 34 42q6 0 30 -1t70 -4t97 -3t97 3t72 4t30 1q34 0 34 -40q0 -10 -1 -16t-1 -11t-4 -9t-5 -7t-7 -5t-8 -3t-12 -2t-15 -2t-19 -2t-20 -1q-40 -6 -40 -36q0 -12 31 -94t98 -230t147 -296q0 -14 16 -14q8 0 13 5t7 11t6 8q206 496 206 594q0 14 -4 24t-9 16 t-17 9t-22 4t-32 1t-36 2q-48 4 -48 49t48 45q4 0 29 -1t70 -4t97 -3h2q52 0 95 3t68 4t29 1q30 0 30 -52q0 -28 -15 -34t-83 -12q-24 -4 -33 -18t-39 -94q-58 -166 -128 -334q-244 -596 -450 -908q-100 -154 -186 -154q-42 0 -71 27t-29 63q0 44 32 77t95 73t95 70 q54 48 112 143t58 143q0 64 -280 626q-116 226 -138 258q-14 22 -40 26t-41 12t-15 46z" />
<glyph unicode="z" horiz-adv-x="906" d="M30 60q0 18 34 72l512 694q16 18 16 32q0 38 -50 38h-300q-20 0 -29 -15t-19 -61q-4 -26 -8 -40q-12 -40 -44 -40q-44 0 -44 32q0 2 3 16t6 37t7 53t7 70t3 82v78q0 36 40 36h16q30 0 33 -47t35 -47h552q54 0 54 -36q0 -8 -16 -38q-184 -250 -392 -534 q-178 -238 -178 -250q0 -28 40 -28h364q6 0 21 -1t17 -1q28 0 38 17t20 79q4 34 10 56q12 40 44 40q58 0 58 -42q0 -2 -3 -20t-7 -52t-9 -75t-9 -98t-4 -113q0 -38 2 -69t2 -48v-21q0 -50 -78 -50q-40 0 -40 44v154q0 36 -42 36h-586q-76 0 -76 60z" />
<glyph unicode="{" horiz-adv-x="632" d="M114 644q0 6 14 13t36 23t45 42t37 74t14 110q0 96 -33 281t-33 289q0 180 83 259t185 79q62 0 62 -14q0 -2 -27 -15t-65 -52t-58 -95q-20 -58 -20 -118q0 -66 35 -224t35 -260q0 -106 -30 -200t-58 -144t-28 -52q0 -6 27 -46t54 -118t27 -174q0 -84 -36 -242t-36 -238 q0 -64 17 -119t41 -89t47 -58t41 -36l16 -12q0 -8 -42 -8q-104 0 -192 85t-88 273q0 100 41 270t41 246q0 50 -11 90t-26 67t-35 49t-36 32t-30 18l-12 10q-2 2 -2 4z" />
<glyph unicode="|" horiz-adv-x="382" d="M126 -464v2240q0 32 60 32h6q40 0 53 -6t13 -26v-2240q0 -36 -64 -36h-10q-58 0 -58 36z" />
<glyph unicode="}" horiz-adv-x="632" d="M116 1800q0 14 62 14q102 0 185 -79t83 -259q0 -104 -34 -289t-34 -281q0 -52 10 -94t25 -67t35 -44t34 -28t30 -13l12 -8q2 -2 2 -6q0 -8 -10 -12q-140 -74 -140 -260q0 -76 40 -246t40 -270q0 -188 -88 -273t-194 -85q-42 0 -42 8l18 12q18 12 41 36t46 58t41 89 t18 119q0 80 -36 238t-36 242q0 96 27 175t54 118t27 44t-10 25q-106 162 -106 372q0 102 35 260t35 224q0 62 -18 114t-42 80t-50 46t-43 28t-17 12z" />
<glyph unicode="~" horiz-adv-x="1134" d="M62 488q0 4 24 46t61 96t63 78q70 76 166 76q74 0 188 -72t188 -72q62 0 117 34t92 76t41 42q10 6 14 6q12 0 36 -15t24 -33q0 -8 -19 -37t-55 -72t-80 -84t-104 -69t-120 -28q-90 0 -195 75t-169 75q-110 0 -216 -162q-4 -12 -18 -12q-8 0 -23 19t-15 33z" />
<glyph unicode="&#xa1;" horiz-adv-x="816" d="M274 1570q0 52 36 90t91 38t93 -36t38 -93t-37 -92t-91 -35t-92 37t-38 91zM308 22v60q0 240 26 494t48 377t36 171q12 40 42 40q42 0 42 -84v-32q2 -92 5 -180t6 -163t6 -146t6 -129t6 -109t7 -88t5 -64t3 -41v-12q0 -38 -32 -54q-172 -102 -182 -102q-24 0 -24 62z" />
<glyph unicode="&#xa8;" horiz-adv-x="642" d="M30 1558q0 48 35 83t85 35q52 0 88 -34t36 -82q0 -52 -36 -86t-88 -34t-86 33t-34 85zM372 1558q0 48 35 83t85 35q52 0 86 -34t34 -82q0 -52 -35 -86t-85 -34q-52 0 -86 33t-34 85z" />
<glyph unicode="&#xa9;" horiz-adv-x="1942" d="M76 836q0 370 260 635t636 265q374 0 636 -265t262 -635q0 -366 -260 -632t-640 -266q-368 0 -631 261t-263 637zM204 836q0 -322 228 -545t540 -223t541 222t229 548q0 310 -224 538t-548 228q-320 0 -543 -226t-223 -542zM382 807q0 241 173 414t421 173q94 0 165 -21 t108 -40t45 -19q4 0 19 28t43 28q24 0 28 -24q46 -310 46 -334q0 -46 -46 -46q-26 0 -36 18t-10 42t-10 61t-32 67q-128 154 -324 154q-170 0 -298 -129t-128 -343q0 -218 132 -368t316 -150q136 0 252 85t162 227q8 24 36 24t28 -24q-36 -210 -38 -246q-4 -46 -46 -46h-44 q-18 0 -24 -2t-21 -13t-29 -17q-140 -84 -300 -84q-246 0 -417 172t-171 413z" />
<glyph unicode="&#xaa;" horiz-adv-x="1064" d="M74 868q0 74 119 149t267 75q46 0 96 -10t112 -34t105 -85t53 -147q6 -58 6 -90v-498q0 -44 17 -71t34 -33t35 -6q34 0 54 21t31 42t25 21q22 0 22 -32q0 -60 -54 -130t-140 -70q-32 0 -61 10t-49 26t-36 31t-26 27l-8 10q-2 0 -2 1t-2 1q-6 0 -8 -5t-17 -20t-41 -31 q-112 -70 -234 -70q-128 0 -208 82t-80 200v2q0 142 106 224q36 30 95 53t117 35t110 21t86 11l34 2q20 6 20 36v90q0 130 -60 202q-60 66 -146 66q-134 0 -218 -168q-22 -28 -54 -28q-38 0 -69 24t-31 66zM270 258q0 -94 52 -138q34 -32 108 -32q58 0 108 25t70 45t32 34 q14 20 14 56v62v104q0 46 -4 60t-20 14q-62 0 -154 -20t-146 -72q-60 -50 -60 -138z" />
<glyph unicode="&#xab;" horiz-adv-x="916" d="M56 488q0 8 18 26q386 324 390 328q16 0 31 -18t15 -30q0 -10 -24 -37t-220 -251l-6 -4q-4 -8 -4 -12q0 -10 86 -108q84 -100 154 -182q10 -10 10 -20q0 -16 -14 -33t-30 -17q-10 0 -148 120q-132 116 -242 212q-16 10 -16 26zM410 487q0 15 18 27q96 82 222 190 q162 138 172 138q14 0 28 -16t14 -32q0 -10 -24 -37t-220 -251q-10 -10 -10 -16q0 -10 84 -108q84 -100 154 -182q10 -8 10 -20q0 -16 -12 -33t-26 -17t-174 140q-124 108 -220 192q-16 10 -16 25z" />
<glyph unicode="&#xac;" horiz-adv-x="1762" d="M132 638v32q0 56 62 56h1420q22 0 22 -22v-552q0 -48 -50 -48h-34q-62 0 -62 66v414h-1298q-60 0 -60 54z" />
<glyph unicode="&#xad;" d="M30 452v38q0 24 8 35t40 33q108 76 246 172q160 114 178 114q40 0 40 -98q0 -38 -46 -72q-56 -40 -109 -77t-88 -62t-67 -49t-52 -37t-37 -26t-26 -19t-17 -9t-13 -5t-11 -2q-46 0 -46 64z" />
<glyph unicode="&#xae;" horiz-adv-x="1306" d="M126 1370q0 222 152 377t372 155t375 -155t155 -377q0 -216 -155 -371t-375 -155q-218 0 -371 155t-153 371zM214 1370q0 -174 130 -303t306 -129q180 0 310 129t130 303q0 180 -129 310t-311 130q-178 0 -307 -130t-129 -310zM356 1668q0 22 22 22h30q44 0 108 6t94 6 q114 0 165 -50t51 -114q0 -62 -37 -104t-69 -54q78 -86 146 -202q30 -54 66 -54q10 0 20 10t20 10q14 0 14 -17t-23 -44t-61 -27q-54 0 -100 68l-168 228q-4 14 -18 14h-68q-4 0 -4 -8v-210l-2 -4q0 -20 54 -24t54 -32t-26 -28l-36 2q-36 4 -78 4q-32 0 -58 -2t-41 -3 t-17 -1q-26 0 -26 30q0 14 8 19t42 11q6 2 10 2q20 0 20 24v468q0 22 -50 30q-12 2 -20 4q-22 0 -22 20zM536 1640l2 -2v-216q0 -12 52 -12q144 0 144 110q0 56 -39 96t-105 40q-54 0 -54 -16z" />
<glyph unicode="&#xb0;" horiz-adv-x="532" d="M30 1493q0 101 71 174t167 73q98 0 167 -74t69 -172q0 -102 -69 -173t-167 -71q-96 0 -167 71t-71 172zM130 1496q0 -64 41 -107t99 -43q62 0 100 44t38 104t-40 106t-99 46t-99 -44t-40 -106z" />
<glyph unicode="&#xb1;" horiz-adv-x="1762" d="M132 24v36q0 54 62 54h1390q52 0 52 -48v-36q0 -40 -18 -50t-50 -10h-1376q-60 0 -60 54zM132 760v38q0 54 62 54h618v486q0 40 48 40h38q34 0 45 -13t11 -39v-474h630q52 0 52 -50v-36q0 -40 -18 -50t-50 -10h-614v-482q0 -44 -52 -44h-36q-32 0 -43 11t-11 35v480h-620 q-60 0 -60 54z" />
<glyph unicode="&#xb2;" horiz-adv-x="1130" d="M64 758q0 134 98 222t248 88q178 0 310 -105t132 -261q0 -72 -37 -146t-71 -113t-127 -130t-127 -129q-10 -14 -10 -16q0 -22 26 -22q58 0 186 8q96 8 163 49t125 161q8 28 32 28q44 0 44 -32q0 -8 -94 -324q-2 -8 -7 -15t-9 -10t-13 -6t-12 -3t-16 -1t-17 -1 q-98 -4 -272 -12t-294 -14t-130 -6q-68 0 -68 46q0 14 4 22t20 20t36 24t59 37t79 57q180 144 312 310q62 82 62 146q0 116 -108 199t-226 83q-94 0 -149 -54t-61 -124q0 -68 -36 -68h-2q-50 0 -50 92z" />
<glyph unicode="&#xb3;" horiz-adv-x="904" d="M66 854q0 106 63 184t171 78q62 0 145 -27t162 -99t79 -168q0 -66 -37 -155t-74 -150t-37 -65q0 -12 19 -17t64 -18t89 -41q144 -78 144 -288q0 -246 -108 -384q-62 -80 -169 -121t-217 -41q-136 0 -212 63t-76 119q0 44 33 73t77 29q42 0 74 -27t52 -61t66 -61t116 -27 q118 0 173 96t55 230q0 284 -308 284q-36 0 -66 -2t-34 -2q-20 0 -31 11t-11 23q0 8 1 13t7 11t15 12t26 21t37 35q162 156 162 306q0 90 -53 167t-177 77q-134 0 -134 -96v-34l2 -20q0 -32 -44 -32t-44 104z" />
<glyph unicode="&#xb4;" d="M36 1244q0 26 114 192q86 126 152 224q70 106 138 106q40 0 67 -26t27 -68q0 -48 -60 -112q-328 -338 -350 -354q-18 -12 -38 -12q-22 0 -36 16t-14 34z" />
<glyph unicode="&#xb6;" horiz-adv-x="1888" d="M66 742q0 222 84 420t215 333t294 214t323 79q64 0 122 -13t94 -33t64 -41t44 -34t18 -13q6 0 20 17t50 52t86 67q96 58 176 58t123 -47t43 -107q0 -64 -44 -108t-90 -44q-22 0 -40 15t-18 37q0 24 29 54t29 50t-17 36t-55 16q-78 0 -148 -63t-100 -129 q-156 -316 -156 -748v-10q4 -336 74 -609t160 -415q80 -118 146 -158q12 -6 49 -9t60 -14t23 -40t-28 -49t-66 -20h-12q-68 0 -144 74q-64 62 -144 214q-80 154 -130 332q-2 -2 -25 -23t-30 -26t-30 -21t-38 -22t-43 -19t-56 -18t-68 -11t-84 -8q-10 0 -27 -1t-25 -1 q-312 0 -510 227t-198 559zM500 806q0 -328 113 -545t293 -217q42 0 87 17t45 37q0 6 -12 39t-29 92t-35 136t-30 191t-12 234q0 160 20 307t47 246t54 171t47 114t20 48q0 14 -39 24t-71 10q-146 0 -257 -137t-173 -313q-68 -210 -68 -450v-4zM984 814q0 -148 25 -315 t53 -268t42 -101q10 0 36 35t38 63q-58 332 -58 566q0 128 13 250t33 204t40 145t33 99t13 38q0 24 -31 70t-47 46q-4 0 -12 -10q-178 -350 -178 -822z" />
<glyph unicode="&#xb7;" d="M136 654q0 64 44 106t105 42t106 -44t45 -106q0 -60 -42 -103t-106 -43q-62 0 -107 42t-45 106z" />
<glyph unicode="&#xb8;" horiz-adv-x="498" d="M46 -450q0 4 4 17t13 27t21 14l10 -2q10 -2 23 -4t29 -5t35 -5t31 -2q44 0 70 23t26 59q0 50 -51 87t-129 41q-12 0 -12 8q0 2 13 37t35 88t32 79h80q-6 -16 -17 -47t-17 -53l-8 -22q0 -8 10 -8h4q94 0 153 -50t59 -142q0 -78 -47 -135t-159 -57q-58 0 -123 12t-75 22 t-10 18z" />
<glyph unicode="&#xb9;" horiz-adv-x="894" d="M66 1028q0 40 38 40q6 0 46 -3t111 -4t152 -1t151 1t110 4t46 3q36 0 36 -54q0 -44 -118 -50q-46 -2 -72 -4q-34 -4 -34 -40v-768q0 -48 44 -52q26 -2 55 -3t47 -2t38 -2t30 -4t22 -5t17 -7t10 -11t6 -15t1 -21q0 -44 -44 -44q-2 0 -20 1t-47 3t-66 5t-85 4t-95 1t-93 -1 t-83 -4t-66 -5t-46 -3t-19 -1q-34 0 -34 50q0 46 44 50q36 2 90 8q72 2 87 9t15 43v774q0 34 -38 40q-194 10 -198 10q-38 10 -38 58z" />
<glyph unicode="&#xba;" horiz-adv-x="1174" d="M54 514q0 254 161 414t383 160q226 0 376 -161t150 -413q0 -258 -156 -409t-380 -151q-236 0 -385 162t-149 398zM248 526q0 -196 96 -323t251 -127t256 127t101 301q0 198 -112 332t-260 134q-122 0 -227 -109t-105 -335z" />
<glyph unicode="&#xbb;" horiz-adv-x="916" d="M56 794q0 18 15 33t29 15q10 0 390 -328q20 -12 20 -27t-16 -25q-380 -330 -394 -332q-14 0 -26 15t-12 33q0 12 130 164q64 74 106 122q12 14 12 26q0 6 -8 16l-236 262q-10 14 -10 26zM408 794q0 18 15 33t29 15q10 0 124 -96q142 -124 270 -232q14 -12 14 -26 q0 -18 -14 -26q-382 -330 -394 -332q-12 0 -25 16t-13 32q0 8 68 88q92 102 172 198q8 14 8 24q0 8 -8 18q-244 282 -246 288z" />
<glyph unicode="&#xbc;" horiz-adv-x="3114" d="M2050 34q0 22 40 82q636 912 658 942q16 22 42 22q34 0 34 -44l-2 -822q0 -28 24 -28h42q44 0 74 3t32 3q48 0 48 -32q0 -10 -9 -76t-17 -74q-10 -10 -32 -10h-140q-22 0 -22 -18v-420q0 -30 -26 -30h-100q-28 0 -28 30v414q0 24 -18 24h-560q-40 0 -40 34zM2266 180 q0 -12 14 -12h364q24 0 24 32v536q0 20 -12 20q-4 0 -14 -10q-376 -556 -376 -566zM910 -436q0 10 950 1876q12 22 40 22q22 0 49 -11t27 -37q0 -2 -8 -24q-940 -1838 -952 -1850q-10 -10 -32 -10q-74 0 -74 34zM66 1028q0 40 38 40q6 0 46 -3t111 -4t152 -1t151 1t110 4 t46 3q36 0 36 -54q0 -44 -118 -50q-46 -2 -72 -4q-34 -4 -34 -40v-768q0 -48 44 -52q26 -2 55 -3t47 -2t38 -2t30 -4t22 -5t17 -7t10 -11t6 -15t1 -21q0 -44 -44 -44q-2 0 -20 1t-47 3t-66 5t-85 4t-95 1t-93 -1t-83 -4t-66 -5t-46 -3t-19 -1q-34 0 -34 50q0 46 44 50 q36 2 90 8q72 2 87 9t15 43v774q0 34 -38 40q-194 10 -198 10q-38 10 -38 58z" />
<glyph unicode="&#xbd;" horiz-adv-x="3120" d="M2054 758q0 134 98 222t248 88q178 0 310 -105t132 -261q0 -72 -37 -146t-71 -113t-127 -130t-127 -129q-10 -14 -10 -16q0 -22 26 -22q58 0 186 8q96 8 163 49t125 161q8 28 32 28q44 0 44 -32q0 -8 -94 -324q-2 -8 -7 -15t-9 -10t-13 -6t-12 -3t-16 -1t-17 -1 q-98 -4 -272 -12t-294 -14t-130 -6q-68 0 -68 46q0 14 4 22t20 20t36 24t59 37t79 57q180 144 312 310q62 82 62 146q0 116 -108 199t-226 83q-94 0 -149 -54t-61 -124q0 -68 -36 -68h-2q-50 0 -50 92zM910 -436q0 10 950 1876q12 22 40 22q22 0 49 -11t27 -37q0 -2 -8 -24 q-940 -1838 -952 -1850q-10 -10 -32 -10q-74 0 -74 34zM66 1028q0 40 38 40q6 0 46 -3t111 -4t152 -1t151 1t110 4t46 3q36 0 36 -54q0 -44 -118 -50q-46 -2 -72 -4q-34 -4 -34 -40v-768q0 -48 44 -52q26 -2 55 -3t47 -2t38 -2t30 -4t22 -5t17 -7t10 -11t6 -15t1 -21 q0 -44 -44 -44q-2 0 -20 1t-47 3t-66 5t-85 4t-95 1t-93 -1t-83 -4t-66 -5t-46 -3t-19 -1q-34 0 -34 50q0 46 44 50q36 2 90 8q72 2 87 9t15 43v774q0 34 -38 40q-194 10 -198 10q-38 10 -38 58z" />
<glyph unicode="&#xbe;" horiz-adv-x="3124" d="M2060 34q0 22 40 82q636 912 658 942q16 22 42 22q34 0 34 -44l-2 -822q0 -28 24 -28h42q44 0 74 3t32 3q48 0 48 -32q0 -10 -9 -76t-17 -74q-10 -10 -32 -10h-140q-22 0 -22 -18v-420q0 -30 -26 -30h-100q-28 0 -28 30v414q0 24 -18 24h-560q-40 0 -40 34zM2276 180 q0 -12 14 -12h364q24 0 24 32v536q0 20 -12 20q-4 0 -14 -10q-376 -556 -376 -566zM920 -436q0 10 950 1876q12 22 40 22q22 0 49 -11t27 -37q0 -2 -8 -24q-940 -1838 -952 -1850q-10 -10 -32 -10q-74 0 -74 34zM66 854q0 106 63 184t171 78q62 0 145 -27t162 -99t79 -168 q0 -66 -37 -155t-74 -150t-37 -65q0 -12 19 -17t64 -18t89 -41q144 -78 144 -288q0 -246 -108 -384q-62 -80 -169 -121t-217 -41q-136 0 -212 63t-76 119q0 44 33 73t77 29q42 0 74 -27t52 -61t66 -61t116 -27q118 0 173 96t55 230q0 284 -308 284q-36 0 -66 -2t-34 -2 q-20 0 -31 11t-11 23q0 8 1 13t7 11t15 12t26 21t37 35q162 156 162 306q0 90 -53 167t-177 77q-134 0 -134 -96v-34l2 -20q0 -32 -44 -32t-44 104z" />
<glyph unicode="&#xbf;" horiz-adv-x="956" d="M36 330q0 86 44 161t105 134l122 118q61 59 105 143t44 180q0 12 -2 30t-2 26q0 46 21 68t47 22q68 0 68 -140q0 -110 -53 -216t-116 -176t-116 -168t-53 -194q0 -108 64 -185t156 -77q54 0 93 29t58 64t50 64t71 29q48 0 77 -32t29 -80q0 -112 -160 -148 q-98 -22 -204 -22q-218 0 -333 118t-115 252zM334 1590q0 58 45 104t109 46q60 0 105 -45t45 -109t-45 -104t-106 -40t-107 43t-46 105z" />
<glyph unicode="&#xc0;" horiz-adv-x="2066" d="M726 2172q0 42 28 67t70 25q56 0 134 -60q370 -270 382 -288q10 -18 10 -32q0 -22 -14 -34t-34 -12h-2q-18 0 -470 216l-14 6q-8 4 -13 7t-16 10t-19 13t-16 15t-13 19t-9 22t-4 26zM22 36q0 14 1 22t5 16t6 13t11 8l12 4q3 1 16 4t17 4t22 4t24 3q58 6 88 30t56 90 q178 396 384 806q364 690 376 706q6 6 16 12q26 20 60 20q68 0 106 -96l362 -836q276 -666 280 -674q28 -40 73 -52t79 -17t38 -29q6 -20 6 -34q0 -54 -52 -54l-42 4q-42 2 -112 6t-136 4q-82 0 -148 -4t-105 -7t-45 -3q-52 0 -52 42q0 12 1 22t5 18t5 13t11 10t15 6l20 4 q15 3 23 4t30 3t38 6q52 10 52 48t-61 226t-129 342q-10 26 -44 26h-594q-38 0 -56 -30q-86 -160 -154 -331t-68 -213q0 -44 29 -58t99 -20q22 0 32 -4q54 -4 54 -60q0 -54 -54 -54q-6 0 -42 3t-99 7t-137 4q-42 0 -84 -1t-74 -4t-56 -5t-39 -3t-17 -1q-52 0 -52 50z M750 898q0 -12 16 -12h516q22 0 22 19t-97 246t-125 273q-10 18 -26 18q-22 0 -48 -44q-258 -488 -258 -500z" />
<glyph unicode="&#xc1;" horiz-adv-x="2066" d="M902 1886q0 34 50 66l346 250q76 60 128 60q42 0 71 -26t29 -66q0 -10 -2 -21t-5 -18t-9 -16t-11 -14t-12 -11t-12 -9t-15 -8t-13 -8t-12 -8t-11 -5q-456 -216 -470 -216q-20 0 -36 14t-16 36zM22 36q0 14 1 22t5 16t6 13t11 8l12 4q3 1 16 4t17 4t22 4t24 3q58 6 88 30 t56 90q178 396 384 806q364 690 376 706q6 6 16 12q26 20 60 20q68 0 106 -96l362 -836q276 -666 280 -674q28 -40 73 -52t79 -17t38 -29q6 -20 6 -34q0 -54 -52 -54l-42 4q-42 2 -112 6t-136 4q-82 0 -148 -4t-105 -7t-45 -3q-52 0 -52 42q0 12 1 22t5 18t5 13t11 10t15 6 l20 4q15 3 23 4t30 3t38 6q52 10 52 48t-61 226t-129 342q-10 26 -44 26h-594q-38 0 -56 -30q-86 -160 -154 -331t-68 -213q0 -44 29 -58t99 -20q22 0 32 -4q54 -4 54 -60q0 -54 -54 -54q-6 0 -42 3t-99 7t-137 4q-42 0 -84 -1t-74 -4t-56 -5t-39 -3t-17 -1q-52 0 -52 50z M750 898q0 -12 16 -12h516q22 0 22 19t-97 246t-125 273q-10 18 -26 18q-22 0 -48 -44q-258 -488 -258 -500z" />
<glyph unicode="&#xc2;" horiz-adv-x="2066" d="M802 1870q0 16 92 130q70 88 124 154q46 60 96 60q32 0 64 -34q232 -286 234 -296q2 -4 2 -12q0 -12 -9 -25t-29 -13q-32 0 -66 36q-20 16 -42 35t-36 30t-29 23t-23 20t-18 15t-16 11t-12 6t-13 3t-11 1q-34 0 -136 -90t-132 -90q-20 0 -30 13t-10 23zM22 36q0 14 1 22 t5 16t6 13t11 8l12 4q3 1 16 4t17 4t22 4t24 3q58 6 88 30t56 90q178 396 384 806q364 690 376 706q6 6 16 12q26 20 60 20q68 0 106 -96l362 -836q276 -666 280 -674q28 -40 73 -52t79 -17t38 -29q6 -20 6 -34q0 -54 -52 -54l-42 4q-42 2 -112 6t-136 4q-82 0 -148 -4 t-105 -7t-45 -3q-52 0 -52 42q0 12 1 22t5 18t5 13t11 10t15 6l20 4q15 3 23 4t30 3t38 6q52 10 52 48t-61 226t-129 342q-10 26 -44 26h-594q-38 0 -56 -30q-86 -160 -154 -331t-68 -213q0 -44 29 -58t99 -20q22 0 32 -4q54 -4 54 -60q0 -54 -54 -54q-6 0 -42 3t-99 7 t-137 4q-42 0 -84 -1t-74 -4t-56 -5t-39 -3t-17 -1q-52 0 -52 50zM750 898q0 -12 16 -12h516q22 0 22 19t-97 246t-125 273q-10 18 -26 18q-22 0 -48 -44q-258 -488 -258 -500z" />
<glyph unicode="&#xc3;" horiz-adv-x="2066" d="M716 1898q0 6 44 73t68 91q60 60 128 60q58 0 141 -54t139 -54q52 0 94 28t68 57t36 29t29 -10t19 -22q0 -14 -49 -73t-93 -91q-68 -54 -144 -54q-68 0 -146 56t-126 56t-86 -33t-61 -66t-27 -33q-8 0 -21 15t-13 25zM22 36q0 14 1 22t5 16t6 13t11 8l12 4q3 1 16 4t17 4 t22 4t24 3q58 6 88 30t56 90q178 396 384 806q364 690 376 706q6 6 16 12q26 20 60 20q68 0 106 -96l362 -836q276 -666 280 -674q28 -40 73 -52t79 -17t38 -29q6 -20 6 -34q0 -54 -52 -54l-42 4q-42 2 -112 6t-136 4q-82 0 -148 -4t-105 -7t-45 -3q-52 0 -52 42q0 12 1 22 t5 18t5 13t11 10t15 6l20 4q15 3 23 4t30 3t38 6q52 10 52 48t-61 226t-129 342q-10 26 -44 26h-594q-38 0 -56 -30q-86 -160 -154 -331t-68 -213q0 -44 29 -58t99 -20q22 0 32 -4q54 -4 54 -60q0 -54 -54 -54q-6 0 -42 3t-99 7t-137 4q-42 0 -84 -1t-74 -4t-56 -5t-39 -3 t-17 -1q-52 0 -52 50zM750 898q0 -12 16 -12h516q22 0 22 19t-97 246t-125 273q-10 18 -26 18q-22 0 -48 -44q-258 -488 -258 -500z" />
<glyph unicode="&#xc4;" horiz-adv-x="2066" d="M820 1954q0 48 35 83t85 35q52 0 88 -34t36 -82q0 -52 -36 -86t-88 -34t-86 33t-34 85zM1162 1954q0 48 35 83t85 35q52 0 86 -34t34 -82q0 -52 -35 -86t-85 -34q-52 0 -86 33t-34 85zM22 36q0 14 1 22t5 16t6 13t11 8l12 4q3 1 16 4t17 4t22 4t24 3q58 6 88 30t56 90 q178 396 384 806q364 690 376 706q6 6 16 12q26 20 60 20q68 0 106 -96l362 -836q276 -666 280 -674q28 -40 73 -52t79 -17t38 -29q6 -20 6 -34q0 -54 -52 -54l-42 4q-42 2 -112 6t-136 4q-82 0 -148 -4t-105 -7t-45 -3q-52 0 -52 42q0 12 1 22t5 18t5 13t11 10t15 6l20 4 q15 3 23 4t30 3t38 6q52 10 52 48t-61 226t-129 342q-10 26 -44 26h-594q-38 0 -56 -30q-86 -160 -154 -331t-68 -213q0 -44 29 -58t99 -20q22 0 32 -4q54 -4 54 -60q0 -54 -54 -54q-6 0 -42 3t-99 7t-137 4q-42 0 -84 -1t-74 -4t-56 -5t-39 -3t-17 -1q-52 0 -52 50z M750 898q0 -12 16 -12h516q22 0 22 19t-97 246t-125 273q-10 18 -26 18q-22 0 -48 -44q-258 -488 -258 -500z" />
<glyph unicode="&#xc5;" horiz-adv-x="2066" d="M900 2017q0 91 64 157t150 66q88 0 151 -66t63 -157t-63 -156t-151 -65q-86 0 -150 65t-64 156zM1000 2022q0 -52 34 -90t83 -38t81 37t32 86t-33 88t-83 39q-46 0 -80 -37t-34 -85zM22 36q0 14 1 22t5 16t6 13t11 8l12 4q3 1 16 4t17 4t22 4t24 3q58 6 88 30t56 90 q178 396 384 806q364 690 376 706q6 6 16 12q26 20 60 20q68 0 106 -96l362 -836q276 -666 280 -674q28 -40 73 -52t79 -17t38 -29q6 -20 6 -34q0 -54 -52 -54l-42 4q-42 2 -112 6t-136 4q-82 0 -148 -4t-105 -7t-45 -3q-52 0 -52 42q0 12 1 22t5 18t5 13t11 10t15 6l20 4 q15 3 23 4t30 3t38 6q52 10 52 48t-61 226t-129 342q-10 26 -44 26h-594q-38 0 -56 -30q-86 -160 -154 -331t-68 -213q0 -44 29 -58t99 -20q22 0 32 -4q54 -4 54 -60q0 -54 -54 -54q-6 0 -42 3t-99 7t-137 4q-42 0 -84 -1t-74 -4t-56 -5t-39 -3t-17 -1q-52 0 -52 50z M750 898q0 -12 16 -12h516q22 0 22 19t-97 246t-125 273q-10 18 -26 18q-22 0 -48 -44q-258 -488 -258 -500z" />
<glyph unicode="&#xc6;" horiz-adv-x="2542" d="M-10 36q0 46 28 56q10 2 46 8t71 17t59 31t59 85t138 253t247 422q92 152 173 276t126 187t78 109t44 64t11 30q0 38 -162 60q-52 6 -82 12q-52 8 -52 54q0 18 10 42t28 24q8 0 40 -2t113 -7t191 -11q64 -2 610 -2q520 0 532 -2q24 -8 30 -42q6 -50 25 -130t33 -139 t14 -61q0 -20 -19 -33t-45 -13q-30 0 -46 24q-8 14 -58 129t-60 129h-564q-36 0 -53 -17t-20 -33t-3 -56v-368q0 -56 50 -56h386q64 0 80 23t16 91v48q0 54 66 54q70 0 70 -72v-464q0 -72 -70 -72q-30 0 -46 10t-18 20t-2 24v98q0 60 -11 77t-55 17h-348q-38 0 -60 -5 t-42 -28t-20 -67v-556q0 -48 2 -66t20 -33t56 -21q112 -16 238 -16t230 17t130 37q22 18 89 137t85 131q14 8 26 8q44 0 44 -58q0 -28 -76 -360q-8 -36 -26 -43t-64 -7h-1190q-42 0 -42 37t33 53t75 16t85 12t59 46v592h-446q-96 0 -113 -4t-29 -24q-98 -154 -180 -330 t-82 -216q0 -14 4 -25t14 -19t18 -13t27 -8t32 -6t42 -7t45 -6q44 -4 44 -58t-40 -54q-4 0 -21 1t-45 3t-64 5t-84 4t-92 1q-46 0 -93 -1t-83 -4t-63 -5t-44 -3t-19 -1q-40 0 -40 50zM810 886h492v704q-40 0 -52 -14q-74 -76 -257 -371t-183 -319z" />
<glyph unicode="&#xc7;" horiz-adv-x="1760" d="M46 844q0 184 77 356t205 296q270 258 642 258h2q136 0 250 -33t177 -68t67 -35q20 0 35 42t39 50q4 0 14 1t14 1q26 0 32 -30l16 -128q18 -130 35 -263t17 -143q0 -40 -52 -40q-46 0 -54 15t-18 103q-12 92 -66 164q-86 108 -219 178t-295 70q-272 0 -473 -206 t-201 -542q0 -346 207 -584t501 -238q222 0 405 136t253 360q12 34 36 34q42 0 42 -30q-56 -390 -64 -408q-12 -42 -56 -42h-2h-70q-30 0 -43 -5t-36 -22t-39 -25q-198 -116 -426 -128q-4 -14 -9 -23t-5 -13l-2 -2q0 -8 10 -8h10q92 0 151 -51t59 -141v-2q0 -76 -48 -133 t-158 -57q-56 0 -124 14t-76 20q-8 8 -8 18q0 4 2 17t11 27t21 14l10 -2q10 -2 24 -5t30 -5t35 -4t31 -2q42 0 69 23t27 57q0 52 -51 89t-129 41q-12 0 -12 8q0 2 50 122q-370 18 -620 281t-250 623z" />
<glyph unicode="&#xc8;" horiz-adv-x="1452" d="M404 2172q0 42 28 67t70 25q56 0 134 -60q370 -270 382 -288q10 -18 10 -32q0 -22 -14 -34t-34 -12h-2q-18 0 -470 216l-14 6q-8 4 -13 7t-16 10t-19 13t-16 15t-13 19t-9 22t-4 26zM22 44q0 28 20 40t98 42q44 16 74 26q56 20 56 98v1314q0 28 -12 35t-56 15 q-22 2 -54 5t-48 5t-33 8t-25 18t-8 36q0 56 50 56h1158q42 0 54 -42q10 -46 29 -130t32 -142t13 -62q0 -38 -52 -38q-38 0 -70 44q-112 196 -126 212q-22 22 -72 22h-474q-50 0 -63 -24t-13 -72v-378q0 -56 48 -56h386q28 0 45 3t34 23t17 56v80q0 54 68 54q70 0 70 -72 v-464q0 -72 -70 -72q-68 0 -68 54v136q0 56 -66 56h-346q-28 0 -45 -3t-38 -11t-31 -30t-10 -56v-580q0 -26 4 -42t22 -32t54 -22q110 -16 236 -16q82 0 205 15t155 39q24 18 90 137t86 131q14 8 24 8q18 0 31 -15t13 -43v-2q0 -22 -76 -358q-4 -30 -20 -40t-56 -10h-866 q-114 0 -211 -15t-101 -15q-30 0 -46 29t-16 45z" />
<glyph unicode="&#xc9;" horiz-adv-x="1452" d="M406 1886q0 34 50 66l346 250q76 60 128 60q42 0 71 -26t29 -66q0 -10 -2 -21t-5 -18t-9 -16t-11 -14t-12 -11t-12 -9t-15 -8t-13 -8t-12 -8t-11 -5q-456 -216 -470 -216q-20 0 -36 14t-16 36zM22 44q0 28 20 40t98 42q44 16 74 26q56 20 56 98v1314q0 28 -12 35t-56 15 q-22 2 -54 5t-48 5t-33 8t-25 18t-8 36q0 56 50 56h1158q42 0 54 -42q10 -46 29 -130t32 -142t13 -62q0 -38 -52 -38q-38 0 -70 44q-112 196 -126 212q-22 22 -72 22h-474q-50 0 -63 -24t-13 -72v-378q0 -56 48 -56h386q28 0 45 3t34 23t17 56v80q0 54 68 54q70 0 70 -72 v-464q0 -72 -70 -72q-68 0 -68 54v136q0 56 -66 56h-346q-28 0 -45 -3t-38 -11t-31 -30t-10 -56v-580q0 -26 4 -42t22 -32t54 -22q110 -16 236 -16q82 0 205 15t155 39q24 18 90 137t86 131q14 8 24 8q18 0 31 -15t13 -43v-2q0 -22 -76 -358q-4 -30 -20 -40t-56 -10h-866 q-114 0 -211 -15t-101 -15q-30 0 -46 29t-16 45z" />
<glyph unicode="&#xca;" horiz-adv-x="1452" d="M412 1870q0 16 92 130q70 88 124 154q46 60 96 60q32 0 64 -34q232 -286 234 -296q2 -4 2 -12q0 -12 -9 -25t-29 -13q-32 0 -66 36q-20 16 -42 35t-36 30t-29 23t-23 20t-18 15t-16 11t-12 6t-13 3t-11 1q-34 0 -136 -90t-132 -90q-20 0 -30 13t-10 23zM22 44q0 28 20 40 t98 42q44 16 74 26q56 20 56 98v1314q0 28 -12 35t-56 15q-22 2 -54 5t-48 5t-33 8t-25 18t-8 36q0 56 50 56h1158q42 0 54 -42q10 -46 29 -130t32 -142t13 -62q0 -38 -52 -38q-38 0 -70 44q-112 196 -126 212q-22 22 -72 22h-474q-50 0 -63 -24t-13 -72v-378q0 -56 48 -56 h386q28 0 45 3t34 23t17 56v80q0 54 68 54q70 0 70 -72v-464q0 -72 -70 -72q-68 0 -68 54v136q0 56 -66 56h-346q-28 0 -45 -3t-38 -11t-31 -30t-10 -56v-580q0 -26 4 -42t22 -32t54 -22q110 -16 236 -16q82 0 205 15t155 39q24 18 90 137t86 131q14 8 24 8q18 0 31 -15 t13 -43v-2q0 -22 -76 -358q-4 -30 -20 -40t-56 -10h-866q-114 0 -211 -15t-101 -15q-30 0 -46 29t-16 45z" />
<glyph unicode="&#xcb;" horiz-adv-x="1452" d="M428 1954q0 48 35 83t85 35q52 0 88 -34t36 -82q0 -52 -36 -86t-88 -34t-86 33t-34 85zM770 1954q0 48 35 83t85 35q52 0 86 -34t34 -82q0 -52 -35 -86t-85 -34q-52 0 -86 33t-34 85zM22 44q0 28 20 40t98 42q44 16 74 26q56 20 56 98v1314q0 28 -12 35t-56 15 q-22 2 -54 5t-48 5t-33 8t-25 18t-8 36q0 56 50 56h1158q42 0 54 -42q10 -46 29 -130t32 -142t13 -62q0 -38 -52 -38q-38 0 -70 44q-112 196 -126 212q-22 22 -72 22h-474q-50 0 -63 -24t-13 -72v-378q0 -56 48 -56h386q28 0 45 3t34 23t17 56v80q0 54 68 54q70 0 70 -72 v-464q0 -72 -70 -72q-68 0 -68 54v136q0 56 -66 56h-346q-28 0 -45 -3t-38 -11t-31 -30t-10 -56v-580q0 -26 4 -42t22 -32t54 -22q110 -16 236 -16q82 0 205 15t155 39q24 18 90 137t86 131q14 8 24 8q18 0 31 -15t13 -43v-2q0 -22 -76 -358q-4 -30 -20 -40t-56 -10h-866 q-114 0 -211 -15t-101 -15q-30 0 -46 29t-16 45z" />
<glyph unicode="&#xcc;" horiz-adv-x="810" d="M86 2172q0 42 28 67t70 25q56 0 134 -60q370 -270 382 -288q10 -18 10 -32q0 -22 -14 -34t-34 -12h-2q-18 0 -470 216l-14 6q-8 4 -13 7t-16 10t-19 13t-16 15t-13 19t-9 22t-4 26zM32 66q0 30 21 37t99 13q54 2 92 4q54 4 54 72v1308q0 8 1 22t1 16q0 32 -20 39t-88 9 q-38 0 -60 4q-56 4 -56 54q0 68 54 68l42 -2q42 -2 111 -6t137 -4q72 0 131 2t92 5t41 3q42 0 42 -48q0 -12 -1 -20t-3 -16t-7 -13l-8 -8q-3 -3 -13 -6t-16 -5t-21 -3t-25 -3t-31 -3t-35 -3q-40 -2 -40 -42v-1360q0 -60 44 -64q26 -2 55 -4t46 -2t36 -2t29 -5t18 -7t12 -14 t4 -22q0 -74 -50 -74q-2 0 -19 1t-48 3t-68 5t-86 4t-98 1t-98 -1t-87 -4t-68 -5t-48 -3t-22 -1q-38 0 -44 56q-2 8 -2 24z" />
<glyph unicode="&#xcd;" horiz-adv-x="810" d="M86 1886q0 34 50 66l346 250q76 60 128 60q42 0 71 -26t29 -66q0 -10 -2 -21t-5 -18t-9 -16t-11 -14t-12 -11t-12 -9t-15 -8t-13 -8t-12 -8t-11 -5q-456 -216 -470 -216q-20 0 -36 14t-16 36zM32 66q0 30 21 37t99 13q54 2 92 4q54 4 54 72v1308q0 8 1 22t1 16 q0 32 -20 39t-88 9q-38 0 -60 4q-56 4 -56 54q0 68 54 68l42 -2q42 -2 111 -6t137 -4q72 0 131 2t92 5t41 3q42 0 42 -48q0 -12 -1 -20t-3 -16t-7 -13l-8 -8q-3 -3 -13 -6t-16 -5t-21 -3t-25 -3t-31 -3t-35 -3q-40 -2 -40 -42v-1360q0 -60 44 -64q26 -2 55 -4t46 -2t36 -2 t29 -5t18 -7t12 -14t4 -22q0 -74 -50 -74q-2 0 -19 1t-48 3t-68 5t-86 4t-98 1t-98 -1t-87 -4t-68 -5t-48 -3t-22 -1q-38 0 -44 56q-2 8 -2 24z" />
<glyph unicode="&#xce;" horiz-adv-x="810" d="M96 1870q0 16 92 130q70 88 124 154q46 60 96 60q32 0 64 -34q232 -286 234 -296q2 -4 2 -12q0 -12 -9 -25t-29 -13q-32 0 -66 36q-20 16 -42 35t-36 30t-29 23t-23 20t-18 15t-16 11t-12 6t-13 3t-11 1q-34 0 -136 -90t-132 -90q-20 0 -30 13t-10 23zM32 66q0 30 21 37 t99 13q54 2 92 4q54 4 54 72v1308q0 8 1 22t1 16q0 32 -20 39t-88 9q-38 0 -60 4q-56 4 -56 54q0 68 54 68l42 -2q42 -2 111 -6t137 -4q72 0 131 2t92 5t41 3q42 0 42 -48q0 -12 -1 -20t-3 -16t-7 -13l-8 -8q-3 -3 -13 -6t-16 -5t-21 -3t-25 -3t-31 -3t-35 -3 q-40 -2 -40 -42v-1360q0 -60 44 -64q26 -2 55 -4t46 -2t36 -2t29 -5t18 -7t12 -14t4 -22q0 -74 -50 -74q-2 0 -19 1t-48 3t-68 5t-86 4t-98 1t-98 -1t-87 -4t-68 -5t-48 -3t-22 -1q-38 0 -44 56q-2 8 -2 24z" />
<glyph unicode="&#xcf;" horiz-adv-x="810" d="M112 1954q0 48 35 83t85 35q52 0 88 -34t36 -82q0 -52 -36 -86t-88 -34t-86 33t-34 85zM454 1954q0 48 35 83t85 35q52 0 86 -34t34 -82q0 -52 -35 -86t-85 -34q-52 0 -86 33t-34 85zM32 66q0 30 21 37t99 13q54 2 92 4q54 4 54 72v1308q0 8 1 22t1 16q0 32 -20 39t-88 9 q-38 0 -60 4q-56 4 -56 54q0 68 54 68l42 -2q42 -2 111 -6t137 -4q72 0 131 2t92 5t41 3q42 0 42 -48q0 -12 -1 -20t-3 -16t-7 -13l-8 -8q-3 -3 -13 -6t-16 -5t-21 -3t-25 -3t-31 -3t-35 -3q-40 -2 -40 -42v-1360q0 -60 44 -64q26 -2 55 -4t46 -2t36 -2t29 -5t18 -7t12 -14 t4 -22q0 -74 -50 -74q-2 0 -19 1t-48 3t-68 5t-86 4t-98 1t-98 -1t-87 -4t-68 -5t-48 -3t-22 -1q-38 0 -44 56q-2 8 -2 24z" />
<glyph unicode="&#xd1;" horiz-adv-x="2012" d="M626 1872q0 6 44 73t68 91q60 60 128 60q58 0 141 -54t139 -54q52 0 94 28t68 57t36 29t29 -10t19 -22q0 -14 -49 -73t-93 -91q-68 -54 -144 -54q-68 0 -146 56t-126 56t-86 -33t-61 -66t-27 -33q-8 0 -21 15t-13 25zM22 1650q0 64 56 64h310q62 0 102 -46l394 -458 l230 -258q462 -502 482 -514q6 -6 10 -6q18 0 18 26q0 30 2 85t3 100t1 85q0 340 -24 750q-2 74 -34 94t-128 30q-56 6 -56 54q0 22 17 40t57 18q4 0 35 -1t86 -3t119 -2t117 2t84 3t35 1q54 0 54 -56q0 -20 -5 -32t-19 -18t-23 -7t-34 -3t-35 -2q-62 -4 -86 -39t-26 -135 q-10 -428 -10 -654q0 -188 2 -348t5 -249t3 -109q0 -122 -52 -122q-30 0 -122 106l-522 596q-554 616 -558 616l-10 -10q-36 -518 -36 -896v-72q0 -100 20 -130t96 -34q94 0 154 -18q32 -14 32 -66q0 -46 -42 -46q-4 0 -21 1t-45 3t-65 5t-84 4t-93 1q-74 0 -148 -4t-118 -6 l-44 -4q-52 0 -52 48q0 54 38 66q14 6 67 10t91 20t56 52q8 24 46 706q14 290 24 478v10q0 34 -84 110q-98 98 -224 108q-46 0 -46 56z" />
<glyph unicode="&#xd2;" horiz-adv-x="1958" d="M666 2174q0 42 28 67t70 25q56 0 134 -60q370 -270 382 -288q10 -18 10 -32q0 -22 -14 -34t-34 -12h-2q-18 0 -470 216l-14 6q-8 4 -13 7t-16 10t-19 13t-16 15t-13 19t-9 22t-4 26zM44 888q0 382 274 654t656 272q398 0 669 -286t271 -680q0 -390 -265 -650t-637 -260 q-186 0 -363 72t-311 202q-288 278 -294 676zM286 966q0 -166 45 -321t131 -281t227 -202t313 -76q114 0 225 39t212 119t164 226t63 334q0 200 -68 390t-210 316q-192 170 -454 170q-120 0 -233 -43t-208 -125t-151 -224t-56 -322z" />
<glyph unicode="&#xd3;" horiz-adv-x="1958" d="M666 1890q0 34 50 66l346 250q76 60 128 60q42 0 71 -26t29 -66q0 -10 -2 -21t-5 -18t-9 -16t-11 -14t-12 -11t-12 -9t-15 -8t-13 -8t-12 -8t-11 -5q-456 -216 -470 -216q-20 0 -36 14t-16 36zM44 888q0 382 274 654t656 272q398 0 669 -286t271 -680q0 -390 -265 -650 t-637 -260q-186 0 -363 72t-311 202q-288 278 -294 676zM286 966q0 -166 45 -321t131 -281t227 -202t313 -76q114 0 225 39t212 119t164 226t63 334q0 200 -68 390t-210 316q-192 170 -454 170q-120 0 -233 -43t-208 -125t-151 -224t-56 -322z" />
<glyph unicode="&#xd4;" horiz-adv-x="1958" d="M674 1876q0 16 92 130q70 88 124 154q46 60 96 60q32 0 64 -34q232 -286 234 -296q2 -4 2 -12q0 -12 -9 -25t-29 -13q-32 0 -66 36q-20 16 -42 35t-36 30t-29 23t-23 20t-18 15t-16 11t-12 6t-13 3t-11 1q-34 0 -136 -90t-132 -90q-20 0 -30 13t-10 23zM44 888 q0 382 274 654t656 272q398 0 669 -286t271 -680q0 -390 -265 -650t-637 -260q-186 0 -363 72t-311 202q-288 278 -294 676zM286 966q0 -166 45 -321t131 -281t227 -202t313 -76q114 0 225 39t212 119t164 226t63 334q0 200 -68 390t-210 316q-192 170 -454 170 q-120 0 -233 -43t-208 -125t-151 -224t-56 -322z" />
<glyph unicode="&#xd5;" horiz-adv-x="1958" d="M596 1902q0 6 44 73t68 91q60 60 128 60q58 0 141 -54t139 -54q52 0 94 28t68 57t36 29t29 -10t19 -22q0 -14 -49 -73t-93 -91q-68 -54 -144 -54q-68 0 -146 56t-126 56t-86 -33t-61 -66t-27 -33q-8 0 -21 15t-13 25zM44 888q0 382 274 654t656 272q398 0 669 -286 t271 -680q0 -390 -265 -650t-637 -260q-186 0 -363 72t-311 202q-288 278 -294 676zM286 966q0 -166 45 -321t131 -281t227 -202t313 -76q114 0 225 39t212 119t164 226t63 334q0 200 -68 390t-210 316q-192 170 -454 170q-120 0 -233 -43t-208 -125t-151 -224t-56 -322z " />
<glyph unicode="&#xd6;" horiz-adv-x="1958" d="M690 1984q0 48 35 83t85 35q52 0 88 -34t36 -82q0 -52 -36 -86t-88 -34t-86 33t-34 85zM1032 1984q0 48 35 83t85 35q52 0 86 -34t34 -82q0 -52 -35 -86t-85 -34q-52 0 -86 33t-34 85zM44 888q0 382 274 654t656 272q398 0 669 -286t271 -680q0 -390 -265 -650t-637 -260 q-186 0 -363 72t-311 202q-288 278 -294 676zM286 966q0 -166 45 -321t131 -281t227 -202t313 -76q114 0 225 39t212 119t164 226t63 334q0 200 -68 390t-210 316q-192 170 -454 170q-120 0 -233 -43t-208 -125t-151 -224t-56 -322z" />
<glyph unicode="&#xd7;" horiz-adv-x="1388" d="M132 1134q0 18 31 50t55 32h4q22 0 248 -232l228 -228q168 166 340 342q92 90 109 106t29 16h2q18 0 50 -32t32 -54v-2q0 -18 -36 -56t-244 -246l-178 -178q440 -440 448 -450q12 -16 12 -28q0 -20 -31 -51t-53 -31q-20 0 -42 22l-438 438q-438 -438 -454 -452 q-12 -8 -26 -8q-18 0 -50 30t-32 52q0 18 24 42l438 436q-134 136 -298 298q-118 116 -143 143t-25 41z" />
<glyph unicode="&#xd8;" horiz-adv-x="1958" d="M44 888q0 382 274 654t656 272q194 0 376 -78q70 126 80 136q10 4 34 4q90 0 90 -40q0 -8 -86 -164q208 -130 327 -351t119 -473q0 -390 -265 -650t-637 -260q-232 0 -438 106q-40 -72 -68 -122q-10 -16 -12 -20q-16 -12 -48 -12q-86 0 -86 32v2l100 186 q-192 134 -303 340t-113 438zM286 966q0 -192 62 -380t198 -318l726 1326q-158 86 -338 86q-120 0 -233 -43t-208 -125t-151 -224t-56 -322zM650 184q160 -98 352 -98q114 0 225 39t212 119t164 226t63 334q0 204 -69 394t-215 318z" />
<glyph unicode="&#xd9;" horiz-adv-x="1904" d="M642 2172q0 42 28 67t70 25q56 0 134 -60q370 -270 382 -288q10 -18 10 -32q0 -22 -14 -34t-34 -12h-2q-18 0 -470 216l-14 6q-8 4 -13 7t-16 10t-19 13t-16 15t-13 19t-9 22t-4 26zM42 1676q0 60 52 60q6 0 38 -2t90 -5t124 -3h16q70 0 132 3t96 5t42 2q46 0 46 -66 q0 -20 -4 -32t-20 -17t-30 -7t-46 -5t-54 -5q-82 -10 -82 -88v-788q0 -168 30 -283t126 -201q150 -138 452 -138q352 0 460 228q50 104 50 282v34q0 26 -1 78t-1 78v684q0 46 -8 71t-39 38t-45 15t-78 10q-54 4 -54 56q0 56 46 56q4 0 34 -2t79 -5t108 -3t108 3t79 5t34 2 q48 0 48 -66q0 -34 -27 -45t-58 -11t-58 -41t-27 -131q0 -6 -1 -16t-1 -12v-570q0 -20 1 -59t1 -59v-82q0 -80 -6 -143t-27 -144t-69 -150t-122 -121q-174 -122 -474 -122q-170 0 -307 36t-212 84t-131 116t-75 109t-31 85q-32 116 -32 322q0 32 1 96t1 96v634q0 16 -1 27 t-8 17t-10 11t-18 7t-18 3t-24 4t-27 3q-68 10 -68 62z" />
<glyph unicode="&#xda;" horiz-adv-x="1904" d="M794 1886q0 34 50 66l346 250q76 60 128 60q42 0 71 -26t29 -66q0 -10 -2 -21t-5 -18t-9 -16t-11 -14t-12 -11t-12 -9t-15 -8t-13 -8t-12 -8t-11 -5q-456 -216 -470 -216q-20 0 -36 14t-16 36zM42 1676q0 60 52 60q6 0 38 -2t90 -5t124 -3h16q70 0 132 3t96 5t42 2 q46 0 46 -66q0 -20 -4 -32t-20 -17t-30 -7t-46 -5t-54 -5q-82 -10 -82 -88v-788q0 -168 30 -283t126 -201q150 -138 452 -138q352 0 460 228q50 104 50 282v34q0 26 -1 78t-1 78v684q0 46 -8 71t-39 38t-45 15t-78 10q-54 4 -54 56q0 56 46 56q4 0 34 -2t79 -5t108 -3t108 3 t79 5t34 2q48 0 48 -66q0 -34 -27 -45t-58 -11t-58 -41t-27 -131q0 -6 -1 -16t-1 -12v-570q0 -20 1 -59t1 -59v-82q0 -80 -6 -143t-27 -144t-69 -150t-122 -121q-174 -122 -474 -122q-170 0 -307 36t-212 84t-131 116t-75 109t-31 85q-32 116 -32 322q0 32 1 96t1 96v634 q0 16 -1 27t-8 17t-10 11t-18 7t-18 3t-24 4t-27 3q-68 10 -68 62z" />
<glyph unicode="&#xdb;" horiz-adv-x="1904" d="M650 1870q0 16 92 130q70 88 124 154q46 60 96 60q32 0 64 -34q232 -286 234 -296q2 -4 2 -12q0 -12 -9 -25t-29 -13q-32 0 -66 36q-20 16 -42 35t-36 30t-29 23t-23 20t-18 15t-16 11t-12 6t-13 3t-11 1q-34 0 -136 -90t-132 -90q-20 0 -30 13t-10 23zM42 1676 q0 60 52 60q6 0 38 -2t90 -5t124 -3h16q70 0 132 3t96 5t42 2q46 0 46 -66q0 -20 -4 -32t-20 -17t-30 -7t-46 -5t-54 -5q-82 -10 -82 -88v-788q0 -168 30 -283t126 -201q150 -138 452 -138q352 0 460 228q50 104 50 282v34q0 26 -1 78t-1 78v684q0 46 -8 71t-39 38t-45 15 t-78 10q-54 4 -54 56q0 56 46 56q4 0 34 -2t79 -5t108 -3t108 3t79 5t34 2q48 0 48 -66q0 -34 -27 -45t-58 -11t-58 -41t-27 -131q0 -6 -1 -16t-1 -12v-570q0 -20 1 -59t1 -59v-82q0 -80 -6 -143t-27 -144t-69 -150t-122 -121q-174 -122 -474 -122q-170 0 -307 36t-212 84 t-131 116t-75 109t-31 85q-32 116 -32 322q0 32 1 96t1 96v634q0 16 -1 27t-8 17t-10 11t-18 7t-18 3t-24 4t-27 3q-68 10 -68 62z" />
<glyph unicode="&#xdc;" horiz-adv-x="1904" d="M726 1954q0 48 35 83t85 35q52 0 88 -34t36 -82q0 -52 -36 -86t-88 -34t-86 33t-34 85zM1068 1954q0 48 35 83t85 35q52 0 86 -34t34 -82q0 -52 -35 -86t-85 -34q-52 0 -86 33t-34 85zM42 1676q0 60 52 60q6 0 38 -2t90 -5t124 -3h16q70 0 132 3t96 5t42 2q46 0 46 -66 q0 -20 -4 -32t-20 -17t-30 -7t-46 -5t-54 -5q-82 -10 -82 -88v-788q0 -168 30 -283t126 -201q150 -138 452 -138q352 0 460 228q50 104 50 282v34q0 26 -1 78t-1 78v684q0 46 -8 71t-39 38t-45 15t-78 10q-54 4 -54 56q0 56 46 56q4 0 34 -2t79 -5t108 -3t108 3t79 5t34 2 q48 0 48 -66q0 -34 -27 -45t-58 -11t-58 -41t-27 -131q0 -6 -1 -16t-1 -12v-570q0 -20 1 -59t1 -59v-82q0 -80 -6 -143t-27 -144t-69 -150t-122 -121q-174 -122 -474 -122q-170 0 -307 36t-212 84t-131 116t-75 109t-31 85q-32 116 -32 322q0 32 1 96t1 96v634q0 16 -1 27 t-8 17t-10 11t-18 7t-18 3t-24 4t-27 3q-68 10 -68 62z" />
<glyph unicode="&#xdd;" horiz-adv-x="1680" d="M28 1680q0 22 16 39t48 17q6 0 42 -2t99 -5t136 -3t135 3t96 5t42 2q46 0 46 -50q0 -14 -1 -23t-5 -17t-7 -13t-13 -8t-16 -5t-22 -4t-27 -2t-33 -1t-40 -5q-66 -6 -66 -56v-4q0 -18 120 -224q128 -224 238 -414q22 -36 36 -36q4 0 18 14q364 502 400 558q44 80 44 106 q0 40 -22 51t-82 13h-16q-40 2 -60 5t-37 19t-17 46q0 16 14 33t40 17q4 0 34 -2t80 -5t110 -3h8q58 0 110 3t79 5t35 2q36 0 53 -16t17 -34q0 -26 -18 -42t-53 -40t-59 -56l-366 -472q-42 -58 -85 -116t-65 -88t-46 -60t-32 -45t-18 -28t-11 -25t-3 -21t-2 -27v-488 q0 -38 27 -46t151 -14q62 -2 98 -4q56 -4 56 -60v-22q0 -46 -40 -46l-52 4q-50 2 -135 6t-169 4q-54 0 -109 -1t-97 -4t-75 -5t-53 -3t-22 -1q-64 0 -64 70q0 10 1 19t3 15t8 10l9 6q3 2 14 5t20 4t25 1t32 1t39 1t47 2l8 4h15q1 0 9 1t11 2t10 3t8 7t5 10t5 13t1 18v520 q0 22 -5 41t-7 26t-18 34t-24 37q-230 372 -400 644q-56 90 -62 100q-24 32 -73 35t-63 31q-8 14 -8 34zM652 1886q0 34 50 66l346 250q76 60 128 60q42 0 71 -26t29 -66q0 -10 -2 -21t-5 -18t-9 -16t-11 -14t-12 -11t-12 -9t-15 -8t-13 -8t-12 -8t-11 -5 q-456 -216 -470 -216q-20 0 -36 14t-16 36z" />
<glyph unicode="&#xdf;" horiz-adv-x="1330" d="M22 954q0 60 38 72q12 4 73 4t67 4q6 2 6 16v6q6 448 222 632q148 122 338 122q130 0 212 -76t82 -204q0 -88 -44 -167t-97 -124t-97 -108t-44 -125q0 -68 43 -122t152 -147t183 -171q158 -170 158 -322q0 -128 -90 -209t-222 -81q-126 0 -217 46t-121 96q-14 28 -14 68 v166q0 38 4 46q18 18 40 18t29 -15t6 -35t4 -54t19 -62q26 -38 91 -86t139 -48t125 44t51 112t-44 123t-168 160t-210 193q-102 100 -102 202q0 76 56 162t111 177t55 181t-53 151t-137 61q-28 0 -59 -11t-77 -45t-81 -118t-51 -206q-12 -100 -12 -298v-26q0 -274 -1 -451 t-1 -246v-87q0 -24 2 -38t21 -28t55 -18q42 -2 56 -4t22 -11t8 -31q0 -56 -26 -56h-12q-14 2 -34 4t-48 5t-62 4t-66 1q-34 0 -69 -1t-60 -4t-46 -5t-34 -3t-15 -1q-32 0 -32 46q0 10 1 17t4 13l5 10q2 4 10 8t11 5t16 4t20 4t24 2t29 3q10 0 18 4t11 11t6 16t4 24t1 27 t1 34t1 40q6 128 6 630q0 16 -15 20t-69 4h-50h-2q-54 0 -54 46z" />
<glyph unicode="&#xe0;" horiz-adv-x="1064" d="M74 868q0 74 119 149t267 75q46 0 96 -10t112 -34t105 -85t53 -147q6 -58 6 -90v-498q0 -44 17 -71t34 -33t35 -6q34 0 54 21t31 42t25 21q22 0 22 -32q0 -60 -54 -130t-140 -70q-32 0 -61 10t-49 26t-36 31t-26 27l-8 10q-2 0 -2 1t-2 1q-6 0 -8 -5t-17 -20t-41 -31 q-112 -70 -234 -70q-128 0 -208 82t-80 200v2q0 142 106 224q36 30 95 53t117 35t110 21t86 11l34 2q20 6 20 36v90q0 130 -60 202q-60 66 -146 66q-134 0 -218 -168q-22 -28 -54 -28q-38 0 -69 24t-31 66zM270 258q0 -94 52 -138q34 -32 108 -32q58 0 108 25t70 45t32 34 q14 20 14 56v62v104q0 46 -4 60t-20 14q-62 0 -154 -20t-146 -72q-60 -50 -60 -138zM114 1672q0 42 28 68t66 26h2q68 0 138 -106q78 -116 172 -256q94 -138 94 -160q0 -18 -15 -34t-35 -16h-6q-16 0 -35 16t-143 146q-116 116 -202 204q-64 64 -64 112z" />
<glyph unicode="&#xe1;" horiz-adv-x="1064" d="M314 1244q0 26 114 192q86 126 152 224q70 106 138 106q40 0 67 -26t27 -68q0 -48 -60 -112q-328 -338 -350 -354q-18 -12 -38 -12q-22 0 -36 16t-14 34zM74 868q0 74 119 149t267 75q46 0 96 -10t112 -34t105 -85t53 -147q6 -58 6 -90v-498q0 -44 17 -71t34 -33t35 -6 q34 0 54 21t31 42t25 21q22 0 22 -32q0 -60 -54 -130t-140 -70q-32 0 -61 10t-49 26t-36 31t-26 27l-8 10q-2 0 -2 1t-2 1q-6 0 -8 -5t-17 -20t-41 -31q-112 -70 -234 -70q-128 0 -208 82t-80 200v2q0 142 106 224q36 30 95 53t117 35t110 21t86 11l34 2q20 6 20 36v90 q0 130 -60 202q-60 66 -146 66q-134 0 -218 -168q-22 -28 -54 -28q-38 0 -69 24t-31 66zM270 258q0 -94 52 -138q34 -32 108 -32q58 0 108 25t70 45t32 34q14 20 14 56v62v104q0 46 -4 60t-20 14q-62 0 -154 -20t-146 -72q-60 -50 -60 -138z" />
<glyph unicode="&#xe2;" horiz-adv-x="1064" d="M232 1232q0 16 62 195t94 251q32 74 74 74q40 0 73 -71t103 -273q32 -92 48 -146q8 -22 8 -26q0 -22 -14 -32t-26 -10q-30 0 -64 58q-100 180 -112 188q-6 2 -12 2q-18 0 -32 -20t-70 -116q-22 -36 -34 -58q-34 -54 -60 -54q-12 0 -25 10t-13 28zM74 868q0 74 119 149 t267 75q46 0 96 -10t112 -34t105 -85t53 -147q6 -58 6 -90v-498q0 -44 17 -71t34 -33t35 -6q34 0 54 21t31 42t25 21q22 0 22 -32q0 -60 -54 -130t-140 -70q-32 0 -61 10t-49 26t-36 31t-26 27l-8 10q-2 0 -2 1t-2 1q-6 0 -8 -5t-17 -20t-41 -31q-112 -70 -234 -70 q-128 0 -208 82t-80 200v2q0 142 106 224q36 30 95 53t117 35t110 21t86 11l34 2q20 6 20 36v90q0 130 -60 202q-60 66 -146 66q-134 0 -218 -168q-22 -28 -54 -28q-38 0 -69 24t-31 66zM270 258q0 -94 52 -138q34 -32 108 -32q58 0 108 25t70 45t32 34q14 20 14 56v62v104 q0 46 -4 60t-20 14q-62 0 -154 -20t-146 -72q-60 -50 -60 -138z" />
<glyph unicode="&#xe3;" horiz-adv-x="1064" d="M80 1452q0 6 44 73t68 91q60 60 128 60q58 0 141 -54t139 -54q52 0 94 28t68 57t36 29t29 -10t19 -22q0 -14 -49 -73t-93 -91q-68 -54 -144 -54q-68 0 -146 56t-126 56t-86 -33t-61 -66t-27 -33q-8 0 -21 15t-13 25zM74 868q0 74 119 149t267 75q46 0 96 -10t112 -34 t105 -85t53 -147q6 -58 6 -90v-498q0 -44 17 -71t34 -33t35 -6q34 0 54 21t31 42t25 21q22 0 22 -32q0 -60 -54 -130t-140 -70q-32 0 -61 10t-49 26t-36 31t-26 27l-8 10q-2 0 -2 1t-2 1q-6 0 -8 -5t-17 -20t-41 -31q-112 -70 -234 -70q-128 0 -208 82t-80 200v2 q0 142 106 224q36 30 95 53t117 35t110 21t86 11l34 2q20 6 20 36v90q0 130 -60 202q-60 66 -146 66q-134 0 -218 -168q-22 -28 -54 -28q-38 0 -69 24t-31 66zM270 258q0 -94 52 -138q34 -32 108 -32q58 0 108 25t70 45t32 34q14 20 14 56v62v104q0 46 -4 60t-20 14 q-62 0 -154 -20t-146 -72q-60 -50 -60 -138z" />
<glyph unicode="&#xe4;" horiz-adv-x="1064" d="M170 1558q0 48 35 83t85 35q52 0 88 -34t36 -82q0 -52 -36 -86t-88 -34t-86 33t-34 85zM512 1558q0 48 35 83t85 35q52 0 86 -34t34 -82q0 -52 -35 -86t-85 -34q-52 0 -86 33t-34 85zM74 868q0 74 119 149t267 75q46 0 96 -10t112 -34t105 -85t53 -147q6 -58 6 -90v-498 q0 -44 17 -71t34 -33t35 -6q34 0 54 21t31 42t25 21q22 0 22 -32q0 -60 -54 -130t-140 -70q-32 0 -61 10t-49 26t-36 31t-26 27l-8 10q-2 0 -2 1t-2 1q-6 0 -8 -5t-17 -20t-41 -31q-112 -70 -234 -70q-128 0 -208 82t-80 200v2q0 142 106 224q36 30 95 53t117 35t110 21 t86 11l34 2q20 6 20 36v90q0 130 -60 202q-60 66 -146 66q-134 0 -218 -168q-22 -28 -54 -28q-38 0 -69 24t-31 66zM270 258q0 -94 52 -138q34 -32 108 -32q58 0 108 25t70 45t32 34q14 20 14 56v62v104q0 46 -4 60t-20 14q-62 0 -154 -20t-146 -72q-60 -50 -60 -138z" />
<glyph unicode="&#xe5;" horiz-adv-x="1064" d="M246 1415q0 91 64 157t150 66q88 0 151 -66t63 -157t-63 -156t-151 -65q-86 0 -150 65t-64 156zM346 1420q0 -52 34 -90t83 -38t81 37t32 86t-33 88t-83 39q-46 0 -80 -37t-34 -85zM74 868q0 74 119 149t267 75q46 0 96 -10t112 -34t105 -85t53 -147q6 -58 6 -90v-498 q0 -44 17 -71t34 -33t35 -6q34 0 54 21t31 42t25 21q22 0 22 -32q0 -60 -54 -130t-140 -70q-32 0 -61 10t-49 26t-36 31t-26 27l-8 10q-2 0 -2 1t-2 1q-6 0 -8 -5t-17 -20t-41 -31q-112 -70 -234 -70q-128 0 -208 82t-80 200v2q0 142 106 224q36 30 95 53t117 35t110 21 t86 11l34 2q20 6 20 36v90q0 130 -60 202q-60 66 -146 66q-134 0 -218 -168q-22 -28 -54 -28q-38 0 -69 24t-31 66zM270 258q0 -94 52 -138q34 -32 108 -32q58 0 108 25t70 45t32 34q14 20 14 56v62v104q0 46 -4 60t-20 14q-62 0 -154 -20t-146 -72q-60 -50 -60 -138z" />
<glyph unicode="&#xe6;" horiz-adv-x="1622" d="M72 864q0 74 117 149t271 75q88 0 155 -22t96 -50t51 -50t32 -22t22 12q140 132 310 132q160 0 307 -114t147 -184v-6q0 -22 -14 -39t-41 -30t-47 -21t-58 -20t-48 -14q-512 -178 -524 -186q-10 -4 -10 -14q0 -14 8 -49t34 -91t64 -104t109 -84t159 -36q170 0 298 122 q28 36 60 36q36 0 36 -36q0 -18 -14 -40q-84 -110 -203 -167t-245 -57q-74 0 -139 18t-107 45t-71 54t-45 46t-19 19t-25 -20t-58 -48t-81 -57t-107 -48t-124 -19q-124 0 -205 82t-81 200v2q0 144 104 224q60 48 171 78t191 36l82 8q20 4 20 56v72q0 130 -60 200 q-58 68 -148 68q-34 0 -65 -13t-51 -29t-40 -38t-30 -38l-20 -32l-10 -18q-24 -30 -56 -30q-38 0 -68 26t-30 66zM268 254q0 -70 36 -121t122 -51q96 0 166 58q42 32 51 54t9 96v72q0 86 -4 103t-20 17h-6q-354 -24 -354 -228zM826 588q0 -20 12 -20q6 0 236 89t240 93 q20 10 20 30q0 34 -88 101t-178 67q-108 0 -175 -98t-67 -262z" />
<glyph unicode="&#xe7;" horiz-adv-x="958" d="M42 496q0 260 150 421t392 161q132 0 225 -57t93 -131q0 -42 -29 -67t-71 -25q-54 0 -141 75t-165 75q-114 0 -200 -116t-86 -274q0 -180 114 -311t284 -131q66 0 121 21t84 47t57 46t45 20t29 -12t12 -28q0 -20 -14 -40q-66 -92 -174 -153t-242 -61h-6q-6 -12 -10 -22 t-5 -15t-3 -10t-2 -6v-3q0 -8 10 -8h6q94 0 153 -51t59 -141v-2q0 -76 -48 -133t-158 -57q-58 0 -125 14t-75 20q-10 8 -10 18q0 4 3 17t11 27t20 14l10 -2l25 -5q15 -3 32 -5t36 -4t31 -2q42 0 68 23t26 57q0 52 -50 89t-128 41q-12 0 -12 8l10 24q10 28 23 66t21 58 q-178 30 -287 175t-109 355z" />
<glyph unicode="&#xe8;" horiz-adv-x="1028" d="M56 520q0 254 136 409t330 155q124 0 240 -68t192 -172q20 -24 20 -54v-6q0 -22 -12 -39t-39 -30t-47 -21t-58 -20t-48 -14q-514 -178 -526 -186q-10 -4 -10 -14q0 -14 7 -49t33 -91t64 -104t110 -84t160 -36q172 0 300 122q34 36 56 36q42 0 42 -38q0 -14 -20 -38 q-78 -104 -196 -164t-248 -60q-84 0 -164 29t-155 91t-121 177t-46 269zM224 588q0 -20 12 -20q6 0 236 90t236 92q22 12 22 30q0 32 -86 100t-180 68q-110 0 -175 -96t-65 -264zM82 1668q0 42 28 68t66 26h2q68 0 138 -106q78 -116 172 -256q94 -138 94 -160q0 -18 -15 -34 t-35 -16h-6q-16 0 -35 16t-143 146q-116 116 -202 204q-64 64 -64 112z" />
<glyph unicode="&#xe9;" horiz-adv-x="1028" d="M280 1240q0 26 114 192q86 126 152 224q70 106 138 106q40 0 67 -26t27 -68q0 -48 -60 -112q-328 -338 -350 -354q-18 -12 -38 -12q-22 0 -36 16t-14 34zM56 520q0 254 136 409t330 155q124 0 240 -68t192 -172q20 -24 20 -54v-6q0 -22 -12 -39t-39 -30t-47 -21t-58 -20 t-48 -14q-514 -178 -526 -186q-10 -4 -10 -14q0 -14 7 -49t33 -91t64 -104t110 -84t160 -36q172 0 300 122q34 36 56 36q42 0 42 -38q0 -14 -20 -38q-78 -104 -196 -164t-248 -60q-84 0 -164 29t-155 91t-121 177t-46 269zM224 588q0 -20 12 -20q6 0 236 90t236 92 q22 12 22 30q0 32 -86 100t-180 68q-110 0 -175 -96t-65 -264z" />
<glyph unicode="&#xea;" horiz-adv-x="1028" d="M298 1224q0 16 62 195t94 251q32 74 74 74q40 0 73 -71t103 -273q32 -92 48 -146q8 -22 8 -26q0 -22 -14 -32t-26 -10q-30 0 -64 58q-100 180 -112 188q-6 2 -12 2q-18 0 -32 -20t-70 -116q-22 -36 -34 -58q-34 -54 -60 -54q-12 0 -25 10t-13 28zM56 520q0 254 136 409 t330 155q124 0 240 -68t192 -172q20 -24 20 -54v-6q0 -22 -12 -39t-39 -30t-47 -21t-58 -20t-48 -14q-514 -178 -526 -186q-10 -4 -10 -14q0 -14 7 -49t33 -91t64 -104t110 -84t160 -36q172 0 300 122q34 36 56 36q42 0 42 -38q0 -14 -20 -38q-78 -104 -196 -164t-248 -60 q-84 0 -164 29t-155 91t-121 177t-46 269zM224 588q0 -20 12 -20q6 0 236 90t236 92q22 12 22 30q0 32 -86 100t-180 68q-110 0 -175 -96t-65 -264z" />
<glyph unicode="&#xeb;" horiz-adv-x="1028" d="M240 1558q0 48 35 83t85 35q52 0 88 -34t36 -82q0 -52 -36 -86t-88 -34t-86 33t-34 85zM582 1558q0 48 35 83t85 35q52 0 86 -34t34 -82q0 -52 -35 -86t-85 -34q-52 0 -86 33t-34 85zM56 520q0 254 136 409t330 155q124 0 240 -68t192 -172q20 -24 20 -54v-6 q0 -22 -12 -39t-39 -30t-47 -21t-58 -20t-48 -14q-514 -178 -526 -186q-10 -4 -10 -14q0 -14 7 -49t33 -91t64 -104t110 -84t160 -36q172 0 300 122q34 36 56 36q42 0 42 -38q0 -14 -20 -38q-78 -104 -196 -164t-248 -60q-84 0 -164 29t-155 91t-121 177t-46 269zM224 588 q0 -20 12 -20q6 0 236 90t236 92q22 12 22 30q0 32 -86 100t-180 68q-110 0 -175 -96t-65 -264z" />
<glyph unicode="&#xec;" horiz-adv-x="610" d="M216 928q0 6 4 14t13 13t16 8t19 8t18 9q276 132 278 132h2q34 0 34 -42l-2 -82q-4 -80 -8 -217t-4 -271v-84q0 -234 7 -276t49 -46q74 -10 94 -18t20 -36q0 -54 -30 -54q-2 0 -14 1t-35 3t-50 5t-62 4t-70 1t-72 -1t-63 -4t-48 -5t-34 -3t-14 -1q-40 0 -40 41t16 49 t110 20q44 8 55 29t11 61v120v237q0 111 1 174t1 75q0 28 -18 39t-152 65q-32 12 -32 32zM38 1690q0 42 28 68t66 26h2q68 0 138 -106q78 -116 172 -256q94 -138 94 -160q0 -18 -15 -34t-35 -16h-6q-16 0 -35 16t-143 146q-116 116 -202 204q-64 64 -64 112z" />
<glyph unicode="&#xed;" horiz-adv-x="610" d="M36 928q0 6 4 14t13 13t16 8t19 8t18 9q276 132 278 132h2q34 0 34 -42l-2 -82q-4 -80 -8 -217t-4 -271v-84q0 -234 7 -276t49 -46q74 -10 94 -18t20 -36q0 -54 -30 -54q-2 0 -14 1t-35 3t-50 5t-62 4t-70 1t-72 -1t-63 -4t-48 -5t-34 -3t-14 -1q-40 0 -40 41t16 49 t110 20q44 8 55 29t11 61v120v237q0 111 1 174t1 75q0 28 -18 39t-152 65q-32 12 -32 32zM58 1262q0 26 114 192q86 126 152 224q70 106 138 106q40 0 67 -26t27 -68q0 -48 -60 -112q-328 -338 -350 -354q-18 -12 -38 -12q-22 0 -36 16t-14 34z" />
<glyph unicode="&#xee;" horiz-adv-x="610" d="M68 1248q0 16 62 195t94 251q32 74 74 74q40 0 73 -71t103 -273q32 -92 48 -146q8 -22 8 -26q0 -22 -14 -32t-26 -10q-30 0 -64 58q-100 180 -112 188q-6 2 -12 2q-18 0 -32 -20t-70 -116q-22 -36 -34 -58q-34 -54 -60 -54q-12 0 -25 10t-13 28zM36 928q0 6 4 14t13 13 t16 8t19 8t18 9q276 132 278 132h2q34 0 34 -42l-2 -82q-4 -80 -8 -217t-4 -271v-84q0 -234 7 -276t49 -46q74 -10 94 -18t20 -36q0 -54 -30 -54q-2 0 -14 1t-35 3t-50 5t-62 4t-70 1t-72 -1t-63 -4t-48 -5t-34 -3t-14 -1q-40 0 -40 41t16 49t110 20q44 8 55 29t11 61v120 v237q0 111 1 174t1 75q0 28 -18 39t-152 65q-32 12 -32 32z" />
<glyph unicode="&#xef;" horiz-adv-x="610" d="M36 928q0 6 4 14t13 13t16 8t19 8t18 9q276 132 278 132h2q34 0 34 -42l-2 -82q-4 -80 -8 -217t-4 -271v-84q0 -234 7 -276t49 -46q74 -10 94 -18t20 -36q0 -54 -30 -54q-2 0 -14 1t-35 3t-50 5t-62 4t-70 1t-72 -1t-63 -4t-48 -5t-34 -3t-14 -1q-40 0 -40 41t16 49 t110 20q44 8 55 29t11 61v120v237q0 111 1 174t1 75q0 28 -18 39t-152 65q-32 12 -32 32zM-12 1558q0 48 35 83t85 35q52 0 88 -34t36 -82q0 -52 -36 -86t-88 -34t-86 33t-34 85zM330 1558q0 48 35 83t85 35q52 0 86 -34t34 -82q0 -52 -35 -86t-85 -34q-52 0 -86 33t-34 85z " />
<glyph unicode="&#xf1;" horiz-adv-x="1254" d="M232 1452q0 6 44 73t68 91q60 60 128 60q58 0 141 -54t139 -54q52 0 94 28t68 57t36 29t29 -10t19 -22q0 -14 -49 -73t-93 -91q-68 -54 -144 -54q-68 0 -146 56t-126 56t-86 -33t-61 -66t-27 -33q-8 0 -21 15t-13 25zM28 30q0 34 16 43t82 19q44 6 55 26t11 60v600 q0 44 -12 60t-102 82q-14 14 -14 24v4q0 12 17 23t105 57q70 38 116 62q16 10 26 10q28 0 28 -38v-98q0 -2 -2 -10v-4q0 -10 8 -10h2q2 0 18 15t46 37t69 44t96 38t117 16h6q52 0 102 -14t108 -49t97 -112t49 -187q6 -42 6 -128v-48q0 -38 -1 -136t-1 -252v-4q0 -12 2 -23 t3 -17t9 -13t11 -9t17 -6t20 -4t27 -2t31 -4q36 -6 36 -48q0 -48 -38 -48q-8 0 -35 3t-75 7t-102 4q-32 0 -64 -1t-56 -4t-43 -5t-31 -4h-14q-34 0 -34 48q0 28 15 35t79 17q22 6 36 8q26 4 34 15t8 43v392q0 184 -34 272q-36 84 -110 117t-140 33q-96 0 -173 -59t-87 -103 q-4 -20 -4 -34v-596v-6q0 -64 56 -72q112 -18 122 -28q14 -12 14 -40q0 -46 -32 -46q-2 0 -16 2t-36 4t-49 6t-63 5t-70 1t-69 -1t-60 -4t-45 -5t-32 -3t-16 -1q-40 0 -40 44z" />
<glyph unicode="&#xf2;" horiz-adv-x="1174" d="M54 514q0 254 161 414t383 160q226 0 376 -161t150 -413q0 -258 -156 -409t-380 -151q-236 0 -385 162t-149 398zM248 526q0 -196 96 -323t251 -127t256 127t101 301q0 198 -112 332t-260 134q-122 0 -227 -109t-105 -335zM138 1668q0 42 28 68t66 26h2q68 0 138 -106 q78 -116 172 -256q94 -138 94 -160q0 -18 -15 -34t-35 -16h-6q-16 0 -35 16t-143 146q-116 116 -202 204q-64 64 -64 112z" />
<glyph unicode="&#xf3;" horiz-adv-x="1174" d="M338 1240q0 26 114 192q86 126 152 224q70 106 138 106q40 0 67 -26t27 -68q0 -48 -60 -112q-328 -338 -350 -354q-18 -12 -38 -12q-22 0 -36 16t-14 34zM54 514q0 254 161 414t383 160q226 0 376 -161t150 -413q0 -258 -156 -409t-380 -151q-236 0 -385 162t-149 398z M248 526q0 -196 96 -323t251 -127t256 127t101 301q0 198 -112 332t-260 134q-122 0 -227 -109t-105 -335z" />
<glyph unicode="&#xf4;" horiz-adv-x="1174" d="M358 1226q0 16 62 195t94 251q32 74 74 74q40 0 73 -71t103 -273q32 -92 48 -146q8 -22 8 -26q0 -22 -14 -32t-26 -10q-30 0 -64 58q-100 180 -112 188q-6 2 -12 2q-18 0 -32 -20t-70 -116q-22 -36 -34 -58q-34 -54 -60 -54q-12 0 -25 10t-13 28zM54 514q0 254 161 414 t383 160q226 0 376 -161t150 -413q0 -258 -156 -409t-380 -151q-236 0 -385 162t-149 398zM248 526q0 -196 96 -323t251 -127t256 127t101 301q0 198 -112 332t-260 134q-122 0 -227 -109t-105 -335z" />
<glyph unicode="&#xf5;" horiz-adv-x="1174" d="M202 1452q0 6 44 73t68 91q60 60 128 60q58 0 141 -54t139 -54q52 0 94 28t68 57t36 29t29 -10t19 -22q0 -14 -49 -73t-93 -91q-68 -54 -144 -54q-68 0 -146 56t-126 56t-86 -33t-61 -66t-27 -33q-8 0 -21 15t-13 25zM54 514q0 254 161 414t383 160q226 0 376 -161 t150 -413q0 -258 -156 -409t-380 -151q-236 0 -385 162t-149 398zM248 526q0 -196 96 -323t251 -127t256 127t101 301q0 198 -112 332t-260 134q-122 0 -227 -109t-105 -335z" />
<glyph unicode="&#xf6;" horiz-adv-x="1174" d="M300 1558q0 48 35 83t85 35q52 0 88 -34t36 -82q0 -52 -36 -86t-88 -34t-86 33t-34 85zM642 1558q0 48 35 83t85 35q52 0 86 -34t34 -82q0 -52 -35 -86t-85 -34q-52 0 -86 33t-34 85zM54 514q0 254 161 414t383 160q226 0 376 -161t150 -413q0 -258 -156 -409t-380 -151 q-236 0 -385 162t-149 398zM248 526q0 -196 96 -323t251 -127t256 127t101 301q0 198 -112 332t-260 134q-122 0 -227 -109t-105 -335z" />
<glyph unicode="&#xf7;" horiz-adv-x="1762" d="M132 638v32q0 56 60 56h1390q52 0 52 -50v-34q0 -40 -17 -49t-49 -9h-1376q-60 0 -60 54zM718 1008q0 54 40 92t96 38q54 0 92 -36t38 -90q0 -58 -39 -96t-93 -38q-58 0 -96 38t-38 92zM736 300q0 54 37 91t93 37t96 -38t40 -92t-39 -91t-95 -37q-54 0 -93 37t-39 93z " />
<glyph unicode="&#xf8;" horiz-adv-x="1174" d="M54 514q0 254 161 414t383 160q100 0 214 -44q52 98 66 108q8 4 20 4q88 0 88 -42q0 -20 -68 -138q100 -78 153 -201t53 -261q0 -258 -156 -409t-380 -151q-110 0 -220 44q-2 -6 -8 -18t-10 -17t-8 -15t-8 -13t-10 -8t-12 -8t-14 -3q-88 0 -88 34q0 4 56 110 q-96 72 -154 190t-58 264zM248 526q0 -198 96 -322l398 716q-76 50 -162 50q-122 0 -227 -109t-105 -335zM436 118q74 -42 160 -42q154 0 255 127t101 301q0 198 -114 332z" />
<glyph unicode="&#xf9;" horiz-adv-x="1270" d="M18 1004v8q0 32 26 34q252 14 264 14q24 0 24 -30v-516q0 -164 46 -260q36 -68 106 -118t160 -50q124 0 214 92q6 6 14 15t11 13t8 8t6 8t3 9t2 9v10v620q0 54 -48 70q-12 4 -118 22q-38 8 -38 42q0 36 36 42q80 2 145 4t91 4t45 2h29q36 0 36 -50v-790q0 -6 1 -10t5 -8 t9 -6t15 -7t22 -10t32 -15t42 -20t22 -30q0 -26 -11 -36t-33 -14t-81 -25t-129 -59q-14 -10 -26 -10q-36 0 -36 48v60q0 10 -6 10q-4 0 -22 -14t-49 -32t-70 -37t-96 -32t-115 -13q-156 0 -259 96t-125 268q-8 74 -8 154q0 48 1 219t1 185q0 46 -68 72q-12 4 -38 12t-33 15 t-7 27zM172 1668q0 42 28 68t66 26h2q68 0 138 -106q78 -116 172 -256q94 -138 94 -160q0 -18 -15 -34t-35 -16h-6q-16 0 -35 16t-143 146q-116 116 -202 204q-64 64 -64 112z" />
<glyph unicode="&#xfa;" horiz-adv-x="1270" d="M374 1240q0 26 114 192q86 126 152 224q70 106 138 106q40 0 67 -26t27 -68q0 -48 -60 -112q-328 -338 -350 -354q-18 -12 -38 -12q-22 0 -36 16t-14 34zM18 1004v8q0 32 26 34q252 14 264 14q24 0 24 -30v-516q0 -164 46 -260q36 -68 106 -118t160 -50q124 0 214 92 q6 6 14 15t11 13t8 8t6 8t3 9t2 9v10v620q0 54 -48 70q-12 4 -118 22q-38 8 -38 42q0 36 36 42q80 2 145 4t91 4t45 2h29q36 0 36 -50v-790q0 -6 1 -10t5 -8t9 -6t15 -7t22 -10t32 -15t42 -20t22 -30q0 -26 -11 -36t-33 -14t-81 -25t-129 -59q-14 -10 -26 -10q-36 0 -36 48 v60q0 10 -6 10q-4 0 -22 -14t-49 -32t-70 -37t-96 -32t-115 -13q-156 0 -259 96t-125 268q-8 74 -8 154q0 48 1 219t1 185q0 46 -68 72q-12 4 -38 12t-33 15t-7 27z" />
<glyph unicode="&#xfb;" horiz-adv-x="1270" d="M392 1224q0 16 62 195t94 251q32 74 74 74q40 0 73 -71t103 -273q32 -92 48 -146q8 -22 8 -26q0 -22 -14 -32t-26 -10q-30 0 -64 58q-100 180 -112 188q-6 2 -12 2q-18 0 -32 -20t-70 -116q-22 -36 -34 -58q-34 -54 -60 -54q-12 0 -25 10t-13 28zM18 1004v8q0 32 26 34 q252 14 264 14q24 0 24 -30v-516q0 -164 46 -260q36 -68 106 -118t160 -50q124 0 214 92q6 6 14 15t11 13t8 8t6 8t3 9t2 9v10v620q0 54 -48 70q-12 4 -118 22q-38 8 -38 42q0 36 36 42q80 2 145 4t91 4t45 2h29q36 0 36 -50v-790q0 -6 1 -10t5 -8t9 -6t15 -7t22 -10t32 -15 t42 -20t22 -30q0 -26 -11 -36t-33 -14t-81 -25t-129 -59q-14 -10 -26 -10q-36 0 -36 48v60q0 10 -6 10q-4 0 -22 -14t-49 -32t-70 -37t-96 -32t-115 -13q-156 0 -259 96t-125 268q-8 74 -8 154q0 48 1 219t1 185q0 46 -68 72q-12 4 -38 12t-33 15t-7 27z" />
<glyph unicode="&#xfc;" horiz-adv-x="1270" d="M332 1558q0 48 35 83t85 35q52 0 88 -34t36 -82q0 -52 -36 -86t-88 -34t-86 33t-34 85zM674 1558q0 48 35 83t85 35q52 0 86 -34t34 -82q0 -52 -35 -86t-85 -34q-52 0 -86 33t-34 85zM18 1004v8q0 32 26 34q252 14 264 14q24 0 24 -30v-516q0 -164 46 -260 q36 -68 106 -118t160 -50q124 0 214 92q6 6 14 15t11 13t8 8t6 8t3 9t2 9v10v620q0 54 -48 70q-12 4 -118 22q-38 8 -38 42q0 36 36 42q80 2 145 4t91 4t45 2h29q36 0 36 -50v-790q0 -6 1 -10t5 -8t9 -6t15 -7t22 -10t32 -15t42 -20t22 -30q0 -26 -11 -36t-33 -14t-81 -25 t-129 -59q-14 -10 -26 -10q-36 0 -36 48v60q0 10 -6 10q-4 0 -22 -14t-49 -32t-70 -37t-96 -32t-115 -13q-156 0 -259 96t-125 268q-8 74 -8 154q0 48 1 219t1 185q0 46 -68 72q-12 4 -38 12t-33 15t-7 27z" />
<glyph unicode="&#xfd;" horiz-adv-x="1178" d="M338 1240q0 26 114 192q86 126 152 224q70 106 138 106q40 0 67 -26t27 -68q0 -48 -60 -112q-328 -338 -350 -354q-18 -12 -38 -12q-22 0 -36 16t-14 34zM10 1004q0 42 34 42q6 0 30 -1t70 -4t97 -3t97 3t72 4t30 1q34 0 34 -40q0 -10 -1 -16t-1 -11t-4 -9t-5 -7t-7 -5 t-8 -3t-12 -2t-15 -2t-19 -2t-20 -1q-40 -6 -40 -36q0 -12 31 -94t98 -230t147 -296q0 -14 16 -14q8 0 13 5t7 11t6 8q206 496 206 594q0 14 -4 24t-9 16t-17 9t-22 4t-32 1t-36 2q-48 4 -48 49t48 45q4 0 29 -1t70 -4t97 -3h2q52 0 95 3t68 4t29 1q30 0 30 -52 q0 -28 -15 -34t-83 -12q-24 -4 -33 -18t-39 -94q-58 -166 -128 -334q-244 -596 -450 -908q-100 -154 -186 -154q-42 0 -71 27t-29 63q0 44 32 77t95 73t95 70q54 48 112 143t58 143q0 64 -280 626q-116 226 -138 258q-14 22 -40 26t-41 12t-15 46z" />
<glyph unicode="&#xff;" horiz-adv-x="1178" d="M300 1558q0 48 35 83t85 35q52 0 88 -34t36 -82q0 -52 -36 -86t-88 -34t-86 33t-34 85zM642 1558q0 48 35 83t85 35q52 0 86 -34t34 -82q0 -52 -35 -86t-85 -34q-52 0 -86 33t-34 85zM10 1004q0 42 34 42q6 0 30 -1t70 -4t97 -3t97 3t72 4t30 1q34 0 34 -40q0 -10 -1 -16 t-1 -11t-4 -9t-5 -7t-7 -5t-8 -3t-12 -2t-15 -2t-19 -2t-20 -1q-40 -6 -40 -36q0 -12 31 -94t98 -230t147 -296q0 -14 16 -14q8 0 13 5t7 11t6 8q206 496 206 594q0 14 -4 24t-9 16t-17 9t-22 4t-32 1t-36 2q-48 4 -48 49t48 45q4 0 29 -1t70 -4t97 -3h2q52 0 95 3t68 4 t29 1q30 0 30 -52q0 -28 -15 -34t-83 -12q-24 -4 -33 -18t-39 -94q-58 -166 -128 -334q-244 -596 -450 -908q-100 -154 -186 -154q-42 0 -71 27t-29 63q0 44 32 77t95 73t95 70q54 48 112 143t58 143q0 64 -280 626q-116 226 -138 258q-14 22 -40 26t-41 12t-15 46z" />
<glyph unicode="&#x131;" horiz-adv-x="610" d="M36 928q0 6 4 14t13 13t16 8t19 8t18 9q276 132 278 132h2q34 0 34 -42l-2 -82q-4 -80 -8 -217t-4 -271v-84q0 -234 7 -276t49 -46q74 -10 94 -18t20 -36q0 -54 -30 -54q-2 0 -14 1t-35 3t-50 5t-62 4t-70 1t-72 -1t-63 -4t-48 -5t-34 -3t-14 -1q-40 0 -40 41t16 49 t110 20q44 8 55 29t11 61v120v237q0 111 1 174t1 75q0 28 -18 39t-152 65q-32 12 -32 32z" />
<glyph unicode="&#x152;" horiz-adv-x="2562" d="M44 888q0 382 273 654t655 272q56 0 113 -5t90 -12t86 -18t73 -13q48 -10 112 -16t104 -8h40h766q40 0 52 -42l72 -318v-6q0 -26 -19 -39t-43 -13q-12 0 -21 2t-14 6t-10 10t-6 10t-4 11t-3 9l-110 186q-18 32 -31 40t-41 8h-490q-34 0 -57 -17t-23 -41v-416 q0 -56 40 -56h396q28 0 45 3t34 23t17 56v80q0 26 20 41t46 15q74 0 74 -74v-464q0 -72 -68 -72q-72 0 -72 54v136q0 56 -64 56h-282q-124 0 -156 -17t-32 -83v-586q0 -60 54 -83t258 -23q84 0 207 15t161 39q12 10 142 234q22 42 56 42q42 0 42 -58v-2q0 -12 -76 -358 q-8 -32 -25 -41t-53 -9h-702q-222 0 -423 -31t-235 -31q-396 0 -682 281t-286 669zM282 966q0 -226 78 -421t245 -327t397 -132q192 0 342 94q26 14 31 24t5 56v1252q-190 168 -446 168h-2q-120 0 -232 -43t-208 -125t-153 -224t-57 -322z" />
<glyph unicode="&#x153;" horiz-adv-x="1920" d="M54 514q0 254 161 414t383 160q130 0 247 -63t189 -177q58 104 158 170t230 66q126 0 241 -68t189 -172q22 -28 22 -54v-6q0 -22 -13 -39t-40 -30t-47 -21t-58 -20t-48 -14q-512 -178 -524 -186q-10 -4 -10 -14q0 -14 7 -49t32 -91t63 -104t109 -84t161 -36 q172 0 300 122q26 36 58 36q40 0 40 -38q0 -20 -18 -38q-78 -104 -196 -164t-248 -60q-136 0 -243 62t-165 166q-72 -108 -191 -168t-255 -60q-236 0 -385 162t-149 398zM248 526q0 -196 96 -323t251 -127t256 127t101 301q0 198 -112 332t-260 134q-122 0 -227 -109 t-105 -335zM1124 588q0 -20 12 -20q2 0 234 90t236 92q24 12 24 30q0 32 -86 100t-178 68q-112 0 -177 -96t-65 -264z" />
<glyph unicode="&#x178;" horiz-adv-x="1680" d="M28 1680q0 22 16 39t48 17q6 0 42 -2t99 -5t136 -3t135 3t96 5t42 2q46 0 46 -50q0 -14 -1 -23t-5 -17t-7 -13t-13 -8t-16 -5t-22 -4t-27 -2t-33 -1t-40 -5q-66 -6 -66 -56v-4q0 -18 120 -224q128 -224 238 -414q22 -36 36 -36q4 0 18 14q364 502 400 558q44 80 44 106 q0 40 -22 51t-82 13h-16q-40 2 -60 5t-37 19t-17 46q0 16 14 33t40 17q4 0 34 -2t80 -5t110 -3h8q58 0 110 3t79 5t35 2q36 0 53 -16t17 -34q0 -26 -18 -42t-53 -40t-59 -56l-366 -472q-42 -58 -85 -116t-65 -88t-46 -60t-32 -45t-18 -28t-11 -25t-3 -21t-2 -27v-488 q0 -38 27 -46t151 -14q62 -2 98 -4q56 -4 56 -60v-22q0 -46 -40 -46l-52 4q-50 2 -135 6t-169 4q-54 0 -109 -1t-97 -4t-75 -5t-53 -3t-22 -1q-64 0 -64 70q0 10 1 19t3 15t8 10l9 6q3 2 14 5t20 4t25 1t32 1t39 1t47 2l8 4h15q1 0 9 1t11 2t10 3t8 7t5 10t5 13t1 18v520 q0 22 -5 41t-7 26t-18 34t-24 37q-230 372 -400 644q-56 90 -62 100q-24 32 -73 35t-63 31q-8 14 -8 34zM584 1954q0 48 35 83t85 35q52 0 88 -34t36 -82q0 -52 -36 -86t-88 -34t-86 33t-34 85zM926 1954q0 48 35 83t85 35q52 0 86 -34t34 -82q0 -52 -35 -86t-85 -34 q-52 0 -86 33t-34 85z" />
<glyph unicode="&#x2c6;" horiz-adv-x="540" d="M40 1244q0 16 62 195t94 251q32 74 74 74q40 0 73 -71t103 -273q32 -92 48 -146q8 -22 8 -26q0 -22 -14 -32t-26 -10q-30 0 -64 58q-100 180 -112 188q-6 2 -12 2q-18 0 -32 -20t-70 -116q-22 -36 -34 -58q-34 -54 -60 -54q-12 0 -25 10t-13 28z" />
<glyph unicode="&#x2da;" horiz-adv-x="492" d="M32 1415q0 91 64 157t150 66q88 0 151 -66t63 -157t-63 -156t-151 -65q-86 0 -150 65t-64 156zM132 1420q0 -52 34 -90t83 -38t81 37t32 86t-33 88t-83 39q-46 0 -80 -37t-34 -85z" />
<glyph unicode="&#x2dc;" horiz-adv-x="846" d="M40 1452q0 6 44 73t68 91q60 60 128 60q58 0 141 -54t139 -54q52 0 94 28t68 57t36 29t29 -10t19 -22q0 -14 -49 -73t-93 -91q-68 -54 -144 -54q-68 0 -146 56t-126 56t-86 -33t-61 -66t-27 -33q-8 0 -21 15t-13 25z" />
<glyph unicode="&#x2000;" horiz-adv-x="1132" />
<glyph unicode="&#x2001;" horiz-adv-x="2266" />
<glyph unicode="&#x2002;" horiz-adv-x="1132" />
<glyph unicode="&#x2003;" horiz-adv-x="2266" />
<glyph unicode="&#x2004;" horiz-adv-x="754" />
<glyph unicode="&#x2005;" horiz-adv-x="566" />
<glyph unicode="&#x2006;" horiz-adv-x="376" />
<glyph unicode="&#x2007;" horiz-adv-x="376" />
<glyph unicode="&#x2008;" horiz-adv-x="282" />
<glyph unicode="&#x2009;" horiz-adv-x="452" />
<glyph unicode="&#x200a;" horiz-adv-x="124" />
<glyph unicode="&#x2010;" d="M30 452v38q0 24 8 35t40 33q108 76 246 172q160 114 178 114q40 0 40 -98q0 -38 -46 -72q-56 -40 -109 -77t-88 -62t-67 -49t-52 -37t-37 -26t-26 -19t-17 -9t-13 -5t-11 -2q-46 0 -46 64z" />
<glyph unicode="&#x2011;" d="M30 452v38q0 24 8 35t40 33q108 76 246 172q160 114 178 114q40 0 40 -98q0 -38 -46 -72q-56 -40 -109 -77t-88 -62t-67 -49t-52 -37t-37 -26t-26 -19t-17 -9t-13 -5t-11 -2q-46 0 -46 64z" />
<glyph unicode="&#x2012;" d="M30 452v38q0 24 8 35t40 33q108 76 246 172q160 114 178 114q40 0 40 -98q0 -38 -46 -72q-56 -40 -109 -77t-88 -62t-67 -49t-52 -37t-37 -26t-26 -19t-17 -9t-13 -5t-11 -2q-46 0 -46 64z" />
<glyph unicode="&#x2013;" horiz-adv-x="1324" d="M68 640q0 62 36 62h1124q34 0 34 -62v-4q0 -72 -34 -72h-1124q-36 0 -36 66v10z" />
<glyph unicode="&#x2014;" horiz-adv-x="2688" d="M68 630v10q0 64 36 64h2486q34 0 34 -64v-6q0 -42 -7 -56t-27 -14h-2486q-36 0 -36 66z" />
<glyph unicode="&#x2018;" d="M98 1452q0 90 30 158t59 94t51 26q20 -4 35 -18t15 -32q0 -12 -46 -64t-46 -106q0 -36 25 -66t85 -30q6 0 21 3t23 3q66 0 97 -36t31 -76q0 -50 -45 -95t-119 -45q-80 0 -148 70t-68 214z" />
<glyph unicode="&#x2019;" d="M98 1582q0 54 43 97t115 43q82 0 152 -69t70 -211q0 -92 -30 -159t-62 -93t-54 -26q-20 0 -33 15t-13 33q0 14 45 65t45 105q0 34 -24 64t-84 30q-8 0 -24 -1t-22 -1q-68 0 -96 34t-28 74z" />
<glyph unicode="&#x201a;" d="M96 -4q0 54 43 97t117 43q82 0 150 -69t68 -213q0 -90 -29 -158t-60 -94t-53 -26q-20 0 -33 14t-13 34q0 12 44 65t44 107q0 34 -23 64t-85 30q-8 0 -23 -2t-21 -2q-68 0 -97 35t-29 75z" />
<glyph unicode="&#x201c;" horiz-adv-x="1044" d="M96 1452q0 90 29 158t60 94t53 26q20 -4 35 -18t15 -32q0 -12 -46 -64t-46 -106q0 -96 110 -96q6 0 21 3t23 3q66 0 95 -36t29 -76q0 -54 -43 -97t-117 -43q-80 0 -149 70t-69 214zM574 1452q0 90 29 158t61 94t54 26q48 -6 48 -50q0 -12 -46 -64t-46 -106q0 -96 108 -96 q8 0 24 3t24 3q66 0 94 -36t28 -76q0 -54 -43 -97t-115 -43q-80 0 -150 70t-70 214z" />
<glyph unicode="&#x201d;" horiz-adv-x="1044" d="M96 1582q0 52 43 96t117 44q82 0 150 -69t68 -211q0 -92 -29 -159t-60 -93t-53 -26h-2q-18 0 -31 16t-13 32q0 14 44 65t44 105q0 34 -23 64t-85 30q-8 0 -23 -1t-21 -1q-68 0 -97 34t-29 74zM574 1582q0 52 44 96t118 44q80 0 148 -69t68 -211q0 -92 -30 -159t-59 -93 t-51 -26h-2q-18 0 -33 16t-15 32q0 14 45 65t45 105q0 34 -24 64t-86 30q-6 0 -20 -1t-20 -1q-68 0 -98 34t-30 74z" />
<glyph unicode="&#x201e;" horiz-adv-x="1044" d="M576 -4q0 54 43 97t117 43q82 0 150 -69t68 -213q0 -90 -29 -158t-60 -94t-53 -26q-20 0 -33 14t-13 34q0 12 44 65t44 107q0 34 -23 64t-85 30q-8 0 -23 -2t-21 -2q-68 0 -97 35t-29 75zM96 -4q0 54 43 97t117 43q82 0 150 -69t68 -213q0 -90 -29 -158t-60 -94t-53 -26 q-20 0 -33 14t-13 34q0 12 44 65t44 107q0 34 -23 64t-85 30q-8 0 -23 -2t-21 -2q-68 0 -97 35t-29 75z" />
<glyph unicode="&#x2022;" horiz-adv-x="718" d="M160 674q0 84 60 143t140 59q82 0 141 -62t59 -140q0 -84 -61 -142t-139 -58q-84 0 -142 61t-58 139z" />
<glyph unicode="&#x2026;" horiz-adv-x="1662" d="M136 108q0 64 44 105t105 41t106 -43t45 -105t-42 -105t-106 -43q-62 0 -107 43t-45 107zM682 108q0 64 44 105t105 41t106 -43t45 -105t-42 -105t-106 -43q-62 0 -107 43t-45 107zM1228 108q0 64 44 105t105 41t106 -43t45 -105t-42 -105t-106 -43q-62 0 -107 43 t-45 107z" />
<glyph unicode="&#x202f;" horiz-adv-x="452" />
<glyph unicode="&#x2039;" horiz-adv-x="560" d="M56 488q0 14 18 26q384 324 390 328q16 0 29 -16t13 -32q0 -10 -22 -37t-218 -251q-12 -12 -12 -16q0 -10 86 -108q84 -100 154 -182q10 -10 10 -20q0 -16 -13 -33t-29 -17q-10 0 -172 140q-126 108 -222 192q-12 12 -12 26z" />
<glyph unicode="&#x203a;" horiz-adv-x="560" d="M56 794q0 16 14 32t26 16t172 -138q126 -108 222 -190q16 -12 16 -26v-4q0 -12 -194 -176q-110 -96 -188 -166q-14 -12 -26 -12t-25 15t-13 33q0 12 8 22q240 280 240 288t-10 18l-232 262q-10 10 -10 26z" />
<glyph unicode="&#x2044;" horiz-adv-x="1094" d="M14 -436q0 10 950 1876q12 22 40 22q22 0 49 -11t27 -37q0 -2 -8 -24q-940 -1838 -952 -1850q-10 -10 -32 -10q-74 0 -74 34z" />
<glyph unicode="&#x205f;" horiz-adv-x="566" />
<glyph unicode="&#x20ac;" horiz-adv-x="1794" d="M50 868l64 156h210q50 172 150 300t218 195t226 98t204 31q186 0 334 -59t290 -195l-70 -156q-46 76 -188 167t-352 91q-120 0 -236 -41t-234 -151t-178 -280h1098l-60 -156h-1074q0 -4 -1 -24t-1 -34q0 -18 1 -39t1 -25h1020l-68 -156h-916q54 -160 168 -272t236 -157 t240 -45q116 0 218 31t172 81t97 76t51 52l2 4l10 -4v-194q-246 -196 -540 -196q-90 0 -179 18t-187 64t-181 115t-156 178t-115 249h-262l62 156h176v122h-250z" />
<glyph unicode="&#x2122;" horiz-adv-x="2314" d="M106 1600l34 172q8 18 32 18h714q20 0 27 -18t21 -110q6 -28 8 -48l2 -6q4 -4 4 -6q0 -16 -10 -24t-20 -8q-12 0 -38 24q-10 18 -18 34t-13 25l-10 18q-5 9 -9 14t-6 9t-7 5t-9 1h-10h-182q-20 0 -20 -28v-638q0 -18 14 -22t92 -8q24 -2 24 -42q0 -30 -24 -30q-6 0 -27 1 t-58 4t-79 3h-4q-44 0 -82 -3t-58 -4t-26 -1q-30 0 -30 38q0 34 76 36q12 2 18 2q36 6 36 40v620q0 32 -26 32h-186q-22 0 -30 -7t-30 -55q-14 -30 -24 -48q0 -8 -10 -18t-26 -10q-30 0 -30 38zM1004 964q0 24 21 34t59 14h14q18 2 26 24q10 34 24 280q16 180 16 300 q0 8 -14 30t-44 47t-68 25q-30 0 -30 26q0 32 26 32h176q24 0 34 -18l232 -386q150 -240 162 -240q10 0 10 12l322 598l5 10l5 10q2 4 5 8t8 5t11 1h182q26 0 26 -32q0 -30 -63 -38t-63 -40q0 -122 6 -590v-16q0 -40 13 -48t57 -10h20q30 0 30 -38q0 -32 -30 -32q-4 0 -24 1 t-55 4t-73 3h-6q-42 0 -77 -3t-54 -4t-23 -1q-30 0 -30 34q0 14 5 21t21 11t25 5t33 3q30 2 38 16t8 44v260q0 200 -4 200q-20 -14 -126 -212q-202 -372 -222 -390q-4 -4 -16 -4h-6q-20 0 -43 47t-105 205t-208 348q0 6 -6 6q0 -4 -2 -101t-2 -155q0 -190 4 -224t20 -34 q6 0 19 -2t19 -3t18 -2t18 -5t12 -9t8 -11t2 -16q0 -32 -24 -32q-4 0 -24 1t-53 4t-71 3q-40 0 -74 -3t-52 -4t-24 -1q-24 0 -24 32z" />
<glyph unicode="&#xe000;" horiz-adv-x="1045" d="M0 1045h1045v-1045h-1045v1045z" />
<glyph unicode="&#xfb01;" horiz-adv-x="1194" d="M44 46q0 26 16 33t70 15q22 2 34 4q8 0 14 3t10 8t6 7t4 9t2 10t1 13t1 12q10 128 10 720q0 18 -14 23t-60 5h-38q-54 0 -54 44q0 76 52 76h2q102 6 104 10q2 6 2 12v6q12 316 162 520q74 102 180 161t165 69t111 10q84 0 137 -36t53 -94q0 -46 -31 -74t-77 -28h-4 q-42 0 -115 35t-121 35q-78 0 -136 -57t-86 -146t-40 -151t-18 -120q-2 -24 -2 -76v-24q0 -30 4 -37t20 -7h320q60 2 111 9t80 12t35 5q58 0 58 -68q0 -2 -3 -32t-5 -79t-5 -111t-5 -145t-2 -165q0 -280 10 -330q4 -16 18 -21t74 -17q48 -8 48 -52q0 -54 -42 -54q-6 0 -31 4 t-71 6t-100 2q-34 0 -69 -1t-62 -4t-49 -5t-34 -3t-14 -1q-38 0 -38 41t16 49t108 20q68 10 68 90v116q0 146 1 271t1 198v87q0 22 -12 28t-56 12q-44 8 -94 8h-256q-22 0 -22 -22v-722v-10q0 -56 50 -58q20 -2 44 -4t35 -2t25 -1t20 -5t12 -9t7 -13t1 -20q0 -54 -42 -54 q-2 0 -14 1t-33 3t-48 5t-62 4t-69 1t-70 -1t-62 -4t-48 -5t-34 -3t-14 -1q-40 0 -40 60z" />
<glyph unicode="&#xfb02;" horiz-adv-x="1158" d="M28 46q0 26 16 33t70 15q22 2 34 4q32 6 36 62q10 128 10 720q0 18 -12 23t-54 5h-34q-54 0 -54 44q0 76 54 76q88 6 92 10q4 6 4 12v20q0 276 88 456q60 112 174 200t268 88q42 0 82 -10t46 -10q18 0 45 13t37 13q34 0 34 -46v-1594q0 -16 1 -25t5 -18t5 -14t10 -10 t13 -7t18 -6t21 -5t27 -4t30 -5q44 -8 44 -52q0 -48 -30 -48h-16q-12 2 -34 4t-50 5t-65 4t-75 1q-34 0 -68 -1t-60 -2t-48 -4t-36 -3l-12 -2q-36 0 -36 52q0 32 17 40t85 16q32 2 48 18t19 32t3 46v1212v22q0 178 -130 218q-22 10 -52 10q-74 0 -123 -57t-71 -153t-31 -178 t-9 -174q0 -36 5 -46t25 -10h204q54 0 54 -52v-2q0 -76 -64 -76h-196q-24 0 -24 -22v-722v-14q0 -52 50 -54q20 -2 43 -4t36 -2t26 -1t18 -5t11 -9t7 -13t1 -20q0 -54 -38 -54h-16q-12 2 -33 4t-48 5t-61 4t-69 1t-70 -1t-61 -4t-48 -5t-35 -3t-15 -1q-38 0 -38 60z" />
<glyph unicode="&#xfb03;" horiz-adv-x="1792" d="M20 42q0 20 7 30t17 12t37 6t49 8q34 8 38 40q10 62 10 374v368q0 28 -32 28h-48q-52 0 -52 46q0 82 52 82h54q20 0 20 22v2q0 168 55 326t173 258q154 132 342 132h4q70 0 116 -25t66 -49t22 -24t19 16t48 38t74 44t111 38t146 16q142 0 198 -42t56 -98q0 -46 -32 -75 t-79 -29t-133 48t-146 48q-46 0 -89 -22t-86 -76t-70 -167t-27 -273v-82q0 -26 24 -26h370q58 2 110 9t79 12t35 5q54 0 54 -68q0 -2 -2 -32t-4 -79t-6 -111t-5 -145t-1 -165q0 -310 8 -330q4 -16 18 -21t78 -17q46 -8 46 -52q0 -54 -42 -54q-4 0 -30 4t-73 6t-101 2 q-34 0 -70 -1t-62 -4t-48 -5t-34 -3t-14 -1q-36 0 -36 41t15 49t109 20q68 10 68 90l-2 8v108q0 146 1 271t3 198t2 87q0 22 -13 28t-57 12q-42 8 -86 8h-310q-22 0 -22 -30v-730q0 -36 20 -44t84 -14q30 0 46 -2q42 -2 42 -54q0 -44 -36 -44q-6 0 -37 4t-84 6t-117 2 q-34 0 -71 -1t-64 -2t-49 -4t-34 -4t-14 -1q-32 0 -32 40v15q0 7 2 13l3 9q1 3 8 6t9 5t12 5t16 4t22 4t26 5q8 2 19 3t16 2t13 6t11 15t6 27t5 43t2 64l2 626q0 28 -28 28h-352q-36 0 -36 -30v-728v-4q0 -48 46 -52q18 0 41 -1t33 -3t25 -4t20 -5t11 -9t8 -16t2 -22 q0 -48 -28 -48q-4 0 -16 1t-34 3t-48 5t-62 4t-70 1t-70 -1t-61 -4t-46 -5t-34 -3t-15 -1q-34 0 -34 56zM350 1068q0 -32 28 -32h348q36 0 36 30v18q0 84 10 162t25 128t28 88t23 59t10 23q0 10 -10 10h-6q-40 0 -110 34t-120 34q-74 0 -128 -48t-82 -128t-40 -163t-12 -171 v-44z" />
<glyph unicode="&#xfb04;" horiz-adv-x="1780" d="M22 954q0 82 52 82h106q16 0 16 42q4 56 8 110q42 312 224 460q76 64 177 96t179 32q30 0 57 -5t47 -13t36 -18t27 -20t18 -19t13 -13l4 -8h8l44 32q44 34 129 68t183 34q40 0 76 -10t42 -10h4q16 0 43 13t37 13q34 0 34 -46v-1572q0 -6 -1 -13t-1 -9q0 -16 1 -25t5 -18 t5 -14t10 -10t13 -7t18 -6t20 -5t27 -4t31 -5q44 -8 44 -52q0 -48 -32 -48q-2 0 -15 1t-35 3t-49 5t-64 4t-72 1t-69 -1t-61 -2t-48 -4t-34 -4t-15 -1q-36 0 -36 52q0 32 17 40t89 16q44 4 56 28t12 68v1238q0 82 -22 123t-74 71q-58 26 -96 26q-64 0 -111 -48t-71 -128 t-34 -161t-10 -169v-82q0 -26 28 -26h242q40 0 40 -38q0 -74 -36 -90q-8 -2 -26 -2h-224q-22 0 -22 -30v-730q0 -36 20 -44t86 -14q30 0 46 -2q40 -2 40 -54q0 -44 -34 -44q-8 0 -38 4t-83 6t-115 2q-38 0 -74 -1t-64 -2t-50 -4t-35 -4t-15 -1q-32 0 -32 40q0 34 14 45 t64 19q14 0 22 2t18 3t14 2t11 4t12 8t7 15q12 36 12 128l2 626q0 28 -30 28h-374q-32 0 -32 -30v-728v-4q0 -48 46 -52q16 0 40 -1t33 -3t24 -4t20 -5t11 -9t9 -16t3 -22q0 -48 -32 -48h-16q-12 2 -33 4t-48 5t-61 4t-69 1t-70 -1t-61 -4t-47 -5t-33 -3t-16 -1 q-34 0 -34 56q0 18 4 26t14 12t20 5t32 5t40 8q32 8 40 64t8 318v400q0 28 -30 28h-98q-52 0 -52 46zM376 1068q0 -32 28 -32h366q40 0 40 30v18q0 84 10 162t23 128t27 88t23 59t9 23q0 10 -12 10h-6q-40 0 -114 35t-132 35q-192 0 -250 -338q-12 -74 -12 -174v-44z" />
<glyph horiz-adv-x="680" d="M34 1880q0 16 92 130q70 88 124 154q46 60 96 60q32 0 64 -34q232 -286 234 -296q2 -4 2 -12q0 -12 -9 -25t-29 -13q-32 0 -66 36q-20 16 -42 35t-36 30t-29 23t-23 20t-18 15t-16 11t-12 6t-13 3t-11 1q-34 0 -136 -90t-132 -90q-20 0 -30 13t-10 23z" />
<glyph horiz-adv-x="708" d="M42 1890q0 34 50 66l346 250q76 60 128 60q42 0 71 -26t29 -66q0 -10 -2 -21t-5 -18t-9 -16t-11 -14t-12 -11t-12 -9t-15 -8t-13 -8t-12 -8t-11 -5q-456 -216 -470 -216q-20 0 -36 14t-16 36z" />
<glyph horiz-adv-x="708" d="M42 2174q0 42 28 67t70 25q56 0 134 -60q370 -270 382 -288q10 -18 10 -32q0 -22 -14 -34t-34 -12h-2q-18 0 -470 216l-14 6q-8 4 -13 7t-16 10t-19 13t-16 15t-13 19t-9 22t-4 26z" />
</font>
</defs>
</svg>
