<?xml version="1.0" standalone="no"?>
<!DOCTYPE svg PUBLIC "-//W3C//DTD SVG 1.1//EN" "http://www.w3.org/Graphics/SVG/1.1/DTD/svg11.dtd" >
<svg xmlns="http://www.w3.org/2000/svg">
<metadata></metadata>
<defs>
<font id="lavanderia_delicatedelicate" horiz-adv-x="2316" >
<font-face units-per-em="2048" ascent="1536" descent="-512" />
<missing-glyph horiz-adv-x="414" />
<glyph horiz-adv-x="0" />
<glyph horiz-adv-x="0" />
<glyph horiz-adv-x="682" />
<glyph unicode=" "  horiz-adv-x="414" />
<glyph unicode="&#x09;" horiz-adv-x="414" />
<glyph unicode="&#xa0;" horiz-adv-x="414" />
<glyph unicode="!" horiz-adv-x="364" d="M28 22q0 15 8 27.5t21 12.5t20.5 -9.5t7.5 -24.5t-8 -27t-22 -12q-27 0 -27 33zM62 129q71 353 182.5 777.5t216.5 754.5l42 -15q-68 -210 -108 -339t-100.5 -337t-111.5 -416.5t-96 -429.5z" />
<glyph unicode="&#x22;" horiz-adv-x="375" d="M158 1344q15 77 29 157.5t20 123.5l6 43l41 -5q-38 -147 -75 -323zM250 1344q15 77 29 157.5t20 123.5l6 43l41 -5q-38 -147 -75 -323z" />
<glyph unicode="#" horiz-adv-x="884" d="M39 479l5 28h263l41 224h-270l5 28h270l60 333l27 -2l-57 -331h199l60 333l28 -2l-57 -331h258l-4 -28h-259l-44 -224h268l-4 -28h-268l-63 -321l-27 4l60 317h-200l-61 -321l-28 4l59 317h-261zM335 507h201l42 224h-199z" />
<glyph unicode="$" horiz-adv-x="726" d="M57 241q0 32 7 66l50 -9q-4 -20 -4 -59q0 -90 45 -147.5t114 -73.5q16 82 31 163t35 192.5t26 145.5q-30 31 -48.5 52t-42.5 54.5t-37.5 62t-23.5 66.5t-10 78q0 72 33.5 125t84.5 78t110 25q15 0 22 -3l33 179l28 -2q-27 -150 -33 -181q66 -16 108.5 -73t42.5 -142 q0 -60 -18 -118l-46 16q21 62 21 113q0 66 -31 112t-81 64q-12 -70 -37.5 -230.5t-41.5 -246.5l11 -11q31 -34 47.5 -51.5t41 -50t37 -57t22 -58.5t9.5 -68q0 -65 -21.5 -116t-57.5 -81t-79.5 -46t-91.5 -16h-21q-6 -35 -20.5 -105t-20.5 -104l-27 3q6 35 20.5 104.5 t20.5 104.5q-86 14 -146.5 79t-60.5 166zM245 830q0 -72 33 -132t92 -122q12 66 24 140t27 170t24 147q-5 0 -14 1t-13 1q-75 0 -124 -53t-49 -152zM296 16q3 0 10.5 -1.5t10.5 -1.5q82 0 140.5 62t58.5 173q0 35 -9.5 68t-31 65t-40 55t-50.5 57q-56 -315 -89 -477z" />
<glyph unicode="%" horiz-adv-x="974" d="M35 7q134 142 264 314t219.5 316t159.5 267.5t104 194.5l34 70q-3 -3 -9 -8t-27 -19t-43.5 -27.5t-57.5 -29.5t-70 -27.5t-80 -19.5t-89 -8q-38 0 -75 9q31 -10 55 -38.5t37 -70.5t13 -90q0 -58 -15.5 -115t-45 -106t-78.5 -79t-110 -30q-85 0 -131 65.5t-46 162.5 q0 53 19 109.5t52 104.5t84.5 79t109.5 31q21 0 59.5 -7t55.5 -7q67 0 134.5 16.5t115.5 40t86.5 47t57.5 40.5l20 16l22 -15q-75 -172 -205.5 -392t-292 -442t-303.5 -366zM90 725q0 -54 13.5 -96.5t44 -69.5t73.5 -27q46 0 86 28t65.5 73t40 99t14.5 108q0 79 -32 135 t-93 64q-48 0 -89.5 -30.5t-67.5 -77.5t-40.5 -101.5t-14.5 -104.5zM457 202q0 60 18 121t50 112.5t81.5 83.5t106.5 32q55 0 93 -30t55 -77.5t17 -106.5q0 -48 -11 -97t-33.5 -94t-52.5 -80t-71.5 -56t-87.5 -21q-82 0 -123.5 60.5t-41.5 152.5zM503 188q0 -77 30 -127 t89 -50q60 0 109 54t74 130.5t25 152.5q0 80 -29 130t-88 50q-60 0 -109.5 -54.5t-75 -131.5t-25.5 -154z" />
<glyph unicode="&#x26;" horiz-adv-x="969" d="M87 365q0 140 61.5 298t177.5 305q-26 162 -26 280q0 93 14 168t42.5 131.5t76 87t110.5 30.5q70 0 120 -33.5t72 -85t22 -115.5q0 -72 -30.5 -138.5t-84.5 -106.5l-20 25q45 39 71.5 101.5t26.5 127.5q0 86 -45.5 144t-133.5 58q-68 0 -113.5 -46t-65.5 -124t-20 -185 q0 -248 96 -574t241 -571q143 174 146 633q-87 0 -137 2l4 22h393l-4 -22q-86 -2 -210 -2q-3 -479 -173 -661q90 -146 185 -228.5t188 -82.5q101 0 168 87l27 -23q-39 -46 -81.5 -64.5t-111.5 -18.5q-202 0 -408 301q-102 -85 -256 -85q-104 0 -177.5 48t-109 129t-35.5 188 zM133 383q0 -61 10.5 -114.5t32.5 -99.5t54.5 -79t79 -51.5t103.5 -18.5q142 0 237 88q-110 169 -194.5 391.5t-125.5 441.5q-91 -112 -144 -264t-53 -294z" />
<glyph unicode="'" horiz-adv-x="217" d="M116 1344q10 48 19.5 99.5t16 89.5t11.5 69.5t7 48.5l2 17l41 -5q-38 -147 -75 -323z" />
<glyph unicode="(" horiz-adv-x="334" d="M64 99q0 270 54 599.5t143 619.5t188 455l21 -11q-90 -168 -177 -471.5t-142 -646.5t-55 -607q0 -144 16 -243l-22 -5q-26 129 -26 310z" />
<glyph unicode=")" horiz-adv-x="389" d="M-53 -199q68 124 136 335.5t120.5 448t85 489.5t32.5 451q0 138 -16 243l23 5q25 -123 25 -311q0 -269 -54.5 -599t-143.5 -619.5t-187 -454.5z" />
<glyph unicode="*" horiz-adv-x="421" d="M20 1381q94 32 186 57q-73 58 -149 124l21 23q108 -94 145 -136q6 76 31 195l30 -4q-5 -31 -12 -64t-12.5 -54t-11.5 -44t-7 -29q66 27 186 70l6 -33q-38 -13 -77.5 -25t-69.5 -20.5t-38 -11.5q13 -10 151 -126l-20 -23q-53 44 -145 136q-13 -88 -32 -195l-30 7 q20 104 46 192q-96 -38 -186 -69z" />
<glyph unicode="+" horiz-adv-x="451" d="M16 576l4 28h193l39 212l28 -4l-37 -208h188l-4 -28h-188l-37 -209l-27 5l33 204h-192z" />
<glyph unicode="," horiz-adv-x="197" d="M-103 -234q99 153 99 317h41q0 -76 -33 -166.5t-91 -161.5z" />
<glyph unicode="-" horiz-adv-x="501" d="M39 571l5 28h411l-6 -28h-410z" />
<glyph unicode="." horiz-adv-x="252" d="M28 22q0 15 8 27.5t21 12.5t20.5 -9.5t7.5 -24.5t-8 -27t-22 -12q-27 0 -27 33z" />
<glyph unicode="/" horiz-adv-x="346" d="M37 2q255 767 408 1654l28 -4q-84 -473 -172.5 -849t-236.5 -810z" />
<glyph unicode="0" horiz-adv-x="672" d="M46 379q0 92 14 187t43.5 183t70.5 157t99.5 110t125.5 41q50 0 88.5 -20.5t62 -55.5t38.5 -86t21 -106t6 -121q0 -93 -14 -188t-43.5 -183t-70.5 -157t-99.5 -110t-126.5 -41q-73 0 -122.5 52.5t-71 137.5t-21.5 200zM92 361q0 -75 9 -136.5t28.5 -110.5t53 -76 t78.5 -27q49 0 93 29.5t77.5 80t60 117t43 142t25.5 153.5t9 152q0 99 -17.5 176t-56.5 125.5t-96 48.5q-58 0 -108.5 -41.5t-86 -110.5t-61.5 -157t-38.5 -181.5t-12.5 -183.5z" />
<glyph unicode="1" horiz-adv-x="392" d="M-81 0l5 26h175q32 224 76 470t71 380l27 133q-11 -17 -31 -46t-76.5 -98.5t-106.5 -116.5l-18 18q61 56 120 128t88 115l29 44l48 -16q-1 -8 -29 -143.5t-71.5 -375.5t-81.5 -492h171l-6 -26h-390z" />
<glyph unicode="2" horiz-adv-x="600" d="M-35 11q8 29 42 79q44 64 98 128t99.5 111.5t92.5 97.5t83 95.5t65 95.5t44.5 107.5t15.5 121.5q0 81 -44.5 134.5t-123.5 53.5q-62 0 -110 -38t-71 -93.5t-23 -117.5q0 -64 27 -116l-36 -18q-30 45 -30 119q0 51 15 100t44.5 91.5t78.5 68.5t110 26q102 0 155.5 -59 t53.5 -160q0 -68 -18.5 -131t-52 -116.5t-74.5 -103.5t-91.5 -102t-98 -101t-99 -111.5t-89.5 -124.5q22 11 66 11q32 0 110.5 -11t119.5 -11q45 0 69 9.5t47 29.5l33 -39q-25 -23 -49 -33.5t-67 -10.5q-56 0 -146.5 23t-123.5 23q-58 0 -91 -48z" />
<glyph unicode="3" horiz-adv-x="604" d="M-26 -20q0 75 32.5 143t89.5 107l26 -31q-50 -37 -79.5 -101.5t-29.5 -132.5q0 -85 46 -143t136 -58q61 0 111 34.5t80.5 91t46.5 124.5t16 139q0 97 -29 173.5t-83 104.5q-24 -9 -57 -9q-9 0 -13 2l6 44h7q28 0 62 -11q74 31 118.5 128.5t44.5 206.5q0 67 -17.5 120.5 t-57.5 88t-97 34.5q-60 0 -106 -38.5t-68.5 -95t-22.5 -117.5q0 -66 26 -114l-35 -18q-33 52 -33 123q0 40 9 79t28.5 76t47.5 65t69.5 45t90.5 17q54 0 96 -21t67.5 -57.5t38 -83t12.5 -99.5q0 -109 -50.5 -211.5t-132.5 -142.5q61 -36 94 -117.5t33 -182.5 q0 -59 -11.5 -115.5t-36.5 -108.5t-60 -91t-86 -62.5t-110 -23.5q-72 0 -122.5 35t-73.5 87.5t-23 116.5z" />
<glyph unicode="4" horiz-adv-x="598" d="M-28 302q193 257 205 663h41q-1 -180 -41.5 -336.5t-139.5 -309.5q27 7 62 7q27 0 65 -5t82.5 -11.5t72.5 -9.5q26 153 55 310t55 291t28 145h48q-2 -10 -15 -76t-30.5 -153.5t-44 -230.5t-50.5 -288q66 0 105 13.5t69 39.5l23 -44q-44 -40 -146 -40q-33 0 -51 2h-4 l-37 -243h167l-5 -26h-364l5 26h151q18 136 37 247q-21 3 -101.5 17.5t-114.5 14.5q-69 0 -97 -38z" />
<glyph unicode="5" horiz-adv-x="655" d="M-28 -30q0 76 30.5 146.5t84.5 110.5l29 -34q-51 -37 -80 -101t-29 -133q0 -84 47 -142t136 -58q64 0 120 42.5t94 110t60 152.5t22 170q0 137 -52 217.5t-156 80.5q-30 0 -62.5 -11t-47.5 -26q-17 -38 -35 -44l-32 31q3 7 17 19t29 20q64 270 94 536q80 -18 172 -18 q121 0 188 27l12 -48q-66 -27 -180 -27q-104 0 -169 18q-19 -155 -35 -245.5t-52 -229.5q66 22 105 22q125 0 186.5 -87.5t61.5 -241.5q0 -128 -43 -240t-123 -181.5t-180 -69.5q-53 0 -94.5 19t-66.5 52t-38 74.5t-13 88.5z" />
<glyph unicode="6" horiz-adv-x="655" d="M37 357q0 131 32 255.5t88.5 228t132 189.5t165 145.5t185.5 90.5l14 -34q-190 -68 -331 -219.5t-204 -360.5q81 140 216 140q70 0 120.5 -48t73 -123.5t22.5 -169.5q0 -83 -20 -164t-56 -148.5t-94.5 -108.5t-128.5 -41q-59 0 -102 29.5t-67 82t-35 116t-11 140.5z M76 337q0 -46 4.5 -88t17 -86.5t32 -77t52 -53.5t74.5 -21q60 0 108.5 39t78.5 102t46 139.5t16 155.5q0 92 -19 164t-59.5 117t-98.5 45q-75 0 -140.5 -64t-93.5 -181q-18 -85 -18 -191z" />
<glyph unicode="7" horiz-adv-x="595" d="M26 849q15 80 15 199q110 -18 257 -18q160 0 271 25l13 -35q-68 -101 -140.5 -266t-127 -327.5t-99 -310.5t-67.5 -240l-24 -92h-48q9 35 25 95.5t66.5 230t102 318.5t124.5 320t140 277q-85 -23 -238 -23q-122 0 -218 16q0 -9 1.5 -27t1.5 -26q0 -21 -7 -118z" />
<glyph unicode="8" horiz-adv-x="655" d="M30 264q0 91 29.5 179t90.5 157.5t141 91.5q-58 24 -87 85t-29 143q0 51 12 103.5t36.5 100.5t58.5 85.5t81 59.5t101 22q88 0 133 -64.5t45 -164.5q0 -76 -25 -152t-74.5 -137t-113.5 -83q69 -23 103.5 -91.5t34.5 -162.5q0 -77 -23 -155.5t-64 -144t-104 -106.5 t-135 -41q-70 0 -118.5 39t-70.5 99.5t-22 136.5zM74 252q0 -105 42.5 -173t124.5 -68q60 0 113.5 41t88.5 105t55.5 140.5t20.5 149.5q0 102 -39 167t-117 65q-65 0 -120.5 -40t-91.5 -102.5t-56.5 -137.5t-20.5 -147zM221 906q0 -88 35.5 -146t104.5 -58q50 0 95 35 t74 89.5t46.5 119.5t17.5 127q0 87 -32.5 141.5t-97.5 54.5q-55 0 -102 -33.5t-77 -87t-47 -117t-17 -125.5z" />
<glyph unicode="9" horiz-adv-x="687" d="M76 582q0 48 6.5 97t19.5 95.5t32 89t44.5 78.5t55.5 62t68 41t79 15q71 0 120.5 -49t72 -129.5t22.5 -185.5q0 -122 -29.5 -256.5t-82 -261.5t-134 -235.5t-178.5 -167.5l-30 39q94 54 173.5 155.5t131 219.5t81.5 249q-39 -84 -99.5 -134t-139.5 -50q-71 0 -120 46 t-71 118.5t-22 163.5zM119 587q0 -81 16.5 -148.5t51.5 -112.5t84 -50q9 -3 25 -3q40 0 76.5 18.5t65 50t52 73.5t38.5 89.5t23.5 97.5t8.5 98q0 99 -19 173.5t-61 119t-104 44.5q-60 0 -110.5 -40.5t-81.5 -106.5t-48 -144.5t-17 -158.5z" />
<glyph unicode=":" horiz-adv-x="295" d="M28 22q0 15 8 27.5t21 12.5t20.5 -9.5t7.5 -24.5t-8 -27t-22 -12q-27 0 -27 33zM162 838q0 14 9 26t22 12t20.5 -9t7.5 -25q0 -15 -8.5 -27t-22.5 -12q-13 0 -20.5 9.5t-7.5 25.5z" />
<glyph unicode=";" horiz-adv-x="315" d="M-68 -234q98 153 98 317h41q0 -76 -33 -166.5t-91 -161.5zM162 838q0 14 9 26t22 12t20.5 -9t7.5 -25q0 -15 -8.5 -27t-22.5 -12q-13 0 -20.5 9.5t-7.5 25.5z" />
<glyph unicode="&#x3c;" horiz-adv-x="584" d="M32 856l5 30q28 12 74.5 34.5t164 89.5t203.5 132l14 -21q-53 -40 -115 -80.5t-113.5 -69.5t-95.5 -51.5t-68 -34.5l-25 -11q43 -32 90.5 -74t85 -80t68.5 -71.5t48 -52.5l17 -20l-28 -31q-17 20 -48 53t-116.5 115t-160.5 143z" />
<glyph unicode="=" horiz-adv-x="508" d="M37 468l4 27h416l-6 -27h-414zM68 652l6 27h414l-4 -27h-416z" />
<glyph unicode="&#x3e;" horiz-adv-x="552" d="M62 567q83 64 187.5 126t167.5 91l62 30q-68 50 -145 124.5t-121 124.5l-43 49l27 30q18 -19 49 -52t116.5 -115.5t160.5 -142.5l-4 -29q-28 -12 -74.5 -34.5t-164 -90t-204.5 -133.5z" />
<glyph unicode="?" horiz-adv-x="623" d="M90 1263q0 42 6.5 83.5t21 81t35 75t48.5 65.5t62 51.5t76.5 33.5t89.5 12q132 0 209.5 -85.5t77.5 -244.5q0 -81 -22.5 -160t-59.5 -146.5t-82.5 -134.5t-94 -137.5t-91.5 -142.5t-77 -162t-48 -183l-46 7q13 93 46 181.5t76 159t91.5 139t94.5 134.5t83.5 133.5 t60.5 147.5t23 164q0 74 -20 133.5t-53.5 97t-76.5 57t-91 19.5q-58 0 -107.5 -21t-84.5 -57t-60 -83t-36.5 -99t-11.5 -106q0 -77 23.5 -141.5t74.5 -106t121 -41.5l-4 -39q-63 0 -112.5 25.5t-80 70t-46 100.5t-15.5 119zM170 22q0 15 8.5 27.5t20.5 12.5q14 0 21 -9.5 t7 -24.5t-8 -27t-22 -12q-27 0 -27 33z" />
<glyph unicode="@" horiz-adv-x="1270" d="M-37 254q0 142 25 290.5t70 288.5t113.5 264.5t150 217.5t185 147t213.5 54q79 0 142 -31t104.5 -84.5t69.5 -129t40 -160.5t12 -183q0 -105 -14.5 -218.5t-39 -216.5t-58.5 -196t-71.5 -160.5t-80 -107.5t-83.5 -40q-78 0 -78 181q0 109 25 275q-27 -83 -51 -146 t-53.5 -124t-58.5 -100t-63.5 -62.5t-71.5 -23.5q-61 0 -90 68.5t-29 185.5q0 119 28.5 260.5t75 263.5t113.5 204t136 82q61 0 96 -49t44 -126l35 168h45q-12 -67 -38.5 -203t-41 -216.5t-32.5 -184.5t-26 -179.5t-8 -129.5q0 -115 43 -115q30 0 63 29t63.5 81.5t59.5 122 t53.5 154t42.5 173t28.5 184t10.5 183.5q0 92 -11 171t-37 149.5t-64.5 120t-97 78.5t-132.5 29q-106 0 -205.5 -53t-178.5 -144.5t-144.5 -213.5t-109 -259.5t-67.5 -283.5t-24 -285q0 -116 16.5 -219t52 -192t88 -153t128.5 -100.5t169 -36.5q74 0 146.5 28.5t136.5 78 t127 123t117 158t108 188t99.5 207t91.5 222.5q5 0 9 -2t6.5 -5t2.5 -8v-4q-44 -117 -89 -218.5t-99 -206t-109 -189.5t-120 -160t-131 -126t-142 -80t-154 -29q-99 0 -179.5 37.5t-136 104t-93.5 158.5t-55.5 198t-17.5 226zM307 221q0 -98 22.5 -154t69.5 -56 q57 0 122.5 105.5t120.5 267.5t94 347q5 56 5 74q0 62 -11.5 112t-39.5 84t-68 34q-56 0 -115 -85.5t-102 -210t-70.5 -266.5t-27.5 -252z" />
<glyph unicode="A" d="M-153 309q0 119 26.5 235t77.5 223t130.5 198.5t178.5 159t229.5 106t276.5 38.5q83 0 156.5 -18t130 -49.5t102.5 -76t77 -96.5t50 -112q150 -1 289 -44t248 -125q48 125 115.5 313t114 313.5t103 263t112.5 234.5t113 155l50 -22q-145 -605 -223 -1113t-78 -890 q0 -972 514 -972q81 0 145.5 21.5t113.5 64t85 97t67 128.5l41 -13q-64 -160 -171.5 -242t-254.5 -82q-128 0 -227.5 46.5t-166.5 130t-110 207t-62 271.5t-19 330q0 19 1 58.5t1 60.5q0 385 -241 590q-42 -114 -81.5 -210t-89 -201t-98.5 -191t-109.5 -172t-123 -152.5 t-137.5 -125t-155 -97t-173 -60t-194 -21.5q-165 0 -304 46.5t-235.5 126t-164 187t-99 229t-31.5 252.5zM-105 309q0 -128 30 -246.5t94 -223t156 -182t224.5 -122.5t290.5 -45q117 0 225 36.5t198 98t175.5 155t154 194.5t137 232t121 251.5t109.5 267.5q-71 53 -157 90 t-176.5 54.5t-187.5 18.5q20 -79 20 -161q0 -95 -26.5 -187t-76 -172.5t-126.5 -143t-172 -93.5l-15 34q72 24 134 67.5t106.5 99t75.5 121t46.5 135.5t15.5 141q0 77 -21 157q-134 -4 -260.5 -42.5t-232.5 -106t-182.5 -170.5t-104.5 -228l-39 9q30 131 110 238t190 177 t241.5 109.5t270.5 42.5q-23 72 -64.5 132t-100.5 106t-140.5 71.5t-178.5 25.5q-136 0 -258 -38t-215.5 -104t-168.5 -156t-123 -195t-73.5 -218.5t-25.5 -229.5zM1851 722q195 -160 241 -426q45 632 268 1672q-47 -67 -94 -158t-85.5 -182.5t-83 -211t-79 -220.5t-82 -237 t-85.5 -237z" />
<glyph unicode="B" horiz-adv-x="2031" d="M94 1124q0 91 18.5 182t57 180.5t94 169.5t135 148.5t174.5 118.5t217 78t258 28q144 0 266 -33.5t207 -90.5t144.5 -133.5t88 -162t28.5 -175.5t-29 -175t-83.5 -158t-140.5 -129t-194 -84q111 -23 203 -71t155.5 -112.5t107 -144t64 -165.5t20.5 -177 q0 -111 -30 -219.5t-90 -204t-142.5 -168.5t-196 -115.5t-242.5 -42.5q-135 0 -242.5 37.5t-216.5 102.5q-166 -140 -399 -140q-93 0 -145 45.5t-52 110.5q0 66 58.5 115.5t165.5 49.5q31 0 62.5 -4.5t54 -9.5t55.5 -19.5t47.5 -20.5t51.5 -27.5t45 -27t49 -31.5 q297 297 392 1167l4 46q-26 4 -26 21q0 9 8 16.5t23 8.5q61 507 163 812l49 -13q-101 -285 -162 -801q53 0 102 -7q111 21 200.5 74t146.5 126t87.5 160t30.5 179q0 86 -26 167.5t-81.5 154.5t-135 128t-194.5 87t-251 32q-130 0 -246.5 -28t-207.5 -77.5t-167 -117.5 t-129 -147t-90 -166.5t-54.5 -176.5t-17.5 -177q0 -90 18 -171.5t54.5 -150.5t88.5 -120t124 -79.5t157 -28.5q81 0 150.5 31.5t118 84t82.5 121t50.5 141t16.5 145.5q0 98 -30.5 174.5t-87.5 109.5l17 32q67 -34 104.5 -120.5t37.5 -195.5q0 -77 -17.5 -153t-55 -147.5 t-90.5 -126t-130 -87.5t-168 -33q-92 0 -171 31t-135.5 85t-96.5 127.5t-59.5 159t-19.5 178.5zM160 -376q0 -54 46 -94t127 -40q212 0 363 136q-7 4 -38 23t-39 23.5t-35.5 20.5t-39 21t-36 16.5t-40 15.5t-37 10t-42 8t-41.5 2q-89 0 -138.5 -42.5t-49.5 -99.5zM750 -370 q50 -31 90 -52t95 -43t117.5 -33.5t131.5 -11.5q115 0 219.5 42.5t182 116t135 168.5t87 203.5t29.5 218.5q0 90 -20.5 173.5t-64.5 160.5t-108.5 137.5t-158.5 103.5t-209 60q-68 -9 -111 -12q0 -7 -2.5 -22.5t-2.5 -23.5q-95 -890 -410 -1186z" />
<glyph unicode="C" horiz-adv-x="2136" d="M68 972q0 86 23.5 166.5t69.5 150t109.5 121.5t149.5 81.5t184 29.5q60 0 110 -10.5t69 -20.5l20 -10l-28 -46q-6 4 -18.5 11t-56 18.5t-94.5 11.5q-115 0 -210.5 -42.5t-157 -114.5t-95 -166t-33.5 -198q0 -91 27 -178t85.5 -166t143 -138.5t208.5 -94.5t273 -35 q10 0 24 0.5l28 1t25 0.5q3 159 26.5 327.5t67 332t102.5 316t135.5 281t162 224.5t187.5 150t207 54q106 0 179.5 -54t108 -145t34.5 -213q0 -90 -20 -190t-57.5 -203t-95 -206t-130 -198t-166 -178.5t-198.5 -149t-232 -109t-263 -57.5v-48q0 -133 15.5 -249.5t49 -216 t83 -170.5t121.5 -111.5t160 -40.5q23 0 63 5q-39 150 -39 315q0 120 21 229.5t60.5 197.5t103.5 140t143 52q107 0 163 -85t56 -222q0 -77 -18.5 -158t-57 -160t-92.5 -145t-131 -114.5t-165 -65.5q38 -129 104 -212t159 -99l-11 -44q-53 10 -98.5 40.5t-81 77t-63 104.5 t-46.5 126q-45 -4 -68 -4q-101 0 -182 44t-136 121t-91.5 186t-53 233.5t-16.5 268.5q-13 0 -38.5 -1t-38.5 -1q-133 0 -247.5 26.5t-198.5 73t-148.5 108t-104.5 135.5t-60 151.5t-20 158.5zM972 348q133 15 256.5 58.5t224.5 108t190.5 147.5t158 176.5t123 194.5 t89.5 202.5t53 199t18 185.5q0 114 -29 200t-91.5 136.5t-152.5 50.5q-98 0 -192.5 -53.5t-175 -148t-152.5 -221.5t-127.5 -277t-97.5 -311t-66 -326.5t-29 -321.5zM1462 -188q0 -167 38 -309q83 18 154.5 66.5t120 113.5t83 144t50.5 157.5t16 153.5q0 111 -36.5 185 t-103.5 80h-22q-72 0 -130 -50t-94.5 -133.5t-56 -188.5t-19.5 -219z" />
<glyph unicode="D" horiz-adv-x="2059" d="M-13 -374q0 67 65 115t191 48q22 0 45 -3.5t40.5 -7.5t43.5 -15.5t39 -17t43 -23t39.5 -23t44 -27.5t42.5 -27q205 198 317 672q-20 -2 -65 -2q-94 0 -178 21t-151.5 59.5t-123.5 92.5t-96 119.5t-68 140.5t-41.5 155.5t-13.5 164.5q0 100 18.5 199t56.5 194t92 179.5 t130 156t165.5 123t203 80.5t238.5 29q122 0 229.5 -33t192 -93t153.5 -145t118 -187t82 -219.5t49 -242.5t16 -258q0 -126 -15 -252.5t-43 -247t-71 -233t-96.5 -211t-122 -179.5t-146 -138.5t-169.5 -89.5t-190 -32q-140 0 -250 36.5t-216 99.5q-160 -136 -392 -136 q-94 0 -150 47t-56 111zM28 -379q0 -53 46 -92t125 -39q207 0 357 131q-15 10 -48 31.5t-48.5 30.5t-43 25.5t-45.5 24.5t-42 17t-46 12.5t-44 3.5q-101 0 -156 -43.5t-55 -101.5zM206 1071q0 -116 24.5 -223t75.5 -200t124.5 -162t177 -109t226.5 -40q45 0 68 2 q44 204 75 477q64 581 172 902l39 -11q-110 -313 -170 -891q-26 -258 -73 -472q93 14 172 53t134 92.5t93.5 119t57 134.5t18.5 137q0 80 -26 149.5t-75 115.5l21 30q57 -47 86.5 -121.5t29.5 -163.5q0 -73 -20 -146.5t-62.5 -143.5t-102 -127t-145.5 -97.5t-187 -54.5 q-112 -491 -331 -695q50 -30 93.5 -51.5t99 -42t118.5 -31.5t132 -11q121 0 231 55t196.5 151.5t157.5 227t117 282t71 317t25 330.5q0 131 -15 254t-46.5 238.5t-78 215.5t-113 183t-147 141.5t-184 91t-221.5 32.5q-116 0 -220.5 -28.5t-188 -79t-153.5 -120 t-120.5 -152.5t-86 -175.5t-52.5 -189t-17 -193.5z" />
<glyph unicode="E" horiz-adv-x="1664" d="M9 1534q0 65 25 124.5t70 105.5t113 73.5t148 27.5q113 0 205.5 -56.5t145.5 -145.5l-44 -30q-46 91 -127 150t-180 59q-72 0 -132.5 -24t-100 -65.5t-61 -95t-21.5 -111.5q0 -63 23.5 -123t74.5 -117t125 -99.5t184.5 -68.5t242.5 -26q100 0 208 19q-41 123 -41 272 q0 93 16 182.5t49.5 171t81.5 142.5t116 97.5t148 36.5q119 0 186.5 -81.5t67.5 -213.5q0 -71 -21 -145t-67 -149t-112.5 -138.5t-164 -114.5t-213.5 -77q57 -145 156 -188q58 10 83 10q11 0 28 -5l-6 -43q-17 -5 -27 -5q-45 0 -96 19q-102 -18 -192.5 -62t-159.5 -106.5 t-124 -140.5t-90 -165t-53 -177.5t-18 -179.5q0 -94 19 -179t58.5 -158.5t97 -127.5t138.5 -85t177 -31q90 0 169.5 29.5t138.5 80.5t106.5 118t77 143.5t45 155.5t15.5 155q0 102 -25.5 182t-80 130t-130.5 50q-51 0 -95 -20.5t-76 -55.5t-55 -81.5t-34.5 -99t-11.5 -107.5 q0 -120 53 -214l-37 -20q-55 92 -55 222q0 59 12.5 116.5t38.5 108.5t62.5 90t87.5 62t110 23q91 0 156 -55.5t95.5 -144.5t30.5 -200q0 -59 -9.5 -118.5t-27.5 -119.5t-47 -116t-66 -106.5t-85.5 -92.5t-104 -72.5t-124 -47.5t-143.5 -17q-84 0 -158 23t-130.5 65 t-101.5 99t-74 126t-44 146t-15 158q0 108 25 214.5t77.5 207t127.5 182.5t182.5 142.5t234.5 85.5q-92 57 -145 191q-106 -18 -215 -18q-141 0 -258.5 26t-196 69.5t-133 101.5t-79 120t-24.5 127zM904 1408q0 -148 41 -268q93 22 173 61t138.5 88.5t103.5 107t73 118.5 t41.5 121t13.5 117q0 104 -44.5 175t-121.5 79q-6 0 -18 1t-17 1q-63 0 -118 -24t-96.5 -67t-74 -100t-53 -124.5t-31 -139.5t-10.5 -146z" />
<glyph unicode="F" horiz-adv-x="2302" d="M2 1225q0 83 17 165t51.5 160t84 148t117.5 128.5t149 101.5t182.5 66.5t212.5 23.5q138 0 283 -19t265.5 -46.5t231 -54.5t215.5 -46.5t183 -19.5q129 0 212 22q38 50 71 72t54 24l24 -33q-18 -46 -130 -85q-24 -30 -47.5 -72.5t-55 -125t-58.5 -188t-55 -269.5 t-48 -361q-4 -26 -4 -36q159 18 234 82q19 51 40.5 96.5t32.5 65.5l12 20l33 -16q0 -38 -23 -90t-77 -96q-66 -251 -66 -485h-46q0 237 78 462q-90 -56 -223 -71q-18 -155 -43 -290.5t-55.5 -245.5t-65 -203t-74.5 -165t-82.5 -130t-90 -99t-95.5 -70t-100.5 -46.5 t-103.5 -25t-106 -7.5q-91 0 -166.5 21.5t-127.5 58.5t-88 87t-52.5 105.5t-16.5 114.5q0 69 21 132.5t56.5 110.5t87 75.5t109.5 30.5l2 -46q-103 -4 -167.5 -89.5t-64.5 -208.5q0 -74 25 -139.5t73.5 -117.5t129.5 -82.5t185 -30.5q74 0 139.5 16t134 56t127.5 103 t115.5 161.5t102.5 227.5t85 305t65 389q-120 -8 -216.5 -41.5t-158 -97t-61.5 -146.5q0 -39 16 -78l-48 -18q-18 34 -18 86q0 41 11.5 77t33 65t50.5 53.5t64.5 43.5t74 34t81 25t83.5 16.5t83 9.5h9q0 15 5 41q23 208 55 380t68 291t70 198.5t71 135.5q-91 -22 -195 -22 q-92 0 -204 18t-222.5 44.5t-227 52.5t-255.5 44.5t-270 18.5q-149 0 -276.5 -43t-217 -116.5t-153 -169.5t-94 -203t-30.5 -217q0 -99 24.5 -191t75.5 -172.5t123 -140t175 -94t224 -34.5q116 0 213 29.5t164.5 80.5t114 121t68.5 149.5t22 165.5q0 62 -9 115l44 9 q11 -69 11 -124q0 -89 -23.5 -171.5t-74 -155t-123 -126t-177 -85t-228.5 -31.5q-130 0 -239 36t-186 97.5t-131 144.5t-79.5 177.5t-25.5 196.5z" />
<glyph unicode="G" horiz-adv-x="1979" d="M26 1016q0 78 20.5 152t62 137.5t99 112t135.5 76t167 27.5q109 0 199 -53l-24 -39q-83 48 -173 48q-103 0 -189.5 -40t-143.5 -106t-88.5 -151t-31.5 -175q0 -83 25 -160.5t80 -148.5t134 -124t196 -84t259 -31q92 0 162 9q-18 118 -18 234q0 127 17.5 260t52 262.5 t83 249t114.5 221t142.5 176.5t170.5 117.5t195 42.5q109 0 185.5 -53.5t112 -143t35.5 -208.5q0 -93 -22 -195t-67.5 -207.5t-109.5 -207t-152.5 -194t-192 -167t-233.5 -128t-272 -76.5q15 -98 44 -177t71 -138.5t101 -92t131 -32.5q66 0 123.5 18t100.5 51t79 75.5 t62.5 94.5t48 104t39 108.5t31.5 104t29 94t29 75.5l50 -25l-92 -216q-7 -24 -24.5 -106.5t-45.5 -232.5t-52 -301q-2 -12 -6 -38q-9 -57 -14 -88t-17 -90t-23 -94.5t-30 -87.5t-39.5 -84.5t-51 -69.5t-64.5 -57.5t-79.5 -34.5t-97.5 -14q-70 0 -125 23t-88 62t-50 87 t-17 101q0 54 17.5 105t49 92t81.5 67t109 27l5 -48q-53 -2 -96.5 -25t-71 -59t-42.5 -80t-15 -90q0 -47 14.5 -89t43.5 -76t76.5 -54t108.5 -20q58 0 107 22t83 52t62.5 85t45 98t32.5 115t22.5 111.5t17.5 110.5q4 28 6 41q29 192 74 408q-68 -124 -169.5 -199t-234.5 -75 q-65 0 -120 21.5t-98 61.5t-76.5 97t-56.5 125.5t-37 149.5q-70 -9 -164 -9q-148 0 -271 33.5t-206 90t-140.5 132t-83.5 157.5t-26 170zM941 681q0 -109 13 -208q138 22 264 75.5t225 126.5t183.5 164t144.5 190t102.5 202.5t63 203t20.5 189.5q0 84 -18 153.5t-53 121 t-89.5 80t-124.5 28.5q-95 0 -183.5 -43t-160.5 -118.5t-134.5 -177t-108.5 -221t-78.5 -249t-49 -261t-16.5 -256.5z" />
<glyph unicode="H" horiz-adv-x="2134" d="M-162 99q0 86 18 172t52.5 164.5t87.5 146t119 117.5t151.5 78t180.5 28q87 0 160.5 -34.5t122 -91.5t75.5 -130.5t27 -152.5q0 -154 -96 -272l-34 27q94 126 94 260q0 98 -46.5 183.5t-128 136.5t-176.5 51q-86 0 -163 -28t-137 -76.5t-108.5 -114t-80.5 -142t-49 -160 t-17 -167.5q0 -95 21 -181.5t65.5 -164t109.5 -134.5t160 -90.5t209 -33.5q97 0 182 21t152.5 56.5t127 94t104.5 121.5t86 153t70.5 174t59 199t50.5 213.5t46 230.5q-145 -7 -243 -61l-17 37q105 51 267 55q6 37 33.5 189.5t40.5 218.5t37.5 189.5t49 224t51.5 199.5 q-45 -31 -106 -57.5t-120.5 -42.5t-124.5 -35t-121.5 -36t-108.5 -44.5t-89 -61t-59 -85t-22 -117.5q0 -52 18.5 -94t52.5 -71t82.5 -44.5t107.5 -15.5l-9 -57q-139 10 -217.5 82t-78.5 200q0 71 27 128.5t72 96.5t106.5 71.5t127 53.5t136 42.5t132 39t117.5 42.5t90 54 l52 169l64 -16q-12 -93 -87 -165q-34 -122 -66 -272.5t-49.5 -250t-48 -283.5t-42.5 -252q33 -1 71 -3t67 -4t61.5 -3.5t58 -2.5t53.5 -1t51 1.5t47.5 4.5t47.5 8q48 278 102 489t112 355t124 234.5t135 130.5t148 40q94 0 148 -67t54 -209q0 -39 -2 -59h-53q4 32 4 86 q0 117 -43.5 171t-121.5 54q-101 0 -193.5 -103t-170.5 -317q-84 -228 -162.5 -622t-125.5 -800.5t-47 -687.5h-46q2 242 38 587.5t94 688.5q-70 -15 -146.5 -15t-168.5 7.5t-143 7.5q-23 -131 -43.5 -231t-49.5 -215.5t-60 -202t-74 -178t-91.5 -157t-113 -126 t-138.5 -97.5t-166.5 -58.5t-199.5 -21.5q-103 0 -191 24.5t-153.5 68t-116.5 102t-82.5 129.5t-47.5 148t-16 159z" />
<glyph unicode="I" horiz-adv-x="1184" d="M46 711q0 91 31 179.5t85 164.5t125 148.5t155 137.5t170 125t174 117t163.5 108t142.5 104t108 98q3 21 8 42t8 31t10 31.5t8 25.5l37 -9q-6 -51 -35 -106q-132 -552 -225.5 -1095.5t-200.5 -1333.5h-46q50 335 69 460.5t61 392.5t67.5 408t65 352.5t79 391t85.5 370.5 q-42 -45 -103 -94t-126 -93t-140 -94.5t-147 -98t-145.5 -103t-137 -110t-119.5 -119t-95.5 -130t-62.5 -143t-23 -158.5q0 -193 102.5 -308.5t275.5 -115.5q68 0 123 25.5t89.5 67.5t53.5 94t19 106q0 51 -16 96t-51 81t-84 53l18 41q84 -30 129 -101t45 -159 q0 -61 -21.5 -118.5t-61.5 -104.5t-103.5 -75.5t-139.5 -28.5q-74 0 -139 19.5t-117 57.5t-89.5 91.5t-58 124.5t-20.5 154z" />
<glyph unicode="J" horiz-adv-x="1208" d="M18 436q0 59 13.5 118t35.5 111t57.5 106t72 98.5t86.5 94t94 88t101 85.5t100.5 80t100.5 77t94 74q151 120 266.5 242t160.5 209q45 135 78 199l48 -20q-3 -12 -8 -25t-9 -22.5t-11 -22.5t-11 -20.5t-12.5 -21.5t-11.5 -19l-6 -11q-206 -686 -285 -1269 q-5 -39 -17 -131q-53 -430 -107 -652q-147 -609 -439 -609q-112 0 -182.5 67.5t-70.5 181.5q0 134 81 225.5t194 91.5l5 -50q-44 0 -86.5 -20t-76.5 -54t-55 -84.5t-21 -108.5q0 -111 57.5 -168.5t154.5 -57.5q57 0 107.5 28.5t90 75t75 117.5t61 145t49 169t39 178 t31.5 184t25 175t20.5 162t18.5 135q95 665 247 1145q-141 -178 -383 -384q-46 -38 -121 -99t-126.5 -102.5t-120 -102.5t-115 -109t-96 -111.5t-79.5 -121.5t-49 -127t-19 -139q0 -193 102.5 -309t275.5 -116q68 0 123 26t89.5 68t53.5 93.5t19 106.5q0 78 -38.5 141 t-112.5 88l15 44q86 -22 134 -96t48 -167q0 -61 -21 -118t-60.5 -104t-104 -75.5t-145.5 -28.5q-92 0 -170 30.5t-134.5 87.5t-88 141t-31.5 188z" />
<glyph unicode="K" horiz-adv-x="2093" d="M-103 99q0 104 25.5 206t77.5 192t123.5 159t171 109t212.5 40q87 0 160.5 -34.5t122 -91.5t76 -130.5t27.5 -152.5q0 -154 -97 -272l-34 27q94 126 94 260q0 98 -46.5 183.5t-127.5 136.5t-177 51q-102 0 -192 -39.5t-155.5 -106.5t-113 -155t-71 -187t-23.5 -200 q0 -95 20.5 -181.5t65.5 -164t110 -134.5t159.5 -90.5t208.5 -33.5q117 0 216 30.5t175 81.5t139.5 133.5t109.5 172t87 213t70 240t59 267.5h-58l7 40q31 0 55 -9q18 87 64 340.5t86.5 442t88.5 363.5q-45 -31 -106.5 -57.5t-120.5 -42.5t-124.5 -35t-122 -36t-109 -44.5 t-89.5 -61t-59 -85t-22 -117.5q0 -52 18.5 -94t52.5 -71t82.5 -44.5t107.5 -15.5l-9 -57q-139 10 -217.5 82t-78.5 200q0 71 27.5 128.5t72.5 96.5t106 71.5t126.5 53.5t136.5 42.5t132.5 39t117.5 42.5t89 54l53 169l63 -16q-12 -94 -86 -165q-48 -174 -87 -371.5t-80 -448 t-62 -361.5q62 15 119.5 49.5t102 74t92 107.5t78.5 118.5t73 139t63.5 139t61.5 146.5q32 78 48.5 116.5t47 106t51 103.5t51 86.5t57.5 77t60 54.5t68.5 39t74.5 11q68 0 108.5 -41t40.5 -100v-14h-44v11q0 55 -28.5 86.5t-78.5 31.5q-36 0 -69.5 -16.5t-60 -38t-57.5 -67 t-51 -80.5t-51 -102.5t-47.5 -107.5t-49.5 -121q-33 -79 -50 -120.5t-51 -118t-57.5 -120.5t-61.5 -110t-70 -106t-76.5 -89t-88 -78.5t-97 -54.5t-111.5 -36q47 -28 94.5 -86.5t88.5 -131.5t84 -159.5t86.5 -175t89.5 -175.5t99.5 -162t111 -132.5t128 -91t147.5 -33.5 q62 0 110 21t75.5 56.5t41.5 77t14 86.5l52 -2q0 -37 -9.5 -72.5t-32 -71t-55 -62t-83 -43t-111.5 -16.5q-85 0 -162.5 32.5t-139 90t-117 132t-102 161t-89 175t-83 175.5t-78.5 160.5t-81 133.5t-85 91q-22 -115 -43.5 -209t-51 -194t-61.5 -180t-74.5 -159t-91 -138.5 t-110.5 -111.5t-133 -85t-158.5 -51.5t-187.5 -18.5q-102 0 -190.5 24.5t-154 68t-116.5 102t-83 129.5t-48 148t-16 159z" />
<glyph unicode="L" horiz-adv-x="1790" d="M-99 961q0 86 23 168t68.5 153t109 124.5t149.5 84t185 30.5q119 0 211 -50l-28 -42q-65 46 -181 46q-78 0 -147 -20t-123 -55.5t-97.5 -84t-71.5 -106t-43 -122t-15 -131.5q0 -91 27 -178t86 -166.5t143.5 -139.5t208.5 -95t273 -35q197 0 369 61q38 205 62 413 q21 192 44 348.5t49.5 276.5t54.5 212t60.5 156.5t65.5 107.5t73 67.5t79 34.5t86 10q61 0 110 -31t80 -87.5t47.5 -132.5t16.5 -167q0 -105 -21.5 -220t-63.5 -234t-109 -234t-152 -215t-199 -183t-243 -133q-90 -436 -254 -661q80 -23 171.5 -58t163 -65t149 -57.5 t160 -44t164.5 -16.5q63 0 111.5 14t76 34t46 48t25 49.5t10.5 45.5l46 -11q-3 -28 -14.5 -55t-35.5 -54t-58.5 -47.5t-88 -33t-118.5 -12.5q-86 0 -173.5 15t-172 42t-158 55t-166.5 63t-162 57q-101 -126 -221.5 -179t-262.5 -53q-59 0 -102 20t-63.5 51t-20.5 69 q0 27 10.5 52.5t33.5 49t55.5 41t79.5 28t103 10.5q200 0 374 -48q160 223 246 635q-170 -57 -363 -57q-157 0 -288 36.5t-220 98.5t-151 145t-90.5 174t-28.5 188zM181 -396q0 -48 40 -81t112 -33q261 0 440 221q-177 55 -355 55q-110 0 -173.5 -50t-63.5 -112zM1092 420 q94 38 179 94.5t153.5 124t127.5 145.5t103 161.5t78.5 169.5t56 172.5t32 168t10.5 157.5q0 115 -23.5 203t-72 139.5t-116.5 51.5q-44 0 -82 -14t-77.5 -49.5t-73.5 -94t-68.5 -150.5t-63 -214.5t-55.5 -291.5t-49 -377q-20 -188 -59 -396z" />
<glyph unicode="M" horiz-adv-x="2644" d="M39 103q0 109 24.5 214.5t75 200.5t121 167t170 114.5t214.5 42.5q92 0 167 -35t122 -95t72 -135t25 -157q0 -156 -82 -284l-49 29q80 133 80 284q0 76 -23 143.5t-65.5 119t-107 81.5t-141.5 30q-105 0 -196.5 -42t-157 -114.5t-112.5 -166.5t-70 -199t-23 -211 q0 -93 17.5 -178t56 -160t93.5 -130t134.5 -87t175.5 -32q125 0 250.5 68.5t236 189t210.5 283.5t179.5 352.5t137.5 395.5q-81 488 -81 745q0 148 38 231t100 83q48 0 70 -53.5t22 -180.5q0 -358 -108 -777q10 -61 43 -269.5t48 -307t35 -252.5t30 -267q55 171 150 406 t197.5 486.5t166.5 436.5q-2 57 -2 172q0 223 14 398t44 280.5t71 105.5q29 0 46 -40.5t17 -105.5q0 -306 -149 -764q5 -153 12.5 -287.5t20.5 -270.5t30.5 -250.5t42.5 -223.5t56.5 -195t73 -158.5t91 -120.5t110.5 -74.5t132 -26.5q58 0 103.5 14.5t78 40.5t59.5 66 l34 -27q-84 -136 -259 -136q-80 0 -148 25t-122 68.5t-99 112.5t-78.5 148t-60 184.5t-45 212t-33 240.5t-23 259.5t-15.5 279.5q-65 -185 -173 -449t-198.5 -494.5t-140.5 -402.5q0 -17 2.5 -49.5t2.5 -51.5q0 -42 -3 -65l-70 2q0 30 11.5 85t24.5 81q-4 61 -11 130 t-17.5 145t-21 148t-25.5 160.5t-27 159t-28.5 167.5t-27.5 163q-59 -201 -136.5 -382.5t-177.5 -341t-211 -275.5t-242.5 -183.5t-266.5 -67.5q-101 0 -186 34t-144 93t-100.5 138.5t-61.5 170t-20 188.5zM1539 1541q0 -207 67 -635q89 366 89 702q0 120 -14 170t-53 50 q-26 0 -46 -34.5t-31.5 -100t-11.5 -152.5zM2326 1197q126 397 126 683q0 55 -11 91t-33 36q-12 0 -23 -24.5t-20 -69.5t-16 -109.5t-12 -142t-8 -169t-3 -189.5v-106z" />
<glyph unicode="N" horiz-adv-x="2283" d="M39 103q0 109 24.5 214.5t75 200.5t121 167t170 114.5t214.5 42.5q87 0 160.5 -36t122.5 -96t76 -136.5t27 -157.5q0 -161 -96 -278l-35 27q94 125 94 264q0 76 -27.5 147.5t-74.5 124.5t-112.5 85.5t-136.5 32.5q-105 0 -196.5 -42t-157 -114t-112.5 -165.5t-70 -197.5 t-23 -210q0 -93 17.5 -178.5t56 -160t93.5 -130t134.5 -87t175.5 -31.5q123 0 241.5 52.5t217.5 144.5t186.5 216t154.5 268.5t115.5 300t74.5 311.5q-77 198 -127 344.5t-86.5 302t-36.5 264.5q0 68 27 107.5t67 39.5q44 0 83 -52t68 -144t46 -228t17 -294q0 -113 -23 -289 q10 -26 53.5 -137.5t58 -150.5t51.5 -135t55.5 -149t46 -131t47 -142t36.5 -124q16 319 59 609.5t107.5 530t151 434t188 328t219.5 205.5t244 72q112 0 194.5 -47.5t105.5 -109.5l-41 -22q-20 65 -96.5 103.5t-183.5 38.5q-115 0 -225.5 -72.5t-208.5 -206.5t-183 -333.5 t-148.5 -443t-104.5 -544.5t-52 -631l16 -76q6 -35 13.5 -109.5t7.5 -113.5v-11h-67q-5 56 -5 94q0 64 5 147v24q-17 78 -44 168.5t-70 208t-72 193t-90 228.5t-84 211q-25 -129 -63 -256.5t-92.5 -254t-119.5 -238.5t-147 -209t-173 -166.5t-199.5 -109.5t-223.5 -40 q-101 0 -186 34t-144 93t-100.5 138.5t-61.5 170t-20 188.5zM1333 1711q0 -126 60 -324t172 -488q15 138 15 228q0 195 -26 358.5t-69 254t-91 90.5q-61 0 -61 -119z" />
<glyph unicode="O" horiz-adv-x="2559" d="M68 961q0 86 23 168t69 153t109.5 124.5t149.5 84t185 30.5q64 0 110 -13t98 -44l-28 -39q-73 50 -178 50q-93 0 -173.5 -28t-139.5 -77.5t-101 -115t-63 -141.5t-21 -157q0 -91 27 -178t86 -166.5t144 -139.5t209 -95t273 -35q56 0 84 2q1 158 23.5 327t65 332.5 t100.5 316t134.5 281t162.5 224.5t188 150t207 54q106 0 179.5 -54t108 -145t34.5 -213q0 -90 -20 -189.5t-57.5 -202.5t-95.5 -205.5t-130 -197.5t-165.5 -179t-198 -149.5t-231.5 -109.5t-262 -58q0 -141 16.5 -263.5t53 -229t90.5 -181.5t134 -118.5t179 -43.5 q102 0 199.5 44.5t179.5 123.5t156.5 187t132.5 236t105 270t78 289t47.5 293t16.5 282q0 172 -25 311.5t-80.5 244t-137.5 149.5l15 28q69 -33 122.5 -103.5t87 -169t50 -217t16.5 -254.5q0 -138 -17 -286t-49.5 -296t-81.5 -291t-110 -271t-139 -236.5t-164 -187.5 t-189 -123.5t-211 -44.5q-107 0 -193.5 44t-146 121.5t-100 185.5t-59.5 233.5t-19 268.5q-28 -2 -84 -2q-157 0 -288 36.5t-220.5 98.5t-151.5 145t-90.5 174t-28.5 188zM974 348q151 17 289.5 71t248.5 134t204 181.5t161 213.5t114.5 229t70.5 229.5t23 213.5 q0 114 -29 200t-91.5 136.5t-152.5 50.5q-98 0 -193.5 -53.5t-176.5 -148t-153.5 -221.5t-128 -277t-97 -311t-64 -326.5t-25.5 -321.5z" />
<glyph unicode="P" horiz-adv-x="1889" d="M76 1151q0 90 17.5 178.5t55 175.5t91.5 164.5t130.5 143.5t169 114t211 75t251.5 27q170 0 311.5 -44t239.5 -119t166.5 -176.5t100 -215t31.5 -235.5q0 -117 -29 -230t-88 -214.5t-142 -181.5t-197.5 -133t-247.5 -67q-28 -161 -62 -292.5t-72 -229t-83 -171.5 t-91.5 -122t-100.5 -78t-108 -42t-116 -12q-96 0 -175 33t-128 88t-75 123.5t-26 142.5q0 92 35.5 172.5t99 130t140.5 52.5v-43q-61 -3 -114.5 -45.5t-85.5 -113t-32 -148.5q0 -73 24 -139t69 -118t116 -82.5t159 -30.5q62 0 115.5 17t109 58.5t103 108t93 170t83 240 t71 322t58.5 412.5q68 611 206 909l56 -20q-156 -330 -214 -889q-24 -208 -51 -380q124 15 230 67.5t182.5 130t131.5 175t81.5 206t26.5 219.5q0 99 -21.5 193t-64 180.5t-110 159t-154 126.5t-202 84t-249.5 30q-126 0 -239 -26.5t-200.5 -74t-160.5 -112.5t-124.5 -141.5 t-87 -161.5t-52 -172t-16.5 -174q0 -93 19 -178.5t57 -158t91.5 -126.5t127.5 -84.5t161 -30.5q83 0 153 30t117.5 80.5t81 116.5t48.5 136.5t15 142.5q0 101 -29.5 182.5t-85.5 118.5l28 34q64 -42 98.5 -130.5t34.5 -196.5q0 -64 -12 -127t-36.5 -123.5t-63.5 -112.5 t-89 -91t-117.5 -61.5t-144.5 -22.5q-68 0 -129.5 17t-111.5 47.5t-92 73.5t-72.5 96t-52 113.5t-32 126t-10.5 134.5z" />
<glyph unicode="Q" horiz-adv-x="1611" d="M46 860q0 89 11.5 180.5t35.5 182t58 177t81 167t103.5 150.5t127 127.5t148.5 98.5t171 63.5t192 22.5q124 0 224 -37t170 -103t117 -159t69 -203.5t22 -237.5q0 -157 -33.5 -330t-95 -344.5t-153.5 -338t-203.5 -309t-250.5 -259.5t-289 -187q106 -28 324 -92 t371.5 -107t343.5 -79.5t323 -36.5q75 0 137 14t103.5 39t71.5 56t47 68t24.5 72t8.5 72h44v-15q0 -44 -9.5 -84.5t-29.5 -80t-54.5 -72t-81.5 -57.5t-114 -38.5t-149 -13.5q-106 0 -255.5 28.5t-306 73t-306 90t-296.5 88t-235 59.5l-12 -8q-53 -22 -115 -22q-28 0 -39 2 l9 74q5 0 14.5 1t13.5 1q48 0 112 -19q152 65 293 179t252.5 255.5t204 308t154.5 339t95.5 346.5t33.5 332q0 122 -20.5 228.5t-64 196.5t-107.5 153.5t-156 99t-206 35.5q-106 0 -204 -28.5t-178.5 -79t-151 -121t-125 -155t-97 -179t-70.5 -195t-42 -202t-14 -200.5 q0 -93 12.5 -178t37 -161t63 -137.5t88 -106.5t114 -69.5t138.5 -24.5q76 0 145 27.5t121.5 75.5t95.5 111.5t70.5 136.5t42.5 150.5t15 153.5q0 97 -22.5 178t-71.5 143t-120 86l26 48q74 -31 126 -98.5t76 -154t24 -187.5q0 -97 -22.5 -195.5t-67.5 -187.5t-107 -158.5 t-147.5 -110.5t-183.5 -41q-82 0 -153 26t-125 73.5t-96.5 113t-69.5 145.5t-41 169.5t-14 185.5z" />
<glyph unicode="R" horiz-adv-x="1845" d="M76 1151q0 90 17.5 178.5t55 175.5t91.5 164.5t130.5 143.5t169 114t211 75t251.5 27q169 0 309 -43t237 -117t164.5 -174.5t98.5 -212.5t31 -232q0 -115 -28.5 -226.5t-87 -212.5t-140 -181.5t-194 -134.5t-243.5 -71q47 -33 93.5 -98.5t86 -145.5t80.5 -175t82 -191.5 t85 -190.5t95 -175.5t106.5 -143.5t125 -98t145.5 -36q63 0 110.5 21t75.5 56t41.5 76.5t13.5 87.5l51 -2q-1 -33 -8.5 -63.5t-21.5 -61t-37 -56t-53.5 -45t-74 -30.5t-94.5 -11q-55 0 -107 16t-94.5 39.5t-86 68t-75.5 82.5t-70 103t-61.5 109t-58 121.5t-52 120 t-50.5 123.5q-55 134 -84.5 201.5t-76.5 149.5t-90 120q-29 -158 -63 -287.5t-72 -225.5t-83 -168.5t-91 -119.5t-100 -76t-107 -41t-115 -12q-96 0 -175 33t-128 88t-75 123.5t-26 142.5q0 68 22 133.5t58.5 114t86 80t102.5 35.5l6 -51q-46 -1 -89 -27t-74 -67.5 t-50 -97.5t-19 -115q0 -73 24 -139t69 -118t116 -82.5t159 -30.5q75 0 138.5 25t128.5 89.5t119 168t103.5 267.5t88.5 382h-5q-46 0 -66 2l5 42q22 0 70 -15q27 166 51 367q68 611 206 909l56 -20q-158 -345 -214 -889q-15 -149 -51 -367q98 12 186.5 51.5t158 99 t125.5 135.5t93 162.5t57 180.5t20 188q0 95 -20.5 185t-61 173.5t-106.5 153t-151 121t-200 80t-250 28.5q-128 0 -241.5 -26.5t-202 -73.5t-162 -112t-124.5 -141t-86.5 -160.5t-52.5 -171t-17 -173.5q0 -92 19.5 -178t58.5 -159.5t93.5 -128t129 -85.5t161.5 -31 q69 0 130 21t105.5 58.5t79.5 87t56.5 107t32.5 117t11 118.5q0 101 -29.5 181t-85.5 117l33 34q62 -35 96.5 -122t34.5 -196q0 -77 -17 -153t-54.5 -147.5t-90.5 -126t-132 -87.5t-172 -33q-68 0 -129.5 17t-111.5 47.5t-92 73.5t-72.5 96t-52 113.5t-32 126t-10.5 134.5z " />
<glyph unicode="S" horiz-adv-x="2228" d="M41 457q0 55 18.5 105.5t51.5 90t83.5 62.5t110.5 23q62 0 100.5 -24t73.5 -72l-32 -25q-55 87 -142 87q-70 0 -123 -36t-79.5 -93.5t-26.5 -125.5q0 -50 15.5 -98t50 -93t84.5 -78.5t125 -54t165 -20.5h44q-4 65 -4 99q0 117 22.5 234.5t64.5 226.5t107 203.5t145 164.5 t184 110.5t219 40.5q92 0 166 -39t122.5 -106.5t76.5 -154.5t35 -188q174 180 309 375q2 109 6.5 203.5t14 194t23 179.5t34 152.5t47.5 121t63.5 77t80.5 28.5q18 0 29 -2q85 -16 85 -145q0 -29 -4.5 -62.5t-13.5 -71t-22.5 -78.5t-31 -85.5t-38.5 -91t-46.5 -95t-54 -98.5 t-61 -101.5t-67.5 -102.5q-3 -80 -3 -243q0 -136 -13 -265.5t-39.5 -253t-68 -234.5t-96 -207.5t-125.5 -174t-154 -133t-185 -85.5t-216 -30q-107 0 -198.5 32t-157.5 88.5t-115.5 135t-78 169t-39.5 192.5h-37q-99 0 -181 22t-137 58t-93 84.5t-55.5 100.5t-17.5 107z M610 206q0 -31 5 -96q144 12 287.5 58t275 120.5t250.5 165.5t231 202q-1 68 -12 131t-30.5 119.5t-50 102.5t-69.5 80t-90.5 52.5t-110.5 18.5q-106 0 -202 -39t-170 -107t-134 -160t-99 -198.5t-60 -221t-21 -228.5zM615 87q7 -69 23 -133.5t40.5 -124t57.5 -110t76 -92.5 t94 -71t114 -45t134 -16q136 0 256 50t212.5 140t165.5 214.5t120.5 275t72 320t24.5 349.5v186q-145 -200 -307 -362v-44q0 -127 -29 -251t-88.5 -234t-142.5 -180l-35 34q119 104 186.5 278t69.5 357q-115 -111 -235 -201.5t-251.5 -163.5t-273.5 -118.5t-284 -57.5z M2053 1138q145 219 228 420t83 320q0 105 -64 118q-3 0 -8.5 1t-8.5 1q-55 0 -97.5 -68t-69 -190.5t-42 -271t-21.5 -330.5z" />
<glyph unicode="T" horiz-adv-x="2164" d="M0 1225q0 83 17 165t51.5 160t83.5 148t117.5 128.5t149.5 101.5t182 66.5t213 23.5q137 0 282.5 -19t265.5 -46.5t231 -54.5t216 -46.5t182 -19.5q130 0 213 22q62 78 116 94l29 -42q-26 -42 -129 -74q-24 -30 -47.5 -73.5t-54.5 -126.5t-57.5 -188t-54 -268.5 t-47.5 -359.5q-25 -232 -63.5 -423t-86.5 -329.5t-108.5 -243.5t-124 -171.5t-139 -108.5t-148.5 -58t-156 -16q-90 0 -166 21.5t-127.5 58.5t-87.5 87t-52.5 105.5t-16.5 114.5q0 92 36.5 173.5t99 130.5t135.5 49l5 -41q-62 -1 -117 -44t-87.5 -114t-32.5 -149 q0 -74 26 -139.5t75.5 -117.5t131 -82.5t185.5 -30.5q76 0 143 16.5t137 58.5t129.5 108t117 170t103.5 240t84.5 322.5t62.5 412.5q79 715 265 1005q-92 -22 -195 -22q-92 0 -204 18t-222.5 44.5t-227 52.5t-255.5 44.5t-270 18.5q-149 0 -276.5 -43t-217 -116.5 t-153 -169.5t-94 -203t-30.5 -217q0 -99 24.5 -191t75 -172.5t123 -140t175 -94t224 -34.5t218.5 32.5t159.5 86.5t104 128t59 152t17.5 163q0 52 -6 101l55 4q7 -60 7 -100q0 -75 -15.5 -146t-47 -137.5t-82.5 -121.5t-117.5 -96.5t-156 -65t-193.5 -23.5q-130 0 -239.5 36 t-186 97.5t-130.5 144.5t-79.5 177.5t-25.5 196.5z" />
<glyph unicode="U" horiz-adv-x="2281" d="M71 1221q0 97 24 194t70 187t117.5 167.5t161 135t207 90t248.5 32.5q142 0 267.5 -56t212.5 -150.5t137.5 -220.5t50.5 -263q0 -100 -20 -235.5t-50.5 -267t-65.5 -280t-65 -276t-50 -255.5t-20 -218q0 -73 9 -128.5t30 -98.5t57 -65.5t88 -22.5q66 0 138.5 76 t133 190.5t116.5 254.5t94.5 264.5t60.5 224.5q66 422 156.5 847t178.5 686l62 -26l-87 -230q-23 -58 -44 -136t-52 -230t-70 -378q-12 -71 -49.5 -279t-55 -316t-35.5 -263.5t-18 -266.5q0 -213 56 -316.5t158 -103.5q107 0 186.5 109t107.5 335l41 -8q-71 -458 -330 -458 q-64 0 -111.5 24.5t-82.5 78t-53 144t-18 216.5t28 360q-33 -117 -75 -229.5t-94 -221t-107 -190t-116.5 -131t-118.5 -49.5q-117 0 -173.5 85.5t-56.5 247.5q0 90 20 221t50 264t65.5 285.5t65.5 285t50 262.5t20 218q0 102 -29 200.5t-84.5 182.5t-131 148t-174.5 100.5 t-209 36.5q-127 0 -238.5 -31.5t-196.5 -86.5t-152.5 -129t-110 -161t-65 -180t-22.5 -187q0 -99 23.5 -189.5t73 -170t120.5 -138t172 -92.5t221 -34q85 0 159 21t130 57t101 86t75.5 106.5t51 120.5t29.5 126t9 125q0 29 -4 80l40 9q3 -22 3 -68q0 -65 -10 -131 t-32.5 -134t-55 -129.5t-81 -115t-107.5 -92.5t-137.5 -62t-168.5 -23q-128 0 -236 35t-183 95t-128 141.5t-77.5 174t-24.5 193.5z" />
<glyph unicode="V" horiz-adv-x="2242" d="M16 1051q0 114 31.5 224t97 208.5t157.5 173t222.5 118.5t283.5 44q134 0 248 -41t202.5 -117.5t158.5 -188t119 -248.5t81 -304.5t47 -351t15 -391.5q0 -273 -29 -628q75 370 173 703.5t211.5 610t243 500t266 376.5t281.5 235.5t287 82.5q114 0 193.5 -44.5 t107.5 -112.5l-41 -22q-19 50 -56.5 82t-91 46t-125.5 14q-134 0 -272 -81.5t-270.5 -234t-261 -377t-242.5 -504t-215 -623t-179 -725.5l-48 6q17 350 17 627q0 221 -12.5 410.5t-41 363.5t-73 313t-110 253t-150.5 190t-196 117t-244 41q-145 0 -269 -42t-211 -113.5 t-148.5 -166t-90.5 -200t-29 -214.5q0 -85 18 -166.5t53 -155.5t90 -136.5t125 -108t161 -71.5t196 -26q83 0 156 21t127 57t97.5 85t72.5 103.5t48.5 115t28 117.5t8.5 112q0 58 -11 112l46 10q9 -61 9 -104q0 -57 -8.5 -116t-28.5 -123.5t-50.5 -123t-77 -111.5t-105 -92 t-138.5 -62t-172 -23q-133 0 -246 37t-192.5 101.5t-135 150.5t-82 184t-26.5 204z" />
<glyph unicode="W" horiz-adv-x="2903" d="M71 1051q0 114 31.5 224t97 208.5t157.5 173t222.5 118.5t282.5 44q253 0 444.5 -157t287.5 -434q48 -140 64 -385t16 -576q0 -55 -0.5 -122.5t-1 -131.5t-0.5 -109q0 -173 6.5 -267.5t23.5 -113.5q13 59 21 97t44 199t69 298t82.5 340t99.5 382t106 367t115 353t114 286 l39 -10q-38 -346 -63.5 -610.5t-48.5 -600t-23 -565.5q0 -450 83 -545q183 903 295 1320q179 663 382 949q194 274 449 274q192 0 301 -157l-42 -22q-41 69 -117 105.5t-163 36.5q-257 0 -451 -312q-187 -301 -364 -989q-103 -404 -275 -1240h-39q-103 71 -103 589 q0 342 41 806.5t101 921.5q-77 -169 -172 -469t-173 -600.5t-148 -593t-107.5 -462.5t-40.5 -192h-33q-27 26 -40 138.5t-13.5 267t-1 346.5t-2.5 370t-18.5 346t-47.5 266q-90 276 -273 429.5t-429 153.5q-146 0 -269.5 -42t-210.5 -113.5t-148.5 -166t-90.5 -200 t-29 -214.5q0 -73 13 -143.5t39.5 -136t65.5 -123.5t92.5 -106t117.5 -82t144.5 -53.5t169.5 -19.5q84 0 156 20.5t125.5 56t96.5 84.5t71.5 105t47.5 119.5t27 125t8 123.5q0 28 -4 89l41 10q3 -26 3 -78q0 -65 -9 -130t-29.5 -132.5t-51 -127.5t-77 -113t-103.5 -91.5 t-134 -60.5t-165 -22q-134 0 -246.5 37t-192 101.5t-135 150.5t-82 184t-26.5 204z" />
<glyph unicode="X" horiz-adv-x="2215" d="M66 206q0 89 15 176.5t45 170.5t73.5 157t104 136t132.5 107t162.5 70t191.5 25q82 0 154 -27t124.5 -74t90.5 -109t56.5 -134.5t18.5 -147.5q0 -117 -45.5 -227t-135.5 -191l-33 27q91 89 136.5 196t45.5 217q0 89 -29.5 171t-82.5 144.5t-132 99.5t-172 37 q-107 0 -202 -33.5t-167.5 -92t-130 -138t-94.5 -172t-56.5 -192t-19.5 -200.5q0 -91 16 -177t46 -164.5t78 -143.5t109 -113t142 -74.5t174 -26.5q118 0 224.5 36.5t190 94t163.5 153.5t139 190t122.5 229.5t107 245t99.5 261.5l-4 42q-19 117 -31 189t-31.5 181 t-36.5 178.5t-41 162t-48.5 152t-56.5 128.5t-68.5 110.5t-79.5 79t-94.5 54.5t-108.5 17q-93 0 -166 -29t-117 -77.5t-66.5 -108.5t-22.5 -127t23 -130t64.5 -113.5t106 -81.5t141.5 -31l-5 -52q-85 0 -156 33t-115.5 87.5t-69 123.5t-24.5 143q0 59 15.5 114t48 104.5 t79.5 86.5t114 58.5t147 21.5q87 0 161 -36t130 -94.5t105 -153.5t83 -189.5t66.5 -228.5t53.5 -244.5t45 -261.5q5 14 15 41q48 132 72.5 199t71.5 187t78 184.5t81 160.5t91 148.5t98 116t113 95.5t124.5 54t141.5 22q114 0 199.5 -48.5t105.5 -113.5l-46 -16 q-19 65 -95.5 104t-184.5 39q-68 0 -132 -21.5t-116 -52t-105.5 -91.5t-92.5 -111t-86.5 -142.5t-76.5 -154.5t-74.5 -178t-69 -180.5t-69.5 -193.5q-24 -66 -36 -98q68 -421 118 -610q102 -390 280 -547q141 -124 344 -124q85 0 149.5 28.5t105 82t56.5 130.5l50 -7 q-29 -123 -117 -191.5t-242 -68.5q-90 0 -169 21.5t-141 57.5t-116 95t-94.5 121.5t-76.5 150t-61.5 167t-49.5 186t-40 194.5t-35 204q-54 -146 -99.5 -256.5t-108.5 -240t-124 -223t-142 -185.5t-167.5 -149t-194.5 -92.5t-228 -35.5q-118 0 -218 40t-170.5 109 t-120.5 161.5t-73.5 198t-23.5 218.5z" />
<glyph unicode="Y" horiz-adv-x="2274" d="M9 1221q0 97 24 194t70 187t118 167.5t161.5 135t206.5 90t249 32.5q142 0 267 -56t212 -150.5t137 -220.5t50 -263q0 -90 -11.5 -181.5t-28.5 -165.5t-36.5 -157.5t-37 -157.5t-28.5 -166.5t-11 -182.5q0 -74 9 -129.5t30 -98t57 -65t87 -22.5q64 0 131 67t121.5 168.5 t105.5 231t86 245.5t59 220q67 374 148 664t139 422l50 -24q-91 -191 -187 -557t-162 -861q-5 -39 -17 -131q-12 -96 -19 -149.5t-22.5 -158t-29 -170.5t-34.5 -164.5t-44 -163t-53 -143.5t-66 -129t-77.5 -95.5t-92.5 -66.5t-108 -21q-112 0 -183 67.5t-71 181.5 q0 65 24.5 123.5t63.5 99t88.5 64.5t99.5 26l4 -46q-43 0 -86 -20t-76.5 -54t-54.5 -84.5t-21 -108.5q0 -111 57.5 -168.5t154.5 -57.5q77 0 143 52.5t112.5 137.5t86 203t64.5 238t47 254t34.5 241t25 208t21.5 146q-33 -108 -70.5 -206t-84 -191.5t-94.5 -161.5 t-103.5 -109t-109.5 -41q-116 0 -172.5 85.5t-56.5 246.5q0 106 16 215t38.5 202.5t45.5 186.5t38.5 200.5t15.5 211.5q0 85 -20.5 168t-58.5 157t-94.5 137t-125 108.5t-153.5 71.5t-177 26q-126 0 -237.5 -31.5t-196.5 -86.5t-152.5 -129t-110 -161t-65 -180t-22.5 -187 q0 -99 23.5 -189.5t73 -170t120.5 -138t172 -92.5t221 -34q67 0 127 12.5t108.5 35.5t90.5 55.5t74 71t58 83.5t44 92t30 97t17.5 98.5t5.5 96.5q0 29 -5 80l42 9q2 -22 2 -68q0 -65 -10 -131t-32 -134t-54.5 -129.5t-81 -115t-108 -92.5t-138 -62t-167.5 -23 q-108 0 -201 24.5t-163.5 68t-125.5 103t-89.5 131t-52.5 150t-18 162.5z" />
<glyph unicode="Z" horiz-adv-x="1499" d="M252 1206q0 83 14.5 166.5t44.5 164.5t73.5 154t104 135t132 107t162.5 70.5t191 25.5q95 0 178.5 -23t148.5 -65.5t116 -101.5t84 -130.5t50.5 -154t17.5 -171.5q0 -117 -29 -237.5t-90.5 -242t-150 -230.5t-215 -207t-276.5 -168q83 -25 146.5 -73.5t101.5 -112 t56.5 -136.5t18.5 -153q0 -113 -34 -226t-91 -202t-139 -144.5t-171 -55.5q-79 0 -135.5 39t-83 101.5t-26.5 141.5t27.5 157.5t86.5 149.5t139 113l27 -44q-79 -44 -135 -111.5t-82 -139t-26 -143.5q0 -104 54.5 -172.5t153.5 -68.5q79 0 153 55t125 142.5t81 197.5t30 219 q0 82 -18.5 155t-55.5 134.5t-100.5 102.5t-146.5 54q-14 -3 -60 -19t-78 -16q-4 0 -13 1t-14 1l16 79h9q66 0 133 -15q152 66 279 161t215.5 203t150 229t90.5 241.5t29 237.5q0 103 -22.5 197t-68.5 172t-110.5 135.5t-153 89.5t-192.5 32q-109 0 -205.5 -34t-169.5 -94 t-131 -139t-95 -170t-56 -187t-19 -190q0 -146 41 -262.5t123.5 -186.5t193.5 -70q41 0 77.5 10t66 28t54.5 43t44 55.5t33 64.5t23 71.5t13.5 75.5t4.5 77q0 98 -39.5 178t-111.5 115l30 46q84 -46 125.5 -137.5t41.5 -204.5q0 -64 -14 -127.5t-44 -120.5t-72 -101 t-102 -69.5t-130 -25.5q-94 0 -171.5 43.5t-128 118.5t-77.5 176t-27 216z" />
<glyph unicode="[" horiz-adv-x="418" d="M7 -230q13 78 35 201t69 393t70 409l167 1007q81 -18 168 -18q115 0 182 27l11 -38q-30 -22 -131 -22q-59 0 -120 7.5t-93 16.5q-8 -66 -31 -208.5t-42 -255t-52 -298.5t-38 -218q-14 -77 -50 -299t-67.5 -404.5t-49.5 -266.5q74 20 178 20q96 0 152 -20l-14 -42 q-69 28 -170 28q-85 0 -174 -19z" />
<glyph unicode="\" horiz-adv-x="302" d="M96 1229q0 210 14 423h32q-44 -784 83 -1709h-30q-32 243 -53 446t-33.5 416.5t-12.5 423.5z" />
<glyph unicode="]" horiz-adv-x="375" d="M-372 -199q26 20 131 20q39 0 82 -3.5t77 -8.5t54 -11q8 67 30.5 208.5t42.5 255.5t52 296.5t39 218.5q13 77 49 299.5t67.5 405t49.5 266.5q-87 -23 -180 -23q-84 0 -150 23l15 41q58 -27 169 -27q87 0 174 18q-122 -691 -174 -1003l-167 -1007q-86 19 -168 19 q-103 0 -182 -28z" />
<glyph unicode="^" horiz-adv-x="449" d="M37 1138q127 108 219 234h33q10 -18 27.5 -49t25.5 -46t21 -38t20 -36t15 -28.5t13 -27t9 -20.5l-35 -13q-45 101 -124 219q-50 -57 -102.5 -110.5t-80.5 -78.5l-28 -25z" />
<glyph unicode="_" horiz-adv-x="361" d="M-30 -83l4 28h411l-4 -28h-411z" />
<glyph unicode="`" horiz-adv-x="398" d="M108 1376l32 18q37 -65 77 -122t59.5 -80t49.5 -56l-11 -17q-4 3 -11 9t-29.5 28.5t-45.5 49.5t-56.5 73t-64.5 97z" />
<glyph unicode="a" horiz-adv-x="729" d="M-41 243q0 119 28.5 260.5t75 263.5t114 204t135.5 82q36 0 62 -16.5t41 -46t22.5 -63.5t9.5 -76l39 195h46q-9 -49 -27.5 -147t-29 -154.5t-26 -142.5t-24.5 -143.5t-18 -123t-13 -115.5t-4 -89q0 -113 39 -113q24 0 50.5 25.5t53 68.5t60 114.5t64.5 147.5t72 184 q7 0 13 -4t6 -11v-4q-33 -88 -56.5 -147t-50 -122t-46.5 -102.5t-42.5 -77t-42.5 -57.5t-41.5 -32t-44.5 -12q-73 0 -73 169q0 99 25 275q-143 -444 -298 -444q-61 0 -90 68.5t-29 185.5zM-4 221q0 -98 22.5 -154t68.5 -56q51 0 112.5 91t110 217.5t81.5 264t33 226.5 q0 104 -29.5 164.5t-85.5 60.5t-114.5 -85.5t-101 -210t-70 -266t-27.5 -252.5z" />
<glyph unicode="b" horiz-adv-x="731" d="M-4 424q0 197 33.5 443.5t83.5 451.5t111 345.5t111 140.5q10 0 18 -3.5t14.5 -11t11 -18.5t7 -26t2.5 -32q0 -229 -338 -1108q-9 -102 -9 -216q0 -86 8 -153t25 -118.5t45 -79.5t67 -28q58 0 111.5 63.5t96.5 170.5q-69 6 -121 39t-82 85.5t-45 114.5t-15 133 q0 105 29 205.5t81 165.5t112 65q62 0 104 -44.5t60.5 -116t18.5 -165.5q0 -110 -24 -231.5t-67 -226.5q86 8 161 82t125 207q8 0 13.5 -4t5.5 -11v-4q-50 -134 -132 -211.5t-182 -82.5q-51 -117 -118 -186.5t-141 -69.5q-49 0 -84.5 32t-56.5 91.5t-30.5 137t-9.5 174.5z M57 700q46 120 89.5 240t97 281.5t86.5 297t33 208.5q0 30 -7 43.5t-23 13.5q-38 0 -94 -167t-106.5 -421.5t-75.5 -495.5zM170 606q0 -66 12.5 -122.5t39 -104.5t73 -77t108.5 -33q40 110 64 236t24 236q0 86 -14.5 150t-46.5 104t-79 40q-45 0 -87.5 -64t-68 -164 t-25.5 -201z" />
<glyph unicode="c" horiz-adv-x="561" d="M-20 337q0 115 25.5 242t67 232t101.5 173.5t122 68.5q63 0 97 -58t34 -148q0 -77 -23.5 -159.5t-68.5 -151.5l-42 28q51 78 76 156.5t25 146.5q0 49 -12 87t-35 59.5t-54 21.5q-66 0 -130 -111t-102.5 -273t-38.5 -312q0 -55 6 -102.5t19.5 -89t33.5 -71t49.5 -46.5 t66.5 -19q26 2 49 10.5t43 21.5t41 36.5t38 47t37 61.5t36 72t38 87.5t39.5 98t43.5 112.5q7 0 12.5 -4t5.5 -11v-4q-1 -4 -4 -11q-26 -67 -38.5 -99.5t-35 -88t-35.5 -81.5t-34 -68.5t-36 -62t-36.5 -48t-40.5 -41t-43 -26.5t-49.5 -19t-55.5 -5q-50 0 -87.5 27t-60 75 t-33.5 110t-11 136z" />
<glyph unicode="d" horiz-adv-x="742" d="M-41 243q0 119 28.5 260.5t75 263.5t114 204t135.5 82q61 0 94.5 -44.5t44.5 -118.5q54 315 173 915h37q-12 -64 -37 -198t-48.5 -257.5t-51.5 -278t-51 -287.5t-43 -257t-31 -216t-11 -136q0 -157 54 -157q30 0 63 36t72 112t77 166t90 226q7 0 13.5 -4.5t6.5 -12.5v-5 q-39 -101 -66 -169t-57 -135t-53.5 -108t-49 -74t-50 -47t-50.5 -14q-90 0 -90 186q0 63 31 284q-19 -60 -36 -108.5t-37.5 -98.5t-39.5 -88t-41.5 -72t-45 -56t-48.5 -34.5t-53 -12.5q-61 0 -90 68.5t-29 185.5zM-4 221q0 -98 22.5 -154t68.5 -56q49 0 107.5 86.5 t111.5 221.5t97 298l21 114q5 45 5 74q0 62 -11.5 112t-39.5 84t-69 34q-56 0 -114.5 -85.5t-101 -210t-70 -266t-27.5 -252.5z" />
<glyph unicode="e" horiz-adv-x="558" d="M-22 342q0 116 27 243t71.5 231.5t107.5 172.5t128 68q45 0 68 -26t23 -70q0 -43 -22 -95.5t-64 -107.5t-111.5 -110t-155.5 -97l-6 -6q-24 -137 -24 -228q0 -90 16.5 -156.5t56.5 -108t100 -41.5q25 0 51.5 12.5t49 31t47 51.5t43 61.5t41 73.5t37 75.5t35 80t30.5 75 t27 70.5q1 3 2 5t2 5l2 6q7 0 12.5 -4t5.5 -11v-4q-4 -10 -11 -30q-16 -44 -25.5 -69t-29 -73t-34 -78.5t-37 -74.5t-42 -72t-45.5 -60t-51 -50.5t-55 -30.5t-60 -12q-55 0 -96.5 27t-66 76.5t-36 111.5t-11.5 138zM50 578q79 47 141 102.5t98 107t55 97t19 80.5 q0 32 -14 50t-40 18q-50 0 -101.5 -65.5t-91.5 -167t-66 -222.5z" />
<glyph unicode="f" horiz-adv-x="368" d="M-94 -296q0 235 60.5 644t141.5 776t144 537q25 68 58.5 106t61.5 38q16 0 28 -10.5t18 -31t6 -49.5q0 -84 -49 -263.5t-124 -388t-126 -342.5t-90 -232q-38 -243 -53 -369q19 7 44 22t60.5 40t73 61.5t75.5 81t73.5 105.5t61.5 129q7 0 12.5 -4t5.5 -11v-4 q-27 -69 -67 -133.5t-81.5 -113t-86.5 -88t-83 -64.5t-70 -37q96 -63 142 -157.5t46 -197.5q0 -113 -48.5 -196.5t-117.5 -83.5q-25 0 -45 10.5t-36.5 36t-25.5 73t-9 116.5zM-59 -312q0 -92 19 -145t56 -53q20 0 40 13.5t37 38t30 57t20.5 72.5t7.5 81q0 97 -41.5 187.5 t-131.5 154.5q-3 -19 -9.5 -75t-9 -78t-7 -67t-6.5 -70.5t-3.5 -58t-1.5 -57.5zM57 617q32 80 69 176.5t87.5 240t90 268t67.5 243t28 182.5q0 30 -6.5 43.5t-22.5 13.5q-29 0 -66 -91.5t-78.5 -256t-83 -368.5t-85.5 -451z" />
<glyph unicode="g" horiz-adv-x="698" d="M-41 243q0 119 28.5 260.5t75 263.5t114 204t135.5 82q61 0 94.5 -45.5t42.5 -119.5l33 158h50q-29 -113 -195 -1053q116 127 206 259t157 306h4q6 0 10 -4t4 -11v-4q-38 -99 -84.5 -186.5t-99.5 -160.5t-98 -125.5t-103 -114.5l-88 -488q-13 -75 -53 -118.5t-93 -43.5 q-28 0 -50.5 18t-35.5 51t-13 76q0 39 8.5 78t20 71t35 70.5t41.5 64.5t52 65.5t54 61.5t60 64q8 8 11 12q17 93 88 506q-26 -82 -49 -144.5t-51.5 -122.5t-57 -98.5t-63 -62t-71.5 -23.5q-61 0 -90 68.5t-29 185.5zM-4 221q0 -98 22.5 -154t68.5 -56q50 0 109 89.5t111 228 t96 306.5l19 94q5 52 5 76q0 62 -11.5 112t-38.5 84t-68 34q-56 0 -114.5 -85.5t-101 -210t-70 -266t-27.5 -252.5zM30 -558q0 -58 20 -87t53 -29q24 0 43.5 17t33.5 48.5t22 76.5l74 424q-54 -57 -86.5 -95t-69 -89.5t-57 -103t-28.5 -107.5q-5 -20 -5 -55z" />
<glyph unicode="h" horiz-adv-x="712" d="M-87 0q15 114 46 241q2 20 8 64q18 139 28.5 219t33 235.5t40.5 255t43.5 235.5t51 222.5t54.5 169.5t61.5 123t66.5 40q25 0 39 -23.5t14 -67.5q0 -82 -44 -249t-113.5 -366t-114.5 -320t-88 -231q-22 -143 -26 -172q33 97 67.5 186.5t77.5 181t84.5 158t87 109 t86.5 42.5q44 0 72 -40t28 -105q0 -57 -27 -167t-59 -214t-59 -217.5t-27 -176.5q0 -33 6.5 -59t20.5 -41t34 -15q29 0 67 46t79.5 126t81.5 171t80 197q8 0 13 -4t5 -11v-4q-29 -77 -52 -133t-53.5 -125t-56.5 -116.5t-55 -90t-57.5 -64t-55.5 -21.5q-103 0 -103 147 q0 59 27.5 176.5t60 227t60 217.5t27.5 151q0 120 -70 120q-37 0 -92 -73.5t-111.5 -189t-108 -239.5t-91.5 -242q-8 -74 -39 -284h-48zM55 663q33 87 66.5 176t82 229t83.5 255.5t61 228.5t26 175q0 30 -7 43.5t-23 13.5q-24 0 -51.5 -51.5t-54 -142.5t-52 -200.5 t-50 -241.5t-44 -248t-37.5 -237z" />
<glyph unicode="i" horiz-adv-x="334" d="M-44 168q0 90 21.5 241.5t42 263.5t61.5 319q7 36 11 54h46q-9 -45 -32.5 -170t-34 -182.5t-28 -160.5t-26 -162.5t-15 -127t-6.5 -112.5q0 -113 39 -113q17 0 35.5 13t37 36t39.5 60t41.5 79t45.5 100.5t48.5 117t52.5 134.5q7 0 12.5 -4t5.5 -11v-4q-34 -89 -57 -147 t-49.5 -122t-46.5 -103t-42.5 -76.5t-42 -57.5t-41 -32t-44.5 -12q-74 0 -74 179zM129 1280q0 42 27 42q14 0 22 -10.5t8 -24.5q0 -17 -8.5 -28t-21.5 -11q-27 0 -27 32z" />
<glyph unicode="j" horiz-adv-x="346" d="M-353 -553q0 37 8 74t18.5 67.5t32.5 67t38.5 61t48.5 62.5t51 59t56 61q21 23 32 35q18 105 59 346.5t62 356.5q-9 -31 -35 -98q-20 1 -20 12q0 1 1 3.5t1 3.5q29 75 50 138.5t34.5 119.5t20 85t15.5 81.5t11 63.5h46q-32 -123 -190 -1055q115 128 203.5 259.5 t155.5 307.5h5q5 0 9.5 -4t4.5 -11v-4q-37 -99 -83.5 -186t-101.5 -162t-97.5 -125.5t-102.5 -115.5l-88 -486q-6 -38 -20 -68t-33 -51t-43 -32t-50 -11q-28 0 -50 18t-35.5 51t-13.5 76zM-324 -558q0 -58 20.5 -87t53.5 -29q22 0 40.5 16.5t32.5 50.5t25 71.5t21.5 95.5 t18 104.5t18 116t18.5 114.5q-54 -59 -86 -97t-69 -90t-58 -103.5t-30 -107.5q-5 -20 -5 -55zM170 1280v9q4 33 27 33q14 0 22 -10.5t8 -24.5q0 -17 -8.5 -28t-21.5 -11q-27 0 -27 32z" />
<glyph unicode="k" horiz-adv-x="575" d="M-90 0q17 82 40.5 238t46.5 315t52 342t61.5 340.5t68.5 288.5t79 206t88 75q25 0 39 -23.5t14 -67.5q0 -67 -32.5 -199t-74 -260.5t-100.5 -292.5t-90 -245.5t-65 -168.5l-7 -51q34 86 60 148.5t57.5 130.5t59.5 114t59 85.5t62.5 58.5t63.5 19q59 0 59 -71 q0 -72 -54 -186.5t-137 -218t-157 -139.5q26 -35 49.5 -110t37.5 -141t35 -117.5t44 -51.5q16 0 36 16t41 44.5t44.5 69t46.5 87t47.5 101t46.5 109t45 113.5q7 0 13.5 -4.5t6.5 -12.5v-5q-29 -75 -52.5 -132t-53.5 -124.5t-57 -115.5t-56 -90t-57.5 -63.5t-55.5 -21.5 q-34 0 -59 36t-40 92.5t-27 115t-27 114t-33 80.5q-22 -5 -34.5 -5t-21.5 5q0 -5 -4 -14q-29 -232 -57 -413h-51zM39 473h9q20 0 37 -14q68 29 147.5 131.5t131.5 214t52 174.5q0 23 -9.5 36t-25.5 13q-63 0 -152 -143.5t-190 -411.5zM48 624q38 101 52 140.5t64 178 t77.5 227.5t63.5 208.5t53 207.5q16 83 16 135v6q0 30 -7 43.5t-23 13.5q-37 0 -80 -114t-83 -300.5t-72.5 -370t-60.5 -375.5z" />
<glyph unicode="l" horiz-adv-x="364" d="M-20 245q0 279 83.5 726.5t172.5 689.5q27 70 58.5 107t60.5 37q54 0 54 -87q0 -111 -35 -264t-79 -282t-104.5 -274.5t-91 -210.5t-58.5 -123q-30 -236 -30 -360q0 -186 53 -186q56 0 125.5 132t175.5 408q8 0 14 -4.5t6 -12.5v-5q-38 -101 -65.5 -169t-57.5 -135 t-53.5 -108t-49 -74t-49.5 -47t-51 -14q-79 0 -79 256zM55 654q30 60 63.5 133.5t83.5 199t88 242t65.5 251t27.5 238.5q0 66 -28 66q-41 0 -100 -180.5t-111.5 -435.5t-88.5 -514z" />
<glyph unicode="m" horiz-adv-x="944" d="M-119 0q0 1 41 196.5t91.5 455.5t69.5 394h48q-4 -41 -69 -370q25 69 49 123.5t51 104t53 82.5t54.5 52t56.5 19q73 -6 73 -144q0 -83 -29 -261q53 186 125 295.5t152 109.5q45 0 73 -41.5t28 -107.5q0 -57 -27 -172t-59 -224.5t-59 -227.5t-27 -181q0 -85 61 -85 q20 0 42.5 17t43 43t45 70t44.5 85.5t45.5 102.5t44 108t43.5 114q7 0 12.5 -4t5.5 -11v-4q-4 -12 -14 -37q-24 -62 -36.5 -94.5t-36 -90t-39 -89t-38 -76t-40.5 -68.5t-40 -49t-43 -35.5t-43 -10.5q-103 0 -103 116q0 75 43.5 248.5t87 337.5t43.5 217q0 127 -69 127 q-46 0 -100.5 -74t-104.5 -199.5t-88 -279.5q-38 -210 -99 -482h-50q53 244 110.5 545.5t57.5 367.5q0 13 -0.5 22t-1.5 22.5t-3 23t-5.5 20t-9 17t-13.5 11t-19 4.5q-23 0 -50.5 -29.5t-55.5 -78t-58.5 -116.5t-57.5 -139t-55 -151q-90 -477 -100 -519h-51z" />
<glyph unicode="n" horiz-adv-x="683" d="M-116 0q18 129 72 321q99 532 115 725h48q-5 -59 -84 -484q30 80 61 149.5t67.5 134.5t71.5 110.5t74 73t76 27.5q49 0 75 -40.5t26 -108.5q0 -57 -26.5 -171t-59 -222t-59 -225t-26.5 -180q0 -43 15.5 -67.5t45.5 -24.5q23 0 48 20.5t51.5 62t51 87.5t53.5 113.5 t51.5 123t51.5 133.5q7 0 13 -4t6 -11v-4q-6 -16 -18 -47q-19 -50 -29 -75t-28.5 -71.5t-29.5 -72t-29 -65t-31 -62t-30.5 -51.5t-33 -45t-32.5 -32t-34.5 -22.5t-34.5 -6.5q-52 0 -77.5 33t-25.5 90q0 75 43.5 246.5t86.5 334t43 215.5q0 64 -15.5 94.5t-52.5 30.5 q-42 0 -91.5 -53.5t-98 -143.5t-91.5 -191t-82 -212l-77 -433h-50z" />
<glyph unicode="o" horiz-adv-x="740" d="M-18 361q0 207 71 398l43 -9q-23 -63 -39.5 -132.5t-25.5 -140.5t-9 -135q0 -95 18 -168t58 -118t97 -45q58 0 111.5 63.5t96.5 170.5q-61 4 -110 26.5t-82 57.5t-55 82t-32 98t-10 108q0 105 32.5 205.5t90.5 165.5t126 65q62 0 104 -44.5t60 -116t18 -165.5 q0 -110 -24 -231.5t-66 -226.5q86 8 161 82t125 207q8 0 13 -4t5 -11v-4q-50 -134 -132 -211.5t-182 -82.5q-51 -117 -118 -186.5t-141 -69.5q-68 0 -115.5 52t-68 133.5t-20.5 186.5zM151 615q0 -44 6.5 -85t19.5 -79.5t34 -70t49.5 -56t67.5 -39t85 -16.5 q40 109 63.5 235.5t23.5 236.5q0 86 -14 150t-46 104t-79 40q-41 0 -80 -37t-67 -96.5t-45.5 -135.5t-17.5 -151z" />
<glyph unicode="p" horiz-adv-x="694" d="M-230 -685q6 26 26.5 133.5t30.5 156t27.5 131t32.5 140.5t30 104l12 -24q-13 -40 -34.5 -130.5t-41.5 -192.5t-30 -172q16 114 77 481t111 686t57 418h51l-57 -365q36 111 77.5 192.5t92.5 132.5t103 51q51 0 85 -38.5t49 -101t15 -146.5q0 -97 -21 -209t-56.5 -215 t-88 -189.5t-110.5 -129.5q64 21 130 63.5t131.5 107t125 157.5t101.5 202q7 0 12 -4t5 -11v-4q-49 -127 -124 -233.5t-158 -174t-168 -105t-160 -37.5h-2q-113 0 -129 155l-140 -829h-62zM-190 -628q0 1 4 32q-4 -27 -4 -32zM-181 -567q0 6 4 28q-4 -22 -4 -28zM-9 225 q0 -35 3.5 -65.5t11.5 -58t20.5 -47.5t32 -31.5t44.5 -11.5q64 0 128 79.5t109.5 197.5t73.5 254.5t28 249.5q0 111 -28.5 177t-87.5 66q-47 0 -102 -71.5t-104.5 -189.5t-84.5 -258l-42 -249q0 -7 -1 -21t-1 -21z" />
<glyph unicode="q" horiz-adv-x="703" d="M-41 243q0 119 28.5 260.5t75 263.5t114 204t135.5 82q63 0 96.5 -48.5t42.5 -128.5l37 170h46q-15 -81 -37 -185t-45 -208t-46.5 -207.5t-47.5 -214.5t-41 -199q146 126 235 244.5t152 281.5q8 0 13 -4t5 -11v-4q-59 -156 -162 -290t-241 -231q67 -66 101.5 -173.5 t34.5 -223.5q0 -150 -36 -234.5t-104 -84.5q-35 0 -58.5 27t-34.5 77t-11 121q0 133 32 330t92 476q-28 -80 -55 -139t-59 -107t-67.5 -73t-75.5 -25q-61 0 -90 68.5t-29 185.5zM-4 221q0 -98 22.5 -154t68.5 -56q45 0 93 62t91.5 168.5t81.5 234t71 274.5q3 18 3 58 q0 61 -11.5 110.5t-38.5 83t-68 33.5q-56 0 -114.5 -85.5t-101 -210t-70 -266t-27.5 -252.5zM245 -477q0 -99 18.5 -148t51.5 -49q98 0 98 289q0 114 -25.5 217.5t-78.5 167.5q-32 -157 -50 -289q-14 -114 -14 -188z" />
<glyph unicode="r" horiz-adv-x="532" d="M-2 551q0 1 1 3.5t1 3.5q56 148 112 470q-5 47 -5 93q0 41 4 81q8 86 29 168l41 -7q3 -17 1 -46t-2 -43.5t-3.5 -42t-5.5 -41t-6.5 -40.5t-7 -40t-7.5 -39.5t-8 -40.5l-4 -21q11 -30 38.5 -76.5t50.5 -85.5t41.5 -98.5t18.5 -120.5q0 -52 -11.5 -111.5t-27.5 -112.5 t-32 -104.5t-27.5 -104.5t-11.5 -96q0 -39 15 -60t40 -21q24 0 50.5 25.5t53 68.5t59.5 114.5t64.5 147.5t72.5 184q7 0 13 -4t6 -11v-4q-34 -88 -57 -147t-49.5 -122t-46.5 -102.5t-42.5 -77t-42.5 -57.5t-41.5 -32t-44.5 -12q-91 0 -91 130q0 54 17 124t37.5 126.5 t37.5 128.5t17 130q0 43 -7.5 82.5t-21.5 74t-27.5 63.5t-30.5 63t-27 59q-61 -294 -113 -431q-20 1 -20 12z" />
<glyph unicode="s" horiz-adv-x="512" d="M-74 162q0 46 21 90l35 -16q-19 -31 -19 -76q0 -61 38 -105t107 -44h4h4q59 2 104.5 41t68.5 98.5t23 129.5q0 63 -17 148t-39.5 160.5t-48 186t-37.5 209.5q-72 -241 -152 -445q-20 1 -20 12q0 1 1 3.5t1 3.5q89 238 162 497v101q0 123 33 214l37 -5v-17 q0 -147 -46 -309q7 -90 35 -205.5t58 -205t54 -187.5t24 -161q0 -51 -13 -96q70 119 168 374q7 0 12.5 -4t5.5 -11v-4q-33 -84 -56.5 -141.5t-52.5 -120t-54 -103t-55.5 -79t-61.5 -60t-68 -34t-79 -12.5h-2q-83 0 -129 51.5t-46 121.5z" />
<glyph unicode="t" horiz-adv-x="375" d="M-59 1025l4 21h138q27 118 51 208.5t53 174.5t59 129.5t59 45.5q23 0 37.5 -23.5t14.5 -64.5q0 -42 -9 -94t-32.5 -130.5t-35 -114t-44.5 -131.5h106l-5 -21h-107q-99 -278 -189 -484q-25 -204 -25 -325q0 -198 60 -198q20 0 41.5 16.5t44.5 51t46.5 78t52 108t55 131 t60.5 155.5q7 0 12.5 -4t5.5 -11v-4q-33 -88 -56.5 -147t-50 -122t-46.5 -102.5t-42.5 -77t-42.5 -57.5t-41.5 -32t-43.5 -12q-47 0 -69 72.5t-22 199.5q0 151 27 354t71 410h-137zM50 619q93 234 149 406h-75q-54 -257 -74 -406zM129 1046h77q99 297 124 462q0 4 1.5 12 t1.5 12q0 23 -7.5 37t-20.5 14q-32 0 -81 -158t-95 -379z" />
<glyph unicode="u" horiz-adv-x="680" d="M-44 175q0 49 7 117t14 122t25 155.5t27 146.5t34 171t31 159h46q-15 -82 -48.5 -251.5t-51 -263t-33.5 -207t-16 -180.5q0 -128 55 -128q34 0 77 46.5t84 123t79 178.5t62 207q36 207 90 475h46q-9 -45 -32.5 -170t-34 -182.5t-28 -160.5t-26 -162.5t-15 -127 t-6.5 -112.5q0 -113 39 -113q24 0 50.5 25.5t53 68.5t59.5 114.5t64.5 147.5t72.5 184q7 0 13 -4t6 -11v-4q-34 -88 -57 -147t-49.5 -122t-46.5 -102.5t-42.5 -77t-42.5 -57.5t-41.5 -32t-44.5 -12q-74 0 -74 179q0 59 17 206q-60 -168 -137.5 -276.5t-142.5 -108.5 q-83 0 -83 186z" />
<glyph unicode="v" horiz-adv-x="661" d="M-2 551q0 1 1 3.5t1 3.5q48 127 74 228q0 165 11 260h48q5 -18 5 -39q0 -43 -9 -81l-15 -59q30 -547 42 -830q108 148 192 368q-57 115 -57 324q0 118 20.5 224.5t62 177.5t94.5 71q32 0 51.5 -34t19.5 -95q0 -134 -45.5 -311.5t-117.5 -356.5q41 -68 99 -68q46 0 97 58 t91 163q6 0 12 -4.5t6 -10.5v-4q-27 -72 -63.5 -123t-75.5 -76t-76 -25q-58 0 -101 64q-58 -140 -115.5 -242.5t-98.5 -136.5h-32q-35 469 -43 711q-10 -41 -58 -172q-20 1 -20 12zM319 727q0 -182 44 -289q62 167 97 334.5t35 306.5q0 100 -36 100q-31 0 -57.5 -39.5 t-44.5 -104t-28 -145t-10 -163.5z" />
<glyph unicode="w" horiz-adv-x="919" d="M-44 175q0 49 7 117t14 122t25 155.5t27 146.5t34 171t31 159h46q-6 -33 -24 -128t-25.5 -136t-22.5 -125.5t-22.5 -129.5t-18 -113.5t-15 -111.5t-8.5 -90t-4 -81q0 -113 37 -113q33 0 77 45.5t87 120t82.5 177.5t64.5 210q36 207 90 475h46q-9 -45 -32.5 -170 t-34 -182.5t-28 -160.5t-26 -162.5t-15 -127t-6.5 -112.5q0 -113 39 -113q25 0 62.5 54t77.5 141.5t80 199.5q-28 86 -28 215q0 156 12.5 270t35 178.5t49.5 95t59 30.5q29 0 48 -35t19 -94q0 -140 -43.5 -324.5t-112.5 -358.5q30 -53 89 -53q47 0 98 57t93 164q5 0 12 -4.5 t7 -10.5v-4q-40 -107 -99.5 -165.5t-117.5 -58.5q-60 0 -94 46q-68 -164 -136.5 -268t-115.5 -104q-74 0 -74 179q0 59 17 206q-60 -168 -137.5 -276.5t-142.5 -108.5q-83 0 -83 186zM596 628q0 -105 19 -179q60 174 99 346.5t39 283.5q0 43 -10 71.5t-25 28.5 q-32 0 -59 -57.5t-45 -186t-18 -307.5z" />
<glyph unicode="x" horiz-adv-x="738" d="M-68 124q0 67 26 142t68 128l38 -27q-27 -30 -48.5 -75t-33.5 -93t-12 -89q0 -99 67 -99q15 0 30.5 6.5t31 20t30.5 30t31 41.5t30 48.5t31 57.5t30.5 61.5t31 68.5t30 70t31.5 73q3 34 10 98.5t11 102.5t7.5 87.5t3.5 85.5q0 173 -71 173q-57 0 -118 -109t-169 -387 q-20 1 -20 12q0 1 1 3.5t1 3.5q31 80 52 132t46.5 110.5t43.5 93.5t40 70t41 53t40 29t44 11q113 0 113 -267q0 -44 -4 -136q23 61 41.5 106t42 94t45 83t45.5 63t49.5 43t52.5 14q42 0 58 -24l-19 -26q-19 18 -41 18q-20 0 -39 -9t-38 -29.5t-35.5 -41.5t-35.5 -58 t-33 -65.5t-34 -77.5t-32.5 -81t-33.5 -87q-5 -56 -15 -152t-16 -165t-6 -117q0 -124 44 -124q58 0 141 141.5t181 398.5q7 0 13 -4t6 -11v-4q-109 -287 -189.5 -418.5t-156.5 -131.5q-49 0 -69.5 52.5t-20.5 151.5q0 94 14 208q-33 -75 -58.5 -128.5t-57.5 -110.5 t-60 -92.5t-60.5 -58t-63.5 -22.5q-53 0 -78 37t-25 98z" />
<glyph unicode="y" horiz-adv-x="655" d="M-44 175q0 49 7 117t14 122t25 155.5t27 146.5t34 171t31 159h46q-15 -82 -48.5 -251.5t-51 -263t-33.5 -207t-16 -180.5q0 -126 55 -126q46 0 106 80.5t115 213t86 277.5q29 171 85 457h50q-29 -113 -195 -1053q55 59 98 112.5t93 124t93.5 153.5t78.5 175h5q2 0 4.5 -1 t4.5 -3t3 -5t1 -6v-4q-37 -99 -83.5 -186.5t-100 -160.5t-98 -125.5t-103.5 -114.5l-87 -488q-7 -38 -21 -68t-33 -51t-43 -32t-50 -11q-28 0 -50 18t-35.5 51t-13.5 76q0 38 8.5 76.5t20 70t34.5 69.5t40.5 64t51 65.5t53.5 61t59 63.5q10 11 16 17q45 246 73 423 q-59 -162 -134.5 -265t-138.5 -103q-83 0 -83 186zM-13 -558q0 -58 20 -87t52 -29q36 0 61.5 37t37.5 105l74 424q-54 -57 -86.5 -95t-69 -89.5t-57 -103t-28.5 -107.5q-4 -20 -4 -55z" />
<glyph unicode="z" horiz-adv-x="652" d="M-2 551q0 1 1 3.5t1 3.5q18 48 38.5 110t34.5 105t31.5 91.5t33.5 80t35.5 59t42.5 40.5t51 13q53 0 89 -40t52 -106t16 -154q0 -126 -31.5 -269t-90.5 -268.5t-130 -189.5q42 -28 73 -113q42 48 59 68t58 70.5t63.5 82t59 85.5t61.5 101t54.5 108.5t53.5 125.5h5 q5 0 9 -4t4 -11v-4q-34 -87 -76 -169t-77 -138.5t-86.5 -123.5t-80.5 -101t-82 -94l-18 -21q28 -103 28 -209q0 -102 -24.5 -188.5t-66.5 -136.5t-90 -50q-42 0 -70.5 40t-28.5 104q0 50 13 100t31.5 90.5t51 87.5t59.5 80t68 80q-24 100 -70 123q-20 -15 -68 -24l-4 46 q13 6 43 6q18 0 27 -2q54 45 107 174.5t87 289.5t34 289q0 110 -28.5 175.5t-89.5 65.5q-25 0 -47.5 -20.5t-39.5 -51.5t-37 -82.5t-35.5 -99.5t-39.5 -117.5t-44 -122.5q-20 1 -20 12zM30 -553q0 -58 20 -87.5t53 -29.5q45 0 78 69t49 181q9 78 9 140q0 66 -12 142 q-45 -54 -76 -96t-61 -95t-45 -109t-15 -115z" />
<glyph unicode="{" horiz-adv-x="383" d="M0 -76q0 59 21.5 143.5t52 169.5t61 168.5t52 160.5t21.5 124q0 57 -29 76q-23 -7 -55 -7h-12l7 42h17q29 0 50 -9q33 18 52 63.5t25.5 106.5t8 135t2 151t3.5 153t17 143t38.5 118t71 81t112.5 30q31 0 46 -9l-9 -37q-20 7 -39 7q-60 -1 -101 -36t-60 -93.5t-30.5 -135 t-13 -158.5t-6.5 -166t-12.5 -155t-30 -127.5t-58.5 -82.5q28 -28 28 -90t-29.5 -168t-64 -203t-63.5 -205t-29 -173q0 -62 25.5 -94.5t83.5 -32.5q21 0 44 7l5 -39q-14 -7 -58 -7q-144 0 -144 149z" />
<glyph unicode="|" horiz-adv-x="322" d="M28 0q49 280 152 836.5t148 817.5h29q-147 -870 -302 -1654h-27z" />
<glyph unicode="}" horiz-adv-x="446" d="M-64 -216l9 37q20 -7 39 -7q60 0 100.5 35.5t59.5 93.5t30.5 134.5t13 158.5t6.5 166t12 155t29 128t58 83q-26 24 -26 88q0 61 29 167.5t64.5 204.5t65 206.5t29.5 173.5q0 126 -111 126q-20 0 -44 -7l-4 39q13 7 57 7q142 0 142 -149q0 -71 -32.5 -185.5t-71.5 -214 t-71.5 -205.5t-32.5 -163q0 -56 30 -76q30 10 55 10h13l-6 -42q-4 0 -9.5 -1t-8.5 -1q-17 0 -49 9q-33 -18 -52 -63.5t-26 -106.5t-8.5 -135t-1.5 -151t-3.5 -153t-17 -142.5t-38 -118t-71 -81t-112.5 -29.5q-31 0 -46 9z" />
<glyph unicode="~" horiz-adv-x="893" d="M-13 681q23 30 50 51t57 32.5t60 16.5t64 5q75 0 220.5 -32t205.5 -32q93 0 142.5 19t96.5 60l51 -70q-88 -81 -218 -81q-68 0 -158 23t-177 45.5t-149 22.5q-63 0 -113 -22.5t-91 -76.5z" />
<glyph unicode="&#xa1;" horiz-adv-x="400" d="M-7 0h53q106 331 218 756.5t183 777.5h-27q-19 -91 -40 -184t-39.5 -170t-44 -172.5t-42 -157t-45.5 -159.5t-43 -144.5t-45.5 -148t-42 -134t-44.5 -138t-41 -126.5zM420 1622q0 14 8 26.5t21 12.5t20.5 -9.5t7.5 -25.5q0 -15 -8 -27t-22 -12q-27 0 -27 35z" />
<glyph unicode="&#xa2;" horiz-adv-x="527" d="M-18 399q0 88 24.5 183.5t65.5 174.5t100.5 130.5t123.5 51.5l19 107h18q-14 -77 -18 -107q118 -9 118 -143q0 -87 -48 -186l-46 23q49 84 49 168q0 48 -20.5 79.5t-58.5 36.5q-73 -423 -139 -768h11q75 0 135 76.5t100 196.5l33 -13q-36 -120 -111.5 -201t-165.5 -81h-7 l-25 -127h-18q15 92 22 127q-81 11 -121.5 85.5t-40.5 186.5zM30 392q0 -97 29 -161.5t90 -79.5q25 140 73 396t69 373q-68 -2 -129.5 -87t-96.5 -206.5t-35 -234.5z" />
<glyph unicode="&#xa3;" horiz-adv-x="680" d="M2 20q83 74 125.5 184t49.5 234h-120l5 23h117q0 7 1 19l4.5 97.5t6.5 91.5t11 91t16.5 79.5t24.5 74t35 58t46.5 47.5t60.5 27t76 11q46 0 80 -14.5t53.5 -41t29 -58.5t9.5 -69q0 -41 -11 -83t-30 -78.5t-44 -62.5l-34 26q40 39 62.5 93.5t22.5 108.5q0 67 -35.5 112 t-104.5 45q-43 0 -77.5 -19t-57.5 -45t-40.5 -74t-27 -85t-17 -99.5t-10 -96.5t-5.5 -96q-1 -13 -1.5 -20.5t-1 -18.5t-0.5 -20h182l-4 -23h-181q-11 -116 -37 -200.5t-87 -163.5q11 2 37 2q40 0 120 -22t116 -22q29 0 50 6.5t30 12.5t24 20q4 3 6 5l33 -32 q-47 -51 -116 -51q-44 0 -95.5 15.5t-97 31t-74.5 15.5q-60 0 -95 -64z" />
<glyph unicode="&#xa5;" horiz-adv-x="488" d="M11 445l5 28h156l9 39q-4 45 -13 119h-124l4 28h114q-29 228 -61 387h50q34 -170 57 -387h56l185 387h35l-188 -387h117l-4 -28h-125l-61 -126l-7 -32h165l-5 -28h-165q-7 -38 -19 -107.5t-21.5 -122t-20 -106t-19 -82.5t-15.5 -29q-10 0 -17 7.5t-7 20.5q0 31 10.5 89 t31.5 156.5t34 173.5h-157zM213 631l8 -62l29 62h-37z" />
<glyph unicode="&#xa6;" horiz-adv-x="334" d="M39 0q71 401 145 794h32q-75 -412 -150 -794h-27zM197 886q23 130 72.5 384t72.5 384h28q-90 -512 -138 -768h-35z" />
<glyph unicode="&#xa7;" horiz-adv-x="738" d="M50 248l62 13q10 -110 71.5 -179t142.5 -69q37 0 66.5 16t47 43t26.5 60t9 70q0 39 -17 78t-43.5 73t-59 70t-65 75.5t-59.5 82.5t-44 98t-17 115q0 119 75 191t212 72q92 0 147 -57.5t55 -146.5q0 -72 -37 -144l-49 18q37 66 37 133q0 73 -41.5 123t-100.5 50 q-50 0 -82.5 -44t-32.5 -124q0 -50 17 -97.5t43.5 -87.5t59.5 -79.5t65.5 -77.5t59.5 -76t44 -82.5t17 -88.5q0 -129 -84 -209t-240 -80q-108 0 -187 70t-98 191zM216 799q0 -55 17 -107.5t43.5 -94t59 -81.5t65 -76.5t59.5 -72t44 -75.5t17 -79q0 -52 -26.5 -110t-63.5 -85 q90 24 136 88t46 155q0 45 -17 89t-44 81.5t-59.5 74.5t-65 76t-59.5 79.5t-44 91.5t-17 105q0 112 81 170q-52 -8 -90.5 -38.5t-60 -80t-21.5 -110.5z" />
<glyph unicode="&#xa8;" horiz-adv-x="337" d="M39 1169q0 15 8.5 27t20.5 12q14 0 21 -9t7 -24t-8 -27t-22 -12q-27 0 -27 33zM245 1169q0 15 9 27t22 12q26 0 26 -33q0 -15 -7.5 -27t-21.5 -12q-13 0 -20.5 9t-7.5 24z" />
<glyph unicode="&#xa9;" horiz-adv-x="898" d="M64 931q0 101 19 202.5t58 195t93.5 165.5t131 115t164.5 43q71 0 128 -38t92 -104t53 -150t18 -181q0 -101 -19 -202.5t-58.5 -194.5t-93.5 -165t-130.5 -115t-164.5 -43q-72 0 -129 38t-91.5 104t-52.5 149.5t-18 180.5zM92 926q0 -91 16 -170t47.5 -141t83 -97.5 t116.5 -35.5q82 0 154.5 41.5t123.5 112t88 161.5t55 190t18 197q0 123 -28 221.5t-89 160.5t-147 62q-83 0 -155 -41.5t-123 -112t-87.5 -161.5t-54.5 -189.5t-18 -197.5zM264 954q0 -68 14.5 -120t47.5 -85t83 -33q58 0 108 57.5t84 154.5l-25 8q-67 -198 -160 -198 q-61 0 -90.5 58t-29.5 152t26 195.5t71 171.5t93 70q22 0 37.5 -12t24 -34t8.5 -52q0 -91 -70 -197l37 -19q62 90 62 195q0 61 -26.5 101.5t-70.5 40.5q-60 0 -113 -72.5t-82 -176.5t-29 -205z" />
<glyph unicode="&#xaa;" horiz-adv-x="784" d="M90 585q0 106 26.5 229t70.5 228.5t108 176t132 70.5q35 0 61.5 -16.5t41.5 -46t22.5 -63.5t9.5 -75l39 190h46q-7 -39 -25.5 -136.5t-26.5 -139.5t-22 -122t-21 -124t-15 -101.5t-11 -98.5t-3 -74q0 -112 44 -112q41 0 87 49.5t101 160.5l20 -16q-64 -130 -111.5 -177.5 t-101.5 -47.5q-28 0 -46.5 13t-29.5 48.5t-11 94.5q0 71 16 175q-121 -331 -275 -331q-43 0 -72 33t-41.5 86.5t-12.5 126.5zM129 564q0 -92 23.5 -146.5t72.5 -54.5t105 62t102 157.5t76.5 221t30.5 242.5q0 69 -12.5 119t-38.5 78t-64 28q-54 0 -109.5 -72.5t-95 -179.5 t-65 -230.5t-25.5 -224.5z" />
<glyph unicode="&#xab;" horiz-adv-x="762" d="M32 856l5 30q28 12 74.5 34.5t164 89.5t203.5 132l14 -21q-53 -40 -115 -80.5t-113.5 -69.5t-95.5 -51.5t-68 -34.5l-25 -11q43 -32 90.5 -74t85 -80t68.5 -71.5t48 -52.5l17 -20l-28 -31q-17 20 -48 53t-116.5 115t-160.5 143zM239 856l4 30q28 12 74.5 34.5t164 89.5 t203.5 132l15 -21q-84 -64 -188.5 -126t-166.5 -92l-63 -29q68 -50 145.5 -124.5t120.5 -124.5l43 -49l-27 -31q-17 20 -48 53t-117 115t-160 143z" />
<glyph unicode="&#xad;" horiz-adv-x="501" d="M39 571l5 28h411l-6 -28h-410z" />
<glyph unicode="&#xae;" horiz-adv-x="869" d="M64 931q0 101 19 202.5t58 195t93.5 165.5t131 115t164.5 43q71 0 128 -38t92 -104t53 -150t18 -181q0 -101 -19 -202.5t-58.5 -194.5t-93.5 -165t-130.5 -115t-164.5 -43q-72 0 -129 38t-91.5 104t-52.5 149.5t-18 180.5zM92 926q0 -91 16 -170t47.5 -141t83 -97.5 t116.5 -35.5q82 0 154.5 41.5t123.5 112t88 161.5t55 190t18 197q0 123 -28 221.5t-89 160.5t-147 62q-83 0 -155 -41.5t-123 -112t-87.5 -161.5t-54.5 -189.5t-18 -197.5zM276 736h36l43 236q28 -19 54.5 -61t43 -80.5t41 -72t49.5 -40.5l13 30q-22 9 -43.5 40.5t-38.5 66 t-45 72.5t-59 57q74 14 130.5 59.5t83 102t26.5 113.5q0 64 -36 105.5t-104 41.5q-79 0 -168 -64l19 -23q39 35 78 51q-40 -222 -69 -370q-22 5 -34 5h-5l-4 -23q17 -3 39 -3zM363 1000q22 117 68 381q41 7 42 7q47 0 73.5 -35.5t26.5 -89.5q0 -52 -22.5 -105t-72 -97.5 t-115.5 -60.5z" />
<glyph unicode="&#xaf;" horiz-adv-x="464" d="M39 1145l5 28h365l-6 -28h-364z" />
<glyph unicode="&#xb0;" horiz-adv-x="348" d="M37 1057q0 69 46 125.5t119 56.5q37 0 63.5 -17.5t38 -44t11.5 -58.5q0 -44 -19 -84.5t-57.5 -68t-87.5 -27.5q-56 0 -85 33.5t-29 84.5zM68 1060q0 -42 22.5 -70.5t62.5 -28.5q29 0 54 14.5t40.5 37t24 50t8.5 54.5q0 20 -5 37.5t-15 31t-26 21.5t-37 8 q-38 0 -68.5 -24.5t-45.5 -59.5t-15 -71z" />
<glyph unicode="&#xb2;" horiz-adv-x="532" d="M59 1060q9 31 40 67q35 42 88.5 84.5t99 73.5t88 65.5t67 75t24.5 86.5q0 43 -15 72.5t-42 43.5t-65 14q-66 0 -110 -53.5t-44 -126.5q0 -21 9 -61l-46 -13q-6 27 -6 59q0 40 12.5 78t36 70t63.5 51t89 19q75 0 119.5 -42.5t44.5 -120.5q0 -44 -20 -83t-51.5 -67 t-74 -59.5t-84 -58.5t-86 -65.5t-74.5 -78.5q18 9 46 9q22 0 74 -10t82 -10q45 0 69.5 9t46.5 29l28 -38q-22 -24 -46.5 -34t-64.5 -10q-51 0 -113.5 20.5t-81.5 20.5q-40 0 -75 -43z" />
<glyph unicode="&#xb3;" horiz-adv-x="486" d="M96 1186q0 34 9 64l46 -11q-15 -39 -15 -66q0 -49 29 -82.5t83 -33.5q50 0 85.5 26.5t51.5 65t16 83.5q0 41 -15.5 76t-43.5 52q-36 -9 -62 -9h-2v46h2q32 0 62 -12q33 21 53.5 62t20.5 85q0 47 -24 78.5t-70.5 31.5t-77.5 -33t-31 -84v-13h-48q1 65 44 109t119 44 q64 0 98.5 -40t34.5 -97q0 -30 -9.5 -58.5t-30 -54t-49.5 -41.5q36 -22 55.5 -61t19.5 -83q0 -49 -22 -92.5t-69 -73t-111 -29.5q-69 0 -109 42t-40 109z" />
<glyph unicode="&#xb4;" horiz-adv-x="431" d="M116 1133q104 115 186 261l31 -18q-23 -37 -46.5 -71.5t-43 -59.5t-38 -47t-32 -36t-24 -24t-15.5 -15l-5 -4z" />
<glyph unicode="&#xb6;" horiz-adv-x="1285" d="M66 1090q0 84 26.5 165.5t82.5 155t134 129.5t189 88.5t240 32.5q105 0 190 -24q-62 -557 -136 -1004q85 18 154.5 56.5t118 91t82 119t49 140.5t15.5 155q0 25 -5 85l42 7q4 -52 4 -79q0 -80 -15.5 -156t-51.5 -149t-89 -131t-132.5 -101t-177.5 -61q-48 -277 -116 -610 h-33q77 379 116 604q-57 -8 -106 -8q-39 -227 -115 -596h-32q45 215 115 596q-107 2 -197.5 30.5t-154.5 75.5t-109 109.5t-66.5 133t-21.5 145.5zM112 1083q0 -59 14 -115t41 -107.5t69.5 -94.5t97.5 -75.5t127.5 -51t155.5 -20.5q109 660 149 1018h-35q-117 0 -219 -31.5 t-174.5 -85.5t-124 -125.5t-76.5 -150.5t-25 -161zM652 619q87 6 105 9q66 372 145 992q-71 13 -108 15q-68 -582 -142 -1016z" />
<glyph unicode="&#xb7;" horiz-adv-x="240" d="M103 711q0 15 9 27t21 12q27 0 27 -34q0 -10 -3 -18.5t-9.5 -15t-16.5 -6.5q-13 0 -20.5 10t-7.5 25z" />
<glyph unicode="&#xb8;" horiz-adv-x="948" d="M284 -321l53 25q16 -51 44 -78t87 -27q61 0 100.5 45t39.5 100q0 42 -28.5 71t-84.5 29q-49 0 -96 -23v-2q-11 -40 -23 -49l-41 31q22 26 41 37q24 92 40 171l26 -11l-37 -147q49 16 95 16q74 0 116.5 -39t42.5 -92q0 -64 -53 -112t-145 -48q-76 0 -120 27t-57 76z" />
<glyph unicode="&#xb9;" horiz-adv-x="256" d="M57 1488q37 31 72 72.5t52 67.5l16 26h44q-2 -9 -15.5 -60.5t-41.5 -191.5t-62 -356h-44q68 427 112 560q-52 -87 -107 -138z" />
<glyph unicode="&#xba;" horiz-adv-x="825" d="M110 668q0 171 69 343l44 -13q-67 -183 -67 -348q0 -129 45 -207t136 -78q63 0 118.5 64t97.5 170q-79 3 -140 32t-96 75.5t-52 102t-17 117.5q0 89 29.5 171t84.5 135t122 53q65 0 109 -42.5t62.5 -110t18.5 -155.5q0 -181 -68 -353q43 10 90 37l13 -19 q-19 -15 -51.5 -27t-61.5 -16q-49 -115 -119 -186t-149 -71q-54 0 -96.5 24.5t-68.5 69t-39.5 103.5t-13.5 129zM284 928q0 -60 15.5 -112t47 -96t87 -70.5t128.5 -27.5q66 182 66 367q0 80 -14.5 140.5t-48.5 98.5t-83 38q-53 0 -99.5 -50t-72.5 -127.5t-26 -160.5z" />
<glyph unicode="&#xbb;" horiz-adv-x="552" d="M62 567q83 64 187.5 126t167.5 91l62 30q-68 50 -145 124.5t-121 124.5l-43 49l27 30q18 -19 49 -52t116.5 -115.5t160.5 -142.5l-4 -29q-28 -12 -74.5 -34.5t-164 -90t-204.5 -133.5zM291 567q39 29 82.5 58.5t83 53.5t78 46t69.5 37.5l55 27.5t37 18l13 6 q-43 32 -91 74t-85 80t-68.5 71.5t-48.5 52.5l-17 20l28 30q17 -19 48 -52t117 -115.5t161 -142.5l-5 -29q-28 -12 -74.5 -34.5t-164.5 -90t-204 -133.5z" />
<glyph unicode="&#xbc;" horiz-adv-x="825" d="M53 4q109 222 265 543t246 506l25 -14q-59 -119 -229 -470t-284 -576zM57 880q37 31 72 72.5t52 67.5l16 26h44q-2 -10 -15.5 -61t-41.5 -191t-62 -356h-44q68 427 112 560q-52 -87 -107 -138zM370 195q60 77 97.5 195t37.5 236h40q-2 -92 -31.5 -207t-84.5 -196 q13 4 44 4q28 0 79.5 -9.5t69.5 -11.5q14 98 26 170.5t18 103t16 78.5t14 68h42q-2 -11 -6.5 -31.5t-11 -50t-21 -118.5t-34.5 -220q32 2 54 11.5t43 32.5l28 -29q-24 -25 -52.5 -35.5t-76.5 -10.5l-24 -149h109l-5 -26h-259l4 26h110l21 151q-24 3 -79 14t-79 11 q-48 0 -69 -27z" />
<glyph unicode="&#xbd;" horiz-adv-x="845" d="M53 4q109 222 265 543t246 506l25 -14q-59 -119 -229 -470t-284 -576zM64 880q37 31 72 72.5t51 67.5l17 26h44q-2 -10 -16 -61t-42 -191t-61 -356h-44q68 427 112 560q-52 -87 -107 -138zM357 13q9 32 39 68q27 31 62.5 62.5t69 55.5t69 48.5t65 48.5t53 49.5t36.5 56 t13 64.5q0 43 -15 72.5t-42 43.5t-65 14q-66 0 -110 -53.5t-44 -126.5q0 -21 9 -61l-46 -13q-6 26 -6 59q0 22 4 44.5t12 44t20 40.5t29 35.5t37 28.5t46 18.5t54 6.5q76 0 119.5 -42t43.5 -120q0 -44 -20 -83t-51.5 -67.5t-74 -60t-84 -58.5t-86 -65.5t-74.5 -78.5 q18 9 46 9q21 0 73.5 -10.5t82.5 -10.5q45 0 69.5 9.5t46.5 29.5l28 -39q-22 -23 -46 -33t-64 -10q-51 0 -113.5 20.5t-81.5 20.5q-41 0 -76 -43z" />
<glyph unicode="&#xbe;" horiz-adv-x="827" d="M53 4q109 222 265 543t246 506l25 -14q-59 -119 -229 -470t-284 -576zM62 880q36 31 71 72.5t52 67.5l17 26h43q-1 -10 -15 -61t-42 -191t-61 -356h-44q68 427 112 560q-52 -87 -108 -138zM390 140q0 34 9 64l46 -11q-16 -40 -16 -66q0 -49 29.5 -82.5t82.5 -33.5 q74 0 114.5 52.5t40.5 122.5q0 41 -16 76.5t-45 52.5q-40 -10 -62 -10h-2v46h2q32 0 62 -12q34 21 54 62t20 85q0 30 -9.5 54t-31.5 40t-53 16t-55.5 -15t-38.5 -41.5t-14 -60.5v-13h-48q2 65 44 109t119 44q63 0 98 -40t35 -97q0 -45 -23.5 -87.5t-66.5 -66.5 q37 -22 56.5 -61t19.5 -83q0 -49 -22 -92.5t-69.5 -73t-110.5 -29.5q-69 0 -109 42t-40 109z" />
<glyph unicode="&#xbf;" horiz-adv-x="1141" d="M-28 319q0 -159 77.5 -244.5t209.5 -85.5q65 0 121.5 23t96 62.5t67.5 91t41.5 108.5t13.5 116q0 62 -16 118t-46.5 101t-80.5 71.5t-112 26.5l-5 -39q71 0 122 -42t75 -107t24 -143q0 -53 -12 -105t-37 -99t-60 -82.5t-84.5 -57t-107.5 -21.5q-48 0 -91 20t-77 57.5 t-53.5 97t-19.5 133.5q0 85 23 165t60.5 147t83.5 133t94.5 134.5t91 139t76 159t46.5 182.5l-46 6q-14 -93 -48.5 -183t-77 -161.5t-91 -142t-94 -138t-82.5 -135t-59.5 -146t-22.5 -160.5zM486 1626q0 16 7 29t21 13q10 0 16.5 -5t9.5 -13t3 -17q0 -17 -8 -28t-21 -11 q-28 0 -28 32z" />
<glyph unicode="&#xc0;" d="M-153 309q0 119 26.5 235t77.5 223t130.5 198.5t178.5 159t229.5 106t276.5 38.5q83 0 156.5 -18t130 -49.5t102.5 -76t77 -96.5t50 -112q150 -1 289 -44t248 -125q48 125 115.5 313t114 313.5t103 263t112.5 234.5t113 155l50 -22q-145 -605 -223 -1113t-78 -890 q0 -972 514 -972q81 0 145.5 21.5t113.5 64t85 97t67 128.5l41 -13q-64 -160 -171.5 -242t-254.5 -82q-128 0 -227.5 46.5t-166.5 130t-110 207t-62 271.5t-19 330q0 19 1 58.5t1 60.5q0 385 -241 590q-42 -114 -81.5 -210t-89 -201t-98.5 -191t-109.5 -172t-123 -152.5 t-137.5 -125t-155 -97t-173 -60t-194 -21.5q-165 0 -304 46.5t-235.5 126t-164 187t-99 229t-31.5 252.5zM-105 309q0 -128 30 -246.5t94 -223t156 -182t224.5 -122.5t290.5 -45q117 0 225 36.5t198 98t175.5 155t154 194.5t137 232t121 251.5t109.5 267.5q-71 53 -157 90 t-176.5 54.5t-187.5 18.5q20 -79 20 -161q0 -95 -26.5 -187t-76 -172.5t-126.5 -143t-172 -93.5l-15 34q72 24 134 67.5t106.5 99t75.5 121t46.5 135.5t15.5 141q0 77 -21 157q-134 -4 -260.5 -42.5t-232.5 -106t-182.5 -170.5t-104.5 -228l-39 9q30 131 110 238t190 177 t241.5 109.5t270.5 42.5q-23 72 -64.5 132t-100.5 106t-140.5 71.5t-178.5 25.5q-136 0 -258 -38t-215.5 -104t-168.5 -156t-123 -195t-73.5 -218.5t-25.5 -229.5zM1851 722q195 -160 241 -426q45 632 268 1672q-47 -67 -94 -158t-85.5 -182.5t-83 -211t-79 -220.5t-82 -237 t-85.5 -237zM2172 2340l32 18q37 -66 77 -123t59.5 -80t49.5 -56l-11 -16q-2 2 -5.5 5t-16 14t-25 24t-32 35.5t-39 47t-43 59t-46.5 72.5z" />
<glyph unicode="&#xc1;" d="M-153 309q0 119 26.5 235t77.5 223t130.5 198.5t178.5 159t229.5 106t276.5 38.5q83 0 156.5 -18t130 -49.5t102.5 -76t77 -96.5t50 -112q150 -1 289 -44t248 -125q48 125 115.5 313t114 313.5t103 263t112.5 234.5t113 155l50 -22q-145 -605 -223 -1113t-78 -890 q0 -972 514 -972q81 0 145.5 21.5t113.5 64t85 97t67 128.5l41 -13q-64 -160 -171.5 -242t-254.5 -82q-128 0 -227.5 46.5t-166.5 130t-110 207t-62 271.5t-19 330q0 19 1 58.5t1 60.5q0 385 -241 590q-42 -114 -81.5 -210t-89 -201t-98.5 -191t-109.5 -172t-123 -152.5 t-137.5 -125t-155 -97t-173 -60t-194 -21.5q-165 0 -304 46.5t-235.5 126t-164 187t-99 229t-31.5 252.5zM-105 309q0 -128 30 -246.5t94 -223t156 -182t224.5 -122.5t290.5 -45q117 0 225 36.5t198 98t175.5 155t154 194.5t137 232t121 251.5t109.5 267.5q-71 53 -157 90 t-176.5 54.5t-187.5 18.5q20 -79 20 -161q0 -95 -26.5 -187t-76 -172.5t-126.5 -143t-172 -93.5l-15 34q72 24 134 67.5t106.5 99t75.5 121t46.5 135.5t15.5 141q0 77 -21 157q-134 -4 -260.5 -42.5t-232.5 -106t-182.5 -170.5t-104.5 -228l-39 9q30 131 110 238t190 177 t241.5 109.5t270.5 42.5q-23 72 -64.5 132t-100.5 106t-140.5 71.5t-178.5 25.5q-136 0 -258 -38t-215.5 -104t-168.5 -156t-123 -195t-73.5 -218.5t-25.5 -229.5zM1851 722q195 -160 241 -426q45 632 268 1672q-47 -67 -94 -158t-85.5 -182.5t-83 -211t-79 -220.5t-82 -237 t-85.5 -237zM2410 2119q102 113 186 262l30 -19q-31 -51 -63.5 -96.5t-56.5 -73.5t-43.5 -48.5t-29.5 -29.5l-10 -8z" />
<glyph unicode="&#xc2;" d="M-153 309q0 119 26.5 235t77.5 223t130.5 198.5t178.5 159t229.5 106t276.5 38.5q83 0 156.5 -18t130 -49.5t102.5 -76t77 -96.5t50 -112q150 -1 289 -44t248 -125q48 125 115.5 313t114 313.5t103 263t112.5 234.5t113 155l50 -22q-145 -605 -223 -1113t-78 -890 q0 -972 514 -972q81 0 145.5 21.5t113.5 64t85 97t67 128.5l41 -13q-64 -160 -171.5 -242t-254.5 -82q-128 0 -227.5 46.5t-166.5 130t-110 207t-62 271.5t-19 330q0 19 1 58.5t1 60.5q0 385 -241 590q-42 -114 -81.5 -210t-89 -201t-98.5 -191t-109.5 -172t-123 -152.5 t-137.5 -125t-155 -97t-173 -60t-194 -21.5q-165 0 -304 46.5t-235.5 126t-164 187t-99 229t-31.5 252.5zM-105 309q0 -128 30 -246.5t94 -223t156 -182t224.5 -122.5t290.5 -45q117 0 225 36.5t198 98t175.5 155t154 194.5t137 232t121 251.5t109.5 267.5q-71 53 -157 90 t-176.5 54.5t-187.5 18.5q20 -79 20 -161q0 -95 -26.5 -187t-76 -172.5t-126.5 -143t-172 -93.5l-15 34q72 24 134 67.5t106.5 99t75.5 121t46.5 135.5t15.5 141q0 77 -21 157q-134 -4 -260.5 -42.5t-232.5 -106t-182.5 -170.5t-104.5 -228l-39 9q30 131 110 238t190 177 t241.5 109.5t270.5 42.5q-23 72 -64.5 132t-100.5 106t-140.5 71.5t-178.5 25.5q-136 0 -258 -38t-215.5 -104t-168.5 -156t-123 -195t-73.5 -218.5t-25.5 -229.5zM1851 722q195 -160 241 -426q45 632 268 1672q-47 -67 -94 -158t-85.5 -182.5t-83 -211t-79 -220.5t-82 -237 t-85.5 -237zM2140 2099q123 100 222 236h33q10 -18 27 -48.5t25.5 -45.5t21.5 -38t19.5 -36l14.5 -29l13.5 -27t9.5 -21l-33 -17q-52 117 -125 225q-26 -35 -57.5 -69.5t-57.5 -60t-48.5 -45.5t-35.5 -30l-13 -10z" />
<glyph unicode="&#xc3;" d="M-153 309q0 119 26.5 235t77.5 223t130.5 198.5t178.5 159t229.5 106t276.5 38.5q83 0 156.5 -18t130 -49.5t102.5 -76t77 -96.5t50 -112q150 -1 289 -44t248 -125q48 125 115.5 313t114 313.5t103 263t112.5 234.5t113 155l50 -22q-145 -605 -223 -1113t-78 -890 q0 -972 514 -972q81 0 145.5 21.5t113.5 64t85 97t67 128.5l41 -13q-64 -160 -171.5 -242t-254.5 -82q-128 0 -227.5 46.5t-166.5 130t-110 207t-62 271.5t-19 330q0 19 1 58.5t1 60.5q0 385 -241 590q-42 -114 -81.5 -210t-89 -201t-98.5 -191t-109.5 -172t-123 -152.5 t-137.5 -125t-155 -97t-173 -60t-194 -21.5q-165 0 -304 46.5t-235.5 126t-164 187t-99 229t-31.5 252.5zM-105 309q0 -128 30 -246.5t94 -223t156 -182t224.5 -122.5t290.5 -45q117 0 225 36.5t198 98t175.5 155t154 194.5t137 232t121 251.5t109.5 267.5q-71 53 -157 90 t-176.5 54.5t-187.5 18.5q20 -79 20 -161q0 -95 -26.5 -187t-76 -172.5t-126.5 -143t-172 -93.5l-15 34q72 24 134 67.5t106.5 99t75.5 121t46.5 135.5t15.5 141q0 77 -21 157q-134 -4 -260.5 -42.5t-232.5 -106t-182.5 -170.5t-104.5 -228l-39 9q30 131 110 238t190 177 t241.5 109.5t270.5 42.5q-23 72 -64.5 132t-100.5 106t-140.5 71.5t-178.5 25.5q-136 0 -258 -38t-215.5 -104t-168.5 -156t-123 -195t-73.5 -218.5t-25.5 -229.5zM1851 722q195 -160 241 -426q45 632 268 1672q-47 -67 -94 -158t-85.5 -182.5t-83 -211t-79 -220.5t-82 -237 t-85.5 -237zM2211 2119q41 53 115 53q37 0 109 -16t102 -16q24 0 42 3t32 9t23 12t20 16l25 -35q-45 -42 -107 -42q-42 0 -122.5 23t-116.5 23q-64 0 -101 -48z" />
<glyph unicode="&#xc4;" d="M-153 309q0 119 26.5 235t77.5 223t130.5 198.5t178.5 159t229.5 106t276.5 38.5q83 0 156.5 -18t130 -49.5t102.5 -76t77 -96.5t50 -112q150 -1 289 -44t248 -125q48 125 115.5 313t114 313.5t103 263t112.5 234.5t113 155l50 -22q-145 -605 -223 -1113t-78 -890 q0 -972 514 -972q81 0 145.5 21.5t113.5 64t85 97t67 128.5l41 -13q-64 -160 -171.5 -242t-254.5 -82q-128 0 -227.5 46.5t-166.5 130t-110 207t-62 271.5t-19 330q0 19 1 58.5t1 60.5q0 385 -241 590q-42 -114 -81.5 -210t-89 -201t-98.5 -191t-109.5 -172t-123 -152.5 t-137.5 -125t-155 -97t-173 -60t-194 -21.5q-165 0 -304 46.5t-235.5 126t-164 187t-99 229t-31.5 252.5zM-105 309q0 -128 30 -246.5t94 -223t156 -182t224.5 -122.5t290.5 -45q117 0 225 36.5t198 98t175.5 155t154 194.5t137 232t121 251.5t109.5 267.5q-71 53 -157 90 t-176.5 54.5t-187.5 18.5q20 -79 20 -161q0 -95 -26.5 -187t-76 -172.5t-126.5 -143t-172 -93.5l-15 34q72 24 134 67.5t106.5 99t75.5 121t46.5 135.5t15.5 141q0 77 -21 157q-134 -4 -260.5 -42.5t-232.5 -106t-182.5 -170.5t-104.5 -228l-39 9q30 131 110 238t190 177 t241.5 109.5t270.5 42.5q-23 72 -64.5 132t-100.5 106t-140.5 71.5t-178.5 25.5q-136 0 -258 -38t-215.5 -104t-168.5 -156t-123 -195t-73.5 -218.5t-25.5 -229.5zM1851 722q195 -160 241 -426q45 632 268 1672q-47 -67 -94 -158t-85.5 -182.5t-83 -211t-79 -220.5t-82 -237 t-85.5 -237zM2322 2202q0 14 8 26.5t21 12.5t20.5 -9.5t7.5 -25.5q0 -15 -8 -27t-22 -12q-27 0 -27 35zM2528 2202q0 14 8.5 26.5t21.5 12.5q27 0 27 -35q0 -15 -8 -27t-22 -12q-27 0 -27 35z" />
<glyph unicode="&#xc5;" d="M-153 309q0 119 26.5 235t77.5 223t130.5 198.5t178.5 159t229.5 106t276.5 38.5q83 0 156.5 -18t130 -49.5t102.5 -76t77 -96.5t50 -112q150 -1 289 -44t248 -125q48 124 113.5 307t111 308t100.5 260.5t110 233.5t110 159q-52 26 -52 101q0 60 38 109.5t102 49.5 q50 0 76.5 -32.5t26.5 -80.5q0 -60 -35.5 -107.5t-94.5 -50.5h2q-145 -605 -223 -1113t-78 -890q0 -972 514 -972q81 0 145.5 21.5t113.5 64t85 97t67 128.5l41 -13q-64 -160 -171.5 -242t-254.5 -82q-128 0 -227.5 46.5t-166.5 130t-110 207t-62 271.5t-19 330q0 19 1 58.5 t1 60.5q0 385 -241 590q-42 -114 -81.5 -210t-89 -201t-98.5 -191t-109.5 -172t-123 -152.5t-137.5 -125t-155 -97t-173 -60t-194 -21.5q-165 0 -304 46.5t-235.5 126t-164 187t-99 229t-31.5 252.5zM-105 309q0 -128 30 -246.5t94 -223t156 -182t224.5 -122.5t290.5 -45 q117 0 225 36.5t198 98t175.5 155t154 194.5t137 232t121 251.5t109.5 267.5q-71 53 -157 90t-176.5 54.5t-187.5 18.5q20 -79 20 -161q0 -95 -26.5 -187t-76 -172.5t-126.5 -143t-172 -93.5l-15 34q72 24 134 67.5t106.5 99t75.5 121t46.5 135.5t15.5 141q0 77 -21 157 q-134 -4 -260.5 -42.5t-232.5 -106t-182.5 -170.5t-104.5 -228l-39 9q30 131 110 238t190 177t241.5 109.5t270.5 42.5q-23 72 -64.5 132t-100.5 106t-140.5 71.5t-178.5 25.5q-136 0 -258 -38t-215.5 -104t-168.5 -156t-123 -195t-73.5 -218.5t-25.5 -229.5zM1851 722 q195 -160 241 -426q45 632 268 1672q-47 -67 -94 -158t-85.5 -182.5t-83 -211t-79 -220.5t-82 -237t-85.5 -237zM2337 2115q0 -26 8.5 -47t26.5 -34.5t44 -13.5q50 0 81 45.5t31 99.5q0 39 -19.5 65.5t-56.5 26.5q-50 0 -82.5 -45t-32.5 -97z" />
<glyph unicode="&#xc6;" horiz-adv-x="3215" d="M28 307q0 118 25.5 233.5t74.5 222.5t125 198.5t170.5 159.5t218 106.5t262.5 38.5q83 0 158 -17t138 -48t114 -77.5t87 -104.5t55 -130t19 -153q0 -95 -26 -187t-75 -173t-126 -144.5t-172 -95.5l-19 41q90 33 163 92t120 133.5t72.5 160.5t25.5 175q0 123 -41 220.5 t-113.5 160.5t-168.5 96t-209 33t-216.5 -28.5t-186.5 -79t-153.5 -120t-122 -153t-87.5 -176t-54 -190.5t-18 -196q0 -126 29 -242.5t90 -219t149 -178t214 -119t278 -43.5q370 0 632 391q179 268 348 796q48 153 131 439q-97 28 -170.5 75t-117 103t-65 116t-21.5 123 l46 6q0 -58 19.5 -115t58.5 -110t105 -98t151 -73q48 163 74.5 252t68 217.5t80.5 225t80 176.5l59 -20q-6 -87 -33 -395t-40 -500h18q101 0 210 19q-42 123 -42 272q0 93 16 182.5t49.5 171t81 142.5t115.5 97.5t148 36.5t138 -38t88 -104t30 -153q0 -71 -21.5 -145 t-68 -148.5t-112.5 -138.5t-163.5 -115t-213.5 -77q56 -145 156 -188q58 10 82 10q23 0 34.5 -7t11.5 -16q0 -13 -13.5 -21.5t-36.5 -8.5q-45 0 -97 19q-261 -43 -433 -250q-2 -68 -2 -207q0 -955 289 -955q77 0 146.5 22t124.5 60.5t101.5 91t79.5 113.5t56 128t34 134.5 t11 132.5q0 102 -25.5 182t-80 130t-130.5 50q-64 0 -116.5 -31t-86.5 -83t-52.5 -116.5t-18.5 -133.5q0 -120 53 -214q-11 -11 -20 -11q-21 0 -38.5 44.5t-25.5 94.5t-8 84q0 73 21.5 142.5t60 124.5t98.5 89t133 34q90 0 155.5 -55.5t96 -144.5t30.5 -200q0 -79 -17 -159 t-49.5 -157.5t-84.5 -144.5t-117.5 -118.5t-153 -81t-186.5 -29.5q-101 0 -187 33t-147 91t-104.5 136t-64 168.5t-20.5 188.5q0 158 53.5 311t157.5 272q9 284 18 422q-138 7 -227 31q-138 -494 -230 -738q-192 -510 -443 -725q-208 -179 -476 -179q-157 0 -288.5 45.5 t-223 123.5t-155.5 184t-94 225.5t-30 249.5zM1975 1147q100 -28 220 -35q11 168 33 458.5t29 399.5q-51 -98 -104 -245t-87 -260.5t-91 -317.5zM2007 71q0 -104 24.5 -197.5t71 -170t121.5 -129.5t171 -71q-220 141 -220 976q0 21 1 63t1 64q-82 -115 -126 -256t-44 -279z M2213 707q164 164 400 210q-92 57 -145 191q-105 -18 -216 -18h-18q-15 -226 -21 -383zM2456 1408q0 -148 42 -268q110 26 202.5 77t154.5 113.5t105 136t62.5 145.5t19.5 141q0 104 -45.5 175t-122.5 79q-6 0 -17.5 1t-17.5 1q-63 0 -118 -24t-96.5 -67t-74 -100 t-53 -124.5t-31 -139.5t-10.5 -146z" />
<glyph unicode="&#xc7;" horiz-adv-x="2136" d="M68 961q0 86 23 168t69 153t109.5 124.5t149.5 84t185 30.5q62 0 114 -17t83 -42l-28 -44q-68 57 -167 57q-93 0 -173.5 -28t-139.5 -77.5t-101 -115t-63 -141.5t-21 -157q0 -91 27 -178t86 -166.5t144 -139.5t209 -95t273 -35q10 0 24 0.5l28 1t25 0.5q3 159 26.5 327.5 t67 332t102.5 316t135.5 281t162 224.5t187.5 150t207 54q106 0 179.5 -54t108 -145t34.5 -213q0 -90 -20 -190t-57.5 -203t-95 -206t-130 -198t-166 -178.5t-198.5 -149t-232 -109t-263 -57.5v-48q0 -132 15 -247t48 -214t81.5 -169.5t118.5 -111.5t157 -43q13 48 24.5 110 t19 120.5t16.5 124t17.5 124.5t21.5 118.5t28 109t38 92.5t51 73t67 47t87 17q72 0 122.5 -40.5t73.5 -107t23 -152.5q0 -71 -16.5 -146t-48 -148.5t-81 -139.5t-111 -116t-142.5 -80t-171 -31q-26 -80 -60 -127q42 15 89 15q75 0 116.5 -38.5t41.5 -92.5q0 -64 -53 -112.5 t-144 -48.5q-144 0 -173 115l50 13q5 -19 13.5 -36.5t23.5 -33.5t38.5 -25.5t54.5 -9.5q61 0 100.5 45t39.5 100q0 43 -28.5 71.5t-83.5 28.5q-16 0 -28.5 -0.5t-23 -4t-16 -4.5t-14.5 -8.5t-11.5 -9.5t-13.5 -13l-14 -14l-26 26q38 38 57.5 72t38.5 94q-97 4 -175 50 t-131 122.5t-88 184t-51 230.5t-16 264q-13 0 -38.5 -1t-38.5 -1q-157 0 -288 36.5t-220.5 98.5t-151.5 145t-90.5 174t-28.5 188zM972 348q133 15 256.5 58.5t224.5 108t190.5 147.5t158 176.5t123 194.5t89.5 202.5t53 199t18 185.5q0 114 -29 200t-91.5 136.5 t-152.5 50.5q-98 0 -192.5 -53.5t-175 -148t-152.5 -221.5t-127.5 -277t-97.5 -311t-66 -326.5t-29 -321.5zM1420 -510q83 4 157.5 34.5t130.5 80t101 113.5t73.5 135t43.5 143t15 140q0 111 -40.5 185t-116.5 82h-22q-56 0 -99 -32t-70.5 -91t-47.5 -130t-34.5 -160.5 t-26.5 -171t-28.5 -172.5t-35.5 -156z" />
<glyph unicode="&#xc8;" horiz-adv-x="1664" d="M9 1534q0 -65 24.5 -127t79 -120t133 -101.5t196 -69.5t258.5 -26q109 0 215 18q53 -134 145 -191q-127 -25 -234.5 -85.5t-182.5 -142.5t-127.5 -182.5t-77.5 -207t-25 -214.5q0 -81 15 -158t44 -146t74 -126t101.5 -99t130.5 -65t158 -23q86 0 162.5 22t137 60.5 t111 91.5t86.5 114.5t61 129.5t37 136.5t12 135.5q0 111 -30.5 200t-95.5 144.5t-156 55.5q-59 0 -110 -23t-87.5 -62t-62.5 -90t-38.5 -108.5t-12.5 -116.5q0 -130 55 -222l37 20q-53 94 -53 214q0 69 18.5 133.5t52 116.5t86 83t115.5 31q76 0 130.5 -50t80 -130 t25.5 -182q0 -76 -15.5 -155t-45 -155.5t-77 -143.5t-106.5 -118t-138.5 -80.5t-169.5 -29.5q-96 0 -177 31t-138.5 85t-97 127.5t-58.5 158.5t-19 179q0 89 18 179.5t53 177.5t90 165t124 140.5t159.5 106.5t192.5 62q51 -19 96 -19q10 0 27 5l6 43q-17 5 -28 5 q-25 0 -83 -10q-99 43 -156 188q74 17 140 43.5t119.5 59.5t99.5 73t80.5 83.5t61.5 89.5t43.5 93t25 92.5t8.5 89.5q0 132 -67.5 213.5t-186.5 81.5q-80 0 -148 -36.5t-116 -97.5t-81.5 -142.5t-49.5 -171t-16 -182.5q0 -149 41 -272q-108 -19 -208 -19q-84 0 -159 10.5 t-135.5 29t-112 44.5t-90 57.5t-68 66.5t-48 73t-28 76t-9.5 77q0 58 21.5 111.5t61 95t100 65.5t132.5 24q99 0 180 -59t127 -150l44 30q-53 89 -145.5 145.5t-205.5 56.5q-80 0 -148 -27.5t-113 -73.5t-70 -105.5t-25 -124.5zM904 1408q0 89 14.5 174.5t46 163t75.5 136 t108 93t139 34.5q5 0 17 -1t18 -1q51 -5 89.5 -40.5t57.5 -90.5t19 -123q0 -69 -19 -141t-62 -145.5t-104.5 -136t-154 -113.5t-203.5 -77q-41 120 -41 268zM1062 2340l32 18q29 -50 56.5 -92.5t54 -76t40 -49.5t35.5 -41l-11 -16q-4 3 -11 9t-29.5 28.5t-45.5 49.5 t-56.5 72.5t-64.5 97.5z" />
<glyph unicode="&#xc9;" horiz-adv-x="1352" d="M-302 1534q0 65 24.5 124.5t69.5 105.5t112.5 73.5t148.5 27.5q113 0 205.5 -56.5t144.5 -145.5l-42 -30q-46 91 -128 150t-180 59q-73 0 -133 -24t-99 -65.5t-60.5 -95t-21.5 -111.5q0 -52 16.5 -102.5t49.5 -99.5t87 -90.5t124 -73.5t165.5 -50t206.5 -18q99 0 208 19 q-40 120 -40 272q0 93 15.5 182.5t49 171t81 142.5t115.5 97.5t148 36.5q120 0 188 -81.5t68 -213.5q0 -71 -21.5 -145t-67.5 -148.5t-112.5 -138.5t-164 -115t-213.5 -77q56 -145 157 -188q58 10 81 10q12 0 28 -5l-4 -43q-17 -5 -28 -5q-45 0 -96 19q-123 -21 -227.5 -80 t-179 -141.5t-127.5 -184t-78.5 -210t-25.5 -215.5q0 -52 6 -101.5t18 -96t30 -89.5t42.5 -81.5t54 -71t66.5 -58.5t78.5 -44.5t91.5 -28.5t104 -10q89 0 168.5 29.5t139 80.5t107 118t77.5 143.5t45.5 155.5t15.5 155q0 102 -25.5 182t-80 130t-130.5 50q-64 0 -116.5 -31 t-86.5 -83t-52.5 -116.5t-18.5 -133.5q0 -120 53 -214l-37 -20q-55 92 -55 222q0 42 6.5 83.5t20 81t32.5 74.5t45.5 64.5t57.5 51t69.5 33.5t81.5 12q91 0 156 -55.5t95.5 -144.5t30.5 -200q0 -79 -17 -159t-49.5 -157.5t-84.5 -144.5t-117.5 -118.5t-153 -81t-186.5 -29.5 q-84 0 -158 23t-131 65t-101.5 99t-73.5 126t-44 146t-15 158q0 108 25 214.5t77.5 207t128 182.5t182.5 142.5t234 85.5q-92 57 -144 191q-106 -18 -216 -18q-119 0 -221 18t-176 50.5t-131 74.5t-92 92.5t-52.5 103t-17.5 105.5zM591 1408q0 -148 42 -268q111 26 203 77 t154 113.5t105 136t62.5 145.5t19.5 141q0 104 -45 175t-123 79q-5 0 -17 1t-18 1q-75 0 -138.5 -34.5t-108 -93t-75.5 -136t-46 -163t-15 -174.5zM965 2143q104 114 186 261l31 -18q-32 -52 -64.5 -97.5t-56.5 -73t-44 -48.5t-30 -29l-10 -9z" />
<glyph unicode="&#xca;" horiz-adv-x="1352" d="M-302 1534q0 -65 24 -127t78.5 -120t133 -101.5t195.5 -69.5t259 -26q110 0 216 18q52 -134 144 -191q-127 -25 -234 -85.5t-182.5 -142.5t-128 -182.5t-77.5 -207t-25 -214.5q0 -81 15 -158t44 -146t73.5 -126t101.5 -99t131 -65t158 -23q99 0 186.5 29.5t153 81 t117.5 118.5t84.5 144.5t49.5 157.5t17 159q0 111 -30.5 200t-95.5 144.5t-156 55.5q-60 0 -111 -23t-87.5 -62t-62.5 -90t-39 -108.5t-13 -116.5q0 -130 55 -222l37 20q-53 94 -53 214q0 69 18.5 133.5t52.5 116.5t86.5 83t116.5 31q57 0 103 -28.5t74.5 -78.5t43.5 -115 t15 -140q0 -50 -6.5 -102.5t-20.5 -105t-34 -103t-48 -98t-61.5 -88.5t-75 -75t-88.5 -58.5t-103 -38t-116 -13.5q-97 0 -178 31t-138 85t-97 127.5t-59 158.5t-19 179q0 107 25.5 215.5t78.5 210t127.5 184t179 141.5t227.5 80q51 -19 96 -19q11 0 28 5l4 43q-16 5 -28 5 q-23 0 -81 -10q-101 43 -157 188q116 26 213.5 77t164 115t112.5 138.5t67.5 148.5t21.5 145q0 132 -68 213.5t-188 81.5q-67 0 -125.5 -25.5t-103 -70.5t-79.5 -105t-57 -130.5t-33 -146t-11 -152.5q0 -152 40 -272q-109 -19 -208 -19q-133 0 -243 26t-184 68.5t-125 99.5 t-74 117t-23 123q0 58 21.5 111.5t60.5 95t99 65.5t133 24q98 0 180 -59t128 -150l42 30q-52 89 -144.5 145.5t-205.5 56.5q-81 0 -148.5 -27.5t-112.5 -73.5t-69.5 -105.5t-24.5 -124.5zM591 1408q0 89 15 174.5t46 163t75.5 136t108 93t138.5 34.5q6 0 18 -1t17 -1 q52 -5 90.5 -40t58 -90.5t19.5 -123.5q0 -57 -14 -117t-41.5 -121t-73 -118.5t-104 -107t-138.5 -88.5t-173 -61q-42 120 -42 268zM814 2191q126 102 223 236h31q11 -18 28 -49t25.5 -46t21 -38t19.5 -35.5t15 -28.5t13.5 -27.5t9.5 -20.5l-33 -17q-53 116 -125 225 q-19 -25 -41 -50.5t-41.5 -46.5t-39.5 -40t-36 -33t-28 -24t-19 -16l-7 -5z" />
<glyph unicode="&#xcb;" horiz-adv-x="1664" d="M9 1534q0 -65 24.5 -127t79 -120t133 -101.5t196 -69.5t258.5 -26q109 0 215 18q53 -134 145 -191q-127 -25 -234.5 -85.5t-182.5 -142.5t-127.5 -182.5t-77.5 -207t-25 -214.5q0 -81 15 -158t44 -146t74 -126t101.5 -99t130.5 -65t158 -23q86 0 162.5 22t137 60.5 t111 91.5t86.5 114.5t61 129.5t37 136.5t12 135.5q0 111 -30.5 200t-95.5 144.5t-156 55.5q-59 0 -110 -23t-87.5 -62t-62.5 -90t-38.5 -108.5t-12.5 -116.5q0 -130 55 -222l37 20q-53 94 -53 214q0 69 18.5 133.5t52 116.5t86 83t115.5 31q76 0 130.5 -50t80 -130 t25.5 -182q0 -76 -15.5 -155t-45 -155.5t-77 -143.5t-106.5 -118t-138.5 -80.5t-169.5 -29.5q-96 0 -177 31t-138.5 85t-97 127.5t-58.5 158.5t-19 179q0 89 18 179.5t53 177.5t90 165t124 140.5t159.5 106.5t192.5 62q51 -19 96 -19q10 0 27 5l6 43q-17 5 -28 5 q-25 0 -83 -10q-99 43 -156 188q74 17 140 43.5t119.5 59.5t99.5 73t80.5 83.5t61.5 89.5t43.5 93t25 92.5t8.5 89.5q0 132 -67.5 213.5t-186.5 81.5q-80 0 -148 -36.5t-116 -97.5t-81.5 -142.5t-49.5 -171t-16 -182.5q0 -149 41 -272q-108 -19 -208 -19q-84 0 -159 10.5 t-135.5 29t-112 44.5t-90 57.5t-68 66.5t-48 73t-28 76t-9.5 77q0 58 21.5 111.5t61 95t100 65.5t132.5 24q99 0 180 -59t127 -150l44 30q-53 89 -145.5 145.5t-205.5 56.5q-80 0 -148 -27.5t-113 -73.5t-70 -105.5t-25 -124.5zM904 1408q0 89 14.5 174.5t46 163t75.5 136 t108 93t139 34.5q5 0 17 -1t18 -1q51 -5 89.5 -40.5t57.5 -90.5t19 -123q0 -69 -19 -141t-62 -145.5t-104.5 -136t-154 -113.5t-203.5 -77q-41 120 -41 268zM1186 2180q0 14 8 26t21 12t20.5 -9.5t7.5 -24.5t-8 -27t-22 -12q-27 0 -27 35zM1392 2180q0 14 9 26t21 12 q27 0 27 -34q0 -15 -7.5 -27t-21.5 -12q-13 0 -20.5 9.5t-7.5 25.5z" />
<glyph unicode="&#xcc;" horiz-adv-x="1184" d="M46 711q0 -103 31.5 -187.5t88 -141t134.5 -87.5t170 -31q76 0 139.5 28.5t103.5 75.5t61.5 104.5t21.5 118.5q0 88 -45 159t-129 101l-18 -41q74 -25 112.5 -88.5t38.5 -141.5q0 -54 -19 -106t-53.5 -94t-89.5 -67.5t-123 -25.5q-173 0 -275.5 115.5t-102.5 308.5 q0 81 23 158.5t62.5 143t95.5 130t119.5 119t137 110t145.5 103t147 98t140 94.5t126 93t103 94q-55 -227 -105 -468t-84 -418.5t-82.5 -481t-72.5 -459t-83 -548.5h46q71 525 128 893.5t132 762t166 773.5q29 55 35 106l-37 9q-2 -6 -7 -20.5t-7.5 -24t-6.5 -23.5 t-7.5 -29.5t-5.5 -32.5q-41 -45 -108 -98t-142.5 -104t-163.5 -108t-174 -117t-170 -125t-155 -137.5t-125 -148.5t-85 -164.5t-31 -179.5zM1042 2340l31 18q37 -66 77 -123t59.5 -80t49.5 -56l-11 -16q-2 2 -6 5t-16 14t-24.5 24t-31.5 35.5t-38.5 47t-43.5 59t-46 72.5z " />
<glyph unicode="&#xcd;" horiz-adv-x="1184" d="M46 711q0 91 31 179.5t85 164.5t125 148.5t155 137.5t170 125t174 117t163.5 108t142.5 104t108 98q3 21 8 42t8 31t10 31.5t8 25.5l37 -9q-6 -51 -35 -106q-132 -552 -225.5 -1095.5t-200.5 -1333.5h-46q50 335 69 460.5t61 392.5t67.5 408t65 352.5t79 391t85.5 370.5 q-42 -45 -103 -94t-126 -93t-140 -94.5t-147 -98t-145.5 -103t-137 -110t-119.5 -119t-95.5 -130t-62.5 -143t-23 -158.5q0 -193 102.5 -308.5t275.5 -115.5q68 0 123 25.5t89.5 67.5t53.5 94t19 106q0 51 -16 96t-51 81t-84 53l18 41q84 -30 129 -101t45 -159 q0 -61 -21.5 -118.5t-61.5 -104.5t-103.5 -75.5t-139.5 -28.5q-74 0 -139 19.5t-117 57.5t-89.5 91.5t-58 124.5t-20.5 154zM1263 2143q103 114 186 261l31 -18q-32 -52 -64.5 -97.5t-56.5 -73t-43.5 -48.5t-29.5 -29l-10 -9z" />
<glyph unicode="&#xce;" horiz-adv-x="1184" d="M46 711q0 -103 31.5 -187.5t88 -141t134.5 -87.5t170 -31q76 0 139.5 28.5t103.5 75.5t61.5 104.5t21.5 118.5q0 88 -45 159t-129 101l-18 -41q74 -25 112.5 -88.5t38.5 -141.5q0 -54 -19 -106t-53.5 -94t-89.5 -67.5t-123 -25.5q-173 0 -275.5 115.5t-102.5 308.5 q0 81 23 158.5t62.5 143t95.5 130t119.5 119t137 110t145.5 103t147 98t140 94.5t126 93t103 94q-55 -227 -105 -468t-84 -418.5t-82.5 -481t-72.5 -459t-83 -548.5h46q71 525 128 893.5t132 762t166 773.5q29 55 35 106l-37 9q-2 -6 -7 -20.5t-7.5 -24t-6.5 -23.5 t-7.5 -29.5t-5.5 -32.5q-41 -45 -108 -98t-142.5 -104t-163.5 -108t-174 -117t-170 -125t-155 -137.5t-125 -148.5t-85 -164.5t-31 -179.5zM1066 2099q126 102 223 236h33q113 -202 130 -245l-32 -17q-50 111 -126 225q-41 -55 -93.5 -109t-85.5 -80l-32 -26z" />
<glyph unicode="&#xcf;" horiz-adv-x="1184" d="M46 711q0 -103 31.5 -187.5t88 -141t134.5 -87.5t170 -31q76 0 139.5 28.5t103.5 75.5t61.5 104.5t21.5 118.5q0 88 -45 159t-129 101l-18 -41q74 -25 112.5 -88.5t38.5 -141.5q0 -54 -19 -106t-53.5 -94t-89.5 -67.5t-123 -25.5q-173 0 -275.5 115.5t-102.5 308.5 q0 81 23 158.5t62.5 143t95.5 130t119.5 119t137 110t145.5 103t147 98t140 94.5t126 93t103 94q-55 -227 -105 -468t-84 -418.5t-82.5 -481t-72.5 -459t-83 -548.5h46q71 525 128 893.5t132 762t166 773.5q29 55 35 106l-37 9q-2 -6 -7 -20.5t-7.5 -24t-6.5 -23.5 t-7.5 -29.5t-5.5 -32.5q-41 -45 -108 -98t-142.5 -104t-163.5 -108t-174 -117t-170 -125t-155 -137.5t-125 -148.5t-85 -164.5t-31 -179.5zM1129 2134q0 14 8 26t21 12t20.5 -9.5t7.5 -24.5t-8 -27t-22 -12q-27 0 -27 35zM1357 2134q0 14 9 26t22 12t20.5 -9.5t7.5 -24.5 q0 -9 -3.5 -18t-10.5 -15t-17 -6q-13 0 -20.5 9.5t-7.5 25.5z" />
<glyph unicode="&#xd0;" horiz-adv-x="2059" d="M-13 -374q0 67 65 115t191 48q22 0 45 -3.5t40.5 -7.5t43.5 -15.5t39 -17t43 -23t39.5 -23t44 -27.5t42.5 -27q205 198 317 672q-20 -2 -65 -2q-94 0 -178 21t-151.5 59.5t-123.5 92.5t-96 119.5t-68 140.5t-41.5 155.5t-13.5 164.5q0 100 18.5 199t56.5 194t92 179.5 t130 156t165.5 123t203 80.5t238.5 29q122 0 229.5 -33t192 -93t153.5 -145t118 -187t82 -219.5t49 -242.5t16 -258q0 -126 -15 -252.5t-43 -247t-71 -233t-96.5 -211t-122 -179.5t-146 -138.5t-169.5 -89.5t-190 -32q-140 0 -250 36.5t-216 99.5q-160 -136 -392 -136 q-94 0 -150 47t-56 111zM28 -379q0 -53 46 -92t125 -39q207 0 357 131q-15 10 -48 31.5t-48.5 30.5t-43 25.5t-45.5 24.5t-42 17t-46 12.5t-44 3.5q-101 0 -156 -43.5t-55 -101.5zM206 1071q0 -116 24.5 -223t75.5 -200t124.5 -162t177 -109t226.5 -40q45 0 68 2 q44 204 75 477q64 581 172 902l39 -11q-110 -313 -170 -891q-26 -258 -73 -472q93 14 172 53t134 92.5t93.5 119t57 134.5t18.5 137q0 80 -26 149.5t-75 115.5l21 30q57 -47 86.5 -121.5t29.5 -163.5q0 -73 -20 -146.5t-62.5 -143.5t-102 -127t-145.5 -97.5t-187 -54.5 q-112 -491 -331 -695q50 -30 93.5 -51.5t99 -42t118.5 -31.5t132 -11q121 0 231 55t196.5 151.5t157.5 227t117 282t71 317t25 330.5q0 131 -15 254t-46.5 238.5t-78 215.5t-113 183t-147 141.5t-184 91t-221.5 32.5q-116 0 -220.5 -28.5t-188 -79t-153.5 -120 t-120.5 -152.5t-86 -175.5t-52.5 -189t-17 -193.5zM613 -2l4 28h411l-5 -28h-410z" />
<glyph unicode="&#xd1;" horiz-adv-x="2283" d="M39 103q0 109 24.5 214.5t75 200.5t121 167t170 114.5t214.5 42.5q87 0 160.5 -36t122.5 -96t76 -136.5t27 -157.5q0 -161 -96 -278l-35 27q94 125 94 264q0 76 -27.5 147.5t-74.5 124.5t-112.5 85.5t-136.5 32.5q-105 0 -196.5 -42t-157 -114t-112.5 -165.5t-70 -197.5 t-23 -210q0 -93 17.5 -178.5t56 -160t93.5 -130t134.5 -87t175.5 -31.5q123 0 241.5 52.5t217.5 144.5t186.5 216t154.5 268.5t115.5 300t74.5 311.5q-77 198 -127 344.5t-86.5 302t-36.5 264.5q0 68 27 107.5t67 39.5q44 0 83 -52t68 -144t46 -228t17 -294q0 -113 -23 -289 q10 -26 53.5 -137.5t58 -150.5t51.5 -135t55.5 -149t46 -131t47 -142t36.5 -124q16 319 59 609.5t107.5 530t151 434t188 328t219.5 205.5t244 72q112 0 194.5 -47.5t105.5 -109.5l-41 -22q-20 65 -96.5 103.5t-183.5 38.5q-115 0 -225.5 -72.5t-208.5 -206.5t-183 -333.5 t-148.5 -443t-104.5 -544.5t-52 -631l16 -76q6 -35 13.5 -109.5t7.5 -113.5v-11h-67q-5 56 -5 94q0 64 5 147v24q-17 78 -44 168.5t-70 208t-72 193t-90 228.5t-84 211q-25 -129 -63 -256.5t-92.5 -254t-119.5 -238.5t-147 -209t-173 -166.5t-199.5 -109.5t-223.5 -40 q-101 0 -186 34t-144 93t-100.5 138.5t-61.5 170t-20 188.5zM1333 1711q0 -126 60 -324t172 -488q15 138 15 228q0 195 -26 358.5t-69 254t-91 90.5q-61 0 -61 -119zM1845 1936q41 53 114 53q36 0 108.5 -16t101.5 -16q46 0 70.5 9.5t47.5 29.5l25 -35q-45 -41 -108 -41 q-41 0 -121.5 23t-116.5 23q-65 0 -101 -49z" />
<glyph unicode="&#xd2;" horiz-adv-x="2559" d="M68 961q0 -97 28.5 -188t90.5 -174t151.5 -145t220.5 -98.5t288 -36.5q56 0 84 2q0 -143 19 -268.5t59.5 -233.5t100 -185.5t146 -121.5t193.5 -44q108 0 211 44.5t189 123.5t164 187.5t139 236.5t110 271t81.5 291t49.5 296t17 286q0 136 -16.5 254.5t-50 217t-87 169 t-122.5 103.5l-15 -28q62 -34 109 -101.5t76 -160.5t43.5 -204t14.5 -239q0 -120 -13 -249.5t-38 -260t-61.5 -259t-85 -248.5t-105.5 -226.5t-126 -195t-144.5 -152t-163 -99t-178.5 -35.5q-99 0 -179 43.5t-134 118.5t-90.5 181.5t-53 229t-16.5 263.5q135 14 262 58 t231.5 109.5t198 149.5t165.5 179t130 197.5t95.5 205.5t57.5 202.5t20 189.5q0 122 -34.5 213t-108 145t-179.5 54q-105 0 -207 -54t-188 -150t-162.5 -224.5t-134.5 -281t-100.5 -316t-65 -332.5t-23.5 -327q-28 -2 -84 -2q-149 0 -273 35t-209 95t-144 139.5t-86 166.5 t-27 178q0 81 21 157t63 141.5t101 115t139.5 77.5t173.5 28q105 0 178 -50l28 39q-26 16 -49 26.5t-48 17.5t-51.5 10t-59.5 3q-99 0 -185 -30.5t-149.5 -84t-109.5 -124.5t-69 -153t-23 -168zM974 348q3 156 25.5 321.5t64 326.5t97 311t128 277t153.5 221.5t176.5 148 t193.5 53.5q90 0 152.5 -50.5t91.5 -136.5t29 -200q0 -101 -23 -213.5t-70.5 -229.5t-114.5 -229t-161 -213.5t-204 -181.5t-248.5 -134t-289.5 -71zM1714 2340l32 18q81 -144 185 -259l-11 -16q-2 2 -6 5t-16 14t-24.5 24t-31.5 35.5t-38.5 47t-43.5 59t-46 72.5z" />
<glyph unicode="&#xd3;" horiz-adv-x="2559" d="M68 961q0 86 23 168t69 153t109.5 124.5t149.5 84t185 30.5q64 0 110 -13t98 -44l-28 -39q-73 50 -178 50q-93 0 -173.5 -28t-139.5 -77.5t-101 -115t-63 -141.5t-21 -157q0 -91 27 -178t86 -166.5t144 -139.5t209 -95t273 -35q56 0 84 2q1 158 23.5 327t65 332.5 t100.5 316t134.5 281t162.5 224.5t188 150t207 54q106 0 179.5 -54t108 -145t34.5 -213q0 -90 -20 -189.5t-57.5 -202.5t-95.5 -205.5t-130 -197.5t-165.5 -179t-198 -149.5t-231.5 -109.5t-262 -58q0 -141 16.5 -263.5t53 -229t90.5 -181.5t134 -118.5t179 -43.5 q102 0 199.5 44.5t179.5 123.5t156.5 187t132.5 236t105 270t78 289t47.5 293t16.5 282q0 172 -25 311.5t-80.5 244t-137.5 149.5l15 28q69 -33 122.5 -103.5t87 -169t50 -217t16.5 -254.5q0 -138 -17 -286t-49.5 -296t-81.5 -291t-110 -271t-139 -236.5t-164 -187.5 t-189 -123.5t-211 -44.5q-107 0 -193.5 44t-146 121.5t-100 185.5t-59.5 233.5t-19 268.5q-28 -2 -84 -2q-157 0 -288 36.5t-220.5 98.5t-151.5 145t-90.5 174t-28.5 188zM974 348q151 17 289.5 71t248.5 134t204 181.5t161 213.5t114.5 229t70.5 229.5t23 213.5 q0 114 -29 200t-91.5 136.5t-152.5 50.5q-98 0 -193.5 -53.5t-176.5 -148t-153.5 -221.5t-128 -277t-97 -311t-64 -326.5t-25.5 -321.5zM1837 2143q103 114 186 261l30 -18q-31 -52 -63.5 -97.5t-57 -73t-44 -48.5t-29.5 -29l-10 -9z" />
<glyph unicode="&#xd4;" horiz-adv-x="2559" d="M68 961q0 -97 28.5 -188t90.5 -174t151.5 -145t220.5 -98.5t288 -36.5q56 0 84 2q0 -143 19 -268.5t59.5 -233.5t100 -185.5t146 -121.5t193.5 -44q108 0 211 44.5t189 123.5t164 187.5t139 236.5t110 271t81.5 291t49.5 296t17 286q0 136 -16.5 254.5t-50 217t-87 169 t-122.5 103.5l-15 -28q62 -34 109 -101.5t76 -160.5t43.5 -204t14.5 -239q0 -120 -13 -249.5t-38 -260t-61.5 -259t-85 -248.5t-105.5 -226.5t-126 -195t-144.5 -152t-163 -99t-178.5 -35.5q-99 0 -179 43.5t-134 118.5t-90.5 181.5t-53 229t-16.5 263.5q135 14 262 58 t231.5 109.5t198 149.5t165.5 179t130 197.5t95.5 205.5t57.5 202.5t20 189.5q0 122 -34.5 213t-108 145t-179.5 54q-105 0 -207 -54t-188 -150t-162.5 -224.5t-134.5 -281t-100.5 -316t-65 -332.5t-23.5 -327q-28 -2 -84 -2q-149 0 -273 35t-209 95t-144 139.5t-86 166.5 t-27 178q0 81 21 157t63 141.5t101 115t139.5 77.5t173.5 28q105 0 178 -50l28 39q-26 16 -49 26.5t-48 17.5t-51.5 10t-59.5 3q-99 0 -185 -30.5t-149.5 -84t-109.5 -124.5t-69 -153t-23 -168zM974 348q3 156 25.5 321.5t64 326.5t97 311t128 277t153.5 221.5t176.5 148 t193.5 53.5q90 0 152.5 -50.5t91.5 -136.5t29 -200q0 -101 -23 -213.5t-70.5 -229.5t-114.5 -229t-161 -213.5t-204 -181.5t-248.5 -134t-289.5 -71zM1686 2167q125 103 222 237h33q113 -202 130 -246l-31 -15q-51 111 -127 225q-19 -26 -40.5 -51.5t-41.5 -46t-39.5 -40 t-35.5 -33.5l-28 -24.5t-19 -15.5l-7 -5z" />
<glyph unicode="&#xd5;" horiz-adv-x="2559" d="M68 961q0 86 23 168t69 153t109.5 124.5t149.5 84t185 30.5q64 0 110 -13t98 -44l-28 -39q-73 50 -178 50q-93 0 -173.5 -28t-139.5 -77.5t-101 -115t-63 -141.5t-21 -157q0 -91 27 -178t86 -166.5t144 -139.5t209 -95t273 -35q56 0 84 2q1 158 23.5 327t65 332.5 t100.5 316t134.5 281t162.5 224.5t188 150t207 54q106 0 179.5 -54t108 -145t34.5 -213q0 -90 -20 -189.5t-57.5 -202.5t-95.5 -205.5t-130 -197.5t-165.5 -179t-198 -149.5t-231.5 -109.5t-262 -58q0 -141 16.5 -263.5t53 -229t90.5 -181.5t134 -118.5t179 -43.5 q102 0 199.5 44.5t179.5 123.5t156.5 187t132.5 236t105 270t78 289t47.5 293t16.5 282q0 172 -25 311.5t-80.5 244t-137.5 149.5l15 28q69 -33 122.5 -103.5t87 -169t50 -217t16.5 -254.5q0 -138 -17 -286t-49.5 -296t-81.5 -291t-110 -271t-139 -236.5t-164 -187.5 t-189 -123.5t-211 -44.5q-107 0 -193.5 44t-146 121.5t-100 185.5t-59.5 233.5t-19 268.5q-28 -2 -84 -2q-157 0 -288 36.5t-220.5 98.5t-151.5 145t-90.5 174t-28.5 188zM974 348q151 17 289.5 71t248.5 134t204 181.5t161 213.5t114.5 229t70.5 229.5t23 213.5 q0 114 -29 200t-91.5 136.5t-152.5 50.5q-98 0 -193.5 -53.5t-176.5 -148t-153.5 -221.5t-128 -277t-97 -311t-64 -326.5t-25.5 -321.5zM1637 2165q42 53 116 53q36 0 108.5 -16t101.5 -16q46 0 70.5 10t47.5 29l25 -34q-45 -42 -108 -42q-34 0 -78 11.5t-87 23t-73 11.5 q-65 0 -101 -48z" />
<glyph unicode="&#xd6;" horiz-adv-x="2559" d="M68 961q0 -97 28.5 -188t90.5 -174t151.5 -145t220.5 -98.5t288 -36.5q56 0 84 2q0 -143 19 -268.5t59.5 -233.5t100 -185.5t146 -121.5t193.5 -44q108 0 211 44.5t189 123.5t164 187.5t139 236.5t110 271t81.5 291t49.5 296t17 286q0 136 -16.5 254.5t-50 217t-87 169 t-122.5 103.5l-15 -28q62 -34 109 -101.5t76 -160.5t43.5 -204t14.5 -239q0 -120 -13 -249.5t-38 -260t-61.5 -259t-85 -248.5t-105.5 -226.5t-126 -195t-144.5 -152t-163 -99t-178.5 -35.5q-99 0 -179 43.5t-134 118.5t-90.5 181.5t-53 229t-16.5 263.5q135 14 262 58 t231.5 109.5t198 149.5t165.5 179t130 197.5t95.5 205.5t57.5 202.5t20 189.5q0 122 -34.5 213t-108 145t-179.5 54q-105 0 -207 -54t-188 -150t-162.5 -224.5t-134.5 -281t-100.5 -316t-65 -332.5t-23.5 -327q-28 -2 -84 -2q-149 0 -273 35t-209 95t-144 139.5t-86 166.5 t-27 178q0 81 21 157t63 141.5t101 115t139.5 77.5t173.5 28q105 0 178 -50l28 39q-26 16 -49 26.5t-48 17.5t-51.5 10t-59.5 3q-99 0 -185 -30.5t-149.5 -84t-109.5 -124.5t-69 -153t-23 -168zM974 348q3 156 25.5 321.5t64 326.5t97 311t128 277t153.5 221.5t176.5 148 t193.5 53.5q90 0 152.5 -50.5t91.5 -136.5t29 -200q0 -101 -23 -213.5t-70.5 -229.5t-114.5 -229t-161 -213.5t-204 -181.5t-248.5 -134t-289.5 -71zM1794 2180q0 14 8.5 26t20.5 12q14 0 21 -9.5t7 -24.5t-8 -27t-22 -12q-27 0 -27 35zM2023 2180q0 14 8.5 26t21.5 12 q9 0 15.5 -4.5t9.5 -12t3 -17.5q0 -15 -8 -27t-22 -12q-13 0 -20.5 9.5t-7.5 25.5z" />
<glyph unicode="&#xd7;" horiz-adv-x="486" d="M41 381l195 192l-133 198l21 13l130 -193l193 189l17 -18l-193 -191l132 -192l-22 -18l-131 192l-191 -190z" />
<glyph unicode="&#xd8;" horiz-adv-x="2559" d="M68 961q0 86 23 168t69 153t109.5 124.5t149.5 84t185 30.5q64 0 110 -13t98 -44l-28 -39q-73 50 -178 50q-93 0 -173.5 -28t-139.5 -77.5t-101 -115t-63 -141.5t-21 -157q0 -91 27 -178t86 -166.5t144 -139.5t209 -95t273 -35q56 0 84 2q1 158 23.5 327t65 332.5 t100.5 316t134.5 281t162.5 224.5t188 150t207 54q106 0 179.5 -54t108 -145t34.5 -213q0 -90 -20 -189.5t-57.5 -202.5t-95.5 -205.5t-130 -197.5t-165.5 -179t-198 -149.5t-231.5 -109.5t-262 -58q0 -141 16.5 -263.5t53 -229t90.5 -181.5t134 -118.5t179 -43.5 q102 0 199.5 44.5t179.5 123.5t156.5 187t132.5 236t105 270t78 289t47.5 293t16.5 282q0 172 -25 311.5t-80.5 244t-137.5 149.5l15 28q69 -33 122.5 -103.5t87 -169t50 -217t16.5 -254.5q0 -138 -17 -286t-49.5 -296t-81.5 -291t-110 -271t-139 -236.5t-164 -187.5 t-189 -123.5t-211 -44.5q-107 0 -193.5 44t-146 121.5t-100 185.5t-59.5 233.5t-19 268.5q-28 -2 -84 -2q-157 0 -288 36.5t-220.5 98.5t-151.5 145t-90.5 174t-28.5 188zM974 348q151 17 289.5 71t248.5 134t204 181.5t161 213.5t114.5 229t70.5 229.5t23 213.5 q0 114 -29 200t-91.5 136.5t-152.5 50.5q-98 0 -193.5 -53.5t-176.5 -148t-153.5 -221.5t-128 -277t-97 -311t-64 -326.5t-25.5 -321.5zM1392 -628q48 275 248 1366t245 1356l28 -4q-46 -274 -136.5 -782.5t-194 -1075.5t-162.5 -865z" />
<glyph unicode="&#xd9;" horiz-adv-x="1786" d="M-424 1221q0 -101 24.5 -193.5t77 -174t128 -141.5t183.5 -95t236 -35q90 0 168.5 23t137.5 62t107.5 92.5t81 115t55 129.5t32 134t9.5 131q0 46 -2 68l-41 -9q4 -51 4 -80q0 -55 -7 -109t-21.5 -110.5t-39 -108t-56 -99.5t-75.5 -87t-96 -67.5t-118 -44.5t-141 -16 q-120 0 -221 34t-172 92.5t-120.5 138t-73.5 170t-24 189.5q0 114 31.5 224t96.5 210t156 175.5t220.5 120.5t279.5 45q111 0 210 -36.5t174.5 -100.5t131 -148t84.5 -182.5t29 -200.5q0 -104 -28 -265t-67.5 -330.5t-79.5 -339.5t-67.5 -332.5t-27.5 -268.5 q0 -162 56.5 -247.5t172.5 -85.5q58 0 119.5 50t116 131t107 189.5t94 221t74.5 229.5q-27 -225 -27 -360q0 -126 18 -216.5t52.5 -144t82 -78t111.5 -24.5q259 0 330 458l-42 8q-27 -226 -106.5 -335t-186.5 -109q-102 0 -157.5 103t-55.5 317q0 111 18 266.5t35.5 263.5 t55 316t49.5 279q39 227 69.5 378t51.5 229.5t44 136.5l87 230l-61 26q-88 -261 -178.5 -686t-156.5 -847q-22 -100 -60.5 -224.5t-94.5 -264.5t-116.5 -254.5t-133 -190.5t-139.5 -76q-41 0 -72.5 15t-52.5 41.5t-34 66.5t-18.5 87t-5.5 105q0 106 27.5 264t67.5 321.5 t79.5 329.5t67.5 332t28 285q0 137 -50.5 263t-137.5 220.5t-212.5 150.5t-267.5 56q-131 0 -248.5 -32.5t-207 -90t-161 -135t-117 -167.5t-69.5 -187t-24 -194zM1346 2340l33 18q37 -66 77 -123t59.5 -80t49.5 -56l-13 -16q-2 2 -5.5 5t-15.5 14t-24.5 24t-32 35.5 t-38.5 47t-43 59t-47 72.5z" />
<glyph unicode="&#xda;" horiz-adv-x="1786" d="M-424 1221q0 83 17 166.5t52 163t85.5 150.5t120 131t151.5 103.5t185 67.5t216 24q142 0 267.5 -56t212.5 -150.5t137.5 -220.5t50.5 -263q0 -119 -28 -285t-67.5 -332t-79.5 -329.5t-67.5 -321.5t-27.5 -264q0 -48 4 -88.5t12.5 -76.5t23 -63t34.5 -46.5t47.5 -30 t61.5 -10.5q67 0 139.5 76t133 190.5t116.5 254.5t94.5 264.5t60.5 224.5q42 270 94.5 543.5t116.5 543t124 446.5l61 -26l-87 -230q-34 -88 -71 -250t-94 -494q-12 -71 -49.5 -279t-55 -316t-35.5 -263.5t-18 -266.5q0 -144 26.5 -239t73 -138t113.5 -43q51 0 96.5 25.5 t85 77t68.5 138.5t43 203l42 -8q-71 -458 -330 -458q-64 0 -111.5 24.5t-82 78t-52.5 144t-18 216.5q0 135 27 360q-33 -117 -74.5 -229.5t-94 -221t-107 -189.5t-116 -131t-119.5 -50q-116 0 -172.5 85.5t-56.5 247.5q0 106 27.5 268.5t67.5 332.5t79.5 339.5t67.5 330.5 t28 265q0 102 -29 200.5t-84.5 182.5t-131 148t-174.5 100.5t-210 36.5q-150 0 -279.5 -45t-220.5 -120.5t-156 -175.5t-96.5 -210t-31.5 -224q0 -82 17 -159t50 -147t85 -128t118 -100.5t153.5 -66t187.5 -23.5q85 0 159 21t129.5 57t101 86t75.5 106.5t50.5 120.5 t29.5 126t9 125q0 29 -4 80l41 9q2 -22 2 -68q0 -57 -7.5 -114.5t-23.5 -117.5t-42 -115.5t-60.5 -106.5t-81 -93.5t-102 -73.5t-125.5 -48.5t-149 -17.5q-128 0 -236 35t-183.5 95t-128 141.5t-77 174t-24.5 193.5zM1493 2119q101 113 186 262l30 -19q-23 -37 -46.5 -71.5 t-43 -59.5t-38 -46.5t-32 -35.5t-24 -24.5t-15.5 -14.5l-6 -4z" />
<glyph unicode="&#xdb;" horiz-adv-x="1786" d="M-424 1221q0 -101 24.5 -193.5t77 -174t128 -141.5t183.5 -95t236 -35q90 0 168.5 23t137.5 62t107.5 92.5t81 115t55 129.5t32 134t9.5 131q0 46 -2 68l-41 -9q4 -51 4 -80q0 -55 -7 -109t-21.5 -110.5t-39 -108t-56 -99.5t-75.5 -87t-96 -67.5t-118 -44.5t-141 -16 q-120 0 -221 34t-172 92.5t-120.5 138t-73.5 170t-24 189.5q0 114 31.5 224t96.5 210t156 175.5t220.5 120.5t279.5 45q111 0 210 -36.5t174.5 -100.5t131 -148t84.5 -182.5t29 -200.5q0 -104 -28 -265t-67.5 -330.5t-79.5 -339.5t-67.5 -332.5t-27.5 -268.5 q0 -162 56.5 -247.5t172.5 -85.5q58 0 119.5 50t116 131t107 189.5t94 221t74.5 229.5q-27 -225 -27 -360q0 -126 18 -216.5t52.5 -144t82 -78t111.5 -24.5q259 0 330 458l-42 8q-27 -226 -106.5 -335t-186.5 -109q-102 0 -157.5 103t-55.5 317q0 111 18 266.5t35.5 263.5 t55 316t49.5 279q39 227 69.5 378t51.5 229.5t44 136.5l87 230l-61 26q-88 -261 -178.5 -686t-156.5 -847q-22 -100 -60.5 -224.5t-94.5 -264.5t-116.5 -254.5t-133 -190.5t-139.5 -76q-41 0 -72.5 15t-52.5 41.5t-34 66.5t-18.5 87t-5.5 105q0 106 27.5 264t67.5 321.5 t79.5 329.5t67.5 332t28 285q0 137 -50.5 263t-137.5 220.5t-212.5 150.5t-267.5 56q-131 0 -248.5 -32.5t-207 -90t-161 -135t-117 -167.5t-69.5 -187t-24 -194zM1319 2099q123 100 222 236h33q10 -18 27 -48.5t25.5 -45.5t21.5 -38t19.5 -36t15 -29t13.5 -27t9 -21 l-33 -17q-50 111 -126 225q-41 -55 -93.5 -109t-85.5 -80l-32 -26z" />
<glyph unicode="&#xdc;" horiz-adv-x="1786" d="M-424 1221q0 -101 24.5 -193.5t77 -174t128 -141.5t183.5 -95t236 -35q90 0 168.5 23t137.5 62t107.5 92.5t81 115t55 129.5t32 134t9.5 131q0 46 -2 68l-41 -9q4 -51 4 -80q0 -55 -7 -109t-21.5 -110.5t-39 -108t-56 -99.5t-75.5 -87t-96 -67.5t-118 -44.5t-141 -16 q-120 0 -221 34t-172 92.5t-120.5 138t-73.5 170t-24 189.5q0 114 31.5 224t96.5 210t156 175.5t220.5 120.5t279.5 45q111 0 210 -36.5t174.5 -100.5t131 -148t84.5 -182.5t29 -200.5q0 -104 -28 -265t-67.5 -330.5t-79.5 -339.5t-67.5 -332.5t-27.5 -268.5 q0 -162 56.5 -247.5t172.5 -85.5q58 0 119.5 50t116 131t107 189.5t94 221t74.5 229.5q-27 -225 -27 -360q0 -126 18 -216.5t52.5 -144t82 -78t111.5 -24.5q259 0 330 458l-42 8q-27 -226 -106.5 -335t-186.5 -109q-102 0 -157.5 103t-55.5 317q0 111 18 266.5t35.5 263.5 t55 316t49.5 279q39 227 69.5 378t51.5 229.5t44 136.5l87 230l-61 26q-88 -261 -178.5 -686t-156.5 -847q-22 -100 -60.5 -224.5t-94.5 -264.5t-116.5 -254.5t-133 -190.5t-139.5 -76q-41 0 -72.5 15t-52.5 41.5t-34 66.5t-18.5 87t-5.5 105q0 106 27.5 264t67.5 321.5 t79.5 329.5t67.5 332t28 285q0 137 -50.5 263t-137.5 220.5t-212.5 150.5t-267.5 56q-131 0 -248.5 -32.5t-207 -90t-161 -135t-117 -167.5t-69.5 -187t-24 -194zM1403 2180q0 14 9 26t22 12t20.5 -9.5t7.5 -24.5q0 -7 -2 -14t-6 -12.5t-9.5 -9t-13.5 -3.5q-13 0 -20.5 9.5 t-7.5 25.5zM1633 2180q0 14 8.5 26t21.5 12q27 0 27 -34q0 -15 -7.5 -27t-21.5 -12q-13 0 -20.5 9.5t-7.5 25.5z" />
<glyph unicode="&#xdd;" horiz-adv-x="1841" d="M-424 1221q0 83 17 166.5t52 163t85.5 150.5t120 131t151.5 103.5t185 67.5t216 24q142 0 267.5 -56t212.5 -150.5t137.5 -220.5t50.5 -263q0 -106 -16 -213.5t-38.5 -199.5t-45 -183.5t-38.5 -200t-16 -214.5q0 -74 9.5 -129.5t30 -98t57 -65t87.5 -22.5q53 0 109 46.5 t104.5 125t93.5 174.5t82.5 203.5t65.5 202.5t48 180q46 257 103.5 491.5t102.5 374.5t81 220l50 -24q-91 -191 -187 -557t-162 -861q-6 -39 -17 -131q-54 -430 -108 -652q-148 -608 -439 -609q-112 0 -182.5 67.5t-70.5 181.5q0 65 24.5 123.5t63.5 99t88.5 64.5t99.5 26 l4 -46q-44 0 -86.5 -20t-76.5 -54t-55 -84.5t-21 -108.5q0 -111 57.5 -168.5t154.5 -57.5q62 0 117 34t97 92t79 139.5t63.5 172t50 194.5t39 202t30 199t23.5 181.5t18.5 154t16.5 111.5q-33 -108 -70 -206t-84 -191.5t-94.5 -161.5t-103 -109t-109.5 -41 q-78 0 -129.5 39.5t-76 113t-24.5 179.5t16 215t38.5 202.5t45 186.5t38.5 200.5t16 211.5q0 102 -29 200.5t-84.5 182.5t-131 148t-174.5 100.5t-210 36.5q-150 0 -279.5 -45t-220.5 -120.5t-156 -175.5t-96.5 -210t-31.5 -224q0 -82 17 -159t50 -147t85 -128t118 -100.5 t153.5 -66t187.5 -23.5q85 0 159 21t129.5 57t101 86t75.5 106.5t50.5 120.5t29.5 126t9 125q0 29 -4 80l41 9q2 -22 2 -68q0 -57 -7.5 -114.5t-23.5 -117.5t-42 -115.5t-60.5 -106.5t-81 -93.5t-102 -73.5t-125.5 -48.5t-149 -17.5q-128 0 -236 35t-183.5 95t-128 141.5 t-77 174t-24.5 193.5zM1447 2097q103 115 186 261l30 -18q-31 -52 -63.5 -97t-56.5 -73t-43.5 -49t-30.5 -29l-10 -9z" />
<glyph unicode="&#xde;" horiz-adv-x="735" d="M11 353v23q51 0 103 7q86 454 166 939q-112 -42 -204 -122l-28 32q109 85 236 123l51 299h46l-48 -286q55 13 112 13q77 0 137 -25.5t97 -71t56.5 -104.5t19.5 -129q0 -82 -25 -168t-75.5 -169.5t-121 -154t-168.5 -122t-209 -72.5l-66 -365h-53q17 77 73 357 q-65 -4 -99 -4zM160 392q103 21 193 72.5t153.5 119.5t109.5 149t68.5 163t22.5 159q0 87 -27.5 154t-86 107.5t-142.5 40.5q-57 0 -123 -20q-51 -303 -168 -945z" />
<glyph unicode="&#xdf;" horiz-adv-x="534" d="M-94 -296q0 235 60 643t141.5 776.5t144.5 537.5q25 68 58 106t62 38q40 0 62.5 -41.5t22.5 -119.5q0 -65 -16 -141t-39.5 -142t-51.5 -138t-51.5 -131.5t-39.5 -119.5t-16 -105q0 -44 13 -87t32.5 -76t42 -75.5t42 -84.5t32.5 -103.5t13 -131.5q0 -130 -50.5 -204.5 t-119.5 -74.5q-74 0 -123.5 71t-69.5 192l46 9q9 -120 50.5 -187t96.5 -67q51 0 87.5 68t36.5 193q0 74 -16 141t-39 117t-46 96.5t-39 99t-16 104.5q0 60 21.5 136.5t51.5 153.5t60.5 157.5t51.5 172t21 172.5q0 125 -50 125q-45 0 -120 -261t-148.5 -646.5t-121.5 -760.5 q105 -61 155.5 -159t50.5 -207q0 -113 -49.5 -197.5t-116.5 -84.5q-25 0 -45 10.5t-36.5 36t-25.5 73t-9 116.5zM-59 -312q0 -92 19 -145t56 -53q20 0 40 13.5t37 38t30 57t20.5 72.5t7.5 81q0 97 -41.5 187.5t-131.5 154.5q-3 -19 -9.5 -75t-9 -78t-7 -67t-6.5 -70.5 t-3.5 -58t-1.5 -57.5z" />
<glyph unicode="&#xe0;" horiz-adv-x="729" d="M-41 243q0 -117 29 -185.5t90 -68.5q155 0 298 444q-25 -176 -25 -275q0 -169 73 -169q23 0 44.5 12t41.5 32t42.5 57.5t42.5 77t46.5 102.5t50 122t56.5 147v4q0 7 -6 11t-13 4q-41 -108 -72 -184t-64.5 -147.5t-60 -114.5t-53 -68.5t-50.5 -25.5q-39 0 -39 113 q0 45 6.5 112.5t15 127t26 162.5t28 160.5t34.5 182.5t32 170h-46l-39 -195q-2 42 -9.5 76t-22.5 63.5t-41 46t-62 16.5q-68 0 -135.5 -82t-114 -204t-75 -263.5t-28.5 -260.5zM-4 221q0 111 27.5 252.5t70 266t101 210t114.5 85.5t85.5 -60.5t29.5 -164.5q0 -89 -33 -226.5 t-81.5 -264t-110 -217.5t-112.5 -91q-46 0 -68.5 56t-22.5 154zM108 1376l32 18q37 -65 77 -122t59.5 -80t49.5 -56l-11 -17q-4 3 -11 9t-29.5 28.5t-45.5 49.5t-56.5 73t-64.5 97z" />
<glyph unicode="&#xe1;" horiz-adv-x="729" d="M-41 243q0 119 28.5 260.5t75 263.5t114 204t135.5 82q36 0 62 -16.5t41 -46t22.5 -63.5t9.5 -76l39 195h46q-9 -49 -27.5 -147t-29 -154.5t-26 -142.5t-24.5 -143.5t-18 -123t-13 -115.5t-4 -89q0 -113 39 -113q24 0 50.5 25.5t53 68.5t60 114.5t64.5 147.5t72 184 q7 0 13 -4t6 -11v-4q-33 -88 -56.5 -147t-50 -122t-46.5 -102.5t-42.5 -77t-42.5 -57.5t-41.5 -32t-44.5 -12q-73 0 -73 169q0 99 25 275q-143 -444 -298 -444q-61 0 -90 68.5t-29 185.5zM-4 221q0 -98 22.5 -154t68.5 -56q51 0 112.5 91t110 217.5t81.5 264t33 226.5 q0 104 -29.5 164.5t-85.5 60.5t-114.5 -85.5t-101 -210t-70 -266t-27.5 -252.5zM278 1133q103 115 186 261l29 -18q-23 -37 -46.5 -71.5t-43 -59.5t-38 -47t-32 -36t-23.5 -24t-16 -15l-5 -4z" />
<glyph unicode="&#xe2;" horiz-adv-x="729" d="M-41 243q0 -117 29 -185.5t90 -68.5q155 0 298 444q-25 -176 -25 -275q0 -169 73 -169q23 0 44.5 12t41.5 32t42.5 57.5t42.5 77t46.5 102.5t50 122t56.5 147v4q0 7 -6 11t-13 4q-41 -108 -72 -184t-64.5 -147.5t-60 -114.5t-53 -68.5t-50.5 -25.5q-39 0 -39 113 q0 45 6.5 112.5t15 127t26 162.5t28 160.5t34.5 182.5t32 170h-46l-39 -195q-2 42 -9.5 76t-22.5 63.5t-41 46t-62 16.5q-68 0 -135.5 -82t-114 -204t-75 -263.5t-28.5 -260.5zM-4 221q0 111 27.5 252.5t70 266t101 210t114.5 85.5t85.5 -60.5t29.5 -164.5q0 -89 -33 -226.5 t-81.5 -264t-110 -217.5t-112.5 -91q-46 0 -68.5 56t-22.5 154zM149 1136q125 102 223 236h31q10 -17 24.5 -43t22.5 -40.5t19.5 -35t18.5 -33t15 -28t13 -26l10 -21t8 -18.5l-31 -17q-50 111 -127 225q-18 -25 -40 -51t-42 -46.5t-39.5 -39.5t-35.5 -33t-28.5 -24.5 t-19.5 -16.5l-6 -5z" />
<glyph unicode="&#xe3;" horiz-adv-x="729" d="M-41 243q0 119 28.5 260.5t75 263.5t114 204t135.5 82q36 0 62 -16.5t41 -46t22.5 -63.5t9.5 -76l39 195h46q-9 -49 -27.5 -147t-29 -154.5t-26 -142.5t-24.5 -143.5t-18 -123t-13 -115.5t-4 -89q0 -113 39 -113q24 0 50.5 25.5t53 68.5t60 114.5t64.5 147.5t72 184 q7 0 13 -4t6 -11v-4q-33 -88 -56.5 -147t-50 -122t-46.5 -102.5t-42.5 -77t-42.5 -57.5t-41.5 -32t-44.5 -12q-73 0 -73 169q0 99 25 275q-143 -444 -298 -444q-61 0 -90 68.5t-29 185.5zM-4 221q0 -98 22.5 -154t68.5 -56q51 0 112.5 91t110 217.5t81.5 264t33 226.5 q0 104 -29.5 164.5t-85.5 60.5t-114.5 -85.5t-101 -210t-70 -266t-27.5 -252.5zM124 1179q42 53 115 53q36 0 108 -16t102 -16q32 0 55 5.5t35.5 13t27.5 20.5l24 -35q-44 -41 -107 -41q-41 0 -122 22.5t-117 22.5q-64 0 -101 -48z" />
<glyph unicode="&#xe4;" horiz-adv-x="729" d="M-41 243q0 -117 29 -185.5t90 -68.5q155 0 298 444q-25 -176 -25 -275q0 -169 73 -169q23 0 44.5 12t41.5 32t42.5 57.5t42.5 77t46.5 102.5t50 122t56.5 147v4q0 7 -6 11t-13 4q-41 -108 -72 -184t-64.5 -147.5t-60 -114.5t-53 -68.5t-50.5 -25.5q-39 0 -39 113 q0 45 6.5 112.5t15 127t26 162.5t28 160.5t34.5 182.5t32 170h-46l-39 -195q-2 42 -9.5 76t-22.5 63.5t-41 46t-62 16.5q-68 0 -135.5 -82t-114 -204t-75 -263.5t-28.5 -260.5zM-4 221q0 111 27.5 252.5t70 266t101 210t114.5 85.5t85.5 -60.5t29.5 -164.5q0 -89 -33 -226.5 t-81.5 -264t-110 -217.5t-112.5 -91q-46 0 -68.5 56t-22.5 154zM188 1169q0 15 9 27t21 12q27 0 27 -33q0 -10 -3 -18.5t-9.5 -14.5t-16.5 -6q-13 0 -20.5 9t-7.5 24zM418 1169q0 15 8 27t21 12t20.5 -9t7.5 -24t-8 -27t-22 -12q-27 0 -27 33z" />
<glyph unicode="&#xe5;" horiz-adv-x="729" d="M-41 243q0 119 28.5 260.5t75 263.5t114 204t135.5 82q36 0 62 -16.5t41 -46t22.5 -63.5t9.5 -76l39 195h46q-9 -49 -27.5 -147t-29 -154.5t-26 -142.5t-24.5 -143.5t-18 -123t-13 -115.5t-4 -89q0 -113 39 -113q24 0 50.5 25.5t53 68.5t60 114.5t64.5 147.5t72 184 q7 0 13 -4t6 -11v-4q-33 -88 -56.5 -147t-50 -122t-46.5 -102.5t-42.5 -77t-42.5 -57.5t-41.5 -32t-44.5 -12q-73 0 -73 169q0 99 25 275q-143 -444 -298 -444q-61 0 -90 68.5t-29 185.5zM-4 221q0 -98 22.5 -154t68.5 -56q51 0 112.5 91t110 217.5t81.5 264t33 226.5 q0 104 -29.5 164.5t-85.5 60.5t-114.5 -85.5t-101 -210t-70 -266t-27.5 -252.5zM204 1149q0 61 38.5 109.5t101.5 48.5q50 0 76.5 -32t26.5 -80q0 -29 -9.5 -57t-27 -50.5t-44.5 -36.5t-59 -14q-50 0 -76.5 32t-26.5 80zM230 1147q0 -41 19.5 -67.5t57.5 -26.5q50 0 81.5 45 t31.5 99q0 39 -19.5 65.5t-56.5 26.5q-50 0 -82 -45t-32 -97z" />
<glyph unicode="&#xe6;" horiz-adv-x="953" d="M-41 245q0 119 28.5 260.5t75 264.5t114 205t135.5 82q29 0 52 -11t38.5 -31t26.5 -45.5t17 -57t8.5 -62t2.5 -64.5q49 122 114 196.5t136 74.5q45 0 68.5 -26t23.5 -70q0 -43 -22.5 -95.5t-65 -107.5t-112 -110t-154.5 -97l-7 -6q-22 -130 -22 -228q0 -90 16 -156.5 t55.5 -108t99.5 -41.5q26 0 52 12.5t48.5 31t47 51.5t43 61.5t41.5 73.5t37 75.5t34.5 80t30.5 75t27 70.5q1 3 2 5t2 5l2 6q7 0 12.5 -4t5.5 -11v-4q-3 -10 -11 -30q-16 -44 -25.5 -69t-29 -73t-33.5 -78.5t-37 -74.5t-42.5 -72t-45.5 -60t-51 -50.5t-54.5 -30.5t-60.5 -12 q-55 0 -96.5 27t-66.5 76t-37 111t-12 136q0 27 4 83q-32 -97 -63.5 -171t-68 -135.5t-78 -94t-86.5 -32.5q-61 0 -90 69t-29 187zM-4 221q0 -98 22.5 -154t68.5 -56q36 0 79 48t84 128.5t79.5 186.5t69.5 222l10 35q0 5 4 19q18 84 18 158q0 99 -32 163t-90 64 q-56 0 -114.5 -85.5t-101 -210t-70 -266t-27.5 -252.5zM445 578q78 47 140 102.5t98.5 107t55 97t18.5 80.5q0 32 -13.5 50t-39.5 18q-38 0 -77.5 -38t-73 -101.5t-61.5 -144.5t-47 -171z" />
<glyph unicode="&#xe7;" horiz-adv-x="561" d="M-20 337q0 115 25.5 242t67 232t101.5 173.5t122 68.5q63 0 97 -58t34 -148q0 -77 -23.5 -159.5t-68.5 -151.5l-42 28q51 78 76 156.5t25 146.5q0 49 -12 87t-35 59.5t-54 21.5q-66 0 -130 -111t-102.5 -273t-38.5 -312q0 -55 6 -102.5t19.5 -89t33.5 -71t49.5 -46.5 t66.5 -19q26 2 49 10.5t43 21.5t41 36.5t38 47t37 61.5t36 72t38 87.5t39.5 98t43.5 112.5q7 0 12.5 -4t5.5 -11v-4q-1 -4 -4 -11q-26 -67 -38.5 -99.5t-35 -88t-35.5 -81.5t-34 -68.5t-36 -62t-36.5 -48t-40.5 -41t-43 -26.5t-49.5 -19t-55.5 -5q-50 0 -87.5 27t-60 75 t-33.5 110t-11 136zM-13 -321l52 25q16 -51 44 -78t87 -27q61 0 100 45t39 100q0 42 -28 71t-84 29q-49 0 -96 -23v-2q-11 -40 -23 -49l-41 31q22 26 41 37q20 74 38 171l28 -11l-36 -147q49 16 94 16q74 0 116.5 -39t42.5 -92q0 -64 -53.5 -112t-145.5 -48q-76 0 -119.5 27 t-55.5 76z" />
<glyph unicode="&#xe8;" horiz-adv-x="558" d="M-22 342q0 -76 11.5 -138t36 -111.5t66 -76.5t96.5 -27q30 0 60 12t55 30.5t51 50.5t45.5 60t42 72t37 74.5t34 78.5t29 73t25.5 69q7 20 11 30v4q0 7 -5.5 11t-12.5 4q-2 -5 -6 -16q-16 -41 -24.5 -63.5t-26.5 -66.5t-30.5 -71.5t-32 -69t-36 -69t-37.5 -60.5t-41 -54 t-42 -40t-45 -28t-46 -9q-60 0 -100 41.5t-56.5 108t-16.5 156.5q0 91 24 228l6 6q86 42 155.5 97t111.5 110t64 107.5t22 95.5q0 44 -23 70t-68 26q-65 0 -128 -68t-107.5 -172.5t-71.5 -231.5t-27 -243zM50 578q20 90 48 171t61 144.5t72.5 101.5t77.5 38q26 0 40 -18 t14 -50q0 -35 -19 -80.5t-55 -97t-98 -107t-141 -102.5zM108 1376l32 18q37 -65 77 -122t59.5 -80t49.5 -56l-11 -17q-4 3 -11 9t-29.5 28.5t-45.5 49.5t-56.5 73t-64.5 97z" />
<glyph unicode="&#xe9;" horiz-adv-x="558" d="M-22 342q0 116 27 243t71.5 231.5t107.5 172.5t128 68q45 0 68 -26t23 -70q0 -43 -22 -95.5t-64 -107.5t-111.5 -110t-155.5 -97l-6 -6q-24 -137 -24 -228q0 -90 16.5 -156.5t56.5 -108t100 -41.5q25 0 51.5 12.5t49 31t47 51.5t43 61.5t41 73.5t37 75.5t35 80t30.5 75 t27 70.5q1 3 2 5t2 5l2 6q7 0 12.5 -4t5.5 -11v-4q-4 -10 -11 -30q-16 -44 -25.5 -69t-29 -73t-34 -78.5t-37 -74.5t-42 -72t-45.5 -60t-51 -50.5t-55 -30.5t-60 -12q-55 0 -96.5 27t-66 76.5t-36 111.5t-11.5 138zM50 578q79 47 141 102.5t98 107t55 97t19 80.5 q0 32 -14 50t-40 18q-50 0 -101.5 -65.5t-91.5 -167t-66 -222.5zM232 1133q103 115 186 261l29 -18q-23 -37 -46.5 -71.5t-43 -59.5t-37.5 -47t-32 -36l-24 -24t-16 -15l-5 -4z" />
<glyph unicode="&#xea;" horiz-adv-x="558" d="M-22 342q0 -76 11.5 -138t36 -111.5t66 -76.5t96.5 -27q30 0 60 12t55 30.5t51 50.5t45.5 60t42 72t37 74.5t34 78.5t29 73t25.5 69q7 20 11 30v4q0 7 -5.5 11t-12.5 4q-2 -5 -6 -16q-16 -41 -24.5 -63.5t-26.5 -66.5t-30.5 -71.5t-32 -69t-36 -69t-37.5 -60.5t-41 -54 t-42 -40t-45 -28t-46 -9q-60 0 -100 41.5t-56.5 108t-16.5 156.5q0 91 24 228l6 6q86 42 155.5 97t111.5 110t64 107.5t22 95.5q0 44 -23 70t-68 26q-65 0 -128 -68t-107.5 -172.5t-71.5 -231.5t-27 -243zM50 578q20 90 48 171t61 144.5t72.5 101.5t77.5 38q26 0 40 -18 t14 -50q0 -35 -19 -80.5t-55 -97t-98 -107t-141 -102.5zM112 1136q125 102 223 236h32q113 -202 130 -245l-31 -17q-50 111 -127 225q-40 -55 -93 -109t-85 -81l-32 -26z" />
<glyph unicode="&#xeb;" horiz-adv-x="558" d="M-22 342q0 -76 11.5 -138t36 -111.5t66 -76.5t96.5 -27q30 0 60 12t55 30.5t51 50.5t45.5 60t42 72t37 74.5t34 78.5t29 73t25.5 69q7 20 11 30v4q0 7 -5.5 11t-12.5 4q-2 -5 -6 -16q-16 -41 -24.5 -63.5t-26.5 -66.5t-30.5 -71.5t-32 -69t-36 -69t-37.5 -60.5t-41 -54 t-42 -40t-45 -28t-46 -9q-60 0 -100 41.5t-56.5 108t-16.5 156.5q0 91 24 228l6 6q86 42 155.5 97t111.5 110t64 107.5t22 95.5q0 44 -23 70t-68 26q-65 0 -128 -68t-107.5 -172.5t-71.5 -231.5t-27 -243zM50 578q20 90 48 171t61 144.5t72.5 101.5t77.5 38q26 0 40 -18 t14 -50q0 -35 -19 -80.5t-55 -97t-98 -107t-141 -102.5zM142 1169q0 15 9 27t21 12q27 0 27 -33q0 -10 -3 -18.5t-9.5 -14.5t-16.5 -6q-13 0 -20.5 9t-7.5 24zM372 1169q0 15 8 27t21 12t20.5 -9t7.5 -24t-8 -27t-22 -12q-27 0 -27 33z" />
<glyph unicode="&#xec;" horiz-adv-x="334" d="M-76 1376l32 18q37 -65 77 -122t59.5 -80t49.5 -56l-11 -17q-4 3 -11 9t-29.5 28.5t-45.5 49.5t-56.5 73t-64.5 97zM-44 168q0 -179 74 -179q23 0 44.5 12t41 32t42 57.5t42.5 76.5t46.5 103t49.5 122t57 147v4q0 7 -5.5 11t-12.5 4q-41 -108 -72.5 -184t-64.5 -147.5 t-59.5 -114.5t-53.5 -68.5t-50 -25.5q-39 0 -39 113q0 45 6.5 112.5t15 127t26 162.5t28 160.5t34 182.5t32.5 170h-46q-4 -18 -11 -54q-41 -207 -61.5 -319t-42 -263.5t-21.5 -241.5z" />
<glyph unicode="&#xed;" horiz-adv-x="334" d="M-44 168q0 90 21.5 241.5t42 263.5t61.5 319q7 36 11 54h46q-9 -45 -32.5 -170t-34 -182.5t-28 -160.5t-26 -162.5t-15 -127t-6.5 -112.5q0 -113 39 -113q17 0 35.5 13t37 36t39.5 60t41.5 79t45.5 100.5t48.5 117t52.5 134.5q7 0 12.5 -4t5.5 -11v-4q-34 -89 -57 -147 t-49.5 -122t-46.5 -103t-42.5 -76.5t-42 -57.5t-41 -32t-44.5 -12q-74 0 -74 179zM116 1133q104 115 186 261l31 -18q-23 -37 -46.5 -71.5t-43 -59.5t-38 -47t-32 -36t-24 -24t-15.5 -15l-5 -4z" />
<glyph unicode="&#xee;" horiz-adv-x="334" d="M-57 1136q122 100 222 236h32q10 -17 24.5 -43t22.5 -40.5t19.5 -35t18 -33t15 -28t13.5 -26l10 -21t8 -18.5l-32 -17q-53 116 -126 225q-19 -25 -40.5 -51t-41.5 -46.5t-39.5 -39.5t-35.5 -33t-28.5 -24.5t-19.5 -16.5l-6 -5zM-44 168q0 -179 74 -179q23 0 44.5 12 t41 32t42 57.5t42.5 76.5t46.5 103t49.5 122t57 147v4q0 7 -5.5 11t-12.5 4q-41 -108 -72.5 -184t-64.5 -147.5t-59.5 -114.5t-53.5 -68.5t-50 -25.5q-39 0 -39 113q0 45 6.5 112.5t15 127t26 162.5t28 160.5t34 182.5t32.5 170h-46q-4 -18 -11 -54q-41 -207 -61.5 -319 t-42 -263.5t-21.5 -241.5z" />
<glyph unicode="&#xef;" horiz-adv-x="334" d="M-44 168q0 -179 74 -179q23 0 44.5 12t41 32t42 57.5t42.5 76.5t46.5 103t49.5 122t57 147v4q0 7 -5.5 11t-12.5 4q-41 -108 -72.5 -184t-64.5 -147.5t-59.5 -114.5t-53.5 -68.5t-50 -25.5q-39 0 -39 113q0 45 6.5 112.5t15 127t26 162.5t28 160.5t34 182.5t32.5 170h-46 q-4 -18 -11 -54q-41 -207 -61.5 -319t-42 -263.5t-21.5 -241.5zM-18 1169q0 15 8.5 27t20.5 12q13 0 20.5 -9t7.5 -24t-8 -27t-22 -12q-27 0 -27 33zM211 1169q0 15 8.5 27t21.5 12t20.5 -9t7.5 -24t-8 -27t-22 -12t-21 9t-7 24z" />
<glyph unicode="&#xf0;" horiz-adv-x="742" d="M-41 243q0 119 28.5 260.5t75 263.5t114 204t135.5 82q33 0 59.5 -16t43 -41t25.5 -60q7 103 7 183q0 91 -7 157q-51 -42 -119 -79l-12 24q6 3 28.5 15t34.5 18.5t31.5 19t34.5 24.5q-28 186 -119 186q-71 0 -122 -68l-22 18q15 17 36 33t50.5 28.5t57.5 12.5 q50 0 90 -43t61 -139q68 64 97 140l24 -7q-48 -92 -116 -156q16 -93 16 -200q0 -99 -26 -302.5t-51.5 -388t-25.5 -237.5q0 -157 54 -157q30 0 63 36t72 112t77 166t90 226q7 0 13.5 -4.5t6.5 -12.5v-5q-39 -101 -66 -169t-57 -135t-53.5 -108t-49 -74t-50 -47t-50.5 -14 q-90 0 -90 186q0 10 1 24t2.5 27t4 34.5t5 37t6.5 43.5t6.5 44.5t8 51t8.5 51.5q-20 -63 -37.5 -114.5t-38.5 -104.5t-41 -93.5t-43 -76.5t-46.5 -59.5t-50.5 -37t-55 -13.5q-61 0 -90 68.5t-29 185.5zM-4 221q0 -98 22.5 -154t68.5 -56q37 0 84 56.5t92 147.5t86.5 213.5 t66.5 247.5l13 120q0 48 -6.5 89.5t-20 75.5t-37.5 54t-56 20q-56 0 -114.5 -85.5t-101 -210t-70 -266t-27.5 -252.5z" />
<glyph unicode="&#xf1;" horiz-adv-x="683" d="M-116 0q18 129 72 321q99 532 115 725h48q-5 -59 -84 -484q30 80 61 149.5t67.5 134.5t71.5 110.5t74 73t76 27.5q49 0 75 -40.5t26 -108.5q0 -57 -26.5 -171t-59 -222t-59 -225t-26.5 -180q0 -43 15.5 -67.5t45.5 -24.5q23 0 48 20.5t51.5 62t51 87.5t53.5 113.5 t51.5 123t51.5 133.5q7 0 13 -4t6 -11v-4q-6 -16 -18 -47q-19 -50 -29 -75t-28.5 -71.5t-29.5 -72t-29 -65t-31 -62t-30.5 -51.5t-33 -45t-32.5 -32t-34.5 -22.5t-34.5 -6.5q-52 0 -77.5 33t-25.5 90q0 75 43.5 246.5t86.5 334t43 215.5q0 64 -15.5 94.5t-52.5 30.5 q-42 0 -91.5 -53.5t-98 -143.5t-91.5 -191t-82 -212l-77 -433h-50zM124 1179q42 53 115 53q36 0 108 -16t102 -16q32 0 55 5.5t35.5 13t27.5 20.5l24 -35q-44 -41 -107 -41q-41 0 -122 22.5t-117 22.5q-64 0 -101 -48z" />
<glyph unicode="&#xf2;" horiz-adv-x="740" d="M-18 361q0 -105 20.5 -186.5t68 -133.5t115.5 -52q74 0 141 69.5t118 186.5q100 5 182 82.5t132 211.5v4q0 7 -5 11t-13 4q-50 -133 -125 -207t-161 -82q28 69 48.5 147.5t31 158t10.5 152.5q0 94 -18 165.5t-60 116t-104 44.5q-34 0 -67 -18t-60 -48.5t-50 -72.5 t-38.5 -90t-24.5 -101.5t-9 -105.5q0 -57 10 -108t32 -98t55 -82t82 -57.5t110 -26.5q-43 -107 -96.5 -170.5t-111.5 -63.5q-57 0 -97 45t-58 118t-18 168q0 97 20 205t54 203l-43 9q-71 -191 -71 -398zM151 615q0 101 28.5 198t77.5 159.5t104 62.5q47 0 79 -40t46 -104 t14 -150q0 -110 -23.5 -236.5t-63.5 -235.5q-46 2 -85 16.5t-67.5 39t-49.5 56t-34 70t-19.5 79.5t-6.5 85zM177 1376l31 18q37 -65 77 -122t59.5 -80t49.5 -56l-11 -17q-4 3 -11 9t-29 28.5t-45 49.5t-56.5 73t-64.5 97z" />
<glyph unicode="&#xf3;" horiz-adv-x="740" d="M-18 361q0 207 71 398l43 -9q-23 -63 -39.5 -132.5t-25.5 -140.5t-9 -135q0 -95 18 -168t58 -118t97 -45q58 0 111.5 63.5t96.5 170.5q-61 4 -110 26.5t-82 57.5t-55 82t-32 98t-10 108q0 105 32.5 205.5t90.5 165.5t126 65q62 0 104 -44.5t60 -116t18 -165.5 q0 -110 -24 -231.5t-66 -226.5q86 8 161 82t125 207q8 0 13 -4t5 -11v-4q-50 -134 -132 -211.5t-182 -82.5q-51 -117 -118 -186.5t-141 -69.5q-68 0 -115.5 52t-68 133.5t-20.5 186.5zM151 615q0 -44 6.5 -85t19.5 -79.5t34 -70t49.5 -56t67.5 -39t85 -16.5 q40 109 63.5 235.5t23.5 236.5q0 86 -14 150t-46 104t-79 40q-41 0 -80 -37t-67 -96.5t-45.5 -135.5t-17.5 -151zM324 1133q103 115 186 261l29 -18q-23 -37 -46.5 -71.5t-43 -59.5t-38 -47t-32 -36t-24 -24t-15.5 -15l-5 -4z" />
<glyph unicode="&#xf4;" horiz-adv-x="740" d="M-18 361q0 -105 20.5 -186.5t68 -133.5t115.5 -52q74 0 141 69.5t118 186.5q100 5 182 82.5t132 211.5v4q0 7 -5 11t-13 4q-50 -133 -125 -207t-161 -82q28 69 48.5 147.5t31 158t10.5 152.5q0 94 -18 165.5t-60 116t-104 44.5q-34 0 -67 -18t-60 -48.5t-50 -72.5 t-38.5 -90t-24.5 -101.5t-9 -105.5q0 -57 10 -108t32 -98t55 -82t82 -57.5t110 -26.5q-43 -107 -96.5 -170.5t-111.5 -63.5q-57 0 -97 45t-58 118t-18 168q0 97 20 205t54 203l-43 9q-71 -191 -71 -398zM151 615q0 101 28.5 198t77.5 159.5t104 62.5q47 0 79 -40t46 -104 t14 -150q0 -110 -23.5 -236.5t-63.5 -235.5q-46 2 -85 16.5t-67.5 39t-49.5 56t-34 70t-19.5 79.5t-6.5 85zM172 1136q123 100 222 236h33q10 -18 27 -49t25.5 -46t21.5 -38t19.5 -36t15 -28.5t13.5 -27t9 -20.5l-33 -17q-50 111 -126 225q-41 -55 -93.5 -109t-85.5 -81 l-32 -26z" />
<glyph unicode="&#xf5;" horiz-adv-x="740" d="M-18 361q0 207 71 398l43 -9q-23 -63 -39.5 -132.5t-25.5 -140.5t-9 -135q0 -95 18 -168t58 -118t97 -45q58 0 111.5 63.5t96.5 170.5q-61 4 -110 26.5t-82 57.5t-55 82t-32 98t-10 108q0 105 32.5 205.5t90.5 165.5t126 65q62 0 104 -44.5t60 -116t18 -165.5 q0 -110 -24 -231.5t-66 -226.5q86 8 161 82t125 207q8 0 13 -4t5 -11v-4q-50 -134 -132 -211.5t-182 -82.5q-51 -117 -118 -186.5t-141 -69.5q-68 0 -115.5 52t-68 133.5t-20.5 186.5zM151 615q0 -44 6.5 -85t19.5 -79.5t34 -70t49.5 -56t67.5 -39t85 -16.5 q40 109 63.5 235.5t23.5 236.5q0 86 -14 150t-46 104t-79 40q-41 0 -80 -37t-67 -96.5t-45.5 -135.5t-17.5 -151zM170 1179q41 53 114 53q37 0 109 -16t102 -16q31 0 54.5 5.5t36 13t27.5 20.5l24 -35q-44 -41 -107 -41q-41 0 -122 22.5t-117 22.5q-64 0 -101 -48z" />
<glyph unicode="&#xf6;" horiz-adv-x="740" d="M-18 361q0 -105 20.5 -186.5t68 -133.5t115.5 -52q74 0 141 69.5t118 186.5q100 5 182 82.5t132 211.5v4q0 7 -5 11t-13 4q-50 -133 -125 -207t-161 -82q28 69 48.5 147.5t31 158t10.5 152.5q0 94 -18 165.5t-60 116t-104 44.5q-34 0 -67 -18t-60 -48.5t-50 -72.5 t-38.5 -90t-24.5 -101.5t-9 -105.5q0 -57 10 -108t32 -98t55 -82t82 -57.5t110 -26.5q-43 -107 -96.5 -170.5t-111.5 -63.5q-57 0 -97 45t-58 118t-18 168q0 97 20 205t54 203l-43 9q-71 -191 -71 -398zM151 615q0 101 28.5 198t77.5 159.5t104 62.5q47 0 79 -40t46 -104 t14 -150q0 -110 -23.5 -236.5t-63.5 -235.5q-46 2 -85 16.5t-67.5 39t-49.5 56t-34 70t-19.5 79.5t-6.5 85zM234 1169q0 15 9 27t21 12q27 0 27 -33q0 -15 -8 -27t-22 -12q-27 0 -27 33zM464 1169q0 15 8 27t21 12t20.5 -9t7.5 -24t-8 -27t-22 -12q-27 0 -27 33z" />
<glyph unicode="&#xf7;" horiz-adv-x="519" d="M39 571h410l6 28h-411zM188 399q0 14 9 26.5t21 12.5q27 0 27 -35q0 -7 -1.5 -13.5t-5 -12t-9.5 -9t-13 -3.5q-13 0 -20.5 9t-7.5 25zM243 736q0 14 9 26.5t21 12.5q27 0 27 -34q0 -15 -7.5 -27t-21.5 -12q-13 0 -20.5 9t-7.5 25z" />
<glyph unicode="&#xf8;" horiz-adv-x="740" d="M-44 -9q103 164 209.5 364.5t174.5 343t163 352.5l20 -9q-139 -304 -263 -550t-282 -508zM-18 361q0 207 71 398l43 -9q-23 -63 -39.5 -132.5t-25.5 -140.5t-9 -135q0 -95 18 -168t58 -118t97 -45q58 0 111.5 63.5t96.5 170.5q-61 4 -110 26.5t-82 57.5t-55 82t-32 98 t-10 108q0 105 32.5 205.5t90.5 165.5t126 65q62 0 104 -44.5t60 -116t18 -165.5q0 -110 -24 -231.5t-66 -226.5q86 8 161 82t125 207q8 0 13 -4t5 -11v-4q-50 -134 -132 -211.5t-182 -82.5q-51 -117 -118 -186.5t-141 -69.5q-68 0 -115.5 52t-68 133.5t-20.5 186.5z M151 615q0 -44 6.5 -85t19.5 -79.5t34 -70t49.5 -56t67.5 -39t85 -16.5q40 109 63.5 235.5t23.5 236.5q0 86 -14 150t-46 104t-79 40q-41 0 -80 -37t-67 -96.5t-45.5 -135.5t-17.5 -151z" />
<glyph unicode="&#xf9;" horiz-adv-x="680" d="M-44 175q0 -186 83 -186q65 0 142.5 108.5t137.5 276.5q-17 -147 -17 -206q0 -179 74 -179q23 0 44.5 12t41.5 32t42.5 57.5t42.5 77t46.5 102.5t49.5 122t57 147v4q0 7 -6 11t-13 4q-41 -108 -72.5 -184t-64.5 -147.5t-59.5 -114.5t-53 -68.5t-50.5 -25.5q-39 0 -39 113 q0 45 6.5 112.5t15 127t26 162.5t28 160.5t34 182.5t32.5 170h-46q-54 -268 -90 -475q-32 -141 -86 -269.5t-112.5 -207t-103.5 -78.5q-55 0 -55 128q0 67 16 180.5t33.5 207t51 263t48.5 251.5h-46q-6 -33 -31 -159t-34 -171t-27 -146.5t-25 -155.5t-14 -122t-7 -117z M108 1376l32 18q37 -65 77 -122t59.5 -80t49.5 -56l-11 -17q-4 3 -11 9t-29.5 28.5t-45.5 49.5t-56.5 73t-64.5 97z" />
<glyph unicode="&#xfa;" horiz-adv-x="680" d="M-44 175q0 49 7 117t14 122t25 155.5t27 146.5t34 171t31 159h46q-15 -82 -48.5 -251.5t-51 -263t-33.5 -207t-16 -180.5q0 -128 55 -128q34 0 77 46.5t84 123t79 178.5t62 207q36 207 90 475h46q-9 -45 -32.5 -170t-34 -182.5t-28 -160.5t-26 -162.5t-15 -127 t-6.5 -112.5q0 -113 39 -113q24 0 50.5 25.5t53 68.5t59.5 114.5t64.5 147.5t72.5 184q7 0 13 -4t6 -11v-4q-34 -88 -57 -147t-49.5 -122t-46.5 -102.5t-42.5 -77t-42.5 -57.5t-41.5 -32t-44.5 -12q-74 0 -74 179q0 59 17 206q-60 -168 -137.5 -276.5t-142.5 -108.5 q-83 0 -83 186zM232 1133q103 115 186 261l29 -18q-23 -37 -46.5 -71.5t-43 -59.5t-37.5 -47t-32 -36l-24 -24t-16 -15l-5 -4z" />
<glyph unicode="&#xfb;" horiz-adv-x="680" d="M-44 175q0 -186 83 -186q65 0 142.5 108.5t137.5 276.5q-17 -147 -17 -206q0 -179 74 -179q23 0 44.5 12t41.5 32t42.5 57.5t42.5 77t46.5 102.5t49.5 122t57 147v4q0 7 -6 11t-13 4q-41 -108 -72.5 -184t-64.5 -147.5t-59.5 -114.5t-53 -68.5t-50.5 -25.5q-39 0 -39 113 q0 45 6.5 112.5t15 127t26 162.5t28 160.5t34 182.5t32.5 170h-46q-54 -268 -90 -475q-32 -141 -86 -269.5t-112.5 -207t-103.5 -78.5q-55 0 -55 128q0 67 16 180.5t33.5 207t51 263t48.5 251.5h-46q-6 -33 -31 -159t-34 -171t-27 -146.5t-25 -155.5t-14 -122t-7 -117z M103 1136q125 102 223 236h31q10 -17 24.5 -43t22.5 -40.5t19.5 -35t18.5 -33t15 -28t13 -26l10 -21t8 -18.5l-31 -17q-50 111 -127 225q-18 -25 -40 -51t-42 -46.5t-39.5 -39.5t-35.5 -33t-28.5 -24.5t-18.5 -16.5l-7 -5z" />
<glyph unicode="&#xfc;" horiz-adv-x="680" d="M-44 175q0 -186 83 -186q65 0 142.5 108.5t137.5 276.5q-17 -147 -17 -206q0 -179 74 -179q23 0 44.5 12t41.5 32t42.5 57.5t42.5 77t46.5 102.5t49.5 122t57 147v4q0 7 -6 11t-13 4q-41 -108 -72.5 -184t-64.5 -147.5t-59.5 -114.5t-53 -68.5t-50.5 -25.5q-39 0 -39 113 q0 45 6.5 112.5t15 127t26 162.5t28 160.5t34 182.5t32.5 170h-46q-54 -268 -90 -475q-32 -141 -86 -269.5t-112.5 -207t-103.5 -78.5q-55 0 -55 128q0 67 16 180.5t33.5 207t51 263t48.5 251.5h-46q-6 -33 -31 -159t-34 -171t-27 -146.5t-25 -155.5t-14 -122t-7 -117z M165 1169q0 15 8.5 27t21.5 12t20.5 -9t7.5 -24t-8 -27t-22 -12t-21 9t-7 24zM394 1169q0 15 9 27t21 12q27 0 27 -33q0 -15 -7.5 -27t-21.5 -12q-13 0 -20.5 9t-7.5 24z" />
<glyph unicode="&#xfd;" horiz-adv-x="655" d="M-44 175q0 49 7 117t14 122t25 155.5t27 146.5t34 171t31 159h46q-15 -82 -48.5 -251.5t-51 -263t-33.5 -207t-16 -180.5q0 -126 55 -126q46 0 106 80.5t115 213t86 277.5q29 171 85 457h50q-29 -113 -195 -1053q55 59 98 112.5t93 124t93.5 153.5t78.5 175h5q2 0 4.5 -1 t4.5 -3t3 -5t1 -6v-4q-37 -99 -83.5 -186.5t-100 -160.5t-98 -125.5t-103.5 -114.5l-87 -488q-7 -38 -21 -68t-33 -51t-43 -32t-50 -11q-28 0 -50 18t-35.5 51t-13.5 76q0 38 8.5 76.5t20 70t34.5 69.5t40.5 64t51 65.5t53.5 61t59 63.5q10 11 16 17q45 246 73 423 q-59 -162 -134.5 -265t-138.5 -103q-83 0 -83 186zM-13 -558q0 -58 20 -87t52 -29q36 0 61.5 37t37.5 105l74 424q-54 -57 -86.5 -95t-69 -89.5t-57 -103t-28.5 -107.5q-4 -20 -4 -55zM248 1133q103 115 185 261l31 -18q-23 -37 -46.5 -71.5t-43.5 -59.5t-38 -47t-32 -36 t-24.5 -24t-15.5 -15l-5 -4z" />
<glyph unicode="&#xfe;" horiz-adv-x="694" d="M-230 -685q0 5 18.5 99t48.5 232.5t53 231.5q12 75 62.5 390t74.5 465t60 381.5t54 360t21 179.5h49q-4 -40 -165 -1019q32 94 63.5 166t67.5 130.5t76 90t82 31.5q51 0 85 -38.5t49 -101t15 -145.5q0 -97 -21 -209t-56.5 -214t-88 -188t-110.5 -129q64 21 130 63.5 t131.5 107t125 157.5t101.5 202q7 0 12 -4t5 -11v-4q-49 -127 -124 -233.5t-158 -174t-168 -105t-160 -37.5h-2q-112 0 -136 153l-137 -827h-58zM-190 -633q0 2 1 11t3.5 27t4.5 33q-2 -15 -4.5 -32t-3.5 -26t-1 -13zM-11 225q0 -60 10 -106t36.5 -77t67.5 -31 q64 0 128 79.5t109.5 197t73.5 253.5t28 249q0 111 -28.5 175.5t-87.5 64.5q-42 0 -93 -62.5t-97.5 -163t-85 -234t-57.5 -268.5q-4 -51 -4 -77z" />
<glyph unicode="&#xff;" horiz-adv-x="655" d="M-44 175q0 -186 83 -186q63 0 138.5 103t134.5 265q-28 -177 -73 -423q-6 -6 -16 -17q-34 -37 -51.5 -56t-47.5 -53.5t-46 -56.5t-39 -55t-35 -59.5t-24.5 -59t-18 -65t-5.5 -65.5q0 -65 28.5 -105t70.5 -40q53 0 93 43.5t54 118.5l87 488q59 62 103.5 114.5t98 125.5 t100 160.5t83.5 186.5v4q0 7 -4 11t-9 4h-5q-67 -174 -157 -306t-206 -259q166 940 195 1053h-50q-56 -286 -85 -457q-31 -145 -86 -277.5t-115 -213t-106 -80.5q-55 0 -55 126q0 67 16 180.5t33.5 207t51 263t48.5 251.5h-46q-6 -33 -31 -159t-34 -171t-27 -146.5 t-25 -155.5t-14 -122t-7 -117zM-13 -558q0 35 4 55q8 56 28.5 107.5t57 103t69 89.5t86.5 95l-74 -424q-12 -68 -37.5 -105t-61.5 -37q-32 0 -52 29t-20 87zM160 1169q0 15 9 27t21 12q14 0 21 -9t7 -24t-8 -27t-22 -12q-13 0 -20.5 9t-7.5 24zM390 1169q0 15 8.5 27 t21.5 12q27 0 27 -33q0 -15 -7.5 -27t-21.5 -12q-13 0 -20.5 9t-7.5 24z" />
<glyph unicode="&#x152;" horiz-adv-x="2341" d="M64 321q0 230 46.5 479.5t127 473t199 407.5t253.5 278l23 -28q-130 -89 -245 -270t-193.5 -403.5t-124 -471.5t-45.5 -477q0 -115 12 -218.5t36 -195.5t63 -166t90 -127.5t119.5 -82.5t150.5 -29q152 0 288 110.5t248 305.5q-20 89 -20 184q0 188 77.5 366.5 t224.5 300.5q29 176 35 333h-50q-147 0 -269.5 34t-204.5 90t-138.5 130.5t-82 153t-25.5 158.5q0 76 22.5 143t64 118.5t105 81.5t140.5 30q100 0 181 -44t137 -122t94.5 -187t56 -235.5t17.5 -271.5v-55q56 7 110 17q-41 123 -41 272q0 77 11.5 152.5t33.5 146t57 130.5 t79.5 105t103.5 70.5t126 25.5q119 0 186.5 -81.5t67.5 -213.5q0 -71 -21 -145t-67.5 -149t-112.5 -138.5t-163.5 -114.5t-213.5 -77q56 -145 156 -188q15 5 62 5h37l-10 -48q-24 0 -59.5 9.5t-47.5 9.5q-179 -29 -326 -145q-39 -240 -114 -463.5t-180 -398.5 q21 -88 59.5 -160t96.5 -127.5t139 -86.5t178 -31q90 0 169.5 29.5t138.5 80.5t106.5 118t77.5 143.5t45.5 155.5t15.5 155q0 102 -25.5 182t-80 130t-130.5 50q-63 0 -116 -31t-86.5 -83t-52 -116.5t-18.5 -133.5q0 -120 52 -214q-11 -11 -20 -11q-21 0 -38.5 44.5 t-25.5 94.5t-8 84q0 58 13.5 114.5t40 106t63 87.5t87.5 60t109 22q91 0 156 -55.5t95.5 -144.5t30.5 -200q0 -79 -17 -159t-49.5 -157.5t-84.5 -144.5t-117.5 -118.5t-153 -81t-186.5 -29.5q-95 0 -176 29t-141 81.5t-103 121.5t-68 153q-115 -181 -255 -283t-294 -102 q-106 0 -192.5 44t-145.5 121t-99 185t-58.5 234t-18.5 269zM698 1672q0 -78 24.5 -155.5t79 -151t132 -129.5t192.5 -90t253 -34h50v79q0 137 -16 258t-50.5 224t-85.5 177t-124 115.5t-162 41.5q-91 0 -159 -47t-101 -122t-33 -166zM1133 68q0 -54 7 -109q173 322 245 745 q-122 -122 -187 -291.5t-65 -344.5zM1449 799q128 88 289 121q-94 59 -144 188q-56 -10 -117 -14q-6 -131 -28 -295zM1583 1408q0 -148 41 -268q93 22 173 61t138.5 88.5t103.5 107t72.5 118.5t41.5 121t14 117q0 104 -44.5 175t-122.5 79q-5 0 -17 1t-17 1 q-63 0 -118.5 -24t-96.5 -67t-73.5 -100t-53 -124.5t-31 -139.5t-10.5 -146z" />
<glyph unicode="&#x153;" horiz-adv-x="1044" d="M-13 363q0 214 72 414l42 -11q-73 -195 -73 -422q0 -96 16.5 -168.5t55 -118.5t95.5 -46q56 0 110 63.5t94.5 162t66.5 218.5q-17 -4 -35 -4q-83 0 -146 23t-99 63t-54 88.5t-18 103.5q0 59 19.5 118t52 105.5t79.5 75.5t98 29q56 0 95 -42t56.5 -111t17.5 -160 q0 -9 -1 -28t-1 -28q15 51 33 97.5t38.5 87.5t44 75t48 58.5t51.5 37.5t54 13q36 0 55.5 -33t19.5 -88q0 -48 -14.5 -104.5t-44.5 -115.5t-71.5 -110t-100.5 -90t-127 -55q-9 -64 -9 -142q0 -67 9.5 -121t29.5 -97t53.5 -66.5t79.5 -23.5q25 0 51.5 12.5t49 31t47 51.5 t43 61.5t41 73.5t37 75.5t35 80t30.5 75t27 70.5q1 3 2 5t2 5l2 6q5 0 9 -2t6.5 -5t2.5 -8v-4q-4 -10 -11 -30q-25 -68 -40.5 -107t-46.5 -110.5t-59.5 -116t-65.5 -92.5t-79.5 -71t-87.5 -23q-51 0 -89.5 26.5t-61.5 74t-34.5 108t-11.5 132.5q0 37 2 55 q-32 -110 -75 -197.5t-100.5 -143t-117.5 -55.5q-51 0 -90 29.5t-62.5 81.5t-35 118t-11.5 145zM160 720q0 -40 9 -75t29.5 -66.5t51 -54.5t77 -36t104.5 -13q6 0 13.5 0.5l15 1t13.5 0.5q27 135 27 264q0 86 -14 150t-46 104t-79 40q-49 0 -96 -47.5t-76 -121t-29 -146.5z M521 486q60 17 113.5 57.5t90.5 91t64.5 108t40 110t12.5 95.5q0 25 -5 44t-15.5 30t-25.5 11q-56 0 -113.5 -81.5t-99.5 -206t-62 -259.5z" />
<glyph unicode="&#x178;" horiz-adv-x="1841" d="M-424 1221q0 -101 24.5 -193.5t77 -174t128 -141.5t183.5 -95t236 -35q90 0 168.5 23t137.5 62t107.5 92.5t81 115t55 129.5t32 134t9.5 131q0 46 -2 68l-41 -9q4 -51 4 -80q0 -55 -7 -109t-21.5 -110.5t-39 -108t-56 -99.5t-75.5 -87t-96 -67.5t-118 -44.5t-141 -16 q-120 0 -221 34t-172 92.5t-120.5 138t-73.5 170t-24 189.5q0 114 31.5 224t96.5 210t156 175.5t220.5 120.5t279.5 45q111 0 210 -36.5t174.5 -100.5t131 -148t84.5 -182.5t29 -200.5q0 -104 -16 -211.5t-38.5 -200.5t-45 -186.5t-38.5 -202.5t-16 -215q0 -161 57 -246.5 t173 -85.5q54 0 109.5 41t103 109t94.5 161.5t84 191.5t70 206q-8 -45 -21 -146t-25.5 -208t-34 -241t-46.5 -254t-64.5 -238t-86.5 -203t-113 -137.5t-143 -52.5q-37 0 -69.5 9t-58.5 27t-44.5 44.5t-29 63.5t-10.5 82q0 58 21 108.5t55 84.5t76.5 54t86.5 20l-4 46 q-50 -2 -99.5 -26t-88.5 -64.5t-63.5 -99t-24.5 -123.5q0 -114 70.5 -181.5t182.5 -67.5q57 0 108 21t93 66.5t77.5 95.5t65.5 129t53 143.5t44.5 163t35 164.5t28.5 170.5t22.5 158t19.5 149.5q11 92 17 131q66 495 162 861t187 557l-50 24q-59 -132 -139.5 -422 t-147.5 -664q-17 -72 -39.5 -152t-53.5 -172t-65.5 -177t-76 -164.5t-84 -138t-90.5 -93.5t-94 -35q-51 0 -87.5 22.5t-57 65t-30 98t-9.5 129.5q0 106 16 214.5t38.5 200t45 183.5t38.5 199.5t16 213.5q0 137 -50.5 263t-137.5 220.5t-212.5 150.5t-267.5 56 q-131 0 -248.5 -32.5t-207 -90t-161 -135t-117 -167.5t-69.5 -187t-24 -194zM1403 2180q0 14 9 26t22 12t20.5 -9.5t7.5 -24.5q0 -7 -2 -14t-6 -12.5t-9.5 -9t-13.5 -3.5q-13 0 -20.5 9.5t-7.5 25.5zM1633 2180q0 14 8.5 26t21.5 12q27 0 27 -34q0 -15 -7.5 -27t-21.5 -12 q-13 0 -20.5 9.5t-7.5 25.5z" />
<glyph unicode="&#x2c6;" horiz-adv-x="453" d="M35 1136q122 100 221 236h33q10 -18 27.5 -49t25.5 -46t21 -38t20 -36t15 -28.5t13 -27t9 -20.5l-32 -17q-51 111 -127 225q-41 -55 -93.5 -109t-84.5 -81l-33 -26z" />
<glyph unicode="&#x2dc;" horiz-adv-x="476" d="M9 1179q41 53 115 53q37 0 109 -16t102 -16q45 0 69 9.5t47 29.5l26 -35q-45 -41 -107 -41q-42 0 -122.5 22.5t-116.5 22.5q-64 0 -101 -48z" />
<glyph unicode="&#x2000;" horiz-adv-x="1213" />
<glyph unicode="&#x2001;" horiz-adv-x="2427" />
<glyph unicode="&#x2002;" horiz-adv-x="1213" />
<glyph unicode="&#x2003;" horiz-adv-x="2427" />
<glyph unicode="&#x2004;" horiz-adv-x="809" />
<glyph unicode="&#x2005;" horiz-adv-x="606" />
<glyph unicode="&#x2006;" horiz-adv-x="404" />
<glyph unicode="&#x2007;" horiz-adv-x="404" />
<glyph unicode="&#x2008;" horiz-adv-x="303" />
<glyph unicode="&#x2009;" horiz-adv-x="485" />
<glyph unicode="&#x200a;" horiz-adv-x="134" />
<glyph unicode="&#x2010;" horiz-adv-x="501" d="M39 571l5 28h411l-6 -28h-410z" />
<glyph unicode="&#x2011;" horiz-adv-x="501" d="M39 571l5 28h411l-6 -28h-410z" />
<glyph unicode="&#x2012;" horiz-adv-x="501" d="M39 571l5 28h411l-6 -28h-410z" />
<glyph unicode="&#x2013;" horiz-adv-x="731" d="M39 571l5 28h639l-4 -28h-640z" />
<glyph unicode="&#x2014;" horiz-adv-x="1070" d="M83 571l4 28h869l-4 -28h-869z" />
<glyph unicode="&#x2018;" horiz-adv-x="278" d="M112 1337q0 151 90 309l19 -9q-70 -132 -70 -261q0 -21 5 -61l-42 -8v7.5t-0.5 8t-1 7.5t-0.5 7z" />
<glyph unicode="&#x2019;" horiz-adv-x="237" d="M116 1640l37 19q35 -92 35 -200q0 -81 -16 -152l-21 5q11 69 11 115q0 109 -46 213z" />
<glyph unicode="&#x201a;" horiz-adv-x="197" d="M-103 -234q99 153 99 317h41q0 -76 -33 -166.5t-91 -161.5z" />
<glyph unicode="&#x201c;" horiz-adv-x="343" d="M59 1360q0 152 90 310l19 -9q-69 -132 -69 -262q0 -21 4 -62l-41 -6q0 4 -1.5 14t-1.5 15zM190 1337q0 151 90 309l18 -9q-68 -130 -68 -261q0 -21 4 -61l-41 -8q0 5 -1.5 15.5t-1.5 14.5z" />
<glyph unicode="&#x201d;" horiz-adv-x="309" d="M39 1622l37 18q34 -99 34 -200q0 -68 -18 -149l-18 3q9 52 9 112q0 109 -44 216zM170 1640l36 19q35 -92 35 -200q0 -81 -16 -152l-21 5q12 75 12 115q0 109 -46 213z" />
<glyph unicode="&#x201e;" horiz-adv-x="272" d="M-103 -234q99 153 99 317h41q0 -76 -33 -166.5t-91 -161.5zM35 -234q98 153 98 317h42q0 -76 -33 -166.5t-92 -161.5z" />
<glyph unicode="&#x2022;" horiz-adv-x="247" d="M37 663q0 44 28.5 81.5t72.5 37.5q22 0 36.5 -10t21 -25t6.5 -36q0 -44 -28.5 -83t-70.5 -39q-33 0 -49.5 21t-16.5 53z" />
<glyph unicode="&#x2026;" horiz-adv-x="543" d="M28 22q0 15 8 27.5t21 12.5t20.5 -9.5t7.5 -24.5t-8 -27t-22 -12q-27 0 -27 33zM234 22q0 15 9 27.5t21 12.5q27 0 27 -34q0 -15 -8 -27t-22 -12q-27 0 -27 33zM440 22q0 15 9 27.5t21 12.5q27 0 27 -34q0 -15 -7.5 -27t-21.5 -12q-13 0 -20.5 9t-7.5 24z" />
<glyph unicode="&#x202f;" horiz-adv-x="485" />
<glyph unicode="&#x2039;" horiz-adv-x="499" d="M32 558l5 29q28 12 74.5 34.5t164 90t203.5 132.5l14 -21q-84 -64 -188 -126t-166 -92l-63 -29q31 -23 65 -52t63.5 -56.5t57.5 -56t50 -52t38.5 -42t25.5 -29.5l9 -10l-28 -30q-17 19 -48 52t-116.5 115.5t-160.5 142.5z" />
<glyph unicode="&#x203a;" horiz-adv-x="552" d="M62 269q83 64 187.5 126t167.5 92l62 29q-68 50 -145 124.5t-121 124.5l-43 49l27 30q18 -19 49 -52t116.5 -115.5t160.5 -142.5l-4 -29q-28 -12 -74.5 -34.5t-164 -90t-204.5 -132.5z" />
<glyph unicode="&#x205f;" horiz-adv-x="606" />
<glyph unicode="&#x20ac;" horiz-adv-x="696" d="M2 422l5 27h129q2 37 15 111h-125l4 27h128q28 125 76 229.5t115.5 172.5t138.5 68q49 0 81 -31.5t45.5 -80t13.5 -111.5q0 -80 -20.5 -160.5t-56.5 -132.5l-37 21q37 58 59.5 138.5t22.5 155.5q0 79 -27 129t-83 50q-61 0 -119 -64.5t-100 -164t-68 -219.5h195l-4 -27 h-195q-14 -74 -18 -111h195l-5 -27h-192q-5 -60 -5 -85q0 -94 18 -165.5t59.5 -116t103.5 -44.5q85 0 151.5 78.5t105.5 215.5l34 -12q-43 -141 -119 -222.5t-179 -81.5q-56 0 -98.5 27.5t-68 76t-38 111.5t-12.5 138q0 24 4 80h-129z" />
<glyph unicode="&#x2122;" horiz-adv-x="744" d="M-18 1626l5 28h318l-5 -28h-132q-15 -111 -46.5 -300t-53.5 -280h-38q20 99 50 281.5t47 298.5h-145zM271 1046q39 130 57.5 196t44.5 186t38 226h25q9 -114 22.5 -250.5t22.5 -216.5l10 -79q49 113 93.5 249.5t63.5 216.5l20 80h32q-24 -203 -24 -391q0 -59 7 -217h-46 q-9 64 -9 202q0 147 14 236q-31 -122 -74.5 -245.5t-81.5 -192.5h-31q-6 39 -13.5 102t-18.5 165t-18 162q-24 -178 -93 -429h-41z" />
<glyph unicode="&#x25fc;" horiz-adv-x="1055" d="M0 0v1055h1055v-1055h-1055z" />
<glyph unicode="&#xfb01;" horiz-adv-x="703" d="M-94 -296q0 235 60.5 644t141.5 776t144 537q25 68 58.5 106t61.5 38q16 0 28 -10.5t18 -31t6 -49.5q0 -84 -49 -263.5t-124 -388t-126 -342.5t-90 -232q-38 -243 -53 -369q19 7 44 22t60.5 40t73 61.5t75.5 81t73.5 105.5t61.5 129q7 0 12.5 -4t5.5 -11v-4 q-27 -69 -67 -133.5t-81.5 -113t-86.5 -88t-83 -64.5t-70 -37q96 -63 142 -157.5t46 -197.5q0 -113 -48.5 -196.5t-117.5 -83.5q-25 0 -45 10.5t-36.5 36t-25.5 73t-9 116.5zM-59 -312q0 -92 19 -145t56 -53q20 0 40 13.5t37 38t30 57t20.5 72.5t7.5 81q0 97 -41.5 187.5 t-131.5 154.5q-3 -19 -9.5 -75t-9 -78t-7 -67t-6.5 -70.5t-3.5 -58t-1.5 -57.5zM57 617q32 80 69 176.5t87.5 240t90 268t67.5 243t28 182.5q0 30 -6.5 43.5t-22.5 13.5q-29 0 -66 -91.5t-78.5 -256t-83 -368.5t-85.5 -451zM326 168q0 90 21 241.5t42 263.5t62 319q1 7 2 11 t2 10.5t2 11t2 10.5t2 11h46q-8 -45 -31.5 -170t-34 -182.5t-28.5 -160.5t-26 -162.5t-15 -127t-7 -112.5q0 -113 38 -113q57 0 126.5 132t174.5 408q8 0 13 -4t5 -11v-4q-29 -77 -49.5 -130t-44.5 -110.5t-42 -95.5t-38.5 -76.5t-37.5 -61.5t-36 -41.5t-37.5 -26.5 t-37.5 -8q-73 0 -73 179zM497 1280q0 16 6.5 29t21.5 13q10 0 17 -5t10.5 -13t3.5 -17q0 -17 -8.5 -28t-22.5 -11q-28 0 -28 32z" />
<glyph unicode="&#xfb02;" horiz-adv-x="733" d="M-94 -296q0 235 60.5 644t141.5 776t144 537q25 68 58.5 106t61.5 38q16 0 28 -10.5t18 -31t6 -49.5q0 -84 -49 -263.5t-124 -388t-126 -342.5t-90 -232q-38 -243 -53 -369q19 7 44 22t60.5 40t73 61.5t75.5 81t73.5 105.5t61.5 129q7 0 12.5 -4t5.5 -11v-4 q-27 -69 -67 -133.5t-81.5 -113t-86.5 -88t-83 -64.5t-70 -37q96 -63 142 -157.5t46 -197.5q0 -113 -48.5 -196.5t-117.5 -83.5q-25 0 -45 10.5t-36.5 36t-25.5 73t-9 116.5zM-59 -312q0 -92 19 -145t56 -53q20 0 40 13.5t37 38t30 57t20.5 72.5t7.5 81q0 97 -41.5 187.5 t-131.5 154.5q-3 -19 -9.5 -75t-9 -78t-7 -67t-6.5 -70.5t-3.5 -58t-1.5 -57.5zM57 617q32 80 69 176.5t87.5 240t90 268t67.5 243t28 182.5q0 30 -6.5 43.5t-22.5 13.5q-29 0 -66 -91.5t-78.5 -256t-83 -368.5t-85.5 -451zM348 245q0 279 84 726t174 690q27 70 58.5 107 t60.5 37q52 0 52 -87q0 -111 -34.5 -264t-79 -282t-104 -274.5t-90.5 -211.5t-58 -122q-30 -236 -30 -360q0 -186 52 -186q24 0 51 25.5t53.5 68.5t59.5 114.5t64 147.5t73 184q7 0 14 -4.5t7 -12.5v-5q-39 -101 -66 -169t-57 -135t-53.5 -108t-49 -74t-50 -47t-50.5 -14 q-81 0 -81 256zM424 654q20 40 42 87t55.5 124.5t63.5 154.5t61.5 171.5t54.5 181t37.5 178.5t14.5 167q0 66 -28 66q-42 0 -100.5 -180.5t-111 -435.5t-89.5 -514z" />
</font>
</defs>
</svg>
