<?xml version="1.0" standalone="no"?>
<!DOCTYPE svg PUBLIC "-//W3C//DTD SVG 1.1//EN" "http://www.w3.org/Graphics/SVG/1.1/DTD/svg11.dtd" >
<svg xmlns="http://www.w3.org/2000/svg">
<metadata></metadata>
<defs>
<font id="scriptina_proregular" horiz-adv-x="3378" >
<font-face units-per-em="2048" ascent="1638" descent="-410" />
<missing-glyph horiz-adv-x="1063" />
<glyph unicode="&#xfb01;" horiz-adv-x="1331" d="M-2315 -1341.5q1 62.5 15 124.5q22 103 82 203.5t140 179t172 139t184 93.5q49 18 47 4q-3 -12 -42 -29q-171 -75 -303 -232t-184 -364q-17 -70 -20 -135.5t8 -122.5t35 -107.5t58 -91t79 -72t97.5 -51.5t114 -28.5t127 -4.5t138.5 22.5t147 50.5q111 48 231.5 140.5 t229 200t232.5 264t221 290t217.5 325t198.5 321.5t187.5 326t162 293t142.5 265q55 105 80 150q35 64 -35 111q-5 3 -14 7t-15 7t-14.5 7.5t-13 8t-10.5 9t-7 10t-2.5 11.5t2.5 14q3 9 10 14.5t18.5 7t21 2t23 -0.5t17.5 -1q15 0 44 -1.5t53.5 -1.5t47.5 3q307 457 531 627 q73 55 153 100.5t168.5 80.5t181 49t173.5 1q36 -4 65 -34.5t29 -52.5q0 -9 -11.5 -30.5t-27.5 -37.5t-26 -8q-27 27 -59 48.5t-67 35.5t-73 19.5t-73 1.5q-72 -11 -148.5 -49t-143 -89.5t-137 -123.5t-125 -138t-112 -146t-94 -136t-74.5 -118h482q64 -7 81.5 -47 t-13.5 -95q-222 -416 -256 -480.5t-44.5 -91t-64.5 -138.5q-23 -44 -32.5 -79.5t-8.5 -57.5t11 -37.5t24.5 -22t34 -8.5t37 0t36.5 6q116 26 212.5 85.5t192.5 153.5q50 46 56 27q5 -18 -27 -57l-9 -10q-90 -90 -180.5 -156.5t-220.5 -124.5q-13 -7 -36.5 -4t-50.5 9.5 t-55 24t-51 38.5t-37 53.5t-13 69.5q1 59 37 165.5t87 220t102 219.5t88 183t38 92q0 4 -45 10t-110.5 8.5t-133.5 2t-121 -11.5t-65 -31q-49 -81 -181 -318q-98 -174 -154.5 -273.5t-172.5 -298.5t-198 -329t-208.5 -321.5t-226.5 -323.5t-228.5 -287t-240 -259 t-235 -193.5t-236.5 -134.5q-95 -37 -185 -56.5t-167 -20.5t-146.5 12.5t-126 40.5t-104.5 65t-83 85t-59 101.5t-35.5 113t-10.5 121zM1239 1226q0 46 74 120q73 78 120 87q22 5 45.5 -6.5t36.5 -31.5t7 -39q-10 -54 -92 -127q-73 -68 -120 -58q-71 14 -71 55z" />
<glyph horiz-adv-x="2048" />
<glyph horiz-adv-x="2048" />
<glyph unicode="&#xd;" horiz-adv-x="2048" />
<glyph unicode=" "  horiz-adv-x="1063" />
<glyph unicode="&#x09;" horiz-adv-x="1063" />
<glyph unicode="&#xa0;" horiz-adv-x="1063" />
<glyph unicode="!" horiz-adv-x="701" d="M74 100q-14 78 0 98q13 17 64 40.5t82 23.5q14 0 20 -6q25 -25 25 -198q0 -18 -48 -39.5t-87 -21.5q-17 0 -24.5 4.5t-15.5 27t-16 71.5zM330 466q0 13 3 22q414 824 602 1331q9 28 68.5 44.5t93.5 4.5q19 -5 30 -89q9 -84 -10 -112q-5 -14 -48 -20.5t-47 -12.5 q-139 -237 -287 -528q-239 -462 -343 -649q-14 -27 -33 -27q-9 0 -15 3.5t-10 12t-4 20.5z" />
<glyph unicode="&#x22;" horiz-adv-x="930" d="M664 1327q0 13 3 16l259 482q13 25 44 25q76 0 76 -60q0 -7 -11 -24q-155 -199 -330 -445q-11 -16 -26 -11t-15 17zM1003 1318q0 9 3 12l263 485q15 26 44 26q24 0 41 -7.5t26 -21t9 -33.5q0 -3 -11 -25q-95 -118 -332 -444q-12 -18 -24 -10q-19 5 -19 18z" />
<glyph unicode="#" horiz-adv-x="1568" d="M13 580q0 13 41.5 37t59.5 24h284q23 36 59 93t85.5 136.5t94.5 148.5h-184q-44 0 -89.5 -3l-45.5 -3q-40 0 -40 16q0 11 39.5 36t58.5 25h307q246 356 363 509q21 16 54 16q27 0 29 -13t-20 -43q-45 -56 -340 -469h340q74 116 364 509q21 16 55 16q27 0 29 -13t-20 -43 q-63 -90 -339 -469h216q15 0 26.5 -2.5t17 -7t5.5 -9.5q0 -11 -32 -31.5t-45 -20.5h-105q-27 0 -72 -3t-63 -3q-118 -172 -250 -372h253q23 0 37.5 -5t14.5 -12t-10 -16.5t-23.5 -18t-27 -14.5t-20.5 -6h-114q-31 0 -83 -1.5t-71 -1.5q-152 -219 -286 -427q-39 -65 -62 -65 q-6 0 -6 10q0 17 23 55q119 196 263 427h-361q-127 -181 -284 -427q-15 -23 -25 -36t-19.5 -21t-17.5 -8q-6 0 -6 10q0 20 22 55q19 31 108 176.5t155 253.5h-177q-41 0 -83 -1.5t-44 -1.5q-39 0 -39 14zM469 641h353q43 76 240 378h-169q-44 0 -101.5 -3t-72.5 -3 q-83 -122 -250 -372z" />
<glyph unicode="$" horiz-adv-x="1501" d="M68 172q0 23 28 44t53 21q11 0 15 -8q122 -79 299 -93q23 0 32 13q148 220 372 598q10 10 11.5 19t-7.5 15q-198 173 -198 346q0 137 133 251q199 171 595 249q10 0 23 13q63 88 113 163q26 25 52 25q19 0 19 -13q-1 -1 -2 -3.5l-2 -5t-2 -3.5q-17 -29 -107 -163 q-3 -3 -3 -6l-3 -3h3h9q46 0 83 -5t68 -16t54.5 -28t40.5 -42q10 -14 10 -36q0 -19 -10.5 -30t-29.5 -11q-26 0 -34 25q-35 82 -226 68q-7 7 -27 -12q-205 -309 -430 -689q-12 -18 3 -33q194 -184 233 -260q23 -47 23 -105q0 -149 -153 -253q-235 -164 -611 -164 q6 0 -14 -16l-2 -2q-26 -47 -120 -189q-15 -24 -48 -24q-27 0 -27 12q0 8 10 27q52 66 123 184q5 9 -13 14q-336 48 -336 126zM562 142q-4 -12 10 -12q124 -14 264 20.5t213 95.5q81 63 81 146q0 67 -59 167q-39 66 -132 160q-9 9 -19 -6q-43 -66 -93 -145t-87 -138.5 t-91.5 -148t-86.5 -139.5zM812 1161q0 -127 123 -265q12 -12 22 3q22 32 61.5 94t79 126t115.5 187t136 219q4 12 3 12q-4 5 -22 0q-326 -76 -453 -213q-65 -74 -65 -163z" />
<glyph unicode="%" horiz-adv-x="2189" d="M485 1010q0 62 16 120q25 104 126 226q20 24 47.5 59.5t41 52.5t29 37t23 31t9.5 17q-4 13 10 59q8 25 103 25q58 58 110 58q55 0 106 -45q3 -3 37.5 -7.5t41.5 -2.5q132 -2 411 -3.5t423 -2.5q25 0 123 46q9 8 94 58q4 2 13 7t13 7t11.5 5.5t11 5.5t9 4.5t9 3.5t7.5 2.5 t7 2t6 0.5q30 0 30 -25q0 -23 -40 -53q-474 -349 -1081 -938q-643 -624 -701 -853q-7 -32 -17.5 -50t-18.5 -18q-7 25 -7 80q23 184 574 760q495 510 1003 923q2 2 -8 2.5t-38 0.5q-696 0 -709 -27q-3 -2 -12 -7t-14 -8.5t-11 -9t-7.5 -12t0.5 -13.5q10 -99 -13 -215 q-50 -170 -179 -294q-149 -150 -314 -194q-43 -10 -84 -10q-191 0 -191 195zM577 1062q0 -103 57 -156t135 -39q134 29 254.5 148.5t174.5 294.5q19 69 19 123q0 158 -155 153q-158 -9 -253 -91q-189 -166 -226 -359q-6 -51 -6 -74zM1346 210q0 48 16 114q44 149 139 272 q115 143 240 185q103 64 191 74q105 9 156 -40.5t51 -160.5q0 -51 -27 -145q-60 -178 -173 -296q-69 -73 -146.5 -121.5t-161.5 -69.5q-43 -13 -87 -13q-98 0 -148 51t-50 150zM1436 256q0 -103 58.5 -156t136.5 -35q136 28 255 146t173 293q19 64 19 123q0 89 -40.5 131.5 t-122.5 37.5q-123 -4 -245 -107q-193 -169 -224 -359q-1 -5 -4 -21.5t-4.5 -29t-1.5 -23.5z" />
<glyph unicode="&#x26;" horiz-adv-x="2523" d="M194 964q4 16 8 26t12.5 17.5t14 11t22 5.5t26.5 3t37 2q143 0 288 3q142 189 375.5 338.5t461.5 201.5q19 6 31.5 20.5t13.5 27t-5 20.5l-9 9q-19 20 -30 32.5t-32.5 40t-34.5 50.5t-28 58t-21 68.5t-5 76.5t11 87q24 95 91 178t153.5 136t182.5 81.5t182 24.5 q56 -1 107 -29t83 -66.5t51 -82.5q27 -60 -4 -122q-19 -40 -43 -40t-30 45q-10 71 -50 125.5t-105 74.5q-32 14 -74 18t-87.5 -3.5t-91.5 -24.5t-88 -48t-75 -70.5t-54 -95t-24 -118.5q-4 -83 17 -156t58.5 -126.5t89 -97t105 -70.5t110.5 -42q48 -12 44 -46q-4 -31 -41 -48 q-26 -11 -55 -9q-51 7 -109.5 10t-141 -1t-163 -18t-173.5 -45.5t-175.5 -77t-164.5 -119.5t-146 -167q81 0 344.5 3t424 4t385 -0.5t382.5 -6.5q28 0 76 0.5t69.5 0.5t55 -2.5t65.5 -8.5q3 -2 63 -20q36 -11 8 -14q51 -42 85.5 -102t34.5 -120q0 -46 -16 -77 q-30 -75 -188 -223q-30 -30 -43 -30q-6 0 -6 5q0 15 27 47q174 179 174 337q0 61 -37 96.5t-109 42.5q-111 13 -213 6l-120 -6q-56 -129 -170 -364.5t-225 -450.5q-7 -14 -24 -52.5t-32.5 -69.5t-33.5 -59q-31 -64 -68 -110q-174 -275 -359 -291q-42 -4 -79.5 9t-68 40.5 t-56 66t-44.5 88t-32 104t-22 116.5q-39 -4 -112 -4q-107 6 -193.5 49t-141 112.5t-82 163.5t-24 198t40.5 219.5t105 224.5q-143 -5 -161 -12q-11 -4 -20 -10t-17.5 -14t-14.5 -15.5t-14.5 -18t-14.5 -17.5q-14 -15 -35 -8t-40 23.5t-31 40t-8 41.5zM553.5 470.5 q13.5 -97.5 52.5 -177.5t108.5 -129.5t159.5 -59.5q9 -1 22 -2.5t25.5 -2.5t20.5 -3q-12 144 8 285.5t66 233.5l25 -13q-29 -113 -41.5 -247.5t-5.5 -258.5q81 2 162 22t147.5 48.5t136 72t119.5 81.5t105.5 90t86.5 83.5t71 75.5q33 33 97.5 138.5t102.5 191.5 q17 39 11.5 53.5t-39.5 14.5h-94.5t-188 0.5t-244.5 0t-278.5 -1t-276 -2t-248.5 -3.5q-5 -11 -30 -62q-53 -107 -73.5 -219t-7 -209.5zM1000 -3q10 -85 30 -155t50 -125t74.5 -83.5t98.5 -25.5q52 2 109 39t108 97.5t95.5 132.5t80.5 151l256 555q-120 -134 -218.5 -228 t-181 -157t-167 -103t-159.5 -61t-176 -37zM1016 615q19 40 26 36t-1 -46z" />
<glyph unicode="'" horiz-adv-x="587" d="M664 1327q0 13 3 16l259 482q13 25 44 25q76 0 76 -60q0 -7 -11 -24q-155 -199 -330 -445q-11 -16 -26 -11t-15 17z" />
<glyph unicode="(" horiz-adv-x="1232" d="M398 84q0 622 411 1158q409 540 1010 684q9 3 28 3q14 0 23.5 -5t9.5 -12q0 -22 -49 -32q-552 -117 -941 -651q-375 -519 -375 -1084q0 -154 41 -324q0 -3 14 -12.5t27 -25t11 -33.5q-4 -26 -22 -50t-42 -38t-46 -14q-13 0 -21.5 4t-14 13t-9.5 24q-55 197 -55 395z" />
<glyph unicode=")" horiz-adv-x="1322" d="M-256 -308q0 24 46 33q548 116 942 651q371 504 371 1081q0 169 -38 325q0 3 -14.5 13.5t-28.5 26.5t-12 33q9 41 42.5 72t67.5 31q38 0 48 -43q52 -186 52 -397q0 -628 -408 -1159q-409 -536 -1010 -680q-9 -3 -25 -3q-33 0 -33 16z" />
<glyph unicode="*" horiz-adv-x="1173" d="M546.5 1193.5q5.5 26.5 33.5 48.5q33 27 104.5 62t170.5 79t151 71q-28 16 -106.5 68.5t-130.5 76.5l-6 -4t-13 -4t-12 8q-12 11 -15 26.5t3.5 29t19.5 24t31.5 11.5t40.5 -7q37 -17 73.5 -44t87.5 -72t73 -63q109 246 133 305q4 9 6 28.5t9 35t26 26.5q39 23 58.5 19 t25 -17t0.5 -24q-32 -67 -90.5 -189t-86.5 -181q66 24 218.5 88t226.5 91q26 13 33 -3q4 -15 -12 -26q-198 -105 -469 -221q90 -76 241 -213q36 -36 20 -52q-10 -9 -26 0q-69 53 -284 224q-124 -284 -148 -372q-20 -74 2 -75q13 0 -11 -15l-16 -7q-32 -10 -32 32 q-1 55 71 267q37 110 50 153q-27 -16 -171 -90.5t-205 -119.5q-2 -1 -1.5 -8t-3 -13t-14.5 -8q-28 -4 -44.5 12t-11 42.5z" />
<glyph unicode="+" horiz-adv-x="1352" d="M46 955q2 1 3 -1q8 -7 19.5 -14t25 -13t24 -10t25.5 -10t21 -8q234 -33 490 -38q61 110 127 219t120 190.5t96 137.5q9 14 66.5 43t82.5 34q20 3 21 -10q1 -4 -3 -6q-25 -8 -56 -34t-49 -49q-178 -237 -346 -525q304 0 472 41q13 2 27 6.5t25.5 12.5t11 20t-16.5 26 q-23 29 -55 43q-14 7 -11.5 13t19.5 6q19 -3 60.5 -33.5t58.5 -53.5q16 -19 18.5 -34.5t-5.5 -25t-19 -15.5t-23 -9q-212 -43 -592 -49q-117 -212 -211 -450q-2 -8 -4.5 -15t-5 -16.5t-3 -17t-0.5 -15t2.5 -12t7 -7t13 -1.5t19.5 6q9 3 32 16t36 17q9 14 14 10q6 -4 -6 -19 q-12 -19 -61.5 -48.5t-79.5 -36.5q-15 -4 -25.5 -4t-17 3t-10 9.5t-4.5 13t0 16t2.5 16.5t4.5 17q67 200 241 518q-291 0 -460 22q-23 4 -118 98q-13 22 -3 26z" />
<glyph unicode="," horiz-adv-x="532" d="M-130 -352q0 9 13 22q103 71 161 157t70 182q3 36 -43 136q-15 25 52 71q69 48 87 43q23 -7 44 -65t21 -110q0 -19 -3 -26q-60 -177 -359 -426q-5 -11 -20 -11q-23 0 -23 27z" />
<glyph unicode="-" horiz-adv-x="840" d="M226 566q0 58 104 58h457q54 0 54 -32q0 -24 -22 -39.5t-62 -15.5h-476q-55 0 -55 29z" />
<glyph unicode="." horiz-adv-x="519" d="M71 100q-10 84 0 98q10 17 62 40.5t83 23.5q8 0 21 -6q25 -25 25 -198q0 -18 -48.5 -39.5t-90.5 -21.5q-15 0 -22 4.5t-14.5 27t-15.5 71.5z" />
<glyph unicode="/" horiz-adv-x="1053" d="M-179 -243q24 216 852 1030q769 754 1259 1112q36 27 65 27t29 -27q0 -24 -40 -52q-513 -381 -1251 -1090q-812 -778 -871 -1010q-6 -31 -17 -49.5t-19 -18.5q-7 19 -7 78z" />
<glyph unicode="0" horiz-adv-x="1578" d="M158 376q0 94 36 226q141 468 556 828q38 30 144 89t180 83q146 79 297 93q193 17 309 -92t116 -322q0 -125 -49 -297q-93 -320 -366 -608q-280 -303 -634 -395q-92 -24 -175 -24q-188 0 -301 110.5t-113 308.5zM333 433q0 -196 103 -313q89 -98 231 -98q317 0 624 330 q263 283 366 621q41 130 41 263q0 380 -342 376q-252 0 -534 -237q-182 -151 -313 -384q-129 -222 -160 -386q-16 -103 -16 -172z" />
<glyph unicode="1" horiz-adv-x="1232" d="M-149 3q0 67 59 71q198 23 430 33q241 432 796 1230q13 17 13 38q0 23 -22 23q-15 0 -34 -6q-167 -65 -521 -179q-33 -9 -47 -9q-17 0 -23.5 4.5t-3.5 14.5q8 16 58 36q639 233 962 421q19 9 35 9q17 0 28.5 -10.5t11.5 -28.5q0 -31 -24 -45q-14 -9 -67.5 -42t-93.5 -59 q-5 -3 -8.5 -8.5t-6.5 -17t-5 -19t-5.5 -25.5t-4.5 -26q-123 -98 -439 -515q-325 -425 -441 -653q-19 -50 -19 -65q0 -62 126 -82q162 -22 250.5 -30.5t135.5 -4.5q31 3 47.5 -3t16.5 -19q0 -30 -70.5 -36t-294.5 -6h-56h-103q-460 0 -621 -19q-15 -2 -26 -1t-18 4t-11 9.5 t-4 15.5z" />
<glyph unicode="2" horiz-adv-x="1538" d="M3 6q0 81 117 105q235 44 482 154q288 134 531 324q360 282 407 579q19 106 -61 221q-96 130 -243 161q-57 13 -136 13q-215 0 -452 -133q-7 -5 -12.5 -3t-5.5 9q0 35 16 59t52 42q297 160 587 136q212 -14 330 -151q93 -113 93 -269q0 -312 -458 -657 q-354 -274 -741 -414q-43 -15 -43 -37q0 -64 809 -64q40 0 58.5 -10.5t18.5 -34.5q0 -19 -19 -28.5t-55 -7.5q-125 9 -308 9q-418 0 -908 -37q-59 -5 -59 34z" />
<glyph unicode="3" horiz-adv-x="1316" d="M-318 -155q0 23 10.5 47.5t29 41.5t38.5 17q47 0 52 -71q5 -100 188 -100q239 0 550 143q386 175 488 423q30 73 30 139q0 161 -123 256q-147 114 -441 100q-22 0 -22 14q0 20 24.5 40.5t52.5 20.5q186 0 417 133q225 133 296 255q46 73 46 146q0 68 -37 103.5t-107 35.5 q-226 0 -461 -110q-24 -14 -24 13q0 53 52 80q215 126 512 126q129 0 191.5 -48.5t62.5 -148.5q0 -81 -41 -142q-158 -239 -602 -405q-27 -9 -27 -28q0 -4 2.5 -7.5t6 -7t9.5 -6t12 -3.5q106 -8 192.5 -60t136 -137t49.5 -184q0 -84 -47 -181q-130 -266 -561 -451 q-354 -147 -634 -151q-321 -10 -321 107z" />
<glyph unicode="4" horiz-adv-x="1494" d="M0 365q0 38 19 62q13 19 68 45q14 5 65 37q168 191 598 546q446 364 664 498q6 3 19 3q19 0 29.5 -10.5t10.5 -27.5q0 -23 -27 -36q-238 -143 -702 -515q-453 -358 -528 -455q107 19 285 19q137 0 327 -10q168 -12 194 -12q297 414 793 1077q60 75 192 75q34 0 34 -18 q0 -6 -3 -9q-152 -176 -494 -615q-275 -351 -383 -521q276 -15 318 -7q16 4 16 -6q0 -16 -36 -43.5t-64 -27.5q-196 0 -281 6q-46 -66 -100 -140.5t-81 -113t-37 -55.5q-166 -258 -180 -402q-3 -18 -10 -28.5t-17 -10.5q-8 0 -14.5 5.5t-9.5 17t-1 26.5q19 249 309 701 q-97 10 -365 10q-328 4 -463 -16q-36 -5 -71 -55q-35 -45 -49 -45q-25 0 -25 51z" />
<glyph unicode="5" horiz-adv-x="1474" d="M-32 74q0 34 37 63.5t79 29.5q31 0 39 -15q121 -136 436 -136q299 0 493 117q161 102 161 294q0 104 -71 175q-178 174 -676 300q-36 14 -36 46q0 41 74 142q234 326 428 556q24 34 71 34q35 0 152 -46q32 -24 65 -35q151 -3 663 -3q32 0 32 -21q0 -23 -17.5 -33.5 t-56.5 -10.5q-394 0 -933 -17q-232 -219 -346 -408q-16 -30 -12.5 -47.5t27.5 -26.5q68 -25 133 -49.5t99.5 -38.5t71.5 -29t39 -16q122 -55 202.5 -100.5t133.5 -93.5q96 -87 96 -217q0 -131 -93 -238q-296 -340 -799 -340q-174 0 -330 47q-162 46 -162 117z" />
<glyph unicode="6" horiz-adv-x="1504" d="M191 305q0 413 420 869q553 602 1103 700q13 3 40 3q13 0 20.5 -1.5t11.5 -5t4 -9.5q0 -8 -16 -16.5t-45 -13.5q-339 -65 -680 -374q-270 -241 -499 -590q317 127 580 127q71 0 106 -18q218 -68 218 -300q0 -189 -130 -368q-110 -155 -289 -265q-222 -133 -424 -133 q-79 0 -158 25q-262 83 -262 370zM330 278q0 -177 90 -253q72 -61 188 -61q162 0 356 113q184 112 268 285q56 108 56 237q0 211 -124 272q-76 34 -207 34q-250 0 -432 -87q-195 -232 -195 -540z" />
<glyph unicode="7" horiz-adv-x="1335" d="M65 -291q37 260 1442 1748q15 9 15 25q0 12 -17 23.5t-45 16.5q-107 14 -422 18q-276 5 -349 -6q-14 -1 -34 -6.5t-36 -11t-50 -18t-54 -19.5q-16 -16 -39 -16q-26 0 -26 25q0 39 97 84q87 40 132 49q348 5 914 19q17 -4 64 6q18 15 97 52q36 8 52 -11t16 -66 q0 -50 -37 -87l-960 -938q-343 -334 -509 -567.5t-144 -325.5q5 -23 -17.5 -45.5t-47.5 -22.5q-27 0 -37 17.5t-5 56.5z" />
<glyph unicode="8" horiz-adv-x="1581" d="M55 229q0 103 35 188q39 98 142.5 208.5t265.5 226.5q163 112 543 342q-93 177 -93 307q0 103 55 163q78 95 263 167q164 64 316 68q72 5 143 -31q80 -32 75 -78q2 -31 -5 -48t-19 -17q-4 0 -9 1.5t-8 2.5t-7.5 3t-7.5 3q-12 8 -40 27.5t-40 27.5q-69 48 -166 48 q-60 0 -124.5 -16.5t-107.5 -48.5q-149 -115 -149 -281q0 -112 57 -233q181 85 428 236q255 160 378 271q44 40 65 40q9 0 9 -13q0 -46 -215 -196.5t-635 -395.5q118 -208 164 -311q118 -245 127 -381q14 -237 -321 -469q-320 -225 -640 -225q-101 0 -188 28t-152 79.5 t-102 130.5t-37 176zM164 210q0 -295 345 -355q199 -34 488 126q343 194 343 510q0 167 -98 350q-7 14 -23.5 42t-34.5 57t-53.5 85.5t-62.5 101.5q-679 -374 -858 -732q-46 -89 -46 -185z" />
<glyph unicode="9" horiz-adv-x="1387" d="M52 -139q0 25 65 35q342 66 676 341q320 267 528 621q-245 -120 -548 -120q-90 0 -149 19q-106 32 -159.5 106t-53.5 186q0 194 139 394q105 147 295 268q230 139 430 139q81 0 164 -25q134 -44 200 -137.5t66 -241.5q0 -404 -449 -890q-558 -606 -1133 -708 q-12 -3 -36 -3q-10 0 -16.5 1t-10.5 2.5t-6 4.5t-2 8zM580 1109q0 -182 112 -251q86 -49 228 -49q240 0 426 93q210 253 210 574q0 170 -90 256q-74 64 -194 64q-164 0 -352 -113q-191 -121 -272 -294q-68 -148 -68 -280z" />
<glyph unicode=":" horiz-adv-x="540" d="M6 100q-10 84 0 98q10 17 62.5 40.5t83.5 23.5q8 0 20 -6q26 -25 26 -198q0 -18 -49 -39.5t-91 -21.5q-14 0 -21 4.5t-15 27t-16 71.5zM351.5 767q-0.5 6 0 9.5t1.5 7t2.5 6t3.5 3.5q9 19 61 43.5t84 24.5q11 0 17 -6q29 -29 29 -201q0 -17 -49.5 -39.5t-89.5 -22.5 q-15 0 -22 5.5t-15 29t-15 71.5q-1 7 -2.5 17t-2 15.5t-1.5 13.5t-1 12.5t-0.5 10.5z" />
<glyph unicode=";" horiz-adv-x="513" d="M-191 -352q0 9 12 22q104 71 161.5 157t69.5 182q4 36 -43 136q-14 25 53 71q68 48 87 43q15 -4 30 -33.5t24.5 -69t9.5 -72.5q0 -19 -3 -26q-60 -177 -359 -426q-5 -11 -18 -11q-24 0 -24 27zM335.5 767q-0.5 6 0 9.5t1.5 7t2.5 6t3.5 3.5q9 19 61 43.5t84 24.5 q10 0 16 -6q30 -30 30 -201q0 -17 -49 -39.5t-90 -22.5q-14 0 -21.5 5.5t-15 29t-15.5 71.5q-1 7 -2 17t-2 15.5t-2 13.5t-1 12.5t-0.5 10.5z" />
<glyph unicode="&#x3c;" horiz-adv-x="2319" d="M349 991q19 36 800 325.5t1106 394.5l-245 -136q-13 -3 -670.5 -305.5t-660.5 -308.5q-7 -51 40 -84q93 -73 294.5 -217t441.5 -299t335 -189q14 -6 37.5 -13t45 -11t59.5 -12t62 -13q17 4 30.5 1.5t16.5 -1.5q2 -1 5.5 -5.5t5 -6t4.5 -5.5t4 -6t3 -5.5t2.5 -6t1 -5.5 t0 -6t-1.5 -6q-40 -40 -153 -31q-9 0 -28 2t-28 2.5t-24.5 2.5t-24 3.5t-20 3.5t-20.5 4.5t-16 6.5q-87 50 -320 199t-487 307t-429 251q-20 24 -65 33q-9 1 -15.5 1t-12 -0.5t-21 -1.5t-33.5 -2q-74 36 -19 139z" />
<glyph unicode="=" horiz-adv-x="1745" d="M324 596q0 49 120 49h1048q67 0 67 -27q0 -46 -96 -46q-201 -3 -1081 -3q-58 0 -58 27zM447 923q0 47 122 47h1046q68 0 68 -22q0 -49 -97 -49q-197 -3 -1077 -3q-62 0 -62 27z" />
<glyph unicode="&#x3e;" horiz-adv-x="2322" d="M324 25l245 136q5 1 213.5 96.5t456.5 209.5t454.5 210.5t208.5 99.5q8 48 -41 84q-103 79 -296.5 217.5t-436.5 296t-338 191.5q-10 4 -23.5 8.5t-26 8t-34 7.5t-34.5 6.5t-41.5 7.5t-41.5 8q-15 -2 -33 -0.5t-19 0.5q-3 4 -7.5 11.5t-7 12t-5 10t-2 10.5t2.5 11 q44 44 152 31q116 -10 158 -25q91 -51 322.5 -199t486.5 -306.5t428 -251.5q25 -24 68 -33q9 -1 15.5 -1t11.5 0.5t19 1.5t31 2q82 -37 23 -139q-12 -26 -428 -186.5t-857 -318t-624 -217.5z" />
<glyph unicode="?" horiz-adv-x="1267" d="M276.5 118.5q-0.5 18.5 1 31t12 22.5t19.5 15.5t31 17.5q6 3 9 5q62 27 78 27q9 0 13 -0.5t11.5 -5.5t12 -15t9.5 -31t9 -52q4 -47 3.5 -71.5t-3.5 -36.5q-10 -17 -56 -35t-80 -18q-21 0 -31 5t-19 26.5t-15 67.5q-4 29 -4.5 47.5zM376 572q0 25 19 30q469 135 773 291 q489 258 489 599q0 86 -36 213q-38 120 -122.5 213t-191.5 142t-217 49q-168 0 -249 -115q-28 -36 -42 -36q-12 0 -12 12q0 14 19 52q114 153 278 195q71 16 120 16q213 0 374 -162q131 -130 192 -314q39 -136 39 -250q0 -325 -321 -513q-138 -81 -450 -213 q-306 -128 -458 -176q-40 -10 -55 -55q-9 -26 0.5 -63t23 -67t13.5 -34q0 -24 -22 -24q-43 0 -104 79q-60 71 -60 131z" />
<glyph unicode="@" horiz-adv-x="3276" d="M324 346q0 235 58.5 457t163.5 408t256 341.5t331.5 264t394 168.5t439.5 60q184 0 350 -39t303 -111t248 -177.5t187.5 -236t117.5 -289.5t41 -334q0 -267 -95.5 -523t-265.5 -435q-104 -104 -213 -181q-297 -210 -475 -275q-93 -33 -188 -33q-158 0 -263 85 q-115 91 -106 251q10 270 192 657q112 249 216 405q21 36 -3 36q-7 0 -13 -11q-139 -164 -437 -420q-269 -230 -489 -362q-33 -24 -74 -24q-80 0 -80 111q0 234 358 593q308 303 583 417q68 25 133 25q77 0 155 -28q54 -6 61 -4q47 8 87 43q10 9 16 9q13 0 23 -16t7 -26 q-24 -37 -89 -137.5t-98 -152.5t-84 -133t-92 -149q-251 -422 -316 -833q-3 -22 -3 -61q0 -217 251 -217q111 0 227 40q60 20 152.5 72.5t188 118.5t187 144t145.5 143q148 175 229 414.5t81 484.5q0 158 -38.5 301.5t-110 261.5t-174 214.5t-228.5 162.5t-276.5 102 t-314.5 36q-141 0 -275 -25.5t-259 -76t-236 -124.5q-148 -100 -265 -231q-9 -10 -28.5 -33.5t-30.5 -36.5t-27 -32.5t-29.5 -37.5t-26.5 -37q-119 -170 -176 -308q-94 -237 -123 -426q-10 -70 -14.5 -115t-6 -93.5t-1.5 -131.5q0 -109 36 -288q28 -159 93 -301 q141 -313 405 -508q68 -49 142.5 -89.5t155.5 -72t167.5 -53t179.5 -33t189 -11.5q162 0 322 25t292.5 67t239.5 90.5t189 102.5q-144 -122 -312 -207.5t-356 -130.5t-384 -45q-216 0 -416 53.5t-366.5 150.5t-303.5 237t-232 310t-147 372.5t-52 420.5zM1114 253 q0 -78 57 -78q22 0 49 16q368 237 812 773q9 9 9 27q0 36 -41.5 64.5t-106.5 28.5q-57 0 -111.5 -19.5t-111.5 -60.5t-111.5 -93t-125.5 -130q-211 -235 -303 -454q-16 -28 -16 -74z" />
<glyph unicode="A" d="M123 389q0 173 84 384q79 190 204.5 306.5t304.5 162.5q138 36 362 36q500 0 1256 -164q193 203 523 600q393 469 564 732q17 17 41 17q52 0 123 -46q36 -22 51 -38t11 -30q-42 -129 -98.5 -297.5t-92.5 -279t-59 -186.5q-138 -448 -180 -693q166 -48 268 -48q53 0 78 12 t25 39q0 80 -106 172q-27 18 -27 38q-2 7 2 14t11 7q5 0 10 -2.5t7.5 -4.5t10 -7.5t8.5 -6.5q122 -107 162 -210q3 -6 3 -13q0 -16 -17 -31q-23 -21 -80 -43q-19 -6 -55 -6q-94 0 -306 42q-75 -369 -75 -580q0 -113 22 -181q2 -4 19.5 -13t34 -18t14.5 -13q-5 -49 -64 -49 q-21 0 -26 12q-52 107 -52 376q0 214 32 482q-344 68 -779 171q-317 -331 -751 -637q-618 -436 -1036 -441h-7q-197 0 -307 114q-112 116 -113 321zM201 427q0 -182 83 -288q99 -123 265 -123h13q426 9 997 417q344 242 707 613q-620 155 -1201 155q-227 0 -367 -33 q-302 -69 -436 -414q-61 -160 -61 -327zM2398 1093q370 -111 730 -180q39 387 334 1291q6 32 6 41q0 52 -28 52q-21 0 -52 -31q-494 -654 -990 -1173z" />
<glyph unicode="B" horiz-adv-x="1610" d="M-643 1884q-1 10 -1 21q0 17 2 33q4 28 21 56q33 59 108 108.5t165 81t199.5 55.5t204 36.5t187 20t139 9.5t68.5 2q146 -3 248.5 -6.5t234.5 -13t232.5 -24.5t218 -41.5t216 -62.5t203.5 -88.5t200 -119.5q87 -60 135 -132.5t54 -144.5q1 -14 1 -28q0 -58 -21 -118 q-26 -74 -83.5 -140.5t-140.5 -121.5q-118 -80 -273.5 -149.5t-313.5 -117.5t-290.5 -79.5t-255.5 -52.5q-26 -4 -36.5 -15.5t-1 -22.5t34.5 -14q95 -13 191.5 -42t170.5 -64t128.5 -69.5t83.5 -62.5q41 -41 61 -83q21 -44 21 -81q0 -33 -16 -69q-17 -38 -38.5 -66.5 t-58 -61t-64 -53t-65.5 -46.5q-112 -78 -274 -116q-123 -29 -267 -29q-45 0 -93 3q-85 6 -85 32q0 18 32 29q15 4 30 4q24 -1 49 -1q142 0 286 25q169 29 300 88q58 26 100 74t58 102q7 23 7 48q-1 33 -13 67q-22 60 -84 107q-76 58 -277 113.5t-338 74.5 q-62 -73 -255.5 -366t-265.5 -453q-32 -67 -49 -67q-7 0 -7 14q0 18 13 60q62 197 473 821q-56 13 -78 22q-32 12 -44.5 34t-5.5 39t22 19q134 11 185 25q134 183 260 402t201 382q8 18 14.5 38.5t10 43.5t-5 40t-28.5 20q-22 4 15 30q54 37 111 45q8 1 15 1q45 0 45 -42 q0 -3 -2 -15q-31 -184 -524 -935q64 11 165.5 34t243.5 63t275 85t260 105.5t198 120.5q52 42 93.5 90.5t70 110.5t31.5 122v9q0 56 -33 117q-36 66 -113 124q-116 87 -260 152.5t-286 105t-310.5 65t-315.5 35.5t-319 13q-7 1 -26 1q-66 2 -127 2q-686 0 -838 -297 q-16 -27 -14 -57t13 -58.5t32 -56.5t44.5 -51.5t50 -45t48 -36.5t39.5 -25q40 -22 45 -45q4 -14 -12 -13q-19 2 -49 20q-4 3 -14 10q-34 20 -52 31.5t-52 34.5t-53.5 39t-46.5 41t-41.5 45t-29 46.5t-17.5 50.5z" />
<glyph unicode="C" horiz-adv-x="2591" d="M243 648q0 354 417 776q363 367 906 663q516 279 861 321q88 9 175 9q245 0 353 -98l41 43q4 16 23 10q16 -4 16 -23q0 -8 -42 -61q45 -57 45 -185q0 -129 -44.5 -240t-155.5 -239q-146 -168 -318 -265q-9 -5 -54 0q-52 10 -52 22q0 182 185 474q138 224 278 374 q-59 130 -321 130q-79 0 -161 -13q-549 -103 -1188 -580q-675 -509 -825 -1000q-23 -83 -23 -158q0 -239 203 -388q225 -162 624 -162h43q492 10 1016 223q485 194 784 469q18 23 35 23q14 0 14 -16q0 -11 -24 -35q-296 -301 -802 -515q-532 -220 -990 -220h-36 q-397 10 -673 177q-310 189 -310 484zM2498 1446q-2 -7 -2 -13q0 -12 8 -16q6 -4 14 -4t16 4q250 165 353 414q41 98 41 201q0 89 -32 145q-137 -143 -243 -346q-114 -219 -155 -385z" />
<glyph unicode="D" horiz-adv-x="2082" d="M-799 1744q29 162 136.5 290.5t261.5 208.5t343 133.5t386 72.5q187 18 368 18h20q190 -1 348.5 -22.5t269.5 -57.5q220 -71 397.5 -175t298.5 -226.5t197 -264.5q77 -141 101 -289q13 -75 12 -153q0 -74 -12 -150q-24 -155 -93.5 -301.5t-190.5 -288t-284 -261.5 q-55 -41 -130.5 -85.5t-169.5 -90.5t-195.5 -87.5t-209.5 -73.5q-108 -31 -211 -51q-96 -18 -187 -19q-7 1 -15 1q-98 2 -179.5 23.5t-146 75.5t-100.5 136q-12 28 -20.5 28.5t-23.5 -28.5q-5 -15 -14.5 -39t-16.5 -41.5t-15 -40t-14.5 -47t-11.5 -50.5q-9 -48 -29 -55 q-2 -1 -4 -1q-10 0 -14 19q-3 18 2 48q3 15 6.5 30t8.5 33t9 31.5t11.5 36t11 33.5t13 37t12 33.5t13 36t12.5 33.5q4 17 4 22t-7 27q-21 49 -21 84q0 21 8 38q20 44 90 48q9 0 9 0.5t2 12.5q195 397 492.5 878.5t461.5 668.5q32 36 90 41q45 3 49 -19q3 -10 -9 -25 q-126 -159 -348 -486t-433 -670.5t-275 -496.5q-18 -42 -18 -97q1 -4 1 -9q2 -61 24 -104q29 -50 82.5 -85t123.5 -52q70 -18 154 -22q25 -1 50 -1q62 0 128 8q93 11 191 32.5t196.5 55.5t191.5 75.5t179.5 93t156.5 108.5q141 113 243 245t159 269t73 281q6 53 5 105 q-1 89 -17 176q-26 137 -97.5 268.5t-181.5 244t-267.5 207.5t-350.5 159q-84 27 -191 49t-233 35.5t-260 17.5q-36 1 -72 1q-99 0 -201 -8q-138 -11 -269.5 -34.5t-253 -69t-220.5 -107t-174 -151.5t-112 -199q-19 -56 -25 -114q-3 -29 -2 -57q0 -28 2 -54q6 -52 24 -109 t38 -103.5t52.5 -100.5t59 -92.5t64.5 -86t62 -75.5t58 -66q28 -30 37.5 -52.5t2 -29.5t-30 3t-51.5 38q-227 219 -329 423q-75 151 -75 298q0 52 9 103z" />
<glyph unicode="E" horiz-adv-x="2655" d="M488 1093v29q0 231 106 406q113 186 360 349q76 51 155.5 93t162.5 74t163.5 57t174 43.5t177 32t189 23.5t193.5 16.5t206 12.5q72 78 113 108q10 6 17 6h3q6 -2 13 -11.5t11 -23t12 -28.5t17.5 -27.5t26.5 -21t40 -8.5q389 -4 796 -74q32 -10 51.5 -33.5t19.5 -53.5v-8 q1 -20 -13 -30q-16 -12 -40.5 -11t-50.5 9q-151 29 -442 53q-269 22 -467 22h-33q-185 -181 -370 -420t-347 -492q260 21 585 23q42 0 82 1q275 0 494 -15q12 -1 22 -6t15 -10.5t8 -12.5t1 -13t-7 -11t-15.5 -8t-23.5 -3q-279 -3 -683.5 -35t-575.5 -76q-45 -79 -74 -133 t-72.5 -147t-69.5 -170t-46.5 -174.5t-22.5 -187.5v-6q1 -65 23 -115q24 -53 62 -85t90 -51t106 -24q27 -2 54.5 -2.5t56.5 2.5q215 18 511.5 105t526.5 219q23 10 33 4t7.5 -21t-16.5 -23q-152 -120 -345 -209.5t-377 -132.5t-343 -43q-26 0 -60 5t-78.5 17.5t-88.5 32 t-88 51t-78.5 70.5t-58.5 95t-30 120q-2 22 -2 45q0 69 16 151q20 110 56.5 214t78 194.5t80.5 152.5q-23 0 -38.5 1.5t-34 9.5t-26.5 22q-16 9 -31.5 30.5t-21 47t15.5 46.5q11 11 42 19t64 11.5t72 9.5t59 12q341 513 673 915q-113 0 -234 -10.5t-257 -34t-264.5 -59 t-258 -89.5t-235.5 -122q-90 -57 -165 -127.5t-135.5 -156t-97 -189t-43.5 -216.5q-2 -28 -2 -56q0 -274 187 -571q13 -24 9.5 -38.5t-21.5 -11.5t-33 25q-92 130 -154 306t-67 346z" />
<glyph unicode="F" horiz-adv-x="1387" d="M-968 1507q-2 36 -1 71q0 114 18 228q24 148 80 278q51 119 131.5 207.5t178 141.5t218.5 81t245 32q29 1 60 2q98 0 206 -12q142 -14 274.5 -41.5t276.5 -68t265.5 -83t247.5 -91.5q619 -246 1011 -278q54 -5 101 -4q224 0 278 102q15 29 15 66q0 56 -35 128 q-8 18 -19.5 36.5t-19.5 29.5t-26.5 30t-24.5 24.5l-30 27.5q-42 35 -19 37q18 2 48 -15q43 -25 77.5 -60.5t55.5 -75.5q22 -42 32 -86q7 -33 6 -64v-23q-4 -43 -23 -83t-50.5 -71.5t-81.5 -53.5t-113 -29q-67 -8 -139 -8q-51 0 -104 4q-128 10 -249.5 37.5t-255.5 68 t-262 87.5t-269.5 96t-277.5 94t-285.5 80.5t-294 57t-303.5 21.5q-3 0 -6 1q-156 0 -308 -24q-110 -17 -202 -69.5t-156.5 -129.5t-109.5 -176.5t-66 -210.5q-20 -111 -22 -232v-18q0 -112 17 -222q19 -119 58 -235t94.5 -217t131.5 -186.5t165 -142.5q76 -48 165 -70 q72 -17 144 -18q17 0 33 1q88 5 175.5 36t159.5 82.5t128.5 128.5t84.5 170q3 11 29 14t26 -14q-13 -95 -67.5 -178.5t-131.5 -142.5t-172.5 -99t-190.5 -54q-51 -8 -101 -8q-42 0 -84 6q-90 12 -157 52q-132 82 -239 199t-177.5 251t-112.5 284.5t-50 300.5zM702 -136 q-3 26 -3 61q-1 141 55 421q70 348 162 593q11 35 -13 51t-62 16q-6 1 -12.5 0.5t-12.5 -1.5t-10.5 -2t-10.5 -3t-9.5 -3.5t-8.5 -3.5q-16 -7 -23 -6t-4 16q7 26 27 44t53 30t90 26q42 10 59.5 23t39.5 59q139 290 285 510q30 48 -1 48q-21 -1 -77 -26q-42 -19 -48 1 q-5 16 14 30q7 4 15 6q52 25 117 72.5t100 78t87 76.5q7 7 11 10q15 13 29 13q13 0 27 -14q19 -19 19 -46q0 -11 -3 -23q-6 -23 -22 -41q-5 -7 -44.5 -57t-72 -93t-85 -117.5t-95 -141.5t-88.5 -151.5t-78 -161.5q-12 -34 -7 -42t44 -13q80 -13 198 -19q109 -5 193 -5 q7 -1 15 -1q90 0 201.5 3t133.5 3q50 0 50 -11q0 -14 -54 -24q-55 -18 -199.5 -25.5t-351 -10t-235.5 -3.5q-37 -3 -54.5 -17.5t-29.5 -53.5q-50 -135 -85.5 -241t-75.5 -243t-58 -257q-14 -91 -14 -165q0 -24 1 -46q0 -15 5 -24t11 -11.5t11.5 -8.5t7.5 -14t-1 -29 q-19 -68 -57 -89q-11 -6 -20 -6q-19 0 -29 26q-6 13 -7 33z" />
<glyph unicode="G" horiz-adv-x="2989" d="M324 611q0 128 41 253q207 637 1127 1152q809 451 1536 451q70 0 140 -4q198 -9 355 -150q143 -128 201 -319q10 -14 10 -33q0 -10 -3.5 -12.5t-12.5 -0.5q-14 5 -22 25q-41 103 -127 195q-143 148 -392 172q-45 3 -142 3q-756 0 -1575 -466q-839 -476 -1024 -1029 q-47 -149 -47 -265q0 -184 136.5 -280.5t406.5 -98.5h12q450 0 1172 362q623 309 858 534q3 1 15 20q130 303 207 405q51 39 154 132q9 10 15 10q20 0 26 -43q2 -17 2 -32q0 -24 -5 -42q-61 -231 -146 -321q-4 -3 -13 -6l-27 -9t-31 -10q-48 -88 -324 -635q57 -57 92 -174 q-20 -33 -98 -123q-24 -12 -164 -52q-434 -779 -735 -980q-337 -223 -547 -228h-16q-232 0 -366 111q-127 107 -127 278q0 167 124 305q192 211 725 362q265 74 856 182q80 185 321 689q16 35 16 49q0 4 -0.5 5t-2.5 1q-1 0 -38 -27q-421 -304 -914 -540 q-307 -146 -565 -219.5t-463 -77.5h-22q-252 0 -419 113q-180 126 -180 368zM920 -624q0 -136 109 -213q115 -83 339 -83h21q287 10 529 204q278 219 645 917l-288 -65q-371 -83 -638 -179q-401 -145 -585 -306q-132 -123 -132 -275zM2705 275q8 1 17.5 4.5t16 6.5t20 10 t19 10t22.5 12.5t22 11.5q36 28 41 90q1 8 1 15q0 57 -36 93q-10 -24 -29.5 -63t-45.5 -90.5t-48 -99.5z" />
<glyph unicode="H" horiz-adv-x="3335" d="M49 -246q8 59 37.5 124.5t72 125t83 106.5t82.5 88q26 23 41 12q14 -9 -7 -32q-1 -1 -2 -3q-71 -79 -134.5 -198t-76.5 -230q-3 -23 -3 -44q0 -36 8 -64q12 -45 42 -70t72 -35q29 -7 64 -8q18 0 36 2q58 5 121 20t139 41q156 54 330 161t335.5 242t318.5 294.5t288.5 319 t236.5 314.5q-11 -1 -66.5 -11t-83.5 -10q-43 0 -72 47q-18 28 -18 50q0 14 7 26q10 17 36 19q31 6 78 7.5t104 2.5t99 4q59 73 125.5 192.5t118.5 244t70 210.5q21 98 21 181q0 105 -34 187q-60 146 -218 193q-70 21 -159 21q-110 0 -248 -32q-301 -74 -600.5 -277.5 t-551.5 -495.5q0 -26 -3.5 -44t-7.5 -25.5t-14 -23.5q-31 -42 -73 -83.5t-81 -63.5q-9 -6 -18 -6q-21 0 -38 33q-19 34 -19 69q0 14 3 28q4 15 11 26q115 172 285 335t353.5 286.5t372 211t349.5 121.5q130 28 240 28q68 -1 129 -11q158 -28 258 -115t140 -228 q23 -84 23 -182q0 -67 -11 -140q-20 -143 -99.5 -330.5t-162.5 -309.5q36 1 118 1q110 0 300 -2q148 -2 250 -2q128 0 184 3q111 235 311.5 554.5t342.5 502.5q15 20 5.5 31.5t-35.5 2.5q-17 -3 -24 8t5 23q46 55 115 127t149 151.5t104 104.5q11 10 24 10h4q15 -2 29.5 -16 t25.5 -32q10 -18 16 -39q3 -12 4 -23q0 -8 -2 -14q-265 -297 -528.5 -685.5t-413.5 -705.5q17 0 47 1.5t51 1.5t35 -3q35 -7 33 -34q-1 -23 -27 -32q-15 -5 -33 -1q-26 1 -41 0t-46 -2.5t-55 -1.5q-36 -71 -75 -161t-84 -214.5t-73 -258.5q-26 -125 -26 -225v-14 q1 -22 12 -38.5t26 -23t31 -6t28 8.5q20 12 27 -1.5t-5 -34.5q-13 -17 -44 -38q-8 -3 -17 -3q-28 1 -66 35q-48 46 -56 90q-8 45 -8 101q0 77 16 175q28 170 78 325.5t110 282.5q-179 0 -459.5 -12t-436.5 -33q-143 -195 -287.5 -367t-314 -342t-337.5 -304.5t-356.5 -243 t-371.5 -167.5q-152 -47 -263 -47h-10q-114 2 -187 44q-73 40 -105 104q-25 50 -25 106q0 16 2 32z" />
<glyph unicode="I" horiz-adv-x="1545" d="M130 259q-3 9 -3 15q0 14 13 20q18 8 28 -12q3 -4 4 -10q14 -51 47.5 -99.5t74.5 -82.5q56 -46 148 -56q24 -3 49 -2q72 0 155 22q112 30 212 98q113 77 233 200t229.5 267.5t221 317.5t208 345t190 355.5t167 344t138.5 315.5q-381 -70 -750.5 -229.5t-614.5 -350.5 q-49 -38 -84 -69.5t-75.5 -77.5t-67.5 -100.5t-38 -113.5q-4 -24 -4 -50q0 -77 40 -167q7 -17 -2.5 -25t-21.5 6q-29 36 -48.5 103t-22.5 129v12q0 102 63 200q67 104 203 218q221 189 622 360t844 269q48 10 71 38q13 12 28 12q3 -1 5 -1q18 -2 33 -12t23 -26q4 -9 4 -18 q0 -7 -3 -13q-90 -195 -176.5 -371.5t-194.5 -378.5t-212 -377t-225.5 -353.5t-239 -322t-248 -268.5t-257.5 -206q-180 -114 -372 -133q-35 -3 -66 -3q-146 0 -235 71q-59 47 -93 210z" />
<glyph unicode="J" horiz-adv-x="1575" d="M-966 -1154q-4 23 -4 48q0 28 5 58q9 57 37.5 124t75.5 137q104 154 267.5 313.5t354.5 300t406 272t430 239t417.5 191.5t377.5 138q562 1066 794 1605h-11q-279 0 -556 -100q-283 -101 -523.5 -292t-395.5 -444q-41 -68 -75 -136.5t-63 -155t-41 -166.5q-6 -44 -6 -89 q0 -39 5 -79q10 -88 48 -162q12 -25 0.5 -34t-27.5 20q-61 109 -82 256q-9 62 -9 127q0 89 17 183q28 164 107 301q78 133 184.5 246.5t219 192t241.5 144.5t245.5 106.5t237 74.5t210.5 52.5t171 36.5t115 30q74 12 127 71q7 7 16 9q5 1 9.5 1t8.5 -1q9 -2 17.5 -6 t15 -10.5t11.5 -13.5q5 -8 5 -16q0 -6 -3 -10q-71 -154 -156.5 -329t-186.5 -371.5t-169.5 -328.5t-179 -342t-140.5 -268q-14 -27 -7.5 -47t27.5 -20q25 0 25.5 -15.5t-22.5 -21.5q-3 -1 -6 -1q-14 -3 -98 -37q-105 -178 -183 -305t-180.5 -284t-208.5 -297.5t-216 -268.5 q-98 -114 -197.5 -212.5t-220.5 -194t-246.5 -171t-275 -137.5t-307.5 -100q-72 -17 -136 -17q-2 -1 -4 -1q-61 0 -110 13q-50 13 -88.5 40.5t-62 65.5t-31.5 88zM-897 -1131q0 -55 25 -95q24 -41 71.5 -60.5t115 -19.5t148.5 21q149 40 293 106.5t261.5 143t235 175 t206.5 188.5t182 196q71 82 162.5 208t200 291t172.5 265.5t164 258.5q24 38 35 55q-221 -73 -458 -180t-479.5 -247t-462 -297.5t-414 -341t-327.5 -367.5q-64 -88 -97 -165q-34 -78 -34 -135z" />
<glyph unicode="K" horiz-adv-x="1173" d="M-806 1307q2 4 2.5 11.5t1.5 15.5t3 12q59 177 232 354.5t467 370.5q526 344 832 344q13 0 25 -1q134 -9 213 -172q63 -102 63 -193q0 -14 -1 -27q-28 -287 -754 -1407q-22 -23 -22 -53q0 -18 16 -18q13 0 52 33q99 99 238 219q10 53 24 88t29 45q7 4 14 4q21 0 41 -31 q416 355 852 626q578 357 942 356q24 0 47 -1q55 -5 55 -28q0 -10 -16.5 -16t-38.5 -1q-22 1 -44 1q-402 0 -1017 -428q-237 -163 -741 -593q182 -532 304 -793q298 -639 630 -837q115 -71 250 -71q286 0 505 238q36 30 48 30q9 0 9 -15q0 -17 -25 -46q-275 -253 -547 -253 q-133 0 -275 65q-494 229 -1012 1589q-81 -34 -334 -324q-250 -286 -314 -388q-10 -19 -44 -19q-56 0 -56 28q0 14 7 21q182 251 553 911q428 766 534 1075q19 47 19 107q0 88 -45.5 133.5t-138.5 53.5q-16 1 -32 1q-307 0 -819 -338q-278 -185 -441.5 -348t-216.5 -314 q-12 -38 -12 -65q0 -56 65 -77q42 -24 126 -24q41 -10 41 -22q0 -22 -35 -22q-6 -1 -19 -4q-39 -7 -57.5 -9.5t-39 -3t-29.5 5.5q-22 15 -40.5 32t-39.5 43q-22 26 -31 60q-5 20 -5 41q0 14 2 28z" />
<glyph unicode="L" horiz-adv-x="2028" d="M3 504v6q0 47 74 108q78 57 114 65q44 6 71 6q176 0 473 -127q13 -5 429 -200q163 435 324 802q304 690 553 952q71 75 204 150q165 91 302 96h13q186 0 338 -142q158 -146 245 -414q1 -5 3.5 -11.5t4 -12t1.5 -9.5q0 -14 -6.5 -21.5t-13.5 -7.5q-19 0 -32 35 q-73 195 -243 360q-161 154 -316 168q-14 1 -28 1q-194 0 -407 -240q-250 -280 -562 -965q-111 -245 -321 -773q75 -39 163.5 -87.5t187.5 -103.5t164 -90q506 -267 864 -405q534 -211 918 -221h15q285 0 481 150q87 67 155.5 210.5t80.5 293.5q9 56 22 56q5 0 9.5 -6.5 t7.5 -20t3 -32.5q0 -144 -71 -320q-72 -168 -166 -239q-83 -47 -200 -77q-158 -44 -330 -49h-33q-737 0 -2317 824q-47 -143 -167 -249q-119 -105 -237 -109h-9q-233 0 -495 241q-126 121 -192.5 221t-73.5 187zM104 498q0 -29 16 -71q91 -211 297 -375q198 -152 360 -156h7 q233 0 333 344q-589 285 -891 329q-18 2 -34 2q-37 1 -58 -11q-30 -16 -30 -62z" />
<glyph unicode="M" horiz-adv-x="2878" d="M-648 1321q0 201 299 504q278 278 640 491q375 226 583 240q6 0 12 1q92 0 188 -75q100 -77 100 -161v-8q-14 -265 -242 -806q208 182 349 271.5t223 89.5q64 0 114 -54q43 -48 44 -101q0 -7 -1 -15q-48 -376 -451 -1210q-8 -19 -8 -31q0 -24 30 -24q27 0 46 33 q335 443 855 945q333 326 573.5 492.5t380.5 174.5h8q78 0 128 -95q44 -91 44 -180q0 -56 -15 -71q-365 -581 -489 -809q-326 -597 -385 -981q-3 -16 -3 -46q0 -63 25 -89q17 -18 46 -17q14 0 30 3q96 26 251 142q154 119 228 210q29 40 44 40q3 0 7 -2.5t4 -7.5 q0 -17 -27 -55q-68 -101 -210 -220q-158 -137 -294 -178q-9 -2 -19 -2q-47 0 -85 64q-52 80 -52 158v10q0 292 286 882q240 503 549 985q46 73 46 120q0 71 -98 71q-41 0 -90 -13q-289 -76 -926 -703q-563 -552 -987 -1112q-33 -43 -100 -43q-52 0 -52 33l6 26 q560 1065 639 1507q3 18 3 33q0 74 -77 74q-127 0 -364 -185q-200 -153 -310 -287q-441 -876 -802 -1266q-33 -40 -95 -65q-60 -41 -100 -41q-26 0 -26 72q0 97 87.5 256t262.5 390q257 338 606 676q130 254 235 564q87 270 87 387q-1 107 -51 147q-39 30 -117 31 q-24 0 -52 -3q-344 -37 -908 -478q-583 -454 -583 -741q0 -56 80 -81q63 -21 96 -21q9 0 15 1q44 5 44 -7q0 -13 -50 -28q-26 -10 -54 -9.5t-57 9.5q-38 13 -76 71t-38 117zM-49 164q-15 -40 -15 -61q0 -26 21 -26q7 0 15 4.5t17.5 13t16.5 19.5q158 175 392 550 q248 389 318 559q-189 -165 -411 -463q-265 -347 -354 -596z" />
<glyph unicode="N" horiz-adv-x="1730" d="M-967 1065q9 208 313 531q302 326 682 546q398 231 673 231q16 0 31 -1q66 -3 123 -37.5t99 -95.5q75 -108 75 -275q0 -72 -16 -149q-93 -362 -599 -1207q-22 -33 -22 -58q0 -13 12 -13q9 0 23.5 13t29.5 39q252 321 646 705q521 512 809 561q10 1 19 1q29 0 53 -14 q30 -20 75 -69q20 -23 32.5 -45t17.5 -46t6 -39t1 -42v-12q0 -47 -10 -71q-57 -106 -217 -397.5t-246 -453.5q-72 -135 -181 -365t-229 -510t-219 -537q-98 -257 -150 -457q-33 -128 -33 -198q0 -39 10 -60q3 -7 2.5 -17t-2.5 -17t-4.5 -17t-2.5 -17q0 -96 52 -96 q135 0 473 333q38 38 49 38q0 -1 2 -2l2 -2t1.5 -3t0.5 -6q0 -12 -28 -55q-57 -92 -215 -219q-172 -136 -258 -136q-42 0 -77.5 37t-53 88t-16.5 97q3 61 60.5 257.5t146 454.5t186.5 527t193 505t155 358l470 951q36 70 36 123q0 36 -18.5 52t-55.5 16q-45 0 -117 -30 q-305 -128 -695 -501q-315 -296 -642 -709q-129 -165 -218 -285.5t-141 -202.5q-31 -53 -80 -53q-12 0 -22 5.5t-15.5 13.5t-5.5 18t16 47q788 1296 926 1735q31 113 31 194q0 138 -58 208t-177 80q-14 1 -29 1q-228 0 -598 -214q-401 -228 -697 -534q-159 -164 -240.5 -310 t-81.5 -265q0 -44 22 -71t61 -34q58 -11 110 -12q45 0 85 9q38 5 38 -13q0 -16 -38 -26q-78 -24 -141 -24q-28 0 -54 5q-146 25 -146 218q0 12 1 25z" />
<glyph unicode="O" horiz-adv-x="2755" d="M356 750q0 131 39 282q82 313 386 611q-15 48 -15 95q0 187 169 384q197 231 501 354q283 115 612 115q127 0 243 -19q376 -59 602 -385q188 -273 188 -556q0 -37 -6 -81q-69 -475 -408 -864q-278 -323 -728 -531q-356 -166 -686 -166q-36 0 -71 2q-335 14 -564 200 q-262 213 -262 559zM411 760q0 -148 53 -269.5t151.5 -207t242.5 -135.5t324 -58l60 -2q356 0 755 209q447 238 721 583q311 385 311 770q0 310 -182 545q-202 255 -599 316q-82 12 -186 12q-319 0 -623 -125q-289 -115 -466 -301q-155 -165 -155 -327q0 -34 7 -65 q229 229 605 407q428 207 793 207q87 0 185 -15q32 -5 32 -22t-8 -22t-27 -1q-83 19 -182 19q-385 0 -858 -249q-410 -212 -534 -392q14 -108 133 -201q113 -90 253 -90q36 0 36 -22q0 -8 -6.5 -14.5t-18 -9.5t-27.5 0q-141 5 -262 98q-114 86 -149 195q-103 -93 -201 -253 q-114 -196 -142 -311q-36 -134 -36 -269z" />
<glyph unicode="P" horiz-adv-x="1933" d="M-648 2297q0 52 11 108q24 177 226 300q201 121 478 121q29 0 59 -1q527 -29 1026 -275q367 -179 692 -469q415 -372 415 -754q0 -351 -379 -505q-268 -106 -621 -106q-151 0 -265 24.5t-114 62.5q0 12 17.5 28.5t50.5 32.5q14 -41 68 -55q102 -52 288 -52q332 0 564 123 q254 128 254 424q0 365 -340 690q-380 353 -818 556q-496 223 -951 223q-508 0 -572 -368q-10 -64 -10 -127q0 -341 146 -561q15 -26 15 -37q-1 -2 -2 -3.5t-2 -2.5t-2 -1q-16 0 -33 25q-87 71 -152 272q-49 167 -49 327zM-408 52q0 19 16 19q14 0 43 -28q57 -72 148 -108 q29 -10 69 -10q56 0 135 20q229 85 667 848q398 691 572 1210q2 3 4.5 6.5t4 5t2.5 1.5q11 0 16 -58q2 -25 2 -43q0 -29 -5 -41q-180 -504 -425 -988q-399 -778 -757 -976q-99 -55 -223 -55q-56 0 -98 15q-92 46 -152 133q-19 29 -19 49z" />
<glyph unicode="Q" horiz-adv-x="3319" d="M3 161q5 42 108 120q88 72 142 78h4q52 0 261 -68q235 -78 334 -130q-147 123 -147 447q0 112 17 201q74 406 439 818q329 378 732 596q28 19 52 19q22 0 22 -13q0 -22 -44 -49q-306 -164 -654 -581q-395 -467 -470 -830q-18 -89 -18 -222q0 -580 722 -580q23 0 47 1 q490 10 1000 261q624 314 877 871q100 218 100 437q0 378 -266 643q-281 282 -747 296q-29 1 -57 1q-406 0 -765 -186q-350 -179 -447 -411q-2 -7 -6 -22t-8 -29t-8 -26q-17 -33 -25 -33q-7 0 -13 33q-1 9 -1 19q0 34 14 74q131 275 494 466q367 195 765 195q28 0 57 -1 q507 -19 783 -314q272 -281 272 -717q0 -224 -71 -444q-143 -453 -725 -841q-586 -385 -1146 -385q-116 0 -222 19q600 -308 818 -402q582 -256 867 -256h19q227 5 380 114q191 141 191 395q0 104 -33 220q-6 37 -4 46q0 8 2.5 10t7.5 -1q21 -8 36 -40q24 -31 59 -158 q24 -90 24 -155q0 -21 -2 -39q-20 -116 -223 -281q-191 -162 -299 -175q-73 -16 -180 -16q-358 0 -897 230q-28 13 -81 38.5t-147 71.5t-186.5 92t-257 127.5t-301.5 149.5q-279 137 -505 226t-396 133q-63 12 -90 12q-114 0 -114 -86q0 -33 18 -62q18 -69 96 -139 q22 -26 22 -40q0 -13 -19 -15q-50 0 -136 113q-42 57 -59 97q-13 32 -13 60q0 9 1 17z" />
<glyph unicode="R" horiz-adv-x="1847" d="M-648 2081q0 292 351 404q341 109 779 109q453 0 852 -109q414 -112 652 -298q348 -271 348 -609q0 -383 -435 -627q-170 -99 -433 -178q-282 -88 -550 -103q-22 0 -17 -43q24 -146 136 -411q117 -273 224 -380q111 -111 207 -111q44 0 84 16q32 6 36 6q15 -5 10 -9 q-4 -11 -27 -22q-66 -37 -133 -37q-101 0 -242 108q-95 76 -278 436q-184 365 -184 479q0 67 64 67q11 0 20.5 -6t32 -18t56.5 -23q19 -1 39 -1q180 0 445 72q288 84 482 204q339 209 339 547q0 324 -281 565q-220 197 -629 315q-401 117 -840 117q-410 0 -741 -101 q-157 -46 -237.5 -135.5t-80.5 -214.5q0 -91 46 -194l49 -103q0 -3 -11 -3q-10 0 -35 25q-98 107 -98 266zM158 114q-2 6 -2 15q0 204 1042 1674q23 23 23 47q0 14 -8 30q-6 13 -6 16q0 30 25 30q16 0 34 -17q36 -37 36 -56q0 -7 -5 -12q-422 -631 -581 -874 q-226 -343 -334 -559q-99 -200 -99 -287q0 -7 1 -14q3 -16 -12.5 -24.5t-45.5 -8.5q-57 0 -68 40z" />
<glyph unicode="S" horiz-adv-x="1840" d="M133 340q0 190 284 314q475 205 1149 262q-67 90 -242 326t-286 385q-186 244 -186 444q0 219 226 362q480 308 1123 308q250 0 390 -49q109 -34 204 -145q82 -122 82 -262q0 -95 -36 -188q-12 -33 -25 -46q-5 -10 -8 -10t-5 10q-1 6 2 31t7 63t4 69q0 161 -92 278 q-86 105 -223 142q-160 46 -389 46q-586 0 -982 -289q-195 -144 -195 -329q0 -157 158 -392q246 -301 583 -747q182 0 315 3q35 0 35 -13q0 -16 -117 -20q-163 -5 -198 -10q92 -155 92 -311q0 -322 -346 -468q-310 -126 -632 -126q-249 0 -427 65q-265 91 -265 297zM188 297 q0 -68 84 -142q60 -51 132 -71q177 -44 383 -44q329 0 627 145q143 72 215.5 171t72.5 221q0 161 -109 294q-272 -33 -500 -81q-384 -79 -630 -207q-135 -67 -205 -140t-70 -146z" />
<glyph unicode="T" horiz-adv-x="707" d="M-966 2099q-4 24 -4 45q0 22 4 43q8 41 29 80t51.5 71.5t68 62t78.5 52.5t83 42t81 32t74 20q77 15 189 21q54 3 117 4q69 0 151 -4q156 -6 289 -14t343 -28t331 -32.5t346 -36.5q37 -4 57.5 -6t51.5 -5.5t56 -5.5q54 84 77 107q12 12 7.5 26t-16.5 12q-55 -9 -81 -22 q-34 -12 -35 4q-1 15 29 32q52 43 116 82.5t107 45.5q7 1 14 1q34 0 52 -30q10 -16 10 -32q0 -20 -15 -42q-67 -108 -132 -197q543 -59 696 -59q51 0 71 26q15 20 14 45q0 8 -1 16q-8 53 -33 114q-11 31 -12.5 51t6 24t21.5 -9t31 -41l4 -8q13 -22 20.5 -37t20 -45t17.5 -54 q5 -21 4 -48v-5q0 -30 -11 -54q-4 -6 -12.5 -19.5t-15.5 -25.5t-18 -26t-22 -24q-36 -31 -61 -43.5t-59 -9.5q-242 22 -738 105q-154 -252 -329 -567.5t-338.5 -635.5t-291 -613t-174.5 -468q-8 -31 -8 -64q0 -65 32 -137q3 -9 3 -18q0 -24 -25 -43q-20 -15 -38 -15 q-12 0 -23 6q-26 16 -28 64v12q1 121 77 356q80 247 205 529.5t280.5 597.5t291 568.5t246.5 446.5q-176 28 -319 49t-324 45.5t-335 38.5q-153 15 -311 26q-151 11 -285 11q-7 -1 -13 -1q-140 0 -250 -12q-31 -4 -62.5 -9t-70 -14.5t-73.5 -21.5t-70.5 -30t-63.5 -39 t-50 -50q-20 -28 -30 -60q-7 -25 -8 -55q0 -9 1 -19q3 -42 22 -88q48 -120 131 -252t166 -233q45 -57 45 -71q0 -5 -5 -5h-2q-17 0 -57 40q-115 116 -193 217t-140 217q-26 49 -34 96z" />
<glyph unicode="U" horiz-adv-x="2121" d="M-809 1349q0 125 55 237q169 349 599 621q437 279 866 279q29 0 58 -1q121 -4 247 -145q117 -131 117 -249v-10q-10 -244 -204 -618q-2 -3 -42.5 -75.5t-131 -232t-196.5 -343.5q-229 -398 -268 -596q-10 -28 -10 -55q0 -90 92 -90q38 0 96 25q144 66 385.5 236 t565.5 441q403 329 849 719q26 21 55 52t73.5 81t72.5 80q15 20 41 20q30 0 49 -25q14 -18 14 -40q0 -8 -2 -17q-23 -89 -35 -125q-146 -198 -407 -709q-144 -282 -231 -483.5t-120 -322.5q14 -33 14 -129q-2 -21 -13.5 -33.5t-25.5 -12.5q-32 0 -37 55q0 113 24 210 q47 182 278 691q72 158 134.5 296.5t88.5 196.5t27 60q14 39 14 60q0 23 -17 23q-22 0 -43 -25q-338 -317 -861 -735q-728 -582 -976 -660q-19 -6 -40 -6q-52 0 -99 31t-73 85q-19 40 -18 82q0 15 2 31q33 232 275 635q52 86 131 216t150.5 248.5t130.5 217.5 q107 183 160.5 331.5t53.5 250.5q0 94 -71 185q-39 48 -95.5 75t-123.5 32q-37 3 -75 3q-354 0 -752 -246q-425 -259 -628 -621q-55 -100 -55 -237q0 -207 201 -340q25 -12 25 -31q0 -13 -19 -13q-14 0 -35 13q-183 141 -218 252q-22 73 -22 155z" />
<glyph unicode="V" horiz-adv-x="1015" d="M-645 1318q43 382 444 779q401 395 770 437q17 2 34 2q108 0 196 -84q100 -90 100 -217v-12q-5 -221 -322 -991q-176 -428 -268.5 -682t-110.5 -368q-3 -23 -3 -46t3 -46q8 -58 39 -58q13 0 31.5 13t36.5 39q698 900 1152 1359q738 737 1199 737q88 0 166 -22 q4 -2 12 -6.5t11 -6.5t7.5 -4.5t6 -5t1.5 -5.5q0 -19 -38 -8q-96 14 -120 14q-337 0 -831 -411q-380 -308 -855 -864q-127 -149 -358.5 -428t-317.5 -381q-53 -61 -111 -61q-39 0 -73 31t-51 73q-15 38 -15 72v8q18 255 367 1064q339 784 349 1000q0 17 3 36v44 q0 144 -142 144q-29 0 -62 -5q-407 -59 -793 -464q-361 -379 -389 -687q-1 -15 -2 -29q0 -108 64 -142q9 -4 74 -16q11 -1 18.5 -5t11 -9t3.5 -9q0 -28 -49 -38q-32 0 -61 25q-45 17 -87 90q-41 74 -41 131q0 7 1 13z" />
<glyph unicode="W" horiz-adv-x="2513" d="M-970 1365q0 33 6 49q73 314 640 716q570 402 1019 461q29 4 58 4q132 0 250 -91q138 -99 143 -245q0 -10 1 -20q0 -290 -254 -874q-205 -472 -489 -942q-15 -36 -15 -47q0 -12 4.5 -17.5t14.5 -2.5q19 3 49 33q149 172 521.5 596t571.5 652q0 5 49 80q25 49 47 49h4 q34 -11 64 -62.5t30 -98.5q0 -20 -6 -33q-206 -388 -302 -676q-101 -313 -106 -637v-6q0 -101 65 -165q67 -66 174 -66q36 0 52 3q175 23 531 354q358 334 602 721q294 463 303 796q1 25 1 48q0 190 -65 292q-23 22 -23 42q0 13 10 13q18 0 49 -36q99 -114 99 -359 q0 -321 -290 -787q-242 -396 -618 -750q-367 -341 -586 -387q-63 -8 -71 -8q-122 0 -210 82t-97 210q-3 39 -3 120q0 509 313 1106q12 21 12 52q0 29 -19 29t-41 -23q-629 -723 -1104 -1281q-28 -33 -92 -122t-99 -134q-17 -22 -48 -22q-27 0 -46 7t-29 20t-10 32q0 12 6 31 q990 1715 990 2154q0 18 -2 34q-24 258 -278 258q-364 0 -961 -375q-609 -380 -731 -728q-20 -61 -20 -107q0 -64 39 -100q53 -43 191 -43q35 0 35 -6q0 -13 -38 -19q-57 -20 -106 -20.5t-89 20.5q-38 19 -67 88t-29 138z" />
<glyph unicode="X" horiz-adv-x="2433" d="M-43 -386q28 263 218 535q177 248 621 595q376 292 767 522q12 223 23.5 406t16.5 258t5 70q0 54 -6 133q-7 61 -45 86q-24 16 -58 16q-21 0 -45 -6q-330 -79 -623 -491l-5 -7.5l-5 -7.5t-4 -6.5t-4 -5.5t-4 -3q-11 -5 -16 0q-2 5 -2 15.5t2 17.5q5 21 10 25 q99 204 336 383q229 179 399 179q9 0 18 -1q51 0 114 -58q68 -58 68 -95q2 -53 2 -113q0 -278 -38 -721q700 401 1110 738q36 28 36 76q0 15 -4 33q65 36 175 147q7 6 13 6q49 0 49 -123q0 -12 -4 -25t-9 -18q-129 -154 -673 -507q-370 -240 -706 -431q-19 -282 -19 -470 q0 -446 100 -587q94 -134 260 -134q16 0 32 1q224 14 513 207q32 18 46 0q8 -7 3 -18.5t-19 -18.5q-336 -232 -534 -259q-8 -1 -18 -1q-57 0 -153 46q-112 54 -186 128q-80 77 -117.5 255.5t-37.5 472.5v174q0 23 0.5 45.5t1 38.5t1 28.5t1 19t0.5 7.5q-416 -244 -757 -520 q-391 -309 -563 -547q-177 -238 -243 -486q-19 -68 -36 -68q-8 0 -8 34q0 13 1 30z" />
<glyph unicode="Y" horiz-adv-x="2140" d="M-809 1330q0 103 36 204q129 327 560 615q461 308 850 317h12q181 0 339 -150q40 -39 70 -77.5t50.5 -78t30.5 -80t10 -83.5q0 -229 -220 -589q-111 -189 -434 -654q-252 -362 -328 -531q-34 -82 -34 -119q0 -46 46 -46q27 0 105 19q386 106 1026 547q578 397 904 732 l6 15q78 113 123 182q34 49 93 49q7 0 13 -6q14 -33 14 -57q0 -27 -17 -44q-32 -22 -112 -103q-231 -504 -402 -880q33 -33 68 -96t35 -86q0 -29 -62 -110q-32 -38 -53.5 -57t-39.5 -21q-14 -1 -35 -6.5t-64 -19.5t-64 -20q-193 -313 -342 -497q-200 -247 -394 -356 q-301 -172 -535 -172h-13q-197 5 -313 101q-111 87 -111 217q0 161 158 284q419 322 1483 488q58 77 259 493q29 62 80 167t94 194t78 167q11 31 7 35q-1 4 -3 6t-4.5 0.5t-5 -3.5t-6.5 -7q-408 -361 -893 -692q-625 -421 -1027 -534q-10 -2 -20 -2q-27 0 -54 17 q-38 23 -62.5 70t-24.5 100q0 36 13 65q57 180 320 569q280 413 430 657q218 375 218 608q0 142 -89.5 220.5t-267.5 92.5q-25 2 -51 2q-299 0 -722 -256q-476 -295 -617 -616q-52 -111 -52 -214q0 -79 28.5 -136.5t106.5 -108.5q79 -54 133 -58q46 -5 46 -24q0 -12 -27 -12 q-14 0 -35 3q-210 36 -275 178q-36 91 -36 188zM58 -645q0 -235 354 -235h15q273 5 524 171q210 142 379 366q61 79 278 420q-280 -38 -654 -139q-523 -142 -747 -320q-149 -116 -149 -263zM1763 185q11 1 26.5 4.5t30 8t37.5 11t42 11.5q67 36 71 104v10q0 64 -58 142 q-58 -119 -149 -291z" />
<glyph unicode="Z" horiz-adv-x="1807" d="M3 349q-1 17 -1 34q0 107 53 228q32 70 60 109t60 53q0 46 11.5 71t45 38.5t95.5 13.5q108 0 472 -220q48 -29 110.5 -67.5t110.5 -68.5t109 -67.5t113 -68.5q125 83 340 340q193 227 336 433q-47 43 -47 104q0 30 19 40q59 6 142 22q69 105 317 401q145 175 230.5 269 t125.5 120q-14 4 -30.5 8t-37.5 9t-38 8.5t-46.5 9t-47.5 9t-55 10.5t-55.5 10t-63.5 11t-65 12q-450 77 -729 77q-193 0 -314 -28q-60 -14 -103.5 -45t-69.5 -77.5t-34 -108.5q-6 -36 -6 -106q0 -260 104 -434q19 -38 19 -48q0 -4 -3.5 -9t-6.5 -5q-10 0 -45 46 q-61 81 -102 220q-47 144 -47 284q0 21 1 37.5t4 34t8.5 31t13.5 26t21 22t29 15.5q35 34 62 71q41 67 106 93q163 62 419 62q377 0 1158 -158l59 31q58 31 83 31q58 0 58 -121q0 -46 -26 -67q-7 -3 -23 -3q-32 0 -102 12q-371 -324 -667 -776h112q23 0 51 -1.5t31 -1.5 q41 0 41 -14q0 -29 -74 -29q-29 0 -210 -22q-489 -640 -803 -900q425 -282 933 -572q866 -494 1300 -580q117 -19 163 -19q499 0 504 667q0 49 22 49q19 0 23 -43q9 -80 9 -154q0 -53 -5 -105q-11 -120 -52 -194q-37 -63 -75.5 -109.5t-73.5 -72t-60 -39t-52 -23t-33 -12.5 q-48 -24 -112 -30q-28 -2 -56 -2q-36 0 -70 4q-62 7 -142 24q-439 98 -1238 522q-472 257 -1078 614q-212 -136 -272 -164q-142 -71 -339 -114q-48 -9 -127 -9q-138 0 -234.5 38.5t-150.5 117t-62 196.5zM71 346v-11q0 -145 130 -224q111 -65 262 -65q39 0 103 6 q308 63 570 269q-147 109 -392 251q-307 185 -439 185q-11 0 -36 -7q-193 -91 -198 -404z" />
<glyph unicode="[" horiz-adv-x="1899" d="M321 9q-6 102 39 289.5t113.5 377t137.5 327.5l618 1239q44 90 95.5 161.5t83.5 88.5q17 5 38.5 5.5t44 -3.5t40 -20t22.5 -41q88 17 212 26.5t242.5 4t160.5 -30.5q18 -5 23 -15.5t-0.5 -24t-14 -26.5t-18.5 -28.5t-12 -25.5q-64 23 -161.5 28t-199 -7t-200.5 -35.5 t-171 -53.5q-208 -299 -413 -698t-363.5 -811t-229.5 -739q-1 -10 -3 -28q-2 -26 -3.5 -37t-1 -27.5t1 -21t6.5 -15t10 -13t17.5 -9.5t23 -10t31.5 -11h1q108 -35 308 -38t376.5 20t241.5 57q47 27 67 9q19 -18 -15 -55q-17 -19 -45 -38q-90 -56 -390.5 -96.5t-529.5 -32.5 q-33 1 -60 18t-46 46t-33 63.5t-23 76.5t-14 78.5t-7 75.5z" />
<glyph unicode="\" horiz-adv-x="1717" d="M-324 1899q0 27 30 27q24 0 62 -27q501 -367 1261 -1112q823 -814 851 -1030q0 -59 -6 -78q-18 0 -36 68q-60 232 -871 1010q-759 729 -1251 1090q-40 30 -40 52z" />
<glyph unicode="]" horiz-adv-x="1532" d="M115.5 -267.5q-5.5 10.5 0.5 24t14.5 26t18.5 28t12 25.5q94 -30 225.5 -28t271.5 28.5t238 67.5q206 299 410.5 698.5t363 811.5t229.5 738q9 96 6 113q-5 24 -37 38q-12 5 -53 20q-107 36 -307 39t-376.5 -20t-241.5 -57q-45 -26 -66 -9q-20 18 11 55q18 20 48 41 q90 56 391.5 96t528.5 30q39 -2 70 -26.5t50.5 -61t33 -86t20 -93.5t9.5 -92q6 -101 -39 -288.5t-113.5 -377t-138.5 -327.5l-617 -1239q-44 -90 -95.5 -161.5t-83.5 -88.5q-16 -5 -37 -6t-43.5 3.5t-40 20.5t-21.5 41q-90 -17 -215 -25.5t-243 -3t-160 28.5 q-18 6 -23.5 16.5z" />
<glyph unicode="^" horiz-adv-x="1216" d="M1149 1760q0 11 19 30q164 86 278 149q29 15 64.5 34.5t53.5 29.5t36.5 19.5t26.5 13t10 2.5q21 -7 324 -259q12 -13 12 -25q0 -11 -15 -16t-29 9q-45 32 -163 103q-110 67 -139 62q-150 -36 -439 -158q-16 -10 -27.5 -8t-11.5 14z" />
<glyph unicode="_" horiz-adv-x="1665" d="M81 -114q0 24 94 24h1375q58 0 58 -17q0 -7 -9 -12.5t-27.5 -9.5t-43.5 -4h-1383q-64 0 -64 19z" />
<glyph unicode="`" horiz-adv-x="859" d="M149 1711q0 35 18 53t53 18q20 0 33 -12q311 -292 398 -375q18 -13 9 -30q-17 -8 -30 0q-67 45 -234 159t-229 156q-18 12 -18 31z" />
<glyph unicode="a" horiz-adv-x="1186" d="M22 130q0 229 360 589q327 321 582 420q63 25 133 25q62 0 156 -28q53 -5 60 -3q59 10 85 41q8 8 19 8t21 -16t8 -24q-278 -430 -365 -573q-129 -217 -246 -544t-149 -529q-3 -22 -3 -62q0 -107 67 -162.5t185 -55.5q113 0 229 40q173 58 448 278q217 176 420 434 q27 32 39 32q4 -3 4 -9q0 -16 -13 -37q-173 -261 -431 -479q-278 -225 -443 -284q-97 -32 -188 -32q-126 0 -259 84q-107 69 -107 235v18q2 66 27.5 181t63.5 241t84.5 254t89.5 223q111 242 218 401q12 19 11.5 27t-14.5 8q-5 0 -11 -6q-153 -181 -436 -424 q-291 -244 -488 -358q-43 -27 -75 -27q-82 0 -82 114zM216 243q0 -41 14.5 -60t44.5 -19q20 0 49 18q344 217 812 772q10 10 10 22q0 25 -19 47.5t-53.5 36.5t-76.5 14q-36 0 -74 -9q-151 -37 -386 -296q-212 -235 -308 -451q-13 -34 -13 -75z" />
<glyph unicode="b" horiz-adv-x="1319" d="M22 74q13 31 46 78q154 362 365 854q7 0 11 16l-1 5q-1 5 1 5q0 1 3 4.5t3 4.5l3 5v-8q5 10 10 24l-3 -7q6 13 9 16l12 26q-2 -4 -9 -19v22q402 907 820.5 1520t856.5 934t896 349q38 2 76 2q417 0 752 -284q330 -277 330 -622q0 -35 -3 -71q-10 -118 -71 -239 q-307 -584 -1650 -1093q-908 -349 -1910 -537q-73 -130 -220 -528q-52 -137 -68 -188q35 32 104.5 82t129 90t194.5 130q391 256 576 331q28 15 64 15q58 0 84 -30q24 -28 24 -82v-8q-3 -13 -8.5 -27t-17 -39.5t-14.5 -31.5q-190 -316 -583 -550q-390 -232 -716 -232h-14 q-8 0 -20 6q-24 7 -43 30.5t-19 46.5zM223 133l3 -13q-5 -19 -0.5 -33t17.5 -16q9 -3 27 -3q40 0 122 16q242 53 491 237q260 187 349 395l13 50v11q-1 43 -15 65q-16 25 -56 25q-70 0 -420 -233q-233 -157 -424 -304q-80 -65 -104 -178q0 -2 1.5 -3.5t1.5 -3.5q-1 -1 -3 -6 t-3 -6zM589 1106q1199 246 2106 645q1099 479 1366 1025q35 75 58 207q2 29 2 57q0 309 -289 548q-311 257 -729 257q-29 0 -58 -1q-772 -28 -1591 -1171q-512 -719 -865 -1567z" />
<glyph unicode="c" horiz-adv-x="973" d="M133 194q5 114 48.5 237.5t110.5 234t153.5 214.5t178 185t182.5 138.5t167 81.5q31 9 61 10h8q26 1 48 -5q26 -6 49 -20t39 -33t24.5 -44t8.5 -52.5t-11.5 -60t-35.5 -64.5q-28 -40 -71 -46q-36 -6 -36 21q0 21 30 55q26 30 37 59t8 50t-17.5 36t-37 20t-52.5 -0.5 t-61 -22.5q-201 -114 -473 -415l-38 -51q-37 -51 -61.5 -87t-60.5 -96t-58.5 -110t-40.5 -113t-22 -122q-1 -14 0 -27q0 -30 4 -56q7 -37 22 -61.5t36 -42t46.5 -25t53 -11t55.5 0.5q100 11 221.5 55t218.5 99q28 17 38.5 7t-15.5 -29q-89 -64 -207.5 -124.5t-225.5 -79.5 q-13 -2 -27 -2q-36 0 -78 15q-58 21 -108 61t-82 100q-29 53 -29 107v13z" />
<glyph unicode="d" horiz-adv-x="1281" d="M28 107q0 215 383 579q349 329 586 420q67 27 133 27q52 0 177 -33q126 222 233 401q-65 7 -97 17q-44 5 -80 53t-36 99q0 33 22 55q155 169 476 239h6q184 276 330 463q735 942 1498 1210q266 90 503 90q409 0 692 -232q265 -225 265 -540q0 -241 -166 -454 q-185 -239 -532 -401q-1300 -608 -2547 -608q-157 0 -228 3q-9 -17 -45.5 -81t-50 -88t-45 -80.5t-50.5 -91.5t-45 -84t-48 -94q-300 -580 -300 -919v-11q0 -13 19 -37q27 -5 55 -9q15 -5 6 -25q-14 -21 -25 -24q-11 -6 -22 -6q-7 1 -13 3q-18 6 -36 24q-40 64 -40 148 q0 187 188 683q10 29 6 42t-23 13q-10 0 -19 -13q-199 -243 -445 -463q-333 -298 -531 -379q-19 -6 -33 -6q-121 0 -121 110zM220 210q0 -71 55 -71q26 0 52 16q448 294 819 725q39 49 39 84q0 74 -117 74q-41 0 -84 -9q-82 -19 -183.5 -91t-231.5 -200q-238 -238 -332 -457 q-17 -46 -17 -71zM1378 1631q0 -56 72 -65q71 -12 122 -16q48 74 128.5 203.5t111.5 178.5q-269 -74 -411 -243q-23 -24 -23 -58zM1676 1540q59 -3 192 -3q1352 0 2507 673q673 388 673 822q0 277 -272 466q-279 194 -635 194q-238 0 -461 -94q-1053 -448 -2004 -2058z" />
<glyph unicode="e" horiz-adv-x="1034" d="M130 201q4 86 30 178t67.5 178t97.5 172t119 161t132 143t137 122t133 94t121 61q28 11 53 11q12 -1 22 -3q34 -8 62.5 -28t47.5 -54q18 -34 26 -70q6 -25 7 -50q0 -12 -2 -24q-4 -38 -22 -70q-33 -59 -102 -108t-161 -81.5t-200 -48.5q500 0 639 15q62 7 131.5 41.5 t113.5 72.5q14 21 27 15q6 -3 6 -9q0 -8 -10 -20q-43 -47 -115.5 -92.5t-152.5 -56.5q-146 -22 -887 -22q-45 -60 -78 -110.5t-73 -122.5t-64 -147t-28 -147q-1 -12 0 -23q0 -42 8 -76q11 -42 32 -66t49 -40q30 -16 62 -18q16 -1 32 -1t33 1q69 7 150.5 31.5t154.5 56.5 t133 67q30 15 41 4q9 -9 -16 -26q-87 -63 -207 -124t-226 -80q-13 -2 -26 -2q-37 -1 -79 15q-58 22 -107 62t-81 100q-30 54 -30 109v10zM485 784q112 0 231 34.5t218 96.5t150 137q32 50 36 90q1 7 1 14q0 30 -16 46q-18 19 -54 19h-4q-39 -1 -86 -27q-206 -117 -476 -410z " />
<glyph unicode="f" horiz-adv-x="652" d="M-2315 -1342q1 63 15 125q22 103 82 203.5t140 179t172 139t184 93.5q49 18 47 4q-3 -12 -42 -29q-171 -75 -303 -232t-184 -364q-17 -70 -20 -135q-1 -15 -1 -28q0 -50 9 -95q11 -57 35 -107.5t58 -91t79 -72t97.5 -51.5t114.5 -29q41 -5 85 -5q21 0 41 1q66 4 139 22.5 t147 50.5q111 48 231.5 140.5t229 200t232.5 264t221 290t217.5 325t198.5 321.5t187.5 326t162 293t142.5 265q55 105 80 150q12 21 12 41q0 39 -47 70q-5 3 -14 7t-15 7t-14.5 7.5t-13 8t-10.5 9t-7 10t-2.5 11.5t2.5 14q3 9 10 14.5t18.5 7t21 2t23 -0.5t17.5 -1 q15 0 44 -1.5t53.5 -1.5t47.5 3q307 457 531 627q73 55 153 100.5t168.5 80.5t181.5 49q47 7 92 7q42 0 81 -6q36 -4 65 -34.5t29 -52.5q0 -9 -11.5 -30.5t-27.5 -37.5t-26 -8q-27 27 -59 48.5t-67 35.5t-73 20q-22 3 -43 3q-15 0 -30 -2q-72 -11 -148.5 -49t-143 -89.5 t-137 -123.5t-125 -138t-112 -146t-94 -136t-74.5 -118h531q23 0 25 -12q2 -11 -15 -16l-23 -3q-74 -2 -158.5 -6.5t-192 -11t-170.5 -9.5q-18 -2 -29 -6t-15.5 -8t-7.5 -12q-40 -68 -115.5 -202t-148.5 -265.5t-175 -307t-200 -337t-217.5 -343.5t-233 -340t-242.5 -313 t-250 -275t-250.5 -214t-248.5 -141q-95 -37 -185 -56.5t-167 -20.5h-11q-71 0 -135 12q-70 14 -126.5 41t-104.5 65t-83 85t-59 101.5t-35 113.5q-11 53 -11 111v9z" />
<glyph unicode="g" horiz-adv-x="1264" d="M-2615 -2013q0 116 52 243q244 578 1550 1094q881 350 1858 537q72 162 174 528q12 39 28.5 101t23.5 87q-49 -47 -139.5 -115t-258.5 -187q-355 -251 -550 -337q-23 -9 -61 -9q-117 0 -117 117q0 42 30 99q155 314 529 550q374 234 696 234h13q13 0 19 -6q28 -10 48 -32 t20 -46q-6 -42 -34 -79q-200 -597 -299 -886q500 88 935 88q140 0 247 -17q76 -15 143 -87t67 -152q0 -39 -16 -71q-41 -81 -210 -213q-31 -27 -49 -27q-6 0 -6 3q0 20 31 43q191 177 191 321q0 58 -38.5 89.5t-119.5 38.5q-154 8 -240 8q-601 0 -957 -79 q-478 -1364 -1055.5 -2065.5t-1257.5 -742.5q-38 -2 -76 -2q-420 0 -779 283q-392 308 -392 689zM-2523 -2065q0 -342 339 -605q334 -256 751 -256q29 0 58 1q783 29 1489 1171q442 716 717 1566q-1187 -248 -2044 -643q-1058 -486 -1272 -1027q-38 -102 -38 -207zM145 152 q0 -35 8 -57.5t25 -34t45 -11.5q69 0 398 235q200 144 395 305q81 72 90 177q0 2 -1.5 3.5t-1.5 3.5q0 11 3 14q0 57 -22 61q-9 3 -25 3q-41 0 -124 -20q-243 -57 -469 -232q-247 -195 -314 -395q-7 -38 -7 -52z" />
<glyph unicode="h" horiz-adv-x="1284" d="M32 32q0 12 4 26q249 527 721 1340q-12 2 -43 7.5t-50 8.5q-22 5 -43.5 20.5t-37.5 37t-26 46.5t-10 48q0 31 22 58q158 168 477 237q893 1345 1834 1672q256 92 501 92q413 0 692 -234q266 -225 266 -541q0 -240 -165 -452q-179 -235 -534 -401q-1301 -611 -2562 -611 q-81 0 -217 6q-315 -530 -679 -1191q8 7 21.5 20.5t42.5 44.5t48 52q221 221 460 414q292 234 404 244q13 17 127 46q12 2 30.5 -9t32.5 -29t14 -33q0 -12 -3 -16q-93 -113 -245 -379q-160 -288 -160 -404q0 -84 87 -84q45 0 73 4.5t73 23.5t103 58t149 108q8 6 18.5 10.5 t11.5 5.5q2 -1 3 -3t1.5 -3.5t2.5 -2.5l-22 -23q-107 -86 -176 -136.5t-125 -80t-97 -39t-92 -9.5q-56 0 -119 59q-61 50 -61 105q0 13 3 27q57 248 346 631q13 16 13 42q0 45 -49 45q-30 0 -65 -23q-179 -96 -504 -407q-138 -133 -242 -242t-175 -196q-3 3 -7 2t-12.5 -8 t-17.5 -19q-5 -16 -16 -16q-26 0 -26 51zM608 1531q0 -55 71 -65q83 -12 111 -12q75 123 235 371q-254 -74 -391 -232q-26 -26 -26 -62zM890 1446q21 -1 70.5 -4t90 -4.5t79.5 -1.5q539 0 1103 133q729 171 1361 537q674 392 674 822q0 277 -272 466q-280 194 -634 194 q-240 0 -460 -93q-1073 -446 -2012 -2049z" />
<glyph unicode="i" horiz-adv-x="587" d="M204 390q54 146 118.5 279.5t120 248.5t58.5 131q7 47 51 59q13 4 25 3q28 0 50 -20q22 -21 22 -52t-22 -72q-206 -389 -247 -468t-47 -96q-10 -31 -64 -144q-23 -45 -33 -80t-8 -57t11 -37t23.5 -22t34.5 -9t38 0.5t38 7.5q114 28 206.5 83.5t186.5 145.5q35 34 49 34 q5 0 7 -4q8 -14 -19 -50q-8 -10 -16 -18q-90 -90 -177.5 -153.5t-217.5 -121.5q-8 -5 -22 -5q-6 0 -13 1q-23 3 -50.5 9.5t-56 24t-51.5 39t-37 55.5q-13 31 -13 65q0 75 55 223zM559 1291q0 46 75 120q72 77 120 87l14 2q27 0 51 -22q24 -21 24 -45q0 -7 -2 -13 q-10 -55 -91 -126q-63 -59 -107 -59q-7 0 -13 1q-71 13 -71 55z" />
<glyph unicode="j" horiz-adv-x="485" d="M-3368 -1863q8 101 48 196q62 144 192 285.5t300.5 262.5t385 237t438.5 212t469.5 185.5t470 158t446.5 128t393 99t315 67.5q45 104 113 319.5t114 397.5q35 140 35 180q0 12 -3 15q5 34 45.5 70t74.5 47q37 9 58.5 -3.5t19.5 -42.5q-5 -37 -35 -77 q-25 -64 -77.5 -224.5t-116 -353.5t-105.5 -309q314 56 661 79q149 9 266 9q156 0 255 -17q57 -11 115.5 -61.5t85.5 -116.5q11 -30 11 -60q0 -38 -18 -76q-15 -29 -32.5 -52.5t-41.5 -46.5t-39.5 -36t-49 -39.5t-48.5 -38.5q-17 -13 -29.5 -20t-18 -6.5t-5.5 6t8 17 t23 25.5q63 58 112.5 130t68.5 132q10 32 10 59q0 44 -26 74q-42 48 -132 55q-85 9 -233 9t-316 -8t-345.5 -28t-303.5 -47q-64 -184 -129 -354.5t-159 -387t-190.5 -407.5t-222 -400t-255 -381t-288 -333t-323 -274t-357.5 -186t-394 -86q-36 -2 -72 -2q-82 0 -165 12 q-121 18 -231 58t-214.5 97t-191.5 131t-159.5 157.5t-120 177.5t-71.5 189q-18 72 -18 147q0 25 2 50zM-3281 -1946v-12q0 -92 27 -180q29 -93 86.5 -183t136 -167t180 -141.5t214.5 -108.5t243 -66q106 -19 213 -19q24 0 48 1q197 8 391 89t358.5 209t324 306.5t288.5 367 t251 405t212 405.5t171 384.5t129 326.5t85 245q-297 -61 -593.5 -138.5t-601.5 -177t-582.5 -211t-531.5 -244.5t-454 -273.5t-346 -301t-210 -324.5q-37 -93 -39 -192zM417 1253q0 44 74 118q75 80 120 89q7 1 13 1q26 0 52 -23q22 -20 22 -41q0 -8 -3 -16 q-9 -52 -87 -125q-68 -60 -109 -60q-7 0 -14 2q-68 14 -68 55z" />
<glyph unicode="k" horiz-adv-x="1106" d="M28 -28q0 15 4 25q15 39 46.5 117.5t45.5 113t38.5 95t38.5 93t32 74.5t32.5 72t28.5 56q-12 40 -12 71q0 13 2 24q7 39 30.5 58t53.5 13q262 444 315 529h-13q-41 6 -93 14q-29 6 -56.5 31.5t-44 58.5t-16.5 62q0 36 22 58q153 163 475 239q895 1342 1835 1673 q256 87 502 87q422 0 696 -229q262 -222 262 -544q0 -239 -165 -450q-177 -238 -534 -404q-1301 -612 -2562 -612q-127 0 -188 3q-7 -2 -17.5 -5.5l-21 -7t-17.5 -6.5q-84 -168 -290 -508q614 444 834 444q95 0 104 -75q0 -66 -43 -158q-79 -162 -352 -286 q-248 -112 -485 -112q202 -351 559 -679q402 -374 722 -469q58 -18 100 -18q108 0 184 44.5t115 131.5q10 21 22 15q1 -1 1.5 -4l1 -6t1.5 -7.5t2 -7.5q-60 -142 -175 -216q-5 -3 -26 -3q-39 0 -132 12q-40 4 -74.5 12t-60.5 16t-33 10q-585 159 -1360 1117 q-60 -96 -124 -235t-157 -364q-6 -16 -19 -16q-11 0 -18 12.5t-16 40.5zM460 716q13 -45 44 -98q9 -3 43 -3q113 0 252 45q166 51 242 109q153 116 153 251v9q-2 44 -30 64q-21 15 -55 15q-12 0 -25 -2q-109 -16 -346 -174q-191 -123 -278 -216zM521 1443q0 -27 17.5 -41 t53.5 -21q103 -16 110 -16q35 57 76 122t86 136.5t75 117.5q-261 -80 -392 -237q-26 -21 -26 -61zM803 1359q148 -7 238 -7q555 0 1105 130q740 177 1362 537q673 388 673 825q0 277 -272 466q-275 191 -631 191q-243 0 -462 -93q-1074 -446 -2013 -2049z" />
<glyph unicode="l" horiz-adv-x="636" d="M232 288q-1 21 -1 42q0 292 167 680v9q600 1361 1241.5 2061.5t1327.5 741.5q39 2 77 2q421 0 751 -283q334 -279 334 -622q0 -35 -4 -72q-9 -117 -71 -238q-304 -581 -1652 -1095q-942 -356 -1904 -538q-55 -155 -91.5 -322t-41.5 -295v-20q1 -71 13 -125q14 -61 40 -94 q27 -32 65 -48q31 -13 65 -14q8 0 16 2q42 4 90 19.5t94 40.5t93 59q39 27 49.5 24t2 -21.5t-25.5 -32.5q-74 -67 -150 -111t-145 -62q-45 -12 -86 -13q-22 0 -44 4q-61 10 -106.5 46t-73 106.5t-30.5 168.5zM515 1025q1182 242 2103 645q1104 485 1368 1025q46 99 56 207 q4 35 4 68q0 297 -292 538q-307 257 -731 257q-28 0 -56 -1q-769 -29 -1589 -1173q-480 -672 -838 -1501h4q-3 -6 -7 -16t-6.5 -16.5t-7 -15.5z" />
<glyph unicode="m" horiz-adv-x="1813" d="M-13 16q-2 12 -2 23t2 19q1 6 5 15t8 16.5t11 21t11 22.5q82 155 283 439q188 270 294 376q21 18 56.5 31.5t49.5 4.5q13 -9 -13 -30q-21 -14 -133 -145q-124 -143 -222 -321q-22 -40 -22 -59q0 -15 15 -15q16 0 35 19q196 201 472 373q166 102 257 102q22 0 39 -6 q31 -9 31 -47q0 -30 -34.5 -110t-110.5 -230q-19 -28 -19 -55q0 -37 29 -37q20 0 33 13q442 400 782 564q19 10 36 10q30 0 40 -16t3 -52q-7 -7 -16.5 -18.5t-22.5 -26.5t-23 -26q-125 -282 -351 -648q-31 -53 -31 -78t22 -25q7 0 14.5 2t23 8.5t20.5 8.5q239 110 599 223 q512 160 841 178q39 2 76 2q235 0 377 -82q179 -104 179 -256q0 -46 -13 -84q-21 -66 -82 -88q-26 -16 -41 -16q-6 0 -9.5 3t-3.5 6q0 5 7 12.5t17 16.5t25 32t29 53q22 55 22 90q0 113 -117 191q-122 84 -340 84q-33 0 -112 -6q-473 -48 -945 -217q-498 -176 -826 -426 q-14 -10 -29 -10q-39 0 -39 35q0 13 11 24l77 77q-4 13 -4 29q0 22 8 48q262 323 377 625q24 47 24 86q0 56 -46 56q-27 0 -65 -29q-486 -388 -621 -583q-6 -9 -26 -22t-51 -24q-17 -7 -37.5 -16t-32 -14t-23 -10.5t-18.5 -9.5q-18 -9 -39.5 13.5t-9.5 36.5q200 290 275 528 q15 33 15 62q0 58 -49 58q-15 0 -43 -9q-61 -27 -232 -172q-194 -161 -324 -310q-60 -63 -182 -240q-10 -15 -77 -41q-45 -16 -81 -40q-5 -2 -7.5 0.5t-5.5 12.5z" />
<glyph unicode="n" horiz-adv-x="1102" d="M0 90q-5 5 -5 15q0 14 11 37q74 156 253 430q158 239 297 412q22 33 81 41q10 2 15.5 2.5t7.5 -2.5q0 -12 -9 -22q-239 -278 -367 -570q-12 -17 -12 -41q0 -36 25 -36q21 0 40 23q143 140 391 343q241 195 327 226q47 41 81 52q45 21 78 21q20 0 36 -8q20 -7 20 -24 q0 -19 -25 -50q-231 -296 -414 -680q-169 -366 -190 -608q-1 -18 -1 -34q0 -130 62 -197q66 -71 178 -71q46 0 93 14q185 55 463 288q308 265 308 420q0 31 -15 47.5t-33.5 18.5t-34 5t-15.5 10q0 9 8.5 17.5t20.5 14.5t26 10t24 4q54 0 54 -75q0 -35 -19 -95 q-56 -179 -291 -414q-312 -308 -673 -346q-18 -2 -35 -2q-105 0 -178 74q-76 83 -76 247q0 28 2 57q18 219 204 585q161 320 333 555q9 14 9 31q0 52 -58 52q-26 0 -52 -15q-348 -247 -741 -703q-33 -43 -164 -72q-18 -2 -28 1t-12 12z" />
<glyph unicode="o" horiz-adv-x="1143" d="M62 62q4 268 433 793q4 9 2 17.5t-9 10.5q-87 49 -87 78v2q0 6 0.5 9.5t5.5 10.5t14 11t28 8t46 4q101 4 119 5q4 0 4 -1q15 0 36 12q71 67 142 71h7q15 0 35 -6q24 -8 46 -19.5t58 -32.5q1 -1 8.5 -6t13.5 -7q36 -1 105.5 -3t153.5 -4.5t163 -4.5q47 0 47 -13 q0 -8 -12.5 -14.5t-34.5 -6.5q-101 0 -130 -37q-5 -10 0 -19q1 -5 3.5 -13t4.5 -14t2 -10q-20 -246 -395 -569q-390 -333 -664 -369q-8 -1 -17 -1q-40 0 -80 30q-48 38 -48 88zM142 46q0 -63 67 -62q16 0 37 3q219 34 527 318q325 292 373 523q3 13 3 24q1 33 -23 54 q-32 28 -104 36q-39 5 -77 5q-103 0 -195 -34q-5 3 -55 -30q-344 -320 -534 -766q-19 -33 -19 -71z" />
<glyph unicode="p" horiz-adv-x="1270" d="M-3054 -2103q0 581 513 1022q532 465 1318 677q605 160 1103 164q20 38 87.5 175.5t125.5 239.5q51 90 143 261t132 243q-55 52 -55 88q0 5 1 10q19 53 171 116q27 42 87.5 137t190.5 291q17 26 117 65q15 5 25 5q18 0 18 -16q0 -6 -3 -9t-7.5 -6t-12.5 -11.5t-17 -21.5 q-48 -70 -68.5 -101.5t-29.5 -48.5t-43 -77.5t-85 -148.5q253 98 424 98q232 0 232 -215q0 -167 -149 -374q391 101 454 106q13 4 22 0q2 -2 2 -5t-2 -5q-8 -8 -22 -12q-250 -71 -556 -176q-282 -259 -689 -300q-8 -1 -14 -1q-54 0 -54 63q0 19 13 31q73 48 701 256 q166 190 166 392q0 175 -194 175q-140 0 -389 -129q-47 -81 -127 -202t-147 -222.5t-167.5 -281t-200.5 -389.5q133 0 192 -10q62 -9 111 -45t74 -86.5t25 -106.5q0 -40 -16 -71q-42 -81 -210 -214q-31 -26 -49 -26q-6 0 -6 3q0 19 33 42q191 178 191 321q0 61 -34.5 95 t-112.5 41q-33 6 -63.5 8.5t-47.5 2.5t-50.5 -1t-51.5 -1q-21 -44 -55 -132.5t-48 -123.5q-389 -967 -798.5 -1569t-828.5 -832q-219 -119 -444 -119q-355 0 -587 282q-238 283 -238 679zM-3016 -2174q0 -337 249 -586q233 -233 560 -233q211 0 392 100q361 195 741 747 q309 445 549 982q111 242 285 633q11 26 28.5 67.5t37.5 88t38 87.5q-472 -4 -1006 -162q-754 -227 -1285 -680q-294 -254 -441.5 -513.5t-147.5 -530.5z" />
<glyph unicode="q" horiz-adv-x="1213" d="M-432 -2069q169 764 1154 2218q13 19 88.5 127t132.5 191.5t60 88.5q13 13 13 33q0 22 -25 22q-35 0 -59 -28q-319 -314 -599 -493q-105 -68 -191 -68q-142 0 -142 150q0 32 9 65q121 355 553 679q349 257 590 326q144 43 216 43q62 0 111 -26q37 7 61 7q46 0 46 -24 q0 -12 -20 -38q-70 -79 -103.5 -118t-105.5 -127.5t-138.5 -182t-131.5 -196.5q-82 -132 -215 -339t-234.5 -364t-229 -365.5t-225 -381t-193.5 -369.5t-162 -369q-169 -434 -169 -707q0 -87 17 -158q72 -292 447 -306q23 -1 47 -1q433 0 1021 257q196 85 424 216 q-231 -168 -402 -246q-335 -153 -629 -221q-274 -64 -497 -64h-32q-521 12 -521 493q0 123 34 276zM155 213q0 -39 18.5 -59.5t52.5 -20.5q71 0 209.5 88.5t337.5 263.5q309 274 489 485q45 49 45 108q0 52 -31 83q-25 25 -59 25q-8 0 -16 -1q-283 -56 -642 -370 q-404 -349 -404 -602z" />
<glyph unicode="r" horiz-adv-x="886" d="M-49 -43q-2 6 -2 13q0 10 5 21q322 495 428 747q19 47 19 80q0 8 -9 37q-5 13 0 22q34 13 242 136q3 6 14 6q20 0 25 -16q5 -7 4.5 -18t-7.5 -18q-214 -289 -284 -423q-10 -19 -10 -32q0 -16 35 -3q31 12 39 25q126 151 327 314q207 170 323 217q18 1 34 1q77 0 116 -20 q3 -3 3 -8q-1 -23 -39 -59q-29 -28 -46 -28q-5 0 -10 3q-23 9 -50 9q-54 0 -124 -37q-478 -265 -854 -880q0 -1 -1 -2.5l-2 -3t-3 -4t-4.5 -5t-6.5 -5t-9 -4.5q-64 -26 -132 -65q-8 -10 -13.5 -10t-7.5 10z" />
<glyph unicode="s" horiz-adv-x="1053" d="M-2 -107q-1 3 -1 6q0 10 9 24q55 67 438 333l-104 139q-69 92 -78 174q-2 12 -2 24q0 204 442 466q455 268 813 268h13q19 0 35 -20q13 -28 0 -41q-21 -33 -73 -66q-42 -27 -65 -27q-5 0 -8 1q-139 46 -213 46q-33 0 -71 -7q-186 -44 -428 -216q-287 -195 -287 -348 q0 -11 2 -22q9 -67 71 -164q69 -99 111 -120q243 136 487.5 216.5t509.5 126.5l3 -3q-440 -86 -961 -386q78 -104 78 -152q0 -88 -215 -181q-180 -81 -294 -81q-39 0 -68 10q-12 -2 -32 -5.5t-30 -5.5q-10 -1 -22 -3q-10 -2 -16 -2q-2 1 -4 1q-8 0 -13 2q-23 2 -27 13z M164 -69q4 -9 21 -12q13 -3 30 -3q59 0 167 38q139 51 168 92q12 17 12 35q0 50 -74 120q-49 -30 -158 -111q-72 -53 -108.5 -83.5t-49.5 -52.5q-8 -11 -8 -18q-1 -3 0 -5z" />
<glyph unicode="t" horiz-adv-x="500" d="M-272 -1136q0 461 372 1308q306 705 660 1217q39 44 39 96q0 60 -58 90q-58 23 -80 50t-10 51q19 38 337 38q6 0 4.5 5t-5.5 12t1 13q49 78 111.5 164.5t113.5 153t136.5 169.5t131 156.5t149.5 174t143 165.5q20 24 181 85q30 11 64.5 24t49.5 18t34 9.5t37 4.5 t26.5 -8.5t8.5 -21.5q0 -9 -6.5 -13t-25.5 -9q-306 -65 -1006 -1026q-24 -34 -19 -55t41 -21h469q112 0 209.5 -0.5t153 -1.5t64.5 -1q30 0 40 -9q0 -10 -20 -36.5t-45 -28.5q-128 -5 -450 -23.5t-514 -27.5q-54 -9 -81 -52q-202 -301 -347 -539t-275 -504 q-453 -922 -507 -1516q-4 -56 -4 -157q0 -562 399 -562q121 0 251 42q393 123 812 566q414 437 469 787q0 149 -54 217q-44 54 -121 54q-19 0 -41 -3q-37 -5 -82.5 -28.5t-53.5 -23.5q-14 0 -21 8.5t-4 20.5q10 19 25.5 32.5t46.5 29t89 39.5q12 3 39 3q54 0 101.5 -33.5 t96.5 -105.5q91 -138 91 -208q0 -6 -1 -12q-59 -422 -618 -929q-567 -512 -987 -512q-248 0 -427 195q-79 87 -106 198.5t-27 270.5z" />
<glyph unicode="u" horiz-adv-x="1455" d="M111 164q6 87 54.5 210t116 244t149 245.5t149.5 217t122 155.5q26 30 69 30h3q40 0 43 -30q0 -24 -27 -59q-161 -201 -323 -468t-208 -428q-18 -60 -18 -101q1 -2 1 -6q2 -42 19.5 -62t49 -17.5t71.5 25.5q96 57 211 154.5t226 209t214 219t208 214.5t173 167 q22 21 42 21q22 0 39 -27q22 -34 22 -74q0 -8 -1 -16q-2 -18 -9 -27q-103 -157 -213 -380t-130 -344q-5 -31 -4.5 -54t4 -37t13 -22t17.5 -11t23.5 -1t24.5 3.5t26 5.5q5 2 7 2q8 3 42 24.5t78.5 51t88 58.5t78 52.5t40.5 27.5q48 31 56 11q2 -4 1 -9q0 -20 -29 -52l-6 -6 q-36 -36 -192.5 -144t-195.5 -121q-7 -2 -15 -2q-23 0 -51 18q-38 24 -67 65.5t-29 81.5q0 30 5 65t10 62.5t18 69.5l19.5 63t25.5 68t24 60t26.5 64t23.5 55q13 33 8.5 59t-25.5 28h-2q-21 0 -58 -35q-103 -101 -207 -200.5t-241 -225t-245 -211t-156 -101.5q-28 -9 -52 -9 q-15 0 -28 3q-36 9 -61 33q-25 25 -38 61q-11 30 -11 61q0 7 1 15z" />
<glyph unicode="v" horiz-adv-x="995" d="M58 117q83 362 482 912q9 12 32 12q52 0 52 -41q0 -3 -1.5 -6.5t-4 -8.5t-3.5 -9q-293 -463 -365 -723q-10 -38 -10 -68q0 -71 48 -71q31 0 80 38q117 96 379 447q50 66 103.5 140t120 167t100.5 140q5 6 9.5 22t9 35t13 48.5t17.5 55.5q104 77 133 93q2 1 6 1 q9 0 25 -10q22 -13 36 -31q11 -13 12 -20q0 -3 -2 -4q-88 -125 -88 -188v-7q4 -39 43 -68q9 -4 9 -16q0 -16 -10.5 -21t-33.5 -1q-77 21 -104 49q-7 7 -16 0.5t-24 -27.5q-115 -174 -313 -407q-221 -264 -401 -420q-81 -72 -139 -72q-14 -9 -40 -18q-15 -5 -37 -5 q-11 0 -24 1q-40 3 -72 30q-24 21 -24 40q0 6 2 11z" />
<glyph unicode="w" horiz-adv-x="1704" d="M25 111q22 136 256 485q225 329 240 395q5 22 41 22q49 0 49 -40q0 -16 -9 -34q-15 -36 -223 -359q-157 -249 -197 -373q-7 -19 -7 -32q0 -16 3.5 -26t11.5 -14.5t20 -4.5q24 0 36 12q131 95 384 395q205 247 290 379q19 47 93 165q11 10 43 16t61 6q15 -3 19.5 -6.5 t2.5 -12.5q-60 -94 -133 -334q-77 -260 -77 -456q0 -59 3 -84q6 -80 42 -114q25 -24 63 -23q16 0 34 4q170 37 349 266q171 223 185 469q-38 9 -67.5 42t-23.5 51q1 11 10 23t22 22t29 16.5t30 6.5q53 0 106 -118q38 -14 127 -14q7 0 12 -4t5 -9q0 -10 -17 -16 q-64 -19 -106 -19q-54 -289 -299 -534q-238 -238 -507 -262h-5q-33 0 -75 36q-46 39 -69 103q-8 24 -8 55q0 268 83 507q8 22 -7 27q-17 9 -33 -12q-319 -437 -528 -609q-96 -83 -161 -83q-6 0 -12 1q-20 0 -54 34t-32 55z" />
<glyph unicode="x" horiz-adv-x="985" d="M-570 -834q-5 34 -5 66q-1 40 7 78q14 70 55 149t89.5 146.5t115.5 148.5q75 90 170 187t202.5 193.5t182.5 160.5t176 149q-15 65 -34 166t-34 202t-22 164q-2 36 25 60q25 22 39 -2q6 -9 7 -24q3 -19 22 -151.5t35 -217.5t34 -140q149 118 418.5 308t383.5 250 q12 5 22 5q15 0 27 -10q19 -16 19 -40v-8q-3 -30 -35 -42q-34 -15 -82.5 -43t-96 -58t-113.5 -75t-113.5 -78.5t-119 -85t-107.5 -78t-101 -74.5t-79 -58q26 -126 97 -322t132 -274q15 -18 21 -32t3 -19t-10.5 -5t-20 8.5t-24.5 22.5q-58 62 -141 246.5t-125 322.5 q-148 -105 -341.5 -279.5t-364.5 -366.5q-27 -31 -51 -60.5t-55.5 -71.5t-56 -83t-49 -88t-37.5 -93t-19 -92q-2 -17 -1 -34q-1 -30 5 -58q10 -46 35 -84q37 -58 89 -94t108 -48q23 -9 16 -22q-5 -9 -16 -9q-7 0 -17 4q-49 10 -108.5 50.5t-98.5 93.5q-46 65 -58 139z" />
<glyph unicode="y" horiz-adv-x="1199" d="M-2599 -1877q0 123 49 243q249 578 1553 1094q908 354 1858 540q41 113 109 395q51 203 62 303q-155 -133 -395 -297q-309 -207 -495 -281q-19 -6 -28 -6q-29 0 -49 23t-13 45q18 66 294 562q4 7 2 55t4 62q15 25 124 71q122 52 142 56h6q19 0 30 -12q14 -13 16 -41 q-63 -26 -226 -252q-130 -192 -194 -318q-10 -24 -10 -41q0 -33 25 -43q32 -10 59 0q164 65 420 244q229 160 305 232q10 19 23 35.5t28.5 27t29.5 11.5h7q46 0 73 -25q24 -22 24 -48q0 -7 -2 -14q-28 -33 -50 -80q-59 -215 -206 -651q496 91 942 91q120 0 247 -20 q74 -15 142 -86t68 -150q0 -42 -19 -71q-42 -81 -210 -213q-27 -27 -46 -27q-6 0 -6 3q0 19 33 43q189 180 189 321q0 114 -158 128q-154 8 -240 8q-579 0 -957 -80q-954 -2719 -2313 -2807q-40 -2 -79 -2q-422 0 -776 283q-392 308 -392 689zM-2511 -1929q0 -339 343 -605 q335 -256 753 -256q28 0 56 1q782 29 1489 1168q439 710 718 1566q-1168 -239 -2049 -643q-1055 -485 -1269 -1024q-41 -111 -41 -207z" />
<glyph unicode="z" horiz-adv-x="772" d="M-2921 -1676q0 124 47 240q125 290 511.5 561.5t1041.5 531.5q204 80 453 158t437.5 128.5t481 126t458.5 121.5l35 10q-8 24 -27 41.5t-42.5 25.5t-49.5 10.5t-49 -3.5q-17 -7 -26 12q-12 25 12 53q44 44 119 158t144 249t88 217q7 30 7 53q0 31 -12 53q-17 34 -46 34 q-4 0 -8 -1q-29 -10 -70.5 -44.5t-85 -83.5t-78.5 -91.5t-68 -87.5q-24 -33 -28 -10t13 51q23 35 49.5 70.5t72 90.5t86 97t87 76.5t81.5 41.5q5 1 11 2q24 0 49 -26q31 -31 49 -80q14 -38 14 -73q0 -10 -2 -20q-5 -53 -32.5 -120.5t-70 -138.5t-79.5 -126.5t-82.5 -119 t-57.5 -81.5q-11 -8 -9.5 -29t18.5 -19q52 -32 69 -46t37 -42q5 -6 8.5 -13t5.5 -12.5t4 -12.5t2.5 -11t1.5 -10.5t2 -8.5q411 74 945 74q147 0 245 -16q74 -15 142 -87t68 -151q0 -27 -19 -71q-43 -84 -210 -215q-26 -25 -46 -25q-6 0 -6 3q0 17 33 46q191 176 191 320 q0 111 -160 125q-154 8 -238 8q-603 0 -959 -79q-956 -2725 -2313 -2808q-39 -2 -77 -2q-422 0 -778 284q-390 307 -390 692zM-2835 -1732q0 -339 343 -605q334 -255 764 -254h45q390 14 760 306.5t725 864.5q439 711 723 1565q-1169 -243 -2050 -643 q-1061 -488 -1270 -1027q-40 -106 -40 -207z" />
<glyph unicode="{" horiz-adv-x="1652" d="M324 1041l6 21q59 11 107.5 26.5t90 39t74.5 46t63 60t52 69t44 85t37.5 95.5t35.5 113.5t33.5 126.5t34.5 145q15 65 26.5 110t26 99.5t28 93.5t31 83.5t36.5 79.5t42.5 71.5t51 69t60.5 62.5q38 37 77 64t77.5 43t72 25.5t71 12.5t64 3t61.5 -2l-19 -92 q-235 6 -370 -168q-98 -127 -180 -411q-23 -81 -82 -314q-21 -85 -38 -146.5t-39 -124.5t-43.5 -106.5t-50 -86t-60.5 -71.5t-73 -54.5t-90 -42t-110 -28.5q21 -8 34.5 -13.5t36 -17.5t38 -23.5t36 -30t34.5 -39t28 -49t22 -61t11.5 -74t0.5 -89.5q1 19 -10 -23 q-50 -184 -124 -556q-46 -232 -51 -312q-5 -76 6.5 -138.5t32 -101.5t51.5 -74.5t59.5 -57t63.5 -49.5t55 -51q-183 22 -275 123q-57 66 -87.5 156t-19.5 230l185 886q5 64 -4.5 114.5t-30.5 87t-59 67.5t-79.5 53t-101.5 46z" />
<glyph unicode="|" horiz-adv-x="374" d="M77 100q3 39 18.5 212.5t26 313t19 344.5t4.5 373q-3 131 -8.5 320t-9 298t-6 258t1.5 198q3 48 50.5 70t91.5 -1.5t40 -87.5q-2 -27 -17 -211t-24.5 -318t-18.5 -341.5t-8 -375.5q0 -112 9 -311t10 -269q0 -6 0.5 -15t0.5 -15.5t-1 -10.5q5 -285 0 -450 q-2 -48 -48.5 -70t-90.5 1.5t-40 87.5z" />
<glyph unicode="}" horiz-adv-x="1361" d="M32 -719l17 92q235 -6 369 167q98 126 179 408q22 79 82 317q22 86 39 147.5t39 124t44 106.5t50 86.5t60.5 71.5t73.5 54.5t90.5 42t109.5 28.5q-26 11 -43 18.5t-46.5 25t-49 36t-42.5 50t-35 67t-19 86t-2 109.5q3 1 21.5 76.5t44 190.5t51 237.5t45 232t23.5 159.5 q4 76 -7.5 138.5t-32 101.5t-52.5 75t-60.5 57.5t-63.5 50.5t-56 52q3 0 9 -1q21 -4 34.5 -6.5t40.5 -9t48.5 -15.5t47.5 -21.5t50.5 -31.5t44.5 -41q38 -41 62 -88t37.5 -124t6.5 -174l-180 -886q-7 -64 2.5 -114.5t30 -87t58.5 -67.5t80 -53t104 -46l-10 -21 q-58 -11 -106.5 -26.5t-90.5 -39t-74.5 -45.5t-62.5 -60t-52 -69t-44.5 -85.5t-38 -95.5t-35.5 -113.5t-33.5 -126t-35.5 -145.5q-20 -83 -30.5 -125.5t-28.5 -109.5t-32 -105t-36.5 -90.5t-46 -88t-55 -75t-68.5 -74.5q-46 -43 -94.5 -73.5t-91 -44.5t-86.5 -22t-80.5 -7 t-72.5 0z" />
<glyph unicode="~" horiz-adv-x="1109" d="M52 877q0 13 29 65q81 113 149 172.5t113 59.5q38 0 207 -100q145 -86 231 -86q134 0 207 86q27 32 47 32q3 0 6.5 -1.5t5.5 -4t2 -3.5q0 -7 -1 -13t-4 -13.5t-4.5 -11t-7 -14t-7.5 -13.5q-53 -70 -96 -115.5t-80.5 -70t-67.5 -24.5q-54 0 -219 91q-90 51 -140.5 74 t-78.5 23q-93 0 -191 -75l-94 -71q-4 0 -5 2.5t-1 10.5z" />
<glyph unicode="&#xa1;" horiz-adv-x="553" d="M-368 -553q-14 81 6 117q5 11 47 16.5t46 15.5q97 154 285 521q215 416 343 652q14 24 33 24q28 0 28 -36q0 -13 -3 -19q-402 -800 -599 -1330q-9 -29 -66.5 -44.5t-94.5 -4.5q-20 5 -25 88zM485 1168q0 19 49 41.5t90 22.5q23 0 27 -12q15 -15 25 -93q15 -84 0 -98 q-9 -19 -61 -43.5t-84 -24.5q-13 0 -19 6q-27 32 -27 201z" />
<glyph unicode="&#xa2;" horiz-adv-x="1276" d="M185 392q32 266 313 565q266 277 567 395l9 10q117 149 182 240q6 6 32 19q3 0 7 -2t7 -4.5t5 -6.5q-3 5 -37 -40.5t-128 -175.5q-19 -24 0 -14q92 42 158 33q18 0 44 -17.5t21 -28.5q-4 -18 -22 -55q-27 -36 -55 -32q-94 29 -179 29q-35 0 -60 -7q-220 -96 -434 -349 q-202 -242 -269 -491q-13 -57 -13 -78q0 -141 152 -117q240 42 544 275q14 10 26.5 10t12.5 -13q0 -23 -22 -36q-372 -303 -648 -303q-19 0 -22 -7q-77 -124 -98 -159q-17 -25 -58 -16q-43 9 -22 30q24 48 107 170q5 8 3 12t-11 9q-27 11 -54.5 39t-44 61t-13.5 55z" />
<glyph unicode="&#xa3;" horiz-adv-x="2257" d="M50.5 244q3.5 44 26 83.5t53.5 68.5t72.5 44t81.5 10q31 -3 63 -11.5t68.5 -26t63.5 -31.5t72 -43t68.5 -44.5t77 -53t76.5 -52.5q12 -8 22.5 -11.5t17 -4t15 5t13 9t14.5 14.5q76 68 184 270.5t197 457.5q0 8 -1 12t-5 8t-13 5q-104 9 -143 7q-9 0 -16 -2.5t-10 -5 t-8 -6t-11 -5.5q-78 -12 -121 23q-32 25 -14 51q13 17 48 25q8 2 19.5 3l23 2t28 0.5t29 -0.5t33 -1t33 -2t35.5 -2.5t35 -2.5t37 -3t35 -3q16 0 21 4t10 19q67 182 133.5 326t140.5 262.5t149.5 196t160 118t173.5 36.5q13 -1 25 -2t27.5 -4t28.5 -7.5t26 -10.5t22 -15 t14.5 -20.5t5.5 -27t-7 -33.5q-5 -16 -20 19q-13 32 -14 33q-35 21 -77 21t-88 -20t-96.5 -60t-102.5 -96.5t-106.5 -132.5t-108 -166.5t-107.5 -198.5t-104 -227q-14 -27 9 -27q395 -62 503 -96q25 -5 21 -22t-28 -18h-6q-329 39 -528 56q-16 0 -21.5 -3t-5.5 -10 q-94 -288 -191 -489.5t-180 -284.5q-27 -29 -27.5 -45t21.5 -30q32 -21 87 -62t104.5 -79t117 -84.5t128.5 -85t134.5 -74t139.5 -57t138.5 -29t137 4t130 48t121.5 98.5q18 25 32 15q15 -11 -3 -40q-2 -2 -3 -4q-50 -67 -134 -109t-175.5 -53.5t-183.5 -1.5t-166 41 q-147 62 -340 183t-327 237q-27 24 -55 3q-77 -73 -159.5 -112.5t-156 -43.5t-143 15.5t-125 60t-97.5 93.5t-63 114q-15 45 -11.5 89zM90 261q-6 -81 62 -174q80 -109 199 -143q184 -53 361 109q5 4 10 9q23 24 22 33.5t-25 21.5q-93 61 -157.5 101t-118 69t-87.5 44 t-67.5 21.5t-58 6t-58.5 -6.5q-77 -12 -82 -91z" />
<glyph unicode="&#xa4;" horiz-adv-x="2022" d="M-167 777q1 92 229 174q29 0 164 -58v-3q17 27 39 61.5t46 71.5t41 64q-14 5 -38 13t-34 11t-22.5 6t-20.5 3q-64 0 -153 -46l-75 -42q-3 0 -3 6q1 92 231 175q37 0 164 -55q243 324 556 574q215 168 369 239t338 88q69 6 124 -17.5t88.5 -69t53.5 -109t22.5 -135 t-8.5 -148.5t-34.5 -149t-60.5 -137.5t-83 -111.5q26 71 37.5 104t32.5 98t29 108t16.5 101t7 111.5t-11.5 107.5q-38 108 -94.5 149.5t-151.5 41.5q-88 0 -182 -30t-182 -81t-184.5 -128.5t-183 -161t-183.5 -188.5q-143 -159 -237 -287q57 -24 101 -24q109 0 164 55 q21 16 37 16q23 0 -6 -38q-2 -2 -2 -3q-68 -65 -113 -96t-80 -31q-34 0 -153 46q-67 -102 -113 -194q55 -17 90 -17q113 0 165 52q20 20 36 20q9 0 11.5 -4.5t-1.5 -12.5t-7.5 -13t-8.5 -12q-127 -127 -195 -127q-36 0 -129 37q-85 -165 -120 -348q-16 -87 -16 -155 q0 -172 74.5 -297t208.5 -188t310 -58q308 8 698 216q551 293 485 237q-53 -45 -491 -308q-375 -226 -692 -217q-292 11 -473 170q-197 171 -197 485q0 233 126 497q-91 40 -126 40q-69 0 -152 -43l-74 -43q-3 0 -3 8z" />
<glyph unicode="&#xa5;" horiz-adv-x="1380" d="M-275 81q0 52 65 52h436q114 131 175 207q-9 90 -15 287q-87 -3 -302 -3q-26 0 -26 24q0 28 11.5 41t37.5 13h275q-1 132 2.5 283.5t10 284.5t13.5 242t13.5 201.5t8.5 117.5q4 65 61 104q51 34 90 15q45 -22 30 -106q-39 -219 -77.5 -683.5t-21.5 -707.5 q847 919 1461 1459q47 39 105 30q45 -7 50 -37q4 -26 -31 -55q-230 -194 -566.5 -506t-663.5 -642h242q17 0 23.5 -6t6.5 -20q0 -49 -39 -49q-87 -3 -304 -3h-6q-20 -22 -163 -174q-23 -25 -70.5 -78t-75.5 -84t-66.5 -75t-68.5 -80h363q18 0 28 -10.5t10 -26.5 q0 -56 -52 -56h-430q-298 -359 -432 -587q-42 -71 -71 -75q-16 -3 -18 17q-3 27 19 74q43 96 149 250.5t240 320.5h-384q-19 0 -31 12t-12 29z" />
<glyph unicode="&#xa6;" horiz-adv-x="488" d="M81 2387q1 48 47.5 70.5t91 -1t39.5 -84.5q-1 -15 -10.5 -145t-14.5 -203.5t-14.5 -228.5t-14 -263t-9 -260.5t-4 -268t5.5 -238.5t15 -215q9 -75 -11 -90q-14 -11 -27 25q-7 21 -11 52q-46 426 -70 996t-13 854zM237 104q1 22 8 113t11 150t11.5 171.5t12 196.5 t10 204.5t8 215.5t4 208.5t0 206t-6.5 186t-14 167.5q-8 75 12 91q14 11 26 -25q8 -21 11 -53q46 -424 70 -996t14 -856q-2 -47 -48 -68.5t-89.5 2t-39.5 86.5z" />
<glyph unicode="&#xa7;" horiz-adv-x="1429" d="M43 -382q-19 117 139 191q253 122 663 155q-33 36 -167.5 183.5t-224.5 244.5q-141 150 -159 268q-10 45 0 90q-5 106 142 173q122 54 227.5 86.5t226.5 45.5q25 3 63.5 7.5t76 8.5t70.5 7q-221 246 -391 426q-144 154 -162 269q-24 126 101 218q251 183 637 183 q146 0 243 -28q70 -22 136 -87q63 -73 77 -160q10 -54 0 -114q-3 -5 -4.5 -10t-2.5 -8.5t-2 -6.5q-10 -9 -15 0q-1 5 -1.5 39.5t-4.5 58.5q-13 91 -84 168q-65 65 -145 83q-113 30 -240 30q-359 0 -563 -175q-97 -78 -77 -198q12 -78 133 -235q71 -71 433 -450q125 6 125 -8 q1 -10 -58 -12q-20 0 -41 1q0 -3 4 -7q15 -15 19 -33q50 -71 61 -145q33 -198 -158 -285q-175 -77 -366 -77q-142 0 -263 41q-93 23 -142 78q23 -106 130 -217q34 -37 179.5 -184.5t254.5 -264.5q4 0 100 -0.5t185.5 -0.5t125.5 1q22 0 22 -8q0 -9 -71 -9q-13 -2 -38 -3.5 t-55.5 -2t-63 -1t-65 -0.5h-56.5t-42.5 0.5t-19.5 0.5q66 -83 87 -185q34 -198 -158 -285q-167 -74 -366 -74q-128 0 -261 40q-86 27 -134 71t-60 106zM81 -404q16 -50 68 -87q52 -35 91 -43q103 -25 229 -25q195 0 359 87q157 85 133 232q-15 98 -100 178 q-168 -22 -289 -49q-199 -39 -356 -126q-149 -86 -135 -167zM350 793q-53 -72 48 -135q102 -64 289 -82q215 -20 357 42q27 12 49 27q43 27 70.5 50.5t48.5 51.5t27.5 61t-0.5 72q-3 52 -36.5 90t-85.5 52q-53 12 -120 -3q-551 -96 -647 -226z" />
<glyph unicode="&#xa8;" horiz-adv-x="960" d="M123 1420q0 46 75 120q72 78 120 87q34 8 65 -19.5t21 -57.5q-9 -55 -90 -126q-72 -68 -120 -59q-71 14 -71 55zM577 1389q0 44 74 118q75 80 118 89q35 7 66.5 -20.5t22.5 -57.5q-9 -53 -92 -126q-72 -68 -118 -58q-71 13 -71 55z" />
<glyph unicode="&#xa9;" horiz-adv-x="2384" d="M362 1006q-13 145 13.5 286t86 263.5t150 229.5t201.5 185.5t245.5 128.5t278.5 62q123 11 245 -6.5t231 -61.5t207.5 -109.5t179.5 -152t142.5 -187t100 -218t49.5 -241.5q12 -143 -15 -283.5t-86 -262.5t-149 -228.5t-201 -184.5t-245 -128t-278 -62 q-123 -11 -245.5 6.5t-231.5 61.5t-208 108.5t-180 151t-142.5 186.5t-100 216.5t-48.5 239.5zM436 1019q12 -134 59 -259.5t120.5 -229t172.5 -187.5t213 -139t245 -80t264 -13q116 9 225 44.5t202.5 92.5t174 132t140.5 166.5t101 193t57.5 214.5t6.5 228 q-9 101 -37.5 197.5t-73.5 181.5t-106 160.5t-133 136.5t-156 109t-174.5 78t-190 42t-200.5 3q-134 -11 -260 -57.5t-229.5 -119.5t-187.5 -172t-139 -212.5t-80 -244.5t-14 -265zM676 716q13 109 75.5 235.5t154.5 243t205.5 229.5t228 201.5t222.5 151t189 84.5 q46 14 85 5.5t67 -30t41 -53.5t7 -66q-4 -25 -10.5 -48.5t-18 -49.5t-17 -38t-21 -41.5t-16.5 -32.5q-39 -68 -63 -59.5t-20 80.5q1 12 4 36t5 42t2.5 42t-2 40.5t-10.5 32t-21.5 22t-36 5.5t-53.5 -13q-101 -40 -215 -123.5t-216 -186.5t-191 -215t-151 -219t-85 -188 q-45 -163 5.5 -245.5t201.5 -66.5q129 13 285.5 64.5t298 120.5t264 149t192.5 151q34 34 49 27q17 -8 -15 -49q-9 -12 -21 -25q-52 -52 -171.5 -133t-267 -163t-315 -150.5t-292.5 -90.5q-60 -9 -126.5 14t-119 67t-84 109.5t-23.5 133.5z" />
<glyph unicode="&#xaa;" horiz-adv-x="905" d="M485 1232q0 62 55 143t162 172q203 179 357 226q25 9 77 9q57 0 96 -16q7 0 16.5 -0.5t14 -0.5t6.5 1q37 13 52 24q1 0 5 1.5t8 1.5t8 -3.5t5.5 -8.5t1.5 -8q-27 -38 -104 -142.5t-115 -161.5q-153 -226 -195 -447q-3 -9 -3 -28q0 -117 155 -117q66 0 139 19 q50 11 114 48t158 102q174 124 253 220q15 15 25 15l3 -3q0 -8 -9 -22q-110 -139 -260 -243q-168 -118 -271 -149q-61 -16 -112 -16q-94 0 -160 42q-67 45 -62 132q10 140 114 349q19 37 27.5 52t24.5 44.5t26.5 46t25.5 38t29 37.5q9 19 -6 19l-4 -3q-121 -121 -265 -227 q-165 -121 -294 -190q-28 -14 -49 -14q-49 0 -49 58zM602 1294q0 -14 3.5 -23t11 -13.5t20.5 -4.5q19 0 33 9q209 114 491 411q7 7 7 13q0 20 -26 36t-68 16q-26 0 -42 -9q-94 -23 -233 -157q-135 -135 -188 -238q-9 -19 -9 -40z" />
<glyph unicode="&#xab;" horiz-adv-x="1080" d="M62 534q34 71 488 356q30 15 42 3q10 -10 -12 -32q-348 -280 -395 -373q-25 -62 13 -395q4 -35 -19 -35q-14 0 -24 26q-112 422 -93 450zM509 534q39 71 488 352q28 17 38 7q10 -15 -6 -32q-345 -274 -395 -373q-28 -57 11 -395q4 -35 -18 -35q-17 0 -22 26 q-111 421 -96 450z" />
<glyph unicode="&#xac;" horiz-adv-x="3412" d="M75.5 1022.5q-7.5 7.5 3.5 14t44 12.5q60 0 196.5 16t323 39.5t292.5 34.5q66 7 237.5 24.5t255 26t243.5 23.5t252.5 22t228.5 16.5t225.5 11.5t190 2.5t175.5 -6t131 -17.5q45 -9 95.5 -27t105 -46.5t103 -63.5t86.5 -80t59 -94.5t17 -109t-36 -119.5 q-31 -58 -57 -93.5t-45 -52.5t-64.5 -57t-89.5 -85q-30 -8 -30 6q1 15 66 95q110 135 144 211q15 32 20 61q17 41 21.5 79t-3.5 68.5t-23 57t-39.5 48t-51.5 39t-60.5 31t-65 24t-65.5 17.5t-61.5 12t-55.5 8q-552 59 -1838 -152q-87 -14 -237 -39.5t-252 -42.5t-205.5 -32 t-150.5 -19l-12 4q22 20 24.5 38.5t-10 31.5t-30.5 25t-34 21t-23.5 16.5z" />
<glyph unicode="&#xad;" horiz-adv-x="739" d="M65 852q0 29 25 41t77 12h457q55 0 55 -28q0 -25 -21.5 -40t-61.5 -15h-476q-55 0 -55 30z" />
<glyph unicode="&#xae;" horiz-adv-x="1869" d="M1087 1902.5q-12 145.5 33.5 283t131.5 242t211 172.5t266 80q141 13 276 -33t237 -135t168.5 -218t77.5 -275q14 -193 -65 -364.5t-225 -279.5q58 -43 99 -57q36 -9 68.5 -10.5t68.5 10.5t58 41l-12 -16.5t-14.5 -16.5t-20 -16.5t-25 -12.5t-33 -9t-42.5 -2t-54 5 q-42 8 -130 61q-140 -92 -314 -107q-142 -12 -276.5 34t-236.5 134t-168.5 216t-78.5 273.5zM1136 1905q10 -134 72 -252.5t156.5 -200.5t220.5 -125t259 -33q155 15 268 87q-85 59 -188.5 144.5t-222.5 190.5t-119 106q-42 -56 -68.5 -101t-43 -92.5t-24.5 -100.5 q-7 -24 14 -55q8 -11 -1 -15q-8 -2 -16 5q-23 19 -23 71q-1 35 5.5 71t18 66t31 65.5t36.5 61t42 60.5q-18 25 0 47q11 8 40 4q22 32 53 70.5t65.5 77t69 75t68 68t60.5 52.5q17 2 26 -7.5t9 -22.5t-8 -21q-158 -138 -290 -302q34 -1 82 -1t113.5 8.5t128 21t124.5 35.5 t104 53q95 70 41 145q-44 77 -186 143.5t-315 79.5q-70 7 -134 1t-115.5 -22t-89.5 -51.5t-56 -88.5q-15 -57 -8.5 -107t27.5 -90q4 -7 -1.5 -8.5t-8.5 1.5q-30 42 -42 99.5t0 107.5q28 109 140.5 162t296.5 39q109 -9 216 -47t180 -85t112 -94q40 -43 31.5 -101.5 t-63.5 -99.5q-61 -46 -172 -80.5t-215 -48t-179 -10.5q-13 3 -15 -4.5t8 -18.5q59 -63 219.5 -201.5t282.5 -228.5q145 101 221.5 262.5t62.5 348.5q-11 136 -73 255.5t-156.5 201.5t-218 125t-253.5 33q-134 -12 -250.5 -75.5t-197 -160.5t-122 -226t-29.5 -267z" />
<glyph unicode="&#xaf;" horiz-adv-x="1069" d="M123 1411q0 22 32.5 35.5t90.5 13.5h680q68 0 68 -27q0 -44 -98 -44q-198 -3 -711 -3q-62 0 -62 25z" />
<glyph unicode="&#xb0;" horiz-adv-x="649" d="M534 1596q0 56 28 102t75.5 72t103.5 26q43 0 82 -15.5t67 -42t44.5 -63.5t16.5 -79q0 -85 -61 -144.5t-149 -59.5q-86 0 -146.5 59.5t-60.5 144.5zM577 1596q0 -68 48.5 -117t115.5 -49q66 0 116.5 49.5t50.5 116.5q0 64 -50.5 112.5t-116.5 48.5q-44 0 -82 -22t-60 -59 t-22 -80z" />
<glyph unicode="&#xb1;" horiz-adv-x="1352" d="M43 259q0 52 121 52h1046q68 0 68 -27q0 -23 -23.5 -33.5t-72.5 -10.5q-198 -3 -1078 -3q-61 0 -61 22zM61 1198q2 1 4 0q36 -32 114 -56q212 -34 491 -39q87 160 180.5 308t159.5 235q11 16 68.5 45t82.5 34q16 6 19 -6q0 -5 -3 -8q-26 -9 -57.5 -34t-48.5 -50 q-50 -63 -114.5 -158.5t-110.5 -169.5t-121 -196q297 0 476 43q13 1 26.5 5.5t24.5 12.5t10 20t-17 26q-21 28 -51 43q-10 3 -13.5 7.5t2.5 8t18 3.5q17 -3 59 -33.5t58 -53.5q13 -15 17 -28.5t0.5 -22.5t-12 -16.5t-17.5 -11.5t-18 -6q-186 -39 -590 -51 q-137 -236 -210 -447q-19 -30 -15.5 -63.5t42.5 -13.5q30 10 68 31q15 18 16 7q0 -8 -7 -19q-14 -18 -62 -46t-77 -35q-26 -7 -40 -3.5t-18.5 17t-3 28t6.5 29.5q62 184 243 515q-260 0 -459 25q-13 3 -56.5 40t-60.5 57q-15 21 -4 27z" />
<glyph unicode="&#xb2;" horiz-adv-x="772" d="M43 1217q0 34 50 39q105 27 191 65q118 55 211 129q147 114 165 230q5 42 -26 90q-37 52 -97 61q-23 10 -52 10q-86 0 -180 -56q-11 -5 -11 5q0 22 27 38q110 65 235 55q88 -4 133 -61q36 -52 36 -108q0 -124 -185 -260q-165 -123 -294 -169q-20 -7 -20 -13 q0 -8 36.5 -14t110.5 -9.5t177 -3.5q33 0 33 -16t-27 -16q-36 4 -126 4q-185 0 -362 -13q-25 -4 -25 13z" />
<glyph unicode="&#xb3;" horiz-adv-x="804" d="M28 1142q0 11 4.5 21t12 16t17.5 6q14 0 19 -27q0 -13 8 -22t24 -14t39 -5q98 0 224 57q151 72 193 172q11 28 11 52q0 71 -46 103q-66 53 -178 39q-7 0 -7 10q0 8 10 15t23 7q73 0 162 55q94 52 123 98q12 30 12 60q0 56 -55 56q-87 0 -188 -45q-5 1 -6 10q0 13 23 32 q96 49 201 49q103 0 103 -78q0 -27 -16 -58q-54 -88 -240 -162q-10 -4 -10 -14q0 -6 10 -6q43 -3 77.5 -24.5t53.5 -56t19 -74.5q0 -41 -17 -71q-58 -112 -223 -179q-153 -64 -256 -64q-62 -3 -94.5 8.5t-32.5 33.5z" />
<glyph unicode="&#xb4;" horiz-adv-x="859" d="M167 1381q-11 17 5 33q27 18 239 217q2 2 7 6q60 54 86.5 78t58 51.5t44.5 37.5t17 11q18 5 32 1t23.5 -17.5t15.5 -38.5q11 -32 -19 -52q-304 -200 -475 -327q-22 -11 -34 0z" />
<glyph unicode="&#xb6;" horiz-adv-x="2093" d="M121 1140.5q-17 179.5 15.5 388t144 435t281.5 404.5q132 140 268.5 224t295 118.5t343.5 16.5q214 -13 307 -28l107 213q35 71 62.5 140t48 138.5t18.5 119.5t-29 65q3 3 9 8.5t22 19t30 24.5t31 20.5t28 11.5q8 1 15 -2t11.5 -7t7.5 -8.5t4 -8.5l1 -3q7 -21 -2 -63 t-31.5 -94.5t-46.5 -104t-54.5 -108t-49 -89t-35.5 -62.5q-29 -65 -115 -257.5t-163 -366.5t-188.5 -426t-205 -470.5t-196.5 -462.5t-179.5 -440t-138 -365.5t-88.5 -277t-15 -137.5q0 -9 36 -95l-62 56q-7 9 -39 42l-10.5 73.5t-2.5 106.5q20 90 174.5 495.5t236.5 557.5 q-34 -28 -65 -50.5t-72 -49t-78 -46t-81 -36.5t-84 -25t-83.5 -7t-83.5 13q-121 3 -201.5 111.5t-97.5 288zM505.5 1952q-6.5 -84 18.5 -139.5t81 -61.5q256 -31 719 586l26 34l-1 -3q-58 -125 -93 -417q-29 -244 -10 -323q10 -41 32 -4q38 90 66.5 152t59 121t123.5 255.5 t227 487.5q-20 6 -62.5 12t-78.5 9t-50 3q-67 11 -139.5 13.5t-151.5 -3t-158.5 -23.5t-155.5 -47t-148 -75t-131 -105l-61 -84q-48 -102 -77 -203t-35.5 -185z" />
<glyph unicode="&#xb7;" horiz-adv-x="364" d="M103 554.5q-8 65.5 1 82.5q14 21 69.5 45.5t72.5 9.5q11 -12 15 -69t4 -98q0 -11 -19 -24.5t-43.5 -22.5t-47.5 -13.5t-32 4.5q-12 20 -20 85.5z" />
<glyph unicode="&#xb8;" horiz-adv-x="636" d="M81 -546q-3 16 21 23q4 1 9 2q55 1 120 31t114 71.5t69 78.5q37 59 2 107t-125 72q-46 14 -22 38q111 104 184 151q26 16 40 4q12 -10 -8 -26q-49 -26 -96 -93q-7 -5 -10 -13.5t2.5 -17.5t19.5 -12q19 -5 40 -16t44.5 -32t38 -46t14 -60.5t-22.5 -74.5q-21 -38 -86.5 -84 t-151.5 -80.5t-157 -38.5q-35 -3 -39 16z" />
<glyph unicode="&#xb9;" horiz-adv-x="639" d="M68 1272q-2 8 0.5 14.5t8 10t13.5 3.5q29 8 166 13q87 238 213 493q3 6 3 13q-4 9 -12 9q-7 0 -10 -3q-17 -6 -38 -13.5t-40 -15t-38.5 -14.5t-40.5 -14.5t-40 -13.5q-4 0 -8 -1.5t-5 -1.5q-17 0 -17 9q2 4 10 8.5t10 7.5q257 99 349 169q7 3 13 3q14 0 22 -16 q0 -14 -9 -20q-27 -20 -56 -38q-1 -2 -1 -7t0.5 -9.5t0.5 -12.5v-14q-38 -30 -132 -204q-100 -175 -119 -262q-3 -9 -3 -22q5 -26 54 -36q97 -16 159 -16q23 4 23 -6q3 -8 -11 -12q-20 -4 -147 -4h-40q-186 0 -250 -10q-22 0 -28 13z" />
<glyph unicode="&#xba;" horiz-adv-x="837" d="M466 1259q0 130 259 398q7 13 -3 13q-5 3 -14 7.5t-14.5 8t-11.5 7.5t-9 7.5t-3 7.5v1v5t3 6t8.5 6t16.5 4t27 2q49 3 74 3q13 0 23 6q38 30 83 35q23 0 89 -29q6 -6 12 -6q33 -2 121.5 -3.5t131.5 -2.5q29 0 29 -6q0 -12 -29 -12q-58 0 -77 -19v-9q6 -13 6 -19 q-9 -118 -237 -284q-235 -167 -398 -185q-30 -3 -58.5 16t-28.5 42zM515 1253q0 -39 62 -30q127 14 316 158q195 146 224 262q7 24 -13.5 38.5t-62.5 16.5q-84 9 -161 -12q-3 0 -35 -16q-206 -163 -320 -382q-10 -19 -10 -35z" />
<glyph unicode="&#xbb;" horiz-adv-x="1257" d="M133 93q-11 10 9 30q351 284 395 375q29 54 -9 395q-5 36 12 36q11 0 71 -231q63 -227 53 -248q-9 -18 -56 -54.5t-145 -104.5q-55 -39 -158 -105t-138 -90q-12 -9 -21.5 -10.5t-12.5 7.5zM583 93q-15 10 9 30q187 153 281 241t115 134q6 14 8.5 45.5t0.5 83.5t-7 114.5 t-14 151.5q-4 36 18 36q7 0 13.5 -8t8.5 -22q112 -423 93 -446q-16 -41 -196 -162q-41 -28 -96 -63t-107.5 -68t-91.5 -60q-30 -26 -35 -7z" />
<glyph unicode="&#xbc;" horiz-adv-x="1636" d="M62 68q18 173 598 825q524 592 884 892q28 24 45 24q19 0 19 -24q0 -13 -22 -41q-363 -301 -884 -873q-568 -620 -612 -809q-10 -56 -22 -56q-6 13 -6 62zM68 939q0 33 22 37q84 14 185 21q88 212 324 679q9 10 9 26q0 12 -9 12l-10 -3q-125 -69 -224 -103q-13 -6 -19 -6 q-5 0 -8 4t2 9q8 16 19 19q275 139 401 234q14 9 17 9q5 0 9 -6.5t4 -15.5q0 -21 -6 -27t-17 -14t-27.5 -20.5t-26.5 -20.5q-2 -2 -3 -10t-3.5 -21.5t-4.5 -24.5q-73 -92 -181 -284q-149 -262 -181 -365q-13 -17 -13 -36q0 -17 14.5 -28t40.5 -13q116 -29 162 -24 q9 2 17 -1.5t8 -8.5q0 -17 -33 -21t-141 -4h-43q-193 0 -262 -9q-12 0 -17 3t-5 13zM602 359q0 19 9 33q2 3 5.5 6t13.5 10.5t18 14.5q18 9 28 30q89 125 281 340q144 167 315 324q3 3 9 3t10.5 -4t6.5 -10t2 -13q0 -12 -9 -22q-97 -73 -337 -333q-189 -198 -249 -285 q63 7 129 7q26 0 79 -1.5t81 -1.5l96 -4q202 373 376 686q19 46 87 46q16 0 16 -11v-3q-111 -174 -232 -398q-27 -47 -54.5 -95.5t-47 -82.5t-37 -65t-30 -53t-19.5 -36q131 -14 155 -8q6 6 6 -3q0 -10 -16.5 -27t-27.5 -17q-120 0 -136 3q-77 -158 -101 -201 q-86 -171 -90 -259q0 -25 -10 -25q-15 0 -9 31q4 156 145 454q-29 3 -175 3q-151 4 -217 -6q-15 -5 -32 -34q-19 -34 -26 -34q-8 0 -10.5 8.5t-2.5 32.5z" />
<glyph unicode="&#xbd;" horiz-adv-x="1636" d="M62 68q18 173 598 825q524 592 884 892q28 24 45 24q19 0 19 -24q0 -13 -22 -41q-363 -301 -884 -873q-568 -620 -612 -809q-10 -56 -22 -56q-6 13 -6 62zM68 939q0 33 22 37q84 14 185 21q88 212 324 679q9 10 9 26q0 12 -9 12l-10 -3q-125 -69 -224 -103q-13 -6 -19 -6 q-5 0 -8 4t2 9q8 16 19 19q275 139 401 234q14 9 17 9q5 0 9 -6.5t4 -15.5q0 -21 -6 -27t-17 -14t-27.5 -20.5t-26.5 -20.5q-2 -2 -3 -10t-3.5 -21.5t-4.5 -24.5q-73 -92 -181 -284q-149 -262 -181 -365q-13 -17 -13 -36q0 -17 14.5 -28t40.5 -13q116 -29 162 -24 q9 2 17 -1.5t8 -8.5q0 -17 -33 -21t-141 -4h-43q-193 0 -262 -9q-12 0 -17 3t-5 13zM670 81q0 14 5.5 27t17 23t26.5 14q125 31 207 81q136 85 226 178q156 156 175 321q12 57 -27 127q-37 69 -102 90h-59q-106 0 -197 -71q-7 0 -7 6q0 43 26 55q142 94 256 81 q100 -21 139 -87q36 -66 36 -153q0 -180 -188 -359q-165 -165 -318 -232q-22 -15 -22 -21q0 -11 37 -20t117.5 -15t194.5 -6q29 0 29 -24q0 -19 -25 -19q-79 7 -139 7q-181 0 -380 -19q-28 -4 -28 16z" />
<glyph unicode="&#xbe;" horiz-adv-x="1636" d="M62 68q18 173 598 825q524 592 884 892q28 24 45 24q19 0 19 -24q0 -13 -22 -41q-363 -301 -884 -873q-568 -620 -612 -809q-10 -56 -22 -56q-6 13 -6 62zM90 970q0 21 10 43t23 22q22 0 22 -41q0 -65 84 -65q110 0 243 90q158 101 223 266q10 47 10 90q0 109 -54 162 q-62 72 -194 62q-16 0 -16 9q0 14 13.5 26t24.5 12q76 0 188 92q107 90 129 155q19 34 19 90q0 88 -65 88q-106 0 -203 -71q-10 -4 -10 10q0 39 25 52q105 80 225 80q118 0 118 -123q0 -46 -22 -90q-72 -154 -268 -259q-7 -3 -7 -20q0 -7 10 -10q71 -10 118.5 -78.5 t47.5 -166.5q0 -51 -15 -110q-37 -90 -99.5 -160.5t-157.5 -127.5q-148 -90 -283 -95q-69 -2 -104 15.5t-35 52.5zM602 359q0 19 9 33q2 3 5.5 6t13.5 10.5t18 14.5q18 9 28 30q89 125 281 340q144 167 315 324q3 3 9 3t10.5 -4t6.5 -10t2 -13q0 -12 -9 -22 q-97 -73 -337 -333q-189 -198 -249 -285q63 7 129 7q26 0 79 -1.5t81 -1.5l96 -4q202 373 376 686q19 46 87 46q16 0 16 -11v-3q-111 -174 -232 -398q-27 -47 -54.5 -95.5t-47 -82.5t-37 -65t-30 -53t-19.5 -36q131 -14 155 -8q6 6 6 -3q0 -10 -16.5 -27t-27.5 -17 q-120 0 -136 3q-77 -158 -101 -201q-86 -171 -90 -259q0 -25 -10 -25q-15 0 -9 31q4 156 145 454q-29 3 -175 3q-151 4 -217 -6q-15 -5 -32 -34q-19 -34 -26 -34q-8 0 -10.5 8.5t-2.5 32.5z" />
<glyph unicode="&#xbf;" horiz-adv-x="1063" d="M-232 -40q0 146 71.5 261.5t212.5 195.5q105 62 411 185q336 135 417 155q35 15 49 52q8 23 -1 55.5t-22 60t-13 32.5q0 19 23 19q35 0 90 -77q59 -72 59 -109q0 -21 -24 -30q-444 -125 -695 -256q-439 -231 -439 -526q0 -78 31 -191q45 -157 195 -263q141 -96 284 -96 q155 0 224 103q5 4 10.5 10t9 9.5l7 7t6.5 5t5 1.5q10 0 10 -17q0 -20 -16 -42q-107 -139 -250 -175q-52 -13 -109 -13q-194 0 -336 143q-131 131 -176 281q-34 122 -34 219zM967 1182q-8 65 0 96q8 13 49.5 31t73.5 18q24 0 35.5 -16.5t20.5 -74.5q3 -24 4 -39t-2 -27.5 t-5 -19t-13.5 -15t-18.5 -12t-27 -14.5q-43 -19 -71 -19q-8 0 -10.5 0.5t-9.5 4.5t-10.5 13t-8 27.5t-7.5 46.5z" />
<glyph unicode="&#xc0;" d="M123 389q0 173 84 384q79 190 204.5 306.5t304.5 162.5q138 36 362 36q500 0 1256 -164q193 203 523 600q393 469 564 732q17 17 41 17q52 0 123 -46q36 -22 51 -38t11 -30q-42 -129 -98.5 -297.5t-92.5 -279t-59 -186.5q-138 -448 -180 -693q166 -48 268 -48q53 0 78 12 t25 39q0 80 -106 172q-27 18 -27 38q-2 7 2 14t11 7q5 0 10 -2.5t7.5 -4.5t10 -7.5t8.5 -6.5q122 -107 162 -210q9 -23 -14 -44t-80 -43q-66 -23 -361 36q-75 -369 -75 -580q0 -113 22 -181q2 -4 19.5 -13t34 -18t14.5 -13q-5 -49 -64 -49q-21 0 -26 12q-52 107 -52 376 q0 214 32 482q-344 68 -779 171q-317 -331 -751 -637q-618 -436 -1036 -441q-202 -2 -314.5 114.5t-112.5 320.5zM201 427q0 -182 83 -288q103 -128 278 -123q426 9 997 417q344 242 707 613q-620 155 -1201 155q-227 0 -367 -33q-302 -69 -436 -414q-61 -160 -61 -327z M2398 1093q370 -111 730 -180q39 387 334 1291q6 32 6 41q0 52 -28 52q-21 0 -52 -31q-494 -654 -990 -1173zM3146 2909q0 34 18.5 52.5t52.5 18.5q19 0 31 -13q255 -238 399 -376q9 -7 11.5 -13t-2.5 -15q-16 -8 -28 0q-67 44 -234.5 158.5t-228.5 155.5q-19 13 -19 32z " />
<glyph unicode="&#xc1;" d="M123 389q0 173 84 384q79 190 204.5 306.5t304.5 162.5q138 36 362 36q500 0 1256 -164q193 203 523 600q393 469 564 732q17 17 41 17q52 0 123 -46q36 -22 51 -38t11 -30q-42 -129 -98.5 -297.5t-92.5 -279t-59 -186.5q-138 -448 -180 -693q166 -48 268 -48q53 0 78 12 t25 39q0 80 -106 172q-27 18 -27 38q-2 7 2 14t11 7q5 0 10 -2.5t7.5 -4.5t10 -7.5t8.5 -6.5q122 -107 162 -210q9 -23 -14 -44t-80 -43q-66 -23 -361 36q-75 -369 -75 -580q0 -113 22 -181q2 -4 19.5 -13t34 -18t14.5 -13q-5 -49 -64 -49q-21 0 -26 12q-52 107 -52 376 q0 214 32 482q-344 68 -779 171q-317 -331 -751 -637q-618 -436 -1036 -441q-202 -2 -314.5 114.5t-112.5 320.5zM201 427q0 -182 83 -288q103 -128 278 -123q426 9 997 417q344 242 707 613q-620 155 -1201 155q-227 0 -367 -33q-302 -69 -436 -414q-61 -160 -61 -327z M2398 1093q370 -111 730 -180q39 387 334 1291q6 32 6 41q0 52 -28 52q-21 0 -52 -31q-494 -654 -990 -1173zM3462 2612q-12 17 3 31q32 22 240 217q2 2 7 6q113 102 155.5 139.5t50.5 39.5q28 7 45 -6t27 -50q10 -31 -19 -50q-305 -200 -476 -327q-22 -11 -33 0z" />
<glyph unicode="&#xc2;" d="M123 389q0 173 84 384q79 190 204.5 306.5t304.5 162.5q138 36 362 36q500 0 1256 -164q193 203 523 600q393 469 564 732q17 17 41 17q52 0 123 -46q36 -22 51 -38t11 -30q-42 -129 -98.5 -297.5t-92.5 -279t-59 -186.5q-138 -448 -180 -693q166 -48 268 -48q53 0 78 12 t25 39q0 80 -106 172q-27 18 -27 38q-2 7 2 14t11 7q5 0 10 -2.5t7.5 -4.5t10 -7.5t8.5 -6.5q122 -107 162 -210q9 -23 -14 -44t-80 -43q-66 -23 -361 36q-75 -369 -75 -580q0 -113 22 -181q2 -4 19.5 -13t34 -18t14.5 -13q-5 -49 -64 -49q-21 0 -26 12q-52 107 -52 376 q0 214 32 482q-344 68 -779 171q-317 -331 -751 -637q-618 -436 -1036 -441q-202 -2 -314.5 114.5t-112.5 320.5zM201 427q0 -182 83 -288q103 -128 278 -123q426 9 997 417q344 242 707 613q-620 155 -1201 155q-227 0 -367 -33q-302 -69 -436 -414q-61 -160 -61 -327z M2398 1093q370 -111 730 -180q39 387 334 1291q6 32 6 41q0 52 -28 52q-21 0 -52 -31q-494 -654 -990 -1173zM3272 2621q5 21 19 38q47 25 262 201q29 22 61 47t49.5 38.5t33.5 25.5t22.5 16t7.5 2q20 -14 191 -346q10 -23 10 -31q-2 -7 -5.5 -12t-5.5 -7.5t-5 -5l-3 -2.5 q-13 -5 -22 17q-61 89 -101 139l-21 21l-18.5 18.5l-15 15t-13.5 12.5t-11 8t-11 5.5t-10 0.5q-162 -66 -385 -210q-38 -33 -29 9z" />
<glyph unicode="&#xc3;" d="M123 389q0 173 84 384q79 190 204.5 306.5t304.5 162.5q138 36 362 36q500 0 1256 -164q193 203 523 600q393 469 564 732q17 17 41 17q52 0 123 -46q36 -22 51 -38t11 -30q-42 -129 -98.5 -297.5t-92.5 -279t-59 -186.5q-138 -448 -180 -693q166 -48 268 -48q53 0 78 12 t25 39q0 80 -106 172q-27 18 -27 38q-2 7 2 14t11 7q5 0 10 -2.5t7.5 -4.5t10 -7.5t8.5 -6.5q122 -107 162 -210q9 -23 -14 -44t-80 -43q-66 -23 -361 36q-75 -369 -75 -580q0 -113 22 -181q2 -4 19.5 -13t34 -18t14.5 -13q-5 -49 -64 -49q-21 0 -26 12q-52 107 -52 376 q0 214 32 482q-344 68 -779 171q-317 -331 -751 -637q-618 -436 -1036 -441q-202 -2 -314.5 114.5t-112.5 320.5zM201 427q0 -182 83 -288q103 -128 278 -123q426 9 997 417q344 242 707 613q-620 155 -1201 155q-227 0 -367 -33q-302 -69 -436 -414q-61 -160 -61 -327z M2398 1093q370 -111 730 -180q39 387 334 1291q6 32 6 41q0 52 -28 52q-21 0 -52 -31q-494 -654 -990 -1173zM3207 2634q0 6 23 39q140 136 206 136q30 0 165 -58q119 -52 182 -52q110 0 162 52q26 19 35 19q4 0 7 -3.5t3 -6.5q0 -10 -16 -36q-122 -122 -191 -122 q-55 0 -171 51q-129 58 -176 58q-73 0 -148 -41l-74 -42q-7 0 -7 6z" />
<glyph unicode="&#xc4;" d="M123 389q0 173 84 384q79 190 204.5 306.5t304.5 162.5q138 36 362 36q500 0 1256 -164q193 203 523 600q393 469 564 732q17 17 41 17q52 0 123 -46q36 -22 51 -38t11 -30q-42 -129 -98.5 -297.5t-92.5 -279t-59 -186.5q-138 -448 -180 -693q166 -48 268 -48q53 0 78 12 t25 39q0 80 -106 172q-27 18 -27 38q-2 7 2 14t11 7q5 0 10 -2.5t7.5 -4.5t10 -7.5t8.5 -6.5q122 -107 162 -210q9 -23 -14 -44t-80 -43q-66 -23 -361 36q-75 -369 -75 -580q0 -113 22 -181q2 -4 19.5 -13t34 -18t14.5 -13q-5 -49 -64 -49q-21 0 -26 12q-52 107 -52 376 q0 214 32 482q-344 68 -779 171q-317 -331 -751 -637q-618 -436 -1036 -441q-202 -2 -314.5 114.5t-112.5 320.5zM201 427q0 -182 83 -288q103 -128 278 -123q426 9 997 417q344 242 707 613q-620 155 -1201 155q-227 0 -367 -33q-302 -69 -436 -414q-61 -160 -61 -327z M2398 1093q370 -111 730 -180q39 387 334 1291q6 32 6 41q0 52 -28 52q-21 0 -52 -31q-494 -654 -990 -1173zM3288 2650q0 45 74 120q73 77 120 87q35 7 66 -20.5t21 -57.5q-9 -55 -90 -126q-72 -68 -120 -59q-71 14 -71 56zM3740 2618q0 44 76 120q73 78 118 87 q11 2 23.5 0t23 -7t20 -13t15 -17.5t8 -19.5t-0.5 -20q-10 -54 -92 -127q-72 -67 -118 -58q-73 14 -73 55z" />
<glyph unicode="&#xc5;" d="M123 389q0 173 84 384q79 190 204.5 306.5t304.5 162.5q138 36 362 36q500 0 1256 -164q193 203 523 600q393 469 564 732q17 17 41 17q52 0 123 -46q36 -22 51 -38t11 -30q-42 -129 -98.5 -297.5t-92.5 -279t-59 -186.5q-138 -448 -180 -693q166 -48 268 -48q53 0 78 12 t25 39q0 80 -106 172q-27 18 -27 38q-2 7 2 14t11 7q5 0 10 -2.5t7.5 -4.5t10 -7.5t8.5 -6.5q122 -107 162 -210q9 -23 -14 -44t-80 -43q-66 -23 -361 36q-75 -369 -75 -580q0 -113 22 -181q2 -4 19.5 -13t34 -18t14.5 -13q-5 -49 -64 -49q-21 0 -26 12q-52 107 -52 376 q0 214 32 482q-344 68 -779 171q-317 -331 -751 -637q-618 -436 -1036 -441q-202 -2 -314.5 114.5t-112.5 320.5zM201 427q0 -182 83 -288q103 -128 278 -123q426 9 997 417q344 242 707 613q-620 155 -1201 155q-227 0 -367 -33q-302 -69 -436 -414q-61 -160 -61 -327z M2398 1093q370 -111 730 -180q39 387 334 1291q6 32 6 41q0 52 -28 52q-21 0 -52 -31q-494 -654 -990 -1173zM3459 2721q0 22 14 79q30 104 93 180q75 99 158 126q82 45 130 49q139 14 139 -136q0 -32 -16 -98q-40 -113 -120 -197q-98 -103 -207 -130q-19 -6 -59 -6 q-65 0 -98.5 34t-33.5 99zM3563 2773q0 -56 31 -84.5t72 -18.5q75 17 140 81t93 158q10 33 10 68q0 46 -21.5 70t-62.5 21q-78 -5 -136 -58q-104 -86 -123 -194q0 -6 -1.5 -20.5t-1.5 -22.5z" />
<glyph unicode="&#xc6;" horiz-adv-x="2501" d="M-87 9q0 27 10 56q64 148 172.5 337t204.5 339v19q-22 28 -22 88q0 69 55 106q31 26 87.5 60t100.5 54l7 6q284 391 562.5 706.5t498 500.5t347.5 214q4 0 12 1.5t13 1.5q43 0 92.5 -15t94 -42t74.5 -70t30 -93q0 -20 -10 -49l30 -15q129 222 164 241q9 2 26.5 6.5 t22.5 4.5q18 0 33.5 -4.5t29 -16.5t18.5 -31l19 -12q168 28 370 28q179 0 232 -25q37 -23 80 -79.5t43 -111.5q0 -30 -16 -62v3q-38 -48 -55 -52q0 13 12.5 42.5t12.5 64.5q0 70 -83 103q-88 30 -217 30q-134 0 -281.5 -28t-246.5 -70l-6 -6q-53 -53 -105.5 -124.5t-93 -137 t-87.5 -156t-75.5 -151t-72.5 -154.5t-64 -135l16 -22q68 3 239 3q250 0 339 -19q49 -9 49 -25q0 -11 -22 -11q-9 0 -19 3h-3q-78 24 -215 24q-73 0 -154 -6.5t-151 -16.5t-124 -23l-13 -10q-322 -704 -352 -1013v-3q0 -3 -2 -9.5t-2 -9.5q-4 -42 -4 -68q0 -46 17.5 -62 t83.5 -36q136 -41 352 -41q178 0 350.5 25t235.5 59h3q19 10 35 10q11 0 11 -7q0 -28 -58 -65q-80 -48 -334 -87t-478 -39q-19 0 -51 1.5t-47 1.5q-44 2 -78 36.5t-52.5 87t-28 108.5t-9.5 111v27q0 246 291 961l-16 22q-231 -12 -595 -114t-602 -220l-7 -3 q-107 -155 -208 -322t-191.5 -342t-143.5 -315q-10 -25 -17 -39t-13.5 -20t-12.5 -6q-16 0 -27 31t-11 71zM686 1152l19 -25q113 46 249 82.5t282 60t243.5 36t225.5 24.5q11 2 34.5 3.5t33.5 3.5l12 9q54 126 151 321q52 105 81 166.5t65.5 147t58.5 158.5t33 143v3 q0 4 1.5 13.5t1.5 14.5q0 117 -132 117q-69 0 -165 -43q-91 -40 -192 -112t-203 -168.5t-202.5 -204.5t-206 -238t-198 -251.5t-192.5 -260.5z" />
<glyph unicode="&#xc7;" horiz-adv-x="2591" d="M243 648q0 354 417 776q363 367 906 663q516 279 861 321q88 9 175 9q245 0 353 -98l41 43q4 16 23 10q16 -4 16 -23q0 -8 -42 -61q45 -57 45 -185q0 -129 -44.5 -240t-155.5 -239q-146 -168 -318 -265q-9 -5 -54 0q-52 10 -52 22q0 182 185 474q138 224 278 374 q-59 130 -321 130q-79 0 -161 -13q-549 -103 -1188 -580q-675 -509 -825 -1000q-23 -83 -23 -158q0 -239 203 -388q237 -171 667 -162q492 10 1016 223q485 194 784 469q18 23 35 23q14 0 14 -16q0 -11 -24 -35q-296 -301 -802 -515q-553 -229 -1026 -220l-145 10 q-39 -26 -78 -84q-7 -5 -9.5 -13.5t2.5 -17.5t20 -12q18 -5 39.5 -16t45 -32t38 -46t14 -60.5t-22.5 -74.5q-22 -38 -87 -84t-151 -80.5t-157 -38.5q-35 -3 -39 16q-4 16 21 23l8 2q56 1 121 31t114 71.5t69 78.5q36 59 1 107t-125 72q-46 14 -22 38q87 87 146 126 q-268 33 -476 161q-310 189 -310 484zM2498 1446q-5 -23 6 -29q13 -8 30 0q250 165 353 414q41 98 41 201q0 89 -32 145q-137 -143 -243 -346q-114 -219 -155 -385z" />
<glyph unicode="&#xc8;" horiz-adv-x="2655" d="M488 1093q-7 249 106 435t360 349q76 51 155.5 93t162.5 74t163.5 57t174 43.5t177 32t189 23.5t193.5 16.5t206 12.5q72 78 113 108q13 8 19.5 6t13.5 -11.5t11 -23t12 -28.5t17.5 -27.5t26.5 -21t40 -8.5q389 -4 796 -74q32 -10 51.5 -33.5t19.5 -53.5q3 -26 -13.5 -38 t-40.5 -11t-50 9q-151 29 -442 53t-500 22q-185 -181 -370 -420t-347 -492q260 21 585 23.5t576 -14.5q12 -1 22 -6t15 -10.5t8 -12.5t1 -13t-7 -11t-15.5 -8t-23.5 -3q-279 -3 -683.5 -35t-575.5 -76q-45 -79 -74 -133t-72.5 -147t-69.5 -170t-46.5 -174.5t-22.5 -187.5 q-1 -68 22.5 -121t62 -85t90.5 -51t106 -24t111 0q215 18 511.5 105t526.5 219q23 10 33 4t7.5 -21t-16.5 -23q-152 -120 -345 -209.5t-377 -132.5t-343 -43q-26 0 -60 5t-78.5 17.5t-88.5 32t-88 51t-78.5 70.5t-58.5 95t-30 120q-7 85 13.5 195.5t57 214.5t78 194.5 t80.5 152.5q-23 0 -38.5 1.5t-34 9.5t-26.5 22q-16 9 -31.5 30.5t-21 47t15.5 46.5q11 11 42 19t64 11.5t72 9.5t59 12q341 513 673 915q-113 0 -234 -10.5t-257 -34t-264.5 -59t-258 -89.5t-235.5 -122q-90 -57 -165 -127.5t-135.5 -156t-97 -189t-43.5 -216.5 q-21 -299 185 -627q13 -24 9.5 -38.5t-21.5 -11.5t-33 25q-92 130 -154 306t-67 346zM2624 2844q0 34 18.5 52.5t52.5 18.5q19 0 32 -13q255 -238 398 -376q10 -7 12.5 -12.5t-1.5 -15.5q-17 -9 -30 0q-67 44 -234.5 158.5t-228.5 155.5q-19 13 -19 32z" />
<glyph unicode="&#xc9;" horiz-adv-x="2655" d="M488 1093q-7 249 106 435t360 349q76 51 155.5 93t162.5 74t163.5 57t174 43.5t177 32t189 23.5t193.5 16.5t206 12.5q72 78 113 108q13 8 19.5 6t13.5 -11.5t11 -23t12 -28.5t17.5 -27.5t26.5 -21t40 -8.5q389 -4 796 -74q32 -10 51.5 -33.5t19.5 -53.5q3 -26 -13.5 -38 t-40.5 -11t-50 9q-151 29 -442 53t-500 22q-185 -181 -370 -420t-347 -492q260 21 585 23.5t576 -14.5q12 -1 22 -6t15 -10.5t8 -12.5t1 -13t-7 -11t-15.5 -8t-23.5 -3q-279 -3 -683.5 -35t-575.5 -76q-45 -79 -74 -133t-72.5 -147t-69.5 -170t-46.5 -174.5t-22.5 -187.5 q-1 -68 22.5 -121t62 -85t90.5 -51t106 -24t111 0q215 18 511.5 105t526.5 219q23 10 33 4t7.5 -21t-16.5 -23q-152 -120 -345 -209.5t-377 -132.5t-343 -43q-26 0 -60 5t-78.5 17.5t-88.5 32t-88 51t-78.5 70.5t-58.5 95t-30 120q-7 85 13.5 195.5t57 214.5t78 194.5 t80.5 152.5q-23 0 -38.5 1.5t-34 9.5t-26.5 22q-16 9 -31.5 30.5t-21 47t15.5 46.5q11 11 42 19t64 11.5t72 9.5t59 12q341 513 673 915q-113 0 -234 -10.5t-257 -34t-264.5 -59t-258 -89.5t-235.5 -122q-90 -57 -165 -127.5t-135.5 -156t-97 -189t-43.5 -216.5 q-21 -299 185 -627q13 -24 9.5 -38.5t-21.5 -11.5t-33 25q-92 130 -154 306t-67 346zM2877 2514q-12 18 3 33q27 18 239 216q2 3 7 7q112 102 155 139t51 39q14 4 25 2.5t19.5 -8t15.5 -19t11 -30.5q11 -32 -19 -52q-304 -200 -475 -327q-21 -11 -32 0z" />
<glyph unicode="&#xca;" horiz-adv-x="2655" d="M488 1093q-7 249 106 435t360 349q76 51 155.5 93t162.5 74t163.5 57t174 43.5t177 32t189 23.5t193.5 16.5t206 12.5q72 78 113 108q13 8 19.5 6t13.5 -11.5t11 -23t12 -28.5t17.5 -27.5t26.5 -21t40 -8.5q389 -4 796 -74q32 -10 51.5 -33.5t19.5 -53.5q3 -26 -13.5 -38 t-40.5 -11t-50 9q-151 29 -442 53t-500 22q-185 -181 -370 -420t-347 -492q260 21 585 23.5t576 -14.5q12 -1 22 -6t15 -10.5t8 -12.5t1 -13t-7 -11t-15.5 -8t-23.5 -3q-279 -3 -683.5 -35t-575.5 -76q-45 -79 -74 -133t-72.5 -147t-69.5 -170t-46.5 -174.5t-22.5 -187.5 q-1 -68 22.5 -121t62 -85t90.5 -51t106 -24t111 0q215 18 511.5 105t526.5 219q23 10 33 4t7.5 -21t-16.5 -23q-152 -120 -345 -209.5t-377 -132.5t-343 -43q-26 0 -60 5t-78.5 17.5t-88.5 32t-88 51t-78.5 70.5t-58.5 95t-30 120q-7 85 13.5 195.5t57 214.5t78 194.5 t80.5 152.5q-23 0 -38.5 1.5t-34 9.5t-26.5 22q-16 9 -31.5 30.5t-21 47t15.5 46.5q11 11 42 19t64 11.5t72 9.5t59 12q341 513 673 915q-113 0 -234 -10.5t-257 -34t-264.5 -59t-258 -89.5t-235.5 -122q-90 -57 -165 -127.5t-135.5 -156t-97 -189t-43.5 -216.5 q-21 -299 185 -627q13 -24 9.5 -38.5t-21.5 -11.5t-33 25q-92 130 -154 306t-67 346zM2718 2523q5 20 20 40q43 22 261 200q28 22 61 47.5t50 38.5t33.5 25.5t23 16.5t7.5 2q20 -15 191 -346q10 -24 10 -33q-2 -7 -5 -12t-5.5 -7t-5.5 -4t-3 -3q-15 -5 -24 16 q-71 104 -99 139l-16.5 16.5t-15 15.5t-13 13t-12 11.5t-10.5 9.5t-10 7.5t-8.5 4.5t-8.5 2.5t-7 0.5q-158 -65 -384 -210q-19 -17 -27 -14.5t-3 23.5z" />
<glyph unicode="&#xcb;" horiz-adv-x="2655" d="M488 1093q-7 249 106 435t360 349q76 51 155.5 93t162.5 74t163.5 57t174 43.5t177 32t189 23.5t193.5 16.5t206 12.5q72 78 113 108q13 8 19.5 6t13.5 -11.5t11 -23t12 -28.5t17.5 -27.5t26.5 -21t40 -8.5q389 -4 796 -74q32 -10 51.5 -33.5t19.5 -53.5q3 -26 -13.5 -38 t-40.5 -11t-50 9q-151 29 -442 53t-500 22q-185 -181 -370 -420t-347 -492q260 21 585 23.5t576 -14.5q12 -1 22 -6t15 -10.5t8 -12.5t1 -13t-7 -11t-15.5 -8t-23.5 -3q-279 -3 -683.5 -35t-575.5 -76q-45 -79 -74 -133t-72.5 -147t-69.5 -170t-46.5 -174.5t-22.5 -187.5 q-1 -68 22.5 -121t62 -85t90.5 -51t106 -24t111 0q215 18 511.5 105t526.5 219q23 10 33 4t7.5 -21t-16.5 -23q-152 -120 -345 -209.5t-377 -132.5t-343 -43q-26 0 -60 5t-78.5 17.5t-88.5 32t-88 51t-78.5 70.5t-58.5 95t-30 120q-7 85 13.5 195.5t57 214.5t78 194.5 t80.5 152.5q-23 0 -38.5 1.5t-34 9.5t-26.5 22q-16 9 -31.5 30.5t-21 47t15.5 46.5q11 11 42 19t64 11.5t72 9.5t59 12q341 513 673 915q-113 0 -234 -10.5t-257 -34t-264.5 -59t-258 -89.5t-235.5 -122q-90 -57 -165 -127.5t-135.5 -156t-97 -189t-43.5 -216.5 q-21 -299 185 -627q13 -24 9.5 -38.5t-21.5 -11.5t-33 25q-92 130 -154 306t-67 346zM2767 2553q0 46 74 120q73 78 120 87q34 7 65 -20.5t22 -56.5q-10 -55 -90 -127q-73 -68 -120 -58q-71 14 -71 55zM3220 2520q0 46 74 120q73 78 120 87q35 7 66 -20.5t21 -56.5 q-9 -55 -90 -127q-71 -66 -120 -57q-71 14 -71 54z" />
<glyph unicode="&#xcc;" horiz-adv-x="1545" d="M130 259q-9 27 10 35q18 8 28 -12q3 -4 4 -10q14 -51 47.5 -99.5t74.5 -82.5q55 -45 147.5 -55.5t204.5 19.5t212 98q113 77 233 200t229.5 267.5t221 317.5t208 345t190 355.5t167 344t138.5 315.5q-381 -70 -750.5 -229.5t-614.5 -350.5q-49 -38 -84 -69.5t-75.5 -77.5 t-67.5 -100.5t-38 -113.5q-18 -96 36 -217q7 -17 -2.5 -25t-21.5 6q-29 36 -48.5 103t-22.5 129q-4 108 63 212t203 218q221 189 622 360t844 269q48 10 71 38q15 14 33 11.5t33 -12.5t22.5 -26.5t1.5 -30.5q-90 -195 -176.5 -371.5t-194.5 -378.5t-212 -377t-225.5 -353.5 t-239 -322t-248 -268.5t-257.5 -206q-179 -114 -371.5 -133t-301.5 68q-59 47 -93 210zM2003 2909q0 34 18.5 52.5t53.5 18.5q19 0 31 -13q255 -238 398 -376q10 -7 12 -13t-2 -15q-16 -8 -29 0q-51 34 -121.5 82t-169.5 115.5t-172 116.5q-19 13 -19 32z" />
<glyph unicode="&#xcd;" horiz-adv-x="1545" d="M130 259q-9 27 10 35q18 8 28 -12q3 -4 4 -10q14 -51 47.5 -99.5t74.5 -82.5q55 -45 147.5 -55.5t204.5 19.5t212 98q113 77 233 200t229.5 267.5t221 317.5t208 345t190 355.5t167 344t138.5 315.5q-381 -70 -750.5 -229.5t-614.5 -350.5q-49 -38 -84 -69.5t-75.5 -77.5 t-67.5 -100.5t-38 -113.5q-18 -96 36 -217q7 -17 -2.5 -25t-21.5 6q-29 36 -48.5 103t-22.5 129q-4 108 63 212t203 218q221 189 622 360t844 269q48 10 71 38q15 14 33 11.5t33 -12.5t22.5 -26.5t1.5 -30.5q-90 -195 -176.5 -371.5t-194.5 -378.5t-212 -377t-225.5 -353.5 t-239 -322t-248 -268.5t-257.5 -206q-179 -114 -371.5 -133t-301.5 68q-59 47 -93 210zM2255 2579q-12 17 4 33q27 17 239 216l7 7q60 54 86.5 77.5t58 51.5t44.5 38t17 11q28 7 45 -6t26 -49q11 -33 -19 -52q-304 -200 -475 -327q-22 -11 -33 0z" />
<glyph unicode="&#xce;" horiz-adv-x="1545" d="M130 259q-9 27 10 35q18 8 28 -12q3 -4 4 -10q14 -51 47.5 -99.5t74.5 -82.5q55 -45 147.5 -55.5t204.5 19.5t212 98q113 77 233 200t229.5 267.5t221 317.5t208 345t190 355.5t167 344t138.5 315.5q-381 -70 -750.5 -229.5t-614.5 -350.5q-49 -38 -84 -69.5t-75.5 -77.5 t-67.5 -100.5t-38 -113.5q-18 -96 36 -217q7 -17 -2.5 -25t-21.5 6q-29 36 -48.5 103t-22.5 129q-4 108 63 212t203 218q221 189 622 360t844 269q48 10 71 38q15 14 33 11.5t33 -12.5t22.5 -26.5t1.5 -30.5q-90 -195 -176.5 -371.5t-194.5 -378.5t-212 -377t-225.5 -353.5 t-239 -322t-248 -268.5t-257.5 -206q-179 -114 -371.5 -133t-301.5 68q-59 47 -93 210zM2065 2588q6 23 19 40q47 24 262 200l36 28l31.5 24.5t27.5 21.5t23.5 18t19.5 15t15 11.5t11 7.5t7 4h3q20 -15 191 -346q10 -24 10 -33q-2 -7 -5.5 -12t-5.5 -7t-5 -4t-3 -3 q-14 -4 -22 16q-61 89 -101 139l-21 21l-18.5 18.5l-15 15t-13.5 12.5t-11.5 8t-11 5t-9.5 1q-162 -67 -385 -210q-38 -34 -29 9z" />
<glyph unicode="&#xcf;" horiz-adv-x="1545" d="M130 259q-9 27 10 35q18 8 28 -12q3 -4 4 -10q14 -51 47.5 -99.5t74.5 -82.5q55 -45 147.5 -55.5t204.5 19.5t212 98q113 77 233 200t229.5 267.5t221 317.5t208 345t190 355.5t167 344t138.5 315.5q-381 -70 -750.5 -229.5t-614.5 -350.5q-49 -38 -84 -69.5t-75.5 -77.5 t-67.5 -100.5t-38 -113.5q-18 -96 36 -217q7 -17 -2.5 -25t-21.5 6q-29 36 -48.5 103t-22.5 129q-4 108 63 212t203 218q221 189 622 360t844 269q48 10 71 38q15 14 33 11.5t33 -12.5t22.5 -26.5t1.5 -30.5q-90 -195 -176.5 -371.5t-194.5 -378.5t-212 -377t-225.5 -353.5 t-239 -322t-248 -268.5t-257.5 -206q-179 -114 -371.5 -133t-301.5 68q-59 47 -93 210zM2081 2618q0 46 74 120q73 78 120 87q22 5 45 -6.5t35.5 -31.5t6.5 -39q-9 -56 -90 -127q-73 -68 -120 -58q-71 14 -71 55zM2534 2585q0 46 75 120q73 78 118 87q35 7 66.5 -20.5 t22.5 -57.5q-10 -53 -92 -126q-71 -66 -119 -57q-71 14 -71 54z" />
<glyph unicode="&#xd0;" horiz-adv-x="1769" d="M-0.5 403.5q19.5 34.5 55.5 41t65 -21.5q2 -4 3.5 -8.5t1.5 -5.5t1.5 -3t2.5 -1.5t4.5 -1.5t7.5 -3.5t12.5 -6t18.5 -11.5q6 0 13.5 -4t10.5 -3t5 11q145 362 379 853q-90 27 -130 20q-106 -16 -243 -117q-50 -43 -51 -27t42 56q29 29 60 57.5t71 61.5t78 56t65 29 q8 1 16.5 1t16 -0.5t18.5 -3t18 -4t21 -5.5t20.5 -6t22.5 -7t22 -7v-3h3v3h-3q117 242 186 382.5t161 315t156 275.5q103 159 248 289q49 43 74 35q22 -7 -10 -49l-22 -25l-9 -15t-4.5 -8.5t2 -5t6.5 -2.5t12 -2t16 -2q44 5 84.5 -4.5t99.5 -44.5q69 -59 129.5 -151.5 t110.5 -213t78.5 -271.5t34.5 -317t-22 -359.5t-90 -388.5q-32 -97 -81.5 -191t-126 -191t-169 -175t-217.5 -138.5t-264 -85.5q-63 -11 -125.5 -14t-113.5 -1t-110.5 13.5t-99.5 21t-97 29t-87 31t-85 33.5q-12 5 -17 7q-6 9 -16.5 7.5t-38.5 -13.5q-23 -17 -53 -20 t-50.5 5t-20.5 21q-1 15 0 22t3.5 10t5.5 5t7.5 10.5t7.5 23.5q-4 7 -6 13.5t-2 10.5t1 8.5t1 5.5q-41 31 -62 53.5t-46 57.5q-26 29 -6.5 63.5zM319 282.5q2 -2.5 18 -10.5q61 -51 180.5 -92.5t264 -56.5t280.5 19q74 20 142.5 52t122.5 70t105 87t88.5 95.5t74 103 t61.5 101.5t52 99q73 146 115 306t50.5 307.5t-3.5 292t-44.5 266.5t-76 222t-95.5 167t-104 94q-137 72 -311 -108q-131 -189 -246 -415t-271 -569q27 -8 45 -11.5t39.5 -3.5t38.5 6q76 6 116 25.5t91 65.5q45 42 54 30q8 -12 -27 -49l-5 -5q-3 -3 -24.5 -23.5t-30.5 -29 t-31 -28t-35 -30t-34 -26.5t-36 -24.5t-32.5 -16.5t-32.5 -11l-145 25q-192 -445 -352 -910q-4 -12 -2 -14.5z" />
<glyph unicode="&#xd1;" horiz-adv-x="1730" d="M-967 1065q9 208 313 531q302 326 682 546q421 244 704 230q66 -3 123 -37.5t99 -95.5q75 -108 75 -275q0 -72 -16 -149q-93 -362 -599 -1207q-22 -33 -22 -58q0 -13 12 -13q9 0 23.5 13t29.5 39q252 321 646 705q521 512 809 561q42 6 72.5 -13.5t74.5 -68.5 q20 -23 32.5 -45t17.5 -46t6 -39t1 -42v-12q0 -47 -10 -71q-57 -106 -217 -397.5t-246 -453.5q-72 -135 -181 -365t-229 -510t-219 -537t-150.5 -457t-22.5 -258q3 -7 2.5 -17t-2.5 -17t-4.5 -17t-2.5 -17q0 -96 52 -96q135 0 473 333q38 38 49 38q0 -1 2 -2l2 -2t1.5 -3 t0.5 -6q0 -12 -28 -55q-57 -92 -215 -219q-172 -136 -258 -136q-42 0 -77.5 37t-53 88t-16.5 97q3 61 60.5 257.5t146 454.5t186.5 527t193 505t155 358l470 951q36 70 36 123q0 36 -18.5 52t-55.5 16q-45 0 -117 -30q-305 -128 -695 -501q-315 -296 -642 -709 q-129 -165 -218 -285.5t-141 -202.5q-31 -53 -80 -53q-12 0 -22 5.5t-15.5 13.5t-5.5 18t16 47q788 1296 926 1735q31 113 31 194q0 138 -58 208t-177 80q-233 15 -627 -213q-401 -228 -697 -534q-159 -164 -240.5 -310t-81.5 -265q0 -44 22 -71t61 -34q108 -21 195 -3 q38 5 38 -13q0 -16 -38 -26q-112 -34 -195 -19q-155 27 -145 243zM1343 2374.5q0 6.5 22 39.5q141 136 207 136q31 0 166 -58q119 -52 180 -52q111 0 163 52q25 19 35 19q4 0 7.5 -3.5t3.5 -6.5t-2 -7.5t-3.5 -7t-5.5 -9.5t-7 -11q-123 -123 -191 -123q-50 0 -171 52 q-125 57 -175 57q-73 0 -148 -41l-75 -43q-6 0 -6 6.5z" />
<glyph unicode="&#xd2;" horiz-adv-x="2755" d="M356 750q0 131 39 282q82 313 386 611q-15 48 -15 95q0 187 169 384q197 231 501 354q283 115 612 115q127 0 243 -19q376 -59 602 -385q188 -273 188 -556q0 -37 -6 -81q-69 -475 -408 -864q-278 -323 -728 -531q-395 -184 -757 -164q-335 14 -564 200 q-262 213 -262 559zM411 760q0 -148 53 -269.5t151.5 -207t242.5 -135.5t324 -58q382 -19 815 207q447 238 721 583q311 385 311 770q0 310 -182 545q-202 255 -599 316q-82 12 -186 12q-319 0 -623 -125q-289 -115 -466 -301q-155 -165 -155 -327q0 -34 7 -65 q229 229 605 407q428 207 793 207q87 0 185 -15q32 -5 32 -22t-8 -22t-27 -1q-83 19 -182 19q-385 0 -858 -249q-410 -212 -534 -392q14 -108 133 -201q113 -90 253 -90q36 0 36 -22q0 -8 -6.5 -14.5t-18 -9.5t-27.5 0q-141 5 -262 98q-114 86 -149 195q-103 -93 -201 -253 q-114 -196 -142 -311q-36 -134 -36 -269zM2090 3007q0 23 8.5 38.5t24.5 24t38 8.5q19 0 34 -14q257 -241 396 -375q19 -14 11 -30q-17 -8 -30 0q-67 45 -234.5 159t-228.5 156q-19 12 -19 33z" />
<glyph unicode="&#xd3;" horiz-adv-x="2755" d="M356 750q0 131 39 282q82 313 386 611q-15 48 -15 95q0 187 169 384q197 231 501 354q283 115 612 115q127 0 243 -19q376 -59 602 -385q188 -273 188 -556q0 -37 -6 -81q-69 -475 -408 -864q-278 -323 -728 -531q-395 -184 -757 -164q-335 14 -564 200 q-262 213 -262 559zM411 760q0 -148 53 -269.5t151.5 -207t242.5 -135.5t324 -58q382 -19 815 207q447 238 721 583q311 385 311 770q0 310 -182 545q-202 255 -599 316q-82 12 -186 12q-319 0 -623 -125q-289 -115 -466 -301q-155 -165 -155 -327q0 -34 7 -65 q229 229 605 407q428 207 793 207q87 0 185 -15q32 -5 32 -22t-8 -22t-27 -1q-83 19 -182 19q-385 0 -858 -249q-410 -212 -534 -392q14 -108 133 -201q113 -90 253 -90q36 0 36 -22q0 -8 -6.5 -14.5t-18 -9.5t-27.5 0q-141 5 -262 98q-114 86 -149 195q-103 -93 -201 -253 q-114 -196 -142 -311q-36 -134 -36 -269zM2116 2677q-12 17 3 31q32 22 240 217q2 2 7 6q112 102 155 139t51 39q18 5 32 1t23.5 -17.5t15.5 -38.5q11 -31 -19 -50q-304 -200 -475 -327q-22 -12 -33 0z" />
<glyph unicode="&#xd4;" horiz-adv-x="2755" d="M356 750q0 131 39 282q82 313 386 611q-15 48 -15 95q0 187 169 384q197 231 501 354q283 115 612 115q127 0 243 -19q376 -59 602 -385q188 -273 188 -556q0 -37 -6 -81q-69 -475 -408 -864q-278 -323 -728 -531q-395 -184 -757 -164q-335 14 -564 200 q-262 213 -262 559zM411 760q0 -148 53 -269.5t151.5 -207t242.5 -135.5t324 -58q382 -19 815 207q447 238 721 583q311 385 311 770q0 310 -182 545q-202 255 -599 316q-82 12 -186 12q-319 0 -623 -125q-289 -115 -466 -301q-155 -165 -155 -327q0 -34 7 -65 q229 229 605 407q428 207 793 207q87 0 185 -15q32 -5 32 -22t-8 -22t-27 -1q-83 19 -182 19q-385 0 -858 -249q-410 -212 -534 -392q14 -108 133 -201q113 -90 253 -90q36 0 36 -22q0 -8 -6.5 -14.5t-18 -9.5t-27.5 0q-141 5 -262 98q-114 86 -149 195q-103 -93 -201 -253 q-114 -196 -142 -311q-36 -134 -36 -269zM2022 2686q6 21 19 38q47 24 263 201q28 21 60.5 46.5t49.5 38.5t33.5 25.5t23.5 16.5t8 2q20 -15 191 -346q10 -24 10 -31q-3 -7 -6 -12t-5.5 -7.5t-5.5 -5t-4 -2.5q-13 -5 -22 17q-72 104 -100 139q-6 7 -15.5 16.5l-15 15l-13 13 t-12.5 11.5t-10.5 9t-9.5 7.5t-8.5 5t-8.5 3t-8 0.5q-161 -67 -385 -210q-38 -34 -29 9z" />
<glyph unicode="&#xd5;" horiz-adv-x="2755" d="M356 750q0 131 39 282q82 313 386 611q-15 48 -15 95q0 187 169 384q197 231 501 354q283 115 612 115q127 0 243 -19q376 -59 602 -385q188 -273 188 -556q0 -37 -6 -81q-69 -475 -408 -864q-278 -323 -728 -531q-395 -184 -757 -164q-335 14 -564 200 q-262 213 -262 559zM411 760q0 -148 53 -269.5t151.5 -207t242.5 -135.5t324 -58q382 -19 815 207q447 238 721 583q311 385 311 770q0 310 -182 545q-202 255 -599 316q-82 12 -186 12q-319 0 -623 -125q-289 -115 -466 -301q-155 -165 -155 -327q0 -34 7 -65 q229 229 605 407q428 207 793 207q87 0 185 -15q32 -5 32 -22t-8 -22t-27 -1q-83 19 -182 19q-385 0 -858 -249q-410 -212 -534 -392q14 -108 133 -201q113 -90 253 -90q36 0 36 -22q0 -8 -6.5 -14.5t-18 -9.5t-27.5 0q-141 5 -262 98q-114 86 -149 195q-103 -93 -201 -253 q-114 -196 -142 -311q-36 -134 -36 -269zM1958 2698.5q0 6.5 22 39.5q141 136 207 136q31 0 166 -58q118 -53 181 -53q109 0 161 53q26 19 37 19q3 0 5 -2t3 -4t1 -4q0 -7 -17 -36q-122 -122 -190 -122q-55 0 -172 51q-129 58 -175 58q-73 0 -149 -41l-74 -43q-6 0 -6 6.5z " />
<glyph unicode="&#xd6;" horiz-adv-x="2755" d="M356 750q0 131 39 282q82 313 386 611q-15 48 -15 95q0 187 169 384q197 231 501 354q283 115 612 115q127 0 243 -19q376 -59 602 -385q188 -273 188 -556q0 -37 -6 -81q-69 -475 -408 -864q-278 -323 -728 -531q-395 -184 -757 -164q-335 14 -564 200 q-262 213 -262 559zM411 760q0 -148 53 -269.5t151.5 -207t242.5 -135.5t324 -58q382 -19 815 207q447 238 721 583q311 385 311 770q0 310 -182 545q-202 255 -599 316q-82 12 -186 12q-319 0 -623 -125q-289 -115 -466 -301q-155 -165 -155 -327q0 -34 7 -65 q229 229 605 407q428 207 793 207q87 0 185 -15q32 -5 32 -22t-8 -22t-27 -1q-83 19 -182 19q-385 0 -858 -249q-410 -212 -534 -392q14 -108 133 -201q113 -90 253 -90q36 0 36 -22q0 -8 -6.5 -14.5t-18 -9.5t-27.5 0q-141 5 -262 98q-114 86 -149 195q-103 -93 -201 -253 q-114 -196 -142 -311q-36 -134 -36 -269zM1942 2748q0 45 74 120q73 77 120 87q35 7 66 -20.5t21 -57.5q-10 -55 -90 -126q-73 -68 -120 -59q-71 14 -71 56zM2395 2714q0 46 75 121q73 77 118 86q35 8 66.5 -19.5t22.5 -57.5q-10 -53 -92 -126q-72 -68 -119 -59 q-71 14 -71 55z" />
<glyph unicode="&#xd7;" horiz-adv-x="1979" d="M23.5 544q-3.5 41 19.5 86q39 81 165.5 218.5t264 264t277.5 243.5q-31 128 -44 269t-1 222q5 38 46 62q43 26 66 3q15 -15 14 -48q-5 -81 6.5 -211t29.5 -210q403 292 606 401q31 14 46.5 2.5t12 -36.5t-24.5 -34q-114 -68 -295 -188.5t-326 -228.5q35 -223 152 -468 t247 -366q75 -71 155 -113.5t151 -53t134.5 2t112 48t77.5 89.5q8 13 20 15t16.5 -8t-3.5 -29q-48 -79 -120.5 -120.5t-150 -45.5t-160 16t-155 58.5t-130.5 87.5q-109 96 -201 229.5t-155 274.5t-107 296q-119 -84 -329.5 -283t-335.5 -359q-17 -22 -28.5 -49t-11.5 -52.5 t17 -33.5q31 -23 58 -23q28 -2 29 -20q-5 -16 -23 -19q-28 0 -74 8q-16 7 -30 34.5t-17.5 68.5z" />
<glyph unicode="&#xd8;" horiz-adv-x="2578" d="M650.5 681q-7.5 109 8 208.5t45.5 194t74.5 179.5t91 154t97.5 127q9 9 13 20t-4 22q-76 59 -129 120t-82.5 125.5t-25.5 131t45 127.5q37 57 131.5 104.5t222 78t285.5 42.5t317.5 4.5t323.5 -42.5t298 -93q146 -66 250 -162q68 61 238 195q33 28 71.5 28t42.5 -28 q2 -12 -7.5 -28.5t-28.5 -30.5q-157 -126 -248 -207q221 -260 151 -651q-21 -121 -87 -254.5t-162.5 -260.5t-225 -247t-269 -215.5t-300.5 -164.5t-314 -96q-131 -25 -259.5 -7.5t-237.5 75.5q-118 -190 -128 -297q-2 -35 -10.5 -55.5t-19.5 -20.5q-11 17 -25 88 q-5 53 27 129.5t103 189.5q-162 101 -231 305q-34 103 -41.5 212zM820.5 856.5q-7.5 -93.5 7.5 -194.5t52 -196q39 -106 123 -185q231 321 579 703q543 600 952 967q-103 93 -185 136q-112 60 -265 98t-307.5 51t-310.5 5.5t-280 -33.5t-210 -72t-105 -104 q-14 -39 -9.5 -80.5t18.5 -79.5t39.5 -76.5t54 -70.5t61.5 -61q13 -16 23 -16t23 13q110 99 257 172t290.5 98t258.5 -13q50 -18 55.5 -42t-24 -40t-71.5 -14q-31 1 -64 17t-61.5 30t-51.5 11q-83 -11 -171 -47t-156 -81.5t-117.5 -88t-73.5 -74.5q-7 -14 -6.5 -20t9.5 -13 q29 -24 73 -53t81 -49.5t62 -33.5q73 -39 67 -50q-5 -10 -70 8q-39 11 -118 46.5t-144 70.5q-17 7 -23 6.5t-15 -9.5q-46 -59 -86.5 -128t-76 -151t-56.5 -172.5t-28.5 -184zM1055 243q59 -37 129 -57t143 -22.5t130.5 1.5t124.5 14q105 16 225.5 66t240.5 126t235.5 180 t210.5 221t165.5 256t100.5 279q32 147 -12.5 298.5t-148.5 274.5q-440 -390 -938 -926q-346 -366 -606 -711z" />
<glyph unicode="&#xd9;" horiz-adv-x="2121" d="M-809 1349q0 125 55 237q169 349 599 621q466 298 924 278q121 -4 247 -145q122 -136 117 -259q-10 -244 -204 -618q-2 -3 -42.5 -75.5t-131 -232t-196.5 -343.5q-229 -398 -268 -596q-10 -28 -10 -55q0 -90 92 -90q38 0 96 25q144 66 385.5 236t565.5 441 q403 329 849 719q26 21 55 52t73.5 81t72.5 80q15 20 41 20q30 0 49 -25t12 -57q-23 -89 -35 -125q-146 -198 -407 -709q-144 -282 -231 -483.5t-120 -322.5q14 -33 14 -129q-2 -21 -13.5 -33.5t-25.5 -12.5q-32 0 -37 55q0 113 24 210q47 182 278 691q72 158 134.5 296.5 t88.5 196.5t27 60q29 83 -3 83q-22 0 -43 -25q-338 -317 -861 -735q-728 -582 -976 -660q-19 -6 -40 -6q-52 0 -99 31t-72.5 84.5t-16.5 113.5q33 232 275 635q52 86 131 216t150.5 248.5t130.5 217.5q107 183 160.5 331.5t53.5 250.5q0 94 -71 185q-39 48 -95.5 75 t-123.5 32q-387 29 -827 -243q-425 -259 -628 -621q-55 -100 -55 -237q0 -207 201 -340q25 -12 25 -31q0 -13 -19 -13q-14 0 -35 13q-183 141 -218 252q-22 73 -22 155zM1643 2683q0 34 18.5 52.5t52.5 18.5q21 0 33 -13q255 -238 399 -376q9 -7 11.5 -12.5t-2.5 -15.5 q-16 -8 -28 0q-58 38 -463 313q-21 13 -21 33z" />
<glyph unicode="&#xda;" horiz-adv-x="2121" d="M-809 1349q0 125 55 237q169 349 599 621q466 298 924 278q121 -4 247 -145q122 -136 117 -259q-10 -244 -204 -618q-2 -3 -42.5 -75.5t-131 -232t-196.5 -343.5q-229 -398 -268 -596q-10 -28 -10 -55q0 -90 92 -90q38 0 96 25q144 66 385.5 236t565.5 441 q403 329 849 719q26 21 55 52t73.5 81t72.5 80q15 20 41 20q30 0 49 -25t12 -57q-23 -89 -35 -125q-146 -198 -407 -709q-144 -282 -231 -483.5t-120 -322.5q14 -33 14 -129q-2 -21 -13.5 -33.5t-25.5 -12.5q-32 0 -37 55q0 113 24 210q47 182 278 691q72 158 134.5 296.5 t88.5 196.5t27 60q29 83 -3 83q-22 0 -43 -25q-338 -317 -861 -735q-728 -582 -976 -660q-19 -6 -40 -6q-52 0 -99 31t-72.5 84.5t-16.5 113.5q33 232 275 635q52 86 131 216t150.5 248.5t130.5 217.5q107 183 160.5 331.5t53.5 250.5q0 94 -71 185q-39 48 -95.5 75 t-123.5 32q-387 29 -827 -243q-425 -259 -628 -621q-55 -100 -55 -237q0 -207 201 -340q25 -12 25 -31q0 -13 -19 -13q-14 0 -35 13q-183 141 -218 252q-22 73 -22 155zM1899 2353q-11 17 3 31q27 18 240 218q199 180 214 184q28 7 45 -5.5t26 -48.5q11 -32 -19 -52 q-304 -200 -476 -327q-22 -11 -33 0z" />
<glyph unicode="&#xdb;" horiz-adv-x="2121" d="M-809 1349q0 125 55 237q169 349 599 621q466 298 924 278q121 -4 247 -145q122 -136 117 -259q-10 -244 -204 -618q-2 -3 -42.5 -75.5t-131 -232t-196.5 -343.5q-229 -398 -268 -596q-10 -28 -10 -55q0 -90 92 -90q38 0 96 25q144 66 385.5 236t565.5 441 q403 329 849 719q26 21 55 52t73.5 81t72.5 80q15 20 41 20q30 0 49 -25t12 -57q-23 -89 -35 -125q-146 -198 -407 -709q-144 -282 -231 -483.5t-120 -322.5q14 -33 14 -129q-2 -21 -13.5 -33.5t-25.5 -12.5q-32 0 -37 55q0 113 24 210q47 182 278 691q72 158 134.5 296.5 t88.5 196.5t27 60q29 83 -3 83q-22 0 -43 -25q-338 -317 -861 -735q-728 -582 -976 -660q-19 -6 -40 -6q-52 0 -99 31t-72.5 84.5t-16.5 113.5q33 232 275 635q52 86 131 216t150.5 248.5t130.5 217.5q107 183 160.5 331.5t53.5 250.5q0 94 -71 185q-39 48 -95.5 75 t-123.5 32q-387 29 -827 -243q-425 -259 -628 -621q-55 -100 -55 -237q0 -207 201 -340q25 -12 25 -31q0 -13 -19 -13q-14 0 -35 13q-183 141 -218 252q-22 73 -22 155zM1612 2362q5 23 19 40q47 24 262 200q28 22 61 47.5t50 38.5t33.5 25.5t23 16.5t7.5 2q19 -14 191 -348 q10 -23 10 -31q-3 -9 -7 -14t-9 -8.5l-5 -3.5q-14 -4 -22 16q-71 104 -99 139l-16.5 16.5l-15 15l-13 13l-12 12t-10.5 9t-10 7t-8.5 5t-8.5 3t-7 0.5q-162 -67 -386 -210q-38 -34 -28 9z" />
<glyph unicode="&#xdc;" horiz-adv-x="2121" d="M-809 1349q0 125 55 237q169 349 599 621q466 298 924 278q121 -4 247 -145q122 -136 117 -259q-10 -244 -204 -618q-2 -3 -42.5 -75.5t-131 -232t-196.5 -343.5q-229 -398 -268 -596q-10 -28 -10 -55q0 -90 92 -90q38 0 96 25q144 66 385.5 236t565.5 441 q403 329 849 719q26 21 55 52t73.5 81t72.5 80q15 20 41 20q30 0 49 -25t12 -57q-23 -89 -35 -125q-146 -198 -407 -709q-144 -282 -231 -483.5t-120 -322.5q14 -33 14 -129q-2 -21 -13.5 -33.5t-25.5 -12.5q-32 0 -37 55q0 113 24 210q47 182 278 691q72 158 134.5 296.5 t88.5 196.5t27 60q29 83 -3 83q-22 0 -43 -25q-338 -317 -861 -735q-728 -582 -976 -660q-19 -6 -40 -6q-52 0 -99 31t-72.5 84.5t-16.5 113.5q33 232 275 635q52 86 131 216t150.5 248.5t130.5 217.5q107 183 160.5 331.5t53.5 250.5q0 94 -71 185q-39 48 -95.5 75 t-123.5 32q-387 29 -827 -243q-425 -259 -628 -621q-55 -100 -55 -237q0 -207 201 -340q25 -12 25 -31q0 -13 -19 -13q-14 0 -35 13q-183 141 -218 252q-22 73 -22 155zM1596 2391q0 45 74 120q75 79 120 88q34 7 65.5 -21t21.5 -58q-9 -52 -92 -125q-72 -67 -118 -58 q-71 14 -71 54zM2048 2359q0 46 74 120q73 77 120 87q35 7 66.5 -20.5t21.5 -57.5q-9 -53 -91 -126q-73 -68 -120 -58q-71 13 -71 55z" />
<glyph unicode="&#xdd;" horiz-adv-x="2140" d="M-809 1330q0 103 36 204q129 327 560 615q461 308 850 317q188 5 351 -150q40 -39 70 -77.5t50.5 -78t30.5 -80t10 -83.5q0 -229 -220 -589q-111 -189 -434 -654q-252 -362 -328 -531q-34 -82 -34 -119q0 -46 46 -46q27 0 105 19q386 106 1026 547q578 397 904 732l6 15 q78 113 123 182q34 49 93 49q7 0 13 -6q29 -69 -3 -101q-32 -22 -112 -103q-231 -504 -402 -880q33 -33 68 -96t35 -86q0 -29 -62 -110q-32 -38 -53.5 -57t-39.5 -21q-14 -1 -35 -6.5t-64 -19.5t-64 -20q-193 -313 -342 -497q-200 -247 -394 -356q-310 -177 -548 -172 q-197 5 -313 101q-111 87 -111 217q0 161 158 284q419 322 1483 488q58 77 259 493q29 62 80 167t94 194t78 167q11 31 7 35q-1 4 -3 6t-4.5 0.5t-5 -3.5t-6.5 -7q-408 -361 -893 -692q-625 -421 -1027 -534q-36 -9 -74 14.5t-62.5 70.5t-24.5 100q0 36 13 65 q57 180 320 569q280 413 430 657q218 375 218 608q0 142 -89.5 220.5t-267.5 92.5q-314 24 -773 -254q-476 -295 -617 -616q-52 -111 -52 -214q0 -79 28.5 -136.5t106.5 -108.5q79 -54 133 -58q46 -5 46 -24t-62 -9q-210 36 -275 178q-36 91 -36 188zM58 -645 q0 -240 369 -235q273 5 524 171q210 142 379 366q61 79 278 420q-280 -38 -654 -139q-523 -142 -747 -320q-149 -116 -149 -263zM1763 185q11 1 26.5 4.5t30 8t37.5 11t42 11.5q67 36 71 104q5 68 -58 152q-58 -119 -149 -291zM1779 2353q-11 17 3 31q26 18 240 218 q199 180 214 184q27 7 44 -5.5t27 -48.5q11 -32 -19 -52q-305 -200 -476 -327q-22 -11 -33 0z" />
<glyph unicode="&#xde;" horiz-adv-x="1671" d="M389 -130q45 161 237.5 752.5t244.5 778.5q-114 68 -114 127q5 27 28 59.5t70.5 73.5t114.5 83q34 84 65 154t53 119t74 174t126 313q2 6 6.5 22t9.5 29t26 34.5t56 44.5q60 42 64 -10q2 -7 -4.5 -13t-17 -21t-17.5 -40q-10 -20 -27 -56q-71 -150 -93.5 -204.5 t-83.5 -234.5q-37 -106 -61 -178q348 222 598 278q73 17 137.5 6.5t117 -35t92.5 -57.5t63 -61.5t30 -46.5q60 -441 -154 -738q-140 -194 -437 -373q-128 -78 -456 -246q-143 -73 -229 -119q-51 -16 -80.5 0t-43.5 65q-11 17 12 52q13 17 49.5 31t92.5 29.5t127 36t162 57.5 t187 87.5t212 133.5t229 187q28 19 62.5 70t66 120t60 150t45.5 159t23 147.5t-9 115.5q-11 59 -57 93.5t-113 43t-139.5 2t-150.5 -26.5q-116 -29 -250 -105t-300 -204q-73 -223 -347.5 -971t-315.5 -872q-3 7 -5.5 7.5t-4 -3t-4 -8.5t-6 -9.5t-9 -5.5t-12.5 3z" />
<glyph unicode="&#xdf;" horiz-adv-x="1559" d="M-63 -795q-6 26 1 63q77 406 243.5 908t339.5 886q-9 -1 -42.5 -4t-54 -5.5t-52.5 -12t-58 -24.5q-23 -13 -39.5 -12.5t-23.5 11.5t-7.5 25t7.5 28.5t21 21.5q40 23 95.5 38t116 25t85.5 18q15 25 98 172t144 245.5t128 193.5q114 159 250 255.5t238 101.5 q96 4 184.5 -34t147.5 -108.5t77 -167.5t-27 -211q-26 -66 -90.5 -143.5t-144.5 -146t-172 -134.5t-171.5 -114t-143.5 -80q-52 -27 -76 -48.5t-20 -41.5t31 -38t81 -38q33 -10 122.5 -43t111.5 -41q34 -14 75 -53.5t74 -93t39.5 -111.5t-27.5 -110q-52 -72 -137.5 -135.5 t-181.5 -108t-201.5 -78.5t-201 -52.5t-177.5 -23.5q-34 -3 -64 5t-49.5 22.5t-33.5 32t-15.5 35t4.5 32.5q5 27 26 50.5t48 32.5q68 22 91 4q15 -13 -8 -27l-6 -4q-35 -21 -35.5 -41.5t25.5 -30.5t63 -5q88 10 162.5 24t158.5 39.5t155 59t141 85t127 116.5 q73 88 36.5 162.5t-166.5 109.5q-34 8 -101 31t-96 30q-96 27 -153 64t-71.5 80t26 93t136.5 100q578 295 722 580q16 30 23 68t4.5 78t-15 79t-37 71t-61.5 54.5t-87.5 29t-115.5 -5.5q-202 -38 -408 -330q-304 -425 -579 -1085.5t-446 -1379.5q-15 -62 -40 -65 q-16 -2 -23 27z" />
<glyph unicode="&#xe0;" horiz-adv-x="1186" d="M22 130q0 229 360 589q327 321 582 420q63 25 133 25q62 0 156 -28q53 -5 60 -3q59 10 85 41q8 8 19 8t21 -16t8 -24q-278 -430 -365 -573q-129 -217 -246 -544t-149 -529q-3 -22 -3 -62q0 -107 67 -162.5t185 -55.5q113 0 229 40q173 58 448 278q217 176 420 434 q27 32 39 32q4 -3 4 -9q0 -16 -13 -37q-173 -261 -431 -479q-278 -225 -443 -284q-97 -32 -188 -32q-126 0 -259 84q-113 73 -107 253q2 66 27.5 181t63.5 241t84.5 254t89.5 223q111 242 218 401q12 19 11.5 27t-14.5 8q-5 0 -11 -6q-153 -181 -436 -424 q-291 -244 -488 -358q-43 -27 -75 -27q-82 0 -82 114zM216 243q0 -41 14.5 -60t44.5 -19q20 0 49 18q344 217 812 772q10 10 10 22q0 25 -19 47.5t-53.5 36.5t-76.5 14q-36 0 -74 -9q-151 -37 -386 -296q-212 -235 -308 -451q-13 -34 -13 -75zM818 1711q0 35 18.5 53 t53.5 18q20 0 33 -12q311 -292 398 -375q18 -13 9 -30q-17 -8 -30 0q-67 45 -234.5 159t-228.5 156q-19 12 -19 31z" />
<glyph unicode="&#xe1;" horiz-adv-x="1186" d="M22 130q0 229 360 589q327 321 582 420q63 25 133 25q62 0 156 -28q53 -5 60 -3q59 10 85 41q8 8 19 8t21 -16t8 -24q-278 -430 -365 -573q-129 -217 -246 -544t-149 -529q-3 -22 -3 -62q0 -107 67 -162.5t185 -55.5q113 0 229 40q173 58 448 278q217 176 420 434 q27 32 39 32q4 -3 4 -9q0 -16 -13 -37q-173 -261 -431 -479q-278 -225 -443 -284q-97 -32 -188 -32q-126 0 -259 84q-113 73 -107 253q2 66 27.5 181t63.5 241t84.5 254t89.5 223q111 242 218 401q12 19 11.5 27t-14.5 8q-5 0 -11 -6q-153 -181 -436 -424 q-291 -244 -488 -358q-43 -27 -75 -27q-82 0 -82 114zM216 243q0 -41 14.5 -60t44.5 -19q20 0 49 18q344 217 812 772q10 10 10 22q0 25 -19 47.5t-53.5 36.5t-76.5 14q-36 0 -74 -9q-151 -37 -386 -296q-212 -235 -308 -451q-13 -34 -13 -75zM1074 1381q-12 18 4 33 q32 21 240 217q2 2 7 6q112 102 154.5 139t51.5 39q18 5 31.5 1t23.5 -17.5t16 -38.5q5 -14 -0.5 -28.5t-19.5 -23.5q-305 -200 -476 -327q-21 -11 -32 0z" />
<glyph unicode="&#xe2;" horiz-adv-x="1186" d="M22 130q0 229 360 589q327 321 582 420q63 25 133 25q62 0 156 -28q53 -5 60 -3q59 10 85 41q8 8 19 8t21 -16t8 -24q-278 -430 -365 -573q-129 -217 -246 -544t-149 -529q-3 -22 -3 -62q0 -107 67 -162.5t185 -55.5q113 0 229 40q173 58 448 278q217 176 420 434 q27 32 39 32q4 -3 4 -9q0 -16 -13 -37q-173 -261 -431 -479q-278 -225 -443 -284q-97 -32 -188 -32q-126 0 -259 84q-113 73 -107 253q2 66 27.5 181t63.5 241t84.5 254t89.5 223q111 242 218 401q12 19 11.5 27t-14.5 8q-5 0 -11 -6q-153 -181 -436 -424 q-291 -244 -488 -358q-43 -27 -75 -27q-82 0 -82 114zM216 243q0 -41 14.5 -60t44.5 -19q20 0 49 18q344 217 812 772q10 10 10 22q0 25 -19 47.5t-53.5 36.5t-76.5 14q-36 0 -74 -9q-151 -37 -386 -296q-212 -235 -308 -451q-13 -34 -13 -75zM890 1392q5 21 18 38 q48 24 263 201q28 21 61 46.5t50 38.5t33.5 25.5t23 16.5t7.5 2q20 -15 191 -346q10 -24 10 -33q-2 -7 -5.5 -12t-5.5 -7t-5 -4l-3 -2q-15 -5 -24 15q-71 104 -99 139q-9 9 -21 21.5t-18.5 19t-15.5 15t-14 13t-11.5 8.5t-11.5 5t-9 1q-151 -62 -384 -212q-19 -17 -27 -13.5 t-3 24.5z" />
<glyph unicode="&#xe3;" horiz-adv-x="1186" d="M22 130q0 229 360 589q327 321 582 420q63 25 133 25q62 0 156 -28q53 -5 60 -3q59 10 85 41q8 8 19 8t21 -16t8 -24q-278 -430 -365 -573q-129 -217 -246 -544t-149 -529q-3 -22 -3 -62q0 -107 67 -162.5t185 -55.5q113 0 229 40q173 58 448 278q217 176 420 434 q27 32 39 32q4 -3 4 -9q0 -16 -13 -37q-173 -261 -431 -479q-278 -225 -443 -284q-97 -32 -188 -32q-126 0 -259 84q-113 73 -107 253q2 66 27.5 181t63.5 241t84.5 254t89.5 223q111 242 218 401q12 19 11.5 27t-14.5 8q-5 0 -11 -6q-153 -181 -436 -424 q-291 -244 -488 -358q-43 -27 -75 -27q-82 0 -82 114zM216 243q0 -41 14.5 -60t44.5 -19q20 0 49 18q344 217 812 772q10 10 10 22q0 25 -19 47.5t-53.5 36.5t-76.5 14q-36 0 -74 -9q-151 -37 -386 -296q-212 -235 -308 -451q-13 -34 -13 -75zM913 1405q0 4 22 38 q141 135 207 135q34 0 165 -56q119 -53 181 -53q109 0 162 53q25 18 36 18q4 0 6.5 -3t2.5 -6q0 -10 -15 -36q-124 -124 -192 -124q-50 0 -170 53q-129 58 -176 58q-70 0 -148 -43l-74 -41q-7 0 -7 7z" />
<glyph unicode="&#xe4;" horiz-adv-x="1186" d="M22 130q0 229 360 589q327 321 582 420q63 25 133 25q62 0 156 -28q53 -5 60 -3q59 10 85 41q8 8 19 8t21 -16t8 -24q-278 -430 -365 -573q-129 -217 -246 -544t-149 -529q-3 -22 -3 -62q0 -107 67 -162.5t185 -55.5q113 0 229 40q173 58 448 278q217 176 420 434 q27 32 39 32q4 -3 4 -9q0 -16 -13 -37q-173 -261 -431 -479q-278 -225 -443 -284q-97 -32 -188 -32q-126 0 -259 84q-113 73 -107 253q2 66 27.5 181t63.5 241t84.5 254t89.5 223q111 242 218 401q12 19 11.5 27t-14.5 8q-5 0 -11 -6q-153 -181 -436 -424 q-291 -244 -488 -358q-43 -27 -75 -27q-82 0 -82 114zM216 243q0 -41 14.5 -60t44.5 -19q20 0 49 18q344 217 812 772q10 10 10 22q0 25 -19 47.5t-53.5 36.5t-76.5 14q-36 0 -74 -9q-151 -37 -386 -296q-212 -235 -308 -451q-13 -34 -13 -75zM932 1420q0 46 74 120 q73 78 121 87q34 8 65 -19.5t21 -57.5q-9 -55 -90 -126q-72 -68 -120 -59q-71 14 -71 55zM1386 1389q0 44 74 118q75 80 118 89q35 7 66.5 -20.5t22.5 -57.5q-9 -53 -92 -126q-72 -68 -118 -58q-71 13 -71 55z" />
<glyph unicode="&#xe5;" horiz-adv-x="1186" d="M22 130q0 229 360 589q327 321 582 420q63 25 133 25q62 0 156 -28q53 -5 60 -3q59 10 85 41q8 8 19 8t21 -16t8 -24q-278 -430 -365 -573q-129 -217 -246 -544t-149 -529q-3 -22 -3 -62q0 -107 67 -162.5t185 -55.5q113 0 229 40q173 58 448 278q217 176 420 434 q27 32 39 32q4 -3 4 -9q0 -16 -13 -37q-173 -261 -431 -479q-278 -225 -443 -284q-97 -32 -188 -32q-126 0 -259 84q-113 73 -107 253q2 66 27.5 181t63.5 241t84.5 254t89.5 223q111 242 218 401q12 19 11.5 27t-14.5 8q-5 0 -11 -6q-153 -181 -436 -424 q-291 -244 -488 -358q-43 -27 -75 -27q-82 0 -82 114zM216 243q0 -41 14.5 -60t44.5 -19q20 0 49 18q344 217 812 772q10 10 10 22q0 25 -19 47.5t-53.5 36.5t-76.5 14q-36 0 -74 -9q-151 -37 -386 -296q-212 -235 -308 -451q-13 -34 -13 -75zM1103 1492q0 20 14 77 q31 107 93 182q76 99 158 126q82 45 130 49q139 14 139 -136q0 -32 -16 -98q-40 -113 -120 -197q-98 -103 -207 -130q-19 -6 -58 -6q-66 0 -99.5 33.5t-33.5 99.5zM1207 1544q0 -38 15 -64.5t38.5 -36.5t49.5 -4q75 18 140 82t94 159q9 33 9 67q0 47 -21 70t-63 21 q-78 -6 -135 -59q-105 -86 -124 -193q0 -6 -1.5 -20t-1.5 -22z" />
<glyph unicode="&#xe6;" horiz-adv-x="1689" d="M22 130q0 229 360 589q327 321 582 420q63 25 133 25q62 0 156 -28q53 -5 60 -3q11 0 36 6q145 121 272 171q41 16 75.5 8.5t62.5 -28t46.5 -54t27 -70t4.5 -75t-22 -69.5q-33 -59 -102 -108t-161 -81.5t-200 -48.5q500 0 639 15q62 7 131.5 41.5t113.5 72.5q14 21 27 15 q13 -7 -4 -29q-43 -47 -115.5 -92.5t-152.5 -56.5q-146 -22 -888 -22q-45 -60 -78.5 -111t-72.5 -122t-62.5 -146.5t-28.5 -147.5q-3 -56 8 -98.5t32 -66.5t49.5 -40t61 -18t66.5 0q100 11 220.5 55.5t215.5 99.5q29 15 41 5q11 -10 -15 -27q-86 -63 -207 -124t-227 -80 q-48 -8 -106 13.5t-106.5 61.5t-80.5 99.5t-29 119.5q9 183 106 376q-100 -110 -223 -218q-66 -56 -141 -107.5t-117 -77t-126.5 -73t-103.5 -58.5q-43 -27 -75 -27q-82 0 -82 114zM216 243q0 -41 14.5 -60t44.5 -19q20 0 49 18q344 217 812 772q10 10 10 22q0 25 -19 47.5 t-53.5 36.5t-76.5 14q-36 0 -74 -9q-151 -37 -386 -296q-212 -235 -308 -451q-13 -34 -13 -75zM1139 784q112 0 231 34.5t218 96.5t150 137q32 50 36.5 90.5t-15 60t-58.5 18.5t-86 -27q-206 -117 -476 -410z" />
<glyph unicode="&#xe7;" horiz-adv-x="973" d="M43.5 -632q7.5 11 27.5 14q83 2 178 62t127 120q37 59 2 105.5t-125 71.5q-49 14 -24 39q68 68 144 127q-44 11 -88 37.5t-79.5 64t-56 86.5t-16.5 99q5 114 48.5 237.5t110.5 234t153.5 214.5t178 185t182.5 138.5t167 81.5q31 9 61 10t56.5 -5.5t49 -20t38.5 -32.5 t24.5 -44t8.5 -52.5t-11.5 -60t-35.5 -64.5q-28 -40 -71 -46q-34 -6 -36 18q-2 22 30 58q26 30 37 59t8 50t-17.5 36t-37 20t-52.5 -0.5t-61 -22.5q-201 -114 -473 -415l-38 -51q-37 -51 -61.5 -87t-60.5 -96t-58.5 -110t-40.5 -113t-22 -122q-3 -46 4 -83t22 -61.5t36 -42 t46.5 -25t53 -11t55.5 0.5q100 11 221.5 55t218.5 99q28 17 38.5 7t-15.5 -29q-89 -64 -207.5 -124.5t-225.5 -79.5h-30q-43 -33 -78 -85q-7 -5 -9.5 -13t2.5 -16.5t20 -11.5q18 -5 39.5 -16.5t45 -32.5t38 -46t14 -61t-22.5 -75q-22 -38 -87 -84t-151 -80.5t-157 -38.5 q-23 -2 -34 7.5t-3.5 20.5z" />
<glyph unicode="&#xe8;" horiz-adv-x="1034" d="M130 201q4 86 30 178t67.5 178t97.5 172t119 161t132 143t137 122t133 94t121 61q41 16 75.5 8.5t62.5 -28t46.5 -54t27 -70t4.5 -75t-22 -69.5q-33 -59 -102 -108t-161 -81.5t-200 -48.5q500 0 639 15q62 7 131.5 41.5t113.5 72.5q14 21 27 15q13 -7 -4 -29 q-43 -47 -115.5 -92.5t-152.5 -56.5q-146 -22 -887 -22q-45 -60 -78 -110.5t-73 -122.5t-64 -147t-28 -147q-3 -56 8 -98.5t32 -66.5t49.5 -40t61 -18t65.5 0q69 7 150.5 31.5t154.5 56.5t133 67q30 15 41 4q9 -9 -16 -26q-87 -63 -207 -124t-226 -80q-47 -8 -105.5 13.5 t-107 61.5t-81 99.5t-29.5 119.5zM485 784q112 0 231 34.5t218 96.5t150 137q32 50 36 90.5t-15 60t-58 18.5t-86 -27q-206 -117 -476 -410zM713 1809q0 34 18 52.5t53 18.5q19 0 31 -12q255 -239 398 -376q10 -8 12 -13.5t-2 -15.5q-16 -8 -29 0q-57 38 -462 313 q-19 13 -19 33z" />
<glyph unicode="&#xe9;" horiz-adv-x="1034" d="M130 201q4 86 30 178t67.5 178t97.5 172t119 161t132 143t137 122t133 94t121 61q41 16 75.5 8.5t62.5 -28t46.5 -54t27 -70t4.5 -75t-22 -69.5q-33 -59 -102 -108t-161 -81.5t-200 -48.5q500 0 639 15q62 7 131.5 41.5t113.5 72.5q14 21 27 15q13 -7 -4 -29 q-43 -47 -115.5 -92.5t-152.5 -56.5q-146 -22 -887 -22q-45 -60 -78 -110.5t-73 -122.5t-64 -147t-28 -147q-3 -56 8 -98.5t32 -66.5t49.5 -40t61 -18t65.5 0q69 7 150.5 31.5t154.5 56.5t133 67q30 15 41 4q9 -9 -16 -26q-87 -63 -207 -124t-226 -80q-47 -8 -105.5 13.5 t-107 61.5t-81 99.5t-29.5 119.5zM485 784q112 0 231 34.5t218 96.5t150 137q32 50 36 90.5t-15 60t-58 18.5t-86 -27q-206 -117 -476 -410zM932 1479q-11 17 3 31q21 14 239 219q198 179 215 183q28 7 45 -5.5t26 -48.5q5 -14 -0.5 -28.5t-20.5 -23.5q-304 -200 -475 -327 q-21 -11 -32 0z" />
<glyph unicode="&#xea;" horiz-adv-x="1034" d="M130 201q4 86 30 178t67.5 178t97.5 172t119 161t132 143t137 122t133 94t121 61q41 16 75.5 8.5t62.5 -28t46.5 -54t27 -70t4.5 -75t-22 -69.5q-33 -59 -102 -108t-161 -81.5t-200 -48.5q500 0 639 15q62 7 131.5 41.5t113.5 72.5q14 21 27 15q13 -7 -4 -29 q-43 -47 -115.5 -92.5t-152.5 -56.5q-146 -22 -887 -22q-45 -60 -78 -110.5t-73 -122.5t-64 -147t-28 -147q-3 -56 8 -98.5t32 -66.5t49.5 -40t61 -18t65.5 0q69 7 150.5 31.5t154.5 56.5t133 67q30 15 41 4q9 -9 -16 -26q-87 -63 -207 -124t-226 -80q-47 -8 -105.5 13.5 t-107 61.5t-81 99.5t-29.5 119.5zM485 784q112 0 231 34.5t218 96.5t150 137q32 50 36 90.5t-15 60t-58 18.5t-86 -27q-206 -117 -476 -410zM750 1488q6 23 19 40q47 24 263 201q28 21 60.5 46.5t49.5 38.5t34 25.5t23.5 16.5t7.5 2q19 -14 191 -348q10 -23 10 -31 q-2 -5 -3.5 -8.5t-3.5 -6t-4 -4.5t-3.5 -3l-3 -2l-1.5 -1q-16 -6 -24 15q-71 104 -99 139q-7 7 -16.5 17t-15 15.5t-13 12.5t-12 11.5t-10.5 9.5t-10 7.5t-8.5 4.5t-8.5 3t-8 0q-157 -64 -383 -210q-19 -17 -27 -14.5t-4 23.5z" />
<glyph unicode="&#xeb;" horiz-adv-x="1034" d="M130 201q4 86 30 178t67.5 178t97.5 172t119 161t132 143t137 122t133 94t121 61q41 16 75.5 8.5t62.5 -28t46.5 -54t27 -70t4.5 -75t-22 -69.5q-33 -59 -102 -108t-161 -81.5t-200 -48.5q500 0 639 15q62 7 131.5 41.5t113.5 72.5q14 21 27 15q13 -7 -4 -29 q-43 -47 -115.5 -92.5t-152.5 -56.5q-146 -22 -887 -22q-45 -60 -78 -110.5t-73 -122.5t-64 -147t-28 -147q-3 -56 8 -98.5t32 -66.5t49.5 -40t61 -18t65.5 0q69 7 150.5 31.5t154.5 56.5t133 67q30 15 41 4q9 -9 -16 -26q-87 -63 -207 -124t-226 -80q-47 -8 -105.5 13.5 t-107 61.5t-81 99.5t-29.5 119.5zM485 784q112 0 231 34.5t218 96.5t150 137q32 50 36 90.5t-15 60t-58 18.5t-86 -27q-206 -117 -476 -410zM790 1518q0 45 74 119q75 79 120 88q35 7 66 -21t21 -58q-9 -53 -90 -124q-72 -68 -120 -59q-71 14 -71 55zM1242 1485q0 44 76 120 q73 78 118 87q35 7 66.5 -20.5t22.5 -56.5q-10 -54 -92 -127q-73 -68 -120 -58q-71 14 -71 55z" />
<glyph unicode="&#xec;" horiz-adv-x="587" d="M149 172q1 72 55 217.5t118.5 279.5t120 249t58.5 131q7 46 51 58.5t75 -16.5q44 -42 0 -124q-206 -389 -247 -468t-47 -96q-10 -31 -64 -144q-23 -45 -33 -80t-8.5 -57t11 -37t24 -22t34.5 -8.5t38 0.5t38 7q114 28 206.5 83.5t186.5 145.5q47 46 56 30q8 -14 -19 -50 q-8 -10 -16 -18q-90 -90 -177.5 -153.5t-217.5 -121.5q-12 -7 -35 -4t-50.5 9.5t-56 24t-51.5 39t-37 55t-13 70.5zM359 1646q0 35 18 53t53 18q20 0 33 -12q312 -291 398 -375q18 -13 10 -30q-18 -8 -30 0q-65 43 -224 152t-238 163q-20 13 -20 31z" />
<glyph unicode="&#xed;" horiz-adv-x="587" d="M149 172q1 72 55 217.5t118.5 279.5t120 249t58.5 131q7 46 51 58.5t75 -16.5q44 -42 0 -124q-206 -389 -247 -468t-47 -96q-10 -31 -64 -144q-23 -45 -33 -80t-8.5 -57t11 -37t24 -22t34.5 -8.5t38 0.5t38 7q114 28 206.5 83.5t186.5 145.5q47 46 56 30q8 -14 -19 -50 q-8 -10 -16 -18q-90 -90 -177.5 -153.5t-217.5 -121.5q-12 -7 -35 -4t-50.5 9.5t-56 24t-51.5 39t-37 55t-13 70.5zM583 1318q-11 17 3 31q27 18 239 217q2 2 7 6q112 102 155 139.5t51 39.5q14 3 25 2t19.5 -8t15 -19t11.5 -31q11 -32 -19 -52q-323 -212 -475 -325 q-21 -11 -32 0z" />
<glyph unicode="&#xee;" horiz-adv-x="587" d="M149 172q1 72 55 217.5t118.5 279.5t120 249t58.5 131q7 46 51 58.5t75 -16.5q44 -42 0 -124q-206 -389 -247 -468t-47 -96q-10 -31 -64 -144q-23 -45 -33 -80t-8.5 -57t11 -37t24 -22t34.5 -8.5t38 0.5t38 7q114 28 206.5 83.5t186.5 145.5q47 46 56 30q8 -14 -19 -50 q-8 -10 -16 -18q-90 -90 -177.5 -153.5t-217.5 -121.5q-12 -7 -35 -4t-50.5 9.5t-56 24t-51.5 39t-37 55t-13 70.5zM365 1327q4 18 21 38q47 25 262 201q29 22 60.5 47t49 38.5t33.5 25.5t23 16t8 2q19 -15 191 -346q9 -23 9 -31q-2 -6 -4 -10t-4.5 -7t-4 -4.5l-3.5 -3.5 t-3 -2q-14 -5 -22 16q-61 88 -101 139q-11 11 -27.5 28t-24 24.5t-17.5 16t-17 11.5t-13 2q-162 -66 -386 -210q-19 -17 -27 -14.5t-3 23.5z" />
<glyph unicode="&#xef;" horiz-adv-x="587" d="M149 172q1 72 55 217.5t118.5 279.5t120 249t58.5 131q7 46 51 58.5t75 -16.5q44 -42 0 -124q-206 -389 -247 -468t-47 -96q-10 -31 -64 -144q-23 -45 -33 -80t-8.5 -57t11 -37t24 -22t34.5 -8.5t38 0.5t38 7q114 28 206.5 83.5t186.5 145.5q47 46 56 30q8 -14 -19 -50 q-8 -10 -16 -18q-90 -90 -177.5 -153.5t-217.5 -121.5q-12 -7 -35 -4t-50.5 9.5t-56 24t-51.5 39t-37 55t-13 70.5zM376 1356q0 45 74 120q73 78 119 87q34 7 66 -20.5t22 -57.5q-9 -53 -91 -126q-73 -68 -119 -59q-71 14 -71 56zM828 1324q0 44 74 119q75 79 120 88 q35 7 66 -20.5t21 -56.5q-9 -56 -90 -127q-73 -68 -120 -58q-71 14 -71 55z" />
<glyph unicode="&#xf0;" horiz-adv-x="1154" d="M-291 3068q14 33 54 29q205 -24 389 -104q585 -236 922 -813q6 -10 26.5 -45.5t29.5 -56.5q74 30 109 58q87 73 91 146q8 29 16 34q4 9 13 0q2 -2 3 -4.5t2 -6t1.5 -7t1.5 -9.5t1 -11q-14 -174 -68 -216q-26 -22 -132 -62q233 -487 159 -997q-1 -51 -27 -114.5 t-70.5 -128t-95 -126.5t-108.5 -121.5t-101.5 -101.5t-83.5 -78q-45 -40 -91.5 -75t-94 -64t-85.5 -50.5t-87 -43.5t-75 -33t-74.5 -30t-61.5 -24q-7 -3 -60.5 -9.5t-62.5 -6.5q-121 0 -121 110q0 215 383 579q349 329 586 420q67 27 133 27q25 0 45 -3.5t46 -18t48 -40.5 q11 105 6.5 222.5t-22 230.5t-56 231.5t-94.5 224.5q-102 -27 -139 -54q-56 -49 -84 -130l-32 -82q-3 -4 -11 3q-1 2 -2 7t-2 16.5t-2 19.5q20 195 71 240q21 17 160 54l-33 58q-329 534 -862 751q-174 67 -319 88q-2 1 -16.5 -8.5t-34.5 -17t-34 -0.5q-36 23 -52 67t-2 76z M220 210q0 -71 55 -71q12 0 48 5.5t50 10.5q128 38 233.5 93t203 136t183 194.5t162.5 262.5q9 17 16 42t10.5 46t3.5 35q0 74 -117 74q-41 0 -84 -9q-82 -19 -183.5 -91t-231.5 -200q-238 -238 -332 -457q-17 -46 -17 -71z" />
<glyph unicode="&#xf1;" horiz-adv-x="1102" d="M0 90q-13 13 6 52q74 156 253 430q158 239 297 412q22 33 81 41q19 5 23 0q0 -12 -9 -22q-239 -278 -367 -570q-12 -17 -12 -41q0 -36 25 -36q21 0 40 23q143 140 391 343q241 195 327 226q47 41 81 52q73 33 114 13q43 -15 -5 -74q-231 -296 -414 -680 q-169 -366 -190 -608q-9 -156 61 -231q66 -71 178 -71q46 0 93 14q185 55 463 288q308 265 308 420q0 31 -15 47.5t-33.5 18.5t-34 5t-15.5 10q0 9 8.5 17.5t20.5 14.5t26 10t24 4q54 0 54 -75q0 -35 -19 -95q-56 -179 -291 -414q-312 -308 -673 -346q-128 -14 -213 72 q-89 97 -74 304q18 219 204 585q161 320 333 555q9 14 9 31q0 52 -58 52q-26 0 -52 -15q-348 -247 -741 -703q-33 -43 -164 -72q-18 -2 -28 1t-12 12zM757 1307q0 4 24 39q140 136 207 136q29 0 164 -58q119 -53 182 -53q109 0 161 53q25 19 36 19q4 0 6.5 -3.5t2.5 -6.5 q0 -8 -15 -35q-124 -123 -191 -123q-53 0 -173 52q-128 59 -173 59q-72 0 -151 -43l-74 -43q-6 0 -6 7z" />
<glyph unicode="&#xf2;" horiz-adv-x="1143" d="M62 62q4 268 433 793q4 9 2 17.5t-9 10.5q-87 49 -87 78v2q0 6 0.5 9.5t5.5 10.5t14 11t28 8t46 4q121 5 123 4q15 0 36 12q71 67 142 71q18 2 41.5 -6t46 -19.5t58.5 -32.5q1 -1 8.5 -6t13.5 -7q36 -1 105.5 -3t153.5 -4.5t163 -4.5q47 0 47 -13q0 -8 -12.5 -14.5 t-34.5 -6.5q-101 0 -130 -37q-5 -10 0 -19q1 -5 3.5 -13t4.5 -14t2 -10q-20 -246 -395 -569q-390 -333 -664 -369q-48 -8 -96.5 29.5t-48.5 87.5zM142 46q0 -78 104 -59q219 34 527 318q325 292 373 523q11 50 -20.5 78t-103.5 36q-146 17 -272 -29q-5 3 -55 -30 q-344 -320 -534 -766q-19 -33 -19 -71zM735 1615q0 34 18 52.5t53 18.5q19 0 31 -13q255 -238 399 -376q9 -7 11 -13t-2 -15q-16 -8 -28 0q-58 38 -463 313q-19 12 -19 33z" />
<glyph unicode="&#xf3;" horiz-adv-x="1143" d="M62 62q4 268 433 793q4 9 2 17.5t-9 10.5q-87 49 -87 78v2q0 6 0.5 9.5t5.5 10.5t14 11t28 8t46 4q121 5 123 4q15 0 36 12q71 67 142 71q18 2 41.5 -6t46 -19.5t58.5 -32.5q1 -1 8.5 -6t13.5 -7q36 -1 105.5 -3t153.5 -4.5t163 -4.5q47 0 47 -13q0 -8 -12.5 -14.5 t-34.5 -6.5q-101 0 -130 -37q-5 -10 0 -19q1 -5 3.5 -13t4.5 -14t2 -10q-20 -246 -395 -569q-390 -333 -664 -369q-48 -8 -96.5 29.5t-48.5 87.5zM142 46q0 -78 104 -59q219 34 527 318q325 292 373 523q11 50 -20.5 78t-103.5 36q-146 17 -272 -29q-5 3 -55 -30 q-344 -320 -534 -766q-19 -33 -19 -71zM954 1285q-12 18 3 33q33 21 241 216q198 180 213 183q28 8 45 -4.5t26 -48.5q11 -33 -19 -52q-304 -200 -475 -327q-23 -12 -34 0z" />
<glyph unicode="&#xf4;" horiz-adv-x="1143" d="M62 62q4 268 433 793q4 9 2 17.5t-9 10.5q-87 49 -87 78v2q0 6 0.5 9.5t5.5 10.5t14 11t28 8t46 4q121 5 123 4q15 0 36 12q71 67 142 71q18 2 41.5 -6t46 -19.5t58.5 -32.5q1 -1 8.5 -6t13.5 -7q36 -1 105.5 -3t153.5 -4.5t163 -4.5q47 0 47 -13q0 -8 -12.5 -14.5 t-34.5 -6.5q-101 0 -130 -37q-5 -10 0 -19q1 -5 3.5 -13t4.5 -14t2 -10q-20 -246 -395 -569q-390 -333 -664 -369q-48 -8 -96.5 29.5t-48.5 87.5zM142 46q0 -78 104 -59q219 34 527 318q325 292 373 523q11 50 -20.5 78t-103.5 36q-146 17 -272 -29q-5 3 -55 -30 q-344 -320 -534 -766q-19 -33 -19 -71zM769 1294q5 20 21 40q47 24 262 200q29 22 61 47t49.5 38.5t33.5 25.5t22.5 16.5t7.5 2.5q20 -15 191 -346q10 -24 10 -33q-2 -6 -4.5 -10t-4.5 -6.5t-4 -4l-4 -3t-2 -2.5q-14 -4 -22 16q-61 89 -101 139l-21 21l-18.5 18.5l-15 15 t-13.5 12.5t-11.5 8t-11 5t-9.5 1q-162 -67 -386 -210q-18 -17 -26 -14.5t-4 23.5z" />
<glyph unicode="&#xf5;" horiz-adv-x="1143" d="M62 62q4 268 433 793q4 9 2 17.5t-9 10.5q-87 49 -87 78v2q0 6 0.5 9.5t5.5 10.5t14 11t28 8t46 4q121 5 123 4q15 0 36 12q71 67 142 71q18 2 41.5 -6t46 -19.5t58.5 -32.5q1 -1 8.5 -6t13.5 -7q36 -1 105.5 -3t153.5 -4.5t163 -4.5q47 0 47 -13q0 -8 -12.5 -14.5 t-34.5 -6.5q-101 0 -130 -37q-5 -10 0 -19q1 -5 3.5 -13t4.5 -14t2 -10q-20 -246 -395 -569q-390 -333 -664 -369q-48 -8 -96.5 29.5t-48.5 87.5zM142 46q0 -78 104 -59q219 34 527 318q325 292 373 523q11 50 -20.5 78t-103.5 36q-146 17 -272 -29q-5 3 -55 -30 q-344 -320 -534 -766q-19 -33 -19 -71zM732 1306.5q0 6.5 22 39.5q140 136 207 136q31 0 166 -58q118 -53 180 -53q110 0 162 53q26 19 35 19q4 0 7 -3.5t3 -6.5q0 -8 -16 -35q-123 -123 -191 -123q-51 0 -171 52q-129 59 -175 59q-71 0 -149 -43l-74 -43q-6 0 -6 6.5z" />
<glyph unicode="&#xf6;" horiz-adv-x="1143" d="M62 62q4 268 433 793q4 9 2 17.5t-9 10.5q-87 49 -87 78v2q0 6 0.5 9.5t5.5 10.5t14 11t28 8t46 4q121 5 123 4q15 0 36 12q71 67 142 71q18 2 41.5 -6t46 -19.5t58.5 -32.5q1 -1 8.5 -6t13.5 -7q36 -1 105.5 -3t153.5 -4.5t163 -4.5q47 0 47 -13q0 -8 -12.5 -14.5 t-34.5 -6.5q-101 0 -130 -37q-5 -10 0 -19q1 -5 3.5 -13t4.5 -14t2 -10q-20 -246 -395 -569q-390 -333 -664 -369q-48 -8 -96.5 29.5t-48.5 87.5zM142 46q0 -78 104 -59q219 34 527 318q325 292 373 523q11 50 -20.5 78t-103.5 36q-146 17 -272 -29q-5 3 -55 -30 q-344 -320 -534 -766q-19 -33 -19 -71zM781 1324q0 44 74 119q75 79 118 88q22 5 45.5 -6.5t36.5 -31.5t7 -39q-10 -54 -92 -127q-72 -67 -118 -58q-71 14 -71 55zM1232 1291q0 46 75 120q72 77 120 87q34 7 65 -20.5t22 -57.5q-10 -55 -90 -126q-73 -68 -120 -58 q-72 13 -72 55z" />
<glyph unicode="&#xf7;" horiz-adv-x="1436" d="M46 1038q-7 29 3 32q2 1 3 -2q15 -21 49.5 -38.5t62.5 -23.5q204 -32 441 -45l62 -4q371 -16 589 56q17 4 29 8.5t26.5 12.5t20.5 16.5t5 21.5t-13 28q-4 3 -22.5 19t-29.5 23q-7 7 -10 12t-3.5 7.5t1.5 4t7 1t11 -2.5q23 -2 61.5 -34.5t55.5 -61.5q45 -76 -49 -114 q-239 -68 -641 -68h-51q-142 0 -275 10t-215 24q-18 6 -60.5 49.5t-57.5 68.5zM596 1242q10 18 72 28.5t98 10.5q10 0 23.5 -25.5t23 -59.5t13 -67t-7.5 -48q-23 -15 -85 -25.5t-85 3.5q-19 16 -43.5 90.5t-8.5 92.5zM608 750q12 17 71 24t102 7q10 0 23 -26t21.5 -59 t11 -63.5t-8.5 -40.5q-15 -17 -81 -30t-83 0q-23 23 -48 95t-8 93z" />
<glyph unicode="&#xf8;" horiz-adv-x="1121" d="M-28 -188q15 89 170 281q-9 29 -9 40q-16 96 11.5 214t84.5 231t133 226.5t158 207.5t158 166t134 110q24 16 40 14t23.5 -14t7 -31t-8.5 -37q49 15 120 20t90 -1q75 -26 129 -81q147 120 195 155q29 17 42 17q7 0 12 -2t8 -6t3 -9q0 -10 -8.5 -20t-21.5 -15 q-99 -74 -198 -164q37 -60 24 -123q-33 -141 -121.5 -303t-202.5 -302.5t-248.5 -255t-255.5 -166.5q-50 -22 -138.5 8t-138.5 90q-140 -171 -164 -260q-10 -45 -22 -45l-3 19t-3 36zM232 198q140 155 321 336q344 349 602 572q-18 23 -51 29t-85 1q-71 -9 -109.5 -15.5 t-79 -17.5t-83.5 -29q-108 -97 -217.5 -243t-192.5 -312t-100 -293q-5 -14 -5 -28zM237 139q6 -69 46 -97.5t99.5 -19.5t132.5 49q84 46 193 158t205 243.5t169 274t89 244.5q3 22 3 68q-256 -226 -582 -547q-245 -246 -355 -373z" />
<glyph unicode="&#xf9;" horiz-adv-x="1455" d="M111 164q6 87 54.5 210t116 244t149 245.5t149.5 217t122 155.5q27 31 72 30q40 0 43 -30q0 -24 -27 -59q-161 -201 -323 -468t-208 -428q-19 -65 -17.5 -107.5t19.5 -62t49.5 -17t71.5 25.5q96 57 211 154.5t226 209t214 219t208 214.5t173 167q48 44 81 -6 q26 -40 21 -90q-2 -18 -9 -27q-103 -157 -213 -380t-130 -344q-5 -31 -4.5 -54t4 -37t13 -22t17.5 -11t23.5 -1.5t24.5 3.5t26 6q5 2 7 2q8 3 42 24.5t78.5 51t88 58.5t78 52.5t40.5 27.5q47 31 55.5 10.5t-27.5 -60.5l-6 -6q-36 -36 -192.5 -144t-195.5 -121 q-28 -8 -66 15.5t-67 65.5t-29 82q0 30 5 65t10 62.5t18 69.5l19.5 63t25.5 68t24 60t26.5 64t23.5 55q13 33 8.5 59t-25.5 28t-60 -35q-103 -101 -207 -200.5t-241 -225t-245 -211t-156 -101.5q-44 -15 -80 -6t-61 33t-38 60.5t-10 76.5zM825 1711q0 35 18 53t53 18 q20 0 33 -12q312 -292 398 -375q18 -13 10 -30q-17 -8 -30 0q-65 43 -224 152t-238 163q-20 13 -20 31z" />
<glyph unicode="&#xfa;" horiz-adv-x="1455" d="M111 164q6 87 54.5 210t116 244t149 245.5t149.5 217t122 155.5q27 31 72 30q40 0 43 -30q0 -24 -27 -59q-161 -201 -323 -468t-208 -428q-19 -65 -17.5 -107.5t19.5 -62t49.5 -17t71.5 25.5q96 57 211 154.5t226 209t214 219t208 214.5t173 167q48 44 81 -6 q26 -40 21 -90q-2 -18 -9 -27q-103 -157 -213 -380t-130 -344q-5 -31 -4.5 -54t4 -37t13 -22t17.5 -11t23.5 -1.5t24.5 3.5t26 6q5 2 7 2q8 3 42 24.5t78.5 51t88 58.5t78 52.5t40.5 27.5q47 31 55.5 10.5t-27.5 -60.5l-6 -6q-36 -36 -192.5 -144t-195.5 -121 q-28 -8 -66 15.5t-67 65.5t-29 82q0 30 5 65t10 62.5t18 69.5l19.5 63t25.5 68t24 60t26.5 64t23.5 55q13 33 8.5 59t-25.5 28t-60 -35q-103 -101 -207 -200.5t-241 -225t-245 -211t-156 -101.5q-44 -15 -80 -6t-61 33t-38 60.5t-10 76.5zM1109 1381q-11 17 5 33 q27 18 238 217q3 2 7 6q194 175 207 178q27 8 44 -5t27 -50q11 -32 -19 -52q-304 -200 -476 -327q-22 -11 -33 0z" />
<glyph unicode="&#xfb;" horiz-adv-x="1455" d="M111 164q6 87 54.5 210t116 244t149 245.5t149.5 217t122 155.5q27 31 72 30q40 0 43 -30q0 -24 -27 -59q-161 -201 -323 -468t-208 -428q-19 -65 -17.5 -107.5t19.5 -62t49.5 -17t71.5 25.5q96 57 211 154.5t226 209t214 219t208 214.5t173 167q48 44 81 -6 q26 -40 21 -90q-2 -18 -9 -27q-103 -157 -213 -380t-130 -344q-5 -31 -4.5 -54t4 -37t13 -22t17.5 -11t23.5 -1.5t24.5 3.5t26 6q5 2 7 2q8 3 42 24.5t78.5 51t88 58.5t78 52.5t40.5 27.5q47 31 55.5 10.5t-27.5 -60.5l-6 -6q-36 -36 -192.5 -144t-195.5 -121 q-28 -8 -66 15.5t-67 65.5t-29 82q0 30 5 65t10 62.5t18 69.5l19.5 63t25.5 68t24 60t26.5 64t23.5 55q13 33 8.5 59t-25.5 28t-60 -35q-103 -101 -207 -200.5t-241 -225t-245 -211t-156 -101.5q-44 -15 -80 -6t-61 33t-38 60.5t-10 76.5zM893 1392q4 18 20 38 q43 22 261 201q28 21 61 46.5t50 38.5t33.5 25.5t23 16.5t7.5 2q20 -15 191 -346q10 -24 10 -33q-2 -7 -5 -12t-5.5 -7l-5 -4t-3.5 -2q-15 -5 -24 15q-71 104 -99 139q-9 9 -21 21.5t-18.5 19l-15 15t-14 13t-12 8.5t-11.5 5t-9 1q-151 -62 -384 -212q-19 -17 -27 -13.5 t-3 24.5z" />
<glyph unicode="&#xfc;" horiz-adv-x="1455" d="M111 164q6 87 54.5 210t116 244t149 245.5t149.5 217t122 155.5q27 31 72 30q40 0 43 -30q0 -24 -27 -59q-161 -201 -323 -468t-208 -428q-19 -65 -17.5 -107.5t19.5 -62t49.5 -17t71.5 25.5q96 57 211 154.5t226 209t214 219t208 214.5t173 167q48 44 81 -6 q26 -40 21 -90q-2 -18 -9 -27q-103 -157 -213 -380t-130 -344q-5 -31 -4.5 -54t4 -37t13 -22t17.5 -11t23.5 -1.5t24.5 3.5t26 6q5 2 7 2q8 3 42 24.5t78.5 51t88 58.5t78 52.5t40.5 27.5q47 31 55.5 10.5t-27.5 -60.5l-6 -6q-36 -36 -192.5 -144t-195.5 -121 q-28 -8 -66 15.5t-67 65.5t-29 82q0 30 5 65t10 62.5t18 69.5l19.5 63t25.5 68t24 60t26.5 64t23.5 55q13 33 8.5 59t-25.5 28t-60 -35q-103 -101 -207 -200.5t-241 -225t-245 -211t-156 -101.5q-44 -15 -80 -6t-61 33t-38 60.5t-10 76.5zM935 1420q0 46 75 120 q72 78 120 87q34 8 65 -19.5t22 -57.5q-10 -55 -90 -126q-73 -68 -121 -59q-71 14 -71 55zM1389 1389q0 44 74 118q75 80 119 89q34 7 66 -20.5t22 -57.5q-9 -53 -92 -126q-72 -68 -118 -58q-71 13 -71 55z" />
<glyph unicode="&#xfd;" horiz-adv-x="1199" d="M-2599 -1877q0 123 49 243q249 578 1553 1094q908 354 1858 540q41 113 109 395q51 203 62 303q-155 -133 -395 -297q-309 -207 -495 -281q-19 -6 -28 -6q-29 0 -49 23t-13 45q18 66 294 562q4 7 2 55t4 62q15 25 124 71q122 52 142 56q23 2 36.5 -11.5t15.5 -41.5 q-63 -26 -226 -252q-130 -192 -194 -318q-10 -24 -10 -41q0 -33 25 -43q32 -10 59 0q164 65 420 244q229 160 305 232q10 19 23 35.5t28.5 27t29.5 11.5q51 2 80.5 -25.5t21.5 -61.5q-28 -33 -50 -80q-59 -215 -206 -651q496 91 942 91q120 0 247 -20q74 -15 142 -86 t68 -150q0 -42 -19 -71q-42 -81 -210 -213q-27 -27 -46 -27q-6 0 -6 3q0 19 33 43q189 180 189 321q0 114 -158 128q-154 8 -240 8q-579 0 -957 -80q-954 -2719 -2313 -2807q-468 -29 -855 281q-392 308 -392 689zM-2511 -1929q0 -339 343 -605q357 -273 809 -255 q782 29 1489 1168q439 710 718 1566q-1168 -239 -2049 -643q-1055 -485 -1269 -1024q-41 -111 -41 -207zM828 1220q-12 18 3 33q32 21 240 216l7 7q113 102 155.5 139t51.5 39q27 7 44 -6t27 -49q10 -32 -19 -52q-305 -200 -476 -327q-22 -11 -33 0z" />
<glyph unicode="&#xfe;" horiz-adv-x="1270" d="M-3054 -2103q0 581 513 1022q532 465 1318 677q605 160 1103 164q20 38 87.5 175.5t125.5 239.5q51 90 143 261t132 243q-63 59 -54 98q19 53 171 116q30 46 449 710.5t548 859.5q16 24 117 63q41 14 41 -9q0 -7 -3.5 -10t-13.5 -12t-21 -25q-61 -90 -259.5 -406 t-401.5 -646t-284 -467q253 98 424 98q232 0 232 -215q0 -167 -149 -374q391 101 454 106q13 4 22 0q5 -5 0 -10q-8 -8 -22 -12q-250 -71 -556 -176q-282 -259 -689 -300q-68 -9 -68 62q0 19 13 31q73 48 701 256q166 190 166 392q0 175 -194 175q-140 0 -389 -129 q-41 -71 -98.5 -155t-113 -164t-121 -184t-145.5 -255.5t-164 -336.5q133 0 192 -10q62 -9 111 -45t74 -86.5t25 -106.5q0 -40 -16 -71q-42 -81 -210 -214q-31 -26 -49 -26q-6 0 -6 3q0 19 33 42q191 178 191 321q0 61 -34.5 95t-112.5 41q-33 6 -63.5 8.5t-47.5 2.5 t-50.5 -1t-51.5 -1q-21 -44 -55 -132.5t-48 -123.5q-389 -967 -798.5 -1569t-828.5 -832q-219 -119 -444 -119q-355 0 -587 282q-238 283 -238 679zM-3016 -2174q0 -337 249 -586q233 -233 560 -233q211 0 392 100q361 195 741 747q309 445 549 982q111 242 285 633 q11 26 28.5 67.5t37.5 88t38 87.5q-472 -4 -1006 -162q-754 -227 -1285 -680q-294 -254 -441.5 -513.5t-147.5 -530.5z" />
<glyph unicode="&#xff;" horiz-adv-x="1199" d="M-2599 -1877q0 123 49 243q249 578 1553 1094q908 354 1858 540q41 113 109 395q51 203 62 303q-155 -133 -395 -297q-309 -207 -495 -281q-19 -6 -28 -6q-29 0 -49 23t-13 45q18 66 294 562q4 7 2 55t4 62q15 25 124 71q122 52 142 56q23 2 36.5 -11.5t15.5 -41.5 q-63 -26 -226 -252q-130 -192 -194 -318q-10 -24 -10 -41q0 -33 25 -43q32 -10 59 0q164 65 420 244q229 160 305 232q10 19 23 35.5t28.5 27t29.5 11.5q51 2 80.5 -25.5t21.5 -61.5q-28 -33 -50 -80q-59 -215 -206 -651q496 91 942 91q120 0 247 -20q74 -15 142 -86 t68 -150q0 -42 -19 -71q-42 -81 -210 -213q-27 -27 -46 -27q-6 0 -6 3q0 19 33 43q189 180 189 321q0 114 -158 128q-154 8 -240 8q-579 0 -957 -80q-954 -2719 -2313 -2807q-468 -29 -855 281q-392 308 -392 689zM-2511 -1929q0 -339 343 -605q357 -273 809 -255 q782 29 1489 1168q439 710 718 1566q-1168 -239 -2049 -643q-1055 -485 -1269 -1024q-41 -111 -41 -207zM621 1259q0 45 74 119q75 79 120 88q35 7 66 -20.5t21 -56.5q-9 -55 -90 -127q-73 -68 -120 -58q-71 14 -71 55zM1074 1226q0 46 75 120q72 78 120 87q34 7 65 -20.5 t22 -56.5q-10 -55 -90 -127q-73 -68 -120 -58q-72 14 -72 55z" />
<glyph unicode="&#x152;" horiz-adv-x="2613" d="M324 485q0 184 56 397t149 411t214 392t249 349.5t256 272.5t234 172q40 22 87 22q11 0 20.5 -2t18 -7t14.5 -12.5t10 -17.5t5 -22l20 -16q48 9 87 9q70 0 133 -23t114.5 -67.5t89.5 -107t59 -145.5t21 -178v-16q0 -97 -9 -161l28 -10q16 33 57.5 102t53.5 91l18 31.5 t14 23.5q23 28 23 62t-33 84q-9 14 -9 42q0 19 26 46q30 17 93.5 43t102.5 38l11 6q25 43 54 75t52 39v3q19 6 27 6q38 0 71 -90l19 -11q116 33 263 33q189 0 278 -52h3q36 -17 78 -72.5t42 -105.5q0 -29 -16 -44v-4q-36 -52 -58 -52v3q0 13 9 37q22 35 22 68 q0 31 -21.5 51.5t-68.5 35.5q-78 28 -219 28q-59 0 -122.5 -5.5t-127 -15.5t-126 -26t-114.5 -37l-7 -6q-127 -167 -252.5 -371t-206.5 -386l23 -24q112 37 297 37q148 0 256 -22q52 -14 52 -24t-26 -10q-10 0 -19 4q-34 12 -114 12q-124 0 -290 -36t-269 -90l-10 -6 q-7 -20 -23 -55t-23 -51l-78 -184.5t-73 -180t-72 -193.5t-48 -163t-29 -150q0 -3 -1.5 -8t-1.5 -8q-3 -11 -3.5 -22t0 -26t0.5 -16q0 -44 17.5 -60t81.5 -38q111 -35 343 -35q177 0 338 20t215 51q42 16 59 16t17 -7q0 -10 -14.5 -24.5t-43.5 -30.5h-4q-80 -53 -345 -89.5 t-497 -36.5h-49q-42 0 -75 26t-52.5 69t-29.5 92.5t-10 99.5v24q0 118 71 340l-29 15q-210 -281 -414 -454.5t-395 -233.5q-33 -13 -88 -13q-53 0 -106 14t-108.5 48t-99 85.5t-75.5 134t-41 184.5q-6 73 -6 109zM411 362q0 -95 17.5 -168.5t45.5 -117t67.5 -71.5t77 -38 t79.5 -10q20 0 42 3t32 5t37 9t28 7q111 30 248 130.5t274 246t268 335t231 387.5t161.5 413t61.5 403q0 103 -24 185.5t-64 136t-95 89t-114 50.5t-123 15q-71 0 -124 -13l-6 -3q-115 -79 -242.5 -207t-252 -286.5t-238 -346t-199.5 -375.5t-137 -385.5t-51 -366.5v-27z " />
<glyph unicode="&#x153;" horiz-adv-x="1828" d="M62 62q4 268 433 793q4 9 2 17.5t-9 10.5q-87 49 -87 78v2q0 6 0.5 9.5t5.5 10.5t14 11t28 8t46 4q121 5 123 4q15 0 36 12q71 67 142 71q18 2 41.5 -6t46 -19.5t58.5 -32.5q1 -1 8.5 -6t13.5 -7q258 -11 295 -106q122 142 256.5 247t244.5 147q41 16 75.5 8.5t62.5 -28 t46.5 -54t27 -70t4.5 -75t-22 -69.5q-50 -88 -174.5 -151t-287.5 -87q499 0 638 15q63 7 132 41.5t113 72.5q14 21 27 15q13 -7 -4 -29q-25 -28 -61 -56t-94 -56.5t-113 -36.5q-146 -22 -888 -22q-45 -60 -78.5 -111t-72.5 -122t-62.5 -146.5t-28.5 -147.5q-3 -56 8 -98.5 t32 -66.5t49.5 -40t61 -18t66.5 0q101 11 222 55.5t215 99.5q30 15 41 4q10 -9 -15 -26q-87 -63 -208 -124t-227 -80q-48 -8 -106 13.5t-106.5 61.5t-80.5 99.5t-29 119.5q4 81 31 188l-83 -75q-390 -333 -664 -369q-48 -8 -96.5 29.5t-48.5 87.5zM142 46q0 -78 104 -59 q219 34 527 318q325 292 373 523q11 50 -20.5 78t-103.5 36q-146 17 -272 -29q-5 3 -55 -30q-344 -320 -534 -766q-19 -33 -19 -71zM1278 784q112 0 231 34.5t218 96.5t150 137q33 50 37 90.5t-15.5 60t-58.5 18.5t-86 -27q-206 -117 -476 -410z" />
<glyph unicode="&#x178;" horiz-adv-x="2140" d="M-809 1330q0 103 36 204q129 327 560 615q461 308 850 317q188 5 351 -150q40 -39 70 -77.5t50.5 -78t30.5 -80t10 -83.5q0 -229 -220 -589q-111 -189 -434 -654q-252 -362 -328 -531q-34 -82 -34 -119q0 -46 46 -46q27 0 105 19q386 106 1026 547q578 397 904 732l6 15 q78 113 123 182q34 49 93 49q7 0 13 -6q29 -69 -3 -101q-32 -22 -112 -103q-231 -504 -402 -880q33 -33 68 -96t35 -86q0 -29 -62 -110q-32 -38 -53.5 -57t-39.5 -21q-14 -1 -35 -6.5t-64 -19.5t-64 -20q-193 -313 -342 -497q-200 -247 -394 -356q-310 -177 -548 -172 q-197 5 -313 101q-111 87 -111 217q0 161 158 284q419 322 1483 488q58 77 259 493q29 62 80 167t94 194t78 167q11 31 7 35q-1 4 -3 6t-4.5 0.5t-5 -3.5t-6.5 -7q-408 -361 -893 -692q-625 -421 -1027 -534q-36 -9 -74 14.5t-62.5 70.5t-24.5 100q0 36 13 65 q57 180 320 569q280 413 430 657q218 375 218 608q0 142 -89.5 220.5t-267.5 92.5q-314 24 -773 -254q-476 -295 -617 -616q-52 -111 -52 -214q0 -79 28.5 -136.5t106.5 -108.5q79 -54 133 -58q46 -5 46 -24t-62 -9q-210 36 -275 178q-36 91 -36 188zM58 -645 q0 -240 369 -235q273 5 524 171q210 142 379 366q61 79 278 420q-280 -38 -654 -139q-523 -142 -747 -320q-149 -116 -149 -263zM1572 2391q0 45 74 120q75 79 120 88q35 7 66.5 -21t22.5 -58q-9 -52 -92 -125q-72 -68 -120 -58q-71 14 -71 54zM1763 185q11 1 26.5 4.5t30 8 t37.5 11t42 11.5q67 36 71 104q5 68 -58 152q-58 -119 -149 -291zM2026 2359q0 46 74 120q73 77 120 87q34 7 65 -20.5t22 -57.5q-10 -55 -90 -126q-73 -68 -120 -58q-71 13 -71 55z" />
<glyph unicode="&#x2c6;" horiz-adv-x="827" d="M100 1392q4 18 20 38q47 24 262 201q29 22 61 46.5t49.5 38.5t33.5 26t22.5 16t7.5 2q20 -15 191 -346q10 -24 10 -33q-2 -7 -5.5 -12t-5.5 -7t-5 -4l-3 -2q-14 -5 -22 15q-61 89 -101 139q-11 11 -28 28.5t-24.5 25t-17.5 16t-16.5 11.5t-13.5 2q-155 -64 -385 -212 q-19 -17 -27 -13.5t-3 24.5z" />
<glyph unicode="&#x2dc;" horiz-adv-x="957" d="M84 1405q0 2 2.5 7t10 15t10.5 16q141 135 207 135q34 0 165 -56q119 -53 181 -53q109 0 162 53q25 18 36 18q3 0 5 -1.5t3 -3.5t1 -4q0 -10 -15 -36q-124 -124 -192 -124q-52 0 -172 53q-128 58 -174 58q-71 0 -150 -43l-74 -41q-6 0 -6 7z" />
<glyph unicode="&#x2000;" horiz-adv-x="1952" />
<glyph unicode="&#x2001;" horiz-adv-x="3905" />
<glyph unicode="&#x2002;" horiz-adv-x="1952" />
<glyph unicode="&#x2003;" horiz-adv-x="3905" />
<glyph unicode="&#x2004;" horiz-adv-x="1301" />
<glyph unicode="&#x2005;" horiz-adv-x="976" />
<glyph unicode="&#x2006;" horiz-adv-x="650" />
<glyph unicode="&#x2007;" horiz-adv-x="650" />
<glyph unicode="&#x2008;" horiz-adv-x="488" />
<glyph unicode="&#x2009;" horiz-adv-x="781" />
<glyph unicode="&#x200a;" horiz-adv-x="216" />
<glyph unicode="&#x2010;" horiz-adv-x="840" d="M226 566q0 58 104 58h457q54 0 54 -32q0 -24 -22 -39.5t-62 -15.5h-476q-55 0 -55 29z" />
<glyph unicode="&#x2011;" horiz-adv-x="840" d="M226 566q0 58 104 58h457q54 0 54 -32q0 -24 -22 -39.5t-62 -15.5h-476q-55 0 -55 29z" />
<glyph unicode="&#x2012;" horiz-adv-x="840" d="M226 566q0 58 104 58h457q54 0 54 -32q0 -24 -22 -39.5t-62 -15.5h-476q-55 0 -55 29z" />
<glyph unicode="&#x2013;" horiz-adv-x="1096" d="M226 577q0 12 8 21t23.5 15.5t38.5 10t53 3.5h680q68 0 68 -25q0 -46 -97 -46q-197 -6 -712 -6q-29 0 -45.5 7.5t-16.5 19.5z" />
<glyph unicode="&#x2014;" horiz-adv-x="1753" d="M226 577q0 25 95 25h1374q59 0 59 -19q0 -10 -20.5 -17t-60.5 -7h-1382q-65 0 -65 18z" />
<glyph unicode="&#x2018;" horiz-adv-x="475" d="M553 1514q57 154 333 395q7 6 16 6q24 0 24 -22q0 -11 -13 -19q-194 -139 -208 -318q-5 -21 4 -48.5t32 -77.5q14 -19 -52 -68q-62 -40 -78 -35q-13 2 -23 20.5t-22 60.5q-21 79 -13 106z" />
<glyph unicode="&#x2019;" horiz-adv-x="504" d="M569 1321q0 8 14 22q191 131 210 318q2 19 -6.5 45.5t-29.5 75.5q-19 19 46 65q61 46 80 40q27 -5 46 -78q23 -76 13 -107q-62 -168 -334 -395q-6 -7 -16 -7q-4 0 -8.5 1.5t-7.5 4t-5 6.5t-2 9z" />
<glyph unicode="&#x201a;" horiz-adv-x="600" d="M65 -175q0 9 9 23q191 128 210 316q3 22 -5.5 49.5t-28.5 74.5q-17 20 44 64q30 22 52 32t30 8q29 -5 47 -78q22 -71 10 -107q-62 -167 -329 -395q-9 -10 -20 -10q-19 0 -19 23z" />
<glyph unicode="&#x201c;" horiz-adv-x="865" d="M553 1482q58 159 330 395q7 6 19 6q21 0 21 -22q0 -11 -10 -20q-197 -138 -211 -316q-4 -39 36 -127q15 -20 -49 -68q-64 -40 -81 -36q-24 10 -46 81q-19 73 -9 107zM948 1482q58 159 330 395q7 6 19 6q21 0 21 -22q0 -9 -11 -20q-192 -137 -210 -316q-3 -1 -1 -10 t1 -10.5t2 -11t3 -11t3.5 -12t4 -13t5 -13.5t6 -14.5t6 -15t6.5 -16.5q18 -18 -49 -68q-64 -41 -78 -36q-27 9 -49 81q-19 73 -9 107z" />
<glyph unicode="&#x201d;" horiz-adv-x="902" d="M569 1321q0 8 14 22q191 131 210 318q2 19 -6.5 45.5t-29.5 75.5q-19 19 46 65q61 46 80 40q27 -5 46 -78q23 -76 13 -107q-62 -168 -334 -395q-6 -7 -16 -7q-4 0 -8.5 1.5t-7.5 4t-5 6.5t-2 9zM964 1321q0 9 12 22q193 133 212 318q2 19 -6.5 45.5t-29.5 75.5 q-19 19 46 65q61 46 80 40q31 -6 49 -78q22 -71 10 -107q-61 -166 -331 -395q-12 -7 -18 -7q-10 0 -17 6t-7 15z" />
<glyph unicode="&#x201e;" horiz-adv-x="995" d="M65 -179q0 10 9 24q196 132 210 316q5 38 -34 123q-4 5 -3 12t6.5 15t15.5 18t25 20q65 45 85 40q26 -5 44 -78q20 -78 10 -107q-62 -168 -329 -395q-4 -10 -20 -10q-19 0 -19 22zM460 -179q0 10 9 24q196 132 210 316q5 38 -34 123q-8 10 3.5 27t40.5 38q64 45 84 40 q27 -6 45 -78q20 -78 10 -107q-61 -166 -330 -395q-5 -10 -19 -10q-19 0 -19 22z" />
<glyph unicode="&#x2022;" horiz-adv-x="685" d="M130 741q0 92 61 152.5t152 60.5q92 0 152.5 -60.5t60.5 -152.5q0 -89 -61 -151t-152 -62q-90 0 -151.5 62.5t-61.5 150.5z" />
<glyph unicode="&#x2026;" horiz-adv-x="1222" d="M68.5 166q-8.5 65 2.5 84q14 21 69.5 45.5t72.5 9.5q6 -7 10 -30t6 -52t2.5 -51t0.5 -36q0 -10 -19 -23.5t-43.5 -23t-48 -13.5t-31.5 5q-13 20 -21.5 85zM431.5 185q-9.5 65 1.5 84q14 19 71 44t68 8q14 -10 22 -71t8 -98q0 -9 -19.5 -22.5t-45 -23t-50 -13t-34.5 6.5 q-12 20 -21.5 85zM793.5 166q-8.5 65 2.5 84q13 20 70.5 45.5t68.5 9.5q15 -12 22 -71.5t7 -97.5q0 -14 -33 -32t-66 -25t-50 2q-13 20 -21.5 85z" />
<glyph unicode="&#x202f;" horiz-adv-x="781" />
<glyph unicode="&#x2039;" horiz-adv-x="636" d="M62 559q7 18 59 60t141 100q150 97 294 194q32 21 36 7q5 -5 2.5 -14.5t-11.5 -19.5q-169 -134 -268 -228t-127 -146q-28 -54 10 -395q5 -36 -19 -36q-15 0 -21 30q-111 419 -96 448z" />
<glyph unicode="&#x203a;" horiz-adv-x="824" d="M130 93q0 8 12 21q199 162 295.5 249t112.5 122q28 59 -10 395q-2 17 2.5 26.5t13.5 9.5q18 0 24 -30q111 -420 96 -450q-16 -37 -200 -158q-150 -97 -294 -194q-15 -10 -30 -10q-22 0 -22 19z" />
<glyph unicode="&#x205f;" horiz-adv-x="976" />
<glyph unicode="&#x20ac;" horiz-adv-x="1578" d="M13 596q0 49 120 49h74q41 126 107 251h-116q-62 0 -62 27q0 47 123 47h97q150 248 394 460q74 62 179.5 122t227.5 101.5t214 41.5q52 0 97 -10.5t79 -32.5t51 -53t9 -76t-44 -96q-29 -40 -72 -47q-34 -5 -36 19q-1 21 30 58q39 46 46.5 77t-15.5 47.5t-61.5 23.5 t-98.5 7q-252 0 -534 -237q-182 -151 -313 -384l-14 -21h679q68 0 68 -22q0 -49 -96 -49q-149 -3 -689 -3q-77 -150 -101 -251h534q67 0 67 -27q0 -46 -96 -46q-136 -3 -518 -3q-10 -74 -10 -136q0 -196 103 -313q22 -24 53 -40t69 -23t70 -9t74 -2q66 0 155.5 27.5 t159.5 60.5t141 73q27 16 39 7q10 -11 -15 -29q-88 -64 -207.5 -124.5t-227.5 -79.5q-92 -24 -175 -24q-188 0 -301 110.5t-113 308.5q0 92 27 193h-114q-58 0 -58 27z" />
<glyph unicode="&#x2122;" horiz-adv-x="1794" d="M111 1776q-17 69 21 138.5t124 117.5q91 50 209.5 79t233 35.5t237 0t219.5 -21t182 -35.5q16 10 23 11t26 -1q36 -5 98 -39.5t69 -57.5q15 -17 4 -44q-9 -23 -23 -10l-3 2q-60 40 -179 67.5t-229 32.5q5 -12 5.5 -21t-5.5 -25.5t-11.5 -28.5t-14 -30t-13.5 -31 q-14 -22 -81.5 -122.5t-100.5 -151.5t-93 -148.5t-93.5 -162t-66 -140.5t-44.5 -131v-10.5v-12.5t0.5 -13t1.5 -14t2.5 -12t3.5 -11.5t6 -9t8 -6.5q5 0 7 -3.5t0 -5.5q86 -54 249 42q91 55 213.5 176.5t236.5 262t211.5 274t157.5 232.5q27 95 61 152q9 15 25 16t28 -9.5 t12 -25.5q0 -37 -19.5 -83t-45.5 -75q-38 -108 -73.5 -227.5t-69 -267t-38.5 -246.5q-6 -124 101 -40q81 66 208.5 218.5t233 301t141.5 221.5q8 19 27.5 62t30 64.5t27 52.5t31 51t29.5 33q7 8 19 8t22.5 -6t17 -17.5t3.5 -24.5q-11 -72 -130 -229q-98 -211 -173.5 -419.5 t-88.5 -343.5q-12 -125 58 -138q34 -5 56 12q5 8 9 -2q2 -8 -3 -16q-25 -21 -71 -16q-18 2 -35 10t-30 22t-22.5 31t-13 38.5t-0.5 44.5q0 24 3 52.5t7.5 55.5t13.5 63t16 63t20 68t21 66.5t23.5 69.5t23.5 66.5t24.5 67.5t22.5 63q-7 -11 -46.5 -70t-52.5 -78t-51 -74 t-57 -80.5t-55 -72.5t-61 -75t-58 -64.5t-63.5 -64t-61.5 -50.5t-63.5 -27.5t-56.5 7.5t-40.5 34.5t-19.5 50.5q-10 124 128 599q-432 -604 -738 -794q-61 -37 -122.5 -52.5t-108.5 -7t-72 37.5q-14 5 -19 30q-30 45 -14 122q0 4 4 9t7 5q19 83 75 202.5t128 240.5 t126 206.5t101 153.5q6 16 21.5 47.5t25.5 55t11 36.5q-57 11 -151.5 15.5t-210 1t-236 -28t-201.5 -67.5q-144 -76 -133 -207q1 -33 15.5 -63t25.5 -43.5t30 -32.5q11 -6 4 -9q-6 -4 -16 3q-64 51 -87 145z" />
<glyph unicode="&#xe000;" horiz-adv-x="1066" d="M0 0v1068h1068v-1068h-1068z" />
<glyph unicode="&#xfb02;" horiz-adv-x="1041" d="M-3659 -1809q0 522 679 889q576 310 1316 457q630 126 1237 126q35 0 72.5 -1.5t83 -4t67.5 -3.5q341 532 667 1142q9 24 9 45q0 50 -52 82q-89 36 -74 74q6 22 90 22h147q296 450 531 627q310 230 591 234q763 929 1521 1239q419 171 789 86q284 -66 467 -263 q173 -187 197 -428q28 -272 -146 -516q-181 -254 -547 -420q-323 -145 -658 -257t-622.5 -179.5t-570 -108t-505 -53.5t-423.5 -7q-108 -178 -407.5 -704t-485.5 -880q-13 -27 -31 -7q-19 21 -12 53l4 12q78 163 328.5 633.5t445.5 805.5l44 75q-46 -3 -104 -3t-141.5 1.5 t-138.5 1.5q-40 0 -55 -26q-197 -362 -592 -1019q-26 -41 -81 -131t-85 -137q79 -4 191 -16q22 -5 49 -35t46 -69.5t19 -67.5q0 -19 -13 -32q-127 -136 -589 -215q-263 -370 -553 -701q-670 -756 -1263 -967q-275 -98 -527 -98q-403 0 -659 216q-256 222 -256 528z M-3604 -1850q0 -279 269 -466q279 -195 633 -195q243 0 463 94q961 410 2016 2038q-29 0 -89.5 1.5t-91.5 1.5q-1404 0 -2527 -653q-673 -387 -673 -821zM-379 -754q293 61 486 223q32 27 32 65q0 47 -65 62q-71 11 -200 22q-98 -157 -253 -372zM713 1019h396 q84 147 224.5 356t320.5 437q-59 16 -110 7q-72 -14 -148 -56.5t-153.5 -109t-164.5 -164t-175 -211t-190 -259.5zM1236 1029q135 -1 262 2.5t320.5 18t375 40.5t409.5 74.5t441.5 114.5t455 166.5t464.5 224.5q211 117 356.5 245.5t214.5 248t87.5 239t-17 223.5 t-108.5 195.5t-177.5 161t-233.5 115t-267.5 61t-287.5 -4t-286 -76.5q-166 -69 -333 -170.5t-312.5 -216.5t-290 -254.5t-266 -276.5t-240.5 -289q32 -12 55 -34.5t25 -46.5q0 -15 -20.5 -47t-37.5 -32q1 1 -1.5 4t-9 8.5t-16 12.5t-24.5 16.5t-33 20.5q-1 0 -4.5 1.5 t-4.5 1.5q-282 -379 -496 -747z" />
<glyph unicode="&#xfb04;" horiz-adv-x="1723" d="M-3628 -1809q0 522 680 889q575 309 1317 457q630 126 1236 126q35 0 72 -1.5t83 -4t68 -3.5q341 532 667 1142q10 25 10.5 43.5t-9 36t-20 28t-23.5 19.5q-6 4 -16 9l-17 8.5t-16 8.5t-13.5 9t-9.5 10.5t-4.5 13t2.5 15.5q3 9 10.5 14.5t19 7t20.5 2t22.5 -0.5t17.5 -1 q15 0 44 -0.5t53.5 -0.5t48.5 1q293 447 531 627q135 104 238.5 130.5t276.5 2.5q22 -3 44 -19.5t34 -34.5t12 -30q0 -17 -24.5 -53.5t-37.5 -23.5q-56 56 -129.5 86t-145.5 18q-61 -9 -119 -34.5t-103 -55.5t-93.5 -81.5t-80.5 -90.5t-74.5 -105t-64 -103t-60.5 -105 q-51 -89 -75 -128h563q305 464 521 627q310 230 593 234q763 930 1516 1239q420 171 791 85q285 -65 468 -264q173 -187 198 -428q28 -271 -145 -515q-181 -253 -547 -419q-324 -147 -660 -259.5t-623 -179t-570 -107t-504 -53t-422 -6.5q-111 -183 -410 -707t-484 -877 q-14 -27 -32 -7q-20 21 -13 53l4 12q76 160 328 631.5t447 807.5l43 75q-44 -3 -99.5 -3t-137 1.5t-136.5 1.5q-40 0 -55 -26v-12q-40 -67 -119 -205t-155 -272.5t-184 -317t-210.5 -349.5t-229 -357t-245.5 -353.5t-253 -324.5t-258.5 -285t-256 -220.5t-251.5 -143.5 q-345 -135 -591 -40q-419 -372 -809 -510q-274 -98 -527 -98q-404 0 -661 216q-256 222 -256 528zM-3572 -1850q0 -279 268 -466q280 -195 634 -195q243 0 463 94q379 163 764 508q-151 87 -216.5 248t-26.5 340q22 103 82.5 203.5t141 179.5t173 139.5t183.5 93.5 q48 17 47 4q-1 -12 -44 -31q-170 -74 -302.5 -231t-183.5 -364q-45 -182 7.5 -326t180.5 -221q589 539 1210 1495q-29 0 -90 1.5t-92 1.5q-1403 0 -2526 -653q-673 -387 -673 -821zM-1330 -1905q71 -27 152.5 -33.5t177.5 11t194 59.5q134 59 281.5 177t296 286t287 344 t285.5 401.5t258.5 402.5t240.5 404t196.5 349.5t158.5 290.5q8 13 42.5 83t40.5 87h7q-3 4 -7 4q-23 2 -105 2t-124 -2q-74 -3 -147.5 0t-163.5 0q-13 0 -22.5 -2t-15.5 -6.5t-9.5 -7.5t-7.5 -10q-197 -362 -593 -1019l-164 -268q79 -4 191 -16q22 -5 49 -35.5t45 -69.5 t18 -67q0 -19 -12 -32q-127 -136 -588 -215q-256 -361 -555 -701q-208 -233 -407 -417zM-346 -754q291 60 485 223q33 29 33 65q0 47 -65 62q-71 11 -200 22q-97 -157 -253 -372zM1420 1032l405 -13q76 138 218.5 350t324.5 443q-58 15 -109 7q-70 -16 -154 -59 t-176.5 -113.5t-181.5 -160.5t-175 -207.5t-152 -246.5zM1433 1242q-4 17 5.5 26.5t24.5 12.5zM1948 1029q136 -1 263 2.5t320.5 18t375 40.5t409.5 74.5t442 114.5t455.5 166.5t464.5 224.5q211 117 356.5 245.5t215 248t88 239t-17 223.5t-108.5 195.5t-177.5 161 t-233.5 115t-267 61t-287 -4t-286 -76.5q-736 -305 -1447 -1207q34 -12 58.5 -34.5t26.5 -46.5q0 -15 -20.5 -47t-37.5 -32q1 2 -8 9.5t-29 21t-49 31.5q-1 0 -6 1.5t-6 1.5q-265 -362 -495 -747z" />
</font>
</defs>
</svg>
