<?xml version="1.0" standalone="no"?>
<!DOCTYPE svg PUBLIC "-//W3C//DTD SVG 1.1//EN" "http://www.w3.org/Graphics/SVG/1.1/DTD/svg11.dtd" >
<svg xmlns="http://www.w3.org/2000/svg">
<metadata></metadata>
<defs>
<font id="vladimir_scriptregular" horiz-adv-x="1717" >
<font-face units-per-em="2048" ascent="1638" descent="-410" />
<missing-glyph horiz-adv-x="926" />
<glyph horiz-adv-x="2048" />
<glyph horiz-adv-x="2048" />
<glyph unicode="&#xd;" horiz-adv-x="2048" />
<glyph unicode=" "  horiz-adv-x="926" />
<glyph unicode="&#x09;" horiz-adv-x="926" />
<glyph unicode="&#xa0;" horiz-adv-x="926" />
<glyph unicode="!" horiz-adv-x="881" d="M31 71q0 74 69.5 150t143.5 76q93 0 93 -89q0 -72 -73.5 -149t-145.5 -77q-87 0 -87 89zM331 438q0 40 69 138q103 146 664 807q630 742 699 742q56 0 56 -71q0 -159 -1410 -1647q-18 -20 -40 -20q-38 0 -38 51z" />
<glyph unicode="&#x22;" horiz-adv-x="930" d="M1001 1691q0 61 157 276q163 225 232 225q76 0 76 -45q0 -18 -36 -65l-159 -218q-160 -201 -219 -201q-51 0 -51 28zM1466 1691q0 57 159 275q163 226 230 226q76 0 76 -45q0 -18 -36 -65q-132 -178 -313 -395q-29 -24 -65 -24q-51 0 -51 28z" />
<glyph unicode="#" horiz-adv-x="1715" d="M308 16q0 91 421 713l-162 -1q-84 -2 -84 30q0 69 321 84l237 342q-31 0 -103 -4l-102 -2q-76 0 -76 40q0 49 169 63l186 6l186 248q151 199 198 199q34 0 34 -33q0 -23 -279 -409l351 15l187 242q139 181 183 181q32 0 32 -30q0 -44 -275 -388l120 4q76 0 76 -36 q0 -75 -116 -87l-158 3l-228 -336l122 2q85 1 85 -49q0 -76 -288 -75l-422 -649q-52 -80 -80 -80q-39 0 -39 42q0 32 143 257l273 429l-364 -6q-188 -268 -418 -651q-58 -96 -101 -96q-29 0 -29 32zM938 847l362 11l226 337l-348 -8z" />
<glyph unicode="$" d="M351 -141q0 22 272 398q-272 38 -272 232q0 72 98 137q90 58 168 58q38 0 38 -38q0 -34 -93 -69.5t-93 -71.5q0 -83 204 -83q169 0 346 72q185 76 291 197q89 104 89 156q0 45 -74 40l-270 -20q-92 0 -161.5 64.5t-69.5 156.5q0 139 198 279.5t553 160.5q217 264 248 264 q39 0 52 -38q-61 -87 -184 -230q166 -9 166 -172q0 -74 -101 -136q-91 -56 -170 -56q-58 0 -58 49q0 11 100.5 34.5t100.5 65.5q0 43 -140 43q-152 0 -374 -81q-265 -96 -265 -214q0 -78 138 -78q49 0 147.5 5.5t147.5 5.5q170 0 170 -197q0 -161 -246 -352t-579 -202 q-263 -418 -333 -418q-44 0 -44 38z" />
<glyph unicode="%" horiz-adv-x="1952" d="M-56 65q0 187 2282 1640q-503 -172 -821 -172q-207 -226 -375 -226q-80 0 -132.5 57t-52.5 136q0 189 236 391q228 198 419 198q122 0 122 -140q0 -148 -160 -344h38q292 0 1065 314q31 12 50 12q55 0 55 -56q0 -70 -514 -411l-791 -523q-771 -516 -1236 -885 q-96 -76 -115 -76q-23 0 -46.5 31t-23.5 54zM947 150q0 145 135 317q122 157 265 235q164 91 235 91q76 0 121 -67q40 -60 40 -140q0 -166 -219 -389.5t-386 -223.5q-79 0 -135 49t-56 128zM974 1457q0 -81 74 -81q114 0 281 172q-122 52 -122 166q0 25 9 71 q-242 -172 -242 -328zM1064 138q0 -75 93 -75q137 0 321.5 182t184.5 316q0 63 -50 63q-120 0 -334.5 -185.5t-214.5 -300.5zM1276 1723q0 -94 107 -108q165 161 165 275q0 52 -44 52q-70 0 -149 -74t-79 -145z" />
<glyph unicode="&#x26;" horiz-adv-x="1907" d="M286 581q0 179 215 340q201 152 390 152q260 0 260 -253q0 -34 -5 -74l360 430q76 91 125 91q60 0 60 -62q0 -92 -513 -649q351 30 498 30q217 0 217 -70q0 -24 -123 -24q-293 0 -698 -58l-191 -240q-188 -232 -211 -234q-56 20 -56 73q0 54 269 385q-168 -18 -288 -18 q-309 0 -309 181zM371 579q0 -81 221 -81q150 0 385 43q107 158 107 275q0 129 -143 129q-123 0 -338 -127q-232 -134 -232 -239z" />
<glyph unicode="'" horiz-adv-x="465" d="M1001 1691q0 61 157 276q163 225 232 225q76 0 76 -45q0 -18 -36 -65l-159 -218q-160 -201 -219 -201q-51 0 -51 28z" />
<glyph unicode="(" horiz-adv-x="1136" d="M-304 -536q0 125 331 683q368 617 900 1187q555 595 1131 968q610 395 728 395q38 0 38 -36q0 -35 -69 -65q-245 -113 -650 -400q-449 -319 -1015.5 -925.5t-894.5 -1098.5l-204 -306q-116 -183 -168.5 -323t-83.5 -140q-43 0 -43 61z" />
<glyph unicode=")" horiz-adv-x="1136" d="M-805 -567q0 37 67 69q267 129 615 371q423 299 1003.5 913.5t922.5 1110.5q155 228 222 337q118 195 183 360q40 101 71 101q43 0 43 -54q0 -143 -326 -684q-334 -558 -975 -1231q-670 -704 -1188.5 -1014.5t-601.5 -310.5q-36 0 -36 32z" />
<glyph unicode="*" horiz-adv-x="1216" d="M1272 1729q0 21 270 191l-116 85q-88 67 -88 91q0 38 34 38q16 0 232 -163l135 163q113 134 136 134q29 0 29 -27q0 -40 -219 -290l199 4q158 -4 158 -38q0 -42 -100 -42q-74 0 -279 13q73 -217 73 -239q0 -54 -44 -54q-29 0 -65 125l-41 152q-248 -181 -279 -181 q-35 0 -35 38z" />
<glyph unicode="+" d="M655 1012l91 101h555l495 570l124 -3l-492 -567h556l-91 -101h-554l-496 -569l-124 2l494 567h-558z" />
<glyph unicode="," horiz-adv-x="684" d="M-190 -262q0 5 121 101q129 101 154 165q-114 0 -114 72t70.5 146.5t143.5 74.5q97 0 97 -100q0 -219 -255 -403q-127 -91 -179 -91q-38 0 -38 35z" />
<glyph unicode="-" horiz-adv-x="1038" d="M56 543q0 83 657 83h179q131 -12 131 -78q0 -54 -64 -56l-302 -7l-416 -9q-185 0 -185 67z" />
<glyph unicode="." horiz-adv-x="684" d="M-13 71q0 74 70 150t144 76q92 0 92 -89q0 -70 -74 -148t-145 -78q-87 0 -87 89z" />
<glyph unicode="/" horiz-adv-x="2146" d="M-675 -317q0 31 65 71l491 322l1214 791l1817 1222l665 458q21 0 44.5 -19t23.5 -41q0 -27 -112 -116q-128 -103 -326 -241l-1062 -742l-2178 -1439q-512 -333 -575 -333q-67 0 -67 67z" />
<glyph unicode="0" d="M277 279q0 320 335 778q277 380 603 637q354 281 512 281q58 0 87 -38q112 97 251 97q219 0 219 -244q0 -299 -286 -747q-277 -435 -651 -750q-408 -340 -712 -340q-139 0 -246 92q-112 96 -112 234zM411 221q0 -156 172 -156q231 0 626 353q362 324 653 746 q301 438 301 666q0 121 -96 121q-85 0 -400 -250q-18 0 -18 26q0 11 18 59q-367 -197 -811.5 -760t-444.5 -805z" />
<glyph unicode="1" d="M433 87q0 98 684 858l735 796q-583 -317 -690 -317q-42 0 -42 48q0 28 84 52q99 29 313 138l367 215q301 179 313 179q93 0 93 -63q0 -65 -167 -225q-601 -582 -1553 -1744q-32 -40 -54 -40q-29 0 -56 36t-27 67z" />
<glyph unicode="2" d="M-76 121q0 62 63 109q11 9 116 69l1106 626q263 148 550 340q402 268 489 393q65 94 65 176q0 115 -134 115q-230 0 -550 -166q-262 -138 -485 -326q-45 -38 -71 -38q-23 0 -51 31.5t-28 55.5q0 54 249 230q525 369 849 369q143 0 252.5 -112t109.5 -257 q0 -237 -443 -549q-210 -146 -657 -383l-628 -333l-572 -314l749 87q100 11 216 11q175 0 175 -74q0 -45 -121 -62l-158 -10q-220 -19 -539 -69l-232 -44q-163 -30 -226 -30q-94 0 -94 155z" />
<glyph unicode="3" d="M156 250q0 98 70 212q78 123 170 123q40 0 40 -26l-87 -99q-87 -100 -87 -187q0 -154 230 -154q353 0 699.5 235.5t346.5 443.5q0 120 -119 181q-94 47 -228 47q-58 0 -148.5 -25t-121.5 -25q-23 0 -45 26t-22 51q0 42 145 71q252 49 527 154q315 121 483 251 q194 151 194 241q0 100 -179 100q-388 0 -855 -263q-27 -16 -85 -32q-47 18 -47 68q0 93 310.5 242t580.5 149q206 0 311 -123t105 -213q0 -333 -883 -554q-194 -49 -256 -49q194 0 332 -72q173 -91 173 -268q0 -172 -152 -360q-162 -203 -463 -323q-277 -110 -559 -110 q-152 0 -257 65q-123 78 -123 223z" />
<glyph unicode="4" d="M387 814q0 48 46 107q124 165 957 627q840 465 1023 465q88 0 88 -56q0 -47 -103 -151l-831 -894l178 -2q127 -14 127 -83q0 -38 -62 -41l-92 3q-107 0 -266 -11l-616 -707q-78 -91 -110 -91q-76 0 -76 62q0 115 550 724l-671 -46l-38 -1q-104 -6 -104 95zM599 887 q25 -15 78 -15l641 29l767 835l45 45q-459 -206 -977 -516l-290 -175q-222 -143 -262 -198q-2 -3 -2 -5z" />
<glyph unicode="5" d="M176 237q0 58 34 141q42 98 87 98q27 0 27 -29q0 -16 -26 -83t-26 -105q0 -145 161 -145q284 0 682 313q414 324 414 596q0 161 -181 161q-195 0 -483 -179q-51 -31 -81 -44q-31 0 -57.5 41.5t-26.5 76.5q0 72 569 641l161 168q136 134 175 134q20 0 80 -47 q310 29 520 29q57 0 98 -41t41 -102q0 -33 -100 -33l-704 -34q-373 -357 -599 -619q223 97 393 97q152 0 246 -81q100 -87 100 -237q0 -308 -384 -652.5t-764 -344.5q-148 0 -244 65q-112 74 -112 215z" />
<glyph unicode="6" d="M398 322q0 386 400 878q348 427 740 662q381 227 591 227q61 0 61 -64q0 -34 -159 -86q-454 -151 -864 -630q-63 -75 -128 -178q215 176 440 176q125 0 202 -74.5t77 -198.5q0 -314 -348 -692q-353 -385 -661 -385q-148 0 -249.5 108.5t-101.5 256.5zM548 228 q0 -186 162 -186q242 0 559 391q308 380 308 637q0 152 -124 152q-293 0 -602 -351q-303 -344 -303 -643z" />
<glyph unicode="7" d="M538 81q0 102 620 721q419 418 786 751l337 302q-4 17 -66 17q-269 0 -778 -66q-29 -3 -54 -3q-100 0 -100 76q0 31 34.5 55t517.5 70q456 43 587 43q150 0 150 -87q0 -36 -132 -152q-355 -311 -818 -793l-992 -1035q-31 0 -61.5 35.5t-30.5 65.5z" />
<glyph unicode="8" d="M326 376q0 527 889 929q-15 60 -15 116q0 293 275 476q243 163 550 163q122 0 218 -38q128 -51 128 -154q0 -34 -47 -100q25 11 43 11q33 0 33 -36q0 -38 -30 -88t-113 -84q-505 -213 -874 -396q116 -257 116 -465q0 -306 -238 -533.5t-548 -227.5q-170 0 -282 131 q-105 123 -105 296zM434 291q0 -90 65.5 -142.5t157.5 -52.5q250 0 458 202.5t208 452.5q0 181 -69 366q-820 -431 -820 -826zM1316 1437q0 -40 11 -81q505 231 912 391q-18 157 -315 157q-233 0 -407 -114q-201 -132 -201 -353z" />
<glyph unicode="9" d="M507 16q0 29 128 91q196 94 465 327q238 207 408 406q59 70 125 168q-312 -203 -561 -203q-131 0 -208.5 86t-77.5 219q0 314 436 664q418 335 742 335q125 0 213.5 -86t88.5 -211q0 -351 -461 -902q-400 -477 -771.5 -709t-479.5 -232q-47 0 -47 47zM927 1028 q0 -128 137 -128q243 0 514 175q254 163 393 382q167 266 167 420q0 109 -113 109q-193 0 -645.5 -330.5t-452.5 -627.5z" />
<glyph unicode=":" horiz-adv-x="684" d="M-62 71q0 74 70 150t144 76q92 0 92 -89q0 -70 -74 -148t-145 -78q-87 0 -87 89zM532 762q0 74 70 150t142 76q94 0 94 -88q0 -71 -75 -148t-146 -77q-85 0 -85 87z" />
<glyph unicode=";" horiz-adv-x="684" d="M-281 -233q0 19 71 50q181 78 235 181q-103 9 -103 78q0 67 76 135t143 68q105 0 105 -93q0 -135 -173.5 -295.5t-309.5 -160.5q-44 0 -44 37zM409 762q0 74 69.5 150t142.5 76q94 0 94 -88q0 -71 -75 -148t-146 -77q-85 0 -85 87z" />
<glyph unicode="&#x3c;" horiz-adv-x="1853" d="M655 1249v22l1530 988v-123l-1193 -780l1193 -797v-329z" />
<glyph unicode="=" d="M532 889l91 101h1238l-91 -101h-1238zM780 1135l91 103h1238l-93 -103h-1236z" />
<glyph unicode="&#x3e;" horiz-adv-x="1853" d="M655 230v125l1193 780l-1193 794v330l1530 -1019v-22z" />
<glyph unicode="?" horiz-adv-x="1393" d="M-25 71q0 74 70.5 150t142.5 76q93 0 93 -89q0 -70 -74.5 -148t-144.5 -78q-87 0 -87 89zM351 518q0 110 465 378l867 483q465 275 465 402q0 81 -209 81q-207 0 -475 -88q-239 -78 -421 -187q-37 -21 -57 -21q-38 0 -38 47q0 173 393 316q330 118 558 118 q327 0 327 -279q0 -123 -88 -244q-142 -195 -681 -467l-775 -387l-157 -111q-130 -94 -134 -94q-40 0 -40 53z" />
<glyph unicode="@" horiz-adv-x="2436" d="M494 516q0 409 346 914q306 445 746 742q497 335 982 335q238 0 391 -123q167 -134 167 -366q0 -382 -398 -847q-409 -478 -782 -478q-156 0 -156 116q0 85 91 237q-366 -315 -485 -315q-158 0 -158 160q0 273 358.5 534.5t557.5 261.5q141 0 152 -138q72 69 98 69 q59 0 59 -49q0 -63 -279.5 -389.5t-279.5 -381.5q0 -36 78 -36q304 0 646 491q324 463 324 787q0 369 -344 369q-447 0 -919 -353q-398 -297 -686 -733q-328 -494 -328 -874q0 -397 509 -397q201 0 309 46q266 110 286 110q56 0 56 -47q0 -16 -86.5 -71.5t-300.5 -96.5 q-192 -38 -324 -38q-279 0 -449 137q-181 151 -181 424zM1405 869q0 -49 45 -49q105 0 443.5 311.5t338.5 421.5q0 58 -51 58q-110 0 -443 -317t-333 -425z" />
<glyph unicode="A" horiz-adv-x="2812" d="M118 796q0 109 199 149q56 12 278 27l706 47q428 353 1222 916q1012 715 1207 715q98 0 98 -127q0 -107 -255 -423l-854 -1056h166q121 -12 121 -74q0 -40 -88 -40l-118 8l-170 -2l-369 -469q-375 -467 -415 -467q-34 0 -63 52q-27 46 -27 84q0 56 615 800h-141 q-295 -2 -878 -35l-612 -521l-237 -212q-192 -166 -233 -166q-51 0 -51 52q0 65 523 500l415 344q-831 -38 -858 -82v-2q0 -34 258 -34l243 4q49 2 49 -22q0 -51 -395 -51q-336 0 -336 85zM1513 1028l947 16l849 1030l157 192q102 129 134 197v8q0 20 -18 20 q-85 0 -1075 -724z" />
<glyph unicode="B" horiz-adv-x="2834" d="M293 83q0 100 418 552q465 505 516 596l-31 78q0 70 117 70q25 0 55 -3l876 910q-666 -76 -1002 -243q-91 -45 -123 -45q-84 0 -84 74q0 120 450 250t955 158q108 97 152 97q34 1 50 -33q11 -22 11 -43q0 -11 -3 -23q831 0 831 -480q0 -277 -424 -454q-183 -78 -662 -186 q-98 -28 -297 -57q50 -1 204 -39q471 -118 471 -442q0 -333 -475 -624.5t-931 -291.5q-234 0 -379 91q-172 108 -172 329q0 83 20 159l-222 -268q-181 -213 -221 -213q-33 0 -66.5 24.5t-33.5 56.5zM896 342q0 -136 145 -204q110 -51 264 -51q458 0 896 272.5t438 527.5 q0 197 -382 295q-261 67 -547 67q-108 0 -200 -16q-614 -605 -614 -891zM1634 1381q558 72 1003 201q751 215 751 490q0 239 -649 239l-247 -3z" />
<glyph unicode="C" horiz-adv-x="2257" d="M355 440q0 478 577 1050q465 461 1005 734q608 308 926 308q294 0 308 -277q58 22 85 22q33 0 33 -33q0 -30 -125 -70q-62 -275 -382 -657q-346 -411 -590 -411q-145 0 -145 137q0 209 382 554q342 308 592 409q20 49 20 95q0 137 -156 137q-335 0 -923 -380 q-572 -369 -999 -843q-469 -520 -469 -864q0 -277 330 -277q238 0 521 129q197 90 407 240l172 129q29 0 29 -53q0 -130 -257 -298q-170 -112 -381 -200t-410 -88q-228 0 -386 138q-164 143 -164 369zM2138 1274q0 -40 30 -40q127 0 440 366q270 315 373 509 q-308 -158 -575.5 -454t-267.5 -381z" />
<glyph unicode="D" horiz-adv-x="2731" d="M272 71q0 25 21 68q58 125 809 940l925 1004q-340 -61 -571.5 -150.5t-293.5 -89.5q-83 0 -83 54q0 49 336.5 177.5t830.5 218.5l105 96q78 71 103 71q49 0 49 -64q0 -21 -31 -70q75 3 120 3q214 0 329 -54q140 -63 232 -235q76 -147 76 -282q0 -415 -413 -875 q-325 -362 -722 -626q-498 -331 -879 -331q-172 0 -279 101.5t-107 272.5q0 105 29 209l-416 -457q-47 -52 -93 -52q-77 0 -77 71zM901 335q0 -245 263 -245q308 0 782 312q458 302 793 704q363 436 363 747q0 315 -392 315q-174 0 -368 -36l-1187 -1290 q-145 -160 -185 -227q-69 -117 -69 -280z" />
<glyph unicode="E" horiz-adv-x="2173" d="M223 507q0 358 492 621q329 175 813 280q135 35 411 69q-230 0 -424 76q-259 101 -259 293q0 308 673 512q524 158 940 158t416 -273q0 -152 -300 -294q-265 -125 -442 -125q-110 0 -110 93q0 58 92 119q85 58 147 58q36 0 36 -25q0 -11 -49 -36q-56 -29 -67 -42 q16 -14 45 -14q94 0 315 106q239 116 239 194q0 72 -262 72q-294 0 -697 -103q-268 -70 -494 -163q-366 -152 -366 -284q0 -159 505 -224q290 -38 644 -38q73 0 73 -55q0 -99 -234 -110q-711 -33 -1355 -331q-661 -306 -661 -612q0 -299 512 -299q306 0 594 138 q193 92 384 253q162 138 166 138q42 0 42 -102q0 -168 -373 -385t-753 -217q-693 0 -693 552z" />
<glyph unicode="F" horiz-adv-x="2381" d="M608 0q0 201 180 441.5t253 240.5q23 0 23 -23q0 -7 -94 -123q-112 -141 -174 -250q-94 -167 -94 -290q0 -144 149 -144q108 0 273 144q185 161 469 513l429 543q-237 -11 -576.5 -56.5t-366.5 -45.5q-64 0 -64 46q0 32 42 59t492 69l561 45q601 788 956 1048 q-259 40 -507 40q-400 0 -756 -101q-417 -116 -674 -346l-135 -170q-102 -127 -136 -127q-63 0 -63 64q0 86 339 517t403 431q61 0 61 -58q0 -31 -61 -98q-192 -208 -312 -398q634 445 1385 445q264 0 643 -56q287 190 573 190q165 0 165 -85q0 -143 -311 -213 q-212 -49 -429 -49q-362 -304 -887 -1027q130 8 204 8q102 0 102 -53q0 -38 -386 -69q-454 -593 -621 -774q-476 -512 -789 -512q-110 0 -184 56q-82 61 -82 168zM3403 2335q69 -9 123 -9q99 0 219 29q163 38 163 103q0 29 -62 29q-244 0 -443 -152z" />
<glyph unicode="G" horiz-adv-x="2564" d="M-89 -943q0 315 611 744t1147 474l527 579q-1000 -749 -1423 -749q-174 0 -290 115t-116 289q0 425 520 937q461 454 1124 789q655 333 1075 333q324 0 324 -249q0 -283 -341 -558t-535 -275q-119 0 -119 138q0 146 193 343q141 145 324 263q192 125 234 125q30 0 30 -22 q0 -18 -170 -125q-139 -88 -306 -244q-210 -197 -210 -295q0 -44 46 -44q155 0 456 266q308 270 308 428q0 134 -198 134q-342 0 -976.5 -360.5t-1099.5 -812.5q-521 -505 -521 -851q0 -179 210 -179q331 0 1057 465q566 362 974 722q96 85 121 85q34 0 34 -67 q0 -94 -92 -192l-932 -1019q49 -3 49 -63q0 -33 -25.5 -63.5t-56.5 -32.5q-3 34 -40 76l-367 -385q-405 -426 -592 -576q-405 -329 -724 -329q-230 0 -230 186zM-13 -943q0 -109 149 -109q132 0 327 131q187 123 790 749l336 349q-521 -59 -1061.5 -480t-540.5 -640z" />
<glyph unicode="H" horiz-adv-x="2999" d="M-127 147q0 324 413.5 639.5t1273.5 342.5q1162 1257 1168 1322l-11 11q-125 -4 -540 -263l-412 -259q-24 0 -24 24q0 83 499.5 366.5t631.5 283.5q48 0 95 -36.5t47 -81.5q0 -65 -286 -378l-894 -980l939 42q1122 1294 1207 1294q78 0 78 -63q0 -47 -130 -194 q-491 -554 -876 -1037l175 -2q136 -11 136 -72q0 -31 -49 -31q-237 0 -360 -11l-702 -847l-96 -127q-76 -90 -123 -90q-33 0 -63 31t-30 63q0 58 341 489l389 478l-932 -37q-520 -541 -710 -709q-536 -474 -842 -474q-135 0 -224 85t-89 221zM-14 101q0 -137 161 -137 q103 0 251 90q169 102 549 453q345 318 515 514q-427 -13 -686 -112q-296 -113 -561 -400q-229 -252 -229 -408z" />
<glyph unicode="I" horiz-adv-x="2124" d="M554 -18q0 63 175.5 257t226.5 194q25 0 25 -28q0 -14 -112 -139q-121 -136 -138 -165l4 -1q69 3 849 765q-196 -36 -422 -36q-313 0 -407 126.5t-94 222.5q0 290 414 627q357 287 874 506q495 210 777 210q279 0 279 -188q0 -328 -934 -1261l139 32q98 25 134 25 q45 0 45 -30q0 -51 -452 -161q-741 -748 -1086 -985q-107 -72 -183 -72q-114 0 -114 101zM784 1146q0 -160 450 -160q419 0 507 46q26 11 427 421q209 212 406 453q289 356 289 476q0 52 -70 52q-140 0 -630 -213q-496 -216 -937.5 -566t-441.5 -509z" />
<glyph unicode="J" horiz-adv-x="2483" d="M-205 -831q0 187 310 462q279 250 688 458q418 211 774 278q254 254 766 911q568 726 650 952q36 103 36 157q0 69 -61 69q-247 0 -779 -213q-537 -216 -981 -596q-449 -385 -449 -664q0 -221 232 -221q320 0 778 250q427 233 523 456q11 23 24 31h1q42 0 42 -71 q0 -103 -201 -290q-191 -177 -526 -327q-353 -158 -592 -158q-177 0 -297.5 126t-120.5 305q0 344 447 713q384 317 950 551q536 219 863 219q276 0 276 -218q0 -425 -1318 -1978q90 -7 90 -87q0 -83 -70 -83q-16 0 -20 9q-4 7 0 20q4 18 4 22q0 34 -69 34h-15 q-503 -534 -809 -793q-599 -512 -952 -512q-83 0 -138.5 52.5t-55.5 135.5zM-139 -849q0 -92 114 -92q92 0 213 58q170 83 654 532q358 333 637 624q-335 -87 -757 -329q-427 -244 -662 -489q-199 -204 -199 -304z" />
<glyph unicode="K" horiz-adv-x="2398" d="M123 81q4 95 967 1150t963 1057l-4 5q-60 -2 -402 -242l-335 -241q-29 0 -29 34q0 47 437 337q443 293 535 293q35 0 83 -40.5t48 -73.5q0 -20 -140 -168l-166 -174l-695 -769l27 2h4q43 0 50 -64l1732 907q569 295 641 295q31 0 31 -56q0 -89 -149 -157l-316 -145 l-1917 -949l70 -487q64 -407 100 -463q23 -42 98 -61q63 -17 63 -33q0 -22 -83 -36q-67 -13 -107 -13q-119 0 -174 123q-41 94 -188 1012q-548 -588 -914 -1015q-92 -109 -130 -109q-64 0 -100 81z" />
<glyph unicode="L" horiz-adv-x="2362" d="M-402 156q0 181 219 298q185 98 384 98q242 0 527 -116l939 1001q391 420 568 576q424 371 688 371q226 0 250 -194q94 34 119 34q24 0 24 -30q0 -26 -56 -51l-80 -31q-20 -340 -398 -787t-588 -447q-151 0 -151 137q0 198 283.5 550t726.5 583q4 33 4 46q0 105 -96 105 q-174 0 -566 -373q-147 -140 -496 -520l-589 -639l-385 -409q624 -242 856 -242q25 0 71.5 10t67.5 10q17 0 17 -17q0 -57 -111 -103q-92 -38 -163 -38q-239 0 -872 248q-384 -351 -782 -351q-161 0 -271 58q-140 74 -140 223zM-329 163q0 -194 286 -194q293 0 626 326 q-263 98 -523 98q-389 0 -389 -230zM2121 1046q0 -56 51 -56q119 0 419 330.5t448 733.5q-353 -175 -635.5 -513.5t-282.5 -494.5z" />
<glyph unicode="M" horiz-adv-x="3248" d="M215 52q0 60 455 569l847 952q454 536 454 662q0 47 -47 47q-130 0 -543 -334q-309 -252 -881 -887q-37 -40 -58 -40q-40 0 -40 31q0 47 317 410q226 258 572 543q447 370 646 370q134 0 134 -147q0 -246 -652 -1042q1113 1058 1397 1058q134 0 134 -137 q0 -217 -516 -874q1255 1270 1606 1270q147 0 147 -139q0 -129 -105 -286q-76 -112 -925 -1025q-746 -801 -746 -941q0 -49 70.5 -54.5t70.5 -21.5q0 -50 -110 -50q-156 0 -156 146q0 273 675 1026q237 265 898 927q224 225 224 315q0 34 -34 34q-125 0 -704 -481 q-463 -386 -692 -614q-219 -219 -575 -619q-643 -722 -663 -722q-27 0 -64 34.5t-37 61.5q0 71 769.5 979.5t769.5 1053.5q0 36 -37 36q-92 0 -477 -290q-355 -268 -781 -673l-733 -726l-257 -277q-215 -231 -231 -231q-29 0 -73 29q-49 30 -49 57z" />
<glyph unicode="N" horiz-adv-x="2689" d="M246 92q0 78 482 576l892 936q481 534 481 698q0 55 -45 55q-197 0 -925 -625q-329 -282 -575 -566q-40 -46 -62 -46q-69 0 -69 69q0 87 402 467q286 270 576 474q421 301 653 301q150 0 150 -161q0 -178 -271 -532q-190 -250 -397 -451q623 501 858 670q677 481 954 481 q80 0 141.5 -50.5t61.5 -130.5q0 -219 -527 -738l-731 -712q-617 -613 -617 -689q0 -46 40 -56q9 -2 75 -2t66 -27q0 -29 -91 -53q-74 -20 -119 -20q-71 0 -123.5 41t-52.5 111q0 80 79 190.5t510 548.5l859 856q140 134 208 206q138 143 187 226q74 129 74 183q0 40 -36 40 q-105 0 -552 -268q-1061 -635 -2295 -1946q-140 -148 -165 -148t-60.5 32.5t-35.5 59.5z" />
<glyph unicode="O" horiz-adv-x="2193" d="M478 431q0 458 338 970q294 442 715 760q431 326 511 326q88 0 88 -107q147 94 323 129q12 96 27 96q69 0 69 -72q0 -11 -2 -23q154 0 245 -93t91 -247q0 -441 -496 -1102q-427 -572 -872 -892q-304 -219 -579 -219q-458 0 -458 474zM632 317q0 -116 58 -188 q61 -80 173 -80q294 0 770 447q429 402 776 934q353 541 353 809q0 190 -192 190q-22 0 -41 -7q-66 -208 -238 -467q-586 -878 -895 -878q-142 0 -142 195q0 444 712 998q-312 -196 -493 -373q-320 -313 -559 -726q-282 -487 -282 -854zM1381 1234q0 -65 60 -65 q166 0 548 514q342 462 436 710q-229 -87 -508 -350q-263 -244 -399.5 -479t-136.5 -330z" />
<glyph unicode="P" horiz-adv-x="2336" d="M429 94q0 62 771 974q-224 34 -224 103q0 63 84 63h10l269 -12l583 646q141 165 431 458q-623 -87 -1234 -339q-40 -16 -64 -16q-59 0 -59 76q0 149 620 317q616 166 1019 166q257 0 428 -83q224 -108 224 -338q0 -509 -702 -815q-556 -241 -1141 -241l-476 -568 q-411 -489 -436 -489q-23 0 -63 36.5t-40 61.5zM1615 1236q392 27 763 145q458 145 668 375q174 192 174 342q0 255 -503 255q-74 0 -201 -11q11 -23 11 -40q0 -50 -433 -537z" />
<glyph unicode="Q" horiz-adv-x="2199" d="M471 422q0 416 327 939q272 433 652 780q409 375 559 375q53 0 53 -58q0 -51 -154 -159q-408 -288 -817 -871q-456 -648 -456 -1070q0 -43 13 -79q273 273 836 273q73 0 210 -9q371 380 659 782q409 572 409 899q0 200 -177 200q-236 0 -583 -310q-273 -242 -462 -516 q-50 -72 -83 -72q-61 0 -61 69q0 108 240 374q485 541 896 541q161 0 257 -97.5t96 -258.5q0 -661 -957 -1633q56 -3 92 -11q71 -14 72 -43q-63 -145 -159 -145l-217 16q-453 -392 -784 -392q-219 0 -340 128.5t-121 347.5zM675 145q0 -105 197 -105q243 0 634 320 q-101 11 -208 11q-344 0 -483.5 -78.5t-139.5 -147.5z" />
<glyph unicode="R" horiz-adv-x="2619" d="M297 31q0 186 1578 1900q112 122 304 292q-356 -69 -840 -310q-43 -22 -63 -22q-63 0 -63 96q0 105 409 250q286 103 528 156q299 63 567 63q304 0 445 -116q158 -128 158 -423q0 -274 -372 -549q-428 -316 -1136 -338q45 -101 137 -485q85 -348 118.5 -389.5 t140.5 -41.5q22 0 31 -14q-2 -38 -89 -69q-72 -26 -121 -26q-63 0 -126.5 42t-90.5 181l-74 348q-46 199 -95 342q-19 54 -70 141q-71 70 -71 85q0 47 161 47q60 0 98 -47q272 0 662 156.5t578 344.5q228 228 228 388q0 262 -451 262q-177 0 -432 -42q7 -43 7 -59 q0 -29 -186 -223l-227 -232q-586 -637 -1060 -1218q-234 -286 -351 -456q-86 -123 -140 -123q-92 0 -92 89z" />
<glyph unicode="S" horiz-adv-x="2318" d="M13 279q0 206 324 376q282 150 514 150q74 0 74 -45q0 -31 -76 -41q-221 -35 -427 -127q-290 -127 -290 -284q0 -192 447 -192q364 0 780 145q426 148 697 378q264 224 264 337q0 110 -356 152q-590 68 -661 85q-356 87 -356 307q0 281 418 534q342 208 870 351 q464 125 742 125q357 0 357 -220q0 -190 -331 -448q-321 -247 -523 -247q-163 0 -163 112q0 94 186 221q178 119 277 119q35 0 35 -22l-187 -101q-186 -101 -194 -148q10 -13 31 -13q131 0 429 174q317 184 317 304q0 105 -253 105q-290 0 -817 -167q-355 -112 -622 -239 q-464 -217 -464 -393q0 -112 293 -166l581 -76q341 -51 415 -149q81 -110 81 -220q0 -194 -286 -455q-298 -273 -724 -425q-403 -143 -827 -143q-575 0 -575 346z" />
<glyph unicode="T" horiz-adv-x="2371" d="M481 235q0 248 226.5 427.5t324.5 179.5q38 0 38 -37q0 -34 -125 -128q-165 -123 -235 -205q-125 -146 -125 -307q0 -163 132 -163q288 0 762 559q105 121 593 793q362 496 775 878l-523 12q-375 0 -691 -168q-209 -110 -413 -311q-170 -169 -190 -169q-71 0 -71 51 q0 13 107 134q132 148 199 255q107 170 107 301q0 14 -2 41t-2 42q0 56 47 56q111 0 111 -61q0 -223 -275 -522q297 272 568 389q295 127 677 127q188 0 490 -25q58 69 102 69q38 0 38 -66v-10l346 -8q164 0 410 36q111 17 131 17q29 0 29 -26q0 -34 -89 -59l-121 -27 q-323 -85 -738 -85q-48 0 -98 1q-399 -449 -884 -1167q-358 -530 -554 -733q-392 -409 -778 -409q-139 0 -219 88.5t-80 229.5z" />
<glyph unicode="U" horiz-adv-x="2729" d="M436 195q0 185 149 426q177 286 581 711q369 388 675 635q126 93 356 292q31 31 31 45q0 16 -22 16q-114 0 -425 -179q-259 -148 -413 -269q-54 -44 -83 -44q-61 0 -61 51q0 45 237 210q525 364 785 364q125 0 125 -127q0 -125 -210 -313q-465 -417 -908 -891 q-688 -735 -688 -981q0 -58 38 -58q116 0 588 284q328 200 733 524l695 577q136 112 351 335l339 353q320 324 362 324q43 0 83 -36.5t40 -77.5q0 -26 -33 -58q-764 -771 -1191 -1289q-617 -744 -617 -892q0 -76 92 -76q15 0 39.5 7t36.5 7q18 0 18 -16q0 -33 -74 -54 q-56 -17 -101 -17q-140 0 -140 154q0 304 600 1034l-790 -661q-700 -543 -966 -543q-96 0 -164 69t-68 164z" />
<glyph unicode="V" horiz-adv-x="2577" d="M529 1191q0 192 351 532q318 308 731 561q423 261 623 261q135 0 135 -132q0 -85 -88 -216q-66 -94 -359 -416q-1055 -1158 -1055 -1598q0 -159 139 -159q277 0 946 589t1069 1131t400 692q0 51 -54 51q-138 0 -513.5 -366.5t-370.5 -487.5l2 -44q2 -27 -18 -27t-40 31 t-20 52q0 85 210 342q165 201 357 362q264 225 429 225q134 0 134 -134q0 -266 -464 -876q-371 -489 -937 -987q-730 -639 -1133 -639q-143 0 -223 118q-70 103 -70 252q0 336 398 854q240 315 738 815q398 398 398 445q0 34 -41 34q-207 0 -882 -541q-680 -545 -680 -726 q0 -31 32 -31q94 0 319.5 175t238.5 175q20 0 20 -20q0 -74 -239 -252.5t-342 -178.5q-141 0 -141 134z" />
<glyph unicode="W" horiz-adv-x="3466" d="M400 197q0 333 476 869q315 357 883 838q476 406 476 420q0 24 -29 24q-141 0 -660 -332q-525 -335 -525 -438q0 -21 27 -21q34 0 136 56l139 76q33 2 33 -33q0 -41 -177.5 -124.5t-240.5 -83.5q-114 0 -114 112q0 102 271 333q223 190 576 373q403 210 630 210 q97 0 97 -83q0 -127 -304 -407q-1580 -1463 -1580 -1852q0 -101 91 -101q249 0 1171 848q523 482 1104 1083q63 72 201 199q45 33 67 33q27 0 56 -33.5t29 -61.5q0 -39 -324 -407q-406 -460 -599 -740q-324 -462 -324 -735q0 -181 152 -181q137 0 347 163q201 156 648 621 q444 459 781.5 938t337.5 564q0 36 -33 36q-83 0 -405 -275l-330 -280q-14 7 -14 25q0 112 334.5 382.5t483.5 270.5q110 0 110 -117q0 -214 -441 -809q-319 -431 -621 -757q-377 -405 -655 -621q-288 -222 -523 -222q-288 0 -288 349q0 233 146 518q84 162 292 461 l-760 -778q-610 -569 -887 -569q-116 0 -188.5 72.5t-72.5 186.5z" />
<glyph unicode="X" horiz-adv-x="2222" d="M-125 58q0 18 35 69q50 67 644 485q532 371 731 494q116 67 335 213l203 484q164 405 164 474q0 40 -32 40q-78 0 -342 -178q-239 -161 -330 -253q-47 -54 -145 -143q-18 -13 -34 -13q-42 0 -42 42q0 134 404 400q391 257 545 257q74 0 124.5 -54.5t50.5 -128.5 q0 -110 -106 -393l-152 -378q1377 889 1596 889q58 0 58 -65q0 -33 -123 -87q-320 -141 -1028 -578l-594 -365l-311 -778q-102 -261 -102 -353q0 -82 82 -82q13 0 39 4.5t39 4.5q31 0 31 -25q0 -27 -77 -47q-57 -17 -99 -17q-91 0 -142.5 63.5t-51.5 155.5q0 245 279 905 q-708 -430 -1452 -1002q-130 -100 -148 -100q-49 0 -49 60z" />
<glyph unicode="Y" horiz-adv-x="2686" d="M545 1225q0 185 403 527q288 244 674 453q469 255 753 255q155 0 155 -138q0 -170 -452 -604l-844 -791q-452 -464 -452 -701q0 -125 123 -125q250 0 930 527q408 315 867 735q192 175 779 778q173 179 211 179q37 0 75.5 -23.5t38.5 -55.5q0 -36 -38 -78l-2141 -2420 l-235 -235q-170 -169 -188 -230q21 5 70 45q44 38 62 38q16 0 23 -14q-1 -28 -164 -172q-156 -140 -228 -230q-67 -83 -111 -83q-38 0 -72.5 36t-34.5 76q0 61 109 184l1265 1434l458 527q-601 -518 -785 -659q-609 -467 -864 -467q-268 0 -268 307q0 312 371 728 q163 183 614 581q342 302 525 482q219 213 219 257q0 19 -26 19q-112 0 -499 -177t-792.5 -517.5t-405.5 -436.5q0 -36 47 -36q112 0 306 92l184 93q15 -6 15 -17q0 -65 -226 -172q-214 -101 -305 -101q-146 0 -146 130z" />
<glyph unicode="Z" horiz-adv-x="2219" d="M-635 -997q0 164 284 443q248 241 650 454q459 245 771 245q52 0 99 -7q18 45 18 85q0 76 -61 108q-337 -136 -523 -136q-91 0 -91 67q0 80 178 142q146 50 251 50q31 0 91.5 -6t91.5 -6q81 0 556 304q376 240 697 546q448 428 448 708q0 179 -260 179q-293 0 -688 -121 q-367 -114 -648 -273q-290 -167 -290 -223q0 -24 35 -24q132 0 376 102q295 123 370 139l14 -14q-2 -62 -367 -199q-357 -134 -469 -134q-134 0 -134 99q0 145 300 346q288 190 670 319q404 133 728 133q488 0 488 -436q0 -345 -414.5 -765t-1288.5 -744q65 -73 65 -174 q0 -40 -12 -103q23 3 44 -16.5t21 -43.5q0 -58 -55 -58q-14 16 -47 44q-134 -375 -708.5 -768.5t-978.5 -393.5q-211 0 -211 132zM-550 -988q0 -62 83 -62q192 0 637 274q368 224 590 418q197 173 366 418q-33 7 -65 7q-402 0 -1006.5 -440t-604.5 -615z" />
<glyph unicode="[" horiz-adv-x="1136" d="M-632 -597l2833 3292h494l-78 -99l-309 -2l-2665 -3090l310 -2l-71 -99h-514z" />
<glyph unicode="\" horiz-adv-x="2897" d="M1591 2422q0 130 110 130q24 0 24 -90q0 -60 119 -677l228 -1142l114 -482q96 -404 96 -442q0 -29 -38.5 -60.5t-69.5 -33.5l-18 8q-74 76 -321 1319q-244 1225 -244 1470z" />
<glyph unicode="]" horiz-adv-x="1136" d="M-695 -583l105 100h306l2686 3064h-306l94 100h491l-2867 -3264h-509z" />
<glyph unicode="^" horiz-adv-x="1853" d="M407 1064l1019 1532h22l988 -1532h-123l-780 1193l-796 -1193h-330z" />
<glyph unicode="_" horiz-adv-x="1853" d="M586 -324h1669v-139h-1669v139z" />
<glyph unicode="`" horiz-adv-x="1853" d="M1323 1531q0 24 31 50t54 26q36 0 83 -99q9 -22 87 -156q71 -121 71 -128q0 -28 -36 -28q-49 0 -170 149q-120 143 -120 186z" />
<glyph unicode="a" horiz-adv-x="1384" d="M-445 24q0 32 43 39q170 27 471 263l233 183l375 298q257 178 440 178q136 0 152 -136q70 67 98 67q59 0 59 -49q0 -63 -277.5 -387t-277.5 -379q0 -38 59.5 -39.5t59.5 -30.5q0 -36 -123 -36q-121 0 -121 106q0 85 97 243l-224 -190q-165 -123 -262 -123 q-156 0 -156 157q0 87 42 192q-484 -380 -667 -380q-21 0 -21 24zM366 167q0 -49 47 -49q103 0 442.5 312t339.5 421q0 59 -53 59q-107 0 -441.5 -318.5t-334.5 -424.5z" />
<glyph unicode="b" horiz-adv-x="1413" d="M-445 22q0 32 47 41q184 38 499 288q350 277 666 670q475 588 813 872q353 295 469 295q114 0 114 -112q0 -123 -230 -384q-195 -220 -724 -559q-74 -43 -215 -136q-24 -16 -58 -74q94 69 186 69q80 0 133.5 -58t53.5 -139q0 -232 -259 -507q-263 -281 -493 -281 q-219 0 -219 226q0 120 104 334q-281 -252 -395 -337q-302 -230 -471 -230q-21 0 -21 22zM454 165q0 -75 71 -75q168 0 429 343q-168 70 -168 220q0 57 38 140q-370 -469 -370 -628zM854 655q0 -123 142 -166q171 206 171 336q0 93 -76 93q-88 0 -162.5 -86t-74.5 -177z M1100 1137q717 440 920 773q71 114 71 152q0 21 -19 21q-83 0 -494 -423q-333 -342 -478 -523z" />
<glyph unicode="c" horiz-adv-x="1134" d="M-445 22q0 32 43 41q169 33 456 252l503 402q413 338 636 338q117 0 117 -90q40 0 40 -36q0 -31 -45 -33q-36 -129 -136 -255q-119 -152 -230 -152q-65 0 -65 59q0 86 141 221q125 122 225 163l3 20q0 25 -25 25q-118 0 -432 -324t-314 -452q0 -82 69 -114 q35 -16 129 -25q68 -8 68 -31q0 -36 -126 -36q-283 0 -283 257q0 97 73 253l-378 -297q-294 -208 -448 -208q-21 0 -21 22zM957 592l15 -15q49 0 136 113q74 96 101 163q-52 -24 -148 -120q-104 -101 -104 -141z" />
<glyph unicode="d" horiz-adv-x="1384" d="M-445 22q0 32 36 41q139 35 253 104q172 101 482.5 372.5t478.5 370.5q120 71 216 71q161 0 168 -134q272 342 616 731q528 601 631 601q58 0 58 -65q0 -54 -146 -208q-274 -284 -815 -920q-664 -780 -664 -881q0 -42 59.5 -43.5t59.5 -30.5q0 -36 -87 -36 q-143 0 -143 117q0 94 120 293q-357 -380 -507 -380q-139 0 -139 149q0 83 79 260l-342 -262q-253 -172 -393 -172q-21 0 -21 22zM386 157q0 -38 36 -38q103 0 409 309t306 412q0 52 -49 52q-127 0 -414.5 -300.5t-287.5 -434.5z" />
<glyph unicode="e" horiz-adv-x="1093" d="M-445 24q0 32 47 39q110 18 311 136q221 127 360 159q84 201 344 422q277 237 473 237q144 0 144 -123q0 -161 -305 -351q-225 -141 -460 -221q-26 -58 -26 -121q0 -94 66 -123q32 -13 123 -16q65 -2 65 -31q0 -45 -223 -45q-235 0 -235 204q0 47 13 103 q-91 -21 -341 -166q-221 -127 -335 -127q-21 0 -21 24zM491 395q166 81 351 220q246 183 246 290q0 43 -40 43q-118 0 -320 -217q-181 -197 -237 -336z" />
<glyph unicode="f" horiz-adv-x="1190" d="M-445 24q0 28 47 39q70 15 155 55q143 61 542 387q325 264 535 460q285 264 1076 1155q101 114 159 114q67 0 67 -67q0 -46 -35 -98l-304 -342l-356 -395l-731 -845h3q125 0 125 -152q0 -281 -409 -856q-424 -594 -675 -594q-76 0 -121.5 58t-45.5 136q0 88 60 228 q94 217 516 765l583 730l-612 -503q-366 -299 -558 -299q-21 0 -21 24zM-295 -970q0 -80 71 -80q166 0 496 435q266 351 390 610q-200 3 -200 190q-757 -942 -757 -1155zM529 174q0 -120 126 -120h31q80 169 80 290q0 85 -67 85q-60 0 -118 -98q-52 -90 -52 -157z" />
<glyph unicode="g" horiz-adv-x="1348" d="M-677 -963q0 228 338.5 536.5t943.5 451.5q155 174 251 317q-184 -161 -233 -197q-163 -120 -275 -120q-133 0 -133 160q0 101 62 222q-255 -199 -328 -246q-239 -161 -371 -161q-23 0 -23 22q0 30 43 41q192 46 476 266l507 404q366 268 552 268q150 0 150 -163v-9 q85 98 122 98q52 0 52 -60q0 -56 -608 -811q11 0 42 2q25 2 39 2q24 0 24 -29q0 -31 -71 -38l-94 -6q-881 -1093 -1296 -1093q-170 0 -170 143zM-614 -957q0 -77 67 -77q152 0 567 406q309 302 519 565q-403 -98 -778 -406.5t-375 -487.5zM380 161q0 -45 34 -45 q102 0 448 306q354 315 354 436q0 65 -59 65q-116 0 -446.5 -317.5t-330.5 -444.5z" />
<glyph unicode="h" horiz-adv-x="1522" d="M-445 22q0 32 36 41q150 38 264 109q212 130 636 489l365 309q116 98 643 715q474 556 519 556q65 0 65 -82q0 -56 -363 -485l-1070 -1260q655 583 876 583q98 0 98 -103q0 -110 -310.5 -419.5t-310.5 -364.5q0 -50 99 -50q26 0 26 -29q0 -35 -89 -35q-158 0 -158 133 q0 152 243 400q297 304 320 345q2 22 -21 22q-100 0 -507 -346q-304 -257 -489 -441q-74 -75 -121 -109q-27 0 -51.5 34.5t-24.5 63.5q0 41 248 356l288 362q-176 -164 -438 -371l-348 -266q-262 -179 -404 -179q-21 0 -21 22z" />
<glyph unicode="i" horiz-adv-x="953" d="M-445 24q0 32 36 39q114 22 208 75q118 65 500 367l554 465q36 13 97 13q62 0 62 -71q0 -76 -291.5 -410t-291.5 -393q0 -49 105 -49q23 0 23 -29q0 -35 -119 -35q-136 0 -136 131q0 152 404 635l-494 -404q-438 -358 -636 -358q-21 0 -21 24zM1142 1452q0 74 89 134 q79 54 159 54q94 0 94 -103q0 -75 -94 -127q-81 -47 -161 -47q-87 0 -87 89z" />
<glyph unicode="j" horiz-adv-x="903" d="M-853 -939q0 217 269 532t705 438q344 380 663 807q-268 -237 -532 -449q-485 -389 -676 -389q-21 0 -21 22q0 32 50 41q64 11 169 60q116 54 454 328q328 266 503 434q167 161 225 161q96 0 96 -72q0 -65 -89 -172l-617 -750q79 8 137 8q24 0 24 -29q0 -31 -89 -35 l-121 -5q-163 -194 -652 -713q-307 -326 -405 -326q-93 0 -93 109zM-782 -903q0 -45 31 -45q69 0 818 897q-371 -116 -610 -401t-239 -451zM1144 1452q0 76 89 134q79 54 159 54q94 0 94 -103q0 -73 -94 -127q-83 -47 -163 -47q-85 0 -85 89z" />
<glyph unicode="k" horiz-adv-x="1482" d="M-445 24q0 30 36 39q239 56 646 397l516 431q177 148 572 588l507 579q119 143 168 143q63 0 63 -63q0 -80 -155 -272l-225 -255l-722 -833q268 192 393 192q146 0 146 -145q0 -163 -285 -278q-232 -95 -433 -96q65 -154 168 -350q35 -41 112 -41q26 0 26 -29 q0 -40 -141 -40q-69 0 -118 36q-45 31 -199 357l-181 -217q-152 -178 -181 -178q-78 0 -78 91q0 52 284 396l308 360l-485 -407l-331 -262q-238 -167 -390 -167q-21 0 -21 24zM728 492q271 35 446.5 149t175.5 193q0 42 -52 42q-199 0 -570 -384z" />
<glyph unicode="l" horiz-adv-x="1051" d="M-445 22q0 34 67 45q76 11 175 65q120 63 408 277q209 152 443 337q270 403 742 876q525 525 704 525q83 0 83 -89q0 -228 -535 -729q-339 -315 -737 -610q-92 -69 -230 -292q-143 -228 -143 -322q0 -45 100 -45q23 0 23 -29q0 -36 -94 -36q-148 0 -148 152 q0 148 141 438l-447 -337q-362 -248 -531 -248q-21 0 -21 22zM930 813q1184 961 1184 1249q0 29 -32 29q-71 0 -560 -553q-465 -528 -592 -725z" />
<glyph unicode="m" horiz-adv-x="2016" d="M-445 24q0 30 36 39q132 33 204 73q115 59 478 349q165 129 475 409q115 121 166 121q101 0 101 -65q0 -83 -204 -345q394 362 545 362q50 0 92 -32t42 -81q0 -72 -98 -211q366 360 575 360q122 0 122 -98q0 -127 -296 -431t-296 -365q0 -47 61.5 -48t61.5 -30 q0 -36 -105 -36q-141 0 -141 124q0 142 258.5 436t258.5 328q0 22 -27 22q-108 0 -474 -342q-302 -282 -445 -458q-87 -109 -129 -109q-70 0 -70 66q0 67 284 383.5t284 390.5q0 33 -36 33q-94 0 -429 -315q-288 -272 -406 -424q-92 -119 -161 -119q-61 0 -61 54 q0 69 251 382l294 362l-578 -478q-436 -331 -612 -331q-21 0 -21 24z" />
<glyph unicode="n" horiz-adv-x="1554" d="M-445 22q0 32 50 43q69 13 162 54q132 58 539 388q366 297 527 454q27 27 85 65q29 11 61 11q31 0 62.5 -20.5t31.5 -49.5q0 -33 -289 -419q497 422 698 422q129 0 129 -121q0 -107 -291.5 -386.5t-291.5 -337.5t65 -62.5t65 -31.5q0 -36 -130 -36q-150 0 -150 134 q0 112 145 284q74 88 268 273q144 138 144 167q0 23 -32 23q-103 0 -449 -275q-288 -228 -427 -375q-178 -186 -216 -186q-29 0 -52.5 28t-23.5 59q0 41 250 336l299 353l-464 -376l-342 -263q-260 -177 -400 -177q-23 0 -23 22z" />
<glyph unicode="o" horiz-adv-x="1303" d="M-445 22q0 34 36 41q110 20 188 64q136 74 442 316l478 393q137 121 168 121q45 0 100 -50q105 79 186 79q123 0 123 -132q0 -197 -315 -537q-320 -344 -518 -344q-184 0 -184 194q0 101 117 316l-372 -284q-286 -199 -428 -199q-21 0 -21 22zM443 181q0 -87 84 -87 q135 0 423 328q-152 36 -152 195q0 42 15 89q-370 -322 -370 -525zM871 606q0 -101 119 -126q67 63 134 172q74 124 74 199q0 68 -60 68q-88 0 -177.5 -111t-89.5 -202z" />
<glyph unicode="p" horiz-adv-x="1493" d="M-583 -776q0 86 371 508l377 411l646 706q-239 -212 -530 -440l-324 -248q-238 -161 -381 -161q-21 0 -21 24q0 30 45 39q62 11 157 55q114 49 478 336l449 375q389 320 418 320q67 0 67 -74q0 -29 -181 -270q214 180 348 180q141 0 141 -152q0 -198 -221 -446 q-190 -215 -396 -322q21 -5 213 -5q24 0 24 -29q0 -38 -141 -38q-116 0 -196 34q-43 -16 -88 -16q-170 0 -170 223q0 14 1 30l-968 -1089q-35 -40 -64 -40q-54 0 -54 89zM563 224q0 -101 72 -101q20 0 37 9l-33 120q-27 96 -40 96q-36 0 -36 -124zM619 384q53 0 78 -93 q34 -117 47 -134q210 120 390 359t180 317q0 50 -56 50q-107 0 -339 -202q-166 -145 -300 -297z" />
<glyph unicode="q" horiz-adv-x="1408" d="M-445 22q0 34 41 41q174 33 391 199l708 543q275 212 483 212q172 0 172 -128q0 -58 -34 -122q60 -21 60 -72q0 -14 -522 -635h134q24 0 24 -29q0 -36 -101 -36q-17 0 -37 1q17 -58 17 -94q0 -195 -312 -581q-315 -393 -489 -393q-101 0 -101 124q0 211 384 667l481 580 q-349 -290 -487 -290q-162 0 -162 156q0 101 94 259q-275 -214 -339 -256q-248 -168 -384 -168q-21 0 -21 22zM112 -968q0 -29 27 -29q84 0 387 343.5t303 557.5q0 47 -25 94q-189 -213 -397 -485q-295 -387 -295 -481zM371 147q0 -42 40 -42q148 0 510 314t362 459 q0 52 -43 52q-159 0 -514 -318.5t-355 -464.5z" />
<glyph unicode="r" horiz-adv-x="1053" d="M-445 24q0 30 49 39q59 11 157 56q147 66 438 310q259 215 400 371q-9 60 -9 72q0 49 117 153t160 104q42 0 42 -38q0 -32 -46 -108q205 0 205 -163q0 -129 -264.5 -410t-264.5 -316q0 -32 35 -36l60 2q25 0 25 -29q0 -36 -105 -36q-134 0 -134 119q0 118 134 293 q83 111 248 274q134 132 134 144q0 28 -31 28q-27 0 -103 -21t-91 -34q-841 -798 -1135 -798q-21 0 -21 24z" />
<glyph unicode="s" horiz-adv-x="1055" d="M-445 22q0 32 36 41q67 17 206 73q131 70 663 514q505 420 517 420q42 0 82.5 -36.5t40.5 -77.5q0 -132 -206 -465q-179 -288 -313 -431q78 0 78 -29q0 -36 -76 -36q-20 0 -59 7t-59 7q-14 0 -43 -5.5t-44 -5.5q-230 0 -230 312q-376 -310 -572 -310q-21 0 -21 22z M215 282q0 -61 37 -126q41 -75 97 -75q22 0 35 15l-51 143q-40 105 -78 105q-40 0 -40 -62zM264 409q67 -11 112 -105l60 -152q127 105 279 362q141 239 197 422z" />
<glyph unicode="t" horiz-adv-x="1000" d="M-445 24q0 30 36 39q61 13 186 64q122 63 540 391q309 240 389 313q143 130 318 351l-651 -25q-54 0 -54 29q0 23 88 36q125 20 351 34q252 15 353 27l259 310q208 246 252 246q54 0 54 -69q0 -74 -329 -487q190 13 315 13q83 0 83 -33q0 -36 -201 -48l-275 -10 l-404 -505q-382 -497 -382 -593q0 -45 61.5 -46t61.5 -30q0 -35 -79 -35q-161 0 -161 131q0 103 105 295l157 264l-536 -422q-335 -264 -516 -264q-21 0 -21 24z" />
<glyph unicode="u" horiz-adv-x="1484" d="M-445 24q0 30 52 41q67 13 158 54q105 49 443 315q156 122 458 380q51 53 163 143q45 29 83 29q105 0 105 -68q0 -71 -253.5 -351.5t-253.5 -399.5q0 -31 33 -31q109 0 483.5 414.5t425.5 414.5q25 0 49.5 -26.5t24.5 -53.5q0 -43 -280.5 -366.5t-280.5 -413.5 q0 -42 61.5 -43.5t61.5 -30.5q0 -35 -91 -35q-152 0 -152 116q0 83 76 228q-315 -307 -463 -307q-112 0 -112 124q0 147 130 330l234 275l-518 -429q-438 -333 -616 -333q-21 0 -21 24z" />
<glyph unicode="v" horiz-adv-x="1400" d="M-445 22q0 34 45 41q63 11 157 51q111 47 498 357q176 137 509 430q121 120 181 120q103 0 103 -103q0 -67 -250 -361.5t-250 -400.5q0 -56 53 -56q123 0 445 343q-56 11 -56 73q0 118 155.5 310.5t266.5 192.5q63 0 63 -67q0 -177 -373 -561q-378 -387 -572 -387 q-152 0 -152 164q0 142 156 355l253 313q-177 -164 -479 -403l-337 -261q-253 -172 -395 -172q-21 0 -21 22zM1064 532q0 -29 35 -36q70 71 164 197q114 156 114 210l-14 15q-54 0 -176.5 -160.5t-122.5 -225.5z" />
<glyph unicode="w" horiz-adv-x="1882" d="M-445 22q0 30 49 41q74 17 163 58q112 51 506 366q179 141 525 443q134 131 181 131q33 0 68 -34.5t35 -67.5q0 -43 -269.5 -387t-269.5 -409q0 -53 42 -53q99 0 446.5 421t398.5 421q63 0 63 -63q0 -42 -200 -327t-200 -410q0 -63 53 -63q90 0 398 349q-40 36 -40 103 q0 136 154 328q161 199 288 199q43 0 43 -53q0 -164 -353 -582q-358 -426 -523 -426q-152 0 -152 158q0 110 83 277q-179 -203 -235 -257q-177 -172 -280 -172q-131 0 -131 141q0 136 136 346l221 302l-518 -424q-461 -378 -661 -378q-21 0 -21 22zM1577 563q0 -38 27 -53 q291 333 291 437q0 25 -20 25q-67 0 -182.5 -164t-115.5 -245z" />
<glyph unicode="x" horiz-adv-x="1337" d="M-445 22q0 32 43 41q64 11 154 51q110 45 510 362q185 145 540 451q143 134 168 134q89 0 89 -78q0 -71 -36 -181l-58 -176q105 85 322 245q255 188 282 188q38 0 38 -38q0 -31 -92 -83q-103 -60 -585 -420q-105 -351 -105 -402q0 -47 58 -54.5t58 -30.5q0 -36 -94 -36 q-185 0 -185 153q0 62 35 212l-273 -195l-229 -165q-28 0 -28 22q0 27 255 222l302 228l125 411l-829 -675q-263 -208 -444 -208q-21 0 -21 22z" />
<glyph unicode="y" horiz-adv-x="1524" d="M-445 24q0 30 36 39q228 56 630 386l317 261l204 181q172 148 194 148q47 0 89.5 -31.5t42.5 -77.5l-286 -331q-286 -338 -286 -451q0 -32 36 -32q109 0 530 402q310 295 515 526q41 47 59 47q35 0 72 -24t37 -57q0 -18 -24 -43q-333 -362 -729 -911l112 4q24 0 24 -29 q0 -33 -84 -40l-112 -5l-505 -625q-454 -518 -644 -518q-91 0 -91 122q0 269 356 623t732 439l375 483l-297 -264q-272 -224 -369 -224q-114 0 -114 161q0 139 132 327l221 279q-214 -190 -491 -411q-226 -179 -306 -231q-219 -147 -355 -147q-21 0 -21 24zM-239 -994 q0 -61 44 -61q173 0 912 1004q-364 -117 -660 -429.5t-296 -513.5z" />
<glyph unicode="z" horiz-adv-x="1239" d="M-516 -894q0 221 353 539.5t797 414.5q39 54 39 107q0 23 -18 39q-204 -94 -313 -94q-103 0 -103 49q0 60 148 112q127 46 207 46q43 0 81 -9q386 331 386 546q0 94 -71 94t-360 -246q-436 -373 -550 -458q-332 -246 -504 -246q-21 0 -21 22q0 32 36 41q204 53 469 256 l244 188l351 297q264 222 337.5 244t115.5 22q181 0 181 -176q0 -270 -549 -632q76 -48 76 -143q0 -202 -455 -673.5t-727 -471.5q-150 0 -150 132zM-456 -894q0 -62 60 -62q172 0 539 388q291 307 451 557q-408 -90 -729 -390.5t-321 -492.5z" />
<glyph unicode="{" horiz-adv-x="1136" d="M-366 -445q0 154 268 496l496 588q268 315 268 404q0 36 -29 45q-40 12 -47 22q0 45 88 56.5t136 48.5q58 43 353 365l524 579q329 333 624 456q194 80 295 80q54 0 54 -31q0 -40 -96 -47q-188 -14 -382 -172q-208 -170 -557 -610q-221 -277 -366 -430 q-291 -312 -432 -328q23 -25 23 -53q0 -135 -542 -743.5t-542 -725.5q0 -65 49 -76q5 -2 98 -2q18 0 18 -18q0 -56 -141 -56q-160 0 -160 152z" />
<glyph unicode="|" horiz-adv-x="1853" d="M1336 -617v3088h172v-3088h-172z" />
<glyph unicode="}" horiz-adv-x="1136" d="M-643 -567q0 40 96 48q214 16 425 209.5t518 577.5q245 306 408 478q327 353 474 373q-31 21 -31 59q0 114 502.5 680.5t502.5 684.5q0 65 -49 76q-6 2 -98 2q-18 0 -18 18q0 56 141 56q167 0 167 -152q0 -141 -248 -461l-462 -549q-248 -297 -248 -380q0 -38 29 -47 q42 -13 49 -24q0 -43 -100 -56q-106 -14 -213 -130l-230 -248l-588 -650q-386 -394 -701 -523q-184 -74 -271 -74q-55 0 -55 32z" />
<glyph unicode="~" horiz-adv-x="2470" d="M943 952q230 349 516 349q108 0 315.5 -74t314.5 -74q215 0 380 208l47 -31q-78 -135 -212 -235q-148 -110 -289 -110q-104 0 -332 78.5t-347 78.5q-111 0 -198 -65q-56 -42 -146 -156z" />
<glyph unicode="&#xa1;" horiz-adv-x="881" d="M42 49q0 159 1410 1647q20 22 39 22q40 0 40 -51q0 -27 -49 -107q-65 -103 -666 -814q-648 -766 -718 -766q-56 0 -56 69zM1524 1899q0 67 76 145.5t143 78.5q87 0 87 -89q0 -74 -69.5 -150t-144.5 -76q-92 0 -92 91z" />
<glyph unicode="&#xa2;" d="M614 172q0 20 204 295q-78 62 -78 174q0 210 246 429q241 215 453 215q204 248 230 248q31 0 31 -29q0 -16 -82 -114l-101 -123q41 -24 41 -69q0 -70 -79 -184q-83 -120 -147 -120q-31 0 -54.5 31.5t-23.5 64.5q0 54 84 152q-129 -60 -290 -232q-179 -191 -179 -309 q0 -98 94 -98q96 0 231.5 102.5t139.5 102.5q24 0 24 -24q0 -67 -162 -166q-152 -96 -235 -96q-29 0 -70 11q-105 -154 -234 -308q-43 16 -43 47zM1316 994q0 -13 13 -18q34 0 78.5 72t45.5 114q-34 -18 -83 -76q-54 -62 -54 -92z" />
<glyph unicode="&#xa3;" d="M-203 201q0 127 116 206q103 69 235 69q158 0 362 -89q216 190 442 440q-492 0 -492 67q0 47 72 44l512 -20l480 461q328 286 565 286q152 0 175 -125q46 6 69 6q54 0 54 -36q0 -22 -47 -31l-67 -7q-16 -143 -121 -292q-118 -168 -246 -168q-109 0 -109 126 q0 127 122 243q108 103 242 136q4 16 4 23q0 58 -62 58q-137 0 -823 -693l581 -20q25 -11 25 -34q0 -53 -141 -53q-264 0 -552 16l-505 -510q333 -203 494 -203q34 0 87.5 16.5t62.5 16.5q20 0 20 -18q0 -44 -101 -94q-94 -47 -149 -47q-163 0 -546 222q-241 -221 -480 -221 q-110 0 -190 57q-89 63 -89 168zM-129 194q0 -123 156 -123q179 0 369 204q-134 74 -296 74q-229 0 -229 -155zM1861 1128q0 -40 34 -40q71 0 159 139q78 121 96 210q-101 -38 -188 -119q-101 -96 -101 -190z" />
<glyph unicode="&#xa4;" d="M362 583l237 136q94 381 521 734l-63 230l132 75l60 -210q166 112 273 112q45 0 69 -20q94 58 176 58q188 0 211 -185l250 143l31 -132l-293 -168q-100 -373 -464 -710l62 -222l-132 -75l-55 192q-229 -179 -459 -179q-104 0 -196 54q-101 60 -121 154l-208 -119z M702 634q0 -147 203 -147q208 0 471 212q222 181 358 396q139 223 139 339q0 157 -128 157q-91 0 -191.5 -75t-110.5 -75q-31 0 -33 43q-208 -90 -449 -362q-259 -291 -259 -488z" />
<glyph unicode="&#xa5;" d="M174 525q0 43 65 43q213 0 514 -25q49 62 197 228l-383 18q-171 7 -171 58q0 45 66 42l566 -27q22 10 100 300q74 284 74 338q0 37 -18 37q-100 0 -201.5 -83.5t-113.5 -83.5q-62 0 -62 49q0 69 165 147q148 68 233 68q91 0 152.5 -52.5t61.5 -140.5q0 -105 -81 -420 q894 521 1098 521q85 0 85 -61q0 -19 -99 -64q-728 -335 -1131 -570q173 -2 369 -13q20 -9 20 -32q0 -53 -127 -53q-156 0 -400 11q-51 -25 -230 -226l516 -22q18 -11 18 -32q0 -51 -127 -51q-282 0 -483 14l-190 -240q-157 -196 -181 -196q-78 0 -78 65q0 51 279 380 l-362 19q-141 7 -141 54z" />
<glyph unicode="&#xa6;" horiz-adv-x="1853" d="M1336 568h172v-1185h-172v1185zM1336 1243v1228h172v-1228h-172z" />
<glyph unicode="&#xa7;" horiz-adv-x="1715" d="M-123 -87q0 150 165 234q132 65 298 65q56 0 56 -31q0 -36 -160 -65t-160 -120q0 -85 217 -85q241 0 531 91q371 117 371 297q0 105 -152 231l-285 227q-152 143 -152 286q0 237 281 410q217 136 494 187q-89 119 -89 246q0 286 402 467q322 145 650 145q342 0 342 -197 q0 -127 -134 -207q-116 -70 -250 -70q-105 0 -105 45q0 36 102 36q193 0 193 130q0 80 -184 80q-212 0 -511 -96q-365 -116 -365 -271q0 -80 154 -192l284 -210q154 -140 154 -283q0 -249 -283 -427q-222 -143 -508 -186q110 -114 110 -246q0 -337 -366 -527 q-295 -152 -666 -152q-434 0 -434 188zM757 1138q0 -97 318 -351l80 -1q192 0 429 94q288 116 288 273q0 74 -142 199l-201 165q-772 -96 -772 -379z" />
<glyph unicode="&#xa8;" horiz-adv-x="1853" d="M1276 1300q0 65 59 129t122 64q80 0 80 -79q0 -58 -64.5 -124t-122.5 -66q-74 0 -74 76zM1605 1300q0 63 59 128t122 65q80 0 80 -78q0 -61 -62.5 -125.5t-123.5 -64.5q-75 0 -75 75z" />
<glyph unicode="&#xa9;" horiz-adv-x="2441" d="M427 505q0 375 386 891q320 427 702 713q456 342 691 342q85 0 134 -47q147 119 342 119q393 0 393 -451q0 -289 -322 -825q-291 -481 -724 -840q-519 -429 -988 -429q-252 0 -426 136q-188 147 -188 391zM507 424q0 -167 146 -257q123 -75 301 -75q447 0 1003 449 q467 378 756 838q284 455 284 710q0 152 -67 246q-77 109 -224 109q-172 0 -397.5 -155t-230.5 -155q-56 0 -40 105q-597 -259 -1064 -877t-467 -938zM919 802q0 242 283 536q253 262 614 455t597 193q177 0 192 -151q29 8 39 8q31 0 31 -29q0 -28 -74 -51 q-42 -161 -234 -373q-206 -226 -351 -226q-97 0 -97 89q0 117 229 316q205 179 348 232q9 27 9 47q0 62 -78 62q-304 0 -843 -426q-558 -438 -558 -729q0 -145 183 -145q145 0 308 72q112 49 235 134l107 73q29 0 29 -42q0 -116 -261 -233q-233 -107 -374 -107 q-136 0 -232 78q-102 85 -102 217zM2000 1265l7 -7q64 2 239 195q145 160 205 254q-386 -235 -451 -442z" />
<glyph unicode="&#xaa;" horiz-adv-x="872" d="M811 1117q0 146 223 317q213 161 365 161q78 0 105 -71q33 29 54 29q49 0 49 -40q0 -45 -174.5 -236t-176.5 -216q7 -8 49 -13q33 -5 33 -27q0 -35 -67 -35q-113 0 -113 76q0 38 26 91q-172 -147 -265 -147q-108 0 -108 111zM939 1100q0 -18 18 -18q58 0 269 181t211 239 q0 24 -20 24q-61 0 -269.5 -184t-208.5 -242z" />
<glyph unicode="&#xab;" horiz-adv-x="1694" d="M272 541q0 53 206 205q302 222 507 427q32 32 50 32q29 0 29 -41q0 -176 -633 -616q514 -333 514 -425q0 -43 -45 -43q-31 0 -93 58q-49 47 -420 278q-115 73 -115 125zM726 568q0 38 58 80q304 223 566 472q31 29 51 29q31 0 31 -38q0 -81 -234 -291 q-199 -179 -309 -243q461 -251 461 -371q0 -38 -49 -38q-30 0 -137 89q-196 116 -418 268q-20 22 -20 43z" />
<glyph unicode="&#xac;" horiz-adv-x="1853" d="M630 854v134h1582v-988h-308v854h-1274z" />
<glyph unicode="&#xad;" horiz-adv-x="1038" d="M56 543q0 83 657 83h179q131 -12 131 -78q0 -54 -64 -56l-302 -7l-416 -9q-185 0 -185 67z" />
<glyph unicode="&#xae;" horiz-adv-x="2441" d="M427 505q0 375 386 891q320 427 702 713q456 342 691 342q85 0 134 -47q147 119 342 119q393 0 393 -451q0 -289 -322 -825q-291 -481 -724 -840q-519 -429 -988 -429q-252 0 -426 136q-188 147 -188 391zM507 424q0 -167 146 -257q123 -75 301 -75q447 0 1003 449 q467 378 756 838q284 455 284 710q0 152 -67 246q-77 109 -224 109q-172 0 -397.5 -155t-230.5 -155q-56 0 -40 105q-597 -259 -1064 -877t-467 -938zM782 574q0 94 487 610q394 420 592 595q-152 -36 -446 -163q-29 -12 -41 -12q-51 0 -51 65q0 79 400 199q255 76 500 76 q367 0 367 -315q0 -233 -340 -382q-264 -118 -541 -127q43 -182 130 -447q20 -39 90 -41q24 -2 24 -20q0 -29 -54 -49q-46 -16 -82 -16q-114 0 -146 164q-35 172 -53 236q-45 159 -98 210q-27 25 -27 39q0 38 105 38q40 0 65 -25q152 0 370.5 81.5t332.5 181.5 q146 128 146 220q0 136 -253 136q-80 0 -241 -20l2 -25q2 -15 -49 -65l-536 -547q-297 -317 -494 -585q-56 -76 -92 -76q-67 0 -67 64z" />
<glyph unicode="&#xaf;" horiz-adv-x="1853" d="M586 2749v140h1669v-140h-1669z" />
<glyph unicode="&#xb0;" horiz-adv-x="1210" d="M1057 1967q0 171 122 286.5t293 115.5q170 0 291 -116.5t121 -285.5q0 -170 -121 -287.5t-291 -117.5q-171 0 -293 117.5t-122 287.5zM1184 1967q0 -117 84 -199.5t202 -82.5q119 0 203.5 80.5t84.5 200.5q0 119 -83.5 200.5t-202.5 81.5q-120 0 -204 -80.5t-84 -200.5z " />
<glyph unicode="&#xb1;" d="M-136 98l91 101h1238l-91 -101h-1238zM655 1012l91 101h555l495 570l124 -3l-492 -567h556l-91 -101h-554l-496 -569l-124 2l494 567h-558z" />
<glyph unicode="&#xb2;" horiz-adv-x="1082" d="M608 1072q0 41 31 65q14 11 166 92l677 358q632 335 632 491q0 60 -72 60q-172 0 -446 -156l-251 -156q-20 0 -41 22t-21 42q0 77 292 222q284 143 412 143q91 0 165 -69.5t74 -160.5q0 -177 -458 -439l-581 -290l-356 -181q344 49 541 49q123 0 123 -56q0 -36 -103 -49 l-130 -7q-190 -17 -380.5 -50.5t-202.5 -33.5q-71 0 -71 104z" />
<glyph unicode="&#xb3;" horiz-adv-x="1082" d="M753 1149q0 67 47 134q53 75 116 75q38 0 38 -28l-71 -76q-40 -45 -40 -94q0 -76 136 -76q217 0 430 136t213 252q0 121 -205 121q-31 0 -88 -14.5t-84 -14.5q-52 0 -52 58q0 36 103 56q414 74 635 239q111 83 111 126q0 49 -105 49q-151 0 -373 -88l-216 -87 q-41 0 -41 54q0 85 246 170q212 73 328 73q96 0 179 -55q96 -63 96 -155q0 -123 -259 -243q-226 -107 -366 -108q225 -42 225 -209q0 -215 -283 -360q-235 -119 -472 -119q-248 0 -248 184z" />
<glyph unicode="&#xb4;" horiz-adv-x="1853" d="M1379 1305q0 42 196 179q190 134 226 134q43 0 43 -58q0 -70 -81 -116l-237 -134q-83 -47 -107 -47q-40 0 -40 42z" />
<glyph unicode="&#xb5;" horiz-adv-x="1484" d="M-583 -776q0 81 263 376l642 710l310 363q101 116 161 196q87 114 148 114q76 0 76 -65q0 -67 -253.5 -350.5t-253.5 -400.5q0 -31 33 -31q107 0 482.5 414.5t426.5 414.5q25 0 49.5 -27.5t24.5 -52.5q0 -40 -280.5 -364t-280.5 -416q0 -38 62.5 -43.5t62.5 -28.5 q0 -42 -96 -42q-147 0 -147 125q0 60 74 224q-183 -166 -210 -186q-154 -121 -253 -121q-65 0 -100 67l-827 -931q-29 -34 -60 -34q-54 0 -54 89z" />
<glyph unicode="&#xb6;" horiz-adv-x="2010" d="M62 -72q0 97 103 271q110 183 192 183q27 0 27 -29q0 -2 -120.5 -161t-120.5 -273q0 -87 89 -87q188 0 548 369q138 141 453 523l653 789q380 444 697 749l-221 10l-76 -2l-829 -941q-38 -44 -185.5 -123.5t-201.5 -79.5q-134 0 -134 204q0 344 443.5 744t935.5 400 q119 0 355.5 -20.5t355.5 -20.5q62 0 179.5 23.5t170.5 23.5q32 0 32 -24q0 -114 -642 -199l-1157 -1363l-509 -608q-466 -558 -841 -558q-197 0 -197 200z" />
<glyph unicode="&#xb7;" horiz-adv-x="684" d="M588 930q0 75 70 151t144 76q92 0 92 -89q0 -71 -74 -148.5t-145 -77.5q-87 0 -87 88z" />
<glyph unicode="&#xb8;" horiz-adv-x="1853" d="M167 -310q0 28 23 28q2 0 61 -24.5t106 -24.5q70 0 130 34q69 42 69 107q0 67 -94 67q-22 0 -63 -9t-61 -9q-25 0 -25 22q31 43 105 101q101 80 114 92h78q-76 -83 -163 -145q58 11 92 11q142 0 142 -105q0 -103 -98 -173q-89 -66 -196 -66q-50 0 -128 26q-92 30 -92 68z " />
<glyph unicode="&#xb9;" horiz-adv-x="1082" d="M1003 1052q0 90 847 932q-315 -154 -375 -154q-40 0 -40 38q0 25 51 42q226 74 534 266q81 50 107 50q70 0 70 -50q0 -40 -87 -120q-463 -423 -903 -937q-119 -140 -139 -140q-24 0 -44.5 24.5t-20.5 48.5z" />
<glyph unicode="&#xba;" horiz-adv-x="821" d="M847 1100q0 113 161 297q156 181 235 181q17 0 64 -27q63 44 117 44q89 0 89 -91q0 -125 -204.5 -328.5t-331.5 -203.5q-130 0 -130 128zM988 1110q0 -42 42 -42q78 0 242 175q-85 31 -85 140q-199 -168 -199 -273zM1258 1358q0 -48 58 -60q123 119 123 206q0 27 -25 27 q-49 0 -102.5 -61.5t-53.5 -111.5z" />
<glyph unicode="&#xbb;" horiz-adv-x="1694" d="M400 188q0 136 588 491q-427 298 -427 407q0 36 44 36q36 0 139 -101q96 -96 297 -230q110 -74 110 -112q0 -40 -67 -80q-308 -185 -603 -420q-32 -25 -50 -25q-31 0 -31 34zM760 101q0 171 686 567q-474 369 -474 465q0 42 43 42q31 0 96 -67q69 -73 256 -212 q240 -181 240 -230t-226 -190q-353 -221 -539 -384q-31 -27 -51 -27q-31 0 -31 36z" />
<glyph unicode="&#xbc;" horiz-adv-x="3089" d="M491 47q0 29 39 83q71 94 770 583l847 578l521 347q447 295 487 295t40 -43q0 -71 -480 -391l-838 -560l-1003 -704l-179 -135q-161 -122 -165 -122q-39 0 -39 69zM1006 1052q0 90 847 932q-315 -154 -374 -154q-40 0 -40 38q0 25 51 42q226 74 534 266q81 50 106 50 q71 0 71 -50q0 -40 -87 -120q-463 -423 -903 -937q-120 -140 -139 -140q-24 0 -45 24.5t-21 48.5zM2016 492q0 27 20 58q58 96 605.5 379.5t665.5 283.5q67 0 67 -46q0 -30 -98 -128l-128 -123l-346 -353q175 0 175 -63q0 -35 -43 -35q-138 0 -228 -5l-248 -272 q-183 -201 -215 -201q-60 0 -60 49q0 54 329 415l-432 -27q-64 0 -64 68zM2177 541l24 -2l409 17l463 472l-369 -174q-233 -114 -362 -206q-40 -29 -121 -80q-16 -7 -44 -27z" />
<glyph unicode="&#xbd;" horiz-adv-x="3091" d="M491 47q0 29 39 83q71 94 770 583l847 578l521 347q447 295 487 295t40 -43q0 -71 -480 -391l-838 -560l-1003 -704l-179 -135q-161 -122 -165 -122q-39 0 -39 69zM1006 1052q0 90 847 932q-315 -154 -374 -154q-40 0 -40 38q0 25 51 42q226 74 534 266q81 50 106 50 q71 0 71 -50q0 -40 -87 -120q-463 -423 -903 -937q-120 -140 -139 -140q-24 0 -45 24.5t-21 48.5zM1725 83q0 33 22 56q14 17 175 102l677 358q632 335 632 491q0 59 -73 59q-172 0 -447 -157l-249 -156q-20 0 -41 22.5t-21 42.5q0 78 291 223q285 143 413 143 q92 0 165.5 -69t73.5 -161q0 -177 -458 -440l-581 -289l-356 -181q343 49 541 49q123 0 123 -57q0 -21 -15 -32l-470 -58l-331 -49q-71 -11 -71 103z" />
<glyph unicode="&#xbe;" horiz-adv-x="3089" d="M491 47q0 29 39 83q71 94 770 583l847 578l521 347q447 295 487 295t40 -43q0 -71 -480 -391l-838 -560l-1003 -704l-179 -135q-161 -122 -165 -122q-39 0 -39 69zM757 1149q0 66 50.5 137.5t111.5 71.5q38 0 38 -28l-68 -77q-40 -46 -40 -93q0 -76 136 -76 q164 0 387 112q255 129 255 276q0 121 -206 121q-31 0 -87 -14.5t-83 -14.5q-55 0 -55 58q0 36 105 56q411 72 632 239q112 83 112 126q0 49 -103 49q-152 0 -375 -88l-213 -87q-42 0 -42 54q0 87 245 170q211 73 327 73q98 0 181 -55q94 -61 94 -155q0 -123 -257 -245 q-226 -105 -365 -106q224 -42 224 -209q0 -215 -282 -358q-236 -121 -473 -121q-249 0 -249 184zM2016 492q0 27 20 58q58 96 605.5 379.5t665.5 283.5q67 0 67 -46q0 -30 -98 -128l-128 -123l-346 -353q175 0 175 -63q0 -35 -43 -35q-138 0 -228 -5l-248 -272 q-183 -201 -215 -201q-60 0 -60 49q0 54 329 415l-432 -27q-64 0 -64 68zM2177 541l24 -2l409 17l463 472l-369 -174q-233 -114 -362 -206q-40 -29 -121 -80q-16 -7 -44 -27z" />
<glyph unicode="&#xbf;" horiz-adv-x="1393" d="M-80 261q0 123 89 246q105 146 405 320q181 105 574 292q371 177 493 251l146 107q123 89 129 89q40 0 40 -53q0 -108 -466 -380l-867 -483q-465 -275 -465 -400q0 -83 212 -83q203 0 471 88q237 78 423 188q36 22 56 22q38 0 38 -47q0 -175 -394 -317 q-330 -117 -560 -117q-324 0 -324 277zM1866 1826q0 71 74.5 147t144.5 76q87 0 87 -87q0 -74 -70.5 -151t-143.5 -77q-92 0 -92 92z" />
<glyph unicode="&#xc0;" horiz-adv-x="2812" d="M118 796q0 109 199 149q56 12 278 27l706 47q428 353 1222 916q1012 715 1207 715q98 0 98 -127q0 -107 -255 -423l-854 -1056h166q121 -12 121 -74q0 -40 -88 -40l-118 8l-170 -2l-369 -469q-375 -467 -415 -467q-34 0 -63 52q-27 46 -27 84q0 56 615 800h-141 q-295 -2 -878 -35l-612 -521l-237 -212q-192 -166 -233 -166q-51 0 -51 52q0 65 523 500l415 344q-831 -38 -858 -82v-2q0 -34 258 -34l243 4q49 2 49 -22q0 -51 -395 -51q-336 0 -336 85zM1513 1028l947 16l849 1030l157 192q102 129 134 197v8q0 20 -18 20 q-85 0 -1075 -724zM3571 3088q0 24 31 50t54 26q36 0 83 -99q9 -22 87 -156q71 -121 71 -128q0 -28 -36 -28q-49 0 -170 149q-120 143 -120 186z" />
<glyph unicode="&#xc1;" horiz-adv-x="2812" d="M118 796q0 109 199 149q56 12 278 27l706 47q428 353 1222 916q1012 715 1207 715q98 0 98 -127q0 -107 -255 -423l-854 -1056h166q121 -12 121 -74q0 -40 -88 -40l-118 8l-170 -2l-369 -469q-375 -467 -415 -467q-34 0 -63 52q-27 46 -27 84q0 56 615 800h-141 q-295 -2 -878 -35l-612 -521l-237 -212q-192 -166 -233 -166q-51 0 -51 52q0 65 523 500l415 344q-831 -38 -858 -82v-2q0 -34 258 -34l243 4q49 2 49 -22q0 -51 -395 -51q-336 0 -336 85zM1513 1028l947 16l849 1030l157 192q102 129 134 197v8q0 20 -18 20 q-85 0 -1075 -724zM3833 2836q0 42 196 179q190 134 226 134q43 0 43 -58q0 -70 -81 -116l-237 -134q-83 -47 -107 -47q-40 0 -40 42z" />
<glyph unicode="&#xc2;" horiz-adv-x="2812" d="M118 796q0 109 199 149q56 12 278 27l706 47q428 353 1222 916q1012 715 1207 715q98 0 98 -127q0 -107 -255 -423l-854 -1056h166q121 -12 121 -74q0 -40 -88 -40l-118 8l-170 -2l-369 -469q-375 -467 -415 -467q-34 0 -63 52q-27 46 -27 84q0 56 615 800h-141 q-295 -2 -878 -35l-612 -521l-237 -212q-192 -166 -233 -166q-51 0 -51 52q0 65 523 500l415 344q-831 -38 -858 -82v-2q0 -34 258 -34l243 4q49 2 49 -22q0 -51 -395 -51q-336 0 -336 85zM1513 1028l947 16l849 1030l157 192q102 129 134 197v8q0 20 -18 20 q-85 0 -1075 -724zM3452 2809q0 53 501 352q45 27 63 27q53 0 109 -169q49 -144 49 -215q0 -29 -38 -29q-62 0 -107 100q-58 130 -70 143q-35 -15 -254 -138q-179 -99 -217 -99q-36 0 -36 28z" />
<glyph unicode="&#xc3;" horiz-adv-x="2812" d="M118 796q0 109 199 149q56 12 278 27l706 47q428 353 1222 916q1012 715 1207 715q98 0 98 -127q0 -107 -255 -423l-854 -1056h166q121 -12 121 -74q0 -40 -88 -40l-118 8l-170 -2l-369 -469q-375 -467 -415 -467q-34 0 -63 52q-27 46 -27 84q0 56 615 800h-141 q-295 -2 -878 -35l-612 -521l-237 -212q-192 -166 -233 -166q-51 0 -51 52q0 65 523 500l415 344q-831 -38 -858 -82v-2q0 -34 258 -34l243 4q49 2 49 -22q0 -51 -395 -51q-336 0 -336 85zM1513 1028l947 16l849 1030l157 192q102 129 134 197v8q0 20 -18 20 q-85 0 -1075 -724zM3442 2902q0 45 77 123.5t124 78.5q56 0 204 -59.5t216 -59.5q49 0 96 46t58 46q16 0 16 -22q0 -54 -73 -124.5t-131 -70.5q-74 0 -216 52.5t-195 52.5q-34 0 -82 -47t-63 -47q-31 0 -31 31z" />
<glyph unicode="&#xc4;" horiz-adv-x="2812" d="M118 796q0 109 199 149q56 12 278 27l706 47q428 353 1222 916q1012 715 1207 715q98 0 98 -127q0 -107 -255 -423l-854 -1056h166q121 -12 121 -74q0 -40 -88 -40l-118 8l-170 -2l-369 -469q-375 -467 -415 -467q-34 0 -63 52q-27 46 -27 84q0 56 615 800h-141 q-295 -2 -878 -35l-612 -521l-237 -212q-192 -166 -233 -166q-51 0 -51 52q0 65 523 500l415 344q-831 -38 -858 -82v-2q0 -34 258 -34l243 4q49 2 49 -22q0 -51 -395 -51q-336 0 -336 85zM1513 1028l947 16l849 1030l157 192q102 129 134 197v8q0 20 -18 20 q-85 0 -1075 -724zM3681 2933q0 65 59 129t122 64q80 0 80 -79q0 -58 -64.5 -124t-122.5 -66q-74 0 -74 76zM4010 2933q0 63 59 128t122 65q80 0 80 -78q0 -61 -62.5 -125.5t-123.5 -64.5q-75 0 -75 75z" />
<glyph unicode="&#xc5;" horiz-adv-x="2812" d="M118 796q0 109 199 149q56 12 278 27l706 47q428 353 1222 916q1012 715 1207 715q98 0 98 -127q0 -107 -255 -423l-854 -1056h166q121 -12 121 -74q0 -40 -88 -40l-118 8l-170 -2l-369 -469q-375 -467 -415 -467q-34 0 -63 52q-27 46 -27 84q0 56 615 800h-141 q-295 -2 -878 -35l-612 -521l-237 -212q-192 -166 -233 -166q-51 0 -51 52q0 65 523 500l415 344q-831 -38 -858 -82v-2q0 -34 258 -34l243 4q49 2 49 -22q0 -51 -395 -51q-336 0 -336 85zM1513 1028l947 16q1140 1378 1140 1427q0 20 -18 20q-83 0 -1043 -699zM3767 2932 q0 147 143 275.5t293 128.5q65 0 103 -62q33 -52 33 -123q0 -141 -127 -250q-120 -103 -264 -103q-69 0 -122 33q-59 38 -59 101zM3893 2934q0 -45 49 -45q94 0 187.5 77t93.5 169q0 51 -49 51q-83 0 -182 -85.5t-99 -166.5z" />
<glyph unicode="&#xc6;" horiz-adv-x="4074" d="M168 52q0 87 1104 996l319 257l-652 -56q-224 -22 -224 -51q0 -34 259 -34l242 3q49 2 49 -23q0 -49 -436 -49q-295 0 -295 85q0 89 118.5 129.5t1114.5 127.5q1705 1216 1918 1216q96 0 96 -126q0 -100 -163 -301q583 290 1150 290q418 0 418 -272q0 -152 -299 -295 q-264 -125 -443 -125q-109 0 -109 93q0 58 92 119q85 58 147 58q34 0 34 -23q0 -17 -56 -40.5t-60 -39.5q15 -14 46 -14q74 0 247.5 74t231.5 132q76 72 76 94q0 72 -264 72q-284 0 -680 -97q-406 -100 -647 -234q-230 -127 -230 -219q0 -159 513 -224q291 -38 637 -38 q74 0 74 -55q0 -99 -233 -110q-699 -31 -1351 -329q-666 -306 -666 -612q0 -301 511 -301q582 0 1089 496q33 33 56 33q40 0 40 -102q0 -166 -371 -384t-755 -218q-693 0 -693 548q0 366 596 635q271 124 899 288l-930 -47l-851 -60q-337 -255 -563 -448l-941 -804 q-76 -65 -114 -65q-51 0 -51 50zM2027 1461l1472 81q-342 101 -342 302q0 113 196 354.5t196 266.5q0 24 -18 24q-50 0 -590 -382z" />
<glyph unicode="&#xc7;" horiz-adv-x="2257" d="M297 -523q0 25 25 25l74 -31q76 -30 134 -30q102 0 196 59q107 67 107 163q0 82 -87 82q-36 0 -102.5 -22t-98.5 -22q-42 0 -42 35l245 213q-167 37 -279 179t-112 312q0 476 575 1048q465 461 1005 735q608 309 928 309q293 0 308 -277q58 22 85 22q34 0 34 -33 q0 -29 -124 -70q-69 -277 -382 -654q-342 -414 -590 -414q-147 0 -147 137q0 210 384 556q340 304 590 407q20 49 20 95q0 137 -156 137q-333 0 -921 -380q-574 -369 -1001 -842q-469 -521 -469 -865q0 -277 329 -277q237 0 520 129q199 90 409 240l174 129q29 0 29 -53 q0 -132 -261 -300q-176 -114 -387 -201q-234 -96 -449 -83q-62 -60 -161 -143q77 27 132 27q165 0 165 -145q0 -132 -138 -230q-125 -88 -263 -88q-70 0 -171 30q-127 40 -127 91zM2139 1274q0 -40 31 -40q127 0 440 366q270 315 373 509q-313 -161 -578.5 -457t-265.5 -378 z" />
<glyph unicode="&#xc8;" horiz-adv-x="2173" d="M223 507q0 358 492 621q329 175 813 280q135 35 411 69q-230 0 -424 76q-259 101 -259 293q0 308 673 512q524 158 940 158t416 -273q0 -152 -300 -294q-265 -125 -442 -125q-110 0 -110 93q0 58 92 119q85 58 147 58q36 0 36 -25q0 -11 -49 -36q-56 -29 -67 -42 q16 -14 45 -14q94 0 315 106q239 116 239 194q0 72 -262 72q-294 0 -697 -103q-268 -70 -494 -163q-366 -152 -366 -284q0 -159 505 -224q290 -38 644 -38q73 0 73 -55q0 -99 -234 -110q-711 -33 -1355 -331q-661 -306 -661 -612q0 -299 512 -299q306 0 594 138 q193 92 384 253q162 138 166 138q42 0 42 -102q0 -168 -373 -385t-753 -217q-693 0 -693 552zM2682 3088q0 24 31 50t54 26q36 0 83 -99q9 -22 87 -156q71 -121 71 -128q0 -28 -36 -28q-49 0 -170 149q-120 143 -120 186z" />
<glyph unicode="&#xc9;" horiz-adv-x="2173" d="M223 507q0 358 492 621q329 175 813 280q135 35 411 69q-230 0 -424 76q-259 101 -259 293q0 308 673 512q524 158 940 158t416 -273q0 -152 -300 -294q-265 -125 -442 -125q-110 0 -110 93q0 58 92 119q85 58 147 58q36 0 36 -25q0 -11 -49 -36q-56 -29 -67 -42 q16 -14 45 -14q94 0 315 106q239 116 239 194q0 72 -262 72q-294 0 -697 -103q-268 -70 -494 -163q-366 -152 -366 -284q0 -159 505 -224q290 -38 644 -38q73 0 73 -55q0 -99 -234 -110q-711 -33 -1355 -331q-661 -306 -661 -612q0 -299 512 -299q306 0 594 138 q193 92 384 253q162 138 166 138q42 0 42 -102q0 -168 -373 -385t-753 -217q-693 0 -693 552zM2773 2836q0 42 196 179q190 134 226 134q43 0 43 -58q0 -70 -81 -116l-237 -134q-83 -47 -107 -47q-40 0 -40 42z" />
<glyph unicode="&#xca;" horiz-adv-x="2173" d="M223 507q0 358 492 621q329 175 813 280q135 35 411 69q-230 0 -424 76q-259 101 -259 293q0 308 673 512q524 158 940 158t416 -273q0 -152 -300 -294q-265 -125 -442 -125q-110 0 -110 93q0 58 92 119q85 58 147 58q36 0 36 -25q0 -11 -49 -36q-56 -29 -67 -42 q16 -14 45 -14q94 0 315 106q239 116 239 194q0 72 -262 72q-294 0 -697 -103q-268 -70 -494 -163q-366 -152 -366 -284q0 -159 505 -224q290 -38 644 -38q73 0 73 -55q0 -99 -234 -110q-711 -33 -1355 -331q-661 -306 -661 -612q0 -299 512 -299q306 0 594 138 q193 92 384 253q162 138 166 138q42 0 42 -102q0 -168 -373 -385t-753 -217q-693 0 -693 552zM2538 2809q0 53 501 352q45 27 63 27q53 0 109 -169q49 -144 49 -215q0 -29 -38 -29q-62 0 -107 100q-58 130 -70 143q-35 -15 -254 -138q-179 -99 -217 -99q-36 0 -36 28z" />
<glyph unicode="&#xcb;" horiz-adv-x="2173" d="M223 507q0 358 492 621q329 175 813 280q135 35 411 69q-230 0 -424 76q-259 101 -259 293q0 308 673 512q524 158 940 158t416 -273q0 -152 -300 -294q-265 -125 -442 -125q-110 0 -110 93q0 58 92 119q85 58 147 58q36 0 36 -25q0 -11 -49 -36q-56 -29 -67 -42 q16 -14 45 -14q94 0 315 106q239 116 239 194q0 72 -262 72q-294 0 -697 -103q-268 -70 -494 -163q-366 -152 -366 -284q0 -159 505 -224q290 -38 644 -38q73 0 73 -55q0 -99 -234 -110q-711 -33 -1355 -331q-661 -306 -661 -612q0 -299 512 -299q306 0 594 138 q193 92 384 253q162 138 166 138q42 0 42 -102q0 -168 -373 -385t-753 -217q-693 0 -693 552zM2744 2933q0 65 59 129t122 64q80 0 80 -79q0 -58 -64.5 -124t-122.5 -66q-74 0 -74 76zM3073 2933q0 63 59 128t122 65q80 0 80 -78q0 -61 -62.5 -125.5t-123.5 -64.5 q-75 0 -75 75z" />
<glyph unicode="&#xcc;" horiz-adv-x="2124" d="M554 -18q0 63 175.5 257t226.5 194q25 0 25 -28q0 -14 -112 -139q-121 -136 -138 -165l4 -1q69 3 849 765q-196 -36 -422 -36q-313 0 -407 126.5t-94 222.5q0 290 414 627q357 287 874 506q495 210 777 210q279 0 279 -188q0 -328 -934 -1261l139 32q98 25 134 25 q45 0 45 -30q0 -51 -452 -161q-741 -748 -1086 -985q-107 -72 -183 -72q-114 0 -114 101zM784 1146q0 -160 450 -160q419 0 507 46q26 11 427 421q209 212 406 453q289 356 289 476q0 52 -70 52q-140 0 -630 -213q-496 -216 -937.5 -566t-441.5 -509zM2682 3088q0 24 31 50 t54 26q36 0 83 -99q9 -22 87 -156q71 -121 71 -128q0 -28 -36 -28q-49 0 -170 149q-120 143 -120 186z" />
<glyph unicode="&#xcd;" horiz-adv-x="2124" d="M554 -18q0 63 175.5 257t226.5 194q25 0 25 -28q0 -14 -112 -139q-121 -136 -138 -165l4 -1q69 3 849 765q-196 -36 -422 -36q-313 0 -407 126.5t-94 222.5q0 290 414 627q357 287 874 506q495 210 777 210q279 0 279 -188q0 -328 -934 -1261l139 32q98 25 134 25 q45 0 45 -30q0 -51 -452 -161q-741 -748 -1086 -985q-107 -72 -183 -72q-114 0 -114 101zM784 1146q0 -160 450 -160q419 0 507 46q26 11 427 421q209 212 406 453q289 356 289 476q0 52 -70 52q-140 0 -630 -213q-496 -216 -937.5 -566t-441.5 -509zM2773 2836 q0 42 196 179q190 134 226 134q43 0 43 -58q0 -70 -81 -116l-237 -134q-83 -47 -107 -47q-40 0 -40 42z" />
<glyph unicode="&#xce;" horiz-adv-x="2124" d="M554 -18q0 63 175.5 257t226.5 194q25 0 25 -28q0 -14 -112 -139q-121 -136 -138 -165l4 -1q69 3 849 765q-196 -36 -422 -36q-313 0 -407 126.5t-94 222.5q0 290 414 627q357 287 874 506q495 210 777 210q279 0 279 -188q0 -328 -934 -1261l139 32q98 25 134 25 q45 0 45 -30q0 -51 -452 -161q-741 -748 -1086 -985q-107 -72 -183 -72q-114 0 -114 101zM784 1146q0 -160 450 -160q419 0 507 46q26 11 427 421q209 212 406 453q289 356 289 476q0 52 -70 52q-140 0 -630 -213q-496 -216 -937.5 -566t-441.5 -509zM2489 2809 q0 53 501 352q45 27 63 27q53 0 109 -169q49 -144 49 -215q0 -29 -38 -29q-62 0 -107 100q-58 130 -70 143q-35 -15 -254 -138q-179 -99 -217 -99q-36 0 -36 28z" />
<glyph unicode="&#xcf;" horiz-adv-x="2124" d="M554 -18q0 63 175.5 257t226.5 194q25 0 25 -28q0 -14 -112 -139q-121 -136 -138 -165l4 -1q69 3 849 765q-196 -36 -422 -36q-313 0 -407 126.5t-94 222.5q0 290 414 627q357 287 874 506q495 210 777 210q279 0 279 -188q0 -328 -934 -1261l139 32q98 25 134 25 q45 0 45 -30q0 -51 -452 -161q-741 -748 -1086 -985q-107 -72 -183 -72q-114 0 -114 101zM784 1146q0 -160 450 -160q419 0 507 46q26 11 427 421q209 212 406 453q289 356 289 476q0 52 -70 52q-140 0 -630 -213q-496 -216 -937.5 -566t-441.5 -509zM2769 2933q0 65 59 129 t122 64q80 0 80 -79q0 -58 -64.5 -124t-122.5 -66q-74 0 -74 76zM3098 2933q0 63 59 128t122 65q80 0 80 -78q0 -61 -62.5 -125.5t-123.5 -64.5q-75 0 -75 75z" />
<glyph unicode="&#xd0;" horiz-adv-x="2731" d="M272 71q0 76 405 537l492 541q-389 0 -438 22q-32 13 -32 44q0 38 63 56l530 16l735 796q-340 -63 -571 -151.5t-294 -88.5q-83 0 -83 54q0 49 336.5 177.5t830.5 218.5l103 96q80 71 105 71q49 0 49 -64q0 -21 -31 -70q75 3 120 3q214 0 329 -54q140 -63 232 -235 q76 -147 76 -282q0 -415 -413 -875q-325 -362 -722 -626q-498 -331 -879 -331q-174 0 -280 101.5t-106 272.5q0 105 29 209l-416 -457q-47 -52 -93 -52q-77 0 -77 71zM901 335q0 -245 263 -245q308 0 782 312q459 302 794 704q362 436 362 747q0 315 -392 315 q-174 0 -368 -36l-778 -841l210 3l208 4q150 0 150 -64q0 -52 -78 -56l-610 -23l-336 -371q-123 -136 -156 -199q-51 -96 -51 -250z" />
<glyph unicode="&#xd1;" horiz-adv-x="2689" d="M246 92q0 78 482 576l892 936q481 534 481 698q0 55 -45 55q-197 0 -925 -625q-329 -282 -575 -566q-40 -46 -62 -46q-69 0 -69 69q0 87 402 467q286 270 576 474q421 301 653 301q150 0 150 -161q0 -178 -271 -532q-190 -250 -397 -451q623 501 858 670q677 481 954 481 q80 0 141.5 -50.5t61.5 -130.5q0 -219 -527 -738l-731 -712q-617 -613 -617 -689q0 -46 40 -56q9 -2 75 -2t66 -27q0 -29 -91 -53q-74 -20 -119 -20q-71 0 -123.5 41t-52.5 111q0 80 79 190.5t510 548.5l859 856q140 134 208 206q138 143 187 226q74 129 74 183q0 40 -36 40 q-105 0 -552 -268q-1061 -635 -2295 -1946q-140 -148 -165 -148t-60.5 32.5t-35.5 59.5zM2664 2902q0 45 77 123.5t124 78.5q56 0 204 -59.5t216 -59.5q49 0 96 46t58 46q16 0 16 -22q0 -54 -73 -124.5t-131 -70.5q-74 0 -216 52.5t-195 52.5q-34 0 -82 -47t-63 -47 q-31 0 -31 31z" />
<glyph unicode="&#xd2;" horiz-adv-x="2195" d="M478 431q0 458 338 970q294 442 715 760q431 326 511 326q88 0 88 -107q147 94 323 129q12 96 27 96q79 0 67 -95q154 0 245 -93t91 -247q0 -441 -496 -1102q-427 -572 -872 -892q-304 -219 -579 -219q-458 0 -458 474zM632 317q0 -116 58 -188q61 -80 173 -80 q294 0 770 447q429 402 776 934q353 541 353 809q0 190 -192 190q-22 0 -41 -7q-66 -208 -238 -467q-586 -878 -895 -878q-142 0 -142 195q0 444 712 998q-312 -196 -493 -373q-320 -313 -559 -726q-282 -487 -282 -854zM1381 1234q0 -65 60 -65q166 0 548 514 q342 462 436 710q-229 -87 -508 -350q-263 -244 -399.5 -479t-136.5 -330zM2396 3088q0 24 31 50t54 26q36 0 83 -99q9 -22 87 -156q71 -121 71 -128q0 -28 -36 -28q-49 0 -170 149q-120 143 -120 186z" />
<glyph unicode="&#xd3;" horiz-adv-x="2195" d="M478 431q0 458 338 970q294 442 715 760q431 326 511 326q88 0 88 -107q147 94 323 129q12 96 27 96q79 0 67 -95q154 0 245 -93t91 -247q0 -441 -496 -1102q-427 -572 -872 -892q-304 -219 -579 -219q-458 0 -458 474zM632 317q0 -116 58 -188q61 -80 173 -80 q294 0 770 447q429 402 776 934q353 541 353 809q0 190 -192 190q-22 0 -41 -7q-66 -208 -238 -467q-586 -878 -895 -878q-142 0 -142 195q0 444 712 998q-312 -196 -493 -373q-320 -313 -559 -726q-282 -487 -282 -854zM1381 1234q0 -65 60 -65q166 0 548 514 q342 462 436 710q-229 -87 -508 -350q-263 -244 -399.5 -479t-136.5 -330zM2289 2836q0 42 196 179q190 134 226 134q43 0 43 -58q0 -70 -81 -116l-237 -134q-83 -47 -107 -47q-40 0 -40 42z" />
<glyph unicode="&#xd4;" horiz-adv-x="2195" d="M478 431q0 458 338 970q294 442 715 760q431 326 511 326q88 0 88 -107q147 94 323 129q12 96 27 96q79 0 67 -95q154 0 245 -93t91 -247q0 -441 -496 -1102q-427 -572 -872 -892q-304 -219 -579 -219q-458 0 -458 474zM632 317q0 -116 58 -188q61 -80 173 -80 q294 0 770 447q429 402 776 934q353 541 353 809q0 190 -192 190q-22 0 -41 -7q-66 -208 -238 -467q-586 -878 -895 -878q-142 0 -142 195q0 444 712 998q-312 -196 -493 -373q-320 -313 -559 -726q-282 -487 -282 -854zM1381 1234q0 -65 60 -65q166 0 548 514 q342 462 436 710q-229 -87 -508 -350q-263 -244 -399.5 -479t-136.5 -330zM2228 2809q0 53 501 352q45 27 63 27q53 0 109 -169q49 -144 49 -215q0 -29 -38 -29q-62 0 -107 100q-58 130 -70 143q-35 -15 -254 -138q-179 -99 -217 -99q-36 0 -36 28z" />
<glyph unicode="&#xd5;" horiz-adv-x="2195" d="M478 431q0 458 338 970q294 442 715 760q431 326 511 326q88 0 88 -107q147 94 323 129q12 96 27 96q79 0 67 -95q154 0 245 -93t91 -247q0 -441 -496 -1102q-427 -572 -872 -892q-304 -219 -579 -219q-458 0 -458 474zM632 317q0 -116 58 -188q61 -80 173 -80 q294 0 770 447q429 402 776 934q353 541 353 809q0 190 -192 190q-22 0 -41 -7q-66 -208 -238 -467q-586 -878 -895 -878q-142 0 -142 195q0 444 712 998q-312 -196 -493 -373q-320 -313 -559 -726q-282 -487 -282 -854zM1381 1234q0 -65 60 -65q166 0 548 514 q342 462 436 710q-229 -87 -508 -350q-263 -244 -399.5 -479t-136.5 -330zM2269 2902q0 45 77 123.5t124 78.5q56 0 204 -59.5t216 -59.5q49 0 96 46t58 46q16 0 16 -22q0 -54 -73 -124.5t-131 -70.5q-74 0 -216 52.5t-195 52.5q-34 0 -82 -47t-63 -47q-31 0 -31 31z" />
<glyph unicode="&#xd6;" horiz-adv-x="2195" d="M478 431q0 458 338 970q294 442 715 760q431 326 511 326q88 0 88 -107q147 94 323 129q12 96 27 96q79 0 67 -95q154 0 245 -93t91 -247q0 -441 -496 -1102q-427 -572 -872 -892q-304 -219 -579 -219q-458 0 -458 474zM632 317q0 -116 58 -188q61 -80 173 -80 q294 0 770 447q429 402 776 934q353 541 353 809q0 190 -192 190q-22 0 -41 -7q-66 -208 -238 -467q-586 -878 -895 -878q-142 0 -142 195q0 444 712 998q-312 -196 -493 -373q-320 -313 -559 -726q-282 -487 -282 -854zM1381 1234q0 -65 60 -65q166 0 548 514 q342 462 436 710q-229 -87 -508 -350q-263 -244 -399.5 -479t-136.5 -330zM2386 2933q0 65 59 129t122 64q80 0 80 -79q0 -58 -64.5 -124t-122.5 -66q-74 0 -74 76zM2715 2933q0 63 59 128t122 65q80 0 80 -78q0 -61 -62.5 -125.5t-123.5 -64.5q-75 0 -75 75z" />
<glyph unicode="&#xd7;" d="M559 688l690 396l-112 400l112 64l112 -399l693 399l28 -109l-690 -398l112 -400l-112 -64l-112 400l-695 -400z" />
<glyph unicode="&#xd8;" horiz-adv-x="2193" d="M90 -81q0 45 395 389q-7 58 -7 130q0 451 336 959q290 438 708 757q436 333 520 333q88 0 88 -107q216 134 417 134q202 0 289 -156q326 263 351 263q40 0 40 -40q0 -18 -355 -320q11 -47 11 -91q0 -340 -342 -881q-333 -529 -774 -913q-482 -419 -831 -419 q-333 0 -427 257q-165 -160 -375 -332q-44 9 -44 37zM630 306q0 -109 63.5 -183t169.5 -74q288 0 746 423q406 375 755 891t391 796l-2123 -1839zM639 445q905 831 2118 1845q-29 137 -180 137q-157 0 -384 -154.5t-233 -154.5q-63 0 -63 47q0 40 69 105 q-440 -246 -846 -786q-429 -570 -481 -1039z" />
<glyph unicode="&#xd9;" horiz-adv-x="2727" d="M436 195q0 185 149 426q177 286 581 711q369 388 675 635q126 93 356 292q31 31 31 45q0 16 -22 16q-114 0 -425 -179q-259 -148 -413 -269q-54 -44 -83 -44q-61 0 -61 51q0 45 237 210q525 364 785 364q125 0 125 -127q0 -125 -210 -313q-465 -417 -908 -891 q-688 -735 -688 -981q0 -58 38 -58q116 0 588 284q328 200 733 524l695 577q136 112 351 335l339 353q320 324 362 324q43 0 83 -36.5t40 -77.5q0 -26 -33 -58q-764 -771 -1191 -1289q-617 -744 -617 -892q0 -76 92 -76q15 0 39.5 7t36.5 7q18 0 18 -16q0 -33 -74 -54 q-56 -17 -101 -17q-140 0 -140 154q0 304 600 1034l-790 -661q-700 -543 -966 -543q-96 0 -164 69t-68 164zM2936 3088q0 24 31 50t54 26q36 0 83 -99q9 -22 87 -156q71 -121 71 -128q0 -28 -36 -28q-49 0 -170 149q-120 143 -120 186z" />
<glyph unicode="&#xda;" horiz-adv-x="2727" d="M436 195q0 185 149 426q177 286 581 711q369 388 675 635q126 93 356 292q31 31 31 45q0 16 -22 16q-114 0 -425 -179q-259 -148 -413 -269q-54 -44 -83 -44q-61 0 -61 51q0 45 237 210q525 364 785 364q125 0 125 -127q0 -125 -210 -313q-465 -417 -908 -891 q-688 -735 -688 -981q0 -58 38 -58q116 0 588 284q328 200 733 524l695 577q136 112 351 335l339 353q320 324 362 324q43 0 83 -36.5t40 -77.5q0 -26 -33 -58q-764 -771 -1191 -1289q-617 -744 -617 -892q0 -76 92 -76q15 0 39.5 7t36.5 7q18 0 18 -16q0 -33 -74 -54 q-56 -17 -101 -17q-140 0 -140 154q0 304 600 1034l-790 -661q-700 -543 -966 -543q-96 0 -164 69t-68 164zM2927 2836q0 42 196 179q190 134 226 134q43 0 43 -58q0 -70 -81 -116l-237 -134q-83 -47 -107 -47q-40 0 -40 42z" />
<glyph unicode="&#xdb;" horiz-adv-x="2727" d="M436 195q0 185 149 426q177 286 581 711q369 388 675 635q126 93 356 292q31 31 31 45q0 16 -22 16q-114 0 -425 -179q-259 -148 -413 -269q-54 -44 -83 -44q-61 0 -61 51q0 45 237 210q525 364 785 364q125 0 125 -127q0 -125 -210 -313q-465 -417 -908 -891 q-688 -735 -688 -981q0 -58 38 -58q116 0 588 284q328 200 733 524l695 577q136 112 351 335l339 353q320 324 362 324q43 0 83 -36.5t40 -77.5q0 -26 -33 -58q-764 -771 -1191 -1289q-617 -744 -617 -892q0 -76 92 -76q15 0 39.5 7t36.5 7q18 0 18 -16q0 -33 -74 -54 q-56 -17 -101 -17q-140 0 -140 154q0 304 600 1034l-790 -661q-700 -543 -966 -543q-96 0 -164 69t-68 164zM2742 2809q0 53 501 352q45 27 63 27q53 0 109 -169q49 -144 49 -215q0 -29 -38 -29q-62 0 -107 100q-58 130 -70 143q-35 -15 -254 -138q-179 -99 -217 -99 q-36 0 -36 28z" />
<glyph unicode="&#xdc;" horiz-adv-x="2727" d="M436 195q0 185 149 426q177 286 581 711q369 388 675 635q126 93 356 292q31 31 31 45q0 16 -22 16q-114 0 -425 -179q-259 -148 -413 -269q-54 -44 -83 -44q-61 0 -61 51q0 45 237 210q525 364 785 364q125 0 125 -127q0 -125 -210 -313q-465 -417 -908 -891 q-688 -735 -688 -981q0 -58 38 -58q116 0 588 284q328 200 733 524l695 577q136 112 351 335l339 353q320 324 362 324q43 0 83 -36.5t40 -77.5q0 -26 -33 -58q-764 -771 -1191 -1289q-617 -744 -617 -892q0 -76 92 -76q15 0 39.5 7t36.5 7q18 0 18 -16q0 -33 -74 -54 q-56 -17 -101 -17q-140 0 -140 154q0 304 600 1034l-790 -661q-700 -543 -966 -543q-96 0 -164 69t-68 164zM2974 2933q0 65 59 129t122 64q80 0 80 -79q0 -58 -64.5 -124t-122.5 -66q-74 0 -74 76zM3303 2933q0 63 59 128t122 65q80 0 80 -78q0 -61 -62.5 -125.5 t-123.5 -64.5q-75 0 -75 75z" />
<glyph unicode="&#xdd;" horiz-adv-x="2686" d="M545 1225q0 185 403 527q288 244 674 453q469 255 753 255q155 0 155 -138q0 -170 -452 -604l-844 -791q-452 -464 -452 -701q0 -125 123 -125q250 0 930 527q408 315 867 735q192 175 779 778q173 179 211 179q37 0 75.5 -23.5t38.5 -55.5q0 -36 -38 -78l-2141 -2420 l-235 -235q-170 -169 -188 -230q21 5 70 45q44 38 62 38q16 0 23 -14q-1 -28 -164 -172q-156 -140 -228 -230q-67 -83 -111 -83q-38 0 -72.5 36t-34.5 76q0 61 109 184l1265 1434l458 527q-601 -518 -785 -659q-609 -467 -864 -467q-268 0 -268 307q0 312 371 728 q163 183 614 581q342 302 525 482q219 213 219 257q0 19 -26 19q-112 0 -499 -177t-792.5 -517.5t-405.5 -436.5q0 -36 47 -36q112 0 306 92l184 93q15 -6 15 -17q0 -65 -226 -172q-214 -101 -305 -101q-146 0 -146 130zM3030 2836q0 42 196 179q190 134 226 134 q43 0 43 -58q0 -70 -81 -116l-237 -134q-83 -47 -107 -47q-40 0 -40 42z" />
<glyph unicode="&#xde;" horiz-adv-x="2336" d="M411 94q0 38 253 355q-226 36 -226 103q0 65 96 65q43 0 128.5 -6t128.5 -6q357 430 959 1095q-590 -93 -1169 -330q-40 -16 -63 -16q-60 0 -60 74q0 101 279 208q68 27 360 112q469 138 842 160q390 436 410 436q28 0 66 -36t38 -62q0 -47 -261 -336q226 -11 375 -100 q182 -112 182 -319q0 -356 -378 -631q-300 -219 -704 -313q-534 -123 -767 -109l-200 -246q-162 -196 -186 -196q-23 0 -63 36.5t-40 61.5zM1055 617q409 27 782 145q467 147 679 386q166 188 166 333q0 255 -503 255q-61 0 -152 -7z" />
<glyph unicode="&#xdf;" horiz-adv-x="1668" d="M-634 -1064q0 47 62 128l1310 1720q-155 -141 -718 -576q-270 -208 -440 -208q-23 0 -23 24q0 27 38 36q65 14 139 45q101 42 398 268q621 472 1349 1193q353 349 521 349q134 0 134 -156q0 -215 -205 -450q-183 -212 -402 -308q78 -38 78 -138q0 -201 -190 -454 q-166 -221 -364 -349h200q23 0 23 -29q0 -38 -143 -38q-103 0 -159 29q-40 -20 -87 -20q-105 0 -170 88q-58 80 -58 189q0 130 119 130q82 0 122 -96l54 -161q145 105 326 346q201 268 201 405q0 36 -31 56q-102 -52 -170 -52q-75 0 -75 40q0 49 86 77q65 22 124 22 q33 0 60 -9q156 101 348 328q220 257 220 396q0 45 -39 45q-120 0 -610 -534q-359 -391 -569 -660l-525 -675l-624 -829q-195 -261 -232 -261q-29 0 -53.5 30t-24.5 59zM728 279q0 -62 29 -114q36 -62 92 -62q23 0 54 13l-49 132q-36 90 -76 90q-50 0 -50 -59z" />
<glyph unicode="&#xe0;" horiz-adv-x="1384" d="M-445 24q0 32 43 39q170 27 471 263l233 183l375 298q257 178 440 178q136 0 152 -136q70 67 98 67q59 0 59 -49q0 -63 -277.5 -387t-277.5 -379q0 -38 59.5 -39.5t59.5 -30.5q0 -36 -123 -36q-121 0 -121 106q0 85 97 243l-224 -190q-165 -123 -262 -123 q-156 0 -156 157q0 87 42 192q-484 -380 -667 -380q-21 0 -21 24zM366 167q0 -49 47 -49q103 0 442.5 312t339.5 421q0 59 -53 59q-107 0 -441.5 -318.5t-334.5 -424.5zM1187 1531q0 24 31 50t54 26q36 0 83 -99q9 -22 87 -156q71 -121 71 -128q0 -28 -36 -28 q-49 0 -170 149q-120 143 -120 186z" />
<glyph unicode="&#xe1;" horiz-adv-x="1384" d="M-445 24q0 32 43 39q170 27 471 263l233 183l375 298q257 178 440 178q136 0 152 -136q70 67 98 67q59 0 59 -49q0 -63 -277.5 -387t-277.5 -379q0 -38 59.5 -39.5t59.5 -30.5q0 -36 -123 -36q-121 0 -121 106q0 85 97 243l-224 -190q-165 -123 -262 -123 q-156 0 -156 157q0 87 42 192q-484 -380 -667 -380q-21 0 -21 24zM366 167q0 -49 47 -49q103 0 442.5 312t339.5 421q0 59 -53 59q-107 0 -441.5 -318.5t-334.5 -424.5zM1142 1305q0 42 196 179q190 134 226 134q43 0 43 -58q0 -70 -81 -116l-237 -134q-83 -47 -107 -47 q-40 0 -40 42z" />
<glyph unicode="&#xe2;" horiz-adv-x="1384" d="M-445 24q0 32 43 39q170 27 471 263l233 183l375 298q257 178 440 178q136 0 152 -136q70 67 98 67q59 0 59 -49q0 -63 -277.5 -387t-277.5 -379q0 -38 59.5 -39.5t59.5 -30.5q0 -36 -123 -36q-121 0 -121 106q0 85 97 243l-224 -190q-165 -123 -262 -123 q-156 0 -156 157q0 87 42 192q-484 -380 -667 -380q-21 0 -21 24zM366 167q0 -49 47 -49q103 0 442.5 312t339.5 421q0 59 -53 59q-107 0 -441.5 -318.5t-334.5 -424.5zM844 1176q0 53 501 352q45 27 63 27q53 0 109 -169q49 -144 49 -215q0 -29 -38 -29q-62 0 -107 100 q-58 130 -70 143q-35 -15 -254 -138q-179 -99 -217 -99q-36 0 -36 28z" />
<glyph unicode="&#xe3;" horiz-adv-x="1384" d="M-445 24q0 32 43 39q170 27 471 263l233 183l375 298q257 178 440 178q136 0 152 -136q70 67 98 67q59 0 59 -49q0 -63 -277.5 -387t-277.5 -379q0 -38 59.5 -39.5t59.5 -30.5q0 -36 -123 -36q-121 0 -121 106q0 85 97 243l-224 -190q-165 -123 -262 -123 q-156 0 -156 157q0 87 42 192q-484 -380 -667 -380q-21 0 -21 24zM366 167q0 -49 47 -49q103 0 442.5 312t339.5 421q0 59 -53 59q-107 0 -441.5 -318.5t-334.5 -424.5zM930 1271q0 45 77 123.5t124 78.5q56 0 204 -59.5t216 -59.5q49 0 96 46t58 46q16 0 16 -22 q0 -54 -73 -124.5t-131 -70.5q-74 0 -216 52.5t-195 52.5q-34 0 -82 -47t-63 -47q-31 0 -31 31z" />
<glyph unicode="&#xe4;" horiz-adv-x="1384" d="M-445 24q0 32 43 39q170 27 471 263l233 183l375 298q257 178 440 178q136 0 152 -136q70 67 98 67q59 0 59 -49q0 -63 -277.5 -387t-277.5 -379q0 -38 59.5 -39.5t59.5 -30.5q0 -36 -123 -36q-121 0 -121 106q0 85 97 243l-224 -190q-165 -123 -262 -123 q-156 0 -156 157q0 87 42 192q-484 -380 -667 -380q-21 0 -21 24zM366 167q0 -49 47 -49q103 0 442.5 312t339.5 421q0 59 -53 59q-107 0 -441.5 -318.5t-334.5 -424.5zM1081 1300q0 65 59 129t122 64q80 0 80 -79q0 -58 -64.5 -124t-122.5 -66q-74 0 -74 76zM1410 1300 q0 63 59 128t122 65q80 0 80 -78q0 -61 -62.5 -125.5t-123.5 -64.5q-75 0 -75 75z" />
<glyph unicode="&#xe5;" horiz-adv-x="1384" d="M-445 24q0 32 43 39q170 27 471 263l233 183l375 298q257 178 440 178q136 0 152 -136q70 67 98 67q59 0 59 -49q0 -63 -277.5 -387t-277.5 -379q0 -38 59.5 -39.5t59.5 -30.5q0 -36 -123 -36q-121 0 -121 106q0 85 97 243l-224 -190q-165 -123 -262 -123 q-156 0 -156 157q0 87 42 192q-484 -380 -667 -380q-21 0 -21 24zM366 167q0 -49 47 -49q103 0 442.5 312t339.5 421q0 59 -53 59q-107 0 -441.5 -318.5t-334.5 -424.5zM1224 1341q0 120 117.5 225t239.5 105q112 0 112 -149q0 -119 -99.5 -206t-221.5 -87q-148 0 -148 112z M1327 1339q0 -38 40 -38q76 0 154 63.5t78 137.5q0 46 -42 46q-67 0 -148.5 -71.5t-81.5 -137.5z" />
<glyph unicode="&#xe6;" horiz-adv-x="1732" d="M-445 22q0 32 50 41q62 11 176 66q138 65 422 300q349 290 470 373q268 183 444 183q134 0 150 -132q94 99 130 99q64 0 64 -36q0 -31 -75 -136q212 156 372 156q146 0 146 -134q0 -187 -353 -342q-244 -107 -514 -154q-22 -42 -22 -92q0 -113 104 -142q45 -12 193 -12 q26 0 26 -29q0 -49 -238 -49q-289 0 -289 219q0 69 34 147q-353 -317 -488 -317q-156 0 -156 159q0 138 43 192q-235 -185 -313 -235q-221 -147 -355 -147q-21 0 -21 22zM366 167q0 -49 47 -49q103 0 442.5 312t339.5 421q0 59 -53 59q-107 0 -441.5 -318.5t-334.5 -424.5z M1066 362q371 105 529.5 243.5t158.5 212.5q0 47 -42 47q-119 0 -351 -195q-203 -172 -295 -308z" />
<glyph unicode="&#xe7;" horiz-adv-x="1134" d="M-445 22q0 34 43 41q159 26 456 252l503 402q413 338 636 338q117 0 117 -90q40 0 40 -36q0 -29 -45 -33q-36 -127 -136 -255q-119 -152 -230 -152q-65 0 -65 59q0 86 141 221q125 122 225 163l3 20q0 25 -25 25q-118 0 -432 -324t-314 -452q0 -82 69 -114 q35 -16 129 -25q68 -8 68 -31q0 -36 -128 -36q-89 0 -165 38q-56 -55 -123 -104q60 11 94 11q140 0 140 -103q0 -105 -96 -175q-89 -66 -198 -66q-50 0 -128 26q-92 29 -92 67q0 29 23 29q4 0 62 -24.5t105 -24.5q72 0 130 34q69 40 69 107t-93 67q-21 0 -62 -9t-61 -9 q-27 0 -25 22q33 41 101 95q85 67 109 91q-71 71 -71 185q0 97 73 253l-384 -295q-297 -210 -442 -210q-21 0 -21 22zM957 592l15 -15q49 0 136 113q74 96 101 163q-52 -24 -148 -120q-104 -101 -104 -141z" />
<glyph unicode="&#xe8;" horiz-adv-x="1093" d="M-445 24q0 32 47 39q110 18 311 136q221 127 360 159q84 201 344 422q277 237 473 237q144 0 144 -123q0 -161 -305 -351q-225 -141 -460 -221q-26 -58 -26 -121q0 -94 66 -123q32 -13 123 -16q65 -2 65 -31q0 -45 -223 -45q-235 0 -235 204q0 47 13 103 q-91 -21 -341 -166q-221 -127 -335 -127q-21 0 -21 24zM491 395q166 81 351 220q246 183 246 290q0 43 -40 43q-118 0 -320 -217q-181 -197 -237 -336zM966 1531q0 24 31 50t54 26q36 0 83 -99q9 -22 87 -156q71 -121 71 -128q0 -28 -36 -28q-49 0 -170 149 q-120 143 -120 186z" />
<glyph unicode="&#xe9;" horiz-adv-x="1093" d="M-445 24q0 32 47 39q110 18 311 136q221 127 360 159q84 201 344 422q277 237 473 237q144 0 144 -123q0 -161 -305 -351q-225 -141 -460 -221q-26 -58 -26 -121q0 -94 66 -123q32 -13 123 -16q65 -2 65 -31q0 -45 -223 -45q-235 0 -235 204q0 47 13 103 q-91 -21 -341 -166q-221 -127 -335 -127q-21 0 -21 24zM491 395q166 81 351 220q246 183 246 290q0 43 -40 43q-118 0 -320 -217q-181 -197 -237 -336zM995 1305q0 42 196 179q190 134 226 134q43 0 43 -58q0 -70 -81 -116l-237 -134q-83 -47 -107 -47q-40 0 -40 42z" />
<glyph unicode="&#xea;" horiz-adv-x="1093" d="M-445 24q0 32 47 39q110 18 311 136q221 127 360 159q84 201 344 422q277 237 473 237q144 0 144 -123q0 -161 -305 -351q-225 -141 -460 -221q-26 -58 -26 -121q0 -94 66 -123q32 -13 123 -16q65 -2 65 -31q0 -45 -223 -45q-235 0 -235 204q0 47 13 103 q-91 -21 -341 -166q-221 -127 -335 -127q-21 0 -21 24zM491 395q166 81 351 220q246 183 246 290q0 43 -40 43q-118 0 -320 -217q-181 -197 -237 -336zM697 1176q0 53 501 352q45 27 63 27q53 0 109 -169q49 -144 49 -215q0 -29 -38 -29q-62 0 -107 100q-58 130 -70 143 q-35 -15 -254 -138q-179 -99 -217 -99q-36 0 -36 28z" />
<glyph unicode="&#xeb;" horiz-adv-x="1093" d="M-445 24q0 32 47 39q110 18 311 136q221 127 360 159q84 201 344 422q277 237 473 237q144 0 144 -123q0 -161 -305 -351q-225 -141 -460 -221q-26 -58 -26 -121q0 -94 66 -123q32 -13 123 -16q65 -2 65 -31q0 -45 -223 -45q-235 0 -235 204q0 47 13 103 q-91 -21 -341 -166q-221 -127 -335 -127q-21 0 -21 24zM491 395q166 81 351 220q246 183 246 290q0 43 -40 43q-118 0 -320 -217q-181 -197 -237 -336zM894 1300q0 65 59 129t122 64q80 0 80 -79q0 -58 -64.5 -124t-122.5 -66q-74 0 -74 76zM1223 1300q0 63 59 128t122 65 q80 0 80 -78q0 -61 -62.5 -125.5t-123.5 -64.5q-75 0 -75 75z" />
<glyph unicode="&#xec;" horiz-adv-x="953" d="M-445 24q0 32 36 39q114 22 208 75q118 65 500 367l554 465q36 13 97 13q62 0 62 -71q0 -76 -291.5 -410t-291.5 -393q0 -49 105 -49q23 0 23 -29q0 -35 -119 -35q-136 0 -136 131q0 152 404 635l-494 -404q-438 -358 -636 -358q-21 0 -21 24zM798 1531q0 24 31 50t54 26 q36 0 83 -99q9 -22 87 -156q71 -121 71 -128q0 -28 -36 -28q-49 0 -170 149q-120 143 -120 186z" />
<glyph unicode="&#xed;" horiz-adv-x="953" d="M-445 24q0 32 36 39q114 22 208 75q118 65 500 367l554 465q36 13 97 13q62 0 62 -71q0 -76 -291.5 -410t-291.5 -393q0 -49 105 -49q23 0 23 -29q0 -35 -119 -35q-136 0 -136 131q0 152 404 635l-494 -404q-438 -358 -636 -358q-21 0 -21 24zM1050 1305q0 42 196 179 q190 134 226 134q43 0 43 -58q0 -70 -81 -116l-237 -134q-83 -47 -107 -47q-40 0 -40 42z" />
<glyph unicode="&#xee;" horiz-adv-x="953" d="M-445 24q0 32 36 39q114 22 208 75q118 65 500 367l554 465q36 13 97 13q62 0 62 -71q0 -76 -291.5 -410t-291.5 -393q0 -49 105 -49q23 0 23 -29q0 -35 -119 -35q-136 0 -136 131q0 152 404 635l-494 -404q-438 -358 -636 -358q-21 0 -21 24zM677 1176q0 53 501 352 q45 27 63 27q53 0 109 -169q49 -144 49 -215q0 -29 -38 -29q-62 0 -107 100q-58 130 -70 143q-35 -15 -254 -138q-179 -99 -217 -99q-36 0 -36 28z" />
<glyph unicode="&#xef;" horiz-adv-x="953" d="M-445 24q0 32 36 39q114 22 208 75q118 65 500 367l554 465q36 13 97 13q62 0 62 -71q0 -76 -291.5 -410t-291.5 -393q0 -49 105 -49q23 0 23 -29q0 -35 -119 -35q-136 0 -136 131q0 152 404 635l-494 -404q-438 -358 -636 -358q-21 0 -21 24zM825 1300q0 65 59 129 t122 64q80 0 80 -79q0 -58 -64.5 -124t-122.5 -66q-74 0 -74 76zM1154 1300q0 63 59 128t122 65q80 0 80 -78q0 -61 -62.5 -125.5t-123.5 -64.5q-75 0 -75 75z" />
<glyph unicode="&#xf0;" horiz-adv-x="1303" d="M-445 22q0 32 41 41q118 24 212 80q109 63 409 304q322 261 483 366q272 175 433 175q143 0 143 -123q0 -36 -20 -96q89 96 223 353q123 234 177 388q-338 0 -420 9q-98 9 -98 34q0 40 210 40l335 -6q40 123 120 551q11 56 43 56q33 0 33 -56q0 -239 -107 -551l159 -1 q138 -8 138 -46q0 -32 -82 -32l-106 3l-134 -1q-113 -294 -221 -480q-170 -290 -478 -626q-391 -431 -605 -431q-184 0 -184 194q0 101 117 316l-372 -284q-286 -199 -428 -199q-21 0 -21 22zM443 190q0 -96 84 -96q141 0 409 308q262 302 262 449q0 68 -60 68 q-133 0 -414 -292t-281 -437z" />
<glyph unicode="&#xf1;" horiz-adv-x="1554" d="M-445 22q0 32 50 43q69 13 162 54q132 58 539 388q366 297 527 454q27 27 85 65q29 11 61 11q31 0 62.5 -20.5t31.5 -49.5q0 -33 -289 -419q497 422 698 422q129 0 129 -121q0 -107 -291.5 -386.5t-291.5 -337.5t65 -62.5t65 -31.5q0 -36 -130 -36q-150 0 -150 134 q0 112 145 284q74 88 268 273q144 138 144 167q0 23 -32 23q-103 0 -449 -275q-288 -228 -427 -375q-178 -186 -216 -186q-29 0 -52.5 28t-23.5 59q0 41 250 336l299 353l-464 -376l-342 -263q-260 -177 -400 -177q-23 0 -23 22zM1015 1271q0 45 77 123.5t124 78.5 q56 0 204 -59.5t216 -59.5q49 0 96 46t58 46q16 0 16 -22q0 -54 -73 -124.5t-131 -70.5q-74 0 -216 52.5t-195 52.5q-34 0 -82 -47t-63 -47q-31 0 -31 31z" />
<glyph unicode="&#xf2;" horiz-adv-x="1303" d="M-445 22q0 34 36 41q110 20 188 64q136 74 442 316l478 393q137 121 168 121q45 0 100 -50q105 79 186 79q123 0 123 -132q0 -197 -315 -537q-320 -344 -518 -344q-184 0 -184 194q0 101 117 316l-372 -284q-286 -199 -428 -199q-21 0 -21 22zM443 181q0 -87 84 -87 q135 0 423 328q-152 36 -152 195q0 42 15 89q-370 -322 -370 -525zM871 606q0 -101 119 -126q67 63 134 172q74 124 74 199q0 68 -60 68q-88 0 -177.5 -111t-89.5 -202zM1046 1531q0 24 31 50t54 26q36 0 83 -99q9 -22 87 -156q71 -121 71 -128q0 -28 -36 -28 q-49 0 -170 149q-120 143 -120 186z" />
<glyph unicode="&#xf3;" horiz-adv-x="1303" d="M-445 22q0 34 36 41q110 20 188 64q136 74 442 316l478 393q137 121 168 121q45 0 100 -50q105 79 186 79q123 0 123 -132q0 -197 -315 -537q-320 -344 -518 -344q-184 0 -184 194q0 101 117 316l-372 -284q-286 -199 -428 -199q-21 0 -21 22zM443 181q0 -87 84 -87 q135 0 423 328q-152 36 -152 195q0 42 15 89q-370 -322 -370 -525zM871 606q0 -101 119 -126q67 63 134 172q74 124 74 199q0 68 -60 68q-88 0 -177.5 -111t-89.5 -202zM1100 1305q0 42 196 179q190 134 226 134q43 0 43 -58q0 -70 -81 -116l-237 -134q-83 -47 -107 -47 q-40 0 -40 42z" />
<glyph unicode="&#xf4;" horiz-adv-x="1303" d="M-445 22q0 34 36 41q110 20 188 64q136 74 442 316l478 393q137 121 168 121q45 0 100 -50q105 79 186 79q123 0 123 -132q0 -197 -315 -537q-320 -344 -518 -344q-184 0 -184 194q0 101 117 316l-372 -284q-286 -199 -428 -199q-21 0 -21 22zM443 181q0 -87 84 -87 q135 0 423 328q-152 36 -152 195q0 42 15 89q-370 -322 -370 -525zM802 1176q0 53 501 352q45 27 63 27q53 0 109 -169q49 -144 49 -215q0 -29 -38 -29q-62 0 -107 100q-58 130 -70 143q-35 -15 -254 -138q-179 -99 -217 -99q-36 0 -36 28zM871 606q0 -101 119 -126 q67 63 134 172q74 124 74 199q0 68 -60 68q-88 0 -177.5 -111t-89.5 -202z" />
<glyph unicode="&#xf5;" horiz-adv-x="1303" d="M-445 22q0 34 36 41q110 20 188 64q136 74 442 316l478 393q137 121 168 121q45 0 100 -50q105 79 186 79q123 0 123 -132q0 -197 -315 -537q-320 -344 -518 -344q-184 0 -184 194q0 101 117 316l-372 -284q-286 -199 -428 -199q-21 0 -21 22zM443 181q0 -87 84 -87 q135 0 423 328q-152 36 -152 195q0 42 15 89q-370 -322 -370 -525zM871 606q0 -101 119 -126q67 63 134 172q74 124 74 199q0 68 -60 68q-88 0 -177.5 -111t-89.5 -202zM888 1271q0 45 77 123.5t124 78.5q56 0 204 -59.5t216 -59.5q49 0 96 46t58 46q16 0 16 -22 q0 -54 -73 -124.5t-131 -70.5q-74 0 -216 52.5t-195 52.5q-34 0 -82 -47t-63 -47q-31 0 -31 31z" />
<glyph unicode="&#xf6;" horiz-adv-x="1303" d="M-445 22q0 34 36 41q110 20 188 64q136 74 442 316l478 393q137 121 168 121q45 0 100 -50q105 79 186 79q123 0 123 -132q0 -197 -315 -537q-320 -344 -518 -344q-184 0 -184 194q0 101 117 316l-372 -284q-286 -199 -428 -199q-21 0 -21 22zM443 181q0 -87 84 -87 q135 0 423 328q-152 36 -152 195q0 42 15 89q-370 -322 -370 -525zM871 606q0 -101 119 -126q67 63 134 172q74 124 74 199q0 68 -60 68q-88 0 -177.5 -111t-89.5 -202zM999 1300q0 65 59 129t122 64q80 0 80 -79q0 -58 -64.5 -124t-122.5 -66q-74 0 -74 76zM1328 1300 q0 63 59 128t122 65q80 0 80 -78q0 -61 -62.5 -125.5t-123.5 -64.5q-75 0 -75 75z" />
<glyph unicode="&#xf7;" d="M655 1012l91 101h1238l-91 -101h-1238zM923 565q0 74 69.5 150t142.5 76q92 0 92 -91q0 -68 -75 -146t-144 -78q-85 0 -85 89zM1417 1405q0 74 70 150t142 76q92 0 92 -91q0 -70 -74 -146t-145 -76q-85 0 -85 87z" />
<glyph unicode="&#xf8;" horiz-adv-x="1303" d="M-445 22q0 34 36 41q116 22 195 69q107 58 438 317q299 233 466 380q146 128 177 128q45 0 100 -50q105 79 186 79q78 0 112 -70q167 141 192 141q29 0 27 -27q-11 -18 -208 -185q-7 -199 -319 -532q-316 -340 -512 -340q-81 0 -132 51q-69 -69 -206 -181q-15 3 -29 23 q41 58 203 203q-22 45 -22 98q0 101 117 316l-369 -284q-286 -199 -429 -199q-23 0 -23 22zM449 219l751 643q-4 57 -62 57q-66 0 -156 -95t-93 -95q-22 0 -22 19q0 12 25 48q-201 -195 -260 -262q-161 -186 -183 -315zM452 147q20 -53 77 -53q119 0 338 232 q181 190 270 344q50 88 50 99v2l-3 -2z" />
<glyph unicode="&#xf9;" horiz-adv-x="1484" d="M-445 24q0 30 52 41q67 13 158 54q105 49 443 315q156 122 458 380q51 53 163 143q45 29 83 29q105 0 105 -68q0 -71 -253.5 -351.5t-253.5 -399.5q0 -31 33 -31q109 0 483.5 414.5t425.5 414.5q25 0 49.5 -26.5t24.5 -53.5q0 -43 -280.5 -366.5t-280.5 -413.5 q0 -42 61.5 -43.5t61.5 -30.5q0 -35 -91 -35q-152 0 -152 116q0 83 76 228q-315 -307 -463 -307q-112 0 -112 124q0 147 130 330l234 275l-518 -429q-438 -333 -616 -333q-21 0 -21 24zM1236 1531q0 24 31 50t54 26q36 0 83 -99q9 -22 87 -156q71 -121 71 -128 q0 -28 -36 -28q-49 0 -170 149q-120 143 -120 186z" />
<glyph unicode="&#xfa;" horiz-adv-x="1484" d="M-445 24q0 30 52 41q67 13 158 54q105 49 443 315q156 122 458 380q51 53 163 143q45 29 83 29q105 0 105 -68q0 -71 -253.5 -351.5t-253.5 -399.5q0 -31 33 -31q109 0 483.5 414.5t425.5 414.5q25 0 49.5 -26.5t24.5 -53.5q0 -43 -280.5 -366.5t-280.5 -413.5 q0 -42 61.5 -43.5t61.5 -30.5q0 -35 -91 -35q-152 0 -152 116q0 83 76 228q-315 -307 -463 -307q-112 0 -112 124q0 147 130 330l234 275l-518 -429q-438 -333 -616 -333q-21 0 -21 24zM1316 1305q0 42 196 179q190 134 226 134q43 0 43 -58q0 -70 -81 -116l-237 -134 q-83 -47 -107 -47q-40 0 -40 42z" />
<glyph unicode="&#xfb;" horiz-adv-x="1484" d="M-445 24q0 30 52 41q67 13 158 54q105 49 443 315q156 122 458 380q51 53 163 143q45 29 83 29q105 0 105 -68q0 -71 -253.5 -351.5t-253.5 -399.5q0 -31 33 -31q109 0 483.5 414.5t425.5 414.5q25 0 49.5 -26.5t24.5 -53.5q0 -43 -280.5 -366.5t-280.5 -413.5 q0 -42 61.5 -43.5t61.5 -30.5q0 -35 -91 -35q-152 0 -152 116q0 83 76 228q-315 -307 -463 -307q-112 0 -112 124q0 147 130 330l234 275l-518 -429q-438 -333 -616 -333q-21 0 -21 24zM894 1176q0 53 501 352q45 27 63 27q53 0 109 -169q49 -144 49 -215q0 -29 -38 -29 q-62 0 -107 100q-58 130 -70 143q-35 -15 -254 -138q-179 -99 -217 -99q-36 0 -36 28z" />
<glyph unicode="&#xfc;" horiz-adv-x="1484" d="M-445 24q0 30 52 41q67 13 158 54q105 49 443 315q156 122 458 380q51 53 163 143q45 29 83 29q105 0 105 -68q0 -71 -253.5 -351.5t-253.5 -399.5q0 -31 33 -31q109 0 483.5 414.5t425.5 414.5q25 0 49.5 -26.5t24.5 -53.5q0 -43 -280.5 -366.5t-280.5 -413.5 q0 -42 61.5 -43.5t61.5 -30.5q0 -35 -91 -35q-152 0 -152 116q0 83 76 228q-315 -307 -463 -307q-112 0 -112 124q0 147 130 330l234 275l-518 -429q-438 -333 -616 -333q-21 0 -21 24zM1091 1300q0 65 59 129t122 64q80 0 80 -79q0 -58 -64.5 -124t-122.5 -66q-74 0 -74 76 zM1420 1300q0 63 59 128t122 65q80 0 80 -78q0 -61 -62.5 -125.5t-123.5 -64.5q-75 0 -75 75z" />
<glyph unicode="&#xfd;" horiz-adv-x="1524" d="M-445 24q0 30 36 39q228 56 630 386l317 261l204 181q172 148 194 148q47 0 89.5 -31.5t42.5 -77.5l-286 -331q-286 -338 -286 -451q0 -32 36 -32q109 0 530 402q310 295 515 526q41 47 59 47q35 0 72 -24t37 -57q0 -18 -24 -43q-333 -362 -729 -911l112 4q24 0 24 -29 q0 -33 -84 -40l-112 -5l-505 -625q-454 -518 -644 -518q-91 0 -91 122q0 269 356 623t732 439l375 483l-297 -264q-272 -224 -369 -224q-114 0 -114 161q0 139 132 327l221 279q-214 -190 -491 -411q-226 -179 -306 -231q-219 -147 -355 -147q-21 0 -21 24zM-239 -994 q0 -61 44 -61q173 0 912 1004q-364 -117 -660 -429.5t-296 -513.5zM1310 1305q0 42 196 179q190 134 226 134q43 0 43 -58q0 -70 -81 -116l-237 -134q-83 -47 -107 -47q-40 0 -40 42z" />
<glyph unicode="&#xfe;" horiz-adv-x="1493" d="M-583 -776q0 86 371 508l377 411l646 706q-239 -212 -530 -440l-324 -248q-238 -161 -381 -161q-21 0 -21 24q0 30 45 39q58 9 150 49q234 98 1059 818l170 149q31 18 80 56l760 916q125 150 197 150q67 0 67 -74q0 -67 -539 -692l-554 -628l-2 -2q214 180 348 180 q141 0 141 -152q0 -198 -221 -446q-190 -215 -396 -322q21 -5 213 -5q24 0 24 -29q0 -38 -141 -38q-116 0 -196 34q-43 -16 -88 -16q-181 0 -169 253l-968 -1089q-35 -40 -64 -40q-54 0 -54 89zM563 224q0 -101 72 -101q20 0 37 9l-33 120q-27 96 -40 96q-36 0 -36 -124z M619 384q53 0 78 -93q34 -117 47 -134q210 120 390 359t180 317q0 50 -56 50q-107 0 -339 -202q-166 -145 -300 -297z" />
<glyph unicode="&#xff;" horiz-adv-x="1524" d="M-445 24q0 30 36 39q228 56 630 386l317 261l204 181q172 148 194 148q47 0 89.5 -31.5t42.5 -77.5l-286 -331q-286 -338 -286 -451q0 -32 36 -32q109 0 530 402q310 295 515 526q41 47 59 47q35 0 72 -24t37 -57q0 -18 -24 -43q-333 -362 -729 -911l112 4q24 0 24 -29 q0 -33 -84 -40l-112 -5l-505 -625q-454 -518 -644 -518q-91 0 -91 122q0 269 356 623t732 439l375 483l-297 -264q-272 -224 -369 -224q-114 0 -114 161q0 139 132 327l221 279q-214 -190 -491 -411q-226 -179 -306 -231q-219 -147 -355 -147q-21 0 -21 24zM-239 -994 q0 -61 44 -61q173 0 912 1004q-364 -117 -660 -429.5t-296 -513.5zM1260 1300q0 65 59 129t122 64q80 0 80 -79q0 -58 -64.5 -124t-122.5 -66q-74 0 -74 76zM1589 1300q0 63 59 128t122 65q80 0 80 -78q0 -61 -62.5 -125.5t-123.5 -64.5q-75 0 -75 75z" />
<glyph unicode="&#x152;" horiz-adv-x="3601" d="M472 427q0 449 330 952q315 480 787 800q496 337 947 337q349 0 349 -304q0 -56 -16 -129q250 187 686 313q411 120 747 120q413 0 413 -272q0 -152 -299 -293q-262 -127 -443 -127q-110 0 -110 93q0 56 94 119q87 58 144 58q37 0 37 -23q0 -17 -56.5 -40.5t-59.5 -39.5 q14 -14 45 -14q89 0 311 105q243 115 243 195q0 72 -264 72q-281 0 -672 -95.5t-637 -227t-246 -227.5q0 -159 510 -224q290 -38 639 -38q73 0 73 -55q0 -99 -234 -110q-708 -33 -1352 -331q-664 -306 -664 -610q0 -301 510 -301q587 0 1092 496q32 33 54 33q42 0 42 -102 q0 -164 -371.5 -383t-754.5 -219q-529 0 -654 342q-148 -141 -344 -235q-213 -104 -400 -104q-220 0 -348 125t-128 344zM643 331q0 -286 237 -286q347 0 773 484q18 351 506 606q332 175 808 275q315 67 401 67q-222 0 -420 76q-262 101 -262 286q0 69 40.5 205.5 t40.5 207.5q0 179 -222 179q-400 0 -865 -369q-429 -342 -730 -838q-307 -505 -307 -893z" />
<glyph unicode="&#x153;" horiz-adv-x="1768" d="M-445 22q0 34 40 41q61 13 146 46q132 52 492 336q292 230 471 395q123 114 165 114q60 0 83 -69q116 101 201 101q123 0 123 -128q0 -62 -23 -118q325 277 515 277q142 0 142 -123q0 -161 -306 -356q-232 -149 -460 -225q-25 -54 -25 -112q0 -94 72 -123q42 -16 152 -16 q29 0 29 -31q0 -49 -232 -49q-226 0 -226 208q0 45 11 91q-293 -308 -480 -308q-186 0 -186 194q0 101 117 316l-372 -284q-286 -199 -428 -199q-21 0 -21 22zM443 186q0 -92 84 -92q143 0 407 306t264 454q0 65 -63 65q-76 0 -159 -105q-111 -137 -131 -150q-12 8 -12 24 q0 23 58 108q-448 -429 -448 -610zM1166 384q161 79 353 226q244 188 244 295q0 43 -40 43q-118 0 -318 -222q-178 -199 -239 -342z" />
<glyph unicode="&#x178;" horiz-adv-x="2686" d="M545 1225q0 185 403 527q288 244 674 453q469 255 753 255q155 0 155 -138q0 -170 -452 -604l-844 -791q-452 -464 -452 -701q0 -125 123 -125q250 0 930 527q408 315 867 735q192 175 779 778q173 179 211 179q37 0 75.5 -23.5t38.5 -55.5q0 -36 -38 -78l-2141 -2420 l-235 -235q-170 -169 -188 -230q21 5 70 45q44 38 62 38q16 0 23 -14q-1 -28 -164 -172q-156 -140 -228 -230q-67 -83 -111 -83q-38 0 -72.5 36t-34.5 76q0 61 109 184l1265 1434l458 527q-601 -518 -785 -659q-609 -467 -864 -467q-268 0 -268 307q0 312 371 728 q163 183 614 581q342 302 525 482q219 213 219 257q0 19 -26 19q-112 0 -499 -177t-792.5 -517.5t-405.5 -436.5q0 -36 47 -36q112 0 306 92l184 93q15 -6 15 -17q0 -65 -226 -172q-214 -101 -305 -101q-146 0 -146 130zM3372 2933q0 65 59 129t122 64q80 0 80 -79 q0 -58 -64.5 -124t-122.5 -66q-74 0 -74 76zM3701 2933q0 63 59 128t122 65q80 0 80 -78q0 -61 -62.5 -125.5t-123.5 -64.5q-75 0 -75 75z" />
<glyph unicode="&#x2c6;" horiz-adv-x="1853" d="M1079 1176q0 53 501 352q45 27 63 27q53 0 109 -169q49 -144 49 -215q0 -29 -38 -29q-62 0 -107 100q-58 130 -70 143q-35 -15 -254 -138q-179 -99 -217 -99q-36 0 -36 28z" />
<glyph unicode="&#x2dc;" horiz-adv-x="1853" d="M1167 1271q0 45 77 123.5t124 78.5q56 0 204 -59.5t216 -59.5q49 0 96 46t58 46q16 0 16 -22q0 -54 -73 -124.5t-131 -70.5q-74 0 -216 52.5t-195 52.5q-34 0 -82 -47t-63 -47q-31 0 -31 31z" />
<glyph unicode="&#x2000;" horiz-adv-x="1668" />
<glyph unicode="&#x2001;" horiz-adv-x="3336" />
<glyph unicode="&#x2002;" horiz-adv-x="1668" />
<glyph unicode="&#x2003;" horiz-adv-x="3336" />
<glyph unicode="&#x2004;" horiz-adv-x="1112" />
<glyph unicode="&#x2005;" horiz-adv-x="834" />
<glyph unicode="&#x2006;" horiz-adv-x="556" />
<glyph unicode="&#x2007;" horiz-adv-x="556" />
<glyph unicode="&#x2008;" horiz-adv-x="417" />
<glyph unicode="&#x2009;" horiz-adv-x="667" />
<glyph unicode="&#x200a;" horiz-adv-x="185" />
<glyph unicode="&#x2010;" horiz-adv-x="1038" d="M56 543q0 83 657 83h179q131 -12 131 -78q0 -54 -64 -56l-302 -7l-416 -9q-185 0 -185 67z" />
<glyph unicode="&#x2011;" horiz-adv-x="1038" d="M56 543q0 83 657 83h179q131 -12 131 -78q0 -54 -64 -56l-302 -7l-416 -9q-185 0 -185 67z" />
<glyph unicode="&#x2012;" horiz-adv-x="1038" d="M56 543q0 83 657 83h179q131 -12 131 -78q0 -54 -64 -56l-302 -7l-416 -9q-185 0 -185 67z" />
<glyph unicode="&#x2013;" horiz-adv-x="2121" d="M239 523q0 44 69 67q159 51 758 51l751 -27q114 -6 114 -46q0 -106 -135 -103l-726 22l-375 -4l-376 -5q-80 0 -80 45z" />
<glyph unicode="&#x2014;" horiz-adv-x="2421" d="M51 523q0 42 76 67q154 51 1151 51q1024 0 1109 -55l8 -18q-2 -108 -151 -103l-1042 22l-1066 -9q-85 0 -85 45z" />
<glyph unicode="&#x2018;" horiz-adv-x="818" d="M1294 1939q0 128 188 271q181 136 315 136q29 0 29 -26q0 -30 -90.5 -54.5t-180.5 -124.5q98 0 98 -67q0 -72 -100 -151.5t-174 -79.5q-85 0 -85 96z" />
<glyph unicode="&#x2019;" horiz-adv-x="695" d="M1479 2118q0 29 58 45q128 34 213 134q-97 0 -97 65q0 72 101 156q96 78 172 78q85 0 85 -96q0 -131 -188 -274q-180 -134 -315 -134q-29 0 -29 26z" />
<glyph unicode="&#x201a;" horiz-adv-x="695" d="M-510 -176q0 31 59 47q129 35 212 133q-98 0 -98 65q0 72 102 154q96 77 172 77q85 0 85 -94q0 -130 -189 -273q-179 -134 -314 -134q-29 0 -29 25z" />
<glyph unicode="&#x201c;" horiz-adv-x="1248" d="M1294 1939q0 128 188 271q181 136 315 136q29 0 29 -26q0 -30 -90.5 -54.5t-180.5 -124.5q98 0 98 -67q0 -72 -100 -151.5t-174 -79.5q-85 0 -85 96zM1727 1939q0 128 188 271q179 136 313 136q29 0 29 -26q0 -30 -91.5 -55.5t-179.5 -123.5q99 0 99 -67 q0 -70 -100.5 -150.5t-174.5 -80.5q-83 0 -83 96z" />
<glyph unicode="&#x201d;" horiz-adv-x="1248" d="M1229 1868q0 29 58 45q128 35 213 134q-97 0 -97 65q0 73 101 156q96 78 172 78q85 0 85 -96q0 -130 -188 -273q-179 -134 -315 -134q-29 0 -29 25zM1660 1868q0 29 91.5 53.5t181.5 125.5q-99 0 -99 65q0 71 99.5 152.5t173.5 81.5q85 0 85 -96q0 -130 -188 -272 q-178 -135 -313 -135q-31 0 -31 25z" />
<glyph unicode="&#x201e;" horiz-adv-x="1248" d="M-154 -181q0 14 107 65q121 60 165 114q-98 0 -98 65q0 75 101 156q96 78 172 78q85 0 85 -96q0 -130 -188 -273q-179 -134 -315 -134q-29 0 -29 25zM277 -181q0 29 60 47q135 42 213 132q-99 0 -99 65q0 71 99.5 152.5t173.5 81.5q85 0 85 -96q0 -130 -188 -272 q-178 -135 -313 -135q-31 0 -31 25z" />
<glyph unicode="&#x2022;" horiz-adv-x="2470" d="M1220 1260q0 215 149.5 366t364.5 151q212 0 358.5 -152.5t146.5 -364.5q0 -214 -147.5 -366t-361.5 -152q-211 0 -360.5 153t-149.5 365z" />
<glyph unicode="&#x2026;" horiz-adv-x="2056" d="M-13 71q0 74 70 150t144 76q92 0 92 -89q0 -70 -74 -148t-145 -78q-87 0 -87 89zM673 71q0 74 70 150t142 76q94 0 94 -89q0 -70 -75 -148t-146 -78q-85 0 -85 89zM1359 71q0 74 70 150t142 76q92 0 92 -89q0 -70 -74 -148t-145 -78q-85 0 -85 89z" />
<glyph unicode="&#x202f;" horiz-adv-x="667" />
<glyph unicode="&#x2039;" horiz-adv-x="1165" d="M223 568q0 37 63 84q257 188 561 468q31 29 51 29q32 0 32 -38q0 -146 -544 -534q126 -67 264 -166q197 -139 197 -205q0 -38 -47 -38q-33 0 -139 89q-194 116 -418 268q-20 22 -20 43z" />
<glyph unicode="&#x203a;" horiz-adv-x="1163" d="M376 188q0 136 589 491q-427 298 -427 407q0 36 43 36q36 0 139 -101q96 -96 297 -230q111 -74 111 -112q0 -40 -67 -80q-308 -185 -603 -420q-33 -25 -51 -25q-31 0 -31 34z" />
<glyph unicode="&#x205f;" horiz-adv-x="834" />
<glyph unicode="&#x20ac;" d="M452 840q0 47 73 43q67 -3 210 -11q65 105 186 232q-287 13 -287 62q0 47 72 43l306 -14q233 222 505 392q351 219 584 219q192 0 210 -153q18 -143 -130 -169q36 109 11 183q-29 89 -112 78q-324 -40 -827 -563l150 -7q181 -4 505 -18q25 -2 25 -35q0 -52 -141 -52 q78 0 -619 27q-103 -114 -197 -237q81 -4 246 -11q181 -4 505 -18q25 -2 25 -35q0 -52 -141 -52q-96 0 -342 13q-273 14 -357 16q-224 -340 -224 -563q0 -174 183 -174q25 0 56 4q282 34 575 315l102 97q38 6 41 -30q11 -82 -145 -214q-262 -222 -508 -253q-51 -6 -96 -6 q-348 0 -348 346q0 223 134 485q-230 13 -230 60z" />
<glyph unicode="&#x2122;" horiz-adv-x="3676" d="M1180 1204q0 117 117.5 235.5t221.5 118.5q34 0 34 -32q0 -18 -143 -128.5t-143 -230.5q0 -79 63 -79q152 0 391 253q96 102 308 379q302 394 529 593l-277 6q-223 0 -408 -95q-119 -59 -239 -173q-99 -94 -117 -94q-55 0 -55 41q241 284 241 431q0 45 40 45q78 0 78 -49 q0 -83 -80 -197q274 208 648 208q82 0 277 -12q35 38 63 38q37 0 37 -44l193 -3q53 0 159 14.5t158 14.5q29 0 29 -28q0 -58 -282 -88q-205 -22 -342 -18q-219 -234 -522 -656q-217 -302 -331 -414q-230 -225 -460 -225q-188 0 -188 189zM2496 1104q0 36 516 581t519 641 l-14 14q-190 -1 -824 -671q-32 -35 -52 -35q-35 0 -35 29q0 38 194 243q147 154 342 308q261 202 382 202q91 0 91 -92q0 -112 -277 -462q570 482 706 482q90 0 90 -89q0 -94 -194 -355q654 589 826 589q97 0 97 -91q0 -69 -50.5 -146.5t-546.5 -582.5q-449 -456 -449 -531 q0 -18 36 -18q46 0 46 -23q0 -42 -78 -42q-103 0 -103 93q0 135 275 441q125 141 510 518q275 270 275 313l-7 5q-63 -1 -393 -255q-380 -291 -887 -832q-257 -276 -275 -276q-21 0 -46.5 22t-25.5 44q0 41 453.5 553.5t455.5 586.5l-8 7q-182 -54 -693 -499 q-429 -377 -644 -616q-105 -117 -127 -117q-20 0 -52.5 20.5t-32.5 40.5z" />
<glyph unicode="&#xe000;" horiz-adv-x="1058" d="M0 0v1059h1059v-1059h-1059z" />
</font>
</defs>
</svg>
