<?xml version="1.0" standalone="no"?>
<!DOCTYPE svg PUBLIC "-//W3C//DTD SVG 1.1//EN" "http://www.w3.org/Graphics/SVG/1.1/DTD/svg11.dtd" >
<svg xmlns="http://www.w3.org/2000/svg">
<metadata></metadata>
<defs>
<font id="aurablueboldregular" horiz-adv-x="1643" >
<font-face units-per-em="2048" ascent="1638" descent="-410" />
<missing-glyph horiz-adv-x="403" />
<glyph horiz-adv-x="0" />
<glyph horiz-adv-x="682" />
<glyph unicode=" "  horiz-adv-x="403" />
<glyph unicode="&#x09;" horiz-adv-x="403" />
<glyph unicode="&#xa0;" horiz-adv-x="403" />
<glyph unicode="!" horiz-adv-x="318" d="M185 -58q8 42 58 32q22 -2 35 -23t11 -47.5t-21 -43.5q-34 -26 -64 12q-26 33 -19 70zM186 84q1 208 18 560.5t34 600.5l17 249q0 15 15 26t37 11q41 -8 41 -47q-7 -105 -18 -273.5t-30 -544.5t-20 -582q0 -8 -6.5 -15.5t-17 -12t-23.5 -4.5q-19 0 -33 9.5t-14 22.5z" />
<glyph unicode="&#x22;" horiz-adv-x="544" d="M70 1266q-3 14 8.5 31t26.5 29q24 19 33 43.5t7 45t-9 53.5q-16 62 29 108q21 19 43 23.5t40.5 -4t33.5 -25.5t25 -39q9 -20 9.5 -42.5t-3.5 -40t-17 -41.5t-21.5 -37t-25.5 -37l-3 -4.5t-2.5 -3.5t-2.5 -4q-7 -8 -18.5 -24t-17.5 -23q-6 -8 -26 -20.5t-44 -22.5 t-43.5 -2.5t-21.5 37.5zM296 1266q-4 14 7.5 31t26.5 29q24 19 33 43.5t8 45.5t-9 53q-16 63 28 108q14 13 29 19.5t28.5 6t26 -6t23.5 -15t20 -22.5t15 -27q10 -21 10.5 -43.5t-4 -40.5t-17 -42t-21.5 -37t-26 -37l-1.5 -3t-1.5 -2t-2 -2.5t-2 -2.5q-6 -8 -18.5 -24 t-18.5 -23q-6 -8 -26 -20.5t-44 -22.5t-43.5 -2.5t-20.5 37.5z" />
<glyph unicode="#" horiz-adv-x="1299" d="M5 463q0 19 16 29.5t37 10.5v-3l393 8l42 140l-393 10q-22 0 -37.5 15t-15.5 37t15.5 37.5t37.5 15.5l420 -10l115 411q8 15 27.5 25t35.5 7q21 -8 31.5 -26.5t6.5 -36.5l-110 -380l202 -5q13 46 30 97.5t39 114.5t34 99q7 22 25 30.5t40 1.5q24 -4 33 -24t-1 -44 q-66 -189 -90 -278l208 -5q24 0 38.5 -16t11.5 -39q0 -16 -16.5 -25.5t-36.5 -9.5l-233 -10q-4 -13 -18 -61.5t-22 -75.5l278 -3q23 -4 37 -20t11 -37q0 -21 -13.5 -35t-39.5 -12l-296 2q-72 -301 -102 -498q0 -11 -3 -20.5t-12 -20t-25.5 -11t-44.5 6.5q-29 0 -17 61 q37 258 93 485l-204 2l-117 -418q-4 -17 -19.5 -28.5t-33.5 -11.5q-2 0 -4 1.5t-5 1.5q-24 3 -37 23.5t-4 43.5l113 391l-367 6q-23 0 -38 14.5t-15 36.5zM558 508h205q6 26 21 74.5t19 60.5l-203 5z" />
<glyph unicode="$" horiz-adv-x="610" d="M35 1213q31 82 112 105q3 1 7.5 3t8 3t8 2t7.5 0q-1 16 -2.5 46.5t-2.5 45.5q0 15 6.5 26.5t17.5 19t26 9.5q22 0 38.5 -14t16.5 -36q1 -17 5 -63.5t5 -74.5q31 -19 72 -79q75 -108 112 -226q4 -16 -4.5 -35.5t-27.5 -26.5q-18 -8 -41 2t-27 31q-19 51 -45.5 114.5 t-30.5 67.5q26 -432 32 -565q49 -91 94 -165l26 -50q71 -119 79 -201q5 -69 -27 -132t-97 -88q-7 -2 -11.5 -2.5t-12 -1t-14.5 -1.5q1 -11 1.5 -30t1.5 -30.5t2 -13.5v-16q-6 -32 -53 -32h-5h-8.5t-9 1t-10 3.5t-8.5 6t-7 10.5t-4 17v7q-3 8 -3 37q-1 7 -1 23t-1 27 q-2 0 -11.5 8.5t-23 23t-27.5 31t-26 36t-17 34.5q-11 33 -18.5 57t-15.5 55t-10.5 55.5t-1.5 50.5t9 47q7 22 27 31t38 1q22 -7 31 -27t1 -38q-8 -33 -1 -82.5t19 -94t17 -47.5q-4 41 -7 95t-6.5 135.5t-6.5 131.5q-3 48 -7 100q-35 61 -108 220q-137 312 -80 453z M131 1178q-46 -111 74 -378q2 -4 20 -60q-34 457 -37 473q-49 -12 -57 -35zM316 242l4 -74q2 -50 4 -76t5.5 -39.5t5.5 -16t9.5 -5t12.5 -5.5q1 0 16.5 3t16.5 3q11 4 18.5 10t11 16.5t5.5 18t1 23t-1.5 21.5t-2.5 24q-1 19 -8.5 41.5t-14 36.5t-21 41.5t-18.5 37.5 q-22 33 -32 51q-17 33 -12 -111z" />
<glyph unicode="%" horiz-adv-x="866" d="M115 973q12 56 29 103t41.5 86t57.5 60t72 18q20 0 37 -21t13 -44q0 -25 -17 -43t-36 -18q-13 1 -24.5 -3.5t-20 -16.5t-14 -23.5t-11 -33.5t-8 -35t-7.5 -38q-1 -4 -1 -6t-1 -5.5t-1.5 -6t-0.5 -5.5q-5 -19 2 -26v3q27 3 57.5 54.5t54 112t50.5 116t46 65.5q13 13 75 27 q142 16 147 15q102 -4 142 -110q19 -44 19.5 -107t-14 -130t-30.5 -121t-36 -107q-63 -168 -186 -418q-6 -13 -19.5 -41t-19.5 -41q-24 -53 -34 -70q-63 -108 -74 -166q-2 -17 38 17q18 15 31 31q7 7 22 23t22 24q135 124 220 91q57 -20 79 -96q12 -35 10 -82.5t-17 -82.5 q-15 -34 -43 -51.5t-57 -15.5q-29 0 -56 20t-44 55q-23 37 -26 55q-27 -17 -39 -32q-48 -52 -103 -95q-27 -21 -55 -21q-37 0 -60 23q-23 29 -30.5 71.5t3.5 94.5q5 24 16 54.5t19 47t28.5 55t23.5 45.5q15 33 35 68q7 14 20.5 43.5t20.5 43.5q129 264 182 403 q46 119 62 214t-2 143q-12 35 -55 40q-2 0 -13.5 -1.5t-28.5 -4t-36 -5.5t-41 -6t-39 -5q0 -4 -1 -10t-1 -8q-15 -84 -51 -160.5t-90 -129.5t-111 -62q-72 -5 -100 47q-35 64 -21 135zM675 53.5q1 -13.5 4.5 -27t7.5 -23.5l2.5 -5t2 -4.5t2.5 -4t3.5 -3.5l4.5 -3t6 -1.5 t8 0.5q0 1 1 3t3.5 9t3.5 14t-0.5 17t-5.5 20q-5 11 -18 20l-8 3.5t-11 1.5q-7 -3 -6 -16.5z" />
<glyph unicode="&#x26;" horiz-adv-x="1148" d="M-47 158q1 58 9.5 111t24.5 106q32 119 126 262q29 44 93 117.5t90 108.5q2 2 11.5 13t12.5 17q-1 3 -15 17q-45 49 -76 105t-46 118.5t-13 127.5q2 43 11.5 82.5t26.5 78t47.5 68.5t69.5 46q67 27 121 5.5t92 -81.5q31 -61 32.5 -129t-20.5 -135q-25 -99 -83 -213 q-5 -7 -24.5 -48.5t-17.5 -43.5q9 -13 53 -50.5t75 -52.5q1 0 6 8t15 18.5t21 16.5q80 55 128 62q24 10 35 3q28 0 52 -20q7 -7 15 -13t12.5 -11t9.5 -19q17 0 8 75q-6 34 -27.5 61.5t-51.5 31.5q-13 2 -26 -7t-19 -21q-30 -30 -46 -13q-14 0 -20.5 21t6.5 34q14 32 46.5 47 t68.5 13q58 -7 97 -60q35 -44 42 -92q10 -56 -3 -112t-39 -58q25 -57 25 -142q0 -123 -61 -271q-94 -205 -215 -330q-49 -52 -116 -102q2 -6 6.5 -14t8.5 -15t9 -16t8 -15q22 -44 60 -78q36 -27 81 -31t87 18q39 19 66.5 57t35.5 84q0 9 11 20.5t26 11.5q9 0 21 -15t12 -25 q-11 -65 -49 -118.5t-91 -81.5q-54 -25 -108 -25q-77 0 -137 47q-42 34 -78 102q-2 4 -9.5 14t-11 16.5t-6.5 13.5q-9 -9 -65.5 -27.5t-99.5 -18.5h-15q-42 0 -81 13q-62 25 -105 53t-74 72q-33 41 -49.5 95.5t-15.5 112.5zM128 29q11 -70 77 -112t135 -25q6 0 13 3 q17 6 35.5 14.5t29 15t12.5 7.5q-5 14 -12.5 39.5t-13 44t-6.5 19.5q-9 46 -10 46q-13 83 -13 142q-3 87 23 249q11 56 47.5 134t67.5 122q-73 38 -135 100q-4 2 -38.5 -49.5t-46.5 -70.5q-67 -136 -98 -218q-103 -269 -67 -461zM263.5 1302.5q0.5 -29.5 6.5 -57.5 q30 -124 73 -220q16 -46 27 -60q36 52 70 136q4 11 8 15q2 4 5 12q9 24 14 37.5t12 35t11.5 40.5t7.5 38q3 31 -1.5 63.5t-16.5 62.5t-36.5 49t-58.5 19q-33 0 -57.5 -15.5t-38 -39.5t-20 -55t-6 -60.5zM472 110q1 -7 2 -31t2 -35t4.5 -30t9.5 -37q32 23 90 86 q119 129 198 307q58 126 58 241v17v21.5t-1 18t-3.5 22t-5.5 18.5q-47 -32 -123 -32q-43 11 -66 16q-51 -91 -84 -179q-9 -24 -17 -48.5t-15.5 -57t-11 -48t-12 -57.5t-9.5 -50q-5 -21 -9 -56.5t-5 -60.5zM666 763q6 -1 12 -4.5t12 -6t13 -2.5q60 0 97 26q-2 7 -7.5 13.5 t-13.5 14t-11 11.5q-12 8 -18 8q-24 0 -45.5 -15t-30.5 -30z" />
<glyph unicode="'" horiz-adv-x="318" d="M29 1256q-3 13 8 30.5t26 29.5q23 19 32.5 43t8 45.5t-8.5 53.5q-17 63 28 107q29 28 57 26t49.5 -21t35.5 -49q9 -21 9.5 -43.5t-3.5 -40.5t-17 -42t-21.5 -37t-25.5 -37q-2 -3 -3 -4t-2 -3t-2 -3q-7 -8 -19 -24l-18 -24q-7 -7 -26.5 -19.5t-43 -22.5t-43 -2.5 t-21.5 37.5z" />
<glyph unicode="(" horiz-adv-x="544" d="M53 123.5q-88 446.5 33 903t441 881.5q6 7 21 -2t25 -22.5t4 -19.5q-234 -311 -362 -631q-119 -321 -131 -656q-12 -348 86 -647q106 -327 320 -611q0 -11 -24 -27t-33 -8q-292 393 -380 839.5z" />
<glyph unicode=")" horiz-adv-x="736" d="M35 1874q-6 6 3.5 19.5t24.5 22.5t21 3q321 -424 441 -880.5t31 -902.5t-381 -839q-4 -4 -20 3t-29 17l-13 10q230 309 325 610q99 306 87 650.5t-132 652.5q-135 337 -358 634z" />
<glyph unicode="*" horiz-adv-x="988" d="M18 383q-3 14 1.5 27.5t15.5 23t25 11.5q133 28 192 32q-72 75 -202 231q-19 14 -17 38t22 37q18 17 37 14t33 -21q104 -121 198 -218q6 113 2 260q0 22 15.5 37t37.5 15t37 -15t15 -37q4 -115 -2 -257l257 262q17 13 37.5 13t37.5 -13q26 -38 3 -73l-255 -257 q68 2 200 -13q23 0 37 -18.5t10 -36.5q0 -22 -16 -36t-39 -14q-141 15 -212 13q21 -23 44 -45t50.5 -47.5t44.5 -41t52 -47t47 -42.5q18 -13 18.5 -38t-13.5 -37q-17 -17 -39 -17q-20 0 -34 14q-157 140 -250 233q-7 -87 -38 -268q-4 -16 -19.5 -27.5t-33.5 -11.5h-7 q-23 4 -36 22t-9 38q35 192 37 212l-189 -195q-17 -17 -40 -17q-22 0 -36 14q-17 13 -17 37t17 41l206 207q-30 -2 -151 -26q-4 -5 -9.5 -6.5t-8.5 -0.5l-4 1q-17 0 -32.5 13t-19.5 30z" />
<glyph unicode="+" horiz-adv-x="1186" d="M-42 580q0 23 13 40t34 17q229 33 483 41q-6 152 -30 386q0 22 13 38.5t35 20.5q22 0 37.5 -12t19.5 -33q23 -236 30 -397q223 4 448 -8q22 0 37.5 -17.5t12.5 -39.5q0 -24 -15.5 -36t-39.5 -12q-239 13 -441 9q9 -295 -5 -530q0 -18 -15.5 -27.5t-36.5 -9.5t-37 12 t-16 30q14 232 5 523q-199 -7 -475 -43h-5q-17 0 -32.5 15t-19.5 33z" />
<glyph unicode="," horiz-adv-x="337" d="M20 -160q0 33 40 58q51 40 35 60q-13 16 -32 45q-19 28 -18 58.5t20 58.5q27 38 71 46.5t84 -11.5q41 -23 58 -53q29 -49 10 -99q-9 -34 -28 -58q-65 -79 -115 -115q-10 -7 -28 -14.5t-39.5 -12t-38.5 4t-19 32.5z" />
<glyph unicode="-" horiz-adv-x="875" d="M18 580q-4 22 8 40.5t34 22.5q356 76 713 28q19 -4 32.5 -20.5t9.5 -37.5q0 -22 -17.5 -36.5t-39.5 -10.5q-350 45 -680 -28h-8q-17 0 -32.5 12.5t-19.5 29.5z" />
<glyph unicode="." horiz-adv-x="337" d="M87 -55q-27 80 46 131q28 20 82 24q4 -3 21.5 -11t23.5 -13q37 -38 33 -89q-4 -67 -55 -107q-30 -24 -69.5 -19.5t-58.5 34.5q-11 13 -23 50z" />
<glyph unicode="/" horiz-adv-x="440" d="M-338 -40q239 858 655 1704q8 17 28.5 24.5t42.5 -0.5q17 -7 24.5 -30t-0.5 -40q-403 -814 -645 -1683q-4 -15 -17.5 -25.5t-29.5 -14.5h-22q-17 8 -28.5 28t-7.5 37z" />
<glyph unicode="0" horiz-adv-x="916" d="M-45 317q-13 430 95 949q75 346 220 548q38 56 73 82q14 13 42.5 30t49.5 17q67 4 113 -42q111 -109 128 -551q0 -24 2 -29q25 -512 -23 -833q-28 -202 -97 -404q-7 -21 -21 -57t-17 -45q-24 -75 -73.5 -161.5t-100.5 -143.5q-27 -30 -53.5 -45t-49.5 -16t-47 10.5 t-44.5 29.5t-43.5 46q-38 45 -65.5 107t-42.5 118.5t-25 134t-13.5 128.5t-6.5 127zM128 105q12 -114 42 -213q1 -4 6.5 -27t8 -32.5t8.5 -30.5t11 -32.5t13 -26t16 -23.5q6 -9 13 -12t15 1t14.5 8.5t16 16t15.5 19t17 23.5q9 13 14 19q60 95 106.5 203.5t76.5 212.5t50 222 t29.5 220.5t12 219.5t0.5 207.5t-8 195.5q0 13 -0.5 27.5t-1 27t-0.5 19.5q-2 54 -4.5 91.5t-10 107.5t-18.5 120t-31 100.5t-46 76.5q-24 24 -53 20q-25 -3 -52 -30q-78 -126 -118 -255q-51 -164 -73 -313q-19 -125 -57 -445q-44 -398 -12 -718z" />
<glyph unicode="1" horiz-adv-x="588" d="M-8 1623q-37 30 5 73q61 37 126 108q16 29 50 67q3 5 9 9.5t11 7.5t12.5 8t12.5 7q31 15 71 1t57 -48q29 -53 29 -125q0 -91 -5.5 -199t-13 -228.5t-10.5 -200.5q-4 -145 -18 -435t-18 -435q-5 -175 -3 -262q0 -12 0.5 -47.5t0 -53.5t-2 -47t-6 -53.5t-11.5 -47.5 q-16 -43 -36 -57q-34 -22 -75.5 -10t-61.5 47q-11 19 -17.5 44.5t-8.5 56t-2 54.5t1.5 57.5t1.5 48.5q0 42 1 89.5t3 105t3 89.5q3 62 9 178t9.5 210t4.5 178q0 66 10 200.5t10 202.5q0 43 1.5 106t2.5 109t2 104t1 106q0 7 3.5 18.5t3.5 17t-7 6.5q-23 -26 -84 -60 q-44 -19 -71 0z" />
<glyph unicode="2" horiz-adv-x="1373" d="M-33 -274.5q-1 29.5 4 52t16 54.5q37 101 100 211t117.5 185.5t142.5 194t133 182.5q99 139 270 418q55 91 81.5 137t67.5 125.5t66 145.5q36 83 55 218q0 1 3 16.5t3.5 19t2.5 18t2 20v17.5t-1 19.5t-3.5 17t-6.5 16.5q-13 24 -53 42t-74 16q-146 -4 -253 -53 q-131 -64 -184 -162q0 -27 -48 -27q-41 23 -23 55q73 136 223 202q128 57 280 60q65 4 127 -28q76 -38 91 -68q55 -44 69 -142l3.5 -21t4.5 -21q11 -87 -5 -183q-26 -152 -82.5 -305.5t-138 -297t-168 -268.5t-194.5 -257q-29 -35 -64.5 -77t-63.5 -74.5t-67 -78t-65 -76.5 q-13 -16 -62 -72.5t-73 -89.5q-4 -6 -14 -19t-19.5 -25t-18.5 -27t-14 -28.5t-4 -27t10 -23.5q4 -5 12 -7t15.5 -2t18 2t18.5 4l18 4.5t16 3.5q43 13 53 18q21 9 55 27t63.5 35t51.5 30.5t24 15.5q215 139 370 220q15 8 30 4t23 -20q7 -15 1.5 -29.5t-21.5 -22.5 q-185 -105 -356 -212q-3 -4 -40 -27t-88.5 -52.5t-83.5 -43.5q-2 -1 -30 -10.5t-54.5 -18t-58.5 -14.5t-49 -2q-26 -2 -51.5 0.5t-54 15.5t-40.5 36q-14 24 -15 53.5z" />
<glyph unicode="3" horiz-adv-x="1034" d="M-29 -312q0 46 34 76l18 18q28 29 54.5 62t60 78.5t48.5 64.5q27 38 83.5 114t83.5 114q189 258 273 477q76 187 40 317q-17 56 -57 99t-93.5 67t-109.5 36.5t-115 14.5q-47 3 -141 -18q-35 -7 -60 18q-15 11 -20 32.5t0 31.5q1 4 2.5 8.5t3 8t3 8t2.5 6.5 q96 158 152 233q3 4 32 41.5t42 58.5q14 17 19 24.5t11.5 23.5t5.5 31t-6 26.5t-13.5 19.5t-20 11.5t-25.5 2.5h-13q-25 -3 -112.5 -37t-117.5 -63q-7 -6 -14 -9t-10 -2l-3 1q-18 0 -31 13q-7 16 -5 30t10 22q39 36 88 58t113 42q85 26 127 26h15q39 2 77.5 -16t64.5 -49 q3 -3 8 -10.5t8 -10.5q58 -95 -30 -252q-17 -29 -37.5 -60t-52 -74t-40.5 -57q-13 -19 -16 -21q-1 -2 1.5 -2.5t6.5 -0.5q15 -1 45.5 -4t48 -4.5t42.5 -5t47.5 -8.5t44.5 -11q50 -17 95 -40.5t87 -55.5t73 -75t46 -92q29 -87 11 -212q-12 -62 -33.5 -124.5t-56 -133.5 t-57 -114t-65.5 -121q-56 -98 -124 -196.5t-171 -234.5t-138 -185q-9 -16 -60 -89q-25 -25 -45 -35q-49 -24 -89 -2t-42 76q-6 25 -3 34z" />
<glyph unicode="4" horiz-adv-x="1050" d="M-32 520q47 126 153 371.5t152 366.5q18 46 63.5 167.5t70.5 184.5t68.5 157.5t87.5 169.5q5 10 32 37q8 8 40.5 9t40.5 -7q11 -11 19 -36q8 -30 8 -34q-1 -8 -2 -23.5t-2.5 -27.5t-3.5 -22q-2 -11 -7 -23.5t-11 -26t-9 -22.5q-178 -468 -220 -573q-40 -99 -112 -264 t-124 -281l-52 -116q222 45 393 68q34 4 47 40q2 4 3 13t2 12q11 53 32 155.5t31 154.5q8 44 35 89q11 17 30 28t38 11q24 2 49 -14.5t32 -40.5q16 -38 8 -83q-4 -24 -28 -154t-35 -201q0 -1 5 -5q2 -1 3 -2q14 -4 28 -13q24 -9 24.5 -42t-19.5 -43q-19 -11 -38 -23 q-21 -12 -29 -34q-6 -15 -6 -18q-23 -133 -52.5 -390t-49.5 -378q-4 -28 -35 -44t-60 -6q-43 17 -67.5 52.5t-23.5 78.5q0 19 6 60q12 78 42 294.5t50 335.5q0 1 0.5 3t0.5 4.5t-0.5 4.5t-0.5 4.5v3.5q0 9 -3 16.5t-9 7.5q-3 0 -6 1.5t-4 1.5q-21 2 -45 2q-50 2 -107 -6 t-89 -15t-97 -23q-14 -4 -32 -9.5t-36.5 -11.5t-33.5 -9q-29 -7 -66 -2q-42 2 -67.5 40.5t-11.5 78.5z" />
<glyph unicode="5" horiz-adv-x="1301" d="M-35 -488q0 9 8.5 21.5t18.5 15.5q12 10 30 13.5t41 5.5t34 4q26 8 50.5 20t48 30t43 34t42 41.5t37.5 43t37 48t32.5 46t33 48.5t30.5 44q152 223 252 479q115 292 144 514q2 17 8.5 56.5t11.5 73t9.5 79.5t4 83t-7 77t-20.5 67.5t-40 47.5t-63 24q-90 4 -200 -85 q-10 -13 -23.5 -28.5t-30.5 -33t-24 -25.5q-2 -2 -9 -9.5t-10.5 -11t-10.5 -9t-12 -9t-12.5 -6t-14.5 -3.5q-59 0 -68 43q-7 61 -7 67q0 41 1 124t1 123t-5 116.5t-5 114.5q0 53 28 96t77 56q78 18 136 18q11 0 36.5 1.5t37.5 1.5l388 37q10 0 19.5 -5t15.5 -13.5t6 -18.5 q0 -16 -9.5 -28t-24.5 -12l-440 -38q-38 -7 -45 -12q-4 -3 -5.5 -9t-0.5 -16t1 -11q-5 -64 -5 -92q0 -47 -2.5 -125t-2.5 -127q0 -55 5 -71q61 47 138 66q51 18 109.5 16t103.5 -29q46 -24 83 -76t56 -107q21 -57 30 -125.5t8 -128.5t-11 -135.5t-20 -127t-26 -121.5 q-10 -43 -25 -91.5t-29.5 -86.5t-36.5 -90t-36.5 -83.5t-40.5 -85.5q-137 -294 -355 -548q-30 -33 -53 -56.5t-62 -59t-71 -58.5t-75 -45t-80 -28.5t-79 1t-78 33.5q-26 26 -20 50z" />
<glyph unicode="6" horiz-adv-x="1178" d="M-27.5 256.5q-0.5 70.5 1.5 133.5q13 184 63 370.5t133 414.5q99 265 197 440q92 159 199 246q41 33 107 58q93 49 192 32q59 -12 105 -47.5t63 -84.5q11 -9 8 -25t-21 -25q-11 -13 -27.5 -9t-27.5 26q-8 22 -24.5 40.5t-39.5 31t-49 16.5q-53 11 -119 -13 q-31 -17 -48 -34q-38 -31 -71.5 -74.5t-56 -84.5t-47 -100t-38 -99.5t-34.5 -104.5t-32 -96q-212 -621 -201 -1203q0 -153 52 -240q69 76 71 78q160 160 330 222q111 45 173 -5q36 -22 57 -73q30 -70 18 -154t-62 -153q-91 -118 -262 -157q-99 -18 -170 -8q-122 4 -200 74 q-21 -25 -72 -102q-15 -14 -32 -14h-7t-6.5 -0.5t-6 0t-5.5 1t-4 1.5t-3 2.5t-2 4t-1 5.5q-20 12 0 47q14 21 42.5 55.5t39.5 48.5q-48 46 -83.5 114t-55 140.5t-31.5 153t-12.5 151zM296 -243q39 -68 129 -103q64 -11 143 6q67 13 123.5 46.5t91.5 81.5q40 53 50.5 114.5 t-13.5 115.5q-5 13 -32 40q-36 20 -103 -3q-208 -76 -389 -298z" />
<glyph unicode="7" horiz-adv-x="993" d="M-42 -568q6 73 44 209.5t45 170.5q40 179 91.5 363.5t119.5 387t119.5 345.5t135.5 371q63 168 127 454q14 62 8 105q0 9 -3.5 18.5t-10.5 16.5t-16 9l-7.5 1.5t-17.5 3t-18 1.5q-62 6 -158 -9q-17 -3 -38.5 -6.5t-38.5 -6.5t-38 -6.5t-37 -6.5q-18 -2 -71.5 -12 t-83.5 -14q-2 0 -8 -1.5t-13 -4t-8 -5.5q-17 -27 -5 -62q5 -21 5 -31q2 -16 6.5 -31.5t12.5 -38.5t10 -30q18 -32 -23 -55h-11q-9 0 -22.5 10.5t-13.5 17.5q-11 28 -23.5 73.5t-13.5 63.5q-4 24 -2.5 61.5t14.5 61.5q19 31 77 45q4 0 64.5 10.5t95.5 17.5q23 4 74.5 13.5 t79.5 13.5q79 10 132 10q8 0 28 0.5t34.5 0.5t20.5 -1q10 -1 24 -3l28 -4t25 -3q49 -4 75 -48q41 -54 50 -144q5 -59 -5 -100q-23 -93 -57.5 -196.5t-79 -226.5t-68.5 -195q-218 -639 -477 -1481q-29 -97 -71 -178q-1 -1 -2.5 -5t-2.5 -5q-14 -21 -45.5 -17.5t-46.5 22.5 q-10 20 -10 50z" />
<glyph unicode="8" horiz-adv-x="1068" d="M-35.5 343q1.5 94 9.5 207q27 312 139 614q0 5 -3 7q-12 20 -52 65t-53 77q-41 106 -8 203q12 32 31.5 66.5t42.5 66t49 60t53 52.5q114 125 199 168q38 18 80.5 23t85.5 -6t73 -40q63 -59 70 -165q4 -40 -2.5 -92.5t-20 -104.5t-30.5 -105.5t-34.5 -99t-32.5 -82 t-24 -56.5l-10 -21q136 -81 213 -155q74 -77 125 -217q19 -66 23 -176q0 -8 1.5 -24.5t1.5 -30t-3 -24.5q4 -189 -65 -398q-96 -277 -293 -495q-5 -6 -11.5 -13t-15.5 -15t-13 -12l-32 -26q-98 -76 -193 -52q-123 24 -200 203q-39 92 -63 192.5t-31.5 206t-6 199.5z M163 1533q-1 -29 5.5 -55.5t15.5 -46.5t27.5 -40.5t32.5 -34t41 -31.5t42.5 -27.5t46.5 -27.5q3 -2 4 -2.5t3.5 -2t3.5 -2.5q8 -4 76 -39q4 8 11 24q16 33 24 50t22.5 48t21.5 49t18.5 46.5t17 48.5t13 47t11 49t6.5 47.5t2.5 50t-3.5 49.5q-7 83 -42 118q-21 19 -50 24.5 t-55 1t-52 -15.5q-32 -16 -62 -38.5t-63.5 -57.5t-50 -54t-52.5 -62l-8 -26q-5 -14 -6.5 -28.5t-0.5 -27.5t0 -34zM177.5 522q0.5 -144 7 -262t20.5 -268q13 -146 73 -257q64 -111 197 -23q154 165 242 371.5t96 409.5q-1 9 -8 89q-5 77 -44 149.5t-95 125.5t-126 94 q-67 35 -89 45q-6 -13 -12 -32t-11.5 -41l-7.5 -30q0 -7 -14.5 -17.5t-22.5 -10.5t-10 4t0 8l2 4q-32 16 -32 27q14 53 40 117q-83 50 -118 55l-5 -2q-8 -6 -13 -25q-35 -118 -52.5 -252.5t-17 -278.5z" />
<glyph unicode="9" horiz-adv-x="1053" d="M-20 -183q0 16 10 27t25 11t23.5 -6t16.5 -22q5 -111 37 -162q10 -17 17.5 -27.5t19.5 -23.5t25.5 -18.5t28.5 -3.5q17 3 33 17.5t30 39.5t22.5 43t21 48.5t15.5 36.5q32 73 60 167t42 159t37 182t33 163q86 375 128 730q12 112 16 213v32q-120 -119 -301 -212 q-83 -42 -147 -42q-43 0 -83 24q-39 22 -59.5 67t-20.5 94t10 99q64 240 260 408q82 69 137 76q4 3 18 3q43 6 115 -8q64 -19 120.5 -89t82.5 -150q14 18 27.5 38.5t32 52t25.5 43.5q8 15 22.5 20.5t30.5 -1.5t18 -29t-7 -29q-75 -124 -121 -184q1 -3 1.5 -7.5t1.5 -7.5 l2 -6q10 -45 16.5 -92t7 -102t0.5 -91.5t-6 -103t-8.5 -91.5t-11.5 -102t-11 -93q-44 -387 -128 -656q-58 -198 -160 -394q-71 -129 -113 -186q-44 -68 -87 -105q-24 -21 -49 -29t-58 -8q-48 0 -90 27.5t-65 70.5q-12 21 -20 43.5t-13 52.5t-6 43t-4 50zM87 1364.5 q-2 -31.5 8.5 -62.5t35.5 -46q53 -30 154 25q186 95 333 250q0 27 -5 73q-2 38 -11.5 79t-27.5 83.5t-49.5 70t-71.5 27.5q-24 -3 -40 -7t-33 -14.5t-22.5 -15t-29.5 -23.5q-56 -46 -101.5 -105.5t-78 -127t-51.5 -140.5q-8 -35 -10 -66.5z" />
<glyph unicode=":" horiz-adv-x="398" d="M100 520q-19 86 50 133q37 23 75 23q1 -1 21 -9t29 -14q18 -16 27.5 -39.5t7.5 -47.5q0 -63 -53 -105q-29 -26 -70.5 -22t-61.5 36q-18 23 -25 45zM100 886q-20 87 50 134q37 23 75 23q1 0 21 -8.5t29 -14.5q18 -15 27.5 -39t7.5 -48q0 -63 -53 -105q-29 -26 -71 -22 t-61 35q-18 23 -25 45z" />
<glyph unicode=";" horiz-adv-x="378" d="M78 453q0 18 30 47q34 23 25 35q-4 5 -11.5 15.5t-11.5 15.5q-31 44 3 97q22 28 55 36t65 -9q6 -3 11 -6.5t10.5 -9t8 -8.5t9 -10.5t8.5 -10.5q18 -45 8 -79q-12 -31 -20 -41q-46 -57 -88 -85q-7 -6 -22.5 -12t-33 -8.5t-31 5.5t-15.5 28zM92 896q-24 81 44 129 q37 23 76 23q1 0 21 -8.5t29 -14.5q36 -28 36 -89q-3 -61 -55 -108q-29 -24 -70 -18t-60 37q-17 21 -21 49z" />
<glyph unicode="&#x3c;" horiz-adv-x="968" d="M-32 746q-1 6 0 12q0 4 17.5 26t42 50t49 55t41.5 46l18 19q63 68 173.5 202t160.5 189q41 46 126 144.5t130 148.5q19 15 38.5 17t38.5 -14q16 -13 16 -36.5t-14 -36.5q-53 -58 -152 -170t-108 -122q-42 -47 -156.5 -179t-203 -233t-98.5 -109q-6 -7 -6 -13q0 -7 3 -11 q48 -61 140.5 -184.5t145.5 -189.5l120 -157q16 -21 34.5 -45t33.5 -43t34.5 -44t33.5 -42q75 -95 142 -183q13 -18 10 -40t-20 -36q-10 -10 -32 -10q-23 0 -41 18q-20 26 -45.5 59.5t-51.5 66.5t-45 59q-71 87 -142 185q-104 130 -116 146q-52 66 -143.5 197t-138.5 193 q-3 3 -8 10.5t-7.5 11t-6.5 10t-6 11t-4 10.5t-3 12z" />
<glyph unicode="=" horiz-adv-x="875" d="M32 868q0 23 13.5 39t35.5 16q249 13 600 13q22 0 37 -15.5t15 -37.5t-15 -37t-37 -15q-88 0 -239 -3.5t-259 -6.5l-107 -3q-21 0 -30.5 12.5t-13.5 37.5zM35 623q0 23 14 39t35 16q260 14 601 9q2 0 5 -0.5t10.5 -4t14 -8.5t13 -14t8.5 -20q4 -21 -12 -36.5t-39 -15.5 q-279 3 -595 -13h-3q-44 0 -52 48z" />
<glyph unicode="&#x3e;" horiz-adv-x="885" d="M-230 1586q1 23 15 37q18 16 39.5 14t35.5 -17q54 -57 153 -169t107 -122q32 -36 152.5 -172.5t188.5 -210.5q106 -115 124 -131l9.5 -11.5t18.5 -26.5t8 -24q1 -15 -3.5 -31.5t-10 -26.5t-17.5 -29h-2q-48 -62 -139.5 -193.5t-143.5 -197.5q-12 -15 -121 -156t-137 -174 q-75 -95 -142 -183q-8 -8 -20.5 -15t-20.5 -7q-16 0 -32 8q-17 14 -21.5 38t9.5 41q43 57 143 183q77 104 257 330q55 70 153 197t140 181q14 16 0 35l-128 125q-41 44 -88.5 97.5t-84.5 95t-87 97.5t-83 93q-126 142 -257 288q-16 14 -15 37z" />
<glyph unicode="?" horiz-adv-x="693" d="M59 1145.5q-4 22.5 6 37.5q47 64 123 99.5t165 35.5q103 0 169 -47q61 -50 81 -143q12 -74 -5 -163q-14 -57 -36 -112.5t-56.5 -113.5t-60 -97t-70.5 -102q-4 -5 -12 -16t-12 -16q-52 -74 -83.5 -142.5t-48.5 -140t-22 -157.5q0 -19 -14 -33.5t-33 -14.5h-8 q-17 4 -29.5 20t-12.5 33q7 140 47.5 252.5t125.5 235.5q3 6 11 18t12 19q40 57 64 93.5t55 89.5t52 104t33 103q10 39 12 75.5t-10 73.5t-39 59q-47 28 -110 25q-63 0 -119 -25.5t-89 -70.5q-10 -15 -31 -18t-36 7q-15 9 -19 31.5zM112 -70q9 42 58 35q20 -5 32.5 -26 t9.5 -46.5t-24 -42.5q-32 -26 -59 10q-25 33 -17 70z" />
<glyph unicode="@" horiz-adv-x="1045" d="M-15 575q7 124 57 230.5t138 185.5q6 5 37.5 26.5t81 49t84.5 39.5l15 5q60 18 114.5 20t108.5 -8q152 -33 226 -158q15 -23 29 -62t21.5 -69t7.5 -39q2 -6 3 -47t0 -61q-2 -32 -16.5 -83.5t-15.5 -60.5l-18 -71q-5 -13 -15.5 -43t-15.5 -44t-15.5 -33t-23.5 -32l-28 -32 q-16 -17 -42 -23q-11 -4 -26.5 -1t-23.5 11q-22 21 -36.5 37t-28 41.5t-18.5 52.5q-3 -16 -8.5 -32t-11 -28.5t-15.5 -26.5t-16 -22t-18 -20.5t-16.5 -16.5t-16.5 -15t-13 -12q-19 -13 -38.5 -19t-35.5 -5t-27.5 4t-17.5 7q-26 17 -37.5 37t-15.5 53q-7 76 6.5 150.5 t43.5 162.5q25 62 45 82q48 28 103.5 28.5t103.5 -33.5q17 -13 19.5 -35t-11.5 -39t-35 -20.5t-38 10.5q-16 11 -40 14t-39 -7q-13 -12 -23 -33q-17 -47 -29.5 -102t-16.5 -105.5t14 -62.5l16 -3q26 4 44.5 30t38 76.5t30.5 69.5q10 20 45 78q4 4 15.5 6.5t21.5 2.5h9 q5 -2 13.5 -5.5t22.5 -13t14 -18.5v-8q4 -58 15 -101.5t27 -43.5q27 31 58 110q12 48 17 63q3 15 17 59t15 70q1 4 1 10t-1 24.5t-2 36.5t-5 42.5t-9.5 45.5t-14.5 42t-21 35q-27 44 -66.5 68.5t-96.5 36.5q-123 5 -193 -18q-30 -10 -70.5 -36t-62.5 -43.5t-27 -22.5 q-49 -43 -84.5 -98t-55 -117t-22.5 -130q-6 -128 33 -245.5t118 -207.5q55 -60 119 -68q53 -4 98 5q3 1 12 5.5t22 10.5t26 13t25 14t18 13q92 62 152 115q14 16 36.5 15t36.5 -15q16 -19 14 -40t-17 -36q-12 -10 -43 -37t-46 -39t-40.5 -29.5t-48.5 -28.5q-40 -29 -92 -45 q-2 0 -10.5 -2.5t-18.5 -5.5t-26 -5.5t-32 -4t-37 -1t-41 3.5q-89 10 -173 102q-96 107 -146 240t-44 280z" />
<glyph unicode="A" d="M-47 -5q9 39 29.5 69.5t54.5 37.5q17 9 33.5 -3t16.5 -23q7 -13 -2 -27.5t-25 -22.5q-4 -1 -8 -4t-7 -6t-6 -9t-4.5 -9.5t-5 -11t-3.5 -9.5q-3 -11 -3 -24q0 -40 29 -93q35 -70 81 -85q9 -3 17 -3q39 0 65 60q88 198 210 538q101 285 152 408q111 268 319 620q2 3 4.5 10 t5.5 12.5t7 10.5q-2 0 -3 5t-2 5q-12 5 -25.5 14.5t-26.5 25t-15 29.5q0 36 32 55q26 13 50 -11q3 -7 3 -14t-2 -11l-4 -8t-2 -5q0 -2 2.5 -2h6.5t6 -1q8 -4 40 3q87 130 180 234.5t173 160.5q25 25 63 29q11 3 21 3q28 -1 50 -21q25 -24 25 -57q0 -6 -1 -12 q-5 -42 -16.5 -91t-25.5 -103.5t-21 -93.5q14 1 28 1q63 0 137 -25q31 -12 60.5 -31.5t52.5 -47t29 -54.5q2 -9 2 -19q0 -45 -44 -89q-5 0 -17.5 -1t-17.5 -1q-7 5 -13 5q-11 12 -10.5 31t10.5 29q16 16 13 28q-3 25 -31 46t-60 34q-54 17 -113 17q-21 0 -42 -2l-17 -134 q-18 -134 -42.5 -322.5t-37.5 -298.5q-20 -203 -28 -421q-4 -117 -5 -237q-1 -104 3 -210q6 -228 17.5 -420t30.5 -436q3 -42 24 -100q3 -8 6 -13.5t5 -8t2 -4.5q2 -2 6.5 -7.5t8.5 -8.5t8 -3q5 1 8.5 5t5.5 8l6.5 13t6.5 14q33 79 55 152q19 55 25 72t24 65t30.5 73.5 t32 62t40.5 65.5q6 6 17.5 10.5t23.5 3.5t17 -11q12 -6 14.5 -16t-1 -18.5t-10.5 -15.5q-24 -35 -44.5 -74t-38.5 -83.5t-30 -78.5t-29 -84q-8 -21 -18 -49t-20 -55.5t-17 -48.5q-34 -79 -95 -83q-32 0 -49 10q-27 14 -65.5 52.5t-55.5 70.5q-45 68 -61 145q-4 16 -7.5 33.5 t-5.5 30.5t-4 33.5t-3 30t-3 34t-2 31.5q-20 205 -22 240q-23 322 -23 645q6 409 92 1013q6 60 21 155q3 27 12 76.5t13 76.5q-10 -2 -31 -2t-31 -1q-62 -3 -144 -17l-2 4q-3 -4 -24.5 -38t-30.5 -51q-213 -359 -318 -611q-44 -109 -152 -407q-6 -18 -26.5 -75t-29 -81 t-26.5 -74.5t-30.5 -82t-29.5 -75t-34 -82t-34 -75.5q-48 -103 -131 -103q-6 0 -13.5 2t-16 4t-12.5 3q-46 18 -88 69.5t-62 113.5q-12 38 -12 69q0 21 5 39zM1075 1533q15 3 43.5 4t37.5 2q15 1 42.5 3.5t41.5 3.5l73 256q0 1 -6 -5q-52 -43 -140 -146q-56 -65 -92 -118z " />
<glyph unicode="B" horiz-adv-x="1111" d="M-45 -753q-4 152 -4 335q0 391 20 921q6 125 6 297q0 155 3 233v55q0 66 2.5 113.5t10.5 113t21 114.5t37.5 100.5t58.5 88.5q17 0 -13 -14q2 2 5 4.5l6 5t5 4.5q7 9 24 22t35 24.5t28 13.5q71 26 133 32q19 2 40 2q45 0 97 -8q47 -8 83 -48q64 -68 82 -130q7 -34 7 -91 q0 -28 -2 -62q-2 -20 -19 -65q-33 -97 -71 -152q-29 -44 -99 -126q-17 -18 -36 -39t-35 -37.5t-38 -39t-36 -36.5l-37.5 -37.5l-35.5 -35.5q-2 -3 -2.5 -5.5t3 -5t7 -4t8 -3.5t6.5 -4q10 -7 38 -28.5t45 -31.5q50 -31 144 -100t195.5 -156t130.5 -134q23 41 69.5 119.5 t75 128t63.5 119.5t59 131q1 0 4.5 3.5t4 4.5t3.5 3.5t4.5 3t4.5 2t5.5 1.5t6 -0.5t7 -1.5t8.5 -3q21 -8 25 -26q2 -6 1 -11q0 -11 -6 -19q-24 -62 -55.5 -127t-63.5 -120.5t-61.5 -105.5t-58.5 -100t-46 -85q4 -13 14.5 -37.5t13.5 -32.5q1 -3 5 -13t5 -14t4 -12.5 t4.5 -14.5t3.5 -16t4 -21t3 -24q5 -43 5 -86q0 -146 -60 -291q-52 -129 -175 -265q-4 -5 -15 -16.5t-15 -17.5q-121 -125 -270 -177q-1 -1 -12 -4.5t-20 -6.5t-27 -5q-18 -4 -34 -4h-4q-15 0 -35 3q-23 3 -46 10q4 14 5 23.5t1 11.5l-1 2q25 84 56 163.5t72.5 161.5t74 143 t89 150t87.5 136t96 146q-5 15 -15.5 36t-27 47t-28 44t-29.5 44.5t-21 32.5q-121 180 -341 327q-14 9 -30 21t-34.5 26t-29.5 22q-21 16 -29 26q-11 12 -8.5 38t14.5 38q5 4 25.5 25t34.5 30q55 40 120 129q16 24 54 73.5t56 78.5q41 70 65 160q4 19 4 44q0 2 -1 7 q-3 28 -5.5 43.5t-8.5 44t-14.5 46.5t-21 37.5t-30.5 31t-40 15.5q-15 2 -31 2q-28 -1 -61 -7q-51 -10 -86 -36q0 -2 -1 -3t-2.5 -2t-3.5 -2.5t-4 -2.5q-16 -18 -29.5 -41.5t-23 -43t-17.5 -52.5t-12.5 -51t-8.5 -58.5t-5.5 -54.5t-3 -60t-1.5 -53.5t-1 -55.5v-55 q-3 -78 -3 -233q0 -200 -5 -300q-20 -523 -19 -911q0 -187 4 -342q0 -23 -37 -23q-14 0 -27 6.5t-13 16.5zM275 -742q34 2 98.5 38t106.5 78q14 14 26.5 30t25 35t21 32t22.5 36t20 32q82 137 118 301q1 17 6 46t8 48.5t4 52.5v9q0 27 -5 49q-40 -61 -100.5 -148.5 t-99 -145.5t-86 -136.5t-88 -166.5t-77.5 -190z" />
<glyph unicode="C" horiz-adv-x="1089" d="M-40 -285q-8 236 -8 473t8 475q5 94 32 325q33 283 168 501q70 111 142 170q52 43 126 47q9 1 19 1q63 1 121 -27q66 -32 100 -89q41 -64 63.5 -145.5t26.5 -160.5q1 -24 1 -48q0 -55 -6 -112q0 -8 -11 -13.5t-26 -5.5h-6l-13 6.5t-16 10t-5 10.5q6 42 6 87q0 74 -16 159 q-22 93 -31 115q-5 6 -12 17t-7 12q-4 5 -8.5 9.5t-10.5 10t-9 8.5q-37 37 -77 48q-31 12 -58 12q-33 0 -60 -17q-53 -34 -85 -94.5t-56 -141.5q-43 -137 -72 -365q-7 -47 -11 -108t-5.5 -96t-2.5 -116.5t-1 -97.5q0 -96 -4 -269t-4 -265q0 -7 -1 -15q0 -91 6 -254 q1 -10 5.5 -75t7.5 -89t10 -74.5t18.5 -88t26.5 -71.5q3 -4 7 -19t10 -25.5t15 -10.5q6 3 12 4.5t10.5 4t11.5 9.5q48 66 77.5 112t64.5 113q333 677 521 1036q55 133 97 233q10 9 22.5 13.5t29.5 -0.5q15 -8 19 -24q2 -6 1 -11q0 -9 -4 -18l-94 -223q-81 -158 -164 -326 t-193.5 -394.5t-159.5 -324.5q-3 -7 -9 -20q-22 -46 -33.5 -69t-32.5 -58.5t-47.5 -71.5t-65.5 -82q-4 -5 -6.5 -7t-6 -4.5t-8 -5t-15.5 -8.5t-24 -15q-40 -3 -53 -5q-76 0 -137 81q-44 56 -60 124q-43 186 -50 333z" />
<glyph unicode="D" horiz-adv-x="1491" d="M-47 -870q0 48 10 136t11 118q3 33 8 97t8 97q78 900 78 1913q0 137 2 205q0 19 3.5 37t12 35t25.5 25t41 3q16 -3 28.5 -10.5t20.5 -15.5t13.5 -22t8.5 -23.5t4 -27.5t1 -27v-29v-26q-8 -180 -8 -181q49 68 177 178.5t226 165.5q2 1 6.5 2.5t5.5 2.5q5 2 23 9.5t26.5 11 t23.5 7t28 3.5q23 -1 45 -9t40 -21t33 -30.5t27 -37.5q58 -107 62 -277q5 -85 5 -249q2 -34 2 -68t-2 -66q0 -218 -2 -325q-4 -102 -12.5 -287t-10.5 -211q11 11 36 35.5t37 36.5q28 29 59.5 59.5t56.5 54.5t41 42q86 74 180 183t122 189q2 1 4.5 2.5t9.5 5t14 4.5t15.5 -1 t14.5 -8q7 -8 9 -14q0 -2 1 -6q0 -7 -2 -21q-20 -61 -71.5 -133t-97 -119.5t-97 -96.5t-52.5 -50q-27 -30 -53.5 -57t-42 -42t-30 -29t-16.5 -16q-112 -112 -143 -147q-4 -50 -8 -79.5t-12.5 -71.5t-14.5 -79q-23 -116 -55 -228q-1 -4 -5 -19t-5 -19.5t-5 -18.5t-6 -19.5 t-6.5 -17t-8 -18.5t-8 -16.5t-10 -17t-11.5 -14.5q-12 -17 -29.5 -34.5t-30.5 -28t-36.5 -29t-31.5 -25.5q-71 -62 -129 -91q-102 -55 -176 -55q-32 0 -45 3q-3 0 -10 7.5t-13.5 21.5t-6.5 28q17 90 112 263q99 173 149 248q17 26 40 56.5t37.5 48.5t47.5 58.5t44 54.5 q7 8 16.5 18.5t17.5 18.5t17.5 18.5t16.5 18.5q26 373 26 665q0 64 -1 124q0 53 -1 113t-3.5 133t-2.5 113v55.5v59t-1.5 54t-4 59t-7.5 54t-13 56.5q-1 3 -5 20t-5.5 22t-6.5 19t-9 21t-11 16t-16 15q-27 18 -52 7q-1 0 -7 -2.5t-7 -2.5q-111 -66 -217 -163.5t-184 -206.5 q0 -248 -2 -355v-15q-12 -649 -55 -1271q-9 -120 -28 -332q-5 -79 -16 -130t-43 -101q-12 -22 -44 -34q-13 -5 -25 -5q-16 -1 -32 9q-26 16 -27 46zM343 -700q8 -1 16 -1q13 0 27 4q22 7 49.5 23.5t36.5 20.5q58 32 146 110q3 4 11 13.5t14 17t7 9.5q12 15 26 42 q15 27 29 76q21 84 31 228q2 21 3.5 38.5t3 25.5t2 20t0.5 28q-86 -100 -165 -217q-14 -21 -33.5 -52t-37.5 -61t-34 -57t-25 -44l-10 -17q-6 -11 -22.5 -40.5t-23.5 -43.5t-18.5 -37.5t-19 -43.5t-13.5 -42z" />
<glyph unicode="E" horiz-adv-x="1320" d="M-40 -412q6 48 20 105.5t24 90t33 103.5q58 178 115 288q124 236 356 488q83 94 173 181q77 82 102 104q3 3 8.5 7.5t8.5 7.5q33 38 91 115q14 20 21 31t14 30t7 36q0 5 -5 26q-17 22 -49 34t-64.5 13.5t-67.5 2t-60 0.5q-72 2 -179.5 2.5t-250.5 -2.5q-35 0 -67.5 4.5 t-69 15.5t-63 35t-37.5 57q0 2 -1 4.5t-1.5 4t-1.5 3.5t-1.5 4.5t-1.5 4.5q-3 17 -3 33q0 105 118 219q5 5 14 13.5t13 11.5q65 62 168 137q15 11 17 13q8 5 24 17.5t24 17.5q38 32 50 39q2 2 15.5 12t17.5 12.5t16 10.5t18.5 11t17 7.5t20.5 7.5q16 5 32 5q42 0 83 -32 q17 -5 29 -21q21 -18 30.5 -49.5t5.5 -57.5q0 -10 -8 -21t-17 -11q-10 -4 -19 -2t-17 8.5t-12 14.5t-6.5 17.5t-4.5 22t-4 18.5v3q-17 0 2 18q-11 12 -33 15.5t-41 -3.5q-10 -2 -21.5 -8t-19 -11t-20 -13.5t-17.5 -11.5q-25 -22 -47 -36q-8 -7 -25 -20.5t-25 -19.5 q-4 -3 -10.5 -8t-10.5 -7q-16 -15 -75 -61.5t-87 -73.5q-5 -6 -16.5 -19t-17.5 -21t-16 -20.5t-14.5 -20.5t-10 -19t-6 -19t0 -16.5t7.5 -15t18 -11.5q26 -13 65 -18q42 -1 105 -1.5t110.5 -1.5t103.5 -3t110 -8t104 -16q22 -3 37 -6t41 -9t44.5 -12.5t42 -16t39.5 -21.5 t31 -26.5t23 -33t9 -40.5v-7q0 -21 -9 -68q-6 -51 -52 -115q-15 -22 -32 -43.5t-37.5 -46.5t-29.5 -36l-14 -14q-5 -7 -38.5 -51.5t-39.5 -53.5q-76 -104 -119 -165t-103 -156t-101 -177q-14 -30 -43 -90t-44 -90q-16 -40 -35.5 -91.5t-38.5 -103t-36 -91.5 q-61 -146 -98 -288q-32 -118 -45 -257q-4 -15 -2.5 -36t10.5 -34q1 -2 3.5 -6.5t5 -7t6.5 -1.5q2 2 18 17.5t30 30.5l15 15q14 16 54.5 58.5t83.5 89.5t88 102q8 10 54 66t78 95.5t72.5 91t61.5 82.5q39 59 130 190t160.5 235.5t119.5 192.5q10 18 27.5 46.5t32 53 t27.5 48.5q62 113 104 217q13 23 33 23q11 0 24 -7q17 -17 17 -33q0 -7 -3 -14q-3 -12 -7 -23.5t-9 -24t-9 -22t-11.5 -23.5t-12 -22.5t-13.5 -25t-13.5 -24.5t-15.5 -27t-16 -28q-9 -18 -20.5 -39t-21 -36.5t-23.5 -37.5t-22 -36q-49 -90 -118 -194.5t-164 -240 t-132 -190.5q-26 -40 -73.5 -102.5t-106.5 -138t-79 -102.5q-43 -55 -109 -126t-111 -116l-45 -44q-55 -67 -107 -67q-14 0 -27 5q-102 28 -124 245q-6 66 -6 123.5t6 107.5z" />
<glyph unicode="F" horiz-adv-x="1616" d="M-15 1368q0 45 28 45q62 12 131 26.5t157 34.5t129 29q60 13 175 38t135 30q6 84 6 157q0 27 -1 52q5 125 8 157q13 29 47 41q13 4 25 5q19 0 35 -12q46 -28 50 -73q5 -23 5 -65q-1 -42 -4 -123t-3 -106q422 80 750 79h53q16 0 25.5 -9.5t9.5 -24.5q0 -11 -10 -18.5 t-22 -7.5h-10h-30q-106 0 -230 -12q-140 -14 -230.5 -29t-255.5 -46q-35 -7 -53 -10q-4 -45 -19 -530q268 44 464 45q44 0 84 -3q15 0 26 -12t11 -28q0 -14 -13.5 -24.5t-29.5 -10.5q-32 2 -67 2q-57 -1 -121 -5q-104 -6 -170 -14t-184 -26q-5 -158 -9.5 -334.5t-6.5 -277 t-2 -108.5q-12 -73 -14 -160v-32q0 -70 6 -132q6 -76 11.5 -163.5t6.5 -163.5v-12q0 -71 -11 -147q-12 -84 -39 -155q-20 -45 -47 -61q-9 -6 -20 -6q-9 0 -20 4q-25 8 -31 25q-11 35 -17.5 71.5t-8 79t-1.5 70.5t2 80t2 72q1 45 3 128t3.5 151t1.5 128v256q2 213 13 658 l-583 -78q-33 0 -33 25q0 13 9.5 20t23.5 7q389 73 585 103q2 93 10 290t11 231q-71 -13 -283 -61q-61 -14 -131 -27.5t-149.5 -29t-132.5 -26.5q-2 0 -5 -0.5t-10 -1t-13.5 1.5t-12.5 8t-9 15z" />
<glyph unicode="G" horiz-adv-x="1278" d="M-5 678q29 141 95 334q110 349 371 642q108 121 226 170q59 24 105 24q15 0 28 -2q55 0 95 -45q25 -35 25 -100t-25 -160l-7 -18q-65 -236 -240 -430q0 -9 -11.5 -16t-21.5 -7q-4 0 -8.5 1t-7.5 2.5t-5.5 3t-4.5 2.5l-1 1q-14 17 -13 30t10 23q171 194 231 416l8 22 q0 1 5.5 21t7 27t6 25.5t4.5 29.5t0.5 26t-3 27t-9.5 21q-12 15 -38 15q-13 0 -29 -4q-31 -7 -62.5 -22.5t-56.5 -33t-53 -46.5t-46.5 -50.5t-44 -57.5t-38.5 -55.5t-36 -55.5q-2 -4 -3.5 -6t-3.5 -5.5t-4 -5.5q-116 -188 -188 -398q-54 -160 -105 -378q-34 -143 -50 -299 q-4 -37 -4 -71q0 -77 22 -133q1 -1 3.5 -8t4 -9t4 -8t5 -8.5l6 -6t7 -5.5t7.5 -2q19 1 34.5 10t29.5 26t21.5 29t20.5 34l4 8q26 47 83 135t72 114q73 109 178 297q2 4 32 58.5t59.5 109.5t31.5 59q14 14 39 20t43 -2q18 -7 34 -30.5t16 -39.5q4 -30 4 -79q0 -34 -2 -79 q-4 -82 -9.5 -209t-8.5 -213.5t-3 -92.5q14 17 44 48.5t61.5 65t51.5 58.5q10 11 30 35.5t25 32.5q46 61 75 102.5t64.5 106t62.5 132.5q11 10 28 14.5t27 -4.5q14 -8 18 -23q1 -5 1 -10q0 -10 -6 -20q-24 -70 -60.5 -136t-61.5 -100.5t-71 -92t-59 -74.5q-9 -11 -27.5 -31 t-24.5 -26q-40 -49 -92 -104t-86 -96q2 -95 2 -280q0 -83 -7 -165q-31 -432 -213 -724q-33 -51 -70 -83t-87 -37q-41 0 -76 15q-10 6 -34 30q-31 27 -50 65q-24 52 -24 120q0 11 1 21q16 292 147 567q104 227 261 430q-5 200 -5 296q0 197 16 367q-7 -10 -11 -15t-7.5 -10 t-5 -8t-6 -11t-9.5 -16q-34 -61 -95 -157.5t-78 -124.5q-21 -32 -73 -115.5t-92.5 -147t-52.5 -75.5q-50 -50 -97 -60q-34 -6 -62.5 2t-48.5 27.5t-33.5 43t-23.5 53.5q-33 119 -33 257q0 134 31 285zM348 -915q-1 -9 -1 -18q0 -48 18 -87q23 -47 47 -55q8 -3 28 -3 q64 9 113 165q82 268 107 465q15 98 22 220q5 96 5 161v35q-71 -94 -145.5 -243.5t-130.5 -326t-63 -313.5z" />
<glyph unicode="H" horiz-adv-x="1861" d="M-47 1616q11 55 44 98q34 42 83 66t112 41q108 30 206 38q9 1 27 2t26 3q120 5 179 27q27 11 46 30q6 7 11 14.5t8.5 17.5t5.5 16.5t5 19t4 17.5q12 41 40 105q13 32 38 50q16 11 33 11q11 0 23 -4q35 -17 44 -32q7 -9 19.5 -30t12.5 -25q16 -29 15 -59q0 -12 -2 -24 q-11 -41 -39.5 -72t-67.5 -44q0 -6 -1.5 -17.5t-1.5 -13.5q0 -36 1.5 -102.5t1.5 -99.5q0 -39 8 -199.5t7 -186.5q0 -45 2.5 -104.5t5.5 -119t6.5 -120t7 -113.5t6.5 -94.5t5 -66.5t2 -27q10 5 20 8q80 22 119.5 32t114 25t133.5 20q0 2 1.5 8.5t1.5 9.5q9 93 18 202.5 t18.5 234t15.5 203.5q28 328 32 367q18 193 128 303q35 31 73 50q29 12 56 12q20 0 39 -7q38 -8 63 -33q12 -9 27 -34q0 -2 3.5 -6t6 -9t2.5 -12q15 -23 16 -54q0 -12 -3 -24q-3 -22 -15.5 -41t-30.5 -31t-39 -15q-3 0 -8.5 -1.5t-6.5 -1.5q-44 0 -75 45q-11 16 -12 41t7 43 q4 11 16 17.5t25 6.5t24 -10.5t13 -29.5q-9 -5 -10 -8q-3 -9 2 -21q3 -5 10.5 -5t15 8t9.5 18q1 3 1 7q0 27 -41 56q-18 9 -26 9q-2 0 -4 -0.5l-4 -1t-3.5 -1t-4 -1.5t-4.5 -2t-5 -3t-5.5 -3t-6.5 -3.5t-7 -4.5q-4 -5 -8.5 -11t-8 -13t-8.5 -23q-18 -42 -31 -84t-21 -97 t-11 -82t-8 -99.5t-7 -90.5q-4 -46 -11.5 -137.5t-11.5 -137.5q-7 -114 -42 -498q8 0 55.5 -9.5t80.5 -20.5q24 -12 24 -46q-16 -29 -37 -29q-9 0 -18 5q-18 6 -45.5 12t-45.5 9l-19 3q-4 -17 -15 -108t-17 -152q-3 -31 -7 -66.5t-8 -68.5l-8 -66t-7.5 -68.5t-6.5 -65.5 q-12 -109 -23 -215q-1 -4 -5 -50t-4 -63t1 -50t8 -57q8 -26 5.5 -40t-5 -21.5t-11.5 -8.5t-15 0.5t-14 4.5q-21 5 -43.5 103t-24.5 168q-2 42 -2 85q0 92 10 185q11 101 25.5 286.5t21.5 261.5q-143 -12 -340 -76q-4 0 -9 -1.5t-10 -2t-11 -1.5t-10 -2q6 -120 6 -224 q0 -46 -1 -89q-1 -37 -1 -107.5t-1.5 -120t-7.5 -107.5q-14 -120 -29 -218q-11 -80 -29 -138q-32 -83 -97 -102q-20 -5 -37 -5q-20 0 -33 7q-6 -6 -14 -10.5t-14 -7.5t-18 -5.5t-17 -3t-20.5 -2.5t-19.5 -3h-8q-27 0 -34 13q0 8 4 17t9.5 15.5t11.5 11t10 4.5q8 1 16.5 0 t16.5 -0.5t11 5.5q-1 1 1.5 1.5t5 1.5t1.5 2q-24 27 -26 65v9q0 33 16 60q13 27 36 35q8 2 15 2q32 0 59 -42q13 -27 15 -47.5t-10 -57.5q8 4 14.5 9.5t9 10t6.5 12.5t6 10q14 80 16 180q1 33 1 63q0 59 -3 101q-4 64 -14 180q-1 7 -1 10.5t-0.5 9t-1.5 9.5q-6 68 -20 203 t-21 203h-1q-3 -2 -21.5 -0.5t-40 4t-46.5 14.5t-40 32q-18 35 -3 50q7 14 26.5 14t28.5 -9q8 -11 22.5 -18.5t32 -10.5t36.5 -2q-5 44 -10 146q-4 60 -6.5 120t-3 140.5t-1 114.5t-0.5 141.5v121.5q0 190 3 288q0 50 10 149v43l-35 -11q-36 -12 -89.5 -26t-87.5 -16 q-9 -1 -27 -2.5t-26 -2.5q-88 -7 -198 -37q-34 -9 -55.5 -16t-50.5 -23.5t-46 -38.5q-23 -28 -29 -65q-2 -12 -2 -25q0 -25 8 -50q9 -35 34 -63.5t59 -43.5q21 -11 25 -27.5t-8 -27.5q-11 -18 -32 -18q-3 0 -7 1t-6 1q-52 25 -90.5 66.5t-51.5 91.5q-9 31 -9 64q0 22 4 44z M616 -428q2 4 7 11q20 6 27 -8q11 -19 10 -27.5t-10 -19.5h-4q-16 0 -28 27q0 5 -2 9q-1 2 -1 4t1 4zM820 1958q3 0 10.5 9t15.5 23q12 22 12 31q0 5 -4 15q-6 12 -12 22t-9 13l-5 5q-1 1 -2 1q-5 0 -6 -43v-31v-11v-34z" />
<glyph unicode="I" horiz-adv-x="803" d="M-52 921v2q0 2 2 5q16 133 63 200q4 8 9.5 15.5t12 15t11 12.5t13 13t11.5 12q203 201 292 293q17 197 53 364q7 45 38 90q27 44 65 58q17 6 36 6q23 0 49 -9q38 -13 55 -50q10 -20 10 -69q-2 -62 -18.5 -120.5t-47.5 -113.5t-75 -99q-2 -68 -9 -364.5t-18 -455.5 q-2 -44 -6 -109.5t-6.5 -114.5t-6 -107.5t-5.5 -115t-4 -109.5q-1 -102 -19.5 -291.5t-22.5 -256.5q-2 -33 -7 -72t-11.5 -76.5t-14 -73.5t-15.5 -66t-15 -52q-2 -5 -6.5 -17.5t-7.5 -17.5q-4 -25 -20 -50q-22 -28 -60 -38h-11q-46 0 -76 50q-22 32 -22 82q0 8 1 17 q0 9 1 18t3 18.5t4 17t5 18.5t5 17q4 11 9 23.5t8 21.5q20 40 43 28q19 0 26.5 -15.5t-1.5 -34.5q-4 -8 -13 -43q-14 -38 -14 -75q-6 -26 9 -55q6 -12 10 -12q6 0 10 7q13 19 18 30q4 18 10 33q19 74 25 113q4 21 10 115q7 62 8 165t2 132q1 64 1 123q0 103 -4 192 q-6 115 -6 240q0 100 4 208q1 58 4 258t6 322.5t9 199.5q-21 -22 -80 -81t-108 -106l-49 -48l-10 -10l-10 -10t-8 -9t-9 -11.5t-7 -12.5q-8 -10 -14 -21t-10.5 -25t-7.5 -23t-7 -26.5t-5 -23.5t-4.5 -26.5t-4.5 -24.5q0 -8 -10.5 -13.5t-25.5 -5.5h-5q-2 1 -5.5 2.5t-5.5 2 t-5 2t-5 3t-4.5 3t-3.5 3t-3 3.5q-2 3 -2 6zM532 1661q26 28 42.5 91.5t18.5 126.5q0 37 -11 42q0 1 -1 1q-3 0 -9 -11q-3 -4 -4 -8q-21 -62 -25 -131q-4 -48 -11 -111z" />
<glyph unicode="J" horiz-adv-x="1999" d="M-32 -1114q14 112 60 222.5t122 248.5q254 438 691 826q10 9 36.5 33t41 37t38 33t44.5 37q19 259 27 518q0 23 2 113.5t2.5 123t1.5 111t1 123t-0.5 110.5t-2 123t-4.5 114q-1 19 -1 40.5t0.5 48t0.5 40.5q0 23 24 38q18 11 35 11q4 0 9 -1q4 -3 16 -9t18 -11 q48 -47 48 -100q1 -43 7.5 -124.5t7.5 -120.5q10 -267 10 -507q0 -275 -13 -513q0 -6 16 10q349 260 770 383q45 0 45 -36q0 -20 -18 -37q-435 -126 -815 -414q-52 -718 -325 -1293q-12 -28 -22 -42q-71 -167 -133 -252q-112 -163 -283 -233q-106 -42 -195 -42 q-100 0 -162 52q-67 52 -90 147q-15 62 -15 123q0 34 5 69zM42 -1123q-4 -31 -4 -61q0 -46 10 -90q16 -74 67 -117q34 -28 85 -35q22 -3 43 -3q28 0 56 5q49 9 97 29q57 24 107 61t87 77t71 92t58 99t49 106q12 32 23 66t16.5 51.5t16 54.5t12.5 46q13 49 50 229 q52 239 77 443q25 188 30 288q-79 -69 -102 -90q-432 -378 -673 -806q-48 -89 -76.5 -146t-58.5 -141t-41 -158z" />
<glyph unicode="K" horiz-adv-x="1433" d="M-73 -908q9 7 32.5 11t62 7.5t54.5 6.5q63 5 92 18q78 23 147 110q66 90 115 217q17 41 33 135q54 294 62 626q1 30 1 69q0 96 -4 246v38q0 103 8 279q5 210 26 605q6 121 11 187t20.5 167t38.5 182q6 21 18.5 45t30 46.5t41.5 33.5q14 6 29 6q10 0 20 -3q27 -4 53 -30 q35 -32 35 -66q0 -6 -1 -12q-2 -23 -12.5 -37.5t-28.5 -16.5t-43 19q-2 3 -4 -8t-3.5 -31t-2.5 -41t-2.5 -43t-2.5 -34q-5 -38 -8 -82.5t-4.5 -75.5t-3.5 -84t-4 -79q-2 -66 -8.5 -151.5t-10.5 -139.5q-6 -55 -8 -141q-1 -25 0 -49q0 -57 4 -104q0 -25 6 -40 q243 188 382 472q13 24 33 24q11 0 25 -8q23 -24 10 -50q-139 -293 -408 -501q-16 -14 -35 -37q-13 -16 -18 -45q-2 -10 3 -30q6 -18 10 -22q10 -21 18 -31q10 -13 21 -28.5t19.5 -27.5t20 -30.5t17.5 -28t19 -31.5t17 -28.5t18 -32t16 -29t17.5 -32t16.5 -29.5 q39 -66 50 -85q199 -357 498 -528q24 -12 24 -33q0 -15 -12 -24q-12 -13 -28 -13h-11q-323 183 -543 563q-3 6 -44 84q-7 13 -30.5 54.5t-35.5 62t-32.5 53.5t-37.5 58q-5 4 -12.5 18t-13.5 22q1 -56 3 -125q3 -68 3 -91v-20q0 -25 -1 -71q0 -19 -1.5 -56.5t-1.5 -56.5 q-7 -169 -23.5 -303t-55.5 -252q-34 -95 -65 -171q-134 -305 -348 -382q-74 -24 -127 -27q-32 0 -77 19.5t-69 42.5z" />
<glyph unicode="L" horiz-adv-x="1799" d="M-42 -571q0 37 7 55q38 65 125 65q35 0 115 -19q16 -4 33.5 -10.5t29.5 -12t32 -14t30 -13.5q32 -14 52.5 -21.5t20.5 -3.5q20 138 30 385q5 104 14.5 311.5t16 334t21.5 303.5t35 325q31 265 80 451q17 62 57.5 111t96.5 68q19 6 38 6q39 0 81 -25q5 -2 9.5 -5.5 t8.5 -7.5t7 -7.5t7 -8.5t5.5 -7.5t5.5 -8.5t4 -7q19 -51 19 -93q0 -49 -26 -86q-40 -58 -103 -58h-10q-14 0 -28 13.5t-14 26.5q0 15 12 26t27 11q32 0 53 26q20 23 15 57q-5 12 -8.5 18.5t-11 13.5t-17.5 8h-3q-36 0 -65 -71q-25 -56 -29 -126q-2 -27 -8 -92.5t-9.5 -113.5 t-3.5 -93q0 -52 4 -155.5t4 -156.5q1 -41 1 -81q0 -141 -11 -270q-16 -243 -61 -552t-72 -405q-5 -21 -35 -108q97 -15 141 -20q130 -16 320 -29q101 -5 198 -5q224 0 427 26q35 6 64 14.5t61.5 25t57.5 45t39 68.5q2 3 4.5 6.5t4.5 5.5t4.5 4t4.5 3t5 2t4.5 1t4.5 0.5 t4.5 0.5h4.5h4q28 -16 28 -48q-14 -40 -38.5 -73t-52.5 -55t-62.5 -38t-66 -25t-65.5 -13q-204 -26 -435 -26q-100 0 -205 5q-221 16 -323 28q-43 6 -143 27l-17 3q-18 -44 -34.5 -73t-41 -56.5t-58 -40.5t-77.5 -13q-81 0 -171 52q-87 50 -130 105.5t-43 109.5zM32 -571 q0 -73 138 -150q75 -44 132 -44q12 0 23 2q17 16 26 28.5t12 19.5t12 30q11 33 15 59q-4 0 -36 13t-58 25q-61 32 -113 45q-58 17 -96.5 17t-49.5 -24q-5 -11 -5 -21z" />
<glyph unicode="M" horiz-adv-x="3009" d="M-23 1494q10 10 26 12t26 -7q49 -31 115 -33h7q62 0 124 25q26 10 53.5 25t47 27.5t48.5 34t42.5 32.5t44.5 36q113 92 157 132q83 82 100 98l9 9t9 9.5t8.5 8.5t10 8.5t9.5 7.5t11 7.5l11 5.5t11 5q29 12 56 12q25 0 49 -10q50 -21 89 -67.5t63 -101t26 -97.5 q11 -168 10 -300v-73q0 -63 -5 -189q-5 -79 -10 -218t-9 -220q-5 -69 -5 -115q4 18 7 37t4 25.5t5.5 22.5t11.5 37t22 60q83 226 202 358q2 2 9.5 10.5t15.5 17.5t18.5 19t22 19t21.5 14q49 41 105 41h8q10 -1 20 -3.5t17 -5t15.5 -9.5t13 -10t13 -14t11 -14t12 -16.5 t11.5 -16.5q29 -44 47 -177t20 -275q1 -59 4 -97.5t5 -46.5l2 -9q34 120 52 183q64 251 142 420q35 71 66 124t70.5 103t83.5 89l18 16q34 30 63 43q12 4 24 4q36 0 81 -31q34 -30 47 -68q19 -39 28 -102q5 -59 5 -118q0 -29 -1 -58q0 -71 -7.5 -143.5t-23.5 -177 t-21 -143.5q-35 -241 -58 -474q-1 -20 -14 -119q-10 -115 -10 -170q0 -39 8 -83q1 -17 12 -67q3 -14 17 -23q4 -1 8 0.5t6.5 4.5t4 5t3.5 6l1 4q3 6 13 27t11 23q28 60 68 132.5t61.5 108.5t82 133t69.5 111q26 39 72 114t66 107q22 39 78.5 132t81.5 143q4 7 10.5 25 t8.5 22q4 8 8.5 13t13.5 6.5t13.5 2t17.5 0.5q19 -19 19 -38q0 -8 -4 -17q-2 -4 -6.5 -17t-9 -25.5t-6.5 -16.5q-26 -51 -79 -135.5t-80 -130.5q-15 -25 -44 -72t-53 -84.5t-45 -70.5q-62 -98 -99 -159t-87.5 -150.5t-88.5 -166.5q-16 -33 -24 -52q-29 -48 -73 -63 q-16 -6 -32 -6q-10 0 -22 2q-28 6 -41 24q-12 15 -25.5 48.5t-15.5 59.5q-9 41 -14 107q-2 76 -2 228q-1 29 -1 65q1 61 3 140q4 124 3 186q0 102 2 131q10 178 32 427q1 7 2.5 25t2 26.5l1.5 25.5t1.5 27t0.5 25.5t-0.5 27.5t-1.5 26t-3 27q-2 23 -13 71q-1 2 -2 6 t-1.5 5.5t-1 4.5t-1.5 4.5t-1.5 4t-1.5 3.5t-2 2.5t-2 2t-2 1.5q-114 -103 -197 -286q-27 -54 -52 -123t-39.5 -117t-40.5 -138q-5 -18 -8 -28q-7 -29 -25.5 -98t-26.5 -106q0 -2 -3 -21.5t-7.5 -47t-7.5 -44.5q-23 -179 -26 -312q0 -19 -3.5 -38.5t-11 -41t-24 -35 t-38.5 -13.5q-43 0 -68 57q-5 22 -9 48t-7.5 57t-6.5 48q0 1 -6 40.5t-12.5 84.5t-8.5 58q-7 62 -17 183q-3 55 -10 163.5t-10 163.5q0 15 -1 37.5t-1.5 39t-2 37.5t-2.5 39q-2 24 -3.5 36.5t-8.5 32t-19 33.5q-4 5 -8.5 8t-9.5 3t-8.5 -0.5t-9.5 -4t-9 -5.5t-9 -7t-9 -7 q-136 -128 -220 -362q-36 -100 -61 -218.5t-50 -287.5q-3 -247 -8 -372q-1 -9 -2 -19.5t-4 -30t-7.5 -36t-11 -35t-16 -29.5t-21 -16.5t-27.5 0.5t-34 24q-65 71 -65 201v19q28 504 28 827q2 85 8.5 219.5t10 220.5t5.5 220v58q0 96 -5 162q-1 11 -2 38.5t-2.5 43t-6 38 t-14.5 40t-25 31.5q-18 17 -42 17q-28 0 -63 -24q-37 -36 -115.5 -102.5t-138.5 -113.5q-49 -41 -81.5 -65.5t-81 -54.5t-93.5 -47q-72 -30 -150 -30q-101 0 -168 45q-18 8 -18 27q0 13 8 31z" />
<glyph unicode="N" horiz-adv-x="2382" d="M-23 1391q310 179 571 428q42 46 99 65q32 11 64 11q26 0 52 -7q71 -21 128 -95q32 -45 47 -102q40 -153 40 -412q1 -42 0 -86q0 -184 -13 -388q-3 -43 -10.5 -129.5t-11.5 -151t-5 -128.5q0 -10 4 3q5 16 28 101q70 259 110 373q9 20 29.5 73.5t40 100t40.5 86.5 q95 189 254 356q13 17 31.5 33.5t29.5 18.5q19 6 50 0.5t54 -20.5q18 -14 32 -35q29 -51 32 -95q8 -70 8 -222q0 -82 -5 -251q-3 -54 -8 -158t-8 -168.5t-7 -154t-7 -164.5q-2 -49 -2 -97v-56v-72v-98q-1 -7 -1 -15q0 -33 11 -77q12 -43 37 -53q5 -1 9 -1q26 0 64 36 q2 2 9 8.5t12.5 12t7.5 8.5q320 395 553 959q13 23 33 23q11 0 25 -7q15 -16 15 -39q-216 -565 -576 -1000q-3 -4 -14.5 -15.5t-24.5 -23.5l-13 -13q-54 -46 -102 -46h-6q-18 2 -35.5 10.5t-34 25t-26 28.5t-24.5 32q-55 81 -69 155q-14 63 -14 157q0 26 1 55q0 212 18 506 q8 152 11 297q2 80 2 159.5t-2 157.5q0 20 -3 85.5t-4 65.5q-146 -153 -245 -343q-61 -121 -107 -254q-82 -220 -153 -553q-3 -30 -30 -160q-42 -237 -45 -399q-2 -49 -12 -141.5t-12 -133.5q-2 -6 -16 -42q-6 -19 -23 -27q-12 -5 -24 -5q-6 -1 -11 1q-18 4 -30 16 q-1 1 -7 6t-9.5 9t-5.5 10q-37 72 -37 142v276q0 67 6 435q0 81 8.5 234.5t9.5 190.5q11 253 11 496q0 182 -6 359q0 9 -0.5 36t-1.5 40t-3 34.5t-6.5 39.5t-11.5 35q-12 29 -35 43.5t-52 9.5q-23 -8 -52 -30q-7 0 -108.5 -82.5t-247.5 -194.5t-239 -168h-13q-17 0 -30 13 q-11 10 -11 24q0 22 23 33z" />
<glyph unicode="O" horiz-adv-x="1416" d="M-32 380v32q0 388 187 728q7 15 22.5 40.5t19.5 32.5q-8 58 -8 117q0 180 76 366q19 43 42 82t55.5 80.5t76.5 75t93 53.5q71 31 170 31q56 0 121 -10q173 -26 273 -117q56 -53 89 -121t41 -129q12 -57 14 -119q0 -14 1 -29q1 -49 -5 -99q-6 -66 -15.5 -121t-24.5 -130 q-46 -220 -128 -477q-4 -15 -14 -42t-13 -42q49 8 147 55q53 26 93.5 55.5t68 63.5t39.5 70q15 26 47 26q27 -13 27 -44q-26 -87 -81.5 -139t-160.5 -103q-86 -42 -209 -66q-70 -213 -134 -350q-132 -283 -322 -446q-88 -71 -181 -71h-24q-79 7 -154 82q-53 36 -95.5 99.5 t-66.5 130.5q-58 183 -67 435zM135 170q0 -81 10 -147.5t34.5 -138t63.5 -131.5q1 -1 3.5 -3t10 -8.5t15 -11t19 -11t21.5 -9.5q10 -2 24 -4h8q10 0 18 3q8 -1 15 -1l129 54q52 43 99.5 97t87 114.5t73 122t63.5 131t53 130.5t46 131h-29q-123 2 -243 60t-218 162 q-59 62 -100 117t-63 116q-76 -186 -118 -485q-11 -80 -16.5 -143.5t-5.5 -144.5zM262 1311q47 71 148 184t201 209q29 29 50 29q9 0 17 -5q11 10 48 -27q-121 -162 -128 -178q-109 -148 -202 -320q-58 -103 -79 -155q55 -153 176 -283q89 -94 194.5 -147t211.5 -55 q38 0 58 3q5 16 17.5 57.5t18.5 63.5q75 227 126 469q15 75 24 125q9 51 17 115q6 54 6 102v19q-2 57 -13 111q-28 135 -107 208q-76 68 -236 96q-59 11 -110 11q-86 0 -139 -24q-147 -61 -226 -251q-37 -86 -59 -190q-16 -79 -16 -134q0 -18 2 -33z" />
<glyph unicode="P" horiz-adv-x="1436" d="M-47 1594q24 75 99 117q128 77 373 95q47 3 91 3q123 0 229 -26q132 -35 238 -105q75 -51 136 -115t105 -144.5t61 -165.5q5 -22 10 -70q2 -27 3 -54q0 -127 -48 -259q-56 -160 -159 -280q-27 -31 -80 -75t-98.5 -76t-62.5 -38q-42 -27 -85 -49.5t-99.5 -44t-86.5 -32 t-102 -34.5q-89 -26 -134 -36q-1 -9 -3 -91t-5.5 -184.5t-6.5 -152.5q-5 -85 -5 -198q1 -11 1 -23v-16q0 -113 -7 -156q-4 -42 -29 -71q-18 -27 -50 -31q-3 0 -7 -1q-27 0 -48 27q-12 16 -18 39q-3 19 -4.5 38.5t-2.5 40.5t-1 37.5v40.5t0.5 38t1.5 41t1 39q5 370 18 553 q-14 -1 -47 1t-47 -1q-32 -2 -42 8q0 40 26 53l115 21q24 395 29 645q1 31 1 78q1 86 -3 225q-3 102 -3 176q0 80 3 127q0 7 1 15.5t3.5 19.5t3.5 17q7 30 40.5 39t58.5 -11q33 -28 36 -55q23 -133 23 -280q0 -22 -1 -45v-12q-2 -118 -8.5 -358.5t-9.5 -362.5 q-6 -158 -9 -192q34 5 103 27q26 10 75.5 26t87.5 30t71 30q4 2 30 14.5t53 27.5t50 34q115 83 192.5 210t105.5 272q13 58 13 117q0 39 -6 79q-14 98 -52 186.5t-98 168.5q-120 163 -396 223q-39 4 -87 4q-27 0 -57 -1q-226 -18 -343 -85q-54 -30 -64 -70q-13 -25 -36 -25 h-8q-10 0 -19.5 12.5t-9.5 30.5z" />
<glyph unicode="Q" horiz-adv-x="1436" d="M-20 -180q25 49 104 62q10 1 20 1q42 0 84 -14q51 -17 114 -49q4 -3 13 -6t13 -6q24 -9 57 -28q20 -8 56 -25.5t47 -22.5q52 25 142 90q2 3 7.5 5.5t7.5 4.5q39 36 73 82.5t57 86.5t48.5 101t38.5 97t36 104q6 18 10 27q52 151 107 398q69 322 69 622q0 85 -6 168 q-14 217 -92 361q-2 3 -8 13.5t-10 15.5q-79 79 -158 93q-25 3 -45 3t-40 -3.5t-38 -12t-34 -22.5q-25 -24 -55 -63q-38 -50 -76 -137q-37 -88 -68 -185.5t-57 -212.5t-41 -191.5t-39 -206.5q-18 -101 -28 -190.5t-14 -185.5q-1 -33 -1 -65q0 -64 5 -127q8 -96 28 -187 q19 -94 83 -155l45 -15q28 -8 57 -8q24 0 49 5q55 12 102 48q47 33 80.5 80t47.5 98q5 13 10 65q0 15 15.5 27t31.5 12q16 -8 23 -16t7 -23q0 -34 -14 -81q0 -6 -5 -21.5t-10.5 -29t-8.5 -13.5q-44 -98 -135 -162q-93 -66 -192 -66q-42 0 -73 11q-8 0 -35 9q-64 17 -118 56 t-89 95q-55 82 -88 229q-29 115 -32 217q-3 49 -3 99q0 148 29 298q38 201 116 431q23 70 47 130.5t56.5 126t68 121t81.5 110t97 99.5q6 4 28 21t27 21q74 44 169 44q22 0 46 -2q105 -16 198 -105q30 -30 46 -52q128 -140 174 -328q42 -174 42 -379q0 -154 -24 -326 q-56 -383 -260 -771q-74 -141 -155 -225q-59 -62 -173 -137q-9 -6 -41 -28t-52 -32q153 -70 288 -89q48 -8 97 -8q20 0 40 2q69 4 137.5 23.5t130.5 53.5q114 62 178 173q1 1 3 4q43 83 43 138q0 43 -26 68q-2 1 -4 1.5t-4 0.5t-4 -2t-4 -3.5t-5.5 -4.5t-5.5 -5 q-32 -16 -50 2q-10 10 -11 21.5t3 19.5t10 14q41 35 75 35q28 0 52 -24q50 -44 50 -120q0 -19 -3 -40q-2 -20 -9 -43.5t-13 -37t-16 -35.5t-11 -25q-73 -134 -213 -208q-161 -84 -346 -84q-51 0 -107 8q-157 23 -362 121q-4 -1 -8 -3l-8 -4l-8 -4t-8 -4.5t-8 -3.5 q-101 -40 -192 -40q-75 0 -143 27q-95 39 -131 105q-13 27 -13 53q0 23 11 45zM47 -215q-2 -3 -2 -8q0 -8 5 -18q14 -25 39 -44t51 -27q65 -27 128 -27q65 0 128 29q-8 4 -23 11t-22 11l-18 9l-20 10t-17 9q-11 3 -31 13q-4 2 -24.5 11.5t-27.5 12.5t-25 10.5t-28.5 10 t-25 5t-26.5 2.5h-16q-32 -4 -45 -20z" />
<glyph unicode="R" horiz-adv-x="1451" d="M-26 1688q-4 12 -4 22t4 18q9 16 31 15q276 64 474 64q25 0 48 -1q0 46 1.5 75t8.5 68t21 64q2 8 10 19.5t9 14.5q4 2 10.5 6.5t9 6t7.5 3.5t9 2.5t10 0.5q2 0 7 -1.5t6 -2t5 -1.5t5 -1.5l4 -2t4.5 -3t4 -3.5t4 -4t3.5 -5q10 -21 10 -44q-1 -21 -4 -85.5t-3 -79t2 -35.5 q230 0 412 -115q79 -53 130 -129q54 -82 58 -178v-20q0 -179 -138 -331q-57 -60 -130.5 -116.5t-174.5 -125.5q-8 -6 -68.5 -47.5t-88.5 -64.5v-151q75 -122 222 -325q9 -12 26.5 -37.5t26.5 -37.5q79 -110 129 -162q56 -60 115 -92.5t134 -48.5q14 0 24 -12t10 -28 q0 -17 -12 -24.5t-25 -7.5q-11 0 -25.5 1.5t-50.5 10t-70 24t-77.5 48t-79.5 76.5q-71 87 -135 173q-19 30 -52 72q-41 57 -91.5 134.5t-71.5 113.5q3 -123 40 -613q3 -35 15 -172.5t17 -210.5q2 -30 -18 -46q-18 -14 -40 -15q-2 1 -4 1q-26 2 -46 13q-41 21 -64 74 q-14 29 -23.5 62.5t-15 80.5t-7.5 68.5t-4 82.5t-2 67q-2 52 -3 106q-1 36 -1 86v54q0 86 1 106q3 119 3 259q0 180 -5 394q-1 87 -1 151v58q0 80 1.5 209.5t1.5 209.5q0 50 3 129t6 133l3 53q-20 1 -40 1q-65 1 -135 -7q-92 -10 -145.5 -20.5t-145.5 -31.5q-10 -2 -15.5 -3 t-13.5 -3t-15 -4h-10q-9 0 -20 5.5t-11 12.5zM671 768q12 10 27 21t27.5 18.5t30 19t30.5 20.5q6 5 19 14q57 39 86 60t79 60t76.5 66t61 68.5t50.5 78.5q16 36 28 83q10 40 10 82v14q-8 155 -155 247q-89 57 -177 87q-86 29 -186 29h-7q-2 -322 -2 -564t2 -404z" />
<glyph unicode="S" horiz-adv-x="1356" d="M-43 904q0 22 7 54q7 34 12 52t15 51q3 8 4 12q46 133 113 270q63 137 128 240q15 26 33.5 52.5t42.5 59t36 48.5q36 53 85 105q107 134 227 231q83 65 171 65q138 -7 210 -118q60 -94 60 -246q-4 -137 -48 -236q0 -8 -13.5 -18t-21.5 -10h-12q-18 7 -24 21t1 31 q27 62 37 138q5 39 5 77q0 37 -5 75q-10 76 -42 126q-47 76 -150 84q-53 0 -118 -52q-108 -88 -194 -189q-7 -11 -23.5 -38t-25 -41t-21 -36.5t-21.5 -42t-17 -38.5q-13 -26 -24.5 -52t-25 -58.5t-21 -51t-23.5 -59.5t-21 -54q-4 -10 -30.5 -79t-34 -88.5t-27 -77.5t-27 -90 t-16 -80t-11.5 -91q-1 -3 1 -11t2 -11q1 -9 7.5 -17t12 -11.5t16.5 -8.5q33 -10 99 -20q171 -23 218 -31q40 -2 245 -48q29 -8 44.5 -13t34.5 -17t33 -30q3 -6 13.5 -23t14.5 -27q13 -52 14 -60q0 -1 3 0.5t5.5 2.5t2.5 0l48 30l48 30q35 22 106 66.5t106 66.5 q17 10 26.5 16t23.5 17t23 20t16.5 21.5t10.5 25.5q0 8 4 15t11 11t15 6t17 2q14 -6 22 -20.5t8 -23.5q-13 -50 -37 -76t-98 -77q-39 -27 -117 -74.5t-95 -58.5q-24 -16 -73 -46t-73 -46q0 -8 -3 -10q-1 -23 -6 -45.5t-15.5 -58t-12.5 -43.5q-3 -8 -6.5 -21.5t-6.5 -21.5v-5 q-28 -83 -84 -173q-9 -13 -42.5 -73t-55.5 -87l-47 -70q-13 -14 -36 -42.5t-42.5 -50t-39.5 -39.5q-51 -51 -105 -83q-66 -35 -101 -35q-33 0 -50 11q-22 11 -40 37q-19 28 -19 65q0 76 80 190q10 12 25 33q37 49 80 102q150 191 275 307q9 8 26 25.5t26 24.5q5 5 26 21 q0 80 -5 120q-6 52 -21 69q-29 37 -73 49q-13 7 -37 11q-29 7 -148 27.5t-169 25.5q-147 15 -194 33q-48 22 -66 37q-23 18 -38 40q-14 22 -18 50q-5 32 -5 54zM266 -293q0 -3 -1 -6q-1 -8 1 -17q2 -12 9 -22q3 -5 13 -10q8 -3 17 -3q25 0 60 23q50 35 88 73q94 88 177 263 q39 90 55 139q5 18 16 48.5t17.5 50.5t9.5 39l-25 -25q-114 -109 -263 -297q-59 -73 -80 -99q-3 -5 -12 -16.5t-13 -17.5l-10 -13t-14 -18.5t-14 -20t-14.5 -23.5t-10.5 -23t-6 -25z" />
<glyph unicode="T" horiz-adv-x="1527" d="M-32 1901q0 15 11 27t26 12q116 -3 462 -3q228 0 341 -3q98 0 146 -2q116 0 214 -2q15 0 30 -1q85 -1 178 7q110 8 202 30q6 6 15 6q16 0 40 -24q0 -40 -29 -55q-183 -40 -456 -40q-36 0 -148.5 3t-118.5 3q-11 -43 -11 -195q-2 -38 -7 -114t-8 -114q-4 -64 -13.5 -189.5 t-13.5 -185.5q-35 -474 -42 -618q-21 -405 -21 -603q0 -11 -1 -42t-1 -47.5t6 -40.5t19 -40q4 -5 8 -7t8.5 -1t9 3t11 6.5t11 8t11.5 9.5t11 9q44 46 88.5 102.5t79 104.5t77 122.5t67.5 119t68.5 133t61.5 126.5t63 134q9 18 61 122.5t79 168.5q15 17 31 17q13 0 26 -10 q13 -7 16 -20.5t-5 -26.5q-19 -47 -43 -96t-52.5 -102t-44.5 -87q-62 -133 -102.5 -216t-100.5 -195.5t-121 -205t-127 -169.5q-63 -81 -122 -128q-39 -31 -87 -31q-9 0 -17 1q-58 6 -94 53q-12 16 -21 34t-15.5 40.5t-9.5 37.5t-9 43q-15 80 -15 245q3 150 11 329t17 313.5 t22.5 335t19.5 318.5q8 146 16 295q0 5 2 117.5t7 137.5h-218h-112q-75 -1 -121 -1h-32q-34 0 -78 1q-64 1 -119 3q-37 0 -37 37z" />
<glyph unicode="U" horiz-adv-x="1543" d="M-34 768q6 38 13 68t18 60q1 1 27.5 66.5t63.5 154.5t59 139q11 24 34 77t44 103t40 96t23 54l45 84q21 26 43 36q18 8 44 8h10h9.5h10.5h10t11 -1.5t9 -3.5q99 -30 155 -121q66 -106 91 -235q22 -120 22 -215q2 -50 1.5 -98.5t-1.5 -96.5q-2 -33 -3 -78t-2.5 -89.5 t-2.5 -77.5q0 -64 -7 -352q-1 -29 -5 -95q-5 -67 -7 -115q-1 -24 -1 -47.5t1 -46.5q0 -40 3.5 -155t3.5 -125q1 -13 3.5 -33t5 -39.5t3.5 -32.5q1 -7 4 -28.5t6 -35.5t8 -26q9 -22 25 -34q1 -1 10 -7.5t15 -8.5q44 8 87 47.5t93 115.5q96 141 165.5 368t104.5 515 q28 235 28 474v32q-2 255 -35 452q0 15 11 28.5t26 13.5q10 0 18.5 -4.5t14 -12.5t5.5 -18q34 -200 36 -458v-32q0 -242 -28 -482q-31 -277 -99 -509q-67 -240 -184 -409q-51 -79 -96.5 -126.5t-104.5 -64.5l-37 -10q-21 -6 -41 -6q-74 0 -132 76q-43 58 -63 170 q-3 14 -5.5 28.5t-4.5 30t-3.5 28t-3 30t-2.5 28.5t-2.5 30.5t-2 28.5t-1.5 30t-2 29q-4 64 -4 132v49q0 51 1 115q1 94 1 131q6 357 8 436q0 38 3.5 115t4.5 115v30q0 34 -1 85q-4 173 -38 338q-14 65 -72 108q-10 11 -33 10.5t-37 -18.5q-8 -12 -26 -47q-5 -12 -33 -73.5 t-62.5 -139t-46.5 -102.5q-22 -47 -57.5 -134.5t-61.5 -152t-28 -67.5q-3 -8 -11.5 -26.5t-15 -34.5t-11.5 -33t-3 -29t13 -16q23 -13 23 -32q0 -12 -8 -26q-6 -5 -16 -10t-16 -5h-5h-4t-3 0.5t-3.5 2t-4.5 5.5q-25 8 -34 36q-6 17 -6 39q1 13 3 27z" />
<glyph unicode="V" d="M-37 1318q0 16 5.5 27t13.5 11q7 9 23 15q25 15 81.5 52t88.5 57t81 45.5t92 42.5q43 15 78 14q45 0 77 -24q33 -25 57 -61t37.5 -79t20.5 -81.5t12 -85.5q16 -175 25 -258q4 -36 10.5 -111t10.5 -111q11 -103 30.5 -349.5t35.5 -379.5q3 -26 8 -77t8 -78q7 -77 33 -252 q6 -37 22 -78q17 34 45.5 84t46.5 94q61 148 146 415q140 443 234 854q1 6 37.5 187t38.5 188q1 9 5 32.5t6 38.5t4 37.5t1 39t-4 34t-10.5 30.5t-19.5 22q-12 12 -35 2q-19 -9 -23 -24q0 -15 -11.5 -24t-28.5 -9q-15 0 -26 12.5t-11 28.5q6 28 25 50.5t48 33.5q25 8 48 8 q34 0 62 -18q60 -46 60 -168q0 -60 -15 -139q-1 -7 -37.5 -190.5t-37.5 -189.5q-100 -419 -238 -861q-90 -277 -150 -418q-37 -101 -80 -170q-44 -106 -112 -160q-3 -3 -6.5 -5t-6.5 -4q-7 -4 -14 -4q-14 0 -30 14q-23 22 -39.5 58t-27.5 69t-12 47q-9 61 -17 125.5 t-15 123.5t-14 127.5t-12 124.5t-11 128t-10 124.5t-9.5 128t-9 124.5t-9 127.5t-8.5 124.5q-9 127 -32 315q-2 15 -7 48t-8 50t-8.5 46t-12 48.5t-16 42.5t-21.5 43q-7 11 -17 18.5t-19 11.5t-23 3.5t-22.5 -1t-25 -5.5t-23.5 -7.5t-24 -9t-21 -8.5q-95 -35 -240 -126 q-1 0 -8.5 -2t-12.5 0.5t-12 10.5q-14 14 -14 30z" />
<glyph unicode="W" horiz-adv-x="1928" d="M-29 783q-12 40 -12 83q0 118 91 257q107 159 220 268q6 4 14 11.5t15 13t13 7.5q39 24 75 24q27 0 53 -13q60 -30 85 -105q25 -78 25 -202q0 -38 -2 -79q-10 -190 -13 -280q-25 -480 -32 -595q-1 -30 -3.5 -90.5t-4.5 -90.5v-322v-42v-45.5t1 -40t4 -44.5t8 -41 q16 -28 40 -28q27 -3 49 20t35 58q16 41 26.5 95.5t13.5 85.5t9 102q15 185 67 341l7 26q19 45 55 57q10 4 20 4q27 0 56 -23q10 -9 19 -23t13 -23t12 -30t11 -27q7 -21 22 -63t23 -64q46 -112 97 -180q18 -23 60 -65q37 -37 58 -48q42 -12 78 -12q38 2 70 22t51 44.5 t34.5 57.5t21 52.5t10.5 40.5q57 290 88.5 592t51.5 664q7 57 7 68q4 55 6 84t3 79v21q0 37 -2 63q-4 34 -10.5 76.5t-21 80t-34.5 73.5q-43 73 -104 120q-62 48 -136 68q-51 13 -107 13q-26 0 -54 -3q-34 -3 -62.5 -36.5t-62.5 -101.5q-7 -14 -18 -18t-30 -4q-28 16 -28 37 q0 9 5 19q80 169 189 181q33 3 64 3q123 0 218 -50q120 -65 195 -192q22 -39 37.5 -80t23 -87.5t11.5 -82.5q3 -26 3 -63v-29q-2 -56 -3.5 -85t-6.5 -89q0 -29 -5 -70q-20 -360 -52 -666.5t-90 -597.5q-17 -102 -75 -181q-73 -92 -185 -100q-70 0 -98 16q-76 23 -165 103 q-45 38 -98 110q-61 86 -123 198l-7 -24q-24 -108 -32 -204q-15 -194 -55 -302q-56 -123 -142 -123h-21h-7t-7.5 0.5t-6.5 1t-7.5 1.5t-8 3.5t-10.5 6t-11.5 8.5t-14 11.5t-16.5 15.5q-46 54 -65 121.5t-29 161.5q-11 98 -11 265q-2 84 -2 169t2 171q1 125 12.5 329.5 t23.5 346.5l11 142q1 14 1 30q0 50 -11 130q-6 45 -21 60q-16 20 -47 -5q0 -2 -2 -3.5t-4.5 -3t-5.5 -3t-5 -3.5q-100 -100 -185 -233q-75 -112 -75 -212q0 -35 9 -68q3 -14 2 -21t-9 -21q-7 -5 -15 -6t-13 0l-4 1q-18 0 -37 30z" />
<glyph unicode="X" horiz-adv-x="1344" d="M-32 -178q-4 9 -4 18q0 17 16 32q17 10 32.5 5.5t24.5 -22.5q2 -3 7.5 -12.5t8 -14t8 -11.5t9.5 -11t10 -7t12 -4q23 -4 50 19q41 34 70 82t61 119q119 262 304 750q-41 179 -71 273q-22 70 -58.5 221t-73.5 265t-91 209q-21 37 -44 37q-3 0 -6 -1q-65 -28 -68 -70 q-8 -8 -34 -8h-16q-13 6 -17.5 11t-7.5 21q3 41 35 71.5t75 48.5q34 9 38 10q18 5 38 6q16 -1 33 -5q37 -8 63 -27q19 -13 36 -29.5t29 -31.5t24.5 -38.5t19.5 -38t17.5 -43.5t14.5 -40.5t14 -42.5q49 -130 89 -312q25 -105 50 -223q34 87 55 143q72 178 137.5 309.5 t150.5 244.5q27 41 61 58q25 14 57 10t51 -27q4 -4 8 -10.5t8 -15t7 -12.5q3 -6 6 -13t4 -9q4 -7 3 -25t-8 -25q-10 -9 -29 -10.5t-29 13.5q-4 3 -7.5 9t-4.5 11.5t-3.5 12.5t-4.5 12q-2 2 -5 6t-4 6q-6 6 -18 0q-6 -3 -11 -8.5t-11 -14.5t-9 -12q-82 -111 -146 -239.5 t-133 -298.5q-16 -38 -46.5 -115.5t-46.5 -114.5q8 -31 24.5 -94t26.5 -100.5t25.5 -90.5t30.5 -98q23 -76 66 -233t67 -237q24 -78 50.5 -172.5t55.5 -197.5t49 -173q4 -11 11 -33.5t11 -35t10.5 -32.5t11.5 -34t12 -31.5t14 -34t15 -32.5l8.5 -17t9 -18.5t9 -16.5 t10.5 -16.5t11 -12.5q4 0 40 -31q30 -13 58 -3q22 9 38 25.5t25.5 40t14 41.5t9.5 46q2 18 15 28t32 5q12 -1 23 -17q6 -10 6 -19q0 -7 -3 -14q-21 -162 -131 -204q-28 -14 -55 -14q-28 0 -65 14q-4 4 -12 8q-116 59 -170 146q-18 30 -33.5 62t-30.5 71t-24 63.5t-25.5 73.5 t-22.5 67q-25 70 -58.5 175t-63 205t-55.5 191t-41.5 147t-15.5 57q-28 102 -70 283q-163 -439 -268 -668q-26 -55 -44 -87t-48 -72t-63 -66q-50 -37 -91 -37h-10q-37 3 -67.5 31t-51.5 71z" />
<glyph unicode="Y" horiz-adv-x="1706" d="M-15 566q-11 109 -11 223q0 181 28 373q47 310 148 618q10 31 52 31q13 -6 22 -19.5t9 -27.5v-13q-56 -167 -86 -383q-2 -19 -10.5 -79.5t-11.5 -88t-8 -75.5t-7 -88v-48v-32q3 -157 58 -394q24 -105 75 -193q26 -49 72 -53q50 0 75 11q13 6 40 18q41 21 78 62 q14 15 28.5 34t24 32t25.5 38t21.5 34.5t23.5 40.5t22 36q73 122 92 160q63 108 78 135q34 59 95 178q14 28 20 47q5 10 15 29.5t16.5 32t16 29t18.5 29.5q32 60 49 82q20 31 55 41q13 4 25 4q22 0 42 -11q15 -7 27.5 -19.5t20 -23.5t14.5 -31t10 -30.5l9 -31.5 q26 -89 39 -163q19 -100 23 -212q3 -62 3 -124q0 -116 -10 -231q0 -25 -3 -38q5 4 17.5 9t17.5 9q43 28 58.5 38.5t55 38t58 43t49 43.5t47.5 51t35.5 53t29.5 60q0 2 2.5 5t3 4.5t3 4.5t3.5 4l4 4t4.5 3.5t5 2.5t6 1.5t7 0.5t8.5 0q17 0 25 -18q4 -8 4 -17t-4 -18 q-9 -34 -26 -67t-35.5 -58.5t-48 -54.5t-51.5 -48t-60.5 -46t-60.5 -41t-64 -41q-14 -9 -21 -13q-30 -17 -88 -58q-19 -112 -25 -134q-4 -24 -16.5 -72t-13.5 -54l-9.5 -32t-24 -78t-31 -99t-35 -105.5t-32.5 -86.5q-24 -54 -42 -93t-45.5 -91t-54.5 -91t-63 -78.5 t-75 -68.5q-5 -3 -10.5 -6.5t-9.5 -6.5t-9.5 -6t-10 -6t-10 -5.5t-11.5 -4.5q-56 -29 -112 -47q-39 -15 -78 -15q-54 0 -87 29q-31 31 -31 75q0 16 4 33q73 285 275 586q34 51 80 105t79.5 88t93 93t86.5 86q16 17 28 30q1 0 20 146q22 244 25 417q0 13 1.5 55.5t1.5 59.5 t-0.5 54.5t-2.5 60t-6 54t-11.5 59t-16.5 53.5q-3 2 -5.5 2.5t-3.5 -0.5t-3.5 -4t-3.5 -4q-6 -6 -15 -19.5t-10 -15.5q-43 -71 -64 -122q-4 -8 -12 -25t-11 -25q-61 -118 -95 -180q-24 -44 -78 -136q-5 -9 -27 -45.5t-45.5 -74.5t-24.5 -40q-30 -51 -48 -81t-47.5 -72 t-57.5 -72q-28 -32 -65 -58q-59 -51 -115 -66q-50 -14 -95 -14q-39 0 -76 10q-77 24 -132.5 86.5t-79.5 151.5q-11 42 -15 96zM533 -712q0 -2 1 -4q1 -4 4 -7q14 -11 39.5 -11t45.5 8q81 29 127 58q3 2 8 6t7 7q8 6 15.5 13.5t13.5 14t12.5 17.5t11 17t11 19.5t9 18t9 20 t8 19t8.5 20.5t7 19q57 110 90 212q42 130 83 328q5 19 22.5 77.5t19.5 74.5q-55 -56 -140.5 -156t-144.5 -187q-184 -272 -262 -564q-1 -3 -2 -10q-3 -9 -3 -10z" />
<glyph unicode="Z" horiz-adv-x="1095" d="M-34 -490q5 30 16 73q14 63 36 138.5t36.5 118.5t49 139.5t43.5 122.5q34 96 93.5 263.5t108.5 308t91 264.5q34 98 108 350q4 12 11.5 36t12 38t12 39.5t10.5 39.5t9 39.5t6.5 39.5t2.5 38.5t-1 37.5q-5 20 -23 35q0 1 -10.5 2.5t-22.5 2.5t-15 2q-92 0 -137 -10 q-67 -14 -175 -57l-18 -8h-8q-14 0 -25.5 8.5t-11.5 16.5q-14 29 23 48l17 5q8 3 42.5 16.5t50 19.5t42.5 14t50 13q28 10 117 13q38 1 66 1q37 0 57 -2q36 -2 67 -20t45 -50q1 -4 6 -20t5 -22q6 -40 7 -82q0 -128 -55 -292q-21 -66 -63.5 -186.5t-59.5 -170.5 q-117 -358 -174 -533q-47 -140 -158 -490q-8 -21 -37 -107t-41.5 -124t-30.5 -105t-28 -122q0 -1 1 -6.5t1 -6.5q2 -5 10 3q6 6 11 7q20 10 41.5 21.5t47.5 26.5t40 23q28 17 107 70q30 18 79 49.5t91 56.5t81 44q106 52 276 105q19 10 34 3t15 -26q4 -8 4 -16q0 -6 -3 -12 q-7 -14 -24 -22q-161 -48 -267 -100q-78 -39 -243 -144q-12 -7 -42 -27.5t-48 -30.5q-46 -36 -71.5 -54t-68.5 -41.5t-83 -32.5q-10 -2 -20 -2q-35 0 -69 28q-27 26 -40 59q-13 32 -13 70q0 39 6 73z" />
<glyph unicode="[" horiz-adv-x="570" d="M-37 -293q-4 987 77 2009q7 52 85 64q83 10 100 11q126 13 195 13q22 3 39.5 -12.5t17.5 -37.5q0 -11 -3.5 -20.5t-10 -16.5t-15.5 -12t-20 -6q-246 -12 -286 -23q-78 -996 -74 -1923q116 -13 275 14q15 3 28.5 -2t22.5 -15.5t12 -24.5q3 -22 -9 -40.5t-30 -22.5 q-105 -15 -212 -15q-72 0 -147 7q-19 5 -32 18.5t-13 34.5z" />
<glyph unicode="\" horiz-adv-x="483" d="M-346.5 1651q7.5 25 29.5 32q17 8 39.5 0.5t30.5 -24.5q407 -830 650 -1701q10 -18 -1 -38.5t-35 -29.5h-19q-37 11 -43 40q-249 878 -645 1679q-14 17 -6.5 42z" />
<glyph unicode="]" horiz-adv-x="523" d="M-18 -328q-4 24 9.5 39.5t37.5 15.5q24 2 68.5 6t71.5 6.5t59.5 6t53 7t30.5 6.5q51 937 23 1927q-121 6 -275 -25q-22 -3 -40.5 9t-22.5 34q-3 22 9 40.5t34 21.5q173 35 350 20q48 -9 48 -53q31 -1012 -21 -2011q0 -26 -20.5 -40.5t-63.5 -24.5q-23 -5 -97 -14 q-27 -4 -60 -6.5t-57 -4t-51 -3t-36 -1.5q-10 -2 -22 4t-20 17t-8 23z" />
<glyph unicode="^" horiz-adv-x="526" d="M96.5 1708q-5.5 23 3.5 38q10 20 27.5 46.5t36 51t39 50t36.5 44t27 32t12 14.5q19 19 42 19q18 0 40 -22q3 -4 41.5 -55t75 -101t43.5 -61q13 -20 8 -42.5t-25 -35.5q-19 -10 -41.5 -4.5t-31.5 24.5q-43 65 -115 160q-17 -18 -40.5 -47.5t-47 -64t-35.5 -58.5 q-15 -26 -45 -26q-19 0 -27 8q-18 7 -23.5 30z" />
<glyph unicode="_" horiz-adv-x="720" d="M-37 32q0 26 12.5 45.5t34.5 19.5q62 3 150.5 2t150 -3t150 -5t150.5 -4q20 0 36 -18t16 -37q-2 -14 -10.5 -25.5t-19.5 -18t-22 -6.5q-45 2 -111 4t-243.5 5.5t-243.5 -1.5q-50 0 -50 42z" />
<glyph unicode="`" horiz-adv-x="478" d="M95 1903q-23 35 2 73q17 14 40 13t36 -18q89 -92 260 -240q20 -12 20 -43q0 -21 -13 -34q-32 -32 -73 -5q-133 107 -272 254z" />
<glyph unicode="a" horiz-adv-x="848" d="M-131 545q0 101 29 200q66 253 210 340q35 22 66 22q39 0 73 -34q10 -6 18 -17.5t8 -22.5q2 1 7 3t18 6t25 5.5t25.5 -0.5t21.5 -9q28 -28 36 -63q11 -46 11 -79q0 -16 1.5 -44t1.5 -44q0 -59 2 -85v-105q0 -208 -2 -313q-1 -21 -1 -45t0.5 -53.5t0.5 -46.5v-73 q0 -19 5 -40l8 -12q0 -1 4.5 4.5t9.5 14t10.5 17.5t8.5 15l4 6q27 64 65 158l50 125l148 370q0 3 9 23.5t17 38.5l9 19q6 12 19 16t31 -1q9 -5 13.5 -8t8.5 -9q3 -4 3 -9q0 -8 -7 -24q-23 -58 -23 -60l-77 -183l-78 -197q-74 -199 -97 -249q-35 -91 -81 -162 q-27 -37 -67 -37q-5 1 -11 1q-48 6 -69 54q-8 15 -15 32t-11.5 30t-8.5 32.5t-6.5 30t-5 33t-3 30.5t-3 34.5t-2.5 31.5q0 4 -1.5 15t-1.5 16q0 9 -5 40q-8 71 -8 150v87q0 140 3 211v52q-9 -25 -19.5 -50t-23 -52.5t-21.5 -46t-24.5 -51t-21.5 -45.5l-32 -68 q-2 -3 -7 -12.5t-11.5 -22t-12.5 -20.5q-1 -2 -3 -5t-8.5 -11.5t-13.5 -16t-17.5 -17t-20.5 -16.5t-22.5 -11.5t-24.5 -4.5q-30 -4 -56.5 16.5t-38.5 56.5q-18 62 -18 139zM26 483q7 5 29 33q15 29 38.5 77t73 161t71.5 184q3 22 17 58q-11 -10 -30 -10q-23 3 -40 -9.5 t-35 -38.5q-21 -32 -45 -83q-30 -53 -37 -90q-39 -146 -39 -252q0 -27 -3 -30z" />
<glyph unicode="b" horiz-adv-x="864" d="M-4556 1738q9 17 25 25t31 1q408 -218 948 -218q175 0 352.5 23.5t336.5 65.5t299 101q152 59 273 155q26 123 105 272q30 49 68 76q32 25 74 25q23 0 48 -7q22 -11 50 -44q11 -19 11 -43q0 -20 -8 -44l3 3q-9 -32 -35.5 -68t-51.5 -61t-65 -60l-7 -8l-45 -44 q-14 -89 -19 -287q-6 -155 -13 -548q0 -20 -1.5 -58.5t-1.5 -56.5q0 -59 2 -119t6 -153.5t5 -120.5q0 -75 -2 -112q-3 -16 -3 -40q24 76 35 97q34 76 55 113q28 52 57 82q30 31 43 41q22 12 51 12q6 0 13 -1q37 -3 61 -21h-3q76 -63 108 -173q7 -21 13 -90q0 -41 -5 -88 l32 36l70 99q12 17 41 54.5t44.5 59t39 56t44.5 70t41 75.5l3 5q6 13 12.5 19t14.5 5t12 -2.5t13 -5.5l13 -10q5 -8 7 -18q1 -4 0 -7q0 -5 -1 -10q-2 -8 -4 -13.5t-5 -9.5q-53 -126 -193 -313.5t-213 -252.5l-19 -19l-50 -102q-20 -40 -62 -110l-18 -29q-2 -3 -7 -9.5 t-9.5 -12t-5.5 -7.5q-10 -19 -33 -33l2 5q-21 -21 -39 -25q-62 -12 -118 -12l-18 2q-17 4 -28.5 30t-3.5 42v-3q19 43 37 58l91 99l50 44q38 38 60 103q37 104 37 225q0 31 -2 63q-4 52 -58 102q-12 4 -13 3l-5 -3q-1 -1 -8 -10.5t-14.5 -21t-9.5 -15.5q-13 -22 -50 -105 q-39 -98 -60 -238v-23l-8 -37q-10 -64 -24 -108q-4 -11 -19.5 -20t-29.5 -9q-10 5 -21 16l-18 21q-20 34 -27 65q-58 167 -58 325q0 57 -8 147q-1 25 -4 65.5t-3 50.5q-3 52 -3 177q0 122 5 177q3 45 3 168q6 263 13 338q0 10 2.5 33t2.5 32q5 86 14 139q-111 -73 -225 -116 q-223 -92 -487.5 -144t-522.5 -54q-282 0 -534.5 57.5t-456.5 169.5h3q-24 11 -24 45zM-2113 2019q49 44 76 80q24 32 24 61v6q-11 5 -13 5h-2q-30 0 -64 -92l-5 -13q-11 -24 -16 -47zM-2063 0l2 -3l25 26q-27 0 -27 -23z" />
<glyph unicode="c" horiz-adv-x="651" d="M-97 420q-12 120 -12 229q0 184 33 339q30 142 108 192q34 20 70 24q8 1 16 1q28 0 55 -12q53 -30 82 -115q6 -15 2 -33.5t-19 -24.5q-24 -18 -55 13q-2 3 -4.5 10.5t-5.5 9.5q-5 6 -10 0q-9 -6 -21 -30q-75 -173 -79 -428q0 -165 21 -317q6 -42 9 -59t13 -49t25 -55 q7 -12 21.5 -9t30.5 14t35 30q50 46 167 262t200 419q9 9 24 12.5t34 -2.5q15 -15 15 -41q-73 -191 -182.5 -394t-173.5 -283q-5 -5 -20 -23.5t-27 -30t-27 -22.5q-5 -7 -15.5 -15t-18.5 -12t-24 -11.5t-18 -8.5q-20 -10 -40 -10q-78 0 -147 152q-45 118 -62 278z" />
<glyph unicode="d" horiz-adv-x="1066" d="M-47 630q-4 35 -4 68q-1 108 43 198q56 116 181 215q70 53 189 79q10 6 13 11q5 10 8 18q36 95 47 139q47 176 73 367l8 76q29 223 29 412v73q-12 11 -23 23t-23.5 26.5t-19 22t-21 26t-18.5 22.5q-55 80 -75 150q-6 16 -6 32.5t6 32.5v7.5t1 6l2 5t2 4.5t2.5 4.5t3 4 t3.5 4.5t4 4q20 27 73 41q7 2 15 2h8q12 -2 25 -7.5t25.5 -13t23.5 -17.5q40 -35 57 -79q62 -140 82 -330q114 -91 283 -160q216 -90 470 -140.5t518 -50.5q539 0 944 218q23 13 47 -11l8 -7q4 -5 4 -11q1 -6 -3 -14q-6 -16 -19 -30q-415 -221 -993 -221q-173 0 -347 22.5 t-341.5 65.5t-319.5 106q-131 56 -246 134v-34q0 -79 -16 -273q-2 -18 -6.5 -105.5t-8.5 -185t-7.5 -179.5t-3.5 -91q-23 -323 -27 -422q-5 -108 -10 -302l-2 -176q-3 -13 -0.5 -44.5t6 -63.5t16.5 -52t33 -12q-4 0 5 5l7 5q91 109 163.5 233t149.5 284l34 75q4 11 13 16.5 t16 6.5t21 1q25 -18 25 -38q0 -11 -7 -23l-34 -83q-136 -291 -283 -493q-3 -5 -23 -30t-32 -35q-5 -6 -14.5 -14t-37 -22t-53.5 -14q-21 0 -37.5 6t-29 18.5t-19 21.5t-16.5 26l-3 6q-48 95 -73 273q-9 104 -9 209q0 35 1 71v176q0 149 8 212l-50 -151q-26 -76 -38.5 -111 t-42.5 -97.5t-64 -108.5l-83 -108q-29 -40 -86 -40h-11q-26 0 -55 25q-52 55 -55 110zM130 709.5q0 -9.5 1.5 -16.5t4.5 -12q3 -3 9 -3q11 0 33 12q84 135 142 293q13 55 18 81q-1 0 -3.5 2t-4.5 2q-17 -2 -41 -18.5t-39 -34.5q-61 -60 -93 -168q-1 -4 -4.5 -16.5t-5 -19.5 t-5 -20.5t-5.5 -22t-4 -20.5t-2.5 -20.5t-0.5 -18zM430 2589q0 -5 5 -15q5 -16 13.5 -34t16 -30.5t19.5 -31.5t16 -27q16 -20 14 -20l13 -14v2q-11 68 -19 85q0 1 -3 11t-8.5 25t-12.5 30t-16 26t-17 13q-15 0 -21 -20z" />
<glyph unicode="e" horiz-adv-x="636" d="M-87 648q-1 22 -1 44q0 144 46 276q15 33 37 60q38 38 91 38q13 0 27 -2q14 0 67 -16q34 -14 48 -30l-3 2q43 -49 43 -105q0 -24 -8 -50q-8 -22 -35 -60q-44 -44 -85 -47q-16 -5 -40 -5q-3 -103 -3 -140q0 -75 3 -113q0 -65 15 -207q0 -6 1.5 -15t1.5 -10 q11 -168 42 -203l13 -13l5 5t6 6.5t6.5 7t6.5 7t5.5 6t3.5 4.5l1 2l23 38q11 18 25 41t25.5 41t17.5 31l45 82l69 130v-2q43 84 165 369q6 14 22 20.5t33 0.5l3 -3q11 -8 13 -24q1 -5 1 -9q0 -10 -4 -17q-115 -283 -165 -380l-82 -161q-84 -142 -110 -187q-37 -63 -55 -86 q-32 -38 -73 -38q-20 0 -42 9q-35 17 -50 29q-41 33 -63 91q-11 31 -31 105q-34 206 -42 293q-16 153 -19 185zM123 905q9 -37 17 -42h5q25 13 31 37q1 5 2 11q0 18 -15 35q-3 1 -5 2l-5 2.5t-4 1.5t-2 -1q-8 3 -16 -5q-2 -3 -3.5 -7.5t-3.5 -15.5q-1 -7 -1 -13v-5z" />
<glyph unicode="f" horiz-adv-x="541" d="M-4509 1699q3 13 19 19.5t33 0.5q392 -216 950 -216q251 0 509 50.5t474 134.5q173 77 283 160q38 208 100 318q27 49 65 75q35 23 76 23q23 0 47 -7q34 -23 45 -41q13 -13 17 -37q2 -12 2 -24q0 -52 -45 -108q-23 -37 -55.5 -73.5t-50.5 -54t-66 -60.5q-12 -89 -18 -263 q0 -6 -5 -80q-7 -108 -12 -276q-6 -100 -11 -272l-9 -276q0 -21 -3.5 -153t-3.5 -159q-1 -18 -1.5 -37t0 -37.5t0.5 -35.5t0.5 -37t0.5 -36q0 -20 1 -61t1 -60q0 -4 3 -8.5t5 -4.5q4 2 9 10l36 52q132 201 330 573q20 61 47 107l8 15q4 14 19.5 20.5t32.5 0.5l8 -8 q12 -21 12 -34q0 -7 -3 -11q-32 -94 -47 -120q-74 -159 -176 -325l-58 -102q-108 -201 -212 -317q-14 -14 -14 -16q-5 -18 -5 -43.5t10 -44.5l32 -48q9 -8 23 -42q5 -35 14 -56q1 -3 1 0q0 1 -1 3q13 -55 13 -180q-3 -149 -42 -344v-5q-10 -90 -10 -105q-3 -71 -13 -199 q-4 -70 -63 -125q-7 -5 -19 -5q-11 0 -25 4q-31 8 -40 26q-10 18 -23 50q-40 163 -40 443v150q-4 62 -4 108q0 30 2 54q0 27 5 73q6 49 6 95q0 17 -1 33q-1 3 -1 7q-8 56 -27 83q-9 24 -9 29q-2 16 4.5 34t19.5 29q5 5 5 18q0 16 1.5 47.5t1.5 47.5q0 71 2 97q5 88 10 259 t6 187q5 211 8 300t11.5 265.5t21.5 316t33 273.5q-26 -19 -53 -35.5t-59 -32.5t-55.5 -27.5t-64.5 -29.5q-229 -93 -492 -144t-522 -53q-180 0 -356.5 26.5t-337 77.5t-296.5 124q-10 9 -13 27t5 28zM-2190 -680v-46t1 -52t3 -48q12 58 20 165.5t8 157.5q0 136 -10 173 q-10 -34 -15.5 -141.5t-5.5 -154.5q0 -1 -0.5 -17t-0.5 -37zM-2079 1992q42 41 83 100l20 32l5 11t5 17q0 7 -6.5 13t-11.5 6h-2l-18 -7q-10 -7 -19 -23t-14.5 -27t-13.5 -30q0 -2 -2 -9.5t-5.5 -18.5t-7 -22.5t-7.5 -23.5z" />
<glyph unicode="g" horiz-adv-x="1031" d="M-105 681q0 80 24.5 170t57.5 158q15 31 42 68t63.5 74.5t78.5 65t86 39.5q20 5 39 5q24 0 47 -8v3q7 -3 13 2h-3l14 23q1 1 3 3.5t7 8t13 13.5q25 24 40 30q23 11 42 11q9 0 18 -3q26 -8 40 -38l7 -13q9 -22 11.5 -43t-4 -47t-10.5 -38.5t-16 -41.5q-2 -11 -13 -32v-38 l-5 -140q-5 -90 -5 -135q-5 -151 -5 -220q-3 -73 -3 -220v-138q0 -200 3 -300q3 -84 3 -290q3 3 7 11t7 16.5t3 9.5q46 124 133.5 348t151.5 386l65 162l55 138l63 150q4 9 18 12.5t29 -2.5q15 -8 21 -23q3 -7 3 -14.5t-3 -15.5l-38 -93q-52 -122 -75 -182 q-10 -25 -28 -69.5t-67.5 -168.5t-92.5 -233.5t-92 -235.5t-77 -204l-63 -210h3q-48 -156 -48 -288l-2 -200q-5 -135 -5 -197q-2 -41 -21 -235q0 -9 -2.5 -29t-2.5 -29q-7 -54 -12 -82t-19.5 -73t-36.5 -80q-12 -13 -43 -15h-8q-26 0 -38 12l-8 13q-35 130 -35 240 q0 90 8 132q31 189 40 264q3 30 23 187q9 41 14 107q0 25 5 45q8 71 8 138q0 65 -8 132q-1 15 -3 42.5t-3.5 50t-1.5 40.5q-5 174 -5 291q-4 189 -11 375v-3q-13 237 -13 436q-9 -9 -28 -48q-7 -10 -18.5 -25.5t-39 -46t-45.5 -40.5q-18 -15 -38 -25.5t-42.5 -17t-46 -4 t-43.5 15.5h3q-31 20 -43 41v-3q-42 65 -42 168zM73 690q-2 -28 -2 -47q0 -28 5 -35q10 -11 17.5 -13.5t14.5 0.5q39 24 86 96.5t68 118.5l21 45q11 42 17.5 132t6.5 124q-54 -27 -69 -52q-60 -76 -96 -154q-60 -122 -69 -215zM288 -1523l3 68q0 16 17 124t22 115 q1 -8 1 -30v-24q-1 -43 -3.5 -103t-2.5 -61q-2 -39 -2 -89q-3 -55 -16 -58q-16 18 -19 58z" />
<glyph unicode="h" horiz-adv-x="1079" d="M-4593 1541q8 16 30.5 21t30.5 -4l-3 5q405 -218 946 -218q251 0 510 52.5t475 138.5q174 76 290 165q37 176 107 305q34 50 63 73h-3q32 27 76 27q22 0 47 -7q26 -9 58 -46q4 -11 8 -34q3 -23 -6 -63q-21 -62 -80 -132q-53 -59 -127 -125q-6 -46 -9.5 -102t-6.5 -132 t-4 -97q0 -7 -2.5 -53t-2.5 -62q-8 -269 -8 -440q0 -26 1 -69.5t1 -62.5v-181q30 71 55 116l16 24q33 58 99 88q38 17 76 18q28 0 55 -10q15 -6 31 -20t22 -29q33 -54 33 -160q0 -17 -1 -34v-200q5 -197 5 -616v-238q191 456 285 671q18 40 54.5 128.5t64.5 156.5l28 68 q123 300 149 365q6 12 20 15.5t27 -2.5q19 -9 23 -25q2 -6 1 -12q0 -9 -5 -16v3q-15 -43 -51 -132.5t-65 -157.5l-28 -68q-92 -240 -145 -355q-169 -388 -295 -710q-4 -9 -13 -23.5t-17 -24.5l-8 -10q-15 -22 -50 -41q-14 -5 -26 -6h-3q-10 1 -18 9q-9 10 -15.5 19.5 t-11 26.5t-7.5 32t-4.5 33.5t-2 31.5t-0.5 27l-2 97q-18 354 -38 616l-5 68q-5 46 -5 73q0 56 -15 181q-5 92 -27 134l-5.5 5.5t-13 4t-16.5 -9.5q-75 -104 -107 -223l-18 -73q-5 -15 -10 -45.5t-5 -33.5q0 -5 -3.5 -18t-6.5 -24l-3 -11q-3 -10 -12.5 -17.5t-21 -11.5 t-21.5 -4q-6 -1 -12 -1q-64 0 -85 71l-16 105l-9 90q-1 22 -1 49q0 54 4 131q1 102 5 260t8.5 273t5.5 120q8 223 23 343q-97 -68 -238 -125h2q-150 -64 -317.5 -108t-343 -67t-351.5 -23q-577 0 -991 226h3q-7 3 -11.5 7.5t-6.5 11.5t-2.5 12.5t-0.5 15.5zM-2144 1830 q26 29 38 46q56 57 72 108q1 22 -17 29h-2l-16 -5q-9 -6 -17.5 -20.5t-14 -25.5t-12.5 -28q0 -2 -2.5 -10t-2.5 -10q-16 -45 -26 -84z" />
<glyph unicode="i" horiz-adv-x="523" d="M-102 425v36q-1 23 -1 51q0 92 8 233q0 15 5.5 65t8.5 60q1 2 5 9.5t5.5 9.5t5.5 7.5t7 8t8.5 7t12 7.5t14.5 6q21 5 44 -0.5t37 -25.5q10 -17 12 -88v-42q0 -38 -2 -56q-8 -165 -8 -210q0 -117 17 -193.5t54 -76.5q18 19 41.5 50.5t34.5 54.5q16 26 31 53.5t25 46 t30 57.5t28 55t37.5 74.5t42.5 83.5q36 74 52 115q10 10 25 14t25 -1l8 -5q12 -16 12 -38q0 -5 -1 -10l-45 -107q-71 -157 -207 -388q-11 -19 -60 -93q-5 -7 -13 -18t-29.5 -32.5t-39.5 -29.5q-23 -9 -47 -15q-16 -4 -33 -4q-10 0 -20 1q-29 3 -48 21q-27 24 -44.5 60 t-25 85t-9.5 80t-3 82zM-75 1074q-4 14 -4 28q0 17 6 33q11 21 29.5 35.5t40.5 14.5q24 0 42.5 -12.5t25.5 -37.5q3 -7 5 -19q2 -10 2 -26v-8q0 -20 -9 -34q-11 -28 -45 -35q-10 -2 -19 -2q-22 0 -39 12q-26 19 -35 51z" />
<glyph unicode="j" horiz-adv-x="768" d="M-73 781q0 4 10 34l21 53q36 114 77 191q96 199 153 307v-3q10 24 48.5 24.5t54.5 -21.5q24 -42 29 -95q0 -1 3 -54.5t6.5 -112t3.5 -74.5q0 -93 -10 -267q-11 -156 -11 -233q-2 -70 -2 -215v-562l148 415q95 252 113 302q47 127 139 350q7 16 28.5 18t32.5 -7 q7 -6 11 -22q1 -7 1 -14t-2 -12l-50 -120l-88 -218l-75 -202l-208 -615q-3 -12 -8.5 -28t-10.5 -31.5t-8 -29.5q-41 -124 -45 -281q-5 -269 -10 -398q-3 -75 -21 -226q-7 -82 -7 -84q-4 -34 -7.5 -58.5t-10.5 -55.5t-18.5 -57.5t-27.5 -48.5q-12 -18 -42 -18h-4 q-32 1 -45 24l-14 10q-34 140 -34 238q0 54 13 128q5 25 11.5 62.5t11.5 74t9.5 70.5t7 55t2.5 22q3 19 7 52.5t8 61t8 52.5q4 18 8 54.5t6.5 66t2.5 36.5q8 71 8 136q0 67 -8 142q-1 12 -5 56t-4 67q0 44 -1 143.5t-1 144.5q-6 345 -6 495q0 57 1.5 173.5t1.5 175.5 q0 75 -13 154q-25 -48 -80 -168l-22 -52l-23 -50q-17 -8 -26.5 -10t-12 -0.5t-6.5 7.5t-8 9q-10 8 -10 39zM131 -1386q0 29 2.5 62t2.5 36l19 105l10 -83q0 -6 0.5 -32.5t0 -40.5t-1.5 -33.5t-4.5 -29.5t-9.5 -11l-7 -1q-9 4 -12 28zM176 1528q-4 13 -4 27q0 21 8 44 q6 15 24 26t39 11q48 0 67 -37l13 -39q0 -48 -13 -64l2 3q-11 -28 -44 -37q-12 -3 -22 -3q-20 0 -36 12v2q-26 23 -34 55z" />
<glyph unicode="k" horiz-adv-x="901" d="M-4509 1664q6 14 21.5 21.5t30.5 0.5q408 -218 952 -218q249 0 509 52t477 136q181 81 273 158q32 166 110 307q25 42 68 73q40 25 78 25q19 0 37 -6q5 -1 11 -4t12 -7.5t12 -9.5t11 -12t9 -14q13 -17 13 -32q1 -8 1 -16q0 -25 -9 -50q-22 -67 -86 -136 q-61 -70 -120 -118q-12 -82 -17 -256q0 -20 -2.5 -61t-2.5 -61q0 -24 -1.5 -61.5t-1.5 -53.5v-108q-4 -99 -20 -320l50 55q68 68 118 80q8 1 16 1q34 0 56.5 -21.5t22.5 -55.5q0 -7 -1 -16q-7 -28 -29 -84q-13 -27 -55 -97q-6 -7 -16.5 -17.5t-19 -20t-14.5 -17.5l-42 -47 l-36 -45q-1 -2 -2.5 -6t-4.5 -15.5t-4 -22t1 -23t7 -21.5q37 -60 84 -160l7 -17q58 -121 118 -328q2 -5 11 -35.5t11.5 -39.5t10.5 -35t12.5 -38.5t11.5 -33t13.5 -37t13.5 -32.5q25 -64 30 -79q1 -2 3 -4.5t7 -6t8 5.5l8 24q73 209 107 311q15 53 71.5 223.5t59.5 178.5 q32 84 47 139q60 189 95 264q4 8 6 11.5t5.5 8t7.5 5.5t10.5 1t14.5 -2q29 -8 29 -49q-40 -104 -58 -158l-78 -249q-8 -23 -34.5 -101t-56 -169.5t-41.5 -132.5q-84 -276 -107 -328l-13 -32q-5 -10 -15.5 -24.5t-18.5 -23.5l-8 -10q-25 -26 -50 -26q-78 0 -156 256v3 q-4 13 -6 17q-32 117 -84 275q-57 173 -140 296q0 1 -2.5 2.5t-3.5 2.5t-1 3q0 -163 2 -244q0 -6 -7 -29q0 -2 -0.5 -5.5t-3 -12t-7.5 -14.5t-16.5 -9.5t-27.5 -0.5q-38 2 -70 29t-38 60q0 2 -2.5 20.5t-2.5 27.5q0 247 5 367q9 185 13 317q1 21 3.5 99t4 104.5t4.5 96 t5.5 104.5t7 96.5t9 104t11 95.5t14.5 102q-99 -66 -227 -118q-226 -95 -486 -145t-523 -52q-282 0 -534.5 57.5t-455.5 168.5l5 -2q-13 7 -19.5 27.5t1.5 29.5zM-2076 1943l40 41q59 68 75 113q1 1 1.5 3t0.5 7t-1 9.5t-6 8t-13 4.5q-10 -1 -26.5 -25t-27.5 -47l-11 -23 q-5 -14 -24 -58q0 -1 -4 -16.5t-4 -16.5zM-2063 836q1 3 4.5 9.5t5 9.5t4.5 8.5t5.5 9.5t5.5 9.5t6.5 10t7.5 10t8.5 11t9.5 11.5q1 1 3 2.5t7.5 3.5t10 2t8.5 -3.5t6 -11.5q-1 -5 -3.5 -10.5t-6 -10.5t-8 -10.5t-9 -9.5t-8 -7.5t-5.5 -4.5l-2 -2q-10 -8 -22.5 -15t-19.5 -9 z" />
<glyph unicode="l" horiz-adv-x="605" d="M-4582 1656q9 16 31 21.5t31 -4.5l-5 8q408 -218 950 -218q169 0 348.5 25t337.5 66.5t300 96.5q173 76 282 160q26 146 111 310q17 36 65 73q42 26 80 26q20 0 38 -7q36 -8 52 -40q15 -25 15 -39q1 -8 1 -16q0 -23 -8 -52q-25 -74 -94 -142q-71 -77 -114 -110 q0 -2 -4.5 -55.5t-9 -118t-4.5 -91.5v-65q-5 -185 -5 -271q8 -232 8 -487v-110q-3 -55 -3 -163q0 -95 0.5 -135.5t2.5 -127t7.5 -128.5t14.5 -47q3 1 6 1.5t3.5 0.5t2 1t2.5 1.5t4 3.5q42 66 97 157t68 111l45 81q11 21 30 56t37.5 70t35.5 67t27 52l10 20q42 90 82 183 q1 2 3 3.5t8 5t12 6t15 2.5t17 -4q7 -4 10.5 -10.5t3.5 -13.5t-0.5 -12.5t-1.5 -9.5l-1 -4q-70 -173 -90 -212l-99 -183q-35 -58 -71 -133q-63 -112 -128 -218l-25 -40q-2 -3 -6 -10.5t-6.5 -11.5t-7 -10.5t-8 -11.5t-8 -11t-9 -11.5t-10.5 -11.5q-16 -23 -37 -37.5 t-47 -18.5q-5 -1 -11 -1q-21 0 -43 13q-56 29 -82 90q-18 38 -23 108q-10 169 -10 262q0 19 1.5 57t1.5 59q0 22 1 67t1 67v427v136q0 134 0.5 195.5t7.5 170t20 192.5q-99 -69 -235 -125q-147 -61 -315.5 -105t-345 -67.5t-348.5 -24.5q-272 0 -526.5 59.5t-461.5 169.5 q-13 3 -18.5 17t-5.5 26zM-2134 1948l26 26q59 59 82 112q0 2 1 10t1 13t-3.5 11t-11.5 9q-5 0 -10 -2t-10 -7.5t-8.5 -11t-8 -14.5t-7.5 -15.5t-7 -16.5t-7 -15q-29 -64 -37 -99z" />
<glyph unicode="m" horiz-adv-x="1703" d="M-81 756q0 8 5 20q49 118 84 172l7 15q28 36 61 49q37 16 52 16q38 0 74 -32v2q49 -48 60 -99l13 -66l16 -97l14 -78l48 92l45 86l45 84q23 41 42.5 66.5t49.5 49.5l26 17q31 19 61 19q25 0 49 -13q46 -30 74 -76q30 -78 41 -128l5 -55q91 202 213 383q74 110 165 185 l21 21q20 6 34 6q31 0 50 -24q11 -16 16 -26q13 -49 13 -115l-17 -357q-4 -47 -25 -373q-8 -112 -9 -175q0 -12 1 -23q5 -57 23 -66q4 -3 7.5 -4t6.5 0t6 2.5t6.5 3.5t5.5 3q10 8 24.5 25t23.5 30l10 14q4 6 25.5 42t55.5 94t69 121.5t71 133t59 119.5l13 30q13 19 19 21 t28 -6q18 -7 24 -25q3 -10 3 -19q0 -7 -2 -13l-35 -63q-62 -125 -193 -352q-99 -168 -122 -191q-39 -56 -93 -62h-7q-29 0 -54 14q-28 16 -42 43l-7 10q-19 30 -30 65t-15 82t-4.5 69t-0.5 75q-1 19 -1 46q1 73 5 203q6 177 11 262q6 99 10 137q1 2 3.5 18.5t3.5 27t0 26 t-7 25.5q-7 2 -18.5 -11.5t-36 -51t-28.5 -42.5q-151 -223 -244 -457l-18 -65q-4 -23 -20 -60q-3 -7 -6.5 -11t-8 -8.5t-8.5 -9.5q-24 -19 -39 -19q-32 0 -48 27q-10 7 -10 28q-8 76 -28 213l-24 129q-12 52 -41 52q-5 3 -17 -3q-9 -9 -45 -63l-55 -110l-36 -68 q-29 -52 -52 -108l-60 -110q-7 -12 -25 -20t-33 -8q-22 0 -32 5q-27 21 -40 34q-23 36 -23 65q-5 25 -5 59l-2 46q-5 51 -5 119q-3 52 -3 63q-5 35 -19 60q-1 0 -4.5 3.5t-7 5t-10 0t-14.5 -8.5l-19 -25q-58 -101 -76 -151q-24 -24 -50 -16q-2 2 -10 8q-8 4 -10 8 q-4 4 -3 14z" />
<glyph unicode="n" horiz-adv-x="1191" d="M-76 503v16q0 53 11 124q1 5 30 133q-11 8 -20 29l5 31q15 58 45 84q16 19 42 19q9 -1 19 -3q38 -8 52 -43q12 -28 12 -57q1 -18 1 -36t-0.5 -39t-0.5 -33v-85q0 -6 -0.5 -18t-0.5 -22.5t1 -20.5q50 124 121 209q32 42 42 53q61 52 89 61q23 10 43 10q28 0 52 -19 q50 -47 78 -113q29 -66 43 -195q7 -75 7 -118q0 -21 -2 -72t-3.5 -96.5t-1.5 -51.5q-6 -73 -11 -224q-6 -170 -6 -206l6 -103q0 -17 11 -52q1 -3 5 -7.5t5 -6t3.5 -4t4.5 -3.5t5 -1q13 2 39 34q22 37 44 82t36.5 76.5t37.5 92t31 82t35 95.5t31 87q44 119 168 396 q90 195 107 240q6 12 20 15.5t28 -2.5q16 -7 20 -25q2 -7 2 -14q0 -9 -4 -16v2q-38 -110 -128 -300q-92 -188 -140 -323q-127 -363 -233 -543q-50 -83 -115 -83h-5q-29 2 -55.5 17t-44.5 38q-10 10 -24 44q-20 57 -37.5 180t-17.5 219v44v202v202q1 24 0 57t-3 65.5t-4.5 61 t-5.5 44.5q-6 72 -23 78q-16 11 -40 -13l-13 -10q-76 -93 -129 -223q-13 -25 -37.5 -137t-30.5 -130q-7 -24 -44.5 -30t-52.5 12q-20 18 -28 28q-62 91 -71 215z" />
<glyph unicode="o" horiz-adv-x="625" d="M-100 522q0 104 16 278q7 68 19 133l10 50q24 29 51 29h8q32 -4 48 -47q0 -3 1.5 -6.5t1.5 -4.5q10 39 32 61q23 29 61 29q18 0 38 -6l9 -2q47 -15 78 -73q37 -67 42 -185q46 -20 95 -30q41 -9 68 -8h10q10 1 18 4t19.5 11.5t22 27t18.5 45.5q6 12 9 15t11.5 3.5 t24.5 -5.5q24 -13 24 -35q0 -7 -3 -15q-9 -33 -26 -58.5t-37.5 -39.5t-37 -21t-31.5 -9q-10 -1 -23 -1q-24 0 -58 4q-52 8 -104 26q-2 -29 -17 -121q0 -11 -1 -20.5t-1 -10.5q-28 -231 -101 -377q-12 -23 -25.5 -45.5t-35.5 -48.5q-24 -27 -46 -39q-14 -8 -30 -8 q-10 0 -20 3q-28 7 -51 40q-3 5 -8.5 15.5t-9.5 18.5l-4 9q-60 142 -65 414zM45 353q0 -64 13 -143l5 -40q0 -9 7 -20q1 -1 2 -2.5t2.5 -3.5t3.5 -3q4 -1 6 -2q1 -1 2 -1l2 1l6 3t7 6.5t7 11.5l17 35q10 17 18.5 36t15 34.5t13 37t10.5 34.5t8.5 37t6.5 33.5t6 36.5t5 33.5 t5 36t5 34.5q0 16 5 37q13 79 13 130v13q-58 29 -101 64.5t-62 72.5q2 -38 2 -71q0 -66 -7 -113q-19 -153 -23 -328zM131 939q0 -10 5 -19l9 -12q16 -31 34.5 -50.5t56.5 -42.5q-9 70 -31 110q-2 3 -6.5 9.5t-6 9t-5 7.5t-5.5 6.5t-5 4.5t-6 4l-6 2h-13q-7 0 -12 -5 q-9 -9 -9 -24z" />
<glyph unicode="p" horiz-adv-x="1233" d="M-69 745q-3 7 -3 15q0 9 4 18q89 202 133 290q22 52 30 62q36 115 91 204q10 24 47 24q29 0 52 -27l25 -38q23 -94 23 -190q0 -39 -13 -183q-5 -49 -10 -144q-8 -188 -8 -393q0 -91 3 -136q3 11 9 38.5t11 44.5q15 59 45 137q82 224 152 328l73 107q26 31 47.5 44.5 t49.5 13.5q27 0 56 -22q25 -17 46.5 -47.5t31.5 -62.5q39 -156 39 -240v-32q0 -8 0.5 -29t0 -31t-1 -29.5t-1.5 -32.5t-3 -29.5t-5 -32.5l58 53q58 57 116 135.5t97.5 147.5t58.5 120q4 12 18.5 15.5t31.5 -2.5h-2q11 -8 16 -25q2 -8 2 -15q0 -8 -3 -13l-8 -17 q-34 -102 -105 -207.5t-170 -198.5q-210 -193 -307 -208h-45q-28 0 -52 11q-62 26 -146 100l-14 -40q-77 -221 -103 -309q-15 -47 -15 -480q-3 -139 -3 -179q0 -86 -2.5 -125.5t-2.5 -120.5q-2 -70 -20 -244l-3 -31q-10 -79 -24.5 -130t-34.5 -78t-46 -27h-5q-2 -1 -3.5 -1 t-2.5 1q-2 0 -5 0.5t-6.5 2t-6.5 4.5q-6 5 -11.5 10.5t-10 12.5t-8 14t-6.5 16t-5.5 16t-4.5 16.5t-3.5 15.5t-3 15t-2.5 12q-8 45 -8 121q0 68 10 121q23 106 37 243q2 28 9.5 74.5t8.5 53.5l16 143q6 105 6 128q0 21 -1 62t-1 62l-7 225q-5 292 -10 440q-3 43 -3 66 q0 22 -3 121.5t-4 113.5q-8 196 -8 220q0 55 5 150q-11 -25 -105 -238q-26 -22 -50 -19q-18 3 -24 19zM125 -1211q2 8 2 19v28t1 34q1 30 13 80t11 57q23 -55 34 -121q-1 -11 -0.5 -36t-2.5 -56q0 -3 -0.5 -11t-1 -11.5t-2.5 -9.5t-4.5 -9.5t-7.5 -7t-12 -6.5 q-9 2 -16.5 14.5t-10.5 24.5zM456 408q0 -20 2 -25q40 -70 105 -98q16 -5 19 -5q17 0 26 22q10 33 15 51q37 140 55 265l9 158q0 14 -2.5 24.5t-5.5 15l-3 4.5q-35 -2 -120 -154l-73 -158q-2 -3 -6 -14t-5.5 -15.5t-5 -14t-4.5 -15t-3 -13t-2.5 -14.5t-0.5 -14z" />
<glyph unicode="q" horiz-adv-x="943" d="M-152 548q0 55 5 78q9 48 17 83.5t21.5 87t29.5 92t38 83.5t51 77.5t63 58.5q32 21 62 21q43 0 83 -44q7 -11 15 -29v-8q16 25 44 27t51 -22q3 -2 6 -6t5 -7t4.5 -8t4 -8.5t3.5 -9.5l3 -9t3 -10t3 -9q6 -27 10 -81v-42q-8 -212 -8 -283q1 -9 1 -83.5v-143.5l-1 -70 q5 -184 5 -298v-11h5q11 6 16 16l27 39q170 254 335 584l50 100l52 105q6 13 21.5 19.5t25.5 0.5q12 -5 17 -10q7 -6 7 -9t-1 -11q-2 -10 -2 -17q-40 -101 -52 -123l-48 -93q-65 -128 -98.5 -191t-93 -166t-112.5 -183l-68 -105l-15 -22.5t-17.5 -25t-17 -22.5t-20.5 -25 l-8 -13q-6 -23 -6 -44q0 -15 3 -28q2 -8 8 -20q5 -9 17.5 -28.5t13.5 -21.5l6 -12t6.5 -12.5t6 -12.5t5 -14t3.5 -14.5t2 -17.5q0 -1 0.5 -4.5t1.5 -9t1 -11.5q-23 -193 -32 -442v-81q-10 -232 -16 -297q-2 -30 -18.5 -64t-43.5 -59q-10 -7 -23 -7q-10 0 -21 4q-29 7 -41 26 l-25 63q-18 63 -21 132q-1 25 -5.5 74.5t-5.5 72.5q-6 50 -6 154q0 19 -1 60t-1 61q0 1 -1 93v51q0 41 1 42q0 27 5 78q4 59 4 99q0 15 -1 28q-5 60 -29 90q-7 10 -7.5 26t5.5 29q3 10 18 25q13 29 13 45q0 8 1 22t1 19v37l9 220q1 25 2 70t2.5 83.5t3.5 71.5l7 150 q6 84 11 233q-17 -45 -53 -135t-64 -158l-28 -68q-41 -73 -55 -87q-37 -31 -68 -31q-10 0 -19 2q-38 13 -67 74q-21 93 -21 170zM3 488q0 -14 5 -25l12 25q95 234 175 435q2 6 6 16.5t9.5 33t4.5 33.5q-17 4 -22 4t-20 -4q-5 -2 -9.5 -4t-8.5 -5t-7 -5t-6.5 -6t-5 -5.5 t-5 -7t-4 -6.5t-4.5 -8t-5 -8q-4 -6 -11.5 -21t-12 -23t-10 -20.5t-8.5 -23.5q-17 -37 -31 -100q-14 -62 -21 -94t-14 -85t-7 -96zM330 -891q2 44 5.5 106.5t8 124t8.5 116t7.5 89t5.5 35.5l20 -2q-5 -90 -5 -116q0 -14 -5.5 -178t-7.5 -189q-5 -7 -7.5 -10t-7.5 -3v-1 q-4 0 -9 7t-13 21z" />
<glyph unicode="r" horiz-adv-x="775" d="M-183 1000v8q0 21 13 45q25 28 61 28q9 0 18 -2q48 -8 76 -43q18 -33 25 -48q12 -34 30 -52q15 -13 28 -23l24 -20q58 -50 88 -117q85 -169 85 -406q0 -38 -5 -123q-4 -55 -30 -252q-25 -185 -30 -270v-8l5 5q12 9 47.5 85t70.5 158q2 6 50 124.5t113.5 279t103.5 252.5 l81 210q4 9 18 12.5t32 -2.5q21 -14 21 -44q-71 -170 -84 -209q-40 -94 -105.5 -256.5t-111.5 -278.5l-45 -116q-59 -146 -86 -199l-12 -21q-2 -3 -6 -11q-7 -12 -11.5 -18.5t-12.5 -19.5t-14 -20t-15 -18t-16.5 -16.5t-17 -11.5t-17.5 -6q-2 0 -5 -1q-6 -1 -13 1 q-9 2 -18.5 9.5t-18.5 19.5l-2 3q-28 31 -31 60q-35 247 -35 580q0 66 2.5 197t2.5 198q0 9 1.5 31.5t0.5 39t-4 31.5q-32 53 -58 63q-19 8 -33 -2q-2 -2 -5.5 -10.5t-3.5 -10.5l-26 -60q-2 -2 -8.5 -7.5t-9.5 -7.5t-8 -4.5t-11 -2.5q-2 0 -6.5 2t-8.5 4.5t-5 3.5 q-13 9 -13 40q9 18 18 45l13 32q0 19 -13 36q-18 27 -21 29l-34 39q-15 21 -18 46zM-90 968h6l11 2q10 4 10 12q0 4 -2 9h-8q-4 0 -11 -8q-6 -5 -6 -15z" />
<glyph unicode="s" horiz-adv-x="696" d="M-125 718q10 47 44 105q29 59 49 79q14 17 64 62.5t55 47.5q7 6 17.5 12t21.5 11t23 9t22 6.5t17 2.5q6 1 13 1q17 0 35 -4q24 -6 47.5 -16.5t41.5 -24.5q46 -30 73 -78q1 -4 4 -12t4 -11t2.5 -11t-0.5 -11q-10 -31 -30 -34.5t-48 24.5l-45 49q-32 23 -42 29 q-27 15 -51 15q-12 0 -24 -4l-50 -27q-31 -20 -73 -62l-30 -48l-12 -33l-8 -42q0 -34 14 -69.5t38 -53.5q70 -49 98 -64l175 -115q1 0 13 -9.5t27 -21t20 -14.5q3 1 16 14l47 57q13 20 25 41.5t24 43.5t22.5 41t21.5 42.5t19 39.5t18.5 39.5t15.5 35t14.5 33.5t12.5 27 q18 19 28.5 21.5t21.5 -5.5q14 -8 20 -22q3 -7 3 -14q0 -8 -4 -17l-4 -5q-38 -110 -72.5 -178t-100.5 -175q-24 -37 -55 -72l-28 -38q0 -32 -5 -47q-2 -11 -19 -45q-19 -33 -36 -50q-90 -82 -145 -108l-45 -20l-20 -8q-34 -15 -60 -15q-21 0 -37 10q-15 15 -20 34t2 34 q9 25 27 52t35 43l126 112l-53 23q-48 17 -75 27.5t-64 29t-64 42t-48 54.5q-34 51 -48 113q-7 33 -7 66q0 28 6 56zM186 136q80 41 126 94q15 15 21 30q-1 0 -3 2.5t-2.5 2.5h-2.5l-89 -82z" />
<glyph unicode="t" horiz-adv-x="613" d="M-2144 1734q2 10 7 18.5t11 16.5q38 11 52 -13q52 -69 144 -101t207 -32q27 0 57 2t56.5 4.5t59.5 7t58 8.5t59.5 10t56 10t56.5 11t52 10q65 16 117 23q37 9 81 16q6 111 22 286q15 171 18 248q3 65 21 142q10 33 34 47q15 9 33 9q11 0 24 -3l48 -13q34 -34 42 -67 l-10 -93q-23 -129 -40 -357q-8 -64 -15 -165l185 37l100 23q173 37 272 57t252 47t279 43q2 0 23 4t25 4q192 23 309 23q22 0 41 -1q273 -8 303 -160v-6q0 -11 -6 -22q-8 -14 -20 -20q-20 0 -33.5 8.5t-13.5 24.5q-14 50 -92.5 75t-185.5 25q-109 0 -309 -28 q-3 0 -13.5 -2.5t-12.5 -2.5q-3 0 -136.5 -22.5t-322 -57t-296.5 -57.5l-131 -28q-36 -7 -109.5 -23t-116.5 -24q-16 -193 -21 -575q0 -264 -25 -778l-20 -388q-2 -16 -2 -32.5t2 -33.5q5 5 14 19t16 25l7 11q16 27 44.5 76.5t48.5 84t45 80t47.5 89.5t42.5 86q9 19 23 46 t27 53t21 44q105 215 155 340q22 22 49 13q5 -2 8.5 -5t5.5 -5t3.5 -5.5t2.5 -5.5t1 -6v-5.5t-1 -6t-1 -5.5t-1 -6l-2 -5q-53 -134 -151 -336l-69 -138q-24 -48 -71 -136.5t-82 -153.5l-35 -64q-70 -123 -90 -155q-53 -92 -81 -131q-16 -16 -27.5 -25.5t-29.5 -15.5 q-12 -4 -24 -5q-5 0 -11 1q-40 10 -57 68q-8 44 -8 105q0 28 2 60q19 731 55 1230q13 241 21 559l-68 -11q-90 -19 -115 -24q-289 -63 -470 -63q-137 0 -240 37t-168 126l-8 10q-5 4 -5 10q-1 2 0 5z" />
<glyph unicode="u" horiz-adv-x="968" d="M-78 645v18q0 82 10 132q0 4 8 24t8 22q20 46 52 67q15 10 42 0.5t39 -30.5q9 -27 9 -31v-84q-4 -35 -4 -60q0 -12 1 -22q0 -91 10 -168q12 -82 39 -101q7 -4 16 -4q32 13 62.5 47t45.5 67v-2q35 71 68 170q52 155 102 235q22 32 53 32h7q28 -10 49 -30t29 -39 q22 -85 22 -183q0 -38 -5 -117q-4 -63 -4 -105q0 -21 1 -38q1 -23 1 -48q-1 -13 -1 -27q0 -40 -1 -96t-1 -67q0 -53 2 -79l3 -70q2 -16 7 -29.5t11 -15.5q10 11 18 24q37 88 37 91q125 368 225 625l32 75q6 12 20 15.5t28 -2.5q24 -14 24 -31q0 -7 -4 -15l-3 -7l-20 -60 q-24 -62 -51.5 -137.5t-48.5 -134.5t-49.5 -141.5t-47.5 -136.5q-67 -181 -87 -218q-8 -16 -15 -26.5t-18 -23t-25.5 -19.5t-32.5 -9h-9q-18 0 -34 6q-19 8 -32 26.5t-20.5 33.5t-14.5 37v-3q-28 70 -32 143q-13 141 -13 297q-2 43 -2 139q0 67 2 99q5 59 5 93 q-7 -16 -17.5 -46t-17.5 -52l-7 -23q-7 -17 -19 -50t-21.5 -56.5t-17.5 -40.5q-27 -50 -80 -101t-108 -61q-23 -7 -44 -7q-46 0 -85 32q-58 43 -83 150q-13 59 -13 147z" />
<glyph unicode="v" horiz-adv-x="971" d="M-65 758q-1 6 -1 11q0 12 6 22q20 51 28 69l17 39q18 53 47 81q28 24 61.5 35.5t61.5 2.5l8 -3q17 -2 33 -16t24.5 -26.5t20.5 -34.5q26 -63 32 -97q20 -111 20 -293v-215q0 -39 5 -118q3 4 17 32l52 133l31 83l69 197l16 56q-3 4 -5.5 14.5t-5.5 14.5q-35 94 -35 178 q0 16 1 31q3 47 23 116q28 64 45 86q27 32 62 34h7q65 0 83 -105q3 -32 3 -60q1 -21 -1 -41q-4 -44 -23 -98q-14 -46 -62 -146l-9 -17q5 -5 13 -14t15 -16.5t17 -14.5q42 -25 97 -30q17 1 30.5 2.5t25 5.5t18.5 6t17 8.5t13.5 9t14 11.5t14.5 12q49 39 79 117q11 24 40 24 l20 -11q14 -18 14 -34q0 -4 -1 -8q-31 -90 -105 -154q-69 -51 -140 -69q-12 -5 -45 -5h-7q-25 0 -62 11q-42 13 -76 42q-11 8 -14.5 11.5t-8.5 7.5q-3 -6 -6.5 -21t-6.5 -21l-52 -153q-77 -212 -98 -262q-3 -12 -18.5 -49t-25.5 -53q-24 -36 -56 -50q-15 -7 -29 -7 q-15 0 -28 7q-32 14 -52 55q-25 70 -40.5 148t-21 126.5t-11.5 134.5q-9 155 -40 291q-8 16 -13 39l-32 -70q-12 -24 -23.5 -26t-26.5 9q-16 7 -20 25zM516 948q-2 -13 -1 -28q0 -38 10 -94l31 107q8 33 8 67q0 12 -1 25q-9 36 -18 39q-6 -7 -13 -26q-12 -48 -16 -90z" />
<glyph unicode="w" horiz-adv-x="1171" d="M-66 595v65l1 25q8 110 13.5 144.5t22.5 58.5l6 8q11 18 32 28t46 1q7 -3 9 -4.5t5 -5t9 -7.5q32 -58 32 -105q0 -38 -5 -173q-5 -141 -5 -167q8 -63 8 -128q0 -8 1 -23t1 -21q0 -27 5 -91q0 -46 18 -64q3 -8 17 -3q131 201 160 447q5 90 20 138q9 27 23 37q20 21 44 21 q7 0 15 -2q34 -8 51 -38q14 -20 18 -41t4 -52q0 -34 -5 -113q-8 -134 -8 -142q0 -145 44 -231l11 -24h8q12 18 23 37.5t23 47t19 43.5t19.5 52t16 45.5t16.5 50t14 42.5q4 15 22.5 72.5t19.5 64.5q39 119 45 185q-65 60 -72 115q0 42 17 66q2 3 4.5 6t5 5l5 4t5 3.5t4.5 2.5 l5 2.5t4.5 2t4.5 2t4 1.5q5 2 11 2q14 0 32 -10q15 -8 25 -19t15 -25.5t6.5 -23t2.5 -25t1 -17.5v-55q12 -7 36 -23t40 -26t27 -13q33 -17 79 -17q89 0 115 97q7 13 22 15t26 -5l7 -7q7 -9 9 -23v-7q0 -9 -4 -15l-5 -18q-23 -52 -62.5 -80t-76.5 -33q-14 -1 -28 -1 q-62 0 -119 22q-36 9 -79 42q-5 -27 -24.5 -98t-36.5 -129l-17 -58q-45 -185 -131 -325q-9 -15 -33 -43t-33 -28q-16 -7 -30 -7q-34 0 -64 35q-77 93 -111 260q0 10 -5 21q-43 -121 -112 -241q-3 -9 -15.5 -29t-24.5 -29l-28 -18q-10 -7 -27 -7q-6 0 -12 1q-24 3 -43 17 q-74 54 -102 140q-24 62 -29 130q-1 17 -3.5 105t-3.5 110q-1 30 -1 70zM728 905q1 1 2.5 7t4.5 9.5t7 3.5q7 0 13.5 -3.5t9.5 -7.5l3 -4q3 -5 10 -32q1 -4 1 -7.5v-6.5t-0.5 -5.5t-1 -4.5t-1 -3.5t-0.5 -2.5v-1q-13 8 -26 21q-22 22 -22 37z" />
<glyph unicode="x" horiz-adv-x="974" d="M-63 783l13 30q13 52 47 89q23 20 58 20q15 0 32 -4q93 -21 165 -118q71 -104 110 -284q3 -20 9.5 -56t8.5 -52l5 -33q2 1 4.5 3.5l5 5l5.5 5.5t4 5l2 2q43 57 96.5 151.5t92.5 179.5t45 120q2 26 2 51q0 56 -12 108q-2 11 2.5 24.5t15.5 22.5q13 13 28 13q8 0 16 -4 q26 -10 36 -34q7 -12 10.5 -27.5t3.5 -22.5v-30q0 -69 -50 -177q-113 -263 -215 -406l-10 -17q-19 -34 -26.5 -60t-7.5 -63q0 -42 18 -78q14 -14 24 -27q3 0 10.5 -4t14 -5.5t19 1.5t26.5 13l35 32q70 95 107 166l86 172q95 190 150 325q6 14 21.5 20.5t30.5 0.5 q15 -9 21 -23q3 -7 3 -14.5t-3 -15.5q-83 -199 -126 -275l-57 -110q-7 -11 -22 -40.5t-27 -53.5l-11 -24q-70 -127 -135 -198q-53 -62 -107 -82q-34 -8 -44 -8q-46 0 -82 18q-7 3 -14 7t-10.5 6.5t-9.5 7.5t-8 6l-26 23l-21 -25q-31 -63 -31 -145q0 -57 18 -118 q4 -9 17.5 -36.5t26.5 -53t16 -33.5q0 -5 0.5 -10t0.5 -7t-1 -5t-3 -7q-1 -2 -3 -4.5t-9 -8.5q-6 -5 -14 -8q-6 -3 -16 -3q-2 1 -3 1q-11 0 -22 8q-9 9 -13.5 17t-6.5 14t-3 8q-8 22 -24.5 59t-20.5 59q-13 70 -13 128q0 121 55 225q2 22 -2 49.5t-7 42t-15 55t-13 45.5 q-27 104 -35 141q-9 51 -35 140q-21 71 -47 121t-67 77l-11 -28l-12 -27q-25 -9 -31 -8t-22 14q-13 13 -13 41z" />
<glyph unicode="y" horiz-adv-x="988" d="M-73 718q0 37 13 155q8 48 8 81q0 62 -3 74q-5 14 10 40q8 12 16 18t29 15q24 8 48.5 4t46 -19t36.5 -38q24 -48 24 -88v-9q0 -12 -1 -25.5t-2 -24t-2.5 -25t-2.5 -24.5q-1 -9 -2 -22t-1.5 -26.5t-1.5 -27.5t-1.5 -26.5t-0.5 -22.5v-16v-6q0 -47 7 -62q3 -2 7 -7t8 -6 t13 0q118 33 168 70l17 364q0 30 10 47q1 2 4 5.5t12.5 11.5t19 14t22.5 10q9 2 18 2q5 0 10 -1h16q30 -9 48.5 -22.5t27.5 -39.5q10 -38 10 -53l-5 -200q-3 -166 -15 -371q-10 -136 -32 -334l-11 -104l-28 -339q-9 -108 -27 -175l-15 -73q-19 -110 -19 -123l14 33 q290 928 513 1468q4 9 12 15t18.5 8t22.5 -2l10 -8q13 -13 13 -29q0 -8 -3 -16q-74 -181 -158 -416.5t-137 -395.5t-149 -457q-21 -66 -32 -99q-8 -28 -63 -185q-2 -20 -8.5 -42.5t-10.5 -42.5q-19 -67 -23 -151q-1 -15 -2.5 -44t-2.5 -43q-8 -75 -8 -155q0 -100 10 -180 q1 -13 1 -26q0 -63 -27 -127q-9 -16 -34 -28q-16 -8 -28 -8q-8 0 -14 3q-11 1 -17.5 4.5t-8.5 6t-11 15.5q-10 17 -15 50q-3 10 -3 34l5 65q1 15 2 43t2 50t4 41l1 30q2 19 8 65l6 52q3 248 5 306q-2 47 -2 94t2 95q0 7 1 30.5t1.5 52.5t2 72t2.5 81l5 302q1 34 3.5 73t6 86 t5.5 74q12 143 15 285q3 50 3 150v68q-63 -27 -113 -48q-91 -35 -163 -35q-16 0 -32 2q-108 20 -108 183z" />
<glyph unicode="z" horiz-adv-x="861" d="M-68 776q5 14 11 26.5t18 34t21 39.5q12 21 21.5 35.5t25 33.5t23.5 30q39 53 126 93q24 9 40 12q17 1 33 1q7 -1 15 -1q22 0 45 -5t46 -16q81 -46 96 -131q6 -24 5 -47q0 -69 -52 -126q-15 -15 -44.5 -42.5t-44.5 -41.5q-6 -7 -14 -15.5l-16 -17t-14 -15.5 q19 -37 29 -52q55 -90 79.5 -175.5t30.5 -195.5q1 -19 1 -35.5t-0.5 -29.5t-2.5 -26.5t-3.5 -24t-5.5 -25t-6.5 -25t-8 -29.5t-8.5 -34q7 13 26.5 41t28.5 46q10 18 31 52t31 53q113 205 176 325q32 63 53 112.5t45 112t46 115.5q10 19 25.5 25.5t24.5 -3.5q15 0 19 -27 q2 -10 2 -17q0 -13 -5 -18q-15 -38 -35 -92.5t-30 -79.5t-29.5 -69t-46.5 -96q-32 -62 -95 -176t-82 -150q-10 -18 -31 -54.5t-32 -55.5q-50 -97 -78 -133q-29 -52 -37 -70q-2 -4 -5.5 -10l-7 -12t-5.5 -10q-8 -25 -16.5 -73t-15.5 -74q-3 -34 -43.5 -231t-41.5 -212 q-43 -211 -48 -231v-2q-16 -78 -36.5 -133.5t-57.5 -99.5q-3 -5 -9.5 -10t-15.5 -8.5t-18 -3.5q-11 0 -26 7t-19 15q-7 13 -12 18q-10 28 -13 96q-1 20 -1 42q0 51 5 109q7 83 24 138q28 84 69 268q10 55 28 125q92 364 92 603q1 0 1 50v63l-1 112q0 73 -29 155 q-10 36 -31 45q-5 3 -11.5 5t-14.5 4t-13 4q-22 7 -28.5 34.5t7.5 44.5q3 5 18 20q26 30 73 86.5t55 66.5q2 2 5 7q10 12 14.5 18.5t10.5 17.5t8 19.5t2.5 19.5t-3.5 23q-21 58 -78 65q-3 0 -12 -2.5t-16 -5.5l-6 -2q-111 -79 -160 -220q-9 -18 -25 -25t-25 0q-21 14 -21 48 zM86 -968v8q0 7 1 14q1 11 2 23t1 15q0 9 12 85l31 113q7 8 13 8h1q8 -1 8 -13q0 -13 -7 -85q-8 -82 -8 -91q-2 -18 -9 -63q-1 -7 -2 -10.5t-2.5 -9t-4 -9t-7 -6.5t-10.5 -4q-2 0 -4 0.5t-3 1t-2.5 1.5t-3 3.5t-2.5 6.5q-4 2 -4 12z" />
<glyph unicode="{" horiz-adv-x="599" d="M-3 878q0 21 13 35q14 24 55 15q36 -15 78 5.5t62 57.5q16 29 23.5 65t7.5 69.5v72.5v8q0 54 -0.5 119.5t-1.5 124t-8 123t-21 115.5q-2 3 -4 8.5l-8 22t-8.5 30t-5 32.5t3.5 30q22 66 82 82q45 9 97.5 -21.5t85.5 -65.5q13 -18 11 -39.5t-16 -35.5q-18 -13 -41 -10 t-37 17q-17 19 -43 36.5t-42 13.5q-11 -9 11 -82q15 -55 25 -117t14.5 -131.5t6.5 -121.5t3 -128v-10q3 -80 -5.5 -142.5t-38.5 -117.5q-15 -24 -27.5 -41t-30.5 -36t-39 -29.5t-44 -11.5q25 -36 43.5 -77.5t29.5 -88.5t18 -84t10.5 -91t4.5 -82t1 -82v-120q0 -96 2.5 -158 t13.5 -147t32 -152q16 -55 41 -68q8 -8 24 -3q0 1 1 3t4 7.5t6.5 10t8.5 10.5t11 8t13.5 3.5t15.5 -2.5q22 -4 34 -23t8 -41q-11 -50 -62 -73q-31 -10 -53 -10q-30 0 -66 18q-35 21 -54 53t-35 76q-31 107 -40.5 219.5t-9.5 268.5v120q-1 58 -5 105t-13.5 108t-24.5 111.5 t-41.5 105t-62.5 99.5q-13 13 -13 34z" />
<glyph unicode="|" horiz-adv-x="295" d="M32 -133q4 166 10 835.5t8 755.5q0 18 11.5 29.5t25.5 11.5l44 -5q14 0 24 -11.5t10 -29.5q-3 -163 -6 -443.5t-4.5 -518t-3.5 -426.5t-4 -207q0 -9 -5.5 -18t-14 -14.5t-17.5 -5.5l-45 5q-14 0 -23.5 11.5t-9.5 30.5z" />
<glyph unicode="}" horiz-adv-x="563" d="M-13 -372q-4 21 8.5 39.5t30.5 22.5q23 4 41.5 -6.5t22.5 -31.5q3 -7 10.5 -5t12.5 7q26 15 42 68q20 64 30.5 145.5t12.5 135t4 149.5v9v8v9v120q1 65 2.5 99.5t7.5 100t16.5 110t31 99t50.5 98.5q-77 3 -145 120q-30 55 -37.5 114.5t-4.5 143.5v10q1 74 3 126t7 121.5 t15 131.5t25 116l13 59q2 22 -3 25q-18 3 -44 -15t-42 -38q-12 -12 -34 -14t-40 9q-17 13 -18 36.5t13 40.5q32 34 85.5 64t98.5 21q14 -4 21.5 -7t20 -11t21.5 -21.5t15 -32.5q3 -10 0.5 -28t-5 -29t-7.5 -33.5t-8 -40.5q-14 -52 -21.5 -120.5t-8.5 -113.5t-1.5 -133 t-0.5 -116v-7q-3 -69 3 -117t29 -91q20 -37 61 -57t77 -5q13 4 31 0t27 -17q13 -13 13 -32.5t-13 -32.5q-45 -56 -75.5 -123.5t-45.5 -140.5t-21 -134.5t-7 -134.5v-120q-1 -82 -2.5 -126.5t-6.5 -114.5t-15.5 -130t-27.5 -117q-10 -28 -19 -47.5t-27.5 -43.5t-43.5 -39 q-27 -16 -65 -16q-30 0 -50 11q-52 22 -63 73z" />
<glyph unicode="~" horiz-adv-x="510" d="M76 1788q-4 40 2 57t32 34q31 22 82 37q31 0 49 -2q4 -3 11 -5.5t14 -5.5t12 -5q12 -5 40 -22.5t50.5 -26.5t39.5 -6q1 0 3.5 8.5t7.5 17.5t14 14t23 -1q7 0 13 -4t11 -15t5 -27q0 -19 -15 -40q-18 -20 -62 -42q-14 -9 -35 -7.5t-40 8t-41.5 17.5t-41 21.5t-38 20 t-32.5 13.5q-2 0 -6.5 1.5t-5.5 1.5t-7.5 -2.5t-8 -4t-5 -8t-5.5 -17.5q-2 -10 -10.5 -18t-16.5 -11l-7 -3q-18 0 -32 22z" />
<glyph unicode="&#xa2;" horiz-adv-x="613" d="M-13 435q8 72 53.5 134t119.5 102q48 21 73 27q0 203 24 370q0 18 17.5 30.5t37.5 12.5q11 -2 21 -11t15 -21t5 -23q-24 -181 -20 -346q49 0 115 -32q20 -9 26.5 -26t-2.5 -36q-5 -22 -26 -28.5t-43 5.5q-46 23 -70 20q1 -70 20 -361q61 -3 137 23q20 4 36.5 -4.5 t26.5 -27.5q6 -19 -3 -36.5t-28 -23.5t-47 -12t-52 -10t-41 -6.5t-20 -2.5q8 -73 10 -123q10 -97 13 -154q0 -15 -15.5 -26.5t-31.5 -11.5q-17 0 -33.5 10.5t-16.5 24.5q-2 21 -4 47.5t-4.5 53.5t-4.5 47q-1 18 -3 42.5t-4 43.5t-4 34.5t-2 16.5q-52 9 -137 43 q-45 22 -74.5 48.5t-45.5 58.5q-26 54 -18 128zM84 422q-7 -36 8 -71q21 -38 76 -63q5 -2 17 -7.5t18.5 -8.5t16.5 -6.5t19 -5.5t18 -3q-2 27 -8 104t-9 131.5t-4 105.5q-26 -7 -44 -16q-90 -45 -108 -160z" />
<glyph unicode="&#xa3;" horiz-adv-x="1373" d="M443 461q-4 22 8 41t34 23q97 19 236 28q1 5 1 14.5t1 14.5q22 93 35 163q47 276 118 445q17 44 42 81.5t57 66.5t72.5 42.5t82.5 5.5q41 -7 73.5 -31t51 -54.5t26.5 -65.5q7 -30 7.5 -68t-2 -59.5t-7.5 -61.5q-4 -22 -21 -34t-39 -8q-20 0 -34 18t-10 42q6 34 8 49 t2.5 43.5t-5.5 49.5q-7 28 -24.5 50t-44.5 25q-36 8 -75 -28q-44 -43 -66 -100q-25 -63 -47 -144t-32.5 -135.5t-27.5 -150.5q-20 -102 -35 -165q155 4 305 -15q22 -4 35 -21.5t10 -38.5q-4 -23 -22 -36t-40 -9q-176 22 -311 15q-20 -76 -74 -203q-16 -42 -27.5 -68 t-29.5 -59t-37 -55q93 0 113 -5q237 -10 438 13q22 3 39 -10.5t21 -36.5q0 -22 -11.5 -38.5t-33.5 -19.5q-201 -21 -345 -21q-19 0 -58 1.5t-58 1.5q-2 0 -68 1.5t-129 6t-70 13.5q-14 13 -9 32t22 31q8 10 21 27.5t47.5 68.5t61.5 98.5t50.5 108.5t26.5 108 q-29 -2 -78.5 -9t-86 -13t-37.5 -6q-17 0 -31.5 12t-18.5 29z" />
<glyph unicode="&#xa8;" horiz-adv-x="588" d="M95 1673q-21 85 50 133q39 24 75 24q3 -1 10 -4t13.5 -6t14 -6.5t12.5 -7.5q18 -15 27.5 -39.5t7.5 -50.5q0 -59 -53 -107q-30 -24 -71.5 -18t-60.5 37q-18 23 -25 45zM348 1681q-23 79 45 128q39 24 77 24q3 -2 13 -6t20 -9t17 -9q36 -29 36 -90q-4 -59 -56 -106 q-29 -24 -70 -19t-60 37q-18 22 -22 50z" />
<glyph unicode="&#xab;" horiz-adv-x="712" d="M13 603q-6 25 19 50q1 0 34 28t73.5 61t91 69.5t84.5 53.5q19 12 44 5t37 -26q5 -11 5 -26q0 -37 -31 -53q-42 -22 -106.5 -70t-103.5 -82q22 -15 59.5 -42.5t67.5 -50.5t57 -42t34 -22q22 -12 27 -35.5t-12 -45.5q-11 -19 -34 -23t-42 8q-22 13 -137 97.5t-143 105.5 q-24 16 -24 40zM296 608q0 31 24 47q1 1 22 19t52.5 43.5t67 53.5t73.5 54t65 40q20 12 45.5 5t32.5 -26q9 -18 9 -26q0 -16 -8.5 -30.5t-23.5 -22.5q-42 -22 -108 -70t-104 -82q208 -151 215 -155q23 -11 28 -36.5t-8 -43.5q-11 -19 -35 -24.5t-43 6.5q-21 13 -137.5 99 t-139.5 104q-27 16 -27 45z" />
<glyph unicode="&#xad;" horiz-adv-x="691" d="M-20 758q0 22 15 37t37 15h534q22 0 37 -15t15 -37t-15 -37.5t-37 -15.5h-534q-22 0 -37 15.5t-15 37.5z" />
<glyph unicode="&#xae;" horiz-adv-x="1191" d="M10 568q0 109 43 208.5t115 171.5t171.5 115t208.5 43t208.5 -43t171.5 -115t114.5 -171.5t42.5 -208.5t-42.5 -208.5t-114.5 -172t-171.5 -115.5t-208.5 -43t-208.5 43t-171.5 115.5t-115 172t-43 208.5zM100 568q0 -92 35 -175.5t95 -143.5t143 -95.5t175 -35.5 q91 0 174 35.5t143 95.5t95.5 143.5t35.5 175.5q0 91 -35.5 174.5t-95.5 143.5t-143 96t-174 36q-92 0 -175 -36t-143 -96t-95 -143.5t-35 -174.5zM320 833v22q0 23 33 23q81 18 130 18q2 0 3.5 11.5t3 24t3.5 14.5q5 17 20 25t27 2q9 0 22.5 -13.5t12.5 -34.5v-32 q39 0 98 -35q29 -21 45 -45q22 -26 22 -60q3 -63 -45 -123q-4 -4 -19.5 -21t-28 -28t-26.5 -20q-32 -26 -55 -41q4 -15 40 -65t37 -52q5 -6 16.5 -19t16.5 -19q28 -28 84 -37q0 -2 2 -6t3.5 -9t2 -13.5t-2.5 -19.5q0 -6 -2 -10t-5 -6t-7.5 -3.5t-7.5 -1.5t-8.5 0.5t-6.5 0.5 h-7q-32 9 -54 19.5t-44 32.5q-8 9 -22 29.5t-19 25.5q-14 29 -16 31q0 -11 6.5 -46.5t7.5 -49.5q1 -5 2.5 -19t2.5 -21q0 -24 5 -70q0 -7 -1 -16t-1 -11q-6 -5 -13 -9.5t-14.5 -7.5t-12.5 -3q-16 0 -26 10q-20 8 -29 31q-5 8 -8 17t-4.5 21t-2.5 18.5t-2 21.5t-1 19v115 q0 124 -3 184v110q3 24 3 71q0 45 -3 57q-52 0 -110 -12l-5 -3q-24 0 -37 28zM568 616q32 22 51 38.5t34 42t13 51.5q0 27 -31 49q-40 23 -64 23q0 -12 -0.5 -31.5t-1.5 -70.5t-1 -70v-32z" />
<glyph unicode="&#xb1;" horiz-adv-x="1251" d="M-15 750q0 15 5.5 27t16 20t25.5 11q241 31 481 42q-9 227 -28 383q0 23 13 40t34 17q22 4 40 -11.5t18 -38.5q21 -211 28 -390q215 7 450 -9q24 0 38 -15.5t10 -39.5q0 -22 -16 -36t-39 -14q-233 16 -440 9q8 -285 -3 -530q-4 -22 -19 -36t-33 -14q-13 0 -34.5 19 t-18.5 36q13 297 7 522q-69 -3 -186.5 -13t-204.5 -18t-92 -8q-18 0 -33.5 13t-18.5 34zM20 3v105h1096v-105h-1096z" />
<glyph unicode="&#xb4;" horiz-adv-x="471" d="M113 1723q107 133 254 273q34 22 73 -4q14 -17 13 -40t-18 -36q-92 -89 -240 -260q-12 -20 -43 -20q-21 0 -34 13q-33 32 -5 74z" />
<glyph unicode="&#xb8;" horiz-adv-x="337" d="M73.5 -286.5q-7.5 15.5 2.5 34.5q5 21 24.5 27.5t41.5 -3.5q20 -9 42.5 -6.5t38.5 14.5q13 11 15.5 31.5t-5.5 33.5q-5 10 -31 15q-14 0 -19 -5q-19 -18 -52 -10q-10 6 -19.5 19.5t-9.5 22.5v11q-5 81 -2 122q0 20 14 34t33 14t33.5 -14t14.5 -34v-60q2 1 5 0.5t5 -1.5 l5 -2.5t5 -1.5q63 -12 95 -57q29 -42 22 -97t-47 -89q-42 -42 -110 -42q-37 0 -75 15q-19 13 -26.5 28.5z" />
<glyph unicode="&#xbb;" horiz-adv-x="761" d="M12 411.5q6 22.5 25 33.5q8 5 46.5 34t90.5 68.5t78 57.5q-27 23 -60.5 49.5t-77 57.5t-69.5 46q-32 16 -32 50q0 23 7 30q12 22 33.5 28t43.5 -6q45 -24 116 -78t117.5 -93t54.5 -46q16 -16 16 -43q0 -8 -4 -18.5t-9 -18.5t-10 -10q-29 -22 -144.5 -106.5t-136.5 -95.5 q-18 -13 -43 -8.5t-36 27.5q-12 19 -6 41.5zM302 808q0 15 10 25q8 24 31 31.5t42 -4.5q46 -23 117 -77.5t115 -92t54 -47.5q21 -15 21 -43q0 -7 -1.5 -14t-4.5 -14t-8.5 -12t-11.5 -7q-32 -25 -144.5 -108t-133.5 -94q-19 -13 -43 -8.5t-35 27.5q-12 19 -6.5 41.5 t24.5 33.5q8 5 46 33t91.5 67.5t77.5 57.5q-150 125 -210 157q-31 21 -31 48z" />
<glyph unicode="&#xbf;" horiz-adv-x="693" d="M42 -15q-12 71 5 160q14 57 36 112t57 113.5t60 96t70 101.5q3 5 7.5 10.5t8.5 11.5t7 10q75 111 110 211t42 227q0 19 14.5 33t33.5 14h7q18 -3 30.5 -19t12.5 -33q-8 -139 -47.5 -250.5t-123.5 -234.5q-3 -7 -11.5 -19t-12.5 -18q-53 -76 -85 -126t-67 -123.5 t-51 -141.5q-10 -38 -11.5 -74.5t9.5 -72.5t37 -57q48 -29 111 -26q61 0 117.5 26t89.5 71q9 15 29.5 17.5t35.5 -7.5q15 -9 19.5 -30.5t-5.5 -36.5q-46 -65 -122.5 -101t-163.5 -36q-102 0 -168 47q-60 49 -81 145zM429.5 1213q2.5 26 23.5 43q33 26 60 -10q25 -33 17 -70 q-9 -43 -58 -36q-19 6 -32 26.5t-10.5 46.5z" />
<glyph unicode="&#xc0;" d="M-47 -5q9 39 29.5 69.5t54.5 37.5q17 9 33.5 -3t16.5 -23q7 -13 -2 -27.5t-25 -22.5q-4 -1 -8 -4t-7 -6t-6 -9t-4.5 -9.5t-5 -11t-3.5 -9.5q-12 -47 26 -117q35 -70 81 -85q51 -15 82 57q88 198 210 538q101 285 152 408q111 268 319 620q2 3 4.5 10t5.5 12.5t7 10.5 q-2 0 -3 5t-2 5q-12 5 -25.5 14.5t-26.5 25t-15 29.5q0 36 32 55q26 13 50 -11q3 -7 3 -14t-2 -11l-4 -8t-2 -5q0 -2 2.5 -2h6.5t6 -1q8 -4 40 3q87 130 180 234.5t173 160.5q25 25 63 29q41 10 70.5 -17.5t24.5 -69.5t-16.5 -91t-25.5 -103.5t-21 -93.5q74 7 165 -24 q31 -12 60.5 -31.5t52.5 -47t29 -54.5q11 -55 -42 -108q-5 0 -17.5 -1t-17.5 -1q-7 5 -13 5q-11 12 -10.5 31t10.5 29q16 16 13 28q-3 25 -31 46t-60 34q-73 23 -155 15l-17.5 -134t-42 -322.5t-37.5 -298.5q-21 -203 -28.5 -421.5t-1 -446.5t17.5 -420t30 -436 q3 -42 24 -100q3 -8 6 -13.5t5 -8t2 -4.5q2 -2 6.5 -7.5t8.5 -8.5t8 -3q5 1 8.5 5t5.5 8l6.5 13t6.5 14q33 79 55 152q19 55 25 72t24 65t30.5 73.5t32 62t40.5 65.5q6 6 17.5 10.5t23.5 3.5t17 -11q12 -6 14.5 -16t-1 -18.5t-10.5 -15.5q-24 -35 -44.5 -74t-38.5 -83.5 t-30 -78.5t-29 -84q-8 -21 -18 -49t-20 -55.5t-17 -48.5q-34 -79 -95 -83q-32 0 -49 10q-27 14 -65.5 52.5t-55.5 70.5q-45 68 -61 145q-4 16 -7.5 33.5t-5.5 30.5t-4 33.5t-3 30t-3 34t-2 31.5q-20 205 -22 240q-23 322 -23 645q6 409 92 1013q6 60 21 155q3 27 12 76.5 t13 76.5q-10 -2 -31 -2t-31 -1q-62 -3 -144 -17l-2 4q-3 -4 -24.5 -38t-30.5 -51q-213 -359 -318 -611q-44 -109 -152 -407q-6 -18 -26.5 -75t-29 -81t-26.5 -74.5t-30.5 -82t-29.5 -75t-34 -82t-34 -75.5q-48 -103 -131 -103q-6 0 -13.5 2t-16 4t-12.5 3q-46 18 -88 69.5 t-62 113.5t-7 108zM1075 1533q15 3 43.5 4t37.5 2q15 1 42.5 3.5t41.5 3.5q13 73 73 255q2 3 -6 -4q-52 -43 -140 -146q-56 -65 -92 -118zM1243 2294q-23 34 2 73q17 14 40 12.5t36 -17.5q89 -93 260 -241q20 -12 20 -42q0 -22 -13 -35q-32 -32 -72 -5q-134 107 -273 255z " />
<glyph unicode="&#xc1;" d="M-47 -5q9 39 29.5 69.5t54.5 37.5q17 9 33.5 -3t16.5 -23q7 -13 -2 -27.5t-25 -22.5q-4 -1 -8 -4t-7 -6t-6 -9t-4.5 -9.5t-5 -11t-3.5 -9.5q-12 -47 26 -117q35 -70 81 -85q51 -15 82 57q88 198 210 538q101 285 152 408q111 268 319 620q2 3 4.5 10t5.5 12.5t7 10.5 q-2 0 -3 5t-2 5q-12 5 -25.5 14.5t-26.5 25t-15 29.5q0 36 32 55q26 13 50 -11q3 -7 3 -14t-2 -11l-4 -8t-2 -5q0 -2 2.5 -2h6.5t6 -1q8 -4 40 3q87 130 180 234.5t173 160.5q25 25 63 29q41 10 70.5 -17.5t24.5 -69.5t-16.5 -91t-25.5 -103.5t-21 -93.5q74 7 165 -24 q31 -12 60.5 -31.5t52.5 -47t29 -54.5q11 -55 -42 -108q-5 0 -17.5 -1t-17.5 -1q-7 5 -13 5q-11 12 -10.5 31t10.5 29q16 16 13 28q-3 25 -31 46t-60 34q-73 23 -155 15l-17.5 -134t-42 -322.5t-37.5 -298.5q-21 -203 -28.5 -421.5t-1 -446.5t17.5 -420t30 -436 q3 -42 24 -100q3 -8 6 -13.5t5 -8t2 -4.5q2 -2 6.5 -7.5t8.5 -8.5t8 -3q5 1 8.5 5t5.5 8l6.5 13t6.5 14q33 79 55 152q19 55 25 72t24 65t30.5 73.5t32 62t40.5 65.5q6 6 17.5 10.5t23.5 3.5t17 -11q12 -6 14.5 -16t-1 -18.5t-10.5 -15.5q-24 -35 -44.5 -74t-38.5 -83.5 t-30 -78.5t-29 -84q-8 -21 -18 -49t-20 -55.5t-17 -48.5q-34 -79 -95 -83q-32 0 -49 10q-27 14 -65.5 52.5t-55.5 70.5q-45 68 -61 145q-4 16 -7.5 33.5t-5.5 30.5t-4 33.5t-3 30t-3 34t-2 31.5q-20 205 -22 240q-23 322 -23 645q6 409 92 1013q6 60 21 155q3 27 12 76.5 t13 76.5q-10 -2 -31 -2t-31 -1q-62 -3 -144 -17l-2 4q-3 -4 -24.5 -38t-30.5 -51q-213 -359 -318 -611q-44 -109 -152 -407q-6 -18 -26.5 -75t-29 -81t-26.5 -74.5t-30.5 -82t-29.5 -75t-34 -82t-34 -75.5q-48 -103 -131 -103q-6 0 -13.5 2t-16 4t-12.5 3q-46 18 -88 69.5 t-62 113.5t-7 108zM1075 1533q15 3 43.5 4t37.5 2q15 1 42.5 3.5t41.5 3.5q13 73 73 255q2 3 -6 -4q-52 -43 -140 -146q-56 -65 -92 -118zM1175 2029q111 138 253 272q36 24 75 -2q13 -17 11.5 -39.5t-18.5 -36.5q-92 -89 -240 -259q-12 -21 -43 -21q-20 0 -33 13 q-32 32 -5 73z" />
<glyph unicode="&#xc2;" d="M-47 -5q9 39 29.5 69.5t54.5 37.5q17 9 33.5 -3t16.5 -23q7 -13 -2 -27.5t-25 -22.5q-4 -1 -8 -4t-7 -6t-6 -9t-4.5 -9.5t-5 -11t-3.5 -9.5q-12 -47 26 -117q35 -70 81 -85q51 -15 82 57q88 198 210 538q101 285 152 408q111 268 319 620q2 3 4.5 10t5.5 12.5t7 10.5 q-2 0 -3 5t-2 5q-12 5 -25.5 14.5t-26.5 25t-15 29.5q0 36 32 55q26 13 50 -11q3 -7 3 -14t-2 -11l-4 -8t-2 -5q0 -2 2.5 -2h6.5t6 -1q8 -4 40 3q87 130 180 234.5t173 160.5q25 25 63 29q41 10 70.5 -17.5t24.5 -69.5t-16.5 -91t-25.5 -103.5t-21 -93.5q74 7 165 -24 q31 -12 60.5 -31.5t52.5 -47t29 -54.5q11 -55 -42 -108q-5 0 -17.5 -1t-17.5 -1q-7 5 -13 5q-11 12 -10.5 31t10.5 29q16 16 13 28q-3 25 -31 46t-60 34q-73 23 -155 15l-17.5 -134t-42 -322.5t-37.5 -298.5q-21 -203 -28.5 -421.5t-1 -446.5t17.5 -420t30 -436 q3 -42 24 -100q3 -8 6 -13.5t5 -8t2 -4.5q2 -2 6.5 -7.5t8.5 -8.5t8 -3q5 1 8.5 5t5.5 8l6.5 13t6.5 14q33 79 55 152q19 55 25 72t24 65t30.5 73.5t32 62t40.5 65.5q6 6 17.5 10.5t23.5 3.5t17 -11q12 -6 14.5 -16t-1 -18.5t-10.5 -15.5q-24 -35 -44.5 -74t-38.5 -83.5 t-30 -78.5t-29 -84q-8 -21 -18 -49t-20 -55.5t-17 -48.5q-34 -79 -95 -83q-32 0 -49 10q-27 14 -65.5 52.5t-55.5 70.5q-45 68 -61 145q-4 16 -7.5 33.5t-5.5 30.5t-4 33.5t-3 30t-3 34t-2 31.5q-20 205 -22 240q-23 322 -23 645q6 409 92 1013q6 60 21 155q3 27 12 76.5 t13 76.5q-10 -2 -31 -2t-31 -1q-62 -3 -144 -17l-2 4q-3 -4 -24.5 -38t-30.5 -51q-213 -359 -318 -611q-44 -109 -152 -407q-6 -18 -26.5 -75t-29 -81t-26.5 -74.5t-30.5 -82t-29.5 -75t-34 -82t-34 -75.5q-48 -103 -131 -103q-6 0 -13.5 2t-16 4t-12.5 3q-46 18 -88 69.5 t-62 113.5t-7 108zM1075 1533q15 3 43.5 4t37.5 2q15 1 42.5 3.5t41.5 3.5q13 73 73 255q2 3 -6 -4q-52 -43 -140 -146q-56 -65 -92 -118zM1188 2095.5q-7 19.5 2 35.5q17 31 54.5 80.5t67.5 85.5t31 36q18 18 38 18q29 0 42 -23q4 -5 71.5 -94t76.5 -103q19 -39 -20 -70 q-40 -20 -70 18q-2 5 -19.5 29.5t-46 63.5t-36.5 51q-25 -26 -56.5 -70t-46.5 -74q-20 -21 -41 -21q-9 0 -24 8q-16 10 -23 29.5z" />
<glyph unicode="&#xc3;" d="M-47 -5q9 39 29.5 69.5t54.5 37.5q17 9 33.5 -3t16.5 -23q7 -13 -2 -27.5t-25 -22.5q-4 -1 -8 -4t-7 -6t-6 -9t-4.5 -9.5t-5 -11t-3.5 -9.5q-12 -47 26 -117q35 -70 81 -85q51 -15 82 57q88 198 210 538q101 285 152 408q111 268 319 620q2 3 4.5 10t5.5 12.5t7 10.5 q-2 0 -3 5t-2 5q-12 5 -25.5 14.5t-26.5 25t-15 29.5q0 36 32 55q26 13 50 -11q3 -7 3 -14t-2 -11l-4 -8t-2 -5q0 -2 2.5 -2h6.5t6 -1q8 -4 40 3q87 130 180 234.5t173 160.5q25 25 63 29q41 10 70.5 -17.5t24.5 -69.5t-16.5 -91t-25.5 -103.5t-21 -93.5q74 7 165 -24 q31 -12 60.5 -31.5t52.5 -47t29 -54.5q11 -55 -42 -108q-5 0 -17.5 -1t-17.5 -1q-7 5 -13 5q-11 12 -10.5 31t10.5 29q16 16 13 28q-3 25 -31 46t-60 34q-73 23 -155 15l-17.5 -134t-42 -322.5t-37.5 -298.5q-21 -203 -28.5 -421.5t-1 -446.5t17.5 -420t30 -436 q3 -42 24 -100q3 -8 6 -13.5t5 -8t2 -4.5q2 -2 6.5 -7.5t8.5 -8.5t8 -3q5 1 8.5 5t5.5 8l6.5 13t6.5 14q33 79 55 152q19 55 25 72t24 65t30.5 73.5t32 62t40.5 65.5q6 6 17.5 10.5t23.5 3.5t17 -11q12 -6 14.5 -16t-1 -18.5t-10.5 -15.5q-24 -35 -44.5 -74t-38.5 -83.5 t-30 -78.5t-29 -84q-8 -21 -18 -49t-20 -55.5t-17 -48.5q-34 -79 -95 -83q-32 0 -49 10q-27 14 -65.5 52.5t-55.5 70.5q-45 68 -61 145q-4 16 -7.5 33.5t-5.5 30.5t-4 33.5t-3 30t-3 34t-2 31.5q-20 205 -22 240q-23 322 -23 645q6 409 92 1013q6 60 21 155q3 27 12 76.5 t13 76.5q-10 -2 -31 -2t-31 -1q-62 -3 -144 -17l-2 4q-3 -4 -24.5 -38t-30.5 -51q-213 -359 -318 -611q-44 -109 -152 -407q-6 -18 -26.5 -75t-29 -81t-26.5 -74.5t-30.5 -82t-29.5 -75t-34 -82t-34 -75.5q-48 -103 -131 -103q-6 0 -13.5 2t-16 4t-12.5 3q-46 18 -88 69.5 t-62 113.5t-7 108zM1075 1533q15 3 43.5 4t37.5 2q15 1 42.5 3.5t41.5 3.5q13 73 73 255q2 3 -6 -4q-52 -43 -140 -146q-56 -65 -92 -118zM1166 2084q-4 42 2 64t30 38q32 23 81 37q32 0 50 -2q5 -3 18.5 -8.5t18.5 -8.5q12 -5 40 -22.5t50.5 -26.5t39.5 -6q2 0 5.5 5.5 t3.5 11.5q0 17 11 27t22 9.5t16 -3.5q5 -2 7.5 -4t5.5 -6t4.5 -10.5t1.5 -15.5v-14q0 -26 -15 -47q-16 -18 -62 -41q-14 -9 -35 -7t-40 8t-41.5 17.5t-41 21.5t-38 19.5t-32.5 13.5q-2 0 -6.5 1t-5.5 1q-2 -1 -8 -3t-8.5 -3.5t-5.5 -5.5t-4 -11q-1 -11 0 -14t0 -5 q-3 -10 -12 -17t-16 -9l-6 -2q-23 0 -30 18z" />
<glyph unicode="&#xc4;" d="M-47 -5q9 39 29.5 69.5t54.5 37.5q17 9 33.5 -3t16.5 -23q7 -13 -2 -27.5t-25 -22.5q-4 -1 -8 -4t-7 -6t-6 -9t-4.5 -9.5t-5 -11t-3.5 -9.5q-12 -47 26 -117q35 -70 81 -85q51 -15 82 57q88 198 210 538q101 285 152 408q111 268 319 620q2 3 4.5 10t5.5 12.5t7 10.5 q-2 0 -3 5t-2 5q-12 5 -25.5 14.5t-26.5 25t-15 29.5q0 36 32 55q26 13 50 -11q3 -7 3 -14t-2 -11l-4 -8t-2 -5q0 -2 2.5 -2h6.5t6 -1q8 -4 40 3q87 130 180 234.5t173 160.5q25 25 63 29q41 10 70.5 -17.5t24.5 -69.5t-16.5 -91t-25.5 -103.5t-21 -93.5q74 7 165 -24 q31 -12 60.5 -31.5t52.5 -47t29 -54.5q11 -55 -42 -108q-5 0 -17.5 -1t-17.5 -1q-7 5 -13 5q-11 12 -10.5 31t10.5 29q16 16 13 28q-3 25 -31 46t-60 34q-73 23 -155 15l-17.5 -134t-42 -322.5t-37.5 -298.5q-21 -203 -28.5 -421.5t-1 -446.5t17.5 -420t30 -436 q3 -42 24 -100q3 -8 6 -13.5t5 -8t2 -4.5q2 -2 6.5 -7.5t8.5 -8.5t8 -3q5 1 8.5 5t5.5 8l6.5 13t6.5 14q33 79 55 152q19 55 25 72t24 65t30.5 73.5t32 62t40.5 65.5q6 6 17.5 10.5t23.5 3.5t17 -11q12 -6 14.5 -16t-1 -18.5t-10.5 -15.5q-24 -35 -44.5 -74t-38.5 -83.5 t-30 -78.5t-29 -84q-8 -21 -18 -49t-20 -55.5t-17 -48.5q-34 -79 -95 -83q-32 0 -49 10q-27 14 -65.5 52.5t-55.5 70.5q-45 68 -61 145q-4 16 -7.5 33.5t-5.5 30.5t-4 33.5t-3 30t-3 34t-2 31.5q-20 205 -22 240q-23 322 -23 645q6 409 92 1013q6 60 21 155q3 27 12 76.5 t13 76.5q-10 -2 -31 -2t-31 -1q-62 -3 -144 -17l-2 4q-3 -4 -24.5 -38t-30.5 -51q-213 -359 -318 -611q-44 -109 -152 -407q-6 -18 -26.5 -75t-29 -81t-26.5 -74.5t-30.5 -82t-29.5 -75t-34 -82t-34 -75.5q-48 -103 -131 -103q-6 0 -13.5 2t-16 4t-12.5 3q-46 18 -88 69.5 t-62 113.5t-7 108zM1075 1533q15 3 43.5 4t37.5 2q15 1 42.5 3.5t41.5 3.5q13 73 73 255q2 3 -6 -4q-52 -43 -140 -146q-56 -65 -92 -118zM1185 2076q-21 85 50 133q39 25 76 25q3 -2 13 -6.5l20 -9t17 -9.5q38 -34 34 -88q0 -59 -52 -108q-30 -24 -71.5 -18.5t-60.5 36.5 q-18 23 -26 45zM1439 2084q-24 80 45 129q36 23 76 23q4 -1 13.5 -5t19 -8.5t16.5 -9.5q37 -30 37 -89q-4 -61 -55 -108q-30 -24 -70.5 -19t-60.5 37q-17 22 -21 50z" />
<glyph unicode="&#xc5;" d="M-47 -5q9 39 29.5 69.5t54.5 37.5q17 9 33.5 -3t16.5 -23q7 -13 -2 -27.5t-25 -22.5q-4 -1 -8 -4t-7 -6t-6 -9t-4.5 -9.5t-5 -11t-3.5 -9.5q-12 -47 26 -117q35 -70 81 -85q51 -15 82 57q88 198 210 538q101 285 152 408q111 268 319 620q2 3 4.5 10t5.5 12.5t7 10.5 q-2 0 -3 5t-2 5q-12 5 -25.5 14.5t-26.5 25t-15 29.5q0 36 32 55q26 13 50 -11q3 -7 3 -14t-2 -11l-4 -8t-2 -5q0 -2 2.5 -2h6.5t6 -1q8 -4 40 3q87 130 180 234.5t173 160.5q25 25 63 29q41 10 70.5 -17.5t24.5 -69.5t-16.5 -91t-25.5 -103.5t-21 -93.5q74 7 165 -24 q31 -12 60.5 -31.5t52.5 -47t29 -54.5q11 -55 -42 -108q-5 0 -17.5 -1t-17.5 -1q-7 5 -13 5q-11 12 -10.5 31t10.5 29q16 16 13 28q-3 25 -31 46t-60 34q-73 23 -155 15l-17.5 -134t-42 -322.5t-37.5 -298.5q-21 -203 -28.5 -421.5t-1 -446.5t17.5 -420t30 -436 q3 -42 24 -100q3 -8 6 -13.5t5 -8t2 -4.5q2 -2 6.5 -7.5t8.5 -8.5t8 -3q5 1 8.5 5t5.5 8l6.5 13t6.5 14q33 79 55 152q19 55 25 72t24 65t30.5 73.5t32 62t40.5 65.5q6 6 17.5 10.5t23.5 3.5t17 -11q12 -6 14.5 -16t-1 -18.5t-10.5 -15.5q-24 -35 -44.5 -74t-38.5 -83.5 t-30 -78.5t-29 -84q-8 -21 -18 -49t-20 -55.5t-17 -48.5q-34 -79 -95 -83q-32 0 -49 10q-27 14 -65.5 52.5t-55.5 70.5q-45 68 -61 145q-4 16 -7.5 33.5t-5.5 30.5t-4 33.5t-3 30t-3 34t-2 31.5q-20 205 -22 240q-23 322 -23 645q6 409 92 1013q6 60 21 155q3 27 12 76.5 t13 76.5q-10 -2 -31 -2t-31 -1q-62 -3 -144 -17l-2 4q-3 -4 -24.5 -38t-30.5 -51q-213 -359 -318 -611q-44 -109 -152 -407q-6 -18 -26.5 -75t-29 -81t-26.5 -74.5t-30.5 -82t-29.5 -75t-34 -82t-34 -75.5q-48 -103 -131 -103q-6 0 -13.5 2t-16 4t-12.5 3q-46 18 -88 69.5 t-62 113.5t-7 108zM1075 1533q15 3 43.5 4t37.5 2q15 1 42.5 3.5t41.5 3.5q13 73 73 255q2 3 -6 -4q-52 -43 -140 -146q-56 -65 -92 -118zM1238 2149q0 67 46.5 113.5t113.5 46.5q65 0 110.5 -46.5t45.5 -113.5q0 -65 -45.5 -111t-110.5 -46q-67 0 -113.5 46t-46.5 111z M1343 2149q0 -22 15.5 -37t39.5 -15q22 0 37 15t15 37q0 16 -7 28.5t-19 19.5t-26 7q-24 0 -39.5 -15.5t-15.5 -39.5z" />
<glyph unicode="&#xc6;" horiz-adv-x="2529" d="M-47 -5q9 39 29.5 69.5t54.5 37.5q17 9 33.5 -3t16.5 -23q7 -13 -2 -27.5t-25 -22.5q-4 -1 -8 -4t-7 -6t-6 -9t-4.5 -9.5t-5 -11t-3.5 -9.5q-12 -47 26 -117q35 -70 81 -85q51 -15 82 57q88 198 210 538q101 285 152 408q111 268 319 620q2 3 4.5 10t5.5 12.5t7 10.5 q-2 0 -3 5t-2 5q-12 5 -25.5 14.5t-26.5 25t-15 29.5q0 36 32 55q26 13 50 -11q3 -7 3 -14t-2 -11l-4 -8t-2 -5q0 -2 2.5 -2h6.5t6 -1q8 -4 40 3q87 130 180 234.5t173 160.5q25 25 63 29q41 10 70.5 -17.5t24.5 -69.5t-16.5 -91t-25.5 -103.5t-21 -93.5q74 7 165 -24 q31 -12 60.5 -31.5t52.5 -47t29 -54.5q11 -55 -42 -108q-5 0 -17.5 -1t-17.5 -1q-7 5 -13 5q-11 12 -10.5 31t10.5 29q16 16 13 28q-3 25 -31 46t-60 34q-73 23 -155 15l-17.5 -134t-42 -322.5t-37.5 -298.5q-21 -203 -28.5 -421.5t-1 -446.5t17.5 -420t30 -436 q3 -42 24 -100q3 -8 6 -13.5t5 -8t2 -4.5q2 -2 6.5 -7.5t8.5 -8.5t8 -3q5 1 8.5 5t5.5 8l6.5 13t6.5 14q33 79 55 152q19 55 25 72t24 65t30.5 73.5t32 62t40.5 65.5q6 6 17.5 10.5t23.5 3.5t17 -11q12 -6 14.5 -16t-1 -18.5t-10.5 -15.5q-24 -35 -44.5 -74t-38.5 -83.5 t-30 -78.5t-29 -84q-8 -21 -18 -49t-20 -55.5t-17 -48.5q-34 -79 -95 -83q-32 0 -49 10q-27 14 -65.5 52.5t-55.5 70.5q-45 68 -61 145q-4 16 -7.5 33.5t-5.5 30.5t-4 33.5t-3 30t-3 34t-2 31.5q-20 205 -22 240q-23 322 -23 645q6 409 92 1013q6 60 21 155q3 27 12 76.5 t13 76.5q-10 -2 -31 -2t-31 -1q-62 -3 -144 -17l-2 4q-3 -4 -24.5 -38t-30.5 -51q-213 -359 -318 -611q-44 -109 -152 -407q-6 -18 -26.5 -75t-29 -81t-26.5 -74.5t-30.5 -82t-29.5 -75t-34 -82t-34 -75.5q-48 -103 -131 -103q-6 0 -13.5 2t-16 4t-12.5 3q-46 18 -88 69.5 t-62 113.5t-7 108zM1075 1533q15 3 43.5 4t37.5 2q15 1 42.5 3.5t41.5 3.5q13 73 73 255q2 3 -6 -4q-52 -43 -140 -146q-56 -65 -92 -118zM1185 -412q13 105 76 299q58 178 115 288q122 233 357 488q83 94 173 181q76 82 102 104l3.5 3.5l3 3t3 2.5t3 2.5l3.5 3.5 q44 51 92 115q10 15 15.5 23t13 21.5t10.5 26.5t3 26l-6 26q-18 22 -49.5 34t-64.5 13.5t-68 2t-59 0.5q-143 5 -430 0q-35 0 -67.5 4.5t-68.5 15.5t-62.5 35t-37.5 57q0 3 -1.5 5.5t-2 5t-1.5 5t-2 5.5q-22 120 115 252q18 18 26 25q65 62 167 137l19 13q8 5 24 17.5 t24 17.5q43 36 48 39q2 2 16 12t18 12.5t15.5 10.5t18.5 11l17.5 7.5t19.5 7.5q59 17 116 -27q17 -5 29 -21q21 -18 31 -50t6 -57q0 -7 -4 -14.5t-10.5 -12.5t-12.5 -5q-9 -4 -18 -2t-17 8.5t-12 14.5q-4 7 -6.5 14.5t-3.5 13.5l-2.5 15l-2.5 15v3q-18 0 2 18 q-11 12 -32.5 15.5t-40.5 -3.5q-8 -2 -16.5 -5.5t-17.5 -9t-15.5 -9.5t-16 -11t-13.5 -9q-26 -22 -48 -36q-6 -6 -15 -13t-18 -14.5l-15 -12.5q-4 -3 -11 -8t-11 -7q-17 -15 -75.5 -61.5t-87.5 -73.5q-5 -6 -16 -19t-17 -21t-16 -20.5t-14.5 -20.5t-10.5 -19t-6 -19t1 -16.5 t7.5 -15t16.5 -11.5q26 -13 66 -18q33 -1 162 -2t210 -6.5t160 -21.5q31 -5 52 -9.5t55.5 -13.5t59 -21t49 -28.5t37.5 -40.5t15 -52q2 -25 -8 -75q-6 -51 -52 -115q-15 -21 -32.5 -43.5t-38 -46.5t-29.5 -36l-4.5 -4.5t-4.5 -5t-4 -4.5q-5 -8 -39.5 -52.5t-39.5 -52.5 q-76 -104 -119.5 -165t-103 -156t-100.5 -177q-15 -30 -43 -90t-43 -90q-20 -48 -55 -143t-55 -143q-65 -154 -100 -288q-32 -118 -44 -257q-4 -15 -3.5 -36t10.5 -34q2 -2 5 -6.5t5.5 -7t6.5 -1.5l17.5 17.5l30.5 30.5l15 15q14 16 42 46t51.5 55t59.5 65.5t72 83.5 q11 14 54.5 66.5t77.5 94t74 92.5t61 82q38 56 129.5 189t160 237t119.5 192q10 18 27.5 46.5t32 53t27.5 48.5q39 73 59 113t46 104q20 36 57 16q24 -24 13 -47q-3 -12 -7 -23.5t-9 -24t-9.5 -22t-11.5 -23.5t-11.5 -22.5t-13.5 -25t-13.5 -24.5t-16 -27t-15.5 -28 q-12 -23 -25 -46t-34.5 -58.5t-26.5 -44.5q-49 -90 -119 -195t-163.5 -239t-132.5 -191q-27 -40 -74.5 -102.5t-106 -138t-79.5 -102.5q-26 -35 -63 -77t-71 -77.5t-64.5 -66t-48.5 -47.5l-18 -18q-69 -84 -133 -62q-101 28 -123 245q-13 132 0 231z" />
<glyph unicode="&#xc7;" horiz-adv-x="1089" d="M-40 -285q-15 472 0 948q5 94 32 325q33 283 168 501q70 111 142 170q53 43 126.5 47.5t139 -27t100.5 -88.5q41 -64 63.5 -145.5t26 -160.5t-4.5 -160q0 -8 -11 -13.5t-26 -5.5h-6l-13 6.5t-16 10t-5 10.5q16 109 -10 246q-22 93 -31 115q-5 6 -12 17t-7 12 q-4 5 -8.5 9.5t-10.5 10t-9 8.5q-37 37 -77 48q-68 26 -118 -5q-53 -34 -85 -94.5t-56 -141.5q-43 -137 -72 -365q-7 -47 -11 -108t-5.5 -96t-2.5 -116.5t-1 -97.5q0 -96 -4 -269t-4.5 -265t5.5 -269q1 -10 5.5 -75t7.5 -89t10 -74.5t18.5 -88t26.5 -71.5q3 -4 7 -19 t10 -25.5t15 -10.5q6 3 12 4.5t10.5 4t11.5 9.5q48 66 77.5 112t64.5 113q333 677 521 1036q55 133 97 233q10 9 22.5 13.5t29.5 -0.5q14 -8 18.5 -23.5t-2.5 -29.5l-94 -223q-81 -158 -164 -326t-193.5 -394.5t-159.5 -324.5q-3 -7 -9 -20q-22 -46 -33.5 -69t-32.5 -58.5 t-47.5 -71.5t-65.5 -82q-4 -5 -6.5 -7t-6 -4.5t-8 -5t-15.5 -8.5t-24 -15q-40 -3 -53 -5q-76 0 -137 81q-44 56 -60 124q-43 186 -50 333zM133.5 -1109.5q-7.5 15.5 2.5 34.5q5 21 24.5 27.5t41.5 -3.5q20 -9 42.5 -6.5t38.5 14.5q13 11 15.5 31.5t-5.5 33.5q-5 10 -31 15 q-14 0 -19 -5q-18 -18 -51 -10q-5 3 -10 8t-9.5 11t-7 12.5t-2.5 10.5v11q-6 81 -3 122q0 20 14 34t33.5 14t33.5 -14t14 -34v-60q4 2 10.5 -1.5t9.5 -3.5q63 -12 95 -57q30 -42 22.5 -97t-46.5 -89q-43 -42 -110 -42q-38 0 -76 15q-19 13 -26.5 28.5z" />
<glyph unicode="&#xc8;" horiz-adv-x="1320" d="M-40 -412q6 48 20 105.5t24 90t33 103.5q58 178 115 288q124 236 356 488q83 94 173 181q77 82 102 104q3 3 8.5 7.5t8.5 7.5q33 38 91 115q14 20 21 31t14 30t7 36q0 5 -5 26q-17 22 -49 34t-64.5 13.5t-67.5 2t-60 0.5q-143 5 -430 0q-35 0 -67.5 4.5t-69 15.5t-63 35 t-37.5 57q0 2 -1 4.5t-1.5 4t-1.5 3.5t-1.5 4.5t-1.5 4.5q-22 120 115 252q5 5 14 13.5t13 11.5q65 62 168 137q15 11 17 13q8 5 24 17.5t24 17.5q38 32 50 39q2 2 15.5 12t17.5 12.5t16 10.5t18.5 11t17 7.5t20.5 7.5q58 17 115 -27q17 -5 29 -21q21 -18 30.5 -49.5 t5.5 -57.5q0 -10 -8 -21t-17 -11q-10 -4 -19 -2t-17 8.5t-12 14.5t-6.5 17.5t-4.5 22t-4 18.5v3q-17 0 2 18q-11 12 -33 15.5t-41 -3.5q-10 -2 -21.5 -8t-19 -11t-20 -13.5t-17.5 -11.5q-25 -22 -47 -36q-8 -7 -25 -20.5t-25 -19.5q-4 -3 -10.5 -8t-10.5 -7 q-16 -15 -75 -61.5t-87 -73.5q-5 -6 -16.5 -19t-17.5 -21t-16 -20.5t-14.5 -20.5t-10 -19t-6 -19t0.5 -16.5t7.5 -15t17.5 -11.5q26 -13 65 -18q42 -1 105 -1.5t110.5 -1.5t103.5 -3t110 -8t104 -16q22 -3 37 -6t41 -9t44.5 -12.5t42 -16t39.5 -21.5t31 -26.5t23 -33 t9 -40.5q2 -20 -9 -75q-6 -51 -52 -115q-15 -22 -32 -43.5t-37.5 -46.5t-29.5 -36l-14 -14q-5 -7 -38.5 -51.5t-39.5 -53.5q-76 -104 -119 -165t-103 -156t-101 -177q-14 -30 -43 -90t-44 -90q-16 -40 -35.5 -91.5t-38.5 -103t-36 -91.5q-61 -146 -98 -288 q-32 -118 -45 -257q-4 -15 -3 -36t11 -34q1 -2 3.5 -6.5t5 -7t6.5 -1.5q2 2 18 17.5t30 30.5l15 15q14 16 54.5 58.5t83.5 89.5t88 102q8 10 54 66t78 95.5t72.5 91t61.5 82.5q39 59 130 190t160.5 235.5t119.5 192.5q10 18 27.5 46.5t32 53t27.5 48.5q62 113 104 217 q20 36 57 16q25 -25 14 -47q-3 -12 -7 -23.5t-9 -24t-9 -22t-11.5 -23.5t-12 -22.5t-13.5 -25t-13.5 -24.5t-15.5 -27t-16 -28q-9 -18 -20.5 -39t-21 -36.5t-23.5 -37.5t-22 -36q-49 -90 -118 -194.5t-164 -240t-132 -190.5q-26 -40 -73.5 -102.5t-106.5 -138t-79 -102.5 q-43 -55 -109 -126t-111 -116l-45 -44q-69 -84 -134 -62q-102 28 -124 245q-13 132 0 231zM110 2286q-23 35 3 73q17 14 39.5 13t35.5 -18q90 -92 260 -241q22 -12 22 -42q0 -20 -14 -35q-33 -32 -73 -5q-134 108 -273 255z" />
<glyph unicode="&#xc9;" horiz-adv-x="1320" d="M-40 -412q6 48 20 105.5t24 90t33 103.5q58 178 115 288q124 236 356 488q83 94 173 181q77 82 102 104q3 3 8.5 7.5t8.5 7.5q33 38 91 115q14 20 21 31t14 30t7 36q0 5 -5 26q-17 22 -49 34t-64.5 13.5t-67.5 2t-60 0.5q-143 5 -430 0q-35 0 -67.5 4.5t-69 15.5t-63 35 t-37.5 57q0 2 -1 4.5t-1.5 4t-1.5 3.5t-1.5 4.5t-1.5 4.5q-22 120 115 252q5 5 14 13.5t13 11.5q65 62 168 137q15 11 17 13q8 5 24 17.5t24 17.5q38 32 50 39q2 2 15.5 12t17.5 12.5t16 10.5t18.5 11t17 7.5t20.5 7.5q58 17 115 -27q17 -5 29 -21q21 -18 30.5 -49.5 t5.5 -57.5q0 -10 -8 -21t-17 -11q-10 -4 -19 -2t-17 8.5t-12 14.5t-6.5 17.5t-4.5 22t-4 18.5v3q-17 0 2 18q-11 12 -33 15.5t-41 -3.5q-10 -2 -21.5 -8t-19 -11t-20 -13.5t-17.5 -11.5q-25 -22 -47 -36q-8 -7 -25 -20.5t-25 -19.5q-4 -3 -10.5 -8t-10.5 -7 q-16 -15 -75 -61.5t-87 -73.5q-5 -6 -16.5 -19t-17.5 -21t-16 -20.5t-14.5 -20.5t-10 -19t-6 -19t0.5 -16.5t7.5 -15t17.5 -11.5q26 -13 65 -18q42 -1 105 -1.5t110.5 -1.5t103.5 -3t110 -8t104 -16q22 -3 37 -6t41 -9t44.5 -12.5t42 -16t39.5 -21.5t31 -26.5t23 -33 t9 -40.5q2 -20 -9 -75q-6 -51 -52 -115q-15 -22 -32 -43.5t-37.5 -46.5t-29.5 -36l-14 -14q-5 -7 -38.5 -51.5t-39.5 -53.5q-76 -104 -119 -165t-103 -156t-101 -177q-14 -30 -43 -90t-44 -90q-16 -40 -35.5 -91.5t-38.5 -103t-36 -91.5q-61 -146 -98 -288 q-32 -118 -45 -257q-4 -15 -3 -36t11 -34q1 -2 3.5 -6.5t5 -7t6.5 -1.5q2 2 18 17.5t30 30.5l15 15q14 16 54.5 58.5t83.5 89.5t88 102q8 10 54 66t78 95.5t72.5 91t61.5 82.5q39 59 130 190t160.5 235.5t119.5 192.5q10 18 27.5 46.5t32 53t27.5 48.5q62 113 104 217 q20 36 57 16q25 -25 14 -47q-3 -12 -7 -23.5t-9 -24t-9 -22t-11.5 -23.5t-12 -22.5t-13.5 -25t-13.5 -24.5t-15.5 -27t-16 -28q-9 -18 -20.5 -39t-21 -36.5t-23.5 -37.5t-22 -36q-49 -90 -118 -194.5t-164 -240t-132 -190.5q-26 -40 -73.5 -102.5t-106.5 -138t-79 -102.5 q-43 -55 -109 -126t-111 -116l-45 -44q-69 -84 -134 -62q-102 28 -124 245q-13 132 0 231zM343 2051q107 133 255 272q33 23 73 -4q14 -17 12.5 -39.5t-17.5 -35.5q-93 -90 -241 -260q-12 -20 -42 -20q-22 0 -35 12q-33 33 -5 75z" />
<glyph unicode="&#xca;" horiz-adv-x="1320" d="M-40 -412q6 48 20 105.5t24 90t33 103.5q58 178 115 288q124 236 356 488q83 94 173 181q77 82 102 104q3 3 8.5 7.5t8.5 7.5q33 38 91 115q14 20 21 31t14 30t7 36q0 5 -5 26q-17 22 -49 34t-64.5 13.5t-67.5 2t-60 0.5q-143 5 -430 0q-35 0 -67.5 4.5t-69 15.5t-63 35 t-37.5 57q0 2 -1 4.5t-1.5 4t-1.5 3.5t-1.5 4.5t-1.5 4.5q-22 120 115 252q5 5 14 13.5t13 11.5q65 62 168 137q15 11 17 13q8 5 24 17.5t24 17.5q38 32 50 39q2 2 15.5 12t17.5 12.5t16 10.5t18.5 11t17 7.5t20.5 7.5q58 17 115 -27q17 -5 29 -21q21 -18 30.5 -49.5 t5.5 -57.5q0 -10 -8 -21t-17 -11q-10 -4 -19 -2t-17 8.5t-12 14.5t-6.5 17.5t-4.5 22t-4 18.5v3q-17 0 2 18q-11 12 -33 15.5t-41 -3.5q-10 -2 -21.5 -8t-19 -11t-20 -13.5t-17.5 -11.5q-25 -22 -47 -36q-8 -7 -25 -20.5t-25 -19.5q-4 -3 -10.5 -8t-10.5 -7 q-16 -15 -75 -61.5t-87 -73.5q-5 -6 -16.5 -19t-17.5 -21t-16 -20.5t-14.5 -20.5t-10 -19t-6 -19t0.5 -16.5t7.5 -15t17.5 -11.5q26 -13 65 -18q42 -1 105 -1.5t110.5 -1.5t103.5 -3t110 -8t104 -16q22 -3 37 -6t41 -9t44.5 -12.5t42 -16t39.5 -21.5t31 -26.5t23 -33 t9 -40.5q2 -20 -9 -75q-6 -51 -52 -115q-15 -22 -32 -43.5t-37.5 -46.5t-29.5 -36l-14 -14q-5 -7 -38.5 -51.5t-39.5 -53.5q-76 -104 -119 -165t-103 -156t-101 -177q-14 -30 -43 -90t-44 -90q-16 -40 -35.5 -91.5t-38.5 -103t-36 -91.5q-61 -146 -98 -288 q-32 -118 -45 -257q-4 -15 -3 -36t11 -34q1 -2 3.5 -6.5t5 -7t6.5 -1.5q2 2 18 17.5t30 30.5l15 15q14 16 54.5 58.5t83.5 89.5t88 102q8 10 54 66t78 95.5t72.5 91t61.5 82.5q39 59 130 190t160.5 235.5t119.5 192.5q10 18 27.5 46.5t32 53t27.5 48.5q62 113 104 217 q20 36 57 16q25 -25 14 -47q-3 -12 -7 -23.5t-9 -24t-9 -22t-11.5 -23.5t-12 -22.5t-13.5 -25t-13.5 -24.5t-15.5 -27t-16 -28q-9 -18 -20.5 -39t-21 -36.5t-23.5 -37.5t-22 -36q-49 -90 -118 -194.5t-164 -240t-132 -190.5q-26 -40 -73.5 -102.5t-106.5 -138t-79 -102.5 q-43 -55 -109 -126t-111 -116l-45 -44q-69 -84 -134 -62q-102 28 -124 245q-13 132 0 231zM444 3261.5q-7 19.5 1 35.5q17 31 54.5 80.5t68 85.5t30.5 37q18 17 39 17q28 0 41 -23q5 -6 39 -51t68 -90.5t41 -55.5q20 -40 -18 -70q-41 -21 -72 18q-3 7 -101 144 q-24 -26 -56 -70t-47 -74q-20 -21 -42 -21q-7 0 -23 8q-16 10 -23 29.5z" />
<glyph unicode="&#xcb;" horiz-adv-x="1320" d="M-40 -412q6 48 20 105.5t24 90t33 103.5q58 178 115 288q124 236 356 488q83 94 173 181q77 82 102 104q3 3 8.5 7.5t8.5 7.5q33 38 91 115q14 20 21 31t14 30t7 36q0 5 -5 26q-17 22 -49 34t-64.5 13.5t-67.5 2t-60 0.5q-143 5 -430 0q-35 0 -67.5 4.5t-69 15.5t-63 35 t-37.5 57q0 2 -1 4.5t-1.5 4t-1.5 3.5t-1.5 4.5t-1.5 4.5q-22 120 115 252q5 5 14 13.5t13 11.5q65 62 168 137q15 11 17 13q8 5 24 17.5t24 17.5q38 32 50 39q2 2 15.5 12t17.5 12.5t16 10.5t18.5 11t17 7.5t20.5 7.5q58 17 115 -27q17 -5 29 -21q21 -18 30.5 -49.5 t5.5 -57.5q0 -10 -8 -21t-17 -11q-10 -4 -19 -2t-17 8.5t-12 14.5t-6.5 17.5t-4.5 22t-4 18.5v3q-17 0 2 18q-11 12 -33 15.5t-41 -3.5q-10 -2 -21.5 -8t-19 -11t-20 -13.5t-17.5 -11.5q-25 -22 -47 -36q-8 -7 -25 -20.5t-25 -19.5q-4 -3 -10.5 -8t-10.5 -7 q-16 -15 -75 -61.5t-87 -73.5q-5 -6 -16.5 -19t-17.5 -21t-16 -20.5t-14.5 -20.5t-10 -19t-6 -19t0.5 -16.5t7.5 -15t17.5 -11.5q26 -13 65 -18q42 -1 105 -1.5t110.5 -1.5t103.5 -3t110 -8t104 -16q22 -3 37 -6t41 -9t44.5 -12.5t42 -16t39.5 -21.5t31 -26.5t23 -33 t9 -40.5q2 -20 -9 -75q-6 -51 -52 -115q-15 -22 -32 -43.5t-37.5 -46.5t-29.5 -36l-14 -14q-5 -7 -38.5 -51.5t-39.5 -53.5q-76 -104 -119 -165t-103 -156t-101 -177q-14 -30 -43 -90t-44 -90q-16 -40 -35.5 -91.5t-38.5 -103t-36 -91.5q-61 -146 -98 -288 q-32 -118 -45 -257q-4 -15 -3 -36t11 -34q1 -2 3.5 -6.5t5 -7t6.5 -1.5q2 2 18 17.5t30 30.5l15 15q14 16 54.5 58.5t83.5 89.5t88 102q8 10 54 66t78 95.5t72.5 91t61.5 82.5q39 59 130 190t160.5 235.5t119.5 192.5q10 18 27.5 46.5t32 53t27.5 48.5q62 113 104 217 q20 36 57 16q25 -25 14 -47q-3 -12 -7 -23.5t-9 -24t-9 -22t-11.5 -23.5t-12 -22.5t-13.5 -25t-13.5 -24.5t-15.5 -27t-16 -28q-9 -18 -20.5 -39t-21 -36.5t-23.5 -37.5t-22 -36q-49 -90 -118 -194.5t-164 -240t-132 -190.5q-26 -40 -73.5 -102.5t-106.5 -138t-79 -102.5 q-43 -55 -109 -126t-111 -116l-45 -44q-69 -84 -134 -62q-102 28 -124 245q-13 132 0 231zM265 2113q-21 86 50 133q39 25 75 25q3 -2 13.5 -6.5t20.5 -9t16 -9.5q39 -34 35 -88q0 -59 -53 -107q-29 -25 -70.5 -19.5t-60.5 36.5q-19 23 -26 45zM520 2121q-24 80 43 128 q39 24 77 24q3 -1 13 -5.5t20 -9.5t17 -9q36 -29 36 -88q-4 -61 -55 -108q-30 -24 -71 -18.5t-60 36.5q-16 20 -20 50z" />
<glyph unicode="&#xcc;" horiz-adv-x="803" d="M-51.5 919q-0.5 2 0 4t1.5 5q16 133 63 200q4 8 9.5 15.5t12 15t11 12.5t13 13t11.5 12q203 201 292 293q17 197 53 364q7 45 38 90q26 44 64.5 58t85.5 -3q38 -13 55 -50q10 -20 10 -69q-2 -62 -18.5 -120.5t-47.5 -113.5t-75 -99q-2 -68 -9 -364.5t-18 -455.5 q-2 -44 -6 -109.5t-6.5 -114.5t-6 -107.5t-5.5 -115t-4 -109.5q-1 -102 -19.5 -291.5t-22.5 -256.5q-2 -33 -7 -72t-11.5 -76.5t-14 -73.5t-15.5 -66t-15 -52q-2 -5 -6.5 -17.5t-7.5 -17.5q-4 -25 -20 -50q-22 -28 -60 -38h-11q-46 0 -76 50q-25 37 -21 99q0 9 1 18t3 18.5 t4 17t5 18.5t5 17q4 11 9 23.5t8 21.5q20 40 43 28q19 0 26.5 -15.5t-1.5 -34.5q-4 -8 -13 -43q-14 -38 -14 -75q-6 -26 9 -55q6 -12 10 -12q6 0 10 7q13 19 18 30q4 18 10 33q19 74 25 113q4 21 10 115q7 62 8 165t2 132q4 175 -3 315q-10 207 -2 448q1 58 4 258t6 322.5 t9 199.5q-21 -22 -80 -81t-108 -106l-49 -48l-10 -10l-10 -10t-8 -9t-9 -11.5t-7 -12.5q-8 -10 -14 -21t-10.5 -25t-7.5 -23t-7 -26.5t-5 -23.5t-4.5 -26.5t-4.5 -24.5q0 -8 -10.5 -13.5t-25.5 -5.5h-5q-2 1 -5.5 2.5t-5.5 2t-5 2t-5 3t-4.5 3t-3.5 3t-2.5 3.5t-2 4z M42 2257q-23 35 3 74q17 14 39.5 13t35.5 -18q98 -101 260 -242q21 -12 21 -42q0 -21 -13 -34q-32 -32 -73 -5q-139 111 -273 254zM532 1661q26 28 42.5 91.5t18.5 126.5q0 37 -11 42q-2 5 -10 -10q-3 -4 -4 -8q-21 -62 -25 -131q-4 -48 -11 -111z" />
<glyph unicode="&#xcd;" horiz-adv-x="803" d="M-51.5 919q-0.5 2 0 4t1.5 5q16 133 63 200q4 8 9.5 15.5t12 15t11 12.5t13 13t11.5 12q203 201 292 293q17 197 53 364q7 45 38 90q26 44 64.5 58t85.5 -3q38 -13 55 -50q10 -20 10 -69q-2 -62 -18.5 -120.5t-47.5 -113.5t-75 -99q-2 -68 -9 -364.5t-18 -455.5 q-2 -44 -6 -109.5t-6.5 -114.5t-6 -107.5t-5.5 -115t-4 -109.5q-1 -102 -19.5 -291.5t-22.5 -256.5q-2 -33 -7 -72t-11.5 -76.5t-14 -73.5t-15.5 -66t-15 -52q-2 -5 -6.5 -17.5t-7.5 -17.5q-4 -25 -20 -50q-22 -28 -60 -38h-11q-46 0 -76 50q-25 37 -21 99q0 9 1 18t3 18.5 t4 17t5 18.5t5 17q4 11 9 23.5t8 21.5q20 40 43 28q19 0 26.5 -15.5t-1.5 -34.5q-4 -8 -13 -43q-14 -38 -14 -75q-6 -26 9 -55q6 -12 10 -12q6 0 10 7q13 19 18 30q4 18 10 33q19 74 25 113q4 21 10 115q7 62 8 165t2 132q4 175 -3 315q-10 207 -2 448q1 58 4 258t6 322.5 t9 199.5q-21 -22 -80 -81t-108 -106l-49 -48l-10 -10l-10 -10t-8 -9t-9 -11.5t-7 -12.5q-8 -10 -14 -21t-10.5 -25t-7.5 -23t-7 -26.5t-5 -23.5t-4.5 -26.5t-4.5 -24.5q0 -8 -10.5 -13.5t-25.5 -5.5h-5q-2 1 -5.5 2.5t-5.5 2t-5 2t-5 3t-4.5 3t-3.5 3t-2.5 3.5t-2 4z M312 2066q111 138 254 273q35 23 74 -3q14 -17 13 -40.5t-18 -36.5q-108 -104 -242 -258q-12 -22 -42 -22q-21 0 -34 13q-32 32 -5 74zM532 1661q26 28 42.5 91.5t18.5 126.5q0 37 -11 42q-2 5 -10 -10q-3 -4 -4 -8q-21 -62 -25 -131q-4 -48 -11 -111z" />
<glyph unicode="&#xce;" horiz-adv-x="803" d="M-51.5 919q-0.5 2 0 4t1.5 5q16 133 63 200q4 8 9.5 15.5t12 15t11 12.5t13 13t11.5 12q203 201 292 293q17 197 53 364q7 45 38 90q26 44 64.5 58t85.5 -3q38 -13 55 -50q10 -20 10 -69q-2 -62 -18.5 -120.5t-47.5 -113.5t-75 -99q-2 -68 -9 -364.5t-18 -455.5 q-2 -44 -6 -109.5t-6.5 -114.5t-6 -107.5t-5.5 -115t-4 -109.5q-1 -102 -19.5 -291.5t-22.5 -256.5q-2 -33 -7 -72t-11.5 -76.5t-14 -73.5t-15.5 -66t-15 -52q-2 -5 -6.5 -17.5t-7.5 -17.5q-4 -25 -20 -50q-22 -28 -60 -38h-11q-46 0 -76 50q-25 37 -21 99q0 9 1 18t3 18.5 t4 17t5 18.5t5 17q4 11 9 23.5t8 21.5q20 40 43 28q19 0 26.5 -15.5t-1.5 -34.5q-4 -8 -13 -43q-14 -38 -14 -75q-6 -26 9 -55q6 -12 10 -12q6 0 10 7q13 19 18 30q4 18 10 33q19 74 25 113q4 21 10 115q7 62 8 165t2 132q4 175 -3 315q-10 207 -2 448q1 58 4 258t6 322.5 t9 199.5q-21 -22 -80 -81t-108 -106l-49 -48l-10 -10l-10 -10t-8 -9t-9 -11.5t-7 -12.5q-8 -10 -14 -21t-10.5 -25t-7.5 -23t-7 -26.5t-5 -23.5t-4.5 -26.5t-4.5 -24.5q0 -8 -10.5 -13.5t-25.5 -5.5h-5q-2 1 -5.5 2.5t-5.5 2t-5 2t-5 3t-4.5 3t-3.5 3t-2.5 3.5t-2 4z M339 2077q-7 20 1 36q11 20 30 47.5t39.5 53t39 48t31 37t13.5 15.5q19 19 39 19q28 0 43 -24q3 -5 70 -93.5t76 -102.5q20 -41 -18 -71q-40 -20 -71 19q-2 5 -19.5 30t-45 62t-37.5 51q-25 -27 -56.5 -70.5t-45.5 -72.5q-22 -22 -43 -22q-7 0 -23 8q-16 10 -23 30z M532 1661q26 28 42.5 91.5t18.5 126.5q0 37 -11 42q-2 5 -10 -10q-3 -4 -4 -8q-21 -62 -25 -131q-4 -48 -11 -111z" />
<glyph unicode="&#xcf;" horiz-adv-x="803" d="M-51.5 919q-0.5 2 0 4t1.5 5q16 133 63 200q4 8 9.5 15.5t12 15t11 12.5t13 13t11.5 12q203 201 292 293q17 197 53 364q7 45 38 90q26 44 64.5 58t85.5 -3q38 -13 55 -50q10 -20 10 -69q-2 -62 -18.5 -120.5t-47.5 -113.5t-75 -99q-2 -68 -9 -364.5t-18 -455.5 q-2 -44 -6 -109.5t-6.5 -114.5t-6 -107.5t-5.5 -115t-4 -109.5q-1 -102 -19.5 -291.5t-22.5 -256.5q-2 -33 -7 -72t-11.5 -76.5t-14 -73.5t-15.5 -66t-15 -52q-2 -5 -6.5 -17.5t-7.5 -17.5q-4 -25 -20 -50q-22 -28 -60 -38h-11q-46 0 -76 50q-25 37 -21 99q0 9 1 18t3 18.5 t4 17t5 18.5t5 17q4 11 9 23.5t8 21.5q20 40 43 28q19 0 26.5 -15.5t-1.5 -34.5q-4 -8 -13 -43q-14 -38 -14 -75q-6 -26 9 -55q6 -12 10 -12q6 0 10 7q13 19 18 30q4 18 10 33q19 74 25 113q4 21 10 115q7 62 8 165t2 132q4 175 -3 315q-10 207 -2 448q1 58 4 258t6 322.5 t9 199.5q-21 -22 -80 -81t-108 -106l-49 -48l-10 -10l-10 -10t-8 -9t-9 -11.5t-7 -12.5q-8 -10 -14 -21t-10.5 -25t-7.5 -23t-7 -26.5t-5 -23.5t-4.5 -26.5t-4.5 -24.5q0 -8 -10.5 -13.5t-25.5 -5.5h-5q-2 1 -5.5 2.5t-5.5 2t-5 2t-5 3t-4.5 3t-3.5 3t-2.5 3.5t-2 4z M31.5 2153q2.5 24 16 45.5t36.5 37.5q37 23 76 23q3 -2 13 -5.5t20 -8t17 -9.5q37 -33 33 -89q0 -61 -51 -108q-30 -24 -71.5 -18t-60.5 37q-19 24 -25 44q-6 27 -3.5 51zM288 2111q-23 79 45 128q37 23 75 23q1 -1 21 -9t29 -14q37 -30 37 -90q-3 -60 -55 -107 q-29 -25 -70 -19t-60 38q-18 22 -22 50zM532 1661q26 28 42.5 91.5t18.5 126.5q0 37 -11 42q-2 5 -10 -10q-3 -4 -4 -8q-21 -62 -25 -131q-4 -48 -11 -111z" />
<glyph unicode="&#xd0;" horiz-adv-x="1491" d="M-470 440q-4 23 8.5 41t33.5 22q360 77 713 29q19 -4 32.5 -20t10.5 -37q0 -22 -18 -36.5t-40 -10.5q-345 45 -678 -30h-9q-9 0 -17.5 3.5t-15.5 9t-12.5 13.5t-7.5 16zM-260 -870q0 48 10 136t12 118q2 33 7.5 97t7.5 97q78 900 78 1913q0 137 3 205q0 19 3.5 37 t11.5 35t25.5 25t41.5 3q16 -3 28 -10.5t20 -15.5t14 -22t8.5 -23.5t4 -27.5t1.5 -27t-0.5 -29t-0.5 -26q-7 -180 -7 -181q49 68 177.5 178.5t226.5 165.5q1 1 5 2.5t5 2.5q5 2 23.5 10t27 11t24 6.5t28.5 3.5q23 -1 44.5 -9t39.5 -21t33 -30t26 -38q58 -107 63 -277 q5 -85 5 -249q4 -69 0 -134q0 -218 -3 -325q-3 -102 -11.5 -287t-11.5 -211q12 11 37 35.5t36 36.5q36 37 87.5 86.5t70.5 69.5q85 74 179.5 183t122.5 189q1 1 3.5 2.5t10 5t14 4.5t15 -1t14.5 -8q8 -8 10 -14t-2 -27q-20 -61 -71 -133t-96.5 -119.5t-97 -96.5t-52.5 -50 q-27 -30 -53.5 -57t-41.5 -42t-29.5 -29t-16.5 -16q-5 -5 -42 -41.5t-60.5 -60.5t-42.5 -45q-3 -50 -7 -79.5t-12.5 -71.5t-14.5 -79q-24 -116 -55 -228q-1 -4 -5 -19t-5.5 -19.5t-5.5 -18.5t-6 -19.5t-6 -17t-7.5 -18.5t-8.5 -16.5t-10.5 -17t-11.5 -14.5 q-12 -17 -29.5 -34.5t-30 -28t-36 -29t-32.5 -25.5q-71 -62 -129 -91q-102 -55 -175 -55q-32 0 -45 3q-2 0 -7 4.5t-10.5 12t-9.5 18.5t-4 22q17 90 113 263q100 173 150 248q41 60 167 218q11 13 34.5 37t33.5 37q33 455 26 789q0 53 -1.5 113t-3.5 133t-3 113 q0 15 0.5 55.5t0 59t-1.5 54t-3.5 59t-8 54t-13.5 56.5q0 3 -4.5 20t-6 22t-6 19t-9 21t-11.5 16t-15 15q-28 18 -52 7q-2 0 -7 -2.5t-6 -2.5q-111 -67 -218 -164.5t-184 -205.5q0 -248 -3 -355v-15q-12 -649 -55 -1271q-8 -120 -28 -332q-3 -54 -6.5 -83.5t-16 -71 t-35.5 -76.5q-10 -22 -44 -34q-22 -7 -41 -2.5t-31.5 19t-12.5 33.5zM131 -700q22 -4 43.5 3t48.5 23.5t37 20.5q58 32 146 110q3 4 10.5 13.5t14 17t7.5 9.5q12 15 25 42q15 27 30 76q22 91 32 228q1 21 3 39t2.5 25.5t1 19t0.5 28.5q-86 -100 -165 -217q-22 -33 -57 -90.5 t-58 -98.5l-24 -42q-6 -11 -22.5 -40.5t-24 -43.5t-18.5 -37.5t-19 -43.5t-13 -42z" />
<glyph unicode="&#xd1;" horiz-adv-x="2382" d="M-46 1363q2 18 23 28q310 179 571 428q42 46 99 65t116 4q71 -21 128 -95q32 -45 47 -102q40 -153 40 -412q4 -222 -13 -474q-3 -43 -10.5 -129.5t-11.5 -151t-5 -128.5q0 -10 4 3q5 16 28 101q70 259 110 373q9 20 29.5 73.5t40 100t40.5 86.5q95 189 254 356 q13 17 31.5 33.5t29.5 18.5q19 6 50 0.5t54 -20.5q18 -14 32 -35q29 -51 32 -95q8 -70 8 -222q0 -82 -5 -251q-3 -54 -8 -158t-8 -168.5t-7 -154t-7 -164.5q-2 -49 -2.5 -97.5t0 -128t0.5 -97.5q-3 -37 10 -92q12 -43 37 -53q29 -8 73 35q2 2 9 8.5t12.5 12t7.5 8.5 q320 395 553 959q20 36 58 16q15 -16 15 -39q-216 -565 -576 -1000q-3 -4 -14.5 -15.5t-24.5 -24l-13 -12.5q-57 -49 -108 -46q-18 2 -35.5 10.5t-34 25t-26 28.5t-24.5 32q-55 81 -69 155q-18 80 -13 212q0 212 18 506q8 152 11 297q4 160 0 317q0 20 -3 85.5t-4 65.5 q-146 -153 -245 -343q-61 -121 -107 -254q-82 -220 -153 -553q-3 -30 -30 -160q-42 -237 -45 -399q-2 -49 -12 -141.5t-12 -133.5q-2 -6 -16 -42q-6 -19 -23 -26.5t-35 -4t-30 15.5q-1 1 -7 6t-9.5 9t-5.5 10q-37 72 -37 142v276q0 67 6 435q0 81 8.5 234.5t9.5 190.5 q20 443 5 855q0 9 -0.5 36t-1.5 40t-3 34.5t-6.5 39.5t-11.5 35q-12 29 -35 43.5t-52 9.5q-23 -8 -52 -30q-7 0 -108.5 -82.5t-247.5 -194.5t-239 -168h-13q-17 0 -30 13q-13 11 -11 29zM1093 1716q-4 43 2 65t30 38q32 23 81 37q32 0 50 -3q5 -2 18.5 -7t18.5 -8 q11 -5 31 -17t34.5 -20.5t33 -14.5t31.5 -3q2 0 5 5t3 10q0 17 11.5 27.5t22.5 10.5t16 -3q18 -9 18 -37v-13q0 -26 -15 -47q-19 -22 -61 -43q-22 -8 -43 -6t-48.5 14t-49.5 24t-47 24.5t-39 16.5q-3 0 -7.5 1.5t-5.5 1.5q-3 -1 -8.5 -3t-8.5 -3.5t-6 -6t-4 -10.5 q-2 -10 -0.5 -13.5t0.5 -4.5q-4 -10 -12 -17.5t-15 -9.5l-6 -2q-23 0 -30 17z" />
<glyph unicode="&#xd2;" horiz-adv-x="1416" d="M-32 380q-8 406 187 760q7 15 22.5 40.5t19.5 32.5q-33 237 68 483q19 43 42 82t55.5 80.5t76.5 75t93 53.5q112 49 291 21q173 -26 273 -117q56 -53 89 -121t41 -129q12 -57 14 -118.5t-4.5 -128t-15.5 -121.5t-24 -130q-46 -220 -128 -477q-4 -15 -14 -42t-13 -42 q49 8 147 55q53 26 93.5 55.5t68 63.5t39.5 70q15 26 47 26q27 -13 27 -44q-26 -87 -81.5 -139t-160.5 -103q-86 -42 -209 -66q-70 -213 -134 -350q-132 -283 -322 -446q-88 -71 -181 -71h-24q-79 7 -154 82q-53 36 -95.5 99.5t-66.5 130.5q-58 183 -67 435zM135 170 q0 -81 10 -147.5t34.5 -138t63.5 -131.5q1 -1 3.5 -3t10 -8.5t15 -11t19 -11t22 -9t24 -4t25.5 2.5q72 -7 144 53q52 43 99.5 97t87 114.5t73 122t63.5 131t53 130.5t46 131h-29q-123 2 -243 60t-218 162q-59 62 -100 117t-63 116q-76 -186 -118 -485q-11 -80 -16.5 -143.5 t-5.5 -144.5zM262 1311q47 71 148 184t201 209q41 41 67 24q11 10 48 -27q-121 -162 -128 -178q-109 -148 -202 -320q-58 -103 -79 -155q55 -153 176 -283q89 -94 194.5 -147t211.5 -55q38 0 58 3q5 16 17.5 57.5t18.5 63.5q75 227 126 469q15 75 24 125t16.5 114.5t6 121.5 t-12.5 111q-28 135 -107 208q-76 68 -236 96q-59 11 -110 11q-86 0 -139 -24q-147 -61 -226 -251q-37 -85 -58.5 -189.5t-14.5 -167.5zM771 2264q-24 36 2 75q17 13 40.5 12t36.5 -18q104 -107 258 -241q22 -13 22 -41q0 -21 -14 -35q-32 -32 -73 -5q-138 111 -272 253z" />
<glyph unicode="&#xd3;" horiz-adv-x="1416" d="M-32 380q-8 406 187 760q7 15 22.5 40.5t19.5 32.5q-33 237 68 483q19 43 42 82t55.5 80.5t76.5 75t93 53.5q112 49 291 21q173 -26 273 -117q56 -53 89 -121t41 -129q12 -57 14 -118.5t-4.5 -128t-15.5 -121.5t-24 -130q-46 -220 -128 -477q-4 -15 -14 -42t-13 -42 q49 8 147 55q53 26 93.5 55.5t68 63.5t39.5 70q15 26 47 26q27 -13 27 -44q-26 -87 -81.5 -139t-160.5 -103q-86 -42 -209 -66q-70 -213 -134 -350q-132 -283 -322 -446q-88 -71 -181 -71h-24q-79 7 -154 82q-53 36 -95.5 99.5t-66.5 130.5q-58 183 -67 435zM135 170 q0 -81 10 -147.5t34.5 -138t63.5 -131.5q1 -1 3.5 -3t10 -8.5t15 -11t19 -11t22 -9t24 -4t25.5 2.5q72 -7 144 53q52 43 99.5 97t87 114.5t73 122t63.5 131t53 130.5t46 131h-29q-123 2 -243 60t-218 162q-59 62 -100 117t-63 116q-76 -186 -118 -485q-11 -80 -16.5 -143.5 t-5.5 -144.5zM262 1311q47 71 148 184t201 209q41 41 67 24q11 10 48 -27q-121 -162 -128 -178q-109 -148 -202 -320q-58 -103 -79 -155q55 -153 176 -283q89 -94 194.5 -147t211.5 -55q38 0 58 3q5 16 17.5 57.5t18.5 63.5q75 227 126 469q15 75 24 125t16.5 114.5t6 121.5 t-12.5 111q-28 135 -107 208q-76 68 -236 96q-59 11 -110 11q-86 0 -139 -24q-147 -61 -226 -251q-37 -85 -58.5 -189.5t-14.5 -167.5zM695 2168q111 139 253 273q36 23 75 -3q14 -17 12.5 -40t-17.5 -36q-101 -98 -242 -260q-12 -21 -43 -21q-20 0 -33 13q-33 33 -5 74z " />
<glyph unicode="&#xd4;" horiz-adv-x="1416" d="M-32 380q-8 406 187 760q7 15 22.5 40.5t19.5 32.5q-33 237 68 483q19 43 42 82t55.5 80.5t76.5 75t93 53.5q112 49 291 21q173 -26 273 -117q56 -53 89 -121t41 -129q12 -57 14 -118.5t-4.5 -128t-15.5 -121.5t-24 -130q-46 -220 -128 -477q-4 -15 -14 -42t-13 -42 q49 8 147 55q53 26 93.5 55.5t68 63.5t39.5 70q15 26 47 26q27 -13 27 -44q-26 -87 -81.5 -139t-160.5 -103q-86 -42 -209 -66q-70 -213 -134 -350q-132 -283 -322 -446q-88 -71 -181 -71h-24q-79 7 -154 82q-53 36 -95.5 99.5t-66.5 130.5q-58 183 -67 435zM135 170 q0 -81 10 -147.5t34.5 -138t63.5 -131.5q1 -1 3.5 -3t10 -8.5t15 -11t19 -11t22 -9t24 -4t25.5 2.5q72 -7 144 53q52 43 99.5 97t87 114.5t73 122t63.5 131t53 130.5t46 131h-29q-123 2 -243 60t-218 162q-59 62 -100 117t-63 116q-76 -186 -118 -485q-11 -80 -16.5 -143.5 t-5.5 -144.5zM262 1311q47 71 148 184t201 209q41 41 67 24q11 10 48 -27q-121 -162 -128 -178q-109 -148 -202 -320q-58 -103 -79 -155q55 -153 176 -283q89 -94 194.5 -147t211.5 -55q38 0 58 3q5 16 17.5 57.5t18.5 63.5q75 227 126 469q15 75 24 125t16.5 114.5t6 121.5 t-12.5 111q-28 135 -107 208q-76 68 -236 96q-59 11 -110 11q-86 0 -139 -24q-147 -61 -226 -251q-37 -85 -58.5 -189.5t-14.5 -167.5zM658 2124.5q-7 20.5 2 36.5q17 31 54.5 79.5t68 84.5t30.5 37q19 19 39 19q27 0 41 -25q4 -5 71.5 -93.5t76.5 -101.5q20 -41 -18 -72 q-41 -20 -72 19q-2 6 -18.5 29.5t-45.5 63.5t-37 51q-25 -27 -56.5 -70.5t-45.5 -73.5q-22 -22 -43 -22q-9 0 -24 8q-16 10 -23 30.5z" />
<glyph unicode="&#xd5;" horiz-adv-x="1416" d="M-32 380q-8 406 187 760q7 15 22.5 40.5t19.5 32.5q-33 237 68 483q19 43 42 82t55.5 80.5t76.5 75t93 53.5q112 49 291 21q173 -26 273 -117q56 -53 89 -121t41 -129q12 -57 14 -118.5t-4.5 -128t-15.5 -121.5t-24 -130q-46 -220 -128 -477q-4 -15 -14 -42t-13 -42 q49 8 147 55q53 26 93.5 55.5t68 63.5t39.5 70q15 26 47 26q27 -13 27 -44q-26 -87 -81.5 -139t-160.5 -103q-86 -42 -209 -66q-70 -213 -134 -350q-132 -283 -322 -446q-88 -71 -181 -71h-24q-79 7 -154 82q-53 36 -95.5 99.5t-66.5 130.5q-58 183 -67 435zM135 170 q0 -81 10 -147.5t34.5 -138t63.5 -131.5q1 -1 3.5 -3t10 -8.5t15 -11t19 -11t22 -9t24 -4t25.5 2.5q72 -7 144 53q52 43 99.5 97t87 114.5t73 122t63.5 131t53 130.5t46 131h-29q-123 2 -243 60t-218 162q-59 62 -100 117t-63 116q-76 -186 -118 -485q-11 -80 -16.5 -143.5 t-5.5 -144.5zM262 1311q47 71 148 184t201 209q41 41 67 24q11 10 48 -27q-121 -162 -128 -178q-109 -148 -202 -320q-58 -103 -79 -155q55 -153 176 -283q89 -94 194.5 -147t211.5 -55q38 0 58 3q5 16 17.5 57.5t18.5 63.5q75 227 126 469q15 75 24 125t16.5 114.5t6 121.5 t-12.5 111q-28 135 -107 208q-76 68 -236 96q-59 11 -110 11q-86 0 -139 -24q-147 -61 -226 -251q-37 -85 -58.5 -189.5t-14.5 -167.5zM687 2124q-4 43 1.5 64.5t29.5 37.5q28 20 82 36q32 0 50 -3q5 -2 18 -7.5t18 -7.5q11 -5 40 -22.5t51.5 -27t40.5 -5.5q2 0 4.5 5 t2.5 10q0 17 11.5 27.5t22.5 10t16 -2.5q18 -9 18 -37v-13q0 -26 -15 -48q-18 -21 -60 -42q-15 -8 -36 -6.5t-40 8t-42 18t-41 22t-38 20t-33 12.5q-2 0 -6.5 1.5t-5.5 1.5q-2 -1 -8 -3.5t-8.5 -4t-5.5 -6t-4 -10.5q-1 -12 0 -14t0 -4q-3 -10 -12 -17.5t-16 -8.5l-6 -2 q-21 0 -29 18z" />
<glyph unicode="&#xd6;" horiz-adv-x="1416" d="M-32 380q-8 406 187 760q7 15 22.5 40.5t19.5 32.5q-33 237 68 483q19 43 42 82t55.5 80.5t76.5 75t93 53.5q112 49 291 21q173 -26 273 -117q56 -53 89 -121t41 -129q12 -57 14 -118.5t-4.5 -128t-15.5 -121.5t-24 -130q-46 -220 -128 -477q-4 -15 -14 -42t-13 -42 q49 8 147 55q53 26 93.5 55.5t68 63.5t39.5 70q15 26 47 26q27 -13 27 -44q-26 -87 -81.5 -139t-160.5 -103q-86 -42 -209 -66q-70 -213 -134 -350q-132 -283 -322 -446q-88 -71 -181 -71h-24q-79 7 -154 82q-53 36 -95.5 99.5t-66.5 130.5q-58 183 -67 435zM135 170 q0 -81 10 -147.5t34.5 -138t63.5 -131.5q1 -1 3.5 -3t10 -8.5t15 -11t19 -11t22 -9t24 -4t25.5 2.5q72 -7 144 53q52 43 99.5 97t87 114.5t73 122t63.5 131t53 130.5t46 131h-29q-123 2 -243 60t-218 162q-59 62 -100 117t-63 116q-76 -186 -118 -485q-11 -80 -16.5 -143.5 t-5.5 -144.5zM262 1311q47 71 148 184t201 209q41 41 67 24q11 10 48 -27q-121 -162 -128 -178q-109 -148 -202 -320q-58 -103 -79 -155q55 -153 176 -283q89 -94 194.5 -147t211.5 -55q38 0 58 3q5 16 17.5 57.5t18.5 63.5q75 227 126 469q15 75 24 125t16.5 114.5t6 121.5 t-12.5 111q-28 135 -107 208q-76 68 -236 96q-59 11 -110 11q-86 0 -139 -24q-147 -61 -226 -251q-37 -85 -58.5 -189.5t-14.5 -167.5zM611 2184q-21 85 49 133q39 24 76 24q3 -1 13 -5.5t20 -9.5t17 -9q38 -34 34 -89q0 -59 -52 -107q-30 -24 -71 -19t-60 37q-20 25 -26 45 zM865 2191q-23 80 45 128q39 25 76 25q3 -2 13 -6.5l20 -9t17 -9.5q37 -29 37 -88q-4 -60 -55 -107q-30 -25 -71.5 -19.5t-60.5 36.5q-16 21 -21 50z" />
<glyph unicode="&#xd7;" horiz-adv-x="833" d="M-12 148.5q-1 22.5 9 34.5q167 151 333 330q-144 137 -335 282q-21 42 5 68q14 14 35 16t35 -11q167 -129 328 -283q145 161 232 267q14 14 35 16.5t35 -10.5q18 -13 18.5 -36.5t-10.5 -35.5q-105 -128 -233 -266q87 -83 280 -292q13 -14 12 -35.5t-14 -35.5 q-14 -13 -36 -12t-36 15q-130 149 -275 283q-162 -173 -341 -333q-16 -14 -33.5 -11.5t-34.5 19.5q-8 8 -9 30.5z" />
<glyph unicode="&#xd8;" horiz-adv-x="1416" d="M-32 380q-8 406 187 760q7 15 22.5 40.5t19.5 32.5q-33 237 68 483q19 43 42 82t55.5 80.5t76.5 75t93 53.5q112 49 291 21q173 -26 273 -117q56 -53 89 -121t41 -129q12 -57 14 -118.5t-4.5 -128t-15.5 -121.5t-24 -130q-46 -220 -128 -477q-4 -15 -14 -42t-13 -42 q49 8 147 55q53 26 93.5 55.5t68 63.5t39.5 70q15 26 47 26q27 -13 27 -44q-26 -87 -81.5 -139t-160.5 -103q-86 -42 -209 -66q-70 -213 -134 -350q-132 -283 -322 -446q-88 -71 -181 -71h-24q-79 7 -154 82q-53 36 -95.5 99.5t-66.5 130.5q-58 183 -67 435zM135 170 q0 -81 10 -147.5t34.5 -138t63.5 -131.5q1 -1 3.5 -3t10 -8.5t15 -11t19 -11t22 -9t24 -4t25.5 2.5q72 -7 144 53q52 43 99.5 97t87 114.5t73 122t63.5 131t53 130.5t46 131h-29q-123 2 -243 60t-218 162q-59 62 -100 117t-63 116q-76 -186 -118 -485q-11 -80 -16.5 -143.5 t-5.5 -144.5zM262 1311q47 71 148 184t201 209q41 41 67 24q11 10 48 -27q-121 -162 -128 -178q-109 -148 -202 -320q-58 -103 -79 -155q55 -153 176 -283q89 -94 194.5 -147t211.5 -55q38 0 58 3q5 16 17.5 57.5t18.5 63.5q75 227 126 469q15 75 24 125t16.5 114.5t6 121.5 t-12.5 111q-28 135 -107 208q-76 68 -236 96q-59 11 -110 11q-86 0 -139 -24q-147 -61 -226 -251q-37 -85 -58.5 -189.5t-14.5 -167.5zM298 -566q220 1357 604 2684q6 30 25 41t38 -1q17 -13 23 -48.5t0 -65.5q-367 -1263 -592 -2649q-8 -49 -45 -63h-18q-16 12 -27 43.5 t-8 58.5z" />
<glyph unicode="&#xd9;" horiz-adv-x="1543" d="M-34.5 768q5.5 38 13 68t18.5 60q1 1 27.5 66.5t63.5 154.5t59 139q11 24 34 77t44 103t40 96t23 54l45 84q22 26 43.5 36t53.5 8h9.5h10.5h10t11 -1.5t9 -3.5q99 -30 155 -121q66 -106 91 -235q22 -120 22 -215q3 -99 0 -195q-2 -33 -3 -78t-2.5 -89.5t-2.5 -77.5 q0 -64 -7 -352q-1 -29 -5.5 -95t-6.5 -114.5t0 -94.5q0 -40 3.5 -155t3.5 -125q1 -13 3.5 -33t5 -39.5t3.5 -32.5q1 -7 4 -28.5t6 -35.5t8 -26q9 -22 25 -34q1 -1 10 -7.5t15 -8.5q44 8 87 47.5t93 115.5q96 141 165.5 368t104.5 515q30 251 28 506t-35 452q0 15 11 28.5 t26 13.5q10 0 18.5 -4.5t14 -12.5t5.5 -18q34 -200 36 -458t-28 -514q-31 -277 -99 -509q-67 -240 -184 -409q-51 -79 -96.5 -126.5t-104.5 -64.5l-37 -10q-99 -26 -173 70q-43 58 -63 170q-3 14 -5.5 28.5t-4.5 30t-3.5 28t-3 30t-2.5 28.5t-2.5 30.5t-2 28.5t-1.5 30 t-2 29q-3 64 -3.5 132.5t0.5 163t1 131.5q6 357 8 436q0 38 3.5 115t4.5 115t-1 115q-4 173 -38 338q-14 65 -72 108q-10 11 -33 10.5t-37 -18.5q-8 -12 -26 -47q-5 -12 -33 -73.5t-62.5 -139t-46.5 -102.5q-22 -47 -57.5 -134.5t-61.5 -152t-28 -67.5q-3 -8 -11.5 -26.5 t-15 -34.5t-11.5 -33t-3 -29t13 -16q36 -20 15 -58q-6 -5 -16 -10t-16 -5h-5h-4t-3 0.5t-3.5 2t-4.5 5.5q-25 9 -34 36.5t-3.5 65.5zM750 1898q-23 35 3 73q17 14 39.5 13t35.5 -18q90 -92 260 -241q20 -11 20 -42q0 -22 -12 -34q-33 -33 -73 -5q-134 107 -273 254z" />
<glyph unicode="&#xda;" horiz-adv-x="1543" d="M-34.5 768q5.5 38 13 68t18.5 60q1 1 27.5 66.5t63.5 154.5t59 139q11 24 34 77t44 103t40 96t23 54l45 84q22 26 43.5 36t53.5 8h9.5h10.5h10t11 -1.5t9 -3.5q99 -30 155 -121q66 -106 91 -235q22 -120 22 -215q3 -99 0 -195q-2 -33 -3 -78t-2.5 -89.5t-2.5 -77.5 q0 -64 -7 -352q-1 -29 -5.5 -95t-6.5 -114.5t0 -94.5q0 -40 3.5 -155t3.5 -125q1 -13 3.5 -33t5 -39.5t3.5 -32.5q1 -7 4 -28.5t6 -35.5t8 -26q9 -22 25 -34q1 -1 10 -7.5t15 -8.5q44 8 87 47.5t93 115.5q96 141 165.5 368t104.5 515q30 251 28 506t-35 452q0 15 11 28.5 t26 13.5q10 0 18.5 -4.5t14 -12.5t5.5 -18q34 -200 36 -458t-28 -514q-31 -277 -99 -509q-67 -240 -184 -409q-51 -79 -96.5 -126.5t-104.5 -64.5l-37 -10q-99 -26 -173 70q-43 58 -63 170q-3 14 -5.5 28.5t-4.5 30t-3.5 28t-3 30t-2.5 28.5t-2.5 30.5t-2 28.5t-1.5 30 t-2 29q-3 64 -3.5 132.5t0.5 163t1 131.5q6 357 8 436q0 38 3.5 115t4.5 115t-1 115q-4 173 -38 338q-14 65 -72 108q-10 11 -33 10.5t-37 -18.5q-8 -12 -26 -47q-5 -12 -33 -73.5t-62.5 -139t-46.5 -102.5q-22 -47 -57.5 -134.5t-61.5 -152t-28 -67.5q-3 -8 -11.5 -26.5 t-15 -34.5t-11.5 -33t-3 -29t13 -16q36 -20 15 -58q-6 -5 -16 -10t-16 -5h-5h-4t-3 0.5t-3.5 2t-4.5 5.5q-25 9 -34 36.5t-3.5 65.5zM828 1746q107 133 255 273q34 23 73 -3q14 -17 13 -39.5t-18 -36.5q-92 -89 -241 -259q-12 -22 -42 -22q-21 0 -35 14q-32 32 -5 73z" />
<glyph unicode="&#xdb;" horiz-adv-x="1543" d="M-34.5 768q5.5 38 13 68t18.5 60q1 1 27.5 66.5t63.5 154.5t59 139q11 24 34 77t44 103t40 96t23 54l45 84q22 26 43.5 36t53.5 8h9.5h10.5h10t11 -1.5t9 -3.5q99 -30 155 -121q66 -106 91 -235q22 -120 22 -215q3 -99 0 -195q-2 -33 -3 -78t-2.5 -89.5t-2.5 -77.5 q0 -64 -7 -352q-1 -29 -5.5 -95t-6.5 -114.5t0 -94.5q0 -40 3.5 -155t3.5 -125q1 -13 3.5 -33t5 -39.5t3.5 -32.5q1 -7 4 -28.5t6 -35.5t8 -26q9 -22 25 -34q1 -1 10 -7.5t15 -8.5q44 8 87 47.5t93 115.5q96 141 165.5 368t104.5 515q30 251 28 506t-35 452q0 15 11 28.5 t26 13.5q10 0 18.5 -4.5t14 -12.5t5.5 -18q34 -200 36 -458t-28 -514q-31 -277 -99 -509q-67 -240 -184 -409q-51 -79 -96.5 -126.5t-104.5 -64.5l-37 -10q-99 -26 -173 70q-43 58 -63 170q-3 14 -5.5 28.5t-4.5 30t-3.5 28t-3 30t-2.5 28.5t-2.5 30.5t-2 28.5t-1.5 30 t-2 29q-3 64 -3.5 132.5t0.5 163t1 131.5q6 357 8 436q0 38 3.5 115t4.5 115t-1 115q-4 173 -38 338q-14 65 -72 108q-10 11 -33 10.5t-37 -18.5q-8 -12 -26 -47q-5 -12 -33 -73.5t-62.5 -139t-46.5 -102.5q-22 -47 -57.5 -134.5t-61.5 -152t-28 -67.5q-3 -8 -11.5 -26.5 t-15 -34.5t-11.5 -33t-3 -29t13 -16q36 -20 15 -58q-6 -5 -16 -10t-16 -5h-5h-4t-3 0.5t-3.5 2t-4.5 5.5q-25 9 -34 36.5t-3.5 65.5zM768.5 1775.5q-6.5 19.5 2.5 35.5q16 31 53.5 80.5t68 85.5l30.5 36q18 18 40 18q27 0 41 -23q4 -6 38 -51.5t68 -90.5t41 -55 q20 -40 -18 -70q-41 -21 -72 18q-3 7 -101 144q-24 -26 -56 -70t-46 -74q-21 -21 -43 -21q-9 0 -24 8q-16 10 -22.5 29.5z" />
<glyph unicode="&#xdc;" horiz-adv-x="1543" d="M-34.5 768q5.5 38 13 68t18.5 60q1 1 27.5 66.5t63.5 154.5t59 139q11 24 34 77t44 103t40 96t23 54l45 84q22 26 43.5 36t53.5 8h9.5h10.5h10t11 -1.5t9 -3.5q99 -30 155 -121q66 -106 91 -235q22 -120 22 -215q3 -99 0 -195q-2 -33 -3 -78t-2.5 -89.5t-2.5 -77.5 q0 -64 -7 -352q-1 -29 -5.5 -95t-6.5 -114.5t0 -94.5q0 -40 3.5 -155t3.5 -125q1 -13 3.5 -33t5 -39.5t3.5 -32.5q1 -7 4 -28.5t6 -35.5t8 -26q9 -22 25 -34q1 -1 10 -7.5t15 -8.5q44 8 87 47.5t93 115.5q96 141 165.5 368t104.5 515q30 251 28 506t-35 452q0 15 11 28.5 t26 13.5q10 0 18.5 -4.5t14 -12.5t5.5 -18q34 -200 36 -458t-28 -514q-31 -277 -99 -509q-67 -240 -184 -409q-51 -79 -96.5 -126.5t-104.5 -64.5l-37 -10q-99 -26 -173 70q-43 58 -63 170q-3 14 -5.5 28.5t-4.5 30t-3.5 28t-3 30t-2.5 28.5t-2.5 30.5t-2 28.5t-1.5 30 t-2 29q-3 64 -3.5 132.5t0.5 163t1 131.5q6 357 8 436q0 38 3.5 115t4.5 115t-1 115q-4 173 -38 338q-14 65 -72 108q-10 11 -33 10.5t-37 -18.5q-8 -12 -26 -47q-5 -12 -33 -73.5t-62.5 -139t-46.5 -102.5q-22 -47 -57.5 -134.5t-61.5 -152t-28 -67.5q-3 -8 -11.5 -26.5 t-15 -34.5t-11.5 -33t-3 -29t13 -16q36 -20 15 -58q-6 -5 -16 -10t-16 -5h-5h-4t-3 0.5t-3.5 2t-4.5 5.5q-25 9 -34 36.5t-3.5 65.5zM723 1827q-10 40 2.5 75t47.5 59q37 23 77 23q3 -2 9.5 -4.5t12.5 -5t13.5 -6.5t13.5 -7q17 -16 26.5 -40t7.5 -50q0 -59 -52 -107 q-30 -24 -71 -18.5t-60 37.5q-21 27 -27 44zM978 1836q-23 79 45 128q37 23 75 23q1 -1 21 -9t29 -14q37 -30 37 -90q-3 -60 -55 -108q-29 -24 -70.5 -18t-61.5 38q-16 20 -20 50z" />
<glyph unicode="&#xdd;" horiz-adv-x="1706" d="M-15 566q-29 285 17.5 595.5t147.5 618.5q10 31 52 31q13 -6 22 -19.5t9 -27.5v-13q-56 -167 -86 -383q-2 -19 -10.5 -79.5t-11.5 -88t-8 -75.5t-6.5 -88t-0.5 -80q3 -157 58 -394q24 -105 75 -193q26 -49 72 -53q50 0 75 11q13 6 40 18q41 21 78 62q14 15 28.5 34t24 32 t25.5 38t21.5 34.5t23.5 40.5t22 36q73 122 92 160q63 108 78 135q34 59 95 178q14 28 20 47q5 10 15 29.5t16.5 32t16 29t18.5 29.5q32 60 49 82q20 31 55 41.5t67 -7.5q15 -7 27.5 -19.5t20 -23.5t14.5 -31t10 -30.5l9 -31.5q26 -89 39 -163q19 -100 23 -212 q8 -178 -7 -355q0 -25 -3 -38q5 4 17.5 9t17.5 9q43 28 58.5 38.5t55 38t58 43t49 43.5t47.5 51t35.5 53t29.5 60q0 2 2.5 5t3 4.5t3 4.5t3.5 4l4 4t4.5 3.5t5 2.5t6 1.5t7 0.5t8.5 0q17 0 25 -17.5t0 -35.5q-9 -34 -26 -67t-35.5 -58.5t-48 -54.5t-51.5 -48t-60.5 -46 t-60.5 -41t-64 -41q-14 -9 -21 -13q-30 -17 -88 -58q-19 -112 -25 -134q-4 -24 -16.5 -72t-13.5 -54l-9.5 -32t-24 -78t-31 -99t-35 -105.5t-32.5 -86.5q-24 -54 -42 -93t-45.5 -91t-54.5 -91t-63 -78.5t-75 -68.5q-5 -3 -10.5 -6.5t-9.5 -6.5t-9.5 -6t-10 -6t-10 -5.5 t-11.5 -4.5q-56 -29 -112 -47q-39 -15 -78 -15q-54 0 -87 29q-42 42 -27 108q73 285 275 586q34 51 80 105t79.5 88t93 93t86.5 86q16 17 28 30q1 0 20 146q22 244 25 417q0 13 1.5 55.5t1.5 59.5t-0.5 54.5t-2.5 60t-6 54t-11.5 59t-16.5 53.5q-3 2 -5.5 2.5t-3.5 -0.5 t-3.5 -4t-3.5 -4q-6 -6 -15 -19.5t-10 -15.5q-43 -71 -64 -122q-4 -8 -12 -25t-11 -25q-61 -118 -95 -180q-24 -44 -78 -136q-5 -9 -27 -45.5t-45.5 -74.5t-24.5 -40q-30 -51 -48 -81t-47.5 -72t-57.5 -72q-28 -32 -65 -58q-59 -51 -115 -66q-93 -27 -170.5 -3.5t-133 86 t-79.5 151.5q-11 42 -15 96zM533.5 -710.5q-0.5 -2.5 0.5 -6t4 -6.5q14 -11 39.5 -11t45.5 8q81 29 127 58q3 2 8 6t7 7q8 6 15.5 13.5t13.5 14t12.5 17.5t11 17t11 19.5t9 18t9 20t8 19t8.5 20.5t7 19q57 110 90 212q42 130 83 328q5 19 22.5 77.5t19.5 74.5 q-55 -56 -140.5 -156t-144.5 -187q-184 -272 -262 -564q-1 -3 -2.5 -9.5t-2 -9zM593 1836q107 133 254 272q35 23 73 -2q14 -17 13 -40.5t-18 -36.5q-100 -98 -242 -260q-11 -21 -41 -21q-21 0 -34 13q-33 33 -5 75z" />
<glyph unicode="&#xdf;" horiz-adv-x="1048" d="M-5 -353q4 9 7.5 21t6 29t4.5 23q4 28 13 86q140 887 194 1332q26 225 55 335q56 192 153 307q45 54 113 72.5t132 -6.5q41 -15 76 -48t55 -66t34 -71q43 -116 43 -225q-5 -128 -48 -223q-38 -108 -115 -193q-40 -46 -50 -52q6 0 28 -16.5t51.5 -46t47.5 -58.5 q101 -152 93 -372q-7 -167 -85 -380q-74 -195 -177 -370q-36 -62 -86.5 -94.5t-101.5 -8.5q-61 24 -76 123q-19 146 25 292t140 259q17 13 31.5 12.5t23.5 -10.5q14 -17 13 -29.5t-10 -21.5q-88 -98 -127 -228t-20 -260q8 -60 29 -69q42 -17 94 72q86 143 172 361 q17 45 30.5 89t25.5 96.5t18 101.5t6 102.5t-7.5 102.5t-25.5 98t-47 92q-24 34 -58 58.5t-67 29.5q-30 5 -42 0q-12 -7 -23 -15q-17 -6 -30.5 -2.5t-22.5 12.5q-7 17 -4 32t12 23q5 3 17.5 12t19.5 10q66 38 119 95.5t87.5 126.5t51 144t11 153t-32.5 149q-46 118 -123 145 q-43 14 -89 1.5t-74 -46.5q-33 -39 -59 -84t-45 -98t-32 -97.5t-23.5 -109t-16 -104.5t-13.5 -110q-61 -499 -206 -1423q-8 -51 -30 -100q-15 -15 -31 -15q-2 0 -6.5 1t-7.5 1q-36 16 -20 53z" />
<glyph unicode="&#xe0;" horiz-adv-x="848" d="M-131 545q0 101 29 200q66 253 210 340q78 49 139 -12q10 -6 18 -17.5t8 -22.5q2 1 7 3t18 6t25 5.5t25.5 -0.5t21.5 -9q28 -28 36 -63q11 -46 11 -79q0 -16 1.5 -44t1.5 -44q0 -59 2 -85v-105q0 -208 -2 -313q-1 -21 -1 -45t0.5 -53.5t0.5 -46.5v-73q0 -19 5 -40l8 -12 q0 -1 4.5 4.5t9.5 14t10.5 17.5t8.5 15l4 6q27 64 65 158l50 125l148 370q0 3 9 23.5t17 38.5l9 19q6 12 19 16t31 -1q9 -5 13.5 -8t8.5 -8.5t2.5 -13.5t-6.5 -20q-23 -58 -23 -60l-77 -183l-78 -197q-74 -199 -97 -249q-35 -91 -81 -162q-30 -42 -77.5 -36.5t-69.5 54.5 q-8 15 -15 32t-11.5 30t-8.5 32.5t-6.5 30t-5 33t-3 30.5t-3 34.5t-2.5 31.5q0 4 -1.5 15t-1.5 16q0 9 -5 40q-8 71 -8 150v87q0 140 3 211v52q-9 -25 -19.5 -50t-23 -52.5t-21.5 -46t-24.5 -51t-21.5 -45.5l-32 -68q-2 -3 -7 -12.5t-11.5 -22t-12.5 -20.5q-1 -2 -3 -5 t-8.5 -11.5t-13.5 -16t-17.5 -17t-20.5 -16.5t-22.5 -11.5t-24.5 -4.5q-30 -4 -56.5 16.5t-38.5 56.5q-18 62 -18 139zM26 483q7 5 29 33q15 29 38.5 77t73 161t71.5 184q3 22 17 58q-11 -10 -30 -10q-23 3 -40 -9.5t-35 -38.5q-21 -32 -45 -83q-30 -53 -37 -90 q-39 -146 -39 -252q0 -27 -3 -30zM76 1441q-24 35 2 75q17 13 40.5 12t36.5 -18q97 -100 260 -242q20 -11 20 -42q0 -20 -13 -33q-32 -33 -74 -5q-138 111 -272 253z" />
<glyph unicode="&#xe1;" horiz-adv-x="848" d="M-131 545q0 101 29 200q66 253 210 340q78 49 139 -12q10 -6 18 -17.5t8 -22.5q2 1 7 3t18 6t25 5.5t25.5 -0.5t21.5 -9q28 -28 36 -63q11 -46 11 -79q0 -16 1.5 -44t1.5 -44q0 -59 2 -85v-105q0 -208 -2 -313q-1 -21 -1 -45t0.5 -53.5t0.5 -46.5v-73q0 -19 5 -40l8 -12 q0 -1 4.5 4.5t9.5 14t10.5 17.5t8.5 15l4 6q27 64 65 158l50 125l148 370q0 3 9 23.5t17 38.5l9 19q6 12 19 16t31 -1q9 -5 13.5 -8t8.5 -8.5t2.5 -13.5t-6.5 -20q-23 -58 -23 -60l-77 -183l-78 -197q-74 -199 -97 -249q-35 -91 -81 -162q-30 -42 -77.5 -36.5t-69.5 54.5 q-8 15 -15 32t-11.5 30t-8.5 32.5t-6.5 30t-5 33t-3 30.5t-3 34.5t-2.5 31.5q0 4 -1.5 15t-1.5 16q0 9 -5 40q-8 71 -8 150v87q0 140 3 211v52q-9 -25 -19.5 -50t-23 -52.5t-21.5 -46t-24.5 -51t-21.5 -45.5l-32 -68q-2 -3 -7 -12.5t-11.5 -22t-12.5 -20.5q-1 -2 -3 -5 t-8.5 -11.5t-13.5 -16t-17.5 -17t-20.5 -16.5t-22.5 -11.5t-24.5 -4.5q-30 -4 -56.5 16.5t-38.5 56.5q-18 62 -18 139zM26 483q7 5 29 33q15 29 38.5 77t73 161t71.5 184q3 22 17 58q-11 -10 -30 -10q-23 3 -40 -9.5t-35 -38.5q-21 -32 -45 -83q-30 -53 -37 -90 q-39 -146 -39 -252q0 -27 -3 -30zM65 1268q107 134 255 273q35 23 73 -2q14 -17 13 -40t-18 -36q-92 -89 -241 -260q-12 -20 -42 -20q-22 0 -35 13q-32 32 -5 72z" />
<glyph unicode="&#xe2;" horiz-adv-x="848" d="M-131 545q0 101 29 200q66 253 210 340q78 49 139 -12q10 -6 18 -17.5t8 -22.5q2 1 7 3t18 6t25 5.5t25.5 -0.5t21.5 -9q28 -28 36 -63q11 -46 11 -79q0 -16 1.5 -44t1.5 -44q0 -59 2 -85v-105q0 -208 -2 -313q-1 -21 -1 -45t0.5 -53.5t0.5 -46.5v-73q0 -19 5 -40l8 -12 q0 -1 4.5 4.5t9.5 14t10.5 17.5t8.5 15l4 6q27 64 65 158l50 125l148 370q0 3 9 23.5t17 38.5l9 19q6 12 19 16t31 -1q9 -5 13.5 -8t8.5 -8.5t2.5 -13.5t-6.5 -20q-23 -58 -23 -60l-77 -183l-78 -197q-74 -199 -97 -249q-35 -91 -81 -162q-30 -42 -77.5 -36.5t-69.5 54.5 q-8 15 -15 32t-11.5 30t-8.5 32.5t-6.5 30t-5 33t-3 30.5t-3 34.5t-2.5 31.5q0 4 -1.5 15t-1.5 16q0 9 -5 40q-8 71 -8 150v87q0 140 3 211v52q-9 -25 -19.5 -50t-23 -52.5t-21.5 -46t-24.5 -51t-21.5 -45.5l-32 -68q-2 -3 -7 -12.5t-11.5 -22t-12.5 -20.5q-1 -2 -3 -5 t-8.5 -11.5t-13.5 -16t-17.5 -17t-20.5 -16.5t-22.5 -11.5t-24.5 -4.5q-30 -4 -56.5 16.5t-38.5 56.5q-18 62 -18 139zM26 483q7 5 29 33q15 29 38.5 77t73 161t71.5 184q3 22 17 58q-11 -10 -30 -10q-23 3 -40 -9.5t-35 -38.5q-21 -32 -45 -83q-30 -53 -37 -90 q-39 -146 -39 -252q0 -27 -3 -30zM58 1215q-7 20 2 36q17 31 54 80t67.5 85t30.5 37q18 18 40 18q27 0 41 -25q5 -6 39 -51t68 -89.5t40 -54.5q20 -40 -18 -71q-41 -20 -71 18q-3 7 -101 145q-25 -27 -56.5 -71t-46.5 -74q-20 -20 -42 -20q-9 0 -24 7q-16 10 -23 30z" />
<glyph unicode="&#xe3;" horiz-adv-x="848" d="M-131 545q0 101 29 200q66 253 210 340q78 49 139 -12q10 -6 18 -17.5t8 -22.5q2 1 7 3t18 6t25 5.5t25.5 -0.5t21.5 -9q28 -28 36 -63q11 -46 11 -79q0 -16 1.5 -44t1.5 -44q0 -59 2 -85v-105q0 -208 -2 -313q-1 -21 -1 -45t0.5 -53.5t0.5 -46.5v-73q0 -19 5 -40l8 -12 q0 -1 4.5 4.5t9.5 14t10.5 17.5t8.5 15l4 6q27 64 65 158l50 125l148 370q0 3 9 23.5t17 38.5l9 19q6 12 19 16t31 -1q9 -5 13.5 -8t8.5 -8.5t2.5 -13.5t-6.5 -20q-23 -58 -23 -60l-77 -183l-78 -197q-74 -199 -97 -249q-35 -91 -81 -162q-30 -42 -77.5 -36.5t-69.5 54.5 q-8 15 -15 32t-11.5 30t-8.5 32.5t-6.5 30t-5 33t-3 30.5t-3 34.5t-2.5 31.5q0 4 -1.5 15t-1.5 16q0 9 -5 40q-8 71 -8 150v87q0 140 3 211v52q-9 -25 -19.5 -50t-23 -52.5t-21.5 -46t-24.5 -51t-21.5 -45.5l-32 -68q-2 -3 -7 -12.5t-11.5 -22t-12.5 -20.5q-1 -2 -3 -5 t-8.5 -11.5t-13.5 -16t-17.5 -17t-20.5 -16.5t-22.5 -11.5t-24.5 -4.5q-30 -4 -56.5 16.5t-38.5 56.5q-18 62 -18 139zM26 483q7 5 29 33q15 29 38.5 77t73 161t71.5 184q3 22 17 58q-11 -10 -30 -10q-23 3 -40 -9.5t-35 -38.5q-21 -32 -45 -83q-30 -53 -37 -90 q-39 -146 -39 -252q0 -27 -3 -30zM40 1231q0 13 3 26.5t10 22.5t20 18q28 20 82 36q32 0 50 -3q5 -2 18 -7.5t18 -7.5q11 -5 31 -17t35 -20.5t33.5 -14.5t31.5 -3q3 0 5.5 5t2.5 10q0 17 11.5 27.5t22.5 10t16 -2.5q18 -9 18 -37v-13q0 -26 -15 -48q-19 -21 -61 -42 q-22 -8 -43 -6t-48.5 14t-49.5 24.5t-47 25t-39 16.5q-3 0 -8 1.5t-6 1.5q-2 -1 -6.5 -2.5t-7 -3t-5.5 -4t-4.5 -6t-2.5 -8.5q-1 -10 0 -13t0 -5q-3 -10 -12 -17.5t-16 -8.5l-7 -2q-21 0 -28 18q-2 22 -2 35z" />
<glyph unicode="&#xe4;" horiz-adv-x="848" d="M-131 545q0 101 29 200q66 253 210 340q78 49 139 -12q10 -6 18 -17.5t8 -22.5q2 1 7 3t18 6t25 5.5t25.5 -0.5t21.5 -9q28 -28 36 -63q11 -46 11 -79q0 -16 1.5 -44t1.5 -44q0 -59 2 -85v-105q0 -208 -2 -313q-1 -21 -1 -45t0.5 -53.5t0.5 -46.5v-73q0 -19 5 -40l8 -12 q0 -1 4.5 4.5t9.5 14t10.5 17.5t8.5 15l4 6q27 64 65 158l50 125l148 370q0 3 9 23.5t17 38.5l9 19q6 12 19 16t31 -1q9 -5 13.5 -8t8.5 -8.5t2.5 -13.5t-6.5 -20q-23 -58 -23 -60l-77 -183l-78 -197q-74 -199 -97 -249q-35 -91 -81 -162q-30 -42 -77.5 -36.5t-69.5 54.5 q-8 15 -15 32t-11.5 30t-8.5 32.5t-6.5 30t-5 33t-3 30.5t-3 34.5t-2.5 31.5q0 4 -1.5 15t-1.5 16q0 9 -5 40q-8 71 -8 150v87q0 140 3 211v52q-9 -25 -19.5 -50t-23 -52.5t-21.5 -46t-24.5 -51t-21.5 -45.5l-32 -68q-2 -3 -7 -12.5t-11.5 -22t-12.5 -20.5q-1 -2 -3 -5 t-8.5 -11.5t-13.5 -16t-17.5 -17t-20.5 -16.5t-22.5 -11.5t-24.5 -4.5q-30 -4 -56.5 16.5t-38.5 56.5q-18 62 -18 139zM-45 1285q-21 85 50 133q37 23 76 23l20 -8.5t30 -14.5q11 -10 19.5 -24.5t12 -31t2.5 -33.5q0 -60 -52 -108q-30 -24 -71 -18t-60 37q-20 26 -27 45z M26 483q7 5 29 33q15 29 38.5 77t73 161t71.5 184q3 22 17 58q-11 -10 -30 -10q-23 3 -40 -9.5t-35 -38.5q-21 -32 -45 -83q-30 -53 -37 -90q-39 -146 -39 -252q0 -27 -3 -30zM210 1293q-23 79 45 128q37 23 75 23q1 -1 21 -9t29 -14q37 -30 37 -90q-3 -60 -55 -107 q-29 -24 -70.5 -18.5t-61.5 37.5q-16 20 -20 50z" />
<glyph unicode="&#xe5;" horiz-adv-x="848" d="M-131 545q0 101 29 200q66 253 210 340q78 49 139 -12q10 -6 18 -17.5t8 -22.5q2 1 7 3t18 6t25 5.5t25.5 -0.5t21.5 -9q28 -28 36 -63q11 -46 11 -79q0 -16 1.5 -44t1.5 -44q0 -59 2 -85v-105q0 -208 -2 -313q-1 -21 -1 -45t0.5 -53.5t0.5 -46.5v-73q0 -19 5 -40l8 -12 q0 -1 4.5 4.5t9.5 14t10.5 17.5t8.5 15l4 6q27 64 65 158l50 125l148 370q0 3 9 23.5t17 38.5l9 19q6 12 19 16t31 -1q9 -5 13.5 -8t8.5 -8.5t2.5 -13.5t-6.5 -20q-23 -58 -23 -60l-77 -183l-78 -197q-74 -199 -97 -249q-35 -91 -81 -162q-30 -42 -77.5 -36.5t-69.5 54.5 q-8 15 -15 32t-11.5 30t-8.5 32.5t-6.5 30t-5 33t-3 30.5t-3 34.5t-2.5 31.5q0 4 -1.5 15t-1.5 16q0 9 -5 40q-8 71 -8 150v87q0 140 3 211v52q-9 -25 -19.5 -50t-23 -52.5t-21.5 -46t-24.5 -51t-21.5 -45.5l-32 -68q-2 -3 -7 -12.5t-11.5 -22t-12.5 -20.5q-1 -2 -3 -5 t-8.5 -11.5t-13.5 -16t-17.5 -17t-20.5 -16.5t-22.5 -11.5t-24.5 -4.5q-30 -4 -56.5 16.5t-38.5 56.5q-18 62 -18 139zM26 483q7 5 29 33q15 29 38.5 77t73 161t71.5 184q3 22 17 58q-11 -10 -30 -10q-23 3 -40 -9.5t-35 -38.5q-21 -32 -45 -83q-30 -53 -37 -90 q-39 -146 -39 -252q0 -27 -3 -30zM113 1376q0 67 46 113.5t114 46.5q65 0 111 -46.5t46 -113.5q0 -65 -46 -111t-111 -46q-67 0 -113.5 46t-46.5 111zM218 1376q0 -22 15.5 -37t39.5 -15q22 0 37 15t15 37q0 24 -15 39.5t-37 15.5q-24 0 -39.5 -15.5t-15.5 -39.5z" />
<glyph unicode="&#xe6;" horiz-adv-x="1378" d="M-131 545q0 101 29 200q66 253 210 340q78 49 139 -12q10 -6 18 -17.5t8 -22.5q2 1 7 3t18 6t25 5.5t25.5 -0.5t21.5 -9q28 -28 36 -63q11 -46 11 -79q0 -16 1.5 -44t1.5 -44q0 -59 2 -85v-105q0 -208 -2 -313q-1 -21 -1 -45t0.5 -53.5t0.5 -46.5v-73q0 -19 5 -40l8 -12 q0 -1 4.5 4.5t9.5 14t10.5 17.5t8.5 15l4 6q27 64 65 158l50 125l148 370q0 3 9 23.5t17 38.5l9 19q6 12 19 16t31 -1q9 -5 13.5 -8t8.5 -8.5t2.5 -13.5t-6.5 -20q-23 -58 -23 -60l-77 -183l-78 -197q-74 -199 -97 -249q-35 -91 -81 -162q-30 -42 -77.5 -36.5t-69.5 54.5 q-8 15 -15 32t-11.5 30t-8.5 32.5t-6.5 30t-5 33t-3 30.5t-3 34.5t-2.5 31.5q0 4 -1.5 15t-1.5 16q0 9 -5 40q-8 71 -8 150v87q0 140 3 211v52q-9 -25 -19.5 -50t-23 -52.5t-21.5 -46t-24.5 -51t-21.5 -45.5l-32 -68q-2 -3 -7 -12.5t-11.5 -22t-12.5 -20.5q-1 -2 -3 -5 t-8.5 -11.5t-13.5 -16t-17.5 -17t-20.5 -16.5t-22.5 -11.5t-24.5 -4.5q-30 -4 -56.5 16.5t-38.5 56.5q-18 62 -18 139zM26 483q7 5 29 33q15 29 38.5 77t73 161t71.5 184q3 22 17 58q-11 -10 -30 -10q-23 3 -40 -9.5t-35 -38.5q-21 -32 -45 -83q-30 -53 -37 -90 q-39 -146 -39 -252q0 -27 -3 -30zM648 648q-8 167 44 320q17 36 36 60q48 48 119 36q14 0 68 -16q34 -14 48 -30l-3 2q61 -69 33 -155q-8 -25 -33 -60q-44 -44 -87 -47q-15 -5 -40 -5q-2 -103 -2 -140q0 -75 2 -113q0 -53 17 -207q0 -6 1 -15t1 -10q5 -72 14.5 -127.5 t26.5 -75.5l15 -13q4 4 12.5 13t14.5 17l6 8l24 38q12 21 36 59t32 54l45 82l68 130v-2q43 84 165 369q6 14 22 20.5t33 0.5l2 -3q11 -7 14 -23.5t-3 -26.5q-116 -283 -166 -380l-80 -161q-10 -16 -24.5 -41t-44.5 -75.5t-41 -70.5q-37 -63 -55 -86q-48 -56 -116 -29 q-34 17 -49 29q-42 33 -63 91q-16 42 -32 105q-35 206 -42 293q-16 153 -18 185zM858 905q9 -38 15 -42h5q26 13 31.5 37t-13.5 46q-3 1 -4.5 2t-5 2.5t-4 1.5t-1.5 -1q-8 3 -16 -5l-2.5 -7.5t-4 -15.5t-0.5 -18z" />
<glyph unicode="&#xe7;" horiz-adv-x="651" d="M-97 420q-31 320 21 568q30 142 108 192q34 20 70.5 24.5t70.5 -11.5q53 -30 82 -115q6 -15 2 -33.5t-19 -24.5q-24 -18 -55 13q-2 3 -4.5 10.5t-5.5 9.5q-5 6 -10 0q-9 -6 -21 -30q-75 -173 -79 -428q0 -165 21 -317q6 -42 9 -59t13 -49t25 -55q7 -12 21.5 -9t30.5 14 t35 30q50 46 167 262t200 419q9 9 24 12.5t34 -2.5q15 -15 15 -41q-73 -191 -182.5 -394t-173.5 -283q-5 -5 -20 -23.5t-27 -30t-27 -22.5q-5 -7 -15.5 -15t-18.5 -12t-24 -11.5t-18 -8.5q-101 -48 -187 142q-45 118 -62 278zM26.5 -278.5q-7.5 16.5 2.5 35.5q6 21 25 27 t41 -4q19 -9 41.5 -6.5t38.5 14.5q13 11 16 31.5t-5 33.5q-6 11 -31 16q-14 0 -19 -5q-20 -19 -52 -11q-10 6 -19.5 19.5t-9.5 22.5v10q-5 82 -3 124q0 20 14.5 33.5t33.5 13.5t33 -13.5t14 -33.5v-61q4 1 10.5 -2t10.5 -3q63 -12 94 -58q30 -41 22.5 -96.5t-46.5 -88.5 q-42 -43 -110 -43q-37 0 -76 16q-18 12 -25.5 28.5z" />
<glyph unicode="&#xe8;" horiz-adv-x="636" d="M-87 648q-8 167 45 320q15 33 37 60q48 48 118 36q14 0 67 -16q34 -14 48 -30l-3 2q62 -70 35 -155q-8 -22 -35 -60q-44 -44 -85 -47q-16 -5 -40 -5q-3 -103 -3 -140q0 -75 3 -113q0 -65 15 -207q0 -6 1.5 -15t1.5 -10q11 -168 42 -203l13 -13l5 5t6 6.5t6.5 7t6.5 7 t5.5 6t3.5 4.5l1 2l23 38q11 18 25 41t25.5 41t17.5 31l45 82l69 130v-2q43 84 165 369q6 14 22 20.5t33 0.5l3 -3q11 -7 13.5 -23.5t-3.5 -26.5q-115 -283 -165 -380l-82 -161q-84 -142 -110 -187q-37 -63 -55 -86q-48 -56 -115 -29q-35 17 -50 29q-41 33 -63 91 q-11 31 -31 105q-34 206 -42 293q-16 153 -19 185zM-26 1413q-23 35 3 73q17 14 39.5 13t35.5 -18q90 -92 260 -241q21 -11 21 -42q0 -22 -13 -34q-32 -33 -73 -6q-133 108 -273 255zM123 905q9 -37 17 -42h5q26 13 31.5 37t-13.5 46q-3 1 -5 2l-5 2.5t-4 1.5t-2 -1 q-8 3 -16 -5q-2 -3 -3.5 -7.5t-3.5 -15.5t-1 -18z" />
<glyph unicode="&#xe9;" horiz-adv-x="636" d="M-90 648q-8 167 45 320q15 33 37 60q48 48 118 36q14 0 68 -16q34 -14 47 -30l-2 2q62 -70 34 -155q-7 -22 -34 -60q-44 -44 -87 -47q-16 -5 -39 -5q-2 -103 -2 -140q0 -75 2 -113q0 -65 16 -207q0 -6 1 -15t1 -10q5 -70 15 -126.5t27 -76.5l13 -13q5 4 13.5 13t14.5 17 l7 8l23 38q10 18 24.5 41t25.5 41t18 31l44 82l68 130v-2q51 99 167 369q6 14 22 20.5t33 0.5l2 -3q11 -7 14 -23.5t-3 -26.5q-116 -283 -166 -380l-81 -161q-85 -142 -111 -187q-37 -63 -55 -86q-48 -56 -115 -29q-34 17 -50 29q-19 16 -36 40.5t-26 50.5q-16 42 -32 105 q-34 206 -41 293q-17 153 -20 185zM-81 1185q112 139 254 273q35 23 74 -3q14 -17 12.5 -40t-18.5 -36q-93 -90 -241 -260q-12 -21 -42 -21q-21 0 -34 13q-32 33 -5 74zM120 905q10 -38 16 -42h6q26 13 31.5 37t-13.5 46q-3 1 -4.5 2t-5 2.5t-4 1.5t-1.5 -1q-9 3 -17 -5 l-2.5 -7.5t-4 -15.5t-1.5 -18z" />
<glyph unicode="&#xea;" horiz-adv-x="636" d="M-87 648q-8 167 45 320q15 33 37 60q48 48 118 36q14 0 67 -16q34 -14 48 -30l-3 2q62 -70 35 -155q-8 -22 -35 -60q-44 -44 -85 -47q-16 -5 -40 -5q-3 -103 -3 -140q0 -75 3 -113q0 -65 15 -207q0 -6 1.5 -15t1.5 -10q11 -168 42 -203l13 -13l5 5t6 6.5t6.5 7t6.5 7 t5.5 6t3.5 4.5l1 2l23 38q11 18 25 41t25.5 41t17.5 31l45 82l69 130v-2q43 84 165 369q6 14 22 20.5t33 0.5l3 -3q11 -7 13.5 -23.5t-3.5 -26.5q-115 -283 -165 -380l-82 -161q-84 -142 -110 -187q-37 -63 -55 -86q-48 -56 -115 -29q-35 17 -50 29q-41 33 -63 91 q-11 31 -31 105q-34 206 -42 293q-16 153 -19 185zM-83 1144q-7 20 2 36q17 31 54 80t67 85l30 36q20 19 40 19q28 0 42 -24q5 -7 39 -51.5t67.5 -89.5t39.5 -55q21 -41 -18 -72q-39 -19 -70 20q-2 5 -19.5 29.5t-45 61.5t-37.5 52q-25 -27 -57 -70.5t-46 -72.5 q-22 -22 -42 -22q-8 0 -23 8q-16 10 -23 30zM123 905q9 -37 17 -42h5q26 13 31.5 37t-13.5 46q-3 1 -5 2l-5 2.5t-4 1.5t-2 -1q-8 3 -16 -5q-2 -3 -3.5 -7.5t-3.5 -15.5t-1 -18z" />
<glyph unicode="&#xeb;" horiz-adv-x="636" d="M-183 1233q-21 85 50 133q37 23 75 23q1 -1 21 -9t29 -14q38 -34 34 -90q0 -60 -52 -107q-29 -24 -70.5 -18.5t-60.5 37.5q-19 23 -26 45zM-136 648q-8 170 44 320q15 33 37 60q48 48 118 36q14 0 68 -16q33 -14 47 -30l-3 2q63 -70 35 -155q-7 -22 -35 -60 q-44 -44 -85 -47q-16 -5 -40 -5q-3 -103 -3 -140q0 -75 3 -113q0 -65 15 -207q0 -6 1.5 -15t1.5 -10q12 -168 42 -203l13 -13l5 5t6 6.5t6.5 7t6.5 7t5.5 6t3.5 4.5l1 2l23 38q13 22 37.5 60t32.5 53l43 82l69 130v-2q43 84 165 369q6 14 22 20.5t33 0.5l3 -3 q11 -7 14 -23.5t-4 -26.5q-115 -283 -165 -380l-82 -161q-84 -142 -110 -187q-37 -63 -55 -86q-48 -56 -115 -29q-35 17 -50 29q-41 33 -63 91q-11 31 -31 105q-34 206 -42 293q-15 153 -18 185zM70 1240q-23 80 45 128q37 23 77 23l19.5 -8.5t29.5 -14.5q37 -29 37 -89 q-4 -61 -55 -108q-30 -24 -71 -18t-60 37q-18 23 -22 50zM73 905q9 -37 17 -42h5q26 13 31.5 37t-13.5 46q-3 1 -5 2l-5 2.5t-4 1.5t-2 -1q-8 3 -16 -5q-2 -3 -3.5 -7.5t-3.5 -15.5t-1 -18z" />
<glyph unicode="&#xec;" horiz-adv-x="508" d="M-163 1486q-23 35 3 74q17 14 39.5 12.5t36.5 -18.5q89 -92 259 -241q22 -12 22 -42q0 -19 -14 -33q-32 -32 -73 -5q-138 111 -273 253zM-136 425v36q-3 100 8 284q0 9 2 36t5 54.5t6 34.5q1 2 5 9.5t5 9.5t5 7.5t7 8t8.5 7t12 7.5t14.5 6q21 5 44 -0.5t37 -25.5 q10 -17 12.5 -88t-0.5 -98q-1 -14 -3.5 -59t-4 -82t-1.5 -69q0 -116 17.5 -193t53.5 -77q19 18 41.5 50t34.5 55q61 104 194 370q36 74 53 115q10 10 25 14t25 -1l7 -5q14 -17 11 -48l-45 -107q-72 -157 -207 -388q-11 -19 -61 -93q-4 -7 -12 -18t-29.5 -32.5t-38.5 -29.5 q-23 -10 -47.5 -15.5t-53.5 -2t-49 20.5q-22 19 -37.5 50t-23 58t-12.5 70t-6 64.5t-2 64.5zM-109 1073.5q-10 31.5 1 61.5q11 21 29.5 35.5t41.5 14.5q24 0 43 -12.5t26 -37.5q2 -7 4.5 -19.5t1.5 -33t-9 -34.5q-11 -28 -44.5 -35t-57.5 10q-26 19 -36 50.5z" />
<glyph unicode="&#xed;" horiz-adv-x="523" d="M-223 1290q107 134 255 273q35 23 73 -3q14 -17 13 -40t-18 -36q-101 -98 -242 -260q-12 -21 -41 -21q-22 0 -35 13q-32 33 -5 74zM-168 425v36q-3 100 8 284q0 16 4.5 65.5t8.5 59.5q1 2 5 9.5t5 9.5t5 7.5t7 8t8.5 7t12 7.5t14.5 6q21 5 44.5 -0.5t37.5 -25.5 q10 -17 12 -88t-1 -98q-8 -165 -8 -210q0 -117 17 -193.5t53 -76.5q19 19 42 50.5t35 54.5q16 26 31 53.5t25 46t30 57.5t28 55t37.5 74.5t41.5 83.5q36 74 53 115q10 10 25 14t25 -1l7 -5q14 -17 11 -48l-44 -107q-72 -157 -207 -388q-11 -19 -60 -93q-5 -7 -13 -18 t-30 -32.5t-39 -29.5q-23 -10 -47.5 -15.5t-53.5 -2t-49 20.5q-22 19 -37.5 50t-23 58t-12.5 70t-6 64.5t-2 64.5zM-141 1073.5q-10 31.5 1 61.5q11 21 30.5 35.5t41.5 14.5q15 0 28.5 -5t24 -16.5t15.5 -28.5q2 -7 4.5 -19.5t1.5 -33t-9 -34.5q-11 -28 -44.5 -35t-57.5 10 q-26 19 -36 50.5z" />
<glyph unicode="&#xee;" horiz-adv-x="523" d="M-290 1288q-7 20 2 36q16 31 53.5 80t68 85t30.5 37q18 18 39 18q28 0 42 -23q3 -5 70.5 -94.5t76.5 -102.5q20 -40 -19 -71q-40 -20 -70 18q-3 6 -20 30t-45.5 63t-37.5 52q-24 -27 -56 -71t-46 -74q-21 -20 -41 -20q-9 0 -25 7q-15 10 -22 30zM-197 425v36q-3 85 9 284 q0 16 4.5 65.5t8.5 59.5q1 2 5 9.5t5 9.5t5 7.5t7 8t8.5 7t12 7.5t14.5 6q21 5 44 -0.5t37 -25.5q10 -17 12.5 -88t-1.5 -98q0 -15 -2 -45.5t-3 -54.5t-2.5 -55t-1.5 -55q0 -116 17.5 -193t54.5 -77q19 18 41 50t35 55q61 104 194 370q36 74 53 115q10 10 24 14t24 -1l9 -5 q14 -17 11 -48l-45 -107q-72 -157 -208 -388q-10 -19 -60 -93q-4 -7 -12 -18t-29.5 -32.5t-38.5 -29.5q-23 -10 -47.5 -15.5t-54 -2t-48.5 20.5q-27 24 -44 60t-24.5 85t-10 80t-3.5 82zM-169 1073.5q-10 31.5 1 61.5q11 21 29.5 35.5t41.5 14.5t41.5 -12.5t26.5 -37.5 q2 -7 4.5 -19.5t1.5 -33t-9 -34.5q-11 -28 -44.5 -35t-56.5 10q-26 19 -36 50.5z" />
<glyph unicode="&#xef;" horiz-adv-x="523" d="M-315 1436q-10 40 2.5 75.5t47.5 59.5q37 23 77 23q3 -2 9.5 -4.5t12.5 -5.5t13.5 -6.5t12.5 -6.5q18 -16 27.5 -40t7.5 -50q0 -59 -52 -108q-30 -24 -71 -18.5t-60 36.5q-20 26 -27 45zM-210 425v36q-3 100 8 284q0 15 5 65t9 60q1 2 5 9.5t5 9.5t5 7.5t7 8t8.5 7 t12 7.5t14.5 6q21 5 44 -0.5t37 -25.5q10 -17 12 -88t-2 -98q-7 -165 -7 -210q0 -117 16.5 -193.5t53.5 -76.5q19 19 42 50.5t35 54.5q15 26 30.5 53.5t25.5 46t30 57.5t28 55t37.5 74.5t41.5 83.5q36 74 53 115q10 10 25 14t25 -1l7 -5q15 -19 12 -48l-45 -107 q-72 -157 -207 -388q-11 -19 -61 -93q-4 -7 -12.5 -18t-30 -32.5t-39.5 -29.5q-23 -10 -46.5 -15.5t-52.5 -2.5t-49 21q-27 24 -44 60t-24.5 85t-10 80t-3.5 82zM-182.5 1074q-9.5 32 2.5 61q10 21 28.5 35.5t41.5 14.5t41.5 -12.5t26.5 -37.5q2 -7 4.5 -19.5t1.5 -33 t-9 -34.5q-11 -28 -45 -35t-57 10q-26 19 -35.5 51zM-60 1444q-24 80 45 129q37 23 75 23q4 -2 13.5 -5.5t19.5 -8t17 -9.5q37 -30 37 -89q-3 -61 -55 -108q-30 -24 -71.5 -18t-60.5 37q-16 21 -20 49z" />
<glyph unicode="&#xf0;" horiz-adv-x="1053" d="M-47 630q-17 150 39.5 266.5t180.5 214.5q70 53 189 79q10 6 13 11q5 10 8 18q36 95 47 139q47 176 73 367l8 76q29 223 29 412v73q-12 11 -23 23t-23.5 26.5t-19 22t-21 26t-18.5 22.5q-55 80 -75 150q-11 33 0 65v7.5t1 6l2 5t2 4.5t2.5 4.5t3 4t3.5 4.5t4 4 q20 27 73 41q11 3 23 1.5t25 -7t25.5 -13t23.5 -17.5q40 -35 57 -79q62 -140 82 -330q114 -91 283 -160q216 -90 470 -140.5t518 -50.5q539 0 944 218q23 13 47 -11l8 -7q7 -9 0.5 -25t-18.5 -30q-415 -221 -993 -221q-173 0 -347 22.5t-341.5 65.5t-319.5 106 q-131 56 -246 134v-34q0 -79 -16 -273q-2 -18 -6.5 -105.5t-8.5 -185t-7.5 -179.5t-3.5 -91q-23 -323 -27 -422q-5 -108 -10 -302l-2 -176q-3 -13 -0.5 -44.5t6 -63.5t16.5 -52t33 -12q-4 0 5 5l7 5q91 109 163.5 233t149.5 284l34 75q4 11 13 16.5t16 6.5t21 1 q38 -27 18 -61l-34 -83q-136 -291 -283 -493q-3 -5 -23 -30t-32 -35q-5 -6 -14.5 -14t-37 -22t-53.5 -14q-21 0 -37.5 6t-29 18.5t-19 21.5t-16.5 26l-3 6q-48 95 -73 273q-12 138 -8 280v176q0 149 8 212l-50 -151q-26 -76 -38.5 -111t-42.5 -97.5t-64 -108.5l-83 -108 q-32 -44 -97 -40q-26 0 -55 25q-52 55 -55 110zM130 709.5q0 -9.5 1.5 -16.5t4.5 -12q9 -10 42 9q84 135 142 293q13 55 18 81q-1 0 -3.5 2t-4.5 2q-17 -2 -41 -18.5t-39 -34.5q-61 -60 -93 -168q-1 -4 -4.5 -16.5t-5 -19.5t-5 -20.5t-5.5 -22t-4 -20.5t-2.5 -20.5t-0.5 -18 zM195 1510q0 27 11.5 46.5t34.5 19.5q118 4 342.5 -3t257.5 -8q21 0 36.5 -18t15.5 -37q-3 -21 -18.5 -35.5t-33.5 -14.5q-45 2 -111 4t-243.5 5.5t-243.5 -1.5q-48 0 -48 42zM430 2589q0 -5 5 -15q5 -16 13.5 -34t16 -30.5t19.5 -31.5t16 -27q16 -20 14 -20l13 -14v2 q-11 68 -19 85q0 1 -3 11t-8.5 25t-12.5 30t-16 26t-17 13q-15 0 -21 -20z" />
<glyph unicode="&#xf1;" horiz-adv-x="1191" d="M-76 503q-2 58 11 140q1 5 30 133q-11 8 -20 29l5 31q15 58 45 84q22 25 60.5 16.5t52.5 -43.5q12 -28 12 -57q1 -18 1 -36t-0.5 -39t-0.5 -33v-85q0 -6 -0.5 -18t-0.5 -22.5t1 -20.5q50 124 121 209q32 42 42 53q61 52 89 61q54 24 95 -9q50 -47 78 -113q29 -66 43 -195 q7 -75 7 -118q0 -21 -2 -72t-3.5 -96.5t-1.5 -51.5q-6 -73 -11 -224q-6 -170 -6 -206l6 -103q0 -17 11 -52q1 -3 5 -7.5t5 -6t3.5 -4t4.5 -3.5t5 -1q13 2 39 34q22 37 44 82t36.5 76.5t37.5 92t31 82t35 95.5t31 87q44 119 168 396q90 195 107 240q6 12 20 15.5t28 -2.5 q16 -7 20.5 -25.5t-2.5 -29.5v2q-38 -110 -128 -300q-92 -188 -140 -323q-127 -363 -233 -543q-52 -86 -120 -83q-29 2 -55.5 17t-44.5 38q-10 10 -24 44q-20 57 -37.5 180t-17.5 219v44v202v202q1 24 0 57t-3 65.5t-4.5 61t-5.5 44.5q-6 72 -23 78q-16 11 -40 -13l-13 -10 q-76 -93 -129 -223q-13 -25 -37.5 -137t-30.5 -130q-7 -24 -44.5 -30t-52.5 12q-20 18 -28 28q-62 91 -71 215zM108 1056q-5 43 1 64.5t31 37.5q32 23 80 38q32 0 50 -3q5 -3 18.5 -8t18.5 -7q12 -6 40 -23.5t50.5 -26.5t40.5 -5q2 0 4.5 5t2.5 10q0 13 7 22t15.5 11.5 t16.5 2.5t11 -3q7 -3 10 -6t5.5 -10.5t2.5 -19.5v-12q0 -26 -15 -48q-18 -21 -60 -42q-23 -8 -43.5 -6t-48.5 13.5t-50 24t-46.5 25t-39.5 16.5q-3 0 -7.5 1t-5.5 1l-9.5 -3t-13 -7t-4.5 -13q-1 -11 0 -13.5t0 -3.5q-2 -7 -6.5 -12.5t-9 -8.5t-9 -5t-7.5 -3l-2 -1 q-21 0 -28 18z" />
<glyph unicode="&#xf2;" horiz-adv-x="625" d="M-100 522q0 104 16 278q7 68 19 133l10 50q27 33 59 28.5t48 -46.5q0 -3 1.5 -6.5t1.5 -4.5q10 39 32 61q34 43 99 23l9 -2q47 -15 78 -73q37 -67 42 -185q46 -19 95 -29.5t78 -8.5q10 1 18 4t19.5 11.5t22 27t18.5 45.5q6 12 9 15t11.5 3.5t24.5 -5.5q32 -18 21 -50 q-9 -33 -26 -58.5t-37.5 -39.5t-37 -21t-31.5 -9q-29 -4 -81 3.5t-104 25.5q-2 -29 -17 -121q0 -11 -1 -20.5t-1 -10.5q-28 -231 -101 -377q-12 -23 -25.5 -45.5t-36 -48.5t-45 -38.5t-50 -5.5t-51.5 40q-3 5 -8.5 15.5t-9.5 18.5l-4 9q-60 142 -65 414zM-32 1361 q-23 34 3 73q17 13 40 12t36 -18q90 -92 260 -240q21 -12 21 -42q0 -22 -13 -35q-33 -33 -74 -5q-134 107 -273 255zM45 353q0 -64 13 -143l5 -40q0 -9 7 -20q1 -1 2 -2.5t2.5 -3.5t4 -3l5 -2t5 0t6 3t6.5 6.5t7 11.5l17 35q10 17 18.5 36t15 34.5t13 37t10.5 34.5t8.5 37 t6.5 33.5t6 36.5t5 33.5t5 36t5 34.5q0 16 5 37q15 90 13 143q-58 29 -101 64.5t-62 72.5q5 -114 -5 -184q-19 -153 -23 -328zM131.5 944q-1.5 -12 4.5 -24l9 -12q16 -31 34.5 -50.5t56.5 -42.5q-9 70 -31 110q-2 3 -6.5 9.5t-6 9t-5 7.5t-5.5 6.5t-5 4.5t-6 4l-6 2h-13 q-7 0 -12 -5q-7 -7 -8.5 -19z" />
<glyph unicode="&#xf3;" horiz-adv-x="625" d="M-100 522q0 104 16 278q7 68 19 133l10 50q27 33 59 28.5t48 -46.5q0 -3 1.5 -6.5t1.5 -4.5q10 39 32 61q34 43 99 23l9 -2q47 -15 78 -73q37 -67 42 -185q46 -19 95 -29.5t78 -8.5q10 1 18 4t19.5 11.5t22 27t18.5 45.5q6 12 9 15t11.5 3.5t24.5 -5.5q32 -18 21 -50 q-9 -33 -26 -58.5t-37.5 -39.5t-37 -21t-31.5 -9q-29 -4 -81 3.5t-104 25.5q-2 -29 -17 -121q0 -11 -1 -20.5t-1 -10.5q-28 -231 -101 -377q-12 -23 -25.5 -45.5t-36 -48.5t-45 -38.5t-50 -5.5t-51.5 40q-3 5 -8.5 15.5t-9.5 18.5l-4 9q-60 142 -65 414zM-65 1201 q111 138 253 272q35 24 74 -2q14 -17 13 -40t-18 -36q-100 -97 -242 -260q-12 -21 -41 -21q-20 0 -34 14q-32 32 -5 73zM45 353q0 -64 13 -143l5 -40q0 -9 7 -20q1 -1 2 -2.5t2.5 -3.5t4 -3l5 -2t5 0t6 3t6.5 6.5t7 11.5l17 35q10 17 18.5 36t15 34.5t13 37t10.5 34.5 t8.5 37t6.5 33.5t6 36.5t5 33.5t5 36t5 34.5q0 16 5 37q15 90 13 143q-58 29 -101 64.5t-62 72.5q5 -114 -5 -184q-19 -153 -23 -328zM131.5 944q-1.5 -12 4.5 -24l9 -12q16 -31 34.5 -50.5t56.5 -42.5q-9 70 -31 110q-2 3 -6.5 9.5t-6 9t-5 7.5t-5.5 6.5t-5 4.5t-6 4l-6 2 h-13q-7 0 -12 -5q-7 -7 -8.5 -19z" />
<glyph unicode="&#xf4;" horiz-adv-x="625" d="M-100 522q0 104 16 278q7 68 19 133l10 50q27 33 59 28.5t48 -46.5q0 -3 1.5 -6.5t1.5 -4.5q10 39 32 61q34 43 99 23l9 -2q47 -15 78 -73q37 -67 42 -185q46 -19 95 -29.5t78 -8.5q10 1 18 4t19.5 11.5t22 27t18.5 45.5q6 12 9 15t11.5 3.5t24.5 -5.5q32 -18 21 -50 q-9 -33 -26 -58.5t-37.5 -39.5t-37 -21t-31.5 -9q-29 -4 -81 3.5t-104 25.5q-2 -29 -17 -121q0 -11 -1 -20.5t-1 -10.5q-28 -231 -101 -377q-12 -23 -25.5 -45.5t-36 -48.5t-45 -38.5t-50 -5.5t-51.5 40q-3 5 -8.5 15.5t-9.5 18.5l-4 9q-60 142 -65 414zM-86 1157.5 q-7 19.5 2 35.5q16 31 53.5 80t68 85.5l30.5 36.5q18 18 40 18q27 0 42 -24q4 -7 38 -51.5t67.5 -89.5t40.5 -55q20 -40 -18 -70q-40 -20 -71 17q-1 4 -9 15.5t-20 28.5t-24.5 34t-26.5 36.5t-22 30.5q-24 -26 -56 -70.5t-46 -74.5q-22 -21 -43 -21q-5 0 -23 9 q-16 10 -23 29.5zM45 353q0 -64 13 -143l5 -40q0 -9 7 -20q1 -1 2 -2.5t2.5 -3.5t4 -3l5 -2t5 0t6 3t6.5 6.5t7 11.5l17 35q10 17 18.5 36t15 34.5t13 37t10.5 34.5t8.5 37t6.5 33.5t6 36.5t5 33.5t5 36t5 34.5q0 16 5 37q15 90 13 143q-58 29 -101 64.5t-62 72.5 q5 -114 -5 -184q-19 -153 -23 -328zM131.5 944q-1.5 -12 4.5 -24l9 -12q16 -31 34.5 -50.5t56.5 -42.5q-9 70 -31 110q-2 3 -6.5 9.5t-6 9t-5 7.5t-5.5 6.5t-5 4.5t-6 4l-6 2h-13q-7 0 -12 -5q-7 -7 -8.5 -19z" />
<glyph unicode="&#xf5;" horiz-adv-x="625" d="M-108 1161q-4 42 2 64t30 38q33 23 81 37q32 0 50 -2q4 -2 11.5 -5t14.5 -6.5l11 -5.5q12 -5 40 -22.5t50.5 -26.5t40.5 -6q2 0 4.5 5.5t2.5 11.5q0 13 7 22t15.5 11.5t16.5 2.5t11 -3q7 -3 10 -6t5.5 -10.5t2.5 -19.5v-14q0 -24 -15 -46q-18 -21 -60 -42 q-23 -8 -43.5 -6t-48.5 13.5t-50 24t-46.5 25t-39.5 16.5q-3 0 -7.5 1t-5.5 1l-9.5 -3t-13 -7t-4.5 -13q-1 -11 0 -14t0 -5q-3 -10 -11.5 -17t-14.5 -9l-7 -2q-22 0 -30 18zM-105 522q0 104 15 278q8 68 20 133l10 50q27 33 58.5 28.5t48.5 -46.5q0 -3 1.5 -6.5t1.5 -4.5 q10 41 31 61q33 43 99 23l8 -2q49 -15 80 -73q37 -67 42 -185q46 -19 95 -29.5t78 -8.5q10 1 18 4t19.5 11.5t22 27t18.5 45.5q6 12 9 15t11.5 3.5t23.5 -5.5q32 -18 21 -50q-9 -33 -26 -58.5t-37 -39.5t-36.5 -21t-31.5 -9q-29 -4 -81 3.5t-104 25.5q-2 -29 -17 -121 q0 -11 -1 -20.5t-1 -10.5q-28 -227 -103 -377q-11 -23 -24.5 -45.5t-36 -48.5t-45 -38.5t-49.5 -5.5t-51 40q-3 5 -8.5 15.5t-9.5 18.5l-4 9q-60 142 -65 414zM40 353q0 -64 12 -143l6 -40q0 -9 7 -20q1 -2 3 -4.5t6 -5t8 -2t9.5 6t10.5 15.5l18 35q29 52 47.5 114t25.5 102 t16 112q2 16 3 25q0 16 6 37q15 90 12 143q-57 29 -100 64.5t-62 72.5q5 -114 -5 -184q-19 -153 -23 -328zM126 944.5q-1 -12.5 5 -24.5l9 -12q11 -21 21 -34.5t27 -28t42 -30.5q-8 70 -30 110q-2 3 -6.5 9.5t-6 9t-5 7.5t-5.5 6.5t-5 4.5t-6 4l-6 2h-13q-9 0 -14 -5 q-6 -6 -7 -18.5z" />
<glyph unicode="&#xf6;" horiz-adv-x="625" d="M-100 522q0 104 16 278q7 68 19 133l10 50q27 33 59 28.5t48 -46.5q0 -3 1.5 -6.5t1.5 -4.5q10 39 32 61q34 43 99 23l9 -2q47 -15 78 -73q37 -67 42 -185q46 -19 95 -29.5t78 -8.5q10 1 18 4t19.5 11.5t22 27t18.5 45.5q6 12 9 15t11.5 3.5t24.5 -5.5q32 -18 21 -50 q-9 -33 -26 -58.5t-37.5 -39.5t-37 -21t-31.5 -9q-29 -4 -81 3.5t-104 25.5q-2 -29 -17 -121q0 -11 -1 -20.5t-1 -10.5q-28 -231 -101 -377q-12 -23 -25.5 -45.5t-36 -48.5t-45 -38.5t-50 -5.5t-51.5 40q-3 5 -8.5 15.5t-9.5 18.5l-4 9q-60 142 -65 414zM-78 1271 q-10 41 2 76t47 58q36 23 76 23q4 -1 14 -5t20 -8.5t16 -9.5q38 -33 34 -89q0 -59 -53 -108q-30 -24 -70.5 -18.5t-59.5 36.5q-19 23 -26 45zM45 353q0 -64 13 -143l5 -40q0 -9 7 -20q1 -1 2 -2.5t2.5 -3.5t4 -3l5 -2t5 0t6 3t6.5 6.5t7 11.5l17 35q10 17 18.5 36t15 34.5 t13 37t10.5 34.5t8.5 37t6.5 33.5t6 36.5t5 33.5t5 36t5 34.5q0 16 5 37q15 90 13 143q-58 29 -101 64.5t-62 72.5q5 -114 -5 -184q-19 -153 -23 -328zM131.5 944q-1.5 -12 4.5 -24l9 -12q16 -31 34.5 -50.5t56.5 -42.5q-9 70 -31 110q-2 3 -6.5 9.5t-6 9t-5 7.5t-5.5 6.5 t-5 4.5t-6 4l-6 2h-13q-7 0 -12 -5q-7 -7 -8.5 -19zM175 1279q-23 80 45 129q37 23 76 23l20 -8.5t30 -14.5q37 -30 37 -90q-4 -60 -55 -107q-30 -24 -71 -18t-60 37q-18 23 -22 49z" />
<glyph unicode="&#xf7;" horiz-adv-x="820" d="M-29 472q-4 23 8 41t34 22q355 76 713 28q19 -4 32.5 -20.5t9.5 -36.5q0 -22 -18 -37t-40 -11q-349 46 -678 -28h-9q-17 0 -33 12.5t-19 29.5zM288 283q-17 71 37 102q6 5 14.5 8.5t13.5 5t18.5 4t16.5 3.5q5 -3 13.5 -5.5t15.5 -6t11 -9.5q33 -25 25 -68q0 -46 -41 -79 q-24 -19 -55.5 -17t-46.5 26q-15 19 -22 36zM288 685q-18 74 37 106q29 19 60 19q39 -15 43 -19q32 -32 25 -70q0 -46 -41 -78q-23 -21 -55 -19t-47 29q-12 11 -22 32z" />
<glyph unicode="&#xf8;" horiz-adv-x="646" d="M-115 516q0 102 15 292q3 37 17 110t15 80q18 21 37.5 27t38.5 -5t32 -40q16 -52 20 -102q5 -118 -5 -197q-19 -163 -23 -343q0 -23 2 -50t4 -43.5l6 -49.5t6 -45q0 -4 8 -27q3 -8 10 -8q15 2 37 25l5 12q35 65 58 140t31.5 123t18.5 130q1 5 2 16t3 16q15 110 15 173 q0 6 -40.5 30.5t-86.5 58t-56 60.5q-12 35 -5.5 72t28.5 59q19 22 47 29t58 -3q52 -17 87 -81q45 -80 45 -194q33 -14 69 -23.5t64 -13t47 -2.5q1 1 7 2.5t8.5 2.5t9 3t10 5t10 7.5t10.5 10.5t9.5 13.5t10 17.5t7.5 22q10 20 19.5 25t29.5 -4q16 -8 22.5 -21t-0.5 -29 q-5 -18 -11.5 -34t-13.5 -28t-16 -22t-16.5 -16.5t-18 -12t-17 -8.5t-15.5 -5t-13 -3t-11.5 -1.5l-7.5 -0.5q-25 -6 -83 3.5t-110 30.5q0 -26 -8 -78.5t-9 -58.5q-1 -5 -2.5 -15t-2.5 -16q-27 -233 -105 -392q-10 -22 -26 -46.5t-39.5 -50t-47 -39t-50.5 -7t-48 39.5 q-17 21 -24 47q-63 152 -68 432zM-108 -52q154 576 420 1145q7 13 26 20.5t37 -2.5q13 -6 19 -25.5t-4 -37.5q-247 -523 -408 -1124q-6 -11 -18.5 -20t-23.5 -9h-10q-12 4 -20.5 12t-13 18.5t-4.5 22.5zM122.5 956q-2.5 -14 2.5 -25q11 -31 41 -63t72 -53q0 51 -38 126 q-20 39 -40 42q-5 3 -13 3q-6 0 -14 -8t-10.5 -22z" />
<glyph unicode="&#xf9;" horiz-adv-x="968" d="M-78 645v18q0 82 10 132q0 4 8 24t8 22q20 46 52 67q15 10 42 0.5t39 -30.5q9 -27 9 -31v-84q-6 -52 -3 -82q0 -91 10 -168q12 -82 39 -101q7 -4 16 -4q32 13 62.5 47t45.5 67v-2q35 71 68 170q52 155 102 235q25 36 60 32q28 -10 49 -30t29 -39q22 -85 22 -183 q0 -38 -5 -117q-6 -94 -3 -143q1 -34 0.5 -74.5t-1.5 -96.5t-1 -67q0 -53 2 -79l3 -70q2 -16 7 -29.5t11 -15.5q10 11 18 24q37 88 37 91q125 368 225 625l32 75q6 12 20 15.5t28 -2.5q33 -19 20 -46l-3 -7l-20 -60q-24 -62 -51.5 -137.5t-48.5 -134.5t-49.5 -141.5 t-47.5 -136.5q-67 -181 -87 -218q-8 -16 -15 -26.5t-18 -23t-25.5 -19.5t-32.5 -9q-24 -2 -43 6t-32 26.5t-20.5 33.5t-14.5 37v-3q-28 70 -32 143q-13 141 -13 297q-2 43 -2 139q0 67 2 99q5 59 5 93q-7 -16 -17.5 -46t-17.5 -52l-7 -23q-7 -17 -19 -50t-21.5 -56.5 t-17.5 -40.5q-27 -50 -80 -101t-108 -61q-72 -21 -129 25q-58 43 -83 150q-13 59 -13 147zM87 1368q-23 35 3 73q17 14 39.5 13t35.5 -18q90 -92 260 -240q20 -12 20 -43q0 -21 -12 -34q-33 -33 -73 -5q-134 107 -273 254z" />
<glyph unicode="&#xfa;" horiz-adv-x="968" d="M-78 645v18q0 82 10 132q0 4 8 24t8 22q20 46 52 67q15 10 42 0.5t39 -30.5q9 -27 9 -31v-84q-6 -52 -3 -82q0 -91 10 -168q12 -82 39 -101q7 -4 16 -4q32 13 62.5 47t45.5 67v-2q35 71 68 170q52 155 102 235q25 36 60 32q28 -10 49 -30t29 -39q22 -85 22 -183 q0 -38 -5 -117q-6 -94 -3 -143q1 -34 0.5 -74.5t-1.5 -96.5t-1 -67q0 -53 2 -79l3 -70q2 -16 7 -29.5t11 -15.5q10 11 18 24q37 88 37 91q125 368 225 625l32 75q6 12 20 15.5t28 -2.5q33 -19 20 -46l-3 -7l-20 -60q-24 -62 -51.5 -137.5t-48.5 -134.5t-49.5 -141.5 t-47.5 -136.5q-67 -181 -87 -218q-8 -16 -15 -26.5t-18 -23t-25.5 -19.5t-32.5 -9q-24 -2 -43 6t-32 26.5t-20.5 33.5t-14.5 37v-3q-28 70 -32 143q-13 141 -13 297q-2 43 -2 139q0 67 2 99q5 59 5 93q-7 -16 -17.5 -46t-17.5 -52l-7 -23q-7 -17 -19 -50t-21.5 -56.5 t-17.5 -40.5q-27 -50 -80 -101t-108 -61q-72 -21 -129 25q-58 43 -83 150q-13 59 -13 147zM90 1119q111 138 253 272q35 24 74 -2q14 -17 13 -40t-18 -36q-100 -97 -242 -260q-11 -20 -42 -20q-20 0 -33 13q-33 32 -5 73z" />
<glyph unicode="&#xfb;" horiz-adv-x="968" d="M-78 645v18q0 82 10 132q0 4 8 24t8 22q20 46 52 67q15 10 42 0.5t39 -30.5q9 -27 9 -31v-84q-6 -52 -3 -82q0 -91 10 -168q12 -82 39 -101q7 -4 16 -4q32 13 62.5 47t45.5 67v-2q35 71 68 170q52 155 102 235q25 36 60 32q28 -10 49 -30t29 -39q22 -85 22 -183 q0 -38 -5 -117q-6 -94 -3 -143q1 -34 0.5 -74.5t-1.5 -96.5t-1 -67q0 -53 2 -79l3 -70q2 -16 7 -29.5t11 -15.5q10 11 18 24q37 88 37 91q125 368 225 625l32 75q6 12 20 15.5t28 -2.5q33 -19 20 -46l-3 -7l-20 -60q-24 -62 -51.5 -137.5t-48.5 -134.5t-49.5 -141.5 t-47.5 -136.5q-67 -181 -87 -218q-8 -16 -15 -26.5t-18 -23t-25.5 -19.5t-32.5 -9q-24 -2 -43 6t-32 26.5t-20.5 33.5t-14.5 37v-3q-28 70 -32 143q-13 141 -13 297q-2 43 -2 139q0 67 2 99q5 59 5 93q-7 -16 -17.5 -46t-17.5 -52l-7 -23q-7 -17 -19 -50t-21.5 -56.5 t-17.5 -40.5q-27 -50 -80 -101t-108 -61q-72 -21 -129 25q-58 43 -83 150q-13 59 -13 147zM42.5 1123q-6.5 20 2.5 35q16 32 53.5 81t68 85t30.5 37q18 18 39 18q28 0 42 -23q3 -5 70.5 -94.5t76.5 -103.5q20 -39 -19 -70q-40 -20 -71 18q-2 6 -19 30t-45.5 63t-37.5 52 q-24 -27 -56 -71t-46 -74q-21 -21 -41 -21q-9 0 -25 8q-16 10 -22.5 30z" />
<glyph unicode="&#xfc;" horiz-adv-x="968" d="M-78 645v18q0 82 10 132q0 4 8 24t8 22q20 46 52 67q15 10 42 0.5t39 -30.5q9 -27 9 -31v-84q-6 -52 -3 -82q0 -91 10 -168q12 -82 39 -101q7 -4 16 -4q32 13 62.5 47t45.5 67v-2q35 71 68 170q52 155 102 235q25 36 60 32q28 -10 49 -30t29 -39q22 -85 22 -183 q0 -38 -5 -117q-6 -94 -3 -143q1 -34 0.5 -74.5t-1.5 -96.5t-1 -67q0 -53 2 -79l3 -70q2 -16 7 -29.5t11 -15.5q10 11 18 24q37 88 37 91q125 368 225 625l32 75q6 12 20 15.5t28 -2.5q33 -19 20 -46l-3 -7l-20 -60q-24 -62 -51.5 -137.5t-48.5 -134.5t-49.5 -141.5 t-47.5 -136.5q-67 -181 -87 -218q-8 -16 -15 -26.5t-18 -23t-25.5 -19.5t-32.5 -9q-24 -2 -43 6t-32 26.5t-20.5 33.5t-14.5 37v-3q-28 70 -32 143q-13 141 -13 297q-2 43 -2 139q0 67 2 99q5 59 5 93q-7 -16 -17.5 -46t-17.5 -52l-7 -23q-7 -17 -19 -50t-21.5 -56.5 t-17.5 -40.5q-27 -50 -80 -101t-108 -61q-72 -21 -129 25q-58 43 -83 150q-13 59 -13 147zM37 1185q-21 86 50 133q39 25 76 25q3 -2 13 -6.5l20 -9t16 -9.5q39 -34 35 -88q0 -59 -52 -107q-30 -25 -71.5 -19.5t-60.5 36.5q-19 23 -26 45zM291 1193q-24 79 44 128 q39 24 77 24q3 -1 13 -5.5t19.5 -9t16.5 -9.5q37 -30 37 -88q-4 -61 -55 -108q-30 -24 -71 -18.5t-60 36.5q-17 22 -21 50z" />
<glyph unicode="&#xfd;" horiz-adv-x="988" d="M-73 718q0 37 13 155q8 48 8 81q0 62 -3 74q-5 14 10 40q8 12 16 18t29 15q24 8 48.5 4t46 -19t36.5 -38q27 -53 24 -97q0 -12 -1 -25.5t-2 -24t-2.5 -25t-2.5 -24.5q-1 -9 -2 -22t-1.5 -26.5t-1.5 -27.5t-1.5 -26.5t-0.5 -22.5v-16v-6q0 -47 7 -62q3 -2 7 -7t8 -6t13 0 q118 33 168 70l17 364q0 30 10 47q1 2 4 5.5t12.5 11.5t19 14t23 9.5t27.5 1.5h16q30 -9 48.5 -22.5t27.5 -39.5q10 -38 10 -53l-5 -200q-3 -166 -15 -371q-10 -136 -32 -334l-11 -104l-28 -339q-9 -108 -27 -175l-15 -73q-19 -110 -19 -123l14 33q290 928 513 1468 q4 9 12 15t18.5 8t22.5 -2l10 -8q19 -19 10 -45q-74 -181 -158 -416.5t-137 -395.5t-149 -457q-21 -66 -32 -99q-8 -28 -63 -185q-2 -20 -8.5 -42.5t-10.5 -42.5q-19 -67 -23 -151q-1 -15 -2.5 -44t-2.5 -43q-8 -75 -8 -155q0 -100 10 -180q7 -75 -26 -153q-9 -16 -34 -28 t-42 -5q-11 1 -17.5 4.5t-8.5 6t-11 15.5q-10 17 -15 50q-3 10 -3 34l5 65q1 15 2 43t2 50t4 41l1 30q2 19 8 65l6 52q3 248 5 306q-4 94 0 189q0 7 1 30.5t1.5 52.5t2 72t2.5 81l5 302q1 34 3.5 73t6 86t5.5 74q12 143 15 285q3 50 3 150v68q-63 -27 -113 -48 q-112 -43 -195 -33q-108 20 -108 183zM92 1345q111 139 254 273q35 23 74 -3q14 -17 13 -40t-18 -36q-101 -98 -242 -260q-12 -21 -42 -21q-21 0 -34 13q-32 33 -5 74z" />
<glyph unicode="&#xff;" horiz-adv-x="988" d="M-73 718q0 37 13 155q8 48 8 81q0 62 -3 74q-5 14 10 40q8 12 16 18t29 15q24 8 48.5 4t46 -19t36.5 -38q27 -53 24 -97q0 -12 -1 -25.5t-2 -24t-2.5 -25t-2.5 -24.5q-1 -9 -2 -22t-1.5 -26.5t-1.5 -27.5t-1.5 -26.5t-0.5 -22.5v-16v-6q0 -47 7 -62q3 -2 7 -7t8 -6t13 0 q118 33 168 70l17 364q0 30 10 47q1 2 4 5.5t12.5 11.5t19 14t23 9.5t27.5 1.5h16q30 -9 48.5 -22.5t27.5 -39.5q10 -38 10 -53l-5 -200q-3 -166 -15 -371q-10 -136 -32 -334l-11 -104l-28 -339q-9 -108 -27 -175l-15 -73q-19 -110 -19 -123l14 33q290 928 513 1468 q4 9 12 15t18.5 8t22.5 -2l10 -8q19 -19 10 -45q-74 -181 -158 -416.5t-137 -395.5t-149 -457q-21 -66 -32 -99q-8 -28 -63 -185q-2 -20 -8.5 -42.5t-10.5 -42.5q-19 -67 -23 -151q-1 -15 -2.5 -44t-2.5 -43q-8 -75 -8 -155q0 -100 10 -180q7 -75 -26 -153q-9 -16 -34 -28 t-42 -5q-11 1 -17.5 4.5t-8.5 6t-11 15.5q-10 17 -15 50q-3 10 -3 34l5 65q1 15 2 43t2 50t4 41l1 30q2 19 8 65l6 52q3 248 5 306q-4 94 0 189q0 7 1 30.5t1.5 52.5t2 72t2.5 81l5 302q1 34 3.5 73t6 86t5.5 74q12 143 15 285q3 50 3 150v68q-63 -27 -113 -48 q-112 -43 -195 -33q-108 20 -108 183zM29 1350q-21 86 49 134q39 24 77 24q3 -2 13 -6t20 -9t17 -9q37 -34 33 -89q0 -59 -52 -107q-30 -25 -71 -19.5t-60 37.5q-18 22 -26 44zM283 1358q-23 79 45 128q39 24 75 24q3 -1 10 -4t13.5 -6t14 -6.5t12.5 -7.5q37 -30 37 -88 q-3 -60 -55 -108q-29 -24 -70 -18.5t-60 36.5q-18 22 -22 50z" />
<glyph unicode="&#x178;" horiz-adv-x="1706" d="M-15 566q-29 285 17.5 595.5t147.5 618.5q10 31 52 31q13 -6 22 -19.5t9 -27.5v-13q-56 -167 -86 -383q-2 -19 -10.5 -79.5t-11.5 -88t-8 -75.5t-6.5 -88t-0.5 -80q3 -157 58 -394q24 -105 75 -193q26 -49 72 -53q50 0 75 11q13 6 40 18q41 21 78 62q14 15 28.5 34t24 32 t25.5 38t21.5 34.5t23.5 40.5t22 36q73 122 92 160q63 108 78 135q34 59 95 178q14 28 20 47q5 10 15 29.5t16.5 32t16 29t18.5 29.5q32 60 49 82q20 31 55 41.5t67 -7.5q15 -7 27.5 -19.5t20 -23.5t14.5 -31t10 -30.5l9 -31.5q26 -89 39 -163q19 -100 23 -212 q8 -178 -7 -355q0 -25 -3 -38q5 4 17.5 9t17.5 9q43 28 58.5 38.5t55 38t58 43t49 43.5t47.5 51t35.5 53t29.5 60q0 2 2.5 5t3 4.5t3 4.5t3.5 4l4 4t4.5 3.5t5 2.5t6 1.5t7 0.5t8.5 0q17 0 25 -17.5t0 -35.5q-9 -34 -26 -67t-35.5 -58.5t-48 -54.5t-51.5 -48t-60.5 -46 t-60.5 -41t-64 -41q-14 -9 -21 -13q-30 -17 -88 -58q-19 -112 -25 -134q-4 -24 -16.5 -72t-13.5 -54l-9.5 -32t-24 -78t-31 -99t-35 -105.5t-32.5 -86.5q-24 -54 -42 -93t-45.5 -91t-54.5 -91t-63 -78.5t-75 -68.5q-5 -3 -10.5 -6.5t-9.5 -6.5t-9.5 -6t-10 -6t-10 -5.5 t-11.5 -4.5q-56 -29 -112 -47q-39 -15 -78 -15q-54 0 -87 29q-42 42 -27 108q73 285 275 586q34 51 80 105t79.5 88t93 93t86.5 86q16 17 28 30q1 0 20 146q22 244 25 417q0 13 1.5 55.5t1.5 59.5t-0.5 54.5t-2.5 60t-6 54t-11.5 59t-16.5 53.5q-3 2 -5.5 2.5t-3.5 -0.5 t-3.5 -4t-3.5 -4q-6 -6 -15 -19.5t-10 -15.5q-43 -71 -64 -122q-4 -8 -12 -25t-11 -25q-61 -118 -95 -180q-24 -44 -78 -136q-5 -9 -27 -45.5t-45.5 -74.5t-24.5 -40q-30 -51 -48 -81t-47.5 -72t-57.5 -72q-28 -32 -65 -58q-59 -51 -115 -66q-93 -27 -170.5 -3.5t-133 86 t-79.5 151.5q-11 42 -15 96zM521.5 1980q2.5 24 16 46t37.5 37q37 23 75 23q1 0 21 -8.5t29 -14.5q38 -33 33 -89q0 -59 -52 -108q-30 -24 -70.5 -18t-60.5 37q-19 24 -25 44q-6 27 -3.5 51zM533.5 -710.5q-0.5 -2.5 0.5 -6t4 -6.5q14 -11 39.5 -11t45.5 8q81 29 127 58 q3 2 8 6t7 7q8 6 15.5 13.5t13.5 14t12.5 17.5t11 17t11 19.5t9 18t9 20t8 19t8.5 20.5t7 19q57 110 90 212q42 130 83 328q5 19 22.5 77.5t19.5 74.5q-55 -56 -140.5 -156t-144.5 -187q-184 -272 -262 -564q-1 -3 -2.5 -9.5t-2 -9zM778 1937q-23 80 45 129q37 23 76 23 l20 -8.5t29 -14.5q38 -30 38 -90q-4 -60 -55 -107q-30 -24 -71 -18.5t-60 37.5q-18 23 -22 49z" />
<glyph unicode="&#x2c6;" horiz-adv-x="450" d="M50 1718q-7 20 2 36q17 31 54.5 80t68 85t30.5 37q18 18 38 18q29 0 42 -23q4 -5 71.5 -94.5t76.5 -102.5q20 -40 -18 -71q-41 -20 -72 18q-2 6 -19.5 30t-46 63t-36.5 52q-24 -26 -55.5 -70.5t-45.5 -74.5q-21 -20 -43 -20q-9 0 -24 7q-16 10 -23 30z" />
<glyph unicode="&#x2dc;" horiz-adv-x="510" d="M81 1778q-4 42 1.5 63.5t30.5 37.5q31 22 82 37q30 0 48 -2q5 -3 18.5 -8t18.5 -8q12 -5 40.5 -22.5t51 -26.5t40.5 -6q2 0 5 5t3 11q0 16 11 26.5t22 10.5t17 -3q18 -9 18 -37v-13q0 -26 -16 -47q-18 -21 -60 -42q-22 -9 -43 -7t-49 14t-50 24t-47 25t-40 17 q-2 0 -4.5 0.5t-5 1.5t-3.5 1q-2 -1 -6 -2.5t-6.5 -3t-5.5 -3.5t-5 -6t-2 -9q-2 -10 -0.5 -13.5t0.5 -4.5q-3 -6 -7 -11.5t-9 -8.5t-9 -5.5t-7 -2.5l-3 -1q-8 0 -17 5t-12 14z" />
<glyph unicode="&#x2000;" horiz-adv-x="1758" />
<glyph unicode="&#x2001;" horiz-adv-x="3517" />
<glyph unicode="&#x2002;" horiz-adv-x="1758" />
<glyph unicode="&#x2003;" horiz-adv-x="3517" />
<glyph unicode="&#x2004;" horiz-adv-x="1172" />
<glyph unicode="&#x2005;" horiz-adv-x="879" />
<glyph unicode="&#x2006;" horiz-adv-x="586" />
<glyph unicode="&#x2007;" horiz-adv-x="586" />
<glyph unicode="&#x2008;" horiz-adv-x="439" />
<glyph unicode="&#x2009;" horiz-adv-x="703" />
<glyph unicode="&#x200a;" horiz-adv-x="195" />
<glyph unicode="&#x2010;" horiz-adv-x="875" d="M18 580q-4 22 8 40.5t34 22.5q356 76 713 28q19 -4 32.5 -20.5t9.5 -37.5q0 -22 -17.5 -36.5t-39.5 -10.5q-350 45 -680 -28h-8q-17 0 -32.5 12.5t-19.5 29.5z" />
<glyph unicode="&#x2011;" horiz-adv-x="875" d="M18 580q-4 22 8 40.5t34 22.5q356 76 713 28q19 -4 32.5 -20.5t9.5 -37.5q0 -22 -17.5 -36.5t-39.5 -10.5q-350 45 -680 -28h-8q-17 0 -32.5 12.5t-19.5 29.5z" />
<glyph unicode="&#x2012;" horiz-adv-x="875" d="M18 580q-4 22 8 40.5t34 22.5q356 76 713 28q19 -4 32.5 -20.5t9.5 -37.5q0 -22 -17.5 -36.5t-39.5 -10.5q-350 45 -680 -28h-8q-17 0 -32.5 12.5t-19.5 29.5z" />
<glyph unicode="&#x2013;" horiz-adv-x="759" d="M20 786q0 22 15.5 37t37.5 15h535q22 0 37 -15t15 -37t-15 -37.5t-37 -15.5h-535q-22 0 -37.5 15.5t-15.5 37.5z" />
<glyph unicode="&#x2014;" horiz-adv-x="733" d="M5 788.5q0 22.5 15.5 37.5t37.5 15h535q22 0 37 -15t15 -37.5t-15 -37.5t-37 -15h-535q-22 0 -37.5 15t-15.5 37.5z" />
<glyph unicode="&#x2018;" horiz-adv-x="327" d="M11.5 1450.5q-1.5 30.5 8.5 54.5t30 44q25 25 52 35t53.5 -0.5t41.5 -44.5q25 -56 -14 -111q-14 -19 -22 -33.5t-13.5 -33t-3 -36.5t12.5 -37q11 -18 15 -37.5t-4 -37.5q-15 -24 -33.5 -23t-37 18.5t-31 35t-16.5 27.5q-15 39 -21 65q0 4 -2 12q-8 34 -11 53t-4.5 49.5z " />
<glyph unicode="&#x2019;" horiz-adv-x="318" d="M29 1256q-3 13 8 30.5t26 29.5q23 19 32.5 43t8 45.5t-8.5 53.5q-17 63 28 107q29 28 57 26t49.5 -21t35.5 -49q9 -21 9.5 -43.5t-3.5 -40.5t-17 -42t-21.5 -37t-25.5 -37q-2 -3 -3 -4t-2 -3t-2 -3q-7 -8 -19 -24l-18 -24q-7 -7 -26.5 -19.5t-43 -22.5t-43 -2.5 t-21.5 37.5z" />
<glyph unicode="&#x201a;" horiz-adv-x="337" d="M29 -183q-2 9 3.5 21.5t13.5 22t17 16.5q23 19 32.5 43t8 45t-8.5 53q-17 63 28 107q29 28 57 26t49.5 -21t35.5 -49q9 -21 9.5 -43.5t-3.5 -39.5t-16.5 -41t-21.5 -37t-25 -37q-6 -7 -8 -11q-7 -8 -19 -24t-18 -23q-7 -8 -26.5 -20.5t-43 -22.5t-43 -2.5t-21.5 37.5z " />
<glyph unicode="&#x201c;" horiz-adv-x="531" d="M-25.5 1309.5q-0.5 22.5 3 40t16 40.5t21 36t24.5 36q2 2 3 3.5t2.5 4t2.5 3.5q6 11 21 29t19 24q6 5 19 14.5t32 18t36.5 11.5t30.5 -6t15 -33q0 -9 -3 -18t-8 -17.5t-12.5 -15.5t-16.5 -12q-21 -17 -28.5 -41t-6 -45t9.5 -53q15 -60 -32 -108q-26 -26 -53.5 -25.5 t-48.5 19.5t-36 51q-10 21 -10.5 43.5zM200 1309.5q-1 22.5 3 40t16 40.5t20.5 36t25.5 36q5 7 8 11q6 11 20.5 29t18.5 24q8 7 27 18.5t42.5 21t42.5 2t21 -36.5q0 -18 -11 -35.5t-28 -27.5q-16 -13 -25 -29t-10 -35t1.5 -35t7.5 -40q16 -60 -32 -108q-26 -26 -53.5 -25.5 t-48 19.5t-36.5 51q-9 21 -10 43.5z" />
<glyph unicode="&#x201d;" horiz-adv-x="536" d="M-23 1256q-3 13 8 30.5t25 29.5q24 19 33 43t8 45.5t-9 53.5q-16 63 28 107q29 28 57 26t50 -21t35 -49q10 -21 10.5 -43.5t-4 -40.5t-17 -42t-21.5 -37t-26 -37q-1 -3 -2 -4t-2.5 -3t-2.5 -3q-6 -8 -18.5 -24t-18.5 -24q-6 -7 -25.5 -19.5t-43.5 -22.5t-43 -2.5 t-21 37.5zM202 1256q-3 13 8 30.5t26 29.5q23 19 32.5 43t8 45.5t-8.5 53.5q-17 63 28 107q20 20 42 24.5t40.5 -4.5t34 -25.5t25.5 -38.5q9 -21 9.5 -43.5t-4 -40.5t-17 -42t-21.5 -37t-25 -37q-5 -7 -8 -10l-18 -24t-19 -24q-6 -7 -25.5 -19.5t-43.5 -22.5t-43 -2.5 t-21 37.5z" />
<glyph unicode="&#x201e;" horiz-adv-x="581" d="M40 -68q-4 14 7 31t26 29q24 19 33 43t7.5 45t-8.5 53q-16 63 28 108q29 27 57 25.5t50 -20.5t35 -49q10 -20 10.5 -43t-4 -40.5t-17.5 -42t-21.5 -37.5t-25.5 -37q-5 -6 -7 -10q-6 -7 -18.5 -23t-18.5 -24q-6 -7 -26 -19.5t-43.5 -23t-43 -3t-20.5 37.5zM265 -68 q-2 10 3.5 22t13 21.5t16.5 16.5q24 19 33 43t8 45t-9 53q-16 62 30 108q28 27 56 25.5t49.5 -20.5t34.5 -49q10 -20 10.5 -43t-4 -40.5t-17 -42t-21.5 -37.5t-26 -37q-4 -6 -7 -10q-6 -7 -18.5 -23t-18.5 -24q-4 -6 -18 -15.5t-33 -19t-36.5 -13t-31 6t-14.5 33.5z" />
<glyph unicode="&#x2022;" horiz-adv-x="421" d="M92 733q-24 82 44 130q37 23 76 23q1 -1 21 -9t29 -14q36 -29 36 -90q-3 -60 -55 -107q-29 -25 -70 -19t-60 38q-17 20 -21 48z" />
<glyph unicode="&#x2026;" horiz-adv-x="864" d="M78 223q-10 40 2.5 75.5t47.5 58.5q37 23 77 23q1 0 21 -8.5t29 -14.5q37 -33 33 -89q0 -60 -52 -108q-30 -24 -71 -19t-60 37q-21 26 -27 45zM338 230q-24 81 45 130q37 23 75 23q1 -1 21 -9t29 -14q37 -30 37 -90q-3 -60 -55 -107q-29 -25 -70 -19.5t-60 36.5 q-18 23 -22 50zM593 230q-24 81 44 130q37 23 76 23q1 -1 21 -9t29 -14q37 -30 37 -90q-4 -60 -55 -107q-30 -25 -71.5 -19.5t-60.5 36.5q-16 21 -20 50z" />
<glyph unicode="&#x202f;" horiz-adv-x="703" />
<glyph unicode="&#x2039;" horiz-adv-x="801" d="M-35 687q0 1 3.5 7t8.5 13.5t11.5 15t11.5 10.5q11 10 55 47.5t65 57.5q526 458 538 470q6 7 17 14.5t15 11.5q55 19 75 -21q10 -17 5 -37t-22 -33q-7 -6 -18.5 -16t-47 -40.5t-70.5 -60.5t-83 -71.5t-89.5 -77.5t-85.5 -74t-76.5 -66t-56 -48.5t-29.5 -25.5 q-17 -16 -48.5 -42.5t-51 -42.5t-16.5 -18q0 -1 293.5 -229t401.5 -311q17 -13 20 -35.5t-10 -39.5q-5 -5 -13 -10t-15.5 -8.5t-12.5 -3.5q-14 0 -32 9q-214 168 -315 243q-221 168 -388 302q-26 17 -39 48.5t-1 61.5z" />
<glyph unicode="&#x203a;" horiz-adv-x="871" d="M-40.5 66q2.5 23 20.5 36q262 202 313 241q49 38 186.5 136t210.5 158q-92 86 -132 121q-17 16 -113 96.5t-190 159.5t-100 84q-59 51 -87 80q-4 2 -31 24.5t-29 23.5q-19 10 -25 32.5t4 41.5q14 20 33.5 25.5t39.5 -7.5q11 -4 32 -25l44 -40q176 -153 494 -430 q75 -65 120 -102q7 -5 16 -17.5t14 -22.5l6 -10q12 -35 1 -66t-37 -47q-76 -60 -212.5 -164t-177.5 -137q-30 -23 -96.5 -72t-118.5 -89t-98 -76q-12 -12 -34 -12q-30 0 -42 21q-14 14 -11.5 37z" />
<glyph unicode="&#x205f;" horiz-adv-x="879" />
<glyph unicode="&#x20ac;" horiz-adv-x="738" d="M-13 623q-4 22 8 38t34 20q12 1 35.5 5.5t35.5 5.5q0 2 -1.5 4.5t-1.5 3.5q-9 -1 -27.5 -3.5t-27.5 -4.5q-13 0 -34 15t-21 29q-4 24 8.5 41.5t36.5 17.5q14 3 41 7t40 6q11 63 49 119t90 93q85 62 186 65q88 4 185 -32q22 -7 30.5 -25.5t4.5 -41.5q-8 -18 -28.5 -27 t-41.5 -2q-27 11 -56 17t-66 7.5t-77 -9.5t-74 -36q-69 -46 -85 -108l-18 -10q18 2 40.5 5t41 5t41.5 5t40 5h13q17 3 51 7.5t51 6.5q23 0 38.5 -12.5t19.5 -34.5q0 -23 -13 -39t-35 -16l-117 -17q-23 -2 -76.5 -8.5t-81.5 -8.5q-4 0 -11 -3t-9 -3v-7q1 0 32 3t74 7.5 t67 7.5q78 12 112 15q15 2 27 -3.5t20 -16.5t11 -26q0 -23 -11.5 -38.5t-33.5 -19.5q-18 -1 -52.5 -5.5t-49.5 -5.5l-11 -3q-117 -11 -167 -18q-2 0 5.5 -13.5t22 -32.5t34.5 -38t49.5 -31t61.5 -10q16 2 33.5 0.5t38.5 1t40 7.5t38.5 20t33.5 39q10 20 31.5 26.5t41.5 -6.5 q19 -10 25 -31.5t-7 -41.5q-35 -59 -94.5 -89.5t-136.5 -30.5q-6 0 -18.5 -0.5t-23 -0.5t-20.5 1q-35 -3 -68.5 7t-59 29t-48.5 43t-39 48t-27.5 44.5t-17.5 33.5l-5 13q-15 -2 -37.5 -6t-30.5 -5q-23 -2 -40.5 11.5t-17.5 34.5z" />
<glyph unicode="&#x25fc;" horiz-adv-x="1061" d="M0 0v1061h1061v-1061h-1061z" />
</font>
</defs>
</svg>
