<?xml version="1.0" standalone="no"?>
<!DOCTYPE svg PUBLIC "-//W3C//DTD SVG 1.1//EN" "http://www.w3.org/Graphics/SVG/1.1/DTD/svg11.dtd" >
<svg xmlns="http://www.w3.org/2000/svg">
<metadata></metadata>
<defs>
<font id="vagrounded-boldregular" horiz-adv-x="1139" >
<font-face units-per-em="2048" ascent="1638" descent="-410" />
<missing-glyph horiz-adv-x="531" />
<glyph horiz-adv-x="2048" />
<glyph horiz-adv-x="2048" />
<glyph unicode="&#xd;" horiz-adv-x="2048" />
<glyph unicode=" "  horiz-adv-x="531" />
<glyph unicode="&#x09;" horiz-adv-x="531" />
<glyph unicode="&#xa0;" horiz-adv-x="531" />
<glyph unicode="!" horiz-adv-x="663" d="M177 129q0 64 45.5 109.5t109.5 45.5t109.5 -45.5t45.5 -109.5t-45.5 -108.5t-109.5 -44.5t-109.5 45t-45.5 108zM189 536v2v765q0 61 41 97.5t102 36.5q59 0 100.5 -37t41.5 -99v-763q0 -64 -41.5 -100t-100.5 -36q-61 0 -102 36t-41 98z" />
<glyph unicode="&#x22;" horiz-adv-x="881" d="M141 980v2v337q0 52 32 85t87 33t87 -33t32 -87v-335q0 -56 -31.5 -89t-87.5 -33q-55 0 -87 32.5t-32 87.5zM502 980v2v337q0 52 32 85t88 33q55 0 87 -33t32 -87v-335q0 -56 -32 -89t-87 -33q-56 0 -88 32.5t-32 87.5z" />
<glyph unicode="#" horiz-adv-x="1191" d="M0 497q0 36 23 65.5t72 29.5l199 2l32 227h-171q-49 -2 -72.5 27.5t-23.5 65.5t23.5 65.5t72.5 29.5l199 2l44 320q7 51 31 72t68 21q36 0 63.5 -22t27.5 -58v-14v-7q0 -4 -1 -8.5t-3 -17.5l-40 -286h191l44 320q8 51 31.5 72t67.5 21q36 0 63.5 -22t27.5 -58v-14v-7 q0 -4 -1 -8.5t-3 -17.5l-40 -286h171q50 -2 73 -31.5t23 -65.5t-22.5 -65.5t-73.5 -29.5l-198 2l-32 -227h171q49 -2 72 -31.5t23 -65.5t-23 -65.5t-72 -29.5l-199 2l-44 -321q-7 -55 -30 -75t-69 -20q-35 0 -63 21t-28 57v15.5v5.5q0 4 1 9t3 17l40 291h-191l-44 -321 q-8 -55 -30.5 -75t-68.5 -20q-36 0 -64 21t-28 57v15.5v5.5q0 4 1 9t3 17l40 291h-171q-49 -2 -72 27.5t-23 65.5zM487 594h188l32 227h-188z" />
<glyph unicode="$" horiz-adv-x="1066" d="M38 197q0 57 36 99t97 42q36 0 74.5 -12t80.5 -26q34 -12 70.5 -23t73.5 -15v2v332q-1 -2 -4 -1t-5 1q-23 7 -45 13.5t-46 14.5q-122 38 -224 111.5t-102 250.5q0 191 125 308.5t301 138.5v6v57q0 38 7.5 64.5t47.5 26.5t46.5 -26.5t6.5 -66.5v-59q30 -2 65.5 -7.5 t73.5 -15.5q77 -17 142.5 -59t65.5 -115q0 -58 -35 -103t-98 -45q-15 0 -29 3t-28 8q-13 4 -27 8t-29 9q-22 8 -46.5 15.5t-54.5 11.5v-263q30 -10 60.5 -18.5t62.5 -21.5q123 -42 225.5 -129t102.5 -277q0 -199 -132.5 -319.5t-318.5 -133.5v-7v-57v-3v-3q0 -32 -7.5 -60 t-45.5 -28t-46.5 28t-8.5 60v3v3v62q-35 0 -75.5 3.5t-82.5 11.5q-102 16 -188 63t-86 138zM366 1021q0 -37 28.5 -62t75.5 -43v2v227q-43 -14 -73.5 -45t-30.5 -79zM578 273q64 13 96.5 56.5t32.5 101.5q0 49 -36 79t-93 51v2v-290z" />
<glyph unicode="%" horiz-adv-x="1433" d="M61 1115q0 129 87 225.5t220 96.5t219 -96.5t86 -225.5t-86 -225t-219 -96v2q-133 -2 -220 94t-87 225zM264 1115q0 -48 27 -83t77 -35v2q49 -2 75.5 33t26.5 83q0 47 -26.5 83t-75.5 36q-50 0 -77 -36t-27 -83zM276 72q0 15 4 31t10 28q2 4 3 8t3 7v1l658 1240l6 12t7 9 q16 25 33.5 32.5t44.5 7.5q45 0 81 -33t36 -78v-3v-3q0 -10 -3 -22t-12 -32l-668 -1247l-14 -21t-12 -15q-12 -13 -26 -21.5t-38 -8.5q-6 0 -11 1t-10 1q-34 10 -63 39t-29 67zM760 294q0 129 87 225.5t220 96.5t219.5 -96.5t86.5 -225.5t-86.5 -223.5t-219.5 -94.5 t-220 94.5t-87 223.5zM963 294q0 -48 27.5 -82.5t76.5 -34.5v1q49 -1 76 33.5t27 82.5q0 47 -27 83t-76 36t-76.5 -36t-27.5 -83z" />
<glyph unicode="&#x26;" horiz-adv-x="1397" d="M48 404q0 147 89 255t210 175q-57 57 -94 121t-37 148q0 163 123.5 245.5t272.5 88.5h11h10q25 0 48.5 -2t47.5 -9q118 -22 214 -96.5t96 -205.5q0 -119 -78.5 -208.5t-173.5 -138.5v2l208 -231l78 89q13 14 26.5 28t24.5 25q23 17 46.5 27.5t53.5 10.5q44 0 76.5 -34 t32.5 -92q0 -39 -30.5 -87t-78.5 -102l-50 -51l136 -153q5 -10 10 -16t11 -13q10 -15 16 -32t6 -40q0 -50 -40.5 -91t-99.5 -41q-33 0 -58 11t-46 32l-138 146q-97 -87 -200.5 -138t-236.5 -51q-198 0 -342 109.5t-144 318.5zM334 431q0 -93 57.5 -143.5t148.5 -50.5 q70 0 121.5 22.5t100.5 64.5q6 6 14.5 12.5t15.5 14.5v3l-288 319q-68 -45 -119 -101t-51 -141zM514 1111q0 -16 3.5 -31t9.5 -29q11 -25 34 -50t59 -61q10 6 22 11.5t21 11.5q38 24 69.5 56.5t31.5 74.5v2q0 48 -26.5 74t-60.5 34q-12 4 -22.5 5t-21.5 1q-7 0 -15 -1 t-14 -3q-34 -10 -62 -34.5t-28 -60.5z" />
<glyph unicode="'" horiz-adv-x="476" d="M119 980v2v337q0 52 31.5 85t88.5 33q55 0 87 -33t32 -87v-335q0 -56 -32 -89t-87 -33q-56 0 -88 32.5t-32 87.5z" />
<glyph unicode="(" horiz-adv-x="478" d="M78 565q0 65 10.5 175.5t30.5 230.5q27 137 65 260.5t92 178.5q8 10 19 15.5t23 9.5q6 0 12 1t11 1v2q50 -2 89 -34t39 -84q0 -10 -5 -27.5l-11 -38.5q0 -4 -2 -7.5t-2 -9.5q-6 -14 -11 -27t-7 -21q-50 -151 -76.5 -309t-26.5 -316q0 -58 3 -118t10 -121q10 -89 30 -179 t48 -169q4 -8 10.5 -27t13.5 -38q0 -4 1 -7t3 -5q8 -26 15 -49t7 -30q0 -58 -34.5 -93t-93.5 -35q-35 0 -60 22t-42 53q-42 74 -74 184.5t-52 230.5q-17 106 -26 206.5t-9 174.5z" />
<glyph unicode=")" horiz-adv-x="478" d="M10 -191q0 10 4.5 27.5t11.5 38.5q0 4 2 8t2 9q6 14 11 27t7 22q49 151 76 307.5t27 316.5q0 57 -2.5 116.5t-11.5 120.5q-10 89 -30 179t-48 171q-4 8 -9.5 27t-13.5 38q0 4 -1 7.5t-3 5.5q-8 26 -15 48.5t-7 31.5q0 57 35.5 92t91.5 35q36 0 60.5 -22t43.5 -54 q41 -74 72.5 -185t52.5 -232q17 -106 26.5 -206.5t9.5 -172.5q0 -66 -11.5 -176.5t-30.5 -231.5q-26 -137 -65 -259t-92 -178q-8 -10 -19 -15t-23 -9q-6 0 -12 -1t-12 -1q-50 0 -88.5 32t-38.5 83z" />
<glyph unicode="*" horiz-adv-x="772" d="M57 923v3v3q0 42 32 63t70 35q4 2 9 4t9 4q9 4 19.5 8t17.5 8q-9 5 -19.5 9.5t-21.5 8.5q-4 2 -7 4t-7 2q-38 15 -70 36t-32 63q0 43 27.5 79t72.5 36h7t7 -2q28 -6 56.5 -27.5t64.5 -46.5l4 -2t4 -3q0 9 -2 20.5t-4 22.5v5t-2 5q-2 19 -5 38.5t-3 33.5q0 49 30.5 70 t70.5 21v2q40 -2 71 -23t31 -70q0 -14 -3 -33t-5 -39q0 -2 -1 -5t-1 -5q-2 -11 -3.5 -22.5t-3.5 -20.5q2 2 4.5 3t4.5 2q28 20 50.5 39.5t46.5 28.5q8 4 17 6t19 2q46 0 74.5 -36t28.5 -79q0 -42 -32.5 -63t-70.5 -36q-4 -2 -7 -3t-7 -3q-10 -4 -21 -8t-21 -10q8 -4 18 -8 l20 -8q4 -2 8 -3t10 -3q38 -15 70.5 -36.5t32.5 -63.5v-3v-3q-2 -41 -30.5 -75.5t-72.5 -34.5q-10 0 -19 2t-17 6q-22 9 -44 27t-47 38q-4 2 -7.5 5t-7.5 5q2 -9 3 -20.5t4 -22.5q0 -2 1 -5.5t1 -5.5q2 -19 5 -38t3 -33q0 -49 -31 -70.5t-71 -21.5t-70.5 21t-30.5 71 q0 14 3 33t5 38q2 2 2 5.5v5.5l4 22t2 21q-4 -2 -7 -5t-7 -5q-34 -25 -60.5 -45t-54.5 -26q-4 -2 -7 -2h-7q-44 0 -71 34.5t-29 75.5z" />
<glyph unicode="+" horiz-adv-x="1191" d="M70 501q0 53 31.5 86t87.5 33l288 2v288q0 51 31.5 84t87.5 33q55 0 87 -33t32 -86v-286h288q55 -2 87 -35t32 -86q0 -54 -31.5 -87t-87.5 -33l-288 2v-288q0 -55 -31.5 -87t-87.5 -32t-87.5 32t-31.5 85v290h-288q-55 -2 -87 31t-32 87z" />
<glyph unicode="," horiz-adv-x="531" d="M-17 -135q0 20 6.5 39.5t14.5 40.5l165 297q9 18 26 31t36 21q15 8 29.5 10.5t23.5 2.5q54 0 95.5 -38t41.5 -92q0 -18 -7 -36t-14 -33q0 -2 -1 -5.5t-3 -5.5v2l-167 -298q-10 -19 -27.5 -33t-34.5 -22q-14 -6 -28 -9t-24 -3q-53 0 -92.5 38.5t-39.5 92.5z" />
<glyph unicode="-" horiz-adv-x="772" d="M61 572q0 54 29 88.5t85 38.5v2h423q55 -6 84 -40.5t29 -88.5q0 -49 -28.5 -84t-84.5 -39l-423 2q-56 2 -85 37t-29 84z" />
<glyph unicode="." horiz-adv-x="531" d="M112 129v2q0 61 45.5 107t108.5 46q64 0 109.5 -45.5t45.5 -109.5t-45.5 -108.5t-109.5 -44.5t-109 45t-45 108z" />
<glyph unicode="/" horiz-adv-x="808" d="M16 83q0 4 5 20t13 36v2l531 1224q13 32 38 52t72 20q50 0 83.5 -32t33.5 -78q0 -4 -3.5 -19t-13.5 -36l-529 -1223q-13 -33 -38.5 -53t-72.5 -20q-50 0 -84.5 31t-34.5 76z" />
<glyph unicode="0" d="M44 705q0 42 2.5 84.5t8.5 86.5q30 208 147.5 384.5t367.5 176.5q251 0 367.5 -176.5t146.5 -384.5q6 -44 9 -86.5t3 -84.5t-3 -84.5t-9 -86.5q-30 -208 -146.5 -383t-367.5 -175q-250 0 -367.5 175t-147.5 383q-6 44 -8.5 86.5t-2.5 84.5zM354 705q0 -38 2 -90t12 -109 q15 -97 59.5 -179.5t142.5 -82.5v2q97 -2 142 80.5t61 179.5q10 56 12 108.5t2 90.5t-2 87.5t-10 103.5q-14 101 -59 185.5t-146 84.5t-146 -84.5t-58 -185.5q-8 -53 -10 -103t-2 -88z" />
<glyph unicode="1" horiz-adv-x="734" d="M49 1270v3v3q0 51 36 93.5t99 42.5l283 2q64 -2 98 -42.5t34 -99.5v-1129q0 -76 -42.5 -115.5t-105.5 -39.5q-64 0 -106.5 40t-42.5 113v2v998h-118q-70 -2 -101.5 38t-33.5 91z" />
<glyph unicode="2" d="M89 129q0 26 11.5 48t22.5 39l7 7t5 8q38 45 77.5 90t79.5 88q2 4 5 7l7 7q83 95 166.5 193.5t159.5 207.5q28 40 48.5 85.5t20.5 99.5q0 61 -40.5 107t-102.5 46q-86 0 -118.5 -50.5t-50.5 -110.5q-2 -4 -3 -7t-1 -7q-17 -57 -43 -102t-94 -45q-71 0 -108 43.5 t-37 102.5q0 189 142 320t325 131t312 -112.5t129 -301.5q0 -142 -91.5 -281.5t-200.5 -267.5q-50 -57 -97.5 -111t-86.5 -103v2h363q66 -2 110.5 -32.5t44.5 -100.5q0 -68 -43 -98.5t-100 -30.5h-664q-66 0 -110.5 30.5t-44.5 98.5z" />
<glyph unicode="3" d="M64 347q0 52 41 87.5t88 44.5q6 2 11.5 2h11.5q40 0 64 -24t44 -55q6 -10 11.5 -19.5t11.5 -16.5q28 -44 71 -81t126 -37q78 0 132.5 53t54.5 132q0 105 -52.5 133t-115.5 38h-7.5t-5.5 2q-59 8 -107.5 30t-48.5 105q0 78 43.5 101.5t96.5 37.5q54 13 97.5 39.5 t43.5 109.5q0 57 -38 95t-104 38q-72 0 -108 -30.5t-61 -66.5q-4 -6 -8.5 -11t-6.5 -9q-22 -32 -46.5 -55t-67.5 -23q-61 0 -95 46t-34 102q0 7 1 15.5t1 16.5q19 109 147 199.5t283 90.5v2q171 -2 271.5 -84.5t134.5 -182.5q10 -26 13.5 -51t3.5 -48q0 -93 -40.5 -172.5 t-122.5 -131.5q108 -49 175.5 -143.5t67.5 -212.5q0 -178 -144 -307.5t-357 -129.5q-172 0 -289.5 82.5t-163.5 182.5q-11 28 -17 54.5t-6 51.5z" />
<glyph unicode="4" d="M32 427q0 26 6 44t13 31q2 2 4 6t4 6l445 809q34 57 80 85.5t123 28.5q87 0 158 -60t71 -195v-608h33q57 -2 98.5 -37.5t41.5 -95.5q0 -59 -41 -95.5t-99 -36.5l-33 3v-169q0 -82 -34 -118.5t-110 -36.5q-75 0 -108.5 36.5t-33.5 116.5v171h-479q-59 -2 -92 26t-43 62 q-2 5 -3 13t-1 14zM377 574h273v554h-4z" />
<glyph unicode="5" d="M64 241q0 55 39.5 94.5t95.5 39.5q30 0 62.5 -19.5t70.5 -43.5t81.5 -44t92.5 -20q97 0 150 74t59 161q2 6 2 12.5v12.5q0 90 -48.5 145.5t-141.5 55.5q-44 0 -72 -9.5t-51 -22.5l-3 -3t-3 -1q-23 -11 -46.5 -20t-59.5 -9q-40 0 -66.5 17.5t-41.5 39.5q-4 10 -6.5 19 t-2.5 17q0 14 1 25t2 21v3v3q0 3 1 7t1 8l51 422q15 116 49 151t105 35l479 2q70 -2 107.5 -37.5t37.5 -89.5q0 -61 -24 -92t-51 -45q-17 -7 -35.5 -9t-28.5 -2l-373 2l-30 -212q24 4 48.5 8.5t50.5 8.5q12 0 25 1t25 1q180 0 295.5 -124.5t115.5 -298.5q0 -249 -134 -399 t-392 -150q-36 0 -83.5 8t-99.5 22q-95 30 -174.5 89.5t-79.5 145.5z" />
<glyph unicode="6" d="M72 467q0 77 24.5 162.5t64.5 172.5q49 103 114.5 204t133.5 188q44 53 86.5 99t80.5 81q12 12 29 24l34 24q16 10 32.5 12.5t27.5 2.5q10 0 23 -4t25 -11q34 -17 62.5 -52t30.5 -73v-3v-3q0 -8 -2 -15.5t-6 -16.5q-6 -12 -14.5 -23.5t-19.5 -25.5q-26 -32 -57.5 -67.5 t-65.5 -71.5q-2 -4 -5 -6t-5 -4q-39 -45 -77 -88.5t-63 -80.5l4 -2q22 8 48.5 14t53.5 8h11.5h11.5q178 0 296.5 -134t118.5 -311q0 -193 -139 -342t-360 -149q-229 0 -363.5 146t-134.5 345zM381 467q0 -84 50 -145.5t139 -61.5q86 0 137.5 60.5t51.5 146.5q0 79 -48 142.5 t-141 63.5v2q-85 -2 -137 -61.5t-52 -146.5z" />
<glyph unicode="7" horiz-adv-x="1067" d="M30 1270v3v3q0 51 32.5 93.5t114.5 42.5l719 2q54 -2 85.5 -29.5t45.5 -61.5q6 -13 9 -27.5t3 -25.5q0 -30 -14 -62t-32 -69l-492 -1000q-14 -30 -26 -51.5t-22 -39.5q-22 -32 -48 -46t-71 -14q-61 0 -101 30t-55 65q-5 12 -7 23t-2 21q0 6 1 13t1 13q2 10 6.5 19.5 t11.5 24.5v2l497 942h-509q-78 -2 -111.5 38t-35.5 91z" />
<glyph unicode="8" d="M80 427q0 119 59.5 206.5t152.5 137.5q-70 52 -110.5 121t-40.5 162q0 175 126.5 279t302.5 104q173 0 302 -102.5t129 -280.5q0 -83 -39.5 -160t-113.5 -123q101 -49 157 -139t56 -205q0 -207 -145 -329t-346 -122q-204 0 -347 126.5t-143 324.5zM389 447q0 -75 45 -137 t136 -62q86 0 133.5 62t47.5 137q0 93 -49.5 146t-131.5 53v2q-85 -2 -133 -59.5t-48 -141.5zM427 1023q0 -68 37.5 -109.5t105.5 -41.5q70 0 107.5 41.5t37.5 109.5q0 64 -38 107.5t-107 43.5v2q-69 -2 -106 -46t-37 -107z" />
<glyph unicode="9" d="M72 944q0 195 138.5 344t359.5 149v2q231 -2 365 -149t134 -346q0 -78 -25 -163.5t-64 -172.5q-50 -103 -116 -203.5t-133 -188.5q-43 -53 -86 -98.5t-80 -81.5q-12 -12 -29 -24t-35 -22q-16 -9 -32 -11.5t-28 -2.5q-9 0 -22.5 4t-24.5 10q-34 16 -63 51t-31 72v3v3 q0 8 2 16t5 16q6 12 15.5 24t18.5 26q27 32 58.5 67.5t65.5 71.5q2 3 4.5 5t4.5 4q40 46 78 89t64 81l-4 6q-22 -12 -49 -18t-55 -8h-10.5h-10.5q-179 0 -297 135t-118 310zM381 944q0 -80 48 -143.5t141 -63.5v2q86 -2 137.5 58t51.5 147q0 83 -49.5 144.5t-139.5 61.5 q-85 0 -137 -59.5t-52 -146.5z" />
<glyph unicode=":" horiz-adv-x="531" d="M112 129v2q0 61 45.5 107t108.5 46q64 0 109.5 -45.5t45.5 -109.5t-45.5 -108.5t-109.5 -44.5t-109 45t-45 108zM112 767v2q0 61 45.5 107t108.5 46q64 0 109.5 -46t45.5 -109q0 -64 -45.5 -109.5t-109.5 -45.5t-109 45.5t-45 109.5z" />
<glyph unicode=";" horiz-adv-x="531" d="M-17 -135q0 20 6.5 39.5t14.5 40.5l165 297q9 18 26 31t36 21q15 8 29.5 10.5t23.5 2.5v2q54 -2 95.5 -40t41.5 -92q0 -18 -7 -36t-14 -33q0 -2 -1 -5.5t-3 -5.5l-167 -296q-10 -19 -27.5 -33t-34.5 -22q-14 -6 -28 -9t-24 -3q-53 0 -92.5 38.5t-39.5 92.5zM112 767v2 q0 61 45.5 107t108.5 46q64 0 109.5 -46t45.5 -109q0 -64 -45.5 -109.5t-109.5 -45.5t-109 45.5t-45 109.5z" />
<glyph unicode="&#x3c;" horiz-adv-x="1191" d="M70 501q0 45 21 71.5t52 41.5l784 362q44 19 65 23t35 4q38 0 66.5 -30.5t28.5 -94.5q0 -32 -15 -58t-56 -43l-662 -275l662 -276q41 -19 56 -45t15 -58q0 -61 -28.5 -92t-66.5 -31q-13 0 -34.5 3t-65.5 23l-784 363q-32 12 -52.5 39t-20.5 73z" />
<glyph unicode="=" horiz-adv-x="1191" d="M70 278q0 54 31.5 87t87.5 33v2h814q55 -2 87 -35t32 -87q0 -53 -31.5 -86t-87.5 -33l-814 2q-55 -2 -87 30.5t-32 86.5zM70 723q0 53 31.5 86t87.5 33v2h814q55 -2 87 -34.5t32 -86.5t-31.5 -86.5t-87.5 -32.5l-814 2q-55 -2 -87 30.5t-32 86.5z" />
<glyph unicode="&#x3e;" horiz-adv-x="1191" d="M70 123q0 32 14.5 58t56.5 43v2l661 276l-661 277q-42 15 -56.5 41t-14.5 58q0 64 28.5 94.5t66.5 30.5q13 0 34 -4t65 -25l785 -358q32 -16 52.5 -43t20.5 -72q0 -46 -20.5 -72.5t-52.5 -41.5l-785 -359q-44 -22 -65 -25t-34 -3q-38 0 -66.5 30.5t-28.5 92.5z" />
<glyph unicode="?" horiz-adv-x="955" d="M6 1109q0 119 94.5 197t206.5 110q36 10 72 15.5t68 5.5q193 0 334 -112.5t141 -313.5q0 -165 -95.5 -263t-248.5 -138v-70q0 -61 -39.5 -99.5t-102.5 -38.5q-68 0 -106 38.5t-38 97.5v2v199q0 44 38 63t89 30q8 4 17 6t17 4q59 15 109 49t50 120q0 66 -51 108.5 t-114 42.5q-61 0 -102 -30.5t-72 -66.5q-6 -8 -11.5 -14t-11.5 -12q-26 -30 -54.5 -52t-68.5 -22q-53 0 -87 39t-34 105zM280 129q0 64 46 109.5t110 45.5t109 -45.5t45 -109.5t-45.5 -108.5t-108.5 -44.5q-64 0 -110 45t-46 108z" />
<glyph unicode="@" horiz-adv-x="1588" d="M64 705q0 302 214.5 517t515.5 215v2q279 -2 505.5 -183t226.5 -458q0 -165 -83.5 -267t-183.5 -158q-76 -41 -144 -59t-99 -18q-76 0 -107 29t-31 69l-4 2q-38 -48 -93 -74t-116 -26q-123 0 -206.5 104t-86.5 230v6v6q0 171 105 306.5t282 135.5q73 0 133 -27.5 t99 -91.5l4 2v24q0 44 26 68.5t86 24.5q38 0 64.5 -13.5t26.5 -41.5q0 -15 -2 -27.5t-4 -23.5q0 -4 -1 -6.5t-1 -6.5l-79 -359q-2 -9 -4 -20.5t-2 -22.5q-2 -6 -2 -12.5v-12.5q0 -17 10.5 -29t34.5 -12q16 0 40 8.5t48 28.5q41 34 76 98.5t35 165.5q0 213 -168 336t-385 123 q-228 0 -390 -160.5t-162 -391.5q0 -229 162 -390.5t390 -161.5q108 0 213.5 22t200.5 71q11 6 25 17.5t28 22.5l2 1q3 1 3 3q19 16 39 29t36 13h8.5t11.5 -2q19 -4 36 -19t17 -53q0 -12 -3 -23t-6 -21q-6 -13 -18.5 -29t-25.5 -34q-112 -101 -254 -137t-290 -38h-10.5 h-12.5q-301 0 -515.5 214t-214.5 515zM574 660q4 -62 38 -111.5t101 -49.5v2q87 -2 143 63.5t56 148.5q0 68 -40 118.5t-112 50.5q-69 0 -120.5 -56.5t-63.5 -122.5q0 -9 -1 -17.5t-1 -16.5v-4.5v-4.5z" />
<glyph unicode="A" horiz-adv-x="1251" d="M4 125q0 16 2 28t6 22q2 3 3 8.5t2 7.5v2l400 1081q26 68 81.5 115.5t131.5 47.5q79 0 133 -47.5t79 -117.5l390 -1079q10 -26 12.5 -46t2.5 -30q0 -57 -40.5 -93t-95.5 -36q-61 0 -95 29t-51 72l-59 189h-552l-60 -185q-14 -47 -48 -76t-95 -29q-59 0 -103 39t-44 98z M439 552h378l-186 576h-3z" />
<glyph unicode="B" d="M89 149v2v1115q0 70 44.5 108t112.5 38l382 2q155 -2 264 -97t109 -254q0 -103 -44.5 -174.5t-139.5 -117.5v-2q127 -19 214 -115t87 -225q0 -211 -127 -320t-333 -109h-410q-68 0 -113.5 40t-45.5 109zM387 262h235h7q76 0 127 42q53 44 53 129q0 69 -53 113t-158 44 l-211 2v-330zM387 855h155h7q69 -1 111 39q44 42 43 115q0 70 -47.5 105.5t-113.5 35.5l-155 2v-297z" />
<glyph unicode="C" horiz-adv-x="1213" d="M34 705v2q0 308 189.5 519t493.5 211q36 0 80.5 -4t90.5 -15q97 -19 177 -68t80 -137q0 -53 -34 -92.5t-90 -39.5q-11 0 -22.5 1.5t-20.5 3.5q-18 6 -37 13.5t-39 16.5q-34 12 -77.5 23t-107.5 11q-184 0 -279 -134t-95 -317q0 -176 95.5 -307.5t278.5 -131.5 q64 0 109.5 13t81.5 29q26 11 50 22.5t45 15.5q8 1 15 2t15 1q46 0 74.5 -24.5t42.5 -56.5q8 -14 11 -28t3 -25q0 -96 -82.5 -145.5t-179.5 -67.5q-51 -12 -99 -16t-86 -4q-302 0 -492.5 211t-190.5 518z" />
<glyph unicode="D" horiz-adv-x="1325" d="M89 147v2v1112q0 68 43 109.5t110 41.5l330 2q334 -2 517 -199t183 -529q0 -313 -186 -499.5t-494 -186.5h-346h-21.5t-23.5 4q-42 10 -77 43.5t-35 99.5zM387 275h201h6q188 0 277 122q90 124 90 302q0 191 -93 315.5t-300 124.5l-181 2v-866z" />
<glyph unicode="E" horiz-adv-x="919" d="M89 147v2v1093q0 73 38 121.5t117 48.5l493 2q72 -2 106.5 -44.5t34.5 -93.5v-3v-3q-2 -50 -38 -90.5t-103 -40.5l-350 2v-290h326q74 -2 109.5 -45.5t35.5 -94.5v-3v-3q-1 -49 -38 -90t-107 -41l-326 2v-301h368q71 -2 106 -45t35 -95v-3v-3q-2 -49 -37.5 -89 t-103.5 -40h-513q-65 0 -109 40t-44 107z" />
<glyph unicode="F" horiz-adv-x="881" d="M89 141v2v1116q0 59 41 106t114 47l509 2q66 -2 99.5 -44.5t33.5 -93.5v-3v-3q-2 -50 -34.5 -90.5t-98.5 -40.5l-366 2v-290h308q72 -2 107.5 -44.5t35.5 -93.5t-35.5 -95t-107.5 -44l-308 2v-433q0 -76 -42.5 -115.5t-105.5 -39.5q-64 0 -107 40t-43 113z" />
<glyph unicode="G" horiz-adv-x="1397" d="M34 705q0 310 189.5 521t493.5 211q222 0 381 -85.5t166 -189.5v-3v-3q0 -64 -36 -101t-87 -37q-32 0 -58 9.5t-50 23.5q-14 9 -28 18.5t-29 20.5q-42 26 -101.5 49t-157.5 23q-187 0 -280.5 -138t-93.5 -319q0 -180 93 -318.5t281 -138.5q13 0 27.5 1t28.5 3 q106 14 193.5 86.5t87.5 224.5l-201 2h-6q-57 0 -95 36q-39 38 -39 100q0 64 41.5 99.5t98.5 35.5v2h337q93 -2 134 -49.5t41 -142.5q0 -288 -174.5 -479t-473.5 -191q-302 0 -492.5 211t-190.5 518z" />
<glyph unicode="H" horiz-adv-x="1397" d="M89 141v2v1129q0 73 43 112.5t107 39.5t106 -40t42 -114v-419h624v421q0 73 42.5 112.5t106.5 39.5t107 -40t43 -114v-1127q0 -76 -43 -115.5t-107 -39.5t-106.5 40t-42.5 113v435h-624v-433q0 -76 -42.5 -115.5t-105.5 -39.5q-64 0 -107 40t-43 113z" />
<glyph unicode="I" horiz-adv-x="476" d="M89 141v2v1129q0 73 43 112.5t107 39.5t106 -40t42 -114v-1127q0 -76 -42.5 -115.5t-105.5 -39.5q-64 0 -107 40t-43 113z" />
<glyph unicode="J" horiz-adv-x="808" d="M-26 201q0 6 1 13.5t3 14.5q9 36 36.5 64.5t68.5 28.5q20 0 39 -5t39 -15q10 -4 19 -8t19 -8q30 -13 59.5 -25.5t63.5 -12.5q59 0 81 34t28 74q2 16 2 31v28v857q0 73 43 112.5t106 39.5q64 0 106.5 -40t42.5 -114v2v-874q0 -220 -100 -310t-222 -107q-17 -2 -35 -3.5 t-36 -1.5q-31 0 -64 3.5t-69 10.5q-88 18 -159.5 68t-71.5 143z" />
<glyph unicode="K" horiz-adv-x="1213" d="M89 129v2v1148q0 60 41 102.5t109 42.5q64 0 106 -38.5t42 -108.5v-426l489 520q4 2 7 5.5t9 7.5q16 14 40.5 27t58.5 13q58 0 103 -40t45 -103q0 -11 -2.5 -22.5t-6.5 -20.5q-10 -26 -32.5 -54t-56.5 -62l-376 -367l459 -479q8 -9 14.5 -16.5t13.5 -13.5 q25 -28 40.5 -57.5t15.5 -65.5q0 -70 -46.5 -102.5t-109.5 -32.5q-22 0 -41.5 6t-36.5 20q-18 11 -35 27t-37 39l-515 557v-506q0 -59 -40.5 -101t-107.5 -42q-64 0 -107 38t-43 103z" />
<glyph unicode="L" horiz-adv-x="845" d="M89 161v2v1109q0 73 43 112.5t107 39.5t106 -40t42 -114v-995h354q68 -2 101.5 -40t39.5 -82q2 -6 2 -11v-9v-1v-1v-1v-1q-2 -49 -40 -89t-103 -40h-497q-73 0 -114 43.5t-41 117.5z" />
<glyph unicode="M" horiz-adv-x="1727" d="M48 129v17t1 17v2l186 1109q0 3 2 9l4 12q17 47 68 88t120 41q75 0 129 -44.5t70 -98.5l234 -784h4l235 786q15 52 70 96.5t128 44.5q70 0 121 -41t68 -88l4 -12t2 -11l185 -1107q2 -10 2 -19v-17q0 -66 -41.5 -103.5t-102.5 -37.5q-75 0 -109.5 33.5t-45.5 103.5 l-116 811h-5l-238 -833q-2 -10 -6 -18.5t-8 -16.5q-16 -32 -50 -56t-95 -24t-95 24t-50 56q-4 8 -8 16.5t-6 16.5l-238 835h-4l-118 -809q-9 -72 -44 -105.5t-110 -33.5q-59 0 -101 38t-42 103z" />
<glyph unicode="N" horiz-adv-x="1359" d="M78 141v2v1129q0 73 42.5 112.5t105.5 39.5q12 0 26 -3t28 -9q20 -9 40 -23.5t31 -29.5l631 -838h4v751q0 73 42.5 112.5t105.5 39.5q64 0 106.5 -40t42.5 -114v-1127q0 -76 -42.5 -115.5t-106.5 -39.5q-12 0 -26 4t-27 8q-20 8 -40 22t-32 29l-630 833h-4v-741 q0 -76 -42.5 -115.5t-106.5 -39.5t-106 40t-42 113z" />
<glyph unicode="O" horiz-adv-x="1433" d="M34 705q0 310 189.5 521t493.5 211q300 0 492 -215t192 -517q0 -307 -189 -518t-495 -211q-302 0 -492.5 211t-190.5 518zM343 705q0 -180 93 -318.5t281 -138.5v2h5q185 0 276 136q92 138 92 319t-93 319t-280 138t-280.5 -138t-93.5 -319z" />
<glyph unicode="P" horiz-adv-x="1103" d="M89 141v2v1116q0 68 41 110.5t114 42.5l352 2q218 -2 363.5 -133t145.5 -343q0 -216 -146 -343.5t-351 -127.5l-221 2v-326q0 -76 -42.5 -115.5t-105.5 -39.5q-64 0 -107 40t-43 113zM387 731h203h6q88 0 142 59q56 61 56 150t-55 149.5t-149 60.5l-203 2v-421z" />
<glyph unicode="Q" horiz-adv-x="1433" d="M34 705q0 310 189.5 521t493.5 211q300 0 492 -215t192 -517q0 -131 -34 -248t-99 -211l112 -95q2 -4 4.5 -6t4.5 -4q26 -25 43.5 -50t17.5 -63q0 -49 -40.5 -85t-90.5 -38h-3h-3q-9 0 -19.5 1t-19.5 5q-20 6 -43 20t-51 37l-113 96q-74 -44 -161 -66t-189 -22 q-302 0 -492.5 211t-190.5 518zM343 705q0 -180 93 -318.5t281 -138.5q34 0 66 4t61 10l-71 72q-12 9 -22 24t-14 31q0 6 -1 11t-1 11q0 58 37 100.5t98 42.5q22 0 39.5 -7t36.5 -18v2l97 -78q26 55 36.5 119.5t10.5 132.5q0 177 -93 317t-280 140t-280.5 -138t-93.5 -319z " />
<glyph unicode="R" horiz-adv-x="1103" d="M89 141v2v1116q0 70 40 111.5t113 41.5l350 2q231 -2 362.5 -109t131.5 -342q0 -163 -107 -257t-260 -118l338 -359q23 -24 31 -46t8 -44q0 -58 -41.5 -104.5t-106.5 -46.5q-12 0 -25 2t-25 6q-17 4 -34.5 15t-31.5 27l-441 536h-4v-431q0 -76 -42.5 -115.5t-105.5 -39.5 q-64 0 -107 40t-43 113zM387 789h205h7q77 1 126 45q52 46 52 129q0 86 -52 131t-133 45l-205 2v-352z" />
<glyph unicode="S" horiz-adv-x="1066" d="M38 197q0 57 36 99t97 42q36 0 73.5 -12t79.5 -26q42 -16 87.5 -28t92.5 -12q99 0 151 49t52 122q0 68 -63.5 101t-154.5 58l-56 16t-58 18q-125 38 -228 113.5t-103 248.5q0 208 147 329.5t345 121.5v2q32 -2 78 -7.5t95 -17.5q82 -19 149 -61t67 -115q0 -58 -35 -103 t-98 -45q-13 0 -28 2t-29 7q-13 6 -28 11t-32 10q-32 12 -66.5 21t-79.5 9q-64 0 -113.5 -33t-49.5 -96q0 -51 51.5 -80t128.5 -51q36 -11 74 -22t77 -24q126 -44 229 -130t103 -278q0 -213 -150.5 -336.5t-357.5 -123.5q-40 0 -94 4t-109 14q-106 18 -193 65t-87 138z" />
<glyph unicode="T" horiz-adv-x="953" d="M-22 1270v3v3q0 51 35 93.5t99 42.5l730 2q64 -2 100 -44.5t36 -93.5v-3v-3q-2 -50 -34 -90.5t-102 -40.5l-216 2v-998q0 -76 -43 -115.5t-106 -39.5q-64 0 -106.5 40t-42.5 113v2v998h-216h-7q-65 0 -93 38q-30 40 -34 91z" />
<glyph unicode="U" horiz-adv-x="1359" d="M78 561v2v709q0 73 42.5 112.5t105.5 39.5q64 0 106.5 -40t42.5 -114v-692q0 -139 82.5 -234.5t223.5 -95.5q135 0 220 98.5t85 229.5v696q0 73 42.5 112.5t105.5 39.5q64 0 106.5 -40t42.5 -114v-707q0 -253 -178 -420t-424 -167q-248 0 -425.5 165.5t-177.5 419.5z" />
<glyph unicode="V" horiz-adv-x="1175" d="M-6 1281q0 64 45.5 103.5t106.5 39.5q51 0 82.5 -28.5t51.5 -68.5l308 -825l308 827q20 38 53 66.5t82 28.5q59 0 106 -40t47 -103q0 -11 -1 -21.5t-3 -19.5q-1 -8 -3.5 -16.5t-6.5 -15.5l-435 -1105q-19 -50 -50 -82.5t-97 -32.5t-96.5 32.5t-50.5 80.5v2l-435 1107 q-4 5 -5 13.5t-3 16.5q-2 9 -3 19.5t-1 21.5z" />
<glyph unicode="W" horiz-adv-x="1803" d="M16 1273v20v5v5q3 45 41 83t100 38q72 0 108.5 -38.5t50.5 -104.5l169 -842h4l258 871q15 51 57 82.5t98 31.5q55 0 97 -31.5t58 -84.5l258 -869h4l169 844q14 64 50.5 102.5t108.5 38.5q61 0 99 -37.5t42 -83.5v-5v-5v-19.5t-2 -18.5q0 -6 -2 -12.5t-4 -16.5l-252 -1083 q-14 -64 -64 -109.5t-133 -45.5q-74 0 -126.5 41t-70.5 102l-230 769h-4l-231 -767q-17 -64 -70 -104.5t-127 -40.5q-83 0 -131.5 46t-64.5 107v2l-252 1085q-2 8 -4.5 14.5t-2.5 12.5q-1 10 -1 18z" />
<glyph unicode="X" horiz-adv-x="1215" d="M8 125q0 28 9 53t21 40q0 2 1 4t3 4v3l394 528l-323 437q-13 18 -22.5 39.5t-9.5 45.5q0 66 44 105.5t108 39.5h5h6q34 -4 65.5 -25t52.5 -48l246 -348l247 350q19 26 51 46.5t65 24.5h7.5h5.5q64 0 107 -40t43 -105q0 -24 -8 -45.5t-23 -41.5l-322 -435l393 -528 q2 -4 3 -6.5t1 -4.5q11 -15 20.5 -40t9.5 -53q0 -61 -43 -99t-108 -38q-39 0 -70.5 15.5t-52.5 47.5l-326 455l-326 -453q-22 -34 -52.5 -49.5t-70.5 -15.5q-66 0 -108.5 38t-42.5 99z" />
<glyph unicode="Y" horiz-adv-x="1064" d="M-17 1279q0 60 39 102.5t101 42.5q40 0 71.5 -15.5t51.5 -43.5l287 -413l286 415q19 26 52 41.5t71 15.5q64 0 103 -42.5t39 -102.5q0 -24 -6.5 -46.5t-20.5 -42.5l-376 -527v-530q0 -57 -34.5 -101t-113.5 -44q-80 0 -115 44t-35 99v2v530l-375 529q-12 18 -18.5 40.5 t-6.5 46.5z" />
<glyph unicode="Z" horiz-adv-x="1177" d="M44 141q0 30 10 60t29 55l640 896h-522h-7q-54 0 -92 30q-40 32 -41 95q0 58 42.5 96.5t97.5 38.5l726 2q82 -2 122.5 -43.5t44.5 -91.5v-4.5v-4.5q0 -8 -1 -18t-3 -18q-4 -26 -14.5 -50t-24.5 -41l-636 -881h576q64 -2 103.5 -35.5t39.5 -97.5q0 -55 -44.5 -92 t-98.5 -37h-781q-79 0 -122.5 40t-43.5 101z" />
<glyph unicode="[" horiz-adv-x="551" d="M87 -163v1458q0 64 40 103t106 39l198 2q43 -2 74 -28.5t31 -87.5t-31 -87t-74 -26l-93 2v-1292h93q43 0 74 -25.5t31 -87.5q0 -61 -31 -87t-74 -26h-198q-66 0 -106 38.5t-40 104.5z" />
<glyph unicode="\" horiz-adv-x="808" d="M16 1327q0 46 33.5 78t83.5 32q47 0 72.5 -20t38.5 -54v2l531 -1224q10 -23 13.5 -38.5t3.5 -19.5q0 -45 -34.5 -76t-84.5 -31q-47 0 -71 20t-37 52l-533 1226q-8 19 -12 34t-4 19z" />
<glyph unicode="]" horiz-adv-x="551" d="M16 -193q0 61 31 87t74 26h93v1292h-93q-43 -2 -74 23.5t-31 87.5q0 61 31 87.5t74 26.5l199 2q66 -2 105.5 -41t39.5 -105v2v-1458q0 -66 -40 -104.5t-105 -38.5h-199q-43 0 -74 26t-31 87z" />
<glyph unicode="^" horiz-adv-x="1191" d="M146 703q0 18 6.5 37.5t18.5 42.5l320 584q13 26 37 39.5t50 15.5q4 2 9 2h9h8.5t9.5 -2q26 -2 50 -15.5t37 -41.5l320 -580q12 -25 19 -44.5t7 -37.5q0 -40 -30 -59.5t-71 -19.5q-36 0 -60 9t-42 34l-248 461l-249 -459q-17 -28 -41 -36.5t-60 -8.5q-41 0 -70.5 19.5 t-29.5 59.5z" />
<glyph unicode="_" horiz-adv-x="993" d="M-55 -199q0 24 16.5 37t38.5 13h993q25 0 41.5 -13t16.5 -37t-16.5 -36.5t-41.5 -12.5h-993q-22 0 -38.5 13t-16.5 36z" />
<glyph unicode="`" horiz-adv-x="440" d="M-22 1410q0 8 1.5 16.5t3.5 15.5q9 34 37 63t63 29q16 0 35 -5t41 -15v2l235 -96l15 -8q23 -13 37.5 -31t16.5 -39q2 -3 2 -6v-5v-8v-8q-6 -47 -34.5 -88t-70.5 -41h-19t-11 2q-6 2 -16 6t-34 12l-223 89q-41 14 -60 43t-19 72z" />
<glyph unicode="a" d="M40 525q0 236 138 395t334 159q80 0 152.5 -31.5t120.5 -99.5q6 51 45.5 85t91.5 34q75 0 102 -39t33 -84q2 -18 2 -34v-30v2v-707v-32t-2 -33q-6 -46 -33 -84t-102 -38q-62 0 -92 31.5t-45 88.5q-56 -66 -123.5 -99t-149.5 -33q-201 0 -336.5 154t-135.5 395zM326 508 q0 -9 2 -19q8 -93 62.5 -172.5t161.5 -79.5q103 0 156.5 79.5t62.5 172.5q2 10 2 18.5v17.5t-1 20t-1 23q-10 94 -63.5 171.5t-155.5 77.5q-106 0 -160 -77.5t-64 -171.5q0 -11 -1 -22.5t-1 -20.5v2v-19z" />
<glyph unicode="b" d="M81 146v1v1224q0 69 41 113t102 44q64 0 104 -44t40 -115v-387q57 47 127.5 72t143.5 25q222 0 337.5 -168t124.5 -371v-12.5v-15.5q0 -203 -127.5 -369.5t-343.5 -166.5q-14 0 -29 1t-29 4q-61 11 -116.5 40.5t-87.5 84.5q-14 -56 -49 -87t-95 -31q-61 0 -102 43 t-41 115zM368 534v2q0 -13 1 -25t1 -24q9 -93 63 -171.5t159 -78.5q97 0 151.5 74t67.5 163q2 12 3 25t1 26q0 11 -1 24.5t-3 24.5q-12 91 -66.5 167t-152.5 76q-112 0 -166 -84.5t-58 -186.5v-7v-5z" />
<glyph unicode="c" horiz-adv-x="919" d="M40 525q0 218 143 386t369 168q30 0 68 -4t77 -14q78 -15 141.5 -54.5t63.5 -108.5v2q0 -10 -1 -19t-3 -19q-9 -38 -36.5 -70t-69.5 -32q-11 0 -23 2t-24 7q-14 4 -29 9t-28 11q-28 9 -58.5 18.5t-63.5 9.5q-121 0 -180.5 -91t-59.5 -201v-8.5v-8.5q6 -103 67.5 -187 t172.5 -84q18 0 38 3.5t40 11.5q12 2 21.5 6t22.5 8q30 11 54.5 20.5t36.5 9.5q51 0 87 -37t36 -88q0 -70 -61.5 -112t-135.5 -61q-43 -12 -84 -17t-69 -5q-231 0 -371.5 163t-140.5 386z" />
<glyph unicode="d" d="M40 512v15v13q8 203 123 371t338 168q75 0 145.5 -25t126.5 -74v391q0 69 41 113t102 44q64 0 103.5 -44t39.5 -115v2v-1224q0 -73 -39.5 -116t-103.5 -43q-59 0 -94 30.5t-49 87.5q-32 -54 -87.5 -84t-117.5 -41q-13 -2 -28 -3.5t-30 -1.5q-216 0 -343 166.5t-127 369.5 zM326 525q0 -12 1 -25t3 -26q11 -89 66 -163t152 -74q106 0 159 78.5t64 171.5q0 12 1 24t1 23v2v3v7q-4 101 -58.5 186t-166.5 85q-97 0 -152 -76t-66 -167q-2 -11 -3 -24.5t-1 -24.5z" />
<glyph unicode="e" horiz-adv-x="1066" d="M19 525q0 218 143.5 386t370.5 168q200 0 334 -132t170 -291q4 -25 7 -49.5t3 -48.5q0 -64 -30 -95.5t-95 -31.5v2h-610q16 -108 93.5 -158.5t176.5 -50.5q55 0 102 18t87 40q40 23 73.5 40.5t61.5 17.5q46 0 81.5 -39t35.5 -85q0 -79 -117 -146.5t-258 -86.5 q-24 -2 -47 -4.5t-45 -2.5q-241 0 -389 156t-148 393zM306 622v2h454q-11 91 -70 153.5t-157 62.5q-96 0 -156.5 -63.5t-70.5 -154.5z" />
<glyph unicode="f" horiz-adv-x="587" d="M-40 929q0 54 35 89.5t88 35.5l64 3v147q0 157 84.5 240.5t215.5 83.5q76 0 137.5 -27t61.5 -102q0 -61 -29 -91.5t-88 -30.5q-36 0 -66 -13t-30 -92v-115h90q64 -2 104 -30t40 -98q0 -68 -40.5 -96.5t-103.5 -28.5l-90 2v-659q0 -73 -39.5 -116t-103.5 -43 q-61 0 -102 43t-41 115v1v659h-64h-6q-53 0 -84 32q-33 34 -33 91z" />
<glyph unicode="g" d="M40 523q0 216 127 386t343 170q14 0 29 -1t29 -3q62 -12 117.5 -43t87.5 -84q14 57 49 88t94 31q64 0 103.5 -43.5t39.5 -115.5v2v-827q0 -258 -153 -387t-398 -129q-34 0 -89 7t-115 22q-94 25 -170.5 69.5t-76.5 116.5q0 8 2 16.5t5 17.5q12 32 39.5 58.5t59.5 32.5h5 h5q34 0 70.5 -14t80.5 -32q44 -15 94.5 -29t112.5 -14q105 0 173.5 58t68.5 166v70h-4q-43 -68 -116 -102t-172 -34q-224 0 -332.5 166.5t-108.5 380.5zM326 529q0 -116 55.5 -204t166.5 -88q112 0 166.5 84t58.5 185v7v6v2q0 10 -1 21.5t-1 23.5q-10 94 -63.5 172.5 t-159.5 78.5q-97 0 -152 -75t-66 -164q-2 -12 -3 -25t-1 -24z" />
<glyph unicode="h" horiz-adv-x="1103" d="M81 146v1v1224q0 69 41 113t102 44q64 0 104 -44t40 -115v-387h4q32 37 78.5 59t97.5 30q22 4 43 6t40 2q169 0 280.5 -101.5t111.5 -283.5v-547q0 -73 -39.5 -116t-103.5 -43q-61 0 -102 43t-41 115v500q0 97 -54.5 145.5t-132.5 48.5q-87 0 -134.5 -56t-47.5 -140v-497 q0 -73 -40 -116t-104 -43q-61 0 -102 43t-41 115z" />
<glyph unicode="i" horiz-adv-x="440" d="M59 1339q0 61 49 109t112 48v2q64 -2 112.5 -48.5t48.5 -110.5q0 -68 -46.5 -116.5t-114.5 -48.5q-64 0 -112.5 50t-48.5 115zM78 146v1v763q0 70 40.5 113.5t101.5 43.5q64 0 104 -43.5t40 -115.5v-761q0 -73 -40 -116t-104 -43q-61 0 -101.5 43t-40.5 115z" />
<glyph unicode="j" horiz-adv-x="440" d="M59 1339q0 61 49 109t112 48v2q64 -2 112.5 -48.5t48.5 -110.5q0 -68 -46.5 -116.5t-114.5 -48.5q-64 0 -112.5 50t-48.5 115zM78 -275v1185q0 70 40.5 113.5t101.5 43.5q64 0 104 -43.5t40 -115.5v-1183q0 -71 -40 -114.5t-104 -43.5q-61 0 -101.5 44t-40.5 114z" />
<glyph unicode="k" horiz-adv-x="993" d="M81 146v1v1224q0 69 41 113t102 44q64 0 104 -44t40 -115v-666l313 304q34 32 68 46t62 14q51 0 84.5 -39t36.5 -84v-3v-3q0 -19 -5 -38.5t-17 -37.5q-8 -9 -16 -18.5t-18 -19.5l-254 -225l335 -392q14 -16 21.5 -33t10.5 -33q2 -8 3 -16t1 -15q0 -56 -38.5 -95 t-96.5 -39q-26 0 -48.5 10t-45.5 28q-9 9 -20 21.5t-23 25.5l-349 434h-4v-348q0 -73 -40 -116t-104 -43q-61 0 -102 43t-41 115z" />
<glyph unicode="l" horiz-adv-x="440" d="M78 146v1v1224q0 69 40.5 113t101.5 44q64 0 104 -44t40 -115v-1222q0 -73 -40 -116t-104 -43q-61 0 -101.5 43t-40.5 115z" />
<glyph unicode="m" horiz-adv-x="1691" d="M81 146v1v763q0 70 41 113.5t102 43.5q55 0 89 -28t43 -80q51 58 118.5 89t147.5 31q89 0 164.5 -37t131.5 -108q37 42 85 73.5t98 49.5q32 10 61.5 16t56.5 6q175 0 283.5 -98.5t108.5 -286.5v-547q0 -73 -39.5 -116t-103.5 -43q-62 0 -102.5 43t-40.5 115v500 q0 85 -44.5 139.5t-122.5 54.5q-79 0 -124 -54.5t-45 -141.5v-497q0 -73 -39.5 -116t-103.5 -43q-61 0 -102 43t-41 115v500q0 85 -44.5 139.5t-122.5 54.5q-87 0 -127.5 -54.5t-40.5 -141.5v-497q0 -73 -40 -116t-104 -43q-61 0 -102 43t-41 115z" />
<glyph unicode="n" horiz-adv-x="1103" d="M81 146v1v763q0 70 41 113.5t102 43.5q55 0 89 -28t43 -78q42 57 108.5 87.5t166.5 30.5q169 0 280.5 -101.5t111.5 -283.5v-547q0 -73 -39.5 -116t-103.5 -43q-61 0 -102 43t-41 115v500q0 97 -54.5 145.5t-132.5 48.5q-87 0 -134.5 -56t-47.5 -140v-497q0 -73 -40 -116 t-104 -43q-61 0 -102 43t-41 115z" />
<glyph unicode="o" horiz-adv-x="1103" d="M40 525q0 218 143 386t369 168v2q226 -2 369.5 -170t143.5 -386q0 -222 -141 -385.5t-372 -163.5t-371.5 163t-140.5 386zM326 508q0 -9 2 -19q8 -93 62.5 -172.5t161.5 -79.5q108 0 162.5 79.5t62.5 172.5q2 10 2 18.5v17.5t-1 20t-1 23q-10 94 -64.5 171.5t-160.5 77.5 v2q-106 -2 -160 -79.5t-64 -171.5q0 -11 -1 -22.5t-1 -20.5v-17z" />
<glyph unicode="p" d="M81 -275v1185q0 70 41 113.5t102 43.5q59 0 94.5 -31t49.5 -88q37 61 106.5 94t145.5 37h8.5h10.5q222 0 337.5 -168t124.5 -371v-12.5v-15.5q0 -203 -127.5 -369.5t-343.5 -166.5q-18 0 -36 2.5t-38 5.5q-50 10 -98.5 32t-89.5 58v-349q0 -71 -40 -114.5t-104 -43.5 q-61 0 -102 44t-41 114zM368 534v2q0 -13 1 -25t1 -24q9 -93 63 -171.5t159 -78.5q97 0 151.5 74t67.5 163q2 12 3 25t1 26q0 11 -1 24.5t-3 24.5q-12 91 -66.5 167t-152.5 76q-112 0 -166 -84.5t-58 -186.5v-7v-5z" />
<glyph unicode="q" d="M40 512v15v13q8 203 123 371t338 168h10h10q76 -4 145 -37t107 -94q14 57 49 88t94 31q64 0 103.5 -43.5t39.5 -115.5v2v-1185q0 -71 -39.5 -114.5t-103.5 -43.5q-61 0 -102 44t-41 114v351q-42 -38 -91 -60t-98 -32q-19 -3 -37 -5.5t-37 -2.5q-216 0 -343 166.5 t-127 369.5zM326 525q0 -12 1 -25t3 -26q11 -89 66 -163t152 -74q106 0 159 78.5t64 171.5q0 12 1 24t1 23v2v3v7q-4 101 -58.5 186t-166.5 85q-97 0 -152 -76t-66 -167q-2 -11 -3 -24.5t-1 -24.5z" />
<glyph unicode="r" horiz-adv-x="660" d="M78 146v1v778q0 66 42.5 102t93.5 40h5h5q57 0 98.5 -24.5t41.5 -94.5l4 2q39 57 86 87t114 30q52 0 95.5 -38t43.5 -115q0 -50 -29.5 -72.5t-71.5 -39.5q-15 -6 -33.5 -12.5t-36.5 -14.5q-2 0 -2.5 -1t-2.5 -1q-62 -30 -114.5 -68t-52.5 -121v-437q0 -73 -40 -116 t-104 -43q-61 0 -101.5 43t-40.5 115z" />
<glyph unicode="s" horiz-adv-x="845" d="M19 195q0 10 3.5 24t11.5 25q14 31 41.5 54.5t67.5 23.5q35 0 63.5 -11t53.5 -27q6 -2 11 -5t11 -4q32 -20 69.5 -35.5t87.5 -15.5q66 0 89.5 21t23.5 61q0 30 -30.5 50.5t-78.5 41.5q-30 11 -66.5 25t-72.5 28q-94 40 -171.5 105.5t-77.5 188.5q0 149 110 241.5 t278 92.5q28 0 58 -3t62 -11q89 -17 163 -66t74 -127v2q0 -51 -32.5 -90t-83.5 -39q-20 0 -50 13t-64 29q-19 7 -39.5 16.5t-39.5 15.5q-16 4 -32 6.5t-32 2.5q-38 0 -67.5 -18.5t-29.5 -60.5q0 -30 32 -52t79 -41q32 -12 66.5 -25t70.5 -29q93 -39 170.5 -104t77.5 -189 q0 -142 -111 -237.5t-296 -95.5q-30 0 -62.5 4t-64.5 12q-103 23 -188 76t-85 127z" />
<glyph unicode="t" horiz-adv-x="587" d="M-36 929q0 54 35 89.5t88 35.5l64 3v171q0 70 41 113t102 43q64 0 103.5 -43.5t39.5 -114.5v-169h82q55 -2 96 -30t41 -98q0 -68 -41 -96.5t-96 -28.5l-82 2v-659q0 -73 -39.5 -116t-103.5 -43q-61 0 -102 43t-41 115v1v659h-64h-6q-53 0 -84 32q-33 34 -33 91z" />
<glyph unicode="u" horiz-adv-x="1103" d="M81 391v3v516q0 70 41 113.5t102 43.5q64 0 104 -43.5t40 -115.5v-508q0 -92 56.5 -140t127.5 -48q72 0 128.5 47.5t56.5 138.5v512q0 70 41 113.5t102 43.5q64 0 103.5 -43.5t39.5 -115.5v-514q0 -193 -122 -305.5t-349 -112.5q-226 0 -348.5 112.5t-122.5 302.5z" />
<glyph unicode="v" horiz-adv-x="917" d="M0 912v7.5v7.5q0 70 44.5 105t102.5 35q48 0 75.5 -24t41.5 -52q2 -5 5.5 -12.5t5.5 -13.5l182 -561h4l183 563q2 4 5 11.5l5 12.5q13 28 41 52t76 24q57 0 103 -35t46 -105v-7.5v-7.5q-2 -16 -6 -31t-12 -37l-288 -736q-19 -58 -50 -89t-105 -31t-103.5 30.5t-51.5 87.5 v2l-288 738q-8 19 -12 34.5t-4 31.5z" />
<glyph unicode="w" horiz-adv-x="1545" d="M14 938.5v13.5q0 47 40.5 81t102.5 34q52 0 87.5 -31t47.5 -82l165 -545h4l167 535q15 55 49 89t96 34q64 0 96.5 -34t48.5 -91l166 -533h4l165 546q12 50 48 81t88 31q64 0 103.5 -37t39.5 -103q0 -24 -9 -48t-19 -58l-245 -688q-22 -64 -62.5 -104.5t-110.5 -40.5 q-66 0 -105 34.5t-59 96.5l-147 463h-4l-147 -461q-20 -64 -59.5 -98.5t-105.5 -34.5q-70 0 -111 41t-62 102v2l-242 686q-12 32 -19.5 57.5t-8.5 48.5q-2 6 -2 13.5z" />
<glyph unicode="x" horiz-adv-x="993" d="M0 125q0 8 2 18t4 18q6 17 15 33t19 28v2l290 330l-243 272q-13 14 -24.5 34t-14.5 40q-2 8 -3 15t-1 12q0 58 45.5 99t101.5 41q34 0 59 -14t46 -42l201 -249l200 251q23 26 47.5 40t57.5 14q55 0 101.5 -40.5t46.5 -99.5q0 -5 -1 -12t-3 -15q-4 -19 -15 -39.5 t-25 -36.5l-243 -270l291 -330q9 -14 18.5 -30t14.5 -33q2 -8 4 -18t2 -18q0 -61 -38.5 -99t-101.5 -38q-44 0 -68.5 14t-43.5 38q-2 2 -4 5t-4 4l-236 292l-237 -290l-4 -6t-4 -5q-19 -24 -43.5 -38t-67.5 -14q-61 0 -101 38t-40 99z" />
<glyph unicode="y" horiz-adv-x="955" d="M-2 944q0 43 30.5 75t70.5 44q8 2 16 3t16 1q51 0 88 -27t56 -75l195 -536l211 538q17 46 54.5 73t88.5 27q8 0 16 -1t17 -3q39 -12 70.5 -44t31.5 -75q0 -22 -2.5 -40t-10.5 -34l-479 -1190q-18 -46 -51 -79.5t-84 -33.5q-74 0 -112 38.5t-38 85.5q0 5 1 13t1 14 q2 13 7.5 27t9.5 29l125 309l-316 789q-6 14 -9 32t-3 40z" />
<glyph unicode="z" horiz-adv-x="955" d="M22 95q0 18 5 34.5t11 27.5q4 4 6 8l4 8v2l449 631h-332h-6q-49 0 -85 31q-38 33 -38 92t38 92t91 33l650 3q8 -2 18.5 -4t23.5 -6q19 -8 35 -27t16 -55q0 -17 -3 -30t-7 -25q-4 -6 -9 -14t-11 -16l-451 -630h377q53 -2 91.5 -35t38.5 -92t-38 -91t-92 -32h-665 q-48 0 -82.5 23t-34.5 72z" />
<glyph unicode="{" horiz-adv-x="660" d="M-17 565q0 35 21.5 65t71.5 30q37 0 66 20.5t29 110.5v387q0 132 67.5 195.5t197.5 63.5l122 2q40 -2 65 -24t25 -68q0 -43 -25 -66.5t-65 -23.5l-50 2q-41 -2 -64 -28.5t-23 -87.5v-374q0 -91 -39 -132t-86 -55q-24 -8 -48 -11t-41 -5v-1q17 -4 41.5 -7.5t47.5 -11.5 q47 -13 86 -54t39 -130v-374q0 -61 23 -88t64 -27h50q40 0 65 -23t25 -66q0 -46 -25 -68t-65 -22h-122q-129 0 -197 63t-68 197v386q0 87 -29 108t-66 21q-50 0 -71.5 30t-21.5 66z" />
<glyph unicode="|" horiz-adv-x="440" d="M101 93v1317q0 52 32 85t87 33t87.5 -33t32.5 -87v2v-1315q0 -55 -32 -87t-88 -32q-55 0 -87 32t-32 85z" />
<glyph unicode="}" horiz-adv-x="660" d="M14 -216q0 43 26 66t63 23h50q42 0 65 26.5t23 88.5v376q0 87 38.5 128t86.5 54q24 8 47.5 11.5t41.5 5.5v5q-18 0 -42 3t-47 11q-48 14 -86.5 54.5t-38.5 130.5v378q0 59 -23 85.5t-65 26.5l-50 2q-38 -2 -63.5 21t-25.5 67q0 46 26 68t63 22l123 2q129 -2 197 -65 t68 -198v2v-386q0 -91 28.5 -111.5t66.5 -20.5q49 0 72 -30.5t23 -64.5q0 -36 -23 -66t-72 -30q-38 0 -66.5 -21t-28.5 -110v-384q0 -134 -67.5 -197t-197.5 -63h-123q-38 0 -63.5 22t-25.5 68z" />
<glyph unicode="~" horiz-adv-x="1191" d="M81 419v3v3q0 11 1 22.5t3 22.5q18 82 94.5 150t203.5 68q30 0 59.5 -7.5t61.5 -17.5q27 -7 53.5 -19.5t54.5 -23.5q55 -26 105 -47t87 -21v2q42 -2 70 17t49 43q6 4 10.5 8t8.5 8q17 17 37 30t46 13q46 0 65 -28.5t21 -62.5v-3v-3q0 -11 -1 -22.5t-3 -22.5 q-18 -82 -94.5 -149.5t-203.5 -67.5q-30 0 -60 7t-61 17q-26 7 -53 19.5t-55 23.5q-55 26 -105 47t-88 21q-42 0 -69.5 -19t-49.5 -41l-10 -10t-8 -7q-17 -18 -37 -31t-46 -13q-46 0 -65 28.5t-21 62.5z" />
<glyph unicode="&#xa1;" horiz-adv-x="663" d="M177 923q0 64 45.5 110t109.5 46v2q64 -2 109.5 -48t45.5 -110t-45.5 -109t-109.5 -45t-109.5 45.5t-45.5 108.5zM189 -246v765q0 61 41 97t102 36q59 0 100.5 -37t41.5 -99v-762q0 -61 -41.5 -98t-100.5 -37q-61 0 -102 36t-41 99z" />
<glyph unicode="&#xa2;" horiz-adv-x="919" d="M40 533q0 204 118 356t314 182v57q0 38 7.5 64.5t47.5 26.5q39 0 46 -26.5t7 -66.5v-45q26 -2 59.5 -7t69.5 -13q72 -17 132.5 -57.5t60.5 -105.5q0 -8 -1 -15t-1 -15q-8 -42 -36 -76.5t-72 -34.5q-11 0 -23 1.5t-24 5.5q-14 4 -29 10.5t-28 12.5q-25 7 -51.5 16.5 t-56.5 11.5v2v-578q14 0 30 2.5t32 8.5q12 4 23.5 8t22.5 8q30 11 54.5 20.5t36.5 9.5q51 0 87 -37t36 -88q0 -74 -62.5 -116.5t-138.5 -60.5q-32 -8 -63.5 -13t-57.5 -5v-46v-3v-3q0 -32 -7.5 -59.5t-45.5 -27.5t-46.5 27.5t-8.5 59.5v3v3v54q-204 27 -318 181.5 t-114 367.5zM326 506q4 -77 41.5 -146.5t104.5 -99.5v2v534q-73 -34 -109.5 -109t-36.5 -162v-9.5v-9.5z" />
<glyph unicode="&#xa3;" horiz-adv-x="1213" d="M32 703q0 64 40.5 100.5t102.5 36.5l41 2q-9 17 -19 46.5t-19 61.5q-5 28 -9 54.5t-4 46.5q0 176 149 281t351 105q209 0 356 -98.5t147 -246.5q0 -68 -43.5 -109t-111.5 -41q-40 0 -66.5 22t-50.5 52q-6 7 -12 15l-12 16q-32 37 -74.5 70t-120.5 33q-74 0 -132 -38.5 t-58 -114.5q0 -28 6 -55.5t19 -49.5l30 -50h302q64 -2 103.5 -38.5t39.5 -100.5t-39.5 -100.5t-103.5 -36.5l-256 2q0 -81 -27 -155.5t-74 -139.5l552 2q64 -2 103.5 -39t39.5 -101t-39.5 -99.5t-103.5 -35.5h-779q-74 0 -114 40.5t-40 112.5q0 30 26.5 63.5t60.5 81.5 q32 45 58.5 110.5t26.5 157.5l-103 2q-62 -2 -102.5 34.5t-40.5 100.5z" />
<glyph unicode="&#xa4;" horiz-adv-x="1191" d="M51 268q0 9 5 18.5t12 15.5l7 7l5 5l115 117q-44 47 -68 120t-24 154v7v5q2 79 25 152t67 117l-115 117q-2 0 -5 4t-7 8q-6 5 -10.5 13t-6.5 19q0 15 3 33t22 37q7 12 18.5 18.5t22.5 9.5q6 2 13 3t13 1q15 0 31.5 -5.5t26.5 -17.5l113 -111q42 32 105.5 54.5t132.5 28.5 q10 0 22 1t22 1q9 0 21.5 -1t21.5 -1q70 -6 133.5 -28.5t105.5 -56.5l113 115q10 10 26 15.5t32 5.5q5 0 12.5 -1t13.5 -3q11 -3 22.5 -9t18.5 -19q16 -19 20.5 -37t4.5 -33q0 -10 -5.5 -19.5t-11.5 -14.5q-4 -4 -6.5 -7t-4.5 -5l-116 -114q44 -45 66.5 -118t24.5 -152v-5 v-7q0 -81 -23.5 -153.5t-67.5 -122.5l116 -113q2 -4 4.5 -7t6.5 -7q6 -6 11.5 -15t5.5 -19q0 -14 -4.5 -32t-20.5 -39q-7 -12 -18.5 -18t-22.5 -10q-6 -2 -13.5 -3t-12.5 -1q-16 0 -32 6t-26 18l-113 118q-48 -45 -123.5 -69t-158.5 -24v2q-84 -2 -159 22t-123 68l-113 -115 q-10 -13 -26 -19.5t-32 -6.5q-6 0 -13 1t-13 3q-11 4 -22.5 9.5t-18.5 18.5q-14 22 -19.5 39.5t-5.5 31.5zM341 705q0 -113 73 -188.5t182 -75.5t182 75.5t73 188.5q0 116 -72 192.5t-183 76.5v2q-110 -2 -182.5 -78.5t-72.5 -192.5z" />
<glyph unicode="&#xa5;" d="M19 1279q0 60 41 102.5t103 42.5q8 0 17 -1t19 -3q26 -6 50 -19.5t37 -35.5l284 -413l285 415q13 19 37 33t50 20q10 2 18.5 3t17.5 1q64 0 103 -42.5t39 -102.5q0 -24 -6.5 -46.5t-21.5 -42.5l-252 -348h161q38 -2 66.5 -25t28.5 -60q0 -38 -28.5 -61t-66.5 -23l-282 2 v-135h282q38 -2 66.5 -24.5t28.5 -60.5t-28.5 -60.5t-66.5 -22.5l-282 1v-240q0 -57 -33.5 -101t-115.5 -44q-79 0 -114 44t-35 99v2v240h-282q-38 -1 -66.5 21.5t-28.5 60.5t28.5 60.5t66.5 22.5l282 2v135h-282q-38 -2 -66.5 21t-28.5 61q0 37 28.5 60t66.5 23l161 2 l-252 350q-14 18 -21.5 40.5t-7.5 46.5z" />
<glyph unicode="&#xa6;" horiz-adv-x="531" />
<glyph unicode="&#xa7;" d="M40 512q0 112 41.5 188.5t123.5 143.5l6.5 6.5l4.5 4.5q-11 11 -21.5 24t-19.5 25q-25 34 -38.5 70.5t-13.5 88.5q0 179 129 276.5t304 97.5v2q40 -2 90.5 -8.5t102.5 -18.5q111 -28 204.5 -92.5t93.5 -176.5q0 -54 -39 -98t-94 -44q-36 0 -64.5 18t-57.5 44q-5 6 -12 12 t-16 13q-34 32 -74 59t-98 27q-56 0 -101.5 -37.5t-45.5 -99.5q0 -48 38 -75.5t97 -51.5q42 -16 92.5 -34.5t102.5 -45.5q123 -49 224.5 -124t101.5 -213q0 -121 -50 -198t-143 -142q-4 -4 -9 -7t-9 -7q12 -14 22 -28t17 -28q23 -34 35 -69.5t12 -81.5q0 -174 -127.5 -269.5 t-292.5 -95.5q-14 0 -30 1t-29 3q-163 16 -298 102t-135 194q0 66 47.5 106.5t110.5 40.5q30 0 53 -15.5t45 -40.5q8 -9 15.5 -17.5t15.5 -18.5q30 -35 70 -64t100 -29q8 0 16.5 1t18.5 3q42 8 75.5 36t33.5 74q0 61 -59.5 99t-142.5 70q-25 9 -51.5 19t-51.5 20q-2 0 -3 1 t-3 1q-117 46 -215.5 124.5t-98.5 234.5zM338 546q0 -49 26.5 -79.5t74.5 -53.5v2l251 -106q43 25 72 58t29 86t-44 90t-103 59l-219 88q-36 -28 -61.5 -63t-25.5 -81z" />
<glyph unicode="&#xa8;" horiz-adv-x="440" d="M-141 1341q2 57 44 99t99 42q59 0 101.5 -41.5t42.5 -101.5t-42.5 -101.5t-101.5 -41.5q-57 0 -99 41.5t-42 101.5zM296 1339v2q0 57 41.5 99t101.5 42t101.5 -41.5t41.5 -101.5t-41.5 -101.5t-101.5 -41.5q-59 0 -101 41.5t-42 101.5z" />
<glyph unicode="&#xa9;" horiz-adv-x="1588" d="M64 705v2q0 300 214.5 515t515.5 215q302 0 517 -215t215 -517q0 -301 -215 -515t-517 -214q-301 0 -515.5 214t-214.5 515zM242 705v2q0 -231 162 -392.5t390 -161.5q231 0 392 162t161 390q0 231 -161 391.5t-392 160.5q-228 0 -390 -160.5t-162 -391.5zM405 705 q0 175 106.5 292.5t288.5 117.5q112 0 192.5 -47t118.5 -103q15 -24 24.5 -45.5t9.5 -41.5q0 -54 -15 -75.5t-65 -31.5v2q-47 -2 -66 19t-34 50q-2 4 -4 9.5t-4 8.5q-3 6 -6 11t-7 11q-18 19 -49 36.5t-95 17.5q-89 0 -134.5 -62.5t-45.5 -168.5t45.5 -168.5t134.5 -62.5 q64 0 94.5 17t49.5 38q4 5 7 10t6 11q2 4 4 9.5t4 8.5q14 30 33.5 50.5t66.5 20.5q50 -8 65 -30.5t15 -75.5q0 -20 -9.5 -42t-24.5 -46q-38 -55 -118.5 -102t-192.5 -47q-182 0 -288.5 117.5t-106.5 291.5z" />
<glyph unicode="&#xaa;" horiz-adv-x="740" d="M26 1105q0 140 90.5 236t217.5 96q51 0 98 -19t78 -59q4 32 22 55t67 23q58 0 73.5 -34t15.5 -74v2v-467v-11v-9q-4 -26 -22 -47.5t-67 -21.5t-67 23t-22 55q-2 -2 -3 -3.5t-3 -3.5q-26 -26 -67 -48.5t-90 -22.5q-140 0 -230.5 92t-90.5 238zM216 1084q6 -57 41 -106 t103 -49v3q68 -2 99.5 46.5t37.5 105.5v9.5v11.5v11.5t-2 11.5q-4 57 -37 105t-98 48q-68 0 -102 -47.5t-40 -105.5q-2 -6 -2 -11.5v-11.5v-11.5v-9.5z" />
<glyph unicode="&#xab;" horiz-adv-x="993" d="M74 552v13t2 17t4 17q5 14 12 28.5t16 26.5q4 6 6.5 11.5t6.5 9.5v2l193 273q16 13 36 22.5t50 9.5q53 0 83.5 -33t30.5 -77q0 -19 -4 -38t-17 -38l-157 -238l157 -236q13 -22 17 -39t4 -31q0 -51 -32.5 -88t-85.5 -37q-30 0 -57 13t-43 37l-205 318q-6 7 -9.5 19.5 t-5.5 25.5q-2 6 -2 12zM479 552v13t2 17t4 17q6 14 12.5 28.5t14.5 26.5q4 6 7.5 11.5t7.5 9.5v2l192 273q15 13 35.5 22.5t49.5 9.5q53 0 84.5 -33t31.5 -77q0 -19 -4 -38t-18 -38l-157 -238l157 -236q14 -22 18 -39t4 -31q0 -51 -32.5 -88t-87.5 -37q-30 0 -56.5 13 t-42.5 37l-204 318q-6 7 -10 19.5t-6 25.5q-2 6 -2 12z" />
<glyph unicode="&#xac;" horiz-adv-x="531" />
<glyph unicode="&#xad;" horiz-adv-x="993" />
<glyph unicode="&#xae;" horiz-adv-x="1588" d="M64 705v2q0 300 214.5 515t515.5 215q302 0 517 -215t215 -517q0 -301 -215 -515t-517 -214q-301 0 -515.5 214t-214.5 515zM242 705v2q0 -231 162 -392.5t390 -161.5q231 0 392 162t161 390q0 231 -161 391.5t-392 160.5q-228 0 -390 -160.5t-162 -391.5zM501 391v616 q0 32 17.5 56.5t73.5 24.5l225 2q121 -2 208.5 -48.5t87.5 -184.5q0 -106 -52 -160.5t-147 -59.5l140 -228q6 -13 9.5 -23.5t3.5 -19.5q0 -32 -22 -51t-71 -19q-42 0 -63 23.5t-37 53.5q-4 6 -6 10l-4 8l-125 237h-60v-234q0 -44 -18.5 -71t-70.5 -27t-70.5 23.5t-18.5 71.5 zM679 771h149q50 -2 78 14.5t28 71.5q0 53 -28 71t-78 18l-149 2v-177z" />
<glyph unicode="&#xaf;" horiz-adv-x="531" />
<glyph unicode="&#xb0;" horiz-adv-x="794" d="M78 1116v2q0 131 93 225t227 94q133 0 226 -94t93 -227q0 -132 -93 -226t-226 -94t-226.5 94t-93.5 226zM233 1116v2q0 -69 48.5 -117.5t116.5 -48.5t116.5 48.5t48.5 115.5q0 68 -49 116.5t-116 48.5q-68 0 -116.5 -48.5t-48.5 -116.5z" />
<glyph unicode="&#xb1;" horiz-adv-x="1191" d="M70 117q0 54 31.5 87t87.5 33v2h814q55 -2 87 -35t32 -87q0 -53 -31.5 -85t-87.5 -32h-814q-55 0 -87 32t-32 85zM70 662q0 53 31.5 86t87.5 33l288 2v127q0 51 31.5 84t87.5 33q55 0 87 -33t32 -86v-125h288q55 -2 87 -35t32 -86q0 -54 -31.5 -87t-87.5 -33l-288 2v-127 q0 -55 -31.5 -88t-87.5 -33t-87.5 33t-31.5 86v129h-288q-55 -2 -87 31t-32 87z" />
<glyph unicode="&#xb2;" horiz-adv-x="531" />
<glyph unicode="&#xb3;" horiz-adv-x="531" />
<glyph unicode="&#xb4;" horiz-adv-x="440" d="M-22 1315v8v8v5t3 6q2 20 15.5 38.5t35.5 29.5l16 10l234 96q23 8 41 13t35 5q36 0 64.5 -29t38.5 -63q2 -7 3 -15.5t1 -16.5q0 -43 -20 -71.5t-62 -45.5l-222 -85q-24 -10 -34 -14l-15 -6q-4 -2 -11.5 -2h-19.5q-41 0 -69 41t-34 88z" />
<glyph unicode="&#xb5;" horiz-adv-x="1103" d="M81 -275v1185q0 70 41 113.5t102 43.5q64 0 104 -43.5t40 -115.5v-508q0 -92 56.5 -140t127.5 -48q72 0 128.5 47.5t56.5 138.5v512q0 70 41 113.5t102 43.5q64 0 103.5 -43.5t39.5 -115.5v-761q0 -73 -39.5 -116t-103.5 -43q-61 0 -102 36.5t-41 98.5l-4 2 q-19 -53 -50 -86t-63 -47q-18 -8 -36 -12t-34 -4q-14 0 -31 3.5t-32 10.5q-34 10 -65 33t-50 51l-4 2v-351q0 -71 -40 -114.5t-104 -43.5q-61 0 -102 44t-41 114z" />
<glyph unicode="&#xb6;" horiz-adv-x="1230" d="M30 1059q0 215 141 284t348 69l504 2q56 -2 88 -34.5t32 -86.5v-1595q0 -53 -32 -86t-88 -33q-55 0 -87 32.5t-32 86.5v1538h-193v-1538q0 -53 -31.5 -86t-87.5 -33t-88 32.5t-32 86.5v1023q-216 -2 -329 88.5t-113 249.5z" />
<glyph unicode="&#xb7;" horiz-adv-x="531" />
<glyph unicode="&#xb8;" horiz-adv-x="440" d="M87 -334q0 23 14 37.5t34 14.5q8 0 20 -3t25 -7q6 -2 15.5 -4t16.5 -4q4 0 9 -1t10 -1h1h3h3h1q24 0 40.5 11t16.5 45q0 39 -21 47t-46 8q-4 0 -7.5 1t-7.5 1q-22 2 -37.5 8t-15.5 35q0 6 5 17.5t11 22.5q1 2 3 5.5t4 7.5q6 8 11.5 15.5t9.5 11.5l47 66h120l-78 -101 q6 0 10.5 1t11.5 1q6 2 11 3t11 1q64 0 106.5 -40t42.5 -111q0 -80 -53 -124.5t-116 -56.5q-11 -4 -25.5 -5t-26.5 -1q-14 0 -34 1t-41 5q-38 8 -71 29t-33 64z" />
<glyph unicode="&#xb9;" horiz-adv-x="531" />
<glyph unicode="&#xba;" horiz-adv-x="716" d="M26 1105q0 131 93 231.5t241 100.5v2q147 -2 239.5 -102.5t92.5 -231.5q0 -133 -92 -231.5t-240 -98.5q-151 0 -242.5 98t-91.5 232zM216 1091q0 -8 2 -14q6 -56 41 -102t101 -46v3q61 -2 96 43.5t43 101.5q2 6 2 14v14v15.5t-2 15.5q-6 53 -40 99t-99 46 q-66 0 -100 -45.5t-42 -99.5q0 -8 -1 -15.5t-1 -15.5v-14z" />
<glyph unicode="&#xbb;" horiz-adv-x="993" d="M74 237q0 19 3.5 38t17.5 37v2l157 244l-157 233q-14 17 -17.5 34t-3.5 32q0 51 32.5 88t86.5 37q30 0 56.5 -13.5t42.5 -36.5l205 -314q7 -12 10 -24t5 -26q2 -5 2 -11.5v-12.5q0 -8 -2 -18t-4 -18q-6 -13 -12.5 -27t-14.5 -26q-4 -6 -7.5 -12t-6.5 -10l-192 -270 q-14 -17 -35.5 -26.5t-50.5 -9.5q-53 0 -84 33t-31 77zM479 237q0 19 4 38t18 37v2l157 244l-157 233q-14 17 -18 34t-4 32q0 51 32.5 88t86.5 37q30 0 56.5 -13.5t42.5 -36.5l205 -314q8 -12 11 -24t5 -26q2 -5 2 -11.5v-12.5q0 -8 -2 -18t-4 -18q-6 -13 -13 -27t-15 -26 q-4 -6 -7 -12t-7 -10l-193 -270q-14 -17 -34.5 -26.5t-50.5 -9.5q-54 0 -84.5 33t-30.5 77z" />
<glyph unicode="&#xbc;" horiz-adv-x="531" />
<glyph unicode="&#xbd;" horiz-adv-x="1710" d="M72 1325q0 46 23.5 72.5t63.5 26.5l184 2q42 -2 64 -26t22 -59v-687q0 -38 -27 -63.5t-74 -25.5q-44 0 -73 23.5t-29 63.5v2v570h-67q-46 -2 -66.5 26.5t-20.5 74.5zM302 72q0 15 3.5 31t10.5 28q2 4 3 8t3 7v1l658 1240q4 6 6.5 12t6.5 9q16 25 33 32.5t45 7.5 q45 0 81 -33t36 -78v-3v-3q0 -10 -3 -22t-13 -32l-668 -1247q-7 -12 -13 -21t-12 -15q-11 -13 -25.5 -21.5t-38.5 -8.5q-6 0 -10.5 1t-10.5 1q-34 10 -63 39t-29 67zM1013 78q0 15 8 29t18 26l1 1l3 3q26 28 51.5 55.5t52.5 55.5q1 2 3 3t2 3q56 57 110.5 117t100.5 124 q17 24 31 50.5t14 58.5q0 38 -25.5 56.5t-65.5 18.5q-57 0 -78.5 -27.5t-30.5 -59.5q-2 -2 -2 -4t-2 -4q-10 -32 -27 -57t-62 -25q-46 0 -70 30.5t-24 81.5q0 19 8 44.5t22 48.5q33 57 103 104t171 47q119 0 202.5 -65t83.5 -179q0 -76 -43.5 -147t-95.5 -129 q-37 -42 -71 -77t-52 -60l196 2q36 -2 65 -33t29 -75q0 -55 -23 -75t-58 -20h-451q-38 0 -66 18t-28 60z" />
<glyph unicode="&#xbe;" horiz-adv-x="531" />
<glyph unicode="&#xbf;" horiz-adv-x="955" d="M34 42q0 165 95 264t248 137v73q0 57 41 96.5t103 39.5q68 0 105 -39t37 -99v2v-198q0 -47 -37.5 -66t-89.5 -32q-7 -4 -16.5 -6t-17.5 -4q-59 -15 -109 -48t-50 -120q0 -64 52 -107t113 -43q64 0 104 31t72 67q6 8 10.5 13t10.5 11q26 30 55 51.5t68 21.5q54 0 88 -38.5 t34 -101.5q0 -120 -95 -198.5t-207 -110.5q-36 -10 -72 -14.5t-68 -4.5q-193 0 -333.5 112t-140.5 311zM366 923q0 64 45.5 110t109.5 46v2q64 -2 109 -48t45 -110t-45.5 -109t-108.5 -45q-64 0 -109.5 45.5t-45.5 108.5z" />
<glyph unicode="&#xc0;" horiz-adv-x="1251" d="M4 125q0 16 2 28t6 22q2 3 3 8.5t2 7.5v2l400 1081q26 68 81.5 115.5t131.5 47.5q79 0 133 -47.5t79 -117.5l390 -1079q10 -26 12.5 -46t2.5 -30q0 -57 -40.5 -93t-95.5 -36q-61 0 -95 29t-51 72l-59 189h-552l-60 -185q-14 -47 -48 -76t-95 -29q-59 0 -103 39t-44 98z M381 1732q0 8 1 16t3 16q10 34 39 63t65 29q15 0 34 -5t42 -16v2l233 -95l17 -8q22 -13 36.5 -31t16.5 -38q2 -4 2 -7v-5v-8v-8q-6 -47 -35 -88.5t-71 -41.5h-18t-11 2q-6 2 -16 6.5t-33 12.5l-223 89q-42 14 -62 43t-20 72zM439 552h378l-186 576h-3z" />
<glyph unicode="&#xc1;" horiz-adv-x="1251" d="M4 125q0 16 2 28t6 22q2 3 3 8.5t2 7.5v2l400 1081q26 68 81.5 115.5t131.5 47.5q79 0 133 -47.5t79 -117.5l390 -1079q10 -26 12.5 -46t2.5 -30q0 -57 -40.5 -93t-95.5 -36q-61 0 -95 29t-51 72l-59 189h-552l-60 -185q-14 -47 -48 -76t-95 -29q-59 0 -103 39t-44 98z M381 1637v8v8v5t2 7q2 19 17 37.5t37 29.5l16 10l235 95q22 8 40.5 13.5t33.5 5.5q36 0 65.5 -29.5t38.5 -62.5q2 -7 3 -15.5t1 -16.5q0 -43 -20 -72t-61 -45l-223 -85q-24 -10 -33.5 -14t-16.5 -7q-4 -2 -10.5 -2h-18.5q-42 0 -71 41t-35 89zM439 552h378l-186 576h-3z" />
<glyph unicode="&#xc2;" horiz-adv-x="1251" d="M4 125q0 16 2 28t6 22q2 3 3 8.5t2 7.5v2l400 1081q26 68 81.5 115.5t131.5 47.5q79 0 133 -47.5t79 -117.5l390 -1079q10 -26 12.5 -46t2.5 -30q0 -57 -40.5 -93t-95.5 -36q-61 0 -95 29t-51 72l-59 189h-552l-60 -185q-14 -47 -48 -76t-95 -29q-59 0 -103 39t-44 98z M324 1631q0 47 24 76t67 45v2l211 85l210 -85q44 -20 67.5 -47.5t23.5 -75.5t-36 -87.5t-85 -39.5q-14 0 -36.5 8t-46.5 20q-6 2 -11 3.5t-9 3.5l-77 36l-78 -34q-4 -4 -9 -5.5t-10 -3.5q-25 -12 -47.5 -20t-36.5 -8q-47 0 -84 39.5t-37 87.5zM439 552h378l-186 576h-3z" />
<glyph unicode="&#xc3;" horiz-adv-x="1251" d="M4 125q0 16 2 28t6 22q2 3 3 8.5t2 7.5v2l400 1081q26 68 81.5 115.5t131.5 47.5q79 0 133 -47.5t79 -117.5l390 -1079q10 -26 12.5 -46t2.5 -30q0 -57 -40.5 -93t-95.5 -36q-61 0 -95 29t-51 72l-59 189h-552l-60 -185q-14 -47 -48 -76t-95 -29q-59 0 -103 39t-44 98z M296 1615v5v5q0 81 55.5 127.5t133.5 46.5q34 0 66.5 -7.5t60.5 -15.5l54 -18t41 -8q16 0 34 9t38 21q10 4 20 9t20 8q9 4 21.5 7.5t21.5 3.5q46 0 69.5 -35t23.5 -76q0 -70 -54.5 -117.5t-119.5 -53.5q-4 -2 -9 -2h-12q-19 0 -44.5 6t-52.5 11q-5 2 -11 4t-10 2 q-32 10 -60 18t-46 8q-13 0 -25 -4.5t-22 -10.5q-4 -2 -8 -5.5t-9 -5.5q-15 -10 -33 -17.5t-43 -7.5v2q-34 -2 -64 26.5t-36 64.5zM439 552h378l-186 576h-3z" />
<glyph unicode="&#xc4;" horiz-adv-x="1251" d="M4 125q0 16 2 28t6 22q2 3 3 8.5t2 7.5v2l400 1081q26 68 81.5 115.5t131.5 47.5q79 0 133 -47.5t79 -117.5l390 -1079q10 -26 12.5 -46t2.5 -30q0 -57 -40.5 -93t-95.5 -36q-61 0 -95 29t-51 72l-59 189h-552l-60 -185q-14 -47 -48 -76t-95 -29q-59 0 -103 39t-44 98z M264 1661v2q0 57 41.5 99t101.5 42t101.5 -41.5t41.5 -101.5t-41.5 -101.5t-101.5 -41.5q-59 0 -101 41.5t-42 101.5zM439 552h378l-186 576h-3zM701 1661v2q0 57 42 99t101 42t101 -41.5t42 -101.5t-41.5 -101.5t-101.5 -41.5q-59 0 -101 41.5t-42 101.5z" />
<glyph unicode="&#xc5;" horiz-adv-x="1251" d="M4 125q0 16 2 28t6 22q2 3 3 8.5t2 7.5v2l400 1081q26 68 81.5 115.5t131.5 47.5q79 0 133 -47.5t79 -117.5l390 -1079q10 -26 12.5 -46t2.5 -30q0 -57 -40.5 -93t-95.5 -36q-61 0 -95 29t-51 72l-59 189h-552l-60 -185q-14 -47 -48 -76t-95 -29q-59 0 -103 39t-44 98z M429 1666v2q0 80 57.5 137.5t139.5 57.5q81 0 139 -57.5t58 -139.5q0 -81 -58 -138t-139 -57q-82 0 -139.5 57t-57.5 138zM439 552h378l-186 576h-3zM536 1666v2q0 -39 26 -65t64 -26q37 0 63 26t26 63q0 38 -26 64t-63 26q-38 0 -64 -26t-26 -64z" />
<glyph unicode="&#xc6;" horiz-adv-x="1653" d="M-6 112q0 19 3 33t7 28q2 7 6 15.5t9 18.5v2l616 1138q2 2 4.5 6t6.5 8q12 19 40.5 35t88.5 16l697 2q72 -2 106.5 -44.5t34.5 -93.5v-3v-3q-2 -50 -38 -90.5t-103 -40.5l-350 2v-290h326q74 -2 109.5 -45.5t35.5 -94.5v-3v-3q-2 -49 -38.5 -90t-106.5 -41l-326 2v-301 h368q72 -2 106.5 -45t34.5 -95v-3v-3q-2 -49 -37.5 -89t-103.5 -40h-512q-66 0 -110 40t-44 107v101h-454l-94 -163q-24 -43 -59 -70t-82 -27q-55 0 -98 32.5t-43 91.5zM506 516h318v576h-3z" />
<glyph unicode="&#xc7;" horiz-adv-x="1213" d="M34 705v2q0 308 189.5 519t493.5 211q36 0 80.5 -4t90.5 -15q97 -19 177 -68t80 -137q0 -53 -34 -92.5t-90 -39.5q-11 0 -22.5 1.5t-20.5 3.5q-18 6 -37 13.5t-39 16.5q-34 12 -77.5 23t-107.5 11q-184 0 -279 -134t-95 -317q0 -176 95.5 -307.5t278.5 -131.5 q64 0 109.5 13t81.5 29q26 11 50 22.5t45 15.5q8 1 15 2t15 1q46 0 74.5 -24.5t42.5 -56.5q8 -14 11 -28t3 -25q0 -96 -82.5 -145.5t-179.5 -67.5q-51 -12 -99 -16t-86 -4q-302 0 -492.5 211t-190.5 518zM474 -334q0 23 14 37.5t35 14.5q8 0 19.5 -3t25.5 -7q6 -2 15 -4 t16 -4q4 0 9.5 -1t9.5 -1h1h3h3h1q24 0 41 11t17 45q0 39 -21 47t-47 8q-4 0 -7 1t-7 1q-22 2 -38 8t-16 35q0 6 5 17.5t12 22.5q1 2 3 5.5t4 7.5q6 8 11 15.5t9 11.5l47 66h120l-78 -101q6 0 11 1t11 1q6 2 11 3t12 1q64 0 106 -40t42 -111q0 -80 -52.5 -124.5 t-116.5 -56.5q-11 -4 -25.5 -5t-25.5 -1q-14 0 -34.5 1t-41.5 5q-38 8 -71 29t-33 64z" />
<glyph unicode="&#xc8;" horiz-adv-x="919" d="M89 147v2v1093q0 73 38 121.5t117 48.5l493 2q72 -2 106.5 -44.5t34.5 -93.5v-3v-3q-2 -50 -38 -90.5t-103 -40.5l-350 2v-290h326q74 -2 109.5 -45.5t35.5 -94.5v-3v-3q-1 -49 -38 -90t-107 -41l-326 2v-301h368q71 -2 106 -45t35 -95v-3v-3q-2 -49 -37.5 -89 t-103.5 -40h-513q-65 0 -109 40t-44 107zM216 1732q0 8 1 16t3 16q10 34 39 63t65 29q16 0 34.5 -5t41.5 -16v2l233 -95l17 -8q22 -13 36.5 -31t16.5 -38q2 -4 2 -7v-5v-8v-8q-6 -47 -34.5 -88.5t-71.5 -41.5h-18t-11 2q-5 2 -15.5 6.5t-33.5 12.5l-223 89q-42 14 -62 43 t-20 72z" />
<glyph unicode="&#xc9;" horiz-adv-x="919" d="M89 147v2v1093q0 73 38 121.5t117 48.5l493 2q72 -2 106.5 -44.5t34.5 -93.5v-3v-3q-2 -50 -38 -90.5t-103 -40.5l-350 2v-290h326q74 -2 109.5 -45.5t35.5 -94.5v-3v-3q-1 -49 -38 -90t-107 -41l-326 2v-301h368q71 -2 106 -45t35 -95v-3v-3q-2 -49 -37.5 -89 t-103.5 -40h-513q-65 0 -109 40t-44 107zM216 1637v8v8v5t2 7q2 19 17 37.5t38 29.5l15 10l235 95q22 8 40.5 13.5t34.5 5.5q35 0 64.5 -29.5t38.5 -62.5q2 -7 3 -15.5t1 -16.5q0 -43 -20 -72t-61 -45l-222 -85q-25 -10 -34.5 -14t-16.5 -7q-4 -2 -10.5 -2h-18.5 q-42 0 -71 41t-35 89z" />
<glyph unicode="&#xca;" horiz-adv-x="919" d="M89 147v2v1093q0 73 38 121.5t117 48.5l493 2q72 -2 106.5 -44.5t34.5 -93.5v-3v-3q-2 -50 -38 -90.5t-103 -40.5l-350 2v-290h326q74 -2 109.5 -45.5t35.5 -94.5v-3v-3q-1 -49 -38 -90t-107 -41l-326 2v-301h368q71 -2 106 -45t35 -95v-3v-3q-2 -49 -37.5 -89 t-103.5 -40h-513q-65 0 -109 40t-44 107zM159 1631q0 47 24 76t67 45v2l211 85l210 -85q44 -20 67.5 -47.5t23.5 -75.5t-36 -87.5t-84 -39.5q-13 0 -36.5 8t-47.5 20q-6 2 -11 3.5t-9 3.5l-77 36l-78 -34q-4 -4 -8.5 -5.5l-10.5 -3.5q-24 -12 -47 -20t-37 -8q-47 0 -84 39.5 t-37 87.5z" />
<glyph unicode="&#xcb;" horiz-adv-x="919" d="M89 147v2v1093q0 73 38 121.5t117 48.5l493 2q72 -2 106.5 -44.5t34.5 -93.5v-3v-3q-2 -50 -38 -90.5t-103 -40.5l-350 2v-290h326q74 -2 109.5 -45.5t35.5 -94.5v-3v-3q-1 -49 -38 -90t-107 -41l-326 2v-301h368q71 -2 106 -45t35 -95v-3v-3q-2 -49 -37.5 -89 t-103.5 -40h-513q-65 0 -109 40t-44 107zM99 1661v2q0 57 41.5 99t101.5 42t101.5 -41.5t41.5 -101.5t-41.5 -101.5t-101.5 -41.5q-59 0 -101 41.5t-42 101.5zM536 1661v2q0 57 42 99t101 42t101.5 -41.5t42.5 -101.5t-42 -101.5t-102 -41.5q-59 0 -101 41.5t-42 101.5z" />
<glyph unicode="&#xcc;" horiz-adv-x="476" d="M-4 1732q0 8 1 16t3 16q8 34 37 63t64 29q15 0 34.5 -5t41.5 -16v2l234 -95l16 -8q22 -13 37 -31t17 -38q2 -4 2 -7v-5v-8v-8q-6 -47 -35 -88.5t-71 -41.5h-18.5t-11.5 2q-6 2 -15.5 6.5t-33.5 12.5l-222 89q-42 14 -61 43t-19 72zM89 141v2v1129q0 73 43 112.5t107 39.5 t106 -40t42 -114v-1127q0 -76 -42.5 -115.5t-105.5 -39.5q-64 0 -107 40t-43 113z" />
<glyph unicode="&#xcd;" horiz-adv-x="476" d="M-4 1637v8v8v5t2 7q2 19 16 37.5t35 29.5l17 10l234 95q22 8 41 13.5t34 5.5q36 0 65 -29.5t39 -62.5q2 -7 3 -15.5t1 -16.5q0 -43 -20 -72t-61 -45l-224 -85q-24 -10 -33.5 -14t-15.5 -7q-4 -2 -10.5 -2h-19.5q-42 0 -70.5 41t-32.5 89zM89 141v2v1129q0 73 43 112.5 t107 39.5t106 -40t42 -114v-1127q0 -76 -42.5 -115.5t-105.5 -39.5q-64 0 -107 40t-43 113z" />
<glyph unicode="&#xce;" horiz-adv-x="476" d="M-61 1631q0 47 23.5 76t65.5 45v2l211 85l210 -85q44 -20 67.5 -47.5t23.5 -75.5t-36.5 -87.5t-84.5 -39.5q-14 0 -36.5 8t-46.5 20q-6 2 -11 3.5t-9 3.5l-77 36l-78 -34q-4 -4 -9 -5.5t-11 -3.5q-25 -12 -47 -20t-37 -8q-47 0 -82.5 39.5t-35.5 87.5zM89 141v2v1129 q0 73 43 112.5t107 39.5t106 -40t42 -114v-1127q0 -76 -42.5 -115.5t-105.5 -39.5q-64 0 -107 40t-43 113z" />
<glyph unicode="&#xcf;" horiz-adv-x="476" d="M-123 1663q2 57 43.5 99t98.5 42q60 0 102 -41.5t42 -101.5t-41.5 -101.5t-102.5 -41.5q-57 0 -98.5 41.5t-41.5 101.5zM89 141v2v1129q0 73 43 112.5t107 39.5t106 -40t42 -114v-1127q0 -76 -42.5 -115.5t-105.5 -39.5q-64 0 -107 40t-43 113zM314 1661v2q0 57 42 99 t101 42t100.5 -41.5t41.5 -101.5t-41.5 -101.5t-100.5 -41.5t-101 41.5t-42 101.5z" />
<glyph unicode="&#xd0;" horiz-adv-x="1325" d="M-87 709v3v3q0 44 30.5 78.5t92.5 34.5l53 2v431q0 68 43 109.5t110 41.5l330 2q334 -2 517 -199t183 -529q0 -313 -186 -499.5t-494 -186.5h-346h-21.5t-23.5 4q-42 10 -77 43.5t-35 99.5v2v455h-53q-57 -2 -89 31.5t-34 73.5zM387 275h201q193 -2 283 122t90 302 q0 191 -93 315.5t-300 124.5l-181 2v-311h163q64 -2 94.5 -36.5t30.5 -78.5v-3v-3q-2 -40 -33.5 -73.5t-91.5 -33.5l-163 2v-329z" />
<glyph unicode="&#xd1;" horiz-adv-x="1359" d="M78 141v2v1129q0 73 42.5 112.5t105.5 39.5q12 0 26 -3t28 -9q20 -9 40 -23.5t31 -29.5l631 -838h4v751q0 73 42.5 112.5t105.5 39.5q64 0 106.5 -40t42.5 -114v-1127q0 -76 -42.5 -115.5t-106.5 -39.5q-12 0 -26 4t-27 8q-20 8 -40 22t-32 29l-630 833h-4v-741 q0 -76 -42.5 -115.5t-106.5 -39.5t-106 40t-42 113zM351 1615v5v5q0 81 56 127.5t133 46.5q34 0 66.5 -7.5t60.5 -15.5l54 -18t41 -8q16 0 34.5 9t37.5 21q10 4 20 9t20 8q10 4 22 7.5t22 3.5q45 0 69 -35t24 -76q0 -70 -54.5 -117.5t-120.5 -53.5q-4 -2 -8.5 -2h-10.5 q-20 0 -46 6t-52 11l-12 4t-10 2q-32 10 -59.5 18t-45.5 8q-14 0 -26 -4.5t-22 -10.5q-4 -2 -7.5 -5.5t-7.5 -5.5q-16 -10 -34 -17.5t-44 -7.5v2q-34 -2 -63.5 26.5t-36.5 64.5z" />
<glyph unicode="&#xd2;" horiz-adv-x="531" />
<glyph unicode="&#xd3;" horiz-adv-x="1433" d="M34 705q0 310 189.5 521t493.5 211q300 0 492 -215t192 -517q0 -307 -189 -518t-495 -211q-302 0 -492.5 211t-190.5 518zM343 705q0 -180 93 -318.5t281 -138.5v2q189 -2 281 136.5t92 318.5q0 181 -93 319t-280 138t-280.5 -138t-93.5 -319zM472 1637v8v8v5t2 7 q2 19 17 37.5t38 29.5l15 10l235 95q22 8 40.5 13.5t35.5 5.5q35 0 64 -29.5t38 -62.5q2 -7 3 -15.5t1 -16.5q0 -43 -19.5 -72t-61.5 -45l-222 -85q-25 -10 -34.5 -14t-15.5 -7q-4 -2 -11 -2h-19q-42 0 -70.5 41t-35.5 89z" />
<glyph unicode="&#xd4;" horiz-adv-x="1433" d="M34 705q0 310 189.5 521t493.5 211q300 0 492 -215t192 -517q0 -307 -189 -518t-495 -211q-302 0 -492.5 211t-190.5 518zM343 705q0 -180 93 -318.5t281 -138.5v2q189 -2 281 136.5t92 318.5q0 181 -93 319t-280 138t-280.5 -138t-93.5 -319zM415 1631q0 47 24 76t67 45 v2l211 85l210 -85q44 -20 68 -47.5t24 -75.5t-36.5 -87.5t-84.5 -39.5q-13 0 -36.5 8t-46.5 20q-6 2 -11.5 3.5t-9.5 3.5l-77 36l-78 -34q-4 -4 -8.5 -5.5l-10.5 -3.5q-24 -12 -47 -20t-37 -8q-47 0 -84 39.5t-37 87.5z" />
<glyph unicode="&#xd5;" horiz-adv-x="1433" d="M34 705q0 310 189.5 521t493.5 211q300 0 492 -215t192 -517q0 -307 -189 -518t-495 -211q-302 0 -492.5 211t-190.5 518zM343 705q0 -180 93 -318.5t281 -138.5v2q189 -2 281 136.5t92 318.5q0 181 -93 319t-280 138t-280.5 -138t-93.5 -319zM387 1615v5v5 q0 81 56 127.5t133 46.5q34 0 66.5 -7.5t60.5 -15.5l54 -18t41 -8q16 0 34.5 9t37.5 21q10 4 20 9t20 8q10 4 22 7.5t22 3.5q45 0 69 -35t24 -76q0 -70 -54.5 -117.5t-120.5 -53.5q-4 -2 -9 -2h-10q-20 0 -46 6t-52 11l-12 4t-10 2q-32 10 -59.5 18t-45.5 8q-14 0 -26 -4.5 t-22 -10.5q-4 -2 -8 -5.5t-7 -5.5q-16 -10 -34.5 -17.5t-43.5 -7.5v2q-34 -2 -63.5 26.5t-36.5 64.5z" />
<glyph unicode="&#xd6;" horiz-adv-x="1433" d="M34 705q0 310 189.5 521t493.5 211q300 0 492 -215t192 -517q0 -307 -189 -518t-495 -211q-302 0 -492.5 211t-190.5 518zM343 705q0 -180 93 -318.5t281 -138.5v2q189 -2 281 136.5t92 318.5q0 181 -93 319t-280 138t-280.5 -138t-93.5 -319zM356 1661v2q0 57 41.5 99 t101.5 42q59 0 101 -41.5t42 -101.5t-42 -101.5t-101 -41.5q-60 0 -101.5 41.5t-41.5 101.5zM792 1661v2q0 57 42 99t102 42q59 0 101 -41.5t42 -101.5t-42 -101.5t-101 -41.5t-101.5 41.5t-42.5 101.5z" />
<glyph unicode="&#xd7;" horiz-adv-x="531" />
<glyph unicode="&#xd8;" horiz-adv-x="1433" d="M0 51q0 18 8 33t20 29v2l139 141q-64 91 -98.5 206.5t-34.5 242.5q0 310 189.5 521t493.5 211q131 0 240.5 -40t189.5 -112l95 97q3 2 8 8.5t9 10.5q18 17 40 32t54 15h7t7 -2q26 -4 47 -22.5t21 -45.5q0 -7 -1 -19t-5 -24q-4 -4 -7.5 -10t-7.5 -12l-150 -153 q64 -95 100.5 -210.5t36.5 -244.5q0 -307 -189 -518t-495 -211q-133 0 -242 38.5t-191 110.5l-123 -123q-14 -16 -33.5 -27t-44.5 -11h-4.5h-4.5q-28 6 -51 30.5t-23 56.5zM343 705q0 -59 10.5 -115.5t31.5 -106.5v2l563 596q-42 37 -99 59t-132 22q-187 0 -280.5 -138 t-93.5 -319zM485 336q40 -42 98.5 -65t133.5 -23q189 0 281 138.5t92 318.5q0 61 -9.5 119t-33.5 108v2z" />
<glyph unicode="&#xd9;" horiz-adv-x="1359" d="M78 561v2v709q0 73 42.5 112.5t105.5 39.5q64 0 106.5 -40t42.5 -114v-692q0 -139 82.5 -234.5t223.5 -95.5q135 0 220 98.5t85 229.5v696q0 73 42.5 112.5t105.5 39.5q64 0 106.5 -40t42.5 -114v-707q0 -253 -178 -420t-424 -167q-248 0 -425.5 165.5t-177.5 419.5z M437 1732q0 8 1 16t3 16q10 34 38.5 63t64.5 29q16 0 35 -5t41 -16v2l235 -95l15 -8q22 -13 37 -31t16 -38q2 -4 2 -7v-5v-8v-8q-5 -47 -34 -88.5t-70 -41.5h-19.5t-10.5 2q-6 2 -16.5 6.5t-33.5 12.5l-222 89q-42 14 -62 43t-20 72z" />
<glyph unicode="&#xda;" horiz-adv-x="1359" d="M78 561v2v709q0 73 42.5 112.5t105.5 39.5q64 0 106.5 -40t42.5 -114v-692q0 -139 82.5 -234.5t223.5 -95.5q135 0 220 98.5t85 229.5v696q0 73 42.5 112.5t105.5 39.5q64 0 106.5 -40t42.5 -114v-707q0 -253 -178 -420t-424 -167q-248 0 -425.5 165.5t-177.5 419.5z M437 1637v8v8v5t2 7q2 19 16.5 37.5t37.5 29.5l15 10l235 95q22 8 40.5 13.5t35.5 5.5q36 0 64.5 -29.5t38.5 -62.5q1 -7 2 -15.5t1 -16.5q0 -43 -19.5 -72t-61.5 -45l-222 -85q-24 -10 -34 -14t-16 -7q-4 -2 -11 -2h-19q-41 0 -70 41t-35 89z" />
<glyph unicode="&#xdb;" horiz-adv-x="1359" d="M78 561v2v709q0 73 42.5 112.5t105.5 39.5q64 0 106.5 -40t42.5 -114v-692q0 -139 82.5 -234.5t223.5 -95.5q135 0 220 98.5t85 229.5v696q0 73 42.5 112.5t105.5 39.5q64 0 106.5 -40t42.5 -114v-707q0 -253 -178 -420t-424 -167q-248 0 -425.5 165.5t-177.5 419.5z M379 1631q0 47 24 76t67 45v2l211 85l211 -85q44 -20 68 -47.5t24 -75.5t-37 -87.5t-85 -39.5q-13 0 -36.5 8t-46.5 20q-6 2 -11.5 3.5t-8.5 3.5l-78 36l-77 -34q-4 -4 -9 -5.5t-11 -3.5q-24 -12 -47 -20t-36 -8q-48 0 -85 39.5t-37 87.5z" />
<glyph unicode="&#xdc;" horiz-adv-x="1359" d="M78 561v2v709q0 73 42.5 112.5t105.5 39.5q64 0 106.5 -40t42.5 -114v-692q0 -139 82.5 -234.5t223.5 -95.5q135 0 220 98.5t85 229.5v696q0 73 42.5 112.5t105.5 39.5q64 0 106.5 -40t42.5 -114v-707q0 -253 -178 -420t-424 -167q-248 0 -425.5 165.5t-177.5 419.5z M320 1661v2q0 57 42 99t101 42t101 -41.5t42 -101.5t-41.5 -101.5t-101.5 -41.5q-59 0 -101 41.5t-42 101.5zM757 1661v2q0 57 41.5 99t101.5 42q59 0 101 -41.5t42 -101.5t-42 -101.5t-101 -41.5t-101 41.5t-42 101.5z" />
<glyph unicode="&#xdd;" horiz-adv-x="531" />
<glyph unicode="&#xde;" horiz-adv-x="1103" d="M89 141v2v1129q0 73 43 112.5t107 39.5t106 -40t42 -114v-55h209q218 -2 363.5 -132.5t145.5 -343.5q0 -216 -146 -343.5t-351 -127.5l-221 3v-128q0 -76 -42.5 -115.5t-105.5 -39.5q-64 0 -107 40t-43 113zM387 533h203q93 -2 148.5 58.5t55.5 149.5t-55 150t-149 61 l-203 2v-421z" />
<glyph unicode="&#xdf;" horiz-adv-x="1103" d="M78 146v1v878q0 211 117 357t341 146q181 0 305 -113.5t124 -296.5q0 -13 -1 -26t-3 -27q-7 -68 -39 -129.5t-92 -97.5q124 -36 182.5 -141t64.5 -225v-11v-12q0 -22 -2 -43t-6 -42q-28 -146 -140 -267t-287 -121q-91 0 -132 41.5t-41 99.5q0 70 48 92t105 35q2 0 5 1 t4 1q64 14 112 69t48 134q0 125 -51.5 166t-115.5 56q-8 2 -15 4t-13 4q-56 14 -97.5 37t-41.5 99q0 66 32 88t72 37q4 2 6.5 3t6.5 3q44 15 81 48t37 124v5v5q-4 52 -47 95t-109 43q-113 0 -142.5 -75.5t-29.5 -167.5v-876q0 -73 -40 -116t-104 -43q-61 0 -101.5 43 t-40.5 115z" />
<glyph unicode="&#xe0;" d="M40 525q0 236 138 395t334 159q80 0 152.5 -31.5t120.5 -99.5q6 51 45.5 85t91.5 34q75 0 102 -39t33 -84q2 -18 2 -34v-30v2v-707v-32t-2 -33q-6 -46 -33 -84t-102 -38q-62 0 -92 31.5t-45 88.5q-56 -66 -123.5 -99t-149.5 -33q-201 0 -336.5 154t-135.5 395zM326 508 q0 -9 2 -19q8 -93 62.5 -172.5t161.5 -79.5q103 0 156.5 79.5t62.5 172.5q2 10 2 18.5v17.5t-1 20t-1 23q-10 94 -63.5 171.5t-155.5 77.5q-106 0 -160 -77.5t-64 -171.5q0 -11 -1 -22.5t-1 -20.5v2v-19zM326 1410q0 8 1 16.5t3 15.5q10 34 39 63t64 29q15 0 34.5 -5 t40.5 -15v2l235 -96l16 -8q22 -13 37 -31t17 -39q2 -3 2 -6v-5v-8v-8q-6 -47 -35 -88t-71 -41h-18.5t-11.5 2q-6 2 -15.5 6t-33.5 12l-223 89q-41 14 -61 43t-20 72z" />
<glyph unicode="&#xe1;" d="M40 525q0 236 138 395t334 159q80 0 152.5 -31.5t120.5 -99.5q6 51 45.5 85t91.5 34q75 0 102 -39t33 -84q2 -18 2 -34v-30v2v-707v-32t-2 -33q-6 -46 -33 -84t-102 -38q-62 0 -92 31.5t-45 88.5q-56 -66 -123.5 -99t-149.5 -33q-201 0 -336.5 154t-135.5 395zM326 508 q0 -9 2 -19q8 -93 62.5 -172.5t161.5 -79.5q103 0 156.5 79.5t62.5 172.5q2 10 2 18.5v17.5t-1 20t-1 23q-10 94 -63.5 171.5t-155.5 77.5q-106 0 -160 -77.5t-64 -171.5q0 -11 -1 -22.5t-1 -20.5v2v-19zM326 1315v8v8v5t2 6q2 20 17 38.5t36 29.5l17 10l233 96q23 8 42 13 t34 5q36 0 64.5 -29t39.5 -63q2 -7 3 -15.5t1 -16.5q0 -43 -20 -71.5t-62 -45.5l-223 -85q-24 -10 -33.5 -14t-15.5 -6q-4 -2 -11 -2h-19q-42 0 -70.5 41t-34.5 88z" />
<glyph unicode="&#xe2;" d="M40 525q0 236 138 395t334 159q80 0 152.5 -31.5t120.5 -99.5q6 51 45.5 85t91.5 34q75 0 102 -39t33 -84q2 -18 2 -34v-30v2v-707v-32t-2 -33q-6 -46 -33 -84t-102 -38q-62 0 -92 31.5t-45 88.5q-56 -66 -123.5 -99t-149.5 -33q-201 0 -336.5 154t-135.5 395zM268 1310 q0 47 24 75.5t68 45.5v2l210 85l211 -85q43 -20 67 -48t24 -75q0 -48 -37 -88t-84 -40q-14 0 -36.5 8t-47.5 20q-5 2 -10 3.5t-9 3.5l-78 36l-77 -34q-4 -4 -9 -5.5t-12 -3.5q-24 -12 -46 -20t-37 -8q-48 0 -84.5 39.5t-36.5 88.5zM326 508q0 -9 2 -19q8 -93 62.5 -172.5 t161.5 -79.5q103 0 156.5 79.5t62.5 172.5q2 10 2 18.5v17.5t-1 20t-1 23q-10 94 -63.5 171.5t-155.5 77.5q-106 0 -160 -77.5t-64 -171.5q0 -11 -1 -22.5t-1 -20.5v2v-19z" />
<glyph unicode="&#xe3;" d="M40 525q0 236 138 395t334 159q80 0 152.5 -31.5t120.5 -99.5q6 51 45.5 85t91.5 34q75 0 102 -39t33 -84q2 -18 2 -34v-30v2v-707v-32t-2 -33q-6 -46 -33 -84t-102 -38q-62 0 -92 31.5t-45 88.5q-56 -66 -123.5 -99t-149.5 -33q-201 0 -336.5 154t-135.5 395zM241 1293 v5v5q0 81 55 128t133 47q34 0 67 -8t60 -16q30 -10 53.5 -17.5t42.5 -7.5q15 0 33 8.5t38 20.5q9 4 19.5 9t19.5 9q10 4 22 7t22 3q46 0 70 -35t24 -77q0 -69 -54.5 -116.5t-119.5 -53.5q-4 -2 -9.5 -2h-11.5q-19 0 -45.5 5.5t-51.5 11.5q-6 2 -12 4.5t-10 2.5 q-32 10 -59.5 17.5t-45.5 7.5q-13 0 -25.5 -4.5t-22.5 -10.5q-4 -2 -8 -5t-8 -5q-15 -10 -33 -18t-44 -8v2q-34 -2 -64 26.5t-35 64.5zM326 508q0 -9 2 -19q8 -93 62.5 -172.5t161.5 -79.5q103 0 156.5 79.5t62.5 172.5q2 10 2 18.5v17.5t-1 20t-1 23q-10 94 -63.5 171.5 t-155.5 77.5q-106 0 -160 -77.5t-64 -171.5q0 -11 -1 -22.5t-1 -20.5v2v-19z" />
<glyph unicode="&#xe4;" d="M40 525q0 236 138 395t334 159q80 0 152.5 -31.5t120.5 -99.5q6 51 45.5 85t91.5 34q75 0 102 -39t33 -84q2 -18 2 -34v-30v2v-707v-32t-2 -33q-6 -46 -33 -84t-102 -38q-62 0 -92 31.5t-45 88.5q-56 -66 -123.5 -99t-149.5 -33q-201 0 -336.5 154t-135.5 395zM209 1339 v2q0 57 41.5 99t100.5 42t101.5 -41.5t42.5 -101.5t-42 -101.5t-102 -41.5q-59 0 -100.5 41.5t-41.5 101.5zM326 508q0 -9 2 -19q8 -93 62.5 -172.5t161.5 -79.5q103 0 156.5 79.5t62.5 172.5q2 10 2 18.5v17.5t-1 20t-1 23q-10 94 -63.5 171.5t-155.5 77.5 q-106 0 -160 -77.5t-64 -171.5q0 -11 -1 -22.5t-1 -20.5v2v-19zM646 1339v2q0 57 41.5 99t101.5 42q59 0 101 -41.5t42 -101.5t-42 -101.5t-101 -41.5q-60 0 -101.5 41.5t-41.5 101.5z" />
<glyph unicode="&#xe5;" d="M40 525q0 236 138 395t334 159q80 0 152.5 -31.5t120.5 -99.5q6 51 45.5 85t91.5 34q75 0 102 -39t33 -84q2 -18 2 -34v-30v2v-707v-32t-2 -33q-6 -46 -33 -84t-102 -38q-62 0 -92 31.5t-45 88.5q-56 -66 -123.5 -99t-149.5 -33q-201 0 -336.5 154t-135.5 395zM326 508 q0 -9 2 -19q8 -93 62.5 -172.5t161.5 -79.5q103 0 156.5 79.5t62.5 172.5q2 10 2 18.5v17.5t-1 20t-1 23q-10 94 -63.5 171.5t-155.5 77.5q-106 0 -160 -77.5t-64 -171.5q0 -11 -1 -22.5t-1 -20.5v2v-19zM373 1344v3q0 80 58 137t139 57q82 0 139.5 -57.5t57.5 -139.5 q0 -81 -57.5 -138.5t-139.5 -57.5q-81 0 -139 58t-58 138zM481 1344v3q0 -39 26 -65.5t63 -26.5q38 0 64 26.5t26 62.5q0 38 -26 64.5t-64 26.5q-37 0 -63 -26.5t-26 -64.5z" />
<glyph unicode="&#xe6;" horiz-adv-x="1801" d="M40 525q0 236 138 395t334 159q82 0 154.5 -33t122.5 -98l3 2q0 55 34 86t80 31q49 0 74 -22t33 -58q51 48 116 70t135 22q207 0 362.5 -156t155.5 -365q0 -64 -29.5 -95.5t-95.5 -31.5v2h-610q15 -108 93.5 -158.5t178.5 -50.5q54 0 100.5 18t85.5 40q40 23 74 40.5 t62 17.5q46 0 81.5 -39t35.5 -85q0 -79 -117 -146.5t-259 -86.5q-24 -2 -46.5 -4.5t-44.5 -2.5h-23t-23 2q-61 4 -121.5 22.5t-110.5 56.5q-10 -30 -33 -49.5t-74 -19.5q-66 0 -93.5 32.5t-27.5 87.5l-4 2q-50 -66 -117.5 -100t-151.5 -34q-201 0 -336.5 154t-135.5 395z M326 508q0 -9 2 -19q8 -93 62.5 -172.5t161.5 -79.5q103 0 156.5 79.5t62.5 172.5q2 10 2 18.5v17.5t-1 20t-1 23q-10 94 -63.5 171.5t-155.5 77.5q-106 0 -160 -77.5t-64 -171.5q0 -11 -1 -22.5t-1 -20.5v2v-19zM1043 622v2h453q-12 91 -69.5 153.5t-156.5 62.5 q-95 0 -156.5 -63.5t-70.5 -154.5z" />
<glyph unicode="&#xe7;" horiz-adv-x="919" d="M40 525q0 218 143 386t369 168q30 0 68 -4t77 -14q78 -15 141.5 -54.5t63.5 -108.5v2q0 -10 -1 -19t-3 -19q-9 -38 -36.5 -70t-69.5 -32q-11 0 -23 2t-24 7q-14 4 -29 9t-28 11q-28 9 -58.5 18.5t-63.5 9.5q-121 0 -180.5 -91t-59.5 -201v-8.5v-8.5q6 -103 67.5 -187 t172.5 -84q18 0 38 3.5t40 11.5q12 2 21.5 6t22.5 8q30 11 54.5 20.5t36.5 9.5q51 0 87 -37t36 -88q0 -70 -61.5 -112t-135.5 -61q-43 -12 -84 -17t-69 -5q-231 0 -371.5 163t-140.5 386zM328 -334q0 23 14 37.5t33 14.5q8 0 20 -3t26 -7q6 -2 15 -4t17 -4q4 0 9 -1t8 -1h1 h3h4h1q24 0 40.5 11t16.5 45q0 39 -20.5 47t-46.5 8q-4 0 -7 1t-7 1q-22 2 -37.5 8t-15.5 35q0 6 4.5 17.5t10.5 22.5q2 2 4 5.5t4 7.5q6 8 11 15.5t9 11.5l48 66h119l-78 -101q6 0 11 1t11 1q6 2 11 3t11 1q64 0 107 -40t43 -111q0 -80 -53 -124.5t-117 -56.5 q-12 -4 -25.5 -5t-26.5 -1t-33 1t-42 5q-38 8 -70.5 29t-32.5 64z" />
<glyph unicode="&#xe8;" horiz-adv-x="1066" d="M19 525q0 218 143.5 386t370.5 168q200 0 334 -132t170 -291q4 -25 7 -49.5t3 -48.5q0 -64 -30 -95.5t-95 -31.5v2h-610q16 -108 93.5 -158.5t176.5 -50.5q55 0 102 18t87 40q40 23 73.5 40.5t61.5 17.5q46 0 81.5 -39t35.5 -85q0 -79 -117 -146.5t-258 -86.5 q-24 -2 -47 -4.5t-45 -2.5q-241 0 -389 156t-148 393zM290 1410q0 8 1 16.5t3 15.5q10 34 39 63t65 29q15 0 34 -5t40 -15v2l235 -96l16 -8q22 -13 37 -31t17 -39q2 -3 2 -6v-5v-8v-8q-6 -47 -35 -88t-71 -41h-18t-11 2q-6 2 -16 6t-34 12l-222 89q-42 14 -62 43t-20 72z M306 622v2h454q-11 91 -70 153.5t-157 62.5q-96 0 -156.5 -63.5t-70.5 -154.5z" />
<glyph unicode="&#xe9;" horiz-adv-x="1066" d="M19 525q0 218 143.5 386t370.5 168q200 0 334 -132t170 -291q4 -25 7 -49.5t3 -48.5q0 -64 -30 -95.5t-95 -31.5v2h-610q16 -108 93.5 -158.5t176.5 -50.5q55 0 102 18t87 40q40 23 73.5 40.5t61.5 17.5q46 0 81.5 -39t35.5 -85q0 -79 -117 -146.5t-258 -86.5 q-24 -2 -47 -4.5t-45 -2.5q-241 0 -389 156t-148 393zM290 1315v8v8v5t2 6q2 20 17 38.5t36 29.5l17 10l234 96q22 8 41 13t34 5q36 0 64.5 -29t39.5 -63q2 -7 3 -15.5t1 -16.5q0 -43 -20 -71.5t-62 -45.5l-223 -85q-24 -10 -33.5 -14t-15.5 -6q-4 -2 -11 -2h-18 q-42 0 -71 41t-35 88zM306 622v2h454q-11 91 -70 153.5t-157 62.5q-96 0 -156.5 -63.5t-70.5 -154.5z" />
<glyph unicode="&#xea;" horiz-adv-x="1066" d="M19 525q0 218 143.5 386t370.5 168q200 0 334 -132t170 -291q4 -25 7 -49.5t3 -48.5q0 -64 -30 -95.5t-95 -31.5v2h-610q16 -108 93.5 -158.5t176.5 -50.5q55 0 102 18t87 40q40 23 73.5 40.5t61.5 17.5q46 0 81.5 -39t35.5 -85q0 -79 -117 -146.5t-258 -86.5 q-24 -2 -47 -4.5t-45 -2.5q-241 0 -389 156t-148 393zM233 1310q0 47 23.5 75.5t67.5 45.5v2l210 85l211 -85q44 -20 67.5 -48t23.5 -75q0 -48 -37 -88t-84 -40q-14 0 -36.5 8t-47.5 20q-5 2 -10 3.5t-9 3.5l-78 36l-77 -34q-4 -4 -9 -5.5t-11 -3.5q-24 -12 -46.5 -20 t-36.5 -8q-47 0 -84 39.5t-37 88.5zM306 622v2h454q-11 91 -70 153.5t-157 62.5q-96 0 -156.5 -63.5t-70.5 -154.5z" />
<glyph unicode="&#xeb;" horiz-adv-x="1066" d="M19 525q0 218 143.5 386t370.5 168q200 0 334 -132t170 -291q4 -25 7 -49.5t3 -48.5q0 -64 -30 -95.5t-95 -31.5v2h-610q16 -108 93.5 -158.5t176.5 -50.5q55 0 102 18t87 40q40 23 73.5 40.5t61.5 17.5q46 0 81.5 -39t35.5 -85q0 -79 -117 -146.5t-258 -86.5 q-24 -2 -47 -4.5t-45 -2.5q-241 0 -389 156t-148 393zM173 1339v2q0 57 41.5 99t101.5 42q59 0 101 -41.5t42 -101.5t-42 -101.5t-101 -41.5t-101 41.5t-42 101.5zM306 622v2h454q-11 91 -70 153.5t-157 62.5q-96 0 -156.5 -63.5t-70.5 -154.5zM610 1339v2q0 57 42 99 t101 42t101 -41.5t42 -101.5t-41.5 -101.5t-101.5 -41.5q-59 0 -101 41.5t-42 101.5z" />
<glyph unicode="&#xec;" horiz-adv-x="440" d="M-22 1410q0 8 1.5 16.5t3.5 15.5q9 34 37 63t63 29q16 0 35 -5t41 -15v2l235 -96l15 -8q23 -13 37.5 -31t16.5 -39q2 -3 2 -6v-5v-8v-8q-6 -47 -34.5 -88t-70.5 -41h-19t-11 2q-6 2 -16 6t-34 12l-223 89q-41 14 -60 43t-19 72zM78 146v1v763q0 70 40.5 113.5t101.5 43.5 q64 0 104 -43.5t40 -115.5v-761q0 -73 -40 -116t-104 -43q-61 0 -101.5 43t-40.5 115z" />
<glyph unicode="&#xed;" horiz-adv-x="440" d="M-22 1315v8v8v5t3 6q2 20 15.5 38.5t35.5 29.5l16 10l234 96q23 8 41 13t35 5q36 0 64.5 -29t38.5 -63q2 -7 3 -15.5t1 -16.5q0 -43 -20 -71.5t-62 -45.5l-222 -85q-24 -10 -34 -14l-15 -6q-4 -2 -11.5 -2h-19.5q-41 0 -69 41t-34 88zM78 146v1v763q0 70 40.5 113.5 t101.5 43.5q64 0 104 -43.5t40 -115.5v-761q0 -73 -40 -116t-104 -43q-61 0 -101.5 43t-40.5 115z" />
<glyph unicode="&#xee;" horiz-adv-x="440" d="M-80 1310q0 47 24 75.5t66 45.5v2l210 85l211 -85q43 -20 67.5 -48t24.5 -75q0 -48 -37 -88t-84 -40q-14 0 -37.5 8t-46.5 20q-6 2 -11 3.5t-9 3.5l-78 36l-77 -34q-4 -4 -9 -5.5t-11 -3.5q-24 -12 -47 -20t-36 -8q-46 0 -83 39.5t-37 88.5zM78 146v1v763 q0 70 40.5 113.5t101.5 43.5q64 0 104 -43.5t40 -115.5v-761q0 -73 -40 -116t-104 -43q-61 0 -101.5 43t-40.5 115z" />
<glyph unicode="&#xef;" horiz-adv-x="440" d="M-141 1341q2 57 44 99t99 42q59 0 101.5 -41.5t42.5 -101.5t-42.5 -101.5t-101.5 -41.5q-57 0 -99 41.5t-42 101.5zM78 146v1v763q0 70 40.5 113.5t101.5 43.5q64 0 104 -43.5t40 -115.5v-761q0 -73 -40 -116t-104 -43q-61 0 -101.5 43t-40.5 115zM296 1339v2 q0 57 41.5 99t101.5 42t101.5 -41.5t41.5 -101.5t-41.5 -101.5t-101.5 -41.5q-59 0 -101 41.5t-42 101.5z" />
<glyph unicode="&#xf0;" horiz-adv-x="1103" d="M40 525v10.5v10.5q9 182 142.5 334.5t338.5 152.5h8h7q58 -2 113.5 -22t95.5 -63l4 6q-38 79 -95.5 147.5t-126.5 110.5l-131 -67q-44 -27 -75 -42t-59 -15h-7t-7 2q-19 4 -37 21t-18 49q0 34 20 52t43 32q4 0 7 1.5t8 3.5l99 54q-10 2 -23 7t-25 11q-34 16 -62.5 38.5 t-28.5 56.5q0 66 37.5 94.5t116.5 28.5q61 0 121 -24.5t114 -54.5q6 -4 11.5 -7t12.5 -7l158 88q26 11 41 15.5t27 4.5h1h3q28 0 49 -21t21 -55q0 -17 -7.5 -30t-22.5 -26q-10 -8 -22 -14.5t-28 -14.5l-104 -54q169 -159 237 -342.5t68 -424.5q0 -258 -141 -427t-372 -169 t-371.5 163t-140.5 386zM326 508q0 -9 2 -19q8 -93 62.5 -172.5t161.5 -79.5q108 0 162.5 79.5t62.5 172.5q2 10 2 18.5v17.5q-2 101 -59.5 179.5t-169.5 78.5v2q-99 -2 -159.5 -79.5t-64.5 -169.5v-6v-5v-17z" />
<glyph unicode="&#xf1;" horiz-adv-x="1103" d="M81 146v1v763q0 70 41 113.5t102 43.5q55 0 89 -28t43 -78q42 57 108.5 87.5t166.5 30.5q169 0 280.5 -101.5t111.5 -283.5v-547q0 -73 -39.5 -116t-103.5 -43q-61 0 -102 43t-41 115v500q0 97 -54.5 145.5t-132.5 48.5q-87 0 -134.5 -56t-47.5 -140v-497q0 -73 -40 -116 t-104 -43q-61 0 -102 43t-41 115zM222 1293v5v5q0 81 56 128t133 47q34 0 66.5 -8t60.5 -16q30 -10 54 -17.5t41 -7.5q16 0 34.5 8.5t37.5 20.5q10 4 20 9t20 9t22 7t22 3q45 0 69 -35t24 -77q0 -69 -54.5 -116.5t-120.5 -53.5q-4 -2 -8.5 -2h-10.5q-20 0 -46 5.5t-52 11.5 q-6 2 -12 4.5t-10 2.5q-32 10 -59.5 17.5t-45.5 7.5q-14 0 -26 -4.5t-22 -10.5q-4 -2 -7.5 -5t-7.5 -5q-16 -10 -34.5 -18t-43.5 -8v2q-34 -2 -63.5 26.5t-36.5 64.5z" />
<glyph unicode="&#xf2;" horiz-adv-x="1103" d="M40 525q0 218 143 386t369 168v2q226 -2 369.5 -170t143.5 -386q0 -222 -141 -385.5t-372 -163.5t-371.5 163t-140.5 386zM307 1410q0 8 1 16.5t4 15.5q10 34 38.5 63t64.5 29q16 0 35 -5t41 -15v2l235 -96l15 -8q22 -13 36.5 -31t16.5 -39q2 -3 2 -6v-5v-8v-8 q-5 -47 -34 -88t-70 -41h-19.5t-10.5 2q-6 2 -16.5 6t-33.5 12l-223 89q-42 14 -62 43t-20 72zM326 508q0 -9 2 -19q8 -93 62.5 -172.5t161.5 -79.5q108 0 162.5 79.5t62.5 172.5q2 10 2 18.5v17.5t-1 20t-1 23q-10 94 -64.5 171.5t-160.5 77.5v2q-106 -2 -160 -79.5 t-64 -171.5q0 -11 -1 -22.5t-1 -20.5v-17z" />
<glyph unicode="&#xf3;" horiz-adv-x="1103" d="M40 525q0 218 143 386t369 168v2q226 -2 369.5 -170t143.5 -386q0 -222 -141 -385.5t-372 -163.5t-371.5 163t-140.5 386zM307 1315v8v8v5t2 6q2 20 17 38.5t38 29.5l15 10l235 96q22 8 40.5 13t35.5 5q36 0 64.5 -29t37.5 -63q2 -7 3 -15.5t1 -16.5q0 -43 -19.5 -71.5 t-61.5 -45.5l-222 -85q-24 -10 -34 -14t-16 -6q-4 -2 -11 -2h-19q-41 0 -70 41t-36 88zM326 508q0 -9 2 -19q8 -93 62.5 -172.5t161.5 -79.5q108 0 162.5 79.5t62.5 172.5q2 10 2 18.5v17.5t-1 20t-1 23q-10 94 -64.5 171.5t-160.5 77.5v2q-106 -2 -160 -79.5t-64 -171.5 q0 -11 -1 -22.5t-1 -20.5v-17z" />
<glyph unicode="&#xf4;" horiz-adv-x="1103" d="M40 525q0 218 143 386t369 168v2q226 -2 369.5 -170t143.5 -386q0 -222 -141 -385.5t-372 -163.5t-371.5 163t-140.5 386zM250 1310q0 47 24 75.5t67 45.5v2l211 85l210 -85q44 -20 68.5 -48t24.5 -75q0 -48 -37 -88t-85 -40q-13 0 -36.5 8t-46.5 20q-6 2 -11.5 3.5 t-8.5 3.5l-78 36l-78 -34q-4 -4 -8.5 -5.5l-10.5 -3.5q-24 -12 -47 -20t-36 -8q-48 0 -85 39.5t-37 88.5zM326 508q0 -9 2 -19q8 -93 62.5 -172.5t161.5 -79.5q108 0 162.5 79.5t62.5 172.5q2 10 2 18.5v17.5t-1 20t-1 23q-10 94 -64.5 171.5t-160.5 77.5v2 q-106 -2 -160 -79.5t-64 -171.5q0 -11 -1 -22.5t-1 -20.5v-17z" />
<glyph unicode="&#xf5;" horiz-adv-x="1103" d="M40 525q0 218 143 386t369 168v2q226 -2 369.5 -170t143.5 -386q0 -222 -141 -385.5t-372 -163.5t-371.5 163t-140.5 386zM222 1293v5v5q0 81 56 128t133 47q34 0 66.5 -8t60.5 -16q30 -10 54 -17.5t41 -7.5q16 0 34.5 8.5t37.5 20.5q10 4 20 9t20 9t22 7t22 3 q45 0 69 -35t24 -77q0 -69 -54.5 -116.5t-120.5 -53.5q-4 -2 -8.5 -2h-10.5q-20 0 -46 5.5t-52 11.5q-6 2 -12 4.5t-10 2.5q-32 10 -59.5 17.5t-45.5 7.5q-14 0 -26 -4.5t-22 -10.5q-4 -2 -7.5 -5t-7.5 -5q-16 -10 -34.5 -18t-43.5 -8v2q-34 -2 -63.5 26.5t-36.5 64.5z M326 508q0 -9 2 -19q8 -93 62.5 -172.5t161.5 -79.5q108 0 162.5 79.5t62.5 172.5q2 10 2 18.5v17.5t-1 20t-1 23q-10 94 -64.5 171.5t-160.5 77.5v2q-106 -2 -160 -79.5t-64 -171.5q0 -11 -1 -22.5t-1 -20.5v-17z" />
<glyph unicode="&#xf6;" horiz-adv-x="1103" d="M40 525q0 218 143 386t369 168v2q226 -2 369.5 -170t143.5 -386q0 -222 -141 -385.5t-372 -163.5t-371.5 163t-140.5 386zM191 1339v2q0 57 42 99t101 42t101 -41.5t42 -101.5t-41.5 -101.5t-101.5 -41.5q-59 0 -101 41.5t-42 101.5zM326 508q0 -9 2 -19 q8 -93 62.5 -172.5t161.5 -79.5q108 0 162.5 79.5t62.5 172.5q2 10 2 18.5v17.5t-1 20t-1 23q-10 94 -64.5 171.5t-160.5 77.5v2q-106 -2 -160 -79.5t-64 -171.5q0 -11 -1 -22.5t-1 -20.5v-17zM628 1339v2q0 57 41.5 99t101.5 42q59 0 101 -41.5t42 -101.5t-42 -101.5 t-101 -41.5t-101 41.5t-42 101.5z" />
<glyph unicode="&#xf7;" horiz-adv-x="531" />
<glyph unicode="&#xf8;" horiz-adv-x="1103" d="M10 36q0 17 6 31t14 22v2l105 110q-46 68 -70.5 150t-24.5 174q0 218 143 386t369 168q93 0 172.5 -30.5t143.5 -87.5l91 98q14 14 27 20.5t27 6.5q34 0 57.5 -23.5t23.5 -57.5q0 -18 -5 -31t-14 -22l-104 -106q46 -72 70 -153t24 -168q0 -222 -141 -385.5t-372 -163.5 q-91 0 -170.5 28t-140.5 77l-100 -100q-8 -8 -18 -14.5t-22 -8.5q-2 -2 -5 -2h-5q-34 0 -57.5 24t-23.5 56zM326 525q0 -28 5 -56t12 -54v2l341 354q-24 20 -58 33t-74 13q-106 0 -160 -77.5t-64 -171.5q0 -11 -1 -22.5t-1 -20.5zM429 282q24 -22 54.5 -33.5t68.5 -11.5 q108 0 162.5 79.5t62.5 172.5q2 10 2 18.5v17.5q0 26 -3 52.5t-12 52.5v1z" />
<glyph unicode="&#xf9;" horiz-adv-x="1103" d="M81 391v3v516q0 70 41 113.5t102 43.5q64 0 104 -43.5t40 -115.5v-508q0 -92 56.5 -140t127.5 -48q72 0 128.5 47.5t56.5 138.5v512q0 70 41 113.5t102 43.5q64 0 103.5 -43.5t39.5 -115.5v-514q0 -193 -122 -305.5t-349 -112.5q-226 0 -348.5 112.5t-122.5 302.5z M307 1410q0 8 1 16.5t4 15.5q10 34 38.5 63t64.5 29q16 0 35 -5t41 -15v2l235 -96l15 -8q22 -13 36.5 -31t16.5 -39q2 -3 2 -6v-5v-8v-8q-5 -47 -34 -88t-70 -41h-19.5t-10.5 2q-6 2 -16.5 6t-33.5 12l-223 89q-42 14 -62 43t-20 72z" />
<glyph unicode="&#xfa;" horiz-adv-x="1103" d="M81 391v3v516q0 70 41 113.5t102 43.5q64 0 104 -43.5t40 -115.5v-508q0 -92 56.5 -140t127.5 -48q72 0 128.5 47.5t56.5 138.5v512q0 70 41 113.5t102 43.5q64 0 103.5 -43.5t39.5 -115.5v-514q0 -193 -122 -305.5t-349 -112.5q-226 0 -348.5 112.5t-122.5 302.5z M307 1315v8v8v5t2 6q2 20 17 38.5t38 29.5l15 10l235 96q22 8 40.5 13t35.5 5q36 0 64.5 -29t37.5 -63q2 -7 3 -15.5t1 -16.5q0 -43 -19.5 -71.5t-61.5 -45.5l-222 -85q-24 -10 -34 -14t-16 -6q-4 -2 -11 -2h-19q-41 0 -70 41t-36 88z" />
<glyph unicode="&#xfb;" horiz-adv-x="1103" d="M81 391v3v516q0 70 41 113.5t102 43.5q64 0 104 -43.5t40 -115.5v-508q0 -92 56.5 -140t127.5 -48q72 0 128.5 47.5t56.5 138.5v512q0 70 41 113.5t102 43.5q64 0 103.5 -43.5t39.5 -115.5v-514q0 -193 -122 -305.5t-349 -112.5q-226 0 -348.5 112.5t-122.5 302.5z M250 1310q0 47 24 75.5t67 45.5v2l211 85l210 -85q44 -20 68.5 -48t24.5 -75q0 -48 -37 -88t-85 -40q-13 0 -36.5 8t-46.5 20q-6 2 -11.5 3.5t-8.5 3.5l-78 36l-78 -34q-4 -4 -8.5 -5.5l-10.5 -3.5q-24 -12 -47 -20t-36 -8q-48 0 -85 39.5t-37 88.5z" />
<glyph unicode="&#xfc;" horiz-adv-x="1103" d="M81 391v3v516q0 70 41 113.5t102 43.5q64 0 104 -43.5t40 -115.5v-508q0 -92 56.5 -140t127.5 -48q72 0 128.5 47.5t56.5 138.5v512q0 70 41 113.5t102 43.5q64 0 103.5 -43.5t39.5 -115.5v-514q0 -193 -122 -305.5t-349 -112.5q-226 0 -348.5 112.5t-122.5 302.5z M191 1339v2q0 57 42 99t101 42t101 -41.5t42 -101.5t-41.5 -101.5t-101.5 -41.5q-59 0 -101 41.5t-42 101.5zM628 1339v2q0 57 41.5 99t101.5 42q59 0 101 -41.5t42 -101.5t-42 -101.5t-101 -41.5t-101 41.5t-42 101.5z" />
<glyph unicode="&#xfd;" horiz-adv-x="531" />
<glyph unicode="&#xfe;" d="M81 -275v1646q0 69 41 113t102 44q64 0 104 -44t40 -115v-419h4q30 51 86 83t116 42q14 2 28 3t28 1q216 0 343.5 -168t127.5 -371q0 -19 -1 -40t-6 -41q-22 -183 -139 -333t-316 -150q-73 0 -143.5 24t-127.5 74v-349q0 -71 -40 -114.5t-104 -43.5q-61 0 -102 44 t-41 114zM368 506q4 -101 58.5 -185t165.5 -84q97 0 151.5 75t67.5 167q2 12 3 24.5t1 25.5q0 11 -1 24t-3 25q-12 89 -66.5 164t-152.5 75q-106 0 -159.5 -78.5t-62.5 -172.5q0 -11 -1 -23t-1 -24v2v-7.5v-7.5z" />
<glyph unicode="&#xff;" horiz-adv-x="955" d="M-2 944q0 43 30.5 75t70.5 44q8 2 16 3t16 1q51 0 88 -27t56 -75l195 -536l211 538q17 46 54.5 73t88.5 27q8 0 16 -1t17 -3q39 -12 70.5 -44t31.5 -75q0 -22 -2.5 -40t-10.5 -34l-479 -1190q-18 -46 -51 -79.5t-84 -33.5q-74 0 -112 38.5t-38 85.5q0 5 1 13t1 14 q2 13 7.5 27t9.5 29l125 309l-316 789q-6 14 -9 32t-3 40zM117 1339v2q0 57 42 99t101 42t101.5 -41.5t42.5 -101.5t-42 -101.5t-102 -41.5q-59 0 -101 41.5t-42 101.5zM554 1339v2q0 57 41.5 99t101.5 42t101.5 -41.5t41.5 -101.5t-41.5 -101.5t-101.5 -41.5 q-59 0 -101 41.5t-42 101.5z" />
<glyph unicode="&#x152;" horiz-adv-x="1912" d="M34 705q0 310 189.5 521t493.5 211q19 0 38.5 -1t38.5 -3q84 -10 165.5 -46t145.5 -100l4 6q0 78 28.5 98.5t113.5 20.5l479 2q72 -2 106.5 -44.5t34.5 -93.5v-3v-3q-2 -50 -38 -90.5t-103 -40.5l-354 2v-290h330q74 -2 110 -45.5t36 -94.5v-3v-3q-2 -49 -39 -90 t-107 -41l-330 2v-301h372q72 -2 107 -45t35 -95v-3v-3q-2 -49 -38 -89t-104 -40h-552q-68 0 -78.5 34t-10.5 78l-4 1q-48 -65 -121.5 -94t-151.5 -36q-30 -4 -57.5 -5.5t-55.5 -1.5q-302 0 -492.5 211t-190.5 518zM343 705v2q0 -182 93 -320.5t281 -138.5q189 0 281 138.5 t92 318.5q0 181 -93 319t-280 138t-280.5 -138t-93.5 -319z" />
<glyph unicode="&#x153;" horiz-adv-x="1801" d="M40 525q0 218 143 386t369 168q119 0 211 -46.5t159 -114.5q51 66 138.5 113.5t203.5 47.5q207 0 362.5 -156t155.5 -365q0 -64 -29.5 -95.5t-95.5 -31.5v2h-610q15 -108 93.5 -158.5t178.5 -50.5q54 0 100.5 18t85.5 40q40 23 74 40.5t62 17.5q46 0 81.5 -39t35.5 -85 q0 -79 -117 -146.5t-259 -86.5q-24 -2 -46.5 -4.5t-44.5 -2.5q-125 0 -221 45t-158 118q-59 -74 -150 -118.5t-210 -44.5q-231 0 -371.5 163t-140.5 386zM326 508q0 -9 2 -19q8 -93 62.5 -172.5t161.5 -79.5q108 0 162.5 79.5t62.5 172.5q2 10 2 18.5v17.5t-1 20t-1 23 q-10 94 -64.5 171.5t-160.5 77.5t-160 -77.5t-64 -171.5q0 -11 -1 -22.5t-1 -20.5v2v-19zM1041 622v2h455q-12 91 -69.5 153.5t-156.5 62.5q-95 0 -156.5 -63.5t-72.5 -154.5z" />
<glyph unicode="&#x178;" horiz-adv-x="1064" d="M-17 1279q0 60 39 102.5t101 42.5q40 0 71.5 -15.5t51.5 -43.5l287 -413l286 415q19 26 52 41.5t71 15.5q64 0 103 -42.5t39 -102.5q0 -24 -6.5 -46.5t-20.5 -42.5l-376 -527v-530q0 -57 -34.5 -101t-113.5 -44q-80 0 -115 44t-35 99v2v530l-375 529q-12 18 -18.5 40.5 t-6.5 46.5zM171 1661v2q0 57 41.5 99t101.5 42q59 0 101 -41.5t42 -101.5t-42 -101.5t-101 -41.5t-101 41.5t-42 101.5zM608 1661v2q0 57 42 99t101 42t101 -41.5t42 -101.5t-41.5 -101.5t-101.5 -41.5q-59 0 -101 41.5t-42 101.5z" />
<glyph unicode="&#x2c6;" horiz-adv-x="440" d="M-108 1293v5v5q0 81 55 128t133 47q33 0 65.5 -8t61.5 -16q30 -10 53.5 -17.5t41.5 -7.5q15 0 33.5 8.5t37.5 20.5q10 4 20.5 9t19.5 9q10 4 22 7t22 3q45 0 69 -35t24 -77q0 -69 -54.5 -116.5t-120.5 -53.5q-3 -2 -8 -2h-11q-19 0 -45.5 5.5t-52.5 11.5q-6 2 -11.5 4.5 t-9.5 2.5q-32 10 -60 17.5t-46 7.5q-14 0 -26 -4.5t-22 -10.5q-3 -2 -7 -5t-8 -5q-16 -10 -34 -18t-42 -8l-2 2q-32 -2 -61.5 26.5t-36.5 64.5z" />
<glyph unicode="&#x2dc;" horiz-adv-x="440" d="M-80 1310q0 47 24 75.5t66 45.5v2l210 85l211 -85q43 -20 67.5 -48t24.5 -75q0 -48 -37 -88t-84 -40q-14 0 -37.5 8t-46.5 20q-6 2 -11 3.5t-9 3.5l-78 36l-77 -34q-4 -4 -9 -5.5t-11 -3.5q-24 -12 -47 -20t-36 -8q-46 0 -83 39.5t-37 88.5z" />
<glyph unicode="&#x2000;" horiz-adv-x="931" />
<glyph unicode="&#x2001;" horiz-adv-x="1863" />
<glyph unicode="&#x2002;" horiz-adv-x="931" />
<glyph unicode="&#x2003;" horiz-adv-x="1863" />
<glyph unicode="&#x2004;" horiz-adv-x="621" />
<glyph unicode="&#x2005;" horiz-adv-x="465" />
<glyph unicode="&#x2006;" horiz-adv-x="310" />
<glyph unicode="&#x2007;" horiz-adv-x="310" />
<glyph unicode="&#x2008;" horiz-adv-x="232" />
<glyph unicode="&#x2009;" horiz-adv-x="372" />
<glyph unicode="&#x200a;" horiz-adv-x="103" />
<glyph unicode="&#x2010;" horiz-adv-x="772" d="M61 572q0 54 29 88.5t85 38.5v2h423q55 -6 84 -40.5t29 -88.5q0 -49 -28.5 -84t-84.5 -39l-423 2q-56 2 -85 37t-29 84z" />
<glyph unicode="&#x2011;" horiz-adv-x="772" d="M61 572q0 54 29 88.5t85 38.5v2h423q55 -6 84 -40.5t29 -88.5q0 -49 -28.5 -84t-84.5 -39l-423 2q-56 2 -85 37t-29 84z" />
<glyph unicode="&#x2012;" horiz-adv-x="772" d="M61 572q0 54 29 88.5t85 38.5v2h423q55 -6 84 -40.5t29 -88.5q0 -49 -28.5 -84t-84.5 -39l-423 2q-56 2 -85 37t-29 84z" />
<glyph unicode="&#x2013;" horiz-adv-x="993" d="M0 574q0 54 32 87t87 33v1h755q55 -1 87 -34t32 -87q0 -53 -32 -86t-87 -33l-755 2q-55 -2 -87 31t-32 86z" />
<glyph unicode="&#x2014;" horiz-adv-x="1986" d="M-117 574q0 54 32 87t85 33v1h1987q55 -1 87 -34t32 -87q0 -53 -32 -86t-87 -33l-1987 2q-53 -2 -85 31t-32 86z" />
<glyph unicode="&#x2018;" horiz-adv-x="476" d="M17 991q0 23 8.5 41.5t16.5 38.5l165 300q9 17 26 30t35 21q15 8 29.5 11.5t24.5 3.5q53 0 95 -39t42 -92q0 -18 -7 -36.5t-15 -33.5q0 -2 -0.5 -5t-3.5 -5v2l-167 -299q-10 -22 -27 -35.5t-34 -21.5q-14 -6 -28 -9t-24 -3q-53 0 -94.5 39t-41.5 92z" />
<glyph unicode="&#x2019;" horiz-adv-x="476" d="M17 991q0 23 8.5 41.5t16.5 38.5l165 300q9 17 26 30t35 21q15 8 29.5 11.5t24.5 3.5q53 0 95 -39t42 -92q0 -18 -7 -36.5t-15 -33.5q0 -2 -0.5 -5t-3.5 -5v2l-167 -299q-10 -22 -27 -35.5t-34 -21.5q-14 -6 -28 -9t-24 -3q-53 0 -94.5 39t-41.5 92z" />
<glyph unicode="&#x201a;" horiz-adv-x="531" />
<glyph unicode="&#x201c;" horiz-adv-x="881" d="M17 991q0 23 8.5 41.5t16.5 38.5l165 300q9 17 26 30t35 21q15 8 29.5 11.5t24.5 3.5q53 0 95 -39t42 -92q0 -18 -7 -36.5t-15 -33.5q0 -2 -0.5 -5t-3.5 -5v2l-167 -299q-10 -22 -27 -35.5t-34 -21.5q-14 -6 -28 -9t-24 -3q-53 0 -94.5 39t-41.5 92zM423 991q0 23 8 41.5 t16 38.5l165 300q10 17 27 30t34 21q16 8 30 11.5t25 3.5q53 0 94.5 -39t41.5 -92q0 -18 -6.5 -36.5t-15.5 -33.5q0 -2 -1 -5t-3 -5v2l-167 -299q-9 -22 -26 -35.5t-35 -21.5q-13 -6 -27.5 -9t-24.5 -3q-54 0 -94.5 39t-40.5 92z" />
<glyph unicode="&#x201d;" horiz-adv-x="881" d="M17 991q0 23 8.5 41.5t16.5 38.5l165 300q9 17 26 30t35 21q15 8 29.5 11.5t24.5 3.5q53 0 95 -39t42 -92q0 -18 -7 -36.5t-15 -33.5q0 -2 -0.5 -5t-3.5 -5v2l-167 -299q-10 -22 -27 -35.5t-34 -21.5q-14 -6 -28 -9t-24 -3q-53 0 -94.5 39t-41.5 92zM423 991q0 23 8 41.5 t16 38.5l165 300q10 17 27 30t34 21q16 8 30 11.5t25 3.5q53 0 94.5 -39t41.5 -92q0 -18 -6.5 -36.5t-15.5 -33.5q0 -2 -1 -5t-3 -5v2l-167 -299q-9 -22 -26 -35.5t-35 -21.5q-13 -6 -27.5 -9t-24.5 -3q-54 0 -94.5 39t-40.5 92z" />
<glyph unicode="&#x201e;" horiz-adv-x="881" d="M17 -135q0 20 8.5 39.5t16.5 40.5l165 297q9 18 26 31t35 21q15 8 29.5 10.5t24.5 2.5q53 0 95 -38t42 -92q0 -18 -7 -36t-15 -33q0 -2 -0.5 -5.5t-3.5 -5.5v2l-167 -298q-10 -19 -27 -33t-34 -22q-14 -6 -28 -9t-24 -3q-53 0 -94.5 38.5t-41.5 92.5zM423 -135 q0 20 8 39.5t16 40.5l165 297q10 18 27 31t34 21q16 8 30 10.5t25 2.5q53 0 94.5 -38t41.5 -92q0 -18 -6.5 -36t-15.5 -33q0 -2 -1 -5.5t-3 -5.5v2l-167 -298q-9 -19 -26 -33t-35 -22q-13 -6 -27.5 -9t-24.5 -3q-54 0 -94.5 38.5t-40.5 92.5z" />
<glyph unicode="&#x2022;" horiz-adv-x="993" d="M143 705v2q0 146 104 249t250 103q147 0 250.5 -103t103.5 -251q0 -145 -103.5 -249.5t-250.5 -104.5q-146 0 -250 105t-104 249z" />
<glyph unicode="&#x2026;" horiz-adv-x="1986" d="M177 129v2q0 61 45.5 107t109.5 46t109.5 -45.5t45.5 -109.5t-45.5 -108.5t-109.5 -44.5t-109.5 45t-45.5 108zM838 129v2q0 61 45.5 107t109.5 46t109.5 -45.5t45.5 -109.5t-45.5 -108.5t-109.5 -44.5t-109.5 45t-45.5 108zM1500 129v2q0 61 45.5 107t109.5 46 t109.5 -45.5t45.5 -109.5t-45.5 -108.5t-109.5 -44.5t-109.5 45t-45.5 108z" />
<glyph unicode="&#x202f;" horiz-adv-x="372" />
<glyph unicode="&#x2039;" horiz-adv-x="587" d="M74 552v13t2 17t4 17q5 14 12 28.5t16 26.5q4 6 6.5 11.5t6.5 9.5l193 275q16 13 36 22.5t50 9.5q53 0 83.5 -33t30.5 -77q0 -19 -4 -38t-17 -38l-157 -238l157 -236q13 -22 17 -39t4 -31q0 -51 -32.5 -88t-85.5 -37q-30 0 -57 13t-43 37l-205 318q-6 7 -9.5 19.5 t-5.5 25.5q-2 6 -2 12z" />
<glyph unicode="&#x203a;" horiz-adv-x="587" d="M74 237q0 19 3.5 38t17.5 37v2l157 240l-157 237q-14 17 -17.5 34t-3.5 32q0 51 32.5 88t86.5 37q30 0 56.5 -13.5t42.5 -36.5l205 -314q7 -12 10 -24t5 -26q2 -5 2 -11.5v-12.5q0 -8 -2 -18t-4 -18q-6 -13 -12.5 -27t-14.5 -26q-4 -6 -7.5 -12t-6.5 -10l-192 -270 q-14 -17 -35.5 -26.5t-50.5 -9.5q-53 0 -84 33t-31 77z" />
<glyph unicode="&#x205f;" horiz-adv-x="465" />
<glyph unicode="&#x2122;" horiz-adv-x="1986" d="M83 1323q0 46 26 67.5t64 21.5l553 2q39 -2 64 -23.5t25 -67.5q0 -44 -25.5 -66.5t-63.5 -22.5l-158 2v-521q0 -55 -32 -88t-87 -33t-87 33t-32 86v2v521h-157q-38 -2 -64 20.5t-26 66.5zM929 713v2v588q0 49 37 85t133 36q55 0 97 -20t80 -103l140 -359l142 361 q38 81 79.5 101t96.5 20q95 0 132 -35.5t37 -87.5v-586q0 -55 -22 -88t-86 -33t-85 33t-21 86v415h-4l-144 -413l-3 -9t-1 -5q-17 -45 -40 -76t-81 -31q-57 0 -80 30t-41 77q0 2 -1 5t-3 7l-143 415h-3v-413q0 -55 -22 -88t-86 -33t-86 33t-22 86z" />
<glyph unicode="&#x25fc;" horiz-adv-x="1062" d="M0 0v1063h1063v-1063h-1063z" />
</font>
</defs>
</svg>
