<?xml version="1.0" encoding="utf-8"?>
<!-- Generator: Adobe Illustrator 15.0.0, SVG Export Plug-In . SVG Version: 6.00 Build 0)  -->
<!DOCTYPE svg PUBLIC "-//W3C//DTD SVG 1.1//EN" "http://www.w3.org/Graphics/SVG/1.1/DTD/svg11.dtd">
<svg version="1.1" id="Next" xmlns="http://www.w3.org/2000/svg" xmlns:xlink="http://www.w3.org/1999/xlink" x="0px" y="0px"
	 width="159.897px" height="71.75px" viewBox="0 0 159.897 71.75" enable-background="new 0 0 159.897 71.75" xml:space="preserve">
<g>
	<g id="Next_1_">
		<path fill="#828E93" d="M149.58,24.75c0,0.3-0.319,0.515-0.319,0.515l-8.182,5.317c-0.682,0.386-1.182,0.085-1.182-0.686V19.604
			c0-0.771,0.5-1.072,1.182-0.686l8.182,5.317C149.261,24.235,149.58,24.45,149.58,24.75z M159.898,24.75
			c0,0.3-0.318,0.515-0.318,0.515l-8.5,5.317c-0.637,0.386-1.182,0.085-1.182-0.686V19.604c0-0.771,0.545-1.072,1.182-0.686
			l8.5,5.317C159.58,24.235,159.898,24.45,159.898,24.75z"/>
	</g>
	<g id="Prev">
		<path fill="#828E93" d="M10.637,24.235l8.181-5.317C19.5,18.532,20,18.833,20,19.604v10.292c0,0.771-0.5,1.072-1.182,0.686
			l-8.181-5.317c0,0-0.319-0.215-0.319-0.515C10.318,24.45,10.637,24.235,10.637,24.235z M0.318,24.235l8.5-5.317
			C9.455,18.532,10,18.833,10,19.604v10.292c0,0.771-0.545,1.072-1.182,0.686l-8.5-5.317c0,0-0.318-0.215-0.318-0.515
			C0,24.45,0.318,24.235,0.318,24.235z"/>
	</g>
	<g id="Play">
		<path fill="#FFFFFF" d="M88.899,24.75c0,0.586-0.575,0.953-0.575,0.953l-15.41,9.681c-1.152,0.807-2.016,0.22-2.016-1.174V15.29
			c0-1.393,0.863-1.98,2.016-1.174l15.41,9.681C88.324,23.796,88.899,24.236,88.899,24.75z"/>
	</g>
	<g id="Pause">
		<path fill="#FFFFFF" d="M77.132,70.162c0,0.876-0.948,1.588-2.117,1.588l0,0c-1.169,0-2.116-0.712-2.116-1.588V51.339
			c0-0.878,0.947-1.589,2.116-1.589l0,0c1.169,0,2.117,0.711,2.117,1.589V70.162z"/>
		<path fill="#FFFFFF" d="M86.899,70.162c0,0.876-0.948,1.588-2.116,1.588l0,0c-1.17,0-2.117-0.712-2.117-1.588V51.339
			c0-0.878,0.947-1.589,2.117-1.589l0,0c1.168,0,2.116,0.711,2.116,1.589V70.162z"/>
	</g>
</g>
</svg>
