<?xml version="1.0" standalone="no"?>
<!DOCTYPE svg PUBLIC "-//W3C//DTD SVG 1.1//EN" "http://www.w3.org/Graphics/SVG/1.1/DTD/svg11.dtd" >
<svg xmlns="http://www.w3.org/2000/svg">
<metadata>
This is a custom SVG webfont generated by Font Squirrel.
Copyright   : Copyright  2009 ParaType Ltd All rights reserved
Designer    : AKorolkova OUmpeleva VYefimov
Foundry     : ParaType Ltd
Foundry URL : httpwwwparatypecom
</metadata>
<defs>
<font id="PTSansRegular" horiz-adv-x="1159" >
<font-face units-per-em="2048" ascent="1638" descent="-410" />
<missing-glyph horiz-adv-x="567" />
<glyph unicode=" "  horiz-adv-x="567" />
<glyph unicode="&#x09;" horiz-adv-x="567" />
<glyph unicode="&#xa0;" horiz-adv-x="567" />
<glyph unicode="!" horiz-adv-x="649" d="M233 98q0 57 34 90t89 33q57 0 91 -32.5t34 -90.5q0 -55 -33.5 -89t-91.5 -34q-55 0 -89 34t-34 89zM270 752v739h176v-739l-34 -375h-105z" />
<glyph unicode="&#x22;" horiz-adv-x="712" d="M443 1079v412h165l-67 -412h-98zM193 1079v412h165l-67 -412h-98z" />
<glyph unicode="#" d="M59 479l31 137h168l66 279h-158l31 135h159l80 338h148l-82 -338h225l80 338h147l-82 -338h164l-32 -135h-162l-66 -279h154l-33 -137h-154l-84 -356h-145l82 356h-223l-84 -356h-146l82 356h-166zM406 616h223l65 279h-223z" />
<glyph unicode="$" d="M162 43l57 156q43 -27 117 -48.5t180 -23.5v575q-66 33 -128 69t-111.5 86t-79 118.5t-29.5 161.5q0 154 86 252t262 120v195h143v-188q109 -4 178.5 -19.5t125.5 -42.5l-52 -147q-43 20 -102 36.5t-150 20.5v-526q68 -35 133.5 -74t118 -90t84 -120t31.5 -161 q0 -166 -92 -273.5t-275 -135.5v-197h-143v188q-119 2 -209 19.5t-145 48.5zM344 1149q0 -92 59.5 -149.5t145.5 -104.5v467q-113 -14 -159 -75.5t-46 -137.5zM627 131q98 16 160.5 76.5t62.5 171.5q0 51 -18.5 92t-48 72.5t-69.5 57.5t-87 48v-518z" />
<glyph unicode="%" horiz-adv-x="1644" d="M149 1155q0 94 25.5 162.5t68.5 114t104.5 65t131.5 19.5t131 -18.5t104 -61.5t69 -112t26 -169t-26 -170t-69 -112t-104 -61t-131 -19t-131.5 19t-104.5 61t-68.5 112t-25.5 170zM307 1155q0 -129 45 -184.5t127 -55.5q41 0 72.5 12.5t54 39t34 71.5t11.5 117 q0 70 -11.5 116t-34 72.5t-54 38t-72.5 11.5q-82 0 -127 -50.5t-45 -187.5zM909 364q0 94 25.5 162.5t68.5 114t104.5 65t131.5 19.5t131 -18.5t104 -61.5t69 -112t26 -169t-26 -170t-69 -112t-104 -61t-131 -19t-131.5 19t-104.5 61t-68.5 112t-25.5 170zM1067 364 q0 -129 45 -184.5t127 -55.5q41 0 72.5 12.5t54 39t34 71.5t11.5 117q0 70 -11.5 116t-34 72.5t-54 38t-72.5 11.5q-82 0 -127 -50.5t-45 -187.5zM262 57l1096 1463l105 -82l-1094 -1463z" />
<glyph unicode="&#x26;" horiz-adv-x="1732" d="M252 397q0 86 29.5 164t81 143.5t116 122t135.5 97.5q-51 78 -89 154.5t-38 164.5q0 51 17.5 100.5t54.5 88t95.5 61.5t142.5 23q88 0 147.5 -21.5t95 -58.5t52 -81t16.5 -91q0 -90 -69.5 -185.5t-219.5 -181.5q35 -61 81 -126.5t97.5 -129t104.5 -127t106 -117.5 q23 27 46.5 66t46 83t41 91t32.5 90l131 -63q-12 -35 -35.5 -85.5t-52 -102.5t-58.5 -100t-56 -79q45 -43 81.5 -73.5t67.5 -53.5t59.5 -41t57.5 -35l-107 -119q-113 55 -256 197q-39 -37 -85 -73t-103 -63.5t-127 -44t-152 -16.5q-100 0 -188 28t-154.5 82t-105.5 133 t-39 179zM422 403q0 -68 27.5 -120t75.5 -86.5t109.5 -54t129.5 -19.5q53 0 103.5 14.5t95.5 36t81.5 49t61.5 56.5q-61 61 -121.5 133.5t-115 145.5t-99.5 139.5t-78 117.5q-57 -41 -106 -86t-86 -95t-57.5 -107.5t-20.5 -123.5zM653 1243q0 -63 27 -125.5t70 -124.5 q113 72 156.5 131.5t43.5 104.5q0 68 -32.5 110.5t-114.5 42.5q-76 0 -113 -38t-37 -101z" />
<glyph unicode="'" horiz-adv-x="462" d="M193 1079v412h165l-67 -412h-98z" />
<glyph unicode="(" horiz-adv-x="595" d="M127 518q0 117 19.5 247t62.5 261t111.5 256t168.5 234l103 -74q-84 -109 -141.5 -224.5t-91 -235.5t-47 -237.5t-13.5 -226.5q0 -102 15.5 -223t51 -241t92 -235.5t134.5 -207.5l-109 -80q-98 102 -165.5 225t-109.5 252t-61.5 259t-19.5 251z" />
<glyph unicode=")" horiz-adv-x="595" d="M4 -393q86 109 143.5 225.5t90 236t47 236.5t14.5 225q0 102 -17.5 221t-52 241t-90 236.5t-135.5 209.5l109 78q98 -100 166.5 -223.5t109.5 -252.5t60.5 -260t19.5 -250q0 -117 -19.5 -246.5t-62.5 -261t-111.5 -257t-169.5 -234.5z" />
<glyph unicode="*" horiz-adv-x="747" d="M86 1178v118h107l131 -24l-97 94l-55 96l104 62l54 -90l39 -119l45 121l51 86l102 -56l-55 -92l-98 -102l143 24h102v-118h-96l-137 26l98 -102l49 -84l-100 -60l-55 91l-49 129l-41 -123l-54 -90l-106 59l57 90l90 90l-122 -26h-107z" />
<glyph unicode="+" horiz-adv-x="1075" d="M86 643v154h375v385h153v-385h375v-154h-375v-383h-153v383h-375z" />
<glyph unicode="," horiz-adv-x="479" d="M90 -233q76 29 114 92t38 127q-20 -6 -37 -6q-43 0 -72 28.5t-29 83.5q0 51 34 83t87 32q66 0 108 -47t42 -137q0 -76 -21.5 -133.5t-55.5 -99.5t-75 -68.5t-80 -38.5z" />
<glyph unicode="-" horiz-adv-x="765" d="M125 535v157h516v-157h-516z" />
<glyph unicode="." horiz-adv-x="454" d="M104 98q0 57 33 90t88 33q57 0 92 -32.5t35 -90.5q0 -55 -34.5 -89t-92.5 -34q-55 0 -88 34t-33 89z" />
<glyph unicode="/" horiz-adv-x="753" d="M-78 -238l776 1754l136 -60l-779 -1755z" />
<glyph unicode="0" d="M92 745q0 383 124 577t364 194q258 0 373.5 -190.5t115.5 -580.5q0 -383 -125 -576.5t-364 -193.5q-254 0 -371 201.5t-117 568.5zM268 745q0 -139 18.5 -252.5t56.5 -195.5t96.5 -128t140.5 -46q162 0 237.5 150.5t75.5 471.5q0 137 -16.5 252t-53.5 198t-96 128 t-147 45q-160 0 -236 -152t-76 -471z" />
<glyph unicode="1" d="M150 1155l468 361h76v-1358h293v-158h-758v158h299v1030l21 127l-84 -101l-236 -167z" />
<glyph unicode="2" d="M131 0v61q47 49 113.5 122t138.5 161t140.5 187.5t125 202t91 201.5t34.5 189q0 104 -60.5 174t-181.5 70q-82 0 -157.5 -34t-130.5 -74l-72 120q76 63 177.5 99.5t219.5 36.5q90 0 161 -27t120 -75t74.5 -115.5t25.5 -145.5q0 -113 -42 -231.5t-108.5 -237.5 t-149.5 -233.5t-167 -217.5l-104 -90v-8l137 23h463v-158h-848z" />
<glyph unicode="3" d="M188 29l43 149q49 -23 117 -39t150 -16q74 0 135 21.5t106 63.5t71 99.5t26 124.5q0 150 -89.5 222.5t-244.5 72.5h-158v61l307 474l99 92l-140 -21h-420v158h760v-61l-340 -510l-73 -62v-4l71 14q86 -2 159 -30.5t126 -83t83 -130t30 -169.5q0 -117 -41 -206 t-110 -149.5t-163 -92.5t-198 -32q-96 0 -172.5 14.5t-133.5 39.5z" />
<glyph unicode="4" d="M43 459v69l707 985h114v-907h252v-147h-252v-459h-166v459h-655zM236 590l149 16h313v465l23 174h-8l-74 -143l-301 -408z" />
<glyph unicode="5" d="M164 16l45 146q49 -18 105.5 -28.5t140.5 -10.5q145 0 241.5 86t96.5 248q0 154 -95.5 230.5t-261.5 76.5l-178 -10v737h664v-158h-504v-424l92 4q211 -2 332 -116.5t121 -329.5q0 -119 -40 -212t-110 -154.5t-164 -93.5t-200 -32q-94 0 -161 10.5t-124 30.5z" />
<glyph unicode="6" d="M127 500q0 211 54.5 389t150.5 310t227 214t285 103l37 -136q-121 -20 -218.5 -80.5t-171 -147.5t-120.5 -195.5t-64 -223.5q33 57 114 105.5t200 48.5q199 0 313.5 -116t114.5 -322q0 -96 -30 -183.5t-88.5 -152t-143.5 -101.5t-193 -37q-106 0 -191.5 34t-146.5 100.5 t-95 165t-34 225.5zM295 479q0 -66 17.5 -130t56.5 -114.5t95 -81t132 -30.5q61 0 111.5 23.5t87 64.5t56 98.5t19.5 122.5q0 152 -69.5 228.5t-216.5 76.5q-104 0 -180 -51t-105 -115q-4 -31 -4 -50v-42z" />
<glyph unicode="7" d="M129 1333v158h891v-57l-612 -1434h-175l535 1247l94 105l-125 -19h-608z" />
<glyph unicode="8" d="M145 356q0 133 70 232.5t219 179.5q-53 33 -99 67.5t-81 80t-55.5 100.5t-20.5 127q0 84 29 152.5t83 116.5t130 76t172 28q90 0 162.5 -25t122 -70t77 -106.5t27.5 -136.5q0 -121 -55.5 -214.5t-182.5 -181.5q55 -33 105.5 -70.5t87.5 -84.5t58.5 -105.5t21.5 -134.5 q0 -90 -30 -166t-87 -130t-140 -85t-190 -31q-102 0 -181 30t-133 81t-82 119.5t-28 150.5zM311 377q0 -51 16.5 -98.5t51.5 -81t85 -54t116 -20.5q53 0 102 16.5t86 47t59.5 78.5t22.5 112q0 63 -25.5 111.5t-67.5 88t-95.5 71.5t-110.5 61q-129 -72 -184.5 -161 t-55.5 -171zM344 1149q0 -61 23.5 -106.5t63.5 -82t91 -67.5t107 -57q96 74 141 146.5t45 158.5q0 109 -66.5 168t-160.5 59q-57 0 -102.5 -19.5t-77 -49t-48 -69.5t-16.5 -81z" />
<glyph unicode="9" d="M111 1040q0 100 29.5 188.5t87 152t144.5 99.5t201 36q217 0 338 -140.5t121 -396.5q0 -240 -54 -420t-149.5 -304t-226.5 -192.5t-285 -87.5l-38 136q125 18 223 71.5t169.5 134t117 184t61.5 226.5q-57 -70 -127 -96.5t-182 -26.5q-86 0 -164 29t-138.5 85t-94 137 t-33.5 185zM287 1057q0 -152 79.5 -227.5t211.5 -75.5q104 0 178.5 33.5t105.5 89.5q4 29 4 50v44q0 78 -17.5 148.5t-54 127t-95 89t-136.5 32.5q-131 0 -203.5 -82t-72.5 -229z" />
<glyph unicode=":" horiz-adv-x="464" d="M195 98q0 57 32.5 90t87.5 33q57 0 91 -32.5t34 -90.5q0 -55 -33.5 -89t-91.5 -34q-55 0 -87.5 34t-32.5 89zM195 956q0 57 32.5 90t87.5 33q57 0 91 -32.5t34 -90.5q0 -55 -33.5 -88.5t-91.5 -33.5q-55 0 -87.5 33.5t-32.5 88.5z" />
<glyph unicode=";" horiz-adv-x="544" d="M174 -233q78 29 115 92t37 127q-18 -6 -37 -6q-41 0 -70 28.5t-29 83.5q0 51 34 83t87 32q66 0 108 -47t42 -137q0 -76 -21.5 -133.5t-55.5 -99.5t-75 -68.5t-82 -38.5zM205 956q0 57 32.5 90t88.5 33q57 0 91 -32.5t34 -90.5q0 -55 -34 -88.5t-91 -33.5q-55 0 -88 33.5 t-33 88.5z" />
<glyph unicode="&#x3c;" horiz-adv-x="1075" d="M90 649v62l805 493l80 -133l-504 -309l-195 -80l193 -68l518 -307l-82 -129z" />
<glyph unicode="=" horiz-adv-x="1075" d="M86 467v154h903v-154h-903zM86 819v154h903v-154h-903z" />
<glyph unicode="&#x3e;" horiz-adv-x="1075" d="M90 1073l80 131l817 -471v-61l-807 -494l-80 131l504 309l195 80l-193 68z" />
<glyph unicode="?" horiz-adv-x="927" d="M78 1409q82 49 171 78t222 29q94 0 165 -27t119 -73t71.5 -110.5t23.5 -136.5q0 -96 -28.5 -167.5t-72.5 -130t-94.5 -109.5t-93.5 -107.5t-71.5 -122t-28.5 -155.5h-142q-2 10 -2 23v24q0 90 27 157.5t66 124t85 105.5t86 99.5t66.5 106.5t26.5 130q0 96 -56.5 158.5 t-189.5 62.5q-76 0 -154.5 -26.5t-136.5 -63.5zM276 98q0 57 33 90t88 33q59 0 93 -32.5t34 -90.5q0 -55 -33.5 -89t-93.5 -34q-55 0 -88 34t-33 89z" />
<glyph unicode="@" horiz-adv-x="2265" d="M184 502q0 233 80 420.5t217 319.5t317.5 203t383.5 71q193 0 356.5 -56.5t283.5 -162t189.5 -257t69.5 -346.5q0 -137 -47 -261t-127 -218t-186.5 -150.5t-225.5 -56.5q-90 0 -143.5 39t-53.5 143q0 18 2.5 41t8.5 48h-11q-29 -49 -69.5 -96.5t-91 -86.5t-106.5 -63.5 t-118 -24.5q-51 0 -98 22.5t-81 65.5t-54.5 101.5t-20.5 132.5q0 137 45.5 269t121 234.5t177 165t214.5 62.5q78 0 125 -23.5t92 -58.5l71 68h74l-109 -613q-12 -55 -17 -99t-5 -77q0 -53 18.5 -77.5t63.5 -24.5q72 0 143.5 37.5t126.5 108.5t90 170t35 222q0 164 -55 290 t-155.5 212t-239 131t-304.5 45q-172 0 -324.5 -64.5t-264 -177t-177 -270.5t-65.5 -342q0 -190 59.5 -338.5t168 -251t259 -156t336.5 -53.5q61 0 140 13.5t143 46.5l43 -137q-96 -39 -177 -53.5t-175 -14.5q-197 0 -371 59.5t-303 177t-204 291t-75 400.5zM827 358 q0 -84 34 -142t122 -58q43 0 89 27.5t91 75.5t85 107.5t73 120.5l63 349q-37 43 -72.5 58t-90.5 15q-84 0 -156 -50t-124 -130t-83 -178.5t-31 -194.5z" />
<glyph unicode="A" horiz-adv-x="1245" d="M16 0l566 1513h80l567 -1513h-185l-153 414h-551l-147 -414h-177zM397 567h441l-166 453l-54 225h-2l-53 -229z" />
<glyph unicode="B" horiz-adv-x="1243" d="M180 10v1469q80 12 184.5 20t227.5 8q84 0 170 -13t156.5 -53t115.5 -109.5t45 -180.5q0 -53 -16 -108.5t-51 -103.5t-88.5 -85t-124.5 -55v-8q63 -10 121.5 -36t103.5 -71t72.5 -108.5t27.5 -151.5q0 -115 -48 -199t-126 -137t-177 -78.5t-204 -25.5h-86q-49 0 -102 3 t-106.5 8t-94.5 15zM358 152q14 -4 42 -6.5t60 -4.5t66.5 -3t59.5 -1q68 0 132 15.5t113.5 50.5t78 86t28.5 123q0 86 -36 139t-92 83t-126 41t-141 11h-185v-534zM358 836h111q35 0 86 2t86 6q51 16 96 40.5t80 57.5t55.5 77t20.5 95q0 70 -26.5 116t-71.5 73.5t-102.5 39 t-117.5 11.5q-72 0 -130 -3t-87 -10v-505z" />
<glyph unicode="C" horiz-adv-x="1214" d="M119 745q0 209 56 354.5t149.5 239t208 135.5t233.5 42q129 0 210 -13.5t138 -36.5l-43 -155q-102 49 -291 49q-88 0 -173 -33t-152.5 -104.5t-107.5 -189.5t-40 -288q0 -154 38 -268.5t105.5 -191t157.5 -115.5t197 -39q96 0 167.5 19.5t121.5 50.5l41 -140 q-63 -49 -162 -67.5t-209 -18.5q-133 0 -251 45.5t-205 139.5t-138 239t-51 346z" />
<glyph unicode="D" horiz-adv-x="1392" d="M180 -2v1493q41 6 91.5 9t104.5 4t106.5 2t97.5 1q178 0 309 -55t216 -153.5t127 -237.5t42 -305q0 -152 -40 -291t-125 -246.5t-221 -172t-331 -64.5q-33 0 -87 1t-111.5 4t-106.5 5t-72 6zM358 147q10 -2 40 -3t62 -2t61.5 -2t41.5 -1q147 0 248.5 51.5t162 137.5 t86 197.5t25.5 230.5q0 104 -22.5 209.5t-80.5 190.5t-154.5 139.5t-243.5 54.5h-62q-33 0 -64.5 -2t-58 -4.5t-41.5 -4.5v-1192z" />
<glyph unicode="E" horiz-adv-x="1140" d="M180 0v1491h813v-158h-635v-487h582v-158h-582v-530h646v-158h-824z" />
<glyph unicode="F" horiz-adv-x="1099" d="M180 0v1491h813v-158h-635v-510h592v-155h-592v-668h-178z" />
<glyph unicode="G" horiz-adv-x="1302" d="M119 745q0 207 59.5 353.5t155.5 240t216 135.5t238 42q127 0 210 -13.5t141 -36.5l-43 -155q-102 49 -293 49q-90 0 -178 -32t-159 -103.5t-115 -189t-44 -290.5q0 -158 36 -272.5t101.5 -190t156.5 -113.5t200 -38q137 0 231 53v416l-348 43v100h500v-655 q-33 -27 -81 -48.5t-102.5 -35.5t-113 -21.5t-113.5 -7.5q-143 0 -263 45.5t-207 140.5t-136 240t-49 344z" />
<glyph unicode="H" horiz-adv-x="1429" d="M180 0v1491h178v-649h715v649h176v-1491h-176v684h-715v-684h-178z" />
<glyph unicode="I" horiz-adv-x="618" d="M221 0v1491h176v-1491h-176z" />
<glyph unicode="J" horiz-adv-x="618" d="M-72 12l33 152q59 -27 131 -27q88 0 117 62.5t29 171.5v1120h178v-1163q0 -170 -76 -259t-229 -89q-16 0 -42 2t-51.5 6t-50.5 10t-39 14z" />
<glyph unicode="K" horiz-adv-x="1298" d="M180 0v1491h178v-694l97 30l499 664h205l-500 -641l-88 -70l109 -86l545 -694h-224l-542 690h-101v-690h-178z" />
<glyph unicode="L" horiz-adv-x="1099" d="M180 0v1491h178v-1333h705v-158h-883z" />
<glyph unicode="M" horiz-adv-x="1683" d="M180 0v1491h133l467 -762l70 -166h4l66 170l446 758h137v-1491h-176v1001l21 224h-11l-80 -205l-389 -672h-53l-409 674l-78 203h-11l31 -221v-1004h-168z" />
<glyph unicode="N" horiz-adv-x="1431" d="M180 0v1513h94l715 -993l111 -205h10l-25 205v971h168v-1514h-94l-710 998l-115 215h-8l22 -215v-975h-168z" />
<glyph unicode="O" horiz-adv-x="1456" d="M119 745q0 373 157.5 572t450.5 199q158 0 272.5 -55.5t190.5 -156t111.5 -242.5t35.5 -317q0 -373 -158.5 -571.5t-451.5 -198.5q-156 0 -270.5 55.5t-189 156t-111.5 242.5t-37 316zM307 745q0 -123 24.5 -233.5t76 -195.5t131 -135t188.5 -50q197 0 310.5 150.5 t113.5 463.5q0 121 -24.5 233t-77 197t-132 135t-190.5 50q-197 0 -308.5 -151t-111.5 -464z" />
<glyph unicode="P" horiz-adv-x="1189" d="M180 0v1477q82 18 175.5 24t185.5 6q98 0 199.5 -18.5t184.5 -69.5t135 -141t52 -227t-49 -230.5t-130 -153t-185.5 -85t-215.5 -25.5h-34q-25 0 -51.5 2t-52 4t-36.5 4v-567h-178zM358 725q10 -4 34 -6t49.5 -3t48.5 -1h34q72 0 143.5 14t129 50t92.5 102.5t35 169.5 q0 86 -33 145t-87 94t-122 49.5t-137 14.5q-55 0 -106.5 -2t-80.5 -11v-616z" />
<glyph unicode="Q" horiz-adv-x="1456" d="M119 745q0 373 157.5 572t450.5 199q158 0 272.5 -55.5t190.5 -156t111.5 -242.5t35.5 -317q0 -373 -158.5 -571.5t-451.5 -198.5q-156 0 -270.5 55.5t-189 156t-111.5 242.5t-37 316zM307 745q0 -123 24.5 -233.5t76 -195.5t131 -135t188.5 -50q197 0 310.5 150.5 t113.5 463.5q0 121 -24.5 233t-77 197t-132 135t-190.5 50q-197 0 -308.5 -151t-111.5 -464zM451 -104q31 6 58.5 10t57.5 4q88 0 177.5 -22.5t180.5 -49t187 -48t203 -21.5q92 0 184 20v-154q-51 -14 -100 -19t-99 -5q-106 0 -206.5 22.5t-195.5 49t-182 48t-167 21.5 q-51 0 -98 -12v156z" />
<glyph unicode="R" horiz-adv-x="1265" d="M180 0v1477q82 14 187.5 22t193.5 8q96 0 185.5 -20.5t156 -69.5t107.5 -128t41 -191q0 -176 -96.5 -284.5t-243.5 -143.5l102 -80l371 -590h-207l-410 643l-209 33v-676h-178zM358 793h166q147 0 242.5 72.5t95.5 224.5q0 117 -78.5 190.5t-218.5 73.5h-58 q-30 0 -57.5 -2t-52 -4t-39.5 -7v-548z" />
<glyph unicode="S" horiz-adv-x="1130" d="M98 53l60 160q49 -29 144 -55.5t216 -26.5q70 0 131.5 14.5t106.5 45t71.5 77.5t26.5 111q0 90 -53 146.5t-133 100.5t-173.5 81.5t-173 92t-133 134.5t-53.5 203q0 176 121 277.5t344 101.5q131 0 237.5 -18.5t166.5 -49.5l-54 -156q-49 25 -144 46.5t-214 21.5 q-141 0 -211 -63.5t-70 -147.5t53.5 -139.5t133.5 -99.5t173 -86t173 -98t133 -135t53 -198q0 -94 -33.5 -171t-99.5 -132t-160 -85t-213 -30q-160 0 -264.5 23.5t-161.5 54.5z" />
<glyph unicode="T" horiz-adv-x="1181" d="M39 1333v158h1104v-158h-463v-1333h-178v1333h-463z" />
<glyph unicode="U" horiz-adv-x="1388" d="M180 463v1028h178v-946q0 -113 22.5 -191t67 -126t112 -68.5t155.5 -20.5q174 0 247.5 94.5t73.5 311.5v946h172v-995q0 -133 -35.5 -231.5t-100 -161t-157 -92t-202.5 -29.5q-264 0 -398.5 118.5t-134.5 362.5z" />
<glyph unicode="V" horiz-adv-x="1208" d="M-4 1491h194l379 -1024l52 -225h2l55 229l358 1020h178l-565 -1514h-78z" />
<glyph unicode="W" horiz-adv-x="1763" d="M16 1491h189l268 -999l35 -246h2l35 250l307 995h86l307 -999l37 -246h2l39 250l252 995h172l-416 -1514h-98l-303 998l-37 227h-10l-39 -229l-303 -996h-99z" />
<glyph unicode="X" horiz-adv-x="1314" d="M55 0l496 758l-453 733h213l303 -504l54 -123l49 123l319 504h197l-469 -717l491 -774h-206l-338 535l-58 127l-55 -127l-344 -535h-199z" />
<glyph unicode="Y" horiz-adv-x="1187" d="M16 1491h207l350 -651l35 -131h2l39 135l334 647h191l-488 -897v-594h-176v592z" />
<glyph unicode="Z" d="M82 0v160l752 1087l88 86h-840v158h999v-160l-755 -1095l-90 -78h845v-158h-999z" />
<glyph unicode="[" horiz-adv-x="647" d="M180 -489v1980h387v-150h-219v-1681h219v-149h-387z" />
<glyph unicode="\" horiz-adv-x="808" d="M-78 1456l141 60l787 -1752l-141 -63z" />
<glyph unicode="]" horiz-adv-x="647" d="M82 -340h221v1681h-221v150h387v-1980h-387v149z" />
<glyph unicode="^" horiz-adv-x="1064" d="M102 926l396 587h63l359 -587h-175l-170 288l-49 148l-65 -150l-197 -286h-162z" />
<glyph unicode="_" horiz-adv-x="868" d="M0 -287h868v-149h-868v149z" />
<glyph unicode="`" horiz-adv-x="595" d="M127 1489v45h203l139 -317h-96z" />
<glyph unicode="a" horiz-adv-x="1054" d="M84 285q0 94 38 156.5t107.5 100.5t166 53t212.5 15h60q29 0 59 -4q6 66 6 117q0 117 -47 164t-170 47q-37 0 -79 -6t-85 -15.5t-83 -24t-68 -30.5l-54 129q80 47 187.5 70.5t226.5 23.5q111 0 177.5 -29.5t101 -77.5t47 -105.5t12.5 -114.5q0 -127 -6 -249t-6 -231 q0 -78 6 -148.5t22 -129.5h-124l-46 149h-10q-20 -31 -49 -59.5t-68.5 -51t-93 -36.5t-121.5 -14q-70 0 -128 20.5t-101 60t-66.5 95t-23.5 125.5zM260 303q0 -76 53.5 -124t135.5 -48q61 0 107 16.5t81 41t56.5 54t33.5 58.5v176q-31 2 -61.5 3t-61.5 1q-66 0 -128 -7 t-110.5 -27.5t-77 -55.5t-28.5 -88z" />
<glyph unicode="b" horiz-adv-x="1148" d="M164 61v1430h170v-530h8q49 61 125 95t166 34q207 0 310.5 -131.5t103.5 -409.5q0 -279 -136.5 -423t-384.5 -144q-119 0 -216 25t-146 54zM334 176q41 -23 98 -35t119 -12q145 0 231 102.5t86 319.5q0 84 -14 156.5t-46 124t-82 81t-124 29.5q-106 0 -171.5 -60.5 t-96.5 -168.5v-537z" />
<glyph unicode="c" horiz-adv-x="960" d="M104 532q0 270 119 414t344 144q102 0 173 -15.5t128 -46.5l-49 -145q-49 27 -108.5 43t-126.5 16q-303 0 -303 -410q0 -82 16 -154.5t53 -128.5t98.5 -91t149.5 -35q78 0 138.5 23.5t99.5 54.5l55 -131q-63 -47 -151.5 -71t-184.5 -24q-123 0 -208 39t-139 113t-79 177 t-25 228z" />
<glyph unicode="d" horiz-adv-x="1144" d="M104 528q0 272 129 413.5t355 141.5q80 0 125 -8t98 -26v442h170v-1124q0 -109 3 -197t20 -174h-115l-43 151h-8q-43 -76 -124 -124t-190 -48q-213 0 -316.5 134t-103.5 419zM281 528q0 -88 14 -162.5t46 -128t84 -84t126 -30.5q109 0 173 56.5t87 172.5v529 q-37 29 -86 42t-131 13q-147 0 -230 -97.5t-83 -310.5z" />
<glyph unicode="e" horiz-adv-x="1081" d="M104 532q0 272 122 415t347 143q72 0 145 -15.5t130 -60.5t93 -127t36 -215q0 -72 -12 -156h-684q0 -94 19 -167t60 -123t105.5 -76.5t159.5 -26.5q72 0 144.5 25.5t107.5 60.5l65 -123q-66 -51 -162 -81t-205 -30q-121 0 -211 39t-147 113t-85 176t-28 229zM283 649h528 q0 162 -61.5 227.5t-174.5 65.5q-127 0 -201.5 -66.5t-90.5 -226.5z" />
<glyph unicode="f" horiz-adv-x="677" d="M47 915v150h166v59q0 98 16.5 171t52 118t93 67.5t143.5 22.5q68 0 120 -8t110 -33l-39 -141q-49 20 -92.5 26.5t-81.5 6.5q-55 0 -86 -16.5t-45.5 -49.5t-17.5 -81t-3 -111v-31h285v-150h-285v-915h-170v915h-166z" />
<glyph unicode="g" horiz-adv-x="1142" d="M104 528q0 272 130.5 413.5t383.5 141.5q121 0 207 -18t154 -45v-1069q0 -207 -109.5 -304.5t-324.5 -97.5q-127 0 -205 15.5t-133 42.5l45 143q49 -18 108.5 -35.5t155.5 -17.5q88 0 144.5 16.5t91 53t47 96t12.5 139.5v102h-8q-43 -61 -108.5 -94t-172.5 -33 q-215 0 -316.5 134t-101.5 417zM281 530q0 -90 15 -164.5t47 -128t83 -83t125 -29.5q109 0 171 54t87 171v545q-84 41 -217 41q-145 0 -228 -98.5t-83 -307.5z" />
<glyph unicode="h" horiz-adv-x="1163" d="M164 0v1491h170v-545h8q55 66 133 105t195 39q88 0 154.5 -19.5t109.5 -71t63.5 -137.5t20.5 -219v-643h-170v606q0 84 -9.5 146.5t-35 104.5t-69.5 63.5t-113 21.5q-100 0 -181.5 -65.5t-105.5 -167.5v-709h-170z" />
<glyph unicode="i" horiz-adv-x="569" d="M164 1389q0 49 32.5 83.5t84.5 34.5q51 0 88 -34.5t37 -83.5t-37 -81t-88 -32t-84 32t-33 81zM201 0v1065h170v-1065h-170z" />
<glyph unicode="j" horiz-adv-x="567" d="M18 -303q59 0 95.5 18.5t55.5 56.5t24.5 97t5.5 137v1059h170v-1122q0 -199 -69 -296.5t-216 -97.5q-18 0 -32.5 1t-33.5 4v143zM162 1389q0 49 32.5 83.5t84.5 34.5q51 0 87.5 -34.5t36.5 -83.5t-36.5 -81t-87.5 -32t-84 32t-33 81z" />
<glyph unicode="k" horiz-adv-x="1019" d="M164 0v1491h170v-907l88 30l330 451h198l-325 -428l-88 -70l106 -86l356 -481h-211l-356 479h-98v-479h-170z" />
<glyph unicode="l" horiz-adv-x="620" d="M182 213v1278h172v-1229q0 -74 26 -106.5t71 -32.5q29 0 60.5 4t72.5 20l18 -135q-33 -16 -94.5 -26.5t-104.5 -10.5q-96 0 -158.5 54.5t-62.5 183.5z" />
<glyph unicode="m" horiz-adv-x="1728" d="M164 0v1065h119l32 -129h9q57 68 132.5 111t196.5 43q102 0 168 -39t101 -138q49 84 135 130.5t196 46.5q88 0 150.5 -19.5t102.5 -71t58.5 -138.5t18.5 -222v-639h-170v641q0 76 -8 133t-30.5 94t-61.5 55.5t-103 18.5q-106 0 -166.5 -60.5t-85.5 -170.5v-711h-170v602 q0 86 -7 148.5t-28.5 105.5t-61.5 64.5t-103 21.5q-98 0 -163 -60.5t-91 -148.5v-733h-170z" />
<glyph unicode="n" horiz-adv-x="1163" d="M164 0v1065h119l32 -129h9q51 68 137 111t207 43q86 0 152.5 -19.5t109.5 -71t65.5 -137.5t22.5 -219v-643h-170v606q0 168 -48 252t-175 84q-113 0 -186.5 -61.5t-104.5 -151.5v-729h-170z" />
<glyph unicode="o" horiz-adv-x="1140" d="M104 532q0 270 120 414t347 144q119 0 207 -39t145.5 -113t85 -177.5t27.5 -228.5q0 -270 -119.5 -413.5t-345.5 -143.5q-121 0 -209 39t-145 113t-85 177t-28 228zM281 532q0 -82 16 -155.5t50 -128.5t89.5 -90t134.5 -35h3q286 0 286 409q0 84 -15.5 158t-50 129 t-90 89t-133.5 34h-2q-288 0 -288 -410z" />
<glyph unicode="p" horiz-adv-x="1150" d="M164 -426v1491h117l32 -127h9q49 74 126.5 113t178.5 39q213 0 317.5 -125t104.5 -412q0 -133 -36 -240.5t-99.5 -182.5t-153.5 -115t-203 -40q-78 0 -124 9.5t-99 31.5v-442h-170zM334 184q39 -29 88 -45t129 -16q147 0 233 109.5t86 322.5q0 88 -14 159.5t-47 122 t-85 78t-130 27.5q-109 0 -171.5 -56.5t-88.5 -172.5v-529z" />
<glyph unicode="q" horiz-adv-x="1142" d="M104 528q0 274 132.5 414.5t386.5 140.5q113 0 212 -20.5t144 -44.5v-1444h-170v532h-8q-43 -63 -107.5 -97t-171.5 -34q-213 0 -315.5 135t-102.5 418zM281 530q0 -90 15 -165.5t47 -129t83 -83t125 -29.5q109 0 171 55t87 172v545q-78 41 -217 41q-147 0 -229 -99.5 t-82 -306.5z" />
<glyph unicode="r" horiz-adv-x="722" d="M164 0v1065h119l32 -129h9q41 72 97 110.5t144 38.5q61 0 137 -20l-34 -164q-66 20 -123 21q-90 0 -143.5 -50.5t-67.5 -126.5v-745h-170z" />
<glyph unicode="s" horiz-adv-x="894" d="M84 53l51 146q47 -29 126 -52.5t161 -23.5q92 0 151.5 37t59.5 129q0 66 -39 101.5t-95.5 60t-123 47t-122.5 57.5t-95 90t-39 150q0 154 88 224.5t242 70.5q117 0 194.5 -19.5t134.5 -48.5l-41 -139q-49 23 -118.5 41t-147.5 18q-94 0 -138 -32.5t-44 -110.5 q0 -55 39 -86t95 -55.5t123.5 -48t124 -61.5t94.5 -97.5t38 -153.5q0 -70 -22.5 -129t-69.5 -102t-116 -67t-163 -24q-121 0 -206 22.5t-142 55.5z" />
<glyph unicode="t" horiz-adv-x="720" d="M23 915v150h167v211l170 49v-260h289v-150h-289v-589q0 -111 28 -157t93 -46q55 0 94 12t84 31l39 -129q-57 -29 -125.5 -45.5t-146.5 -16.5q-129 0 -182.5 73t-53.5 247v620h-167z" />
<glyph unicode="u" horiz-adv-x="1146" d="M147 422v643h170v-606q0 -84 9.5 -146.5t33 -104.5t64.5 -63.5t102 -21.5q57 0 102.5 18.5t80 50t61.5 73.5t43 89v711h170v-762q0 -78 6 -160t19 -143h-117l-43 168h-10q-49 -82 -132 -137.5t-212 -55.5q-84 0 -149.5 19.5t-108.5 71t-66 137.5t-23 219z" />
<glyph unicode="v" horiz-adv-x="1026" d="M18 1065h197l256 -625l59 -202h2l54 206l237 621h185l-455 -1088h-72z" />
<glyph unicode="w" horiz-adv-x="1564" d="M16 1065h187l211 -621l35 -206h2l51 211l229 616h123l246 -623l53 -204h4l39 208l190 619h162l-358 -1088h-82l-279 703l-41 174h-6l-43 -176l-268 -701h-84z" />
<glyph unicode="x" horiz-adv-x="1095" d="M59 0l383 545l-356 520h209l201 -295l59 -121l63 121l205 295h193l-361 -512l381 -553h-200l-228 324l-63 127l-66 -127l-229 -324h-191z" />
<glyph unicode="y" horiz-adv-x="991" d="M25 1065h196l256 -690l60 -205h10l47 207l207 688h172l-316 -956q-35 -104 -70.5 -203t-77.5 -174.5t-95.5 -121.5t-124.5 -46q-76 0 -125 20l31 148q27 -10 53 -11q59 0 114.5 62.5t92.5 216.5z" />
<glyph unicode="z" horiz-adv-x="950" d="M90 0v150l492 677l90 88h-582v150h758v-150l-496 -684l-88 -81h584v-150h-758z" />
<glyph unicode="{" horiz-adv-x="735" d="M121 426v149q82 0 126 42t44 137v516q0 100 50 161.5t153 61.5h182v-150h-107q-57 0 -83.5 -28.5t-26.5 -95.5v-506q0 -92 -45 -141.5t-105 -59.5v-14q57 -8 103.5 -64.5t46.5 -146.5v-502q0 -66 25.5 -95.5t86.5 -29.5h105v-149h-182q-96 0 -149.5 56t-53.5 165v506 q0 111 -44 149.5t-126 38.5z" />
<glyph unicode="|" horiz-adv-x="505" d="M180 -276v1767h146v-1767h-146z" />
<glyph unicode="}" horiz-adv-x="735" d="M117 -340h106q57 0 84 28.5t27 96.5v504q0 94 44 143t103 60v12q-57 10 -102 66.5t-45 144.5v504q0 66 -25.5 95t-85.5 29h-106v150h184q92 0 145.5 -56.5t53.5 -164.5v-508q0 -109 45 -147.5t127 -38.5v-150q-82 0 -127 -43t-45 -135v-516q0 -100 -49.5 -161.5 t-151.5 -61.5h-182v149z" />
<glyph unicode="~" horiz-adv-x="1075" d="M66 768q92 72 166.5 99.5t136.5 27.5q59 0 110 -18.5t98.5 -41t91.5 -40t93 -17.5q41 0 84 16.5t92 59.5l72 -129q-82 -55 -146.5 -77.5t-118.5 -22.5q-57 0 -105 17t-92 40t-87 41t-94 18q-49 0 -104.5 -22.5t-123.5 -77.5z" />
<glyph unicode="&#xa1;" horiz-adv-x="647" d="M164 965q0 57 32.5 89.5t88.5 32.5q57 0 92 -32.5t35 -89.5q0 -55 -35 -89t-92 -34q-55 0 -88 34t-33 89zM199 313l34 375h105l37 -375v-739h-176v739z" />
<glyph unicode="&#xa2;" d="M184 532q0 246 101.5 387.5t289.5 163.5v195h152v-191q74 -4 131 -19t105 -40l-50 -143q-43 20 -95 35.5t-107 19.5v-817q70 4 125 26.5t90 51.5l55 -131q-51 -35 -115.5 -57.5t-138.5 -30.5v-195h-152v193q-106 10 -179.5 53t-121 114.5t-69 169.5t-21.5 215zM362 532 q0 -70 11.5 -135t39 -119.5t72.5 -92.5t111 -54v805q-234 -46 -234 -404z" />
<glyph unicode="&#xa3;" d="M106 0v154q68 0 116 24.5t79 63.5t46 89t15 101q0 70 -14 127t-35 109h-207v147h142q-27 55 -43.5 122t-16.5 157q0 207 119 314.5t326 107.5q129 0 225 -18.5t158 -49.5l-55 -152q-49 25 -131 44.5t-199 19.5q-129 0 -197.5 -69.5t-68.5 -186.5q0 -90 21.5 -158.5 t49.5 -130.5h344v-147h-280q18 -49 28.5 -102.5t10.5 -119.5q0 -63 -19.5 -129.5t-56.5 -109.5l-84 -70v-10l133 31h545v-158h-951z" />
<glyph unicode="&#xa4;" d="M45 305l164 166l72 47q-66 88 -66 217q0 61 18.5 116.5t47.5 102.5l-72 45l-164 166l105 105l165 -164l45 -76q88 72 220 72q125 0 219 -72l47 76l166 164l104 -105l-164 -166l-75 -47q70 -92 69 -217q0 -129 -69 -219l75 -45l164 -166l-104 -102l-166 164l-45 69 q-92 -66 -221 -65q-133 0 -220 65l-45 -69l-165 -164zM362 735q0 -96 60.5 -159.5t157.5 -63.5q96 0 157.5 63.5t61.5 159.5t-61.5 161t-157.5 65t-157 -65t-61 -161z" />
<glyph unicode="&#xa5;" d="M4 1491h207l350 -651l35 -131h2l39 135l334 647h190l-432 -793h205v-127h-260v-151h260v-129h-260v-291h-178v291h-260v129h260v151h-260v127h200z" />
<glyph unicode="&#xa6;" horiz-adv-x="505" d="M180 -276v714h146v-714h-146zM180 776v715h146v-715h-146z" />
<glyph unicode="&#xa7;" horiz-adv-x="1056" d="M121 752q0 66 33.5 129t89.5 112l86 29q-55 35 -92 87t-37 138q0 121 88 195t246 74q115 0 194.5 -18.5t136.5 -47.5l-39 -141q-51 23 -121.5 41t-148.5 18q-94 0 -140 -35t-46 -92q0 -55 42 -86t105.5 -54.5t136 -47t136 -60.5t105.5 -97t42 -157q0 -66 -33 -128 t-88 -111l-94 -29q57 -35 96 -88t39 -139q0 -68 -25.5 -118t-71.5 -84t-107.5 -50.5t-131.5 -16.5q-119 0 -195.5 19.5t-136.5 50.5l41 137q49 -23 119 -41t150 -18q90 0 139 28.5t49 98.5q0 55 -42 87t-105.5 55.5t-136 47t-136 60.5t-105.5 96.5t-42 155.5zM291 756 q0 -53 28.5 -87t71.5 -58.5t99.5 -42t113.5 -38.5q31 12 59.5 34t52 48.5t37 57t13.5 65.5q0 53 -27.5 87t-72.5 58.5t-103.5 43t-116.5 39.5q-61 -27 -108 -78t-47 -129z" />
<glyph unicode="&#xa8;" horiz-adv-x="874" d="M127 1391q0 49 28.5 78.5t75.5 29.5t76 -29.5t29 -78.5q0 -45 -28.5 -75t-76.5 -30q-47 0 -75.5 30t-28.5 75zM537 1391q0 49 28.5 78.5t75.5 29.5q49 0 78 -29.5t29 -78.5q0 -45 -29 -75t-78 -30q-47 0 -75.5 30t-28.5 75z" />
<glyph unicode="&#xa9;" horiz-adv-x="1716" d="M109 618q0 176 59 315.5t161.5 236t239 147.5t289.5 51q154 0 290 -51t238.5 -147.5t162 -235.5t59.5 -316q0 -178 -59.5 -317t-162 -235.5t-238.5 -146.5t-290 -50q-170 0 -308 50t-236.5 146.5t-151.5 235.5t-53 317zM258 618q0 -147 47 -260.5t128 -190.5t190.5 -118 t234.5 -41t235.5 41t191.5 118t127 190.5t46 260.5q0 145 -46 260t-127 192t-191.5 117t-235.5 40t-234.5 -40t-190.5 -117t-128 -192t-47 -260zM500 618q0 193 97 298.5t257 105.5q39 0 69.5 -4t57.5 -11.5t52.5 -18.5t56.5 -23l-56 -129q-45 23 -88 30.5t-74 7.5 q-88 0 -144 -55t-56 -201q0 -125 55 -191.5t164 -68.5q100 0 170 37l45 -125q-49 -27 -109.5 -42t-142.5 -15q-172 0 -263 108.5t-91 296.5z" />
<glyph unicode="&#xaa;" horiz-adv-x="821" d="M102 1004q0 66 32 110.5t86 72t128 40t160 12.5q14 0 27.5 -1t29.5 -1q2 12 2 25v22q0 57 -25.5 81t-99.5 24q-84 0 -154.5 -16.5t-111.5 -37.5l-31 107q53 29 140.5 47t193.5 18q131 0 180.5 -55t49.5 -160q0 -80 -3.5 -154.5t-3.5 -142.5q0 -51 3.5 -98t15.5 -88h-119 l-27 98h-8q-29 -37 -80 -71.5t-143 -34.5q-111 0 -176.5 54.5t-65.5 148.5zM252 1014q0 -43 30.5 -68.5t86.5 -25.5q45 0 77.5 11t56 28.5t38 38t24.5 38.5v90q-25 2 -46 2h-44q-45 0 -85 -4t-71.5 -16t-49 -34.5t-17.5 -59.5z" />
<glyph unicode="&#xab;" horiz-adv-x="1017" d="M84 551l340 491l115 -92l-209 -309l-103 -88l103 -76l221 -303l-115 -92zM473 551l336 485l113 -88l-207 -307l-101 -88l101 -76l221 -301l-113 -90z" />
<glyph unicode="&#xac;" horiz-adv-x="1075" d="M88 682v154h903v-410h-153v256h-750z" />
<glyph unicode="&#xad;" horiz-adv-x="765" d="M123 535v157h520v-157h-520z" />
<glyph unicode="&#xae;" horiz-adv-x="1490" d="M180 961q0 137 45 242.5t123 176t180.5 108.5t216.5 38q117 0 220.5 -38t180.5 -108.5t121 -176t44 -242.5t-45 -242t-123 -176.5t-180.5 -109.5t-217.5 -38q-119 0 -221 38t-179 109.5t-121 176.5t-44 242zM315 961q0 -111 34 -193t92.5 -136t137 -82t166.5 -28 q92 0 171 26.5t136.5 81t90.5 136.5t33 195q0 111 -34 192.5t-92.5 135.5t-136 82t-168.5 28q-94 0 -172.5 -28t-136 -82t-89.5 -135.5t-32 -192.5zM526 686v551q35 10 96.5 16.5t116.5 6.5q90 0 153.5 -38t63.5 -128q0 -70 -44 -106t-107 -40l59 -30l158 -232h-129 l-154 221l-102 33v-254h-111zM637 1004h72q61 0 96 19t35 64q0 76 -125 76q-23 0 -44.5 -1t-33.5 -7v-151z" />
<glyph unicode="&#xaf;" horiz-adv-x="884" d="M127 1237v133h631v-133h-631z" />
<glyph unicode="&#xb0;" horiz-adv-x="905" d="M180 1217q0 66 23.5 121t64.5 95t96.5 61.5t116.5 21.5t116.5 -19.5t96.5 -59.5t64.5 -95.5t23.5 -124.5q0 -70 -23.5 -126.5t-64.5 -95.5t-96 -59.5t-117 -20.5q-61 0 -116.5 20.5t-96.5 59.5t-64.5 95.5t-23.5 126.5zM315 1217q0 -82 50.5 -127.5t115.5 -45.5 q66 0 116 45.5t50 127.5q0 80 -50 126t-116 46t-116 -46t-50 -126z" />
<glyph unicode="&#xb1;" horiz-adv-x="1075" d="M86 379v153h903v-153h-903zM86 897v154h375v385h153v-385h375v-154h-375v-256h-153v256h-375z" />
<glyph unicode="&#xb2;" horiz-adv-x="837" d="M102 879q49 41 123 109.5t141.5 147.5t115.5 161.5t48 152.5q0 66 -43 99.5t-104 33.5q-57 0 -111.5 -20.5t-95.5 -46.5l-47 122q55 37 129 58.5t152 21.5q133 0 201.5 -65.5t68.5 -184.5q0 -66 -22.5 -127t-59.5 -120.5t-88 -119t-109 -118.5l-98 -67v-5l121 33h299 v-135h-621v70z" />
<glyph unicode="&#xb3;" horiz-adv-x="837" d="M143 834l31 129q37 -16 84 -28.5t102 -12.5q102 0 156.5 41t54.5 118q0 68 -49 111t-157 43h-117v49l207 248l71 57l-104 -14h-277v129h545v-72l-219 -260l-53 -39v-4l49 6q117 -2 185.5 -70.5t68.5 -183.5q0 -129 -95.5 -207.5t-252.5 -78.5q-76 0 -132.5 12.5 t-97.5 26.5z" />
<glyph unicode="&#xb4;" horiz-adv-x="569" d="M127 1217l127 317h188v-45l-215 -272h-100z" />
<glyph unicode="&#xb5;" horiz-adv-x="1175" d="M145 -426v1491h170v-602q0 -168 52.5 -254t181.5 -86q119 0 199.5 69.5t111.5 182.5v690h170v-717q0 -88 6 -176t27 -172h-117l-59 158h-10q-41 -74 -130.5 -128.5t-216.5 -54.5q-102 0 -156.5 30t-92.5 77h-11l45 -225v-283h-170z" />
<glyph unicode="&#x3bc;" horiz-adv-x="1175" d="M145 -426v1491h170v-602q0 -168 52.5 -254t181.5 -86q119 0 199.5 69.5t111.5 182.5v690h170v-717q0 -88 6 -176t27 -172h-117l-59 158h-10q-41 -74 -130.5 -128.5t-216.5 -54.5q-102 0 -156.5 30t-92.5 77h-11l45 -225v-283h-170z" />
<glyph unicode="&#xb6;" horiz-adv-x="1050" d="M78 1077q0 80 24.5 155t71.5 132t115.5 92t152.5 35h97v-1767h-146v935q-68 0 -125 36t-99 94.5t-66.5 134t-24.5 153.5zM727 -276v1767h143v-1767h-143z" />
<glyph unicode="&#xb7;" horiz-adv-x="567" d="M161 630q0 57 33 90t88 33q57 0 92 -32.5t35 -90.5q0 -55 -34.5 -89t-92.5 -34q-55 0 -88 34t-33 89z" />
<glyph unicode="&#xb8;" horiz-adv-x="610" d="M127 -434l20 82q12 -2 23 -2h23q45 0 71.5 9t40.5 20.5t17.5 26.5t3.5 28q0 59 -183 77l103 193h121l-52 -92q90 -16 129 -54t39 -106q0 -82 -67.5 -136t-192.5 -54q-23 0 -46 2t-50 6z" />
<glyph unicode="&#xb9;" horiz-adv-x="837" d="M113 1501l327 217h88v-780h203v-129h-577v129h225v543l14 76l-57 -60l-166 -100z" />
<glyph unicode="&#xba;" horiz-adv-x="845" d="M94 1155q0 94 25.5 162.5t68.5 114t104.5 65t131.5 19.5t131 -18.5t104 -61.5t69 -112t26 -169t-26 -170t-69 -112t-104 -61t-131 -19t-131.5 19t-104.5 61t-68.5 112t-25.5 170zM252 1155q0 -129 45 -184.5t127 -55.5q41 0 72.5 12.5t54 39t34 71.5t11.5 117 q0 70 -11.5 116t-34 72.5t-54 38t-72.5 11.5q-82 0 -127 -50.5t-45 -187.5z" />
<glyph unicode="&#xbb;" horiz-adv-x="1017" d="M84 946l111 90l352 -465l-340 -485l-111 88l205 307l105 88l-105 76zM467 948l113 94l356 -471l-342 -489l-115 90l209 309l103 88l-103 76z" />
<glyph unicode="&#xbc;" horiz-adv-x="1781" d="M301 51l1036 1469l111 -76l-1036 -1469zM944 205v78l482 643h96v-596h176v-125h-176v-205h-144v205h-434zM1104 319l106 11h168v272l13 105h-4l-47 -99l-166 -223zM113 1288l327 217h90v-909h-149v672l14 75l-59 -59l-166 -100z" />
<glyph unicode="&#xbd;" horiz-adv-x="1810" d="M301 51l1036 1469l111 -76l-1036 -1469zM1106 70q49 41 123 109.5t141.5 147.5t115.5 161.5t48 152.5q0 66 -43 99.5t-104 33.5q-57 0 -111.5 -20.5t-95.5 -46.5l-47 122q55 37 129 58.5t152 21.5q133 0 201.5 -65.5t68.5 -184.5q0 -66 -22.5 -127t-59.5 -120.5t-88 -119 t-109 -118.5l-98 -67v-5l121 33h299v-135h-621v70zM113 1288l327 217h90v-909h-149v672l14 75l-59 -59l-166 -100z" />
<glyph unicode="&#xbe;" horiz-adv-x="1865" d="M383 51l1036 1469l111 -76l-1036 -1469zM1026 205v78l482 643h96v-596h176v-125h-176v-205h-144v205h-434zM1186 319l106 11h168v272l13 105h-4l-47 -99l-166 -223zM161 621l31 129q37 -16 84 -28.5t102 -12.5q102 0 156.5 41t54.5 118q0 68 -49 111t-157 43h-117v49 l207 248l71 57l-104 -14h-277v129h545v-72l-219 -260l-53 -39v-4l49 6q117 -2 185.5 -70.5t68.5 -183.5q0 -129 -95.5 -207.5t-252.5 -78.5q-76 0 -132.5 12.5t-97.5 26.5z" />
<glyph unicode="&#xbf;" horiz-adv-x="927" d="M78 -104q0 96 29.5 167.5t72.5 130t93.5 109.5t94.5 107.5t72.5 122t28.5 155.5h139q2 -10 2 -23v-24q0 -90 -26.5 -157.5t-65.5 -124t-85 -105.5t-85 -99.5t-65.5 -106.5t-26.5 -130q0 -96 56.5 -158.5t187.5 -62.5q78 0 156.5 26.5t136.5 63.5l57 -131 q-82 -49 -171 -78t-220 -29q-94 0 -166 27t-120 73t-71.5 109.5t-23.5 137.5zM408 967q0 57 32.5 90t87.5 33q57 0 91 -33t34 -90q0 -55 -33.5 -89t-91.5 -34q-55 0 -87.5 34t-32.5 89z" />
<glyph unicode="&#xc0;" horiz-adv-x="1245" d="M16 0l566 1513h80l567 -1513h-185l-153 414h-551l-147 -414h-177zM397 567h441l-166 453l-54 225h-2l-53 -229zM287 1808v45h244l252 -251h-158z" />
<glyph unicode="&#xc1;" horiz-adv-x="1245" d="M16 0l566 1513h80l567 -1513h-185l-153 414h-551l-147 -414h-177zM397 567h441l-166 453l-54 225h-2l-53 -229zM453 1602l252 251h244v-45l-349 -206h-147z" />
<glyph unicode="&#xc2;" horiz-adv-x="1245" d="M16 0l566 1513h80l567 -1513h-185l-153 414h-551l-147 -414h-177zM397 567h441l-166 453l-54 225h-2l-53 -229zM281 1591v47l285 215h127l270 -217v-45h-172l-127 105l-37 73l-41 -71l-135 -107h-170z" />
<glyph unicode="&#xc3;" horiz-adv-x="1245" d="M16 0l566 1513h80l567 -1513h-185l-153 414h-551l-147 -414h-177zM397 567h441l-166 453l-54 225h-2l-53 -229zM287 1671q68 70 124 94.5t107 24.5q39 0 78 -11.5t74 -24.5t69.5 -24.5t65.5 -11.5q55 0 107 45l53 -92q-57 -53 -108.5 -72.5t-96.5 -19.5q-39 0 -76 10 t-71.5 24.5t-68.5 25t-69 10.5t-67.5 -14.5t-69.5 -49.5z" />
<glyph unicode="&#xc4;" horiz-adv-x="1245" d="M16 0l566 1513h80l567 -1513h-185l-153 414h-551l-147 -414h-177zM397 567h441l-166 453l-54 225h-2l-53 -229zM305 1692q0 45 33 72.5t84 27.5q47 0 78.5 -27.5t31.5 -72.5q0 -43 -31.5 -71t-78.5 -28q-51 0 -84 28t-33 71zM715 1692q0 45 30.5 72.5t79.5 27.5 q51 0 83 -27.5t32 -72.5q0 -43 -32 -71t-83 -28q-49 0 -79.5 28t-30.5 71z" />
<glyph unicode="&#xc5;" horiz-adv-x="1245" d="M16 0l547 1462q-82 14 -122 59.5t-40 114.5q0 78 53.5 129.5t170.5 51.5q106 0 165.5 -46.5t59.5 -134.5q0 -70 -43 -114.5t-125 -59.5l547 -1462h-185l-153 414h-551l-147 -414h-177zM397 567h441l-166 453l-54 225h-2l-53 -229zM530 1636q0 -37 22.5 -61.5t72.5 -24.5 q47 0 71.5 23.5t24.5 62.5t-23.5 63.5t-72.5 24.5q-47 0 -71 -24.5t-24 -63.5z" />
<glyph unicode="&#xc6;" horiz-adv-x="1800" d="M-47 0l885 1491h815v-158h-635v-487h581v-158h-581v-530h645v-158h-821v422h-457l-238 -422h-194zM477 571h365v707h-8l-74 -219z" />
<glyph unicode="&#xc7;" horiz-adv-x="1214" d="M119 745q0 209 56 354.5t149.5 239t208 135.5t233.5 42q129 0 210 -13.5t138 -36.5l-43 -155q-102 49 -291 49q-88 0 -173 -33t-152.5 -104.5t-107.5 -189.5t-40 -288q0 -154 38 -268.5t105.5 -191t157.5 -115.5t197 -39q96 0 167.5 19.5t121.5 50.5l41 -140 q-55 -43 -136 -61t-178 -23l-35 -69q88 -16 128 -54t40 -106q0 -82 -68.5 -136t-191.5 -54q-23 0 -46 2t-50 6l20 82q12 -2 23 -2h21q47 0 73.5 9t41 20.5t17.5 26.5t3 28q0 59 -183 77l88 173q-123 8 -229 58t-185 143t-124 233.5t-45 330.5z" />
<glyph unicode="&#xc8;" horiz-adv-x="1140" d="M180 0v1491h813v-158h-635v-487h582v-158h-582v-530h646v-158h-824zM199 1808v45h244l252 -251h-158z" />
<glyph unicode="&#xc9;" horiz-adv-x="1140" d="M180 0v1491h813v-158h-635v-487h582v-158h-582v-530h646v-158h-824zM451 1602l252 251h244v-45l-349 -206h-147z" />
<glyph unicode="&#xca;" horiz-adv-x="1140" d="M180 0v1491h813v-158h-635v-487h582v-158h-582v-530h646v-158h-824zM231 1591v47l285 215h127l270 -217v-45h-172l-127 105l-37 73l-41 -71l-135 -107h-170z" />
<glyph unicode="&#xcb;" horiz-adv-x="1140" d="M180 0v1491h813v-158h-635v-487h582v-158h-582v-530h646v-158h-824zM254 1692q0 45 33 72.5t84 27.5q47 0 78.5 -27.5t31.5 -72.5q0 -43 -31.5 -71t-78.5 -28q-51 0 -84 28t-33 71zM664 1692q0 45 30.5 72.5t79.5 27.5q51 0 83 -27.5t32 -72.5q0 -43 -32 -71t-83 -28 q-49 0 -79.5 28t-30.5 71z" />
<glyph unicode="&#xcc;" horiz-adv-x="618" d="M221 0v1491h176v-1491h-176zM2 1808v45h244l252 -251h-158z" />
<glyph unicode="&#xcd;" horiz-adv-x="618" d="M221 0v1491h176v-1491h-176zM131 1602l252 251h244v-45l-349 -206h-147z" />
<glyph unicode="&#xce;" horiz-adv-x="618" d="M221 0v1491h176v-1491h-176zM-33 1591v47l285 215h127l270 -217v-45h-172l-127 105l-37 73l-41 -71l-135 -107h-170z" />
<glyph unicode="&#xcf;" horiz-adv-x="618" d="M221 0v1491h176v-1491h-176zM-4 1692q0 45 33 72.5t84 27.5q47 0 78.5 -27.5t31.5 -72.5q0 -43 -31.5 -71t-78.5 -28q-51 0 -84 28t-33 71zM406 1692q0 45 30.5 72.5t79.5 27.5q51 0 83 -27.5t32 -72.5q0 -43 -32 -71t-83 -28q-49 0 -79.5 28t-30.5 71z" />
<glyph unicode="&#xd0;" horiz-adv-x="1400" d="M-2 707v129h192v655q39 6 89.5 9t104.5 4t106.5 2t97.5 1q178 0 309 -55t217 -153.5t127 -237.5t41 -305q0 -152 -39 -291t-125 -246.5t-222 -172t-329 -64.5q-35 0 -89 1t-111.5 4t-106.5 5t-70 6v709h-192zM367 147q10 -2 39.5 -3t61.5 -2t62.5 -2t40.5 -1 q150 0 250.5 51.5t161.5 137.5t87 197.5t26 230.5q0 104 -23.5 209.5t-81 190.5t-155 139.5t-244.5 54.5h-61q-34 0 -65.5 -2t-58 -4.5t-40.5 -4.5v-503h313v-129h-313v-560z" />
<glyph unicode="&#xd1;" horiz-adv-x="1431" d="M180 0v1513h94l715 -993l111 -205h10l-25 205v971h168v-1514h-94l-710 998l-115 215h-8l22 -215v-975h-168zM381 1671q68 70 124 94.5t107 24.5q39 0 78 -11.5t74 -24.5t69.5 -24.5t65.5 -11.5q55 0 107 45l53 -92q-57 -53 -108.5 -72.5t-96.5 -19.5q-39 0 -76 10 t-71.5 24.5t-68.5 25t-69 10.5t-67.5 -14.5t-69.5 -49.5z" />
<glyph unicode="&#xd2;" horiz-adv-x="1456" d="M119 745q0 373 157.5 572t450.5 199q158 0 272.5 -55.5t190.5 -156t111.5 -242.5t35.5 -317q0 -373 -158.5 -571.5t-451.5 -198.5q-156 0 -270.5 55.5t-189 156t-111.5 242.5t-37 316zM307 745q0 -123 24.5 -233.5t76 -195.5t131 -135t188.5 -50q197 0 310.5 150.5 t113.5 463.5q0 121 -24.5 233t-77 197t-132 135t-190.5 50q-197 0 -308.5 -151t-111.5 -464zM379 1808v45h244l252 -251h-158z" />
<glyph unicode="&#xd3;" horiz-adv-x="1456" d="M119 745q0 373 157.5 572t450.5 199q158 0 272.5 -55.5t190.5 -156t111.5 -242.5t35.5 -317q0 -373 -158.5 -571.5t-451.5 -198.5q-156 0 -270.5 55.5t-189 156t-111.5 242.5t-37 316zM307 745q0 -123 24.5 -233.5t76 -195.5t131 -135t188.5 -50q197 0 310.5 150.5 t113.5 463.5q0 121 -24.5 233t-77 197t-132 135t-190.5 50q-197 0 -308.5 -151t-111.5 -464zM631 1602l252 251h244v-45l-349 -206h-147z" />
<glyph unicode="&#xd4;" horiz-adv-x="1456" d="M119 745q0 373 157.5 572t450.5 199q158 0 272.5 -55.5t190.5 -156t111.5 -242.5t35.5 -317q0 -373 -158.5 -571.5t-451.5 -198.5q-156 0 -270.5 55.5t-189 156t-111.5 242.5t-37 316zM307 745q0 -123 24.5 -233.5t76 -195.5t131 -135t188.5 -50q197 0 310.5 150.5 t113.5 463.5q0 121 -24.5 233t-77 197t-132 135t-190.5 50q-197 0 -308.5 -151t-111.5 -464zM381 1591v47l285 215h127l270 -217v-45h-172l-127 105l-37 73l-41 -71l-135 -107h-170z" />
<glyph unicode="&#xd5;" horiz-adv-x="1456" d="M119 745q0 373 157.5 572t450.5 199q158 0 272.5 -55.5t190.5 -156t111.5 -242.5t35.5 -317q0 -373 -158.5 -571.5t-451.5 -198.5q-156 0 -270.5 55.5t-189 156t-111.5 242.5t-37 316zM307 745q0 -123 24.5 -233.5t76 -195.5t131 -135t188.5 -50q197 0 310.5 150.5 t113.5 463.5q0 121 -24.5 233t-77 197t-132 135t-190.5 50q-197 0 -308.5 -151t-111.5 -464zM387 1671q68 70 124 94.5t107 24.5q39 0 78 -11.5t74 -24.5t69.5 -24.5t65.5 -11.5q55 0 107 45l53 -92q-57 -53 -108.5 -72.5t-96.5 -19.5q-39 0 -76 10t-71.5 24.5t-68.5 25 t-69 10.5t-67.5 -14.5t-69.5 -49.5z" />
<glyph unicode="&#xd6;" horiz-adv-x="1456" d="M119 745q0 373 157.5 572t450.5 199q158 0 272.5 -55.5t190.5 -156t111.5 -242.5t35.5 -317q0 -373 -158.5 -571.5t-451.5 -198.5q-156 0 -270.5 55.5t-189 156t-111.5 242.5t-37 316zM307 745q0 -123 24.5 -233.5t76 -195.5t131 -135t188.5 -50q197 0 310.5 150.5 t113.5 463.5q0 121 -24.5 233t-77 197t-132 135t-190.5 50q-197 0 -308.5 -151t-111.5 -464zM403 1692q0 45 33 72.5t84 27.5q47 0 78.5 -27.5t31.5 -72.5q0 -43 -31.5 -71t-78.5 -28q-51 0 -84 28t-33 71zM813 1692q0 45 30.5 72.5t79.5 27.5q51 0 83 -27.5t32 -72.5 q0 -43 -32 -71t-83 -28q-49 0 -79.5 28t-30.5 71z" />
<glyph unicode="&#xd7;" horiz-adv-x="1075" d="M158 446l272 277l-268 266l108 113l269 -271l270 271l109 -113l-269 -268l269 -272l-109 -111l-270 272l-271 -272z" />
<glyph unicode="&#xd8;" horiz-adv-x="1456" d="M119 745q0 373 157.5 572t450.5 199q121 0 214 -32t167 -93l88 129l113 -76l-109 -154q70 -102 103.5 -239.5t33.5 -305.5q0 -373 -158.5 -571.5t-451.5 -198.5q-229 0 -373 119l-84 -119l-110 76l100 144q-72 102 -106.5 240t-34.5 310zM307 745q0 -109 17.5 -205 t56.5 -175l618 874q-49 55 -116.5 88t-155.5 33q-197 0 -308.5 -151t-111.5 -464zM461 244q49 -53 114.5 -83t151.5 -30q197 0 310.5 150.5t113.5 463.5q0 102 -18.5 198.5t-55.5 174.5z" />
<glyph unicode="&#xd9;" horiz-adv-x="1388" d="M180 463v1028h178v-946q0 -113 22.5 -191t67 -126t112 -68.5t155.5 -20.5q174 0 247.5 94.5t73.5 311.5v946h172v-995q0 -133 -35.5 -231.5t-100 -161t-157 -92t-202.5 -29.5q-264 0 -398.5 118.5t-134.5 362.5zM373 1808v45h244l252 -251h-158z" />
<glyph unicode="&#xda;" horiz-adv-x="1388" d="M180 463v1028h178v-946q0 -113 22.5 -191t67 -126t112 -68.5t155.5 -20.5q174 0 247.5 94.5t73.5 311.5v946h172v-995q0 -133 -35.5 -231.5t-100 -161t-157 -92t-202.5 -29.5q-264 0 -398.5 118.5t-134.5 362.5zM578 1602l252 251h244v-45l-349 -206h-147z" />
<glyph unicode="&#xdb;" horiz-adv-x="1388" d="M180 463v1028h178v-946q0 -113 22.5 -191t67 -126t112 -68.5t155.5 -20.5q174 0 247.5 94.5t73.5 311.5v946h172v-995q0 -133 -35.5 -231.5t-100 -161t-157 -92t-202.5 -29.5q-264 0 -398.5 118.5t-134.5 362.5zM356 1591v47l285 215h127l270 -217v-45h-172l-127 105 l-37 73l-41 -71l-135 -107h-170z" />
<glyph unicode="&#xdc;" horiz-adv-x="1388" d="M180 463v1028h178v-946q0 -113 22.5 -191t67 -126t112 -68.5t155.5 -20.5q174 0 247.5 94.5t73.5 311.5v946h172v-995q0 -133 -35.5 -231.5t-100 -161t-157 -92t-202.5 -29.5q-264 0 -398.5 118.5t-134.5 362.5zM379 1692q0 45 33 72.5t84 27.5q47 0 78.5 -27.5 t31.5 -72.5q0 -43 -31.5 -71t-78.5 -28q-51 0 -84 28t-33 71zM789 1692q0 45 30.5 72.5t79.5 27.5q51 0 83 -27.5t32 -72.5q0 -43 -32 -71t-83 -28q-49 0 -79.5 28t-30.5 71z" />
<glyph unicode="&#xdd;" horiz-adv-x="1187" d="M16 1491h207l350 -651l35 -131h2l39 135l334 647h191l-488 -897v-594h-176v592zM504 1602l252 251h244v-45l-349 -206h-147z" />
<glyph unicode="&#xde;" horiz-adv-x="1189" d="M180 0v1491h178v-160q88 6 183 6q98 0 199.5 -19.5t184.5 -70.5t135 -140t52 -226t-49 -231.5t-130 -153t-185.5 -85t-215.5 -26.5h-34q-25 0 -51.5 1t-52 3t-36.5 4v-393h-178zM358 553q10 -4 34 -5t49.5 -3t48.5 -2h34q72 0 143.5 14t129 51t92.5 103.5t35 169.5 q0 86 -33 144t-87 94t-122 50.5t-137 14.5q-55 0 -106.5 -2t-80.5 -11v-618z" />
<glyph unicode="&#xdf;" horiz-adv-x="1259" d="M47 915v150h166v49q0 207 101.5 298t279.5 91q88 0 160.5 -22.5t124 -63.5t81 -97t29.5 -128q0 -80 -41 -129t-89 -87t-88 -75t-40 -90q0 -47 32 -74.5t81 -48t104.5 -43t104.5 -59.5t80.5 -95.5t31.5 -152.5q0 -68 -25.5 -132.5t-73.5 -115.5t-121 -83t-163 -32 q-49 0 -87 3.5t-68.5 10.5t-58 17t-54.5 29l49 137q25 -12 44.5 -22.5t42 -17.5t50 -10t66.5 -3q45 0 87 16.5t73.5 44t50 66.5t18.5 86q0 63 -32.5 101t-80.5 63.5t-103.5 46t-104.5 51.5t-81 79t-32 128q0 84 40 133t88 89t88 76t40 91q0 37 -19.5 67.5t-52 52t-70.5 33 t-75 11.5q-59 0 -100 -14.5t-66.5 -48.5t-38 -91t-12.5 -139v-1061h-170v915h-166z" />
<glyph unicode="&#xe0;" horiz-adv-x="1054" d="M84 285q0 94 38 156.5t107.5 100.5t166 53t212.5 15h60q29 0 59 -4q6 66 6 117q0 117 -47 164t-170 47q-37 0 -79 -6t-85 -15.5t-83 -24t-68 -30.5l-54 129q80 47 187.5 70.5t226.5 23.5q111 0 177.5 -29.5t101 -77.5t47 -105.5t12.5 -114.5q0 -127 -6 -249t-6 -231 q0 -78 6 -148.5t22 -129.5h-124l-46 149h-10q-20 -31 -49 -59.5t-68.5 -51t-93 -36.5t-121.5 -14q-70 0 -128 20.5t-101 60t-66.5 95t-23.5 125.5zM260 303q0 -76 53.5 -124t135.5 -48q61 0 107 16.5t81 41t56.5 54t33.5 58.5v176q-31 2 -61.5 3t-61.5 1q-66 0 -128 -7 t-110.5 -27.5t-77 -55.5t-28.5 -88zM307 1489v45h203l139 -317h-96z" />
<glyph unicode="&#xe1;" horiz-adv-x="1054" d="M84 285q0 94 38 156.5t107.5 100.5t166 53t212.5 15h60q29 0 59 -4q6 66 6 117q0 117 -47 164t-170 47q-37 0 -79 -6t-85 -15.5t-83 -24t-68 -30.5l-54 129q80 47 187.5 70.5t226.5 23.5q111 0 177.5 -29.5t101 -77.5t47 -105.5t12.5 -114.5q0 -127 -6 -249t-6 -231 q0 -78 6 -148.5t22 -129.5h-124l-46 149h-10q-20 -31 -49 -59.5t-68.5 -51t-93 -36.5t-121.5 -14q-70 0 -128 20.5t-101 60t-66.5 95t-23.5 125.5zM260 303q0 -76 53.5 -124t135.5 -48q61 0 107 16.5t81 41t56.5 54t33.5 58.5v176q-31 2 -61.5 3t-61.5 1q-66 0 -128 -7 t-110.5 -27.5t-77 -55.5t-28.5 -88zM381 1217l127 317h188v-45l-215 -272h-100z" />
<glyph unicode="&#xe2;" horiz-adv-x="1054" d="M84 285q0 94 38 156.5t107.5 100.5t166 53t212.5 15h60q29 0 59 -4q6 66 6 117q0 117 -47 164t-170 47q-37 0 -79 -6t-85 -15.5t-83 -24t-68 -30.5l-54 129q80 47 187.5 70.5t226.5 23.5q111 0 177.5 -29.5t101 -77.5t47 -105.5t12.5 -114.5q0 -127 -6 -249t-6 -231 q0 -78 6 -148.5t22 -129.5h-124l-46 149h-10q-20 -31 -49 -59.5t-68.5 -51t-93 -36.5t-121.5 -14q-70 0 -128 20.5t-101 60t-66.5 95t-23.5 125.5zM260 303q0 -76 53.5 -124t135.5 -48q61 0 107 16.5t81 41t56.5 54t33.5 58.5v176q-31 2 -61.5 3t-61.5 1q-66 0 -128 -7 t-110.5 -27.5t-77 -55.5t-28.5 -88zM246 1171l262 388h70l235 -388h-153l-82 142l-45 123l-47 -123l-97 -142h-143z" />
<glyph unicode="&#xe3;" horiz-adv-x="1054" d="M84 285q0 94 38 156.5t107.5 100.5t166 53t212.5 15h60q29 0 59 -4q6 66 6 117q0 117 -47 164t-170 47q-37 0 -79 -6t-85 -15.5t-83 -24t-68 -30.5l-54 129q80 47 187.5 70.5t226.5 23.5q111 0 177.5 -29.5t101 -77.5t47 -105.5t12.5 -114.5q0 -127 -6 -249t-6 -231 q0 -78 6 -148.5t22 -129.5h-124l-46 149h-10q-20 -31 -49 -59.5t-68.5 -51t-93 -36.5t-121.5 -14q-70 0 -128 20.5t-101 60t-66.5 95t-23.5 125.5zM260 303q0 -76 53.5 -124t135.5 -48q61 0 107 16.5t81 41t56.5 54t33.5 58.5v176q-31 2 -61.5 3t-61.5 1q-66 0 -128 -7 t-110.5 -27.5t-77 -55.5t-28.5 -88zM231 1397q63 72 113.5 98.5t93.5 26.5q37 0 67.5 -14.5t59 -31t55.5 -28.5t57 -12q47 0 99 51l51 -92q-55 -61 -101.5 -84t-84.5 -23q-35 0 -65 13.5t-58.5 29t-57 29.5t-57.5 14t-57.5 -15.5t-65.5 -49.5z" />
<glyph unicode="&#xe4;" horiz-adv-x="1054" d="M84 285q0 94 38 156.5t107.5 100.5t166 53t212.5 15h60q29 0 59 -4q6 66 6 117q0 117 -47 164t-170 47q-37 0 -79 -6t-85 -15.5t-83 -24t-68 -30.5l-54 129q80 47 187.5 70.5t226.5 23.5q111 0 177.5 -29.5t101 -77.5t47 -105.5t12.5 -114.5q0 -127 -6 -249t-6 -231 q0 -78 6 -148.5t22 -129.5h-124l-46 149h-10q-20 -31 -49 -59.5t-68.5 -51t-93 -36.5t-121.5 -14q-70 0 -128 20.5t-101 60t-66.5 95t-23.5 125.5zM260 303q0 -76 53.5 -124t135.5 -48q61 0 107 16.5t81 41t56.5 54t33.5 58.5v176q-31 2 -61.5 3t-61.5 1q-66 0 -128 -7 t-110.5 -27.5t-77 -55.5t-28.5 -88zM223 1391q0 49 28.5 78.5t75.5 29.5t76 -29.5t29 -78.5q0 -45 -28.5 -75t-76.5 -30q-47 0 -75.5 30t-28.5 75zM633 1391q0 49 28.5 78.5t75.5 29.5q49 0 78 -29.5t29 -78.5q0 -45 -29 -75t-78 -30q-47 0 -75.5 30t-28.5 75z" />
<glyph unicode="&#xe5;" horiz-adv-x="1054" d="M84 285q0 94 38 156.5t107.5 100.5t166 53t212.5 15h60q29 0 59 -4q6 66 6 117q0 117 -47 164t-170 47q-37 0 -79 -6t-85 -15.5t-83 -24t-68 -30.5l-54 129q80 47 187.5 70.5t226.5 23.5q111 0 177.5 -29.5t101 -77.5t47 -105.5t12.5 -114.5q0 -127 -6 -249t-6 -231 q0 -78 6 -148.5t22 -129.5h-124l-46 149h-10q-20 -31 -49 -59.5t-68.5 -51t-93 -36.5t-121.5 -14q-70 0 -128 20.5t-101 60t-66.5 95t-23.5 125.5zM260 303q0 -76 53.5 -124t135.5 -48q61 0 107 16.5t81 41t56.5 54t33.5 58.5v176q-31 2 -61.5 3t-61.5 1q-66 0 -128 -7 t-110.5 -27.5t-77 -55.5t-28.5 -88zM324 1370q0 88 57.5 140.5t149.5 52.5q90 0 149.5 -46.5t59.5 -146.5q0 -84 -59.5 -138t-149.5 -54q-88 0 -147.5 50t-59.5 142zM441 1370q0 -43 27.5 -66.5t62.5 -23.5q41 0 67.5 21.5t26.5 68.5t-28.5 68.5t-65.5 21.5 q-35 0 -62.5 -20.5t-27.5 -69.5z" />
<glyph unicode="&#xe6;" horiz-adv-x="1693" d="M84 285q0 94 38 156.5t107.5 100.5t166 53t212.5 15h60q29 0 59 -4q2 33 4 61.5t2 55.5q0 117 -47 165t-170 46q-37 0 -79 -6t-85 -15.5t-83 -24t-68 -30.5l-54 129q80 47 187.5 70.5t226.5 23.5q223 0 289 -137q55 76 149.5 111t186.5 35q74 0 145.5 -15.5t130 -61.5 t94 -129t35.5 -216q0 -35 -3 -73t-7 -79h-688q0 -186 78 -289.5t264 -103.5q76 0 146.5 26.5t109.5 59.5l63 -123q-63 -51 -160.5 -81t-205.5 -30q-129 0 -234.5 53.5t-156.5 149.5h-15q-29 -37 -64.5 -72.5t-81.5 -62.5t-104.5 -43t-128.5 -16t-128 20.5t-101 60t-66.5 95 t-23.5 125.5zM260 303q0 -76 53.5 -124t135.5 -48q61 0 107 16.5t81 41t56.5 54t33.5 58.5v176q-31 2 -61.5 3t-61.5 1q-66 0 -128 -7t-110.5 -27.5t-77 -55.5t-28.5 -88zM897 649h528v27q0 143 -65.5 204.5t-171.5 61.5q-125 0 -202 -66.5t-89 -226.5z" />
<glyph unicode="&#xe7;" horiz-adv-x="960" d="M104 532q0 270 119 414t344 144q102 0 173 -15.5t128 -46.5l-49 -145q-49 27 -108.5 43t-126.5 16q-303 0 -303 -410q0 -82 16 -154.5t53 -128.5t98.5 -90t149.5 -34q78 0 138.5 22.5t99.5 53.5l55 -131q-104 -74 -258 -90l-39 -72q90 -16 129 -54t39 -106 q0 -82 -67.5 -136t-192.5 -54q-23 0 -46.5 2t-47.5 6l18 82q12 -2 24 -2h21q47 0 73.5 9t40 20.5t16.5 26.5t3 28q0 59 -182 77l90 170q-111 6 -187.5 48.5t-125.5 115t-72 171.5t-23 220z" />
<glyph unicode="&#xe8;" horiz-adv-x="1081" d="M104 532q0 272 122 415t347 143q72 0 145 -15.5t130 -60.5t93 -127t36 -215q0 -72 -12 -156h-684q0 -94 19 -167t60 -123t105.5 -76.5t159.5 -26.5q72 0 144.5 25.5t107.5 60.5l65 -123q-66 -51 -162 -81t-205 -30q-121 0 -211 39t-147 113t-85 176t-28 229zM283 649h528 q0 162 -61.5 227.5t-174.5 65.5q-127 0 -201.5 -66.5t-90.5 -226.5zM360 1489v45h203l139 -317h-96z" />
<glyph unicode="&#xe9;" horiz-adv-x="1081" d="M104 532q0 272 122 415t347 143q72 0 145 -15.5t130 -60.5t93 -127t36 -215q0 -72 -12 -156h-684q0 -94 19 -167t60 -123t105.5 -76.5t159.5 -26.5q72 0 144.5 25.5t107.5 60.5l65 -123q-66 -51 -162 -81t-205 -30q-121 0 -211 39t-147 113t-85 176t-28 229zM283 649h528 q0 162 -61.5 227.5t-174.5 65.5q-127 0 -201.5 -66.5t-90.5 -226.5zM494 1217l127 317h188v-45l-215 -272h-100z" />
<glyph unicode="&#xea;" horiz-adv-x="1081" d="M104 532q0 272 122 415t347 143q72 0 145 -15.5t130 -60.5t93 -127t36 -215q0 -72 -12 -156h-684q0 -94 19 -167t60 -123t105.5 -76.5t159.5 -26.5q72 0 144.5 25.5t107.5 60.5l65 -123q-66 -51 -162 -81t-205 -30q-121 0 -211 39t-147 113t-85 176t-28 229zM283 649h528 q0 162 -61.5 227.5t-174.5 65.5q-127 0 -201.5 -66.5t-90.5 -226.5zM258 1171l262 388h70l235 -388h-153l-82 142l-45 123l-47 -123l-97 -142h-143z" />
<glyph unicode="&#xeb;" horiz-adv-x="1081" d="M104 532q0 272 122 415t347 143q72 0 145 -15.5t130 -60.5t93 -127t36 -215q0 -72 -12 -156h-684q0 -94 19 -167t60 -123t105.5 -76.5t159.5 -26.5q72 0 144.5 25.5t107.5 60.5l65 -123q-66 -51 -162 -81t-205 -30q-121 0 -211 39t-147 113t-85 176t-28 229zM283 649h528 q0 162 -61.5 227.5t-174.5 65.5q-127 0 -201.5 -66.5t-90.5 -226.5zM252 1391q0 49 28.5 78.5t75.5 29.5t76 -29.5t29 -78.5q0 -45 -28.5 -75t-76.5 -30q-47 0 -75.5 30t-28.5 75zM662 1391q0 49 28.5 78.5t75.5 29.5q49 0 78 -29.5t29 -78.5q0 -45 -29 -75t-78 -30 q-47 0 -75.5 30t-28.5 75z" />
<glyph unicode="&#xec;" horiz-adv-x="569" d="M201 0v1065h170v-1065h-170zM25 1489v45h203l139 -317h-96z" />
<glyph unicode="&#xed;" horiz-adv-x="569" d="M201 0v1065h170v-1065h-170zM201 1217l127 317h188v-45l-215 -272h-100z" />
<glyph unicode="&#xee;" horiz-adv-x="569" d="M201 0v1065h170v-1065h-170zM-4 1171l262 388h70l235 -388h-153l-82 142l-45 123l-47 -123l-97 -142h-143z" />
<glyph unicode="&#xef;" horiz-adv-x="569" d="M201 0v1065h170v-1065h-170zM-27 1391q0 49 28.5 78.5t75.5 29.5t76 -29.5t29 -78.5q0 -45 -28.5 -75t-76.5 -30q-47 0 -75.5 30t-28.5 75zM383 1391q0 49 28.5 78.5t75.5 29.5q49 0 78 -29.5t29 -78.5q0 -45 -29 -75t-78 -30q-47 0 -75.5 30t-28.5 75z" />
<glyph unicode="&#xf0;" horiz-adv-x="1193" d="M119 535q0 111 30.5 211t92 175.5t149.5 119.5t205 44q96 0 169 -29.5t101 -66.5q-23 78 -69.5 148.5t-108.5 126.5l-162 -88l-57 94l121 65q-80 49 -162 68l74 117q39 -16 98 -42t125 -71l143 80l56 -96l-107 -58q51 -49 98.5 -113.5t83 -151.5t57 -195.5t21.5 -243.5 q0 -172 -38 -296t-103.5 -204t-151.5 -117t-184 -37q-129 0 -221 44t-149.5 121t-84 178.5t-26.5 216.5zM297 532q0 -209 87 -309t224 -100q66 0 120 27.5t93 88t62.5 153.5t23.5 226q0 20 -1 48l-2 53q-1 27 -4 51.5t-7 40.5q-18 31 -49 54.5t-68 39t-80 24.5t-82 9 q-84 0 -144 -33t-99 -87t-56.5 -127t-17.5 -159z" />
<glyph unicode="&#xf1;" horiz-adv-x="1163" d="M164 0v1065h119l32 -129h9q51 68 137 111t207 43q86 0 152.5 -19.5t109.5 -71t65.5 -137.5t22.5 -219v-643h-170v606q0 168 -48 252t-175 84q-113 0 -186.5 -61.5t-104.5 -151.5v-729h-170zM285 1397q63 72 113.5 98.5t93.5 26.5q37 0 67.5 -14.5t59 -31t55.5 -28.5 t57 -12q47 0 99 51l51 -92q-55 -61 -101.5 -84t-84.5 -23q-35 0 -65 13.5t-58.5 29t-57 29.5t-57.5 14t-57.5 -15.5t-65.5 -49.5z" />
<glyph unicode="&#xf2;" horiz-adv-x="1140" d="M104 532q0 270 120 414t347 144q119 0 207 -39t145.5 -113t85 -177.5t27.5 -228.5q0 -270 -119.5 -413.5t-345.5 -143.5q-121 0 -209 39t-145 113t-85 177t-28 228zM281 532q0 -82 16 -155.5t50 -128.5t89.5 -90t134.5 -35h3q286 0 286 409q0 84 -15.5 158t-50 129 t-90 89t-133.5 34h-2q-288 0 -288 -410zM334 1489v45h203l139 -317h-96z" />
<glyph unicode="&#xf3;" horiz-adv-x="1140" d="M104 532q0 270 120 414t347 144q119 0 207 -39t145.5 -113t85 -177.5t27.5 -228.5q0 -270 -119.5 -413.5t-345.5 -143.5q-121 0 -209 39t-145 113t-85 177t-28 228zM281 532q0 -82 16 -155.5t50 -128.5t89.5 -90t134.5 -35h3q286 0 286 409q0 84 -15.5 158t-50 129 t-90 89t-133.5 34h-2q-288 0 -288 -410zM483 1217l127 317h188v-45l-215 -272h-100z" />
<glyph unicode="&#xf4;" horiz-adv-x="1140" d="M104 532q0 270 120 414t347 144q119 0 207 -39t145.5 -113t85 -177.5t27.5 -228.5q0 -270 -119.5 -413.5t-345.5 -143.5q-121 0 -209 39t-145 113t-85 177t-28 228zM281 532q0 -82 16 -155.5t50 -128.5t89.5 -90t134.5 -35h3q286 0 286 409q0 84 -15.5 158t-50 129 t-90 89t-133.5 34h-2q-288 0 -288 -410zM287 1171l262 388h70l235 -388h-153l-82 142l-45 123l-47 -123l-97 -142h-143z" />
<glyph unicode="&#xf5;" horiz-adv-x="1140" d="M104 532q0 270 120 414t347 144q119 0 207 -39t145.5 -113t85 -177.5t27.5 -228.5q0 -270 -119.5 -413.5t-345.5 -143.5q-121 0 -209 39t-145 113t-85 177t-28 228zM281 532q0 -82 16 -155.5t50 -128.5t89.5 -90t134.5 -35h3q286 0 286 409q0 84 -15.5 158t-50 129 t-90 89t-133.5 34h-2q-288 0 -288 -410zM274 1397q63 72 113.5 98.5t93.5 26.5q37 0 67.5 -14.5t59 -31t55.5 -28.5t57 -12q47 0 99 51l51 -92q-55 -61 -101.5 -84t-84.5 -23q-35 0 -65 13.5t-58.5 29t-57 29.5t-57.5 14t-57.5 -15.5t-65.5 -49.5z" />
<glyph unicode="&#xf6;" horiz-adv-x="1140" d="M104 532q0 270 120 414t347 144q119 0 207 -39t145.5 -113t85 -177.5t27.5 -228.5q0 -270 -119.5 -413.5t-345.5 -143.5q-121 0 -209 39t-145 113t-85 177t-28 228zM281 532q0 -82 16 -155.5t50 -128.5t89.5 -90t134.5 -35h3q286 0 286 409q0 84 -15.5 158t-50 129 t-90 89t-133.5 34h-2q-288 0 -288 -410zM264 1391q0 49 28.5 78.5t75.5 29.5t76 -29.5t29 -78.5q0 -45 -28.5 -75t-76.5 -30q-47 0 -75.5 30t-28.5 75zM674 1391q0 49 28.5 78.5t75.5 29.5q49 0 78 -29.5t29 -78.5q0 -45 -29 -75t-78 -30q-47 0 -75.5 30t-28.5 75z" />
<glyph unicode="&#xf7;" horiz-adv-x="1075" d="M86 643v154h903v-154h-903zM414 319q0 57 32.5 90t88.5 33q57 0 90.5 -32.5t33.5 -90.5q0 -55 -33.5 -88.5t-90.5 -33.5q-55 0 -88 33.5t-33 88.5zM414 1118q0 57 32.5 90t88.5 33q57 0 90.5 -32.5t33.5 -90.5q0 -55 -33.5 -89t-90.5 -34q-55 0 -88 34t-33 89z" />
<glyph unicode="&#xf8;" horiz-adv-x="1140" d="M104 532q0 270 120 414t347 144q156 0 260 -68l56 76l106 -80l-63 -90q57 -72 81.5 -172.5t24.5 -223.5q0 -270 -119.5 -413.5t-345.5 -143.5q-166 0 -272 74l-57 -80l-113 82l72 99q-49 72 -73 168.5t-24 213.5zM281 532q0 -63 10 -122.5t28 -108.5l420 584 q-33 25 -73.5 41t-94.5 16q-290 2 -290 -410zM391 188q35 -29 79 -47t101 -18q289 -2 289 409q0 68 -10 131.5t-35 114.5z" />
<glyph unicode="&#xf9;" horiz-adv-x="1146" d="M147 422v643h170v-606q0 -84 9.5 -146.5t33 -104.5t64.5 -63.5t102 -21.5q57 0 102.5 18.5t80 50t61.5 73.5t43 89v711h170v-762q0 -78 6 -160t19 -143h-117l-43 168h-10q-49 -82 -132 -137.5t-212 -55.5q-84 0 -149.5 19.5t-108.5 71t-66 137.5t-23 219zM315 1489v45 h203l139 -317h-96z" />
<glyph unicode="&#xfa;" horiz-adv-x="1146" d="M147 422v643h170v-606q0 -84 9.5 -146.5t33 -104.5t64.5 -63.5t102 -21.5q57 0 102.5 18.5t80 50t61.5 73.5t43 89v711h170v-762q0 -78 6 -160t19 -143h-117l-43 168h-10q-49 -82 -132 -137.5t-212 -55.5q-84 0 -149.5 19.5t-108.5 71t-66 137.5t-23 219zM481 1217 l127 317h188v-45l-215 -272h-100z" />
<glyph unicode="&#xfb;" horiz-adv-x="1146" d="M147 422v643h170v-606q0 -84 9.5 -146.5t33 -104.5t64.5 -63.5t102 -21.5q57 0 102.5 18.5t80 50t61.5 73.5t43 89v711h170v-762q0 -78 6 -160t19 -143h-117l-43 168h-10q-49 -82 -132 -137.5t-212 -55.5q-84 0 -149.5 19.5t-108.5 71t-66 137.5t-23 219zM291 1171 l262 388h70l235 -388h-153l-82 142l-45 123l-47 -123l-97 -142h-143z" />
<glyph unicode="&#xfc;" horiz-adv-x="1146" d="M147 422v643h170v-606q0 -84 9.5 -146.5t33 -104.5t64.5 -63.5t102 -21.5q57 0 102.5 18.5t80 50t61.5 73.5t43 89v711h170v-762q0 -78 6 -160t19 -143h-117l-43 168h-10q-49 -82 -132 -137.5t-212 -55.5q-84 0 -149.5 19.5t-108.5 71t-66 137.5t-23 219zM266 1391 q0 49 28.5 78.5t75.5 29.5t76 -29.5t29 -78.5q0 -45 -28.5 -75t-76.5 -30q-47 0 -75.5 30t-28.5 75zM676 1391q0 49 28.5 78.5t75.5 29.5q49 0 78 -29.5t29 -78.5q0 -45 -29 -75t-78 -30q-47 0 -75.5 30t-28.5 75z" />
<glyph unicode="&#xfd;" horiz-adv-x="991" d="M25 1065h196l256 -690l60 -205h10l47 207l207 688h172l-316 -956q-35 -104 -70.5 -203t-77.5 -174.5t-95.5 -121.5t-124.5 -46q-76 0 -125 20l31 148q27 -10 53 -11q59 0 114.5 62.5t92.5 216.5zM463 1217l127 317h188v-45l-215 -272h-100z" />
<glyph unicode="&#xfe;" horiz-adv-x="1150" d="M164 -426v1917h170v-533h8q43 61 113.5 96.5t171.5 35.5q213 0 317.5 -125t104.5 -412q0 -133 -36 -240.5t-99.5 -182.5t-153.5 -115t-203 -40q-78 0 -124 9.5t-99 31.5v-442h-170zM334 182q39 -29 88 -44t129 -15q147 0 233 109.5t86 322.5q0 88 -14 159.5t-47 122 t-85 78t-130 27.5q-209 2 -260 -229v-531z" />
<glyph unicode="&#xff;" horiz-adv-x="991" d="M25 1065h196l256 -690l60 -205h10l47 207l207 688h172l-316 -956q-35 -104 -70.5 -203t-77.5 -174.5t-95.5 -121.5t-124.5 -46q-76 0 -125 20l31 148q27 -10 53 -11q59 0 114.5 62.5t92.5 216.5zM188 1391q0 49 28.5 78.5t75.5 29.5t76 -29.5t29 -78.5q0 -45 -28.5 -75 t-76.5 -30q-47 0 -75.5 30t-28.5 75zM598 1391q0 49 28.5 78.5t75.5 29.5q49 0 78 -29.5t29 -78.5q0 -45 -29 -75t-78 -30q-47 0 -75.5 30t-28.5 75z" />
<glyph unicode="&#x131;" horiz-adv-x="569" d="M201 0v1065h170v-1065h-170z" />
<glyph unicode="&#x152;" horiz-adv-x="1984" d="M119 745q0 373 157.5 572t450.5 199q100 0 164.5 -7.5t132.5 -17.5h811v-158h-633v-487h580v-158h-580v-530h645v-158h-823q-53 -10 -128 -17.5t-169 -7.5q-156 0 -270.5 55.5t-189 156t-111.5 242.5t-37 316zM307 745q0 -123 24.5 -233.5t78 -195.5t136.5 -135t197 -50 q61 0 127 5t154 32v1149q-59 23 -138 33t-159 10q-197 0 -308.5 -151t-111.5 -464z" />
<glyph unicode="&#x153;" horiz-adv-x="1826" d="M104 532q0 270 120 414t347 144q133 0 226.5 -55.5t148.5 -139.5q55 88 149.5 141.5t223.5 53.5q72 0 144.5 -15.5t130 -60.5t93 -127t35.5 -215q0 -37 -2 -76t-8 -80h-688q0 -94 19.5 -168t59.5 -125t106.5 -76.5t160.5 -25.5q74 0 145.5 26.5t106.5 61.5l66 -123 q-66 -51 -162 -81t-205 -30q-133 0 -228.5 53.5t-150.5 143.5q-57 -96 -150.5 -146.5t-220.5 -50.5q-121 0 -209 39t-145 113t-85 177t-28 228zM281 532q0 -82 16 -155.5t50 -130t89.5 -90t134.5 -33.5q287 -2 287 409q0 84 -14.5 158t-49 129t-90 89t-133.5 34 q-290 2 -290 -410zM1028 649h528v21q0 145 -63 209.5t-172 64.5q-125 0 -201 -67.5t-92 -227.5z" />
<glyph unicode="&#x178;" horiz-adv-x="1187" d="M16 1491h207l350 -651l35 -131h2l39 135l334 647h191l-488 -897v-594h-176v592zM283 1692q0 45 33 72.5t84 27.5q47 0 78.5 -27.5t31.5 -72.5q0 -43 -31.5 -71t-78.5 -28q-51 0 -84 28t-33 71zM693 1692q0 45 30.5 72.5t79.5 27.5q51 0 83 -27.5t32 -72.5q0 -43 -32 -71 t-83 -28q-49 0 -79.5 28t-30.5 71z" />
<glyph unicode="&#x2c6;" horiz-adv-x="821" d="M127 1171l262 388h70l235 -388h-153l-82 142l-45 123l-47 -123l-97 -142h-143z" />
<glyph unicode="&#x2da;" horiz-adv-x="669" d="M127 1370q0 88 57.5 140.5t149.5 52.5q90 0 149.5 -46.5t59.5 -146.5q0 -84 -59.5 -138t-149.5 -54q-88 0 -147.5 50t-59.5 142zM244 1370q0 -43 27.5 -66.5t62.5 -23.5q41 0 67.5 21.5t26.5 68.5t-28.5 68.5t-65.5 21.5q-35 0 -62.5 -20.5t-27.5 -69.5z" />
<glyph unicode="&#x2dc;" horiz-adv-x="847" d="M127 1397q63 72 113.5 98.5t93.5 26.5q37 0 67.5 -14.5t59 -31t55.5 -28.5t57 -12q47 0 99 51l51 -92q-55 -61 -101.5 -84t-84.5 -23q-35 0 -65 13.5t-58.5 29t-57 29.5t-57.5 14t-57.5 -15.5t-65.5 -49.5z" />
<glyph unicode="&#x2000;" horiz-adv-x="925" />
<glyph unicode="&#x2001;" horiz-adv-x="1853" />
<glyph unicode="&#x2002;" horiz-adv-x="925" />
<glyph unicode="&#x2003;" horiz-adv-x="1853" />
<glyph unicode="&#x2004;" horiz-adv-x="616" />
<glyph unicode="&#x2005;" horiz-adv-x="462" />
<glyph unicode="&#x2006;" horiz-adv-x="307" />
<glyph unicode="&#x2007;" horiz-adv-x="307" />
<glyph unicode="&#x2008;" horiz-adv-x="231" />
<glyph unicode="&#x2009;" horiz-adv-x="370" />
<glyph unicode="&#x200a;" horiz-adv-x="102" />
<glyph unicode="&#x2010;" horiz-adv-x="765" d="M125 535v157h516v-157h-516z" />
<glyph unicode="&#x2011;" horiz-adv-x="765" d="M125 535v157h516v-157h-516z" />
<glyph unicode="&#x2012;" horiz-adv-x="765" d="M125 535v157h516v-157h-516z" />
<glyph unicode="&#x2013;" horiz-adv-x="1404" d="M252 535v157h903v-157h-903z" />
<glyph unicode="&#x2014;" horiz-adv-x="1744" d="M252 535v157h1243v-157h-1243z" />
<glyph unicode="&#x2018;" horiz-adv-x="411" d="M86 1366q0 70 19.5 120t48 85t60.5 56.5t54 29.5l54 -74q-47 -25 -76 -63.5t-29 -98.5q8 2 25 2q41 0 64.5 -29.5t23.5 -72.5q0 -49 -32 -78t-81 -29q-57 0 -94 38t-37 114z" />
<glyph unicode="&#x2019;" horiz-adv-x="411" d="M86 1403q0 49 30.5 76.5t80.5 27.5q59 0 96 -36.5t37 -110.5q0 -72 -20.5 -123t-49.5 -86t-60.5 -56.5t-54.5 -29.5l-53 72q49 27 77 64.5t28 98.5q-8 -2 -25 -2q-41 0 -63.5 29t-22.5 76z" />
<glyph unicode="&#x201a;" horiz-adv-x="411" d="M86 107q0 49 30.5 76.5t80.5 27.5q59 0 96 -36.5t37 -110.5q0 -72 -20.5 -123t-49.5 -86t-60.5 -56.5t-54.5 -29.5l-53 72q49 27 77 64.5t28 98.5q-8 -2 -25 -2q-41 0 -63.5 29t-22.5 76z" />
<glyph unicode="&#x201c;" horiz-adv-x="722" d="M397 1366q0 70 19.5 120t48 85t60.5 56.5t54 29.5l54 -74q-47 -25 -76 -63.5t-29 -98.5q8 2 25 2q41 0 64.5 -29.5t23.5 -72.5q0 -49 -32 -78t-81 -29q-57 0 -94 38t-37 114zM86 1366q0 70 19.5 120t48 85t60.5 56.5t54 29.5l54 -74q-47 -25 -76 -63.5t-29 -98.5 q8 2 25 2q41 0 64.5 -29.5t23.5 -72.5q0 -49 -32 -78t-81 -29q-57 0 -94 38t-37 114z" />
<glyph unicode="&#x201d;" horiz-adv-x="722" d="M397 1403q0 49 30.5 76.5t80.5 27.5q59 0 96 -36.5t37 -110.5q0 -72 -20.5 -123t-49.5 -86t-60.5 -56.5t-54.5 -29.5l-53 72q49 27 77 64.5t28 98.5q-8 -2 -25 -2q-41 0 -63.5 29t-22.5 76zM86 1403q0 49 30.5 76.5t80.5 27.5q59 0 96 -36.5t37 -110.5q0 -72 -20.5 -123 t-49.5 -86t-60.5 -56.5t-54.5 -29.5l-53 72q49 27 77 64.5t28 98.5q-8 -2 -25 -2q-41 0 -63.5 29t-22.5 76z" />
<glyph unicode="&#x201e;" horiz-adv-x="722" d="M397 107q0 49 30.5 76.5t80.5 27.5q59 0 96 -36.5t37 -110.5q0 -72 -20.5 -123t-49.5 -86t-60.5 -56.5t-54.5 -29.5l-53 72q49 27 77 64.5t28 98.5q-8 -2 -25 -2q-41 0 -63.5 29t-22.5 76zM86 107q0 49 30.5 76.5t80.5 27.5q59 0 96 -36.5t37 -110.5q0 -72 -20.5 -123 t-49.5 -86t-60.5 -56.5t-54.5 -29.5l-53 72q49 27 77 64.5t28 98.5q-8 -2 -25 -2q-41 0 -63.5 29t-22.5 76z" />
<glyph unicode="&#x2022;" horiz-adv-x="962" d="M184 662q0 68 23.5 122t63.5 92.5t94.5 60t115.5 21.5t115.5 -20t94.5 -58t63.5 -92.5t23.5 -125.5q0 -70 -23.5 -124.5t-63.5 -92t-94 -58t-116 -20.5q-61 0 -115.5 20.5t-94.5 58t-63.5 92t-23.5 124.5z" />
<glyph unicode="&#x2026;" horiz-adv-x="1615" d="M152 98q0 57 32.5 90t87.5 33q57 0 91 -32.5t34 -90.5q0 -55 -33.5 -89t-91.5 -34q-55 0 -87.5 34t-32.5 89zM692 98q0 57 33 90t88 33q57 0 92 -32.5t35 -90.5q0 -55 -35 -89t-92 -34q-55 0 -88 34t-33 89zM1233 98q0 57 32.5 90t88.5 33q59 0 93 -32.5t34 -90.5 q0 -55 -34 -89t-93 -34q-55 0 -88 34t-33 89z" />
<glyph unicode="&#x202f;" horiz-adv-x="370" />
<glyph unicode="&#x2039;" horiz-adv-x="630" d="M84 551l340 491l113 -92l-207 -309l-103 -88l103 -76l219 -303l-113 -92z" />
<glyph unicode="&#x203a;" horiz-adv-x="630" d="M84 948l113 94l352 -471l-340 -489l-113 90l207 309l103 88l-103 76z" />
<glyph unicode="&#x2044;" horiz-adv-x="391" d="M-377 51l1036 1469l111 -76l-1036 -1469z" />
<glyph unicode="&#x205f;" horiz-adv-x="462" />
<glyph unicode="&#x2081;" horiz-adv-x="837" d="M113 479l327 217h88v-780h203v-129h-577v129h225v543l14 76l-57 -60l-166 -100z" />
<glyph unicode="&#x2082;" horiz-adv-x="837" d="M102 -143q49 41 123 109.5t141.5 147.5t115.5 161.5t48 152.5q0 66 -43 99.5t-104 33.5q-57 0 -111.5 -20.5t-95.5 -46.5l-47 122q55 37 129 58.5t152 21.5q133 0 201.5 -65.5t68.5 -184.5q0 -66 -22.5 -127t-59.5 -120.5t-88 -119t-109 -118.5l-98 -67v-5l121 33h299 v-135h-621v70z" />
<glyph unicode="&#x2083;" horiz-adv-x="837" d="M143 -188l31 129q37 -16 84 -28.5t102 -12.5q102 0 156.5 41t54.5 118q0 68 -49 111t-157 43h-117v49l207 248l71 57l-104 -14h-277v129h545v-72l-219 -260l-53 -39v-4l49 6q117 -2 185.5 -70.5t68.5 -183.5q0 -129 -95.5 -207.5t-252.5 -78.5q-76 0 -132.5 12.5 t-97.5 26.5z" />
<glyph unicode="&#x2084;" horiz-adv-x="837" d="M53 -8v78l482 643h96v-596h176v-125h-176v-205h-144v205h-434zM213 106l106 11h168v272l13 105h-4l-47 -99l-166 -223z" />
<glyph unicode="&#x20ac;" d="M20 537l39 141h117q-2 18 -2 33v34v40q0 17 2 42h-156l39 140h136q25 143 79 247.5t131.5 171t174 98.5t204.5 32q109 0 188 -13.5t136 -36.5l-45 -155q-49 23 -114.5 36t-160.5 13q-72 0 -137 -21.5t-119.5 -69.5t-96.5 -123t-62 -179h600l-35 -140h-584q-2 -25 -2 -42 v-40v-34q0 -14 2 -33h541l-37 -141h-489q39 -201 152.5 -303.5t293.5 -102.5q84 0 152.5 19.5t117.5 50.5l43 -140q-63 -49 -158.5 -67.5t-189.5 -18.5q-244 0 -396.5 138.5t-193.5 423.5h-170z" />
<glyph unicode="&#x2122;" horiz-adv-x="1884" d="M82 1346v145h745v-145h-290v-621h-166v621h-289zM911 725v766h166l223 -358l62 -123h2l63 127l207 354h168v-766h-162v354l21 219h-8l-84 -180l-185 -299h-69l-191 297l-75 182h-9l27 -217v-356h-156z" />
<glyph unicode="&#xe000;" horiz-adv-x="1065" d="M0 1065h1065v-1065h-1065v1065z" />
<glyph unicode="&#xf408;" horiz-adv-x="935" d="M127 1591v47l285 215h127l270 -217v-45h-172l-127 105l-37 73l-41 -71l-135 -107h-170z" />
<glyph unicode="&#xf40d;" horiz-adv-x="931" d="M127 1671q68 70 124 94.5t107 24.5q39 0 78 -11.5t74 -24.5t69.5 -24.5t65.5 -11.5q55 0 107 45l53 -92q-57 -53 -108.5 -72.5t-96.5 -19.5q-39 0 -76 10t-71.5 24.5t-68.5 25t-69 10.5t-67.5 -14.5t-69.5 -49.5z" />
<glyph unicode="&#xf662;" horiz-adv-x="837" d="M113 1288l327 217h90v-909h-149v672l14 75l-59 -59l-166 -100z" />
<glyph unicode="&#xf6c9;" horiz-adv-x="749" d="M127 1602l252 251h244v-45l-349 -206h-147z" />
<glyph unicode="&#xf6cb;" horiz-adv-x="888" d="M127 1692q0 45 33 72.5t84 27.5q47 0 78.5 -27.5t31.5 -72.5q0 -43 -31.5 -71t-78.5 -28q-51 0 -84 28t-33 71zM537 1692q0 45 30.5 72.5t79.5 27.5q51 0 83 -27.5t32 -72.5q0 -43 -32 -71t-83 -28q-49 0 -79.5 28t-30.5 71z" />
<glyph unicode="&#xf6ce;" horiz-adv-x="749" d="M127 1808v45h244l252 -251h-158z" />
<glyph unicode="&#xfb01;" horiz-adv-x="1148" d="M47 915v150h166v59q0 201 99.5 291t289.5 90q127 0 224.5 -24.5t152.5 -57.5l-57 -137q-57 37 -136 53.5t-168 16.5q-80 0 -126 -17.5t-70.5 -55.5t-31.5 -93t-7 -125h600v-1065h-170v915h-430v-915h-170v915h-166z" />
<glyph unicode="&#xfb02;" horiz-adv-x="1241" d="M47 915v150h166v59q0 201 86 296.5t289 95.5q43 0 96 -3.5t107.5 -8.5t102.5 -11t77 -14v-1217q0 -74 26.5 -106.5t71.5 -32.5q31 0 62.5 4t72.5 20l17 -135q-16 -8 -41 -15t-52.5 -11t-55.5 -7.5t-50 -3.5q-96 0 -158.5 54.5t-62.5 183.5v1137q-33 6 -92.5 12t-116.5 6 q-72 0 -114 -20.5t-63.5 -60.5t-26.5 -96t-5 -126h219v-150h-219v-915h-170v915h-166z" />
<glyph unicode="&#xfb03;" horiz-adv-x="1929" d="M1524 1389q0 49 32.5 83.5t84.5 34.5q51 0 88 -34.5t37 -83.5t-37 -81t-88 -32t-84 32t-33 81zM1561 0v1065h170v-1065h-170zM727 915v150h166v59q0 98 16.5 171t52 118t93 67.5t143.5 22.5q68 0 120 -8t110 -33l-39 -141q-49 20 -92.5 26.5t-81.5 6.5q-55 0 -86 -16.5 t-45.5 -49.5t-17.5 -81t-3 -111v-31h285v-150h-285v-915h-170v915h-166zM47 915v150h166v59q0 98 16.5 171t52 118t93 67.5t143.5 22.5q68 0 120 -8t110 -33l-39 -141q-49 20 -92.5 26.5t-81.5 6.5q-55 0 -86 -16.5t-45.5 -49.5t-17.5 -81t-3 -111v-31h285v-150h-285v-915 h-170v915h-166z" />
<glyph unicode="&#xfb04;" horiz-adv-x="1980" d="M1542 213v1278h172v-1229q0 -74 26 -106.5t71 -32.5q29 0 60.5 4t72.5 20l18 -135q-33 -16 -94.5 -26.5t-104.5 -10.5q-96 0 -158.5 54.5t-62.5 183.5zM727 915v150h166v59q0 98 16.5 171t52 118t93 67.5t143.5 22.5q68 0 120 -8t110 -33l-39 -141q-49 20 -92.5 26.5 t-81.5 6.5q-55 0 -86 -16.5t-45.5 -49.5t-17.5 -81t-3 -111v-31h285v-150h-285v-915h-170v915h-166zM47 915v150h166v59q0 98 16.5 171t52 118t93 67.5t143.5 22.5q68 0 120 -8t110 -33l-39 -141q-49 20 -92.5 26.5t-81.5 6.5q-55 0 -86 -16.5t-45.5 -49.5t-17.5 -81 t-3 -111v-31h285v-150h-285v-915h-170v915h-166z" />
<glyph horiz-adv-x="391" d="M-406 57l1096 1463l105 -82l-1094 -1463z" />
</font>
</defs>
</svg>
