<?xml version="1.0" standalone="no"?>
<!DOCTYPE svg PUBLIC "-//W3C//DTD SVG 1.1//EN" "http://www.w3.org/Graphics/SVG/1.1/DTD/svg11.dtd" >
<svg xmlns="http://www.w3.org/2000/svg">
<metadata>
This is a custom SVG webfont generated by Font Squirrel.
Copyright   : Copyright c 2011 by vernon adams vernnewtypographycouk with Reserved Font Names Amatic Amatic SC
</metadata>
<defs>
<font id="AmaticSCBold" horiz-adv-x="567" >
<font-face units-per-em="2048" ascent="1638" descent="-410" />
<missing-glyph horiz-adv-x="232" />
<glyph unicode=" "  horiz-adv-x="232" />
<glyph unicode="&#x09;" horiz-adv-x="232" />
<glyph unicode="&#xa0;" horiz-adv-x="232" />
<glyph unicode="!" horiz-adv-x="276" d="M56 26q0 28 20 51t49.5 23t47.5 -23t18 -56q0 -58 -73 -63v12q-40 10 -62 56zM94 1194q0 26 21.5 45t43 19t33 -12t11.5 -28q0 -132 -20.5 -392.5t-20.5 -391.5l-3 -90q0 -102 -25.5 -102t-25.5 144l-1 271z" />
<glyph unicode="&#x22;" horiz-adv-x="391" d="M82 1214.5q0 26.5 10.5 37t22.5 10.5q36 0 40 -53q0 -71 -18.5 -163t-41.5 -92q-4 0 -8.5 117t-4.5 143.5zM231 1225q0 16 15.5 26.5t34.5 10.5t26 -37q-2 -79 -15.5 -175t-31.5 -96q-7 0 -18 105t-11 166z" />
<glyph unicode="#" horiz-adv-x="636" d="M46 510q0 36 77 36l50 -1q15 87 25 213q-32 -2 -41 -2q-78 0 -78 47v35l75 -1q25 0 50 2q3 28 14 100q22 140 22 227l-1 29q0 27 8.5 43t34.5 16l28 -38q0 -64 -13.5 -187t-14.5 -183q14 -3 42 -3h31q51 0 76 2q16 95 29.5 218t18.5 165q19 25 37 25t31 -9.5t13 -28.5 t-7.5 -74t-16 -103.5t-20.5 -113t-14 -79.5h52l35 -29q-11 -49 -43 -49h-54q-18 -85 -20 -209l17 1q68 0 68 -49q0 -41 -62 -41h-5q-7 -82 -34 -246.5t-34 -253.5q-2 -19 -17 -31t-33 -12q-33 0 -33 36q0 131 22 287.5t29 215.5q-36 3 -109 3h-40q-6 -34 -21 -174 q-36 -331 -68 -358q-4 -3 -13 -3t-21 11t-12 24q0 133 25.5 288.5t30.5 204.5q-36 -4 -48 -4q-68 0 -68 53zM247 549q7 -1 57 -1t92 -3q16 142 17 217q-27 6 -71 6t-69 -5q-21 -76 -26 -214z" />
<glyph unicode="$" horiz-adv-x="433" d="M53 1012q0 73 21.5 130t68.5 72q-5 39 -5 53q0 46 25 46q25 -3 27 -19q3 -14 3 -42.5t5 -28.5q29 0 63 -21q3 -4 17 -17t23 -22q25 -25 25 -44q0 -21 -9.5 -29t-23 -8t-30 12t-34.5 30t-32 27l2 -117q0 -68 8 -141.5t9 -84.5q8 2 50.5 -98t66.5 -164q59 -156 59 -198.5 t-8.5 -72t-21.5 -49.5t-30 -37q-30 -31 -63 -45q5 -87 5 -93q0 -64 -30.5 -64t-30.5 49v94q-71 0 -110 20t-39 75q0 13 10 23.5t23 10.5t21.5 -9t17 -26t14.5 -24l28 -6l35 4q-2 99 -18 358l-6 92q-15 31 -38 75t-38 73.5t-30 67.5q-30 75 -30 148zM117 1029q0 -73 53 -162 q-12 82 -20 267q-33 -32 -33 -105zM243 588q2 -50 10 -177t9 -196q52 43 52 91t-13 103q-17 75 -36 123.5t-22 55.5z" />
<glyph unicode="%" horiz-adv-x="901" d="M58 923.5q0 41.5 6 88t20 101.5t42.5 92t66.5 37q183 0 183 -324q0 -14 1 -48.5t1 -57t-2 -58t-7.5 -59.5t-17.5 -51.5t-29.5 -44.5t-45 -28t-59 -11t-55 11t-39 32t-27.5 44t-19 57t-11 60t-6 62q-2 56 -2 97.5zM137 943q0 -29 0.5 -51t3 -58t8 -68t13.5 -61 q16 -65 49 -65q90 0 90 234q0 285 -103 285q-20 0 -40.5 -93.5t-20.5 -122.5zM278 62.5q0 19.5 10.5 83t33.5 158t43 176.5t53.5 204.5t49.5 182.5t47 170.5t31.5 123.5t12.5 40.5t31.5 27.5t32 -11t12.5 -41.5t-26.5 -147.5t-65.5 -263.5t-47 -179.5q-56 -243 -154 -557 q-6 -21 -21 -21t-29 17.5t-14 37zM541 361q0 34 2.5 79t12.5 83.5t25 73.5q34 73 107 73q150 0 158 -264v-63v-41q0 -105 -24.5 -173.5t-61 -97.5t-77 -29t-64 23t-37.5 57t-24 76q-15 72 -16 120.5t-1 82.5zM622 293q0 -35 18 -117.5t36 -82.5q90 0 90 216v38 q0 239 -83 239q-22 0 -37.5 -38.5t-19.5 -89.5q-12 -134 -4 -165z" />
<glyph unicode="&#x26;" horiz-adv-x="749" d="M62 430.5q0 64.5 8 120.5t30 115q30 84 106 234l-12 225v136q0 64 22 92.5t58 28.5t81 -28.5t45 -73.5l-5 -83q0 -17 4 -35q-13 -31 -37 -104.5t-35 -95t-22 -38.5q-26 -38 -26 -55q0 -79 60.5 -281.5t104.5 -253.5q50 118 50 290v7q-28 0 -41 28v42q41 0 106.5 6 t92.5 15q46 -10 46 -44q0 -44 -90 -44h-41q0 -49 -4 -111q17 2 -15.5 -103t-47.5 -136q49 -50 104 -50l66 4l31 -24q0 -33 -23 -44t-60 -11q-76 0 -158 62q-88 -63 -163 -63t-127 42t-80 104t-28 126.5zM138 456q0 -126 66 -192q38 -38 93 -38q25 0 62 14t53 30 q-6 8 -34.5 38.5t-57.5 86.5t-48 131q-26 101 -50 249q-84 -137 -84 -319zM266 1177l2 -148v-19q22 47 42 111.5t20 103.5q0 77 -39 79q-11 -10 -25 -40v-87z" />
<glyph unicode="'" horiz-adv-x="254" d="M80 1225q0 16 15.5 26.5t33.5 10.5q29 0 43 -37v-5l-3 -11q0 -71 -19 -163t-41 -92q-7 0 -18 105t-11 166z" />
<glyph unicode="(" horiz-adv-x="373" d="M64 658q0 89 12 184.5t33 205.5t57 191.5t75 81.5h36q0 -53 -45 -155q-86 -199 -86 -440q0 -614 147 -876q35 -63 46 -104q-13 -35 -46 -35q-43 0 -82.5 89.5t-65 219t-44.5 273.5q-37 276 -37 365z" />
<glyph unicode=")" horiz-adv-x="385" d="M35 -205.5q0 15.5 13.5 43.5t32.5 61q75 133 118.5 364.5t43.5 371.5q0 367 -96 545q-36 67 -36 108v9h30q46 0 83.5 -83.5t57.5 -199.5q41 -235 43 -360v-2q0 -110 -36 -305t-65 -312t-68 -197t-78 -80q-16 0 -29.5 10.5t-13.5 26z" />
<glyph unicode="*" horiz-adv-x="714" d="M50 912q0 23 11 34.5t26 11.5h193l-25 50q-82 165 -82 187q0 43 45 43q34 0 89 -159q23 -65 27 -73q53 186 87 228q16 20 32 20t30 -13.5t14 -24.5t-1.5 -16.5t-3 -9.5t-4 -9t-4.5 -8l-6 -9l-16 -24q-12 -18 -32.5 -92t-27.5 -93q30 -4 70 -4l108 8q83 0 83 -49 q0 -42 -57 -42q-36 0 -106 3.5t-104 3.5q5 -13 61.5 -127.5t56.5 -138.5t-19 -40t-37 -16l-112 256q-7 -19 -22 -61.5t-25 -69.5q-26 -70 -56 -120h-39l-35 31v5q1 31 57.5 145.5t64.5 137.5h-147q-54 0 -61 0.5t-16 4.5q-17 7 -17 30z" />
<glyph unicode="+" horiz-adv-x="592" d="M67 524q0 17 10 29.5t27 12.5l97 -5q21 0 37 3l-9 120q0 90 53 90q19 0 33.5 -14t14.5 -33v-20q0 -5 -0.5 -24.5t0 -38t0.5 -38.5q2 -45 15 -45l95 6q85 0 85 -49q0 -20 -13.5 -32.5t-33.5 -12.5l-96 9q-52 0 -52 -40l15 -131q0 -20 -16.5 -32.5t-36.5 -12.5t-37 12 t-17 30l5 159v12l-106 -7q-70 0 -70 52z" />
<glyph unicode="," horiz-adv-x="340" d="M66 -104q6 6 32 27q53 43 59 74q-47 34 -47 72t25 58t55 20t47 -18t29 -51v-5l-3 -11q0 -38 -20.5 -90t-56.5 -93t-72 -41h-48v58z" />
<glyph unicode="-" horiz-adv-x="519" d="M83 608q0 18 95 23q144 7 184 7q75 0 75 -47q0 -18 -95 -23q-144 -7 -185 -7q-74 0 -74 47z" />
<glyph unicode="." horiz-adv-x="284" d="M84 34q0 24 18.5 43t42.5 19t41.5 -19t17.5 -44.5t-18.5 -42t-43.5 -16.5t-41.5 18t-16.5 42z" />
<glyph unicode="/" horiz-adv-x="453" d="M51 24q0 109 52.5 325.5t121.5 463.5t79 299t12.5 64.5t4 18t5 16.5t7.5 16q12 15 28.5 15t29.5 -11t13 -32t-5 -45.5t-15 -57.5q-39 -126 -198 -862q-2 -6 -9 -44t-13.5 -69t-17.5 -67q-24 -79 -58 -79q-37 23 -37 49z" />
<glyph unicode="0" horiz-adv-x="515" d="M78 643v343q0 139 21 187q23 53 61 69q22 8 49.5 8t57 -16.5t43.5 -28t25 -26.5t19 -26t14 -31l10 -30q4 -10 8.5 -33.5t5.5 -32.5q8 -54 10.5 -73.5t11 -84t12.5 -93.5t10.5 -85.5t9.5 -94.5q8 -94 8 -178q0 -411 -180 -411q-43 0 -77 37.5t-54.5 101t-34.5 132 t-20 147.5q-10 131 -10 219zM147 1070l9 -278l18 -160q0 -130 13 -270q27 -282 103 -282q26 0 45 49t27 118q16 136 16 207q0 170 -59 549q-13 82 -43 122.5t-60 40.5t-49.5 -26.5t-19.5 -69.5z" />
<glyph unicode="1" horiz-adv-x="481" d="M44 1217q0 43 132 43q58 0 72 -27q-3 -6 -0.5 -34.5t2.5 -56.5t12.5 -128t12.5 -190t18 -348.5t18 -388.5v-10q39 5 60 5q69 0 69 -40q0 -48 -186 -48l-49 -1q-31 0 -49 8.5t-18 36.5v35q52 -4 58 -4q36 0 36 27q0 248 -28 643q-2 35 -9 97q-13 138 -13 210l3 60 q0 77 -57 77l-38 -1q-46 0 -46 35z" />
<glyph unicode="2" horiz-adv-x="462" d="M45 38v6q34 41 57.5 107.5t32.5 87.5q94 207 139.5 380t45.5 374t-78 207q-27 -14 -37 -78q-9 -60 -48.5 -60t-39.5 50q0 79 46 130q25 27 59 27v1q86 0 124 -53q28 -39 35.5 -70.5t10 -50t4.5 -46.5q2 -44 2 -89q0 -142 -35.5 -320.5t-90.5 -302.5q-10 -23 -58 -118.5 t-66 -150.5q99 17 186 17l49 -42l-29 -41l-249 -15q-23 0 -41.5 13.5t-18.5 36.5z" />
<glyph unicode="3" horiz-adv-x="480" d="M42 1133q23 55 63.5 90t91.5 35t89 -40q35 -1 57 -125t22 -171t-7.5 -70t-15.5 -35.5t-26 -39t-25 -35.5q101 -60 131 -340q6 -61 6 -105t-1.5 -72.5t-7 -67t-17 -66.5t-29.5 -54q-37 -53 -115 -53q-61 0 -90.5 25t-29.5 52v10h27q9 -1 23 -2.5t21 -2.5q17 -1 37 -15 q100 4 100 184q0 240 -44 347q-21 53 -56 97q-4 -1 -16 -1t-43 14v19q0 25 34 64q62 75 62 145q0 63 -11 130q-22 132 -74 132q-20 0 -33.5 -15t-19 -32t-19.5 -32t-34.5 -15t-33 13t-16.5 32z" />
<glyph unicode="4" horiz-adv-x="443" d="M71 410q0 36 7 63q-7 38 -7 93t12.5 167.5t12.5 165.5v303q0 32 31 32q19 0 33.5 -11t14.5 -29l-7 -128l-15 -568q0 -20 2 -37q34 1 74 9l-14 458q0 17 13 27t26 10l34 -29v-103q0 -227 21 -356l47 4q49 0 49 -35q0 -24 -14 -32t-46 -8t-32 -15q0 -55 4.5 -152t12.5 -115 q-4 -19 -4 -34.5t8 -28.5v-30q0 -61 -39 -61q-25 0 -37 25t-12 52v6q6 19 6 59l-12 159l2 71q0 28 -4 51l-102 -9v-1q-31 0 -65 27z" />
<glyph unicode="5" horiz-adv-x="462" d="M51 1232l28 27h134q49 0 58.5 -13t9.5 -27v-9l-31 -24h-35v-4h-75q3 -90 32 -380q4 -1 31.5 -3.5t38.5 -4.5q41 -8 63 -22q37 -26 62 -115q40 -145 40 -310q0 -140 -8 -172t-18 -61.5t-24 -51.5q-34 -48 -88 -91l-28 -1q-90 0 -90 47q0 18 15.5 27.5t37.5 9.5t40 -14 q39 14 62 90t23 132q0 96 -15 221q-28 248 -86 248h-32v-5l-54 -13q-39 0 -50 31q-10 26 -10 62l9 84q0 102 -40 342z" />
<glyph unicode="6" horiz-adv-x="424" d="M73 704q0 565 172 565q12 0 24.5 -10t12.5 -27.5t-18.5 -32t-41.5 -19.5q-28 -29 -46 -171.5t-22 -249.5q12 3 37 3t56 -26t50.5 -65t34 -95.5t21.5 -107t12 -110.5q5 -84 5 -144t-1.5 -84t-9 -53t-21 -46.5t-38.5 -29.5t-60.5 -12t-61 17.5t-39 42.5t-22 63.5 t-10.5 69.5t-4.5 71.5t-4.5 59.5q-25 202 -25 391zM153 616q0 -154 39 -450q1 -6 2.5 -23t2.5 -25t5 -22t10 -20q15 -18 41 -18q41 0 41 110t-15 250q-28 275 -92 288q-21 -16 -27.5 -37t-6.5 -53z" />
<glyph unicode="7" horiz-adv-x="372" d="M53 1239q0 27 150 27h31q44 0 60.5 -13.5t22.5 -34.5q-5 -21 -19.5 -194t-56 -480.5t-90.5 -448.5q1 -4 1 -25.5t-14.5 -50t-41.5 -28.5l-39 28q0 34 13 74.5t30.5 106.5t37.5 200t39 316t25.5 231.5t13.5 95.5q16 95 18 152q-26 3 -45.5 3t-97.5 -7q-38 19 -38 48z" />
<glyph unicode="8" horiz-adv-x="420" d="M56 1132.5q0 65.5 28.5 109.5t85.5 44h32q80 -52 92 -119q7 -42 7 -136.5t-51 -317.5q-3 -15 -4 -23q54 -132 90.5 -296.5t36.5 -298.5q0 -20 -5 -37v-10q-50 -114 -149 -114q-36 0 -62.5 23.5t-39.5 60.5q-25 68 -25 140q0 274 53 449q22 76 24 83q-44 112 -78.5 244.5 t-34.5 198zM136 1119.5q0 -48.5 21 -162.5t41 -182q33 146 33 275q0 35 -10.5 99.5t-28.5 64.5l-17 -2q-39 -44 -39 -92.5zM169 150q0 -32 16.5 -88.5t35.5 -56.5q77 0 77 112.5t-23.5 233t-66.5 275.5q-39 -160 -39 -474v-2z" />
<glyph unicode="9" horiz-adv-x="424" d="M50 994q0 210 90 276q30 21 69 21q80 0 108.5 -36.5t28.5 -118.5q0 -158 -10 -473.5t-10 -472.5l-10 -118l1 -33q0 -66 -46 -66l-34 30q25 77 25 546l-3 196q-91 21 -150 89t-59 160zM130 983.5q0 -37.5 13 -53.5q7 -52 23 -68t26 -21.5t32 -15t37 -18.5q7 125 7 335 q0 37 -11.5 58.5t-40.5 21.5t-45.5 -28t-24.5 -68t-12 -72.5t-4 -70z" />
<glyph unicode=":" horiz-adv-x="283" d="M75 201.5q0 23.5 18.5 42.5t42.5 19t41 -19t17 -44.5t-18 -41.5t-43 -16t-41.5 18t-16.5 41.5zM92 820q0 23 18.5 42.5t42 19.5t41 -19t17.5 -44t-18.5 -41.5t-43.5 -16.5t-41 18t-16 41z" />
<glyph unicode=";" horiz-adv-x="328" d="M66 22v19q4 4 30 25q51 40 57 71q-47 34 -47 72t25 58t56 20t51.5 -24.5t20.5 -58.5t-22 -84t-60.5 -89.5t-76.5 -39.5q-10 0 -22 10.5t-12 20.5zM134 821q0 23 18.5 42.5t42 19.5t41.5 -19t18 -44.5t-18.5 -41.5t-44 -16t-41.5 18t-16 41z" />
<glyph unicode="&#x3c;" horiz-adv-x="442" d="M52 558q2 45 85 226t89 202t11.5 44.5t11 41.5t15.5 40q19 46 46 46l6 -1l36 -28q-14 -107 -112 -299q-94 -186 -94 -268q0 -12 110 -234t138 -273q0 -7 0.5 -16.5t0 -19t-2.5 -17.5q-3 -20 -20 -20l-35 4q-86 130 -173.5 326.5t-111.5 245.5z" />
<glyph unicode="=" horiz-adv-x="626" d="M88 507q0 17 10 27t27 10h245q168 0 168 -43q0 -17 -11 -27.5t-28 -10.5l-345 8q-66 0 -66 36zM88 661q0 17 10 27t27 10h293q128 0 128 -43.5t-173 -43.5q-74 0 -117 5h-7l-63 -2q-98 0 -98 47z" />
<glyph unicode="&#x3e;" horiz-adv-x="462" d="M47 39q56 103 162 307t106 216q0 81 -72 224q-89 174 -111 235.5t-22 107.5l36 28v-2q35 -17 47.5 -44t16.5 -36q8 -19 20 -65t95 -225t85 -227l-286 -573l-34 -3q-20 0 -31 18t-12 39z" />
<glyph unicode="?" horiz-adv-x="928" d="M73.5 759q1.5 51 2 107t7 115t14.5 117.5t24.5 115t37.5 106.5t53 92t70 73q82 65 205 65q68 0 131 -41.5t108 -104.5q73 -44 116 -454q20 -188 20 -287t-1 -148t-8 -143t-20.5 -155.5t-40.5 -138t-65.5 -121.5t-99 -77t-140 -32t-144.5 27t-108 67.5t-74 106.5 t-47.5 127t-25.5 146q-14 122 -14 214v130q-2 42 -0.5 93zM169 763q0 -619 107 -741q16 -19 52 -42.5t46 -30.5h47v-16q189 2 272 173q77 159 77 459q0 226 -19.5 410t-76.5 349v12q-25 39 -81.5 84.5t-93.5 45.5q-330 0 -330 -703zM298 376v787q0 88 36 117q35 28 114 28 q182 0 182 -292q0 -135 -67 -199q-14 -15 -26.5 -25t-14.5 -17q2 -61 140 -524q0 -17 14 -46.5t14 -44.5t-15.5 -30.5t-28.5 -15.5q-52 0 -104 192q-30 110 -62.5 256t-41.5 169h-42q-4 -64 -4 -118.5t17.5 -210.5t17.5 -234q0 -54 -44 -54q-22 0 -40 15t-18 43.5 t-13.5 98.5t-13.5 105zM369 1126l6 -116q0 -138 19 -210q142 61 142 218v20q0 182 -83 182q-49 0 -66.5 -24.5t-17.5 -69.5z" />
<glyph unicode="@" horiz-adv-x="862" d="M72 765q0 240 27 344q35 132 96 189q82 77 209 77q203 0 292 -201q45 -101 75.5 -301.5t30.5 -243.5t-0.5 -62.5t-3.5 -52t-8 -56t-15 -50.5t-25 -43q-34 -40 -78.5 -40t-81.5 34q-29 -50 -77.5 -82t-89 -32t-63 10.5t-39.5 26.5t-30 42.5t-21.5 51.5t-14.5 61t-9 62.5 t-4 65.5q-3 58 -3 109t0.5 79.5t4 74.5t10 77t19.5 67t31 58q43 51 112.5 51t123.5 -54q26 -25 43.5 -151.5t24.5 -191.5q15 -126 25 -232v-7l36 -37q17 10 27 57q14 66 14 156q0 277 -88 502q-36 91 -85.5 129t-139.5 38q-122 0 -181 -111q-27 -52 -39.5 -126.5 t-13.5 -120.5t-3 -91t-1 -80t1 -63q-1 -723 210 -723q144 0 193 46q19 17 57 52.5t82 61.5v8l39 -31q-13 -47 -55.5 -88.5t-96.5 -66.5q-114 -53 -213 -53q-304 0 -304 861zM337 684q0 -165 8.5 -214t17.5 -80q19 -62 60 -62q34 0 69 59t35 97v123q0 95 -17 196 q-31 194 -96 194q-77 0 -77 -261v-52z" />
<glyph unicode="A" d="M46 51q36 54 149 683q44 249 53 289q44 211 95 211q31 0 49 -14v3q32 -229 67 -597t35 -570q0 -55 -53.5 -55t-53.5 42v214q-23 16 -82.5 27t-106.5 14q-20 -33 -30.5 -136.5t-34.5 -143.5q-79 0 -87 33zM209 371q68 -18 112.5 -18t64.5 5q-3 29 -16 176q-36 376 -36 420 v49q-9 -11 -45.5 -232t-41.5 -240t-15 -53q-22 -69 -23 -107z" />
<glyph unicode="B" horiz-adv-x="500" d="M83 1096v26q0 108 62 108q75 0 130 -36q112 -72 112 -233q0 -125 -100 -266q70 -98 84.5 -115.5t26 -36.5t13 -23.5t5.5 -25t5 -36.5q1 -39 7.5 -92.5t9.5 -59.5q2 -7 -6.5 -41.5t-11.5 -46.5t-8.5 -32t-9.5 -30t-11.5 -26.5t-14.5 -25t-17.5 -21.5t-22.5 -21.5 t-27 -19.5q-51 -36 -90.5 -46t-44.5 -10h-8q-44 0 -56 7q-24 13 -24 34l8 403zM172 1078q0 -59 3 -185t3 -183q59 14 100 144q23 70 29 84v59q0 48 -34 94t-79 46q-22 0 -22 -59zM178 629q7 -203 7 -557q79 13 124.5 75.5t45.5 147.5q0 277 -121 333v1h-56z" />
<glyph unicode="C" horiz-adv-x="548" d="M66 790.5q0 132.5 12 190.5q-5 26 -5 51q0 101 75 160.5t186 59.5q39 0 76.5 -22t37.5 -58q0 -18 -13.5 -27.5t-38 -9.5t-36.5 20v-3h-26v6q-126 0 -158 -107q-16 -53 -16 -139l5 -113l-15 -114q0 -83 22 -305t43 -252q37 -54 113 -54t116 48q28 0 52 8v-22 q0 -50 -29 -81q-47 -53 -150 -53q-55 0 -109 37t-82 96t-44 305t-16 378.5z" />
<glyph unicode="D" horiz-adv-x="552" d="M51 1182.5q0 15.5 6.5 26t19.5 16.5t25 9.5t30 5.5q30 2 44 2h16q67 0 143 -72q92 -88 112 -184q12 -57 16 -126.5t6 -93.5q5 -52 13 -72v-76q-9 -15 -9 -49q0 -124 -57 -271.5t-141 -223.5q-62 -57 -84 -67.5t-43.5 -10.5t-46 14t-24.5 42q36 38 36 193q0 91 -15.5 271 t-15.5 270l5 179q0 76 -7 109t-18 63t-11 45.5zM168 1142q0 -152 11 -450t12 -444v-157q127 90 179 334q25 125 25 258q0 460 -227 460v-1z" />
<glyph unicode="E" horiz-adv-x="404" d="M88 44v1182l142 15q24 0 49.5 -15t25.5 -39q0 -49 -75 -49l-47 2q-12 0 -17 -1l12 -270q0 -33 -4 -96t-4 -91q9 1 24 5q34 9 53 9t33.5 -13.5t14.5 -33t-12 -34.5t-31 -15l-41 2q-19 0 -29 -12v-506q84 5 87 5q91 0 91 -43v-6q-11 -22 -38 -34t-47 -14t-53 -2h-51 q-62 0 -77 24q-6 12 -6 30z" />
<glyph unicode="F" horiz-adv-x="361" d="M55 1152q0 85 116 90q17 1 47.5 1t47.5 -11t17 -45.5t-45 -34.5l-40 2q-46 0 -46 -19q0 -76 12 -222.5t13 -217.5q70 18 89.5 18t33 -15.5t13.5 -35.5q0 -53 -136 -53q0 -89 15.5 -266.5t15.5 -267.5l-3 -10q2 -7 2 -24t-15 -30t-40 -13q-47 0 -47 105q0 156 -16.5 589.5 t-33.5 459.5z" />
<glyph unicode="G" horiz-adv-x="616" d="M64 690q0 384 109 509q63 74 164 74q65 0 65 -47q0 -17 -12 -27.5t-29 -10.5l-45 8q-59 0 -94 -74q-35 -77 -45.5 -152t-15 -119.5t-6.5 -100.5q-3 -77 -3 -155l-1 -101q0 -161 13.5 -225.5t27.5 -103.5t34 -66q44 -58 114 -58t117 69q-3 147 -25 187l-62 -7 q-54 0 -54 47q0 40 102 52q20 2 44 2t42 -25.5t18 -68.5t16 -139.5t16 -130.5q0 -60 -40.5 -60t-54.5 35v1q-9 -5 -34 -19q-49 -27 -87 -27t-75 15t-64 38.5t-48 61.5t-35 74.5t-24 86t-15 89t-8 91.5q-4 64 -4 156z" />
<glyph unicode="H" horiz-adv-x="499" d="M67 1208v12q3 26 28 26q51 0 58 -35q-6 -58 -6 -123l11 -337l-1 -61q0 -24 3 -43l154 12l-15 538q-1 12 13 26.5t31 14.5t30.5 -29t13.5 -95q0 -180 15.5 -540t15.5 -540q0 -21 -14 -40t-34 -19q-42 0 -42 55q0 305 -14 577q-44 8 -80.5 8t-65.5 -13q1 -89 14 -274.5 t14 -280.5q0 -16 -10 -29.5t-26 -13.5q-26 0 -39.5 22t-17 116t-4.5 206t-2 134q-30 425 -30 726z" />
<glyph unicode="I" horiz-adv-x="391" d="M50 52.5q0 37.5 49 37.5h51q8 0 8 81.5t-15.5 334t-15.5 378.5l3 167q0 53 -4 91q-21 -7 -38 -7q-38 0 -38 39q0 20 24.5 35t61.5 21q69 12 102 12t47.5 -13t14.5 -31t-11 -31t-27 -13h-29q-16 0 -23.5 -6.5t-7.5 -26.5q0 -160 20.5 -479.5t20.5 -479.5v-70l34 1 q66 0 66 -27q3 -10 3 -18q0 -14 -8 -22q-12 -12 -36 -11h-205q-47 0 -47 37.5z" />
<glyph unicode="J" horiz-adv-x="380" d="M38 1185q0 57 196 57q94 0 94 -44q0 -43 -67 -43h-6v-12l-3 -253q0 -107 15 -319.5t15 -343.5t-35.5 -225t-124.5 -157q-25 0 -42 12.5t-17 35t20.5 41t43.5 28.5q66 82 66 231q0 81 -8.5 233t-9.5 205.5t-2 136t-2 134.5q-2 139 -21 254q-5 -1 -21 -5q-32 -8 -49.5 -8 t-29.5 12.5t-12 29.5z" />
<glyph unicode="K" horiz-adv-x="552" d="M74 77q0 83 11 230t11 221l2 311q0 179 -5 222t-12 74t-7 49t13.5 33.5t33.5 15.5q61 0 61 -133q0 -1 -8 -337q6 15 31 80.5t51 133.5t56 138q69 162 98 162q19 0 33 -12.5t14 -29.5t-89.5 -204.5t-100.5 -237.5v-29q24 -63 131 -398.5t107 -356t-16 -34t-36 -13.5l-39 6 q-40 234 -81.5 406.5t-110.5 329.5q-45 -87 -48 -106q-6 -42 -6 -78l10 -304q0 -222 -56 -222q-48 0 -48 83z" />
<glyph unicode="L" horiz-adv-x="388" d="M70 1223q0 15 12 24.5t30 9.5t33 -13.5t15 -33.5l17 -590q0 -29 -3 -52v-7q2 -47 7 -135q12 -194 12 -292v-52h117q27 -16 31 -23.5t4 -20.5t-12 -27t-25 -14t-30 5q-13 -3 -31 -3l-53 3q-16 -20 -41.5 -20t-42.5 15.5t-17 36.5l10 72q0 186 -16.5 558.5t-16.5 558.5z " />
<glyph unicode="M" horiz-adv-x="683" d="M85 98l5 273l-5 635q0 106 2 212l46 25q45 -5 101 -288q45 -224 73.5 -412.5t30.5 -203.5q111 628 136 875v9q4 22 21.5 34.5t34.5 12.5t26 -7q19 -13 19 -35q0 -194 10.5 -582t10.5 -583q0 -49 -33 -77q-10 -7 -16 -7q-4 0 -5 3q-10 -3 -17 -3q-17 0 -20 16q-2 10 -2 24 l1 27q-3 124 -3 194.5t1 194.5q1 62 0.5 179.5t-0.5 291.5q-9 -52 -37.5 -194t-39 -206t-17 -107.5t-12.5 -77.5t-14 -69q-19 -74 -53 -74q-51 0 -51 152q-10 79 -53 314.5t-58 323.5q-1 -152 -1 -228l14 -682q0 -35 -26 -61q-40 0 -54.5 27t-14.5 74z" />
<glyph unicode="N" horiz-adv-x="611" d="M74 650v208l12 301q0 61 8 68q21 16 43.5 16t34.5 -6q28 -15 28 -42.5t6.5 -54t18.5 -60t16.5 -51t8.5 -40.5t5 -42q6 -61 14.5 -106t32.5 -133.5t45 -156.5q55 -174 62 -313q13 -24 16 -58l5 571v485q9 41 53.5 41t44.5 -64v-10q-10 -21 -10 -48l-7 -605v-501 q0 -39 -32 -57q-17 -9 -35 -9t-27 5.5t-14 13.5t-8.5 20t-4.5 23q-9 58 -61 245q-101 358 -129 540q-2 5 -2 14.5t-1 16.5q-1 17 -9 29q1 33 -14 85.5t-16 62.5v-1036h-58v30q3 12 -1 50.5t-4 91t-10.5 243t-10.5 233.5z" />
<glyph unicode="O" horiz-adv-x="555" d="M65 612.5q0 68.5 2 112.5q3 81 7 143.5t5 96t2 57t5 57.5t9.5 58t17 50.5t27.5 42.5q37 38 82.5 38t72.5 -9t46 -23t34.5 -36.5t25.5 -44t18 -52.5q11 -38 21 -109q39 -280 39 -500l-14 -207v-7q-11 -46 -11 -98.5t-18 -102t-55 -87.5t-81 -38t-80.5 30.5t-60 78 t-42 113.5t-28 129t-15.5 133q-9 106 -9 174.5zM138 682q0 -132 25 -303q50 -335 140 -335q32 0 54.5 61t31.5 153q16 156 16 226t-0.5 100.5t-2.5 88.5t-7 109t-12 112.5t-19.5 109.5t-28.5 90t-39.5 65t-45.5 23t-35.5 -11.5t-23 -34t-17.5 -47.5t-13.5 -61.5t-9.5 -66 t-6.5 -70.5t-4 -66.5t-2 -61.5t-0.5 -48v-33z" />
<glyph unicode="P" horiz-adv-x="440" d="M54 1216q25 37 62 37q61 0 111 -27.5t81 -71.5q65 -95 65 -214.5t-52 -217.5t-153 -152l13 -511q0 -68 -55 -68q-20 0 -29.5 17.5t-9.5 37.5l8 585q0 389 -41 585zM150 1167q0 -86 7 -259t7 -259q124 117 124 277v1q0 119 -43 163q-27 28 -95 77z" />
<glyph unicode="Q" horiz-adv-x="576" d="M66 459l8 267l-2 116q0 419 177 419q65 0 121 -47t71 -112q28 -124 36 -258t8 -233v-122q0 -205 -16 -255q-32 -104 -84 -178q1 -6 5 -32t9.5 -50.5t12.5 -50.5q16 -58 42 -58h16q60 0 60 -40q0 -51 -72 -51q-28 0 -68 24q-44 21 -60 73q-13 44 -18.5 87.5t-9.5 57.5h-64 q-152 102 -169 341q-3 45 -3 102zM146 569.5q0 -91.5 2 -135.5t10.5 -114t22.5 -121.5t43 -91.5t67 -43v2q12 20 38 20q66 63 66 176v372q0 75 -11.5 178.5t-13.5 126t-3.5 42.5t-2.5 32t-3.5 31t-5 30.5t-8 27.5t-11.5 26t-16 20.5t-22 16.5q-28 14 -63 14 q-29 0 -48.5 -84.5t-26.5 -211.5q-14 -222 -14 -313.5z" />
<glyph unicode="R" horiz-adv-x="480" d="M82 35v13l11 961v201q0 20 8 28t46.5 8t78.5 -25.5t64 -65.5q49 -82 49 -181q0 -80 -40 -184q-5 -11 -19 -47t-17 -42q1 -64 21.5 -159.5t38 -154.5t58.5 -184t47 -142v-24q0 -54 -39 -54q-31 0 -59 44v6q-4 65 -40.5 179.5t-45.5 154.5t-28.5 151t-33.5 169v-645 q0 -52 -54 -52q-19 0 -32.5 13t-13.5 32zM168 836q0 -50 2 -75q27 26 52 63l24 142q0 84 -22 142t-47 62z" />
<glyph unicode="S" horiz-adv-x="464" d="M51 19q0 44 37 44q18 0 48 -12.5t52 -12.5t48 28t40 70q30 84 30 153t-24 147t-59 147t-69 138q-83 165 -83 299q0 128 81 201q43 38 102 38q29 0 57 -16.5t39 -42.5v-35q-68 0 -92 16q-30 -3 -52 -29q-41 -48 -41 -111t18.5 -129.5t44 -125.5t51.5 -109.5t44.5 -82.5 t18.5 -33v-13q5 -21 18.5 -65.5t21.5 -71.5q20 -72 20 -130.5t-14 -111t-40 -99.5t-70 -76.5t-82.5 -29.5t-65 4t-53 17.5t-26.5 33.5z" />
<glyph unicode="T" horiz-adv-x="434" d="M38 1174.5q0 19.5 39 33.5t96 21q98 11 165 11q20 0 36.5 -13t16.5 -33t-14.5 -32t-34.5 -12l-59 4q-11 0 -17 -1q12 -95 12 -202l-4 -211q0 -150 26 -251v-1q-11 -52 -11 -125l13 -294q0 -80 -47 -80q-27 0 -40 25.5t-13 56.5l13 262q0 85 -11 255t-11 255l2 143 q0 118 -15 153l-89 -9q-21 0 -37 12.5t-16 32z" />
<glyph unicode="U" horiz-adv-x="601" d="M54 1182q0 20 14 35t33 15q59 0 59 -117l15 -569q10 -22 16.5 -87.5t6.5 -102t12 -89.5t32 -107.5t54 -93t72 -38.5q62 0 66 113v34v735q0 47 -17.5 141t-17.5 127t16.5 45.5t37.5 12.5l49 -38v-28l-14 -100q0 -95 12 -278.5t13 -272.5v-2l3 -48l5 -101v-25l-4 -17l1 -96 q0 -144 -41 -204q-39 -56 -119 -56q-99 0 -150 72q-45 60 -66 163q-26 123 -42 174q-2 4 -18 366.5t-16 402.5q-12 14 -12 34z" />
<glyph unicode="V" horiz-adv-x="531" d="M41 1218q9 32 48 32q18 0 25 -8t10 -13t5.5 -14t3.5 -14.5t2.5 -16t9.5 -58.5t36 -236q59 -408 102 -619q11 93 40 295q60 420 60 656q26 33 60 33h35q-12 -106 -59 -464.5t-56 -469t-9.5 -150.5t-2 -70t-6.5 -61q-11 -67 -49 -67q-23 0 -38 17q-38 156 -112.5 624.5 t-104.5 603.5z" />
<glyph unicode="W" horiz-adv-x="760" d="M42 1193q20 39 56 39q48 0 68 -123q10 -58 12.5 -144.5t5 -118.5t10.5 -96.5t15 -111.5q16 -105 35 -236q60 480 60 627v31q0 18 13 34t30 16q67 0 67 -48v-24q0 -160 64 -460q30 -134 42 -209q9 90 32 261q50 373 50 575q0 36 12 52.5t39.5 16.5t43 -13t15.5 -33 t-17 -37q-25 -134 -43.5 -400.5t-36 -372.5t-23.5 -146q-21 -136 -21 -238q0 -24 -12.5 -40t-34.5 -16t-36 26t-22 70t-12.5 83.5t-7.5 82t-9 89.5t-38 203.5t-37 181.5q-60 -460 -60 -692q0 -17 -14.5 -31t-32.5 -14q-60 0 -60 125q0 76 -67.5 560.5t-85.5 530.5z" />
<glyph unicode="X" horiz-adv-x="462" d="M50 27.5q0 17.5 6 39t17 49t27.5 81t52 220.5t35.5 232.5t-17 139.5t-37 133q-52 156 -52 256v4q15 34 46 34t38 -15t9 -22t3.5 -24t5.5 -45.5t27.5 -122t29.5 -117.5q2 8 20 113q44 257 93 257q19 0 34 -9.5t15 -23.5t-3.5 -25.5t-10 -25.5t-16.5 -41t-51 -230.5 t-41 -231t18.5 -122.5t42.5 -210.5t25 -122.5v-9q2 -20 13 -61t11 -61.5t-13 -34t-32 -13.5q-48 0 -48 37.5t-3.5 75t-11.5 80t-14 69.5t-18 78t-17 71q-60 -259 -72 -325.5t-16 -79t-17 -24t-32 -11.5t-33 10t-14 27.5z" />
<glyph unicode="Y" horiz-adv-x="417" d="M42 1210q0 27 52 27q12 0 25 -9.5t14 -21.5q16 -189 81 -401q4 14 8 68t10 111t16 115q22 132 65.5 132t43.5 -17q0 -92 -39.5 -274.5t-39.5 -277.5l5 -56v-25l-1 -435v-81v-37q0 -22 -14.5 -35t-32.5 -13t-30.5 11.5t-12.5 28.5l8 317q0 48 -15.5 142t-15.5 151 t-19.5 139t-43.5 148q-64 171 -64 293z" />
<glyph unicode="Z" horiz-adv-x="395" d="M48 25q38 60 84.5 311.5t76.5 486t37 338.5q-56 -8 -94 -8q-89 0 -89 52v34l23 1q22 -6 46 -6l154 17q20 0 32.5 -14t12.5 -45q0 -37 -32 -213q-9 -70 -31 -251q-42 -358 -83 -561q-4 -18 -17.5 -50.5t-17.5 -48.5l86 6q86 0 86 -50v-7l-25 -26l-203 -6q-31 0 -46 40z " />
<glyph unicode="[" horiz-adv-x="418" d="M58 -28q0 67 17 202t17 236t21 370t21 404q0 52 32 77h62q149 0 149 -52q0 -17 -14 -27t-31 -10l-92 10q-30 0 -30 -16q0 -228 -20 -530.5t-22 -334t-12 -122.5t-10 -141v-33h7q155 1 155 -59q0 -36 -53 -36q-197 0 -197 62z" />
<glyph unicode="\" horiz-adv-x="448" d="M48 1194q0 28 13 39t27 11t22 -5.5t12.5 -17t7 -19.5t5 -22.5t12 -56t58 -218.5t89.5 -327q107 -394 107 -553q0 -30 -31 -49v-1q-25 0 -45 44q-36 80 -59 215q-32 148 -95.5 423.5t-78 342t-23.5 98.5q-21 68 -21 96z" />
<glyph unicode="]" horiz-adv-x="404" d="M43 1209q0 53 155 53h57q27 -11 29 -23.5t2.5 -15.5t0 -18t-0.5 -83t14.5 -326t14.5 -360t16.5 -246.5t16.5 -217.5q0 -62 -198 -62q-53 0 -53 36q0 59 145 59h16v33q-3 162 -25.5 542.5t-22.5 585.5v15l-108 -9q-59 0 -59 37z" />
<glyph unicode="^" horiz-adv-x="284" d="M86 1261q0 24 13.5 44t37.5 20t41.5 -17.5t17.5 -40.5t-14.5 -39t-37.5 -16t-40.5 12.5t-17.5 36.5z" />
<glyph unicode="_" horiz-adv-x="785" d="M72 -68q0 50 174 50l142 2l263 16q20 0 37 -13.5t17 -40t-21.5 -33t-70.5 -6t-61 0.5l-439 -18q-17 0 -29 12.5t-12 29.5z" />
<glyph unicode="`" horiz-adv-x="466" d="M73 1326q0 41 22 55q55 0 69.5 -7.5t20 -10.5t37.5 -13.5t52 -18.5t48 -21q56 -26 56 -58q0 -14 -12 -23t-22.5 -9t-27 5t-38.5 13t-40 14.5t-39.5 15.5t-26.5 10q-18 -1 -28 -1q-71 0 -71 49z" />
<glyph unicode="a" horiz-adv-x="539" d="M50 35q44 166 74.5 347.5t36.5 215.5t28 131t26.5 130t8.5 85q7 114 30 146h55q56 0 56 -33q0 -316 61 -628q4 -19 12 -51q20 -72 20 -113l-9 -33q0 -20 14.5 -97.5t14.5 -101.5v-2q0 -37 -25 -46q-35 0 -54 11t-19 56.5t-24 185.5l-50 5h-55q-18 8 -65 8q0 -1 -2 -21 t-3 -32t-4 -35.5t-6 -40t-8 -38.5t-11 -36.5t-13 -28.5q-14 -28 -35 -28t-37.5 12.5t-16.5 31.5zM201 326q28 -18 145 -26q-5 24 -5 77.5t-7 130t-19.5 177.5t-17.5 145q-10 -46 -38 -155q-57 -226 -58 -349z" />
<glyph unicode="b" horiz-adv-x="433" d="M73 70l16 349l7 519q0 57 -2 85v15q0 68 47 68q37 0 99 -20.5t62 -48.5q0 -37 24.5 -108t24.5 -107q0 -111 -16 -160t-50 -98q47 -46 61.5 -115t14.5 -139t-8 -113t-26.5 -82.5t-44.5 -68.5q-59 -62 -158 -62q-35 0 -44 30q-7 23 -7 56zM166 67q52 13 79.5 65.5t27.5 97 t-1.5 71.5t-7 65.5t-14.5 67.5q-24 69 -72 80q-7 -94 -7 -196.5t5 -122.5q-10 -17 -10 -54v-74zM176 610q82 3 82 200q0 52 -12 108q-24 108 -70 112v-420z" />
<glyph unicode="c" horiz-adv-x="454" d="M62 396v96q0 471 115 556q59 43 165 43q17 0 32 -12.5t15 -29.5v-7q-15 -37 -79 -37l-30 1q-27 0 -48.5 -29.5t-32.5 -71t-18 -92.5q-11 -81 -11 -151v-8l-11 -316q0 -100 11 -138.5t22.5 -62t27.5 -39.5q37 -35 94 -35q20 0 36 15q49 0 49 -36q0 -65 -91 -65 q-38 0 -77.5 10.5t-59.5 23.5q-109 71 -109 385z" />
<glyph unicode="d" horiz-adv-x="516" d="M69 1028q0 22 18.5 38t44.5 16t44 -28q12 -5 35.5 -9t34.5 -10q92 -42 143.5 -149.5t51.5 -239.5l-3 -82v-90q0 -162 -14.5 -219t-29.5 -93.5t-36 -65.5q-48 -65 -121 -106h-112q-42 0 -42 215l5 516q0 143 -6 269q-13 16 -13 38zM173 836l18 -723v-39h30q85 104 110 190 q23 81 23 226q0 494 -169 516q-12 -64 -12 -170z" />
<glyph unicode="e" horiz-adv-x="413" d="M82 30v8q0 20 4 48q4 34 4 53l-8 210l11 478l-9 139q0 116 69 116q19 0 36 -12q6 -1 30.5 -3t43 -5.5t39.5 -8.5q47 -13 47 -44q0 -34 -48 -51q-75 25 -124 31q2 -35 2 -71l-7 -235q0 -1 5 -25l58 2q79 0 79 -45q0 -24 -14 -42.5t-39.5 -18.5t-44.5 15h-42q5 -63 5 -119 l-7 -296q0 -92 59 -92l65 4q62 0 62 -40q0 -25 -21.5 -36.5t-48.5 -11.5h-154q-21 0 -36 15t-16 37z" />
<glyph unicode="f" horiz-adv-x="432" d="M67 10l46 -34q55 0 55 82v464q30 -10 58.5 -10t46 13t17.5 35q0 43 -79 43l-30 -1v44l15 329v19q72 0 105 -16q83 0 83 47q0 53 -162 65q-28 1 -52.5 1t-44 -12.5t-19.5 -36.5q0 -72 -8.5 -219t-13 -409t-17.5 -404z" />
<glyph unicode="g" horiz-adv-x="523" d="M58 475q0 56 2 93t7 83.5t6 60.5t3 40t4 50t8.5 66.5t14.5 67.5t23.5 56.5t35.5 49.5q48 41 112.5 41t64.5 -41q0 -20 -14 -32t-32 -12l-30 4q-48 0 -73 -112q-24 -109 -28 -196q-7 -134 -7 -178.5t0.5 -69t1.5 -60.5t4 -64t8 -62t11.5 -59.5t16.5 -50.5t23 -41 q29 -36 69 -36q69 0 69 261v15v60q-10 6 -33 6l-29 -1q-23 0 -36.5 8t-13.5 30.5t14.5 34.5t36.5 12v-1q160 0 160 -50l-18 -119l8 -174q0 -47 -7 -81q-95 -87 -169 -87q-39 0 -72 21.5t-64 72.5t-54 194.5t-23 199.5z" />
<glyph unicode="h" horiz-adv-x="501" d="M77 1035q0 19 13.5 34t32.5 15q52 0 52 -98l-6 -408q29 -8 86 -8h63v34q0 75 -11.5 226t-11.5 226q0 18 14 30.5t25 12.5q11 -1 19 1q6 1 10 2h3q5 0 12 -4q12 -6 12 -37q0 -172 15 -515.5t15 -515.5q0 -14 -12.5 -22t-31.5 -8t-36 10t-18 27q-8 163 -8 401v7l-1 47 l-1 15v2q-13 -3 -37 -3l-101 15l-5 -181v-7l13 -270q0 -24 -11.5 -41.5t-33.5 -17.5q-33 0 -45.5 59.5t-12.5 162.5l5 250l1 94l3 96z" />
<glyph unicode="i" horiz-adv-x="440" d="M42 1047q0 38 85 38h4h6q210 0 210 -56q0 -9 -9 -31h-84q6 -60 6 -140l-9 -313l12 -348v-49q0 -14 -5 -44h69q67 0 67 -41q0 -18 -11.5 -31t-25.5 -13l-71 -1h-62l-71 -4q-46 0 -61 30q0 24 6 37t25 13h47l3 22l-11 348l8 365q0 92 -8 174h-63q-29 0 -43 9.5t-14 34.5z " />
<glyph unicode="j" horiz-adv-x="455" d="M34 -154q105 66 140 126t35 178l-15 836v8q-17 0 -48.5 5.5t-41 9.5t-19.5 9q-20 11 -20 29.5t18.5 29t43.5 10.5t89 -8t129 -29t65 -48q0 -17 -13 -27.5t-30.5 -10.5t-48 7.5t-36.5 8.5v-14l16 -660l-2 -74l2 -141q0 -156 -56 -219q-52 -58 -160 -75z" />
<glyph unicode="k" horiz-adv-x="556" d="M78 27v498q0 89 15.5 265t15.5 264q14 32 41 32q50 0 50 -56l-14 -298v-86q5 9 60 130q139 299 173 299q24 0 43.5 -11t19.5 -33q0 -1 -83 -138.5t-93 -157.5l-3 -97q0 -71 56.5 -263.5t94.5 -255.5q4 -7 20.5 -29.5t24 -39t7.5 -35t-14 -31t-32 -12.5q-38 0 -80 81 t-74 199q-56 201 -81 350q-27 -28 -42 -75t-15 -65v-448q0 -39 -36 -39q-25 0 -39.5 14t-14.5 38z" />
<glyph unicode="l" horiz-adv-x="417" d="M77 31l16 732v12q-5 51 -5 154q0 155 57 155q17 0 29 -12t12 -29l-11 -125l5 -393q-10 -23 -10 -89l-6 -261q0 -113 55 -113l68 3q88 0 88 -48q0 -18 -15 -29.5t-34 -13.5q-60 19 -147 19q-26 -15 -50.5 -15t-38 16.5t-13.5 36.5z" />
<glyph unicode="m" horiz-adv-x="702" d="M87 424q18 388 18 585q2 41 12.5 55t29.5 16q7 1 12 1q9 -1 13 -3q6 -4 12 -11t9.5 -13.5t6.5 -19.5t4.5 -20t4 -21.5t5 -28.5t24 -114t47.5 -257t61 -399q50 270 87 511.5t39 257t3 22.5t4 21.5t6 22.5t8.5 18.5t12.5 16.5q15 14 35.5 14t40 -12t19.5 -32 q0 -376 6.5 -521t6.5 -175l-1 -264q7 -17 7 -36.5t-13 -42t-33 -22.5q-52 0 -52 102l3 151q0 160 -3 285q2 75 2 389q-25 -154 -69 -412t-46.5 -274t-4.5 -30l-4 -24q-2 -10 -6 -24t-9 -23q-14 -22 -39 -22q-48 0 -57 71q-13 100 -52.5 351.5t-58.5 338.5q-13 -561 -13 -781 l2 -49q0 -26 -10.5 -40t-34.5 -14t-40 12q-15 11 -14 30q0 3 19 414z" />
<glyph unicode="n" horiz-adv-x="615" d="M79 663l10 306q0 110 60 110q36 0 52 -55q22 -106 77.5 -304t76.5 -301q15 -50 39 -149t38 -148q6 355 6 860l-2 44q0 23 8.5 36t28.5 13t33 -9q25 -20 25 -55q0 -225 -12.5 -577.5t-38.5 -440.5l-14 -5q-10 -4 -15 -4q-19 -4 -32 -4q-18 0 -25 8q-12 14 -17.5 38t-12 47 t-50.5 218q-118 516 -145 600v-245l9 -424v-185q0 -22 -11 -36.5t-31 -14.5q-54 0 -54 100z" />
<glyph unicode="o" horiz-adv-x="535" d="M62 501v100v32q0 346 101 428q25 20 55 21q24 -8 57.5 -14.5t49.5 -13.5q29 -14 63.5 -71t51 -153t16.5 -192v-197q0 -471 -193 -471q-177 0 -199 446q-2 42 -2 85zM152 826l2 -96v-156q0 -20 0.5 -47.5t2 -72t5 -88t8 -92t12.5 -89.5t18 -75q22 -72 57 -72q47 0 72 88 q37 132 37 325l2 169q0 178 -15.5 239.5t-29.5 92.5q-27 63 -82 63h-3q-86 0 -86 -189z" />
<glyph unicode="p" horiz-adv-x="432" d="M78 1016q4 21 15.5 39.5t28.5 18.5h72q95 0 133 -79q34 -69 34 -160q0 -114 -5.5 -140t-12 -49.5t-16 -37.5t-23.5 -31.5t-33 -29.5q-41 -26 -98 -45v-175l13 -310q0 -21 -14.5 -34.5t-35.5 -13.5h-40q-10 45 -10 133l-4 420l7 186l2 156q0 97 -13 152zM172 570 q99 14 99 277q0 96 -42 123q-19 12 -48 12v-90l-9 -319v-3z" />
<glyph unicode="q" horiz-adv-x="523" d="M62 603q0 384 108 471q27 21 60 21q12 -5 38.5 -11t48 -16t45.5 -37.5t38.5 -64.5t24 -74.5t13.5 -83.5q7 -73 7 -158q0 -625 -120 -689q0 -61 16.5 -137.5t18.5 -84.5q83 0 83 -46q0 -17 -11.5 -28.5t-28.5 -11.5v1q-89 0 -121 38q0 74 -11 134q-19 104 -23 124 q-94 23 -128 85q-58 107 -58 568zM142 510q0 -22 1 -73t4 -92t7 -94.5t12 -93.5t18 -77q21 -75 59 -75q22 9 46 9q16 0 35 84q46 199 46 483q0 318 -76 413q-28 36 -68 36q-24 0 -42 -62t-27 -149q-15 -163 -15 -225v-84z" />
<glyph unicode="r" horiz-adv-x="445" d="M70 1014q0 78 54 78q86 0 144 -45t58 -128q0 -112 -17.5 -174.5t-66.5 -155.5q9 -39 32 -157q47 -254 106 -367q17 -32 17 -50t-10 -30.5t-27 -12.5q-54 0 -98 178q-20 78 -35 157q-43 217 -55 244q0 -21 -11 -66.5t-11 -84t10 -165.5t10 -164t-14 -56t-30 -19 q-24 0 -30 33q2 61 2 149t-14 388t-14 448zM153 1008q0 -67 3 -194t3 -184q39 20 62.5 104t23.5 129t-2.5 66t-10.5 47q-15 54 -74 55z" />
<glyph unicode="s" horiz-adv-x="400" d="M60 41v28l86 -12q32 0 55 27t34 68q22 78 22 138.5t-20 120t-49 110t-58 103.5q-69 124 -69 245q0 73 25 130q46 106 123 106q29 0 55 -18.5t26 -40.5q0 -37 -40 -37q-18 0 -35 9q-52 -2 -70 -116q-4 -24 -4 -57.5t14.5 -82t36.5 -86.5t47 -84t47 -90q51 -100 51 -228 q0 -103 -41 -190q-22 -45 -61.5 -73.5t-91.5 -28.5v-4q-30 4 -55 20t-28 43z" />
<glyph unicode="t" horiz-adv-x="441" d="M39 1052q0 16 17.5 26t34.5 10l223 -15l26 1q51 0 51 -40q0 -20 -16.5 -32t-37.5 -12l-75 11l-4 -17q0 -155 27.5 -464.5t27.5 -465.5q0 -20 -15 -34.5t-35 -14.5h-37l-3 147l3 56q-6 21 -26 370t-22 426q-94 2 -116.5 17t-22.5 31z" />
<glyph unicode="u" horiz-adv-x="558" d="M65 1045v39q39 0 62 -30.5t23 -67.5v-793q0 -63 31.5 -115.5t92.5 -52.5q70 0 93 405v7l1 10q21 370 21 599l-1 27q0 19 9 28.5t33.5 9.5t36.5 -13.5t14 -27.5t2 -38l-11 -165l-7 -137l1 -28q-12 -57 -15 -197.5t-14 -226.5t-28.5 -151t-56 -108.5t-86.5 -43.5t-78 17.5 t-49.5 49.5t-32 69.5t-19.5 86.5q-11 85 -11 180l9 432q0 142 -20 235z" />
<glyph unicode="v" horiz-adv-x="585" d="M46 1048.5q0 21.5 12.5 33t29 11.5t30 -13.5t21.5 -38.5t13 -46t9.5 -49t5.5 -35q83 -379 131 -713q13 64 30.5 212t64 392.5t56.5 299.5h37q37 0 37 -21q0 -92 -39 -231.5t-47.5 -191.5t-18 -152t-15.5 -138.5t-21.5 -96.5t-19.5 -78.5t-6 -51.5t-5 -55t-10 -49 q-17 -56 -67 -56l-37 25q0 199 -38 406t-74.5 348t-49.5 178q-29 89 -29 110.5z" />
<glyph unicode="w" horiz-adv-x="672" d="M46 1034q31 -68 35.5 -138.5t6.5 -130t5 -97.5t17 -128.5t17 -113t5 -81.5t6 -118t12 -121q19 -140 68 -140q35 0 51 74q15 66 19 116q2 50 6 74l18 120q31 199 31.5 274t4.5 130q12 -87 24 -250t17.5 -213.5t13.5 -99.5q20 -113 20 -151t3 -53q9 -42 39 -42q60 0 60 166 q0 33 8 71q42 200 42 535v120q2 38 14 117.5t13 108.5q0 39 -46 39t-46 -40q0 -14 5 -28q0 -42 -12.5 -123.5t-12.5 -123.5q0 -313 -27 -541q-9 74 -21 212q-24 301 -65 456v14q0 19 -13 29.5t-31 10.5h-44q-2 -30 -11.5 -130t-9.5 -144.5t-2.5 -86t-5 -72.5t-8.5 -81.5 t-9.5 -72.5t-12 -80.5t-11.5 -74.5q-4 112 -38.5 356t-34.5 362.5t-52 118.5q-34 0 -48 -29z" />
<glyph unicode="x" horiz-adv-x="424" d="M52 1028q0 39 49 39q19 0 30.5 -13t14.5 -28t5.5 -39t6.5 -45.5t23.5 -102.5t28.5 -124q3 19 16 85q24 129 24 176q0 96 44 96h5q23 -2 24 -24q2 -15 0.5 -44t-1.5 -42v-75q-21 -56 -47.5 -186t-26.5 -186.5t29 -154.5t58.5 -188t29.5 -118t-13.5 -40t-31.5 -12t-37 12 q-11 50 -37.5 161.5t-38.5 170.5q-4 -22 -14.5 -121t-25.5 -151q1 -5 1 -19q0 -61 -42 -61q-19 0 -34.5 10t-15.5 28q0 105 46 248t46 218.5t-41.5 262.5t-60.5 214v18q-14 13 -14 35z" />
<glyph unicode="y" horiz-adv-x="464" d="M46 1030v9l37 27q51 -1 120 -253l31 -111q6 17 25 122q49 266 103 266q15 0 27.5 -10t12.5 -25q0 -101 -49.5 -235.5t-49.5 -238.5v-494q0 -80 -21 -100q-12 -9 -35.5 -9t-39.5 36q19 36 19 277q0 46 -6.5 128.5t-7.5 111.5q-32 55 -99 254t-67 245z" />
<glyph unicode="z" horiz-adv-x="440" d="M52 41.5q0 20.5 9 60.5t27.5 100t26 85.5t25.5 111t30 131.5t44 142q76 216 80 333l-133 -10q-18 0 -30.5 14t-12.5 32q0 46 167 46h5q64 0 76.5 -14.5t12.5 -30.5q0 -58 -35.5 -157t-46 -163t-49 -186t-69 -236.5t-34.5 -213.5h28l69 3v1q66 0 66 -40q0 -20 -17.5 -30 t-39.5 -10l-97 4q-10 0 -28.5 -8.5t-33 -8.5t-27.5 12t-13 32.5z" />
<glyph unicode="{" horiz-adv-x="480" d="M46 614.5q0 19.5 11.5 28.5t27.5 10t32 5q40 8 40 75l-8 171q0 59 10 77q-4 24 -4 43q0 75 42.5 123.5t121.5 48.5q52 0 83.5 -15.5t31.5 -33t-14 -27t-32 -9.5l-81 15q-78 0 -78 -200l6 -168q0 -106 -29 -144q30 -36 30 -116v-344q0 -69 12 -88q21 -35 59 -35l97 19 q6 0 10 -14t4 -28t-20 -27q-30 -19 -79 -19q-93 0 -127 50t-34 146v339q0 61 -30 72q-23 9 -44.5 9.5t-29.5 8.5t-8 27.5z" />
<glyph unicode="|" horiz-adv-x="272" d="M88 1208q0 59 57 59q14 0 23.5 -12.5t9.5 -28.5l6 -923v-326q0 -17 -13.5 -29t-30.5 -12q-41 0 -41 155z" />
<glyph unicode="}" horiz-adv-x="476" d="M48 10q0 17 14 26.5t32 9.5l80 -15q79 0 79 200l-8 196q0 118 30 156q-29 38 -29 117l8 202q0 224 -80 224l-96 -18q-7 0 -10.5 14t-3.5 28t19 26q31 20 79 20q92 0 127 -50.5t35 -146.5v-298q0 -69 37 -77q15 -4 30 -5q37 -1 37 -34q0 -39 -36 -40q-15 -1 -30 -4 q-37 -8 -37 -76l6 -201q0 -73 -9 -87q4 -20 4 -44q0 -75 -42 -123t-122 -48q-52 0 -83 15.5t-31 32.5z" />
<glyph unicode="&#xa1;" horiz-adv-x="276" d="M59 1185v5q3 68 63 68q32 0 52 -16t20 -48t-18 -55t-46.5 -23t-49.5 21t-21 48zM97 22l8 537l-7 271q0 88 8 148q8 22 23 22q21 0 33 -49t12 -142.5t16 -380t16 -430.5q0 -16 -11.5 -28t-33 -12t-43 19t-21.5 45z" />
<glyph unicode="&#xa2;" horiz-adv-x="532" d="M67 609.5q0 63.5 1.5 96.5t8.5 83.5t21 85.5q32 85 102 128l-10 91q0 71 44 71q20 -13 23.5 -24t3.5 -43t8 -95q7 -2 26.5 -7.5t31.5 -9t30 -11t29 -15.5q27 -19 30 -48v-4q0 -14 -11 -27.5t-26.5 -13.5t-30 13.5t-22.5 31.5h-46q32 -425 39 -499t5.5 -81t-1.5 -10t2 -9 q44 1 66 25q28 30 55 71q48 0 48 -48q0 -43 -60 -79.5t-110 -40.5v-63l11 -156q0 -16 -11.5 -27t-26.5 -11q-26 26 -26 68l-6 110q0 20 -6 88q-73 27 -101 55.5t-42.5 47t-23.5 46t-14 47.5t-8 55q-3 45 -3 108.5zM146 632q0 -290 116 -307q-9 177 -52 595q-34 -44 -49 -128 t-15 -160z" />
<glyph unicode="&#xa3;" horiz-adv-x="611" d="M51 46.5q0 20.5 17.5 35t46 25.5t39.5 19q25 20 37.5 76.5t12.5 110t-12.5 115t-39 148.5t-34.5 118q-15 2 -25 13.5t-10 32t22 33.5q-1 33 -10.5 106t-9.5 106.5t2 66.5t9 80.5t18.5 84t34 63t52.5 26.5h52q29 0 61.5 -34t52 -77.5t19.5 -72.5v-7l-25 -28 q-34 0 -42 11.5t-9 13.5q-3 4 -14 26v29q-10 19 -14 40q-19 20 -48 24v-16q-16 -20 -43 -95t-27 -104q0 -163 15 -235q26 1 80.5 11t77.5 10t35.5 -12t12.5 -29t-15.5 -28.5t-40 -16t-48.5 -6t-50 -2t-35 -2.5q9 -48 32 -127q54 -181 54 -277q0 -51 -18 -104.5t-20 -62.5 q31 -2 102 -18.5t112 -16.5t72 15l40 -28q0 -65 -85 -65l-80 5h-53q-78 30 -102.5 30t-74 -20t-77.5 -35v3q-18 1 -32.5 11t-14.5 30.5z" />
<glyph unicode="&#xa4;" horiz-adv-x="719" d="M57 214.5q0 19.5 13 37t31.5 35.5t24.5 27q-26 48 -26 140q0 323 58 408q-5 10 -41.5 46.5t-36.5 55t11.5 29.5t23 11t19 -2t13 -4t12.5 -7.5t10.5 -8.5t10 -11t9.5 -10q13 -17 17 -23q1 1 20 22.5t30 32.5q34 35 58 35q96 0 184 -55q7 8 25.5 40.5t36.5 50t43 17.5 l43 -38q-3 -33 -58 -101q-18 -22 -18 -29q0 -48 36 -145.5t36 -149.5t-27 -150.5t-27 -150.5q0 -24 31 -59.5t31 -56t-12 -33t-32 -12.5t-38 11.5t-21 33.5v33q-39 -33 -100 -51.5t-130 -18.5t-140 68q-21 -45 -36 -58t-36.5 -13t-34.5 17t-13 36.5zM188 468q0 -94 45 -131 q0 -93 125 -93q44 0 79.5 29t55.5 71.5t33 97.5q20 89 20 158.5t-15 151t-35 105.5q-18 3 -30 17t-13 32q-37 39 -103 39q-14 0 -44.5 -24t-43.5 -41v-11v-27q0 -35 -28 -35q-14 0 -30 -97.5t-16 -152.5l4 -22z" />
<glyph unicode="&#xa5;" horiz-adv-x="750" d="M35 1390q0 29 50 29q62 0 237 -315q72 -130 78 -138q7 18 32.5 108t50 171.5t58 151t60.5 69.5q18 0 32 -12.5t14 -31.5v-8q-13 -35 -46 -124q-67 -176 -83 -240.5t-34.5 -118t-25.5 -84.5l143 6q101 0 101 -49q0 -38 -90 -38h-158v-56l156 1q88 0 88 -55q0 -14 -14 -23 t-30 -9q-84 0 -204 -3q0 -83 -12.5 -252t-12.5 -255l1 -39q0 -37 -11.5 -59t-36.5 -22q-58 0 -58 38v4q14 35 24 256t10 326h-189q-23 1 -36.5 17t-13.5 37.5t19 27.5q108 0 226 6q2 20 2 60h-119q-105 0 -105 42q0 38 65 38l79 -4q42 0 79 5v10q-26 40 -86 146 q-153 267 -233 361q-7 14 -7 26z" />
<glyph unicode="&#xa6;" horiz-adv-x="264" d="M85 1208q0 59 57 59q34 0 34 -153v-412q0 -17 -13.5 -29t-30.5 -12q-41 0 -41 155zM95 -23v538q0 16 9 28.5t23 12.5q49 0 49 -59v-510q0 -51 -39 -51q-17 0 -29.5 12t-12.5 29z" />
<glyph unicode="&#xa7;" horiz-adv-x="404" d="M61 657.5q0 102.5 73 156.5q-47 96 -47 206q0 134 131 134q23 0 51 -10t28 -29.5t-15 -26t-36 -7t-42.5 -2t-36.5 -15.5t-15 -53.5t19.5 -88.5t48 -91.5t57.5 -88.5q67 -107 67 -235q0 -89 -71 -135q59 -93 59 -175q0 -104 -66 -165q-34 -31 -70.5 -31t-62 18.5 t-25.5 39.5q0 38 40 38q16 0 33 -10q33 1 52 41t19 77t-14 74t-35.5 66t-46 65t-46.5 68q-49 77 -49 179.5zM141 649q0 -48 14 -86q19 -50 71 -124q38 34 38 80.5t-12.5 76.5t-16.5 39t-14.5 28t-14.5 25t-16.5 27t-15.5 25q-33 -43 -33 -91z" />
<glyph unicode="&#xa8;" horiz-adv-x="603" d="M78 818q0 24 16 41t39.5 17t40 -16t16.5 -39.5t-20 -40.5t-44 -17t-36 15.5t-12 39.5zM414 819.5q0 22.5 17.5 40.5t40 18t38.5 -18t16 -41.5t-18 -39.5t-41 -16t-38 17t-15 39.5z" />
<glyph unicode="&#xa9;" horiz-adv-x="986" d="M70 701.5q0 93.5 2.5 149t12 128.5t25.5 136t43.5 126t64.5 108q81 101 210 101q234 0 366 -245q100 -187 123 -464q6 -71 6 -135q0 -622 -452 -622q-227 0 -313 143q-55 89 -71.5 285t-16.5 289.5zM163 753q0 -43 2.5 -87t7 -104t9.5 -149t23 -155q50 -193 244 -193 q161 0 252.5 79.5t130.5 226.5v344q0 43 -15 103t-24.5 104.5t-26 98t-44.5 112.5q-54 117 -168 193q-65 44 -111 44t-89.5 -25.5t-72 -66t-51 -96.5t-35 -112t-20 -119t-10 -109t-2.5 -89zM237 650v10q0 251 41 369q31 82 63 113q62 57 133.5 57t143.5 -58.5t72 -120.5 q0 -17 -12.5 -29.5t-34 -12.5t-40 14t-30 33t-23.5 38q-27 47 -68.5 47t-77.5 -68q-73 -139 -73 -390q0 -157 39 -267q19 -55 51.5 -87t68.5 -32t60.5 13.5t38.5 29.5q37 43 65 43t40 -16.5t12 -43.5t-36 -55q-73 -57 -163 -57q-270 0 -270 470z" />
<glyph unicode="&#xaa;" horiz-adv-x="553" d="M83 431q33 54 148 538q12 109 20 124l23 -2q20 0 29 10q11 0 20.5 -7t9.5 -18l107 -543q14 -72 14 -101.5t-13 -36.5q-34 0 -41.5 9.5t-7.5 31t-3 52t-5.5 49t-9.5 58t-8 51.5q-32 8 -74 8l-43 -2q-11 5 -51 10l-42 -140q-29 -108 -37 -115.5t-22 3.5t-14 21zM130 328 q0 6 107 10t173 4q12 0 24 -8t12 -20q0 -5 -106 -9.5t-147 -4.5t-52 7.5t-11 20.5zM210 714l60 -13q68 -7 79 -11h17l-79 336q-45 -200 -77 -312z" />
<glyph unicode="&#xab;" horiz-adv-x="582" d="M53 549.5q0 26.5 44.5 138.5t100 245t64.5 156q2 21 17 51t31 46v2l16 3q19 0 34.5 -10.5t16.5 -28.5q-38 -86 -112 -292t-123 -310q16 -80 152 -306q133 -219 133 -254q0 -18 -16.5 -27.5t-34 -9.5t-97.5 135.5t-153 285t-73 176zM192 558q2 45 85 226t89 202t11.5 44.5 t11 41.5t14.5 40q20 46 47 46l6 -1l36 -28q-14 -107 -111 -299q-95 -186 -95 -268q0 -12 110 -234t138 -273q0 -7 0.5 -16.5t0 -19t-2.5 -17.5q-3 -20 -22.5 -20t-29.5 4q-26 8 -288 572z" />
<glyph unicode="&#xac;" horiz-adv-x="794" d="M79 610q0 58 175 58l141 -6l259 16q20 0 36.5 -13.5t16.5 -38t-15 -50.5q0 -86 19 -146q-2 -20 -13.5 -35t-29.5 -15q-50 0 -50 94l1 53q0 33 -4 55l-58 4l-437 -17q-17 0 -29 12.5t-12 28.5z" />
<glyph unicode="&#xad;" horiz-adv-x="518" d="M83 572q0 20 39 34.5t96 20.5q98 11 164 11q21 0 38 -13t17 -33.5t-39 -35t-96 -20.5q-102 -11 -165 -11q-21 0 -37.5 13.5t-16.5 33.5z" />
<glyph unicode="&#xae;" horiz-adv-x="928" d="M73.5 759q1.5 51 2 107t7 115t14.5 117.5t24.5 115t37.5 106.5t53 92t70 73q82 65 205 65q68 0 131 -41.5t108 -104.5q73 -44 116 -454q20 -188 20 -287t-1 -148t-8 -143t-20.5 -155.5t-40.5 -138t-65.5 -121.5t-99 -77t-140 -32t-144.5 27t-108 67.5t-74 106.5 t-47.5 127t-25.5 146q-14 122 -14 214v130q-2 42 -0.5 93zM169 763q0 -619 107 -741q16 -19 52 -42.5t46 -30.5h47v-16q189 2 272 173q77 159 77 470t-24 484q-56 405 -247 406q-330 0 -330 -703zM298 376v787q0 88 36 117q35 28 114 28q182 0 182 -292q0 -135 -67 -199 q-14 -15 -26.5 -25t-14.5 -17q2 -61 140 -524q0 -17 14 -46.5t14 -44.5t-15.5 -30.5t-28.5 -15.5q-52 0 -104 192q-30 110 -62.5 256t-41.5 169h-42q-4 -64 -4 -118.5t17.5 -210.5t17.5 -234q0 -54 -44 -54q-22 0 -40 15t-18 43.5t-13.5 98.5t-13.5 105zM369 1126l6 -116 q0 -138 19 -210q142 61 142 218v20q0 182 -83 182q-49 0 -66.5 -24.5t-17.5 -69.5z" />
<glyph unicode="&#xaf;" horiz-adv-x="521" d="M85 605q0 35 72 35l115 3q166 0 166 -44q0 -36 -52 -36l-119 -3q-182 0 -182 45z" />
<glyph unicode="&#xb0;" horiz-adv-x="563" d="M79 585.5q0 81.5 50.5 136t130.5 54.5q144 0 200 -93q28 -46 28 -83t-5 -64t-21 -61t-40 -61q-56 -64 -161 -64q-53 0 -90.5 23.5t-56.5 60.5q-35 70 -35 151.5zM141 532q0 -38 38.5 -79t83 -41t75.5 13t48.5 33t28.5 44q19 41 19 72t-8 52.5t-25 44t-52 36.5t-82 14 t-77 -31q-49 -51 -49 -158z" />
<glyph unicode="&#xb1;" horiz-adv-x="596" d="M71 160q0 17 10 27t27 10h342q59 0 69 -14t10 -29q0 -38 -47 -38l-345 -8q-66 0 -66 52zM71 524q0 17 10 29.5t27 12.5l97 -5q21 0 37 3l-9 120q0 90 53 90q19 0 33.5 -14t14.5 -33v-20q0 -5 -0.5 -24.5t0 -38t0.5 -38.5q2 -45 15 -45l95 6q85 0 85 -49 q0 -20 -13.5 -32.5t-33.5 -12.5l-96 9q-52 0 -52 -40l15 -131q0 -20 -16.5 -32.5t-36.5 -12.5t-37 12t-17 30l5 159v12l-106 -7q-70 0 -70 52z" />
<glyph unicode="&#xb2;" horiz-adv-x="462" d="M45 38v6q34 41 57.5 107.5t32.5 87.5q94 207 139.5 380t45.5 374t-78 207q-27 -14 -37 -78q-9 -60 -48.5 -60t-39.5 50q0 79 46 130q25 27 59 27v1q86 0 124 -53q28 -39 35.5 -70.5t10 -50t4.5 -46.5q2 -44 2 -89q0 -142 -35.5 -320.5t-90.5 -302.5q-10 -23 -58 -118.5 t-66 -150.5q99 17 186 17q40 -10 40 -37q0 -19 -20 -46l-249 -15q-23 0 -41.5 13.5t-18.5 36.5z" />
<glyph unicode="&#xb3;" horiz-adv-x="480" d="M42 1133q23 55 63.5 90t91.5 35t89 -40q35 -1 57 -125t22 -171t-7.5 -70t-15.5 -35.5t-26 -39t-25 -35.5q101 -60 131 -340q6 -61 6 -105t-1.5 -72.5t-7 -67t-17 -66.5t-29.5 -54q-37 -53 -115 -53q-61 0 -90.5 25t-29.5 52v10h27q9 -1 23 -2.5t21 -2.5q17 -1 37 -15 q100 4 100 184q0 240 -44 347q-21 53 -56 97q-4 -1 -16 -1t-43 14v19q0 25 34 64q62 75 62 145q0 63 -11 130q-22 132 -74 132q-20 0 -33.5 -15t-19 -32t-19.5 -32t-34.5 -15t-33 13t-16.5 32z" />
<glyph unicode="&#xb4;" horiz-adv-x="424" d="M72 1071v2q2 32 146 133q56 41 68 52q63 0 63 -44q0 -1 -7 -40q-53 -21 -114.5 -63t-100.5 -83q-55 0 -55 43z" />
<glyph unicode="&#xb5;" horiz-adv-x="548" d="M35 1045v39q39 0 62 -30.5t23 -67.5v-793q0 -90 50 -140q28 -28 69 -28q31 0 54 97q37 159 37 291.5t10 332.5t10 300v27q0 19 8.5 28.5t33.5 9.5t37 -13.5t14 -27.5t2 -38l-11 -165l-8 -137l2 -28q-13 -61 -15.5 -199t-12.5 -224t-27.5 -151.5t-55.5 -108.5t-91 -43.5 t-89 33.5q2 -71 2 -139t-50 -68q-17 0 -27 10t-10 26v241l-6 301v7l9 423q0 142 -20 235z" />
<glyph unicode="&#x3bc;" horiz-adv-x="548" d="M35 1045v39q39 0 62 -30.5t23 -67.5v-793q0 -90 50 -140q28 -28 69 -28q31 0 54 97q37 159 37 291.5t10 332.5t10 300v27q0 19 8.5 28.5t33.5 9.5t37 -13.5t14 -27.5t2 -38l-11 -165l-8 -137l2 -28q-13 -61 -15.5 -199t-12.5 -224t-27.5 -151.5t-55.5 -108.5t-91 -43.5 t-89 33.5q2 -71 2 -139t-50 -68q-17 0 -27 10t-10 26v241l-6 301v7l9 423q0 142 -20 235z" />
<glyph unicode="&#xb6;" horiz-adv-x="748" d="M50 1107q0 147 44 221q48 79 133.5 111t218.5 44q18 18 37.5 18t74.5 -14v-1h43v-3q34 -1 69.5 -13.5t35.5 -37.5q0 -44 -64 -41l12 -477l-10 -702l10 -183q0 -19 -14 -32t-33 -13q-59 0 -59 98l14 860l-11 356l3 53q0 64 -48 64q-7 0 -7 -79.5t10 -268.5t10 -297 t-14.5 -352t-14.5 -367q0 -29 -10 -43t-34 -14t-38 14.5t-14 36.5q0 121 17 363t17 363l-3 107q-172 0 -260 45q-35 19 -64 53q-34 39 -43 103q-4 19 -8 28zM141 1164q0 -166 134 -194q59 -13 139 -13l12 3l-16 398v34q-21 6 -64 6q-84 0 -144 -74t-61 -160z" />
<glyph unicode="&#xb7;" horiz-adv-x="288" d="M85 566q0 24 18.5 43t42.5 19t41.5 -19t17.5 -44.5t-18.5 -42t-43.5 -16.5t-41.5 18t-16.5 42z" />
<glyph unicode="&#xb8;" horiz-adv-x="368" d="M70 -348q0 22 11.5 32.5t33.5 10.5t45 -16q12 1 24.5 18t12.5 30t-3 26t-8.5 30t-7.5 25l28 -28v7q0 29 -13 42q-27 -4 -43 -4t-28.5 10t-31.5 39q15 31 15 90v38h89q-8 -46 -10 -75q62 -12 90.5 -62.5t28.5 -111.5t-44.5 -108.5t-88.5 -47.5t-72 16.5t-28 38.5z" />
<glyph unicode="&#xb9;" horiz-adv-x="481" d="M44 1217q0 43 132 43q58 0 72 -27q-3 -6 -0.5 -34.5t2.5 -56.5t12.5 -128t12.5 -190t18 -348.5t18 -388.5v-10q39 5 60 5q69 0 69 -40q0 -48 -186 -48l-49 -1q-31 0 -49 8.5t-18 36.5v35q52 -4 58 -4q36 0 36 27q0 248 -28 643q-2 35 -9 97q-13 138 -13 210l3 60 q0 77 -57 77l-38 -1q-46 0 -46 35z" />
<glyph unicode="&#xba;" horiz-adv-x="583" d="M109 710q0 24 2 60t31 206q9 49 53 75q25 15 66.5 15t92.5 -8q32 -6 63 -64q65 -104 69 -333q0 -130 -119 -211q-29 -20 -65 -20q-193 0 -193 280zM126 373q0 5 107 9.5t173 4.5q12 0 24 -8.5t12 -19.5q0 -5 -106 -9.5t-147 -4.5t-52 7.5t-11 20.5zM162 763 q3 -285 133 -285q140 0 140 196q0 243 -51 294q-66 67 -108 67q-100 0 -114 -272z" />
<glyph unicode="&#xbb;" horiz-adv-x="604" d="M47 39q56 103 162 307t106 216q0 81 -72 224q-89 174 -111 235.5t-22 107.5l36 28v-2q35 -17 47.5 -44t16.5 -36q8 -19 20 -65t95 -225t85 -227l-286 -573l-34 -3q-20 0 -31 18t-12 39zM177 -6.5q0 19.5 41 94.5t92 158q137 228 153 305q-48 101 -89 236 q-72 247 -148 359q2 20 17 33t35 13l12 -3v-1q18 -18 34 -46.5t19 -51.5q8 -20 64 -155q144 -345 144 -377t-73 -182t-152.5 -285.5t-97.5 -135.5t-34.5 9.5t-16.5 29z" />
<glyph unicode="&#xbc;" horiz-adv-x="1248" d="M44 1217q0 43 132 43q58 0 72 -27q-3 -6 -0.5 -34.5t2.5 -56.5t12.5 -128t12.5 -190t18 -348.5t18 -388.5v-10q39 5 58 5q66 0 66 -40q0 -48 -181 -48l-49 -1q-31 0 -49 8.5t-18 36.5v35q52 -4 58 -4q36 0 36 27q0 248 -28 643q-2 35 -9 97q-13 138 -13 210l3 60 q0 77 -57 77l-38 -1q-46 0 -46 35zM487 24q0 109 50.5 325.5t117 463.5t76 299t11.5 64l4 18q6 32 18 40t24.5 8t25 -11t12.5 -31.5t-5.5 -46t-14.5 -57.5q-34 -119 -112.5 -492.5t-85 -413.5t-13 -69.5t-17.5 -66.5q-23 -79 -56 -79q-35 23 -35 49zM892 410q0 36 7 63 q-7 38 -7 93t12.5 167.5t12.5 165.5v303q0 32 31 32q18 0 33 -11t15 -29l-7 -128q0 -33 6 -59v-5q1 -8 1 -82.5t-11 -213.5t-11 -183.5t2 -61.5q26 1 58 9q-1 277 -12.5 355.5t-11.5 99t16 30.5t34 10l34 -29v-103q0 -227 20 -356l48 4q48 0 48 -35q0 -24 -14 -32t-46 -8 t-32 -15q0 -239 12 -267q-3 -19 -3 -34.5t8 -28.5v-30q0 -61 -39 -61q-25 0 -37 25t-12 52v6q6 19 6 59l-12 159q0 39 6 71q0 28 -3 51l-87 -9v-1q-31 0 -65 27z" />
<glyph unicode="&#xbd;" horiz-adv-x="1288" d="M44 1217q0 43 132 43q58 0 72 -27q-3 -6 -0.5 -34.5t2.5 -56.5t12.5 -128t12.5 -190t18 -348.5t18 -388.5v-10q39 5 58 5q66 0 66 -40q0 -48 -181 -48l-49 -1q-31 0 -49 8.5t-18 36.5v35q52 -4 58 -4q36 0 36 27q0 248 -28 643q-2 35 -9 97q-13 138 -13 210l3 60 q0 77 -57 77l-38 -1q-46 0 -46 35zM487 24q0 109 50.5 325.5t117 463.5t76 299t11.5 64l4 18q6 32 18 40t24.5 8t25 -11t12.5 -31.5t-5.5 -46t-14.5 -57.5q-34 -119 -112.5 -492.5t-85 -413.5t-13 -69.5t-17.5 -66.5q-23 -79 -56 -79q-35 23 -35 49zM877 38v6 q31 39 54 106.5t32 88.5q92 209 137.5 381t45.5 373t-79 207q-26 -14 -37 -78q-8 -60 -46 -60t-38 50q0 79 44 130q25 27 58 27v1q86 0 123 -53q29 -39 36 -70.5t10 -50t5 -46.5q2 -44 2 -89q0 -142 -35.5 -320.5t-90.5 -302.5q-7 -15 -55.5 -114t-66.5 -155q96 17 183 17 l50 -42l-29 -41l-246 -15q-22 0 -39.5 13.5t-17.5 36.5z" />
<glyph unicode="&#xbe;" horiz-adv-x="1244" d="M42 1133q23 55 63.5 90t91.5 35t89 -40q35 -1 57 -125t22 -171t-7.5 -70t-15.5 -35.5t-26 -39t-25 -35.5q101 -60 131 -340q6 -61 6 -105t-1.5 -72.5t-7 -67t-17 -66.5t-29.5 -54q-37 -53 -115 -53q-61 0 -90.5 25t-29.5 52v10h27q9 -1 23 -2.5t21 -2.5q17 -1 37 -15 q100 4 100 184q0 240 -44 347q-21 53 -56 97q-4 -1 -16 -1t-43 14v19q0 25 34 64q62 75 62 145q0 63 -11 130q-22 132 -74 132q-20 0 -33.5 -15t-19 -32t-19.5 -32t-34.5 -15t-33 13t-16.5 32zM483 24q0 109 50.5 325.5t117 463.5t76 299t11.5 64l4 18q6 32 18 40t24.5 8 t25 -11t12.5 -31.5t-5 -46t-15 -57.5q-31 -102 -111 -484t-86.5 -422t-13 -69.5t-17.5 -66.5q-23 -79 -56 -79q-35 23 -35 49zM888 410q0 36 7 63q-7 38 -7 93t12.5 167.5t12.5 165.5v303q0 32 31 32q18 0 33 -11t15 -29l-7 -128q0 -33 6 -59v-5q1 -8 1 -82.5t-11 -213.5 t-11 -183.5t2 -61.5q26 1 58 9q-1 277 -12.5 355.5t-11.5 99t16 30.5t34 10l34 -29v-103q0 -227 20 -356l48 4q48 0 48 -35q0 -24 -14 -32t-46 -8t-32 -15q0 -239 12 -267q-3 -19 -3 -34.5t8 -28.5v-30q0 -61 -39 -61q-25 0 -37 25t-12 52v6q6 19 6 59l-11 159q0 43 5 71 q0 28 -3 51l-87 -9v-1q-31 0 -65 27z" />
<glyph unicode="&#xbf;" horiz-adv-x="928" d="M73.5 759q1.5 51 2 107t7 115t14.5 117.5t24.5 115t37.5 106.5t53 92t70 73q82 65 205 65q68 0 131 -41.5t108 -104.5q73 -44 116 -454q20 -188 20 -287t-1 -148t-8 -143t-20.5 -155.5t-40.5 -138t-65.5 -121.5t-99 -77t-140 -32t-144.5 27t-108 67.5t-74 106.5 t-47.5 127t-25.5 146q-14 122 -14 214v130q-2 42 -0.5 93zM169 763q0 -619 107 -741q16 -19 52 -42.5t46 -30.5h47v-16q189 2 272 173q77 159 77 459q0 226 -19.5 410t-76.5 349v12q-25 39 -81.5 84.5t-93.5 45.5q-330 0 -330 -703zM298 376v787q0 88 36 117q35 28 114 28 q182 0 182 -292q0 -135 -67 -199q-14 -15 -26.5 -25t-14.5 -17q2 -61 140 -524q0 -17 14 -46.5t14 -44.5t-15.5 -30.5t-28.5 -15.5q-52 0 -104 192q-30 110 -62.5 256t-41.5 169h-42q-4 -64 -4 -118.5t17.5 -210.5t17.5 -234q0 -54 -44 -54q-22 0 -40 15t-18 43.5 t-13.5 98.5t-13.5 105zM369 1126l6 -116q0 -138 19 -210q142 61 142 218v20q0 182 -83 182q-49 0 -66.5 -24.5t-17.5 -69.5z" />
<glyph unicode="&#xc0;" d="M73 1456q0 41 22 55q55 0 69.5 -7.5t20 -10.5t37.5 -13.5t52 -18.5t48 -21q56 -26 56 -58q0 -14 -12 -23t-22.5 -9t-27 5t-38.5 13t-40 14.5t-39.5 15.5t-26.5 10q-18 -1 -28 -1q-71 0 -71 49zM46 51q36 54 149 683q44 249 53 289q44 211 95 211q31 0 49 -14v3 q32 -229 67 -597t35 -570q0 -55 -53.5 -55t-53.5 42v214q-23 16 -82.5 27t-106.5 14q-20 -33 -30.5 -136.5t-34.5 -143.5q-79 0 -87 33zM209 371q68 -18 112.5 -18t64.5 5q-3 29 -16 176q-36 376 -36 420v49q-9 -11 -45.5 -232t-41.5 -240t-15 -53q-22 -69 -23 -107z" />
<glyph unicode="&#xc1;" d="M285 1393v2q2 32 146 133q56 41 68 52q63 0 63 -44q0 -1 -7 -40q-53 -21 -114.5 -63t-100.5 -83q-55 0 -55 43zM46 51q36 54 149 683q44 249 53 289q44 211 95 211q31 0 49 -14v3q32 -229 67 -597t35 -570q0 -55 -53.5 -55t-53.5 42v214q-23 16 -82.5 27t-106.5 14 q-20 -33 -30.5 -136.5t-34.5 -143.5q-79 0 -87 33zM209 371q68 -18 112.5 -18t64.5 5q-3 29 -16 176q-36 376 -36 420v49q-9 -11 -45.5 -232t-41.5 -240t-15 -53q-22 -69 -23 -107z" />
<glyph unicode="&#xc2;" d="M206 1389q3 30 29 102t64 138t65 66q41 0 41 -53q0 -36 25 -99.5t25 -91.5v-41l14 -20q0 -19 -16 -29.5t-36 -10.5h-35q-13 136 -32 212q-6 -19 -17.5 -55.5t-17.5 -56.5q-19 -54 -55 -100zM46 51q36 54 149 683q44 249 53 289q44 211 95 211q31 0 49 -14v3 q32 -229 67 -597t35 -570q0 -55 -53.5 -55t-53.5 42v214q-23 16 -82.5 27t-106.5 14q-20 -33 -30.5 -136.5t-34.5 -143.5q-79 0 -87 33zM209 371q68 -18 112.5 -18t64.5 5q-3 29 -16 176q-36 376 -36 420v49q-9 -11 -45.5 -232t-41.5 -240t-15 -53q-22 -69 -23 -107z" />
<glyph unicode="&#xc3;" d="M144 1397q0 56 32.5 95.5t87.5 39.5l81 -41q7 -20 24.5 -39t34.5 -19v1q5 5 16 10q27 11 27 26l-11 36q13 25 38.5 25t40 -23t14.5 -58.5t-31.5 -67t-68.5 -31.5t-68.5 17t-50 35t-44.5 48v2l-42 -25v-78q-28 0 -54 12.5t-26 34.5zM46 51q36 54 149 683q44 249 53 289 q44 211 95 211q31 0 49 -14v3q32 -229 67 -597t35 -570q0 -55 -53.5 -55t-53.5 42v214q-23 16 -82.5 27t-106.5 14q-20 -33 -30.5 -136.5t-34.5 -143.5q-79 0 -87 33zM209 371q68 -18 112.5 -18t64.5 5q-3 29 -16 176q-36 376 -36 420v49q-9 -11 -45.5 -232t-41.5 -240 t-15 -53q-22 -69 -23 -107z" />
<glyph unicode="&#xc4;" d="M113 1404q0 24 16 41t39.5 17t40 -16t16.5 -39.5t-20 -40.5t-44 -17t-36 15.5t-12 39.5zM449 1405.5q0 22.5 17.5 40.5t40 18t38.5 -18t16 -41.5t-18 -39.5t-41 -16t-38 17t-15 39.5zM46 51q36 54 149 683q44 249 53 289q44 211 95 211q31 0 49 -14v3q32 -229 67 -597 t35 -570q0 -55 -53.5 -55t-53.5 42v214q-23 16 -82.5 27t-106.5 14q-20 -33 -30.5 -136.5t-34.5 -143.5q-79 0 -87 33zM209 371q68 -18 112.5 -18t64.5 5q-3 29 -16 176q-36 376 -36 420v49q-9 -11 -45.5 -232t-41.5 -240t-15 -53q-22 -69 -23 -107z" />
<glyph unicode="&#xc5;" d="M250 1349.5q0 35.5 28 65.5t63.5 30t62 -29t26.5 -67t-28.5 -62.5t-66 -24.5t-61.5 26t-24 61.5zM322 1330h30q0 35 -11 46v-22zM46 51q36 54 149 683q44 249 53 289q44 211 95 211q31 0 49 -14v3q32 -229 67 -597t35 -570q0 -55 -53.5 -55t-53.5 42v214q-23 16 -82.5 27 t-106.5 14q-20 -33 -30.5 -136.5t-34.5 -143.5q-79 0 -87 33zM209 371q68 -18 112.5 -18t64.5 5q-3 29 -16 176q-36 376 -36 420v49q-9 -11 -45.5 -232t-41.5 -240t-15 -53q-22 -69 -23 -107z" />
<glyph unicode="&#xc6;" horiz-adv-x="735" d="M54 59q0 34 20.5 137t59.5 242.5t69.5 244.5t75.5 249.5t49.5 159t9 30.5t6 22t6.5 21t9 22t11.5 18t14.5 16q19 14 37 14l125 8q70 0 70 -45v-38q-99 0 -171 -8l12 -219q0 -60 -2.5 -180t-2.5 -180q14 1 54 8t63 7l41 -38q0 -53 -97 -53h-62l5 -431l180 16 q20 0 37 -10.5t17 -29.5q0 -52 -195 -52h-24q-13 0 -33.5 -11.5t-31.5 -12.5l-35 36q14 150 14 200l-8 304q-11 0 -33.5 -1.5t-35.5 -2.5q-40 -4 -67 -13l-80 -308q-2 -7 -9 -43t-13 -62.5t-21 -50.5t-30.5 -24t-25 12t-9.5 46zM258 550q75 5 118 15q6 207 6 317t-2 144 q-85 -292 -122 -476z" />
<glyph unicode="&#xc7;" horiz-adv-x="547" d="M66 788q0 134 11 192q-5 26 -5 51q0 101 75 160.5t186 59.5q39 0 76.5 -22t37.5 -58q0 -17 -13.5 -27t-38.5 -10t-36 20v-3h-25v7q-127 0 -159 -107q-16 -53 -16 -140l5 -113l-14 -114q0 -86 22 -305.5t42 -251.5q36 -53 112.5 -53t116.5 47q28 0 52 8v-22 q0 -110 -122 -129q-7 -44 -8 -76q62 -12 90.5 -62.5t28.5 -112t-45 -109t-88.5 -47.5t-71.5 16.5t-28 39t11.5 33t33.5 10.5t45 -16q12 1 24.5 18t12.5 29.5t-3 26t-8.5 30t-7.5 24.5l28 -28v8q0 28 -13 41q-27 -4 -43.5 -4t-28.5 10t-32 40q16 31 16 90v37q-48 10 -92 44 t-70 91.5t-42 300t-16 376.5z" />
<glyph unicode="&#xc8;" horiz-adv-x="537" d="M35 1458q0 41 23 55q55 0 69.5 -7.5t19.5 -10.5t37 -13.5t52.5 -18.5t48.5 -21q56 -26 56 -58q0 -14 -12 -23t-23 -9t-27.5 5t-38.5 13t-40 14.5t-39.5 15.5t-26.5 10q-16 -1 -28 -1q-71 0 -71 49zM222 43v1183l141 14q25 0 50 -15t25 -39q0 -48 -74 -48l-47 1 q-12 0 -18 -1l13 -270q0 -33 -4 -95.5t-4 -91.5q9 1 24 5q34 9 52.5 9t33.5 -13.5t15 -32.5t-12 -34.5t-31 -15.5l-41 2q-19 0 -29 -12v-506q84 5 86 5q92 0 92 -43v-6q-12 -22 -38.5 -34t-46.5 -13.5t-53 -1.5h-51q-63 0 -76 23q-7 12 -7 30z" />
<glyph unicode="&#xc9;" horiz-adv-x="422" d="M88 46v1182l142 14q24 0 49.5 -14.5t25.5 -38.5q0 -49 -75 -49l-47 2q-12 0 -17 -1l12 -271q0 -32 -4 -95t-4 -92q9 2 24 6q34 9 53 9t33.5 -14t14.5 -33t-12 -34t-31 -15l-41 1q-19 0 -29 -12v-505q84 4 87 4q91 0 91 -43v-5q-11 -23 -38 -35t-47 -13.5t-53 -1.5h-51 q-62 0 -77 24q-6 11 -6 30zM114 1395v2q1 32 145 134q57 40 69 51q62 0 62 -44q0 -1 -7 -40q-53 -21 -114 -63t-100 -83q-55 0 -55 43z" />
<glyph unicode="&#xca;" horiz-adv-x="408" d="M40 1392q3 30 28.5 102t63.5 138t66 66q41 0 41 -53q0 -36 25 -99.5t25 -91.5v-41l14 -20q0 -19 -16.5 -29.5t-35.5 -10.5h-35q-14 137 -32 213q-6 -20 -17.5 -56t-17.5 -56q-19 -55 -55 -100zM92 44v1182l142 15q24 0 49.5 -15t25.5 -39q0 -49 -75 -49l-47 2 q-12 0 -17 -1l12 -270q0 -33 -4 -96t-4 -91q9 1 24 5q34 9 53 9t33.5 -13.5t14.5 -33t-12 -34.5t-31 -15l-41 2q-19 0 -29 -12v-506q84 5 87 5q91 0 91 -43v-6q-11 -22 -38 -34t-47 -14t-53 -2h-51q-62 0 -76 24q-7 12 -7 30z" />
<glyph unicode="&#xcb;" horiz-adv-x="518" d="M34 1406.5q0 23.5 16 41t40 17.5t40.5 -16t16.5 -39.5t-20.5 -40.5t-43.5 -17t-36 15.5t-13 39zM181 43v1183l141 14q25 0 50.5 -15t25.5 -39q0 -48 -75 -48l-47 1q-12 0 -18 -1l13 -270q0 -33 -4 -95.5t-4 -91.5q9 1 24 5q34 9 52.5 9t33.5 -13.5t15 -32.5t-12 -34.5 t-31 -15.5l-41 2q-19 0 -29 -12v-506q84 5 87 5q91 0 91 -43v-6q-11 -22 -38 -34t-47 -13.5t-53 -1.5h-51q-62 0 -77 23q-6 12 -6 30zM370 1408q0 22 18 40.5t40 18.5t38.5 -18t16.5 -41.5t-18.5 -39.5t-41 -16t-38 17t-15.5 39z" />
<glyph unicode="&#xcc;" horiz-adv-x="544" d="M36 1458q0 41 22 55q56 0 70 -7.5t19.5 -10.5t37.5 -13.5t52.5 -18.5t47.5 -21q57 -26 57 -58q0 -14 -12 -23t-23 -9t-27.5 5t-38.5 13t-40 14.5t-39.5 15.5t-26.5 10q-16 -1 -28 -1q-71 0 -71 49zM205 49.5q0 40.5 49 40.5l35 -3q24 0 24 39q0 126 -15.5 378.5 t-15.5 378.5l4 167q0 53 -4 92q-22 -8 -39 -8q-38 0 -38 40q0 20 24.5 34.5t61.5 21.5q69 12 102 12t47.5 -13.5t14.5 -31.5t-10.5 -31t-27.5 -13l-29 1q-16 0 -23.5 -7t-7.5 -27q0 -160 20.5 -479t20.5 -479v-64q17 3 32 3q68 0 68 -58v-9l-40 -28l-60 8h-29q-8 0 -22 -4 q-24 -8 -39 -1q-103 0 -103 40.5z" />
<glyph unicode="&#xcd;" horiz-adv-x="401" d="M49 51.5q0 40.5 49 40.5l35 -2q24 0 24 38q0 126 -15.5 378.5t-15.5 379.5l4 167q0 53 -4 91q-22 -7 -39 -7q-38 0 -38 39q0 20 24.5 35t61.5 21q69 12 102 12t47.5 -13t14.5 -31t-10.5 -31.5t-27.5 -13.5l-29 1q-16 0 -23.5 -7t-7.5 -27q0 -160 20.5 -479t20.5 -479v-63 q17 2 32 2q68 0 68 -57v-10l-40 -28l-60 8v1h-29q-8 0 -21 -4q-25 -9 -40 -2q-103 0 -103 40.5zM93 1395v2q1 32 145 134q57 40 69 51q63 0 63 -44q0 -1 -8 -40q-52 -21 -113.5 -63t-100.5 -83q-55 0 -55 43z" />
<glyph unicode="&#xce;" horiz-adv-x="409" d="M34 1393q4 30 29.5 102t63.5 138t65 66q42 0 42 -53q0 -36 24.5 -99.5t24.5 -91.5v-41l15 -20q0 -19 -16.5 -29.5t-35.5 -10.5h-36q-13 136 -32 212q-6 -19 -17 -55.5t-19 -56.5q-18 -54 -54 -100zM70 50q0 40 49 40l35 -2q24 0 24 38q0 127 -15.5 379.5t-15.5 378.5 l3 167q0 53 -4 91q-21 -7 -38 -7q-38 0 -38 39q0 20 24.5 35t61.5 21q69 12 102 12t47.5 -13t14.5 -31t-11 -31t-27 -13h-29q-16 0 -23.5 -6.5t-7.5 -26.5q0 -160 20.5 -479.5t20.5 -479.5v-63q17 3 32 3q68 0 68 -58v-10l-41 -28l-59 8v1h-29q-8 0 -21 -4q-25 -9 -40 -1 q-103 0 -103 40z" />
<glyph unicode="&#xcf;" horiz-adv-x="520" d="M36 1406.5q0 23.5 16 41t39.5 17.5t40.5 -16t17 -39.5t-20.5 -40.5t-43.5 -17t-36 15.5t-13 39zM165 49.5q0 40.5 49 40.5l35 -3q24 0 24 39q0 126 -15.5 378.5t-15.5 378.5l4 167q0 53 -4 92q-22 -8 -39 -8q-38 0 -38 40q0 20 24.5 34.5t61.5 21.5q69 12 102 12 t47.5 -13.5t14.5 -31.5t-10.5 -31t-27.5 -13l-29 1q-16 0 -23.5 -7t-7.5 -27q0 -160 20.5 -479t20.5 -479v-64q17 3 32 3q68 0 68 -58v-9l-40 -28l-60 8h-29q-8 0 -22 -4q-24 -8 -39 -1q-103 0 -103 40.5zM372 1408q0 22 17.5 40.5t40 18.5t39 -18t16.5 -41.5t-18.5 -39.5 t-41.5 -16t-38 17t-15 39z" />
<glyph unicode="&#xd0;" horiz-adv-x="694" d="M38 947q0 48 100 48h24q0 119 -17.5 361t-17.5 367q0 18 13.5 35.5t31.5 17.5q52 0 137.5 -55t151.5 -130t66 -126q0 -163 47 -409t47 -420.5t-94.5 -346t-254.5 -253.5v2q-48 14 -66 48q0 548 -41 824q-67 -10 -86 -10t-30 14t-11 33zM222 1463q0 -295 33 -461 q27 1 89.5 9t91.5 8t43.5 -20t15.5 -44l-27 -33q-135 0 -212 -9v-1q3 -119 22.5 -368.5t21.5 -380.5q202 176 223 480q4 63 4 131.5t-0.5 109.5t-3.5 108t-8.5 118.5t-16.5 118.5t-26 118t-38.5 107t-52.5 96q-67 92 -159 128v-215z" />
<glyph unicode="&#xd1;" horiz-adv-x="634" d="M74 650v208l12 301q0 61 8 68q21 16 47.5 16t44 -14.5t17.5 -38t7.5 -50t20.5 -60t20 -57t13 -81.5t16 -109t48 -169t67 -225.5t35 -200.5q15 -24 17 -58l6 571v485q9 41 53.5 41t44.5 -64v-10q-10 -21 -10 -48l-7 -605v-501q0 -28 -18 -47t-45.5 -19t-40 12.5t-16 26 t-7 37t-14.5 64.5t-59 197q-96 314 -131 510q-1 5 -1 19q-2 29 -12 41q1 33 -14.5 85.5t-17.5 62.5v-1036h-58v30q3 12 -1 50.5t-4 91t-10.5 243t-10.5 233.5zM100 1404q0 55 32 95t86 40l80 -41q7 -20 24 -39t34 -19v1q5 5 17 10q25 11 25 26l-11 36q13 25 38 25t39 -23 t14 -58.5t-31 -67t-67.5 -31.5t-67 17t-48.5 35t-44 48v2l-42 -25v-78q-27 0 -52.5 12.5t-25.5 34.5z" />
<glyph unicode="&#xd2;" horiz-adv-x="555" d="M0 1456q0 41 22 55q55 0 69.5 -7.5t20 -10.5t37.5 -13.5t52 -18.5t48 -21q56 -26 56 -58q0 -14 -12 -23t-22.5 -9t-27 5t-38.5 13t-40 14.5t-39.5 15.5t-26.5 10q-18 -1 -28 -1q-71 0 -71 49zM65 612.5q0 68.5 2 112.5q3 81 7 143.5t5 96t2 57t5 57.5t9.5 58t17 50.5 t27.5 42.5q37 38 82.5 38t72.5 -9t46 -23t34.5 -36.5t25.5 -44t18 -52.5q11 -38 21 -109q39 -280 39 -500l-14 -207v-7q-11 -46 -11 -98.5t-18 -102t-55 -87.5t-81 -38t-80.5 30.5t-60 78t-42 113.5t-28 129t-15.5 133q-9 106 -9 174.5zM138 682q0 -132 25 -303 q50 -335 140 -335q32 0 54.5 61t31.5 153q16 156 16 226t-0.5 100.5t-2.5 88.5t-7 109t-12 112.5t-19.5 109.5t-28.5 90t-39.5 65t-45.5 23t-35.5 -11.5t-23 -34t-17.5 -47.5t-13.5 -61.5t-9.5 -66t-6.5 -70.5t-4 -66.5t-2 -61.5t-0.5 -48v-33z" />
<glyph unicode="&#xd3;" horiz-adv-x="555" d="M214 1393v2q2 32 146 133q56 41 68 52q63 0 63 -44q0 -1 -7 -40q-53 -21 -114.5 -63t-100.5 -83q-55 0 -55 43zM65 612.5q0 68.5 2 112.5q3 81 7 143.5t5 96t2 57t5 57.5t9.5 58t17 50.5t27.5 42.5q37 38 82.5 38t72.5 -9t46 -23t34.5 -36.5t25.5 -44t18 -52.5 q11 -38 21 -109q39 -280 39 -500l-14 -207v-7q-11 -46 -11 -98.5t-18 -102t-55 -87.5t-81 -38t-80.5 30.5t-60 78t-42 113.5t-28 129t-15.5 133q-9 106 -9 174.5zM138 682q0 -132 25 -303q50 -335 140 -335q32 0 54.5 61t31.5 153q16 156 16 226t-0.5 100.5t-2.5 88.5 t-7 109t-12 112.5t-19.5 109.5t-28.5 90t-39.5 65t-45.5 23t-35.5 -11.5t-23 -34t-17.5 -47.5t-13.5 -61.5t-9.5 -66t-6.5 -70.5t-4 -66.5t-2 -61.5t-0.5 -48v-33z" />
<glyph unicode="&#xd4;" horiz-adv-x="555" d="M65 650.5q0 -51.5 1.5 -97.5t7.5 -115.5t15.5 -132.5t28 -129t42 -113.5t60 -78t80.5 -30.5t81 38t55.5 87.5t18.5 95t14 105.5v7l10 207q0 272 -48 556q-23 136 -90 187q-43 31 -89.5 31t-71 -11t-40.5 -27t-27.5 -42.5t-17 -50.5t-9.5 -58t-5 -57.5t-2 -57t-2 -53 t-5 -81.5q-7 -128 -7 -179.5zM114 1392q5 56 60.5 181t95.5 125t40 -53q0 -36 24 -99.5t24 -91.5v-41l14 -20q0 -19 -16.5 -29.5t-34.5 -10.5h-35q-14 142 -31 213q-6 -19 -17 -55.5t-17 -56.5q-19 -55 -55 -100zM138 682v33q0 71 2 103t4.5 73t6.5 70.5t9.5 66t13.5 61.5 t17.5 47.5t23 34t35.5 11.5t45.5 -23t39.5 -65t28.5 -90t19.5 -109.5t12 -112.5t7 -108q3 -82 3 -139.5t-3.5 -121t-12.5 -155.5t-31.5 -153t-54.5 -61q-45 0 -79.5 82.5t-52.5 198.5q-33 225 -33 357z" />
<glyph unicode="&#xd5;" horiz-adv-x="558" d="M54 1399q0 56 32 95.5t86 39.5l80 -41q7 -19 24.5 -38.5t33.5 -19.5v1q5 5 16 10q26 12 26 26l-10 36q12 26 37 26t39.5 -23.5t14.5 -59t-31.5 -67t-67.5 -31.5t-66.5 17t-49 35t-44.5 49v1l-41 -25v-78q-27 0 -53 12.5t-26 34.5zM68 650.5q0 -51.5 1.5 -97.5t7.5 -115.5 t15.5 -132.5t28 -129t42 -113.5t60 -78t80.5 -30.5t81.5 38t55.5 87.5t18 95t14 105.5v7l10 207q0 272 -48 556q-23 136 -90 187q-42 31 -89 31t-71.5 -11t-40.5 -27t-27.5 -42.5t-17 -50.5t-9.5 -58t-5 -57.5t-1.5 -57t-2 -53t-5.5 -81.5q-7 -128 -7 -179.5zM142 682v33 q0 71 2 103t4 73t6 70.5t9.5 66t13.5 61.5t17.5 47.5t23 34t35.5 11.5t45.5 -23t39.5 -65t28.5 -90t20 -109.5t12 -112.5t6.5 -108q3 -82 3 -139.5t-3 -121t-12.5 -155.5t-32 -153t-54.5 -61q-44 0 -79 82.5t-53 198.5q-32 225 -32 357z" />
<glyph unicode="&#xd6;" horiz-adv-x="575" d="M38 1406q0 24 16 41.5t40 17.5t40.5 -16t16.5 -39.5t-20.5 -40.5t-44 -17t-36 15t-12.5 39zM84 649.5q0 -51.5 1.5 -97.5t7.5 -115.5t15.5 -132t28 -128.5t42 -114t60 -78t80.5 -30t81.5 38t55.5 87t18 94.5t14 105.5v7l10 208q0 271 -48 554q-23 138 -90 187 q-42 32 -89 32t-71.5 -10.5t-40.5 -27t-27.5 -43t-17 -50.5t-9.5 -58t-5 -57t-1.5 -57t-2 -53.5t-5.5 -80.5q-7 -129 -7 -180.5zM158 681v33q0 72 2 104t4 72.5t6 70t9.5 66t13.5 62t17.5 47.5t23 33.5t35.5 11.5t45.5 -23t39.5 -65t28.5 -90t20 -109.5t12 -112.5t6.5 -109 q3 -81 3 -138.5t-3 -120.5t-12.5 -155t-32 -153.5t-54.5 -61.5q-44 0 -79 82.5t-53 199.5q-32 224 -32 356zM370 1408q0 22 17.5 40.5t39.5 18.5t38.5 -18t16.5 -41.5t-18.5 -39.5t-41.5 -16t-37.5 17t-14.5 39z" />
<glyph unicode="&#xd7;" horiz-adv-x="516" d="M52 658q0 19 15 32.5t29 13.5t44 -25.5t68 -61t43 -40.5q23 11 50 48q50 68 89 68q16 0 29.5 -13.5t13.5 -31t-17.5 -36t-37.5 -31.5q-56 -35 -56 -67q0 -28 64 -66t64 -65.5t-18 -45.5t-41 -18h-26q-7 7 -35 39q-73 89 -82 92q-8 -1 -27 -28q-59 -78 -95 -78 q-18 0 -33.5 15t-15.5 31t21.5 38t49.5 46.5t36 35.5q-4 4 -46 38q-86 68 -86 110z" />
<glyph unicode="&#xd8;" horiz-adv-x="495" d="M71 598l3 288v39q0 163 40 256q32 75 96 75q22 0 43 -18v4l41 197h62q-2 -41 -19 -127.5t-17 -133.5q0 -16 28 -42v-43q1 -19 19.5 -57t18.5 -58v-12q2 -48 13 -146t12 -139t2 -103q3 -146 3 -197.5t-0.5 -75t-4 -68t-9.5 -74t-19 -65.5t-32 -58q-44 -53 -112 -53 q-37 0 -65 16q-6 -37 -21 -117l-22 -110l-56 45q0 48 23.5 141t23.5 141q-52 176 -51 495zM146 680q0 -66 10 -158t13 -120q13 127 30.5 314.5t22.5 236t9 77t7 47.5q6 49 6 75q0 39 -30 42v-1h-28v-9q-40 -86 -40 -504zM201 108q0 -26 9.5 -38t41.5 -12q85 0 85 313v138 q0 320 -35 529q-12 -97 -36 -393t-44.5 -403.5t-20.5 -133.5z" />
<glyph unicode="&#xd9;" horiz-adv-x="601" d="M36 1456q0 41 22 55q55 0 69.5 -7.5t20 -10.5t37.5 -13.5t52 -18.5t48 -21q56 -26 56 -58q0 -14 -12 -23t-22.5 -9t-27 5t-38.5 13t-40 14.5t-39.5 15.5t-26.5 10q-18 -1 -28 -1q-71 0 -71 49zM54 1182q0 20 14 35t33 15q59 0 59 -117l15 -569q10 -22 16.5 -87.5 t6.5 -102t12 -89.5t32 -107.5t54 -93t72 -38.5q62 0 66 113v34v735q0 47 -17.5 141t-17.5 127t16.5 45.5t37.5 12.5l49 -38v-28l-14 -100q0 -95 12 -278.5t13 -272.5v-2l3 -48l5 -101v-25l-4 -17l1 -96q0 -144 -41 -204q-39 -56 -119 -56q-99 0 -150 72q-45 60 -66 163 q-26 123 -42 174q-2 4 -18 366.5t-16 402.5q-12 14 -12 34z" />
<glyph unicode="&#xda;" horiz-adv-x="601" d="M250 1393v2q2 32 146 133q56 41 68 52q63 0 63 -44q0 -1 -7 -40q-53 -21 -114.5 -63t-100.5 -83q-55 0 -55 43zM54 1182q0 20 14 35t33 15q59 0 59 -117l15 -569q10 -22 16.5 -87.5t6.5 -102t12 -89.5t32 -107.5t54 -93t72 -38.5q62 0 66 113v34v735q0 47 -17.5 141 t-17.5 127t16.5 45.5t37.5 12.5l49 -38v-28l-14 -100q0 -95 12 -278.5t13 -272.5v-2l3 -48l5 -101v-25l-4 -17l1 -96q0 -144 -41 -204q-39 -56 -119 -56q-99 0 -150 72q-45 60 -66 163q-26 123 -42 174q-2 4 -18 366.5t-16 402.5q-12 14 -12 34z" />
<glyph unicode="&#xdb;" horiz-adv-x="601" d="M167 1389q3 30 29 102t64 138t65 66q41 0 41 -53q0 -36 25 -99.5t25 -91.5v-41l14 -20q0 -19 -16 -29.5t-36 -10.5h-35q-13 136 -32 212q-6 -19 -17.5 -55.5t-17.5 -56.5q-19 -54 -55 -100zM54 1182q0 20 14 35t33 15q59 0 59 -117l15 -569q10 -22 16.5 -87.5t6.5 -102 t12 -89.5t32 -107.5t54 -93t72 -38.5q62 0 66 113v34v735q0 47 -17.5 141t-17.5 127t16.5 45.5t37.5 12.5l49 -38v-28l-14 -100q0 -95 12 -278.5t13 -272.5v-2l3 -48l5 -101v-25l-4 -17l1 -96q0 -144 -41 -204q-39 -56 -119 -56q-99 0 -150 72q-45 60 -66 163 q-26 123 -42 174q-2 4 -18 366.5t-16 402.5q-12 14 -12 34z" />
<glyph unicode="&#xdc;" horiz-adv-x="601" d="M72 1404q0 24 16 41t39.5 17t40 -16t16.5 -39.5t-20 -40.5t-44 -17t-36 15.5t-12 39.5zM408 1405.5q0 22.5 17.5 40.5t40 18t38.5 -18t16 -41.5t-18 -39.5t-41 -16t-38 17t-15 39.5zM54 1182q0 20 14 35t33 15q59 0 59 -117l15 -569q10 -22 16.5 -87.5t6.5 -102t12 -89.5 t32 -107.5t54 -93t72 -38.5q62 0 66 113v34v735q0 47 -17.5 141t-17.5 127t16.5 45.5t37.5 12.5l49 -38v-28l-14 -100q0 -95 12 -278.5t13 -272.5v-2l3 -48l5 -101v-25l-4 -17l1 -96q0 -144 -41 -204q-39 -56 -119 -56q-99 0 -150 72q-45 60 -66 163q-26 123 -42 174 q-2 4 -18 366.5t-16 402.5q-12 14 -12 34z" />
<glyph unicode="&#xdd;" horiz-adv-x="417" d="M172 1393v2q2 32 146 133q56 41 68 52q63 0 63 -44q0 -1 -7 -40q-53 -21 -114.5 -63t-100.5 -83q-55 0 -55 43zM42 1210q0 27 52 27q12 0 25 -9.5t14 -21.5q16 -189 81 -401q4 14 8 68t10 111t16 115q22 132 65.5 132t43.5 -17q0 -92 -39.5 -274.5t-39.5 -277.5l5 -56 v-25l-1 -435v-81v-37q0 -22 -14.5 -35t-32.5 -13t-30.5 11.5t-12.5 28.5l8 317q0 48 -15.5 142t-15.5 151t-19.5 139t-43.5 148q-64 171 -64 293z" />
<glyph unicode="&#xde;" horiz-adv-x="442" d="M78 1038v152q0 48 40 48q56 0 56 -99l-2 -57q66 -9 114 -60q91 -97 91 -250q0 -119 -51.5 -217.5t-148.5 -152.5l12 -343q0 -68 -54 -68q-20 0 -29.5 17.5t-9.5 37.5zM173 481q119 117 119 277q0 120 -42 170q-21 26 -76 71q0 -86 -0.5 -259t-0.5 -259z" />
<glyph unicode="&#xdf;" horiz-adv-x="496" d="M81 999q0 191 89 251q29 18 65 18t63.5 -19t43 -48t24.5 -67q18 -64 18 -135q0 -145 -98 -312q87 -66 116 -138.5t29 -178.5q0 -216 -142 -331l-12 -3q-13 0 -25.5 8t-12.5 21t17.5 40t39 56t39 74.5t17.5 111t-14 127.5t-34.5 93t-40.5 51t-34 34.5t-14 28.5t23 71 q68 170 68 267q0 39 -11 80q-21 79 -58 79q-56 0 -72 -101q-4 -23 -4 -115.5t12.5 -425t12.5 -499.5q0 -35 -11 -55t-42 -20q-48 0 -48 41l8 427z" />
<glyph unicode="&#xe0;" horiz-adv-x="539" d="M70 1290q0 41 22 55q55 0 69.5 -7.5t20 -10.5t37.5 -13.5t52 -18.5t48 -21q56 -26 56 -58q0 -14 -12 -23t-22.5 -9t-27 5t-38.5 13t-40 14.5t-39.5 15.5t-26.5 10q-18 -1 -28 -1q-71 0 -71 49zM50 35q44 166 74.5 347.5t36.5 215.5t28 131t26.5 130t8.5 85q7 114 30 146 h55q56 0 56 -33q0 -316 61 -628q4 -19 12 -51q20 -72 20 -113l-9 -33q0 -20 14.5 -97.5t14.5 -101.5v-2q0 -37 -25 -46q-35 0 -54 11t-19 56.5t-24 185.5l-50 5h-55q-18 8 -65 8q0 -1 -2 -21t-3 -32t-4 -35.5t-6 -40t-8 -38.5t-11 -36.5t-13 -28.5q-14 -28 -35 -28 t-37.5 12.5t-16.5 31.5zM201 326q28 -18 145 -26q-5 24 -5 77.5t-7 130t-19.5 177.5t-17.5 145q-10 -46 -38 -155q-57 -226 -58 -349z" />
<glyph unicode="&#xe1;" horiz-adv-x="539" d="M284 1227v2q2 32 146 133q56 41 68 52q63 0 63 -44q0 -1 -7 -40q-53 -21 -114.5 -63t-100.5 -83q-55 0 -55 43zM50 35q44 166 74.5 347.5t36.5 215.5t28 131t26.5 130t8.5 85q7 114 30 146h55q56 0 56 -33q0 -316 61 -628q4 -19 12 -51q20 -72 20 -113l-9 -33 q0 -20 14.5 -97.5t14.5 -101.5v-2q0 -37 -25 -46q-35 0 -54 11t-19 56.5t-24 185.5l-50 5h-55q-18 8 -65 8q0 -1 -2 -21t-3 -32t-4 -35.5t-6 -40t-8 -38.5t-11 -36.5t-13 -28.5q-14 -28 -35 -28t-37.5 12.5t-16.5 31.5zM201 326q28 -18 145 -26q-5 24 -5 77.5t-7 130 t-19.5 177.5t-17.5 145q-10 -46 -38 -155q-57 -226 -58 -349z" />
<glyph unicode="&#xe2;" horiz-adv-x="539" d="M201 1223q3 30 29 102t64 138t65 66q41 0 41 -53q0 -36 25 -99.5t25 -91.5v-41l14 -20q0 -19 -16 -29.5t-36 -10.5h-35q-13 136 -32 212q-6 -19 -17.5 -55.5t-17.5 -56.5q-19 -54 -55 -100zM50 35q44 166 74.5 347.5t36.5 215.5t28 131t26.5 130t8.5 85q7 114 30 146h55 q56 0 56 -33q0 -316 61 -628q4 -19 12 -51q20 -72 20 -113l-9 -33q0 -20 14.5 -97.5t14.5 -101.5v-2q0 -37 -25 -46q-35 0 -54 11t-19 56.5t-24 185.5l-50 5h-55q-18 8 -65 8q0 -1 -2 -21t-3 -32t-4 -35.5t-6 -40t-8 -38.5t-11 -36.5t-13 -28.5q-14 -28 -35 -28t-37.5 12.5 t-16.5 31.5zM201 326q28 -18 145 -26q-5 24 -5 77.5t-7 130t-19.5 177.5t-17.5 145q-10 -46 -38 -155q-57 -226 -58 -349z" />
<glyph unicode="&#xe3;" horiz-adv-x="539" d="M137 1231q0 56 32.5 95.5t87.5 39.5l81 -41q7 -20 24.5 -39t34.5 -19v1q5 5 16 10q27 11 27 26l-11 36q13 25 38.5 25t40 -23t14.5 -58.5t-31.5 -67t-68.5 -31.5t-68.5 17t-50 35t-44.5 48v2l-42 -25v-78q-28 0 -54 12.5t-26 34.5zM50 35q44 166 74.5 347.5t36.5 215.5 t28 131t26.5 130t8.5 85q7 114 30 146h55q56 0 56 -33q0 -316 61 -628q4 -19 12 -51q20 -72 20 -113l-9 -33q0 -20 14.5 -97.5t14.5 -101.5v-2q0 -37 -25 -46q-35 0 -54 11t-19 56.5t-24 185.5l-50 5h-55q-18 8 -65 8q0 -1 -2 -21t-3 -32t-4 -35.5t-6 -40t-8 -38.5 t-11 -36.5t-13 -28.5q-14 -28 -35 -28t-37.5 12.5t-16.5 31.5zM201 326q28 -18 145 -26q-5 24 -5 77.5t-7 130t-19.5 177.5t-17.5 145q-10 -46 -38 -155q-57 -226 -58 -349z" />
<glyph unicode="&#xe4;" horiz-adv-x="539" d="M106 1239q0 24 16 41t39.5 17t40 -16t16.5 -39.5t-20 -40.5t-44 -17t-36 15.5t-12 39.5zM442 1240.5q0 22.5 17.5 40.5t40 18t38.5 -18t16 -41.5t-18 -39.5t-41 -16t-38 17t-15 39.5zM50 35q44 166 74.5 347.5t36.5 215.5t28 131t26.5 130t8.5 85q7 114 30 146h55 q56 0 56 -33q0 -316 61 -628q4 -19 12 -51q20 -72 20 -113l-9 -33q0 -20 14.5 -97.5t14.5 -101.5v-2q0 -37 -25 -46q-35 0 -54 11t-19 56.5t-24 185.5l-50 5h-55q-18 8 -65 8q0 -1 -2 -21t-3 -32t-4 -35.5t-6 -40t-8 -38.5t-11 -36.5t-13 -28.5q-14 -28 -35 -28t-37.5 12.5 t-16.5 31.5zM201 326q28 -18 145 -26q-5 24 -5 77.5t-7 130t-19.5 177.5t-17.5 145q-10 -46 -38 -155q-57 -226 -58 -349z" />
<glyph unicode="&#xe5;" horiz-adv-x="539" d="M243 1271.5q0 35.5 28 65.5t63.5 30t62 -29t26.5 -67t-28.5 -62.5t-66 -24.5t-61.5 26t-24 61.5zM315 1252h30q0 35 -11 46v-22zM50 35q44 166 74.5 347.5t36.5 215.5t28 131t26.5 130t8.5 85q7 114 30 146h55q56 0 56 -33q0 -316 61 -628q4 -19 12 -51q20 -72 20 -113 l-9 -33q0 -20 14.5 -97.5t14.5 -101.5v-2q0 -37 -25 -46q-35 0 -54 11t-19 56.5t-24 185.5l-50 5h-55q-18 8 -65 8q0 -1 -2 -21t-3 -32t-4 -35.5t-6 -40t-8 -38.5t-11 -36.5t-13 -28.5q-14 -28 -35 -28t-37.5 12.5t-16.5 31.5zM201 326q28 -18 145 -26q-5 24 -5 77.5t-7 130 t-19.5 177.5t-17.5 145q-10 -46 -38 -155q-57 -226 -58 -349z" />
<glyph unicode="&#xe6;" horiz-adv-x="736" d="M54 38q0 125 188 652q90 254 98 282t12.5 39.5t13.5 27.5q18 31 67.5 37.5t116.5 6.5t67 -45v-38q-51 -8 -171 -8l12 -219l-5 -232l125 7l33 -30q0 -41 -92 -40h-67l5 -412l180 16q20 0 37 -10.5t17 -29.5q0 -53 -220 -53l-64 1q-11 0 -22 7t-11 18l12 187l-8 272 q-11 0 -33.5 -1.5t-35.5 -2.5q-40 -4 -67 -13l-135 -463q-14 0 -33.5 16t-19.5 28zM258 518q67 3 118 15q6 134 6 216.5t-2 116.5q-94 -240 -122 -348z" />
<glyph unicode="&#xe7;" horiz-adv-x="454" d="M259 -375q0 22 11.5 32.5t33.5 10.5t45 -16q12 1 24.5 18t12.5 30t-3 26t-8.5 30t-7.5 25l28 -28v7q0 29 -13 42q-27 -4 -43 -4t-28.5 10t-31.5 39q15 31 15 90v38h89q-8 -46 -10 -75q62 -12 90.5 -62.5t28.5 -111.5t-44.5 -108.5t-88.5 -47.5t-72 16.5t-28 38.5zM62 396 v96q0 471 115 556q59 43 165 43q17 0 32 -12.5t15 -29.5v-7q-15 -37 -79 -37l-30 1q-27 0 -48.5 -29.5t-32.5 -71t-18 -92.5q-11 -81 -11 -151v-8l-11 -316q0 -100 11 -138.5t22.5 -62t27.5 -39.5q37 -35 94 -35q20 0 36 15q49 0 49 -36q0 -65 -91 -65q-38 0 -77.5 10.5 t-59.5 23.5q-109 71 -109 385z" />
<glyph unicode="&#xe8;" horiz-adv-x="413" d="M-51 1290q0 41 22 55q55 0 69.5 -7.5t20 -10.5t37.5 -13.5t52 -18.5t48 -21q56 -26 56 -58q0 -14 -12 -23t-22.5 -9t-27 5t-38.5 13t-40 14.5t-39.5 15.5t-26.5 10q-18 -1 -28 -1q-71 0 -71 49zM82 30v8q0 20 4 48q4 34 4 53l-8 210l11 478l-9 139q0 116 69 116 q19 0 36 -12q6 -1 30.5 -3t43 -5.5t39.5 -8.5q47 -13 47 -44q0 -34 -48 -51q-75 25 -124 31q2 -35 2 -71l-7 -235q0 -1 5 -25l58 2q79 0 79 -45q0 -24 -14 -42.5t-39.5 -18.5t-44.5 15h-42q5 -63 5 -119l-7 -296q0 -92 59 -92l65 4q62 0 62 -40q0 -25 -21.5 -36.5 t-48.5 -11.5h-154q-21 0 -36 15t-16 37z" />
<glyph unicode="&#xe9;" horiz-adv-x="413" d="M130 1227v2q2 32 146 133q56 41 68 52q63 0 63 -44q0 -1 -7 -40q-53 -21 -114.5 -63t-100.5 -83q-55 0 -55 43zM82 30v8q0 20 4 48q4 34 4 53l-8 210l11 478l-9 139q0 116 69 116q19 0 36 -12q6 -1 30.5 -3t43 -5.5t39.5 -8.5q47 -13 47 -44q0 -34 -48 -51 q-75 25 -124 31q2 -35 2 -71l-7 -235q0 -1 5 -25l58 2q79 0 79 -45q0 -24 -14 -42.5t-39.5 -18.5t-44.5 15h-42q5 -63 5 -119l-7 -296q0 -92 59 -92l65 4q62 0 62 -40q0 -25 -21.5 -36.5t-48.5 -11.5h-154q-21 0 -36 15t-16 37z" />
<glyph unicode="&#xea;" horiz-adv-x="413" d="M80 1223q3 30 29 102t64 138t65 66q41 0 41 -53q0 -36 25 -99.5t25 -91.5v-41l14 -20q0 -19 -16 -29.5t-36 -10.5h-35q-13 136 -32 212q-6 -19 -17.5 -55.5t-17.5 -56.5q-19 -54 -55 -100zM82 30v8q0 20 4 48q4 34 4 53l-8 210l11 478l-9 139q0 116 69 116q19 0 36 -12 q6 -1 30.5 -3t43 -5.5t39.5 -8.5q47 -13 47 -44q0 -34 -48 -51q-75 25 -124 31q2 -35 2 -71l-7 -235q0 -1 5 -25l58 2q79 0 79 -45q0 -24 -14 -42.5t-39.5 -18.5t-44.5 15h-42q5 -63 5 -119l-7 -296q0 -92 59 -92l65 4q62 0 62 -40q0 -25 -21.5 -36.5t-48.5 -11.5h-154 q-21 0 -36 15t-16 37z" />
<glyph unicode="&#xeb;" horiz-adv-x="413" d="M-15 1239q0 24 16 41t39.5 17t40 -16t16.5 -39.5t-20 -40.5t-44 -17t-36 15.5t-12 39.5zM321 1240.5q0 22.5 17.5 40.5t40 18t38.5 -18t16 -41.5t-18 -39.5t-41 -16t-38 17t-15 39.5zM82 30v8q0 20 4 48q4 34 4 53l-8 210l11 478l-9 139q0 116 69 116q19 0 36 -12 q6 -1 30.5 -3t43 -5.5t39.5 -8.5q47 -13 47 -44q0 -34 -48 -51q-75 25 -124 31q2 -35 2 -71l-7 -235q0 -1 5 -25l58 2q79 0 79 -45q0 -24 -14 -42.5t-39.5 -18.5t-44.5 15h-42q5 -63 5 -119l-7 -296q0 -92 59 -92l65 4q62 0 62 -40q0 -25 -21.5 -36.5t-48.5 -11.5h-154 q-21 0 -36 15t-16 37z" />
<glyph unicode="&#xec;" horiz-adv-x="441" d="M-23 1290q0 41 22 55q55 0 69.5 -7.5t20 -10.5t37.5 -13.5t52 -18.5t48 -21q56 -26 56 -58q0 -14 -12 -23t-22.5 -9t-27 5t-38.5 13t-40 14.5t-39.5 15.5t-26.5 10q-18 -1 -28 -1q-71 0 -71 49zM42 1047q0 39 89 38h6q210 0 210 -67q0 -8 -9 -30h-84q6 -60 6 -130 l-9 -313l12 -348v-49q0 -10 -1 -18q-1 -16 5 -25v-3l60 2q67 0 67 -41q0 -21 -16 -35.5t-38 -14.5l-54 5q-4 0 -25 -9t-46 -9t-42 16q-13 -2 -20 -2q-46 0 -61 30q0 32 26 44v6h52l3 22l-11 348l8 365q0 92 -8 174h-63q-29 0 -43 9.5t-14 34.5z" />
<glyph unicode="&#xed;" horiz-adv-x="441" d="M191 1227v2q2 32 146 133q56 41 68 52q63 0 63 -44q0 -1 -7 -40q-53 -21 -114.5 -63t-100.5 -83q-55 0 -55 43zM42 1047q0 39 89 38h6q210 0 210 -67q0 -8 -9 -30h-84q6 -60 6 -130l-9 -313l12 -348v-49q0 -10 -1 -18q-1 -16 5 -25v-3l60 2q67 0 67 -41q0 -21 -16 -35.5 t-38 -14.5l-54 5q-4 0 -25 -9t-46 -9t-42 16q-13 -2 -20 -2q-46 0 -61 30q0 32 26 44v6h52l3 22l-11 348l8 365q0 92 -8 174h-63q-29 0 -43 9.5t-14 34.5z" />
<glyph unicode="&#xee;" horiz-adv-x="441" d="M108 1223q3 30 29 102t64 138t65 66q41 0 41 -53q0 -36 25 -99.5t25 -91.5v-41l14 -20q0 -19 -16 -29.5t-36 -10.5h-35q-13 136 -32 212q-6 -19 -17.5 -55.5t-17.5 -56.5q-19 -54 -55 -100zM42 1047q0 39 89 38h6q210 0 210 -67q0 -8 -9 -30h-84q6 -60 6 -130l-9 -313 l12 -348v-49q0 -10 -1 -18q-1 -16 5 -25v-3l60 2q67 0 67 -41q0 -21 -16 -35.5t-38 -14.5l-54 5q-4 0 -25 -9t-46 -9t-42 16q-13 -2 -20 -2q-46 0 -61 30q0 32 26 44v6h52l3 22l-11 348l8 365q0 92 -8 174h-63q-29 0 -43 9.5t-14 34.5z" />
<glyph unicode="&#xef;" horiz-adv-x="441" d="M13 1239q0 24 16 41t39.5 17t40 -16t16.5 -39.5t-20 -40.5t-44 -17t-36 15.5t-12 39.5zM349 1240.5q0 22.5 17.5 40.5t40 18t38.5 -18t16 -41.5t-18 -39.5t-41 -16t-38 17t-15 39.5zM42 1047q0 39 89 38h6q210 0 210 -67q0 -8 -9 -30h-84q6 -60 6 -130l-9 -313l12 -348 v-49q0 -10 -1 -18q-1 -16 5 -25v-3l60 2q67 0 67 -41q0 -21 -16 -35.5t-38 -14.5l-54 5q-4 0 -25 -9t-46 -9t-42 16q-13 -2 -20 -2q-46 0 -61 30q0 32 26 44v6h52l3 22l-11 348l8 365q0 92 -8 174h-63q-29 0 -43 9.5t-14 34.5z" />
<glyph unicode="&#xf0;" horiz-adv-x="447" d="M64.5 309.5q-0.5 35.5 0.5 70t5 81.5t11 87t20 81t31 70q40 66 103 66q7 0 21 -2q-20 151 -38 238q-68 -7 -136 -7q-13 0 -13 24q0 37 133 54q-24 89 -45 106q-35 6 -50.5 22t-15.5 31t13.5 25t29.5 10q101 0 155 -185q59 3 88 3q13 0 13 -23q0 -31 -84 -47 q42 -194 42 -501l-7 -287q0 -92 -9.5 -123t-19.5 -52t-24 -33q-34 -30 -85 -30q-117 0 -133 159q-4 44 -4 73.5t-0.5 41.5t-1 47.5zM145 260q0 -202 54 -202q47 0 53 64q1 8 1.5 24.5t9.5 130.5t9 258t-47 173q-39 -10 -60 -116q-19 -90 -19 -245v-35l-1 -30v-22z" />
<glyph unicode="&#xf1;" horiz-adv-x="615" d="M163 1231q0 56 32.5 95.5t87.5 39.5l81 -41q7 -20 24.5 -39t34.5 -19v1q5 5 16 10q27 11 27 26l-11 36q13 25 38.5 25t40 -23t14.5 -58.5t-31.5 -67t-68.5 -31.5t-68.5 17t-50 35t-44.5 48v2l-42 -25v-78q-28 0 -54 12.5t-26 34.5zM79 663l10 306q0 110 60 110 q36 0 52 -55q22 -106 77.5 -304t76.5 -301q15 -50 39 -149t38 -148q6 355 6 860l-2 44q0 23 8.5 36t28.5 13t33 -9q25 -20 25 -55q0 -225 -12.5 -577.5t-38.5 -440.5l-14 -5q-10 -4 -15 -4q-19 -4 -32 -4q-18 0 -25 8q-12 14 -17.5 38t-12 47t-50.5 218q-118 516 -145 600 v-245l9 -424v-185q0 -22 -11 -36.5t-31 -14.5q-54 0 -54 100z" />
<glyph unicode="&#xf2;" horiz-adv-x="535" d="M3 1290q0 41 22 55q55 0 69.5 -7.5t20 -10.5t37.5 -13.5t52 -18.5t48 -21q56 -26 56 -58q0 -14 -12 -23t-22.5 -9t-27 5t-38.5 13t-40 14.5t-39.5 15.5t-26.5 10q-18 -1 -28 -1q-71 0 -71 49zM62 501v100v32q0 346 101 428q25 20 55 21q24 -8 57.5 -14.5t49.5 -13.5 q29 -14 63.5 -71t51 -153t16.5 -192v-197q0 -471 -193 -471q-177 0 -199 446q-2 42 -2 85zM152 826l2 -96v-156q0 -20 0.5 -47.5t2 -72t5 -88t8 -92t12.5 -89.5t18 -75q22 -72 57 -72q47 0 72 88q37 132 37 325l2 169q0 178 -15.5 239.5t-29.5 92.5q-27 63 -82 63h-3 q-86 0 -86 -189z" />
<glyph unicode="&#xf3;" horiz-adv-x="535" d="M150 1227v2q2 32 146 133q56 41 68 52q63 0 63 -44q0 -1 -7 -40q-53 -21 -114.5 -63t-100.5 -83q-55 0 -55 43zM62 501v100v32q0 346 101 428q25 20 55 21q24 -8 57.5 -14.5t49.5 -13.5q29 -14 63.5 -71t51 -153t16.5 -192v-197q0 -471 -193 -471q-177 0 -199 446 q-2 42 -2 85zM152 826l2 -96v-156q0 -20 0.5 -47.5t2 -72t5 -88t8 -92t12.5 -89.5t18 -75q22 -72 57 -72q47 0 72 88q37 132 37 325l2 169q0 178 -15.5 239.5t-29.5 92.5q-27 63 -82 63h-3q-86 0 -86 -189z" />
<glyph unicode="&#xf4;" horiz-adv-x="535" d="M133 1223q3 30 29 102t64 138t65 66q41 0 41 -53q0 -36 25 -99.5t25 -91.5v-41l14 -20q0 -19 -16 -29.5t-36 -10.5h-35q-13 136 -32 212q-6 -19 -17.5 -55.5t-17.5 -56.5q-19 -54 -55 -100zM62 501v100v32q0 346 101 428q25 20 55 21q24 -8 57.5 -14.5t49.5 -13.5 q29 -14 63.5 -71t51 -153t16.5 -192v-197q0 -471 -193 -471q-177 0 -199 446q-2 42 -2 85zM152 826l2 -96v-156q0 -20 0.5 -47.5t2 -72t5 -88t8 -92t12.5 -89.5t18 -75q22 -72 57 -72q47 0 72 88q37 132 37 325l2 169q0 178 -15.5 239.5t-29.5 92.5q-27 63 -82 63h-3 q-86 0 -86 -189z" />
<glyph unicode="&#xf5;" horiz-adv-x="535" d="M70 1231q0 56 32.5 95.5t87.5 39.5l81 -41q7 -20 24.5 -39t34.5 -19v1q5 5 16 10q27 11 27 26l-11 36q13 25 38.5 25t40 -23t14.5 -58.5t-31.5 -67t-68.5 -31.5t-68.5 17t-50 35t-44.5 48v2l-42 -25v-78q-28 0 -54 12.5t-26 34.5zM62 501v100v32q0 346 101 428 q25 20 55 21q24 -8 57.5 -14.5t49.5 -13.5q29 -14 63.5 -71t51 -153t16.5 -192v-197q0 -471 -193 -471q-177 0 -199 446q-2 42 -2 85zM152 826l2 -96v-156q0 -20 0.5 -47.5t2 -72t5 -88t8 -92t12.5 -89.5t18 -75q22 -72 57 -72q47 0 72 88q37 132 37 325l2 169 q0 178 -15.5 239.5t-29.5 92.5q-27 63 -82 63h-3q-86 0 -86 -189z" />
<glyph unicode="&#xf6;" horiz-adv-x="535" d="M39 1239q0 24 16 41t39.5 17t40 -16t16.5 -39.5t-20 -40.5t-44 -17t-36 15.5t-12 39.5zM375 1240.5q0 22.5 17.5 40.5t40 18t38.5 -18t16 -41.5t-18 -39.5t-41 -16t-38 17t-15 39.5zM62 501v100v32q0 346 101 428q25 20 55 21q24 -8 57.5 -14.5t49.5 -13.5 q29 -14 63.5 -71t51 -153t16.5 -192v-197q0 -471 -193 -471q-177 0 -199 446q-2 42 -2 85zM152 826l2 -96v-156q0 -20 0.5 -47.5t2 -72t5 -88t8 -92t12.5 -89.5t18 -75q22 -72 57 -72q47 0 72 88q37 132 37 325l2 169q0 178 -15.5 239.5t-29.5 92.5q-27 63 -82 63h-3 q-86 0 -86 -189z" />
<glyph unicode="&#xf7;" horiz-adv-x="571" d="M49 524q0 17 10 27t27 10h341q59 0 69 -14t10 -29q0 -38 -46 -38l-346 -8q-65 0 -65 52zM217 688.5q0 22.5 18 39t41.5 16.5t39.5 -18.5t16 -41t-17 -38t-39 -15.5t-40.5 17.5t-18.5 40zM219 350.5q0 23.5 16 40.5t39.5 17t40.5 -20.5t17 -44t-15 -36t-39 -12.5t-41.5 16 t-17.5 39.5z" />
<glyph unicode="&#xf8;" horiz-adv-x="462" d="M68 515v312q0 47 3 69.5t5.5 47t7.5 41.5t11.5 37.5t16.5 34.5t21 26q24 24 51 24t53 -14v3q17 102 37 178h59q0 -42 -15.5 -121t-17.5 -115v-48q59 -91 59 -139v-13q1 -36 11.5 -110t13 -185.5t2.5 -171t-0.5 -76.5t-2 -47.5t-4.5 -52t-8.5 -50t-14 -49t-21 -41.5 t-28.5 -34q-36 -31 -76.5 -31t-67.5 13q0 -86 -27 -166q-12 -34 -29.5 -34t-26.5 13t-9 29v1q3 34 22 119t19 111.5t-1 33.5t-3 11.5t-4 12t-5.5 22t-8 40t-8 56t-6 49.5t-4 56t-2.5 51t-1.5 57.5t-0.5 49.5zM136 624q0 -62 8.5 -144t9.5 -86q8 68 27 197q42 285 42 433h-27 l-25 22v-8q-35 -76 -35 -414zM186 105q0 -26 10 -36.5t38 -10.5q74 0 74 280q0 384 -30 562q-12 -90 -22 -230q-24 -340 -58 -494q-12 -45 -12 -71z" />
<glyph unicode="&#xf9;" horiz-adv-x="558" d="M198 1299q0 41 22 55q55 0 69.5 -7.5t20 -10.5t37.5 -13.5t52 -18.5t48 -21q56 -26 56 -58q0 -14 -12 -23t-22.5 -9t-27 5t-38.5 13t-40 14.5t-39.5 15.5t-26.5 10q-18 -1 -28 -1q-71 0 -71 49zM65 1045v39q39 0 62 -30.5t23 -67.5v-793q0 -63 31.5 -115.5t92.5 -52.5 q70 0 93 405v7l1 10q21 370 21 599l-1 27q0 19 9 28.5t33.5 9.5t36.5 -13.5t14 -27.5t2 -38l-11 -165l-7 -137l1 -28q-12 -57 -15 -197.5t-14 -226.5t-28.5 -151t-56 -108.5t-86.5 -43.5t-78 17.5t-49.5 49.5t-32 69.5t-19.5 86.5q-11 85 -11 180l9 432q0 142 -20 235z" />
<glyph unicode="&#xfa;" horiz-adv-x="558" d="M237 1236v2q2 32 146 133q56 41 68 52q63 0 63 -44q0 -1 -7 -40q-53 -21 -114.5 -63t-100.5 -83q-55 0 -55 43zM65 1045v39q39 0 62 -30.5t23 -67.5v-793q0 -63 31.5 -115.5t92.5 -52.5q70 0 93 405v7l1 10q21 370 21 599l-1 27q0 19 9 28.5t33.5 9.5t36.5 -13.5 t14 -27.5t2 -38l-11 -165l-7 -137l1 -28q-12 -57 -15 -197.5t-14 -226.5t-28.5 -151t-56 -108.5t-86.5 -43.5t-78 17.5t-49.5 49.5t-32 69.5t-19.5 86.5q-11 85 -11 180l9 432q0 142 -20 235z" />
<glyph unicode="&#xfb;" horiz-adv-x="558" d="M153 1232q3 30 29 102t64 138t65 66q41 0 41 -53q0 -36 25 -99.5t25 -91.5v-41l14 -20q0 -19 -16 -29.5t-36 -10.5h-35q-13 136 -32 212q-6 -19 -17.5 -55.5t-17.5 -56.5q-19 -54 -55 -100zM65 1045v39q39 0 62 -30.5t23 -67.5v-793q0 -63 31.5 -115.5t92.5 -52.5 q70 0 93 405v7l1 10q21 370 21 599l-1 27q0 19 9 28.5t33.5 9.5t36.5 -13.5t14 -27.5t2 -38l-11 -165l-7 -137l1 -28q-12 -57 -15 -197.5t-14 -226.5t-28.5 -151t-56 -108.5t-86.5 -43.5t-78 17.5t-49.5 49.5t-32 69.5t-19.5 86.5q-11 85 -11 180l9 432q0 142 -20 235z" />
<glyph unicode="&#xfc;" horiz-adv-x="558" d="M59 1248q0 24 16 41t39.5 17t40 -16t16.5 -39.5t-20 -40.5t-44 -17t-36 15.5t-12 39.5zM395 1249.5q0 22.5 17.5 40.5t40 18t38.5 -18t16 -41.5t-18 -39.5t-41 -16t-38 17t-15 39.5zM65 1045v39q39 0 62 -30.5t23 -67.5v-793q0 -63 31.5 -115.5t92.5 -52.5q70 0 93 405v7 l1 10q21 370 21 599l-1 27q0 19 9 28.5t33.5 9.5t36.5 -13.5t14 -27.5t2 -38l-11 -165l-7 -137l1 -28q-12 -57 -15 -197.5t-14 -226.5t-28.5 -151t-56 -108.5t-86.5 -43.5t-78 17.5t-49.5 49.5t-32 69.5t-19.5 86.5q-11 85 -11 180l9 432q0 142 -20 235z" />
<glyph unicode="&#xfd;" horiz-adv-x="464" d="M197 1227v2q2 32 146 133q56 41 68 52q63 0 63 -44q0 -1 -7 -40q-53 -21 -114.5 -63t-100.5 -83q-55 0 -55 43zM46 1030v9l37 27q51 -1 120 -253l31 -111q6 17 25 122q49 266 103 266q15 0 27.5 -10t12.5 -25q0 -101 -49.5 -235.5t-49.5 -238.5v-494q0 -80 -21 -100 q-12 -9 -35.5 -9t-39.5 36q19 36 19 277q0 46 -6.5 128.5t-7.5 111.5q-32 55 -99 254t-67 245z" />
<glyph unicode="&#xfe;" horiz-adv-x="442" d="M79 942v248q0 48 39 48q60 0 60 -134l-5 -118q66 -9 114 -60q91 -97 91 -250q0 -102 -53.5 -179.5t-146.5 -118.5l12 -319q0 -68 -54 -68q-20 0 -29.5 17t-9.5 38zM174 457q119 85 119 198q0 60 -3.5 90.5t-19 58t-34.5 46.5t-61 53q0 -74 -0.5 -223t-0.5 -223z" />
<glyph unicode="&#xff;" horiz-adv-x="464" d="M19 1239q0 24 16 41t39.5 17t40 -16t16.5 -39.5t-20 -40.5t-44 -17t-36 15.5t-12 39.5zM355 1240.5q0 22.5 17.5 40.5t40 18t38.5 -18t16 -41.5t-18 -39.5t-41 -16t-38 17t-15 39.5zM46 1030v9l37 27q51 -1 120 -253l31 -111q6 17 25 122q49 266 103 266q15 0 27.5 -10 t12.5 -25q0 -101 -49.5 -235.5t-49.5 -238.5v-494q0 -80 -21 -100q-12 -9 -35.5 -9t-39.5 36q19 36 19 277q0 46 -6.5 128.5t-7.5 111.5q-32 55 -99 254t-67 245z" />
<glyph unicode="&#x131;" horiz-adv-x="441" d="M42 1047q0 39 89 38h6q210 0 210 -67q0 -8 -9 -30h-84q6 -60 6 -130l-9 -313l12 -348v-49q0 -10 -1 -18q-1 -16 5 -25v-3l60 2q67 0 67 -41q0 -21 -16 -35.5t-38 -14.5l-54 5q-4 0 -25 -9t-46 -9t-42 16q-13 -2 -20 -2q-46 0 -61 30q0 32 26 44v6h52l3 22l-11 348l8 365 q0 92 -8 174h-63q-29 0 -43 9.5t-14 34.5z" />
<glyph unicode="&#x152;" horiz-adv-x="917" d="M62 610v106q0 26 2.5 77.5t6.5 88t13 86.5t21 85t31 73t43 61q57 54 132 54q145 0 213 -46v25h260q38 -21 38 -41q0 -38 -48 -38l-175 5q0 -55 11.5 -165.5t11.5 -166.5l-4 -84q0 -26 4 -45h50l7 -2l36 1q33 0 56 -30q0 -51 -45 -51l-80 3h-22q-1 -99 4.5 -281.5 t5.5 -260.5q82 6 106 6v-2h26q109 0 109 -48v-33l-277 -5q-20 0 -39.5 10.5t-19.5 28.5v5q-59 -19 -100.5 -19t-92.5 13t-88.5 33.5t-67.5 54t-50.5 68.5t-35 82.5t-22.5 90.5t-13 98q-7 83 -7 163zM137 601q11 -23 19 -159q16 -252 67 -256q79 -96 193 -96q58 0 98 14 t40 30q0 174 -14.5 498.5t-17.5 464.5q-53 62 -186 62q-87 0 -131 -73q-44 -71 -54 -139q-14 -101 -14 -181l1 -110q0 -37 -1 -55z" />
<glyph unicode="&#x153;" horiz-adv-x="918" d="M63 571v30q0 257 30 366q25 93 47.5 114t47 21t40.5 -20q24 -7 56.5 -12.5t48.5 -9.5q43 -10 81 -70q70 -112 70 -352v-197q0 -471 -211 -471q-53 0 -92.5 39.5t-61 96t-34.5 134.5q-21 118 -21 261l2 62q0 8 -3 8zM153 574q0 -118 13 -259q28 -277 100 -277 q35 0 60.5 35.5t38.5 83.5t21 112q12 97 12 182l-18 382v29q-2 60 -39.5 106.5t-93.5 46.5h-57q-30 -125 -30 -290zM588 29v43q7 18 7 67l-7 210l10 478l-8 139q0 116 68 116q18 0 36 -12q5 -1 30 -3t43.5 -5.5t39.5 -8.5q47 -14 47 -44q0 -33 -48 -51q-76 25 -124 31 q2 -35 2 -71l-7 -235q0 -1 5 -25l58 2q79 0 79 -45q0 -24 -14.5 -42.5t-39.5 -18.5t-44 15h-42q5 -63 5 -119l-7 -296q0 -92 59 -92l65 4q62 0 62 -40q0 -25 -21.5 -36.5t-48.5 -11.5h-155q-20 0 -35 15t-15 36z" />
<glyph unicode="&#x178;" horiz-adv-x="417" d="M-6 1404q0 24 16 41t39.5 17t40 -16t16.5 -39.5t-20 -40.5t-44 -17t-36 15.5t-12 39.5zM330 1405.5q0 22.5 17.5 40.5t40 18t38.5 -18t16 -41.5t-18 -39.5t-41 -16t-38 17t-15 39.5zM42 1210q0 27 52 27q12 0 25 -9.5t14 -21.5q16 -189 81 -401q4 14 8 68t10 111t16 115 q22 132 65.5 132t43.5 -17q0 -92 -39.5 -274.5t-39.5 -277.5l5 -56v-25l-1 -435v-81v-37q0 -22 -14.5 -35t-32.5 -13t-30.5 11.5t-12.5 28.5l8 317q0 48 -15.5 142t-15.5 151t-19.5 139t-43.5 148q-64 171 -64 293z" />
<glyph unicode="&#x2c6;" horiz-adv-x="400" d="M67 781q3 30 29 102t64 138t65 66q41 0 41 -53q0 -36 25 -99.5t25 -91.5v-41l14 -20q0 -19 -16 -29.5t-36 -10.5h-35q-13 136 -32 212q-6 -19 -17.5 -55.5t-17.5 -56.5q-19 -54 -55 -100z" />
<glyph unicode="&#x2da;" horiz-adv-x="332" d="M74 937.5q0 35.5 28 65.5t63.5 30t62 -29t26.5 -67t-28.5 -62.5t-66 -24.5t-61.5 26t-24 61.5zM146 918h30q0 35 -11 46v-22z" />
<glyph unicode="&#x2dc;" horiz-adv-x="536" d="M74 844q0 56 32.5 95.5t87.5 39.5l81 -41q7 -20 24.5 -39t34.5 -19v1q5 5 16 10q27 11 27 26l-11 36q13 25 38.5 25t40 -23t14.5 -58.5t-31.5 -67t-68.5 -31.5t-68.5 17t-50 35t-44.5 48v2l-42 -25v-78q-28 0 -54 12.5t-26 34.5z" />
<glyph unicode="&#x2000;" horiz-adv-x="888" />
<glyph unicode="&#x2001;" horiz-adv-x="1776" />
<glyph unicode="&#x2002;" horiz-adv-x="888" />
<glyph unicode="&#x2003;" horiz-adv-x="1776" />
<glyph unicode="&#x2004;" horiz-adv-x="592" />
<glyph unicode="&#x2005;" horiz-adv-x="444" />
<glyph unicode="&#x2006;" horiz-adv-x="296" />
<glyph unicode="&#x2007;" horiz-adv-x="296" />
<glyph unicode="&#x2008;" horiz-adv-x="222" />
<glyph unicode="&#x2009;" horiz-adv-x="355" />
<glyph unicode="&#x200a;" horiz-adv-x="98" />
<glyph unicode="&#x2010;" horiz-adv-x="519" d="M83 608q0 18 95 23q144 7 184 7q75 0 75 -47q0 -18 -95 -23q-144 -7 -185 -7q-74 0 -74 47z" />
<glyph unicode="&#x2011;" horiz-adv-x="519" d="M83 608q0 18 95 23q144 7 184 7q75 0 75 -47q0 -18 -95 -23q-144 -7 -185 -7q-74 0 -74 47z" />
<glyph unicode="&#x2012;" horiz-adv-x="519" d="M83 608q0 18 95 23q144 7 184 7q75 0 75 -47q0 -18 -95 -23q-144 -7 -185 -7q-74 0 -74 47z" />
<glyph unicode="&#x2013;" horiz-adv-x="716" d="M86 553q0 17 10 27t26 10h137l151 3q224 0 224 -47q0 -16 -11 -26.5t-28 -10.5l-444 8q-65 0 -65 36z" />
<glyph unicode="&#x2014;" horiz-adv-x="888" d="M86 587.5q0 15.5 10 25.5t27 10h490q191 0 191 -43q0 -22 -36 -29t-102 -7h-481q-75 0 -91 19q-8 9 -8 24.5z" />
<glyph unicode="&#x2018;" horiz-adv-x="346" d="M73 1023v5l3 10q0 39 21 91t57 92.5t71 40.5h48v-57q-12 -7 -38.5 -31t-32.5 -32q-16 -21 -20 -37q47 -35 47 -73t-25.5 -58t-55.5 -20t-46 18t-29 51z" />
<glyph unicode="&#x2019;" horiz-adv-x="350" d="M72 954v57q6 7 32 27q54 43 59 73q-47 35 -47 73t25 58t55 20t47 -18t29 -51v-5l-3 -11q0 -38 -20.5 -90t-56.5 -92.5t-71 -40.5h-49z" />
<glyph unicode="&#x201a;" horiz-adv-x="340" d="M66 -104q6 6 32 27q53 43 59 74q-47 34 -47 72t25 58t55 20t47 -18t29 -51v-5l-3 -11q0 -38 -20.5 -90t-56.5 -93t-72 -41h-48v58z" />
<glyph unicode="&#x201c;" horiz-adv-x="516" d="M73 1023v5l3 10q0 39 21 91t57 92.5t71 40.5h48v-57q-12 -7 -38.5 -31t-32.5 -32q-16 -21 -20 -37q47 -35 47 -73t-25.5 -58t-55.5 -20t-46 18t-29 51zM243 1024v5l3 10q0 39 21 91t57 92t71 40h48v-56q-7 -8 -24 -22l-29 -24q-31 -26 -37 -54q46 -36 46 -82t-52 -64 q-14 -6 -37 -6q-40 0 -67 70z" />
<glyph unicode="&#x201d;" horiz-adv-x="548" d="M72 957v57q6 6 32 26q54 43 59 74q-47 34 -47 72.5t25 58.5t55 20t47 -18.5t29 -51.5v-5l-3 -11q0 -37 -20.5 -89t-56.5 -92.5t-71 -40.5h-49zM269 955v58q12 6 38.5 30.5t31.5 31.5q18 24 20 38q-46 34 -46 72.5t25 58.5t56 20q52 0 74 -70v-15q0 -37 -21 -89.5 t-57.5 -93.5t-72.5 -41h-48z" />
<glyph unicode="&#x201e;" horiz-adv-x="519" d="M63 -131q9 18 50.5 64.5t44.5 63.5q-47 34 -47 72.5t25.5 58t56.5 19.5t52 -24.5t21 -60.5t-21 -87.5t-60 -92t-79 -40.5zM247 -104l19 14q18 16 24 21l19 19q24 24 29 47q-47 32 -47 81q0 29 25.5 49t56 20t51.5 -24.5t21 -58.5t-19.5 -86.5t-56 -95.5t-74.5 -43h-48v57 z" />
<glyph unicode="&#x2022;" horiz-adv-x="504" d="M82 532v50q0 32 11 65q13 39 44 89q11 17 48 45t53 28q54 0 93.5 -19t58.5 -49q37 -57 37 -118q0 -101 -52 -172q-45 -63 -119 -63t-124 49t-50 95z" />
<glyph unicode="&#x2026;" horiz-adv-x="747" d="M84 34q0 24 18.5 43t42.5 19t41.5 -19t17.5 -44.5t-18.5 -42t-43.5 -16.5t-41.5 18t-16.5 42zM315 34q0 24 18.5 43t42.5 19t41.5 -19t17.5 -44.5t-18.5 -42t-43.5 -16.5t-41.5 18t-16.5 42zM547 34q0 24 18.5 43t42.5 19t41.5 -19t17.5 -44.5t-18.5 -42t-43.5 -16.5 t-41.5 18t-16.5 42z" />
<glyph unicode="&#x202f;" horiz-adv-x="355" />
<glyph unicode="&#x2039;" horiz-adv-x="442" d="M52 558q2 45 85 226t89 202t11.5 44.5t11 41.5t15.5 40q19 46 46 46l6 -1l36 -28q-14 -107 -112 -299q-94 -186 -94 -268q0 -12 110 -234t138 -273q0 -7 0.5 -16.5t0 -19t-2.5 -17.5q-3 -20 -20 -20l-35 4q-86 130 -173.5 326.5t-111.5 245.5z" />
<glyph unicode="&#x203a;" horiz-adv-x="462" d="M47 39q56 103 162 307t106 216q0 81 -72 224q-89 174 -111 235.5t-22 107.5l36 28v-2q35 -17 47.5 -44t16.5 -36q8 -19 20 -65t95 -225t85 -227l-286 -573l-34 -3q-20 0 -31 18t-12 39z" />
<glyph unicode="&#x205f;" horiz-adv-x="444" />
<glyph unicode="&#x20ac;" horiz-adv-x="591" d="M48 672.5q0 20.5 8.5 25t27.5 4.5h36l-2 128q0 88 12 151q-5 26 -5 50q0 101 75 161t186 60q39 0 76.5 -22t37.5 -58q0 -18 -13.5 -27.5t-31 -9.5t-45 11.5t-48.5 11.5t-46.5 -7.5t-42.5 -19t-29 -32t-18 -38.5t-9 -47q-5 -44 -5 -136.5t-9 -174.5l52 1q110 0 110 -22 q0 -16 -11 -25q-40 -5 -151 -8v-69q119 2 156 5q11 -10 11 -25q0 -38 -126 -38h-32q29 -356 55 -394q37 -54 113 -54t116 48q28 0 52 8v-22q0 -50 -28 -81q-48 -53 -151 -53q-204 0 -232 359q-3 41 -4 70q-4 85 -6 120h-63q-10 9 -10 27q0 29 52 29h18v67h-61 q-15 6 -15 26.5z" />
<glyph unicode="&#x2122;" horiz-adv-x="864" d="M53 1216v43q196 17 269 17l50 -3l30 -31v-4q2 16 23 35.5t40.5 19.5t44.5 -33q-3 -10 -3 -42.5t36 -158t40 -156.5q48 139 91 335q8 41 14 48.5t12 13.5q11 11 31 11t33.5 -12t13.5 -29l-17 -348l11 -288v-18q0 -116 -61 -116q-18 0 -30 10.5t-12 27.5l9 188q0 36 -3 100 t-4 85q-2 -9 -9 -25q-14 -32 -14 -57v-7q-8 -88 -42 -129q-13 -17 -30 -17q-53 0 -86 222q-16 98 -17 105q-3 -69 -3 -206l9 -163q0 -137 -61 -137q-39 0 -39 55l11 176l-2 223q0 160 12 272q-10 -35 -74 -35h-45q-4 -39 -4 -93l10 -390q0 -76 -4 -130l7 -22q0 -35 -56 -50 h-43q9 27 9 127l-8 328l5 162q0 38 -3 67q-65 -7 -76 -7q-65 0 -65 36z" />
<glyph unicode="&#xe000;" horiz-adv-x="1070" d="M0 1070h1070v-1070h-1070v1070z" />
<glyph unicode="&#xfb01;" horiz-adv-x="873" d="M475 1047q0 38 85 38h4h6q210 0 210 -56q0 -9 -9 -31h-84q6 -60 6 -140l-9 -313l12 -348v-49q0 -14 -5 -44h69q67 0 67 -41q0 -18 -11.5 -31t-25.5 -13l-71 -1h-62l-71 -4q-46 0 -61 30q0 24 6 37t25 13h47l3 22l-11 348l8 365q0 92 -8 174h-63q-29 0 -43 9.5t-14 34.5z M67 10l46 -34q55 0 55 82v464q30 -10 58.5 -10t46 13t17.5 35q0 43 -79 43l-30 -1v44l15 329v19q72 0 105 -16q83 0 83 47q0 53 -162 65q-28 1 -52.5 1t-44 -12.5t-19.5 -36.5q0 -72 -8.5 -219t-13 -409t-17.5 -404z" />
<glyph unicode="&#xfb02;" horiz-adv-x="850" d="M510 31l16 732v12q-5 51 -5 154q0 155 57 155q17 0 29 -12t12 -29l-11 -125l5 -393q-10 -23 -10 -89l-6 -261q0 -113 55 -113l68 3q88 0 88 -48q0 -18 -15 -29.5t-34 -13.5q-60 19 -147 19q-26 -15 -50.5 -15t-38 16.5t-13.5 36.5zM67 10l46 -34q55 0 55 82v464 q30 -10 58.5 -10t46 13t17.5 35q0 43 -79 43l-30 -1v44l15 329v19q72 0 105 -16q83 0 83 47q0 53 -162 65q-28 1 -52.5 1t-44 -12.5t-19.5 -36.5q0 -72 -8.5 -219t-13 -409t-17.5 -404z" />
<glyph unicode="&#xfb03;" horiz-adv-x="1306" d="M908 1047q0 38 85 38h4h6q210 0 210 -56q0 -9 -9 -31h-84q6 -60 6 -140l-9 -313l12 -348v-49q0 -14 -5 -44h69q67 0 67 -41q0 -18 -11.5 -31t-25.5 -13l-71 -1h-62l-71 -4q-46 0 -61 30q0 24 6 37t25 13h47l3 22l-11 348l8 365q0 92 -8 174h-63q-29 0 -43 9.5t-14 34.5z M500 10l46 -34q55 0 55 82v464q30 -10 58.5 -10t46 13t17.5 35q0 43 -79 43l-30 -1v44l15 329v19q72 0 105 -16q83 0 83 47q0 53 -162 65q-28 1 -52.5 1t-44 -12.5t-19.5 -36.5q0 -72 -8.5 -219t-13 -409t-17.5 -404zM67 10l46 -34q55 0 55 82v464q30 -10 58.5 -10t46 13 t17.5 35q0 43 -79 43l-30 -1v44l15 329v19q72 0 105 -16q83 0 83 47q0 53 -162 65q-28 1 -52.5 1t-44 -12.5t-19.5 -36.5q0 -72 -8.5 -219t-13 -409t-17.5 -404z" />
<glyph unicode="&#xfb04;" horiz-adv-x="1283" d="M943 31l16 732v12q-5 51 -5 154q0 155 57 155q17 0 29 -12t12 -29l-11 -125l5 -393q-10 -23 -10 -89l-6 -261q0 -113 55 -113l68 3q88 0 88 -48q0 -18 -15 -29.5t-34 -13.5q-60 19 -147 19q-26 -15 -50.5 -15t-38 16.5t-13.5 36.5zM500 10l46 -34q55 0 55 82v464 q30 -10 58.5 -10t46 13t17.5 35q0 43 -79 43l-30 -1v44l15 329v19q72 0 105 -16q83 0 83 47q0 53 -162 65q-28 1 -52.5 1t-44 -12.5t-19.5 -36.5q0 -72 -8.5 -219t-13 -409t-17.5 -404zM67 10l46 -34q55 0 55 82v464q30 -10 58.5 -10t46 13t17.5 35q0 43 -79 43l-30 -1v44 l15 329v19q72 0 105 -16q83 0 83 47q0 53 -162 65q-28 1 -52.5 1t-44 -12.5t-19.5 -36.5q0 -72 -8.5 -219t-13 -409t-17.5 -404z" />
</font>
</defs>
</svg>
