<?xml version="1.0" standalone="no"?>
<!DOCTYPE svg PUBLIC "-//W3C//DTD SVG 1.1//EN" "http://www.w3.org/Graphics/SVG/1.1/DTD/svg11.dtd" >
<svg xmlns="http://www.w3.org/2000/svg">
<metadata>
This is a custom SVG webfont generated by Font Squirrel.
Copyright   : Copyright c 2009 Matt McInerney mattpixelspreadcom
Designer    : Matt McInerney
Foundry     : Matt McInerney
Foundry URL : httptheleagueofmoveabletypecom
</metadata>
<defs>
<font id="OrbitronMedium" horiz-adv-x="1507" >
<font-face units-per-em="2048" ascent="1536" descent="-512" />
<missing-glyph horiz-adv-x="528" />
<glyph unicode=" "  horiz-adv-x="528" />
<glyph unicode="&#x09;" horiz-adv-x="528" />
<glyph unicode="&#xa0;" horiz-adv-x="528" />
<glyph unicode="!" horiz-adv-x="399" d="M106 0v197h197v-197h-197zM106 365v948h197v-948h-197z" />
<glyph unicode="&#x22;" horiz-adv-x="677" d="M109 1016v295h196v-295h-196zM375 1016v295h196v-295h-196z" />
<glyph unicode="#" horiz-adv-x="1452" d="M57 299v197h230l104 323h-276v199h340l98 289h197l-99 -289h391l99 289h196l-98 -289h156v-199h-217l-107 -323h266v-197h-327l-90 -299h-199l92 299h-391l-92 -299h-197l90 299h-166zM483 496h391l107 323h-393z" />
<glyph unicode="$" horiz-adv-x="1435" d="M61 238v75h197v-75q0 -16 12.5 -28.5t28.5 -12.5h322v360h-322q-98 0 -168 69.5t-70 168.5v280q0 98 70 168t168 70h322v196h196v-196h320q98 0 167.5 -69.5t69.5 -168.5v-76h-196v76q0 16 -12.5 28.5t-28.5 12.5h-320v-362h320q98 0 167.5 -69t69.5 -167v-280 q0 -98 -69.5 -168t-167.5 -70h-320v-197h-196v197h-322q-98 0 -168 70t-70 168zM258 795q0 -16 12.5 -28.5t28.5 -12.5h176h146v362h-322q-16 0 -28.5 -12t-12.5 -29v-280zM817 197h320q16 0 28.5 12t12.5 29v280q0 16 -12.5 27.5t-28.5 11.5h-320v-360z" />
<glyph unicode="%" horiz-adv-x="1759" d="M88 930v145q0 98 68.5 168t167.5 70h165q98 0 167 -69.5t69 -168.5v-145q0 -98 -68.5 -168t-167.5 -70h-165q-98 0 -167 70t-69 168zM240 0v233l1286 1080h26v-234l-1284 -1079h-28zM248 893q0 -16 12 -27.5t29 -11.5h235q16 0 28.5 11.5t12.5 27.5v219q0 16 -12 27.5 t-29 11.5h-235q-16 0 -28.5 -11.5t-12.5 -27.5v-219zM1032 236v145q0 98 68.5 167.5t167.5 69.5h166q98 0 166.5 -69.5t68.5 -167.5v-145q0 -98 -68.5 -168t-166.5 -70h-166q-98 0 -167 70t-69 168zM1192 199q0 -16 12.5 -28.5t28.5 -12.5h235q16 0 28.5 12t12.5 29v219 q0 16 -12 27.5t-29 11.5h-235q-16 0 -28.5 -11.5t-12.5 -27.5v-219z" />
<glyph unicode="&#x26;" horiz-adv-x="1708" d="M96 238v370q0 47 33 93.5t86 46.5q-45 35 -45 139v188q0 98 68.5 168t167.5 70h712q86 0 153.5 -56.5t82.5 -140.5v-131h-197v88q0 16 -11 28.5t-28 12.5h-712q-16 0 -27.5 -12t-11.5 -29v-239l845 -428v225h197v-301l231 -135v-189l-249 141q-25 -66 -84.5 -106.5 t-135.5 -40.5h-837q-98 0 -168 70t-70 168zM293 238q0 -16 12 -28.5t29 -12.5h837q27 0 35 22l-852 430h-20q-16 0 -28.5 -12t-12.5 -29v-370z" />
<glyph unicode="'" horiz-adv-x="407" d="M109 1016v295h196v-295h-196z" />
<glyph unicode="(" horiz-adv-x="503" d="M94 238v837q0 98 69.5 168t168.5 70h76v-197h-76q-16 0 -28.5 -12t-12.5 -29v-837q0 -16 12 -28.5t29 -12.5h76v-197h-76q-98 0 -168 70t-70 168z" />
<glyph unicode=")" horiz-adv-x="505" d="M102 0v197h76q16 0 28.5 12t12.5 29v837q0 16 -12 28.5t-29 12.5h-76v197h76q96 0 167 -69.5t71 -168.5v-837q0 -98 -71 -168t-167 -70h-76z" />
<glyph unicode="*" horiz-adv-x="892" d="M45 948l61 187l242 -80v256h197v-256l241 80l64 -187l-244 -78l150 -208l-158 -115l-152 207l-149 -207l-158 115l150 208z" />
<glyph unicode="+" horiz-adv-x="788" d="M31 440v199h262v264h196v-264h271v-199h-271v-266h-196v266h-262z" />
<glyph unicode="," horiz-adv-x="350" d="M98 197h197v-197q0 -88 -56.5 -153.5t-140.5 -79.5v430z" />
<glyph unicode="-" horiz-adv-x="942" d="M109 440v199h729v-199h-729z" />
<glyph unicode="." horiz-adv-x="389" d="M98 0v197h197v-197h-197z" />
<glyph unicode="/" horiz-adv-x="948" d="M10 0v233l903 1080h27v-234l-901 -1079h-29z" />
<glyph unicode="0" horiz-adv-x="1519" d="M104 238v837q0 98 69 168t167 70h840q98 0 167.5 -69.5t69.5 -168.5v-837q0 -98 -69.5 -168t-167.5 -70h-840q-98 0 -167 70t-69 168zM301 399l852 717h-813q-16 0 -27.5 -12t-11.5 -29v-676zM367 197h813q16 0 27.5 12t11.5 29v675z" />
<glyph unicode="1" horiz-adv-x="710" d="M2 870l371 443h233v-1313h-196v1051l-152 -181h-256z" />
<glyph unicode="2" horiz-adv-x="1511" d="M104 0v500q0 98 69 167.5t167 69.5h840q16 0 27.5 11.5t11.5 27.5v299q0 16 -11.5 28.5t-27.5 12.5h-840q-16 0 -27.5 -12t-11.5 -29v-76h-197v76q0 98 69 168t167 70h840q98 0 167.5 -69.5t69.5 -168.5v-299q0 -98 -69.5 -167.5t-167.5 -69.5h-840q-16 0 -27.5 -11.5 t-11.5 -27.5v-262q0 -16 11.5 -28.5t27.5 -12.5h1077v-197h-1313z" />
<glyph unicode="3" horiz-adv-x="1505" d="M96 238v53h197v-53q0 -16 12 -28.5t29 -12.5h837q16 0 28.5 12t12.5 29v292q0 16 -12 28.5t-29 12.5h-837v197h784q16 0 27.5 11.5t11.5 27.5v268q0 16 -11 28.5t-28 12.5h-784q-16 0 -28.5 -12t-12.5 -29v-71h-197v71q0 98 70 168t168 70h784q98 0 167 -69.5t69 -168.5 v-268q0 -51 -23 -102q78 -68 78 -175v-292q0 -98 -69.5 -168t-168.5 -70h-837q-98 0 -168 70t-70 168z" />
<glyph unicode="4" horiz-adv-x="1329" d="M10 334v196l869 783h196v-783h193v-196h-193v-334h-196v334h-869zM297 530h582v474z" />
<glyph unicode="5" horiz-adv-x="1511" d="M104 238v75h197v-75q0 -16 11.5 -28.5t27.5 -12.5h840q16 0 27.5 12t11.5 29v299q0 16 -11.5 27t-27.5 11h-1076v197h5q-4 27 -5 41v500h1313v-197h-1077q-16 0 -27.5 -12t-11.5 -29v-262q0 -16 11.5 -28.5t27.5 -12.5h840q98 0 167.5 -68.5t69.5 -166.5v-299 q0 -98 -69.5 -168t-167.5 -70h-840q-98 0 -167 70t-69 168z" />
<glyph unicode="6" horiz-adv-x="1492" d="M104 238v837q0 98 69 168t167 70h858v-197h-858q-16 0 -27.5 -12t-11.5 -29v-262q0 -16 11.5 -28.5t27.5 -12.5h621h219q98 0 167.5 -68.5t69.5 -166.5v-299q0 -98 -69.5 -168t-167.5 -70h-840q-98 0 -167 70t-69 168zM301 238q0 -16 11.5 -28.5t27.5 -12.5h840 q16 0 27.5 12t11.5 29v299q0 16 -11.5 27t-27.5 11h-879v-337z" />
<glyph unicode="7" horiz-adv-x="1202" d="M6 1116v197h19h837q98 0 168 -69.5t70 -168.5v-1075h-197v1075q0 16 -12 28.5t-29 12.5h-856z" />
<glyph unicode="8" horiz-adv-x="1519" d="M104 238v299q0 78 46 137q-45 61 -46 139v262q0 98 69 168t167 70h840q88 0 154.5 -56.5t82.5 -140.5v-303q0 -78 -47 -139q47 -59 47 -137v-299q0 -98 -69.5 -168t-167.5 -70h-840q-98 0 -167 70t-69 168zM301 238q0 -16 11.5 -28.5t27.5 -12.5h840q16 0 27.5 12 t11.5 29v299q0 16 -11.5 27t-27.5 11h-840q-16 0 -27.5 -11t-11.5 -27v-299zM301 793q0 -16 11.5 -27.5t27.5 -11.5h840q16 0 27.5 11t11.5 28v280q0 16 -11.5 28.5t-27.5 12.5h-840q-16 0 -27.5 -12t-11.5 -29v-280z" />
<glyph unicode="9" d="M92 776v299q0 98 69.5 168t168.5 70h837q100 0 169 -69.5t69 -168.5v-837q0 -98 -68.5 -168t-169.5 -70h-837q-88 0 -153.5 56.5t-80.5 140.5h1071q16 0 28.5 12t12.5 29v262q0 16 -12 27.5t-29 11.5h-618h-219q-98 0 -168 69.5t-70 167.5zM291 776q0 -16 11 -27.5 t28 -11.5h878v338q0 16 -12 28.5t-29 12.5h-837q-16 0 -27.5 -12t-11.5 -29v-299z" />
<glyph unicode=":" horiz-adv-x="389" d="M98 0v197h197v-197h-197zM98 874v197h197v-197h-197z" />
<glyph unicode=";" horiz-adv-x="350" d="M92 197h199v-197q0 -88 -57.5 -153.5t-141.5 -79.5v430zM92 874v197h199v-197h-199z" />
<glyph unicode="&#x3c;" horiz-adv-x="860" d="M8 440v199l750 430v-227l-527 -303l527 -303v-228z" />
<glyph unicode="=" horiz-adv-x="1161" d="M109 260v197h946v-197h-946zM109 606v197h946v-197h-946z" />
<glyph unicode="&#x3e;" horiz-adv-x="864" d="M109 4v227l526 306l-526 301v229l747 -432v-197z" />
<glyph unicode="?" horiz-adv-x="1234" d="M57 1116v197h906q98 0 167.5 -69.5t69.5 -168.5v-336q0 -98 -69.5 -166.5t-167.5 -68.5h-474q-16 0 -27 -12.5t-11 -28.5v-101h-197v101q0 98 68.5 167.5t166.5 69.5h474q16 0 28.5 11.5t12.5 27.5v336q0 16 -12.5 28.5t-28.5 12.5h-906zM254 0v197h197v-197h-197z" />
<glyph unicode="@" horiz-adv-x="1513" d="M104 238v837q0 98 69 168t167 70h840q98 0 167.5 -69.5t69.5 -168.5v-729h-739q-98 0 -168 69.5t-70 168.5v145q0 98 70 168t168 70h164q98 0 167.5 -70t69.5 -168v-223h140v569q0 16 -11.5 28.5t-27.5 12.5h-840q-16 0 -27.5 -12t-11.5 -29v-837q0 -16 11.5 -28.5 t27.5 -12.5h1077v-197h-1077q-98 0 -167 70t-69 168zM602 547q0 -16 11.5 -28.5t27.5 -12.5h279v260q0 16 -12.5 27.5t-28.5 11.5h-238q-16 0 -27.5 -11.5t-11.5 -27.5v-219z" />
<glyph unicode="A" horiz-adv-x="1523" d="M106 0v1075q0 98 69 168t167 70h840q98 0 166.5 -69.5t68.5 -168.5v-1075h-196v459h-918v-459h-197zM303 655h918v420q0 16 -11.5 28.5t-27.5 12.5h-840q-16 0 -27.5 -12t-11.5 -29v-420z" />
<glyph unicode="B" horiz-adv-x="1515" d="M109 0v1313h1019q98 0 168 -69.5t70 -168.5v-268q0 -51 -25 -102q78 -68 78 -175v-292q0 -98 -68.5 -168t-166.5 -70h-1075zM305 238q0 -16 11.5 -28.5t27.5 -12.5h840q16 0 27.5 12t11.5 29v292q0 16 -11.5 28.5t-27.5 12.5h-840q-16 0 -27.5 -12t-11.5 -29v-292z M305 807q0 -16 11.5 -27.5t27.5 -11.5h784q16 0 27.5 11.5t11.5 27.5v268q0 16 -11 28.5t-28 12.5h-784q-16 0 -27.5 -12t-11.5 -29v-268z" />
<glyph unicode="C" horiz-adv-x="1497" d="M102 238v837q0 98 69 168t169 70h1071v-197h-1071q-16 0 -28.5 -12t-12.5 -29v-837q0 -16 12.5 -28.5t28.5 -12.5h1071v-197h-1071q-100 0 -169 70t-69 168z" />
<glyph unicode="D" horiz-adv-x="1519" d="M106 0v1313h1076q98 0 166.5 -69.5t68.5 -168.5v-837q0 -98 -68.5 -168t-166.5 -70h-1076zM303 238q0 -16 11.5 -28.5t27.5 -12.5h840q16 0 27.5 12t11.5 29v837q0 16 -11.5 28.5t-27.5 12.5h-840q-16 0 -27.5 -12t-11.5 -29v-837z" />
<glyph unicode="E" horiz-adv-x="1394" d="M106 0v1313h1203v-197h-1006v-362h809v-197h-809v-360h1006v-197h-1203z" />
<glyph unicode="F" horiz-adv-x="1316" d="M106 0v1313h1203v-197h-1006v-362h809v-197h-809v-557h-197z" />
<glyph unicode="G" horiz-adv-x="1511" d="M102 238v837q0 98 69 168t169 70h838q98 0 167.5 -69.5t69.5 -168.5v-78h-196v78q0 16 -12.5 28.5t-28.5 12.5h-838q-16 0 -28.5 -12t-12.5 -29v-837q0 -16 12.5 -28.5t28.5 -12.5h838q16 0 28.5 12t12.5 29v284h-312v197h508v-481q0 -98 -69.5 -168t-167.5 -70h-838 q-100 0 -169 70t-69 168z" />
<glyph unicode="H" horiz-adv-x="1550" d="M104 0v1313h197v-559h950v559h197v-1313h-197v557h-950v-557h-197z" />
<glyph unicode="I" horiz-adv-x="399" d="M104 0v1313h197v-1313h-197z" />
<glyph unicode="J" horiz-adv-x="1421" d="M8 238v127h197v-127q0 -16 11 -28.5t28 -12.5h839q16 0 27.5 12t11.5 29v1075h197v-1075q0 -98 -68.5 -168t-167.5 -70h-839q-98 0 -167 70t-69 168z" />
<glyph unicode="K" horiz-adv-x="1452" d="M104 0v1313h197v-559h365l469 559h233v-29l-528 -629l528 -628v-27h-233l-469 557h-365v-557h-197z" />
<glyph unicode="L" horiz-adv-x="1419" d="M104 0v1315h197v-1118h1116v-197h-1313z" />
<glyph unicode="M" horiz-adv-x="1689" d="M102 0v1313h234l510 -608l508 608h235v-1313h-196v1051l-547 -652l-547 652v-1051h-197z" />
<glyph unicode="N" horiz-adv-x="1515" d="M102 0v1313h234l883 -1051v1051h196v-1313h-233l-883 1051v-1051h-197z" />
<glyph unicode="O" d="M98 238v837q0 98 70 168t168 70h838q98 0 167.5 -69.5t69.5 -168.5v-837q0 -98 -69.5 -168t-167.5 -70h-838q-98 0 -168 70t-70 168zM295 238q0 -16 12 -28.5t29 -12.5h838q16 0 28 12t12 29v837q0 16 -12 28.5t-28 12.5h-838q-16 0 -28.5 -12t-12.5 -29v-837z" />
<glyph unicode="P" horiz-adv-x="1439" d="M102 0v1311h1076q98 0 167.5 -71t69.5 -167v-368q0 -96 -69.5 -166t-167.5 -70h-838q-16 0 -41 4v-473h-197zM299 705q0 -16 12.5 -27.5t28.5 -11.5h838q16 0 28.5 11t12.5 28v368q0 16 -12.5 28.5t-28.5 12.5h-838q-16 0 -28.5 -12t-12.5 -29v-368z" />
<glyph unicode="Q" horiz-adv-x="1609" d="M98 238v837q0 98 70 168t168 70h838q98 0 167.5 -69.5t69.5 -168.5v-837q0 -14 -4 -41h168v-197h-1239q-98 0 -168 70t-70 168zM295 238q0 -16 12 -28.5t29 -12.5h838q16 0 28 12t12 29v837q0 16 -12 28.5t-28 12.5h-838q-16 0 -28.5 -12t-12.5 -29v-837z" />
<glyph unicode="R" horiz-adv-x="1503" d="M100 0v1311h1076q98 0 167.5 -71t69.5 -167v-368q0 -96 -69.5 -166t-167.5 -70h-134l371 -442v-27h-233l-394 469h-448q-14 0 -41 4v-473h-197zM297 705q0 -16 12.5 -27.5t28.5 -11.5h838q16 0 28.5 11t12.5 28v368q0 16 -12.5 28.5t-28.5 12.5h-838q-16 0 -28.5 -12 t-12.5 -29v-368z" />
<glyph unicode="S" horiz-adv-x="1497" d="M92 238v75h199v-75q0 -16 11 -28.5t28 -12.5h837q16 0 28.5 12t12.5 29v280q0 16 -12 27.5t-29 11.5h-837q-98 0 -168 69.5t-70 168.5v280q0 98 69.5 168t168.5 70h837q100 0 169 -69.5t69 -168.5v-76h-197v76q0 16 -12 28.5t-29 12.5h-837q-16 0 -27.5 -12t-11.5 -29 v-280q0 -16 11 -28.5t28 -12.5h837q100 0 169 -69t69 -167v-280q0 -98 -68.5 -168t-169.5 -70h-837q-98 0 -168 70t-70 168z" />
<glyph unicode="T" horiz-adv-x="1382" d="M37 1116v197h1313v-197h-559v-1116h-197v1116h-557z" />
<glyph unicode="U" d="M98 238v1075h197v-1075q0 -16 12 -28.5t29 -12.5h838q16 0 28 12t12 29v1075h197v-1075q0 -98 -69.5 -168t-167.5 -70h-838q-98 0 -168 70t-70 168z" />
<glyph unicode="V" horiz-adv-x="1826" d="M63 1313h228l629 -1090l628 1090h228l-756 -1313h-199z" />
<glyph unicode="W" horiz-adv-x="2148" d="M63 1313h211l347 -957l348 957h211l348 -957l348 957h209l-477 -1313h-160l-375 1022l-371 -1022l-4 2l2 -2h-159z" />
<glyph unicode="X" horiz-adv-x="1478" d="M84 0v27l526 628l-526 629v29h233l422 -504l424 504h234v-29l-529 -629l529 -628v-27h-234l-424 504l-422 -504h-233z" />
<glyph unicode="Y" horiz-adv-x="1468" d="M31 1313h231l473 -598l469 598h234l-604 -821v-492h-197v492z" />
<glyph unicode="Z" horiz-adv-x="1495" d="M92 0v233l1051 883h-1051v197h1313v-234l-1049 -882h1049v-197h-1313z" />
<glyph unicode="[" horiz-adv-x="499" d="M98 0v1313h314v-197h-117v-919h117v-197h-314z" />
<glyph unicode="\" horiz-adv-x="946" d="M8 1079v234h29l901 -1080v-233h-27z" />
<glyph unicode="]" horiz-adv-x="501" d="M92 0v197h117v919h-117v197h314v-1313h-314z" />
<glyph unicode="_" d="M98 0h1313v-197h-1313v197z" />
<glyph unicode="`" horiz-adv-x="387" d="M57 1802h199l72 -295h-197z" />
<glyph unicode="a" horiz-adv-x="1263" d="M94 238v389h879v192q0 18 -11.5 29.5t-27.5 11.5h-840v197h840q98 0 166.5 -68.5t68.5 -169.5v-819h-837q-98 0 -168 70t-70 168zM291 238q0 -16 12 -28.5t29 -12.5h641v233h-682v-192z" />
<glyph unicode="b" horiz-adv-x="1214" d="M98 0v1403h197v-346h641q100 0 169 -68.5t69 -169.5v-581q0 -98 -69 -168t-169 -70h-838zM295 238q0 -16 12 -28.5t29 -12.5h600q16 0 28.5 12t12.5 29v581q0 18 -12.5 29.5t-28.5 11.5h-600q-16 0 -28.5 -11t-12.5 -30v-581z" />
<glyph unicode="c" horiz-adv-x="1265" d="M92 238v581q0 100 69.5 169t168.5 69h835v-197h-835q-16 0 -27.5 -11t-11.5 -30v-581q0 -16 11 -28.5t28 -12.5h837v-197h-837q-98 0 -168 70t-70 168z" />
<glyph unicode="d" horiz-adv-x="1214" d="M41 238v581q0 100 69.5 169t168.5 69h641v346h198v-1403h-839q-98 0 -168 70t-70 168zM240 238q0 -16 11 -28.5t28 -12.5h602q16 0 27.5 12t11.5 29v581q0 18 -11.5 29.5t-27.5 11.5h-602q-16 0 -27.5 -11t-11.5 -30v-581z" />
<glyph unicode="e" horiz-adv-x="1259" d="M92 238v581q0 100 69.5 169t168.5 69h602q98 0 166.5 -68.5t68.5 -169.5v-389h-876v-192q0 -16 11 -28.5t28 -12.5h837v-197h-837q-98 0 -168 70t-70 168zM291 627h680v192q0 18 -11.5 29.5t-27.5 11.5h-602q-16 0 -27.5 -11t-11.5 -30v-192z" />
<glyph unicode="f" horiz-adv-x="741" d="M96 0v584v583q0 98 70 167t168 69h393v-197h-393q-16 0 -28.5 -11t-12.5 -28v-110h434v-197h-434v-860h-197z" />
<glyph unicode="g" horiz-adv-x="1243" d="M74 238v581q0 100 69.5 169t167.5 69h602q98 0 168 -68.5t70 -169.5v-416v-2v-583q0 -98 -69.5 -168t-168.5 -70h-653v197h653q16 0 27.5 12t11.5 29v182h-641q-98 0 -167.5 70t-69.5 168zM272 238q0 -16 11.5 -28.5t27.5 -12.5h602q16 0 27.5 12t11.5 29v581 q0 18 -11 29.5t-28 11.5h-602q-16 0 -27.5 -11t-11.5 -30v-581z" />
<glyph unicode="h" horiz-adv-x="1216" d="M98 0v1403h197v-346h641q98 0 168 -68.5t70 -169.5v-819h-197v819q0 18 -12.5 29.5t-28.5 11.5h-600q-16 0 -28.5 -11t-12.5 -30v-819h-197z" />
<glyph unicode="i" horiz-adv-x="378" d="M94 0v1057h197v-1057h-197zM94 1206v197h197v-197h-197z" />
<glyph unicode="j" horiz-adv-x="434" d="M-340 -223h451q16 0 28.5 12t12.5 29v1235h196v-652v-583q0 -98 -69.5 -168t-167.5 -70h-451v197zM152 1206v197h196v-197h-196z" />
<glyph unicode="k" horiz-adv-x="1175" d="M98 0v1403h197v-776h237l396 430h233v-27l-454 -502l454 -501v-27h-233l-396 430h-237v-430h-197z" />
<glyph unicode="l" horiz-adv-x="548" d="M94 238v581v584h197v-1165q0 -16 12 -28.5t29 -12.5h196v-197h-196q-98 0 -168 70t-70 168z" />
<glyph unicode="m" horiz-adv-x="1781" d="M98 0v1057h1352q98 0 167 -68.5t69 -169.5v-819h-195v819q0 18 -12.5 29.5t-28.5 11.5h-418q-16 0 -28.5 -11t-12.5 -30v-819h-196v819q0 18 -12.5 29.5t-28.5 11.5h-418q-16 0 -28.5 -11t-12.5 -30v-819h-197z" />
<glyph unicode="n" horiz-adv-x="1267" d="M98 0v1057h838q100 0 169 -68.5t69 -169.5v-819h-197v819q0 18 -12.5 29.5t-28.5 11.5h-600q-16 0 -28.5 -11t-12.5 -30v-819h-197z" />
<glyph unicode="o" horiz-adv-x="1259" d="M92 238v581q0 100 69.5 169t168.5 69h602q98 0 166.5 -68.5t68.5 -169.5v-581q0 -98 -68.5 -168t-166.5 -70h-602q-98 0 -168 70t-70 168zM291 238q0 -16 11 -28.5t28 -12.5h602q16 0 27.5 12t11.5 29v581q0 18 -11.5 29.5t-27.5 11.5h-602q-16 0 -27.5 -11t-11.5 -30 v-581z" />
<glyph unicode="p" horiz-adv-x="1208" d="M98 -420v1477h838q100 0 169 -68.5t69 -169.5v-581q0 -98 -69 -168t-169 -70h-641v-420h-197zM295 238q0 -16 12 -28.5t29 -12.5h600q16 0 28.5 12t12.5 29v581q0 18 -12.5 29.5t-28.5 11.5h-600q-16 0 -28.5 -11t-12.5 -30v-581z" />
<glyph unicode="q" horiz-adv-x="1208" d="M37 238v581q0 100 68.5 169t168.5 69h838v-1477h-197v420h-641q-100 0 -168.5 70t-68.5 168zM233 238q0 -16 11.5 -28.5t29.5 -12.5h600q16 0 28.5 12t12.5 29v581q0 18 -12 29.5t-29 11.5h-600q-18 0 -29.5 -11t-11.5 -30v-581z" />
<glyph unicode="r" horiz-adv-x="931" d="M94 0v238v581q0 100 69.5 169t168.5 69h590v-197h-590q-16 0 -28.5 -11t-12.5 -30v-819h-197z" />
<glyph unicode="s" horiz-adv-x="1249" d="M88 238v38h197v-38q0 -16 11 -28.5t28 -12.5h602q16 0 28.5 12t12.5 29v151q0 16 -12.5 28.5t-28.5 12.5h-602q-98 0 -167 69.5t-69 168.5v151q0 100 68.5 169t167.5 69h602q98 0 167.5 -68.5t69.5 -169.5v-39h-196v39q0 18 -12.5 29.5t-28.5 11.5h-602q-16 0 -27.5 -11 t-11.5 -30v-151q0 -16 11 -28.5t28 -12.5h602q98 0 167.5 -69t69.5 -169v-151q0 -98 -69.5 -168t-167.5 -70h-602q-98 0 -167 70t-69 168z" />
<glyph unicode="t" horiz-adv-x="745" d="M96 238v581v584h197v-346h434v-197h-434v-622q0 -16 12 -28.5t29 -12.5h393v-197h-393q-98 0 -168 70t-70 168z" />
<glyph unicode="u" horiz-adv-x="1265" d="M96 238v819h197v-819q0 -16 12 -28.5t29 -12.5h602q16 0 27.5 12t11.5 29v819h196v-819q0 -98 -68.5 -168t-166.5 -70h-602q-98 0 -168 70t-70 168z" />
<glyph unicode="v" horiz-adv-x="1439" d="M39 1057h227l455 -834l455 834h225l-582 -1057h-198z" />
<glyph unicode="w" horiz-adv-x="1931" d="M63 1057h211l285 -701l305 701h223l324 -701l268 701h209l-397 -1057h-160l-356 786l-336 -786l-2 2l2 -2h-160z" />
<glyph unicode="x" horiz-adv-x="1259" d="M84 0v27l418 512l-418 491v27h233l314 -367l313 367h234v-27l-420 -491l420 -512v-27h-234l-313 385l-314 -385h-233z" />
<glyph unicode="y" horiz-adv-x="1247" d="M76 238v815h198v-815q0 -16 11.5 -28.5t27.5 -12.5h602q16 0 27.5 12t11.5 29v815h197v-647v-5v-583q0 -98 -68.5 -168t-167.5 -70h-653v197h653q16 0 27.5 12t11.5 29v182h-641q-98 0 -167.5 70t-69.5 168z" />
<glyph unicode="z" horiz-adv-x="1271" d="M98 0v233l813 627h-813v197h1076v-234l-814 -626h814v-197h-1076z" />
<glyph unicode="{" horiz-adv-x="526" d="M41 569v197l82 45v264q0 98 68.5 168t166.5 70h78v-197h-78q-16 0 -27.5 -12t-11.5 -29v-307l-129 -100l129 -107v-323q0 -16 11.5 -28.5t27.5 -12.5h78v-197h-78q-98 0 -166.5 69.5t-68.5 168.5v284z" />
<glyph unicode="|" horiz-adv-x="389" d="M98 -199v1708h197v-1708h-197z" />
<glyph unicode="}" horiz-adv-x="526" d="M92 0v197h78q16 0 27.5 12t11.5 29v323l129 107l-129 100v307q0 16 -11.5 28.5t-27.5 12.5h-78v197h78q98 0 167 -69.5t69 -168.5v-264l81 -45v-197l-81 -47v-284q0 -98 -69 -168t-167 -70h-78z" />
<glyph unicode="~" horiz-adv-x="735" d="M43 506v135q61 27 135 27q72 0 187.5 -58.5t177.5 -66.5q72 0 143 47v-135q-78 -33 -143 -33q-63 0 -178 62.5t-187 62.5q-108 0 -135 -41z" />
<glyph unicode="&#xa1;" horiz-adv-x="380" d="M96 0v948h197v-948h-197zM96 1116v197h197v-197h-197z" />
<glyph unicode="&#xa2;" horiz-adv-x="1159" d="M59 238v600q0 98 70 167.5t168 69.5h203v234h196v-234h437v-196h-437v-682h437v-197h-437v-199h-196v199h-203q-98 0 -168 70t-70 168zM256 238q0 -16 12.5 -28.5t28.5 -12.5h203v682h-203q-16 0 -28.5 -12.5t-12.5 -28.5v-600z" />
<glyph unicode="&#xa3;" horiz-adv-x="1337" d="M72 0v197h182v360h-182v197h182v321q0 98 68.5 168t166.5 70h527q98 0 166.5 -69.5t68.5 -168.5v-55h-196v55q0 16 -11.5 28.5t-27.5 12.5h-527q-16 0 -27 -12t-11 -29v-321h608v-197h-608v-360h800v-197h-1179z" />
<glyph unicode="&#xa8;" horiz-adv-x="700" d="M98 1507v197h197v-197h-197zM408 1507v197h196v-197h-196z" />
<glyph unicode="&#xaa;" horiz-adv-x="1263" d="M94 238v389h879v192q0 18 -11.5 29.5t-27.5 11.5h-840v197h840q98 0 166.5 -68.5t68.5 -169.5v-819h-837q-98 0 -168 70t-70 168zM291 238q0 -16 12 -28.5t29 -12.5h641v233h-682v-192z" />
<glyph unicode="&#xad;" horiz-adv-x="942" d="M109 440v199h729v-199h-729z" />
<glyph unicode="&#xb0;" horiz-adv-x="798" d="M82 930v145q0 98 69.5 168t167.5 70h164q98 0 168 -69.5t70 -168.5v-145q0 -98 -69.5 -168t-168.5 -70h-164q-98 0 -167.5 70t-69.5 168zM242 893q0 -16 12 -27.5t29 -11.5h237q16 0 27.5 11.5t11.5 27.5v219q0 16 -11 27.5t-28 11.5h-237q-16 0 -28.5 -11.5t-12.5 -27.5 v-219z" />
<glyph unicode="&#xb2;" horiz-adv-x="1511" d="M104 0v500q0 98 69 167.5t167 69.5h840q16 0 27.5 11.5t11.5 27.5v299q0 16 -11.5 28.5t-27.5 12.5h-840q-16 0 -27.5 -12t-11.5 -29v-76h-197v76q0 98 69 168t167 70h840q98 0 167.5 -69.5t69.5 -168.5v-299q0 -98 -69.5 -167.5t-167.5 -69.5h-840q-16 0 -27.5 -11.5 t-11.5 -27.5v-262q0 -16 11.5 -28.5t27.5 -12.5h1077v-197h-1313z" />
<glyph unicode="&#xb3;" horiz-adv-x="1505" d="M96 238v53h197v-53q0 -16 12 -28.5t29 -12.5h837q16 0 28.5 12t12.5 29v292q0 16 -12 28.5t-29 12.5h-837v197h784q16 0 27.5 11.5t11.5 27.5v268q0 16 -11 28.5t-28 12.5h-784q-16 0 -28.5 -12t-12.5 -29v-71h-197v71q0 98 70 168t168 70h784q98 0 167 -69.5t69 -168.5 v-268q0 -51 -23 -102q78 -68 78 -175v-292q0 -98 -69.5 -168t-168.5 -70h-837q-98 0 -168 70t-70 168z" />
<glyph unicode="&#xb4;" horiz-adv-x="387" d="M59 1507l74 295h197l-74 -295h-197z" />
<glyph unicode="&#xb6;" horiz-adv-x="1517" d="M102 705v368q0 96 69 167t169 71h1075v-1311h-196v469h-185v-469h-196v469h-498q-100 0 -169 70t-69 166zM299 705q0 -16 12.5 -27.5t28.5 -11.5h498v448h-498q-16 0 -28.5 -12t-12.5 -29v-368zM1034 666h185v448h-185v-448z" />
<glyph unicode="&#xb8;" horiz-adv-x="387" d="M59 -295l74 295h197l-74 -295h-197z" />
<glyph unicode="&#xb9;" horiz-adv-x="710" d="M2 870l371 443h233v-1313h-196v1051l-152 -181h-256z" />
<glyph unicode="&#xba;" horiz-adv-x="1259" d="M92 238v581q0 100 69.5 169t168.5 69h602q98 0 166.5 -68.5t68.5 -169.5v-581q0 -98 -68.5 -168t-166.5 -70h-602q-98 0 -168 70t-70 168zM291 238q0 -16 11 -28.5t28 -12.5h602q16 0 27.5 12t11.5 29v581q0 18 -11.5 29.5t-27.5 11.5h-602q-16 0 -27.5 -11t-11.5 -30 v-581z" />
<glyph unicode="&#xbf;" horiz-adv-x="1228" d="M35 238v333q0 100 69.5 169t167.5 69h471q16 0 28.5 12.5t12.5 28.5v111h197v-111q0 -98 -69.5 -168t-168.5 -70h-471q-16 0 -28.5 -12t-12.5 -29v-333q0 -16 12.5 -28.5t28.5 -12.5h906v-197h-906q-98 0 -167.5 70t-69.5 168zM784 1116v197h197v-197h-197z" />
<glyph unicode="&#xc0;" horiz-adv-x="1523" d="M106 0v1075q0 98 69 168t167 70h840q98 0 166.5 -69.5t68.5 -168.5v-1075h-196v459h-918v-459h-197zM303 655h918v420q0 16 -11.5 28.5t-27.5 12.5h-840q-16 0 -27.5 -12t-11.5 -29v-420zM627 1790h196l74 -295h-197z" />
<glyph unicode="&#xc1;" horiz-adv-x="1523" d="M106 0v1075q0 98 69 168t167 70h840q98 0 166.5 -69.5t68.5 -168.5v-1075h-196v459h-918v-459h-197zM303 655h918v420q0 16 -11.5 28.5t-27.5 12.5h-840q-16 0 -27.5 -12t-11.5 -29v-420zM627 1493l73 295h197l-74 -295h-196z" />
<glyph unicode="&#xc2;" horiz-adv-x="1523" d="M106 0v1075q0 98 69 168t167 70h840q98 0 166.5 -69.5t68.5 -168.5v-1075h-196v459h-918v-459h-197zM303 655h918v420q0 16 -11.5 28.5t-27.5 12.5h-840q-16 0 -27.5 -12t-11.5 -29v-420zM539 1493l155 256h135l156 -256h-137l-86 139l-88 -139h-135z" />
<glyph unicode="&#xc3;" horiz-adv-x="1523" d="M106 0v1075q0 98 69 168t167 70h840q98 0 166.5 -69.5t68.5 -168.5v-1075h-196v459h-918v-459h-197zM303 655h918v420q0 16 -11.5 28.5t-27.5 12.5h-840q-16 0 -27.5 -12t-11.5 -29v-420zM440 1583v137q61 27 135 27q72 0 188 -58.5t177 -66.5q72 0 143 47v-135 q-78 -33 -143 -33q-63 0 -178 62.5t-187 62.5q-108 0 -135 -43z" />
<glyph unicode="&#xc4;" horiz-adv-x="1523" d="M106 0v1075q0 98 69 168t167 70h840q98 0 166.5 -69.5t68.5 -168.5v-1075h-196v459h-918v-459h-197zM303 655h918v420q0 16 -11.5 28.5t-27.5 12.5h-840q-16 0 -27.5 -12t-11.5 -29v-420zM508 1477v196h197v-196h-197zM819 1477v196h197v-196h-197z" />
<glyph unicode="&#xc5;" horiz-adv-x="1523" d="M106 0v1075q0 98 69 168t167 70h840q98 0 166.5 -69.5t68.5 -168.5v-1075h-196v459h-918v-459h-197zM303 655h918v420q0 16 -11.5 28.5t-27.5 12.5h-840q-16 0 -27.5 -12t-11.5 -29v-420zM612 1593v99q0 41 30 68.5t69 27.5h102q41 0 69.5 -27.5t28.5 -68.5v-99 q0 -41 -28.5 -68.5t-69.5 -27.5h-102q-39 0 -69 27.5t-30 68.5zM686 1587q0 -18 16 -18h119q16 0 17 18v111q0 16 -17 16h-119q-16 0 -16 -16v-111z" />
<glyph unicode="&#xc6;" horiz-adv-x="2504" d="M98 0v1075q0 98 70 168t168 70h2081v-197h-1006v-362h809v-197h-809v-360h1006v-197h-1203v459h-919v-459h-197zM295 655h919v420q0 16 -12 28.5t-28 12.5h-838q-16 0 -28.5 -12t-12.5 -29v-420z" />
<glyph unicode="&#xc7;" horiz-adv-x="1497" d="M102 238v837q0 98 69 168t169 70h1071v-197h-1071q-16 0 -28.5 -12t-12.5 -29v-837q0 -16 12.5 -28.5t28.5 -12.5h1071v-197h-526l-74 -295h-197l74 295h-348q-100 0 -169 70t-69 168z" />
<glyph unicode="&#xc8;" horiz-adv-x="1394" d="M106 0v1313h1203v-197h-1006v-362h809v-197h-809v-360h1006v-197h-1203zM563 1790h197l74 -295h-197z" />
<glyph unicode="&#xc9;" horiz-adv-x="1394" d="M106 0v1313h1203v-197h-1006v-362h809v-197h-809v-360h1006v-197h-1203zM563 1495l74 295h197l-74 -295h-197z" />
<glyph unicode="&#xca;" horiz-adv-x="1394" d="M106 0v1313h1203v-197h-1006v-362h809v-197h-809v-360h1006v-197h-1203zM475 1493l156 256h135l154 -256h-136l-86 139l-88 -139h-135z" />
<glyph unicode="&#xcb;" horiz-adv-x="1394" d="M106 0v1313h1203v-197h-1006v-362h809v-197h-809v-360h1006v-197h-1203zM444 1495v197h197v-197h-197zM754 1495v197h198v-197h-198z" />
<glyph unicode="&#xcc;" horiz-adv-x="399" d="M66 1790h196l74 -295h-197zM104 0v1313h197v-1313h-197z" />
<glyph unicode="&#xcd;" horiz-adv-x="399" d="M66 1495l73 295h197l-74 -295h-196zM104 0v1313h197v-1313h-197z" />
<glyph unicode="&#xce;" horiz-adv-x="399" d="M-23 1493l156 256h135l154 -256h-135l-86 139l-88 -139h-136zM104 0v1313h197v-1313h-197z" />
<glyph unicode="&#xcf;" horiz-adv-x="399" d="M-53 1495v197h196v-197h-196zM104 0v1313h197v-1313h-197zM256 1495v197h199v-197h-199z" />
<glyph unicode="&#xd1;" horiz-adv-x="1515" d="M102 0v1313h234l883 -1051v1051h196v-1313h-233l-883 1051v-1051h-197zM438 1583v137q59 27 133 27q72 0 187.5 -58.5t177.5 -66.5q72 0 143 47v-135q-76 -33 -143 -33q-63 0 -178 62.5t-187 62.5q-108 0 -133 -43z" />
<glyph unicode="&#xd2;" d="M98 238v837q0 98 70 168t168 70h838q98 0 167.5 -69.5t69.5 -168.5v-837q0 -98 -69.5 -168t-167.5 -70h-838q-98 0 -168 70t-70 168zM295 238q0 -16 12 -28.5t29 -12.5h838q16 0 28 12t12 29v837q0 16 -12 28.5t-28 12.5h-838q-16 0 -28.5 -12t-12.5 -29v-837zM621 1790 h196l72 -295h-197z" />
<glyph unicode="&#xd3;" d="M98 238v837q0 98 70 168t168 70h838q98 0 167.5 -69.5t69.5 -168.5v-837q0 -98 -69.5 -168t-167.5 -70h-838q-98 0 -168 70t-70 168zM295 238q0 -16 12 -28.5t29 -12.5h838q16 0 28 12t12 29v837q0 16 -12 28.5t-28 12.5h-838q-16 0 -28.5 -12t-12.5 -29v-837zM621 1495 l71 295h197l-72 -295h-196z" />
<glyph unicode="&#xd4;" d="M98 238v837q0 98 70 168t168 70h838q98 0 167.5 -69.5t69.5 -168.5v-837q0 -98 -69.5 -168t-167.5 -70h-838q-98 0 -168 70t-70 168zM295 238q0 -16 12 -28.5t29 -12.5h838q16 0 28 12t12 29v837q0 16 -12 28.5t-28 12.5h-838q-16 0 -28.5 -12t-12.5 -29v-837zM532 1493 l156 256h133l156 -256h-137l-86 139l-86 -139h-136z" />
<glyph unicode="&#xd5;" d="M98 238v837q0 98 70 168t168 70h838q98 0 167.5 -69.5t69.5 -168.5v-837q0 -98 -69.5 -168t-167.5 -70h-838q-98 0 -168 70t-70 168zM295 238q0 -16 12 -28.5t29 -12.5h838q16 0 28 12t12 29v837q0 16 -12 28.5t-28 12.5h-838q-16 0 -28.5 -12t-12.5 -29v-837zM434 1583 v137q59 27 135 27q70 0 185.5 -58.5t179.5 -66.5q70 0 141 47v-135q-76 -33 -141 -33q-63 0 -179 62.5t-186 62.5q-110 0 -135 -43z" />
<glyph unicode="&#xd6;" d="M98 238v837q0 98 70 168t168 70h838q98 0 167.5 -69.5t69.5 -168.5v-837q0 -98 -69.5 -168t-167.5 -70h-838q-98 0 -168 70t-70 168zM295 238q0 -16 12 -28.5t29 -12.5h838q16 0 28 12t12 29v837q0 16 -12 28.5t-28 12.5h-838q-16 0 -28.5 -12t-12.5 -29v-837zM502 1495 v197h196v-197h-196zM811 1495v197h197v-197h-197z" />
<glyph unicode="&#xd7;" horiz-adv-x="993" d="M96 164v26l273 357l-273 356v27h234l168 -230l168 230h233v-27l-274 -356l274 -357v-26h-233l-168 229l-168 -229h-234z" />
<glyph unicode="&#xd9;" d="M98 238v1075h197v-1075q0 -16 12 -28.5t29 -12.5h838q16 0 28 12t12 29v1075h197v-1075q0 -98 -69.5 -168t-167.5 -70h-838q-98 0 -168 70t-70 168zM621 1790h196l72 -295h-197z" />
<glyph unicode="&#xda;" d="M98 238v1075h197v-1075q0 -16 12 -28.5t29 -12.5h838q16 0 28 12t12 29v1075h197v-1075q0 -98 -69.5 -168t-167.5 -70h-838q-98 0 -168 70t-70 168zM621 1495l71 295h197l-72 -295h-196z" />
<glyph unicode="&#xdb;" d="M98 238v1075h197v-1075q0 -16 12 -28.5t29 -12.5h838q16 0 28 12t12 29v1075h197v-1075q0 -98 -69.5 -168t-167.5 -70h-838q-98 0 -168 70t-70 168zM532 1493l156 256h133l156 -256h-137l-86 139l-86 -139h-136z" />
<glyph unicode="&#xdc;" d="M98 238v1075h197v-1075q0 -16 12 -28.5t29 -12.5h838q16 0 28 12t12 29v1075h197v-1075q0 -98 -69.5 -168t-167.5 -70h-838q-98 0 -168 70t-70 168zM502 1495v197h196v-197h-196zM811 1495v197h197v-197h-197z" />
<glyph unicode="&#xdd;" horiz-adv-x="1468" d="M31 1313h231l473 -598l469 598h234l-604 -821v-492h-197v492zM600 1495l72 295h198l-73 -295h-197z" />
<glyph unicode="&#xdf;" horiz-adv-x="1517" d="M104 0v1075q0 98 69 168t167 70h840q88 0 154.5 -56.5t82.5 -140.5v-303q0 -78 -47 -139q47 -59 47 -137v-299q0 -98 -69.5 -168t-167.5 -70h-682v197h682q16 0 27.5 12t11.5 29v299q0 16 -11.5 27t-27.5 11h-682v179h682q16 0 27.5 11t11.5 28v280q0 16 -11.5 28.5 t-27.5 12.5h-840q-16 0 -27.5 -12t-11.5 -29v-1073h-197z" />
<glyph unicode="&#xe0;" horiz-adv-x="1320" d="M94 238v389h879v192q0 18 -11.5 29.5t-27.5 11.5h-840v197h840q98 0 166.5 -68.5t68.5 -169.5v-819h-837q-98 0 -168 70t-70 168zM291 238q0 -16 12 -28.5t29 -12.5h641v233h-682v-192zM524 1604h197l74 -295h-197z" />
<glyph unicode="&#xe1;" horiz-adv-x="1320" d="M94 238v389h879v192q0 18 -11.5 29.5t-27.5 11.5h-840v197h840q98 0 166.5 -68.5t68.5 -169.5v-819h-837q-98 0 -168 70t-70 168zM291 238q0 -16 12 -28.5t29 -12.5h641v233h-682v-192zM524 1309l74 295h197l-74 -295h-197z" />
<glyph unicode="&#xe2;" horiz-adv-x="1320" d="M94 238v389h879v192q0 18 -11.5 29.5t-27.5 11.5h-840v197h840q98 0 166.5 -68.5t68.5 -169.5v-819h-837q-98 0 -168 70t-70 168zM291 238q0 -16 12 -28.5t29 -12.5h641v233h-682v-192zM438 1309l154 258h135l156 -258h-138l-86 139l-88 -139h-133z" />
<glyph unicode="&#xe3;" horiz-adv-x="1320" d="M94 238v389h879v192q0 18 -11.5 29.5t-27.5 11.5h-840v197h840q98 0 166.5 -68.5t68.5 -169.5v-819h-837q-98 0 -168 70t-70 168zM291 238q0 -16 12 -28.5t29 -12.5h641v233h-682v-192zM340 1397v135q59 27 133 27q72 0 187.5 -58.5t177.5 -66.5q72 0 143 49v-135 q-78 -33 -143 -33q-63 0 -178 61.5t-187 61.5q-108 0 -133 -41z" />
<glyph unicode="&#xe4;" horiz-adv-x="1320" d="M94 238v389h879v192q0 18 -11.5 29.5t-27.5 11.5h-840v197h840q98 0 166.5 -68.5t68.5 -169.5v-819h-837q-98 0 -168 70t-70 168zM291 238q0 -16 12 -28.5t29 -12.5h641v233h-682v-192zM406 1309v196h198v-196h-198zM717 1309v196h196v-196h-196z" />
<glyph unicode="&#xe5;" horiz-adv-x="1320" d="M94 238v389h879v192q0 18 -11.5 29.5t-27.5 11.5h-840v197h840q98 0 166.5 -68.5t68.5 -169.5v-819h-837q-98 0 -168 70t-70 168zM291 238q0 -16 12 -28.5t29 -12.5h641v233h-682v-192zM510 1405v98q0 41 29.5 68.5t68.5 27.5h103q41 0 69.5 -27.5t28.5 -68.5v-98 q0 -39 -28.5 -67.5t-69.5 -28.5h-103q-39 0 -68.5 28.5t-29.5 67.5zM584 1401q0 -18 16 -19h121q16 0 16 19v108q0 18 -16 19h-121q-16 0 -16 -19v-108z" />
<glyph unicode="&#xe6;" horiz-adv-x="2146" d="M96 238v389h879v192q0 18 -11.5 29.5t-27.5 11.5h-840v197h1719q98 0 166.5 -68.5t68.5 -169.5v-389h-879v-199q4 -35 41 -34h838v-197h-1716q-98 0 -168 70t-70 168zM293 238q0 -16 12 -28.5t29 -12.5h641v233h-682v-192zM1171 627h682v192q0 18 -11 29.5t-27 11.5h-603 q-16 0 -28.5 -11t-12.5 -30v-192z" />
<glyph unicode="&#xe7;" horiz-adv-x="1261" d="M92 238v581q0 100 69.5 169t168.5 69h835v-197h-835q-16 0 -27.5 -11t-11.5 -30v-581q0 -16 11 -28.5t28 -12.5h837v-197h-837q-98 0 -168 70t-70 168zM496 -295l73 295h197l-74 -295h-196z" />
<glyph unicode="&#xe8;" horiz-adv-x="1161" d="M92 238v581q0 100 69.5 169t168.5 69h602q98 0 166.5 -68.5t68.5 -169.5v-389h-876v-192q0 -16 11 -28.5t28 -12.5h837v-197h-837q-98 0 -168 70t-70 168zM291 627h680v192q0 18 -11.5 29.5t-27.5 11.5h-602q-16 0 -27.5 -11t-11.5 -30v-192zM446 1604h197l74 -295h-197z " />
<glyph unicode="&#xe9;" horiz-adv-x="1161" d="M92 238v581q0 100 69.5 169t168.5 69h602q98 0 166.5 -68.5t68.5 -169.5v-389h-876v-192q0 -16 11 -28.5t28 -12.5h837v-197h-837q-98 0 -168 70t-70 168zM291 627h680v192q0 18 -11.5 29.5t-27.5 11.5h-602q-16 0 -27.5 -11t-11.5 -30v-192zM446 1311l74 295h197 l-74 -295h-197z" />
<glyph unicode="&#xea;" horiz-adv-x="1161" d="M92 238v581q0 100 69.5 169t168.5 69h602q98 0 166.5 -68.5t68.5 -169.5v-389h-876v-192q0 -16 11 -28.5t28 -12.5h837v-197h-837q-98 0 -168 70t-70 168zM291 627h680v192q0 18 -11.5 29.5t-27.5 11.5h-602q-16 0 -27.5 -11t-11.5 -30v-192zM358 1309l156 258h135 l154 -258h-135l-86 139l-88 -139h-136z" />
<glyph unicode="&#xeb;" horiz-adv-x="1161" d="M92 238v581q0 100 69.5 169t168.5 69h602q98 0 166.5 -68.5t68.5 -169.5v-389h-876v-192q0 -16 11 -28.5t28 -12.5h837v-197h-837q-98 0 -168 70t-70 168zM291 627h680v192q0 18 -11.5 29.5t-27.5 11.5h-602q-16 0 -27.5 -11t-11.5 -30v-192zM328 1309v196h196v-196h-196 zM639 1309v196h197v-196h-197z" />
<glyph unicode="&#xec;" horiz-adv-x="389" d="M29 1606h196l74 -295h-197zM102 0v1057h197v-1057h-197z" />
<glyph unicode="&#xed;" horiz-adv-x="389" d="M90 1309l72 295h196l-71 -295h-197zM92 0v1057h199v-1057h-199z" />
<glyph unicode="&#xee;" horiz-adv-x="389" d="M-27 1309l154 258h135l156 -258h-137l-86 139l-86 -139h-136zM92 0v1057h199v-1057h-199z" />
<glyph unicode="&#xef;" horiz-adv-x="389" d="M-57 1313v196h196v-196h-196zM100 0v1057h197v-1057h-197zM252 1313v196h197v-196h-197z" />
<glyph unicode="&#xf1;" horiz-adv-x="1290" d="M98 0v1057h838q100 0 169 -68.5t69 -169.5v-819h-197v819q0 18 -12.5 29.5t-28.5 11.5h-600q-16 0 -28.5 -11t-12.5 -30v-819h-197zM324 1395v137q61 25 135 24q72 0 187.5 -58t176.5 -64q72 0 144 47v-135q-78 -33 -144 -33q-63 0 -178 61.5t-186 61.5q-108 0 -135 -41z " />
<glyph unicode="&#xf2;" horiz-adv-x="1259" d="M92 238v581q0 100 69.5 169t168.5 69h602q98 0 166.5 -68.5t68.5 -169.5v-581q0 -98 -68.5 -168t-166.5 -70h-602q-98 0 -168 70t-70 168zM291 238q0 -16 11 -28.5t28 -12.5h602q16 0 27.5 12t11.5 29v581q0 18 -11.5 29.5t-27.5 11.5h-602q-16 0 -27.5 -11t-11.5 -30 v-581zM496 1606h196l74 -295h-197z" />
<glyph unicode="&#xf3;" horiz-adv-x="1259" d="M92 238v581q0 100 69.5 169t168.5 69h602q98 0 166.5 -68.5t68.5 -169.5v-581q0 -98 -68.5 -168t-166.5 -70h-602q-98 0 -168 70t-70 168zM291 238q0 -16 11 -28.5t28 -12.5h602q16 0 27.5 12t11.5 29v581q0 18 -11.5 29.5t-27.5 11.5h-602q-16 0 -27.5 -11t-11.5 -30 v-581zM496 1311l73 295h197l-74 -295h-196z" />
<glyph unicode="&#xf4;" horiz-adv-x="1259" d="M92 238v581q0 100 69.5 169t168.5 69h602q98 0 166.5 -68.5t68.5 -169.5v-581q0 -98 -68.5 -168t-166.5 -70h-602q-98 0 -168 70t-70 168zM291 238q0 -16 11 -28.5t28 -12.5h602q16 0 27.5 12t11.5 29v581q0 18 -11.5 29.5t-27.5 11.5h-602q-16 0 -27.5 -11t-11.5 -30 v-581zM408 1309l155 258h135l156 -258h-137l-86 139l-88 -139h-135z" />
<glyph unicode="&#xf5;" horiz-adv-x="1259" d="M92 238v581q0 100 69.5 169t168.5 69h602q98 0 166.5 -68.5t68.5 -169.5v-581q0 -98 -68.5 -168t-166.5 -70h-602q-98 0 -168 70t-70 168zM291 238q0 -16 11 -28.5t28 -12.5h602q16 0 27.5 12t11.5 29v581q0 18 -11.5 29.5t-27.5 11.5h-602q-16 0 -27.5 -11t-11.5 -30 v-581zM309 1395v137q61 25 135 24q72 0 188 -58t177 -64q72 0 143 47v-135q-78 -33 -143 -33q-63 0 -178 61.5t-187 61.5q-108 0 -135 -41z" />
<glyph unicode="&#xf6;" horiz-adv-x="1259" d="M92 238v581q0 100 69.5 169t168.5 69h602q98 0 166.5 -68.5t68.5 -169.5v-581q0 -98 -68.5 -168t-166.5 -70h-602q-98 0 -168 70t-70 168zM291 238q0 -16 11 -28.5t28 -12.5h602q16 0 27.5 12t11.5 29v581q0 18 -11.5 29.5t-27.5 11.5h-602q-16 0 -27.5 -11t-11.5 -30 v-581zM377 1313v196h196v-196h-196zM688 1313v196h197v-196h-197z" />
<glyph unicode="&#xf7;" horiz-adv-x="913" d="M33 440v199h874v-199h-874zM367 0v197h196v-197h-196zM367 874v197h196v-197h-196z" />
<glyph unicode="&#xf9;" horiz-adv-x="1265" d="M96 238v819h197v-819q0 -16 12 -28.5t29 -12.5h602q16 0 27.5 12t11.5 29v819h196v-819q0 -98 -68.5 -168t-166.5 -70h-602q-98 0 -168 70t-70 168zM498 1606h196l74 -295h-197z" />
<glyph unicode="&#xfa;" horiz-adv-x="1265" d="M96 238v819h197v-819q0 -16 12 -28.5t29 -12.5h602q16 0 27.5 12t11.5 29v819h196v-819q0 -98 -68.5 -168t-166.5 -70h-602q-98 0 -168 70t-70 168zM498 1311l73 295h197l-74 -295h-196z" />
<glyph unicode="&#xfb;" horiz-adv-x="1265" d="M96 238v819h197v-819q0 -16 12 -28.5t29 -12.5h602q16 0 27.5 12t11.5 29v819h196v-819q0 -98 -68.5 -168t-166.5 -70h-602q-98 0 -168 70t-70 168zM410 1311l155 256h135l154 -256h-135l-86 139l-88 -139h-135z" />
<glyph unicode="&#xfc;" horiz-adv-x="1265" d="M96 238v819h197v-819q0 -16 12 -28.5t29 -12.5h602q16 0 27.5 12t11.5 29v819h196v-819q0 -98 -68.5 -168t-166.5 -70h-602q-98 0 -168 70t-70 168zM379 1309v196h196v-196h-196zM688 1309v196h199v-196h-199z" />
<glyph unicode="&#xfd;" horiz-adv-x="1253" d="M76 238v815h198v-815q0 -16 11.5 -28.5t27.5 -12.5h602q16 0 27.5 12t11.5 29v815h197v-647v-5v-583q0 -98 -68.5 -168t-167.5 -70h-653v197h653q16 0 27.5 12t11.5 29v182h-641q-98 0 -167.5 70t-69.5 168zM492 1311l73 295h197l-74 -295h-196z" />
<glyph unicode="&#xff;" horiz-adv-x="1253" d="M76 238v815h198v-815q0 -16 11.5 -28.5t27.5 -12.5h602q16 0 27.5 12t11.5 29v815h197v-647v-5v-583q0 -98 -68.5 -168t-167.5 -70h-653v197h653q16 0 27.5 12t11.5 29v182h-641q-98 0 -167.5 70t-69.5 168zM373 1313v196h198v-196h-198zM684 1313v196h197v-196h-197z " />
<glyph unicode="&#x152;" horiz-adv-x="2502" d="M96 238v837q0 98 70 168t168 70h2081v-197h-1006v-362h809v-197h-809v-360h1006v-197h-2081q-98 0 -168 70t-70 168zM293 238q0 -16 12 -28.5t29 -12.5h837q16 0 28.5 12t12.5 29v837q0 16 -12 28.5t-29 12.5h-837q-16 0 -28.5 -12t-12.5 -29v-837z" />
<glyph unicode="&#x153;" horiz-adv-x="2144" d="M94 238v581q0 100 69.5 169t168.5 69h1480q98 0 167 -68.5t69 -169.5v-389h-879v-192q0 -16 12.5 -28.5t28.5 -12.5h838v-197h-1716q-98 0 -168 70t-70 168zM291 238q0 -16 12 -28.5t29 -12.5h602q16 0 27.5 12t11.5 29v581q0 18 -11.5 29.5t-27.5 11.5h-602 q-16 0 -28.5 -11t-12.5 -30v-581zM1169 627h682v192q0 18 -11 29.5t-28 11.5h-602q-16 0 -28.5 -11t-12.5 -30v-192z" />
<glyph unicode="&#x178;" horiz-adv-x="1468" d="M31 1313h231l473 -598l469 598h234l-604 -821v-492h-197v492zM481 1495v197h197v-197h-197zM791 1495v197h196v-197h-196z" />
<glyph unicode="&#x2c6;" horiz-adv-x="546" d="M51 1505l156 258h133l156 -258h-138l-84 140l-88 -140h-135z" />
<glyph unicode="&#x2dc;" horiz-adv-x="733" d="M41 1597v136q61 27 135 26q72 0 187.5 -58.5t177.5 -66.5q72 0 143 47v-133q-78 -33 -143 -32q-63 0 -178 61t-187 61q-108 0 -135 -41z" />
<glyph unicode="&#x2000;" horiz-adv-x="901" />
<glyph unicode="&#x2001;" horiz-adv-x="1802" />
<glyph unicode="&#x2002;" horiz-adv-x="901" />
<glyph unicode="&#x2003;" horiz-adv-x="1802" />
<glyph unicode="&#x2004;" horiz-adv-x="600" />
<glyph unicode="&#x2005;" horiz-adv-x="450" />
<glyph unicode="&#x2006;" horiz-adv-x="299" />
<glyph unicode="&#x2007;" horiz-adv-x="299" />
<glyph unicode="&#x2008;" horiz-adv-x="225" />
<glyph unicode="&#x2009;" horiz-adv-x="360" />
<glyph unicode="&#x200a;" horiz-adv-x="98" />
<glyph unicode="&#x2010;" horiz-adv-x="942" d="M109 440v199h729v-199h-729z" />
<glyph unicode="&#x2011;" horiz-adv-x="942" d="M109 440v199h729v-199h-729z" />
<glyph unicode="&#x2012;" horiz-adv-x="942" d="M109 440v199h729v-199h-729z" />
<glyph unicode="&#x2013;" horiz-adv-x="1290" d="M98 438v199h1094v-199h-1094z" />
<glyph unicode="&#x2014;" horiz-adv-x="1497" d="M98 438v199h1303v-199h-1303z" />
<glyph unicode="&#x2018;" horiz-adv-x="352" d="M61 883v196q0 88 56.5 153.5t140.5 80.5v-430h-197z" />
<glyph unicode="&#x2019;" horiz-adv-x="350" d="M98 883v430h197v-197q0 -88 -56.5 -153.5t-140.5 -79.5z" />
<glyph unicode="&#x201c;" horiz-adv-x="688" d="M84 883v196q0 88 56.5 153.5t140.5 80.5v-430h-197zM395 883v196q0 88 56.5 153.5t140.5 80.5v-430h-197z" />
<glyph unicode="&#x201d;" horiz-adv-x="688" d="M98 883v430h197v-197q0 -88 -56.5 -153.5t-140.5 -79.5zM410 883v430h196v-197q0 -88 -56 -153.5t-140 -79.5z" />
<glyph unicode="&#x2022;" horiz-adv-x="675" d="M240 639v35q0 78 75 78h41q80 0 80 -78v-35q0 -78 -80 -78h-41q-75 0 -75 78z" />
<glyph unicode="&#x2026;" horiz-adv-x="1044" d="M98 0v197h197v-197h-197zM424 0v197h197v-197h-197zM752 0v197h196v-197h-196z" />
<glyph unicode="&#x202f;" horiz-adv-x="360" />
<glyph unicode="&#x2039;" horiz-adv-x="860" d="M8 440v199l750 430v-227l-527 -303l527 -303v-228z" />
<glyph unicode="&#x203a;" horiz-adv-x="864" d="M109 4v227l526 306l-526 301v229l747 -432v-197z" />
<glyph unicode="&#x205f;" horiz-adv-x="450" />
<glyph unicode="&#x20ac;" horiz-adv-x="1456" d="M63 397v197h183v125h-183v196h183v160q0 98 69.5 168t167.5 70h889v-197h-889q-16 0 -28.5 -12t-12.5 -29v-160h734v-196h-734v-125h734v-197h-734v-159q0 -16 12.5 -28.5t28.5 -12.5h889v-197h-889q-98 0 -167.5 69.5t-69.5 168.5v159h-183z" />
<glyph unicode="&#x2122;" horiz-adv-x="3074" d="M1486 0v1313h234l510 -608l508 608h235v-1313h-196v1051l-547 -652l-547 652v-1051h-197zM37 1116v197h1313v-197h-559v-1116h-197v1116h-557z" />
<glyph unicode="&#xe000;" horiz-adv-x="1055" d="M0 1055h1055v-1055h-1055v1055z" />
<glyph unicode="&#xfb01;" horiz-adv-x="1120" d="M835 0v1057h197v-1057h-197zM835 1206v197h197v-197h-197zM96 0v584v583q0 98 70 167t168 69h393v-197h-393q-16 0 -28.5 -11t-12.5 -28v-110h434v-197h-434v-860h-197z" />
<glyph unicode="&#xfb02;" horiz-adv-x="1292" d="M835 238v581v584h197v-1165q0 -16 12 -28.5t29 -12.5h196v-197h-196q-98 0 -168 70t-70 168zM96 0v584v583q0 98 70 167t168 69h393v-197h-393q-16 0 -28.5 -11t-12.5 -28v-110h434v-197h-434v-860h-197z" />
<glyph unicode="&#xfb03;" horiz-adv-x="1861" d="M1577 0v1057h197v-1057h-197zM1577 1206v197h197v-197h-197zM837 0v584v583q0 98 70 167t168 69h393v-197h-393q-16 0 -28.5 -11t-12.5 -28v-110h434v-197h-434v-860h-197zM96 0v584v583q0 98 70 167t168 69h393v-197h-393q-16 0 -28.5 -11t-12.5 -28v-110h434v-197h-434 v-860h-197z" />
<glyph unicode="&#xfb04;" horiz-adv-x="2033" d="M1577 238v581v584h197v-1165q0 -16 12 -28.5t29 -12.5h196v-197h-196q-98 0 -168 70t-70 168zM837 0v584v583q0 98 70 167t168 69h393v-197h-393q-16 0 -28.5 -11t-12.5 -28v-110h434v-197h-434v-860h-197zM96 0v584v583q0 98 70 167t168 69h393v-197h-393 q-16 0 -28.5 -11t-12.5 -28v-110h434v-197h-434v-860h-197z" />
<glyph horiz-adv-x="729" />
</font>
</defs>
</svg>
